<?xml version="1.0" encoding="utf-8"?>
<!-- Generator: Adobe Illustrator 16.0.3, SVG Export Plug-In . SVG Version: 6.00 Build 0)  -->
<!DOCTYPE svg PUBLIC "-//W3C//DTD SVG 1.1//EN" "http://www.w3.org/Graphics/SVG/1.1/DTD/svg11.dtd">
<svg version="1.1" id="Layer_1" xmlns="http://www.w3.org/2000/svg" xmlns:xlink="http://www.w3.org/1999/xlink" x="0px" y="0px"
	 width="900px" height="900px" viewBox="0 0 900 900" enable-background="new 0 0 900 900" xml:space="preserve">
<path d="M92.832,163.584H78.994V75.4c-3.34,3.184-7.705,6.357-13.115,9.541c-5.4,3.174-10.264,5.557-14.561,7.148V78.711
	c7.734-3.643,14.502-8.047,20.293-13.223c5.791-5.176,9.893-10.195,12.305-15.068h8.916V163.584z M233.545,662.48v-74.103h9.805
	v30.43h38.516v-30.43h9.805v74.103h-9.805v-34.933H243.35v34.933H233.545L233.545,662.48z M306.426,683.154l-1.006-8.545
	c1.982,0.537,3.721,0.811,5.205,0.811c2.021,0,3.643-0.342,4.854-1.016s2.207-1.611,2.979-2.832
	c0.576-0.908,1.504-3.164,2.783-6.769c0.166-0.508,0.439-1.25,0.811-2.227l-20.371-53.779h9.805l11.172,31.084
	c1.489,4.081,2.787,8.229,3.887,12.433c1.036-4.138,2.284-8.219,3.74-12.228l11.475-31.289h9.102l-20.42,54.59
	c-2.197,5.898-3.896,9.961-5.107,12.179c-1.621,2.998-3.467,5.205-5.557,6.602c-2.09,1.397-4.59,2.1-7.48,2.1
	C310.537,684.268,308.584,683.896,306.426,683.154L306.426,683.154z M393.418,662.48v-6.777c-3.408,5.322-8.408,7.988-15.01,7.988
	c-4.287,0-8.213-1.183-11.807-3.535c-3.584-2.363-6.367-5.654-8.34-9.883c-1.973-4.229-2.959-9.093-2.959-14.58
	c0-5.361,0.898-10.226,2.686-14.591c1.777-4.354,4.463-7.704,8.037-10.028c3.564-2.324,7.559-3.486,11.973-3.486
	c3.232,0,6.123,0.684,8.643,2.041c2.529,1.367,4.59,3.146,6.172,5.332v-26.582h9.042v74.102H393.418L393.418,662.48z
	 M364.658,635.693c0,6.864,1.445,12.012,4.346,15.409c2.9,3.408,6.318,5.107,10.264,5.107c3.975,0,7.354-1.621,10.127-4.883
	c2.783-3.242,4.17-8.213,4.17-14.883c0-7.345-1.416-12.734-4.238-16.173c-2.832-3.438-6.318-5.155-10.469-5.155
	c-4.043,0-7.422,1.649-10.137,4.951C366.016,623.369,364.658,628.584,364.658,635.693L364.658,635.693z M416.055,662.48v-53.683
	h8.193v8.135c2.09-3.809,4.014-6.317,5.781-7.528c1.776-1.211,3.721-1.816,5.84-1.816c3.065,0,6.182,0.978,9.354,2.93l-3.135,8.438
	c-2.227-1.31-4.453-1.963-6.67-1.963c-1.992,0-3.779,0.596-5.361,1.787c-1.582,1.2-2.715,2.86-3.389,4.979
	c-1.006,3.232-1.514,6.777-1.514,10.615v28.104L416.055,662.48L416.055,662.48z M447.246,635.635c0-9.932,2.764-17.295,8.291-22.08
	c4.609-3.983,10.244-5.967,16.885-5.967c7.373,0,13.408,2.412,18.086,7.256c4.688,4.834,7.031,11.515,7.031,20.039
	c0,6.904-1.035,12.344-3.105,16.299c-2.08,3.955-5.088,7.031-9.053,9.229c-3.955,2.188-8.281,3.281-12.959,3.281
	c-7.52,0-13.594-2.412-18.223-7.228C449.561,651.641,447.246,644.707,447.246,635.635z M456.592,635.635
	c0,6.875,1.504,12.021,4.502,15.449c2.998,3.418,6.777,5.127,11.328,5.127c4.512,0,8.271-1.719,11.271-5.156
	c2.999-3.437,4.491-8.672,4.491-15.723c0-6.631-1.504-11.66-4.521-15.088c-3.019-3.418-6.769-5.127-11.24-5.127
	c-4.551,0-8.33,1.699-11.328,5.106C458.096,623.623,456.592,628.76,456.592,635.635L456.592,635.635z M506.533,666.924l8.848,1.318
	c0.371,2.725,1.396,4.717,3.076,5.967c2.266,1.68,5.342,2.52,9.258,2.52c4.209,0,7.461-0.84,9.756-2.52
	c2.285-1.689,3.838-4.053,4.648-7.08c0.469-1.854,0.684-5.742,0.654-11.68c-3.976,4.688-8.927,7.031-14.863,7.031
	c-7.373,0-13.086-2.666-17.129-7.988s-6.064-11.709-6.064-19.16c0-5.117,0.918-9.844,2.773-14.17
	c1.854-4.336,4.541-7.676,8.065-10.039c3.517-2.354,7.656-3.535,12.402-3.535c6.338,0,11.563,2.56,15.674,7.687v-6.476h8.39v46.396
	c0,8.358-0.851,14.287-2.55,17.772c-1.709,3.486-4.403,6.24-8.086,8.263c-3.69,2.021-8.231,3.037-13.623,3.037
	c-6.405,0-11.571-1.445-15.518-4.326S506.396,672.725,506.533,666.924L506.533,666.924z M514.063,634.678
	c0,7.041,1.396,12.179,4.198,15.42c2.793,3.232,6.299,4.854,10.508,4.854c4.181,0,7.687-1.611,10.519-4.834
	c2.832-3.213,4.248-8.262,4.248-15.137c0-6.572-1.465-11.523-4.375-14.863c-2.92-3.33-6.426-5-10.537-5
	c-4.043,0-7.479,1.641-10.313,4.932C515.479,623.33,514.063,628.213,514.063,634.678z M602.529,645.195l9.395,1.162
	c-1.483,5.487-4.229,9.756-8.231,12.782c-4.015,3.037-9.142,4.552-15.371,4.552c-7.853,0-14.072-2.422-18.672-7.256
	c-4.601-4.834-6.904-11.611-6.904-20.343c0-9.032,2.324-16.034,6.973-21.024c4.658-4.99,10.685-7.48,18.097-7.48
	c7.178,0,13.047,2.441,17.598,7.324c4.541,4.893,6.816,11.768,6.816,20.625c0,0.537-0.011,1.348-0.05,2.422H572.15
	c0.332,5.898,2.002,10.42,5,13.555c2.998,3.136,6.737,4.697,11.221,4.697c3.34,0,6.182-0.879,8.545-2.627
	C599.277,651.826,601.143,649.033,602.529,645.195L602.529,645.195z M572.656,630.479h29.971c-0.41-4.513-1.553-7.9-3.438-10.156
	c-2.9-3.506-6.66-5.254-11.271-5.254c-4.18,0-7.695,1.396-10.537,4.188C574.531,622.061,572.959,625.801,572.656,630.479z
	 M623.35,662.48v-53.683h8.185v7.638c3.945-5.898,9.639-8.849,17.09-8.849c3.232,0,6.201,0.576,8.916,1.738s4.746,2.694,6.094,4.58
	c1.349,1.885,2.285,4.131,2.832,6.719c0.332,1.689,0.498,4.639,0.498,8.848v33.009h-9.092v-32.656c0-3.701-0.352-6.476-1.063-8.312
	c-0.703-1.836-1.964-3.301-3.761-4.403c-1.807-1.095-3.926-1.642-6.348-1.642c-3.877,0-7.217,1.23-10.029,3.691
	c-2.822,2.461-4.229,7.129-4.229,14.004v29.316L623.35,662.48L623.35,662.48z M95.186,848.32h-9.102v-57.979
	c-2.188,2.09-5.059,4.181-8.613,6.271c-3.554,2.09-6.748,3.651-9.58,4.696v-8.788c5.088-2.394,9.541-5.294,13.35-8.701
	c3.799-3.398,6.504-6.699,8.086-9.902h5.859V848.32L95.186,848.32z M123.594,848.32v-10.361h10.361v10.361H123.594z
	 M147.246,811.777c0-8.761,0.898-15.812,2.705-21.152c1.797-5.342,4.482-9.463,8.037-12.363c3.555-2.899,8.027-4.346,13.418-4.346
	c3.975,0,7.461,0.801,10.459,2.402c2.998,1.601,5.479,3.905,7.432,6.924c1.953,3.018,3.486,6.688,4.6,11.016
	c1.113,4.336,1.67,10.166,1.67,17.521c0,8.69-0.889,15.713-2.676,21.045c-1.787,5.342-4.463,9.473-8.018,12.383
	c-3.555,2.92-8.047,4.375-13.467,4.375c-7.148,0-12.754-2.56-16.836-7.687C149.688,835.732,147.246,825.693,147.246,811.777
	L147.246,811.777z M156.592,811.777c0,12.157,1.426,20.254,4.277,24.287c2.842,4.022,6.357,6.034,10.537,6.034
	c4.18,0,7.695-2.021,10.537-6.063c2.852-4.043,4.268-12.129,4.268-24.258c0-12.197-1.416-20.304-4.268-24.316
	c-2.842-4.004-6.396-6.016-10.635-6.016c-4.18,0-7.52,1.768-10.01,5.313C158.164,791.27,156.592,799.609,156.592,811.777
	L156.592,811.777z M204.814,811.777c0-8.761,0.898-15.812,2.705-21.152c1.797-5.342,4.482-9.463,8.037-12.363
	c3.555-2.899,8.027-4.346,13.418-4.346c3.975,0,7.461,0.801,10.459,2.402c2.998,1.601,5.479,3.905,7.432,6.924
	c1.953,3.018,3.486,6.688,4.6,11.016c1.113,4.336,1.67,10.166,1.67,17.521c0,8.69-0.889,15.713-2.676,21.045
	c-1.787,5.342-4.463,9.473-8.018,12.383c-3.555,2.92-8.047,4.375-13.467,4.375c-7.148,0-12.754-2.56-16.836-7.687
	C207.256,835.732,204.814,825.693,204.814,811.777L204.814,811.777z M214.16,811.777c0,12.157,1.426,20.254,4.277,24.287
	c2.842,4.022,6.357,6.034,10.537,6.034c4.18,0,7.695-2.021,10.537-6.063c2.852-4.043,4.268-12.129,4.268-24.258
	c0-12.197-1.416-20.304-4.268-24.316c-2.842-4.004-6.396-6.016-10.635-6.016c-4.18,0-7.52,1.768-10.01,5.313
	C215.732,791.27,214.16,799.609,214.16,811.777L214.16,811.777z M262.998,783.926v-8.75h47.969v7.08
	c-4.717,5.021-9.395,11.689-14.023,20.021c-4.639,8.319-8.213,16.875-10.742,25.674c-1.826,6.201-2.988,12.987-3.486,20.371h-9.355
	c0.098-5.83,1.25-12.871,3.438-21.134c2.188-8.252,5.332-16.211,9.424-23.877c4.102-7.666,8.447-14.131,13.066-19.385H262.998z
	 M321.328,831.182l8.74-0.811c0.742,4.111,2.158,7.1,4.248,8.945c2.09,1.854,4.766,2.782,8.037,2.782
	c2.793,0,5.244-0.635,7.354-1.924c2.109-1.278,3.828-2.987,5.176-5.127c1.348-2.139,2.48-5.029,3.389-8.672
	c0.91-3.634,1.369-7.366,1.367-11.113c0-0.409-0.02-1.016-0.049-1.825c-1.826,2.899-4.307,5.254-7.461,7.051
	c-3.145,1.807-6.563,2.705-10.234,2.705c-6.133,0-11.318-2.217-15.566-6.67c-4.248-4.443-6.367-10.313-6.367-17.588
	c0-7.511,2.217-13.564,6.65-18.146c4.424-4.58,9.98-6.875,16.65-6.875c4.814,0,9.229,1.299,13.213,3.896
	c3.994,2.589,7.031,6.289,9.102,11.095c2.07,4.795,3.105,11.748,3.105,20.85c0,9.463-1.025,17.002-3.076,22.617
	c-2.061,5.604-5.117,9.883-9.18,12.813c-4.063,2.931-8.818,4.396-14.277,4.396c-5.791,0-10.527-1.611-14.199-4.824
	C324.277,841.533,322.07,837.012,321.328,831.182L321.328,831.182z M358.574,798.477c0-5.215-1.387-9.364-4.17-12.432
	c-2.773-3.066-6.123-4.6-10.029-4.6c-4.043,0-7.568,1.649-10.566,4.95c-2.998,3.312-4.502,7.589-4.502,12.843
	c0,4.717,1.426,8.555,4.277,11.504c2.842,2.949,6.357,4.414,10.537,4.414c4.209,0,7.676-1.465,10.391-4.414
	C357.217,807.793,358.574,803.701,358.574,798.477L358.574,798.477z M372.52,459.619V274.727h37.333V347.5h73.146v-72.773h37.334
	V459.62h-37.334v-80.84h-73.145v80.84L372.52,459.619L372.52,459.619z M848.682,116.787h-7.891V66.465
	c-1.904,1.816-4.395,3.633-7.48,5.439c-3.086,1.816-5.858,3.174-8.311,4.082v-7.627c4.414-2.08,8.271-4.59,11.582-7.549
	c3.301-2.949,5.645-5.82,7.012-8.594h5.088V116.787L848.682,116.787z"/>
</svg>
