<?xml version="1.0" encoding="utf-8"?>
<!-- Generator: Adobe Illustrator 16.0.3, SVG Export Plug-In . SVG Version: 6.00 Build 0)  -->
<!DOCTYPE svg PUBLIC "-//W3C//DTD SVG 1.1//EN" "http://www.w3.org/Graphics/SVG/1.1/DTD/svg11.dtd">
<svg version="1.1" id="Layer_1" xmlns="http://www.w3.org/2000/svg" xmlns:xlink="http://www.w3.org/1999/xlink" x="0px" y="0px"
	 width="900px" height="900px" viewBox="0 0 900 900" enable-background="new 0 0 900 900" xml:space="preserve">
<path fill="#010101" d="M86.563,163.577H72.72V75.398c-3.34,3.169-7.71,6.349-13.12,9.531c-5.4,3.179-10.259,5.557-14.561,7.148
	v-13.38c7.729-3.643,14.502-8.042,20.293-13.223c5.786-5.176,9.888-10.2,12.3-15.068h8.916v113.17H86.563L86.563,163.577z
	 M122.003,107.986c0-13.33,1.377-24.048,4.106-32.168c2.739-8.13,6.821-14.39,12.231-18.799c5.41-4.404,12.212-6.611,20.41-6.611
	c6.04,0,11.357,1.222,15.918,3.652c4.561,2.438,8.33,5.947,11.304,10.527c2.969,4.59,5.298,10.181,6.997,16.758
	c1.689,6.582,2.529,15.464,2.529,26.641c0,13.224-1.357,23.901-4.067,32.021c-2.71,8.13-6.782,14.398-12.192,18.838
	c-5.4,4.434-12.236,6.65-20.488,6.65c-10.859,0-19.39-3.896-25.601-11.689C125.719,144.428,122.003,129.169,122.003,107.986
	L122.003,107.986z M136.231,107.986c0,18.512,2.158,30.82,6.489,36.943c4.331,6.118,9.673,9.18,16.03,9.18s11.699-3.07,16.04-9.219
	c4.331-6.152,6.489-18.452,6.489-36.904c0-18.55-2.168-30.879-6.489-36.978c-4.341-6.1-9.731-9.15-16.182-9.15
	c-6.357,0-11.44,2.69-15.22,8.071C138.609,76.811,136.231,89.49,136.231,107.986L136.231,107.986z M327.54,662.47v-74.103h10.059
	l38.931,58.175v-58.175h9.39v74.103h-10.059l-38.921-58.232v58.232H327.54L327.54,662.47z M437.989,645.194l9.39,1.152
	c-1.479,5.488-4.229,9.766-8.228,12.793c-4.009,3.027-9.141,4.551-15.371,4.551c-7.852,0-14.067-2.422-18.672-7.246
	c-4.6-4.834-6.899-11.621-6.899-20.352c0-9.033,2.324-16.045,6.973-21.035c4.658-4.99,10.679-7.48,18.101-7.48
	c7.178,0,13.047,2.451,17.598,7.334c4.541,4.894,6.821,11.759,6.821,20.636c0,0.526-0.01,1.348-0.049,2.412h-40.03
	c0.327,5.897,1.997,10.42,5,13.545c2.998,3.135,6.738,4.707,11.216,4.707c3.34,0,6.182-0.869,8.54-2.638
	C434.742,651.815,436.612,649.022,437.989,645.194L437.989,645.194z M408.121,630.468h29.971c-0.41-4.512-1.553-7.9-3.442-10.156
	c-2.9-3.516-6.66-5.264-11.27-5.264c-4.18,0-7.7,1.396-10.537,4.188C410.001,622.05,408.419,625.79,408.121,630.468z
	 M455.421,635.624c0-9.941,2.765-17.295,8.291-22.07c4.608-3.984,10.233-5.978,16.875-5.978c7.373,0,13.418,2.423,18.097,7.267
	c4.688,4.824,7.021,11.504,7.021,20.039c0,6.914-1.035,12.344-3.104,16.299c-2.08,3.955-5.089,7.041-9.043,9.229
	c-3.966,2.188-8.281,3.281-12.97,3.281c-7.521,0-13.584-2.412-18.224-7.227C457.734,651.64,455.421,644.695,455.421,635.624z
	 M464.768,635.624c0,6.885,1.504,12.03,4.502,15.448s6.787,5.127,11.338,5.127c4.502,0,8.262-1.719,11.27-5.146
	c2.988-3.447,4.482-8.691,4.482-15.723c0-6.642-1.494-11.671-4.521-15.099c-3.018-3.418-6.768-5.127-11.23-5.127
	c-4.551,0-8.34,1.709-11.338,5.107C466.271,623.61,464.768,628.749,464.768,635.624z M516.389,662.47v-53.682h8.174v7.637
	c3.955-5.908,9.639-8.857,17.09-8.857c3.231,0,6.201,0.576,8.916,1.748c2.725,1.152,4.756,2.687,6.094,4.57
	c1.348,1.895,2.285,4.131,2.832,6.719c0.332,1.699,0.508,4.648,0.508,8.848v33.019H550.9v-32.646c0-3.711-0.353-6.483-1.056-8.319
	c-0.702-1.847-1.963-3.301-3.77-4.404c-1.808-1.084-3.927-1.641-6.349-1.641c-3.877,0-7.217,1.229-10.02,3.69
	c-2.832,2.461-4.238,7.119-4.238,13.994v29.326L516.389,662.47L516.389,662.47z M102.452,839.579v8.75H53.473
	c-0.081-2.156,0.28-4.308,1.06-6.318c1.24-3.33,3.237-6.621,5.986-9.863c2.744-3.223,6.714-6.973,11.904-11.221
	c8.047-6.592,13.496-11.826,16.328-15.693c2.822-3.848,4.238-7.5,4.238-10.938c0-3.594-1.289-6.641-3.867-9.121
	c-2.583-2.479-5.942-3.711-10.083-3.711c-4.38,0-7.886,1.309-10.518,3.936c-2.632,2.629-3.96,6.271-3.989,10.918l-9.351-0.955
	c0.63-6.982,3.052-12.297,7.231-15.947c4.18-3.662,9.79-5.488,16.836-5.488c7.109,0,12.734,1.963,16.88,5.918
	c4.15,3.938,6.221,8.828,6.221,14.658c0,2.959-0.61,5.879-1.816,8.74c-1.221,2.871-3.232,5.879-6.04,9.043
	c-2.822,3.164-7.49,7.52-14.033,13.047c-5.459,4.58-8.96,7.686-10.508,9.314c-1.553,1.633-2.832,3.281-3.843,4.934L102.452,839.579
	L102.452,839.579z M112.203,811.776c0-8.76,0.898-15.801,2.71-21.15c1.797-5.332,4.478-9.453,8.037-12.354
	c3.55-2.898,8.032-4.346,13.423-4.346c3.97,0,7.456,0.801,10.459,2.393c2.998,1.604,5.479,3.916,7.427,6.926
	c1.953,3.018,3.491,6.688,4.6,11.016c1.113,4.336,1.675,10.176,1.675,17.51c0,8.691-0.894,15.713-2.681,21.057
	c-1.792,5.342-4.463,9.463-8.022,12.373c-3.55,2.93-8.047,4.385-13.472,4.385c-7.148,0-12.749-2.561-16.836-7.688
	C114.64,835.741,112.203,825.702,112.203,811.776L112.203,811.776z M121.549,811.776c0,12.17,1.431,20.266,4.282,24.299
	c2.842,4.014,6.357,6.033,10.542,6.033c4.18,0,7.7-2.021,10.537-6.055c2.852-4.053,4.272-12.129,4.272-24.258
	c0-12.207-1.421-20.313-4.272-24.316c-2.837-4.004-6.401-6.016-10.63-6.016c-4.18,0-7.52,1.768-10.01,5.303
	C123.121,791.278,121.549,799.618,121.549,811.776L121.549,811.776z M174.879,848.329v-10.361h10.361v10.361H174.879
	L174.879,848.329z M232.799,848.329h-9.097v-57.97c-2.192,2.091-5.059,4.181-8.613,6.261c-3.55,2.09-6.748,3.65-9.58,4.695v-8.787
	c5.093-2.395,9.541-5.283,13.35-8.701c3.804-3.398,6.504-6.699,8.091-9.902h5.864v74.404H232.799L232.799,848.329z M270.108,808.144
	c-3.779-1.387-6.567-3.357-8.398-5.918c-1.816-2.559-2.72-5.625-2.72-9.199c0-5.391,1.929-9.922,5.811-13.594
	c3.882-3.662,9.028-5.508,15.469-5.508c6.46,0,11.68,1.885,15.62,5.646c3.95,3.75,5.923,8.328,5.923,13.721
	c0,3.438-0.903,6.436-2.71,8.975c-1.812,2.539-4.541,4.502-8.213,5.879c4.551,1.477,8.013,3.877,10.391,7.18
	c2.373,3.311,3.55,7.246,3.55,11.824c0,6.328-2.241,11.66-6.719,15.979c-4.482,4.307-10.381,6.465-17.69,6.465
	s-13.208-2.168-17.7-6.484c-4.478-4.336-6.719-9.734-6.719-16.211c0-4.813,1.221-8.848,3.657-12.09
	C262.101,811.552,265.592,809.315,270.108,808.144L270.108,808.144z M265.362,826.933c0,2.607,0.62,5.117,1.851,7.539
	c1.226,2.422,3.057,4.297,5.488,5.625c2.396,1.325,5.093,2.016,7.832,2.002c4.346,0,7.93-1.396,10.757-4.188
	c2.832-2.805,4.253-6.35,4.253-10.664c0-4.385-1.46-8.008-4.38-10.859c-2.91-2.871-6.563-4.307-10.942-4.307
	c-4.282,0-7.827,1.416-10.64,4.236C266.759,819.159,265.362,822.694,265.362,826.933L265.362,826.933z M268.292,792.714
	c0,3.516,1.128,6.377,3.389,8.594c2.261,2.229,5.19,3.33,8.799,3.33c3.511,0,6.382-1.104,8.613-3.311
	c2.246-2.207,3.359-4.902,3.359-8.105c0-3.33-1.152-6.143-3.462-8.418c-2.31-2.285-5.19-3.418-8.618-3.418
	c-3.472,0-6.353,1.113-8.643,3.34C269.439,786.953,268.292,789.618,268.292,792.714L268.292,792.714z M313.683,811.776
	c0-8.76,0.898-15.801,2.71-21.15c1.797-5.332,4.478-9.453,8.037-12.354c3.55-2.898,8.032-4.346,13.423-4.346
	c3.97,0,7.461,0.801,10.459,2.393c2.998,1.604,5.479,3.916,7.432,6.926c1.948,3.018,3.486,6.688,4.6,11.016
	c1.108,4.336,1.67,10.176,1.67,17.51c0,8.691-0.894,15.713-2.681,21.057c-1.792,5.342-4.463,9.463-8.022,12.373
	c-3.55,2.93-8.047,4.385-13.467,4.385c-7.153,0-12.754-2.561-16.841-7.688C316.119,835.741,313.683,825.702,313.683,811.776
	L313.683,811.776z M323.019,811.776c0,12.17,1.431,20.266,4.282,24.299c2.842,4.014,6.362,6.033,10.542,6.033
	c4.18,0,7.7-2.021,10.537-6.055c2.852-4.053,4.272-12.129,4.272-24.258c0-12.207-1.421-20.313-4.272-24.316
	c-2.837-4.004-6.396-6.016-10.63-6.016c-4.18,0-7.52,1.768-10.01,5.303C324.591,791.278,323.019,799.618,323.019,811.776
	L323.019,811.776z M291.861,449.988V265.097h36.318l75.67,123.472V265.097h34.682v184.892H401.08l-74.541-120.57v120.57H291.861z
	 M555.322,407.357l35.304,5.934c-4.531,12.948-11.699,22.808-21.494,29.58c-9.795,6.768-22.051,10.146-36.769,10.146
	c-23.291,0-40.526-7.607-51.719-22.827c-8.828-12.192-13.231-27.583-13.231-46.162c0-22.196,5.791-39.58,17.412-52.147
	c11.602-12.568,26.27-18.854,44.004-18.854c19.922,0,35.646,6.582,47.168,19.741c11.514,13.159,17.021,33.32,16.522,60.474H503.73
	c0.254,10.509,3.105,18.688,8.574,24.526c5.449,5.84,12.275,8.76,20.43,8.76c5.548,0,10.205-1.509,13.994-4.536
	C550.52,418.959,553.38,414.091,555.322,407.357L555.322,407.357z M557.325,371.537c-0.234-10.249-2.892-18.048-7.931-23.39
	c-5.059-5.337-11.19-8.008-18.418-8.008c-7.733,0-14.121,2.817-19.18,8.447c-5.039,5.63-7.52,13.291-7.441,22.948h52.97V371.537z
	 M854.171,109.179v7.588h-42.5c-0.07-1.87,0.242-3.734,0.918-5.479c1.084-2.9,2.813-5.753,5.205-8.551
	c2.383-2.798,5.82-6.05,10.332-9.74c6.982-5.729,11.699-10.27,14.16-13.618c2.461-3.35,3.689-6.509,3.689-9.497
	c0-3.135-1.111-5.771-3.357-7.92c-2.246-2.153-5.156-3.232-8.76-3.232c-3.801,0-6.836,1.144-9.111,3.418
	c-2.285,2.28-3.447,5.439-3.479,9.482l-8.125-0.83c0.566-6.05,2.656-10.674,6.289-13.838c3.613-3.174,8.486-4.767,14.592-4.767
	c6.172,0,11.055,1.714,14.668,5.132c3.594,3.424,5.391,7.661,5.391,12.721c0,2.567-0.527,5.103-1.572,7.593
	c-1.045,2.485-2.803,5.107-5.244,7.847c-2.439,2.754-6.492,6.523-12.178,11.323c-4.736,3.979-7.764,6.67-9.111,8.101
	c-1.355,1.416-2.461,2.838-3.34,4.277h31.533V109.179z M824.825,171.736c-3.281-1.195-5.703-2.91-7.295-5.127
	c-1.572-2.222-2.354-4.893-2.354-7.982c0-4.679,1.682-8.608,5.039-11.797c3.359-3.189,7.832-4.78,13.428-4.78
	c5.615,0,10.139,1.631,13.546,4.888c3.418,3.262,5.138,7.231,5.138,11.909c0,2.983-0.781,5.581-2.345,7.783
	c-1.563,2.196-3.944,3.911-7.13,5.106c3.967,1.279,6.953,3.359,9.005,6.23c2.069,2.871,3.104,6.289,3.104,10.272
	c0,5.498-1.943,10.117-5.83,13.857c-3.896,3.74-9.014,5.62-15.36,5.62c-6.339,0-11.466-1.88-15.353-5.641
	c-3.887-3.75-5.83-8.438-5.83-14.063c0-4.18,1.055-7.687,3.186-10.508C817.892,174.677,820.899,172.758,824.825,171.736
	L824.825,171.736z M820.704,188.061c0,2.251,0.527,4.429,1.602,6.528c1.057,2.108,2.656,3.74,4.756,4.893
	c2.082,1.146,4.423,1.742,6.799,1.729c3.777,0,6.895-1.211,9.346-3.644c2.461-2.427,3.689-5.508,3.689-9.248
	c0-3.799-1.27-6.947-3.787-9.429c-2.539-2.48-5.693-3.73-9.514-3.73c-3.701,0-6.775,1.23-9.219,3.678
	C821.935,181.288,820.704,184.368,820.704,188.061L820.704,188.061z M823.243,158.358c0,3.042,0.984,5.532,2.938,7.461
	c1.963,1.93,4.502,2.9,7.639,2.9c3.037,0,5.537-0.962,7.479-2.881c1.943-1.909,2.92-4.258,2.92-7.041c0-2.9-1.016-5.327-3.008-7.3
	c-2.002-1.979-4.502-2.959-7.479-2.959c-3.027,0-5.527,0.972-7.5,2.899C824.229,153.358,823.243,155.668,823.243,158.358z"/>
</svg>
