<?xml version="1.0" encoding="utf-8"?>
<!-- Generator: Adobe Illustrator 16.0.3, SVG Export Plug-In . SVG Version: 6.00 Build 0)  -->
<!DOCTYPE svg PUBLIC "-//W3C//DTD SVG 1.1//EN" "http://www.w3.org/Graphics/SVG/1.1/DTD/svg11.dtd">
<svg version="1.1" id="Layer_1" xmlns="http://www.w3.org/2000/svg" xmlns:xlink="http://www.w3.org/1999/xlink" x="0px" y="0px"
	 width="900px" height="900px" viewBox="0 0 900 900" enable-background="new 0 0 900 900" xml:space="preserve">
<path d="M86.558,153.928H72.72V65.745c-3.34,3.184-7.705,6.357-13.115,9.531c-5.4,3.184-10.264,5.566-14.561,7.158V69.055
	c7.734-3.643,14.502-8.047,20.293-13.223s9.893-10.205,12.305-15.068h8.916V153.928L86.558,153.928z M121.997,98.342
	c0-13.32,1.377-24.053,4.111-32.178c2.744-8.115,6.816-14.385,12.227-18.789c5.41-4.414,12.207-6.611,20.41-6.611
	c6.045,0,11.357,1.211,15.918,3.652c4.561,2.432,8.33,5.938,11.299,10.527c2.969,4.589,5.303,10.176,7.002,16.758
	c1.689,6.592,2.529,15.469,2.529,26.641c0,13.223-1.357,23.896-4.072,32.021c-2.715,8.125-6.777,14.404-12.188,18.838
	c-5.4,4.434-12.236,6.65-20.488,6.65c-10.859,0-19.395-3.896-25.596-11.689C125.718,134.788,121.997,119.514,121.997,98.342
	L121.997,98.342z M136.226,98.342c0,18.506,2.158,30.82,6.494,36.943c4.326,6.123,9.668,9.189,16.025,9.189
	s11.699-3.076,16.035-9.229c4.326-6.152,6.494-18.447,6.494-36.904c0-18.555-2.168-30.879-6.494-36.982
	c-4.336-6.094-9.727-9.141-16.182-9.141c-6.357,0-11.436,2.686-15.225,8.066C138.608,67.161,136.226,79.846,136.226,98.342
	L136.226,98.342z M209.565,98.342c0-13.32,1.377-24.053,4.111-32.178c2.744-8.115,6.816-14.385,12.227-18.789
	c5.41-4.414,12.207-6.611,20.41-6.611c6.045,0,11.357,1.211,15.918,3.652c4.561,2.432,8.33,5.938,11.299,10.527
	c2.969,4.589,5.303,10.176,7.002,16.758c1.689,6.592,2.529,15.469,2.529,26.641c0,13.223-1.357,23.896-4.072,32.021
	c-2.715,8.125-6.777,14.404-12.188,18.838c-5.4,4.434-12.236,6.65-20.488,6.65c-10.859,0-19.395-3.896-25.596-11.689
	C213.286,134.788,209.565,119.514,209.565,98.342L209.565,98.342z M223.794,98.342c0,18.506,2.158,30.82,6.494,36.943
	c4.326,6.123,9.668,9.189,16.025,9.189s11.699-3.076,16.035-9.229c4.326-6.152,6.494-18.447,6.494-36.904
	c0-18.555-2.168-30.879-6.494-36.982c-4.336-6.094-9.727-9.141-16.182-9.141c-6.357,0-11.436,2.686-15.225,8.066
	C226.177,67.161,223.794,79.846,223.794,98.342L223.794,98.342z M247.739,652.83v-74.104h49.98v8.75h-40.176v22.949h34.775v8.73
	h-34.775v33.672L247.739,652.83L247.739,652.83z M346.05,635.545l9.396,1.152c-1.484,5.486-4.229,9.766-8.232,12.793
	c-4.014,3.025-9.141,4.551-15.371,4.551c-7.852,0-14.072-2.422-18.672-7.266c-4.6-4.824-6.904-11.604-6.904-20.332
	c0-9.023,2.324-16.035,6.974-21.035c4.657-4.98,10.684-7.48,18.096-7.48c7.178,0,13.047,2.441,17.598,7.346
	c4.541,4.883,6.816,11.758,6.816,20.604c0,0.547-0.01,1.348-0.049,2.441h-40.029c0.332,5.896,2.002,10.408,5,13.533
	c2.998,3.146,6.738,4.707,11.221,4.707c3.341,0,6.183-0.879,8.546-2.637C342.798,642.186,344.663,639.373,346.05,635.545
	L346.05,635.545z M316.177,620.838h29.972c-0.41-4.531-1.554-7.91-3.438-10.176c-2.9-3.496-6.66-5.254-11.27-5.254
	c-4.181,0-7.695,1.406-10.537,4.199C318.052,612.4,316.479,616.15,316.177,620.838L316.177,620.838z M366.763,652.83v-53.691h8.193
	v8.146c2.09-3.811,4.014-6.311,5.781-7.539c1.776-1.211,3.721-1.816,5.84-1.816c3.065,0,6.182,0.979,9.354,2.932l-3.135,8.457
	c-2.227-1.328-4.453-1.975-6.67-1.975c-1.992,0-3.779,0.586-5.361,1.797c-1.582,1.191-2.715,2.854-3.389,4.961
	c-1.006,3.242-1.514,6.777-1.514,10.625v28.105L366.763,652.83L366.763,652.83z M401.343,652.83v-53.691h8.136v7.539
	c1.688-2.637,3.927-4.746,6.72-6.348c2.803-1.602,5.984-2.402,9.561-2.402c3.977,0,7.236,0.84,9.775,2.48
	c2.549,1.66,4.336,3.965,5.381,6.934c4.248-6.27,9.775-9.414,16.582-9.414c5.322,0,9.414,1.484,12.285,4.436
	c2.859,2.947,4.297,7.479,4.297,13.611v36.855h-9.053v-33.828c0-3.633-0.293-6.25-0.88-7.852c-0.597-1.604-1.659-2.893-3.214-3.867
	c-1.553-0.978-3.367-1.465-5.459-1.465c-3.77,0-6.902,1.25-9.402,3.77c-2.49,2.5-3.74,6.523-3.74,12.051v31.191h-9.092v-34.883
	c0-4.043-0.742-7.07-2.229-9.104c-1.482-2.012-3.904-3.025-7.273-3.025c-2.568,0-4.934,0.684-7.109,2.029
	c-2.168,1.35-3.74,3.303-4.727,5.898c-0.979,2.598-1.467,6.348-1.467,11.229v27.854L401.343,652.83L401.343,652.83z
	 M487.622,589.197v-10.469h9.102v10.469H487.622z M487.622,652.83v-53.691h9.102v53.691H487.622z M545.747,652.83v-7.891
	c-4.18,6.072-9.854,9.102-17.031,9.102c-3.174,0-6.123-0.605-8.877-1.816c-2.744-1.211-4.785-2.732-6.113-4.59
	c-1.326-1.836-2.266-4.082-2.803-6.736c-0.371-1.777-0.557-4.609-0.557-8.496v-33.264h9.102v29.785c0,4.746,0.188,7.949,0.559,9.59
	c0.564,2.402,1.775,4.277,3.633,5.646c1.854,1.368,4.148,2.051,6.875,2.051c2.732,0,5.293-0.703,7.686-2.107
	c2.395-1.389,4.082-3.303,5.078-5.703c0.996-2.402,1.494-5.898,1.494-10.488V599.14h9.092v53.691L545.747,652.83L545.747,652.83z
	 M568.14,652.83v-53.691h8.137v7.539c1.688-2.637,3.926-4.746,6.719-6.348c2.803-1.602,5.986-2.402,9.561-2.402
	c3.977,0,7.236,0.84,9.775,2.48c2.549,1.66,4.336,3.965,5.381,6.934c4.248-6.27,9.775-9.414,16.582-9.414
	c5.322,0,9.414,1.484,12.285,4.436c2.86,2.947,4.297,7.479,4.297,13.611v36.855h-9.053v-33.828c0-3.633-0.293-6.25-0.879-7.852
	c-0.598-1.604-1.66-2.893-3.215-3.867c-1.553-0.978-3.367-1.465-5.459-1.465c-3.77,0-6.902,1.25-9.402,3.77
	c-2.49,2.5-3.74,6.523-3.74,12.051v31.191h-9.092v-34.883c0-4.043-0.742-7.07-2.229-9.104c-1.482-2.012-3.904-3.025-7.273-3.025
	c-2.568,0-4.934,0.684-7.109,2.029c-2.168,1.35-3.74,3.303-4.727,5.898c-0.979,2.598-1.466,6.348-1.466,11.229v27.854L568.14,652.83
	L568.14,652.83z M57.368,859.236v-94.668h20.068v7.52H66.47v79.609h10.967v7.539H57.368z M131.216,829.92v8.75H82.241
	c-0.075-2.159,0.287-4.312,1.064-6.328c1.24-3.34,3.242-6.621,5.986-9.844c2.744-3.242,6.709-6.992,11.904-11.23
	c8.047-6.602,13.496-11.836,16.328-15.684c2.822-3.867,4.238-7.52,4.238-10.957c0-3.594-1.289-6.641-3.867-9.121
	c-2.578-2.479-5.938-3.711-10.078-3.711c-4.385,0-7.891,1.311-10.518,3.945c-2.627,2.617-3.955,6.27-3.994,10.918l-9.346-0.957
	c0.635-6.973,3.047-12.305,7.227-15.957s9.785-5.488,16.836-5.488c7.109,0,12.734,1.975,16.875,5.918
	c4.15,3.945,6.221,8.828,6.221,14.668c0,2.949-0.605,5.881-1.816,8.73c-1.221,2.871-3.232,5.879-6.045,9.063
	c-2.813,3.164-7.49,7.5-14.023,13.027c-5.459,4.59-8.965,7.695-10.518,9.336c-1.553,1.621-2.832,3.281-3.838,4.922H131.216
	L131.216,829.92z M140.972,819.256l9.551-0.801c0.713,4.647,2.354,8.145,4.932,10.488c2.578,2.343,5.684,3.495,9.326,3.495
	c4.375,0,8.086-1.642,11.113-4.94c3.037-3.301,4.551-7.695,4.551-13.146c0-5.193-1.455-9.275-4.365-12.283
	c-2.92-2.988-6.738-4.492-11.455-4.492c-2.93,0-5.576,0.664-7.93,1.992c-2.363,1.327-4.219,3.064-5.566,5.176l-8.535-1.113
	l7.178-38.047h36.846v8.691h-29.57l-3.994,19.9c4.443-3.086,9.111-4.646,14.004-4.646c6.465,0,11.924,2.246,16.377,6.736
	c4.443,4.475,6.67,10.234,6.67,17.285c0,6.699-1.953,12.5-5.869,17.383c-4.746,5.996-11.23,8.984-19.453,8.984
	c-6.738,0-12.246-1.875-16.504-5.646C144.009,830.486,141.577,825.486,140.972,819.256L140.972,819.256z M199.146,774.275v-8.75
	h47.969v7.068c-4.717,5.021-9.396,11.699-14.023,20.021c-4.639,8.319-8.213,16.895-10.742,25.684
	c-1.826,6.191-2.988,12.988-3.486,20.371h-9.355c0.098-5.84,1.25-12.871,3.438-21.133s5.332-16.211,9.424-23.887
	c4.102-7.656,8.457-14.121,13.066-19.375H199.146L199.146,774.275z M273.862,859.236h-20.068v-7.539h10.967v-79.609h-10.967v-7.52
	h20.068V859.236L273.862,859.236z M263.11,449.202V264.309h126.749v31.279h-89.415v43.77h77.178v31.27h-77.178v78.574H263.11z
	 M417.729,315.266h32.666v18.281c11.689-14.199,25.605-21.309,41.748-21.309c8.574,0,16.018,1.768,22.324,5.293
	c6.299,3.535,11.477,8.877,15.508,16.016c5.891-7.139,12.236-12.48,19.043-16.016c6.809-3.525,14.082-5.293,21.816-5.293
	c9.844,0,18.164,2.002,24.971,5.986c6.816,3.994,11.904,9.863,15.266,17.598c2.439,5.723,3.66,14.971,3.66,27.745v85.635h-35.438
	v-76.553c0-13.281-1.221-21.855-3.662-25.732c-3.281-5.039-8.32-7.559-15.137-7.559c-4.961,0-9.629,1.514-13.994,4.531
	c-4.375,3.027-7.529,7.472-9.463,13.312c-1.936,5.84-2.9,15.067-2.9,27.686v64.316h-35.438v-73.398
	c0-13.037-0.625-21.444-1.887-25.225c-1.27-3.779-3.223-6.603-5.868-8.447c-2.646-1.855-6.239-2.773-10.78-2.773
	c-5.47,0-10.393,1.465-14.756,4.415c-4.375,2.938-7.512,7.188-9.396,12.733c-1.895,5.547-2.842,14.756-2.842,27.617v65.078H417.73
	V315.266H417.729z M854.165,99.553v7.588h-42.5c-0.068-1.904,0.244-3.73,0.918-5.479c1.084-2.9,2.813-5.752,5.195-8.555
	c2.383-2.813,5.83-6.055,10.332-9.746c6.99-5.732,11.709-10.264,14.17-13.613c2.45-3.35,3.682-6.514,3.682-9.502
	c0-3.125-1.113-5.771-3.35-7.92c-2.246-2.148-5.156-3.223-8.762-3.223c-3.799,0-6.836,1.143-9.119,3.428
	c-2.275,2.275-3.438,5.439-3.469,9.473l-8.113-0.84c0.557-6.045,2.646-10.664,6.277-13.838c3.623-3.174,8.486-4.756,14.602-4.756
	c6.172,0,11.055,1.709,14.656,5.127c3.596,3.428,5.393,7.666,5.393,12.725c0,2.578-0.527,5.107-1.572,7.588
	c-1.055,2.49-2.803,5.107-5.244,7.852c-2.439,2.754-6.504,6.523-12.178,11.318c-4.736,3.975-7.773,6.68-9.121,8.096
	s-2.461,2.842-3.34,4.277H854.165L854.165,99.553z M824.819,162.112c-3.271-1.201-5.703-2.91-7.285-5.137
	c-1.572-2.217-2.363-4.883-2.363-7.979c0-4.678,1.68-8.613,5.039-11.807c3.369-3.184,7.842-4.775,13.428-4.775
	c5.615,0,10.139,1.631,13.557,4.893c3.418,3.262,5.137,7.227,5.137,11.904c0,2.988-0.791,5.586-2.354,7.793
	c-1.563,2.207-3.936,3.906-7.129,5.107c3.955,1.289,6.953,3.359,9.016,6.23c2.068,2.861,3.096,6.289,3.096,10.264
	c0,5.498-1.943,10.117-5.83,13.857c-3.896,3.75-9.014,5.615-15.361,5.615c-6.338,0-11.455-1.875-15.352-5.635
	c-3.887-3.76-5.83-8.447-5.83-14.063c0-4.18,1.055-7.676,3.184-10.498C817.886,165.061,820.903,163.137,824.819,162.112z
	 M820.698,178.43c0,2.256,0.525,4.434,1.602,6.533c1.064,2.109,2.656,3.74,4.756,4.893c2.082,1.146,4.422,1.741,6.797,1.729
	c3.779,0,6.896-1.211,9.348-3.633c2.461-2.432,3.689-5.518,3.689-9.258c0-3.799-1.27-6.943-3.799-9.434
	c-2.529-2.479-5.692-3.729-9.502-3.729c-3.711,0-6.787,1.229-9.229,3.691C821.919,171.672,820.698,174.749,820.698,178.43
	L820.698,178.43z M823.237,148.733c0,3.037,0.984,5.527,2.938,7.451c1.963,1.934,4.502,2.9,7.638,2.9
	c3.036,0,5.536-0.957,7.479-2.871s2.92-4.268,2.92-7.041c0-2.9-1.006-5.332-3.008-7.305c-2.002-1.973-4.502-2.959-7.48-2.959
	c-3.018,0-5.518,0.957-7.5,2.891C824.233,143.733,823.237,146.038,823.237,148.733L823.237,148.733z M792.438,286.819h-7.892
	v-50.313c-1.904,1.807-4.395,3.623-7.479,5.439c-3.087,1.807-5.859,3.174-8.313,4.072v-7.627c4.414-2.08,8.271-4.59,11.582-7.549
	c3.301-2.949,5.646-5.82,7.012-8.594h5.089V286.819L792.438,286.819z M824.81,251.946c-3.271-1.201-5.701-2.91-7.283-5.137
	c-1.572-2.217-2.363-4.883-2.363-7.979c0-4.678,1.68-8.613,5.039-11.807c3.369-3.184,7.842-4.775,13.428-4.775
	c5.615,0,10.137,1.631,13.555,4.893c3.419,3.262,5.139,7.227,5.139,11.904c0,2.988-0.791,5.586-2.354,7.793
	c-1.563,2.207-3.936,3.906-7.129,5.107c3.955,1.289,6.953,3.359,9.014,6.23c2.07,2.861,3.098,6.289,3.098,10.264
	c0,5.498-1.943,10.117-5.83,13.857c-3.896,3.75-9.016,5.615-15.361,5.615c-6.338,0-11.455-1.875-15.352-5.635
	c-3.889-3.76-5.83-8.447-5.83-14.063c0-4.18,1.055-7.676,3.184-10.498C817.876,254.895,820.894,252.971,824.81,251.946z
	 M820.688,268.264c0,2.256,0.527,4.434,1.604,6.533c1.063,2.109,2.656,3.74,4.756,4.893c2.082,1.146,4.421,1.741,6.797,1.729
	c3.779,0,6.896-1.211,9.348-3.633c2.461-2.432,3.689-5.518,3.689-9.258c0-3.799-1.27-6.943-3.799-9.434
	c-2.529-2.479-5.693-3.729-9.502-3.729c-3.711,0-6.787,1.229-9.229,3.691C821.909,261.506,820.688,264.583,820.688,268.264
	L820.688,268.264z M823.229,238.567c0,3.037,0.985,5.527,2.938,7.451c1.963,1.934,4.502,2.9,7.637,2.9
	c3.037,0,5.537-0.957,7.48-2.871c1.942-1.914,2.92-4.268,2.92-7.041c0-2.9-1.006-5.332-3.008-7.305
	c-2.002-1.973-4.502-2.959-7.48-2.959c-3.018,0-5.518,0.957-7.5,2.891C824.224,233.567,823.229,235.872,823.229,238.567
	L823.229,238.567z M762.739,359.69l7.898-1.056c0.908,4.474,2.451,7.695,4.629,9.668c2.18,1.974,4.834,2.959,7.959,2.959
	c3.712,0,6.855-1.278,9.414-3.856c2.561-2.568,3.839-5.763,3.839-9.563c0-3.623-1.19-6.621-3.556-8.975
	c-2.373-2.354-5.381-3.525-9.043-3.525c-1.483,0-3.34,0.293-5.565,0.879l0.88-6.934c0.525,0.059,0.945,0.088,1.27,0.088
	c3.359,0,6.388-0.879,9.082-2.637c2.688-1.748,4.033-4.453,4.033-8.115c0-2.891-0.978-5.293-2.939-7.188
	c-1.952-1.904-4.491-2.853-7.588-2.853c-3.064,0-5.625,0.957-7.676,2.892c-2.051,1.934-3.359,4.823-3.945,8.69l-7.898-1.406
	c0.967-5.293,3.164-9.395,6.582-12.305s7.676-4.365,12.764-4.365c3.506,0,6.738,0.752,9.697,2.256
	c2.948,1.505,5.215,3.564,6.775,6.162c1.563,2.607,2.346,5.371,2.346,8.291c0,2.783-0.742,5.313-2.236,7.588
	c-1.494,2.285-3.701,4.103-6.621,5.439c3.799,0.879,6.758,2.705,8.857,5.469c2.107,2.765,3.163,6.222,3.163,10.371
	c0,5.615-2.052,10.371-6.144,14.277c-4.102,3.906-9.276,5.858-15.526,5.858c-5.646,0-10.332-1.68-14.063-5.049
	C765.396,369.397,763.267,365.042,762.739,359.69L762.739,359.69z M854.155,369.075v7.588h-42.5
	c-0.068-1.904,0.244-3.73,0.918-5.479c1.084-2.899,2.813-5.752,5.193-8.555c2.385-2.813,5.83-6.055,10.332-9.746
	c6.992-5.731,11.709-10.264,14.17-13.613c2.451-3.35,3.684-6.514,3.684-9.502c0-3.125-1.113-5.771-3.352-7.92
	c-2.245-2.147-5.154-3.223-8.76-3.223c-3.799,0-6.836,1.143-9.121,3.428c-2.273,2.275-3.438,5.439-3.467,9.474l-8.115-0.841
	c0.559-6.045,2.646-10.663,6.279-13.838c3.623-3.174,8.486-4.756,14.6-4.756c6.173,0,11.057,1.709,14.658,5.127
	c3.595,3.429,5.393,7.666,5.393,12.726c0,2.578-0.527,5.106-1.572,7.588c-1.055,2.49-2.803,5.106-5.244,7.852
	c-2.44,2.754-6.504,6.523-12.178,11.318c-4.736,3.975-7.773,6.68-9.121,8.096s-2.461,2.842-3.34,4.277L854.155,369.075
	L854.155,369.075z M762.739,449.524l7.898-1.057c0.908,4.479,2.451,7.701,4.629,9.673c2.18,1.974,4.834,2.949,7.959,2.949
	c3.712,0,6.855-1.27,9.414-3.848c2.561-2.578,3.839-5.762,3.839-9.566c0-3.623-1.19-6.621-3.556-8.975
	c-2.373-2.354-5.381-3.525-9.043-3.525c-1.483,0-3.34,0.293-5.565,0.879l0.88-6.934c0.525,0.059,0.945,0.088,1.27,0.088
	c3.359,0,6.388-0.879,9.082-2.637c2.688-1.748,4.033-4.453,4.033-8.115c0-2.891-0.978-5.293-2.939-7.188
	c-1.952-1.904-4.491-2.854-7.588-2.854c-3.064,0-5.625,0.957-7.676,2.891c-2.051,1.936-3.359,4.824-3.945,8.691l-7.898-1.406
	c0.967-5.293,3.164-9.395,6.582-12.305s7.676-4.365,12.764-4.365c3.506,0,6.738,0.752,9.697,2.256
	c2.948,1.505,5.215,3.564,6.775,6.162c1.563,2.607,2.346,5.371,2.346,8.291c0,2.783-0.742,5.313-2.236,7.588
	c-1.494,2.285-3.701,4.104-6.621,5.439c3.799,0.879,6.758,2.705,8.857,5.469c2.107,2.765,3.163,6.222,3.163,10.371
	c0,5.621-2.052,10.367-6.144,14.273c-4.102,3.904-9.276,5.857-15.526,5.857c-5.646,0-10.332-1.68-14.063-5.039
	C765.395,459.234,763.267,454.881,762.739,449.524L762.739,449.524z M812.661,434.778c0-7.6,0.781-13.723,2.344-18.359
	c1.563-4.629,3.887-8.203,6.974-10.723c3.087-2.512,6.974-3.771,11.649-3.771c3.447,0,6.476,0.693,9.082,2.08
	c2.598,1.387,4.746,3.398,6.445,6.018c1.698,2.616,3.025,5.801,3.994,9.561c0.967,3.76,1.443,8.828,1.443,15.195
	c0,7.549-0.771,13.643-2.323,18.267c-1.554,4.648-3.866,8.223-6.952,10.762c-3.087,2.521-6.982,3.789-11.689,3.789
	c-6.201,0-11.074-2.227-14.608-6.66C814.78,455.584,812.661,446.858,812.661,434.778L812.661,434.778z M820.776,434.778
	c0,10.557,1.229,17.583,3.699,21.08c2.473,3.497,5.527,5.232,9.15,5.232s6.67-1.738,9.15-5.254c2.471-3.516,3.7-10.533,3.7-21.06
	c0-10.586-1.229-17.617-3.7-21.096c-2.48-3.484-5.559-5.225-9.238-5.225c-3.623,0-6.523,1.533-8.682,4.609
	C822.134,416.985,820.776,424.221,820.776,434.778L820.776,434.778z M824.819,521.463c-3.271-1.189-5.703-2.91-7.285-5.137
	c-1.572-2.207-2.363-4.883-2.363-7.969c0-4.688,1.681-8.613,5.039-11.816c3.369-3.184,7.842-4.766,13.428-4.766
	c5.615,0,10.139,1.621,13.557,4.883s5.137,7.227,5.137,11.914c0,2.986-0.791,5.586-2.354,7.793c-1.563,2.207-3.937,3.906-7.13,5.098
	c3.955,1.289,6.953,3.359,9.016,6.23c2.068,2.871,3.096,6.289,3.096,10.271c0,5.488-1.943,10.117-5.83,13.85
	c-3.896,3.75-9.014,5.625-15.361,5.625c-6.338,0-11.455-1.875-15.352-5.646c-3.887-3.75-5.83-8.438-5.83-14.063
	c0-4.182,1.055-7.678,3.184-10.488C817.886,524.412,820.903,522.498,824.819,521.463z M820.698,537.791
	c0,2.246,0.525,4.434,1.602,6.523c1.064,2.107,2.656,3.75,4.756,4.9c2.109,1.152,4.375,1.719,6.798,1.719
	c3.778,0,6.896-1.211,9.347-3.633c2.461-2.422,3.689-5.508,3.689-9.258c0-3.789-1.27-6.934-3.799-9.434
	c-2.528-2.48-5.692-3.73-9.502-3.73c-3.711,0-6.787,1.23-9.229,3.691C821.918,531.032,820.698,534.1,820.698,537.791
	L820.698,537.791z M823.237,508.084c0,3.047,0.984,5.527,2.938,7.461c1.963,1.936,4.502,2.891,7.638,2.891
	c3.036,0,5.536-0.955,7.479-2.869s2.92-4.26,2.92-7.031c0-2.91-1.006-5.332-3.008-7.305c-2.002-1.975-4.502-2.971-7.48-2.971
	c-3.018,0-5.518,0.957-7.5,2.893C824.233,503.084,823.237,505.389,823.237,508.084L823.237,508.084z M854.165,638.592v7.578h-42.5
	c-0.068-1.895,0.244-3.729,0.918-5.469c1.084-2.91,2.813-5.762,5.195-8.555c2.383-2.813,5.83-6.057,10.332-9.746
	c6.99-5.742,11.709-10.273,14.17-13.613c2.45-3.359,3.682-6.523,3.682-9.512c0-3.125-1.113-5.764-3.35-7.91
	c-2.246-2.148-5.156-3.224-8.762-3.224c-3.799,0-6.836,1.134-9.119,3.419c-2.275,2.283-3.438,5.447-3.469,9.473l-8.113-0.84
	c0.557-6.035,2.646-10.664,6.277-13.828c3.623-3.186,8.486-4.767,14.602-4.767c6.172,0,11.055,1.72,14.657,5.138
	c3.595,3.418,5.392,7.656,5.392,12.715c0,2.578-0.527,5.117-1.572,7.598c-1.055,2.48-2.803,5.1-5.244,7.854
	c-2.439,2.754-6.504,6.521-12.178,11.309c-4.736,3.984-7.772,6.682-9.121,8.105c-1.348,1.404-2.461,2.832-3.34,4.275H854.165
	L854.165,638.592z"/>
</svg>
