<?xml version="1.0" encoding="utf-8"?>
<!-- Generator: Adobe Illustrator 16.0.3, SVG Export Plug-In . SVG Version: 6.00 Build 0)  -->
<!DOCTYPE svg PUBLIC "-//W3C//DTD SVG 1.1//EN" "http://www.w3.org/Graphics/SVG/1.1/DTD/svg11.dtd">
<svg version="1.1" id="Layer_1" xmlns="http://www.w3.org/2000/svg" xmlns:xlink="http://www.w3.org/1999/xlink" x="0px" y="0px"
	 width="900px" height="900px" viewBox="0 0 900 900" enable-background="new 0 0 900 900" xml:space="preserve">
<path d="M86.553,153.928H72.715V65.745c-3.34,3.184-7.705,6.357-13.115,9.531c-5.4,3.184-10.264,5.566-14.561,7.158V69.055
	c7.734-3.643,14.502-8.047,20.293-13.223s9.893-10.205,12.305-15.068h8.916V153.928L86.553,153.928z M121.992,98.342
	c0-13.32,1.377-24.053,4.111-32.178c2.744-8.115,6.816-14.385,12.227-18.789c5.41-4.414,12.207-6.611,20.41-6.611
	c6.045,0,11.357,1.211,15.918,3.652c4.561,2.432,8.33,5.938,11.299,10.527c2.969,4.589,5.303,10.176,7.002,16.758
	c1.689,6.592,2.529,15.469,2.529,26.641c0,13.223-1.357,23.896-4.072,32.021s-6.777,14.404-12.188,18.838
	c-5.4,4.434-12.236,6.65-20.488,6.65c-10.859,0-19.395-3.896-25.596-11.689C125.713,134.788,121.992,119.514,121.992,98.342
	L121.992,98.342z M136.221,98.342c0,18.506,2.158,30.82,6.494,36.943c4.326,6.123,9.668,9.189,16.025,9.189
	c6.357,0,11.699-3.076,16.035-9.229c4.326-6.152,6.494-18.447,6.494-36.904c0-18.555-2.168-30.879-6.494-36.982
	c-4.336-6.094-9.727-9.141-16.182-9.141c-6.357,0-11.436,2.686-15.225,8.066C138.604,67.161,136.221,79.846,136.221,98.342z
	 M261.689,153.928h-13.838V65.745c-3.34,3.184-7.705,6.357-13.115,9.531c-5.4,3.184-10.264,5.566-14.561,7.158V69.055
	c7.734-3.643,14.502-8.047,20.293-13.223s9.893-10.205,12.305-15.068h8.916V153.928L261.689,153.928z M143.262,652.83v-74.102
	h14.756l17.539,52.479c1.621,4.883,2.793,8.535,3.535,10.957c0.85-2.695,2.158-6.66,3.945-11.875l17.744-51.563h13.193v74.103
	h-9.453v-62.012l-21.533,62.012h-8.848l-21.426-63.066v63.066L143.262,652.83L143.262,652.83z M265.381,635.545l9.395,1.172
	c-1.484,5.488-4.229,9.746-8.232,12.773c-4.014,3.047-9.141,4.551-15.371,4.551c-7.852,0-14.072-2.402-18.672-7.246
	s-6.904-11.621-6.904-20.352c0-9.023,2.324-16.035,6.973-21.017c4.658-5,10.684-7.479,18.096-7.479
	c7.178,0,13.047,2.44,17.598,7.324c4.541,4.883,6.816,11.758,6.816,20.625c0,0.547-0.01,1.348-0.049,2.422H235
	c0.332,5.897,2.002,10.41,5,13.555c2.998,3.125,6.738,4.688,11.221,4.688c3.34,0,6.182-0.859,8.545-2.617
	C262.129,642.187,263.994,639.393,265.381,635.545L265.381,635.545z M235.508,620.838h29.971c-0.41-4.512-1.553-7.891-3.438-10.156
	c-2.9-3.495-6.66-5.254-11.27-5.254c-4.18,0-7.695,1.388-10.537,4.199C237.383,612.42,235.811,616.15,235.508,620.838
	L235.508,620.838z M286.201,652.83v-53.672h8.184v7.637c3.945-5.897,9.639-8.848,17.09-8.848c3.232,0,6.201,0.586,8.916,1.738
	c2.715,1.172,4.746,2.694,6.094,4.569c1.348,1.896,2.285,4.142,2.832,6.719c0.332,1.699,0.498,4.648,0.498,8.849v33.008h-9.092
	v-32.656c0-3.69-0.352-6.465-1.064-8.301c-0.703-1.836-1.963-3.301-3.76-4.395c-1.807-1.095-3.926-1.642-6.348-1.642
	c-3.877,0-7.217,1.23-10.029,3.672c-2.822,2.461-4.229,7.129-4.229,14.004v29.316L286.201,652.83L286.201,652.83z M378.594,652.83
	v-6.777c-3.408,5.332-8.408,7.988-15.01,7.988c-4.287,0-8.213-1.172-11.807-3.535c-3.584-2.362-6.367-5.645-8.34-9.883
	c-1.973-4.219-2.959-9.082-2.959-14.57c0-5.371,0.898-10.215,2.686-14.59c1.777-4.354,4.463-7.715,8.037-10.039
	c3.564-2.324,7.559-3.477,11.973-3.477c3.232,0,6.123,0.684,8.643,2.051c2.529,1.348,4.59,3.125,6.172,5.332v-26.602h9.043v74.102
	H378.594L378.594,652.83z M349.834,626.053c0,6.875,1.445,12.013,4.346,15.41c2.901,3.398,6.318,5.099,10.264,5.099
	c3.975,0,7.354-1.621,10.127-4.863c2.783-3.262,4.17-8.224,4.17-14.902c0-7.344-1.416-12.733-4.238-16.172
	c-2.832-3.438-6.318-5.156-10.469-5.156c-4.043,0-7.422,1.66-10.137,4.961C351.191,613.729,349.834,618.943,349.834,626.053
	L349.834,626.053z M438.096,635.545l9.396,1.172c-1.484,5.488-4.229,9.746-8.232,12.773c-4.014,3.047-9.141,4.551-15.371,4.551
	c-7.852,0-14.071-2.402-18.672-7.246c-4.6-4.844-6.904-11.621-6.904-20.352c0-9.023,2.324-16.035,6.974-21.017
	c4.658-5,10.684-7.479,18.096-7.479c7.178,0,13.047,2.441,17.598,7.324c4.541,4.883,6.816,11.758,6.816,20.625
	c0,0.547-0.01,1.348-0.049,2.422h-40.029c0.332,5.897,2.002,10.41,5,13.555c2.998,3.125,6.738,4.688,11.221,4.688
	c3.341,0,6.183-0.859,8.546-2.617C434.846,642.187,436.709,639.394,438.096,635.545L438.096,635.545z M408.223,620.838h29.972
	c-0.41-4.512-1.554-7.891-3.438-10.156c-2.899-3.495-6.66-5.254-11.27-5.254c-4.181,0-7.695,1.388-10.537,4.199
	C410.098,612.42,408.525,616.15,408.223,620.838L408.223,620.838z M458.711,652.83v-74.102h9.102v74.102H458.711z M518.662,635.545
	l9.395,1.172c-1.483,5.488-4.229,9.746-8.231,12.773c-4.015,3.047-9.142,4.551-15.371,4.551c-7.853,0-14.072-2.401-18.672-7.246
	c-4.601-4.844-6.904-11.621-6.904-20.352c0-9.023,2.324-16.035,6.973-21.016c4.658-5,10.685-7.48,18.097-7.48
	c7.178,0,13.047,2.441,17.598,7.324c4.541,4.883,6.816,11.758,6.816,20.625c0,0.547-0.011,1.348-0.049,2.422h-40.029
	c0.332,5.897,2.002,10.41,5,13.555c2.998,3.125,6.738,4.688,11.221,4.688c3.34,0,6.182-0.859,8.545-2.617
	S517.275,639.394,518.662,635.545L518.662,635.545z M488.789,620.838h29.971c-0.41-4.512-1.553-7.891-3.438-10.155
	c-2.9-3.496-6.66-5.255-11.271-5.255c-4.18,0-7.694,1.388-10.537,4.199C490.664,612.42,489.092,616.15,488.789,620.838
	L488.789,620.838z M554.395,652.83l-20.42-53.672h9.601l11.522,32.148c1.25,3.477,2.394,7.069,3.438,10.819
	c0.811-2.832,1.934-6.25,3.389-10.215l11.924-32.754h9.355l-20.322,53.672L554.395,652.83L554.395,652.83z M591.289,589.197v-10.469
	h9.102v10.469H591.289z M591.289,652.83v-53.672h9.102v53.672H591.289z M649.414,652.83v-7.871
	c-4.18,6.056-9.854,9.082-17.031,9.082c-3.174,0-6.123-0.604-8.877-1.815c-2.744-1.211-4.785-2.734-6.113-4.57
	c-1.327-1.836-2.266-4.082-2.803-6.738c-0.371-1.797-0.557-4.629-0.557-8.496v-33.262h9.102v29.766c0,4.746,0.187,7.949,0.558,9.609
	c0.565,2.383,1.776,4.277,3.633,5.625c1.854,1.367,4.149,2.051,6.875,2.051c2.733,0,5.293-0.703,7.686-2.09
	c2.394-1.406,4.082-3.301,5.078-5.723c0.996-2.402,1.494-5.898,1.494-10.488v-28.75h9.092v53.672L649.414,652.83L649.414,652.83z
	 M671.807,652.83v-53.672h8.136v7.52c1.688-2.616,3.926-4.727,6.719-6.327c2.803-1.603,5.986-2.402,9.561-2.402
	c3.976,0,7.236,0.82,9.775,2.479c2.549,1.642,4.336,3.945,5.381,6.914c4.248-6.27,9.775-9.395,16.582-9.395
	c5.322,0,9.414,1.465,12.285,4.414c2.86,2.949,4.297,7.5,4.297,13.633v36.836h-9.053v-33.809c0-3.633-0.293-6.271-0.879-7.853
	c-0.597-1.602-1.66-2.891-3.214-3.867c-1.553-0.976-3.368-1.465-5.459-1.465c-3.77,0-6.903,1.25-9.403,3.75
	c-2.49,2.521-3.74,6.543-3.74,12.07v31.172h-9.092v-34.863c0-4.043-0.742-7.09-2.228-9.102c-1.483-2.031-3.905-3.027-7.274-3.027
	c-2.568,0-4.933,0.664-7.109,2.013c-2.168,1.348-3.74,3.319-4.727,5.918c-0.978,2.598-1.466,6.328-1.466,11.211v27.852H671.807
	L671.807,652.83z M57.373,859.236v-94.668h20.068v7.52H66.475v79.609h10.967v7.539H57.373z M131.221,829.92v8.75H82.246
	c-0.075-2.159,0.287-4.312,1.064-6.328c1.24-3.34,3.242-6.621,5.986-9.844c2.744-3.242,6.709-6.992,11.904-11.23
	c8.047-6.602,13.496-11.836,16.328-15.684c2.822-3.867,4.238-7.52,4.238-10.957c0-3.594-1.289-6.641-3.867-9.121
	c-2.578-2.479-5.938-3.711-10.078-3.711c-4.385,0-7.891,1.31-10.518,3.945c-2.627,2.617-3.955,6.27-3.994,10.918l-9.346-0.957
	c0.635-6.973,3.047-12.305,7.227-15.957s9.785-5.488,16.836-5.488c7.109,0,12.734,1.974,16.875,5.918
	c4.15,3.945,6.221,8.828,6.221,14.668c0,2.949-0.605,5.88-1.816,8.73c-1.221,2.871-3.232,5.879-6.045,9.063
	c-2.813,3.164-7.49,7.5-14.023,13.027c-5.459,4.59-8.965,7.695-10.518,9.336c-1.553,1.621-2.832,3.281-3.838,4.922H131.221
	L131.221,829.92z M140.977,819.256l9.551-0.801c0.713,4.648,2.354,8.145,4.932,10.488c2.578,2.343,5.684,3.496,9.326,3.496
	c4.375,0,8.086-1.642,11.113-4.941c3.037-3.301,4.551-7.695,4.551-13.146c0-5.194-1.455-9.276-4.365-12.284
	c-2.92-2.988-6.738-4.492-11.455-4.492c-2.93,0-5.576,0.664-7.93,1.992c-2.363,1.328-4.219,3.065-5.566,5.176l-8.535-1.113
	l7.178-38.047h36.846v8.691h-29.57l-3.994,19.901c4.443-3.086,9.111-4.647,14.004-4.647c6.465,0,11.924,2.246,16.377,6.737
	c4.443,4.474,6.67,10.234,6.67,17.285c0,6.699-1.953,12.5-5.869,17.383c-4.746,5.996-11.23,8.984-19.453,8.984
	c-6.738,0-12.246-1.875-16.504-5.646C144.014,830.486,141.582,825.486,140.977,819.256L140.977,819.256z M212.549,798.475
	c-3.779-1.366-6.572-3.34-8.398-5.897c-1.816-2.578-2.725-5.646-2.725-9.199c0-5.391,1.934-9.922,5.811-13.613
	c3.877-3.672,9.033-5.508,15.469-5.508c6.465,0,11.68,1.896,15.615,5.646c3.945,3.75,5.918,8.34,5.918,13.729
	c0,3.438-0.898,6.427-2.705,8.965c-1.807,2.539-4.541,4.513-8.213,5.88c4.551,1.483,8.008,3.887,10.391,7.188
	c2.373,3.301,3.555,7.246,3.555,11.816c0,6.348-2.236,11.659-6.719,15.977c-4.483,4.317-10.381,6.465-17.686,6.465
	c-7.314,0-13.213-2.147-17.695-6.483s-6.719-9.728-6.719-16.211c0-4.806,1.221-8.849,3.662-12.091
	C204.551,801.873,208.027,799.666,212.549,798.475L212.549,798.475z M207.793,817.283c0,2.598,0.615,5.098,1.846,7.539
	c1.23,2.422,3.057,4.297,5.488,5.625c2.422,1.328,5.029,1.992,7.832,1.992c4.346,0,7.93-1.388,10.762-4.181
	c2.832-2.813,4.248-6.367,4.248-10.664c0-4.395-1.455-8.008-4.375-10.879c-2.91-2.852-6.563-4.297-10.938-4.297
	c-4.277,0-7.832,1.426-10.646,4.258C209.198,809.509,207.793,813.045,207.793,817.283L207.793,817.283z M210.723,783.064
	c0,3.516,1.133,6.366,3.389,8.594c2.256,2.227,5.186,3.34,8.799,3.34c3.506,0,6.377-1.113,8.613-3.32
	c2.246-2.207,3.359-4.901,3.359-8.104c0-3.34-1.152-6.133-3.457-8.418c-2.314-2.267-5.186-3.418-8.623-3.418
	c-3.467,0-6.348,1.112-8.643,3.34C211.875,777.303,210.723,779.959,210.723,783.064L210.723,783.064z M273.867,859.236h-20.068
	v-7.539h10.967v-79.609h-10.967v-7.52h20.068V859.236L273.867,859.236z M269.619,440.344V255.452h55.869l33.545,126.123
	l33.164-126.123h55.996v184.893h-34.679V294.807l-36.699,145.537h-35.947l-36.572-145.537v145.537H269.619L269.619,440.344z
	 M607.861,440.344h-32.92v-19.678c-5.459,7.656-11.914,13.35-19.355,17.09c-7.44,3.74-14.94,5.615-22.51,5.615
	c-15.391,0-28.564-6.201-39.541-18.604c-10.967-12.401-16.455-29.696-16.455-51.895c0-22.705,5.332-39.961,16.016-51.777
	c10.674-11.807,24.17-17.715,40.479-17.715c14.971,0,27.92,6.221,38.848,18.662V255.45h35.439L607.861,440.344L607.861,440.344z
	 M513.271,370.471c0,14.297,1.973,24.64,5.928,31.025c5.723,9.258,13.701,13.877,23.965,13.877c8.154,0,15.088-3.467,20.811-10.4
	c5.713-6.942,8.574-17.305,8.574-31.094c0-15.381-2.772-26.465-8.32-33.231c-5.557-6.769-12.655-10.146-21.317-10.146
	c-8.408,0-15.449,3.34-21.123,10.021C516.113,347.209,513.271,357.19,513.271,370.471L513.271,370.471z M854.17,99.553v7.588h-42.5
	c-0.068-1.904,0.244-3.73,0.918-5.479c1.084-2.9,2.813-5.752,5.195-8.555c2.383-2.813,5.83-6.055,10.332-9.746
	c6.992-5.732,11.709-10.264,14.17-13.613c2.451-3.35,3.682-6.514,3.682-9.502c0-3.125-1.113-5.771-3.35-7.92
	c-2.246-2.148-5.156-3.223-8.76-3.223c-3.8,0-6.836,1.143-9.121,3.428c-2.275,2.275-3.438,5.439-3.467,9.473l-8.115-0.84
	c0.557-6.045,2.646-10.664,6.278-13.838c3.623-3.174,8.486-4.756,14.601-4.756c6.172,0,11.055,1.709,14.658,5.127
	c3.594,3.428,5.391,7.666,5.391,12.725c0,2.578-0.527,5.107-1.572,7.588c-1.055,2.49-2.803,5.107-5.244,7.852
	c-2.44,2.754-6.504,6.523-12.178,11.318c-4.736,3.975-7.772,6.68-9.121,8.096c-1.348,1.416-2.461,2.842-3.34,4.277H854.17
	L854.17,99.553z M824.824,162.112c-3.271-1.201-5.703-2.91-7.285-5.137c-1.572-2.217-2.363-4.883-2.363-7.979
	c0-4.678,1.681-8.613,5.039-11.807c3.369-3.184,7.842-4.775,13.428-4.775c5.615,0,10.138,1.631,13.556,4.893
	c3.418,3.262,5.137,7.227,5.137,11.904c0,2.988-0.791,5.586-2.354,7.793c-1.563,2.207-3.937,3.906-7.13,5.107
	c3.955,1.289,6.953,3.359,9.015,6.23c2.069,2.861,3.096,6.289,3.096,10.264c0,5.498-1.943,10.117-5.83,13.857
	c-3.896,3.75-9.014,5.615-15.361,5.615c-6.338,0-11.454-1.875-15.352-5.635c-3.887-3.76-5.83-8.447-5.83-14.063
	c0-4.18,1.055-7.676,3.185-10.498C817.891,165.061,820.908,163.137,824.824,162.112z M820.703,178.43
	c0,2.256,0.527,4.434,1.602,6.533c1.064,2.109,2.656,3.74,4.756,4.893c2.082,1.146,4.422,1.741,6.798,1.729
	c3.778,0,6.895-1.211,9.346-3.633c2.461-2.432,3.69-5.518,3.69-9.258c0-3.799-1.27-6.943-3.799-9.434
	c-2.528-2.479-5.692-3.729-9.502-3.729c-3.711,0-6.787,1.229-9.229,3.691C821.924,171.672,820.703,174.749,820.703,178.43
	L820.703,178.43z M823.242,148.733c0,3.037,0.986,5.527,2.938,7.451c1.964,1.934,4.502,2.9,7.638,2.9
	c3.037,0,5.537-0.957,7.479-2.871c1.943-1.914,2.92-4.268,2.92-7.041c0-2.9-1.006-5.332-3.008-7.305
	c-2.002-1.973-4.502-2.959-7.479-2.959c-3.019,0-5.519,0.957-7.5,2.891C824.238,143.733,823.242,146.038,823.242,148.733
	L823.242,148.733z M792.441,286.819h-7.892v-50.313c-1.903,1.807-4.395,3.623-7.479,5.439c-3.086,1.807-5.859,3.174-8.312,4.072
	v-7.627c4.414-2.08,8.271-4.59,11.582-7.549c3.301-2.949,5.646-5.82,7.013-8.594h5.088V286.819L792.441,286.819z M824.814,251.946
	c-3.271-1.201-5.703-2.91-7.285-5.137c-1.572-2.217-2.363-4.883-2.363-7.979c0-4.678,1.68-8.613,5.039-11.807
	c3.369-3.184,7.842-4.775,13.428-4.775c5.615,0,10.137,1.631,13.555,4.893c3.418,3.262,5.138,7.227,5.138,11.904
	c0,2.988-0.791,5.586-2.354,7.793c-1.563,2.207-3.936,3.906-7.129,5.107c3.955,1.289,6.953,3.359,9.014,6.23
	c2.07,2.861,3.097,6.289,3.097,10.264c0,5.498-1.943,10.117-5.83,13.857c-3.896,3.75-9.014,5.615-15.361,5.615
	c-6.338,0-11.455-1.875-15.352-5.635c-3.888-3.76-5.83-8.447-5.83-14.063c0-4.18,1.055-7.676,3.184-10.498
	C817.881,254.895,820.898,252.971,824.814,251.946z M820.693,268.264c0,2.256,0.526,4.434,1.602,6.533
	c1.064,2.109,2.656,3.74,4.756,4.893c2.082,1.146,4.421,1.741,6.797,1.729c3.779,0,6.896-1.211,9.347-3.633
	c2.461-2.432,3.69-5.518,3.69-9.258c0-3.799-1.27-6.943-3.799-9.434c-2.529-2.48-5.693-3.729-9.502-3.729
	c-3.711,0-6.787,1.229-9.229,3.691C821.914,261.506,820.693,264.583,820.693,268.264L820.693,268.264z M823.232,238.567
	c0,3.037,0.985,5.527,2.938,7.451c1.963,1.934,4.502,2.9,7.637,2.9c3.037,0,5.537-0.957,7.48-2.871s2.92-4.268,2.92-7.041
	c0-2.9-1.006-5.332-3.008-7.305c-2.002-1.973-4.502-2.959-7.48-2.959c-3.018,0-5.518,0.957-7.5,2.891
	C824.229,233.567,823.232,235.872,823.232,238.567L823.232,238.567z M762.744,359.69l7.9-1.056c0.907,4.474,2.45,7.695,4.629,9.668
	c2.178,1.974,4.834,2.959,7.959,2.959c3.711,0,6.854-1.278,9.414-3.856c2.559-2.568,3.838-5.763,3.838-9.562
	c0-3.623-1.191-6.621-3.556-8.975c-2.373-2.354-5.381-3.525-9.043-3.525c-1.483,0-3.34,0.293-5.565,0.879l0.879-6.934
	c0.527,0.059,0.947,0.088,1.27,0.088c3.359,0,6.388-0.879,9.082-2.637c2.687-1.748,4.033-4.453,4.033-8.115
	c0-2.891-0.977-5.293-2.938-7.188c-1.953-1.904-4.492-2.853-7.589-2.853c-3.065,0-5.625,0.957-7.676,2.892
	c-2.051,1.934-3.358,4.823-3.945,8.69l-7.899-1.406c0.967-5.293,3.164-9.395,6.582-12.305s7.676-4.365,12.764-4.365
	c3.506,0,6.738,0.752,9.697,2.256c2.949,1.505,5.215,3.564,6.776,6.162c1.563,2.607,2.345,5.371,2.345,8.291
	c0,2.783-0.742,5.313-2.236,7.588c-1.494,2.285-3.701,4.103-6.621,5.439c3.799,0.879,6.758,2.705,8.857,5.469
	c2.108,2.765,3.164,6.222,3.164,10.371c0,5.615-2.052,10.371-6.144,14.277c-4.102,3.906-9.276,5.858-15.526,5.858
	c-5.646,0-10.332-1.68-14.063-5.049C765.4,369.397,763.271,365.042,762.744,359.69L762.744,359.69z M854.16,369.075v7.588h-42.5
	c-0.068-1.904,0.244-3.73,0.918-5.479c1.084-2.899,2.813-5.752,5.195-8.555c2.383-2.813,5.83-6.055,10.332-9.746
	c6.991-5.731,11.709-10.264,14.17-13.613c2.45-3.35,3.682-6.514,3.682-9.502c0-3.125-1.113-5.771-3.35-7.92
	c-2.246-2.147-5.156-3.223-8.761-3.223c-3.799,0-6.836,1.143-9.12,3.428c-2.275,2.275-3.438,5.439-3.468,9.474l-8.114-0.841
	c0.557-6.045,2.646-10.663,6.278-13.838c3.623-3.174,8.486-4.756,14.601-4.756c6.172,0,11.055,1.709,14.657,5.127
	c3.595,3.429,5.392,7.666,5.392,12.726c0,2.578-0.527,5.106-1.572,7.588c-1.055,2.49-2.803,5.106-5.244,7.852
	c-2.44,2.754-6.504,6.523-12.178,11.318c-4.736,3.975-7.773,6.68-9.121,8.096s-2.461,2.842-3.34,4.277H854.16z M762.744,449.524
	l7.9-1.056c0.907,4.479,2.45,7.701,4.629,9.673c2.178,1.973,4.834,2.949,7.959,2.949c3.711,0,6.854-1.27,9.414-3.848
	c2.559-2.578,3.838-5.762,3.838-9.566c0-3.623-1.191-6.621-3.556-8.975c-2.373-2.354-5.381-3.525-9.043-3.525
	c-1.483,0-3.34,0.293-5.565,0.879l0.879-6.934c0.527,0.059,0.947,0.088,1.27,0.088c3.359,0,6.388-0.879,9.082-2.637
	c2.687-1.748,4.033-4.453,4.033-8.115c0-2.891-0.977-5.293-2.938-7.188c-1.953-1.904-4.492-2.853-7.589-2.853
	c-3.065,0-5.625,0.957-7.676,2.891c-2.051,1.935-3.358,4.824-3.945,8.691l-7.899-1.406c0.967-5.293,3.164-9.395,6.582-12.305
	s7.676-4.365,12.764-4.365c3.506,0,6.738,0.752,9.697,2.256c2.949,1.505,5.215,3.564,6.776,6.162
	c1.563,2.607,2.345,5.371,2.345,8.291c0,2.783-0.742,5.313-2.236,7.588c-1.494,2.285-3.701,4.103-6.621,5.439
	c3.799,0.879,6.758,2.705,8.857,5.469c2.108,2.765,3.164,6.222,3.164,10.371c0,5.621-2.052,10.367-6.144,14.273
	c-4.102,3.905-9.276,5.858-15.526,5.858c-5.646,0-10.332-1.68-14.063-5.039C765.4,459.234,763.271,454.881,762.744,449.524
	L762.744,449.524z M842.402,466.502h-7.892v-50.318c-1.903,1.808-4.395,3.623-7.479,5.439c-3.086,1.807-5.859,3.174-8.312,4.072
	v-7.627c4.414-2.08,8.271-4.591,11.582-7.55c3.302-2.948,5.646-5.819,7.013-8.594h5.088V466.502L842.402,466.502z M824.824,521.463
	c-3.271-1.19-5.703-2.91-7.285-5.137c-1.572-2.207-2.363-4.883-2.363-7.969c0-4.688,1.681-8.613,5.039-11.816
	c3.369-3.184,7.842-4.766,13.428-4.766c5.615,0,10.138,1.621,13.556,4.883s5.137,7.227,5.137,11.914
	c0,2.987-0.791,5.586-2.354,7.793c-1.563,2.207-3.937,3.906-7.13,5.098c3.955,1.289,6.953,3.359,9.015,6.23
	c2.069,2.871,3.096,6.289,3.096,10.272c0,5.488-1.942,10.117-5.83,13.849c-3.896,3.75-9.014,5.625-15.36,5.625
	c-6.339,0-11.455-1.875-15.353-5.646c-3.887-3.75-5.83-8.438-5.83-14.063c0-4.181,1.055-7.677,3.185-10.488
	C817.891,524.412,820.908,522.498,824.824,521.463z M820.703,537.791c0,2.246,0.527,4.434,1.602,6.523
	c1.064,2.108,2.656,3.75,4.756,4.901c2.109,1.152,4.375,1.719,6.798,1.719c3.778,0,6.895-1.211,9.346-3.633
	c2.461-2.422,3.69-5.508,3.69-9.258c0-3.789-1.27-6.934-3.799-9.434c-2.528-2.48-5.692-3.73-9.502-3.73
	c-3.711,0-6.787,1.23-9.229,3.691C821.923,531.032,820.703,534.1,820.703,537.791L820.703,537.791z M823.242,508.084
	c0,3.047,0.986,5.527,2.938,7.461c1.964,1.935,4.503,2.891,7.638,2.891c3.037,0,5.537-0.956,7.479-2.87
	c1.943-1.914,2.92-4.259,2.92-7.031c0-2.91-1.006-5.332-3.008-7.305c-2.002-1.974-4.502-2.97-7.479-2.97
	c-3.019,0-5.519,0.957-7.5,2.892C824.238,503.084,823.242,505.389,823.242,508.084L823.242,508.084z M854.17,638.592v7.578h-42.5
	c-0.068-1.895,0.244-3.729,0.918-5.469c1.084-2.91,2.813-5.762,5.195-8.555c2.383-2.813,5.83-6.056,10.332-9.746
	c6.992-5.742,11.709-10.273,14.17-13.613c2.451-3.359,3.682-6.523,3.682-9.512c0-3.125-1.112-5.763-3.35-7.91
	c-2.246-2.148-5.156-3.223-8.76-3.223c-3.8,0-6.836,1.133-9.121,3.418c-2.275,2.284-3.438,5.448-3.467,9.473l-8.115-0.84
	c0.557-6.035,2.646-10.664,6.279-13.828c3.622-3.185,8.485-4.766,14.6-4.766c6.172,0,11.055,1.719,14.658,5.137
	c3.594,3.418,5.391,7.656,5.391,12.715c0,2.578-0.527,5.117-1.572,7.598c-1.055,2.48-2.803,5.099-5.244,7.853
	c-2.44,2.754-6.504,6.522-12.178,11.309c-4.736,3.984-7.772,6.681-9.121,8.105c-1.348,1.405-2.461,2.832-3.34,4.276H854.17
	L854.17,638.592z"/>
</svg>
