<?xml version="1.0" encoding="utf-8"?>
<!-- Generator: Adobe Illustrator 16.0.3, SVG Export Plug-In . SVG Version: 6.00 Build 0)  -->
<!DOCTYPE svg PUBLIC "-//W3C//DTD SVG 1.1//EN" "http://www.w3.org/Graphics/SVG/1.1/DTD/svg11.dtd">
<svg version="1.1" id="Layer_1" xmlns="http://www.w3.org/2000/svg" xmlns:xlink="http://www.w3.org/1999/xlink" x="0px" y="0px"
	 width="900px" height="900px" viewBox="0 0 900 900" enable-background="new 0 0 900 900" xml:space="preserve">
<path d="M86.553,153.928H72.715V65.745c-3.34,3.184-7.705,6.357-13.115,9.531c-5.4,3.184-10.264,5.566-14.561,7.158V69.055
	c7.734-3.643,14.502-8.047,20.293-13.223s9.893-10.205,12.305-15.068h8.916V153.928L86.553,153.928z M121.992,98.342
	c0-13.32,1.377-24.053,4.111-32.178c2.744-8.115,6.816-14.385,12.227-18.789c5.41-4.414,12.207-6.611,20.41-6.611
	c6.045,0,11.357,1.211,15.918,3.652c4.561,2.432,8.33,5.938,11.299,10.527c2.969,4.589,5.303,10.176,7.002,16.758
	c1.689,6.592,2.529,15.469,2.529,26.641c0,13.223-1.357,23.896-4.072,32.021s-6.777,14.404-12.188,18.838
	c-5.4,4.434-12.236,6.65-20.488,6.65c-10.859,0-19.395-3.896-25.596-11.689C125.713,134.788,121.992,119.514,121.992,98.342
	L121.992,98.342z M136.221,98.342c0,18.506,2.158,30.82,6.494,36.943c4.326,6.123,9.668,9.189,16.025,9.189
	c6.357,0,11.699-3.076,16.035-9.229c4.326-6.152,6.494-18.447,6.494-36.904c0-18.555-2.168-30.879-6.494-36.982
	c-4.336-6.094-9.727-9.141-16.182-9.141c-6.357,0-11.436,2.686-15.225,8.066C138.604,67.161,136.221,79.846,136.221,98.342z
	 M282.295,140.627v13.301h-74.502c-0.106-3.278,0.441-6.544,1.611-9.609c1.904-5.078,4.932-10.068,9.111-14.99
	c4.179-4.922,10.215-10.615,18.105-17.07c12.256-10.049,20.527-17.998,24.834-23.867c4.307-5.869,6.455-11.416,6.455-16.65
	c0-5.479-1.953-10.107-5.879-13.877c-3.916-3.771-9.033-5.646-15.332-5.646c-6.67,0-12.002,1.992-15.996,5.996
	c-3.994,3.994-6.025,9.531-6.074,16.602l-14.219-1.455c0.967-10.615,4.639-18.701,10.996-24.258
	c6.348-5.566,14.883-8.34,25.596-8.34c10.811,0,19.375,2.998,25.684,8.994c6.299,5.996,9.453,13.428,9.453,22.295
	c0,4.512-0.928,8.945-2.773,13.301c-1.836,4.355-4.902,8.945-9.18,13.76c-4.287,4.814-11.396,11.426-21.338,19.834
	c-8.301,6.973-13.633,11.699-15.986,14.18c-2.363,2.49-4.307,4.99-5.85,7.5h55.284V140.627z M232.656,652.83v-74.102h10.059
	l38.926,58.184v-58.184h9.395v74.102h-10.059l-38.916-58.242v58.242H232.656z M302.969,625.994c0-9.941,2.764-17.305,8.291-22.09
	c4.609-3.984,10.244-5.978,16.885-5.978c7.373,0,13.408,2.422,18.086,7.267c4.688,4.823,7.031,11.504,7.031,20.039
	c0,6.895-1.035,12.344-3.105,16.289c-2.08,3.965-5.088,7.051-9.053,9.237c-3.955,2.188-8.281,3.281-12.959,3.281
	c-7.52,0-13.594-2.402-18.223-7.228C305.283,641.99,302.969,635.057,302.969,625.994L302.969,625.994z M312.314,625.994
	c0,6.875,1.504,12.012,4.502,15.43s6.777,5.137,11.328,5.137c4.512,0,8.271-1.719,11.27-5.155c2.999-3.438,4.492-8.672,4.492-15.724
	c0-6.641-1.504-11.659-4.521-15.078c-3.018-3.438-6.768-5.137-11.24-5.137c-4.551,0-8.33,1.699-11.328,5.099
	C313.818,613.982,312.314,619.119,312.314,625.994L312.314,625.994z M372.314,652.83h-8.438v-74.102h9.092v26.426
	c3.848-4.806,8.75-7.228,14.707-7.228c3.301,0,6.426,0.664,9.375,2.013c2.949,1.328,5.381,3.184,7.285,5.604
	c1.904,2.402,3.389,5.313,4.473,8.711c1.074,3.398,1.611,7.051,1.611,10.918c0,9.199-2.266,16.31-6.816,21.328
	c-4.55,5.02-10.01,7.539-16.376,7.539c-6.338,0-11.309-2.656-14.912-7.93V652.83L372.314,652.83z M372.217,625.584
	c0,6.426,0.869,11.094,2.627,13.945c2.861,4.688,6.738,7.031,11.621,7.031c3.975,0,7.412-1.738,10.313-5.177
	c2.899-3.457,4.346-8.612,4.346-15.448c0-7.013-1.387-12.188-4.17-15.509c-2.783-3.34-6.143-5.02-10.078-5.02
	c-3.984,0-7.422,1.737-10.313,5.194C373.662,614.041,372.217,619.041,372.217,625.584z M458.242,635.545l9.395,1.152
	c-1.483,5.487-4.229,9.766-8.231,12.793c-4.015,3.026-9.142,4.551-15.371,4.551c-7.853,0-14.072-2.422-18.672-7.266
	c-4.601-4.824-6.904-11.603-6.904-20.332c0-9.023,2.324-16.035,6.973-21.035c4.658-4.98,10.685-7.48,18.097-7.48
	c7.178,0,13.047,2.441,17.598,7.345c4.541,4.883,6.816,11.758,6.816,20.604c0,0.547-0.011,1.349-0.05,2.441h-40.028
	c0.332,5.897,2.002,10.41,5,13.535c2.998,3.145,6.737,4.707,11.221,4.707c3.34,0,6.182-0.88,8.545-2.638
	C454.99,642.186,456.855,639.373,458.242,635.545L458.242,635.545z M428.369,620.838h29.971c-0.41-4.531-1.553-7.91-3.438-10.176
	c-2.9-3.496-6.66-5.254-11.271-5.254c-4.18,0-7.694,1.406-10.537,4.199C430.244,612.4,428.672,616.15,428.369,620.838
	L428.369,620.838z M478.867,652.83v-74.102h9.102v74.102H478.867z M502.119,589.197v-10.469h9.102v10.469H502.119z M502.119,652.83
	v-53.691h9.102v53.691H502.119z M560.244,652.83v-7.891c-4.18,6.073-9.854,9.102-17.031,9.102c-3.174,0-6.123-0.604-8.877-1.816
	c-2.744-1.211-4.785-2.733-6.113-4.59c-1.328-1.836-2.266-4.082-2.803-6.737c-0.371-1.777-0.557-4.609-0.557-8.496v-33.263h9.102
	v29.785c0,4.746,0.187,7.949,0.558,9.59c0.565,2.402,1.776,4.277,3.633,5.646c1.855,1.368,4.149,2.051,6.875,2.051
	c2.733,0,5.293-0.703,7.686-2.108c2.394-1.388,4.082-3.302,5.078-5.703c0.996-2.402,1.494-5.898,1.494-10.488v-28.77h9.092v53.69
	L560.244,652.83L560.244,652.83z M582.637,652.83v-53.691h8.136v7.539c1.688-2.637,3.926-4.746,6.719-6.348
	c2.803-1.602,5.985-2.402,9.561-2.402c3.976,0,7.236,0.841,9.775,2.48c2.549,1.66,4.336,3.965,5.381,6.934
	c4.248-6.27,9.775-9.414,16.582-9.414c5.322,0,9.414,1.484,12.285,4.435c2.86,2.949,4.297,7.479,4.297,13.612v36.855h-9.053v-33.828
	c0-3.633-0.293-6.25-0.879-7.852c-0.597-1.603-1.66-2.892-3.214-3.867c-1.553-0.977-3.368-1.465-5.459-1.465
	c-3.77,0-6.903,1.25-9.403,3.77c-2.49,2.5-3.74,6.523-3.74,12.051v31.191h-9.092v-34.883c0-4.043-0.742-7.07-2.228-9.103
	c-1.483-2.012-3.905-3.026-7.274-3.026c-2.568,0-4.933,0.684-7.109,2.031c-2.168,1.348-3.74,3.301-4.727,5.897
	c-0.978,2.598-1.466,6.348-1.466,11.23v27.852L582.637,652.83L582.637,652.83z M57.383,859.236v-94.668h20.068v7.52H66.484v79.609
	h10.967v7.539H57.383z M131.23,829.92v8.75H82.256c-0.075-2.159,0.288-4.312,1.064-6.328c1.24-3.34,3.242-6.621,5.986-9.844
	c2.744-3.242,6.709-6.992,11.904-11.23c8.047-6.602,13.496-11.836,16.328-15.684c2.822-3.867,4.238-7.52,4.238-10.957
	c0-3.594-1.289-6.641-3.867-9.121c-2.578-2.479-5.938-3.711-10.078-3.711c-4.385,0-7.891,1.31-10.518,3.945
	c-2.627,2.617-3.955,6.27-3.994,10.918l-9.346-0.957c0.635-6.973,3.047-12.305,7.227-15.957c4.18-3.652,9.785-5.488,16.836-5.488
	c7.109,0,12.734,1.974,16.875,5.918c4.15,3.945,6.221,8.828,6.221,14.668c0,2.949-0.605,5.88-1.816,8.73
	c-1.221,2.871-3.232,5.879-6.045,9.063c-2.813,3.164-7.49,7.5-14.023,13.027c-5.459,4.59-8.965,7.695-10.518,9.336
	c-1.553,1.621-2.832,3.281-3.838,4.922H131.23L131.23,829.92z M140.986,819.256l9.551-0.801c0.713,4.648,2.354,8.145,4.932,10.488
	c2.578,2.343,5.684,3.496,9.326,3.496c4.375,0,8.086-1.642,11.113-4.941c3.037-3.301,4.551-7.695,4.551-13.146
	c0-5.194-1.455-9.276-4.365-12.284c-2.92-2.988-6.738-4.492-11.455-4.492c-2.93,0-5.576,0.664-7.93,1.992
	c-2.363,1.328-4.219,3.065-5.566,5.176l-8.535-1.113l7.178-38.047h36.846v8.691h-29.57l-3.994,19.901
	c4.443-3.086,9.111-4.647,14.004-4.647c6.465,0,11.924,2.246,16.377,6.737c4.443,4.474,6.67,10.234,6.67,17.285
	c0,6.699-1.953,12.5-5.869,17.383c-4.746,5.996-11.23,8.984-19.453,8.984c-6.738,0-12.246-1.875-16.504-5.646
	C144.023,830.486,141.592,825.486,140.986,819.256L140.986,819.256z M199.922,821.521l8.74-0.802
	c0.742,4.121,2.158,7.091,4.248,8.945c2.09,1.854,4.766,2.773,8.037,2.773c2.793,0,5.244-0.625,7.354-1.914
	c2.109-1.271,3.828-2.988,5.176-5.138c1.348-2.129,2.48-5.02,3.389-8.651c0.909-3.642,1.368-7.38,1.367-11.134
	c0-0.391-0.02-0.995-0.049-1.815c-1.826,2.891-4.307,5.254-7.461,7.051c-3.111,1.794-6.643,2.73-10.234,2.715
	c-6.133,0-11.318-2.227-15.566-6.68s-6.367-10.313-6.367-17.598c0-7.5,2.217-13.556,6.65-18.146c4.424-4.57,9.98-6.875,16.65-6.875
	c4.814,0,9.229,1.31,13.213,3.906c3.994,2.598,7.031,6.289,9.102,11.094c2.071,4.805,3.105,11.738,3.105,20.84
	c0,9.474-1.025,17.013-3.076,22.617c-2.061,5.625-5.117,9.883-9.18,12.813c-4.063,2.93-8.818,4.395-14.277,4.395
	c-5.791,0-10.527-1.602-14.199-4.824C202.871,831.894,200.664,827.361,199.922,821.521L199.922,821.521z M237.168,788.826
	c0-5.215-1.387-9.375-4.17-12.441c-2.773-3.065-6.123-4.59-10.029-4.59c-4.043,0-7.568,1.66-10.566,4.961s-4.502,7.578-4.502,12.832
	c0,4.707,1.426,8.555,4.277,11.504c2.842,2.949,6.357,4.414,10.537,4.414c4.209,0,7.676-1.465,10.391-4.414
	C235.811,798.143,237.168,794.061,237.168,788.826z M273.877,859.236h-20.068v-7.539h10.967v-79.609h-10.967v-7.52h20.068V859.236
	L273.877,859.236z M284.824,440.344V255.452h36.318l75.674,123.477V255.452h34.678v184.893h-37.451l-74.541-120.565v120.565
	L284.824,440.344L284.824,440.344z M462.52,371.487c0-11.777,2.9-23.164,8.701-34.181c5.801-11.016,14.023-19.424,24.658-25.225
	s22.51-8.701,35.625-8.701c20.264,0,36.865,6.582,49.814,19.736c12.948,13.164,19.424,29.785,19.424,49.883
	c0,20.264-6.533,37.062-19.609,50.381c-13.076,13.33-29.531,19.99-49.375,19.99c-12.274,0-23.983-2.773-35.127-8.32
	c-11.143-5.557-19.608-13.69-25.41-24.403C465.42,399.924,462.52,386.868,462.52,371.487z M498.838,373.372
	c0,13.291,3.154,23.467,9.463,30.527c6.31,7.06,14.082,10.596,23.33,10.596s17.002-3.535,23.271-10.596
	c6.26-7.062,9.395-17.324,9.395-30.771c0-13.115-3.135-23.213-9.395-30.272c-6.271-7.062-14.023-10.597-23.271-10.597
	s-17.021,3.535-23.33,10.597C501.992,349.916,498.838,360.09,498.838,373.372z M854.17,99.553v7.588h-42.5
	c-0.068-1.904,0.244-3.73,0.918-5.479c1.084-2.9,2.813-5.752,5.195-8.555c2.383-2.813,5.83-6.055,10.332-9.746
	c6.992-5.732,11.709-10.264,14.17-13.613c2.451-3.35,3.682-6.514,3.682-9.502c0-3.125-1.113-5.771-3.35-7.92
	c-2.246-2.148-5.156-3.223-8.76-3.223c-3.8,0-6.836,1.143-9.121,3.428c-2.275,2.275-3.438,5.439-3.467,9.473l-8.115-0.84
	c0.557-6.045,2.646-10.664,6.278-13.838c3.623-3.174,8.486-4.756,14.601-4.756c6.172,0,11.055,1.709,14.658,5.127
	c3.594,3.428,5.391,7.666,5.391,12.725c0,2.578-0.527,5.107-1.572,7.588c-1.055,2.49-2.803,5.107-5.244,7.852
	c-2.44,2.754-6.504,6.523-12.178,11.318c-4.736,3.975-7.772,6.68-9.121,8.096c-1.348,1.416-2.461,2.842-3.34,4.277H854.17
	L854.17,99.553z M824.824,162.112c-3.271-1.201-5.703-2.91-7.285-5.137c-1.572-2.217-2.363-4.883-2.363-7.979
	c0-4.678,1.681-8.613,5.039-11.807c3.369-3.184,7.842-4.775,13.428-4.775c5.615,0,10.138,1.631,13.556,4.893
	c3.418,3.262,5.137,7.227,5.137,11.904c0,2.988-0.791,5.586-2.354,7.793c-1.563,2.207-3.937,3.906-7.13,5.107
	c3.955,1.289,6.953,3.359,9.015,6.23c2.069,2.861,3.096,6.289,3.096,10.264c0,5.498-1.943,10.117-5.83,13.857
	c-3.896,3.75-9.014,5.615-15.361,5.615c-6.338,0-11.454-1.875-15.352-5.635c-3.887-3.76-5.83-8.447-5.83-14.063
	c0-4.18,1.055-7.676,3.185-10.498C817.891,165.061,820.908,163.137,824.824,162.112z M820.703,178.43
	c0,2.256,0.527,4.434,1.602,6.533c1.064,2.109,2.656,3.74,4.756,4.893c2.082,1.146,4.422,1.741,6.798,1.729
	c3.778,0,6.895-1.211,9.346-3.633c2.461-2.432,3.69-5.518,3.69-9.258c0-3.799-1.27-6.943-3.799-9.434
	c-2.528-2.479-5.692-3.729-9.502-3.729c-3.711,0-6.787,1.229-9.229,3.691C821.924,171.672,820.703,174.749,820.703,178.43
	L820.703,178.43z M823.242,148.733c0,3.037,0.986,5.527,2.938,7.451c1.964,1.934,4.502,2.9,7.638,2.9
	c3.037,0,5.537-0.957,7.479-2.871c1.943-1.914,2.92-4.268,2.92-7.041c0-2.9-1.006-5.332-3.008-7.305
	c-2.002-1.973-4.502-2.959-7.479-2.959c-3.019,0-5.519,0.957-7.5,2.891C824.238,143.733,823.242,146.038,823.242,148.733
	L823.242,148.733z M792.441,286.819h-7.892v-50.313c-1.903,1.807-4.395,3.623-7.479,5.439c-3.086,1.807-5.859,3.174-8.312,4.072
	v-7.627c4.414-2.08,8.271-4.59,11.582-7.549c3.301-2.949,5.646-5.82,7.013-8.594h5.088V286.819L792.441,286.819z M824.814,251.946
	c-3.271-1.201-5.703-2.91-7.285-5.137c-1.572-2.217-2.363-4.883-2.363-7.979c0-4.678,1.68-8.613,5.039-11.807
	c3.369-3.184,7.842-4.775,13.428-4.775c5.615,0,10.137,1.631,13.555,4.893c3.418,3.262,5.138,7.227,5.138,11.904
	c0,2.988-0.791,5.586-2.354,7.793c-1.563,2.207-3.936,3.906-7.129,5.107c3.955,1.289,6.953,3.359,9.014,6.23
	c2.07,2.861,3.097,6.289,3.097,10.264c0,5.498-1.943,10.117-5.83,13.857c-3.896,3.75-9.014,5.615-15.361,5.615
	c-6.338,0-11.455-1.875-15.352-5.635c-3.888-3.76-5.83-8.447-5.83-14.063c0-4.18,1.055-7.676,3.184-10.498
	C817.881,254.895,820.898,252.971,824.814,251.946z M820.693,268.264c0,2.256,0.526,4.434,1.602,6.533
	c1.064,2.109,2.656,3.74,4.756,4.893c2.082,1.146,4.421,1.741,6.797,1.729c3.779,0,6.896-1.211,9.347-3.633
	c2.461-2.432,3.69-5.518,3.69-9.258c0-3.799-1.27-6.943-3.799-9.434c-2.529-2.48-5.693-3.729-9.502-3.729
	c-3.711,0-6.787,1.229-9.229,3.691C821.914,261.506,820.693,264.583,820.693,268.264L820.693,268.264z M823.232,238.567
	c0,3.037,0.985,5.527,2.938,7.451c1.963,1.934,4.502,2.9,7.637,2.9c3.037,0,5.537-0.957,7.48-2.871s2.92-4.268,2.92-7.041
	c0-2.9-1.006-5.332-3.008-7.305c-2.002-1.973-4.502-2.959-7.48-2.959c-3.018,0-5.518,0.957-7.5,2.891
	C824.229,233.567,823.232,235.872,823.232,238.567L823.232,238.567z M762.744,359.69l7.9-1.056c0.907,4.474,2.45,7.695,4.629,9.668
	c2.178,1.974,4.834,2.959,7.959,2.959c3.711,0,6.854-1.278,9.414-3.856c2.559-2.568,3.838-5.763,3.838-9.562
	c0-3.623-1.191-6.621-3.556-8.975c-2.373-2.354-5.381-3.525-9.043-3.525c-1.483,0-3.34,0.293-5.565,0.879l0.879-6.934
	c0.527,0.059,0.947,0.088,1.27,0.088c3.359,0,6.388-0.879,9.082-2.637c2.687-1.748,4.033-4.453,4.033-8.115
	c0-2.891-0.977-5.293-2.938-7.188c-1.953-1.904-4.492-2.853-7.589-2.853c-3.065,0-5.625,0.957-7.676,2.892
	c-2.051,1.934-3.358,4.823-3.945,8.69l-7.899-1.406c0.967-5.293,3.164-9.395,6.582-12.305s7.676-4.365,12.764-4.365
	c3.506,0,6.738,0.752,9.697,2.256c2.949,1.505,5.215,3.564,6.776,6.162c1.563,2.607,2.345,5.371,2.345,8.291
	c0,2.783-0.742,5.313-2.236,7.588c-1.494,2.285-3.701,4.103-6.621,5.439c3.799,0.879,6.758,2.705,8.857,5.469
	c2.108,2.765,3.164,6.222,3.164,10.371c0,5.615-2.052,10.371-6.144,14.277c-4.102,3.906-9.276,5.858-15.526,5.858
	c-5.646,0-10.332-1.68-14.063-5.049C765.4,369.397,763.271,365.042,762.744,359.69L762.744,359.69z M854.16,369.075v7.588h-42.5
	c-0.068-1.904,0.244-3.73,0.918-5.479c1.084-2.899,2.813-5.752,5.195-8.555c2.383-2.813,5.83-6.055,10.332-9.746
	c6.991-5.731,11.709-10.264,14.17-13.613c2.45-3.35,3.682-6.514,3.682-9.502c0-3.125-1.113-5.771-3.35-7.92
	c-2.246-2.147-5.156-3.223-8.761-3.223c-3.799,0-6.836,1.143-9.12,3.428c-2.275,2.275-3.438,5.439-3.468,9.474l-8.114-0.841
	c0.557-6.045,2.646-10.663,6.278-13.838c3.623-3.174,8.486-4.756,14.601-4.756c6.172,0,11.055,1.709,14.657,5.127
	c3.595,3.429,5.392,7.666,5.392,12.726c0,2.578-0.527,5.106-1.572,7.588c-1.055,2.49-2.803,5.106-5.244,7.852
	c-2.44,2.754-6.504,6.523-12.178,11.318c-4.736,3.975-7.773,6.68-9.121,8.096s-2.461,2.842-3.34,4.277H854.16z M762.744,449.524
	l7.9-1.056c0.907,4.479,2.45,7.701,4.629,9.673c2.178,1.973,4.834,2.949,7.959,2.949c3.711,0,6.854-1.27,9.414-3.848
	c2.559-2.578,3.838-5.762,3.838-9.566c0-3.623-1.191-6.621-3.556-8.975c-2.373-2.354-5.381-3.525-9.043-3.525
	c-1.483,0-3.34,0.293-5.565,0.879l0.879-6.934c0.527,0.059,0.947,0.088,1.27,0.088c3.359,0,6.388-0.879,9.082-2.637
	c2.687-1.748,4.033-4.453,4.033-8.115c0-2.891-0.977-5.293-2.938-7.188c-1.953-1.904-4.492-2.853-7.589-2.853
	c-3.065,0-5.625,0.957-7.676,2.891c-2.051,1.935-3.358,4.824-3.945,8.691l-7.899-1.406c0.967-5.293,3.164-9.395,6.582-12.305
	s7.676-4.365,12.764-4.365c3.506,0,6.738,0.752,9.697,2.256c2.949,1.505,5.215,3.564,6.776,6.162
	c1.563,2.607,2.345,5.371,2.345,8.291c0,2.783-0.742,5.313-2.236,7.588c-1.494,2.285-3.701,4.103-6.621,5.439
	c3.799,0.879,6.758,2.705,8.857,5.469c2.108,2.765,3.164,6.222,3.164,10.371c0,5.621-2.052,10.367-6.144,14.273
	c-4.102,3.905-9.276,5.858-15.526,5.858c-5.646,0-10.332-1.68-14.063-5.039C765.4,459.234,763.271,454.881,762.744,449.524
	L762.744,449.524z M854.16,458.904v7.598h-42.5c-0.068-1.914,0.244-3.729,0.918-5.488c1.084-2.891,2.813-5.741,5.195-8.555
	c2.383-2.808,5.83-6.05,10.332-9.742c6.991-5.731,11.709-10.264,14.17-13.613c2.45-3.35,3.682-6.514,3.682-9.502
	c0-3.125-1.113-5.771-3.35-7.92c-2.246-2.147-5.156-3.223-8.761-3.223c-3.799,0-6.836,1.143-9.12,3.428
	c-2.275,2.275-3.438,5.439-3.468,9.474l-8.114-0.841c0.557-6.045,2.646-10.663,6.278-13.838c3.623-3.174,8.486-4.756,14.601-4.756
	c6.172,0,11.055,1.709,14.657,5.127c3.595,3.429,5.392,7.666,5.392,12.726c0,2.578-0.527,5.106-1.572,7.588
	c-1.055,2.49-2.803,5.106-5.244,7.852c-2.44,2.754-6.504,6.523-12.178,11.318c-4.736,3.974-7.773,6.685-9.121,8.091
	c-1.348,1.426-2.461,2.852-3.34,4.277H854.16L854.16,458.904z M824.824,521.463c-3.271-1.19-5.703-2.91-7.285-5.137
	c-1.572-2.207-2.363-4.883-2.363-7.969c0-4.688,1.681-8.613,5.039-11.816c3.369-3.184,7.842-4.766,13.428-4.766
	c5.615,0,10.138,1.621,13.556,4.883s5.137,7.227,5.137,11.914c0,2.987-0.791,5.586-2.354,7.793c-1.563,2.207-3.937,3.906-7.13,5.098
	c3.955,1.289,6.953,3.359,9.015,6.23c2.069,2.871,3.096,6.289,3.096,10.272c0,5.488-1.942,10.117-5.83,13.849
	c-3.896,3.75-9.014,5.625-15.36,5.625c-6.339,0-11.455-1.875-15.353-5.646c-3.887-3.75-5.83-8.438-5.83-14.063
	c0-4.181,1.055-7.677,3.185-10.488C817.891,524.412,820.908,522.498,824.824,521.463z M820.703,537.791
	c0,2.246,0.527,4.434,1.602,6.523c1.064,2.108,2.656,3.75,4.756,4.901c2.109,1.152,4.375,1.719,6.798,1.719
	c3.778,0,6.895-1.211,9.346-3.633c2.461-2.422,3.69-5.508,3.69-9.258c0-3.789-1.27-6.934-3.799-9.434
	c-2.528-2.48-5.692-3.73-9.502-3.73c-3.711,0-6.787,1.23-9.229,3.691C821.923,531.032,820.703,534.1,820.703,537.791
	L820.703,537.791z M823.242,508.084c0,3.047,0.986,5.527,2.938,7.461c1.964,1.935,4.503,2.891,7.638,2.891
	c3.037,0,5.537-0.956,7.479-2.87c1.943-1.914,2.92-4.259,2.92-7.031c0-2.91-1.006-5.332-3.008-7.305
	c-2.002-1.974-4.502-2.97-7.479-2.97c-3.019,0-5.519,0.957-7.5,2.892C824.238,503.084,823.242,505.389,823.242,508.084
	L823.242,508.084z M854.17,638.592v7.578h-42.5c-0.068-1.895,0.244-3.729,0.918-5.469c1.084-2.91,2.813-5.762,5.195-8.555
	c2.383-2.813,5.83-6.056,10.332-9.746c6.992-5.742,11.709-10.273,14.17-13.613c2.451-3.359,3.682-6.523,3.682-9.512
	c0-3.125-1.112-5.763-3.35-7.91c-2.246-2.148-5.156-3.223-8.76-3.223c-3.8,0-6.836,1.133-9.121,3.418
	c-2.275,2.284-3.438,5.448-3.467,9.473l-8.115-0.84c0.557-6.035,2.646-10.664,6.279-13.828c3.622-3.185,8.485-4.766,14.6-4.766
	c6.172,0,11.055,1.719,14.658,5.137c3.594,3.418,5.391,7.656,5.391,12.715c0,2.578-0.527,5.117-1.572,7.598
	c-1.055,2.48-2.803,5.099-5.244,7.853c-2.44,2.754-6.504,6.522-12.178,11.309c-4.736,3.984-7.772,6.681-9.121,8.105
	c-1.348,1.405-2.461,2.832-3.34,4.276H854.17L854.17,638.592z"/>
</svg>
