<?xml version="1.0" encoding="utf-8"?>
<!-- Generator: Adobe Illustrator 16.0.3, SVG Export Plug-In . SVG Version: 6.00 Build 0)  -->
<!DOCTYPE svg PUBLIC "-//W3C//DTD SVG 1.1//EN" "http://www.w3.org/Graphics/SVG/1.1/DTD/svg11.dtd">
<svg version="1.1" id="Layer_1" xmlns="http://www.w3.org/2000/svg" xmlns:xlink="http://www.w3.org/1999/xlink" x="0px" y="0px"
	 width="900px" height="900px" viewBox="0 0 900 900" enable-background="new 0 0 900 900" xml:space="preserve">
<path d="M86.553,153.928H72.715V65.745c-3.34,3.184-7.705,6.357-13.115,9.531c-5.4,3.184-10.264,5.566-14.561,7.158V69.055
	c7.734-3.643,14.502-8.047,20.293-13.223s9.893-10.205,12.305-15.068h8.916V153.928L86.553,153.928z M121.992,98.342
	c0-13.32,1.377-24.053,4.111-32.178c2.744-8.115,6.816-14.385,12.227-18.789c5.41-4.414,12.207-6.611,20.41-6.611
	c6.045,0,11.357,1.211,15.918,3.652c4.561,2.432,8.33,5.938,11.299,10.527c2.969,4.589,5.303,10.176,7.002,16.758
	c1.689,6.592,2.529,15.469,2.529,26.641c0,13.223-1.357,23.896-4.072,32.021s-6.777,14.404-12.188,18.838
	c-5.4,4.434-12.236,6.65-20.488,6.65c-10.859,0-19.395-3.896-25.596-11.689C125.713,134.788,121.992,119.514,121.992,98.342
	L121.992,98.342z M136.221,98.342c0,18.506,2.158,30.82,6.494,36.943c4.326,6.123,9.668,9.189,16.025,9.189
	c6.357,0,11.699-3.076,16.035-9.229c4.326-6.152,6.494-18.447,6.494-36.904c0-18.555-2.168-30.879-6.494-36.982
	c-4.336-6.094-9.727-9.141-16.182-9.141c-6.357,0-11.436,2.686-15.225,8.066C138.604,67.161,136.221,79.846,136.221,98.342z
	 M209.639,124.172l13.838-1.846c1.592,7.842,4.297,13.496,8.115,16.953c3.818,3.467,8.467,5.195,13.955,5.195
	c6.504,0,12.002-2.256,16.484-6.768c4.482-4.512,6.729-10.098,6.729-16.758c0-6.357-2.08-11.602-6.23-15.723
	c-4.15-4.131-9.424-6.191-15.83-6.191c-2.617,0-5.869,0.518-9.766,1.533l1.533-12.139c0.928,0.098,1.67,0.146,2.236,0.146
	c5.889,0,11.191-1.533,15.908-4.609c4.717-3.076,7.07-7.813,7.07-14.219c0-5.078-1.709-9.277-5.146-12.617
	c-3.438-3.33-7.871-4.99-13.301-4.99c-5.381,0-9.863,1.689-13.457,5.068c-3.584,3.389-5.889,8.457-6.914,15.225l-13.838-2.461
	c1.689-9.277,5.537-16.465,11.533-21.563c5.996-5.098,13.447-7.646,22.373-7.646c6.143,0,11.807,1.318,16.982,3.955
	c5.175,2.637,9.141,6.24,11.885,10.801c2.734,4.561,4.111,9.404,4.111,14.531c0,4.873-1.309,9.307-3.926,13.301
	c-2.607,3.994-6.484,7.178-11.602,9.531c6.66,1.543,11.836,4.727,15.527,9.57c3.691,4.843,5.537,10.908,5.537,18.184
	c0,9.844-3.594,18.184-10.762,25.029c-7.178,6.836-16.25,10.264-27.217,10.264c-9.893,0-18.105-2.949-24.648-8.848
	C214.287,141.194,210.566,133.557,209.639,124.172L209.639,124.172z M171.943,652.83v-74.102h9.805v65.352h36.494v8.75H171.943z
	 M263.789,646.209c-3.379,2.852-6.621,4.883-9.736,6.055c-3.115,1.191-6.455,1.777-10.029,1.777c-5.898,0-10.43-1.445-13.594-4.316
	c-3.174-2.891-4.756-6.563-4.756-11.055c0-2.617,0.596-5.02,1.797-7.207c1.191-2.168,2.764-3.906,4.697-5.215
	c1.934-1.328,4.121-2.324,6.543-2.988c1.787-0.469,4.482-0.938,8.086-1.367c7.354-0.879,12.754-1.913,16.23-3.125
	c0.029-1.25,0.049-2.051,0.049-2.383c0-3.711-0.859-6.328-2.578-7.832c-2.324-2.051-5.781-3.086-10.361-3.086
	c-4.277,0-7.441,0.742-9.473,2.246c-2.041,1.504-3.555,4.16-4.531,7.969l-8.896-1.211c0.811-3.809,2.148-6.895,3.994-9.237
	c1.855-2.345,4.531-4.142,8.037-5.41c3.506-1.25,7.568-1.896,12.188-1.896c4.58,0,8.301,0.547,11.172,1.621
	c2.861,1.074,4.961,2.441,6.309,4.063c1.348,1.641,2.295,3.711,2.832,6.19c0.303,1.563,0.459,4.355,0.459,8.398v12.129
	c0,8.457,0.195,13.809,0.576,16.055c0.398,2.264,1.178,4.442,2.305,6.445h-9.502C264.658,650.937,264.053,648.729,263.789,646.209
	L263.789,646.209z M263.027,625.877c-3.301,1.348-8.262,2.5-14.863,3.438c-3.74,0.547-6.387,1.151-7.93,1.836
	c-1.553,0.664-2.754,1.659-3.594,2.948c-0.84,1.289-1.26,2.734-1.26,4.316c0,2.422,0.918,4.453,2.754,6.074
	c1.836,1.621,4.521,2.422,8.057,2.422c3.506,0,6.621-0.762,9.355-2.305c2.725-1.523,4.736-3.634,6.016-6.289
	c0.977-2.052,1.465-5.078,1.465-9.103V625.877L263.027,625.877z M296.23,652.83l-16.426-53.691h9.404l8.535,30.996l3.193,11.523
	c0.127-0.566,1.055-4.258,2.773-11.074l8.545-31.445h9.346l8.037,31.152l2.686,10.254l3.076-10.371l9.199-31.035h8.848
	L336.67,652.83h-9.453l-8.545-32.148l-2.07-9.159l-10.869,41.309L296.23,652.83L296.23,652.83z M360.977,652.83v-53.691h8.193v8.146
	c2.09-3.81,4.014-6.31,5.781-7.539c1.777-1.211,3.721-1.816,5.84-1.816c3.066,0,6.182,0.978,9.355,2.931l-3.135,8.457
	c-2.227-1.328-4.453-1.974-6.67-1.974c-1.992,0-3.779,0.586-5.361,1.797c-1.582,1.191-2.715,2.853-3.389,4.962
	c-1.006,3.241-1.514,6.776-1.514,10.625v28.104L360.977,652.83L360.977,652.83z M432.305,635.545l9.396,1.152
	c-1.484,5.488-4.229,9.766-8.232,12.793c-4.014,3.027-9.141,4.551-15.371,4.551c-7.852,0-14.071-2.422-18.672-7.266
	c-4.6-4.824-6.904-11.603-6.904-20.332c0-9.023,2.324-16.035,6.973-21.035c4.658-4.98,10.684-7.48,18.096-7.48
	c7.178,0,13.047,2.441,17.598,7.345c4.541,4.883,6.816,11.758,6.816,20.604c0,0.547-0.01,1.349-0.049,2.441h-40.029
	c0.332,5.897,2.002,10.41,5,13.535c2.998,3.145,6.738,4.707,11.222,4.707c3.34,0,6.182-0.88,8.545-2.638
	C429.053,642.186,430.918,639.373,432.305,635.545L432.305,635.545z M402.432,620.838h29.972c-0.41-4.531-1.554-7.91-3.438-10.176
	c-2.899-3.496-6.66-5.254-11.27-5.254c-4.181,0-7.695,1.406-10.537,4.199C404.307,612.4,402.734,616.15,402.432,620.838
	L402.432,620.838z M453.135,652.83v-53.691h8.185v7.638c3.944-5.898,9.639-8.849,17.09-8.849c3.231,0,6.201,0.586,8.916,1.759
	c2.715,1.151,4.746,2.676,6.094,4.569c1.348,1.875,2.285,4.121,2.832,6.72c0.332,1.68,0.498,4.629,0.498,8.848v33.008h-9.092
	v-32.656c0-3.711-0.353-6.483-1.064-8.319c-0.703-1.836-1.963-3.302-3.76-4.396c-1.807-1.094-3.926-1.641-6.348-1.641
	c-3.877,0-7.218,1.229-10.029,3.69c-2.822,2.461-4.229,7.129-4.229,14.004v29.316H453.135z M545.732,633.162l8.944,1.172
	c-0.977,6.152-3.485,10.978-7.51,14.473c-4.024,3.496-8.975,5.234-14.834,5.234c-7.344,0-13.252-2.402-17.715-7.207
	s-6.699-11.68-6.699-20.645c0-5.802,0.957-10.859,2.881-15.215c1.924-4.356,4.845-7.617,8.771-9.785s8.192-3.263,12.813-3.263
	c5.83,0,10.597,1.484,14.308,4.435c3.7,2.949,6.084,7.129,7.129,12.559l-8.849,1.367c-0.84-3.613-2.334-6.328-4.473-8.145
	c-2.139-1.817-4.727-2.734-7.764-2.734c-4.58,0-8.302,1.641-11.162,4.941c-2.871,3.28-4.297,8.477-4.297,15.586
	c0,7.207,1.377,12.461,4.141,15.723s6.367,4.902,10.82,4.902c3.563,0,6.553-1.095,8.944-3.281
	C543.573,641.092,545.088,637.713,545.732,633.162L545.732,633.162z M562.51,589.197v-10.469h9.103v10.469H562.51z M562.51,652.83
	v-53.691h9.103v53.691H562.51z M620.635,652.83v-7.891c-4.18,6.073-9.854,9.102-17.03,9.102c-3.175,0-6.123-0.604-8.878-1.816
	c-2.743-1.211-4.784-2.733-6.112-4.59c-1.328-1.836-2.267-4.082-2.803-6.737c-0.371-1.777-0.558-4.609-0.558-8.496v-33.263h9.103
	v29.785c0,4.746,0.186,7.949,0.557,9.59c0.566,2.402,1.777,4.277,3.633,5.646c1.856,1.368,4.15,2.051,6.875,2.051
	c2.734,0,5.293-0.703,7.687-2.108c2.393-1.388,4.082-3.302,5.078-5.703c0.995-2.402,1.493-5.898,1.493-10.488v-28.77h9.093v53.69
	L620.635,652.83L620.635,652.83z M643.027,652.83v-53.691h8.135v7.539c1.689-2.637,3.926-4.746,6.719-6.348
	c2.803-1.602,5.986-2.402,9.562-2.402c3.975,0,7.235,0.841,9.774,2.48c2.549,1.66,4.336,3.965,5.381,6.934
	c4.248-6.27,9.775-9.414,16.582-9.414c5.322,0,9.414,1.484,12.285,4.435c2.861,2.949,4.297,7.479,4.297,13.612v36.855h-9.053
	v-33.828c0-3.633-0.293-6.25-0.879-7.852c-0.596-1.603-1.66-2.892-3.213-3.867c-1.553-0.977-3.369-1.465-5.459-1.465
	c-3.771,0-6.904,1.25-9.404,3.77c-2.49,2.5-3.74,6.523-3.74,12.051v31.191h-9.092v-34.883c0-4.043-0.742-7.07-2.227-9.103
	c-1.484-2.012-3.906-3.026-7.275-3.026c-2.568,0-4.932,0.684-7.109,2.031c-2.168,1.348-3.739,3.301-4.727,5.897
	c-0.977,2.598-1.465,6.348-1.465,11.23v27.852L643.027,652.83L643.027,652.83z M57.373,859.236v-94.668h20.068v7.52H66.475v79.609
	h10.967v7.539H57.373z M131.221,829.92v8.75H82.246c-0.075-2.159,0.287-4.312,1.064-6.328c1.24-3.34,3.242-6.621,5.986-9.844
	c2.744-3.242,6.709-6.992,11.904-11.23c8.047-6.602,13.496-11.836,16.328-15.684c2.822-3.867,4.238-7.52,4.238-10.957
	c0-3.594-1.289-6.641-3.867-9.121c-2.578-2.479-5.938-3.711-10.078-3.711c-4.385,0-7.891,1.31-10.518,3.945
	c-2.627,2.617-3.955,6.27-3.994,10.918l-9.346-0.957c0.635-6.973,3.047-12.305,7.227-15.957s9.785-5.488,16.836-5.488
	c7.109,0,12.734,1.974,16.875,5.918c4.15,3.945,6.221,8.828,6.221,14.668c0,2.949-0.605,5.88-1.816,8.73
	c-1.221,2.871-3.232,5.879-6.045,9.063c-2.813,3.164-7.49,7.5-14.023,13.027c-5.459,4.59-8.965,7.695-10.518,9.336
	c-1.553,1.621-2.832,3.281-3.838,4.922H131.221L131.221,829.92z M188.184,782.713l-9.043,0.703
	c-0.811-3.574-1.953-6.172-3.438-7.773c-2.461-2.598-5.498-3.905-9.102-3.905c-2.9,0-5.439,0.819-7.627,2.44
	c-2.871,2.09-5.127,5.138-6.777,9.142c-1.65,4.004-2.51,9.727-2.578,17.129c2.188-3.34,4.873-5.802,8.037-7.422
	c3.164-1.621,6.484-2.423,9.961-2.423c6.064,0,11.221,2.228,15.488,6.699c4.258,4.453,6.396,10.234,6.396,17.306
	c0,4.647-1.006,8.965-3.008,12.969c-2.012,3.983-4.766,7.051-8.262,9.16c-3.506,2.129-7.49,3.184-11.934,3.184
	c-7.578,0-13.77-2.772-18.545-8.359c-4.795-5.565-7.178-14.766-7.178-27.577c0-14.316,2.637-24.728,7.93-31.23
	c4.619-5.664,10.83-8.496,18.652-8.496c5.83,0,10.604,1.642,14.326,4.902C185.215,772.439,187.441,776.951,188.184,782.713
	L188.184,782.713z M151.035,814.646c-0.008,3.111,0.672,6.186,1.992,9.004c1.338,2.871,3.193,5.059,5.586,6.543
	c2.393,1.504,4.902,2.246,7.529,2.246c3.848,0,7.148-1.543,9.912-4.648c2.764-3.086,4.141-7.305,4.141-12.637
	c0-5.117-1.357-9.142-4.092-12.09c-2.725-2.949-6.162-4.435-10.313-4.435c-4.111,0-7.598,1.484-10.459,4.435
	C152.47,806.014,151.035,809.881,151.035,814.646L151.035,814.646z M246.357,829.92v8.75h-48.975
	c-0.074-2.159,0.288-4.312,1.064-6.328c1.24-3.34,3.242-6.621,5.986-9.844c2.744-3.242,6.709-6.992,11.904-11.23
	c8.047-6.602,13.496-11.836,16.328-15.684c2.822-3.867,4.238-7.52,4.238-10.957c0-3.594-1.289-6.641-3.867-9.121
	c-2.578-2.479-5.938-3.711-10.078-3.711c-4.385,0-7.891,1.31-10.518,3.945c-2.627,2.617-3.955,6.27-3.994,10.918l-9.346-0.957
	c0.635-6.973,3.047-12.305,7.227-15.957c4.18-3.652,9.785-5.488,16.836-5.488c7.109,0,12.734,1.974,16.875,5.918
	c4.15,3.945,6.221,8.828,6.221,14.668c0,2.949-0.605,5.88-1.816,8.73c-1.221,2.871-3.232,5.879-6.045,9.063
	c-2.813,3.164-7.49,7.5-14.023,13.027c-5.459,4.59-8.965,7.695-10.518,9.336c-1.553,1.621-2.832,3.281-3.838,4.922H246.357
	L246.357,829.92z M273.867,859.236h-20.068v-7.539h10.967v-79.609h-10.967v-7.52h20.068V859.236L273.867,859.236z M326.807,440.344
	V256.965h37.324v152.228h92.822v31.151H326.807L326.807,440.344z M517.236,440.344h-35.439V306.409h32.92v19.043
	c5.635-8.994,10.703-14.922,15.195-17.783c4.502-2.861,9.609-4.287,15.322-4.287c8.076,0,15.85,2.227,23.34,6.681l-10.978,30.897
	c-5.967-3.856-11.522-5.801-16.649-5.801c-4.961,0-9.16,1.367-12.607,4.102c-3.447,2.735-6.162,7.677-8.135,14.824
	c-1.982,7.139-2.969,22.109-2.969,44.894V440.344L517.236,440.344z M854.17,99.553v7.588h-42.5c-0.068-1.904,0.244-3.73,0.918-5.479
	c1.084-2.9,2.813-5.752,5.195-8.555c2.383-2.813,5.83-6.055,10.332-9.746c6.992-5.732,11.709-10.264,14.17-13.613
	c2.451-3.35,3.682-6.514,3.682-9.502c0-3.125-1.113-5.771-3.35-7.92c-2.246-2.148-5.156-3.223-8.76-3.223
	c-3.8,0-6.836,1.143-9.121,3.428c-2.275,2.275-3.438,5.439-3.467,9.473l-8.115-0.84c0.557-6.045,2.646-10.664,6.278-13.838
	c3.623-3.174,8.486-4.756,14.601-4.756c6.172,0,11.055,1.709,14.658,5.127c3.594,3.428,5.391,7.666,5.391,12.725
	c0,2.578-0.527,5.107-1.572,7.588c-1.055,2.49-2.803,5.107-5.244,7.852c-2.44,2.754-6.504,6.523-12.178,11.318
	c-4.736,3.975-7.772,6.68-9.121,8.096c-1.348,1.416-2.461,2.842-3.34,4.277H854.17L854.17,99.553z M824.824,162.112
	c-3.271-1.201-5.703-2.91-7.285-5.137c-1.572-2.217-2.363-4.883-2.363-7.979c0-4.678,1.681-8.613,5.039-11.807
	c3.369-3.184,7.842-4.775,13.428-4.775c5.615,0,10.138,1.631,13.556,4.893c3.418,3.262,5.137,7.227,5.137,11.904
	c0,2.988-0.791,5.586-2.354,7.793c-1.563,2.207-3.937,3.906-7.13,5.107c3.955,1.289,6.953,3.359,9.015,6.23
	c2.069,2.861,3.096,6.289,3.096,10.264c0,5.498-1.943,10.117-5.83,13.857c-3.896,3.75-9.014,5.615-15.361,5.615
	c-6.338,0-11.454-1.875-15.352-5.635c-3.887-3.76-5.83-8.447-5.83-14.063c0-4.18,1.055-7.676,3.185-10.498
	C817.891,165.061,820.908,163.137,824.824,162.112z M820.703,178.43c0,2.256,0.527,4.434,1.602,6.533
	c1.064,2.109,2.656,3.74,4.756,4.893c2.082,1.146,4.422,1.741,6.798,1.729c3.778,0,6.895-1.211,9.346-3.633
	c2.461-2.432,3.69-5.518,3.69-9.258c0-3.799-1.27-6.943-3.799-9.434c-2.528-2.479-5.692-3.729-9.502-3.729
	c-3.711,0-6.787,1.229-9.229,3.691C821.924,171.672,820.703,174.749,820.703,178.43L820.703,178.43z M823.242,148.733
	c0,3.037,0.986,5.527,2.938,7.451c1.964,1.934,4.502,2.9,7.638,2.9c3.037,0,5.537-0.957,7.479-2.871
	c1.943-1.914,2.92-4.268,2.92-7.041c0-2.9-1.006-5.332-3.008-7.305c-2.002-1.973-4.502-2.959-7.479-2.959
	c-3.019,0-5.519,0.957-7.5,2.891C824.238,143.733,823.242,146.038,823.242,148.733L823.242,148.733z M792.441,286.819h-7.892
	v-50.313c-1.903,1.807-4.395,3.623-7.479,5.439c-3.086,1.807-5.859,3.174-8.312,4.072v-7.627c4.414-2.08,8.271-4.59,11.582-7.549
	c3.301-2.949,5.646-5.82,7.013-8.594h5.088V286.819L792.441,286.819z M824.814,251.946c-3.271-1.201-5.703-2.91-7.285-5.137
	c-1.572-2.217-2.363-4.883-2.363-7.979c0-4.678,1.68-8.613,5.039-11.807c3.369-3.184,7.842-4.775,13.428-4.775
	c5.615,0,10.137,1.631,13.555,4.893c3.418,3.262,5.138,7.227,5.138,11.904c0,2.988-0.791,5.586-2.354,7.793
	c-1.563,2.207-3.936,3.906-7.129,5.107c3.955,1.289,6.953,3.359,9.014,6.23c2.07,2.861,3.097,6.289,3.097,10.264
	c0,5.498-1.943,10.117-5.83,13.857c-3.896,3.75-9.014,5.615-15.361,5.615c-6.338,0-11.455-1.875-15.352-5.635
	c-3.888-3.76-5.83-8.447-5.83-14.063c0-4.18,1.055-7.676,3.184-10.498C817.881,254.895,820.898,252.971,824.814,251.946z
	 M820.693,268.264c0,2.256,0.526,4.434,1.602,6.533c1.064,2.109,2.656,3.74,4.756,4.893c2.082,1.146,4.421,1.741,6.797,1.729
	c3.779,0,6.896-1.211,9.347-3.633c2.461-2.432,3.69-5.518,3.69-9.258c0-3.799-1.27-6.943-3.799-9.434
	c-2.529-2.48-5.693-3.729-9.502-3.729c-3.711,0-6.787,1.229-9.229,3.691C821.914,261.506,820.693,264.583,820.693,268.264
	L820.693,268.264z M823.232,238.567c0,3.037,0.985,5.527,2.938,7.451c1.963,1.934,4.502,2.9,7.637,2.9
	c3.037,0,5.537-0.957,7.48-2.871s2.92-4.268,2.92-7.041c0-2.9-1.006-5.332-3.008-7.305c-2.002-1.973-4.502-2.959-7.48-2.959
	c-3.018,0-5.518,0.957-7.5,2.891C824.229,233.567,823.232,235.872,823.232,238.567L823.232,238.567z M762.744,359.69l7.9-1.056
	c0.907,4.474,2.45,7.695,4.629,9.668c2.178,1.974,4.834,2.959,7.959,2.959c3.711,0,6.854-1.278,9.414-3.856
	c2.559-2.568,3.838-5.763,3.838-9.562c0-3.623-1.191-6.621-3.556-8.975c-2.373-2.354-5.381-3.525-9.043-3.525
	c-1.483,0-3.34,0.293-5.565,0.879l0.879-6.934c0.527,0.059,0.947,0.088,1.27,0.088c3.359,0,6.388-0.879,9.082-2.637
	c2.687-1.748,4.033-4.453,4.033-8.115c0-2.891-0.977-5.293-2.938-7.188c-1.953-1.904-4.492-2.853-7.589-2.853
	c-3.065,0-5.625,0.957-7.676,2.892c-2.051,1.934-3.358,4.823-3.945,8.69l-7.899-1.406c0.967-5.293,3.164-9.395,6.582-12.305
	s7.676-4.365,12.764-4.365c3.506,0,6.738,0.752,9.697,2.256c2.949,1.505,5.215,3.564,6.776,6.162
	c1.563,2.607,2.345,5.371,2.345,8.291c0,2.783-0.742,5.313-2.236,7.588c-1.494,2.285-3.701,4.103-6.621,5.439
	c3.799,0.879,6.758,2.705,8.857,5.469c2.108,2.765,3.164,6.222,3.164,10.371c0,5.615-2.052,10.371-6.144,14.277
	c-4.102,3.906-9.276,5.858-15.526,5.858c-5.646,0-10.332-1.68-14.063-5.049C765.4,369.397,763.271,365.042,762.744,359.69
	L762.744,359.69z M854.16,369.075v7.588h-42.5c-0.068-1.904,0.244-3.73,0.918-5.479c1.084-2.899,2.813-5.752,5.195-8.555
	c2.383-2.813,5.83-6.055,10.332-9.746c6.991-5.731,11.709-10.264,14.17-13.613c2.45-3.35,3.682-6.514,3.682-9.502
	c0-3.125-1.113-5.771-3.35-7.92c-2.246-2.147-5.156-3.223-8.761-3.223c-3.799,0-6.836,1.143-9.12,3.428
	c-2.275,2.275-3.438,5.439-3.468,9.474l-8.114-0.841c0.557-6.045,2.646-10.663,6.278-13.838c3.623-3.174,8.486-4.756,14.601-4.756
	c6.172,0,11.055,1.709,14.657,5.127c3.595,3.429,5.392,7.666,5.392,12.726c0,2.578-0.527,5.106-1.572,7.588
	c-1.055,2.49-2.803,5.106-5.244,7.852c-2.44,2.754-6.504,6.523-12.178,11.318c-4.736,3.975-7.773,6.68-9.121,8.096
	s-2.461,2.842-3.34,4.277H854.16z M762.744,449.524l7.9-1.056c0.907,4.479,2.45,7.701,4.629,9.673
	c2.178,1.973,4.834,2.949,7.959,2.949c3.711,0,6.854-1.27,9.414-3.848c2.559-2.578,3.838-5.762,3.838-9.566
	c0-3.623-1.191-6.621-3.556-8.975c-2.373-2.354-5.381-3.525-9.043-3.525c-1.483,0-3.34,0.293-5.565,0.879l0.879-6.934
	c0.527,0.059,0.947,0.088,1.27,0.088c3.359,0,6.388-0.879,9.082-2.637c2.687-1.748,4.033-4.453,4.033-8.115
	c0-2.891-0.977-5.293-2.938-7.188c-1.953-1.904-4.492-2.853-7.589-2.853c-3.065,0-5.625,0.957-7.676,2.891
	c-2.051,1.935-3.358,4.824-3.945,8.691l-7.899-1.406c0.967-5.293,3.164-9.395,6.582-12.305s7.676-4.365,12.764-4.365
	c3.506,0,6.738,0.752,9.697,2.256c2.949,1.505,5.215,3.564,6.776,6.162c1.563,2.607,2.345,5.371,2.345,8.291
	c0,2.783-0.742,5.313-2.236,7.588c-1.494,2.285-3.701,4.103-6.621,5.439c3.799,0.879,6.758,2.705,8.857,5.469
	c2.108,2.765,3.164,6.222,3.164,10.371c0,5.621-2.052,10.367-6.144,14.273c-4.102,3.905-9.276,5.858-15.526,5.858
	c-5.646,0-10.332-1.68-14.063-5.039C765.4,459.234,763.271,454.881,762.744,449.524L762.744,449.524z M854.16,458.904v7.598h-42.5
	c-0.068-1.914,0.244-3.729,0.918-5.488c1.084-2.891,2.813-5.741,5.195-8.555c2.383-2.808,5.83-6.05,10.332-9.742
	c6.991-5.731,11.709-10.264,14.17-13.613c2.45-3.35,3.682-6.514,3.682-9.502c0-3.125-1.113-5.771-3.35-7.92
	c-2.246-2.147-5.156-3.223-8.761-3.223c-3.799,0-6.836,1.143-9.12,3.428c-2.275,2.275-3.438,5.439-3.468,9.474l-8.114-0.841
	c0.557-6.045,2.646-10.663,6.278-13.838c3.623-3.174,8.486-4.756,14.601-4.756c6.172,0,11.055,1.709,14.657,5.127
	c3.595,3.429,5.392,7.666,5.392,12.726c0,2.578-0.527,5.106-1.572,7.588c-1.055,2.49-2.803,5.106-5.244,7.852
	c-2.44,2.754-6.504,6.523-12.178,11.318c-4.736,3.974-7.773,6.685-9.121,8.091c-1.348,1.426-2.461,2.852-3.34,4.277H854.16
	L854.16,458.904z M813.857,541.463l7.588-0.703c0.645,3.574,1.875,6.172,3.69,7.773c1.808,1.602,4.131,2.401,6.974,2.401
	c2.422,0,4.551-0.547,6.377-1.659c1.826-1.113,3.33-2.599,4.502-4.453c1.172-1.855,2.147-4.355,2.938-7.521s1.183-6.367,1.183-9.647
	c0-0.353-0.021-0.879-0.039-1.582c-1.582,2.52-3.74,4.551-6.476,6.112c-2.734,1.563-5.692,2.345-8.887,2.345
	c-5.322,0-9.824-1.914-13.506-5.781c-3.691-3.867-5.527-8.945-5.527-15.273c0-6.504,1.925-11.758,5.771-15.741
	c3.838-3.966,8.662-5.957,14.453-5.957c4.18,0,7.998,1.112,11.465,3.379c3.467,2.246,6.104,5.448,7.9,9.629
	c1.797,4.16,2.694,10.194,2.694,18.086c0,8.223-0.889,14.766-2.676,19.629s-4.434,8.574-7.959,11.113
	c-3.525,2.559-7.656,3.828-12.393,3.828c-5.029,0-9.142-1.406-12.324-4.199C816.416,550.447,814.502,546.521,813.857,541.463
	L813.857,541.463z M846.191,513.084c0-4.531-1.211-8.125-3.623-10.781c-2.412-2.676-5.313-4.004-8.711-4.004
	c-3.506,0-6.563,1.445-9.16,4.297c-2.607,2.871-3.906,6.582-3.906,11.152c0,4.102,1.23,7.422,3.701,9.979
	c2.471,2.559,5.527,3.828,9.15,3.828c3.651,0,6.659-1.27,9.014-3.828C845.01,521.17,846.191,517.615,846.191,513.084z
	 M854.17,638.592v7.578h-42.5c-0.068-1.895,0.244-3.729,0.918-5.469c1.084-2.91,2.813-5.762,5.195-8.555
	c2.383-2.813,5.83-6.056,10.332-9.746c6.992-5.742,11.709-10.273,14.17-13.613c2.451-3.359,3.682-6.523,3.682-9.512
	c0-3.125-1.112-5.763-3.35-7.91c-2.246-2.148-5.156-3.224-8.76-3.224c-3.8,0-6.836,1.134-9.121,3.419
	c-2.275,2.284-3.438,5.448-3.467,9.473l-8.115-0.84c0.557-6.035,2.646-10.664,6.279-13.828c3.622-3.185,8.485-4.767,14.6-4.767
	c6.172,0,11.055,1.72,14.658,5.138c3.594,3.418,5.391,7.656,5.391,12.715c0,2.578-0.527,5.117-1.572,7.598
	c-1.055,2.48-2.803,5.099-5.244,7.853c-2.44,2.754-6.504,6.522-12.178,11.309c-4.736,3.984-7.772,6.681-9.121,8.105
	c-1.348,1.405-2.461,2.832-3.34,4.276H854.17L854.17,638.592z"/>
</svg>
