<?xml version="1.0" encoding="utf-8"?>
<!-- Generator: Adobe Illustrator 16.0.3, SVG Export Plug-In . SVG Version: 6.00 Build 0)  -->
<!DOCTYPE svg PUBLIC "-//W3C//DTD SVG 1.1//EN" "http://www.w3.org/Graphics/SVG/1.1/DTD/svg11.dtd">
<svg version="1.1" id="Layer_1" xmlns="http://www.w3.org/2000/svg" xmlns:xlink="http://www.w3.org/1999/xlink" x="0px" y="0px"
	 width="900px" height="900px" viewBox="0 0 900 900" enable-background="new 0 0 900 900" xml:space="preserve">
<path d="M86.558,153.923H72.72V65.74c-3.34,3.184-7.705,6.357-13.115,9.531c-5.4,3.184-10.264,5.566-14.561,7.158V69.05
	c7.734-3.643,14.502-8.047,20.293-13.223c5.791-5.176,9.893-10.205,12.305-15.068h8.916V153.923L86.558,153.923z M121.997,98.337
	c0-13.32,1.377-24.053,4.111-32.178c2.744-8.115,6.816-14.385,12.227-18.789c5.41-4.414,12.207-6.611,20.41-6.611
	c6.045,0,11.357,1.211,15.918,3.652c4.561,2.432,8.33,5.938,11.299,10.527c2.969,4.589,5.303,10.176,7.002,16.758
	c1.689,6.592,2.529,15.469,2.529,26.641c0,13.223-1.357,23.896-4.072,32.021s-6.777,14.404-12.188,18.838
	c-5.4,4.434-12.236,6.65-20.488,6.65c-10.859,0-19.395-3.896-25.596-11.689C125.718,134.783,121.997,119.509,121.997,98.337
	L121.997,98.337z M136.226,98.337c0,18.506,2.158,30.82,6.494,36.943c4.326,6.123,9.668,9.189,16.025,9.189
	s11.699-3.076,16.035-9.229c4.326-6.152,6.494-18.447,6.494-36.904c0-18.555-2.168-30.879-6.494-36.982
	c-4.336-6.094-9.727-9.141-16.182-9.141c-6.357,0-11.436,2.686-15.225,8.066C138.608,67.156,136.226,79.841,136.226,98.337
	L136.226,98.337z M253.931,153.923v-26.982h-48.896v-12.686l51.426-73.037h11.309v73.037h15.215v12.686H267.77v26.982H253.931
	L253.931,153.923z M253.931,114.255v-50.82l-35.293,50.82H253.931z M123.599,652.834v-74.102h32.861
	c6.602,0,11.621,0.664,15.059,1.991c3.438,1.328,6.182,3.691,8.242,7.052c2.051,3.379,3.076,7.09,3.076,11.172
	c0,5.254-1.699,9.688-5.098,13.301c-3.408,3.594-8.662,5.898-15.771,6.875c2.588,1.23,4.561,2.461,5.908,3.691
	c2.871,2.616,5.576,5.897,8.145,9.844l12.881,20.176h-12.324l-9.814-15.43c-2.861-4.435-5.215-7.853-7.07-10.195
	c-1.855-2.363-3.516-4.023-4.98-4.961c-1.464-0.938-2.959-1.602-4.473-1.973c-1.113-0.234-2.93-0.353-5.459-0.353h-11.377v32.91
	L123.599,652.834L123.599,652.834z M133.403,611.428h21.084c4.482,0,7.979-0.449,10.508-1.387c2.529-0.918,4.453-2.402,5.762-4.453
	c1.318-2.031,1.973-4.238,1.973-6.641c0-3.496-1.27-6.388-3.818-8.633c-2.539-2.267-6.563-3.398-12.051-3.398h-23.457
	L133.403,611.428L133.403,611.428z M232.222,652.834v-7.891c-4.18,6.073-9.854,9.102-17.031,9.102c-3.174,0-6.123-0.604-8.877-1.816
	c-2.744-1.211-4.785-2.733-6.113-4.59c-1.328-1.836-2.266-4.082-2.803-6.737c-0.371-1.777-0.557-4.609-0.557-8.496v-33.263h9.102
	v29.785c0,4.746,0.186,7.949,0.557,9.59c0.566,2.402,1.777,4.277,3.633,5.646c1.856,1.368,4.15,2.051,6.875,2.051
	c2.734,0,5.293-0.703,7.686-2.108c2.393-1.388,4.082-3.302,5.078-5.703c0.996-2.402,1.494-5.898,1.494-10.488v-28.77h9.092v53.69
	L232.222,652.834L232.222,652.834z M274.478,644.689l1.309,8.047c-2.559,0.526-4.844,0.801-6.875,0.801
	c-3.301,0-5.859-0.527-7.676-1.563c-1.826-1.055-3.105-2.422-3.848-4.12c-0.743-1.699-1.104-5.294-1.104-10.742v-30.879h-6.68
	v-7.091h6.68v-13.28l9.043-5.47v18.75h9.15v7.091h-9.15v31.387c0,2.598,0.156,4.258,0.479,5c0.323,0.742,0.84,1.328,1.572,1.777
	c0.723,0.43,1.758,0.645,3.105,0.645C271.489,645.041,272.827,644.924,274.478,644.689L274.478,644.689z M283.374,652.834v-74.102
	h9.092v26.582c4.248-4.923,9.609-7.384,16.074-7.384c3.975,0,7.432,0.781,10.361,2.363c2.939,1.563,5.029,3.729,6.299,6.484
	c1.26,2.772,1.895,6.776,1.895,12.03v34.023h-9.102v-34.023c0-4.551-0.986-7.852-2.959-9.922c-1.963-2.09-4.756-3.125-8.359-3.125
	c-2.695,0-5.234,0.703-7.607,2.109c-2.373,1.387-4.072,3.281-5.078,5.684c-1.016,2.383-1.523,5.703-1.523,9.902v29.375h-9.093
	V652.834z M377.69,635.549l9.395,1.152c-1.484,5.488-4.229,9.766-8.232,12.793c-4.014,3.027-9.141,4.551-15.371,4.551
	c-7.852,0-14.072-2.422-18.672-7.266c-4.6-4.824-6.904-11.603-6.904-20.332c0-9.023,2.324-16.035,6.973-21.035
	c4.658-4.98,10.684-7.48,18.096-7.48c7.178,0,13.047,2.441,17.598,7.345c4.541,4.883,6.816,11.758,6.816,20.604
	c0,0.547-0.01,1.349-0.049,2.441h-40.03c0.332,5.897,2.002,10.41,5,13.535c2.998,3.145,6.738,4.707,11.221,4.707
	c3.34,0,6.182-0.88,8.545-2.638C374.438,642.189,376.304,639.377,377.69,635.549L377.69,635.549z M347.817,620.842h29.971
	c-0.41-4.531-1.553-7.91-3.438-10.176c-2.9-3.496-6.66-5.254-11.27-5.254c-4.18,0-7.695,1.406-10.537,4.199
	C349.692,612.404,348.12,616.154,347.817,620.842L347.817,620.842z M398.413,652.834v-53.691h8.193v8.146
	c2.09-3.809,4.014-6.309,5.78-7.539c1.777-1.211,3.722-1.815,5.84-1.815c3.066,0,6.183,0.977,9.355,2.93l-3.135,8.457
	c-2.228-1.328-4.453-1.974-6.67-1.974c-1.992,0-3.779,0.586-5.361,1.798c-1.582,1.19-2.715,2.852-3.389,4.961
	c-1.006,3.241-1.515,6.776-1.515,10.625v28.104L398.413,652.834L398.413,652.834z"/>
<path d="M435.161,652.834v-46.602h-8.037v-7.091h8.037v-5.702c0-3.613,0.322-6.289,0.967-8.048c0.869-2.344,2.412-4.258,4.619-5.723
	s5.303-2.207,9.277-2.207c2.559,0,5.391,0.313,8.495,0.918l-1.366,7.93c-1.896-0.331-3.672-0.508-5.361-0.508
	c-2.764,0-4.717,0.586-5.859,1.777c-1.151,1.172-1.719,3.379-1.719,6.621v4.94h10.459v7.09h-10.459v46.603L435.161,652.834
	L435.161,652.834z M458.364,625.998c0-9.941,2.764-17.305,8.291-22.09c4.608-3.984,10.244-5.978,16.885-5.978
	c7.373,0,13.408,2.422,18.086,7.267c4.688,4.823,7.031,11.504,7.031,20.039c0,6.895-1.035,12.344-3.105,16.289
	c-2.08,3.965-5.088,7.051-9.053,9.237c-3.955,2.188-8.281,3.281-12.959,3.281c-7.521,0-13.594-2.402-18.223-7.227
	C460.679,641.994,458.364,635.061,458.364,625.998L458.364,625.998z M467.71,625.998c0,6.875,1.504,12.012,4.502,15.43
	s6.777,5.138,11.328,5.138c4.512,0,8.271-1.72,11.271-5.156c2.998-3.438,4.491-8.672,4.491-15.724
	c0-6.641-1.504-11.659-4.521-15.077c-3.019-3.438-6.769-5.138-11.24-5.138c-4.551,0-8.33,1.699-11.328,5.099
	C469.214,613.986,467.71,619.123,467.71,625.998L467.71,625.998z M519.214,652.834v-53.691h8.193v8.146
	c2.09-3.81,4.014-6.31,5.781-7.539c1.776-1.211,3.721-1.816,5.84-1.816c3.065,0,6.182,0.978,9.354,2.931l-3.135,8.457
	c-2.227-1.328-4.453-1.974-6.67-1.974c-1.992,0-3.779,0.586-5.361,1.797c-1.582,1.191-2.715,2.853-3.389,4.962
	c-1.006,3.241-1.514,6.776-1.514,10.625v28.104L519.214,652.834L519.214,652.834z M588.618,652.834v-6.777
	c-3.408,5.332-8.408,7.988-15.01,7.988c-4.287,0-8.214-1.191-11.808-3.535c-3.584-2.362-6.367-5.664-8.34-9.883
	c-1.973-4.238-2.959-9.102-2.959-14.59c0-5.353,0.898-10.215,2.686-14.57c1.777-4.375,4.464-7.715,8.037-10.039
	c3.564-2.324,7.56-3.496,11.974-3.496c3.231,0,6.123,0.685,8.643,2.052c2.529,1.366,4.59,3.145,6.172,5.332v-26.582h9.043v74.102
	L588.618,652.834L588.618,652.834z M559.858,626.037c0,6.875,1.444,12.012,4.346,15.41c2.9,3.418,6.318,5.117,10.264,5.117
	c3.976,0,7.354-1.621,10.127-4.884c2.783-3.241,4.17-8.203,4.17-14.883c0-7.344-1.416-12.733-4.237-16.172
	c-2.832-3.438-6.318-5.156-10.47-5.156c-4.043,0-7.422,1.642-10.137,4.961C561.216,613.732,559.858,618.928,559.858,626.037z
	 M611.411,589.201v-10.469h9.102v10.469H611.411z M611.411,652.834v-53.691h9.102v53.691H611.411z M669.536,652.834v-7.891
	c-4.18,6.073-9.854,9.102-17.031,9.102c-3.174,0-6.123-0.604-8.877-1.816c-2.744-1.211-4.785-2.733-6.113-4.59
	c-1.327-1.836-2.266-4.082-2.803-6.737c-0.371-1.777-0.557-4.609-0.557-8.496v-33.263h9.102v29.785c0,4.746,0.187,7.949,0.558,9.59
	c0.565,2.402,1.776,4.277,3.633,5.646c1.855,1.368,4.149,2.051,6.875,2.051c2.733,0,5.293-0.703,7.686-2.108
	c2.394-1.388,4.082-3.302,5.078-5.703c0.996-2.402,1.494-5.898,1.494-10.488v-28.77h9.092v53.69L669.536,652.834L669.536,652.834z
	 M691.929,652.834v-53.691h8.136v7.539c1.688-2.637,3.926-4.746,6.719-6.348c2.803-1.602,5.986-2.402,9.561-2.402
	c3.976,0,7.236,0.841,9.775,2.48c2.549,1.66,4.336,3.965,5.381,6.934c4.248-6.27,9.775-9.414,16.582-9.414
	c5.322,0,9.414,1.484,12.285,4.435c2.861,2.949,4.297,7.479,4.297,13.612v36.855h-9.053v-33.828c0-3.633-0.293-6.25-0.879-7.852
	c-0.597-1.603-1.66-2.892-3.214-3.867c-1.553-0.977-3.368-1.465-5.459-1.465c-3.77,0-6.903,1.25-9.403,3.77
	c-2.49,2.5-3.74,6.523-3.74,12.051v31.191h-9.092v-34.883c0-4.043-0.742-7.07-2.228-9.103c-1.483-2.012-3.905-3.026-7.274-3.026
	c-2.568,0-4.933,0.684-7.109,2.031c-2.168,1.348-3.74,3.301-4.727,5.897c-0.978,2.598-1.465,6.348-1.465,11.23v27.852
	L691.929,652.834L691.929,652.834z M57.378,859.24v-94.668h20.068v7.52H66.479v79.609h10.967v7.539H57.378L57.378,859.24z
	 M131.226,829.924v8.75H82.251c-0.075-2.159,0.287-4.312,1.064-6.328c1.24-3.34,3.242-6.621,5.986-9.844
	c2.744-3.242,6.709-6.992,11.904-11.229c8.047-6.603,13.496-11.837,16.328-15.685c2.822-3.867,4.238-7.52,4.238-10.957
	c0-3.594-1.289-6.641-3.867-9.121c-2.578-2.479-5.938-3.711-10.078-3.711c-4.385,0-7.891,1.31-10.518,3.945
	c-2.627,2.617-3.955,6.27-3.994,10.918l-9.346-0.957c0.635-6.973,3.047-12.305,7.227-15.957c4.18-3.652,9.785-5.488,16.836-5.488
	c7.109,0,12.734,1.974,16.875,5.918c4.15,3.945,6.221,8.828,6.221,14.669c0,2.948-0.605,5.879-1.816,8.729
	c-1.221,2.871-3.232,5.879-6.045,9.063c-2.813,3.163-7.49,7.5-14.023,13.026c-5.459,4.59-8.965,7.695-10.518,9.336
	c-1.553,1.621-2.832,3.281-3.838,4.922H131.226L131.226,829.924z M188.188,782.717l-9.043,0.703
	c-0.811-3.574-1.953-6.172-3.438-7.772c-2.461-2.599-5.498-3.906-9.102-3.906c-2.9,0-5.439,0.819-7.627,2.44
	c-2.871,2.091-5.127,5.138-6.777,9.142c-1.65,4.004-2.51,9.727-2.578,17.129c2.188-3.34,4.873-5.801,8.037-7.422
	s6.484-2.422,9.961-2.422c6.064,0,11.221,2.227,15.488,6.698c4.258,4.453,6.396,10.234,6.396,17.306
	c0,4.647-1.006,8.965-3.008,12.969c-2.012,3.984-4.766,7.051-8.262,9.16c-3.506,2.129-7.49,3.184-11.934,3.184
	c-7.578,0-13.77-2.772-18.545-8.358c-4.795-5.566-7.178-14.767-7.178-27.578c0-14.316,2.637-24.728,7.93-31.23
	c4.619-5.664,10.83-8.496,18.652-8.496c5.83,0,10.605,1.642,14.326,4.902C185.22,772.443,187.446,776.955,188.188,782.717
	L188.188,782.717z M151.04,814.65c-0.008,3.111,0.672,6.186,1.992,9.004c1.338,2.871,3.193,5.059,5.586,6.543
	c2.393,1.504,4.902,2.246,7.529,2.246c3.848,0,7.148-1.543,9.912-4.648c2.764-3.086,4.141-7.305,4.141-12.637
	c0-5.117-1.357-9.142-4.092-12.09c-2.725-2.949-6.162-4.435-10.313-4.435c-4.111,0-7.598,1.484-10.459,4.435
	C152.475,806.018,151.04,809.885,151.04,814.65L151.04,814.65z M198.599,819.104l9.102-1.211c1.045,5.156,2.822,8.867,5.332,11.152
	c2.51,2.266,5.566,3.398,9.17,3.398c4.277,0,7.891-1.466,10.84-4.435s4.424-6.641,4.424-11.016c0-4.181-1.357-7.638-4.092-10.353
	c-2.725-2.715-6.201-4.063-10.41-4.063c-1.719,0-3.857,0.332-6.416,1.016l1.006-7.987c0.486,0.054,0.975,0.087,1.465,0.098
	c3.877,0,7.363-1.016,10.469-3.027c3.096-2.03,4.648-5.137,4.648-9.354c0-3.34-1.133-6.094-3.389-8.281
	c-2.256-2.207-5.176-3.301-8.74-3.301c-3.545,0-6.494,1.113-8.848,3.34c-2.363,2.227-3.877,5.566-4.551,10.02l-9.102-1.62
	c1.113-6.095,3.643-10.82,7.588-14.181c3.936-3.358,8.838-5.039,14.707-5.039c4.043,0,7.764,0.879,11.172,2.617
	c3.398,1.738,6.006,4.103,7.803,7.09c1.807,3.009,2.705,6.191,2.705,9.552c0,3.202-0.859,6.112-2.578,8.75
	c-1.719,2.637-4.258,4.727-7.627,6.27c4.375,1.017,7.783,3.105,10.205,6.289c2.432,3.185,3.643,7.168,3.643,11.953
	c0,6.465-2.363,11.953-7.08,16.465c-4.717,4.492-10.684,6.738-17.891,6.738c-6.504,0-11.904-1.935-16.201-5.82
	C201.655,830.295,199.204,825.275,198.599,819.104L198.599,819.104z M261.235,838.674v-10.371h10.361v10.371H261.235z
	 M319.155,838.674h-9.102v-57.988c-2.188,2.091-5.059,4.181-8.613,6.271s-6.748,3.672-9.58,4.707v-8.789
	c5.088-2.402,9.541-5.293,13.35-8.691c3.799-3.418,6.504-6.719,8.086-9.922h5.859V838.674L319.155,838.674z M369.038,838.674h-9.102
	v-57.988c-2.188,2.091-5.059,4.181-8.613,6.271c-3.554,2.09-6.748,3.672-9.58,4.707v-8.789c5.088-2.402,9.541-5.293,13.35-8.691
	c3.799-3.418,6.504-6.719,8.086-9.922h5.859V838.674L369.038,838.674z M410.083,859.24h-20.068v-7.539h10.967v-79.609h-10.967v-7.52
	h20.068V859.24z M316.44,440.349V255.457h78.574c19.755,0,34.111,1.67,43.066,4.99c8.955,3.32,16.123,9.229,21.504,17.715
	c5.381,8.496,8.076,18.203,8.076,29.131c0,13.877-4.082,25.332-12.236,34.365c-8.154,9.043-20.352,14.735-36.572,17.09
	c8.066,4.717,14.728,9.883,19.99,15.518c5.254,5.636,12.334,15.636,21.25,30.011l22.568,36.073h-44.639l-26.992-40.233
	c-9.59-14.375-16.144-23.438-19.678-27.179c-3.525-3.739-7.266-6.299-11.221-7.694c-3.955-1.387-10.215-2.08-18.789-2.08h-7.568
	v77.188H316.44V440.349z M353.774,333.65h27.617c17.91,0,29.092-0.752,33.544-2.267c4.464-1.514,7.949-4.121,10.47-7.821
	c2.52-3.691,3.789-8.32,3.789-13.867c0-6.221-1.66-11.25-4.98-15.078c-3.33-3.818-8.018-6.24-14.063-7.246
	c-3.027-0.42-12.109-0.635-27.247-0.635h-29.131V333.65L353.774,333.65z M487.075,306.414h19.678v-10.088
	c0-11.27,1.191-19.678,3.594-25.225c2.394-5.547,6.808-10.068,13.242-13.555c6.426-3.496,14.562-5.234,24.404-5.234
	c10.05-0.005,20.042,1.526,29.629,4.541l-4.785,24.717c-5.635-1.348-11.055-2.021-16.27-2.021c-5.127,0-8.81,1.201-11.035,3.594
	c-2.228,2.402-3.34,7.002-3.34,13.809v9.463h26.483v27.871h-26.483V440.35h-35.439V334.285h-19.678V306.414L487.075,306.414z
	 M854.165,99.539v7.588h-42.5c-0.068-1.904,0.244-3.73,0.918-5.479c1.084-2.9,2.813-5.752,5.195-8.555
	c2.383-2.813,5.83-6.055,10.332-9.746c6.991-5.732,11.709-10.264,14.17-13.613c2.45-3.35,3.682-6.514,3.682-9.502
	c0-3.125-1.113-5.771-3.35-7.92c-2.246-2.148-5.156-3.223-8.761-3.223c-3.799,0-6.836,1.143-9.12,3.428
	c-2.275,2.275-3.438,5.439-3.468,9.473l-8.114-0.84c0.557-6.045,2.646-10.664,6.278-13.838c3.623-3.174,8.486-4.756,14.601-4.756
	c6.172,0,11.055,1.709,14.657,5.127c3.595,3.428,5.392,7.666,5.392,12.725c0,2.578-0.527,5.107-1.572,7.588
	c-1.055,2.49-2.803,5.107-5.244,7.852c-2.44,2.754-6.504,6.523-12.178,11.318c-4.736,3.975-7.773,6.68-9.121,8.096
	c-1.348,1.416-2.461,2.842-3.34,4.277H854.165L854.165,99.539z M824.819,162.097c-3.271-1.201-5.703-2.91-7.285-5.137
	c-1.572-2.217-2.363-4.883-2.363-7.979c0-4.678,1.68-8.613,5.039-11.807c3.369-3.184,7.842-4.775,13.428-4.775
	c5.615,0,10.138,1.631,13.556,4.893s5.137,7.227,5.137,11.904c0,2.988-0.791,5.586-2.354,7.793
	c-1.563,2.207-3.936,3.906-7.129,5.107c3.955,1.289,6.953,3.359,9.015,6.23c2.069,2.861,3.096,6.289,3.096,10.264
	c0,5.498-1.943,10.117-5.83,13.857c-3.896,3.75-9.014,5.615-15.361,5.615c-6.338,0-11.455-1.875-15.352-5.635
	c-3.887-3.76-5.83-8.447-5.83-14.063c0-4.18,1.055-7.676,3.184-10.498C817.886,165.046,820.903,163.123,824.819,162.097z
	 M820.698,178.416c0,2.256,0.526,4.434,1.602,6.533c1.064,2.109,2.656,3.74,4.756,4.893c2.082,1.146,4.422,1.741,6.797,1.729
	c3.779,0,6.896-1.211,9.347-3.633c2.461-2.432,3.69-5.518,3.69-9.258c0-3.799-1.27-6.943-3.799-9.434
	c-2.529-2.48-5.692-3.73-9.502-3.73c-3.711,0-6.787,1.23-9.229,3.691C821.919,171.658,820.698,174.734,820.698,178.416
	L820.698,178.416z M823.237,148.718c0,3.037,0.985,5.527,2.938,7.451c1.963,1.934,4.502,2.9,7.638,2.9
	c3.036,0,5.536-0.957,7.479-2.871c1.943-1.914,2.92-4.268,2.92-7.041c0-2.9-1.006-5.332-3.008-7.305s-4.502-2.959-7.48-2.959
	c-3.018,0-5.518,0.957-7.5,2.891C824.233,143.718,823.237,146.023,823.237,148.718L823.237,148.718z M792.438,286.804h-7.892
	v-50.313c-1.904,1.807-4.395,3.623-7.479,5.439c-3.086,1.807-5.859,3.174-8.312,4.072v-7.627c4.414-2.08,8.271-4.59,11.582-7.549
	c3.301-2.949,5.646-5.82,7.012-8.594h5.089V286.804L792.438,286.804z M824.81,251.931c-3.271-1.201-5.702-2.91-7.284-5.137
	c-1.572-2.217-2.363-4.883-2.363-7.979c0-4.678,1.68-8.613,5.039-11.807c3.369-3.184,7.842-4.775,13.428-4.775
	c5.615,0,10.137,1.631,13.555,4.893c3.418,3.262,5.138,7.227,5.138,11.904c0,2.988-0.791,5.586-2.354,7.793
	c-1.563,2.207-3.936,3.906-7.129,5.107c3.955,1.289,6.953,3.359,9.014,6.23c2.07,2.861,3.097,6.289,3.097,10.264
	c0,5.498-1.943,10.117-5.83,13.857c-3.896,3.75-9.015,5.615-15.361,5.615c-6.338,0-11.455-1.875-15.352-5.635
	c-3.888-3.76-5.83-8.447-5.83-14.063c0-4.18,1.055-7.676,3.184-10.498C817.876,254.88,820.894,252.957,824.81,251.931z
	 M820.688,268.25c0,2.256,0.527,4.434,1.603,6.533c1.063,2.109,2.656,3.74,4.756,4.893c2.082,1.146,4.421,1.741,6.797,1.729
	c3.779,0,6.896-1.211,9.347-3.633c2.461-2.432,3.69-5.518,3.69-9.258c0-3.799-1.27-6.943-3.799-9.434
	c-2.529-2.48-5.693-3.73-9.502-3.73c-3.711,0-6.787,1.23-9.229,3.691C821.909,261.492,820.688,264.568,820.688,268.25
	L820.688,268.25z M823.228,238.552c0,3.037,0.986,5.527,2.939,7.451c1.963,1.934,4.502,2.9,7.637,2.9
	c3.037,0,5.537-0.957,7.48-2.871c1.942-1.914,2.92-4.268,2.92-7.041c0-2.9-1.006-5.332-3.008-7.305s-4.502-2.959-7.48-2.959
	c-3.018,0-5.518,0.957-7.5,2.891C824.224,233.552,823.229,235.857,823.228,238.552L823.228,238.552z M762.739,359.675l7.899-1.055
	c0.908,4.473,2.451,7.695,4.629,9.668c2.179,1.973,4.834,2.959,7.959,2.959c3.711,0,6.855-1.279,9.414-3.857
	c2.56-2.567,3.838-5.762,3.838-9.561c0-3.623-1.19-6.621-3.555-8.976c-2.373-2.354-5.381-3.524-9.043-3.524
	c-1.484,0-3.34,0.293-5.565,0.879l0.879-6.934c0.526,0.059,0.946,0.088,1.27,0.088c3.359,0,6.388-0.879,9.082-2.638
	c2.687-1.748,4.033-4.452,4.033-8.114c0-2.892-0.978-5.293-2.939-7.188c-1.952-1.904-4.491-2.852-7.588-2.852
	c-3.065,0-5.625,0.957-7.676,2.891c-2.051,1.935-3.359,4.824-3.945,8.691l-7.899-1.406c0.967-5.293,3.164-9.395,6.582-12.305
	s7.676-4.365,12.764-4.365c3.506,0,6.738,0.752,9.697,2.256c2.948,1.504,5.215,3.564,6.776,6.162
	c1.563,2.607,2.345,5.371,2.345,8.291c0,2.783-0.742,5.313-2.236,7.588c-1.494,2.285-3.701,4.102-6.621,5.439
	c3.799,0.879,6.758,2.705,8.857,5.469c2.108,2.764,3.164,6.221,3.164,10.371c0,5.615-2.052,10.371-6.144,14.276
	c-4.102,3.906-9.277,5.859-15.527,5.859c-5.645,0-10.331-1.68-14.063-5.049C765.396,369.382,763.267,365.027,762.739,359.675
	L762.739,359.675z M854.155,369.06v7.589h-42.5c-0.068-1.904,0.244-3.73,0.918-5.479c1.084-2.9,2.813-5.752,5.194-8.555
	c2.384-2.813,5.83-6.056,10.332-9.746c6.992-5.732,11.709-10.265,14.17-13.613c2.451-3.35,3.683-6.514,3.683-9.502
	c0-3.125-1.113-5.771-3.351-7.92c-2.245-2.148-5.155-3.223-8.76-3.223c-3.799,0-6.836,1.143-9.121,3.428
	c-2.274,2.274-3.438,5.438-3.467,9.473l-8.115-0.84c0.558-6.045,2.646-10.664,6.279-13.838c3.623-3.174,8.486-4.756,14.6-4.756
	c6.173,0,11.056,1.709,14.658,5.127c3.594,3.428,5.392,7.666,5.392,12.725c0,2.578-0.527,5.107-1.572,7.588
	c-1.055,2.49-2.803,5.107-5.244,7.853c-2.441,2.754-6.504,6.522-12.178,11.317c-4.736,3.976-7.773,6.681-9.121,8.097
	s-2.461,2.842-3.34,4.276H854.155L854.155,369.06z M762.739,449.509l7.899-1.055c0.908,4.477,2.451,7.7,4.629,9.672
	c2.179,1.972,4.834,2.949,7.959,2.949c3.711,0,6.855-1.271,9.414-3.849c2.56-2.577,3.838-5.766,3.838-9.564
	c0-3.623-1.19-6.621-3.555-8.975c-2.373-2.354-5.381-3.525-9.043-3.525c-1.484,0-3.34,0.293-5.565,0.879l0.879-6.934
	c0.526,0.059,0.946,0.088,1.27,0.088c3.359,0,6.388-0.879,9.082-2.638c2.687-1.747,4.033-4.452,4.033-8.114
	c0-2.892-0.978-5.293-2.939-7.188c-1.952-1.903-4.491-2.852-7.588-2.852c-3.065,0-5.625,0.957-7.676,2.891
	c-2.051,1.935-3.359,4.824-3.945,8.691l-7.899-1.406c0.967-5.293,3.164-9.396,6.582-12.305c3.418-2.91,7.676-4.365,12.764-4.365
	c3.506,0,6.738,0.752,9.697,2.256c2.948,1.504,5.215,3.564,6.776,6.162c1.563,2.606,2.345,5.371,2.345,8.291
	c0,2.783-0.742,5.313-2.236,7.588c-1.494,2.285-3.701,4.103-6.621,5.439c3.799,0.879,6.758,2.704,8.857,5.469
	c2.108,2.764,3.164,6.221,3.164,10.371c0,5.62-2.052,10.366-6.144,14.271c-4.102,3.906-9.277,5.859-15.527,5.859
	c-5.645,0-10.331-1.68-14.063-5.039S763.267,454.865,762.739,449.509L762.739,449.509z M854.155,458.889v7.599h-42.5
	c-0.068-1.914,0.244-3.73,0.918-5.488c1.084-2.891,2.813-5.742,5.194-8.555c2.384-2.808,5.83-6.05,10.332-9.741
	c6.992-5.732,11.709-10.264,14.17-13.613c2.451-3.35,3.683-6.514,3.683-9.502c0-3.125-1.113-5.771-3.351-7.92
	c-2.245-2.148-5.155-3.223-8.76-3.223c-3.799,0-6.836,1.143-9.121,3.428c-2.274,2.275-3.438,5.438-3.467,9.473l-8.115-0.84
	c0.558-6.045,2.646-10.664,6.279-13.838c3.623-3.174,8.486-4.756,14.6-4.756c6.173,0,11.056,1.709,14.658,5.127
	c3.594,3.428,5.392,7.666,5.392,12.725c0,2.578-0.527,5.107-1.572,7.588c-1.055,2.49-2.803,5.107-5.244,7.853
	c-2.441,2.754-6.504,6.522-12.178,11.317c-4.736,3.976-7.773,6.685-9.121,8.091c-1.349,1.426-2.461,2.852-3.34,4.276H854.155
	L854.155,458.889z M792.437,556.33h-7.891v-50.313c-1.904,1.798-4.395,3.613-7.479,5.431c-3.085,1.816-5.859,3.184-8.312,4.082
	v-7.638c4.414-2.069,8.271-4.59,11.582-7.539c3.301-2.948,5.646-5.819,7.012-8.594h5.089L792.437,556.33L792.437,556.33z
	 M812.661,524.611c0-7.599,0.781-13.73,2.344-18.359c1.563-4.629,3.887-8.203,6.973-10.723c3.087-2.521,6.974-3.771,11.65-3.771
	c3.447,0,6.475,0.685,9.082,2.07c2.598,1.387,4.746,3.397,6.445,6.016c1.698,2.618,3.026,5.802,3.994,9.57
	c0.967,3.75,1.444,8.828,1.444,15.195c0,7.539-0.771,13.633-2.324,18.262c-1.553,4.648-3.866,8.223-6.952,10.762
	c-3.086,2.521-6.982,3.789-11.689,3.789c-6.201,0-11.074-2.227-14.609-6.66C814.78,545.412,812.661,536.682,812.661,524.611
	L812.661,524.611z M820.776,524.611c0,10.547,1.229,17.578,3.7,21.073c2.472,3.496,5.527,5.234,9.15,5.234s6.67-1.738,9.15-5.254
	c2.471-3.516,3.7-10.527,3.7-21.055c0-10.586-1.229-17.617-3.7-21.095c-2.48-3.496-5.558-5.233-9.238-5.233
	c-3.623,0-6.523,1.543-8.682,4.608C822.134,506.818,820.776,514.045,820.776,524.611L820.776,524.611z M854.165,638.576v7.578h-42.5
	c-0.068-1.896,0.244-3.73,0.918-5.469c1.084-2.91,2.813-5.763,5.195-8.556c2.383-2.813,5.83-6.055,10.332-9.746
	c6.991-5.741,11.709-10.272,14.17-13.612c2.45-3.359,3.682-6.523,3.682-9.513c0-3.125-1.113-5.762-3.35-7.909
	c-2.246-2.148-5.156-3.224-8.761-3.224c-3.799,0-6.836,1.133-9.121,3.418c-2.274,2.285-3.438,5.449-3.467,9.474l-8.114-0.841
	c0.557-6.034,2.646-10.664,6.278-13.827c3.623-3.185,8.486-4.767,14.601-4.767c6.172,0,11.055,1.719,14.657,5.137
	c3.595,3.419,5.392,7.656,5.392,12.716c0,2.578-0.527,5.116-1.572,7.598c-1.055,2.48-2.803,5.098-5.244,7.852
	c-2.44,2.754-6.504,6.523-12.178,11.31c-4.736,3.983-7.773,6.68-9.121,8.104c-1.348,1.406-2.461,2.832-3.34,4.277H854.165
	L854.165,638.576z"/>
</svg>
