<?xml version="1.0" encoding="utf-8"?>
<!-- Generator: Adobe Illustrator 16.0.3, SVG Export Plug-In . SVG Version: 6.00 Build 0)  -->
<!DOCTYPE svg PUBLIC "-//W3C//DTD SVG 1.1//EN" "http://www.w3.org/Graphics/SVG/1.1/DTD/svg11.dtd">
<svg version="1.1" id="Layer_1" xmlns="http://www.w3.org/2000/svg" xmlns:xlink="http://www.w3.org/1999/xlink" x="0px" y="0px"
	 width="900px" height="900px" viewBox="0 0 900 900" enable-background="new 0 0 900 900" xml:space="preserve">
<path d="M86.553,153.921H72.715V65.737c-3.34,3.184-7.705,6.357-13.115,9.531c-5.4,3.184-10.264,5.566-14.561,7.158V69.048
	c7.734-3.643,14.502-8.047,20.293-13.223c5.791-5.176,9.893-10.205,12.305-15.068h8.916V153.921L86.553,153.921z M121.992,98.335
	c0-13.32,1.377-24.053,4.111-32.178c2.744-8.115,6.816-14.385,12.227-18.789c5.41-4.414,12.207-6.611,20.41-6.611
	c6.045,0,11.357,1.211,15.918,3.652c4.561,2.432,8.33,5.938,11.299,10.527c2.969,4.589,5.303,10.176,7.002,16.758
	c1.689,6.592,2.529,15.469,2.529,26.641c0,13.223-1.357,23.896-4.072,32.021s-6.777,14.404-12.188,18.838
	c-5.4,4.434-12.236,6.65-20.488,6.65c-10.859,0-19.395-3.896-25.596-11.689C125.713,134.78,121.992,119.507,121.992,98.335
	L121.992,98.335z M136.221,98.335c0,18.506,2.158,30.82,6.494,36.943c4.326,6.123,9.668,9.189,16.025,9.189
	c6.357,0,11.699-3.076,16.035-9.229c4.326-6.152,6.494-18.447,6.494-36.904c0-18.555-2.168-30.879-6.494-36.982
	c-4.336-6.094-9.727-9.141-16.182-9.141c-6.357,0-11.436,2.686-15.225,8.066C138.604,67.153,136.221,79.839,136.221,98.335z
	 M209.561,124.399l14.531-1.23c1.074,7.07,3.574,12.393,7.5,15.957c3.916,3.555,8.643,5.342,14.18,5.342
	c6.66,0,12.305-2.51,16.914-7.539c4.609-5.02,6.924-11.68,6.924-19.99c0-7.891-2.217-14.121-6.65-18.682s-10.244-6.836-17.412-6.836
	c-4.463,0-8.486,1.006-12.07,3.037c-3.594,2.021-6.416,4.648-8.457,7.881l-12.998-1.699l10.918-57.891h56.045v13.223h-44.971
	l-6.074,30.293c6.758-4.717,13.857-7.07,21.289-7.07c9.844,0,18.145,3.408,24.912,10.225s10.146,15.576,10.146,26.289
	c0,10.205-2.969,19.023-8.916,26.445c-7.227,9.131-17.09,13.691-29.6,13.691c-10.254,0-18.613-2.871-25.098-8.613
	C214.189,141.49,210.488,133.882,209.561,124.399z M244.258,652.827v-74.103h25.527c5.762,0,10.156,0.361,13.184,1.064
	c4.248,0.977,7.871,2.744,10.869,5.303c3.906,3.312,6.836,7.529,8.77,12.666c1.943,5.137,2.91,11.006,2.91,17.617
	c0,5.625-0.654,10.615-1.973,14.961s-2.998,7.939-5.059,10.791c-2.051,2.842-4.297,5.088-6.748,6.719
	c-2.441,1.642-5.391,2.871-8.838,3.722c-3.457,0.84-7.422,1.26-11.904,1.26H244.258L244.258,652.827z M254.063,644.087h15.82
	c4.883,0,8.721-0.459,11.494-1.367c2.783-0.908,5-2.188,6.65-3.848c2.324-2.324,4.141-5.449,5.43-9.375
	c1.299-3.926,1.953-8.683,1.953-14.277c0-7.744-1.279-13.701-3.818-17.86c-2.549-4.17-5.635-6.953-9.277-8.369
	c-2.627-1.017-6.855-1.515-12.686-1.515h-15.566V644.087z M353.027,652.827v-7.881c-4.18,6.063-9.854,9.092-17.031,9.092
	c-3.174,0-6.123-0.605-8.877-1.816c-2.744-1.211-4.785-2.733-6.113-4.58c-1.328-1.836-2.266-4.082-2.803-6.737
	c-0.371-1.787-0.557-4.619-0.557-8.496v-33.262h9.102v29.774c0,4.746,0.186,7.949,0.557,9.601c0.566,2.393,1.777,4.276,3.633,5.635
	c1.855,1.367,4.15,2.051,6.875,2.051c2.734,0,5.293-0.703,7.686-2.1c2.393-1.397,4.082-3.302,5.078-5.713
	c0.996-2.402,1.494-5.898,1.494-10.488v-28.76h9.092v53.682L353.027,652.827L353.027,652.827z M383.809,652.827h-8.438v-74.103
	h9.092v26.437c3.848-4.814,8.75-7.228,14.707-7.228c3.301,0,6.426,0.664,9.375,2.002c2.949,1.328,5.381,3.193,7.285,5.605
	s3.389,5.313,4.473,8.721c1.074,3.398,1.611,7.041,1.611,10.918c0,9.199-2.266,16.31-6.816,21.328
	c-4.55,5.02-10.01,7.529-16.377,7.529c-6.338,0-11.309-2.646-14.912-7.93V652.827z M383.711,625.581
	c0,6.436,0.869,11.094,2.627,13.955c2.861,4.678,6.738,7.021,11.621,7.021c3.975,0,7.412-1.729,10.313-5.176
	c2.899-3.457,4.346-8.604,4.346-15.449c0-7.002-1.387-12.178-4.17-15.508c-2.783-3.34-6.144-5.01-10.078-5.01
	c-3.984,0-7.422,1.729-10.313,5.186C385.156,614.048,383.711,619.048,383.711,625.581z M432.988,652.827v-53.683h8.184v7.638
	c3.945-5.898,9.639-8.849,17.09-8.849c3.232,0,6.201,0.586,8.916,1.748s4.746,2.687,6.094,4.57c1.349,1.884,2.285,4.131,2.832,6.719
	c0.332,1.689,0.498,4.64,0.498,8.849v33.008h-9.092v-32.656c0-3.701-0.352-6.475-1.063-8.311c-0.703-1.836-1.964-3.302-3.761-4.396
	c-1.807-1.094-3.926-1.641-6.348-1.641c-3.877,0-7.217,1.229-10.029,3.682c-2.821,2.461-4.229,7.129-4.229,14.004v29.316
	L432.988,652.827L432.988,652.827z M490.615,589.194v-10.47h9.102v10.47H490.615z M490.615,652.827v-53.683h9.102v53.683H490.615z
	 M548.74,652.827v-7.881c-4.181,6.063-9.854,9.092-17.031,9.092c-3.174,0-6.123-0.605-8.877-1.816
	c-2.744-1.211-4.785-2.733-6.113-4.58c-1.328-1.836-2.266-4.082-2.803-6.737c-0.371-1.787-0.557-4.619-0.557-8.496v-33.262h9.102
	v29.774c0,4.746,0.186,7.949,0.557,9.601c0.566,2.393,1.777,4.276,3.634,5.635c1.854,1.367,4.149,2.051,6.875,2.051
	c2.733,0,5.293-0.703,7.686-2.1c2.393-1.397,4.082-3.302,5.078-5.713c0.996-2.402,1.494-5.898,1.494-10.488v-28.76h9.092v53.682
	L548.74,652.827L548.74,652.827z M571.133,652.827v-53.683h8.135v7.529c1.689-2.627,3.927-4.736,6.72-6.338
	c2.803-1.602,5.985-2.402,9.561-2.402c3.976,0,7.236,0.83,9.775,2.48c2.549,1.65,4.336,3.955,5.381,6.924
	c4.248-6.27,9.774-9.404,16.582-9.404c5.322,0,9.414,1.476,12.285,4.425c2.86,2.948,4.297,7.489,4.297,13.622v36.847h-9.053v-33.818
	c0-3.633-0.294-6.26-0.88-7.852c-0.596-1.603-1.659-2.892-3.213-3.867c-1.553-0.976-3.369-1.465-5.459-1.465
	c-3.77,0-6.903,1.25-9.403,3.76c-2.49,2.51-3.74,6.533-3.74,12.061v31.183h-9.092v-34.873c0-4.043-0.742-7.08-2.228-9.103
	c-1.484-2.021-3.906-3.026-7.274-3.026c-2.568,0-4.933,0.674-7.109,2.021c-2.168,1.349-3.74,3.312-4.727,5.908
	c-0.978,2.599-1.466,6.338-1.466,11.221v27.853L571.133,652.827L571.133,652.827z M57.373,859.243v-94.678h20.068v7.528H66.475
	v79.609h10.967v7.539L57.373,859.243L57.373,859.243z M131.221,829.927v8.74H82.246c-0.076-2.156,0.287-4.306,1.064-6.318
	c1.24-3.34,3.242-6.62,5.986-9.854c2.744-3.242,6.709-6.982,11.904-11.221c8.047-6.611,13.496-11.837,16.328-15.693
	c2.822-3.857,4.238-7.51,4.238-10.947c0-3.604-1.289-6.649-3.867-9.121c-2.578-2.479-5.938-3.721-10.078-3.721
	c-4.385,0-7.891,1.318-10.518,3.945c-2.627,2.627-3.955,6.27-3.994,10.918l-9.346-0.957c0.635-6.974,3.047-12.295,7.227-15.947
	c4.18-3.662,9.785-5.488,16.836-5.488c7.109,0,12.734,1.974,16.875,5.918c4.15,3.945,6.221,8.828,6.221,14.658
	c0,2.959-0.605,5.879-1.816,8.74c-1.221,2.871-3.232,5.879-6.045,9.053c-2.813,3.164-7.49,7.511-14.023,13.037
	c-5.459,4.58-8.965,7.695-10.518,9.326c-1.553,1.631-2.832,3.281-3.838,4.932H131.221L131.221,829.927z M188.184,782.71
	l-9.043,0.713c-0.811-3.574-1.953-6.172-3.438-7.783c-2.461-2.598-5.498-3.896-9.102-3.896c-2.9,0-5.439,0.811-7.627,2.432
	c-2.871,2.09-5.127,5.138-6.777,9.142c-1.65,4.014-2.51,9.727-2.578,17.139c2.188-3.34,4.873-5.812,8.037-7.432
	c3.164-1.611,6.484-2.423,9.961-2.423c6.064,0,11.221,2.228,15.488,6.699c4.258,4.463,6.396,10.234,6.396,17.305
	c0,4.648-1.006,8.976-3.008,12.97c-2.012,3.994-4.766,7.051-8.262,9.17c-3.506,2.129-7.49,3.184-11.934,3.184
	c-7.578,0-13.77-2.783-18.545-8.358c-4.795-5.576-7.178-14.767-7.178-27.578c0-14.316,2.637-24.728,7.93-31.23
	c4.619-5.664,10.83-8.496,18.652-8.496c5.83,0,10.604,1.642,14.326,4.902C185.215,772.437,187.441,776.948,188.184,782.71
	L188.184,782.71z M151.035,814.653c0,3.135,0.664,6.143,1.992,9.004c1.338,2.86,3.193,5.049,5.586,6.543
	c2.393,1.504,4.902,2.246,7.529,2.246c3.848,0,7.148-1.543,9.912-4.648c2.764-3.096,4.141-7.313,4.141-12.637
	c0-5.117-1.357-9.15-4.092-12.101c-2.725-2.948-6.162-4.424-10.313-4.424c-4.111,0-7.598,1.476-10.459,4.424
	C152.47,806.01,151.035,809.878,151.035,814.653L151.035,814.653z M212.549,798.481c-3.779-1.378-6.572-3.351-8.398-5.908
	c-1.816-2.568-2.725-5.636-2.725-9.199c0-5.391,1.934-9.922,5.811-13.604c3.877-3.672,9.033-5.508,15.469-5.508
	c6.465,0,11.68,1.886,15.615,5.636c3.945,3.76,5.918,8.34,5.918,13.729c0,3.438-0.898,6.426-2.705,8.965
	c-1.807,2.549-4.541,4.513-8.213,5.89c4.551,1.483,8.008,3.877,10.391,7.178c2.373,3.301,3.555,7.246,3.555,11.826
	c0,6.338-2.236,11.659-6.719,15.977c-4.483,4.317-10.381,6.465-17.686,6.465c-7.314,0-13.213-2.158-17.695-6.494
	c-4.482-4.325-6.719-9.727-6.719-16.2c0-4.814,1.221-8.849,3.662-12.101S208.027,799.663,212.549,798.481z M207.793,817.29
	c0,2.588,0.615,5.098,1.846,7.529c1.23,2.422,3.057,4.307,5.488,5.635c2.422,1.328,5.029,1.992,7.832,1.992
	c4.346,0,7.93-1.396,10.762-4.189c2.832-2.803,4.248-6.356,4.248-10.664c0-4.385-1.455-8.008-4.375-10.869
	c-2.91-2.86-6.563-4.297-10.938-4.297c-4.277,0-7.832,1.416-10.646,4.248C209.198,809.507,207.793,813.042,207.793,817.29
	L207.793,817.29z M210.723,783.071c0,3.506,1.133,6.367,3.389,8.594c2.256,2.217,5.186,3.33,8.799,3.33
	c3.506,0,6.377-1.104,8.613-3.312c2.246-2.206,3.359-4.911,3.359-8.114c0-3.33-1.152-6.133-3.457-8.408
	c-2.314-2.275-5.186-3.418-8.623-3.418c-3.467,0-6.348,1.113-8.643,3.34C211.875,777.311,210.723,779.966,210.723,783.071
	L210.723,783.071z M273.867,859.243h-20.068v-7.539h10.967v-79.609h-10.967v-7.528h20.068V859.243L273.867,859.243z
	 M284.307,255.454h68.232c15.391,0,27.119,1.182,35.186,3.535c10.85,3.193,20.137,8.877,27.871,17.031
	c7.734,8.154,13.623,18.135,17.656,29.951c4.043,11.807,6.055,26.376,6.055,43.701c0,15.215-1.895,28.33-5.674,39.346
	c-4.629,13.447-11.221,24.337-19.805,32.666c-6.476,6.3-15.215,11.222-26.23,14.757c-8.242,2.606-19.248,3.905-33.037,3.905h-70.254
	V255.454L284.307,255.454z M321.641,286.733v122.461h27.871c10.43,0,17.949-0.586,22.578-1.769
	c6.055-1.514,11.074-4.071,15.068-7.686c3.994-3.623,7.256-9.57,9.774-17.853c2.52-8.281,3.779-19.569,3.779-33.856
	c0-14.297-1.26-25.265-3.779-32.92c-2.52-7.646-6.055-13.623-10.596-17.91s-10.303-7.188-17.275-8.701
	c-5.215-1.172-15.43-1.768-30.645-1.768L321.641,286.733L321.641,286.733z M469.189,440.347V255.454h35.438v66.592
	c10.938-12.44,23.877-18.662,38.848-18.662c16.31,0,29.806,5.908,40.488,17.715c10.674,11.816,16.017,28.779,16.017,50.89
	c0,22.871-5.449,40.487-16.339,52.852c-10.889,12.354-24.11,18.535-39.657,18.535c-7.656,0-15.195-1.914-22.638-5.742
	c-7.44-3.817-13.856-9.473-19.237-16.963v19.678L469.189,440.347L469.189,440.347z M504.385,370.474
	c0,13.878,2.178,24.142,6.553,30.781c6.134,9.414,14.298,14.121,24.474,14.121c7.813,0,14.473-3.34,19.979-10.029
	c5.509-6.68,8.263-17.217,8.263-31.592c0-15.303-2.773-26.338-8.32-33.104c-5.547-6.768-12.656-10.146-21.318-10.146
	c-8.485,0-15.547,3.301-21.182,9.894C507.197,346.997,504.385,357.026,504.385,370.474z M854.17,99.536v7.588h-42.5
	c-0.068-1.904,0.244-3.73,0.918-5.479c1.084-2.9,2.813-5.752,5.195-8.555c2.383-2.813,5.83-6.055,10.332-9.746
	c6.992-5.732,11.709-10.264,14.17-13.613c2.451-3.35,3.682-6.514,3.682-9.502c0-3.125-1.113-5.771-3.35-7.92
	c-2.246-2.148-5.156-3.223-8.76-3.223c-3.8,0-6.836,1.143-9.121,3.428c-2.275,2.275-3.438,5.439-3.467,9.473l-8.115-0.84
	c0.557-6.045,2.646-10.664,6.278-13.838c3.623-3.174,8.486-4.756,14.601-4.756c6.172,0,11.055,1.709,14.658,5.127
	c3.594,3.428,5.391,7.666,5.391,12.725c0,2.578-0.527,5.107-1.572,7.588c-1.055,2.49-2.803,5.107-5.244,7.852
	c-2.44,2.754-6.504,6.523-12.178,11.318c-4.736,3.975-7.772,6.68-9.121,8.096c-1.348,1.416-2.461,2.842-3.34,4.277H854.17
	L854.17,99.536z M824.824,162.095c-3.271-1.201-5.703-2.91-7.285-5.137c-1.572-2.217-2.363-4.883-2.363-7.979
	c0-4.678,1.681-8.613,5.039-11.807c3.369-3.184,7.842-4.775,13.428-4.775c5.615,0,10.138,1.631,13.556,4.893
	c3.418,3.262,5.137,7.227,5.137,11.904c0,2.988-0.791,5.586-2.354,7.793c-1.563,2.207-3.937,3.906-7.13,5.107
	c3.955,1.289,6.953,3.359,9.015,6.23c2.069,2.861,3.096,6.289,3.096,10.264c0,5.498-1.943,10.117-5.83,13.857
	c-3.896,3.75-9.014,5.615-15.361,5.615c-6.338,0-11.454-1.875-15.352-5.635c-3.887-3.76-5.83-8.447-5.83-14.063
	c0-4.18,1.055-7.676,3.185-10.498C817.891,165.044,820.908,163.12,824.824,162.095L824.824,162.095z M820.703,178.413
	c0,2.256,0.527,4.434,1.602,6.533c1.064,2.109,2.656,3.74,4.756,4.893c2.082,1.146,4.422,1.741,6.798,1.729
	c3.778,0,6.895-1.211,9.346-3.633c2.461-2.432,3.69-5.518,3.69-9.258c0-3.799-1.27-6.943-3.799-9.434
	c-2.528-2.48-5.692-3.73-9.502-3.73c-3.711,0-6.787,1.23-9.229,3.691C821.924,171.655,820.703,174.731,820.703,178.413
	L820.703,178.413z M823.242,148.716c0,3.037,0.986,5.527,2.938,7.451c1.964,1.934,4.502,2.9,7.638,2.9
	c3.037,0,5.537-0.957,7.479-2.871c1.943-1.914,2.92-4.268,2.92-7.041c0-2.9-1.006-5.332-3.008-7.305s-4.502-2.959-7.479-2.959
	c-3.019,0-5.519,0.957-7.5,2.891C824.238,143.716,823.242,146.021,823.242,148.716L823.242,148.716z M792.441,286.802h-7.892
	v-50.313c-1.903,1.807-4.395,3.623-7.479,5.438c-3.086,1.807-5.859,3.174-8.312,4.072v-7.627c4.414-2.08,8.271-4.59,11.582-7.549
	c3.301-2.949,5.646-5.82,7.013-8.594h5.088V286.802L792.441,286.802z M824.814,251.929c-3.271-1.201-5.703-2.91-7.285-5.137
	c-1.572-2.217-2.363-4.883-2.363-7.979c0-4.678,1.68-8.613,5.039-11.807c3.369-3.184,7.842-4.775,13.428-4.775
	c5.615,0,10.137,1.631,13.555,4.893s5.138,7.227,5.138,11.904c0,2.988-0.791,5.586-2.354,7.793
	c-1.563,2.207-3.936,3.906-7.129,5.107c3.955,1.289,6.953,3.359,9.014,6.23c2.07,2.861,3.097,6.289,3.097,10.264
	c0,5.498-1.943,10.117-5.83,13.857c-3.896,3.75-9.014,5.615-15.361,5.615c-6.338,0-11.455-1.875-15.352-5.635
	c-3.888-3.76-5.83-8.447-5.83-14.063c0-4.18,1.055-7.676,3.184-10.498C817.881,254.878,820.898,252.954,824.814,251.929z
	 M820.693,268.247c0,2.256,0.526,4.434,1.602,6.533c1.064,2.109,2.656,3.74,4.756,4.893c2.082,1.146,4.421,1.741,6.797,1.729
	c3.779,0,6.896-1.211,9.347-3.633c2.461-2.432,3.69-5.518,3.69-9.258c0-3.799-1.27-6.943-3.799-9.434
	c-2.529-2.48-5.693-3.73-9.502-3.73c-3.711,0-6.787,1.23-9.229,3.691C821.914,261.489,820.693,264.565,820.693,268.247
	L820.693,268.247z M823.232,238.55c0,3.037,0.985,5.527,2.938,7.451c1.963,1.934,4.502,2.9,7.637,2.9
	c3.037,0,5.537-0.957,7.48-2.871c1.943-1.914,2.92-4.268,2.92-7.041c0-2.9-1.006-5.332-3.008-7.305s-4.502-2.959-7.48-2.959
	c-3.018,0-5.518,0.957-7.5,2.891C824.229,233.55,823.232,235.854,823.232,238.55L823.232,238.55z M762.744,359.673l7.9-1.055
	c0.907,4.473,2.45,7.695,4.629,9.668c2.178,1.973,4.834,2.959,7.959,2.959c3.711,0,6.854-1.279,9.414-3.857
	c2.559-2.567,3.838-5.762,3.838-9.561c0-3.623-1.191-6.621-3.556-8.976c-2.373-2.354-5.381-3.524-9.043-3.524
	c-1.483,0-3.34,0.293-5.565,0.879l0.879-6.934c0.527,0.059,0.947,0.088,1.27,0.088c3.359,0,6.388-0.879,9.082-2.638
	c2.687-1.748,4.033-4.452,4.033-8.114c0-2.892-0.977-5.293-2.938-7.188c-1.953-1.904-4.492-2.852-7.589-2.852
	c-3.065,0-5.625,0.957-7.676,2.891s-3.358,4.824-3.945,8.691l-7.899-1.406c0.967-5.293,3.164-9.396,6.582-12.305
	c3.418-2.91,7.676-4.365,12.764-4.365c3.506,0,6.738,0.752,9.697,2.256c2.949,1.504,5.215,3.564,6.776,6.162
	c1.563,2.606,2.345,5.371,2.345,8.291c0,2.783-0.742,5.313-2.236,7.588c-1.494,2.285-3.701,4.102-6.621,5.439
	c3.799,0.879,6.758,2.704,8.857,5.469c2.108,2.764,3.164,6.221,3.164,10.371c0,5.614-2.052,10.371-6.144,14.276
	c-4.102,3.906-9.276,5.859-15.526,5.859c-5.646,0-10.332-1.68-14.063-5.049C765.4,369.38,763.271,365.024,762.744,359.673
	L762.744,359.673z M854.16,369.058v7.589h-42.5c-0.068-1.904,0.244-3.73,0.918-5.479c1.084-2.9,2.813-5.752,5.195-8.555
	c2.383-2.813,5.83-6.056,10.332-9.746c6.991-5.732,11.709-10.265,14.17-13.613c2.45-3.35,3.682-6.514,3.682-9.502
	c0-3.125-1.113-5.771-3.35-7.92c-2.246-2.148-5.156-3.223-8.761-3.223c-3.799,0-6.836,1.143-9.12,3.428
	c-2.275,2.274-3.438,5.438-3.468,9.473l-8.114-0.84c0.557-6.045,2.646-10.664,6.278-13.838c3.623-3.174,8.486-4.756,14.601-4.756
	c6.172,0,11.055,1.709,14.657,5.127c3.595,3.428,5.392,7.666,5.392,12.725c0,2.578-0.527,5.107-1.572,7.588
	c-1.055,2.49-2.803,5.107-5.244,7.853c-2.44,2.754-6.504,6.522-12.178,11.317c-4.736,3.976-7.773,6.681-9.121,8.097
	s-2.461,2.842-3.34,4.276H854.16z M762.744,449.507l7.9-1.055c0.907,4.473,2.45,7.695,4.629,9.668
	c2.178,1.973,4.834,2.959,7.959,2.959c3.711,0,6.854-1.279,9.414-3.857c2.559-2.567,3.838-5.762,3.838-9.561
	c0-3.623-1.191-6.621-3.556-8.976c-2.373-2.354-5.381-3.524-9.043-3.524c-1.483,0-3.34,0.293-5.565,0.879l0.879-6.934
	c0.527,0.059,0.947,0.088,1.27,0.088c3.359,0,6.388-0.879,9.082-2.638c2.687-1.748,4.033-4.452,4.033-8.114
	c0-2.892-0.977-5.293-2.938-7.188c-1.953-1.904-4.492-2.852-7.589-2.852c-3.065,0-5.625,0.957-7.676,2.891
	c-2.051,1.935-3.358,4.824-3.945,8.691l-7.899-1.406c0.967-5.293,3.164-9.395,6.582-12.305s7.676-4.365,12.764-4.365
	c3.506,0,6.738,0.752,9.697,2.256c2.949,1.504,5.215,3.564,6.776,6.162c1.563,2.607,2.345,5.371,2.345,8.291
	c0,2.783-0.742,5.313-2.236,7.588c-1.494,2.285-3.701,4.102-6.621,5.439c3.799,0.879,6.758,2.705,8.857,5.469
	c2.108,2.764,3.164,6.221,3.164,10.371c0,5.615-2.052,10.371-6.144,14.276c-4.102,3.906-9.276,5.859-15.526,5.859
	c-5.646,0-10.332-1.68-14.063-5.049C765.4,459.214,763.271,454.858,762.744,449.507L762.744,449.507z M854.16,458.892v7.589h-42.5
	c-0.068-1.904,0.244-3.73,0.918-5.479c1.084-2.9,2.813-5.752,5.195-8.555c2.383-2.813,5.83-6.056,10.332-9.746
	c6.991-5.732,11.709-10.265,14.17-13.613c2.45-3.35,3.682-6.514,3.682-9.502c0-3.125-1.113-5.771-3.35-7.92
	c-2.246-2.148-5.156-3.223-8.761-3.223c-3.799,0-6.836,1.143-9.12,3.428c-2.275,2.274-3.438,5.438-3.468,9.473l-8.114-0.84
	c0.557-6.045,2.646-10.664,6.278-13.838c3.623-3.174,8.486-4.756,14.601-4.756c6.172,0,11.055,1.709,14.657,5.127
	c3.595,3.428,5.392,7.666,5.392,12.725c0,2.578-0.527,5.107-1.572,7.588c-1.055,2.49-2.803,5.107-5.244,7.853
	c-2.44,2.754-6.504,6.522-12.178,11.317c-4.736,3.976-7.773,6.681-9.121,8.097s-2.461,2.842-3.34,4.276H854.16z M799.111,556.323
	h-7.892V506.01c-1.903,1.808-4.395,3.623-7.479,5.439c-3.086,1.807-5.859,3.174-8.312,4.072v-7.628
	c4.414-2.079,8.271-4.59,11.582-7.549c3.302-2.949,5.646-5.819,7.013-8.594h5.088V556.323L799.111,556.323z M842.412,556.323h-7.891
	V506.01c-1.904,1.808-4.396,3.623-7.48,5.439c-3.086,1.807-5.859,3.174-8.311,4.072v-7.628c4.414-2.079,8.271-4.59,11.582-7.549
	c3.301-2.949,5.645-5.819,7.012-8.594h5.088V556.323L842.412,556.323z M854.17,638.569v7.588h-42.5
	c-0.068-1.904,0.244-3.73,0.918-5.479c1.084-2.899,2.813-5.752,5.195-8.555c2.383-2.813,5.83-6.055,10.332-9.746
	c6.992-5.732,11.709-10.264,14.17-13.613c2.451-3.35,3.682-6.514,3.682-9.502c0-3.125-1.112-5.771-3.35-7.92
	c-2.246-2.147-5.156-3.223-8.76-3.223c-3.8,0-6.836,1.143-9.121,3.428c-2.275,2.275-3.438,5.439-3.467,9.473l-8.115-0.84
	c0.557-6.045,2.646-10.664,6.279-13.838c3.622-3.174,8.485-4.756,14.6-4.756c6.172,0,11.055,1.709,14.658,5.127
	c3.594,3.428,5.391,7.666,5.391,12.725c0,2.578-0.527,5.107-1.572,7.589c-1.055,2.489-2.803,5.106-5.244,7.852
	c-2.44,2.754-6.504,6.523-12.178,11.318c-4.736,3.975-7.772,6.68-9.121,8.096c-1.348,1.416-2.461,2.842-3.34,4.277H854.17z"/>
</svg>
