<?xml version="1.0" encoding="utf-8"?>
<!-- Generator: Adobe Illustrator 16.0.3, SVG Export Plug-In . SVG Version: 6.00 Build 0)  -->
<!DOCTYPE svg PUBLIC "-//W3C//DTD SVG 1.1//EN" "http://www.w3.org/Graphics/SVG/1.1/DTD/svg11.dtd">
<svg version="1.1" id="Layer_1" xmlns="http://www.w3.org/2000/svg" xmlns:xlink="http://www.w3.org/1999/xlink" x="0px" y="0px"
	 width="900px" height="900px" viewBox="0 0 900 900" enable-background="new 0 0 900 900" xml:space="preserve">
<path d="M86.547,153.922H72.711V65.734c-3.344,3.188-7.703,6.359-13.117,9.531c-5.398,3.188-10.258,5.57-14.555,7.164V69.047
	c7.734-3.641,14.5-8.047,20.289-13.219c5.789-5.18,9.891-10.211,12.305-15.07h8.914V153.922z M121.992,98.336
	c0-13.32,1.375-24.055,4.109-32.18c2.742-8.117,6.813-14.383,12.227-18.789c5.406-4.414,12.203-6.609,20.406-6.609
	c6.047,0,11.359,1.211,15.922,3.648c4.555,2.438,8.328,5.938,11.297,10.531c2.969,4.586,5.305,10.172,7,16.758
	c1.695,6.594,2.531,15.469,2.531,26.641c0,13.219-1.359,23.898-4.07,32.023c-2.719,8.125-6.781,14.398-12.188,18.836
	c-5.406,4.43-12.234,6.648-20.492,6.648c-10.859,0-19.391-3.898-25.594-11.688C125.711,134.781,121.992,119.508,121.992,98.336z
	 M136.219,98.336c0,18.508,2.156,30.82,6.492,36.945c4.328,6.117,9.672,9.188,16.023,9.188c6.359,0,11.703-3.078,16.039-9.227
	c4.328-6.156,6.492-18.453,6.492-36.906c0-18.555-2.164-30.883-6.492-36.984c-4.336-6.094-9.727-9.141-16.188-9.141
	c-6.352,0-11.43,2.688-15.219,8.07C138.602,67.156,136.219,79.836,136.219,98.336z M281.367,68.813l-13.766,1.078
	c-1.227-5.43-2.969-9.375-5.219-11.836c-3.75-3.945-8.359-5.922-13.844-5.922c-4.414,0-8.281,1.234-11.609,3.695
	c-4.359,3.172-7.797,7.813-10.305,13.914c-2.508,6.094-3.82,14.781-3.922,26.055c3.328-5.07,7.414-8.836,12.227-11.297
	s9.859-3.695,15.141-3.695c9.234,0,17.086,3.398,23.57,10.188c6.484,6.797,9.727,15.563,9.727,26.336
	c0,7.07-1.523,13.641-4.578,19.719c-3.047,6.07-7.242,10.719-12.57,13.953c-5.336,3.227-11.383,4.844-18.148,4.844
	c-11.531,0-20.938-4.234-28.211-12.727c-7.273-8.484-10.914-22.461-10.914-41.938c0-21.781,4.016-37.617,12.063-47.516
	c7.023-8.609,16.477-12.906,28.375-12.906c8.867,0,16.133,2.477,21.797,7.453C276.844,53.18,280.242,60.055,281.367,68.813
	L281.367,68.813z M224.859,117.406c0,4.766,1.008,9.328,3.039,13.68c2.016,4.359,4.852,7.68,8.492,9.953
	c3.633,2.289,7.453,3.43,11.461,3.43c5.836,0,10.859-2.367,15.063-7.078s6.297-11.117,6.297-19.219
	c0-7.789-2.063-13.93-6.219-18.414c-4.156-4.477-9.383-6.727-15.68-6.727c-6.258,0-11.563,2.25-15.922,6.727
	C227.039,104.242,224.859,110.125,224.859,117.406z M168.953,629.023l9.242-0.82c0.445,3.711,1.469,6.758,3.063,9.141
	c1.602,2.367,4.094,4.297,7.461,5.758c3.367,1.47,7.156,2.188,11.367,2.188c3.734,0,7.047-0.547,9.906-1.656
	c2.867-1.108,4.992-2.641,6.398-4.569c1.398-1.953,2.094-4.063,2.094-6.353c0-2.32-0.68-4.352-2.023-6.094
	c-1.344-1.734-3.563-3.203-6.672-4.375c-1.984-0.781-6.383-1.969-13.188-3.609c-6.813-1.641-11.578-3.188-14.297-4.625
	c-3.547-1.858-6.188-4.141-7.914-6.897c-1.742-2.759-2.609-5.82-2.609-9.22c0-3.75,1.07-7.241,3.188-10.491
	c2.117-3.259,5.227-5.72,9.297-7.398c4.078-1.695,8.609-2.539,13.602-2.539c5.484,0,10.328,0.875,14.531,2.656
	c4.188,1.781,7.422,4.375,9.68,7.813c2.258,3.438,3.461,7.328,3.641,11.681l-9.406,0.702c-0.508-4.688-2.211-8.227-5.125-10.625
	c-2.922-2.383-7.227-3.569-12.922-3.569c-5.93,0-10.25,1.069-12.961,3.258c-2.711,2.164-4.07,4.789-4.07,7.852
	c0,2.656,0.961,4.845,2.883,6.563c1.883,1.719,6.813,3.5,14.781,5.297c7.968,1.797,13.438,3.375,16.398,4.719
	c4.32,2,7.5,4.517,9.563,7.563c2.055,3.047,3.078,6.563,3.078,10.531c0,3.938-1.125,7.655-3.383,11.147
	c-2.266,3.492-5.508,6.195-9.734,8.148c-4.227,1.93-8.984,2.891-14.281,2.891c-6.703,0-12.32-0.984-16.852-2.938
	c-4.532-1.954-8.086-4.875-10.664-8.806C170.447,638.417,169.086,633.961,168.953,629.023L168.953,629.023z M276.922,635.547
	l9.391,1.148c-1.484,5.492-4.227,9.766-8.227,12.797c-4.016,3.031-9.141,4.547-15.375,4.547c-7.852,0-14.07-2.422-18.672-7.266
	c-4.602-4.82-6.906-11.595-6.906-20.328c0-9.023,2.328-16.031,6.977-21.031c4.656-4.984,10.68-7.484,18.094-7.484
	c7.18,0,13.047,2.438,17.602,7.345c4.539,4.883,6.813,11.758,6.813,20.608c0,0.547-0.008,1.344-0.047,2.438h-40.031
	c0.328,5.897,2,10.405,5,13.53c3,3.148,6.734,4.711,11.219,4.711c3.344,0,6.188-0.883,8.547-2.633
	C273.664,642.188,275.531,639.375,276.922,635.547L276.922,635.547z M247.047,620.836h29.969c-0.406-4.531-1.555-7.906-3.438-10.172
	c-2.898-3.5-6.656-5.25-11.266-5.25c-4.18,0-7.695,1.406-10.539,4.195C248.922,612.398,247.352,616.148,247.047,620.836z
	 M332.773,646.211c-3.383,2.852-6.625,4.883-9.742,6.055c-3.117,1.195-6.453,1.773-10.023,1.773c-5.906,0-10.438-1.438-13.594-4.313
	c-3.18-2.891-4.758-6.563-4.758-11.055c0-2.617,0.594-5.022,1.797-7.211c1.188-2.164,2.758-3.906,4.695-5.211
	c1.938-1.328,4.125-2.32,6.547-2.992c1.781-0.469,4.477-0.938,8.078-1.358c7.359-0.884,12.758-1.923,16.234-3.125
	c0.031-1.25,0.047-2.056,0.047-2.392c0-3.703-0.859-6.328-2.578-7.828c-2.32-2.047-5.781-3.086-10.359-3.086
	c-4.281,0-7.438,0.742-9.469,2.242c-2.047,1.508-3.563,4.164-4.531,7.969l-8.898-1.203c0.805-3.813,2.148-6.897,3.992-9.241
	c1.859-2.345,4.531-4.142,8.039-5.414c3.508-1.25,7.57-1.892,12.188-1.892c4.578,0,8.297,0.547,11.172,1.625
	c2.859,1.07,4.961,2.438,6.305,4.063c1.352,1.641,2.297,3.703,2.836,6.188c0.305,1.563,0.461,4.359,0.461,8.398v12.133
	c0,8.453,0.188,13.805,0.57,16.047c0.391,2.25,1.164,4.398,2.305,6.453h-9.5C333.641,650.938,333.031,648.727,332.773,646.211
	L332.773,646.211z M332.008,625.883c-3.297,1.344-8.266,2.5-14.859,3.438c-3.742,0.547-6.391,1.147-7.938,1.828
	c-1.547,0.672-2.75,1.663-3.594,2.952c-0.836,1.289-1.258,2.734-1.258,4.313c0,2.422,0.922,4.453,2.758,6.078
	s4.516,2.422,8.055,2.422c3.508,0,6.617-0.766,9.352-2.305c2.727-1.523,4.742-3.634,6.016-6.289
	c0.984-2.047,1.469-5.078,1.469-9.103L332.008,625.883L332.008,625.883z M363.711,652.836h-8.438v-74.109h9.086v26.431
	c3.852-4.806,8.75-7.228,14.711-7.228c3.297,0,6.422,0.664,9.375,2.017c2.945,1.328,5.375,3.18,7.281,5.602
	c1.906,2.398,3.391,5.313,4.477,8.711c1.07,3.398,1.609,7.047,1.609,10.922c0,9.195-2.267,16.306-6.82,21.328
	c-4.547,5.017-10.008,7.531-16.375,7.531c-6.336,0-11.305-2.656-14.906-7.922V652.836z M363.609,625.586
	c0,6.422,0.867,11.094,2.625,13.945c2.867,4.688,6.742,7.031,11.625,7.031c3.977,0,7.414-1.742,10.313-5.181
	c2.898-3.453,4.344-8.608,4.344-15.444c0-7.009-1.383-12.188-4.172-15.509c-2.781-3.344-6.141-5.016-10.078-5.016
	c-3.984,0-7.422,1.734-10.313,5.188C365.055,614.039,363.609,619.039,363.609,625.586z M409.5,625.992
	c0-9.938,2.758-17.297,8.289-22.086c4.609-3.984,10.242-5.978,16.883-5.978c7.375,0,13.414,2.422,18.086,7.267
	c4.688,4.828,7.031,11.5,7.031,20.039c0,6.897-1.031,12.344-3.102,16.289c-2.087,3.969-5.087,7.047-9.056,9.233
	c-3.953,2.188-8.281,3.281-12.961,3.281c-7.516,0-13.594-2.398-18.219-7.219C411.813,641.992,409.5,635.055,409.5,625.992
	L409.5,625.992z M418.844,625.992c0,6.875,1.508,12.016,4.5,15.438c3,3.414,6.781,5.133,11.328,5.133
	c4.516,0,8.273-1.719,11.273-5.155c3-3.438,4.492-8.672,4.492-15.728c0-6.641-1.509-11.655-4.523-15.078
	c-3.016-3.438-6.766-5.133-11.242-5.133c-4.547,0-8.328,1.695-11.328,5.103C420.352,613.984,418.844,619.117,418.844,625.992z
	 M470.352,652.836v-53.695h8.188v8.148c2.094-3.813,4.016-6.313,5.781-7.547c1.78-1.203,3.719-1.813,5.844-1.813
	c3.063,0,6.18,0.978,9.352,2.931l-3.133,8.461c-2.227-1.328-4.453-1.978-6.672-1.978c-1.992,0-3.781,0.586-5.359,1.797
	c-1.577,1.195-2.719,2.853-3.391,4.961c-1,3.242-1.516,6.781-1.516,10.625v28.109L470.352,652.836L470.352,652.836z
	 M503.258,657.266l8.844,1.328c0.375,2.734,1.398,4.711,3.078,5.961c2.267,1.672,5.345,2.531,9.258,2.531
	c4.212,0,7.462-0.859,9.759-2.531c2.28-1.688,3.836-4.047,4.647-7.078c0.469-1.852,0.681-5.733,0.656-11.672
	c-3.977,4.688-8.93,7.031-14.867,7.031c-7.375,0-13.086-2.68-17.125-7.992c-4.047-5.336-6.063-11.719-6.063-19.164
	c0-5.108,0.914-9.844,2.766-14.172c1.859-4.344,4.547-7.68,8.07-10.047c3.516-2.344,7.656-3.531,12.397-3.531
	c6.345,0,11.563,2.563,15.681,7.695v-6.484h8.383v46.406c0,8.359-0.844,14.273-2.547,17.773c-1.703,3.477-4.406,6.233-8.086,8.266
	c-3.688,2.008-8.228,3.023-13.617,3.023c-6.406,0-11.578-1.445-15.523-4.32C505.023,667.398,503.117,663.07,503.258,657.266z
	 M510.789,625.023c0,7.047,1.391,12.188,4.195,15.422c2.797,3.227,6.305,4.844,10.508,4.844c4.18,0,7.688-1.594,10.516-4.82
	c2.836-3.227,4.25-8.258,4.25-15.133c0-6.563-1.461-11.531-4.375-14.867c-2.922-3.336-6.422-5-10.531-5
	c-4.047,0-7.483,1.642-10.313,4.922C512.203,613.672,510.789,618.555,510.789,625.023z M562.547,589.195v-10.47h9.103v10.47H562.547
	z M562.547,652.836v-53.695h9.103v53.695H562.547z M620.672,652.836v-7.891c-4.18,6.069-9.852,9.094-17.031,9.094
	c-3.18,0-6.125-0.602-8.883-1.813c-2.742-1.211-4.781-2.733-6.108-4.594c-1.328-1.828-2.267-4.078-2.806-6.733
	c-0.367-1.781-0.555-4.609-0.555-8.5V599.14h9.102v29.789c0,4.742,0.188,7.945,0.556,9.586c0.569,2.398,1.78,4.273,3.633,5.648
	c1.858,1.359,4.147,2.047,6.875,2.047c2.733,0,5.297-0.703,7.688-2.109c2.392-1.391,4.086-3.297,5.078-5.702
	c0.992-2.406,1.492-5.898,1.492-10.484v-28.773h9.094v53.695H620.672z M643.063,652.836v-53.695h8.134v7.539
	c1.688-2.641,3.93-4.75,6.719-6.344c2.805-1.609,5.984-2.406,9.563-2.406c3.978,0,7.234,0.845,9.773,2.484
	c2.555,1.656,4.336,3.961,5.383,6.93c4.25-6.272,9.773-9.414,16.578-9.414c5.328,0,9.422,1.484,12.289,4.438
	c2.859,2.944,4.297,7.477,4.297,13.608v36.859h-9.055v-33.828c0-3.641-0.289-6.25-0.875-7.858c-0.594-1.595-1.664-2.892-3.219-3.859
	c-1.548-0.984-3.367-1.469-5.453-1.469c-3.773,0-6.906,1.25-9.406,3.766c-2.492,2.5-3.742,6.531-3.742,12.055v31.195h-9.086v-34.891
	c0-4.039-0.75-7.063-2.234-9.095c-1.483-2.016-3.905-3.03-7.272-3.03c-2.57,0-4.93,0.688-7.109,2.03
	c-2.164,1.345-3.742,3.298-4.727,5.898c-0.978,2.602-1.461,6.352-1.461,11.227v27.859H643.063z M57.359,859.242V764.57h20.07v7.516
	H66.461v79.609H77.43v7.547H57.359z M131.211,829.922v8.75H82.234c-0.076-2.159,0.285-4.312,1.063-6.328
	c1.242-3.336,3.242-6.617,5.984-9.844c2.742-3.242,6.711-6.992,11.906-11.227c8.047-6.609,13.492-11.845,16.328-15.688
	c2.82-3.867,4.242-7.516,4.242-10.953c0-3.594-1.297-6.641-3.875-9.125c-2.578-2.483-5.938-3.711-10.078-3.711
	c-4.383,0-7.891,1.305-10.516,3.945c-2.625,2.617-3.953,6.266-3.992,10.922l-9.344-0.961c0.633-6.978,3.047-12.305,7.227-15.961
	c4.18-3.648,9.781-5.484,16.836-5.484c7.109,0,12.734,1.969,16.875,5.922c4.148,3.938,6.219,8.828,6.219,14.664
	c0,2.945-0.602,5.883-1.82,8.728c-1.219,2.875-3.227,5.883-6.039,9.063c-2.813,3.172-7.492,7.5-14.023,13.031
	c-5.461,4.594-8.969,7.695-10.516,9.336c-1.555,1.617-2.836,3.281-3.844,4.922H131.211L131.211,829.922z M141.57,774.273v-8.75
	h47.969v7.077c-4.719,5.017-9.398,11.695-14.023,20.017c-4.641,8.32-8.211,16.891-10.742,25.688
	c-1.828,6.188-2.992,12.984-3.484,20.367h-9.359c0.094-5.836,1.25-12.867,3.438-21.133s5.328-16.211,9.422-23.891
	c4.102-7.656,8.461-14.117,13.07-19.375H141.57L141.57,774.273z M232.797,838.672h-9.102V780.68
	c-2.188,2.095-5.055,4.188-8.609,6.273c-3.554,2.085-6.75,3.672-9.578,4.711v-8.797c5.086-2.398,9.539-5.289,13.344-8.688
	c3.797-3.422,6.508-6.719,8.086-9.922h5.859V838.672z M273.852,859.242h-20.063v-7.547h10.961v-79.609h-10.961v-7.516h20.063
	V859.242z M282.102,380.195l36.32-3.531c2.188,12.188,6.625,21.148,13.305,26.852c6.688,5.728,15.703,8.57,27.063,8.57
	c12.016,0,21.07-2.531,27.172-7.609c6.094-5.102,9.141-11.039,9.141-17.858c0-4.375-1.281-8.078-3.844-11.148
	c-2.57-3.086-7.047-5.742-13.43-8.022c-4.375-1.508-14.336-4.203-29.891-8.07c-20.008-4.961-34.055-11.055-42.117-18.281
	c-11.359-10.18-17.031-22.578-17.031-37.203c0-9.422,2.664-18.234,8-26.422c5.344-8.195,13.039-14.445,23.094-18.734
	c10.031-4.289,22.164-6.422,36.375-6.422c23.211,0,40.672,5.086,52.398,15.25c11.727,10.18,17.891,23.758,18.477,40.742
	l-37.32,1.642c-1.602-9.5-5.031-16.336-10.289-20.5c-5.25-4.156-13.133-6.234-23.641-6.234c-10.844,0-19.344,2.227-25.477,6.68
	c-3.953,2.859-5.93,6.688-5.93,11.469c0,4.375,1.844,8.117,5.547,11.242c4.711,3.938,16.141,8.063,34.313,12.345
	c18.156,4.297,31.586,8.727,40.289,13.313c8.703,4.578,15.508,10.844,20.43,18.797c4.922,7.945,7.384,17.75,7.384,29.453
	c0,10.578-2.945,20.5-8.828,29.742c-5.892,9.258-14.211,16.133-24.97,20.625c-10.772,4.492-24.18,6.758-40.233,6.758
	c-23.383,0-41.328-5.406-53.859-16.211C292.018,416.621,284.539,400.883,282.102,380.195L282.102,380.195z M460.305,449.18
	l40.484,4.922c0.672,4.703,2.227,7.931,4.664,9.703c3.359,2.523,8.664,3.797,15.891,3.797c9.25,0,16.181-1.405,20.813-4.188
	c3.117-1.828,5.469-4.82,7.055-8.938c1.094-2.952,1.641-8.358,1.641-16.272v-19.555c-10.594,14.477-23.961,21.702-40.102,21.702
	c-17.992,0-32.242-7.616-42.758-22.827c-8.234-12.031-12.353-27-12.353-44.906c0-22.438,5.398-39.594,16.203-51.445
	c10.806-11.859,24.234-17.789,40.289-17.789c16.563,0,30.228,7.273,41,21.813v-18.781h33.164v120.188
	c0,15.798-1.305,27.617-3.906,35.431c-2.608,7.836-6.272,13.961-10.977,18.414c-4.711,4.453-11,7.953-18.852,10.469
	c-7.867,2.523-17.813,3.797-29.837,3.797c-22.688,0-38.797-3.891-48.297-11.664c-9.5-7.789-14.25-17.633-14.25-29.586
	C460.18,452.289,460.219,450.859,460.305,449.18L460.305,449.18z M491.961,370.602c0,14.203,2.75,24.609,8.258,31.22
	c5.508,6.594,12.297,9.897,20.375,9.897c8.648,0,15.961-3.383,21.945-10.156c5.961-6.758,8.953-16.797,8.953-30.077
	c0-13.867-2.859-24.164-8.578-30.898c-5.719-6.719-12.945-10.078-21.695-10.078c-8.492,0-15.492,3.297-21,9.883
	C494.711,346.992,491.961,357.07,491.961,370.602L491.961,370.602z M854.164,99.539v7.586h-42.5
	c-0.063-1.906,0.25-3.734,0.922-5.477c1.078-2.906,2.813-5.758,5.195-8.555c2.383-2.813,5.828-6.055,10.328-9.75
	c6.991-5.734,11.711-10.266,14.172-13.609c2.453-3.352,3.68-6.516,3.68-9.508c0-3.125-1.109-5.766-3.344-7.914
	c-2.25-2.148-5.156-3.227-8.767-3.227c-3.797,0-6.836,1.141-9.116,3.43c-2.273,2.273-3.438,5.438-3.47,9.469l-8.116-0.836
	c0.563-6.047,2.647-10.664,6.28-13.836c3.625-3.18,8.484-4.758,14.603-4.758c6.172,0,11.055,1.711,14.656,5.125
	c3.594,3.43,5.391,7.664,5.391,12.727c0,2.578-0.523,5.109-1.57,7.586c-1.055,2.492-2.805,5.109-5.25,7.852
	c-2.438,2.758-6.5,6.523-12.172,11.32c-4.734,3.977-7.773,6.68-9.125,8.094c-1.344,1.414-2.461,2.844-3.336,4.281H854.164z
	 M824.82,162.094c-3.273-1.203-5.703-2.906-7.281-5.133c-1.578-2.219-2.367-4.883-2.367-7.984c0-4.672,1.68-8.609,5.039-11.805
	c3.367-3.18,7.844-4.773,13.43-4.773c5.617,0,10.134,1.633,13.556,4.891c3.414,3.266,5.133,7.227,5.133,11.906
	c0,2.984-0.789,5.586-2.353,7.789c-1.563,2.211-3.938,3.906-7.125,5.109c3.953,1.289,6.953,3.359,9.009,6.234
	c2.069,2.859,3.102,6.289,3.102,10.258c0,5.5-1.945,10.117-5.836,13.859c-3.898,3.75-9.008,5.617-15.359,5.617
	c-6.336,0-11.452-1.875-15.352-5.633c-3.891-3.766-5.828-8.453-5.828-14.063c0-4.18,1.055-7.68,3.18-10.5
	C817.883,165.047,820.906,163.117,824.82,162.094L824.82,162.094z M820.695,178.414c0,2.258,0.53,4.43,1.608,6.531
	c1.063,2.109,2.656,3.742,4.75,4.891c2.081,1.149,4.421,1.746,6.797,1.734c3.781,0,6.898-1.211,9.345-3.633
	c2.469-2.438,3.694-5.523,3.694-9.258c0-3.805-1.272-6.945-3.797-9.438c-2.53-2.477-5.694-3.727-9.508-3.727
	c-3.703,0-6.781,1.227-9.227,3.688C821.922,171.656,820.695,174.734,820.695,178.414z M823.242,148.719
	c0,3.031,0.983,5.523,2.938,7.445c1.961,1.938,4.5,2.906,7.633,2.906c3.039,0,5.539-0.961,7.484-2.875
	c1.945-1.914,2.914-4.266,2.914-7.039c0-2.898-1-5.336-3-7.305c-2.008-1.977-4.508-2.961-7.484-2.961
	c-3.016,0-5.516,0.961-7.5,2.891C824.234,143.719,823.242,146.023,823.242,148.719L823.242,148.719z M792.438,286.805h-7.891
	v-50.313c-1.906,1.805-4.397,3.617-7.477,5.438c-3.095,1.805-5.859,3.172-8.313,4.07v-7.625c4.414-2.078,8.267-4.594,11.578-7.547
	c3.305-2.953,5.648-5.82,7.016-8.594h5.087V286.805L792.438,286.805z M824.813,251.93c-3.272-1.203-5.702-2.914-7.288-5.141
	c-1.57-2.211-2.359-4.883-2.359-7.977c0-4.68,1.68-8.609,5.039-11.805c3.367-3.188,7.836-4.773,13.43-4.773
	c5.609,0,10.133,1.625,13.547,4.891c3.422,3.258,5.142,7.227,5.142,11.906c0,2.984-0.789,5.586-2.353,7.789
	c-1.563,2.211-3.938,3.906-7.133,5.109c3.953,1.289,6.953,3.359,9.016,6.227c2.07,2.867,3.095,6.289,3.095,10.266
	c0,5.5-1.938,10.117-5.828,13.859c-3.898,3.75-9.017,5.617-15.359,5.617s-11.453-1.875-15.352-5.641
	c-3.892-3.758-5.836-8.445-5.836-14.063c0-4.18,1.063-7.672,3.188-10.492C817.875,254.875,820.898,252.953,824.813,251.93
	L824.813,251.93z M820.688,268.25c0,2.25,0.531,4.43,1.603,6.531c1.063,2.109,2.656,3.742,4.758,4.891
	c2.109,1.156,4.375,1.727,6.797,1.727c3.781,0,6.898-1.211,9.345-3.633c2.461-2.43,3.694-5.516,3.694-9.258
	c0-3.797-1.272-6.938-3.797-9.43c-2.531-2.484-5.695-3.734-9.508-3.734c-3.711,0-6.789,1.234-9.228,3.695
	C821.914,261.492,820.688,264.563,820.688,268.25z M823.227,238.547c0,3.039,0.984,5.531,2.938,7.453
	c1.969,1.938,4.508,2.898,7.641,2.898c3.039,0,5.539-0.953,7.484-2.867c1.938-1.914,2.914-4.266,2.914-7.039
	c0-2.906-1.008-5.336-3.008-7.305c-2-1.977-4.5-2.961-7.478-2.961c-3.022,0-5.522,0.953-7.5,2.891
	C824.227,233.547,823.227,235.852,823.227,238.547z M762.742,359.664l7.897-1.047c0.906,4.469,2.453,7.688,4.634,9.664
	c2.172,1.977,4.827,2.969,7.952,2.969c3.712,0,6.859-1.289,9.414-3.867c2.563-2.563,3.836-5.766,3.836-9.547
	c0-3.641-1.188-6.625-3.547-8.984c-2.375-2.344-5.383-3.516-9.047-3.516c-1.483,0-3.344,0.289-5.563,0.875l0.875-6.938
	c0.53,0.063,0.944,0.077,1.266,0.077c3.359,0,6.391-0.875,9.086-2.633c2.688-1.742,4.031-4.453,4.031-8.102
	c0-2.892-0.978-5.297-2.938-7.188c-1.953-1.922-4.491-2.858-7.586-2.858c-3.069,0-5.625,0.961-7.68,2.891
	c-2.047,1.938-3.359,4.828-3.945,8.695l-7.897-1.406c0.969-5.289,3.164-9.398,6.586-12.305c3.414-2.906,7.672-4.375,12.758-4.375
	c3.508,0,6.742,0.766,9.695,2.266s5.219,3.555,6.78,6.156c1.563,2.608,2.345,5.367,2.345,8.297c0,2.772-0.742,5.313-2.234,7.578
	c-1.5,2.281-3.703,4.102-6.625,5.453c3.797,0.875,6.758,2.688,8.859,5.469c2.108,2.75,3.164,6.203,3.164,10.367
	c0,5.602-2.056,10.367-6.142,14.272c-4.102,3.906-9.281,5.859-15.531,5.859c-5.641,0-10.327-1.672-14.063-5.055
	C765.398,369.375,763.266,365.023,762.742,359.664L762.742,359.664z M854.156,369.063v7.578h-42.5
	c-0.072-1.866,0.238-3.728,0.914-5.469c1.086-2.914,2.813-5.758,5.203-8.555c2.375-2.813,5.827-6.055,10.327-9.75
	c6.992-5.734,11.712-10.267,14.173-13.609c2.452-3.358,3.68-6.522,3.68-9.516c0-3.125-1.117-5.758-3.353-7.906
	c-2.241-2.148-5.155-3.219-8.758-3.219c-3.797,0-6.836,1.125-9.117,3.414c-2.28,2.289-3.438,5.444-3.469,9.477l-8.117-0.844
	c0.556-6.031,2.648-10.664,6.281-13.828c3.617-3.188,8.484-4.766,14.603-4.766c6.172,0,11.047,1.719,14.655,5.141
	c3.595,3.414,5.392,7.656,5.392,12.711c0,2.578-0.531,5.117-1.578,7.603c-1.047,2.477-2.797,5.094-5.242,7.844
	c-2.438,2.758-6.5,6.531-12.18,11.313c-4.734,3.984-7.767,6.681-9.117,8.109c-1.353,1.406-2.461,2.828-3.336,4.272H854.156z
	 M762.742,449.508l7.897-1.047c0.906,4.469,2.453,7.688,4.634,9.664c2.172,1.977,4.827,2.945,7.952,2.945
	c3.712,0,6.859-1.267,9.414-3.845c2.563-2.577,3.836-5.766,3.836-9.569c0-3.617-1.188-6.617-3.547-8.961
	c-2.375-2.367-5.383-3.539-9.047-3.539c-1.483,0-3.344,0.289-5.563,0.883l0.875-6.938c0.53,0.063,0.944,0.095,1.266,0.095
	c3.359,0,6.391-0.875,9.086-2.633c2.688-1.759,4.031-4.453,4.031-8.125c0-2.892-0.978-5.289-2.938-7.188
	c-1.953-1.898-4.491-2.852-7.586-2.852c-3.069,0-5.625,0.952-7.68,2.891c-2.047,1.938-3.359,4.828-3.945,8.688l-7.897-1.405
	c0.969-5.289,3.164-9.392,6.586-12.297c3.414-2.914,7.672-4.359,12.758-4.359c3.508,0,6.742,0.742,9.695,2.25
	c2.953,1.5,5.219,3.57,6.78,6.172c1.563,2.594,2.345,5.367,2.345,8.281c0,2.789-0.742,5.313-2.234,7.594
	c-1.5,2.281-3.703,4.102-6.625,5.43c3.797,0.884,6.758,2.711,8.859,5.47c2.108,2.772,3.164,6.227,3.164,10.366
	c0,5.625-2.056,10.375-6.142,14.281c-4.102,3.906-9.281,5.859-15.531,5.859c-5.641,0-10.327-1.68-14.063-5.039
	C765.398,459.219,763.266,454.867,762.742,449.508L762.742,449.508z M854.156,458.883v7.603h-42.5
	c-0.07-1.914,0.242-3.728,0.914-5.492c1.086-2.892,2.813-5.734,5.203-8.547c2.375-2.813,5.827-6.063,10.327-9.75
	c6.992-5.72,11.712-10.25,14.173-13.609c2.452-3.344,3.68-6.508,3.68-9.5c0-3.125-1.117-5.781-3.353-7.922
	c-2.241-2.156-5.155-3.228-8.758-3.228c-3.797,0-6.836,1.148-9.117,3.438c-2.28,2.266-3.438,5.43-3.469,9.477l-8.117-0.844
	c0.556-6.055,2.648-10.664,6.281-13.844c3.617-3.172,8.484-4.75,14.603-4.75c6.172,0,11.047,1.703,14.655,5.117
	c3.595,3.438,5.392,7.68,5.392,12.733c0,2.578-0.531,5.103-1.578,7.578c-1.047,2.5-2.797,5.117-5.242,7.853
	c-2.438,2.75-6.5,6.522-12.18,11.328c-4.734,3.969-7.767,6.68-9.117,8.086c-1.353,1.43-2.461,2.852-3.336,4.272H854.156z
	 M792.438,556.328h-7.891v-50.313c-1.906,1.798-4.397,3.617-7.477,5.431c-3.095,1.813-5.859,3.188-8.313,4.078v-7.634
	c4.414-2.069,8.267-4.586,11.578-7.539c3.305-2.952,5.648-5.819,7.016-8.594h5.087V556.328L792.438,556.328z M854.156,548.727v7.603
	h-42.5c-0.07-1.914,0.242-3.728,0.914-5.492c1.086-2.891,2.813-5.734,5.203-8.547c2.375-2.813,5.827-6.063,10.327-9.75
	c6.992-5.719,11.712-10.25,14.173-13.609c2.452-3.344,3.68-6.508,3.68-9.5c0-3.125-1.117-5.78-3.353-7.922
	c-2.241-2.156-5.155-3.227-8.758-3.227c-3.797,0-6.836,1.147-9.117,3.438c-2.28,2.267-3.438,5.431-3.469,9.478l-8.117-0.845
	c0.556-6.055,2.648-10.663,6.281-13.844c3.617-3.172,8.484-4.75,14.603-4.75c6.172,0,11.047,1.703,14.655,5.117
	c3.595,3.438,5.392,7.68,5.392,12.734c0,2.577-0.531,5.102-1.578,7.577c-1.047,2.5-2.797,5.117-5.242,7.853
	c-2.438,2.75-6.5,6.522-12.18,11.328c-4.734,3.969-7.767,6.68-9.117,8.086c-1.353,1.43-2.461,2.852-3.336,4.272H854.156z
	 M854.164,638.57v7.578h-42.5c-0.065-1.867,0.248-3.728,0.922-5.47c1.078-2.905,2.813-5.758,5.195-8.547
	c2.383-2.813,5.828-6.063,10.328-9.75c6.991-5.742,11.711-10.272,14.172-13.608c2.453-3.359,3.68-6.531,3.68-9.517
	c0-3.125-1.109-5.766-3.344-7.906c-2.25-2.155-5.156-3.227-8.767-3.227c-3.797,0-6.836,1.133-9.116,3.414
	c-2.273,2.289-3.438,5.453-3.47,9.477l-8.116-0.836c0.563-6.039,2.647-10.672,6.28-13.828c3.625-3.188,8.484-4.766,14.603-4.766
	c6.172,0,11.055,1.719,14.656,5.133c3.594,3.414,5.391,7.656,5.391,12.711c0,2.578-0.523,5.125-1.57,7.603
	c-1.055,2.477-2.805,5.102-5.25,7.852c-2.438,2.75-6.5,6.523-12.172,11.313c-4.734,3.983-7.773,6.672-9.125,8.102
	c-1.344,1.406-2.461,2.836-3.336,4.273L854.164,638.57L854.164,638.57z"/>
</svg>
