<?xml version="1.0" encoding="utf-8"?>
<!-- Generator: Adobe Illustrator 16.0.3, SVG Export Plug-In . SVG Version: 6.00 Build 0)  -->
<!DOCTYPE svg PUBLIC "-//W3C//DTD SVG 1.1//EN" "http://www.w3.org/Graphics/SVG/1.1/DTD/svg11.dtd">
<svg version="1.1" id="Layer_1" xmlns="http://www.w3.org/2000/svg" xmlns:xlink="http://www.w3.org/1999/xlink" x="0px" y="0px"
	 width="900px" height="900px" viewBox="0 0 900 900" enable-background="new 0 0 900 900" xml:space="preserve">
<path d="M86.553,153.923H72.715V65.74c-3.34,3.184-7.705,6.357-13.115,9.531c-5.4,3.184-10.264,5.566-14.561,7.158V69.05
	c7.734-3.643,14.502-8.047,20.293-13.223c5.791-5.176,9.893-10.205,12.305-15.068h8.916V153.923z M121.992,98.337
	c0-13.32,1.377-24.053,4.111-32.178c2.744-8.115,6.816-14.385,12.227-18.789c5.41-4.414,12.207-6.611,20.41-6.611
	c6.045,0,11.357,1.211,15.918,3.652c4.561,2.432,8.33,5.938,11.299,10.527c2.969,4.589,5.303,10.176,7.002,16.758
	c1.689,6.592,2.529,15.469,2.529,26.641c0,13.223-1.357,23.896-4.072,32.021s-6.777,14.404-12.188,18.838
	c-5.4,4.434-12.236,6.65-20.488,6.65c-10.859,0-19.395-3.896-25.596-11.689C125.713,134.783,121.992,119.509,121.992,98.337
	L121.992,98.337z M136.221,98.337c0,18.506,2.158,30.82,6.494,36.943c4.326,6.123,9.668,9.189,16.025,9.189
	c6.357,0,11.699-3.076,16.035-9.229c4.326-6.152,6.494-18.447,6.494-36.904c0-18.555-2.168-30.879-6.494-36.982
	c-4.336-6.094-9.727-9.141-16.182-9.141c-6.357,0-11.436,2.686-15.225,8.066C138.604,67.156,136.221,79.841,136.221,98.337
	L136.221,98.337z M210.488,55.974V42.673h72.959v10.771c-7.178,7.637-14.287,17.783-21.338,30.439
	c-7.051,12.656-12.49,25.684-16.338,39.053c-2.764,9.434-4.531,19.766-5.303,30.986H226.25c0.146-8.867,1.895-19.58,5.225-32.139
	c3.33-12.559,8.105-24.658,14.336-36.328c6.23-11.65,12.852-21.484,19.873-29.482L210.488,55.974L210.488,55.974z M258.252,652.834
	v-74.102h27.803c5.664,0,10.205,0.741,13.623,2.245c3.418,1.505,6.094,3.81,8.037,6.935c1.934,3.104,2.9,6.367,2.9,9.766
	c0,3.185-0.85,6.152-2.568,8.945c-1.719,2.813-4.316,5.059-7.793,6.777c4.482,1.309,7.93,3.555,10.342,6.719
	c2.412,3.184,3.613,6.914,3.613,11.229c0,3.478-0.732,6.699-2.197,9.668c-1.465,2.988-3.281,5.293-5.439,6.914
	c-2.148,1.621-4.854,2.832-8.105,3.652c-3.252,0.84-7.236,1.25-11.953,1.25L258.252,652.834L258.252,652.834z M268.057,609.865
	h16.025c4.346,0,7.461-0.293,9.355-0.859c2.49-0.742,4.365-1.973,5.635-3.69c1.26-1.72,1.895-3.867,1.895-6.466
	c0-2.461-0.586-4.629-1.768-6.504c-1.182-1.854-2.871-3.145-5.059-3.828c-2.188-0.703-5.947-1.034-11.27-1.034h-14.814
	L268.057,609.865L268.057,609.865z M268.057,644.084h18.457c3.164,0,5.391-0.117,6.67-0.352c2.256-0.41,4.141-1.074,5.664-2.031
	c1.514-0.938,2.754-2.305,3.74-4.121c0.977-1.797,1.465-3.867,1.465-6.23c0-2.772-0.713-5.155-2.129-7.207
	c-1.416-2.03-3.379-3.477-5.889-4.297c-2.51-0.819-6.123-1.229-10.84-1.229h-17.139L268.057,644.084L268.057,644.084z
	 M323.154,625.998c0-9.941,2.764-17.305,8.291-22.09c4.609-3.984,10.244-5.978,16.885-5.978c7.373,0,13.408,2.422,18.086,7.267
	c4.688,4.823,7.031,11.504,7.031,20.039c0,6.895-1.035,12.344-3.105,16.289c-2.08,3.965-5.088,7.051-9.053,9.237
	c-3.955,2.188-8.281,3.281-12.959,3.281c-7.52,0-13.594-2.402-18.223-7.227C325.469,641.994,323.154,635.061,323.154,625.998
	L323.154,625.998z M332.5,625.998c0,6.875,1.504,12.012,4.502,15.43s6.777,5.138,11.328,5.138c4.512,0,8.271-1.72,11.27-5.156
	c2.999-3.438,4.492-8.672,4.492-15.724c0-6.641-1.504-11.659-4.521-15.077c-3.018-3.438-6.768-5.138-11.24-5.138
	c-4.551,0-8.33,1.699-11.328,5.099C334.004,613.986,332.5,619.123,332.5,625.998L332.5,625.998z M384.111,652.834v-74.102h9.092
	v26.582c4.248-4.923,9.609-7.384,16.074-7.384c3.975,0,7.432,0.781,10.36,2.363c2.939,1.563,5.029,3.729,6.3,6.484
	c1.26,2.772,1.895,6.776,1.895,12.03v34.023h-9.102v-34.023c0-4.551-0.986-7.852-2.959-9.922c-1.964-2.09-4.757-3.125-8.359-3.125
	c-2.695,0-5.234,0.703-7.607,2.109c-2.373,1.387-4.072,3.281-5.078,5.684c-1.016,2.383-1.523,5.703-1.523,9.902v29.375h-9.093
	V652.834z M441.582,652.834v-53.691h8.193v8.146c2.09-3.81,4.014-6.31,5.78-7.539c1.777-1.211,3.722-1.816,5.841-1.816
	c3.065,0,6.182,0.978,9.354,2.931l-3.135,8.457c-2.228-1.328-4.453-1.974-6.67-1.974c-1.992,0-3.779,0.586-5.361,1.797
	c-1.582,1.191-2.715,2.853-3.389,4.962c-1.007,3.241-1.515,6.776-1.515,10.625v28.104L441.582,652.834L441.582,652.834z
	 M476.201,589.201v-10.469h9.102v10.469H476.201z M476.201,652.834v-53.691h9.102v53.691H476.201z M534.326,652.834v-7.891
	c-4.18,6.073-9.854,9.102-17.031,9.102c-3.174,0-6.123-0.604-8.877-1.816c-2.744-1.211-4.785-2.733-6.113-4.59
	c-1.328-1.836-2.266-4.082-2.803-6.737c-0.371-1.777-0.557-4.609-0.557-8.496v-33.263h9.102v29.785c0,4.746,0.186,7.949,0.557,9.59
	c0.566,2.402,1.777,4.277,3.634,5.646c1.855,1.368,4.149,2.051,6.875,2.051c2.733,0,5.293-0.703,7.686-2.108
	c2.394-1.388,4.082-3.302,5.078-5.703c0.996-2.402,1.494-5.898,1.494-10.488v-28.77h9.092v53.69L534.326,652.834L534.326,652.834z
	 M556.729,652.834v-53.691h8.136v7.539c1.688-2.637,3.926-4.746,6.719-6.348c2.803-1.602,5.986-2.402,9.561-2.402
	c3.976,0,7.236,0.841,9.775,2.48c2.549,1.66,4.336,3.965,5.381,6.934c4.248-6.27,9.775-9.414,16.582-9.414
	c5.322,0,9.414,1.484,12.285,4.435c2.861,2.949,4.297,7.479,4.297,13.612v36.855h-9.053v-33.828c0-3.633-0.293-6.25-0.879-7.852
	c-0.597-1.603-1.66-2.892-3.213-3.867c-1.554-0.977-3.369-1.465-5.459-1.465c-3.771,0-6.904,1.25-9.404,3.77
	c-2.49,2.5-3.74,6.523-3.74,12.051v31.191h-9.092v-34.883c0-4.043-0.742-7.07-2.228-9.103c-1.483-2.012-3.905-3.026-7.274-3.026
	c-2.568,0-4.933,0.684-7.109,2.031c-2.168,1.348-3.739,3.301-4.727,5.897c-0.978,2.598-1.465,6.348-1.465,11.23v27.852
	L556.729,652.834L556.729,652.834z M57.373,859.24v-94.668h20.068v7.52H66.475v79.609h10.967v7.539H57.373L57.373,859.24z
	 M131.221,829.924v8.75H82.246c-0.075-2.159,0.287-4.312,1.064-6.328c1.24-3.34,3.242-6.621,5.986-9.844
	c2.744-3.242,6.709-6.992,11.904-11.229c8.047-6.603,13.496-11.837,16.328-15.685c2.822-3.867,4.238-7.52,4.238-10.957
	c0-3.594-1.289-6.641-3.867-9.121c-2.578-2.479-5.938-3.711-10.078-3.711c-4.385,0-7.891,1.31-10.518,3.945
	c-2.627,2.617-3.955,6.27-3.994,10.918l-9.346-0.957c0.635-6.973,3.047-12.305,7.227-15.957s9.785-5.488,16.836-5.488
	c7.109,0,12.734,1.974,16.875,5.918c4.15,3.945,6.221,8.828,6.221,14.669c0,2.948-0.605,5.879-1.816,8.729
	c-1.221,2.871-3.232,5.879-6.045,9.063c-2.813,3.163-7.49,7.5-14.023,13.026c-5.459,4.59-8.965,7.695-10.518,9.336
	c-1.553,1.621-2.832,3.281-3.838,4.922H131.221L131.221,829.924z M141.582,774.279v-8.75h47.969v7.069
	c-4.717,5.021-9.395,11.699-14.023,20.021c-4.639,8.32-8.213,16.895-10.742,25.684c-1.826,6.191-2.988,12.988-3.486,20.371h-9.355
	c0.098-5.84,1.25-12.871,3.438-21.133s5.332-16.211,9.424-23.887c4.102-7.656,8.447-14.121,13.066-19.375H141.582L141.582,774.279z
	 M198.545,802.131c0-8.77,0.898-15.82,2.705-21.152c1.797-5.352,4.482-9.473,8.037-12.362c3.555-2.89,8.027-4.355,13.418-4.355
	c3.975,0,7.461,0.802,10.459,2.402s5.479,3.906,7.432,6.934c1.953,3.009,3.486,6.681,4.6,11.017c1.114,4.336,1.67,10.176,1.67,17.52
	c0,8.691-0.889,15.703-2.676,21.056c-1.787,5.331-4.463,9.452-8.018,12.383c-3.555,2.91-8.047,4.354-13.467,4.354
	c-7.148,0-12.754-2.559-16.836-7.676C200.986,826.076,198.545,816.037,198.545,802.131L198.545,802.131z M207.891,802.131
	c0,12.168,1.426,20.254,4.277,24.277c2.842,4.022,6.357,6.035,10.537,6.035c4.18,0,7.695-2.013,10.537-6.056
	c2.852-4.043,4.268-12.129,4.268-24.258c0-12.207-1.416-20.313-4.268-24.315c-2.842-4.005-6.396-6.017-10.635-6.017
	c-4.18,0-7.52,1.777-10.01,5.313C209.463,781.623,207.891,789.963,207.891,802.131z M273.867,859.24h-20.068v-7.539h10.967v-79.609
	h-10.967v-7.52h20.068V859.24L273.867,859.24z M284.57,255.457h73.906c14.629,0,25.537,0.615,32.725,1.836
	c7.188,1.221,13.623,3.76,19.297,7.627s10.41,9.014,14.189,15.449c3.778,6.435,5.674,13.643,5.674,21.631
	c0,8.662-2.334,16.602-7.002,23.838c-4.658,7.228-10.986,12.656-18.976,16.271c11.26,3.271,19.922,8.866,25.978,16.768
	c6.055,7.91,9.082,17.197,9.082,27.871c0,8.408-1.953,16.592-5.859,24.531c-3.916,7.948-9.258,14.297-16.025,19.043
	c-6.768,4.756-15.106,7.676-25.029,8.77c-6.221,0.674-21.23,1.094-45.029,1.26h-62.93L284.57,255.457L284.57,255.457z
	 M321.904,286.238v42.754h24.463c14.551,0,23.584-0.215,27.119-0.635c6.387-0.753,11.416-2.959,15.068-6.621
	c3.662-3.662,5.488-8.468,5.488-14.443c0-5.713-1.582-10.361-4.727-13.936c-3.154-3.574-7.842-5.732-14.063-6.494
	c-3.701-0.42-14.336-0.625-31.914-0.625H321.904L321.904,286.238z M321.904,359.763v49.435h34.551
	c13.457,0,21.992-0.381,25.605-1.133c5.547-1.007,10.068-3.468,13.555-7.384c3.485-3.905,5.233-9.141,5.233-15.692
	c0-5.558-1.348-10.265-4.032-14.131c-2.695-3.867-6.583-6.681-11.67-8.447c-5.088-1.768-16.123-2.646-33.105-2.646L321.904,359.763
	L321.904,359.763z M506.025,255.457v67.979c11.436-13.368,25.098-20.049,40.996-20.049c8.153,0,15.508,1.514,22.069,4.541
	c6.553,3.027,11.494,6.896,14.814,11.603c3.319,4.707,5.596,9.922,6.807,15.635c1.221,5.723,1.836,14.59,1.836,26.611v78.573
	h-35.438v-70.752c0-14.043-0.675-22.948-2.021-26.737c-1.348-3.779-3.721-6.787-7.129-9.015c-3.398-2.227-7.666-3.34-12.793-3.34
	c-5.889,0-11.143,1.426-15.771,4.287c-4.618,2.852-8.008,7.168-10.146,12.92c-2.148,5.762-3.223,14.277-3.223,25.547v67.09h-35.431
	V255.457H506.025L506.025,255.457z M854.17,99.539v7.588h-42.5c-0.068-1.904,0.244-3.73,0.918-5.479
	c1.084-2.9,2.813-5.752,5.195-8.555c2.383-2.813,5.83-6.055,10.332-9.746c6.992-5.732,11.709-10.264,14.17-13.613
	c2.451-3.35,3.682-6.514,3.682-9.502c0-3.125-1.113-5.771-3.35-7.92c-2.246-2.148-5.156-3.223-8.76-3.223
	c-3.8,0-6.836,1.143-9.121,3.428c-2.275,2.275-3.438,5.439-3.467,9.473l-8.115-0.84c0.557-6.045,2.646-10.664,6.278-13.838
	c3.623-3.174,8.486-4.756,14.601-4.756c6.172,0,11.055,1.709,14.658,5.127c3.594,3.428,5.391,7.666,5.391,12.725
	c0,2.578-0.527,5.107-1.572,7.588c-1.055,2.49-2.803,5.107-5.244,7.852c-2.44,2.754-6.504,6.523-12.178,11.318
	c-4.736,3.975-7.772,6.68-9.121,8.096c-1.348,1.416-2.461,2.842-3.34,4.277H854.17L854.17,99.539z M824.824,162.097
	c-3.271-1.201-5.703-2.91-7.285-5.137c-1.572-2.217-2.363-4.883-2.363-7.979c0-4.678,1.681-8.613,5.039-11.807
	c3.369-3.184,7.842-4.775,13.428-4.775c5.615,0,10.138,1.631,13.556,4.893s5.137,7.227,5.137,11.904
	c0,2.988-0.791,5.586-2.354,7.793c-1.563,2.207-3.937,3.906-7.13,5.107c3.955,1.289,6.953,3.359,9.015,6.23
	c2.069,2.861,3.096,6.289,3.096,10.264c0,5.498-1.943,10.117-5.83,13.857c-3.896,3.75-9.014,5.615-15.361,5.615
	c-6.338,0-11.454-1.875-15.352-5.635c-3.887-3.76-5.83-8.447-5.83-14.063c0-4.18,1.055-7.676,3.185-10.498
	C817.891,165.046,820.908,163.123,824.824,162.097z M820.703,178.416c0,2.256,0.527,4.434,1.602,6.533
	c1.064,2.109,2.656,3.74,4.756,4.893c2.082,1.146,4.422,1.741,6.798,1.729c3.778,0,6.895-1.211,9.346-3.633
	c2.461-2.432,3.69-5.518,3.69-9.258c0-3.799-1.27-6.943-3.799-9.434c-2.528-2.48-5.692-3.73-9.502-3.73
	c-3.711,0-6.787,1.23-9.229,3.691C821.924,171.658,820.703,174.734,820.703,178.416L820.703,178.416z M823.242,148.718
	c0,3.037,0.986,5.527,2.938,7.451c1.964,1.934,4.502,2.9,7.638,2.9c3.037,0,5.537-0.957,7.479-2.871
	c1.943-1.914,2.92-4.268,2.92-7.041c0-2.9-1.006-5.332-3.008-7.305s-4.502-2.959-7.479-2.959c-3.019,0-5.519,0.957-7.5,2.891
	C824.238,143.718,823.242,146.023,823.242,148.718L823.242,148.718z M792.441,286.804h-7.892v-50.313
	c-1.903,1.807-4.395,3.623-7.479,5.439c-3.086,1.807-5.859,3.174-8.312,4.072v-7.627c4.414-2.08,8.271-4.59,11.582-7.549
	c3.301-2.949,5.646-5.82,7.013-8.594h5.088V286.804L792.441,286.804z M824.814,251.931c-3.271-1.201-5.703-2.91-7.285-5.137
	c-1.572-2.217-2.363-4.883-2.363-7.979c0-4.678,1.68-8.613,5.039-11.807c3.369-3.184,7.842-4.775,13.428-4.775
	c5.615,0,10.137,1.631,13.555,4.893c3.418,3.262,5.138,7.227,5.138,11.904c0,2.988-0.791,5.586-2.354,7.793
	c-1.563,2.207-3.936,3.906-7.129,5.107c3.955,1.289,6.953,3.359,9.014,6.23c2.07,2.861,3.097,6.289,3.097,10.264
	c0,5.498-1.943,10.117-5.83,13.857c-3.896,3.75-9.014,5.615-15.361,5.615c-6.338,0-11.455-1.875-15.352-5.635
	c-3.888-3.76-5.83-8.447-5.83-14.063c0-4.18,1.055-7.676,3.184-10.498C817.881,254.88,820.898,252.957,824.814,251.931z
	 M820.693,268.25c0,2.256,0.526,4.434,1.602,6.533c1.064,2.109,2.656,3.74,4.756,4.893c2.082,1.146,4.421,1.741,6.797,1.729
	c3.779,0,6.896-1.211,9.347-3.633c2.461-2.432,3.69-5.518,3.69-9.258c0-3.799-1.27-6.943-3.799-9.434
	c-2.529-2.48-5.693-3.73-9.502-3.73c-3.711,0-6.787,1.23-9.229,3.691C821.914,261.492,820.693,264.568,820.693,268.25
	L820.693,268.25z M823.232,238.552c0,3.037,0.985,5.527,2.938,7.451c1.963,1.934,4.502,2.9,7.637,2.9
	c3.037,0,5.537-0.957,7.48-2.871c1.943-1.914,2.92-4.268,2.92-7.041c0-2.9-1.006-5.332-3.008-7.305s-4.502-2.959-7.48-2.959
	c-3.018,0-5.518,0.957-7.5,2.891C824.229,233.552,823.232,235.857,823.232,238.552L823.232,238.552z M762.744,359.675l7.9-1.055
	c0.907,4.473,2.45,7.695,4.629,9.668c2.178,1.973,4.834,2.959,7.959,2.959c3.711,0,6.854-1.279,9.414-3.857
	c2.559-2.567,3.838-5.762,3.838-9.561c0-3.623-1.191-6.621-3.556-8.976c-2.373-2.354-5.381-3.524-9.043-3.524
	c-1.483,0-3.34,0.293-5.565,0.879l0.879-6.934c0.527,0.059,0.947,0.088,1.27,0.088c3.359,0,6.388-0.879,9.082-2.638
	c2.687-1.748,4.033-4.452,4.033-8.114c0-2.892-0.977-5.293-2.938-7.188c-1.953-1.904-4.492-2.852-7.589-2.852
	c-3.065,0-5.625,0.957-7.676,2.891c-2.051,1.935-3.358,4.824-3.945,8.691l-7.899-1.406c0.967-5.293,3.164-9.395,6.582-12.305
	s7.676-4.365,12.764-4.365c3.506,0,6.738,0.752,9.697,2.256c2.949,1.504,5.215,3.564,6.776,6.162
	c1.563,2.607,2.345,5.371,2.345,8.291c0,2.783-0.742,5.313-2.236,7.588c-1.494,2.285-3.701,4.102-6.621,5.439
	c3.799,0.879,6.758,2.705,8.857,5.469c2.108,2.764,3.164,6.221,3.164,10.371c0,5.615-2.052,10.371-6.144,14.276
	c-4.102,3.906-9.276,5.859-15.526,5.859c-5.646,0-10.332-1.68-14.063-5.049C765.4,369.382,763.271,365.027,762.744,359.675
	L762.744,359.675z M854.16,369.06v7.589h-42.5c-0.068-1.904,0.244-3.73,0.918-5.479c1.084-2.9,2.813-5.752,5.195-8.555
	c2.383-2.813,5.83-6.056,10.332-9.746c6.991-5.732,11.709-10.265,14.17-13.613c2.45-3.35,3.682-6.514,3.682-9.502
	c0-3.125-1.113-5.771-3.35-7.92c-2.246-2.148-5.156-3.223-8.761-3.223c-3.799,0-6.836,1.143-9.12,3.428
	c-2.275,2.274-3.438,5.438-3.468,9.473l-8.114-0.84c0.557-6.045,2.646-10.664,6.278-13.838c3.623-3.174,8.486-4.756,14.601-4.756
	c6.172,0,11.055,1.709,14.657,5.127c3.595,3.428,5.392,7.666,5.392,12.725c0,2.578-0.527,5.107-1.572,7.588
	c-1.055,2.49-2.803,5.107-5.244,7.853c-2.44,2.754-6.504,6.522-12.178,11.317c-4.736,3.976-7.773,6.681-9.121,8.097
	s-2.461,2.842-3.34,4.276H854.16z M762.744,449.509l7.9-1.055c0.907,4.477,2.45,7.7,4.629,9.672
	c2.178,1.972,4.834,2.949,7.959,2.949c3.711,0,6.854-1.271,9.414-3.849c2.559-2.577,3.838-5.766,3.838-9.564
	c0-3.623-1.191-6.621-3.556-8.975c-2.373-2.354-5.381-3.525-9.043-3.525c-1.483,0-3.34,0.293-5.565,0.879l0.879-6.934
	c0.527,0.059,0.947,0.088,1.27,0.088c3.359,0,6.388-0.879,9.082-2.638c2.687-1.747,4.033-4.452,4.033-8.114
	c0-2.892-0.977-5.293-2.938-7.188c-1.953-1.903-4.492-2.852-7.589-2.852c-3.065,0-5.625,0.957-7.676,2.891
	c-2.051,1.935-3.358,4.824-3.945,8.691l-7.899-1.406c0.967-5.293,3.164-9.396,6.582-12.305c3.418-2.91,7.676-4.365,12.764-4.365
	c3.506,0,6.738,0.752,9.697,2.256c2.949,1.504,5.215,3.564,6.776,6.162c1.563,2.606,2.345,5.371,2.345,8.291
	c0,2.783-0.742,5.313-2.236,7.588c-1.494,2.285-3.701,4.103-6.621,5.439c3.799,0.879,6.758,2.704,8.857,5.469
	c2.108,2.764,3.164,6.221,3.164,10.371c0,5.62-2.052,10.366-6.144,14.271c-4.102,3.906-9.276,5.859-15.526,5.859
	c-5.646,0-10.332-1.68-14.063-5.039C765.4,459.218,763.271,454.865,762.744,449.509L762.744,449.509z M854.16,458.889v7.599h-42.5
	c-0.068-1.914,0.244-3.73,0.918-5.488c1.084-2.891,2.813-5.742,5.195-8.555c2.383-2.808,5.83-6.05,10.332-9.741
	c6.991-5.732,11.709-10.264,14.17-13.613c2.45-3.35,3.682-6.514,3.682-9.502c0-3.125-1.113-5.771-3.35-7.92
	c-2.246-2.148-5.156-3.223-8.761-3.223c-3.799,0-6.836,1.143-9.12,3.428c-2.275,2.275-3.438,5.438-3.468,9.473l-8.114-0.84
	c0.557-6.045,2.646-10.664,6.278-13.838c3.623-3.174,8.486-4.756,14.601-4.756c6.172,0,11.055,1.709,14.657,5.127
	c3.595,3.428,5.392,7.666,5.392,12.725c0,2.578-0.527,5.107-1.572,7.588c-1.055,2.49-2.803,5.107-5.244,7.853
	c-2.44,2.754-6.504,6.522-12.178,11.317c-4.736,3.976-7.773,6.685-9.121,8.091c-1.348,1.426-2.461,2.852-3.34,4.276H854.16
	L854.16,458.889z M792.441,556.33h-7.892v-50.313c-1.903,1.798-4.395,3.613-7.479,5.431c-3.085,1.816-5.859,3.184-8.312,4.082
	v-7.638c4.414-2.069,8.271-4.59,11.582-7.539c3.302-2.948,5.646-5.819,7.013-8.594h5.088V556.33L792.441,556.33z M812.705,539.357
	l7.9-1.056c0.907,4.474,2.45,7.695,4.629,9.668c2.178,1.974,4.834,2.949,7.959,2.949c3.711,0,6.854-1.27,9.414-3.848
	c2.559-2.578,3.838-5.763,3.838-9.57c0-3.613-1.191-6.621-3.556-8.965c-2.372-2.363-5.381-3.535-9.043-3.535
	c-1.483,0-3.34,0.293-5.565,0.879l0.879-6.934c0.527,0.059,0.947,0.098,1.27,0.098c3.359,0,6.388-0.879,9.082-2.637
	c2.687-1.758,4.033-4.453,4.033-8.125c0-2.892-0.977-5.293-2.938-7.188c-1.953-1.895-4.492-2.852-7.589-2.852
	c-3.065,0-5.625,0.957-7.676,2.891c-2.051,1.935-3.358,4.824-3.944,8.691l-7.9-1.406c0.967-5.293,3.164-9.395,6.582-12.305
	s7.676-4.355,12.764-4.355c3.506,0,6.738,0.742,9.697,2.246c2.949,1.504,5.215,3.574,6.777,6.172
	c1.562,2.599,2.344,5.371,2.344,8.281c0,2.793-0.742,5.313-2.236,7.598s-3.701,4.103-6.621,5.431
	c3.799,0.879,6.758,2.715,8.857,5.469c2.108,2.772,3.164,6.229,3.164,10.371c0,5.625-2.052,10.371-6.144,14.276
	c-4.102,3.906-9.276,5.859-15.526,5.859c-5.646,0-10.332-1.68-14.063-5.039C815.361,549.063,813.232,544.709,812.705,539.357
	L812.705,539.357z M854.17,638.576v7.578h-42.5c-0.068-1.896,0.244-3.73,0.918-5.47c1.084-2.909,2.813-5.762,5.195-8.555
	c2.383-2.813,5.83-6.055,10.332-9.746c6.992-5.742,11.709-10.272,14.17-13.612c2.451-3.359,3.682-6.523,3.682-9.513
	c0-3.125-1.112-5.762-3.35-7.91c-2.246-2.147-5.156-3.223-8.76-3.223c-3.8,0-6.836,1.133-9.121,3.418
	c-2.275,2.285-3.438,5.449-3.467,9.474l-8.115-0.841c0.557-6.034,2.646-10.664,6.279-13.828c3.622-3.184,8.485-4.766,14.6-4.766
	c6.172,0,11.055,1.719,14.658,5.137c3.594,3.418,5.391,7.656,5.391,12.716c0,2.577-0.527,5.116-1.572,7.598
	c-1.055,2.479-2.803,5.098-5.244,7.852c-2.44,2.754-6.504,6.523-12.178,11.31c-4.736,3.983-7.772,6.68-9.121,8.104
	c-1.348,1.406-2.461,2.832-3.34,4.277H854.17L854.17,638.576z"/>
</svg>
