<?xml version="1.0" encoding="utf-8"?>
<!-- Generator: Adobe Illustrator 16.0.3, SVG Export Plug-In . SVG Version: 6.00 Build 0)  -->
<!DOCTYPE svg PUBLIC "-//W3C//DTD SVG 1.1//EN" "http://www.w3.org/Graphics/SVG/1.1/DTD/svg11.dtd">
<svg version="1.1" id="Layer_1" xmlns="http://www.w3.org/2000/svg" xmlns:xlink="http://www.w3.org/1999/xlink" x="0px" y="0px"
	 width="900px" height="900px" viewBox="0 0 900 900" enable-background="new 0 0 900 900" xml:space="preserve">
<path d="M86.548,153.923H72.71V65.74c-3.34,3.184-7.705,6.357-13.115,9.531c-5.4,3.184-10.264,5.566-14.561,7.158V69.05
	c7.734-3.643,14.502-8.047,20.293-13.223c5.791-5.176,9.893-10.205,12.305-15.068h8.916V153.923z M121.987,98.337
	c0-13.32,1.377-24.053,4.111-32.178c2.744-8.115,6.816-14.385,12.227-18.789c5.41-4.414,12.207-6.611,20.41-6.611
	c6.045,0,11.357,1.211,15.918,3.652c4.561,2.432,8.33,5.938,11.299,10.527c2.969,4.589,5.303,10.176,7.002,16.758
	c1.689,6.592,2.529,15.469,2.529,26.641c0,13.223-1.357,23.896-4.072,32.021c-2.715,8.125-6.777,14.404-12.188,18.838
	c-5.4,4.434-12.236,6.65-20.488,6.65c-10.859,0-19.395-3.896-25.596-11.689C125.708,134.783,121.987,119.509,121.987,98.337
	L121.987,98.337z M136.216,98.337c0,18.506,2.158,30.82,6.494,36.943c4.326,6.123,9.668,9.189,16.025,9.189
	s11.699-3.076,16.035-9.229c4.326-6.152,6.494-18.447,6.494-36.904c0-18.555-2.168-30.879-6.494-36.982
	c-4.336-6.094-9.727-9.141-16.182-9.141c-6.357,0-11.436,2.686-15.225,8.066C138.599,67.156,136.216,79.841,136.216,98.337
	L136.216,98.337z M230.854,92.8c-5.742-2.1-10-5.098-12.764-8.994c-2.764-3.896-4.15-8.555-4.15-13.994
	c0-8.193,2.949-15.088,8.838-20.674c5.898-5.586,13.74-8.379,23.525-8.379c9.844,0,17.764,2.852,23.76,8.564
	c5.996,5.723,8.994,12.676,8.994,20.879c0,5.225-1.377,9.775-4.111,13.643c-2.744,3.867-6.914,6.855-12.5,8.955
	c6.924,2.256,12.188,5.898,15.801,10.918c3.613,5.029,5.42,11.025,5.42,17.988c0,9.639-3.408,17.734-10.225,24.297
	s-15.781,9.844-26.904,9.844s-20.098-3.291-26.914-9.883c-6.816-6.582-10.225-14.795-10.225-24.639
	c0-7.324,1.865-13.467,5.576-18.408C218.696,97.966,223.989,94.597,230.854,92.8z M223.628,121.404
	c0,3.945,0.938,7.764,2.803,11.455c1.875,3.691,4.648,6.543,8.34,8.574c3.691,2.021,7.666,3.037,11.924,3.037
	c6.611,0,12.07-2.129,16.367-6.387c4.307-4.248,6.465-9.658,6.465-16.221c0-6.66-2.217-12.168-6.65-16.523s-9.98-6.543-16.65-6.543
	c-6.504,0-11.904,2.158-16.182,6.465C225.767,109.568,223.628,114.949,223.628,121.404L223.628,121.404z M228.081,69.353
	c0,5.332,1.719,9.688,5.156,13.076c3.428,3.379,7.891,5.068,13.379,5.068c5.332,0,9.697-1.68,13.105-5.039
	c3.408-3.35,5.117-7.461,5.117-12.334c0-5.078-1.758-9.346-5.273-12.803c-3.506-3.457-7.881-5.187-13.105-5.187
	c-5.283,0-9.658,1.689-13.145,5.068C229.829,60.593,228.081,64.636,228.081,69.353z M250.376,652.834v-74.102h9.805v30.43h38.516
	v-30.43h9.805v74.102h-9.805v-34.922h-38.516v34.922H250.376z M358.696,646.213c-3.379,2.853-6.621,4.883-9.736,6.055
	c-3.115,1.191-6.455,1.777-10.029,1.777c-5.898,0-10.43-1.445-13.594-4.315c-3.174-2.892-4.756-6.563-4.756-11.056
	c0-2.617,0.596-5.02,1.797-7.207c1.191-2.168,2.764-3.905,4.697-5.215c1.934-1.328,4.121-2.324,6.543-2.988
	c1.787-0.469,4.482-0.938,8.086-1.366c7.354-0.88,12.754-1.914,16.23-3.125c0.029-1.25,0.049-2.052,0.049-2.384
	c0-3.711-0.859-6.327-2.578-7.832c-2.324-2.051-5.781-3.086-10.361-3.086c-4.277,0-7.441,0.742-9.473,2.246
	c-2.041,1.504-3.555,4.16-4.531,7.97l-8.896-1.212c0.811-3.809,2.148-6.895,3.994-9.237c1.855-2.344,4.531-4.142,8.037-5.41
	c3.506-1.25,7.568-1.896,12.188-1.896c4.58,0,8.301,0.548,11.172,1.621c2.861,1.074,4.961,2.441,6.309,4.063
	c1.348,1.641,2.295,3.711,2.832,6.19c0.303,1.563,0.459,4.355,0.459,8.398v12.129c0,8.457,0.195,13.81,0.576,16.055
	c0.398,2.264,1.178,4.443,2.305,6.445h-9.502C359.565,650.939,358.96,648.732,358.696,646.213L358.696,646.213z M357.935,625.881
	c-3.301,1.349-8.262,2.5-14.863,3.438c-3.74,0.547-6.387,1.151-7.93,1.836c-1.553,0.664-2.754,1.66-3.594,2.949
	c-0.84,1.288-1.26,2.733-1.26,4.315c0,2.422,0.918,4.453,2.754,6.074s4.521,2.422,8.057,2.422c3.506,0,6.621-0.762,9.355-2.305
	c2.725-1.523,4.736-3.633,6.016-6.289c0.977-2.051,1.465-5.078,1.465-9.103V625.881L357.935,625.881z M377.593,636.799l8.994-1.405
	c0.508,3.612,1.914,6.366,4.229,8.28c2.305,1.935,5.527,2.892,9.678,2.892c4.18,0,7.274-0.859,9.297-2.56s3.037-3.69,3.037-5.996
	c0-2.051-0.898-3.672-2.687-4.844c-1.239-0.801-4.346-1.836-9.297-3.086c-6.67-1.68-11.299-3.145-13.877-4.375
	c-2.578-1.229-4.531-2.93-5.859-5.098c-1.338-2.168-2.002-4.57-2.002-7.207c0-2.383,0.547-4.609,1.65-6.642
	c1.076-2.018,2.607-3.756,4.473-5.077c1.416-1.056,3.34-1.935,5.781-2.656c2.441-0.723,5.068-1.094,7.861-1.094
	c4.209,0,7.91,0.604,11.094,1.815c3.185,1.23,5.537,2.871,7.051,4.941c1.515,2.069,2.56,4.844,3.136,8.301l-8.896,1.229
	c-0.4-2.772-1.572-4.922-3.516-6.483c-1.935-1.543-4.668-2.324-8.213-2.324c-4.18,0-7.158,0.703-8.945,2.07
	c-1.787,1.387-2.676,3.008-2.676,4.862c0,1.172,0.371,2.246,1.113,3.185c0.742,0.977,1.904,1.776,3.486,2.422
	c0.908,0.332,3.584,1.113,8.037,2.324c6.436,1.719,10.928,3.125,13.467,4.219c2.549,1.094,4.541,2.695,5.996,4.785
	c1.445,2.09,2.168,4.688,2.168,7.772c0,3.047-0.879,5.898-2.656,8.574c-1.768,2.676-4.315,4.746-7.655,6.211
	c-3.33,1.465-7.109,2.207-11.318,2.207c-6.973,0-12.295-1.445-15.947-4.354C380.933,646.799,378.608,642.502,377.593,636.799
	L377.593,636.799z M429.351,636.799l8.994-1.405c0.509,3.612,1.914,6.366,4.229,8.28c2.305,1.935,5.526,2.892,9.678,2.892
	c4.18,0,7.275-0.859,9.297-2.56c2.022-1.7,3.037-3.69,3.037-5.996c0-2.051-0.898-3.672-2.686-4.844
	c-1.24-0.801-4.347-1.836-9.297-3.086c-6.671-1.68-11.3-3.145-13.878-4.375c-2.577-1.229-4.53-2.93-5.858-5.098
	c-1.338-2.168-2.002-4.57-2.002-7.207c0-2.383,0.547-4.609,1.649-6.642c1.076-2.018,2.607-3.756,4.474-5.077
	c1.416-1.056,3.34-1.935,5.78-2.656c2.441-0.723,5.068-1.094,7.861-1.094c4.209,0,7.91,0.604,11.094,1.815
	c3.185,1.23,5.537,2.871,7.052,4.941c1.514,2.069,2.559,4.844,3.135,8.301l-8.896,1.229c-0.399-2.772-1.571-4.922-3.516-6.483
	c-1.934-1.543-4.668-2.324-8.213-2.324c-4.18,0-7.158,0.703-8.945,2.07c-1.787,1.387-2.676,3.008-2.676,4.862
	c0,1.172,0.371,2.246,1.113,3.185c0.741,0.977,1.903,1.776,3.485,2.422c0.908,0.332,3.584,1.113,8.037,2.324
	c6.437,1.719,10.928,3.125,13.467,4.219c2.55,1.094,4.541,2.695,5.996,4.785c1.445,2.09,2.168,4.688,2.168,7.772
	c0,3.047-0.879,5.898-2.655,8.574c-1.769,2.676-4.316,4.746-7.656,6.211c-3.33,1.465-7.109,2.207-11.318,2.207
	c-6.973,0-12.295-1.445-15.947-4.354C432.689,646.799,430.366,642.502,429.351,636.799L429.351,636.799z M484.8,589.201v-10.469
	h9.103v10.469H484.8L484.8,589.201z M484.8,652.834v-53.69h9.103v53.69H484.8L484.8,652.834z M542.925,652.834v-7.891
	c-4.18,6.074-9.854,9.102-17.03,9.102c-3.175,0-6.123-0.604-8.878-1.815c-2.743-1.211-4.784-2.734-6.112-4.591
	c-1.328-1.836-2.267-4.082-2.804-6.737c-0.37-1.777-0.557-4.609-0.557-8.496v-33.262h9.103v29.784c0,4.746,0.186,7.949,0.557,9.591
	c0.565,2.401,1.777,4.276,3.633,5.645c1.856,1.368,4.15,2.051,6.875,2.051c2.734,0,5.293-0.703,7.686-2.108
	c2.394-1.388,4.082-3.302,5.078-5.703c0.996-2.402,1.494-5.898,1.494-10.488v-28.77h9.092v53.69L542.925,652.834L542.925,652.834z
	 M565.317,652.834v-53.69h8.135v7.538c1.688-2.637,3.926-4.745,6.719-6.348c2.803-1.602,5.986-2.402,9.562-2.402
	c3.975,0,7.235,0.841,9.774,2.48c2.549,1.66,4.336,3.965,5.381,6.934c4.248-6.27,9.775-9.414,16.582-9.414
	c5.322,0,9.414,1.484,12.285,4.435c2.861,2.949,4.297,7.479,4.297,13.613v36.854h-9.053v-33.828c0-3.633-0.293-6.25-0.879-7.852
	c-0.596-1.603-1.66-2.892-3.213-3.867c-1.554-0.976-3.369-1.465-5.459-1.465c-3.771,0-6.904,1.25-9.404,3.77
	c-2.49,2.5-3.74,6.523-3.74,12.052v31.19h-9.092v-34.883c0-4.043-0.742-7.07-2.227-9.102c-1.484-2.013-3.906-3.027-7.275-3.027
	c-2.567,0-4.932,0.684-7.108,2.031c-2.169,1.348-3.74,3.301-4.728,5.897c-0.977,2.599-1.465,6.349-1.465,11.23v27.852
	L565.317,652.834L565.317,652.834z M57.378,859.24v-94.668h20.068v7.52H66.479v79.609h10.967v7.539H57.378L57.378,859.24z
	 M131.226,829.924v8.75H82.251c-0.075-2.159,0.287-4.312,1.064-6.328c1.24-3.34,3.242-6.621,5.986-9.844
	c2.744-3.242,6.709-6.992,11.904-11.229c8.047-6.603,13.496-11.837,16.328-15.685c2.822-3.867,4.238-7.52,4.238-10.957
	c0-3.594-1.289-6.641-3.867-9.121c-2.578-2.479-5.938-3.711-10.078-3.711c-4.385,0-7.891,1.31-10.518,3.945
	c-2.627,2.617-3.955,6.27-3.994,10.918l-9.346-0.957c0.635-6.973,3.047-12.305,7.227-15.957c4.18-3.652,9.785-5.488,16.836-5.488
	c7.109,0,12.734,1.974,16.875,5.918c4.15,3.945,6.221,8.828,6.221,14.669c0,2.948-0.605,5.879-1.816,8.729
	c-1.221,2.871-3.232,5.879-6.045,9.063c-2.813,3.163-7.49,7.5-14.023,13.026c-5.459,4.59-8.965,7.695-10.518,9.336
	c-1.553,1.621-2.832,3.281-3.838,4.922H131.226L131.226,829.924z M188.188,782.717l-9.043,0.703
	c-0.811-3.574-1.953-6.172-3.438-7.772c-2.461-2.599-5.498-3.906-9.102-3.906c-2.9,0-5.439,0.819-7.627,2.44
	c-2.871,2.091-5.127,5.138-6.777,9.142c-1.65,4.004-2.51,9.727-2.578,17.129c2.188-3.34,4.873-5.801,8.037-7.422
	s6.484-2.422,9.961-2.422c6.064,0,11.221,2.227,15.488,6.698c4.258,4.453,6.396,10.234,6.396,17.306
	c0,4.647-1.006,8.965-3.008,12.969c-2.012,3.984-4.766,7.051-8.262,9.16c-3.506,2.129-7.49,3.184-11.934,3.184
	c-7.578,0-13.77-2.772-18.545-8.358c-4.795-5.566-7.178-14.767-7.178-27.578c0-14.316,2.637-24.728,7.93-31.23
	c4.619-5.664,10.83-8.496,18.652-8.496c5.83,0,10.605,1.642,14.326,4.902C185.22,772.443,187.446,776.955,188.188,782.717
	L188.188,782.717z M151.04,814.65c-0.008,3.111,0.672,6.186,1.992,9.004c1.338,2.871,3.193,5.059,5.586,6.543
	c2.393,1.504,4.902,2.246,7.529,2.246c3.848,0,7.148-1.543,9.912-4.648c2.764-3.086,4.141-7.305,4.141-12.637
	c0-5.117-1.357-9.142-4.092-12.09c-2.725-2.949-6.162-4.435-10.313-4.435c-4.111,0-7.598,1.484-10.459,4.435
	C152.475,806.018,151.04,809.885,151.04,814.65L151.04,814.65z M199.917,821.525l8.74-0.802c0.742,4.121,2.158,7.091,4.248,8.945
	c2.09,1.855,4.766,2.773,8.037,2.773c2.793,0,5.244-0.625,7.354-1.914c2.109-1.271,3.828-2.988,5.176-5.138
	c1.348-2.129,2.48-5.02,3.389-8.651c0.91-3.642,1.369-7.38,1.367-11.133c0-0.392-0.02-0.996-0.049-1.816
	c-1.826,2.891-4.307,5.254-7.461,7.051c-3.111,1.794-6.643,2.73-10.234,2.715c-6.133,0-11.318-2.227-15.566-6.68
	s-6.367-10.313-6.367-17.598c0-7.5,2.217-13.556,6.65-18.146c4.424-4.569,9.98-6.875,16.65-6.875c4.814,0,9.229,1.31,13.213,3.906
	c3.994,2.598,7.031,6.289,9.102,11.094c2.071,4.806,3.105,11.738,3.105,20.84c0,9.474-1.025,17.013-3.076,22.617
	c-2.061,5.625-5.117,9.883-9.18,12.813c-4.063,2.93-8.818,4.395-14.277,4.395c-5.791,0-10.527-1.602-14.199-4.823
	C202.866,831.896,200.659,827.365,199.917,821.525L199.917,821.525z M237.163,788.83c0-5.215-1.387-9.375-4.17-12.441
	c-2.773-3.065-6.123-4.59-10.029-4.59c-4.043,0-7.568,1.66-10.566,4.961s-4.502,7.578-4.502,12.832
	c0,4.707,1.426,8.555,4.277,11.504c2.842,2.949,6.357,4.414,10.537,4.414c4.209,0,7.676-1.465,10.391-4.414
	C235.806,798.146,237.163,794.064,237.163,788.83z M273.872,859.24h-20.068v-7.539h10.967v-79.609h-10.967v-7.52h20.068V859.24
	L273.872,859.24z M291.626,440.349V255.457h37.334v72.773h73.146v-72.773h37.334V440.35h-37.334v-80.84H328.96v80.84
	L291.626,440.349L291.626,440.349z M465.288,402.136l35.565-5.42c1.515,6.896,4.58,12.129,9.21,15.693
	c4.618,3.584,11.094,5.36,19.413,5.36c9.171,0,16.064-1.68,20.685-5.039c3.115-2.354,4.668-5.508,4.668-9.463
	c0-2.686-0.84-4.912-2.521-6.68c-1.768-1.68-5.723-3.242-11.854-4.668c-28.584-6.309-46.709-12.061-54.354-17.275
	c-10.597-7.235-15.89-17.284-15.89-30.146c0-11.603,4.58-21.357,13.74-29.258c9.17-7.9,23.379-11.855,42.627-11.855
	c18.33,0,31.953,2.988,40.869,8.955c8.906,5.967,15.049,14.795,18.408,26.484l-33.418,6.182c-1.437-5.215-4.142-9.209-8.136-11.981
	c-3.994-2.773-9.696-4.16-17.09-4.16c-9.336,0-16.016,1.299-20.059,3.905c-2.687,1.847-4.033,4.248-4.033,7.188
	c0,2.52,1.182,4.668,3.535,6.436c3.193,2.354,14.229,5.675,33.104,9.961c18.876,4.287,32.052,9.541,39.541,15.763
	c7.394,6.309,11.095,15.098,11.095,26.356c0,12.285-5.127,22.832-15.392,31.66c-10.254,8.828-25.43,13.242-45.526,13.242
	c-18.242,0-32.687-3.701-43.32-11.104C475.522,424.88,468.569,414.832,465.288,402.136L465.288,402.136z M854.175,99.539v7.588
	h-42.5c-0.067-1.904,0.244-3.73,0.918-5.479c1.084-2.9,2.813-5.752,5.195-8.555c2.383-2.813,5.83-6.055,10.332-9.746
	c6.992-5.732,11.709-10.264,14.17-13.613c2.451-3.35,3.682-6.514,3.682-9.502c0-3.125-1.112-5.771-3.35-7.92
	c-2.246-2.148-5.156-3.223-8.76-3.223c-3.8,0-6.836,1.143-9.121,3.428c-2.275,2.275-3.438,5.439-3.467,9.473l-8.115-0.84
	c0.557-6.045,2.646-10.664,6.279-13.838c3.622-3.174,8.485-4.756,14.6-4.756c6.172,0,11.055,1.709,14.658,5.127
	c3.594,3.428,5.391,7.666,5.391,12.725c0,2.578-0.526,5.107-1.572,7.588c-1.055,2.49-2.803,5.107-5.243,7.852
	c-2.441,2.754-6.505,6.523-12.179,11.318c-4.735,3.975-7.772,6.68-9.121,8.096c-1.348,1.416-2.461,2.842-3.34,4.277H854.175
	L854.175,99.539z M824.829,162.097c-3.271-1.201-5.703-2.91-7.285-5.137c-1.572-2.217-2.363-4.883-2.363-7.979
	c0-4.678,1.681-8.613,5.039-11.807c3.369-3.184,7.843-4.775,13.429-4.775c5.614,0,10.137,1.631,13.555,4.893
	s5.137,7.227,5.137,11.904c0,2.988-0.791,5.586-2.354,7.793c-1.563,2.207-3.937,3.906-7.129,5.107
	c3.955,1.289,6.952,3.359,9.014,6.23c2.07,2.861,3.096,6.289,3.096,10.264c0,5.498-1.942,10.117-5.83,13.857
	c-3.896,3.75-9.014,5.615-15.36,5.615c-6.339,0-11.455-1.875-15.353-5.635c-3.887-3.76-5.83-8.447-5.83-14.063
	c0-4.18,1.055-7.676,3.185-10.498C817.896,165.046,820.913,163.123,824.829,162.097z M820.708,178.416
	c0,2.256,0.527,4.434,1.602,6.533c1.064,2.109,2.656,3.74,4.757,4.893c2.081,1.146,4.421,1.741,6.797,1.729
	c3.778,0,6.895-1.211,9.346-3.633c2.461-2.432,3.691-5.518,3.691-9.258c0-3.799-1.271-6.943-3.8-9.434
	c-2.528-2.48-5.692-3.73-9.502-3.73c-3.711,0-6.787,1.23-9.229,3.691C821.929,171.658,820.708,174.734,820.708,178.416
	L820.708,178.416z M823.247,148.718c0,3.037,0.986,5.527,2.938,7.451c1.964,1.934,4.503,2.9,7.638,2.9
	c3.037,0,5.537-0.957,7.479-2.871c1.943-1.914,2.92-4.268,2.92-7.041c0-2.9-1.006-5.332-3.008-7.305s-4.502-2.959-7.479-2.959
	c-3.019,0-5.519,0.957-7.5,2.891C824.243,143.718,823.247,146.023,823.247,148.718L823.247,148.718z M792.446,286.804h-7.892
	v-50.313c-1.903,1.807-4.395,3.623-7.479,5.439c-3.086,1.807-5.859,3.174-8.312,4.072v-7.627c4.414-2.08,8.271-4.59,11.582-7.549
	c3.302-2.949,5.646-5.82,7.013-8.594h5.088V286.804L792.446,286.804z M824.819,251.931c-3.271-1.201-5.703-2.91-7.285-5.137
	c-1.572-2.217-2.363-4.883-2.363-7.979c0-4.678,1.68-8.613,5.039-11.807c3.369-3.184,7.842-4.775,13.428-4.775
	c5.615,0,10.138,1.631,13.556,4.893c3.418,3.262,5.137,7.227,5.137,11.904c0,2.988-0.791,5.586-2.354,7.793
	c-1.563,2.207-3.936,3.906-7.129,5.107c3.955,1.289,6.953,3.359,9.015,6.23c2.069,2.861,3.096,6.289,3.096,10.264
	c0,5.498-1.943,10.117-5.83,13.857c-3.896,3.75-9.014,5.615-15.361,5.615c-6.338,0-11.455-1.875-15.352-5.635
	c-3.887-3.76-5.83-8.447-5.83-14.063c0-4.18,1.055-7.676,3.184-10.498C817.886,254.88,820.903,252.957,824.819,251.931z
	 M820.698,268.25c0,2.256,0.526,4.434,1.602,6.533c1.064,2.109,2.656,3.74,4.756,4.893c2.082,1.146,4.422,1.741,6.797,1.729
	c3.779,0,6.896-1.211,9.347-3.633c2.461-2.432,3.69-5.518,3.69-9.258c0-3.799-1.27-6.943-3.799-9.434
	c-2.529-2.48-5.692-3.73-9.502-3.73c-3.711,0-6.787,1.23-9.229,3.691C821.919,261.492,820.698,264.568,820.698,268.25
	L820.698,268.25z M823.237,238.552c0,3.037,0.985,5.527,2.938,7.451c1.963,1.934,4.502,2.9,7.638,2.9
	c3.036,0,5.536-0.957,7.479-2.871c1.943-1.914,2.92-4.268,2.92-7.041c0-2.9-1.006-5.332-3.008-7.305s-4.502-2.959-7.48-2.959
	c-3.018,0-5.518,0.957-7.5,2.891C824.233,233.552,823.237,235.857,823.237,238.552L823.237,238.552z M762.749,359.675l7.9-1.055
	c0.907,4.473,2.45,7.695,4.629,9.668c2.178,1.973,4.834,2.959,7.959,2.959c3.711,0,6.854-1.279,9.414-3.857
	c2.559-2.567,3.838-5.762,3.838-9.561c0-3.623-1.191-6.621-3.556-8.976c-2.372-2.354-5.381-3.524-9.043-3.524
	c-1.483,0-3.34,0.293-5.565,0.879l0.879-6.934c0.527,0.059,0.947,0.088,1.271,0.088c3.358,0,6.387-0.879,9.081-2.638
	c2.687-1.748,4.033-4.452,4.033-8.114c0-2.892-0.977-5.293-2.938-7.188c-1.953-1.904-4.492-2.852-7.588-2.852
	c-3.066,0-5.625,0.957-7.677,2.891c-2.051,1.935-3.358,4.824-3.944,8.691l-7.9-1.406c0.967-5.293,3.164-9.395,6.582-12.305
	s7.676-4.365,12.764-4.365c3.506,0,6.738,0.752,9.697,2.256c2.949,1.504,5.215,3.564,6.777,6.162
	c1.563,2.607,2.344,5.371,2.344,8.291c0,2.783-0.742,5.313-2.236,7.588c-1.494,2.285-3.701,4.102-6.621,5.439
	c3.799,0.879,6.758,2.705,8.857,5.469c2.109,2.764,3.164,6.221,3.164,10.371c0,5.615-2.051,10.371-6.144,14.276
	c-4.102,3.906-9.276,5.859-15.526,5.859c-5.646,0-10.332-1.68-14.063-5.049C765.405,369.382,763.276,365.027,762.749,359.675
	L762.749,359.675z M854.165,369.06v7.589h-42.5c-0.068-1.904,0.244-3.73,0.918-5.479c1.084-2.9,2.813-5.752,5.195-8.555
	c2.383-2.813,5.83-6.056,10.332-9.746c6.991-5.732,11.709-10.265,14.17-13.613c2.451-3.35,3.682-6.514,3.682-9.502
	c0-3.125-1.113-5.771-3.35-7.92c-2.246-2.148-5.156-3.223-8.761-3.223c-3.799,0-6.836,1.143-9.12,3.428
	c-2.275,2.274-3.438,5.438-3.468,9.473l-8.114-0.84c0.557-6.045,2.646-10.664,6.278-13.838c3.623-3.174,8.486-4.756,14.601-4.756
	c6.172,0,11.055,1.709,14.658,5.127c3.594,3.428,5.391,7.666,5.391,12.725c0,2.578-0.527,5.107-1.572,7.588
	c-1.055,2.49-2.803,5.107-5.244,7.853c-2.44,2.754-6.504,6.522-12.178,11.317c-4.736,3.976-7.772,6.681-9.121,8.097
	c-1.348,1.416-2.461,2.842-3.34,4.276H854.165z M762.749,449.509l7.9-1.055c0.907,4.477,2.45,7.7,4.629,9.672
	c2.178,1.972,4.834,2.949,7.959,2.949c3.711,0,6.854-1.271,9.414-3.849c2.559-2.577,3.838-5.766,3.838-9.564
	c0-3.623-1.191-6.621-3.556-8.975c-2.372-2.354-5.381-3.525-9.043-3.525c-1.483,0-3.34,0.293-5.565,0.879l0.879-6.934
	c0.527,0.059,0.947,0.088,1.271,0.088c3.358,0,6.387-0.879,9.081-2.638c2.687-1.747,4.033-4.452,4.033-8.114
	c0-2.892-0.977-5.293-2.938-7.188c-1.953-1.903-4.492-2.852-7.588-2.852c-3.066,0-5.625,0.957-7.677,2.891
	c-2.051,1.935-3.358,4.824-3.944,8.691l-7.9-1.406c0.967-5.293,3.164-9.396,6.582-12.305c3.418-2.91,7.676-4.365,12.764-4.365
	c3.506,0,6.738,0.752,9.697,2.256c2.949,1.504,5.215,3.564,6.777,6.162c1.563,2.606,2.344,5.371,2.344,8.291
	c0,2.783-0.742,5.313-2.236,7.588c-1.494,2.285-3.701,4.103-6.621,5.439c3.799,0.879,6.758,2.704,8.857,5.469
	c2.109,2.764,3.164,6.221,3.164,10.371c0,5.62-2.051,10.366-6.144,14.271c-4.102,3.906-9.276,5.859-15.526,5.859
	c-5.646,0-10.332-1.68-14.063-5.039C765.405,459.218,763.276,454.865,762.749,449.509L762.749,449.509z M854.165,458.889v7.599
	h-42.5c-0.068-1.914,0.244-3.73,0.918-5.488c1.084-2.891,2.813-5.742,5.195-8.555c2.383-2.808,5.83-6.05,10.332-9.741
	c6.991-5.732,11.709-10.264,14.17-13.613c2.451-3.35,3.682-6.514,3.682-9.502c0-3.125-1.113-5.771-3.35-7.92
	c-2.246-2.148-5.156-3.223-8.761-3.223c-3.799,0-6.836,1.143-9.12,3.428c-2.275,2.275-3.438,5.438-3.468,9.473l-8.114-0.84
	c0.557-6.045,2.646-10.664,6.278-13.838c3.623-3.174,8.486-4.756,14.601-4.756c6.172,0,11.055,1.709,14.658,5.127
	c3.594,3.428,5.391,7.666,5.391,12.725c0,2.578-0.527,5.107-1.572,7.588c-1.055,2.49-2.803,5.107-5.244,7.853
	c-2.44,2.754-6.504,6.522-12.178,11.317c-4.736,3.976-7.772,6.685-9.121,8.091c-1.348,1.426-2.461,2.852-3.34,4.276H854.165
	L854.165,458.889z M792.446,556.33h-7.892v-50.313c-1.903,1.798-4.395,3.613-7.479,5.431c-3.085,1.816-5.859,3.184-8.312,4.082
	v-7.638c4.414-2.069,8.271-4.59,11.582-7.539c3.302-2.948,5.646-5.819,7.013-8.594h5.088V556.33L792.446,556.33z M837.983,556.33
	v-15.41h-27.9v-7.227l29.346-41.681h6.445v41.681h8.691v7.227h-8.691v15.41H837.983z M837.983,533.693v-29.004l-20.138,29.004
	H837.983z M854.175,638.576v7.578h-42.5c-0.067-1.896,0.244-3.73,0.918-5.47c1.084-2.909,2.813-5.762,5.195-8.555
	c2.383-2.813,5.83-6.055,10.332-9.746c6.992-5.742,11.709-10.272,14.17-13.612c2.451-3.359,3.682-6.523,3.682-9.513
	c0-3.125-1.112-5.762-3.35-7.91c-2.246-2.147-5.156-3.223-8.76-3.223c-3.799,0-6.836,1.133-9.121,3.418
	c-2.275,2.285-3.438,5.449-3.467,9.474l-8.115-0.841c0.557-6.034,2.646-10.664,6.279-13.828c3.623-3.184,8.485-4.766,14.6-4.766
	c6.172,0,11.055,1.719,14.658,5.137c3.594,3.418,5.391,7.656,5.391,12.716c0,2.577-0.526,5.116-1.572,7.598
	c-1.055,2.479-2.803,5.098-5.243,7.852c-2.441,2.754-6.505,6.523-12.179,11.31c-4.735,3.983-7.772,6.68-9.121,8.104
	c-1.348,1.406-2.461,2.832-3.34,4.277H854.175L854.175,638.576z"/>
</svg>
