<?xml version="1.0" encoding="utf-8"?>
<!-- Generator: Adobe Illustrator 16.0.3, SVG Export Plug-In . SVG Version: 6.00 Build 0)  -->
<!DOCTYPE svg PUBLIC "-//W3C//DTD SVG 1.1//EN" "http://www.w3.org/Graphics/SVG/1.1/DTD/svg11.dtd">
<svg version="1.1" id="Layer_1" xmlns="http://www.w3.org/2000/svg" xmlns:xlink="http://www.w3.org/1999/xlink" x="0px" y="0px"
	 width="900px" height="900px" viewBox="0 0 900 900" enable-background="new 0 0 900 900" xml:space="preserve">
<path d="M86.264,163.594H72.426V75.41c-3.34,3.179-7.705,6.357-13.115,9.536c-5.4,3.179-10.264,5.562-14.561,7.148V78.716
	c7.734-3.638,14.502-8.042,20.293-13.223c5.791-5.176,9.893-10.195,12.305-15.068h8.916V163.594z M162.143,163.594h-13.838V75.41
	c-3.34,3.179-7.705,6.357-13.115,9.536c-5.4,3.179-10.264,5.562-14.561,7.148V78.716c7.734-3.638,14.502-8.042,20.293-13.223
	c5.791-5.176,9.893-10.195,12.305-15.068h8.916V163.594L162.143,163.594z M272.27,638.691l9.248-0.802
	c0.439,3.711,1.465,6.748,3.057,9.121c1.602,2.383,4.092,4.297,7.461,5.763c3.369,1.465,7.158,2.206,11.367,2.206
	c3.74,0,7.051-0.565,9.912-1.68s4.99-2.637,6.396-4.57c1.396-1.934,2.09-4.053,2.09-6.348c0-2.324-0.674-4.354-2.021-6.084
	c-1.348-1.738-3.564-3.193-6.67-4.375c-1.982-0.771-6.387-1.981-13.193-3.613c-6.806-1.631-11.572-3.174-14.297-4.618
	c-3.545-1.855-6.182-4.16-7.91-6.904c-1.738-2.744-2.607-5.82-2.607-9.229c0-3.729,1.064-7.227,3.184-10.487
	c2.119-3.242,5.225-5.713,9.297-7.402c4.082-1.68,8.613-2.52,13.604-2.52c5.488,0,10.332,0.879,14.531,2.646
	c4.189,1.768,7.422,4.375,9.678,7.813c2.256,3.428,3.467,7.334,3.643,11.67l-9.404,0.713c-0.508-4.679-2.217-8.224-5.127-10.615
	c-2.92-2.393-7.227-3.594-12.92-3.594c-5.928,0-10.254,1.094-12.959,3.262c-2.715,2.178-4.072,4.795-4.072,7.861
	c0,2.666,0.957,4.854,2.881,6.571c1.885,1.72,6.816,3.478,14.785,5.283c7.969,1.807,13.438,3.379,16.396,4.728
	c4.316,1.981,7.5,4.502,9.561,7.549c2.051,3.057,3.076,6.563,3.076,10.547c0,3.945-1.123,7.656-3.379,11.143
	c-2.266,3.486-5.508,6.201-9.736,8.136c-4.228,1.934-8.984,2.909-14.277,2.909c-6.709,0-12.324-0.977-16.855-2.93
	c-4.531-1.953-8.086-4.901-10.664-8.828C273.768,648.086,272.406,643.652,272.27,638.691L272.27,638.691z M340.102,635.664
	c0-9.941,2.764-17.305,8.291-22.09c4.609-3.976,10.244-5.957,16.885-5.957c7.373,0,13.408,2.412,18.086,7.246
	c4.688,4.844,7.031,11.522,7.031,20.039c0,6.914-1.035,12.344-3.105,16.309c-2.08,3.955-5.088,7.031-9.053,9.219
	c-3.955,2.188-8.281,3.281-12.959,3.281c-7.52,0-13.594-2.402-18.223-7.227C342.416,651.67,340.102,644.727,340.102,635.664
	L340.102,635.664z M349.447,635.664c0,6.875,1.504,12.021,4.502,15.449c2.998,3.418,6.777,5.117,11.328,5.117
	c4.512,0,8.271-1.72,11.27-5.146c2.998-3.438,4.492-8.682,4.492-15.723c0-6.631-1.504-11.67-4.521-15.088
	c-3.017-3.419-6.768-5.128-11.24-5.128c-4.551,0-8.33,1.699-11.328,5.107C350.951,623.652,349.447,628.789,349.447,635.664
	L349.447,635.664z M435.883,662.5v-6.768c-3.408,5.321-8.408,7.979-15.01,7.979c-4.287,0-8.213-1.172-11.807-3.535
	c-3.584-2.354-6.367-5.645-8.341-9.883c-1.973-4.219-2.959-9.082-2.959-14.57c0-5.371,0.898-10.225,2.687-14.59
	c1.777-4.354,4.463-7.705,8.037-10.039c3.563-2.324,7.559-3.477,11.973-3.477c3.232,0,6.123,0.684,8.643,2.041
	c2.529,1.367,4.591,3.145,6.173,5.332v-26.582h9.043V662.5H435.883L435.883,662.5z M407.123,635.723
	c0,6.865,1.445,12.013,4.346,15.41c2.901,3.398,6.318,5.099,10.265,5.099c3.975,0,7.354-1.621,10.127-4.873
	c2.782-3.252,4.17-8.214,4.17-14.884c0-7.344-1.416-12.743-4.238-16.182c-2.832-3.428-6.318-5.146-10.469-5.146
	c-4.043,0-7.422,1.649-10.138,4.95C408.48,623.398,407.123,628.613,407.123,635.723L407.123,635.723z M458.686,598.867v-10.459
	h9.103v10.459H458.686z M458.686,662.5v-53.672h9.103V662.5H458.686z M516.811,662.5v-7.881c-4.18,6.063-9.854,9.092-17.03,9.092
	c-3.175,0-6.123-0.604-8.877-1.816c-2.744-1.211-4.785-2.733-6.113-4.569s-2.267-4.082-2.803-6.748
	c-0.371-1.787-0.558-4.619-0.558-8.486v-33.262h9.103v29.766c0,4.756,0.186,7.949,0.557,9.609c0.566,2.393,1.777,4.268,3.633,5.635
	c1.855,1.357,4.15,2.041,6.875,2.041c2.734,0,5.293-0.692,7.687-2.09c2.393-1.406,4.082-3.301,5.078-5.713
	c0.995-2.412,1.493-5.908,1.493-10.488v-28.76h9.093V662.5H516.811L516.811,662.5z M539.203,662.5v-53.672h8.135v7.529
	c1.689-2.627,3.926-4.736,6.719-6.339c2.804-1.602,5.986-2.401,9.562-2.401c3.975,0,7.235,0.82,9.774,2.471
	c2.55,1.65,4.336,3.955,5.382,6.924c4.247-6.27,9.774-9.395,16.581-9.395c5.322,0,9.414,1.465,12.285,4.414
	c2.861,2.949,4.297,7.5,4.297,13.633V662.5h-9.053v-33.809c0-3.644-0.293-6.261-0.879-7.861c-0.596-1.603-1.66-2.891-3.213-3.867
	c-1.553-0.976-3.369-1.465-5.459-1.465c-3.771,0-6.904,1.26-9.404,3.76c-2.49,2.521-3.74,6.533-3.74,12.062V662.5h-9.092v-34.873
	c0-4.043-0.742-7.08-2.227-9.092c-1.484-2.031-3.906-3.037-7.275-3.037c-2.567,0-4.932,0.674-7.108,2.021
	c-2.168,1.348-3.74,3.319-4.728,5.918c-0.977,2.598-1.465,6.327-1.465,11.211V662.5H539.203L539.203,662.5z M102.172,839.59v8.75
	H53.197c-0.075-2.159,0.287-4.312,1.064-6.328c1.24-3.33,3.242-6.621,5.986-9.854c2.744-3.233,6.709-6.974,11.904-11.221
	c8.047-6.603,13.496-11.837,16.328-15.693c2.822-3.857,4.238-7.51,4.238-10.947c0-3.594-1.289-6.641-3.867-9.121
	c-2.578-2.479-5.938-3.711-10.078-3.711c-4.385,0-7.891,1.31-10.518,3.945c-2.627,2.627-3.955,6.27-3.994,10.918l-9.346-0.957
	c0.635-6.982,3.047-12.305,7.227-15.957c4.18-3.652,9.785-5.488,16.836-5.488c7.109,0,12.734,1.974,16.875,5.918
	c4.15,3.945,6.221,8.828,6.221,14.668c0,2.959-0.605,5.88-1.816,8.73c-1.221,2.871-3.232,5.889-6.045,9.053
	c-2.813,3.174-7.49,7.51-14.023,13.037c-5.459,4.59-8.965,7.695-10.518,9.336c-1.553,1.631-2.832,3.271-3.838,4.922H102.172
	L102.172,839.59z M159.74,839.59v8.75h-48.975c-0.076-2.159,0.287-4.312,1.064-6.328c1.24-3.33,3.242-6.621,5.986-9.854
	c2.744-3.233,6.709-6.974,11.904-11.221c8.047-6.603,13.496-11.837,16.328-15.693c2.822-3.857,4.238-7.51,4.238-10.947
	c0-3.594-1.289-6.641-3.867-9.121c-2.578-2.479-5.938-3.711-10.078-3.711c-4.385,0-7.891,1.31-10.518,3.945
	c-2.627,2.627-3.955,6.27-3.994,10.918l-9.346-0.957c0.635-6.982,3.047-12.305,7.227-15.957s9.785-5.488,16.836-5.488
	c7.109,0,12.734,1.974,16.875,5.918c4.15,3.945,6.221,8.828,6.221,14.668c0,2.959-0.605,5.88-1.816,8.73
	c-1.221,2.871-3.232,5.889-6.045,9.053c-2.813,3.174-7.49,7.51-14.023,13.037c-5.459,4.59-8.965,7.695-10.518,9.336
	c-1.553,1.631-2.832,3.271-3.838,4.922H159.74L159.74,839.59z M174.604,848.34v-10.371h10.361v10.371H174.604z M199.623,831.201
	l8.74-0.812c0.742,4.111,2.158,7.091,4.248,8.945c2.09,1.855,4.766,2.783,8.037,2.783c2.793,0,5.244-0.635,7.354-1.924
	c2.109-1.279,3.828-2.988,5.176-5.127c1.348-2.14,2.48-5.029,3.389-8.672c0.909-3.644,1.367-7.345,1.367-11.123
	c0-0.4-0.02-1.007-0.049-1.816c-1.826,2.9-4.307,5.254-7.461,7.051c-3.145,1.808-6.563,2.705-10.234,2.705
	c-6.133,0-11.318-2.217-15.566-6.67s-6.367-10.313-6.367-17.598c0-7.5,2.217-13.556,6.65-18.146c4.424-4.569,9.98-6.875,16.65-6.875
	c4.814,0,9.229,1.31,13.213,3.906c3.994,2.588,7.031,6.289,9.102,11.094c2.07,4.795,3.105,11.738,3.105,20.84
	c0,9.474-1.025,17.013-3.076,22.617c-2.061,5.615-5.117,9.883-9.18,12.813c-4.063,2.938-8.818,4.403-14.277,4.403
	c-5.791,0-10.527-1.61-14.199-4.834C202.572,841.553,200.365,837.031,199.623,831.201L199.623,831.201z M236.869,798.496
	c0-5.215-1.387-9.365-4.17-12.432c-2.773-3.066-6.123-4.601-10.029-4.601c-4.043,0-7.568,1.65-10.566,4.951
	c-2.998,3.311-4.502,7.588-4.502,12.842c0,4.717,1.426,8.556,4.277,11.504c2.842,2.949,6.357,4.414,10.537,4.414
	c4.209,0,7.676-1.465,10.391-4.414C235.512,807.813,236.869,803.721,236.869,798.496z M257.201,831.201l8.74-0.812
	c0.742,4.111,2.158,7.091,4.248,8.945c2.09,1.855,4.766,2.783,8.037,2.783c2.793,0,5.244-0.635,7.354-1.924
	c2.109-1.279,3.828-2.988,5.176-5.127c1.348-2.14,2.48-5.029,3.389-8.672c0.909-3.644,1.367-7.345,1.367-11.123
	c0-0.4-0.02-1.007-0.049-1.816c-1.826,2.9-4.307,5.254-7.461,7.051c-3.145,1.808-6.563,2.705-10.234,2.705
	c-6.133,0-11.318-2.217-15.566-6.67s-6.367-10.313-6.367-17.598c0-7.5,2.217-13.556,6.65-18.146c4.424-4.569,9.98-6.875,16.65-6.875
	c4.814,0,9.229,1.31,13.213,3.906c3.994,2.588,7.031,6.289,9.102,11.094c2.07,4.795,3.105,11.738,3.105,20.84
	c0,9.474-1.025,17.013-3.076,22.617c-2.061,5.615-5.117,9.883-9.18,12.813c-4.063,2.938-8.818,4.403-14.277,4.403
	c-5.791,0-10.527-1.61-14.199-4.834C260.15,841.553,257.943,837.031,257.201,831.201L257.201,831.201z M294.447,798.496
	c0-5.215-1.387-9.365-4.17-12.432c-2.773-3.066-6.123-4.601-10.029-4.601c-4.043,0-7.568,1.65-10.566,4.951
	c-2.998,3.311-4.502,7.588-4.502,12.842c0,4.717,1.426,8.556,4.277,11.504c2.842,2.949,6.357,4.414,10.537,4.414
	c4.209,0,7.676-1.465,10.391-4.414C293.09,807.813,294.447,803.721,294.447,798.496L294.447,798.496z M313.402,811.797
	c0-8.77,0.898-15.82,2.705-21.151c1.797-5.353,4.482-9.474,8.037-12.363c3.555-2.9,8.027-4.355,13.418-4.355
	c3.975,0,7.461,0.802,10.459,2.402s5.479,3.916,7.432,6.934c1.953,3.009,3.486,6.681,4.6,11.017c1.114,4.336,1.67,10.166,1.67,17.52
	c0,8.691-0.889,15.703-2.676,21.045c-1.787,5.343-4.463,9.474-8.018,12.384c-3.555,2.92-8.047,4.375-13.467,4.375
	c-7.148,0-12.754-2.568-16.836-7.687C315.844,835.742,313.402,825.703,313.402,811.797L313.402,811.797z M322.748,811.797
	c0,12.158,1.426,20.254,4.277,24.277c2.842,4.022,6.357,6.045,10.537,6.045s7.695-2.021,10.537-6.064
	c2.852-4.043,4.268-12.129,4.268-24.258c0-12.207-1.416-20.313-4.268-24.315c-2.842-4.005-6.396-6.017-10.635-6.017
	c-4.18,0-7.52,1.769-10.01,5.313C324.32,791.289,322.748,799.629,322.748,811.797L322.748,811.797z M311.264,450V265.112h36.318
	l75.674,123.467V265.112h34.678V450h-37.45l-74.542-120.566V450H311.264z M523.637,356.924l-32.158-5.801
	c3.613-12.944,9.845-22.529,18.673-28.755c8.827-6.221,21.942-9.331,39.346-9.331c15.801,0,27.578,1.87,35.313,5.61
	c7.734,3.744,13.175,8.495,16.328,14.253c3.154,5.762,4.736,16.333,4.736,31.719l-0.381,41.367c0,11.771,0.565,20.448,1.699,26.04
	c1.133,5.596,3.262,11.587,6.366,17.974H578.5c-0.928-2.354-2.061-5.845-3.398-10.469c-0.596-2.101-1.016-3.486-1.27-4.16
	c-6.055,5.884-12.529,10.298-19.414,13.242c-6.895,2.938-14.258,4.414-22.07,4.414c-13.799,0-24.658-3.74-32.606-11.227
	c-7.939-7.479-11.914-16.938-11.914-28.374c0-7.567,1.807-14.315,5.42-20.244c3.613-5.928,8.682-10.469,15.195-13.617
	c6.514-3.154,15.907-5.908,28.192-8.263c16.563-3.109,28.037-6.011,34.424-8.701v-3.534c0-6.808-1.68-11.665-5.039-14.565
	c-3.368-2.9-9.717-4.351-19.043-4.351c-6.309,0-11.229,1.239-14.756,3.721C528.687,346.353,525.824,350.703,523.637,356.924
	L523.637,356.924z M571.059,385.679c-4.541,1.515-11.729,3.325-21.563,5.425c-9.834,2.104-16.271,4.16-19.297,6.183
	c-4.629,3.276-6.935,7.437-6.935,12.485c0,4.961,1.847,9.247,5.548,12.86c3.7,3.618,8.407,5.425,14.12,5.425
	c6.396,0,12.49-2.1,18.291-6.309c4.287-3.193,7.101-7.104,8.447-11.729c0.928-3.026,1.387-8.783,1.387-17.274L571.059,385.679
	L571.059,385.679z M853.881,109.214v7.588h-42.5c-0.07-1.871,0.242-3.736,0.918-5.483c1.084-2.896,2.813-5.747,5.195-8.555
	s5.83-6.055,10.332-9.736c6.992-5.732,11.709-10.273,14.17-13.623c2.451-3.35,3.682-6.514,3.682-9.497
	c0-3.13-1.112-5.767-3.35-7.915c-2.246-2.153-5.156-3.228-8.76-3.228c-3.8,0-6.836,1.143-9.121,3.423
	c-2.275,2.28-3.438,5.439-3.467,9.478l-8.115-0.835c0.557-6.055,2.646-10.669,6.279-13.843c3.622-3.169,8.485-4.756,14.6-4.756
	c6.172,0,11.055,1.709,14.658,5.132c3.594,3.423,5.391,7.661,5.391,12.72c0,2.573-0.527,5.103-1.572,7.588
	c-1.055,2.485-2.803,5.107-5.244,7.852c-2.44,2.749-6.504,6.523-12.178,11.318c-4.736,3.979-7.772,6.675-9.121,8.096
	c-1.348,1.416-2.461,2.842-3.34,4.277L853.881,109.214L853.881,109.214z M824.535,171.768c-3.271-1.201-5.703-2.91-7.285-5.132
	c-1.572-2.222-2.363-4.888-2.363-7.983c0-4.683,1.681-8.613,5.039-11.802c3.369-3.188,7.842-4.78,13.428-4.78
	c5.615,0,10.138,1.631,13.556,4.888c3.418,3.262,5.137,7.231,5.137,11.914c0,2.979-0.791,5.576-2.354,7.783
	c-1.563,2.207-3.937,3.911-7.13,5.112c3.955,1.284,6.953,3.364,9.015,6.226c2.069,2.871,3.096,6.289,3.096,10.269
	c0,5.498-1.942,10.117-5.83,13.862c-3.896,3.74-9.014,5.615-15.36,5.615c-6.339,0-11.455-1.88-15.353-5.64
	c-3.887-3.755-5.83-8.442-5.83-14.058c0-4.185,1.055-7.686,3.185-10.508C817.602,174.712,820.619,172.788,824.535,171.768z
	 M820.414,188.086c0,2.251,0.527,4.429,1.602,6.533c1.064,2.109,2.656,3.74,4.756,4.893c2.081,1.148,4.421,1.745,6.798,1.733
	c3.778,0,6.895-1.211,9.346-3.643c2.461-2.427,3.69-5.513,3.69-9.253c0-3.804-1.27-6.948-3.799-9.434
	c-2.528-2.486-5.692-3.726-9.502-3.726c-3.711,0-6.787,1.226-9.229,3.682C821.634,181.327,820.414,184.399,820.414,188.086
	L820.414,188.086z M822.953,158.389c0,3.042,0.986,5.527,2.938,7.456c1.964,1.929,4.503,2.896,7.638,2.896
	c3.037,0,5.537-0.957,7.479-2.876c1.943-1.914,2.92-4.258,2.92-7.036c0-2.896-1.006-5.332-3.008-7.305
	c-2.002-1.978-4.502-2.964-7.479-2.964c-3.019,0-5.519,0.967-7.5,2.896C823.949,153.389,822.953,155.698,822.953,158.389
	L822.953,158.389z M842.123,296.479h-7.891v-50.317c-1.904,1.816-4.396,3.628-7.48,5.439c-3.086,1.816-5.859,3.174-8.311,4.082
	v-7.632c4.414-2.075,8.271-4.59,11.582-7.544c3.301-2.954,5.645-5.82,7.012-8.599h5.088V296.479L842.123,296.479z"/>
</svg>
