<?xml version="1.0" encoding="utf-8"?>
<!-- Generator: Adobe Illustrator 16.0.3, SVG Export Plug-In . SVG Version: 6.00 Build 0)  -->
<!DOCTYPE svg PUBLIC "-//W3C//DTD SVG 1.1//EN" "http://www.w3.org/Graphics/SVG/1.1/DTD/svg11.dtd">
<svg version="1.1" id="Layer_1" xmlns="http://www.w3.org/2000/svg" xmlns:xlink="http://www.w3.org/1999/xlink" x="0px" y="0px"
	 width="900px" height="900px" viewBox="0 0 900 900" enable-background="new 0 0 900 900" xml:space="preserve">
<path d="M86.548,153.921H72.71V65.737c-3.34,3.184-7.705,6.357-13.115,9.531c-5.4,3.184-10.264,5.566-14.561,7.158V69.048
	c7.734-3.643,14.502-8.047,20.293-13.223c5.791-5.176,9.893-10.205,12.305-15.068h8.916V153.921z M162.427,153.921h-13.838V65.737
	c-3.34,3.184-7.705,6.357-13.115,9.531c-5.4,3.184-10.264,5.566-14.561,7.158V69.048c7.734-3.643,14.502-8.047,20.293-13.223
	c5.791-5.176,9.893-10.205,12.305-15.068h8.916V153.921L162.427,153.921z M197.866,98.335c0-13.32,1.377-24.053,4.111-32.178
	c2.744-8.115,6.816-14.385,12.227-18.789c5.41-4.414,12.207-6.611,20.41-6.611c6.045,0,11.357,1.211,15.918,3.652
	c4.561,2.432,8.33,5.938,11.299,10.527c2.969,4.589,5.303,10.176,7.002,16.758c1.689,6.592,2.529,15.469,2.529,26.641
	c0,13.223-1.357,23.896-4.072,32.021s-6.777,14.404-12.188,18.838c-5.4,4.434-12.236,6.65-20.488,6.65
	c-10.859,0-19.396-3.896-25.596-11.689C201.587,134.78,197.866,119.507,197.866,98.335L197.866,98.335z M212.095,98.335
	c0,18.506,2.158,30.82,6.494,36.943c4.326,6.123,9.668,9.189,16.025,9.189c6.357,0,11.699-3.076,16.035-9.229
	c4.326-6.152,6.494-18.447,6.494-36.904c0-18.555-2.168-30.879-6.494-36.982c-4.336-6.094-9.727-9.141-16.182-9.141
	c-6.357,0-11.436,2.686-15.225,8.066C214.478,67.153,212.095,79.839,212.095,98.335z M129.263,652.827v-74.103h25.527
	c5.762,0,10.156,0.361,13.184,1.064c4.248,0.977,7.871,2.744,10.869,5.303c3.906,3.312,6.836,7.529,8.771,12.666
	c1.943,5.138,2.91,11.006,2.91,17.617c0,5.625-0.654,10.615-1.973,14.961c-1.319,4.346-2.998,7.939-5.059,10.791
	c-2.051,2.842-4.297,5.088-6.748,6.719c-2.441,1.642-5.391,2.871-8.838,3.722c-3.457,0.84-7.422,1.26-11.904,1.26H129.263
	L129.263,652.827z M139.067,644.087h15.82c4.883,0,8.721-0.459,11.494-1.367c2.783-0.907,5-2.188,6.65-3.848
	c2.324-2.324,4.141-5.449,5.43-9.375c1.299-3.926,1.953-8.682,1.953-14.277c0-7.744-1.279-13.7-3.818-17.86
	c-2.549-4.17-5.635-6.953-9.277-8.369c-2.627-1.017-6.855-1.515-12.686-1.515h-15.566V644.087z M237.886,646.206
	c-3.379,2.861-6.621,4.883-9.736,6.064c-3.115,1.181-6.455,1.768-10.029,1.768c-5.898,0-10.43-1.436-13.594-4.316
	c-3.174-2.881-4.756-6.563-4.756-11.045c0-2.627,0.596-5.028,1.797-7.207c1.191-2.168,2.764-3.916,4.697-5.225
	c1.934-1.318,4.121-2.313,6.543-2.988c1.787-0.469,4.482-0.928,8.086-1.366c7.354-0.869,12.754-1.914,16.23-3.125
	c0.029-1.25,0.049-2.041,0.049-2.384c0-3.7-0.859-6.317-2.578-7.832c-2.324-2.051-5.781-3.086-10.361-3.086
	c-4.277,0-7.441,0.752-9.473,2.257c-2.041,1.493-3.555,4.149-4.531,7.959l-8.896-1.212c0.811-3.809,2.148-6.885,3.994-9.229
	c1.855-2.344,4.531-4.141,8.037-5.41c3.506-1.26,7.568-1.895,12.188-1.895c4.58,0,8.301,0.536,11.172,1.62
	c2.861,1.074,4.961,2.433,6.309,4.063c1.348,1.641,2.295,3.701,2.832,6.191c0.303,1.553,0.459,4.354,0.459,8.397v12.129
	c0,8.457,0.195,13.81,0.576,16.045c0.398,2.264,1.178,4.442,2.305,6.445h-9.502C238.755,650.942,238.149,648.735,237.886,646.206
	L237.886,646.206z M237.124,625.884c-3.301,1.349-8.262,2.5-14.863,3.438c-3.74,0.537-6.387,1.151-7.93,1.826
	c-1.553,0.674-2.754,1.659-3.594,2.948c-0.84,1.3-1.26,2.744-1.26,4.326c0,2.422,0.918,4.443,2.754,6.064s4.521,2.422,8.057,2.422
	c3.506,0,6.621-0.763,9.355-2.295c2.725-1.533,4.736-3.633,6.016-6.289c0.977-2.062,1.465-5.088,1.465-9.103V625.884z
	 M260.317,652.827v-53.683h8.193v8.146c2.09-3.809,4.014-6.318,5.781-7.539c1.777-1.211,3.721-1.815,5.84-1.815
	c3.066,0,6.182,0.977,9.355,2.93l-3.135,8.447c-2.227-1.318-4.453-1.974-6.67-1.974c-1.992,0-3.779,0.597-5.361,1.797
	c-1.582,1.191-2.715,2.853-3.389,4.972c-1.006,3.241-1.514,6.776-1.514,10.614v28.105H260.317L260.317,652.827z M294.897,652.827
	v-53.683h8.135v7.529c1.689-2.627,3.926-4.736,6.719-6.338c2.803-1.602,5.986-2.402,9.561-2.402c3.975,0,7.236,0.83,9.775,2.48
	c2.549,1.65,4.336,3.955,5.381,6.924c4.248-6.27,9.775-9.404,16.582-9.404c5.322,0,9.414,1.476,12.285,4.425
	c2.861,2.948,4.297,7.489,4.297,13.623v36.846h-9.053v-33.818c0-3.633-0.293-6.26-0.879-7.852c-0.596-1.603-1.66-2.892-3.213-3.867
	c-1.553-0.976-3.369-1.465-5.459-1.465c-3.77,0-6.904,1.25-9.404,3.76c-2.49,2.51-3.74,6.533-3.74,12.062v31.182h-9.092v-34.873
	c0-4.043-0.742-7.08-2.227-9.102c-1.485-2.022-3.906-3.027-7.275-3.027c-2.568,0-4.932,0.674-7.109,2.021
	c-2.168,1.349-3.74,3.312-4.727,5.908c-0.977,2.599-1.465,6.338-1.465,11.222v27.852L294.897,652.827L294.897,652.827z
	 M377.485,636.802l8.994-1.416c0.508,3.613,1.914,6.367,4.229,8.291c2.305,1.924,5.527,2.881,9.678,2.881
	c4.181,0,7.275-0.85,9.297-2.549c2.022-1.699,3.037-3.701,3.037-5.996c0-2.051-0.897-3.672-2.686-4.844
	c-1.24-0.811-4.346-1.836-9.297-3.086c-6.67-1.689-11.299-3.146-13.877-4.375c-2.578-1.229-4.531-2.93-5.859-5.107
	c-1.338-2.168-2.002-4.569-2.002-7.196c0-2.394,0.547-4.609,1.65-6.65c1.076-2.018,2.607-3.756,4.473-5.078
	c1.416-1.045,3.34-1.924,5.781-2.656c2.441-0.723,5.068-1.084,7.861-1.084c4.209,0,7.91,0.605,11.095,1.816
	c3.184,1.221,5.536,2.861,7.051,4.932c1.514,2.071,2.559,4.845,3.135,8.312l-8.896,1.221c-0.4-2.764-1.572-4.922-3.517-6.475
	c-1.934-1.543-4.668-2.324-8.213-2.324c-4.18,0-7.158,0.693-8.945,2.07c-1.787,1.387-2.676,2.998-2.676,4.854
	c0,1.183,0.371,2.246,1.113,3.185c0.742,0.977,1.904,1.787,3.486,2.432c0.908,0.332,3.584,1.113,8.037,2.324
	c6.437,1.719,10.929,3.125,13.468,4.219c2.549,1.094,4.541,2.686,5.995,4.775c1.445,2.09,2.169,4.688,2.169,7.782
	c0,3.037-0.88,5.89-2.656,8.564c-1.769,2.686-4.316,4.756-7.656,6.221c-3.33,1.466-7.109,2.197-11.318,2.197
	c-6.973,0-12.294-1.445-15.947-4.346C380.825,646.792,378.501,642.495,377.485,636.802L377.485,636.802z M452.749,644.692
	l1.309,8.036c-2.559,0.537-4.844,0.802-6.875,0.802c-3.301,0-5.858-0.519-7.676-1.563c-1.826-1.045-3.104-2.422-3.848-4.121
	c-0.743-1.698-1.104-5.282-1.104-10.741v-30.88h-6.68v-7.08h6.68v-13.291l9.043-5.459v18.75h9.15v7.08h-9.15v31.388
	c0,2.598,0.156,4.268,0.479,5c0.32,0.745,0.871,1.368,1.572,1.776c0.723,0.439,1.758,0.654,3.104,0.654
	C449.761,645.044,451.099,644.927,452.749,644.692z M496.675,646.206c-3.379,2.861-6.621,4.883-9.735,6.063
	c-3.115,1.182-6.455,1.769-10.029,1.769c-5.898,0-10.43-1.437-13.594-4.316c-3.174-2.881-4.756-6.563-4.756-11.045
	c0-2.627,0.596-5.028,1.797-7.207c1.19-2.168,2.764-3.916,4.696-5.225c1.935-1.318,4.121-2.314,6.543-2.988
	c1.787-0.469,4.482-0.928,8.086-1.366c7.354-0.869,12.755-1.914,16.23-3.125c0.029-1.25,0.049-2.041,0.049-2.384
	c0-3.7-0.858-6.317-2.578-7.832c-2.323-2.051-5.78-3.086-10.36-3.086c-4.277,0-7.441,0.752-9.474,2.256
	c-2.041,1.494-3.555,4.15-4.53,7.959l-8.896-1.211c0.811-3.809,2.148-6.885,3.994-9.229c1.854-2.344,4.531-4.142,8.037-5.41
	c3.506-1.26,7.567-1.895,12.188-1.895c4.58,0,8.301,0.536,11.172,1.62c2.861,1.074,4.961,2.433,6.31,4.063
	c1.348,1.641,2.295,3.701,2.832,6.19c0.303,1.554,0.459,4.355,0.459,8.398v12.129c0,8.457,0.194,13.81,0.576,16.045
	c0.397,2.264,1.178,4.442,2.305,6.445h-9.502C497.544,650.942,496.938,648.735,496.675,646.206L496.675,646.206z M495.913,625.884
	c-3.301,1.349-8.262,2.5-14.863,3.438c-3.739,0.537-6.387,1.151-7.93,1.826c-1.553,0.674-2.754,1.659-3.594,2.948
	c-0.841,1.299-1.261,2.744-1.261,4.326c0,2.422,0.918,4.443,2.754,6.064c1.837,1.621,4.521,2.422,8.058,2.422
	c3.506,0,6.621-0.763,9.354-2.295c2.726-1.533,4.736-3.634,6.017-6.289c0.977-2.062,1.465-5.088,1.465-9.103V625.884z
	 M554.038,652.827v-6.777c-3.408,5.332-8.408,7.988-15.01,7.988c-4.287,0-8.213-1.183-11.808-3.535
	c-3.584-2.363-6.366-5.654-8.34-9.883c-1.973-4.229-2.959-9.092-2.959-14.58c0-5.361,0.898-10.215,2.687-14.58
	c1.776-4.365,4.463-7.715,8.036-10.039c3.564-2.324,7.56-3.486,11.974-3.486c3.231,0,6.123,0.685,8.643,2.052
	c2.529,1.356,4.591,3.135,6.172,5.332v-26.593h9.044v74.103L554.038,652.827L554.038,652.827z M525.278,626.04
	c0,6.875,1.444,12.012,4.346,15.41c2.9,3.408,6.318,5.106,10.264,5.106c3.976,0,7.354-1.621,10.127-4.873
	c2.783-3.252,4.171-8.213,4.171-14.893c0-7.344-1.416-12.734-4.238-16.172c-2.832-3.438-6.318-5.156-10.469-5.156
	c-4.043,0-7.423,1.65-10.138,4.961C526.636,613.726,525.278,618.931,525.278,626.04z M596.646,644.692l1.309,8.036
	c-2.559,0.537-4.844,0.802-6.875,0.802c-3.301,0-5.859-0.519-7.676-1.563c-1.826-1.045-3.105-2.422-3.849-4.121
	c-0.743-1.698-1.104-5.283-1.104-10.742v-30.879h-6.68v-7.08h6.68v-13.291l9.043-5.459v18.75h9.15v7.08h-9.15v31.388
	c0,2.598,0.156,4.268,0.479,5c0.32,0.745,0.872,1.368,1.572,1.776c0.724,0.439,1.758,0.654,3.105,0.654
	C593.657,645.044,594.995,644.927,596.646,644.692z M605.591,589.194v-10.47h9.103v10.47H605.591z M605.591,652.827v-53.683h9.103
	v53.683H605.591z M663.716,652.827v-7.881c-4.18,6.063-9.854,9.092-17.03,9.092c-3.175,0-6.123-0.605-8.878-1.816
	c-2.743-1.211-4.784-2.733-6.112-4.58c-1.328-1.836-2.267-4.082-2.803-6.737c-0.371-1.787-0.558-4.619-0.558-8.496v-33.262h9.103
	v29.774c0,4.746,0.186,7.949,0.557,9.601c0.566,2.393,1.777,4.276,3.633,5.635c1.855,1.367,4.15,2.051,6.875,2.051
	c2.734,0,5.293-0.703,7.687-2.1c2.393-1.397,4.081-3.302,5.077-5.713c0.996-2.402,1.494-5.898,1.494-10.488v-28.76h9.092v53.682
	L663.716,652.827L663.716,652.827z M686.118,652.827v-53.683h8.135v7.529c1.689-2.627,3.926-4.736,6.719-6.338
	c2.804-1.602,5.986-2.402,9.562-2.402c3.975,0,7.236,0.83,9.774,2.48c2.55,1.65,4.337,3.955,5.382,6.924
	c4.248-6.27,9.774-9.404,16.582-9.404c5.321,0,9.413,1.476,12.284,4.425c2.861,2.948,4.297,7.489,4.297,13.622v36.847H749.8v-33.818
	c0-3.633-0.293-6.26-0.879-7.852c-0.596-1.603-1.66-2.892-3.213-3.867s-3.369-1.465-5.459-1.465c-3.771,0-6.904,1.25-9.404,3.76
	c-2.489,2.51-3.739,6.533-3.739,12.061v31.183h-9.093v-34.873c0-4.043-0.741-7.08-2.227-9.103c-1.485-2.021-3.906-3.026-7.275-3.026
	c-2.567,0-4.932,0.674-7.108,2.021c-2.168,1.349-3.74,3.312-4.728,5.908c-0.977,2.599-1.465,6.338-1.465,11.221v27.853
	L686.118,652.827L686.118,652.827z M57.378,859.243v-94.678h20.068v7.528H66.479v79.609h10.967v7.539L57.378,859.243L57.378,859.243
	z M131.226,829.927v8.74H82.251c-0.075-2.156,0.287-4.306,1.064-6.318c1.24-3.34,3.242-6.62,5.986-9.854
	c2.744-3.242,6.709-6.982,11.904-11.221c8.047-6.611,13.496-11.837,16.328-15.693c2.822-3.857,4.238-7.51,4.238-10.947
	c0-3.604-1.289-6.649-3.867-9.121c-2.578-2.479-5.938-3.721-10.078-3.721c-4.385,0-7.891,1.318-10.518,3.945
	s-3.955,6.27-3.994,10.918l-9.346-0.957c0.635-6.974,3.047-12.295,7.227-15.947c4.18-3.662,9.785-5.488,16.836-5.488
	c7.109,0,12.734,1.974,16.875,5.918c4.15,3.945,6.221,8.828,6.221,14.658c0,2.959-0.605,5.879-1.816,8.74
	c-1.221,2.871-3.232,5.879-6.045,9.053c-2.813,3.164-7.49,7.511-14.023,13.037c-5.459,4.58-8.965,7.695-10.518,9.326
	c-1.553,1.631-2.832,3.281-3.838,4.932H131.226L131.226,829.927z M154.985,798.481c-3.779-1.378-6.572-3.351-8.398-5.908
	c-1.816-2.568-2.725-5.636-2.725-9.199c0-5.391,1.934-9.922,5.811-13.604c3.877-3.672,9.033-5.508,15.469-5.508
	c6.465,0,11.68,1.886,15.615,5.636c3.945,3.76,5.918,8.34,5.918,13.729c0,3.438-0.898,6.426-2.705,8.965
	c-1.807,2.549-4.541,4.513-8.213,5.89c4.551,1.483,8.008,3.877,10.391,7.178c2.373,3.301,3.555,7.246,3.555,11.826
	c0,6.338-2.236,11.659-6.719,15.977s-10.381,6.465-17.686,6.465c-7.314,0-13.213-2.158-17.695-6.494
	c-4.482-4.325-6.719-9.727-6.719-16.2c0-4.814,1.221-8.849,3.662-12.101S150.464,799.663,154.985,798.481z M150.229,817.29
	c0,2.588,0.615,5.098,1.846,7.529c1.23,2.422,3.057,4.307,5.488,5.635c2.422,1.328,5.029,1.992,7.832,1.992
	c4.346,0,7.93-1.396,10.762-4.189c2.832-2.803,4.248-6.356,4.248-10.664c0-4.385-1.455-8.008-4.375-10.869
	c-2.91-2.86-6.563-4.297-10.938-4.297c-4.277,0-7.832,1.416-10.645,4.248S150.229,813.042,150.229,817.29L150.229,817.29z
	 M153.159,783.071c0,3.506,1.133,6.367,3.389,8.594c2.256,2.217,5.186,3.33,8.799,3.33c3.506,0,6.377-1.104,8.613-3.312
	c2.246-2.206,3.359-4.911,3.359-8.114c0-3.33-1.152-6.133-3.457-8.408c-2.314-2.275-5.186-3.418-8.623-3.418
	c-3.467,0-6.348,1.113-8.643,3.34C154.312,777.311,153.159,779.966,153.159,783.071z M232.817,838.667h-9.102v-57.979
	c-2.188,2.09-5.059,4.18-8.613,6.27c-3.554,2.09-6.748,3.662-9.58,4.707v-8.799c5.088-2.394,9.541-5.293,13.35-8.691
	c3.799-3.408,6.504-6.709,8.086-9.912h5.859V838.667L232.817,838.667z M273.872,859.243h-20.068v-7.539h10.967v-79.609h-10.967
	v-7.528h20.068V859.243L273.872,859.243z M291.372,255.454h68.232c15.391,0,27.119,1.182,35.186,3.535
	c10.85,3.193,20.137,8.877,27.871,17.031c7.733,8.154,13.623,18.135,17.656,29.951c4.043,11.807,6.055,26.376,6.055,43.701
	c0,15.215-1.896,28.33-5.674,39.346c-4.629,13.447-11.222,24.337-19.806,32.666c-6.475,6.3-15.215,11.222-26.229,14.757
	c-8.242,2.606-19.248,3.905-33.037,3.905h-70.254V255.454L291.372,255.454z M328.706,286.733v122.461h27.871
	c10.43,0,17.949-0.586,22.578-1.769c6.055-1.514,11.074-4.071,15.068-7.686c3.994-3.623,7.255-9.57,9.775-17.853
	c2.519-8.281,3.779-19.569,3.779-33.856c0-14.297-1.261-25.265-3.779-32.92c-2.521-7.646-6.055-13.623-10.596-17.91
	c-4.541-4.287-10.303-7.188-17.275-8.701c-5.215-1.172-15.43-1.768-30.645-1.768L328.706,286.733L328.706,286.733z M465.288,402.134
	l35.565-5.42c1.515,6.896,4.58,12.129,9.209,15.693c4.619,3.584,11.095,5.36,19.414,5.36c9.17,0,16.064-1.68,20.685-5.039
	c3.115-2.354,4.668-5.508,4.668-9.463c0-2.686-0.84-4.912-2.521-6.68c-1.768-1.68-5.723-3.242-11.854-4.668
	c-28.584-6.309-46.709-12.061-54.355-17.275c-10.596-7.235-15.889-17.284-15.889-30.146c0-11.603,4.58-21.357,13.74-29.258
	c9.17-7.9,23.379-11.855,42.627-11.855c18.33,0,31.953,2.988,40.869,8.955c8.905,5.967,15.049,14.795,18.408,26.484l-33.419,6.182
	c-1.436-5.215-4.141-9.209-8.135-11.981c-3.994-2.773-9.697-4.16-17.09-4.16c-9.336,0-16.016,1.299-20.059,3.905
	c-2.687,1.847-4.033,4.248-4.033,7.188c0,2.52,1.182,4.668,3.535,6.436c3.192,2.354,14.229,5.675,33.104,9.961
	c18.876,4.287,32.052,9.541,39.541,15.763c7.394,6.309,11.095,15.098,11.095,26.356c0,12.285-5.128,22.832-15.392,31.66
	c-10.254,8.828-25.43,13.242-45.526,13.242c-18.242,0-32.687-3.701-43.32-11.104C475.522,424.878,468.569,414.829,465.288,402.134
	L465.288,402.134z M854.175,99.546v7.588h-42.5c-0.067-1.904,0.244-3.73,0.918-5.479c1.084-2.9,2.813-5.752,5.195-8.555
	c2.383-2.813,5.83-6.055,10.332-9.746c6.992-5.732,11.709-10.264,14.17-13.613c2.451-3.35,3.682-6.514,3.682-9.502
	c0-3.125-1.112-5.771-3.35-7.92c-2.246-2.148-5.156-3.223-8.76-3.223c-3.8,0-6.836,1.143-9.121,3.428
	c-2.275,2.275-3.438,5.439-3.467,9.473l-8.115-0.84c0.557-6.045,2.646-10.664,6.279-13.838c3.622-3.174,8.485-4.756,14.6-4.756
	c6.172,0,11.055,1.709,14.658,5.127c3.594,3.428,5.391,7.666,5.391,12.725c0,2.578-0.526,5.107-1.572,7.588
	c-1.055,2.49-2.803,5.107-5.243,7.852c-2.441,2.754-6.505,6.523-12.179,11.318c-4.735,3.975-7.772,6.68-9.121,8.096
	c-1.348,1.416-2.461,2.842-3.34,4.277H854.175L854.175,99.546z M824.829,162.104c-3.271-1.201-5.703-2.91-7.285-5.137
	c-1.572-2.217-2.363-4.883-2.363-7.979c0-4.678,1.681-8.613,5.039-11.807c3.369-3.184,7.843-4.775,13.429-4.775
	c5.614,0,10.137,1.631,13.555,4.893c3.418,3.262,5.137,7.227,5.137,11.904c0,2.988-0.791,5.586-2.354,7.793
	c-1.563,2.207-3.937,3.906-7.129,5.107c3.955,1.289,6.952,3.359,9.014,6.23c2.07,2.861,3.096,6.289,3.096,10.264
	c0,5.498-1.942,10.117-5.83,13.857c-3.896,3.75-9.014,5.615-15.36,5.615c-6.339,0-11.455-1.875-15.353-5.635
	c-3.887-3.76-5.83-8.447-5.83-14.063c0-4.18,1.055-7.676,3.185-10.498C817.896,165.054,820.913,163.13,824.829,162.104z
	 M820.708,178.423c0,2.256,0.527,4.434,1.602,6.533c1.064,2.109,2.656,3.74,4.757,4.893c2.081,1.145,4.421,1.74,6.797,1.729
	c3.778,0,6.895-1.211,9.346-3.633c2.461-2.432,3.691-5.518,3.691-9.258c0-3.799-1.271-6.943-3.8-9.434
	c-2.528-2.48-5.692-3.73-9.502-3.73c-3.711,0-6.787,1.23-9.229,3.691C821.929,171.665,820.708,174.741,820.708,178.423
	L820.708,178.423z M823.247,148.726c0,3.037,0.986,5.527,2.938,7.451c1.964,1.934,4.503,2.9,7.638,2.9
	c3.037,0,5.537-0.957,7.479-2.871c1.943-1.914,2.92-4.268,2.92-7.041c0-2.9-1.006-5.332-3.008-7.305
	c-2.002-1.973-4.502-2.959-7.479-2.959c-3.019,0-5.519,0.957-7.5,2.891C824.243,143.726,823.247,146.03,823.247,148.726
	L823.247,148.726z M792.446,286.812h-7.892v-50.313c-1.903,1.807-4.395,3.623-7.479,5.439c-3.086,1.807-5.859,3.174-8.312,4.072
	v-7.627c4.414-2.08,8.271-4.59,11.582-7.549c3.302-2.949,5.646-5.82,7.013-8.594h5.088V286.812L792.446,286.812z M824.819,251.938
	c-3.271-1.201-5.703-2.91-7.285-5.137c-1.572-2.217-2.363-4.883-2.363-7.979c0-4.678,1.68-8.613,5.039-11.807
	c3.369-3.184,7.842-4.775,13.428-4.775c5.615,0,10.138,1.631,13.556,4.893c3.418,3.262,5.137,7.227,5.137,11.904
	c0,2.988-0.791,5.586-2.354,7.793c-1.563,2.207-3.936,3.906-7.129,5.107c3.955,1.289,6.953,3.359,9.015,6.23
	c2.069,2.861,3.096,6.289,3.096,10.264c0,5.498-1.943,10.117-5.83,13.857c-3.896,3.75-9.014,5.615-15.361,5.615
	c-6.338,0-11.455-1.875-15.352-5.635c-3.887-3.76-5.83-8.447-5.83-14.063c0-4.18,1.055-7.676,3.184-10.498
	C817.886,254.888,820.903,252.964,824.819,251.938L824.819,251.938z M820.698,268.257c0,2.256,0.526,4.434,1.602,6.533
	c1.064,2.109,2.656,3.74,4.756,4.893c2.082,1.145,4.422,1.74,6.797,1.729c3.779,0,6.896-1.211,9.347-3.633
	c2.461-2.432,3.69-5.518,3.69-9.258c0-3.799-1.27-6.943-3.799-9.434c-2.529-2.48-5.692-3.73-9.502-3.73
	c-3.711,0-6.787,1.23-9.229,3.691C821.919,261.499,820.698,264.575,820.698,268.257L820.698,268.257z M823.237,238.56
	c0,3.037,0.985,5.527,2.938,7.451c1.963,1.934,4.502,2.9,7.638,2.9c3.036,0,5.536-0.957,7.479-2.871s2.92-4.268,2.92-7.041
	c0-2.9-1.006-5.332-3.008-7.305c-2.002-1.973-4.502-2.959-7.48-2.959c-3.018,0-5.518,0.957-7.5,2.891
	C824.233,233.56,823.237,235.864,823.237,238.56L823.237,238.56z M762.749,359.683l7.9-1.055c0.907,4.473,2.45,7.695,4.629,9.668
	c2.178,1.973,4.834,2.959,7.959,2.959c3.711,0,6.854-1.279,9.414-3.856c2.559-2.568,3.838-5.763,3.838-9.562
	c0-3.623-1.191-6.621-3.556-8.975c-2.372-2.354-5.381-3.525-9.043-3.525c-1.483,0-3.34,0.293-5.565,0.879l0.879-6.934
	c0.527,0.059,0.947,0.088,1.271,0.088c3.358,0,6.387-0.879,9.081-2.637c2.687-1.748,4.033-4.453,4.033-8.115
	c0-2.891-0.977-5.293-2.938-7.188c-1.953-1.903-4.492-2.852-7.588-2.852c-3.066,0-5.625,0.957-7.677,2.891
	c-2.051,1.935-3.358,4.824-3.944,8.691l-7.9-1.406c0.967-5.293,3.164-9.395,6.582-12.305s7.676-4.365,12.764-4.365
	c3.506,0,6.738,0.752,9.697,2.256c2.949,1.504,5.215,3.564,6.777,6.162c1.563,2.607,2.344,5.371,2.344,8.291
	c0,2.783-0.742,5.313-2.236,7.588c-1.494,2.285-3.701,4.103-6.621,5.439c3.799,0.879,6.758,2.705,8.857,5.469
	c2.109,2.764,3.164,6.221,3.164,10.371c0,5.615-2.051,10.371-6.144,14.277c-4.102,3.905-9.276,5.858-15.526,5.858
	c-5.646,0-10.332-1.68-14.063-5.049C765.405,369.39,763.276,365.034,762.749,359.683L762.749,359.683z M854.165,369.067v7.588h-42.5
	c-0.068-1.904,0.244-3.73,0.918-5.479c1.084-2.899,2.813-5.752,5.195-8.555c2.383-2.813,5.83-6.055,10.332-9.746
	c6.991-5.732,11.709-10.264,14.17-13.613c2.451-3.35,3.682-6.514,3.682-9.502c0-3.125-1.113-5.771-3.35-7.92
	c-2.246-2.147-5.156-3.223-8.761-3.223c-3.799,0-6.836,1.143-9.12,3.428c-2.275,2.275-3.438,5.439-3.468,9.473l-8.114-0.84
	c0.557-6.045,2.646-10.664,6.278-13.838c3.623-3.174,8.486-4.756,14.601-4.756c6.172,0,11.055,1.709,14.658,5.127
	c3.594,3.428,5.391,7.666,5.391,12.725c0,2.578-0.527,5.107-1.572,7.589c-1.055,2.489-2.803,5.106-5.244,7.852
	c-2.44,2.754-6.504,6.523-12.178,11.318c-4.736,3.975-7.772,6.68-9.121,8.096c-1.348,1.416-2.461,2.842-3.34,4.277H854.165z
	 M762.749,449.517l7.9-1.055c0.907,4.473,2.45,7.695,4.629,9.668c2.178,1.974,4.834,2.959,7.959,2.959
	c3.711,0,6.854-1.278,9.414-3.856c2.559-2.568,3.838-5.763,3.838-9.562c0-3.623-1.191-6.621-3.556-8.975
	c-2.372-2.354-5.381-3.525-9.043-3.525c-1.483,0-3.34,0.293-5.565,0.879l0.879-6.934c0.527,0.059,0.947,0.088,1.271,0.088
	c3.358,0,6.387-0.879,9.081-2.637c2.687-1.748,4.033-4.453,4.033-8.115c0-2.891-0.977-5.293-2.938-7.188
	c-1.953-1.903-4.492-2.852-7.588-2.852c-3.066,0-5.625,0.957-7.677,2.891c-2.051,1.935-3.358,4.824-3.944,8.691l-7.9-1.406
	c0.967-5.293,3.164-9.395,6.582-12.305s7.676-4.365,12.764-4.365c3.506,0,6.738,0.752,9.697,2.256
	c2.949,1.504,5.215,3.564,6.777,6.162c1.563,2.607,2.344,5.371,2.344,8.291c0,2.783-0.742,5.313-2.236,7.588
	c-1.494,2.285-3.701,4.103-6.621,5.439c3.799,0.879,6.758,2.705,8.857,5.469c2.109,2.764,3.164,6.221,3.164,10.371
	c0,5.615-2.051,10.371-6.144,14.277c-4.102,3.905-9.276,5.858-15.526,5.858c-5.646,0-10.332-1.68-14.063-5.049
	C765.405,459.225,763.276,454.868,762.749,449.517L762.749,449.517z M854.165,458.901v7.588h-42.5
	c-0.068-1.904,0.244-3.73,0.918-5.479c1.084-2.899,2.813-5.752,5.195-8.555c2.383-2.813,5.83-6.055,10.332-9.746
	c6.991-5.732,11.709-10.264,14.17-13.613c2.451-3.35,3.682-6.514,3.682-9.502c0-3.125-1.113-5.771-3.35-7.92
	c-2.246-2.147-5.156-3.223-8.761-3.223c-3.799,0-6.836,1.143-9.12,3.428c-2.275,2.275-3.438,5.439-3.468,9.473l-8.114-0.84
	c0.557-6.045,2.646-10.664,6.278-13.838c3.623-3.174,8.486-4.756,14.601-4.756c6.172,0,11.055,1.709,14.658,5.127
	c3.594,3.428,5.391,7.666,5.391,12.725c0,2.578-0.527,5.107-1.572,7.589c-1.055,2.489-2.803,5.106-5.244,7.852
	c-2.44,2.754-6.504,6.523-12.178,11.318c-4.736,3.975-7.772,6.68-9.121,8.096c-1.348,1.416-2.461,2.842-3.34,4.277H854.165z
	 M792.446,556.333h-7.892V506.02c-1.903,1.808-4.395,3.623-7.479,5.439c-3.086,1.807-5.859,3.174-8.312,4.072v-7.627
	c4.414-2.08,8.271-4.59,11.582-7.549c3.302-2.949,5.646-5.82,7.013-8.595h5.088V556.333L792.446,556.333z M813.198,500.444v-7.588
	h41.631v6.143c-4.103,4.354-8.154,10.146-12.178,17.373c-4.024,7.227-7.129,14.647-9.316,22.285
	c-1.582,5.381-2.588,11.27-3.026,17.676h-8.115c0.088-5.059,1.074-11.172,2.979-18.34c1.904-7.158,4.629-14.072,8.185-20.724
	c3.555-6.65,7.334-12.266,11.338-16.825H813.198L813.198,500.444z M842.417,646.167h-7.891v-50.313
	c-1.904,1.808-4.396,3.623-7.48,5.439c-3.086,1.807-5.858,3.174-8.311,4.072v-7.627c4.414-2.08,8.271-4.59,11.582-7.549
	c3.301-2.949,5.645-5.82,7.012-8.595h5.088V646.167L842.417,646.167z"/>
</svg>
