<?xml version="1.0" encoding="utf-8"?>
<!-- Generator: Adobe Illustrator 16.0.3, SVG Export Plug-In . SVG Version: 6.00 Build 0)  -->
<!DOCTYPE svg PUBLIC "-//W3C//DTD SVG 1.1//EN" "http://www.w3.org/Graphics/SVG/1.1/DTD/svg11.dtd">
<svg version="1.1" id="Layer_1" xmlns="http://www.w3.org/2000/svg" xmlns:xlink="http://www.w3.org/1999/xlink" x="0px" y="0px"
	 width="900px" height="900px" viewBox="0 0 900 900" enable-background="new 0 0 900 900" xml:space="preserve">
<path d="M86.553,153.923H72.715V65.74c-3.34,3.184-7.705,6.357-13.115,9.531c-5.4,3.184-10.264,5.566-14.561,7.158V69.05
	c7.734-3.643,14.502-8.047,20.293-13.223c5.791-5.176,9.893-10.205,12.305-15.068h8.916V153.923z M162.432,153.923h-13.838V65.74
	c-3.34,3.184-7.705,6.357-13.115,9.531c-5.4,3.184-10.264,5.566-14.561,7.158V69.05c7.734-3.643,14.502-8.047,20.293-13.223
	c5.791-5.176,9.893-10.205,12.305-15.068h8.916V153.923L162.432,153.923z M238.311,153.923h-13.838V65.74
	c-3.34,3.184-7.705,6.357-13.115,9.531c-5.4,3.184-10.264,5.566-14.561,7.158V69.05c7.734-3.643,14.502-8.047,20.293-13.223
	c5.791-5.176,9.893-10.205,12.305-15.068h8.916V153.923L238.311,153.923z M143.672,652.834v-74.102h32.861
	c6.602,0,11.621,0.664,15.059,1.991c3.438,1.328,6.182,3.691,8.242,7.052c2.051,3.379,3.076,7.09,3.076,11.172
	c0,5.254-1.699,9.688-5.098,13.301c-3.408,3.594-8.662,5.898-15.771,6.875c2.588,1.23,4.561,2.461,5.908,3.691
	c2.871,2.616,5.576,5.897,8.145,9.844l12.881,20.176H196.65l-9.814-15.43c-2.861-4.435-5.215-7.853-7.07-10.195
	c-1.855-2.363-3.516-4.023-4.98-4.961s-2.959-1.602-4.473-1.973c-1.113-0.234-2.93-0.353-5.459-0.353h-11.377v32.91L143.672,652.834
	L143.672,652.834z M153.477,611.428h21.084c4.482,0,7.979-0.449,10.508-1.387c2.529-0.918,4.453-2.402,5.762-4.453
	c1.318-2.031,1.973-4.238,1.973-6.641c0-3.496-1.27-6.388-3.818-8.633c-2.539-2.267-6.563-3.398-12.051-3.398h-23.457
	L153.477,611.428L153.477,611.428z M213.73,625.998c0-9.941,2.764-17.305,8.291-22.09c4.609-3.984,10.244-5.978,16.885-5.978
	c7.373,0,13.408,2.422,18.086,7.267c4.688,4.823,7.031,11.504,7.031,20.039c0,6.895-1.035,12.344-3.105,16.289
	c-2.08,3.965-5.088,7.051-9.053,9.237c-3.955,2.188-8.281,3.281-12.959,3.281c-7.52,0-13.594-2.402-18.223-7.227
	C216.045,641.994,213.73,635.061,213.73,625.998L213.73,625.998z M223.076,625.998c0,6.875,1.504,12.012,4.502,15.43
	s6.777,5.138,11.328,5.138c4.512,0,8.271-1.72,11.27-5.156c2.999-3.438,4.492-8.672,4.492-15.724c0-6.641-1.504-11.659-4.521-15.077
	c-3.018-3.438-6.768-5.138-11.24-5.138c-4.551,0-8.33,1.699-11.328,5.099C224.58,613.986,223.076,619.123,223.076,625.998z
	 M311.436,635.549l9.395,1.152c-1.484,5.488-4.229,9.766-8.232,12.793c-4.014,3.027-9.141,4.551-15.371,4.551
	c-7.852,0-14.072-2.422-18.672-7.266c-4.6-4.824-6.904-11.603-6.904-20.332c0-9.023,2.324-16.035,6.973-21.035
	c4.658-4.98,10.684-7.48,18.096-7.48c7.178,0,13.047,2.441,17.598,7.345c4.541,4.883,6.816,11.758,6.816,20.604
	c0,0.547-0.01,1.349-0.049,2.441h-40.029c0.332,5.897,2.002,10.41,5,13.535c2.998,3.145,6.738,4.707,11.221,4.707
	c3.34,0,6.182-0.88,8.545-2.638C308.184,642.189,310.049,639.377,311.436,635.549L311.436,635.549z M281.563,620.842h29.971
	c-0.41-4.531-1.553-7.91-3.438-10.176c-2.9-3.496-6.66-5.254-11.27-5.254c-4.18,0-7.695,1.406-10.537,4.199
	C283.438,612.404,281.865,616.154,281.563,620.842L281.563,620.842z M332.256,652.834v-53.691h8.184v7.638
	c3.945-5.898,9.639-8.849,17.09-8.849c3.232,0,6.201,0.586,8.916,1.759c2.715,1.151,4.746,2.676,6.094,4.569
	c1.348,1.875,2.285,4.121,2.832,6.72c0.332,1.68,0.498,4.629,0.498,8.848v33.008h-9.092v-32.656c0-3.711-0.352-6.483-1.064-8.319
	c-0.703-1.836-1.963-3.302-3.76-4.396c-1.807-1.094-3.926-1.641-6.348-1.641c-3.877,0-7.217,1.229-10.029,3.69
	c-2.822,2.461-4.229,7.129-4.229,14.004v29.316H332.256L332.256,652.834z M409.697,644.689l1.309,8.047
	c-2.559,0.526-4.844,0.801-6.875,0.801c-3.301,0-5.859-0.527-7.676-1.563c-1.826-1.055-3.105-2.422-3.848-4.12
	c-0.743-1.699-1.104-5.293-1.104-10.742v-30.879h-6.68v-7.091h6.68v-13.28l9.043-5.47v18.75h9.15v7.091h-9.15v31.387
	c0,2.598,0.156,4.258,0.479,5c0.322,0.742,0.84,1.328,1.571,1.777c0.724,0.43,1.759,0.645,3.105,0.645
	C406.709,645.041,408.047,644.924,409.697,644.689L409.697,644.689z M416.924,657.268l8.848,1.328
	c0.371,2.734,1.396,4.707,3.076,5.957c2.267,1.681,5.342,2.539,9.258,2.539c4.209,0,7.462-0.858,9.757-2.539
	c2.284-1.68,3.838-4.043,4.647-7.069c0.469-1.855,0.685-5.742,0.654-11.681c-3.975,4.688-8.926,7.031-14.863,7.031
	c-7.373,0-13.086-2.676-17.129-7.988c-4.043-5.332-6.063-11.719-6.063-19.16c0-5.116,0.918-9.844,2.772-14.18
	c1.855-4.336,4.541-7.676,8.066-10.039c3.516-2.344,7.656-3.535,12.401-3.535c6.339,0,11.563,2.56,15.675,7.695v-6.484h8.389v46.406
	c0,8.359-0.85,14.277-2.549,17.773c-1.709,3.477-4.404,6.229-8.086,8.262c-3.691,2.012-8.232,3.027-13.623,3.027
	c-6.406,0-11.572-1.445-15.519-4.316C418.691,667.404,416.787,663.068,416.924,657.268L416.924,657.268z M424.453,625.021
	c0,7.051,1.396,12.188,4.199,15.43c2.793,3.223,6.299,4.844,10.508,4.844c4.18,0,7.686-1.602,10.518-4.824
	c2.832-3.222,4.248-8.262,4.248-15.137c0-6.563-1.465-11.523-4.375-14.863c-2.92-3.34-6.426-5-10.537-5
	c-4.043,0-7.479,1.642-10.313,4.922C425.868,613.674,424.453,618.557,424.453,625.021L424.453,625.021z M512.91,635.549l9.395,1.152
	c-1.483,5.488-4.229,9.766-8.231,12.793c-4.015,3.027-9.142,4.551-15.371,4.551c-7.853,0-14.072-2.422-18.672-7.266
	c-4.601-4.824-6.904-11.603-6.904-20.332c0-9.023,2.324-16.035,6.973-21.035c4.658-4.98,10.685-7.48,18.097-7.48
	c7.178,0,13.047,2.441,17.598,7.345c4.541,4.883,6.816,11.758,6.816,20.604c0,0.547-0.011,1.349-0.05,2.441h-40.028
	c0.332,5.897,2.002,10.41,5,13.535c2.998,3.145,6.738,4.707,11.221,4.707c3.34,0,6.182-0.88,8.545-2.638
	C509.658,642.189,511.523,639.377,512.91,635.549L512.91,635.549z M483.037,620.842h29.971c-0.41-4.531-1.553-7.91-3.438-10.176
	c-2.9-3.496-6.66-5.254-11.271-5.254c-4.18,0-7.694,1.406-10.537,4.199C484.912,612.404,483.34,616.154,483.037,620.842
	L483.037,620.842z M533.73,652.834v-53.691h8.184v7.638c3.945-5.898,9.639-8.849,17.09-8.849c3.232,0,6.201,0.586,8.916,1.759
	c2.715,1.151,4.746,2.676,6.094,4.569c1.349,1.875,2.285,4.121,2.832,6.72c0.332,1.68,0.498,4.629,0.498,8.848v33.008h-9.092
	v-32.656c0-3.711-0.352-6.483-1.064-8.319c-0.702-1.836-1.963-3.302-3.76-4.396c-1.807-1.094-3.926-1.641-6.348-1.641
	c-3.877,0-7.217,1.229-10.029,3.69c-2.822,2.461-4.229,7.129-4.229,14.004v29.316H533.73z M591.348,589.201v-10.469h9.103v10.469
	H591.348z M591.348,652.834v-53.691h9.103v53.691H591.348z M649.473,652.834v-7.891c-4.18,6.073-9.854,9.102-17.03,9.102
	c-3.175,0-6.123-0.604-8.878-1.815c-2.743-1.212-4.784-2.734-6.112-4.591c-1.328-1.836-2.267-4.082-2.803-6.737
	c-0.371-1.777-0.558-4.609-0.558-8.496v-33.263h9.103v29.785c0,4.746,0.186,7.949,0.557,9.59c0.566,2.402,1.777,4.277,3.633,5.646
	c1.856,1.368,4.15,2.051,6.875,2.051c2.734,0,5.293-0.703,7.687-2.108c2.393-1.388,4.082-3.302,5.078-5.703
	c0.995-2.402,1.493-5.898,1.493-10.488v-28.77h9.093v53.69L649.473,652.834L649.473,652.834z M671.875,652.834v-53.691h8.135v7.539
	c1.689-2.637,3.926-4.745,6.719-6.348c2.804-1.602,5.986-2.402,9.562-2.402c3.975,0,7.236,0.841,9.774,2.48
	c2.55,1.66,4.337,3.965,5.382,6.934c4.248-6.27,9.774-9.414,16.582-9.414c5.321,0,9.414,1.484,12.284,4.435
	c2.861,2.949,4.298,7.479,4.298,13.613v36.854h-9.054v-33.828c0-3.633-0.293-6.25-0.879-7.852c-0.596-1.603-1.66-2.892-3.213-3.867
	c-1.553-0.977-3.369-1.465-5.459-1.465c-3.77,0-6.904,1.25-9.404,3.77c-2.489,2.5-3.739,6.523-3.739,12.051v31.191h-9.093v-34.883
	c0-4.043-0.741-7.07-2.227-9.103c-1.484-2.012-3.906-3.026-7.275-3.026c-2.567,0-4.932,0.684-7.108,2.031
	c-2.168,1.348-3.74,3.301-4.728,5.897c-0.977,2.599-1.465,6.349-1.465,11.23v27.852L671.875,652.834L671.875,652.834z
	 M57.373,859.24v-94.668h20.068v7.52H66.475v79.609h10.967v7.539H57.373L57.373,859.24z M131.221,829.924v8.75H82.246
	c-0.075-2.159,0.287-4.312,1.064-6.328c1.24-3.34,3.242-6.621,5.986-9.844c2.744-3.242,6.709-6.992,11.904-11.229
	c8.047-6.603,13.496-11.837,16.328-15.685c2.822-3.867,4.238-7.52,4.238-10.957c0-3.594-1.289-6.641-3.867-9.121
	c-2.578-2.479-5.938-3.711-10.078-3.711c-4.385,0-7.891,1.31-10.518,3.945c-2.627,2.617-3.955,6.27-3.994,10.918l-9.346-0.957
	c0.635-6.973,3.047-12.305,7.227-15.957s9.785-5.488,16.836-5.488c7.109,0,12.734,1.974,16.875,5.918
	c4.15,3.945,6.221,8.828,6.221,14.669c0,2.948-0.605,5.879-1.816,8.729c-1.221,2.871-3.232,5.879-6.045,9.063
	c-2.813,3.163-7.49,7.5-14.023,13.026c-5.459,4.59-8.965,7.695-10.518,9.336c-1.553,1.621-2.832,3.281-3.838,4.922H131.221
	L131.221,829.924z M154.98,798.479c-3.779-1.366-6.572-3.34-8.398-5.897c-1.816-2.578-2.725-5.646-2.725-9.199
	c0-5.391,1.934-9.922,5.811-13.612c3.877-3.673,9.033-5.509,15.469-5.509c6.465,0,11.68,1.896,15.615,5.646
	c3.945,3.75,5.918,8.34,5.918,13.729c0,3.438-0.898,6.427-2.705,8.966c-1.807,2.538-4.541,4.512-8.213,5.879
	c4.551,1.483,8.008,3.887,10.391,7.188c2.373,3.301,3.555,7.246,3.555,11.816c0,6.348-2.236,11.66-6.719,15.977
	c-4.483,4.317-10.381,6.465-17.686,6.465c-7.314,0-13.213-2.147-17.695-6.483s-6.719-9.728-6.719-16.211
	c0-4.806,1.221-8.849,3.662-12.091C146.982,801.877,150.459,799.67,154.98,798.479L154.98,798.479z M150.225,817.287
	c0,2.598,0.615,5.098,1.846,7.539c1.23,2.422,3.057,4.297,5.488,5.625c2.422,1.328,5.029,1.992,7.832,1.992
	c4.346,0,7.93-1.388,10.762-4.181c2.832-2.813,4.248-6.366,4.248-10.664c0-4.395-1.455-8.008-4.375-10.879
	c-2.91-2.852-6.563-4.297-10.938-4.297c-4.277,0-7.832,1.426-10.645,4.258S150.225,813.049,150.225,817.287L150.225,817.287z
	 M153.154,783.068c0,3.516,1.133,6.366,3.389,8.594c2.256,2.227,5.186,3.34,8.799,3.34c3.506,0,6.377-1.113,8.613-3.32
	c2.246-2.207,3.359-4.901,3.359-8.104c0-3.34-1.152-6.133-3.457-8.418c-2.314-2.267-5.186-3.418-8.623-3.418
	c-3.467,0-6.348,1.112-8.643,3.34C154.307,777.307,153.154,779.963,153.154,783.068L153.154,783.068z M232.813,838.674h-9.102
	v-57.988c-2.188,2.091-5.059,4.181-8.613,6.271c-3.554,2.09-6.748,3.672-9.58,4.707v-8.789c5.088-2.402,9.541-5.293,13.35-8.691
	c3.799-3.418,6.504-6.719,8.086-9.922h5.859V838.674L232.813,838.674z M273.867,859.24h-20.068v-7.539h10.967v-79.609h-10.967v-7.52
	h20.068V859.24L273.867,859.24z M284.57,440.349V255.457h78.574c19.756,0,34.111,1.67,43.066,4.99
	c8.955,3.32,16.123,9.229,21.504,17.715c5.381,8.496,8.076,18.203,8.076,29.131c0,13.877-4.082,25.332-12.236,34.365
	c-8.153,9.043-20.352,14.735-36.572,17.09c8.066,4.717,14.727,9.883,19.99,15.518c5.254,5.636,12.334,15.636,21.25,30.011
	l22.568,36.073h-44.639l-26.992-40.233c-9.59-14.375-16.143-23.438-19.678-27.179c-3.525-3.739-7.266-6.299-11.221-7.694
	c-3.955-1.387-10.215-2.08-18.789-2.08h-7.568v77.188H284.57V440.349z M321.904,333.65h27.617c17.91,0,29.092-0.752,33.545-2.267
	c4.463-1.514,7.949-4.121,10.469-7.821c2.52-3.691,3.789-8.32,3.789-13.867c0-6.221-1.66-11.25-4.98-15.078
	c-3.33-3.818-8.018-6.24-14.063-7.246c-3.027-0.42-12.109-0.635-27.246-0.635h-29.131V333.65L321.904,333.65z M467.441,449.177
	l40.479,4.926c0.674,4.707,2.227,7.931,4.668,9.707c3.359,2.521,8.662,3.789,15.889,3.789c9.248,0,16.183-1.405,20.812-4.18
	c3.115-1.836,5.469-4.824,7.061-8.945c1.095-2.942,1.642-8.363,1.642-16.273v-19.54c-10.597,14.463-23.965,21.688-40.107,21.688
	c-17.988,0-32.236-7.606-42.754-22.832c-8.232-12.021-12.354-26.981-12.354-44.893c0-22.451,5.399-39.6,16.2-51.455
	c10.812-11.854,24.238-17.783,40.293-17.783c16.563,0,30.226,7.275,40.996,21.816v-18.789h33.164v120.186
	c0,15.812-1.299,27.622-3.906,35.435c-2.606,7.832-6.27,13.965-10.977,18.418s-10.996,7.949-18.848,10.469
	c-7.871,2.521-17.813,3.789-29.834,3.789c-22.695,0-38.8-3.887-48.302-11.66c-9.502-7.793-14.248-17.637-14.248-29.59
	C467.32,452.031,467.362,450.604,467.441,449.177L467.441,449.177z M499.092,370.603c0,14.21,2.754,24.619,8.262,31.222
	c5.509,6.602,12.296,9.893,20.371,9.893c8.652,0,15.968-3.379,21.943-10.146c5.967-6.769,8.955-16.797,8.955-30.078
	c0-13.877-2.861-24.17-8.574-30.898c-5.723-6.729-12.949-10.088-21.699-10.088c-8.485,0-15.487,3.301-20.996,9.894
	C501.846,347,499.092,357.068,499.092,370.603L499.092,370.603z M854.17,99.539v7.588h-42.5c-0.068-1.904,0.244-3.73,0.918-5.479
	c1.084-2.9,2.813-5.752,5.195-8.555c2.383-2.813,5.83-6.055,10.332-9.746c6.992-5.732,11.709-10.264,14.17-13.613
	c2.451-3.35,3.682-6.514,3.682-9.502c0-3.125-1.113-5.771-3.35-7.92c-2.246-2.148-5.156-3.223-8.76-3.223
	c-3.8,0-6.836,1.143-9.121,3.428c-2.275,2.275-3.438,5.439-3.467,9.473l-8.115-0.84c0.557-6.045,2.646-10.664,6.278-13.838
	c3.623-3.174,8.486-4.756,14.601-4.756c6.172,0,11.055,1.709,14.658,5.127c3.594,3.428,5.391,7.666,5.391,12.725
	c0,2.578-0.527,5.107-1.572,7.588c-1.055,2.49-2.803,5.107-5.244,7.852c-2.44,2.754-6.504,6.523-12.178,11.318
	c-4.736,3.975-7.772,6.68-9.121,8.096c-1.348,1.416-2.461,2.842-3.34,4.277H854.17L854.17,99.539z M824.824,162.097
	c-3.271-1.201-5.703-2.91-7.285-5.137c-1.572-2.217-2.363-4.883-2.363-7.979c0-4.678,1.681-8.613,5.039-11.807
	c3.369-3.184,7.842-4.775,13.428-4.775c5.615,0,10.138,1.631,13.556,4.893s5.137,7.227,5.137,11.904
	c0,2.988-0.791,5.586-2.354,7.793c-1.563,2.207-3.937,3.906-7.13,5.107c3.955,1.289,6.953,3.359,9.015,6.23
	c2.069,2.861,3.096,6.289,3.096,10.264c0,5.498-1.943,10.117-5.83,13.857c-3.896,3.75-9.014,5.615-15.361,5.615
	c-6.338,0-11.454-1.875-15.352-5.635c-3.887-3.76-5.83-8.447-5.83-14.063c0-4.18,1.055-7.676,3.185-10.498
	C817.891,165.046,820.908,163.123,824.824,162.097z M820.703,178.416c0,2.256,0.527,4.434,1.602,6.533
	c1.064,2.109,2.656,3.74,4.756,4.893c2.082,1.146,4.422,1.741,6.798,1.729c3.778,0,6.895-1.211,9.346-3.633
	c2.461-2.432,3.69-5.518,3.69-9.258c0-3.799-1.27-6.943-3.799-9.434c-2.528-2.48-5.692-3.73-9.502-3.73
	c-3.711,0-6.787,1.23-9.229,3.691C821.924,171.658,820.703,174.734,820.703,178.416L820.703,178.416z M823.242,148.718
	c0,3.037,0.986,5.527,2.938,7.451c1.964,1.934,4.502,2.9,7.638,2.9c3.037,0,5.537-0.957,7.479-2.871
	c1.943-1.914,2.92-4.268,2.92-7.041c0-2.9-1.006-5.332-3.008-7.305s-4.502-2.959-7.479-2.959c-3.019,0-5.519,0.957-7.5,2.891
	C824.238,143.718,823.242,146.023,823.242,148.718L823.242,148.718z M792.441,286.804h-7.892v-50.313
	c-1.903,1.807-4.395,3.623-7.479,5.439c-3.086,1.807-5.859,3.174-8.312,4.072v-7.627c4.414-2.08,8.271-4.59,11.582-7.549
	c3.301-2.949,5.646-5.82,7.013-8.594h5.088V286.804L792.441,286.804z M824.814,251.931c-3.271-1.201-5.703-2.91-7.285-5.137
	c-1.572-2.217-2.363-4.883-2.363-7.979c0-4.678,1.68-8.613,5.039-11.807c3.369-3.184,7.842-4.775,13.428-4.775
	c5.615,0,10.137,1.631,13.555,4.893c3.418,3.262,5.138,7.227,5.138,11.904c0,2.988-0.791,5.586-2.354,7.793
	c-1.563,2.207-3.936,3.906-7.129,5.107c3.955,1.289,6.953,3.359,9.014,6.23c2.07,2.861,3.097,6.289,3.097,10.264
	c0,5.498-1.943,10.117-5.83,13.857c-3.896,3.75-9.014,5.615-15.361,5.615c-6.338,0-11.455-1.875-15.352-5.635
	c-3.888-3.76-5.83-8.447-5.83-14.063c0-4.18,1.055-7.676,3.184-10.498C817.881,254.88,820.898,252.957,824.814,251.931z
	 M820.693,268.25c0,2.256,0.526,4.434,1.602,6.533c1.064,2.109,2.656,3.74,4.756,4.893c2.082,1.146,4.421,1.741,6.797,1.729
	c3.779,0,6.896-1.211,9.347-3.633c2.461-2.432,3.69-5.518,3.69-9.258c0-3.799-1.27-6.943-3.799-9.434
	c-2.529-2.48-5.693-3.73-9.502-3.73c-3.711,0-6.787,1.23-9.229,3.691C821.914,261.492,820.693,264.568,820.693,268.25
	L820.693,268.25z M823.232,238.552c0,3.037,0.985,5.527,2.938,7.451c1.963,1.934,4.502,2.9,7.637,2.9
	c3.037,0,5.537-0.957,7.48-2.871c1.943-1.914,2.92-4.268,2.92-7.041c0-2.9-1.006-5.332-3.008-7.305s-4.502-2.959-7.48-2.959
	c-3.018,0-5.518,0.957-7.5,2.891C824.229,233.552,823.232,235.857,823.232,238.552L823.232,238.552z M762.744,359.675l7.9-1.055
	c0.907,4.473,2.45,7.695,4.629,9.668c2.178,1.973,4.834,2.959,7.959,2.959c3.711,0,6.854-1.279,9.414-3.857
	c2.559-2.567,3.838-5.762,3.838-9.561c0-3.623-1.191-6.621-3.556-8.976c-2.373-2.354-5.381-3.524-9.043-3.524
	c-1.483,0-3.34,0.293-5.565,0.879l0.879-6.934c0.527,0.059,0.947,0.088,1.27,0.088c3.359,0,6.388-0.879,9.082-2.638
	c2.687-1.748,4.033-4.452,4.033-8.114c0-2.892-0.977-5.293-2.938-7.188c-1.953-1.904-4.492-2.852-7.589-2.852
	c-3.065,0-5.625,0.957-7.676,2.891c-2.051,1.935-3.358,4.824-3.945,8.691l-7.899-1.406c0.967-5.293,3.164-9.395,6.582-12.305
	s7.676-4.365,12.764-4.365c3.506,0,6.738,0.752,9.697,2.256c2.949,1.504,5.215,3.564,6.776,6.162
	c1.563,2.607,2.345,5.371,2.345,8.291c0,2.783-0.742,5.313-2.236,7.588c-1.494,2.285-3.701,4.102-6.621,5.439
	c3.799,0.879,6.758,2.705,8.857,5.469c2.108,2.764,3.164,6.221,3.164,10.371c0,5.615-2.052,10.371-6.144,14.276
	c-4.102,3.906-9.276,5.859-15.526,5.859c-5.646,0-10.332-1.68-14.063-5.049C765.4,369.382,763.271,365.027,762.744,359.675
	L762.744,359.675z M854.16,369.06v7.589h-42.5c-0.068-1.904,0.244-3.73,0.918-5.479c1.084-2.9,2.813-5.752,5.195-8.555
	c2.383-2.813,5.83-6.056,10.332-9.746c6.991-5.732,11.709-10.265,14.17-13.613c2.45-3.35,3.682-6.514,3.682-9.502
	c0-3.125-1.113-5.771-3.35-7.92c-2.246-2.148-5.156-3.223-8.761-3.223c-3.799,0-6.836,1.143-9.12,3.428
	c-2.275,2.274-3.438,5.438-3.468,9.473l-8.114-0.84c0.557-6.045,2.646-10.664,6.278-13.838c3.623-3.174,8.486-4.756,14.601-4.756
	c6.172,0,11.055,1.709,14.657,5.127c3.595,3.428,5.392,7.666,5.392,12.725c0,2.578-0.527,5.107-1.572,7.588
	c-1.055,2.49-2.803,5.107-5.244,7.853c-2.44,2.754-6.504,6.522-12.178,11.317c-4.736,3.976-7.773,6.681-9.121,8.097
	s-2.461,2.842-3.34,4.276H854.16z M762.744,449.509l7.9-1.055c0.907,4.477,2.45,7.7,4.629,9.672
	c2.178,1.972,4.834,2.949,7.959,2.949c3.711,0,6.854-1.271,9.414-3.849c2.559-2.577,3.838-5.766,3.838-9.564
	c0-3.623-1.191-6.621-3.556-8.975c-2.373-2.354-5.381-3.525-9.043-3.525c-1.483,0-3.34,0.293-5.565,0.879l0.879-6.934
	c0.527,0.059,0.947,0.088,1.27,0.088c3.359,0,6.388-0.879,9.082-2.638c2.687-1.747,4.033-4.452,4.033-8.114
	c0-2.892-0.977-5.293-2.938-7.188c-1.953-1.903-4.492-2.852-7.589-2.852c-3.065,0-5.625,0.957-7.676,2.891
	c-2.051,1.935-3.358,4.824-3.945,8.691l-7.899-1.406c0.967-5.293,3.164-9.396,6.582-12.305c3.418-2.91,7.676-4.365,12.764-4.365
	c3.506,0,6.738,0.752,9.697,2.256c2.949,1.504,5.215,3.564,6.776,6.162c1.563,2.606,2.345,5.371,2.345,8.291
	c0,2.783-0.742,5.313-2.236,7.588c-1.494,2.285-3.701,4.103-6.621,5.439c3.799,0.879,6.758,2.704,8.857,5.469
	c2.108,2.764,3.164,6.221,3.164,10.371c0,5.62-2.052,10.366-6.144,14.271c-4.102,3.906-9.276,5.859-15.526,5.859
	c-5.646,0-10.332-1.68-14.063-5.039C765.4,459.218,763.271,454.865,762.744,449.509L762.744,449.509z M854.16,458.889v7.599h-42.5
	c-0.068-1.914,0.244-3.73,0.918-5.488c1.084-2.891,2.813-5.742,5.195-8.555c2.383-2.808,5.83-6.05,10.332-9.741
	c6.991-5.732,11.709-10.264,14.17-13.613c2.45-3.35,3.682-6.514,3.682-9.502c0-3.125-1.113-5.771-3.35-7.92
	c-2.246-2.148-5.156-3.223-8.761-3.223c-3.799,0-6.836,1.143-9.12,3.428c-2.275,2.275-3.438,5.438-3.468,9.473l-8.114-0.84
	c0.557-6.045,2.646-10.664,6.278-13.838c3.623-3.174,8.486-4.756,14.601-4.756c6.172,0,11.055,1.709,14.657,5.127
	c3.595,3.428,5.392,7.666,5.392,12.725c0,2.578-0.527,5.107-1.572,7.588c-1.055,2.49-2.803,5.107-5.244,7.853
	c-2.44,2.754-6.504,6.522-12.178,11.317c-4.736,3.976-7.773,6.685-9.121,8.091c-1.348,1.426-2.461,2.852-3.34,4.276H854.16
	L854.16,458.889z M792.441,556.33h-7.892v-50.313c-1.903,1.798-4.395,3.613-7.479,5.431c-3.085,1.816-5.859,3.184-8.312,4.082
	v-7.638c4.414-2.069,8.271-4.59,11.582-7.539c3.302-2.948,5.646-5.819,7.013-8.594h5.088V556.33L792.441,556.33z M824.814,521.447
	c-3.271-1.191-5.703-2.91-7.285-5.138c-1.572-2.206-2.363-4.883-2.363-7.969c0-4.688,1.68-8.613,5.039-11.815
	c3.369-3.185,7.842-4.767,13.428-4.767c5.615,0,10.138,1.621,13.556,4.883c3.418,3.263,5.137,7.228,5.137,11.914
	c0,2.988-0.791,5.586-2.354,7.793c-1.563,2.207-3.936,3.906-7.129,5.099c3.955,1.289,6.953,3.358,9.015,6.229
	c2.069,2.871,3.096,6.289,3.096,10.273c0,5.487-1.943,10.117-5.83,13.848c-3.896,3.75-9.014,5.625-15.361,5.625
	c-6.338,0-11.455-1.875-15.352-5.645c-3.888-3.75-5.83-8.438-5.83-14.063c0-4.18,1.055-7.676,3.184-10.488
	C817.881,524.396,820.898,522.482,824.814,521.447z M820.693,537.775c0,2.246,0.526,4.434,1.602,6.522
	c1.064,2.109,2.656,3.75,4.756,4.902c2.109,1.151,4.375,1.719,6.797,1.719c3.779,0,6.896-1.211,9.347-3.633
	c2.461-2.422,3.69-5.508,3.69-9.258c0-3.789-1.27-6.935-3.799-9.435c-2.529-2.479-5.693-3.729-9.502-3.729
	c-3.711,0-6.787,1.229-9.229,3.69C821.913,531.016,820.693,534.084,820.693,537.775L820.693,537.775z M823.232,508.068
	c0,3.047,0.985,5.526,2.938,7.461c1.963,1.934,4.502,2.891,7.638,2.891c3.036,0,5.536-0.957,7.479-2.871s2.92-4.258,2.92-7.031
	c0-2.909-1.006-5.331-3.008-7.305c-2.002-1.973-4.502-2.969-7.48-2.969c-3.018,0-5.518,0.957-7.5,2.891
	C824.229,503.068,823.232,505.373,823.232,508.068L823.232,508.068z M842.412,646.154h-7.891v-50.313
	c-1.904,1.816-4.396,3.633-7.48,5.449c-3.086,1.797-5.859,3.164-8.311,4.063v-7.617c4.414-2.09,8.271-4.59,11.582-7.56
	c3.301-2.948,5.645-5.819,7.012-8.594h5.088V646.154L842.412,646.154z"/>
</svg>
