<?xml version="1.0" encoding="utf-8"?>
<!-- Generator: Adobe Illustrator 16.0.3, SVG Export Plug-In . SVG Version: 6.00 Build 0)  -->
<!DOCTYPE svg PUBLIC "-//W3C//DTD SVG 1.1//EN" "http://www.w3.org/Graphics/SVG/1.1/DTD/svg11.dtd">
<svg version="1.1" id="Layer_1" xmlns="http://www.w3.org/2000/svg" xmlns:xlink="http://www.w3.org/1999/xlink" x="0px" y="0px"
	 width="900px" height="900px" viewBox="0 0 900 900" enable-background="new 0 0 900 900" xml:space="preserve">
<path d="M86.553,153.923H72.715V65.74c-3.34,3.184-7.705,6.357-13.115,9.531c-5.4,3.184-10.264,5.566-14.561,7.158V69.05
	c7.734-3.643,14.502-8.047,20.293-13.223c5.791-5.176,9.893-10.205,12.305-15.068h8.916V153.923z M162.432,153.923h-13.838V65.74
	c-3.34,3.184-7.705,6.357-13.115,9.531c-5.4,3.184-10.264,5.566-14.561,7.158V69.05c7.734-3.643,14.502-8.047,20.293-13.223
	c5.791-5.176,9.893-10.205,12.305-15.068h8.916V153.923L162.432,153.923z M270.605,140.623v13.301h-74.502
	c-0.107-3.278,0.441-6.545,1.611-9.609c1.904-5.078,4.932-10.068,9.111-14.99c4.179-4.922,10.215-10.615,18.105-17.07
	c12.256-10.049,20.527-17.998,24.834-23.867c4.307-5.869,6.455-11.416,6.455-16.65c0-5.479-1.953-10.107-5.879-13.877
	c-3.916-3.77-9.033-5.645-15.332-5.645c-6.67,0-12.002,1.992-15.996,5.996c-3.994,3.994-6.025,9.531-6.074,16.602l-14.219-1.455
	c0.967-10.615,4.639-18.701,10.996-24.258c6.348-5.566,14.883-8.34,25.596-8.34c10.811,0,19.375,2.998,25.684,8.994
	c6.299,5.996,9.453,13.428,9.453,22.295c0,4.512-0.928,8.945-2.773,13.301c-1.836,4.355-4.902,8.945-9.18,13.76
	c-4.287,4.814-11.396,11.426-21.338,19.834c-8.301,6.973-13.633,11.699-15.986,14.18c-2.363,2.49-4.307,4.99-5.85,7.5h55.284
	V140.623z M213.74,626.857l9.805,2.461c-2.061,8.065-5.752,14.198-11.094,18.438c-5.342,4.219-11.875,6.328-19.59,6.328
	c-7.988,0-14.482-1.621-19.482-4.863c-5.01-3.262-8.818-7.969-11.426-14.141c-2.607-6.152-3.916-12.773-3.916-19.863
	c0-7.715,1.475-14.434,4.424-20.194c2.949-5.742,7.139-10.099,12.588-13.087c5.439-2.969,11.426-4.473,17.969-4.473
	c7.412,0,13.643,1.896,18.701,5.664c5.049,3.771,8.574,9.082,10.557,15.918l-9.648,2.285c-1.719-5.391-4.219-9.316-7.48-11.777
	c-3.271-2.461-7.383-3.69-12.334-3.69c-5.693,0-10.459,1.367-14.277,4.082c-3.828,2.733-6.514,6.405-8.066,10.996
	c-1.548,4.587-2.333,9.396-2.324,14.237c0,6.289,0.918,11.797,2.754,16.504c1.836,4.688,4.697,8.203,8.564,10.527
	c3.877,2.324,8.076,3.496,12.588,3.496c5.498,0,10.146-1.582,13.955-4.746C209.814,637.775,212.393,633.088,213.74,626.857
	L213.74,626.857z M231.074,625.998c0-9.941,2.764-17.305,8.291-22.09c4.609-3.984,10.244-5.978,16.885-5.978
	c7.373,0,13.408,2.422,18.086,7.267c4.688,4.823,7.031,11.504,7.031,20.039c0,6.895-1.035,12.344-3.105,16.289
	c-2.08,3.965-5.088,7.051-9.053,9.237c-3.955,2.188-8.281,3.281-12.959,3.281c-7.52,0-13.594-2.402-18.223-7.227
	C233.389,641.994,231.074,635.061,231.074,625.998L231.074,625.998z M240.42,625.998c0,6.875,1.504,12.012,4.502,15.43
	s6.777,5.138,11.328,5.138c4.512,0,8.271-1.72,11.27-5.156c2.999-3.438,4.492-8.672,4.492-15.724c0-6.641-1.504-11.659-4.521-15.077
	c-3.018-3.438-6.768-5.138-11.24-5.138c-4.551,0-8.33,1.699-11.328,5.099C241.924,613.986,240.42,619.123,240.42,625.998z
	 M292.031,673.4v-74.259h8.291v6.992c1.953-2.733,4.16-4.785,6.621-6.151c2.451-1.367,5.439-2.052,8.945-2.052
	c4.58,0,8.623,1.191,12.129,3.535c3.506,2.363,6.152,5.703,7.939,10c1.777,4.297,2.676,9.004,2.676,14.121
	c0,5.488-0.986,10.43-2.959,14.824c-1.973,4.414-4.834,7.772-8.594,10.117c-3.76,2.344-7.705,3.516-11.855,3.516
	c-3.027,0-5.752-0.646-8.154-1.914c-2.412-1.289-4.395-2.91-5.947-4.863V673.4H292.031L292.031,673.4z M300.264,626.291
	c0,6.914,1.406,12.012,4.199,15.313c2.793,3.302,6.182,4.961,10.156,4.961c4.043,0,7.51-1.719,10.391-5.137
	c2.881-3.418,4.316-8.711,4.316-15.897c0-6.836-1.406-11.953-4.219-15.353c-2.813-3.418-6.172-5.117-10.078-5.117
	c-3.877,0-7.305,1.816-10.293,5.431C301.758,614.123,300.264,619.377,300.264,626.291L300.264,626.291z M386.348,635.549
	l9.395,1.152c-1.484,5.487-4.229,9.766-8.232,12.793c-4.014,3.026-9.141,4.551-15.371,4.551c-7.852,0-14.072-2.422-18.672-7.266
	c-4.6-4.824-6.904-11.603-6.904-20.332c0-9.023,2.324-16.035,6.973-21.035c4.658-4.98,10.684-7.48,18.096-7.48
	c7.178,0,13.047,2.441,17.598,7.345c4.541,4.883,6.816,11.758,6.816,20.604c0,0.547-0.01,1.349-0.049,2.441h-40.029
	c0.332,5.897,2.002,10.41,5,13.535c2.998,3.145,6.738,4.707,11.221,4.707c3.34,0,6.182-0.88,8.545-2.638
	C383.096,642.189,384.961,639.377,386.348,635.549L386.348,635.549z M356.475,620.842h29.971c-0.41-4.531-1.553-7.91-3.438-10.176
	c-2.9-3.496-6.66-5.254-11.27-5.254c-4.18,0-7.695,1.406-10.537,4.199C358.35,612.404,356.777,616.154,356.475,620.842
	L356.475,620.842z M407.07,652.834v-53.691h8.192v8.146c2.091-3.81,4.015-6.31,5.781-7.539c1.777-1.211,3.721-1.816,5.84-1.816
	c3.066,0,6.183,0.978,9.355,2.931l-3.136,8.457c-2.227-1.328-4.452-1.974-6.67-1.974c-1.991,0-3.778,0.586-5.36,1.797
	c-1.582,1.191-2.715,2.853-3.39,4.962c-1.006,3.241-1.514,6.776-1.514,10.625v28.104L407.07,652.834L407.07,652.834z
	 M441.65,652.834v-53.691h8.184v7.638c3.945-5.898,9.639-8.849,17.09-8.849c3.232,0,6.201,0.586,8.916,1.759
	c2.715,1.151,4.746,2.676,6.094,4.569c1.349,1.875,2.285,4.121,2.832,6.719c0.332,1.681,0.498,4.63,0.498,8.849v33.008h-9.092
	v-32.656c0-3.711-0.352-6.483-1.063-8.319c-0.703-1.836-1.964-3.302-3.761-4.396c-1.807-1.094-3.926-1.641-6.348-1.641
	c-3.877,0-7.217,1.229-10.029,3.69c-2.821,2.461-4.229,7.129-4.229,14.004v29.316H441.65z M499.268,589.201v-10.469h9.103v10.469
	H499.268z M499.268,652.834v-53.691h9.103v53.691H499.268z M557.246,633.166l8.945,1.172c-0.978,6.152-3.486,10.978-7.511,14.473
	c-4.023,3.496-8.975,5.234-14.834,5.234c-7.344,0-13.252-2.402-17.715-7.207s-6.699-11.68-6.699-20.645
	c0-5.802,0.957-10.859,2.882-15.215c1.924-4.356,4.844-7.617,8.77-9.785s8.193-3.263,12.813-3.263
	c5.829,0,10.596,1.484,14.307,4.435c3.701,2.949,6.084,7.129,7.129,12.559l-8.848,1.367c-0.841-3.613-2.334-6.328-4.474-8.145
	c-2.139-1.817-4.727-2.734-7.764-2.734c-4.58,0-8.301,1.641-11.162,4.941c-2.871,3.28-4.297,8.477-4.297,15.586
	c0,7.207,1.377,12.461,4.141,15.723c2.765,3.262,6.367,4.902,10.82,4.902c3.564,0,6.553-1.095,8.945-3.281
	C555.087,641.096,556.602,637.717,557.246,633.166L557.246,633.166z M574.023,589.201v-10.469h9.102v10.469H574.023z
	 M574.023,652.834v-53.691h9.102v53.691H574.023z M632.148,652.834v-7.891c-4.181,6.073-9.854,9.102-17.031,9.102
	c-3.174,0-6.123-0.604-8.877-1.816c-2.744-1.211-4.785-2.733-6.113-4.59c-1.328-1.836-2.266-4.082-2.803-6.737
	c-0.371-1.777-0.558-4.609-0.558-8.496v-33.263h9.103v29.785c0,4.746,0.186,7.949,0.557,9.59c0.566,2.402,1.777,4.277,3.633,5.646
	c1.856,1.368,4.15,2.051,6.875,2.051c2.734,0,5.293-0.703,7.687-2.108c2.393-1.388,4.082-3.302,5.078-5.703
	c0.996-2.402,1.494-5.898,1.494-10.488v-28.77h9.092v53.69L632.148,652.834L632.148,652.834z M654.541,652.834v-53.691h8.135v7.539
	c1.689-2.637,3.926-4.746,6.719-6.348c2.804-1.602,5.986-2.402,9.562-2.402c3.975,0,7.236,0.841,9.775,2.48
	c2.549,1.66,4.336,3.965,5.381,6.934c4.248-6.27,9.774-9.414,16.582-9.414c5.321,0,9.414,1.484,12.284,4.435
	c2.861,2.949,4.298,7.479,4.298,13.612v36.855h-9.054v-33.828c0-3.633-0.293-6.25-0.879-7.852c-0.596-1.603-1.66-2.892-3.213-3.867
	c-1.553-0.977-3.369-1.465-5.459-1.465c-3.77,0-6.904,1.25-9.404,3.77c-2.489,2.5-3.739,6.523-3.739,12.051v31.191h-9.093v-34.883
	c0-4.043-0.741-7.07-2.227-9.103c-1.484-2.012-3.906-3.026-7.275-3.026c-2.567,0-4.932,0.684-7.108,2.031
	c-2.168,1.348-3.74,3.301-4.728,5.897c-0.977,2.598-1.465,6.348-1.465,11.23v27.852L654.541,652.834L654.541,652.834z
	 M57.383,859.24v-94.668h20.068v7.52H66.484v79.609h10.967v7.539H57.383L57.383,859.24z M131.23,829.924v8.75H82.256
	c-0.075-2.159,0.288-4.312,1.064-6.328c1.24-3.34,3.242-6.621,5.986-9.844c2.744-3.242,6.709-6.992,11.904-11.229
	c8.047-6.603,13.496-11.837,16.328-15.685c2.822-3.867,4.238-7.52,4.238-10.957c0-3.594-1.289-6.641-3.867-9.121
	c-2.578-2.479-5.938-3.711-10.078-3.711c-4.385,0-7.891,1.31-10.518,3.945c-2.627,2.617-3.955,6.27-3.994,10.918l-9.346-0.957
	c0.635-6.973,3.047-12.305,7.227-15.957c4.18-3.652,9.785-5.488,16.836-5.488c7.109,0,12.734,1.974,16.875,5.918
	c4.15,3.945,6.221,8.828,6.221,14.669c0,2.948-0.605,5.879-1.816,8.729c-1.221,2.871-3.232,5.879-6.045,9.063
	c-2.813,3.163-7.49,7.5-14.023,13.026c-5.459,4.59-8.965,7.695-10.518,9.336c-1.553,1.621-2.832,3.281-3.838,4.922H131.23
	L131.23,829.924z M154.99,798.479c-3.779-1.366-6.572-3.34-8.398-5.897c-1.816-2.578-2.725-5.646-2.725-9.199
	c0-5.391,1.934-9.922,5.811-13.612c3.877-3.673,9.033-5.509,15.469-5.509c6.465,0,11.68,1.896,15.615,5.646
	c3.945,3.75,5.918,8.34,5.918,13.729c0,3.438-0.898,6.427-2.705,8.966c-1.807,2.538-4.541,4.512-8.213,5.879
	c4.551,1.483,8.008,3.887,10.391,7.188c2.373,3.301,3.555,7.246,3.555,11.816c0,6.348-2.236,11.66-6.719,15.977
	c-4.483,4.317-10.381,6.465-17.686,6.465c-7.314,0-13.213-2.147-17.695-6.483s-6.719-9.728-6.719-16.211
	c0-4.806,1.221-8.849,3.662-12.091C146.992,801.877,150.469,799.67,154.99,798.479L154.99,798.479z M150.234,817.287
	c0,2.598,0.615,5.098,1.846,7.539c1.23,2.422,3.057,4.297,5.488,5.625c2.422,1.328,5.029,1.992,7.832,1.992
	c4.346,0,7.93-1.388,10.762-4.181c2.832-2.813,4.248-6.366,4.248-10.664c0-4.395-1.455-8.008-4.375-10.879
	c-2.91-2.852-6.563-4.297-10.938-4.297c-4.277,0-7.832,1.426-10.645,4.258S150.234,813.049,150.234,817.287L150.234,817.287z
	 M153.164,783.068c0,3.516,1.133,6.366,3.389,8.594c2.256,2.227,5.186,3.34,8.799,3.34c3.506,0,6.377-1.113,8.613-3.32
	c2.246-2.207,3.359-4.901,3.359-8.104c0-3.34-1.152-6.133-3.457-8.418c-2.314-2.267-5.186-3.418-8.623-3.418
	c-3.467,0-6.348,1.112-8.643,3.34C154.316,777.307,153.164,779.963,153.164,783.068L153.164,783.068z M198.555,819.26l9.551-0.801
	c0.713,4.648,2.354,8.145,4.932,10.488c2.578,2.343,5.684,3.496,9.326,3.496c4.375,0,8.086-1.642,11.113-4.941
	c3.037-3.301,4.551-7.695,4.551-13.145c0-5.195-1.455-9.277-4.365-12.285c-2.92-2.988-6.738-4.492-11.455-4.492
	c-2.93,0-5.576,0.664-7.93,1.992c-2.363,1.328-4.219,3.065-5.566,5.176l-8.535-1.113l7.178-38.047h36.846v8.691h-29.57
	l-3.994,19.901c4.443-3.086,9.111-4.647,14.004-4.647c6.465,0,11.924,2.246,16.377,6.737c4.443,4.474,6.67,10.234,6.67,17.285
	c0,6.699-1.953,12.5-5.869,17.383c-4.746,5.996-11.23,8.984-19.453,8.984c-6.738,0-12.246-1.875-16.504-5.645
	C201.592,830.49,199.16,825.49,198.555,819.26L198.555,819.26z M273.877,859.24h-20.068v-7.539h10.967v-79.609h-10.967v-7.52h20.068
	V859.24L273.877,859.24z M402.734,372.371l36.19,11.475c-5.547,20.187-14.774,35.166-27.676,44.961
	c-12.91,9.795-29.287,14.697-49.121,14.697c-24.561,0-44.736-8.389-60.537-25.166c-15.811-16.768-23.711-39.697-23.711-68.789
	c0-30.771,7.939-54.678,23.838-71.699c15.889-17.031,36.777-25.537,62.676-25.537c22.617,0,40.986,6.68,55.117,20.049
	c8.398,7.9,14.707,19.258,18.916,34.053l-36.953,8.828c-2.188-9.59-6.748-17.148-13.682-22.705
	c-6.943-5.547-15.371-8.32-25.293-8.32c-13.701,0-24.824,4.922-33.359,14.756c-8.535,9.833-12.793,25.771-12.793,47.803
	c0,23.369,4.199,40.02,12.607,49.94c8.408,9.921,19.336,14.883,32.793,14.883c9.922,0,18.457-3.153,25.596-9.463
	C394.492,395.828,399.619,385.906,402.734,372.371L402.734,372.371z M592.539,440.349H557.1V371.99
	c0-14.453-0.762-23.81-2.274-28.058c-1.514-4.248-3.965-7.549-7.373-9.901c-3.408-2.354-7.51-3.525-12.295-3.525
	c-6.144,0-11.65,1.68-16.523,5.039c-4.883,3.369-8.223,7.822-10.028,13.369c-1.807,5.547-2.705,15.811-2.705,30.771v60.664h-35.439
	V306.414h32.91v19.678c11.688-15.137,26.406-22.705,44.141-22.705c7.822,0,14.972,1.406,21.445,4.229
	c6.475,2.813,11.367,6.406,14.688,10.781c3.321,4.375,5.636,9.325,6.943,14.883c1.299,5.547,1.953,13.496,1.953,23.828v83.24
	H592.539z M854.17,99.539v7.588h-42.5c-0.068-1.904,0.244-3.73,0.918-5.479c1.084-2.9,2.813-5.752,5.195-8.555
	c2.383-2.813,5.83-6.055,10.332-9.746c6.992-5.732,11.709-10.264,14.17-13.613c2.451-3.35,3.682-6.514,3.682-9.502
	c0-3.125-1.113-5.771-3.35-7.92c-2.246-2.148-5.156-3.223-8.76-3.223c-3.8,0-6.836,1.143-9.121,3.428
	c-2.275,2.275-3.438,5.439-3.467,9.473l-8.115-0.84c0.557-6.045,2.646-10.664,6.278-13.838c3.623-3.174,8.486-4.756,14.601-4.756
	c6.172,0,11.055,1.709,14.658,5.127c3.594,3.428,5.391,7.666,5.391,12.725c0,2.578-0.527,5.107-1.572,7.588
	c-1.055,2.49-2.803,5.107-5.244,7.852c-2.44,2.754-6.504,6.523-12.178,11.318c-4.736,3.975-7.772,6.68-9.121,8.096
	c-1.348,1.416-2.461,2.842-3.34,4.277H854.17L854.17,99.539z M824.824,162.097c-3.271-1.201-5.703-2.91-7.285-5.137
	c-1.572-2.217-2.363-4.883-2.363-7.979c0-4.678,1.681-8.613,5.039-11.807c3.369-3.184,7.842-4.775,13.428-4.775
	c5.615,0,10.138,1.631,13.556,4.893s5.137,7.227,5.137,11.904c0,2.988-0.791,5.586-2.354,7.793c-1.563,2.207-3.937,3.906-7.13,5.107
	c3.955,1.289,6.953,3.359,9.015,6.23c2.069,2.861,3.096,6.289,3.096,10.264c0,5.498-1.943,10.117-5.83,13.857
	c-3.896,3.75-9.014,5.615-15.361,5.615c-6.338,0-11.454-1.875-15.352-5.635c-3.887-3.76-5.83-8.447-5.83-14.063
	c0-4.18,1.055-7.676,3.185-10.498C817.891,165.046,820.908,163.123,824.824,162.097z M820.703,178.416
	c0,2.256,0.527,4.434,1.602,6.533c1.064,2.109,2.656,3.74,4.756,4.893c2.082,1.146,4.422,1.741,6.798,1.729
	c3.778,0,6.895-1.211,9.346-3.633c2.461-2.432,3.69-5.518,3.69-9.258c0-3.799-1.27-6.943-3.799-9.434
	c-2.528-2.48-5.692-3.73-9.502-3.73c-3.711,0-6.787,1.23-9.229,3.691C821.924,171.658,820.703,174.734,820.703,178.416
	L820.703,178.416z M823.242,148.718c0,3.037,0.986,5.527,2.938,7.451c1.964,1.934,4.502,2.9,7.638,2.9
	c3.037,0,5.537-0.957,7.479-2.871c1.943-1.914,2.92-4.268,2.92-7.041c0-2.9-1.006-5.332-3.008-7.305s-4.502-2.959-7.479-2.959
	c-3.019,0-5.519,0.957-7.5,2.891C824.238,143.718,823.242,146.023,823.242,148.718L823.242,148.718z M792.441,286.804h-7.892
	v-50.313c-1.903,1.807-4.395,3.623-7.479,5.439c-3.086,1.807-5.859,3.174-8.312,4.072v-7.627c4.414-2.08,8.271-4.59,11.582-7.549
	c3.301-2.949,5.646-5.82,7.013-8.594h5.088V286.804L792.441,286.804z M824.814,251.931c-3.271-1.201-5.703-2.91-7.285-5.137
	c-1.572-2.217-2.363-4.883-2.363-7.979c0-4.678,1.68-8.613,5.039-11.807c3.369-3.184,7.842-4.775,13.428-4.775
	c5.615,0,10.137,1.631,13.555,4.893c3.418,3.262,5.138,7.227,5.138,11.904c0,2.988-0.791,5.586-2.354,7.793
	c-1.563,2.207-3.936,3.906-7.129,5.107c3.955,1.289,6.953,3.359,9.014,6.23c2.07,2.861,3.097,6.289,3.097,10.264
	c0,5.498-1.943,10.117-5.83,13.857c-3.896,3.75-9.014,5.615-15.361,5.615c-6.338,0-11.455-1.875-15.352-5.635
	c-3.888-3.76-5.83-8.447-5.83-14.063c0-4.18,1.055-7.676,3.184-10.498C817.881,254.88,820.898,252.957,824.814,251.931z
	 M820.693,268.25c0,2.256,0.526,4.434,1.602,6.533c1.064,2.109,2.656,3.74,4.756,4.893c2.082,1.146,4.421,1.741,6.797,1.729
	c3.779,0,6.896-1.211,9.347-3.633c2.461-2.432,3.69-5.518,3.69-9.258c0-3.799-1.27-6.943-3.799-9.434
	c-2.529-2.48-5.693-3.73-9.502-3.73c-3.711,0-6.787,1.23-9.229,3.691C821.914,261.492,820.693,264.568,820.693,268.25
	L820.693,268.25z M823.232,238.552c0,3.037,0.985,5.527,2.938,7.451c1.963,1.934,4.502,2.9,7.637,2.9
	c3.037,0,5.537-0.957,7.48-2.871c1.943-1.914,2.92-4.268,2.92-7.041c0-2.9-1.006-5.332-3.008-7.305s-4.502-2.959-7.48-2.959
	c-3.018,0-5.518,0.957-7.5,2.891C824.229,233.552,823.232,235.857,823.232,238.552L823.232,238.552z M762.744,359.675l7.9-1.055
	c0.907,4.473,2.45,7.695,4.629,9.668c2.178,1.973,4.834,2.959,7.959,2.959c3.711,0,6.854-1.279,9.414-3.857
	c2.559-2.567,3.838-5.762,3.838-9.561c0-3.623-1.191-6.621-3.556-8.976c-2.373-2.354-5.381-3.524-9.043-3.524
	c-1.483,0-3.34,0.293-5.565,0.879l0.879-6.934c0.527,0.059,0.947,0.088,1.27,0.088c3.359,0,6.388-0.879,9.082-2.638
	c2.687-1.748,4.033-4.452,4.033-8.114c0-2.892-0.977-5.293-2.938-7.188c-1.953-1.904-4.492-2.852-7.589-2.852
	c-3.065,0-5.625,0.957-7.676,2.891c-2.051,1.935-3.358,4.824-3.945,8.691l-7.899-1.406c0.967-5.293,3.164-9.395,6.582-12.305
	s7.676-4.365,12.764-4.365c3.506,0,6.738,0.752,9.697,2.256c2.949,1.504,5.215,3.564,6.776,6.162
	c1.563,2.607,2.345,5.371,2.345,8.291c0,2.783-0.742,5.313-2.236,7.588c-1.494,2.285-3.701,4.102-6.621,5.439
	c3.799,0.879,6.758,2.705,8.857,5.469c2.108,2.764,3.164,6.221,3.164,10.371c0,5.615-2.052,10.371-6.144,14.276
	c-4.102,3.906-9.276,5.859-15.526,5.859c-5.646,0-10.332-1.68-14.063-5.049C765.4,369.382,763.271,365.027,762.744,359.675
	L762.744,359.675z M854.16,369.06v7.589h-42.5c-0.068-1.904,0.244-3.73,0.918-5.479c1.084-2.9,2.813-5.752,5.195-8.555
	c2.383-2.813,5.83-6.056,10.332-9.746c6.991-5.732,11.709-10.265,14.17-13.613c2.45-3.35,3.682-6.514,3.682-9.502
	c0-3.125-1.113-5.771-3.35-7.92c-2.246-2.148-5.156-3.223-8.761-3.223c-3.799,0-6.836,1.143-9.12,3.428
	c-2.275,2.274-3.438,5.438-3.468,9.473l-8.114-0.84c0.557-6.045,2.646-10.664,6.278-13.838c3.623-3.174,8.486-4.756,14.601-4.756
	c6.172,0,11.055,1.709,14.657,5.127c3.595,3.428,5.392,7.666,5.392,12.725c0,2.578-0.527,5.107-1.572,7.588
	c-1.055,2.49-2.803,5.107-5.244,7.853c-2.44,2.754-6.504,6.522-12.178,11.317c-4.736,3.976-7.773,6.681-9.121,8.097
	s-2.461,2.842-3.34,4.276H854.16z M762.744,449.509l7.9-1.055c0.907,4.477,2.45,7.7,4.629,9.672
	c2.178,1.972,4.834,2.949,7.959,2.949c3.711,0,6.854-1.271,9.414-3.849c2.559-2.577,3.838-5.766,3.838-9.564
	c0-3.623-1.191-6.621-3.556-8.975c-2.373-2.354-5.381-3.525-9.043-3.525c-1.483,0-3.34,0.293-5.565,0.879l0.879-6.934
	c0.527,0.059,0.947,0.088,1.27,0.088c3.359,0,6.388-0.879,9.082-2.638c2.687-1.747,4.033-4.452,4.033-8.114
	c0-2.892-0.977-5.293-2.938-7.188c-1.953-1.903-4.492-2.852-7.589-2.852c-3.065,0-5.625,0.957-7.676,2.891
	c-2.051,1.935-3.358,4.824-3.945,8.691l-7.899-1.406c0.967-5.293,3.164-9.396,6.582-12.305c3.418-2.91,7.676-4.365,12.764-4.365
	c3.506,0,6.738,0.752,9.697,2.256c2.949,1.504,5.215,3.564,6.776,6.162c1.563,2.606,2.345,5.371,2.345,8.291
	c0,2.783-0.742,5.313-2.236,7.588c-1.494,2.285-3.701,4.103-6.621,5.439c3.799,0.879,6.758,2.704,8.857,5.469
	c2.108,2.764,3.164,6.221,3.164,10.371c0,5.62-2.052,10.366-6.144,14.271c-4.102,3.906-9.276,5.859-15.526,5.859
	c-5.646,0-10.332-1.68-14.063-5.039C765.4,459.218,763.271,454.865,762.744,449.509L762.744,449.509z M854.16,458.889v7.599h-42.5
	c-0.068-1.914,0.244-3.73,0.918-5.488c1.084-2.891,2.813-5.742,5.195-8.555c2.383-2.808,5.83-6.05,10.332-9.741
	c6.991-5.732,11.709-10.264,14.17-13.613c2.45-3.35,3.682-6.514,3.682-9.502c0-3.125-1.113-5.771-3.35-7.92
	c-2.246-2.148-5.156-3.223-8.761-3.223c-3.799,0-6.836,1.143-9.12,3.428c-2.275,2.275-3.438,5.438-3.468,9.473l-8.114-0.84
	c0.557-6.045,2.646-10.664,6.278-13.838c3.623-3.174,8.486-4.756,14.601-4.756c6.172,0,11.055,1.709,14.657,5.127
	c3.595,3.428,5.392,7.666,5.392,12.725c0,2.578-0.527,5.107-1.572,7.588c-1.055,2.49-2.803,5.107-5.244,7.853
	c-2.44,2.754-6.504,6.522-12.178,11.317c-4.736,3.976-7.773,6.685-9.121,8.091c-1.348,1.426-2.461,2.852-3.34,4.276H854.16
	L854.16,458.889z M792.441,556.33h-7.892v-50.313c-1.903,1.798-4.395,3.613-7.479,5.431c-3.085,1.816-5.859,3.184-8.312,4.082
	v-7.638c4.414-2.069,8.271-4.59,11.582-7.539c3.302-2.948,5.646-5.819,7.013-8.594h5.088V556.33L792.441,556.33z M824.814,521.447
	c-3.271-1.191-5.703-2.91-7.285-5.138c-1.572-2.206-2.363-4.883-2.363-7.969c0-4.688,1.68-8.613,5.039-11.815
	c3.369-3.185,7.842-4.767,13.428-4.767c5.615,0,10.138,1.621,13.556,4.883c3.418,3.263,5.137,7.228,5.137,11.914
	c0,2.988-0.791,5.586-2.354,7.793c-1.563,2.207-3.936,3.906-7.129,5.099c3.955,1.289,6.953,3.358,9.015,6.229
	c2.069,2.871,3.096,6.289,3.096,10.273c0,5.487-1.943,10.117-5.83,13.848c-3.896,3.75-9.014,5.625-15.361,5.625
	c-6.338,0-11.455-1.875-15.352-5.645c-3.888-3.75-5.83-8.438-5.83-14.063c0-4.18,1.055-7.676,3.184-10.488
	C817.881,524.396,820.898,522.482,824.814,521.447z M820.693,537.775c0,2.246,0.526,4.434,1.602,6.522
	c1.064,2.109,2.656,3.75,4.756,4.902c2.109,1.151,4.375,1.719,6.797,1.719c3.779,0,6.896-1.211,9.347-3.633
	c2.461-2.422,3.69-5.508,3.69-9.258c0-3.789-1.27-6.935-3.799-9.435c-2.529-2.479-5.693-3.729-9.502-3.729
	c-3.711,0-6.787,1.229-9.229,3.69C821.913,531.016,820.693,534.084,820.693,537.775L820.693,537.775z M823.232,508.068
	c0,3.047,0.985,5.526,2.938,7.461c1.963,1.934,4.502,2.891,7.638,2.891c3.036,0,5.536-0.957,7.479-2.871s2.92-4.258,2.92-7.031
	c0-2.909-1.006-5.331-3.008-7.305c-2.002-1.973-4.502-2.969-7.48-2.969c-3.018,0-5.518,0.957-7.5,2.891
	C824.229,503.068,823.232,505.373,823.232,508.068L823.232,508.068z M854.17,638.576v7.578h-42.5
	c-0.068-1.896,0.244-3.73,0.918-5.469c1.084-2.91,2.813-5.763,5.195-8.556c2.383-2.813,5.83-6.055,10.332-9.746
	c6.992-5.741,11.709-10.272,14.17-13.612c2.451-3.359,3.682-6.523,3.682-9.513c0-3.125-1.112-5.762-3.35-7.909
	c-2.246-2.148-5.156-3.224-8.76-3.224c-3.8,0-6.836,1.133-9.121,3.418c-2.275,2.285-3.438,5.449-3.467,9.474l-8.115-0.841
	c0.557-6.034,2.646-10.664,6.279-13.827c3.622-3.185,8.485-4.767,14.6-4.767c6.172,0,11.055,1.719,14.658,5.137
	c3.594,3.419,5.391,7.656,5.391,12.716c0,2.578-0.527,5.116-1.572,7.598c-1.055,2.48-2.803,5.098-5.244,7.852
	c-2.44,2.754-6.504,6.523-12.178,11.31c-4.736,3.983-7.772,6.68-9.121,8.104c-1.348,1.406-2.461,2.832-3.34,4.277H854.17
	L854.17,638.576z"/>
</svg>
