<?xml version="1.0" encoding="utf-8"?>
<!-- Generator: Adobe Illustrator 16.2.0, SVG Export Plug-In . SVG Version: 6.00 Build 0)  -->
<!DOCTYPE svg PUBLIC "-//W3C//DTD SVG 1.1//EN" "http://www.w3.org/Graphics/SVG/1.1/DTD/svg11.dtd">
<svg version="1.1" id="Layer_1" xmlns="http://www.w3.org/2000/svg" xmlns:xlink="http://www.w3.org/1999/xlink" x="0px" y="0px"
	 width="900px" height="900px" viewBox="0 0 900 900" enable-background="new 0 0 900 900" xml:space="preserve">
<path d="M86.338,154.257H72.5V66.073c-3.34,3.184-7.705,6.357-13.115,9.531c-5.4,3.184-10.264,5.566-14.561,7.158V69.384
	c7.734-3.643,14.502-8.047,20.293-13.223c5.791-5.176,9.893-10.205,12.305-15.068h8.916V154.257L86.338,154.257z M162.217,154.257
	h-13.838V66.073c-3.34,3.184-7.705,6.357-13.115,9.531c-5.4,3.184-10.264,5.566-14.561,7.158V69.384
	c7.734-3.643,14.502-8.047,20.293-13.223c5.791-5.176,9.893-10.205,12.305-15.068h8.916V154.257z M197.734,124.501l13.838-1.846
	c1.592,7.842,4.297,13.496,8.115,16.953c3.818,3.467,8.467,5.195,13.955,5.195c6.504,0,12.002-2.256,16.484-6.768
	c4.482-4.512,6.729-10.098,6.729-16.758c0-6.357-2.08-11.602-6.23-15.723c-4.15-4.131-9.424-6.191-15.83-6.191
	c-2.617,0-5.869,0.518-9.766,1.533l1.533-12.139c0.928,0.098,1.67,0.146,2.236,0.146c5.889,0,11.191-1.533,15.908-4.609
	c4.717-3.076,7.07-7.813,7.07-14.219c0-5.078-1.709-9.277-5.146-12.617c-3.438-3.33-7.871-4.99-13.301-4.99
	c-5.381,0-9.863,1.689-13.457,5.068c-3.584,3.389-5.889,8.457-6.914,15.225L199.12,70.3c1.689-9.277,5.537-16.465,11.533-21.563
	c5.996-5.098,13.447-7.646,22.373-7.646c6.143,0,11.807,1.318,16.982,3.955c5.175,2.637,9.141,6.24,11.885,10.801
	c2.734,4.561,4.111,9.404,4.111,14.531c0,4.873-1.309,9.307-3.926,13.301c-2.607,3.994-6.484,7.178-11.602,9.531
	c6.66,1.543,11.836,4.727,15.527,9.57c3.691,4.843,5.537,10.908,5.537,18.184c0,9.844-3.594,18.184-10.762,25.029
	c-7.178,6.836-16.25,10.264-27.217,10.264c-9.893,0-18.105-2.949-24.648-8.848C202.383,141.522,198.662,133.886,197.734,124.501
	L197.734,124.501z M232.432,653.168v-74.102h10.059l38.926,58.184v-58.184h9.395v74.102h-10.059l-38.916-58.242v58.242H232.432
	L232.432,653.168z M306.182,589.535v-10.469h9.103v10.469H306.182z M306.182,653.168v-53.691h9.103v53.691H306.182z
	 M329.131,653.168v-74.102h9.092v26.582c4.248-4.922,9.609-7.384,16.074-7.384c3.976,0,7.433,0.781,10.361,2.363
	c2.938,1.563,5.029,3.73,6.299,6.484c1.26,2.772,1.895,6.776,1.895,12.03v34.023h-9.102v-34.023c0-4.551-0.986-7.852-2.959-9.922
	c-1.963-2.09-4.756-3.125-8.359-3.125c-2.694,0-5.233,0.703-7.606,2.109c-2.373,1.387-4.072,3.281-5.078,5.684
	c-1.016,2.384-1.523,5.703-1.523,9.902v29.375h-9.093V653.168z M383.311,626.332c0-9.941,2.765-17.305,8.291-22.09
	c4.609-3.984,10.244-5.978,16.886-5.978c7.373,0,13.407,2.422,18.086,7.267c4.688,4.823,7.03,11.504,7.03,20.039
	c0,6.895-1.034,12.344-3.104,16.289c-2.08,3.965-5.088,7.051-9.053,9.237c-3.955,2.188-8.281,3.281-12.959,3.281
	c-7.521,0-13.595-2.402-18.224-7.227C385.625,642.328,383.311,635.395,383.311,626.332L383.311,626.332z M392.656,626.332
	c0,6.875,1.504,12.012,4.502,15.43s6.776,5.138,11.328,5.138c4.512,0,8.271-1.72,11.27-5.156c2.999-3.438,4.492-8.672,4.492-15.724
	c0-6.641-1.504-11.659-4.521-15.077c-3.018-3.438-6.768-5.138-11.239-5.138c-4.552,0-8.33,1.699-11.328,5.099
	C394.16,614.32,392.656,619.457,392.656,626.332L392.656,626.332z M444.268,653.168v-53.691h8.185v7.638
	c3.945-5.898,9.639-8.849,17.09-8.849c3.232,0,6.201,0.586,8.916,1.759c2.715,1.151,4.746,2.676,6.094,4.569
	c1.349,1.875,2.285,4.121,2.832,6.72c0.332,1.68,0.498,4.629,0.498,8.848v33.008h-9.092v-32.656c0-3.711-0.353-6.483-1.064-8.319
	c-0.702-1.836-1.963-3.302-3.76-4.396c-1.807-1.094-3.926-1.641-6.348-1.641c-3.877,0-7.217,1.229-10.029,3.69
	c-2.822,2.461-4.229,7.129-4.229,14.004v29.316H444.268L444.268,653.168z M501.895,589.535v-10.469h9.103v10.469H501.895z
	 M501.895,653.168v-53.691h9.103v53.691H501.895z M560.02,653.168v-7.891c-4.18,6.073-9.854,9.102-17.03,9.102
	c-3.174,0-6.123-0.604-8.877-1.815c-2.744-1.212-4.785-2.734-6.113-4.591c-1.328-1.836-2.266-4.082-2.803-6.737
	c-0.371-1.777-0.558-4.609-0.558-8.496v-33.263h9.103v29.785c0,4.746,0.186,7.949,0.557,9.59c0.566,2.402,1.777,4.277,3.633,5.646
	c1.856,1.368,4.15,2.051,6.875,2.051c2.734,0,5.293-0.703,7.687-2.108c2.393-1.388,4.082-3.302,5.078-5.703
	c0.996-2.402,1.494-5.898,1.494-10.488v-28.77h9.092v53.69L560.02,653.168L560.02,653.168z M582.412,653.168v-53.691h8.135v7.539
	c1.689-2.637,3.926-4.745,6.719-6.348c2.804-1.602,5.986-2.402,9.562-2.402c3.975,0,7.235,0.841,9.774,2.48
	c2.55,1.66,4.336,3.965,5.382,6.934c4.247-6.27,9.774-9.414,16.581-9.414c5.322,0,9.414,1.484,12.285,4.435
	c2.861,2.949,4.297,7.479,4.297,13.613v36.854h-9.053V619.34c0-3.633-0.293-6.25-0.879-7.852c-0.596-1.603-1.66-2.892-3.213-3.867
	c-1.553-0.977-3.369-1.465-5.459-1.465c-3.771,0-6.904,1.25-9.404,3.77c-2.49,2.5-3.74,6.523-3.74,12.051v31.191h-9.092v-34.883
	c0-4.043-0.742-7.07-2.227-9.103c-1.484-2.012-3.906-3.026-7.275-3.026c-2.567,0-4.932,0.684-7.108,2.031
	c-2.168,1.348-3.74,3.301-4.728,5.897c-0.977,2.599-1.465,6.349-1.465,11.23v27.852L582.412,653.168L582.412,653.168z"/>
<g>
	<path d="M57.158,859.574v-94.668h20.068v7.52H66.26v79.609h10.967v7.539H57.158L57.158,859.574z M131.006,830.258v8.75H82.031
		c-0.075-2.159,0.287-4.312,1.064-6.328c1.24-3.34,3.242-6.621,5.986-9.844c2.744-3.242,6.709-6.992,11.904-11.229
		c8.047-6.603,13.496-11.837,16.328-15.685c2.822-3.867,4.238-7.52,4.238-10.957c0-3.594-1.289-6.641-3.867-9.121
		c-2.578-2.479-5.938-3.711-10.078-3.711c-4.385,0-7.891,1.31-10.518,3.945c-2.627,2.617-3.955,6.27-3.994,10.918l-9.346-0.957
		c0.635-6.973,3.047-12.305,7.227-15.957c4.18-3.652,9.785-5.488,16.836-5.488c7.109,0,12.734,1.974,16.875,5.918
		c4.15,3.945,6.221,8.828,6.221,14.669c0,2.948-0.605,5.879-1.816,8.729c-1.221,2.871-3.232,5.879-6.045,9.063
		c-2.813,3.163-7.49,7.5-14.023,13.026c-5.459,4.59-8.965,7.695-10.518,9.336c-1.553,1.621-2.832,3.281-3.838,4.922H131.006
		L131.006,830.258z M154.766,798.813c-3.779-1.366-6.572-3.34-8.398-5.897c-1.816-2.578-2.725-5.646-2.725-9.199
		c0-5.391,1.934-9.922,5.811-13.612c3.877-3.673,9.033-5.509,15.469-5.509c6.465,0,11.68,1.896,15.615,5.646
		c3.945,3.75,5.918,8.34,5.918,13.729c0,3.438-0.898,6.427-2.705,8.966c-1.807,2.538-4.541,4.512-8.213,5.879
		c4.551,1.483,8.008,3.887,10.391,7.188c2.373,3.301,3.555,7.246,3.555,11.816c0,6.348-2.236,11.66-6.719,15.977
		c-4.483,4.317-10.381,6.465-17.686,6.465c-7.314,0-13.213-2.147-17.695-6.483c-4.482-4.336-6.719-9.728-6.719-16.211
		c0-4.806,1.221-8.849,3.662-12.091C146.768,802.211,150.244,800.004,154.766,798.813L154.766,798.813z M150.01,817.621
		c0,2.598,0.615,5.098,1.846,7.539c1.23,2.422,3.057,4.297,5.488,5.625c2.422,1.328,5.029,1.992,7.832,1.992
		c4.346,0,7.93-1.388,10.762-4.181c2.832-2.813,4.248-6.366,4.248-10.664c0-4.395-1.455-8.008-4.375-10.879
		c-2.91-2.852-6.563-4.297-10.938-4.297c-4.277,0-7.832,1.426-10.645,4.258S150.01,813.383,150.01,817.621L150.01,817.621z
		 M152.939,783.402c0,3.516,1.133,6.366,3.389,8.594c2.256,2.227,5.186,3.34,8.799,3.34c3.506,0,6.377-1.113,8.613-3.32
		c2.246-2.207,3.359-4.901,3.359-8.104c0-3.34-1.152-6.133-3.457-8.418c-2.314-2.267-5.186-3.418-8.623-3.418
		c-3.467,0-6.348,1.112-8.643,3.34C154.092,777.641,152.939,780.297,152.939,783.402L152.939,783.402z M245.537,783.051
		l-9.043,0.703c-0.811-3.574-1.953-6.172-3.438-7.772c-2.461-2.599-5.498-3.906-9.102-3.906c-2.9,0-5.439,0.819-7.627,2.44
		c-2.871,2.091-5.127,5.138-6.777,9.142c-1.65,4.004-2.51,9.727-2.578,17.129c2.188-3.34,4.873-5.801,8.037-7.422
		c3.164-1.621,6.484-2.422,9.961-2.422c6.064,0,11.221,2.227,15.488,6.698c4.258,4.453,6.396,10.234,6.396,17.306
		c0,4.647-1.006,8.965-3.008,12.969c-2.012,3.984-4.766,7.051-8.262,9.16c-3.506,2.129-7.49,3.184-11.934,3.184
		c-7.578,0-13.77-2.772-18.545-8.358c-4.795-5.566-7.178-14.767-7.178-27.578c0-14.316,2.637-24.728,7.93-31.23
		c4.619-5.664,10.83-8.496,18.652-8.496c5.83,0,10.605,1.642,14.326,4.902C242.568,772.777,244.795,777.289,245.537,783.051
		L245.537,783.051z M208.389,814.984c-0.008,3.111,0.672,6.186,1.992,9.004c1.338,2.871,3.193,5.059,5.586,6.543
		c2.393,1.504,4.902,2.246,7.529,2.246c3.848,0,7.148-1.543,9.912-4.648c2.764-3.086,4.141-7.305,4.141-12.637
		c0-5.117-1.357-9.142-4.092-12.09c-2.725-2.949-6.162-4.435-10.313-4.435c-4.111,0-7.598,1.484-10.459,4.435
		C209.824,806.352,208.389,810.219,208.389,814.984L208.389,814.984z M273.652,859.574h-20.068v-7.539h10.967v-79.609h-10.967v-7.52
		h20.068V859.574L273.652,859.574z"/>
</g>
<g>
	<path d="M284.6,440.663V255.771h36.318l75.674,123.477V255.771h34.678v184.893h-37.45l-74.541-120.566v120.566L284.6,440.663
		L284.6,440.663z M505.801,255.771v67.979c11.437-13.369,25.099-20.049,40.996-20.049c8.154,0,15.508,1.514,22.07,4.541
		c6.553,3.027,11.494,6.895,14.813,11.602c3.32,4.707,5.597,9.922,6.808,15.635c1.221,5.723,1.836,14.59,1.836,26.611v78.574
		h-35.439v-70.752c0-14.043-0.674-22.949-2.021-26.738c-1.349-3.779-3.722-6.787-7.129-9.014c-3.398-2.227-7.666-3.34-12.793-3.34
		c-5.89,0-11.144,1.426-15.771,4.287c-4.619,2.852-8.008,7.168-10.146,12.92c-2.148,5.762-3.224,14.277-3.224,25.547v67.09h-35.43
		V255.771H505.801L505.801,255.771z"/>
</g>
<g>
	<path d="M853.955,99.882v7.588h-42.5c-0.068-1.904,0.244-3.73,0.918-5.479c1.084-2.9,2.813-5.752,5.195-8.555
		c2.383-2.813,5.83-6.055,10.332-9.746c6.991-5.732,11.709-10.264,14.17-13.613c2.451-3.35,3.682-6.514,3.682-9.502
		c0-3.125-1.113-5.771-3.35-7.92c-2.246-2.148-5.156-3.223-8.761-3.223c-3.799,0-6.836,1.143-9.12,3.428
		c-2.275,2.275-3.438,5.439-3.468,9.473l-8.114-0.84c0.557-6.045,2.646-10.664,6.278-13.838c3.623-3.174,8.486-4.756,14.601-4.756
		c6.172,0,11.055,1.709,14.658,5.127c3.594,3.428,5.391,7.666,5.391,12.725c0,2.578-0.527,5.107-1.572,7.588
		c-1.055,2.49-2.803,5.107-5.244,7.852c-2.44,2.754-6.504,6.523-12.178,11.318c-4.736,3.975-7.773,6.68-9.121,8.096
		s-2.461,2.842-3.34,4.277H853.955L853.955,99.882z M824.609,162.44c-3.271-1.201-5.703-2.91-7.285-5.137
		c-1.572-2.217-2.363-4.883-2.363-7.979c0-4.678,1.68-8.613,5.039-11.807c3.369-3.184,7.842-4.775,13.428-4.775
		c5.615,0,10.138,1.631,13.556,4.893c3.418,3.262,5.137,7.227,5.137,11.904c0,2.988-0.791,5.586-2.354,7.793
		c-1.563,2.207-3.936,3.906-7.129,5.107c3.955,1.289,6.953,3.359,9.015,6.23c2.069,2.861,3.096,6.289,3.096,10.264
		c0,5.498-1.943,10.117-5.83,13.857c-3.896,3.75-9.014,5.615-15.361,5.615c-6.338,0-11.455-1.875-15.352-5.635
		c-3.887-3.76-5.83-8.447-5.83-14.063c0-4.18,1.055-7.676,3.184-10.498C817.676,165.39,820.693,163.466,824.609,162.44
		L824.609,162.44z M820.488,178.759c0,2.256,0.526,4.434,1.602,6.533c1.064,2.109,2.656,3.74,4.756,4.893
		c2.082,1.146,4.422,1.74,6.797,1.729c3.779,0,6.896-1.211,9.347-3.633c2.461-2.432,3.69-5.518,3.69-9.258
		c0-3.799-1.27-6.943-3.799-9.434c-2.529-2.48-5.693-3.73-9.502-3.73c-3.711,0-6.787,1.23-9.229,3.691
		C821.709,172.001,820.488,175.077,820.488,178.759L820.488,178.759z M823.027,149.062c0,3.037,0.985,5.527,2.938,7.451
		c1.963,1.934,4.502,2.9,7.638,2.9c3.036,0,5.536-0.957,7.479-2.871s2.92-4.268,2.92-7.041c0-2.9-1.006-5.332-3.008-7.305
		c-2.002-1.973-4.502-2.959-7.48-2.959c-3.018,0-5.518,0.957-7.5,2.891C824.023,144.062,823.027,146.366,823.027,149.062
		L823.027,149.062z M792.227,287.147h-7.891v-50.313c-1.904,1.807-4.395,3.623-7.479,5.439c-3.087,1.807-5.859,3.174-8.312,4.072
		v-7.627c4.414-2.08,8.271-4.59,11.582-7.549c3.301-2.949,5.646-5.82,7.012-8.594h5.088V287.147L792.227,287.147z M824.6,252.274
		c-3.271-1.201-5.703-2.91-7.284-5.137c-1.572-2.217-2.363-4.883-2.363-7.979c0-4.678,1.68-8.613,5.039-11.807
		c3.369-3.184,7.842-4.775,13.428-4.775c5.615,0,10.137,1.631,13.555,4.893c3.418,3.262,5.138,7.227,5.138,11.904
		c0,2.988-0.791,5.586-2.354,7.793c-1.563,2.207-3.936,3.906-7.129,5.107c3.955,1.289,6.953,3.359,9.014,6.23
		c2.07,2.861,3.097,6.289,3.097,10.264c0,5.498-1.943,10.117-5.83,13.857c-3.896,3.75-9.015,5.615-15.361,5.615
		c-6.338,0-11.455-1.875-15.352-5.635c-3.888-3.76-5.83-8.447-5.83-14.063c0-4.18,1.055-7.676,3.184-10.498
		C817.666,255.224,820.684,253.3,824.6,252.274L824.6,252.274z M820.479,268.593c0,2.256,0.527,4.434,1.603,6.533
		c1.063,2.109,2.656,3.74,4.756,4.893c2.082,1.146,4.421,1.74,6.797,1.729c3.779,0,6.896-1.211,9.347-3.633
		c2.461-2.432,3.69-5.518,3.69-9.258c0-3.799-1.27-6.943-3.799-9.434c-2.529-2.48-5.693-3.73-9.502-3.73
		c-3.711,0-6.787,1.23-9.229,3.691C821.699,261.835,820.479,264.911,820.479,268.593L820.479,268.593z M823.018,238.896
		c0,3.037,0.986,5.527,2.939,7.451c1.963,1.934,4.502,2.9,7.637,2.9c3.037,0,5.537-0.957,7.48-2.871
		c1.942-1.914,2.92-4.268,2.92-7.041c0-2.9-1.006-5.332-3.008-7.305c-2.002-1.973-4.502-2.959-7.48-2.959
		c-3.018,0-5.518,0.957-7.5,2.891C824.014,233.896,823.018,236.2,823.018,238.896L823.018,238.896z M762.529,360.019l7.899-1.055
		c0.908,4.473,2.451,7.695,4.629,9.668c2.179,1.973,4.834,2.959,7.959,2.959c3.712,0,6.855-1.279,9.414-3.857
		c2.56-2.568,3.839-5.762,3.839-9.561c0-3.623-1.191-6.621-3.556-8.975c-2.373-2.354-5.381-3.525-9.043-3.525
		c-1.483,0-3.34,0.293-5.565,0.879l0.879-6.934c0.526,0.059,0.946,0.088,1.27,0.088c3.359,0,6.387-0.879,9.082-2.637
		c2.687-1.748,4.033-4.453,4.033-8.115c0-2.891-0.977-5.293-2.939-7.188c-1.953-1.904-4.491-2.852-7.588-2.852
		c-3.065,0-5.625,0.957-7.676,2.891s-3.359,4.824-3.945,8.691l-7.899-1.406c0.967-5.293,3.164-9.395,6.582-12.305
		s7.676-4.365,12.764-4.365c3.506,0,6.738,0.752,9.697,2.256c2.948,1.504,5.215,3.564,6.776,6.162
		c1.563,2.607,2.345,5.371,2.345,8.291c0,2.783-0.742,5.313-2.236,7.588c-1.494,2.285-3.701,4.102-6.621,5.439
		c3.799,0.879,6.758,2.705,8.857,5.469c2.108,2.764,3.163,6.221,3.163,10.371c0,5.615-2.051,10.371-6.143,14.277
		c-4.102,3.906-9.277,5.859-15.527,5.859c-5.645,0-10.332-1.68-14.063-5.049C765.186,369.726,763.057,365.37,762.529,360.019
		L762.529,360.019z M853.945,369.403v7.588h-42.5c-0.068-1.904,0.244-3.73,0.918-5.479c1.084-2.9,2.813-5.752,5.194-8.555
		c2.384-2.813,5.83-6.055,10.332-9.746c6.992-5.732,11.709-10.264,14.17-13.613c2.451-3.35,3.683-6.514,3.683-9.502
		c0-3.125-1.113-5.771-3.351-7.92c-2.245-2.148-5.155-3.223-8.76-3.223c-3.799,0-6.836,1.143-9.121,3.428
		c-2.274,2.275-3.438,5.439-3.467,9.473l-8.115-0.84c0.558-6.045,2.646-10.664,6.279-13.838c3.623-3.174,8.486-4.756,14.6-4.756
		c6.173,0,11.056,1.709,14.658,5.127c3.595,3.428,5.392,7.666,5.392,12.725c0,2.578-0.527,5.107-1.572,7.588
		c-1.055,2.49-2.803,5.107-5.244,7.852c-2.441,2.754-6.504,6.523-12.178,11.318c-4.736,3.975-7.773,6.68-9.121,8.096
		s-2.461,2.842-3.34,4.277H853.945L853.945,369.403z M762.529,449.853l7.899-1.055c0.908,4.468,2.451,7.69,4.629,9.663
		c2.179,1.973,4.834,2.969,7.959,2.969c3.712,0,6.855-1.289,9.414-3.867c2.56-2.559,3.839-5.757,3.839-9.556
		c0-3.623-1.191-6.621-3.556-8.975c-2.373-2.354-5.381-3.525-9.043-3.525c-1.483,0-3.34,0.293-5.565,0.879l0.879-6.934
		c0.526,0.059,0.946,0.088,1.27,0.088c3.359,0,6.387-0.879,9.082-2.637c2.687-1.748,4.033-4.453,4.033-8.115
		c0-2.891-0.977-5.293-2.939-7.188c-1.953-1.903-4.491-2.852-7.588-2.852c-3.065,0-5.625,0.957-7.676,2.891
		c-2.051,1.935-3.359,4.824-3.945,8.691l-7.899-1.406c0.967-5.293,3.164-9.395,6.582-12.305s7.676-4.365,12.764-4.365
		c3.506,0,6.738,0.752,9.697,2.256c2.948,1.504,5.215,3.564,6.776,6.162c1.563,2.607,2.345,5.371,2.345,8.291
		c0,2.783-0.742,5.313-2.236,7.588c-1.494,2.285-3.701,4.103-6.621,5.439c3.799,0.879,6.758,2.705,8.857,5.469
		c2.108,2.764,3.163,6.221,3.163,10.371c0,5.61-2.051,10.376-6.143,14.282c-4.102,3.906-9.277,5.858-15.527,5.858
		c-5.645,0-10.332-1.68-14.063-5.059C765.186,459.555,763.057,455.199,762.529,449.853L762.529,449.853z M853.945,459.242v7.578
		h-42.5c-0.068-1.896,0.244-3.73,0.918-5.47c1.084-2.909,2.813-5.762,5.194-8.555c2.384-2.816,5.83-6.06,10.332-9.751
		c6.992-5.731,11.709-10.264,14.17-13.613c2.451-3.35,3.683-6.514,3.683-9.502c0-3.125-1.113-5.771-3.351-7.92
		c-2.245-2.147-5.155-3.223-8.76-3.223c-3.799,0-6.836,1.143-9.121,3.428c-2.274,2.275-3.438,5.439-3.467,9.473l-8.115-0.84
		c0.558-6.045,2.646-10.664,6.279-13.838c3.623-3.174,8.486-4.756,14.6-4.756c6.173,0,11.056,1.709,14.658,5.127
		c3.595,3.428,5.392,7.666,5.392,12.726c0,2.577-0.527,5.106-1.572,7.588c-1.055,2.489-2.803,5.106-5.244,7.852
		c-2.441,2.754-6.504,6.523-12.178,11.318c-4.736,3.975-7.773,6.675-9.121,8.101c-1.348,1.406-2.461,2.832-3.34,4.277H853.945
		L853.945,459.242z M792.227,556.664h-7.891v-50.313c-1.904,1.816-4.395,3.634-7.479,5.449c-3.087,1.797-5.859,3.164-8.312,4.063
		v-7.617c4.414-2.09,8.271-4.59,11.582-7.559c3.301-2.949,5.646-5.82,7.012-8.595h5.088V556.664L792.227,556.664z M824.6,521.801
		c-3.271-1.211-5.703-2.91-7.284-5.137c-1.572-2.227-2.363-4.883-2.363-7.988c0-4.668,1.68-8.613,5.039-11.797
		c3.369-3.184,7.842-4.785,13.428-4.785c5.615,0,10.137,1.642,13.555,4.902s5.138,7.227,5.138,11.895
		c0,2.988-0.791,5.586-2.354,7.793c-1.563,2.207-3.936,3.906-7.129,5.117c3.955,1.289,6.953,3.359,9.014,6.23
		c2.07,2.852,3.097,6.289,3.097,10.254c0,5.508-1.943,10.117-5.83,13.867c-3.896,3.75-9.015,5.604-15.361,5.604
		c-6.338,0-11.455-1.875-15.352-5.625c-3.888-3.77-5.83-8.457-5.83-14.063c0-4.181,1.055-7.677,3.184-10.509
		C817.666,524.75,820.684,522.816,824.6,521.801z M820.479,538.109c0,2.266,0.527,4.434,1.603,6.543
		c1.063,2.108,2.656,3.729,4.756,4.883c2.081,1.148,4.421,1.746,6.797,1.738c3.779,0,6.896-1.211,9.347-3.634
		c2.461-2.44,3.69-5.526,3.69-9.258c0-3.809-1.27-6.953-3.799-9.434c-2.529-2.481-5.693-3.73-9.502-3.73
		c-3.711,0-6.787,1.23-9.229,3.691C821.699,531.352,820.479,534.438,820.479,538.109L820.479,538.109z M823.018,508.422
		c0,3.027,0.986,5.527,2.939,7.441c1.963,1.934,4.502,2.91,7.637,2.91c3.037,0,5.537-0.957,7.48-2.871
		c1.942-1.914,2.92-4.277,2.92-7.052c0-2.891-1.006-5.332-3.008-7.305s-4.502-2.949-7.48-2.949c-3.018,0-5.518,0.957-7.5,2.892
		C824.014,503.422,823.018,505.727,823.018,508.422L823.018,508.422z M812.5,629.535l7.9-1.055c0.907,4.473,2.45,7.694,4.629,9.668
		c2.178,1.973,4.834,2.948,7.959,2.948c3.711,0,6.854-1.27,9.414-3.848c2.559-2.578,3.838-5.762,3.838-9.57
		c0-3.612-1.191-6.621-3.555-8.965c-2.373-2.363-5.382-3.535-9.044-3.535c-1.483,0-3.34,0.293-5.565,0.879l0.879-6.934
		c0.527,0.059,0.947,0.098,1.27,0.098c3.359,0,6.388-0.879,9.082-2.637c2.687-1.758,4.033-4.453,4.033-8.125
		c0-2.891-0.977-5.293-2.938-7.188c-1.953-1.895-4.492-2.852-7.588-2.852c-3.066,0-5.625,0.957-7.677,2.891
		c-2.051,1.935-3.358,4.824-3.944,8.691l-7.9-1.406c0.967-5.293,3.164-9.395,6.582-12.305s7.676-4.355,12.764-4.355
		c3.506,0,6.738,0.742,9.697,2.246c2.949,1.504,5.215,3.574,6.777,6.172c1.562,2.599,2.344,5.371,2.344,8.281
		c0,2.793-0.742,5.313-2.236,7.599c-1.494,2.284-3.701,4.102-6.621,5.43c3.8,0.879,6.759,2.715,8.857,5.469
		c2.108,2.773,3.164,6.23,3.164,10.371c0,5.625-2.051,10.371-6.144,14.277c-4.102,3.905-9.276,5.858-15.526,5.858
		c-5.646,0-10.332-1.68-14.063-5.039C815.156,639.241,813.027,634.887,812.5,629.535L812.5,629.535z"/>
</g>
</svg>
