<?xml version="1.0" encoding="utf-8"?>
<!-- Generator: Adobe Illustrator 16.2.0, SVG Export Plug-In . SVG Version: 6.00 Build 0)  -->
<!DOCTYPE svg PUBLIC "-//W3C//DTD SVG 1.1//EN" "http://www.w3.org/Graphics/SVG/1.1/DTD/svg11.dtd">
<svg version="1.1" id="Layer_1" xmlns="http://www.w3.org/2000/svg" xmlns:xlink="http://www.w3.org/1999/xlink" x="0px" y="0px"
	 width="900px" height="900px" viewBox="0 0 900 900" enable-background="new 0 0 900 900" xml:space="preserve">
<path d="M86.172,154.257H72.334V66.073c-3.34,3.184-7.705,6.357-13.115,9.531c-5.4,3.184-10.264,5.566-14.561,7.158V69.384
	c7.734-3.643,14.502-8.047,20.293-13.223c5.791-5.176,9.893-10.205,12.305-15.068h8.916V154.257z M162.051,154.257h-13.838V66.073
	c-3.34,3.184-7.705,6.357-13.115,9.531c-5.4,3.184-10.264,5.566-14.561,7.158V69.384c7.734-3.643,14.502-8.047,20.293-13.223
	c5.791-5.176,9.893-10.205,12.305-15.068h8.916V154.257L162.051,154.257z M241.855,154.257v-26.982h-48.896v-12.686l51.426-73.037
	h11.309v73.037h15.215v12.686h-15.215v26.982H241.855z M241.855,114.589v-50.82l-35.293,50.82H241.855z M224.316,653.168v-74.102
	h49.98v8.75H234.12v22.948h34.775v8.73H234.12v33.672L224.316,653.168L224.316,653.168z M285.674,653.168v-74.102h9.102v74.102
	H285.674z M345.625,635.883l9.395,1.152c-1.483,5.488-4.229,9.766-8.231,12.793c-4.014,3.027-9.141,4.551-15.371,4.551
	c-7.852,0-14.072-2.422-18.672-7.266c-4.601-4.824-6.904-11.603-6.904-20.332c0-9.023,2.324-16.035,6.974-21.035
	c4.657-4.98,10.684-7.48,18.096-7.48c7.178,0,13.047,2.441,17.598,7.345c4.541,4.883,6.816,11.758,6.816,20.604
	c0,0.547-0.01,1.349-0.049,2.441h-40.029c0.332,5.897,2.002,10.41,5,13.535c2.998,3.145,6.738,4.707,11.221,4.707
	c3.34,0,6.183-0.88,8.545-2.638C342.373,642.523,344.238,639.711,345.625,635.883L345.625,635.883z M315.752,621.176h29.971
	c-0.409-4.531-1.553-7.91-3.438-10.176c-2.9-3.496-6.66-5.254-11.271-5.254c-4.18,0-7.694,1.406-10.536,4.199
	C317.627,612.738,316.055,616.488,315.752,621.176L315.752,621.176z M366.338,653.168v-53.691h8.193v8.146
	c2.09-3.809,4.014-6.309,5.781-7.539c1.776-1.211,3.721-1.815,5.84-1.815c3.065,0,6.182,0.977,9.354,2.93l-3.135,8.457
	c-2.228-1.328-4.453-1.974-6.67-1.974c-1.992,0-3.779,0.586-5.361,1.798c-1.582,1.19-2.715,2.852-3.389,4.961
	c-1.006,3.241-1.515,6.776-1.515,10.625v28.104L366.338,653.168L366.338,653.168z M397.529,626.332
	c0-9.941,2.764-17.305,8.291-22.09c4.608-3.984,10.244-5.978,16.885-5.978c7.373,0,13.408,2.422,18.086,7.267
	c4.688,4.823,7.031,11.504,7.031,20.039c0,6.895-1.035,12.344-3.105,16.289c-2.08,3.965-5.088,7.051-9.053,9.237
	c-3.955,2.188-8.281,3.281-12.959,3.281c-7.521,0-13.594-2.402-18.223-7.227C399.844,642.328,397.529,635.395,397.529,626.332
	L397.529,626.332z M406.875,626.332c0,6.875,1.504,12.012,4.502,15.43s6.777,5.138,11.328,5.138c4.512,0,8.271-1.72,11.27-5.156
	c2.999-3.438,4.492-8.672,4.492-15.724c0-6.641-1.504-11.659-4.521-15.077c-3.019-3.438-6.769-5.138-11.24-5.138
	c-4.551,0-8.33,1.699-11.328,5.099C408.379,614.32,406.875,619.457,406.875,626.332L406.875,626.332z M473.398,653.168
	l-20.421-53.691h9.601l11.522,32.148c1.25,3.477,2.394,7.09,3.438,10.82c0.811-2.832,1.934-6.23,3.389-10.215l11.924-32.755h9.355
	l-20.322,53.691L473.398,653.168L473.398,653.168z M510.293,589.535v-10.469h9.102v10.469H510.293L510.293,589.535z
	 M510.293,653.168v-53.691h9.102v53.691H510.293L510.293,653.168z M568.418,653.168v-7.891c-4.18,6.073-9.854,9.102-17.031,9.102
	c-3.174,0-6.123-0.604-8.877-1.815c-2.744-1.212-4.785-2.734-6.112-4.591c-1.328-1.836-2.267-4.082-2.804-6.737
	c-0.371-1.777-0.557-4.609-0.557-8.496v-33.263h9.102v29.785c0,4.746,0.187,7.949,0.558,9.59c0.565,2.402,1.776,4.277,3.633,5.646
	s4.15,2.051,6.875,2.051c2.734,0,5.293-0.703,7.686-2.108c2.394-1.388,4.082-3.302,5.078-5.703
	c0.996-2.402,1.494-5.898,1.494-10.488v-28.77h9.092v53.69L568.418,653.168L568.418,653.168z M590.811,653.168v-53.691h8.136v7.539
	c1.688-2.637,3.926-4.745,6.719-6.348c2.803-1.602,5.986-2.402,9.561-2.402c3.976,0,7.236,0.841,9.775,2.48
	c2.549,1.66,4.336,3.965,5.381,6.934c4.248-6.27,9.775-9.414,16.582-9.414c5.322,0,9.414,1.484,12.285,4.435
	c2.861,2.949,4.297,7.479,4.297,13.613v36.854h-9.053V619.34c0-3.633-0.293-6.25-0.879-7.852c-0.597-1.603-1.66-2.892-3.213-3.867
	c-1.554-0.977-3.369-1.465-5.459-1.465c-3.771,0-6.904,1.25-9.404,3.77c-2.49,2.5-3.74,6.523-3.74,12.051v31.191h-9.092v-34.883
	c0-4.043-0.742-7.07-2.228-9.103c-1.483-2.012-3.905-3.026-7.274-3.026c-2.568,0-4.933,0.684-7.109,2.031
	c-2.168,1.348-3.739,3.301-4.727,5.897c-0.978,2.599-1.465,6.349-1.465,11.23v27.852L590.811,653.168L590.811,653.168z"/>
<g>
	<path d="M56.992,859.574v-94.668H77.06v7.52H66.094v79.609h10.967v7.539H56.992L56.992,859.574z M130.84,830.258v8.75H81.865
		c-0.075-2.159,0.287-4.312,1.064-6.328c1.24-3.34,3.242-6.621,5.986-9.844c2.744-3.242,6.709-6.992,11.904-11.229
		c8.047-6.603,13.496-11.837,16.328-15.685c2.822-3.867,4.238-7.52,4.238-10.957c0-3.594-1.289-6.641-3.867-9.121
		c-2.578-2.479-5.938-3.711-10.078-3.711c-4.385,0-7.891,1.31-10.518,3.945c-2.627,2.617-3.955,6.27-3.994,10.918l-9.346-0.957
		c0.635-6.973,3.047-12.305,7.227-15.957c4.18-3.652,9.785-5.488,16.836-5.488c7.109,0,12.734,1.974,16.875,5.918
		c4.15,3.945,6.221,8.828,6.221,14.669c0,2.948-0.605,5.879-1.816,8.729c-1.221,2.871-3.232,5.879-6.045,9.063
		c-2.813,3.163-7.49,7.5-14.023,13.026c-5.459,4.59-8.965,7.695-10.518,9.336c-1.553,1.621-2.832,3.281-3.838,4.922H130.84
		L130.84,830.258z M154.6,798.813c-3.779-1.366-6.572-3.34-8.398-5.897c-1.816-2.578-2.725-5.646-2.725-9.199
		c0-5.391,1.934-9.922,5.811-13.612c3.877-3.673,9.033-5.509,15.469-5.509c6.465,0,11.68,1.896,15.615,5.646
		c3.945,3.75,5.918,8.34,5.918,13.729c0,3.438-0.898,6.427-2.705,8.966c-1.807,2.538-4.541,4.512-8.213,5.879
		c4.551,1.483,8.008,3.887,10.391,7.188c2.373,3.301,3.555,7.246,3.555,11.816c0,6.348-2.236,11.66-6.719,15.977
		c-4.483,4.317-10.381,6.465-17.686,6.465c-7.314,0-13.213-2.147-17.695-6.483c-4.482-4.336-6.719-9.728-6.719-16.211
		c0-4.806,1.221-8.849,3.662-12.091C146.602,802.211,150.078,800.004,154.6,798.813L154.6,798.813z M149.844,817.621
		c0,2.598,0.615,5.098,1.846,7.539c1.23,2.422,3.057,4.297,5.488,5.625c2.422,1.328,5.029,1.992,7.832,1.992
		c4.346,0,7.93-1.388,10.762-4.181c2.832-2.813,4.248-6.366,4.248-10.664c0-4.395-1.455-8.008-4.375-10.879
		c-2.91-2.852-6.563-4.297-10.938-4.297c-4.277,0-7.832,1.426-10.645,4.258S149.844,813.383,149.844,817.621L149.844,817.621z
		 M152.773,783.402c0,3.516,1.133,6.366,3.389,8.594c2.256,2.227,5.186,3.34,8.799,3.34c3.506,0,6.377-1.113,8.613-3.32
		c2.246-2.207,3.359-4.901,3.359-8.104c0-3.34-1.152-6.133-3.457-8.418c-2.314-2.267-5.186-3.418-8.623-3.418
		c-3.467,0-6.348,1.112-8.643,3.34C153.926,777.641,152.773,780.297,152.773,783.402z M199.531,821.859l8.74-0.802
		c0.742,4.121,2.158,7.091,4.248,8.945c2.09,1.855,4.766,2.773,8.037,2.773c2.793,0,5.244-0.625,7.354-1.914
		c2.109-1.271,3.828-2.988,5.176-5.138c1.348-2.129,2.48-5.02,3.389-8.651c0.909-3.642,1.369-7.38,1.367-11.133
		c0-0.392-0.02-0.996-0.049-1.816c-1.826,2.891-4.307,5.254-7.461,7.051c-3.111,1.794-6.643,2.73-10.234,2.715
		c-6.133,0-11.318-2.227-15.566-6.68s-6.367-10.313-6.367-17.598c0-7.5,2.217-13.556,6.65-18.146
		c4.424-4.569,9.98-6.875,16.65-6.875c4.814,0,9.229,1.31,13.213,3.906c3.994,2.598,7.031,6.289,9.102,11.094
		c2.071,4.806,3.105,11.738,3.105,20.84c0,9.474-1.025,17.013-3.076,22.617c-2.061,5.625-5.117,9.883-9.18,12.813
		c-4.063,2.93-8.818,4.395-14.277,4.395c-5.791,0-10.527-1.602-14.199-4.823C202.48,832.23,200.273,827.699,199.531,821.859
		L199.531,821.859z M236.777,789.164c0-5.215-1.387-9.375-4.17-12.441c-2.773-3.065-6.123-4.59-10.029-4.59
		c-4.043,0-7.568,1.66-10.566,4.961c-2.998,3.301-4.502,7.578-4.502,12.832c0,4.707,1.426,8.555,4.277,11.504
		c2.842,2.949,6.357,4.414,10.537,4.414c4.209,0,7.676-1.465,10.391-4.414C235.42,798.48,236.777,794.398,236.777,789.164z
		 M273.486,859.574h-20.068v-7.539h10.967v-79.609h-10.967v-7.52h20.068V859.574L273.486,859.574z"/>
</g>
<g>
	<path d="M341.699,440.673V255.78h126.748v31.279h-89.414v43.77h77.178v31.27h-77.178v78.574H341.699L341.699,440.673z
		 M498.965,440.673V255.78h35.439v184.893H498.965z"/>
</g>
<g>
	<path d="M853.789,99.882v7.588h-42.5c-0.068-1.904,0.244-3.73,0.918-5.479c1.084-2.9,2.813-5.752,5.195-8.555
		c2.383-2.813,5.83-6.055,10.332-9.746c6.991-5.732,11.709-10.264,14.17-13.613c2.451-3.35,3.682-6.514,3.682-9.502
		c0-3.125-1.113-5.771-3.35-7.92c-2.246-2.148-5.156-3.223-8.761-3.223c-3.799,0-6.836,1.143-9.12,3.428
		c-2.275,2.275-3.438,5.439-3.468,9.473l-8.114-0.84c0.557-6.045,2.646-10.664,6.278-13.838c3.623-3.174,8.486-4.756,14.601-4.756
		c6.172,0,11.055,1.709,14.658,5.127c3.594,3.428,5.391,7.666,5.391,12.725c0,2.578-0.527,5.107-1.572,7.588
		c-1.055,2.49-2.803,5.107-5.244,7.852c-2.44,2.754-6.504,6.523-12.178,11.318c-4.736,3.975-7.773,6.68-9.121,8.096
		s-2.461,2.842-3.34,4.277H853.789L853.789,99.882z M824.443,162.44c-3.271-1.201-5.703-2.91-7.285-5.137
		c-1.572-2.217-2.363-4.883-2.363-7.979c0-4.678,1.68-8.613,5.039-11.807c3.369-3.184,7.842-4.775,13.428-4.775
		c5.615,0,10.138,1.631,13.556,4.893c3.418,3.262,5.137,7.227,5.137,11.904c0,2.988-0.791,5.586-2.354,7.793
		c-1.563,2.207-3.936,3.906-7.129,5.107c3.955,1.289,6.953,3.359,9.015,6.23c2.069,2.861,3.096,6.289,3.096,10.264
		c0,5.498-1.943,10.117-5.83,13.857c-3.896,3.75-9.014,5.615-15.361,5.615c-6.338,0-11.455-1.875-15.352-5.635
		c-3.887-3.76-5.83-8.447-5.83-14.063c0-4.18,1.055-7.676,3.184-10.498C817.51,165.39,820.527,163.466,824.443,162.44
		L824.443,162.44z M820.322,178.759c0,2.256,0.526,4.434,1.602,6.533c1.064,2.109,2.656,3.74,4.756,4.893
		c2.082,1.146,4.422,1.74,6.797,1.729c3.779,0,6.896-1.211,9.347-3.633c2.461-2.432,3.69-5.518,3.69-9.258
		c0-3.799-1.27-6.943-3.799-9.434c-2.529-2.48-5.693-3.73-9.502-3.73c-3.711,0-6.787,1.23-9.229,3.691
		C821.543,172.001,820.322,175.077,820.322,178.759L820.322,178.759z M822.861,149.062c0,3.037,0.985,5.527,2.938,7.451
		c1.963,1.934,4.502,2.9,7.638,2.9c3.036,0,5.536-0.957,7.479-2.871s2.92-4.268,2.92-7.041c0-2.9-1.006-5.332-3.008-7.305
		c-2.002-1.973-4.502-2.959-7.48-2.959c-3.018,0-5.518,0.957-7.5,2.891C823.857,144.062,822.861,146.366,822.861,149.062
		L822.861,149.062z M792.061,287.147h-7.891v-50.313c-1.904,1.807-4.395,3.623-7.479,5.439c-3.087,1.807-5.859,3.174-8.312,4.072
		v-7.627c4.414-2.08,8.271-4.59,11.582-7.549c3.301-2.949,5.646-5.82,7.012-8.594h5.088V287.147L792.061,287.147z M824.434,252.274
		c-3.271-1.201-5.702-2.91-7.284-5.137c-1.572-2.217-2.363-4.883-2.363-7.979c0-4.678,1.68-8.613,5.039-11.807
		c3.369-3.184,7.842-4.775,13.428-4.775c5.615,0,10.137,1.631,13.555,4.893c3.418,3.262,5.138,7.227,5.138,11.904
		c0,2.988-0.791,5.586-2.354,7.793c-1.563,2.207-3.936,3.906-7.129,5.107c3.955,1.289,6.953,3.359,9.014,6.23
		c2.07,2.861,3.097,6.289,3.097,10.264c0,5.498-1.943,10.117-5.83,13.857c-3.896,3.75-9.014,5.615-15.361,5.615
		c-6.338,0-11.455-1.875-15.352-5.635c-3.888-3.76-5.83-8.447-5.83-14.063c0-4.18,1.055-7.676,3.184-10.498
		C817.5,255.224,820.518,253.3,824.434,252.274L824.434,252.274z M820.313,268.593c0,2.256,0.526,4.434,1.602,6.533
		c1.064,2.109,2.656,3.74,4.756,4.893c2.082,1.146,4.421,1.74,6.797,1.729c3.779,0,6.896-1.211,9.347-3.633
		c2.461-2.432,3.69-5.518,3.69-9.258c0-3.799-1.27-6.943-3.799-9.434c-2.529-2.48-5.693-3.73-9.502-3.73
		c-3.711,0-6.787,1.23-9.229,3.691C821.533,261.835,820.313,264.911,820.313,268.593L820.313,268.593z M822.852,238.896
		c0,3.037,0.986,5.527,2.939,7.451c1.963,1.934,4.502,2.9,7.637,2.9c3.037,0,5.537-0.957,7.48-2.871s2.92-4.268,2.92-7.041
		c0-2.9-1.006-5.332-3.008-7.305c-2.002-1.973-4.502-2.959-7.48-2.959c-3.018,0-5.518,0.957-7.5,2.891
		C823.848,233.896,822.853,236.2,822.852,238.896L822.852,238.896z M762.363,360.019l7.899-1.055
		c0.908,4.473,2.451,7.695,4.629,9.668c2.179,1.973,4.834,2.959,7.959,2.959c3.712,0,6.855-1.279,9.414-3.857
		c2.56-2.568,3.839-5.762,3.839-9.561c0-3.623-1.191-6.621-3.556-8.975c-2.373-2.354-5.381-3.525-9.043-3.525
		c-1.483,0-3.34,0.293-5.565,0.879l0.879-6.934c0.526,0.059,0.946,0.088,1.27,0.088c3.359,0,6.387-0.879,9.082-2.637
		c2.687-1.748,4.033-4.453,4.033-8.115c0-2.891-0.977-5.293-2.939-7.188c-1.953-1.904-4.491-2.852-7.588-2.852
		c-3.065,0-5.625,0.957-7.676,2.891s-3.359,4.824-3.945,8.691l-7.899-1.406c0.967-5.293,3.164-9.395,6.582-12.305
		s7.676-4.365,12.764-4.365c3.506,0,6.738,0.752,9.697,2.256c2.948,1.504,5.215,3.564,6.776,6.162
		c1.563,2.607,2.345,5.371,2.345,8.291c0,2.783-0.742,5.313-2.236,7.588c-1.494,2.285-3.701,4.102-6.621,5.439
		c3.799,0.879,6.758,2.705,8.857,5.469c2.108,2.764,3.163,6.221,3.163,10.371c0,5.615-2.051,10.371-6.143,14.277
		c-4.102,3.906-9.277,5.859-15.527,5.859c-5.645,0-10.332-1.68-14.063-5.049C765.02,369.726,762.891,365.37,762.363,360.019
		L762.363,360.019z M853.779,369.403v7.588h-42.5c-0.068-1.904,0.244-3.73,0.918-5.479c1.084-2.9,2.813-5.752,5.194-8.555
		c2.384-2.813,5.83-6.055,10.332-9.746c6.992-5.732,11.709-10.264,14.17-13.613c2.451-3.35,3.683-6.514,3.683-9.502
		c0-3.125-1.113-5.771-3.351-7.92c-2.245-2.148-5.155-3.223-8.76-3.223c-3.799,0-6.836,1.143-9.121,3.428
		c-2.274,2.275-3.438,5.439-3.467,9.473l-8.115-0.84c0.558-6.045,2.646-10.664,6.279-13.838c3.623-3.174,8.486-4.756,14.6-4.756
		c6.173,0,11.056,1.709,14.658,5.127c3.595,3.428,5.392,7.666,5.392,12.725c0,2.578-0.527,5.107-1.572,7.588
		c-1.055,2.49-2.803,5.107-5.244,7.852c-2.441,2.754-6.504,6.523-12.178,11.318c-4.736,3.975-7.773,6.68-9.121,8.096
		s-2.461,2.842-3.34,4.277H853.779L853.779,369.403z M762.363,449.853l7.899-1.055c0.908,4.468,2.451,7.69,4.629,9.663
		c2.179,1.973,4.834,2.969,7.959,2.969c3.712,0,6.855-1.289,9.414-3.867c2.56-2.559,3.839-5.757,3.839-9.556
		c0-3.623-1.191-6.621-3.556-8.975c-2.373-2.354-5.381-3.525-9.043-3.525c-1.483,0-3.34,0.293-5.565,0.879l0.879-6.934
		c0.526,0.059,0.946,0.088,1.27,0.088c3.359,0,6.387-0.879,9.082-2.637c2.687-1.748,4.033-4.453,4.033-8.115
		c0-2.891-0.977-5.293-2.939-7.188c-1.953-1.903-4.491-2.852-7.588-2.852c-3.065,0-5.625,0.957-7.676,2.891
		c-2.051,1.935-3.359,4.824-3.945,8.691l-7.899-1.406c0.967-5.293,3.164-9.395,6.582-12.305s7.676-4.365,12.764-4.365
		c3.506,0,6.738,0.752,9.697,2.256c2.948,1.504,5.215,3.564,6.776,6.162c1.563,2.607,2.345,5.371,2.345,8.291
		c0,2.783-0.742,5.313-2.236,7.588c-1.494,2.285-3.701,4.103-6.621,5.439c3.799,0.879,6.758,2.705,8.857,5.469
		c2.108,2.764,3.163,6.221,3.163,10.371c0,5.61-2.051,10.376-6.143,14.282c-4.102,3.906-9.277,5.858-15.527,5.858
		c-5.645,0-10.332-1.68-14.063-5.059C765.02,459.555,762.891,455.199,762.363,449.853L762.363,449.853z M853.779,459.242v7.578
		h-42.5c-0.068-1.896,0.244-3.73,0.918-5.47c1.084-2.909,2.813-5.762,5.194-8.555c2.384-2.816,5.83-6.06,10.332-9.751
		c6.992-5.731,11.709-10.264,14.17-13.613c2.451-3.35,3.683-6.514,3.683-9.502c0-3.125-1.113-5.771-3.351-7.92
		c-2.245-2.147-5.155-3.223-8.76-3.223c-3.799,0-6.836,1.143-9.121,3.428c-2.274,2.275-3.438,5.439-3.467,9.473l-8.115-0.84
		c0.558-6.045,2.646-10.664,6.279-13.838c3.623-3.174,8.486-4.756,14.6-4.756c6.173,0,11.056,1.709,14.658,5.127
		c3.595,3.428,5.392,7.666,5.392,12.726c0,2.577-0.527,5.106-1.572,7.588c-1.055,2.489-2.803,5.106-5.244,7.852
		c-2.441,2.754-6.504,6.523-12.178,11.318c-4.736,3.975-7.773,6.675-9.121,8.101c-1.348,1.406-2.461,2.832-3.34,4.277H853.779
		L853.779,459.242z M792.061,556.664h-7.891v-50.313c-1.904,1.816-4.395,3.634-7.479,5.449c-3.087,1.797-5.859,3.164-8.312,4.063
		v-7.617c4.414-2.09,8.271-4.59,11.582-7.559c3.301-2.949,5.646-5.82,7.012-8.595h5.088V556.664L792.061,556.664z M824.434,521.801
		c-3.271-1.211-5.702-2.91-7.284-5.137c-1.572-2.227-2.363-4.883-2.363-7.988c0-4.668,1.68-8.613,5.039-11.797
		c3.369-3.184,7.842-4.785,13.428-4.785c5.615,0,10.137,1.642,13.555,4.902s5.138,7.227,5.138,11.895
		c0,2.988-0.791,5.586-2.354,7.793c-1.563,2.207-3.936,3.906-7.129,5.117c3.955,1.289,6.953,3.359,9.014,6.23
		c2.07,2.852,3.097,6.289,3.097,10.254c0,5.508-1.943,10.117-5.83,13.867c-3.896,3.75-9.014,5.604-15.361,5.604
		c-6.338,0-11.455-1.875-15.352-5.625c-3.888-3.77-5.83-8.457-5.83-14.063c0-4.181,1.055-7.677,3.184-10.509
		C817.5,524.75,820.518,522.816,824.434,521.801z M820.313,538.109c0,2.266,0.526,4.434,1.602,6.543
		c1.064,2.108,2.656,3.729,4.756,4.883c2.081,1.148,4.421,1.746,6.797,1.738c3.779,0,6.896-1.211,9.347-3.634
		c2.461-2.44,3.69-5.526,3.69-9.258c0-3.809-1.27-6.953-3.799-9.434c-2.529-2.481-5.693-3.73-9.502-3.73
		c-3.711,0-6.787,1.23-9.229,3.691C821.533,531.352,820.313,534.438,820.313,538.109L820.313,538.109z M822.852,508.422
		c0,3.027,0.986,5.527,2.939,7.441c1.963,1.934,4.502,2.91,7.637,2.91c3.037,0,5.537-0.957,7.48-2.871s2.92-4.277,2.92-7.052
		c0-2.891-1.006-5.332-3.008-7.305s-4.502-2.949-7.48-2.949c-3.018,0-5.518,0.957-7.5,2.892
		C823.848,503.422,822.853,505.727,822.852,508.422L822.852,508.422z M837.607,646.508v-15.41h-27.9v-7.227l29.346-41.68h6.445
		v41.68h8.691v7.227h-8.691v15.41H837.607z M837.607,623.871v-29.004l-20.138,29.004H837.607z"/>
</g>
</svg>
