<?xml version="1.0" encoding="utf-8"?>
<!-- Generator: Adobe Illustrator 16.2.0, SVG Export Plug-In . SVG Version: 6.00 Build 0)  -->
<!DOCTYPE svg PUBLIC "-//W3C//DTD SVG 1.1//EN" "http://www.w3.org/Graphics/SVG/1.1/DTD/svg11.dtd">
<svg version="1.1" id="Layer_1" xmlns="http://www.w3.org/2000/svg" xmlns:xlink="http://www.w3.org/1999/xlink" x="0px" y="0px"
	 width="900px" height="900px" viewBox="0 0 900 900" enable-background="new 0 0 900 900" xml:space="preserve">
<path d="M85.859,154.257H72.021V66.073c-3.34,3.184-7.705,6.357-13.115,9.531c-5.4,3.184-10.264,5.566-14.561,7.158V69.384
	c7.734-3.643,14.502-8.047,20.293-13.223c5.791-5.176,9.893-10.205,12.305-15.068h8.916V154.257z M161.738,154.257H147.9V66.073
	c-3.34,3.184-7.705,6.357-13.115,9.531c-5.4,3.184-10.264,5.566-14.561,7.158V69.384c7.734-3.643,14.502-8.047,20.293-13.223
	c5.791-5.176,9.893-10.205,12.305-15.068h8.916V154.257L161.738,154.257z M197.178,124.735l14.531-1.23
	c1.074,7.07,3.574,12.393,7.5,15.957c3.916,3.555,8.643,5.342,14.18,5.342c6.66,0,12.305-2.51,16.914-7.539
	c4.609-5.02,6.924-11.68,6.924-19.99c0-7.891-2.217-14.121-6.65-18.682c-4.433-4.561-10.244-6.836-17.412-6.836
	c-4.463,0-8.486,1.006-12.07,3.037c-3.594,2.021-6.416,4.648-8.457,7.881l-12.998-1.699l10.918-57.891h56.045v13.223h-44.971
	l-6.074,30.293c6.758-4.717,13.857-7.07,21.289-7.07c9.844,0,18.145,3.408,24.912,10.225c6.767,6.817,10.146,15.576,10.146,26.289
	c0,10.205-2.969,19.023-8.916,26.445c-7.227,9.131-17.09,13.691-29.6,13.691c-10.254,0-18.613-2.871-25.098-8.613
	C201.806,141.826,198.105,134.218,197.178,124.735L197.178,124.735z M188.672,653.168v-74.102h14.756l17.539,52.461
	c1.621,4.883,2.793,8.535,3.535,10.977c0.85-2.695,2.158-6.66,3.945-11.875l17.744-51.563h13.193v74.102h-9.453v-62.031
	l-21.533,62.031h-8.848l-21.426-63.086v63.086H188.672z M270.654,626.332c0-9.941,2.764-17.305,8.291-22.09
	c4.609-3.984,10.244-5.978,16.885-5.978c7.373,0,13.408,2.422,18.086,7.267c4.688,4.823,7.031,11.504,7.031,20.039
	c0,6.895-1.035,12.344-3.105,16.289c-2.08,3.965-5.088,7.051-9.053,9.237c-3.955,2.188-8.281,3.281-12.959,3.281
	c-7.52,0-13.594-2.402-18.223-7.227C272.969,642.328,270.654,635.395,270.654,626.332L270.654,626.332z M280,626.332
	c0,6.875,1.504,12.012,4.502,15.43s6.777,5.138,11.328,5.138c4.512,0,8.271-1.72,11.27-5.156c2.999-3.438,4.492-8.672,4.492-15.724
	c0-6.641-1.504-11.659-4.521-15.077c-3.018-3.438-6.768-5.138-11.24-5.138c-4.551,0-8.33,1.699-11.328,5.099
	C281.504,614.32,280,619.457,280,626.332L280,626.332z M327.969,637.133l8.994-1.406c0.508,3.613,1.914,6.367,4.229,8.281
	c2.305,1.935,5.526,2.892,9.678,2.892c4.18,0,7.274-0.859,9.297-2.56s3.037-3.69,3.037-5.996c0-2.051-0.898-3.672-2.687-4.844
	c-1.239-0.801-4.346-1.836-9.297-3.086c-6.67-1.68-11.299-3.146-13.877-4.375c-2.578-1.23-4.531-2.93-5.858-5.098
	c-1.339-2.168-2.002-4.57-2.002-7.207c0-2.384,0.547-4.609,1.649-6.642c1.076-2.018,2.607-3.756,4.473-5.078
	c1.416-1.055,3.341-1.934,5.781-2.655c2.441-0.723,5.068-1.095,7.861-1.095c4.209,0,7.91,0.605,11.094,1.816
	c3.185,1.229,5.537,2.871,7.051,4.94c1.515,2.07,2.56,4.845,3.136,8.302l-8.896,1.229c-0.399-2.772-1.572-4.922-3.516-6.483
	c-1.935-1.543-4.668-2.324-8.213-2.324c-4.181,0-7.158,0.703-8.945,2.07c-1.787,1.387-2.676,3.008-2.676,4.862
	c0,1.172,0.371,2.246,1.112,3.185c0.742,0.977,1.904,1.776,3.486,2.422c0.908,0.332,3.584,1.112,8.037,2.324
	c6.436,1.719,10.928,3.125,13.467,4.219c2.549,1.094,4.541,2.694,5.996,4.785c1.445,2.09,2.168,4.688,2.168,7.772
	c0,3.047-0.879,5.898-2.656,8.574c-1.768,2.676-4.315,4.746-7.655,6.211c-3.33,1.465-7.109,2.207-11.318,2.207
	c-6.973,0-12.295-1.445-15.947-4.355C331.309,647.133,328.984,642.836,327.969,637.133L327.969,637.133z M418.398,633.5l8.944,1.172
	c-0.977,6.152-3.485,10.978-7.51,14.473c-4.024,3.496-8.975,5.234-14.834,5.234c-7.344,0-13.252-2.402-17.715-7.207
	s-6.699-11.68-6.699-20.645c0-5.802,0.957-10.859,2.881-15.215c1.924-4.356,4.844-7.617,8.771-9.785
	c3.926-2.168,8.192-3.263,12.813-3.263c5.83,0,10.596,1.484,14.308,4.435c3.7,2.949,6.084,7.129,7.129,12.559l-8.849,1.367
	c-0.84-3.613-2.334-6.328-4.473-8.145c-2.139-1.817-4.727-2.734-7.764-2.734c-4.58,0-8.302,1.641-11.162,4.941
	c-2.871,3.28-4.297,8.477-4.297,15.586c0,7.207,1.377,12.461,4.141,15.723s6.367,4.902,10.82,4.902c3.563,0,6.553-1.095,8.944-3.281
	C416.239,641.43,417.754,638.051,418.398,633.5L418.398,633.5z M431.738,626.332c0-9.941,2.764-17.305,8.291-22.09
	c4.608-3.984,10.244-5.978,16.885-5.978c7.373,0,13.408,2.422,18.086,7.267c4.688,4.823,7.031,11.504,7.031,20.039
	c0,6.895-1.035,12.344-3.105,16.289c-2.08,3.965-5.088,7.051-9.053,9.237c-3.955,2.188-8.281,3.281-12.959,3.281
	c-7.521,0-13.594-2.402-18.223-7.227C434.053,642.328,431.738,635.395,431.738,626.332L431.738,626.332z M441.084,626.332
	c0,6.875,1.504,12.012,4.502,15.43s6.777,5.138,11.328,5.138c4.512,0,8.271-1.72,11.27-5.156c2.999-3.438,4.492-8.672,4.492-15.724
	c0-6.641-1.504-11.659-4.521-15.077c-3.019-3.438-6.769-5.138-11.24-5.138c-4.551,0-8.33,1.699-11.328,5.099
	C442.588,614.32,441.084,619.457,441.084,626.332L441.084,626.332z M507.607,653.168l-20.421-53.691h9.601l11.522,32.148
	c1.25,3.477,2.394,7.09,3.438,10.82c0.811-2.832,1.934-6.23,3.389-10.215l11.924-32.755h9.355l-20.322,53.691L507.607,653.168
	L507.607,653.168z M544.502,589.535v-10.469h9.102v10.469H544.502z M544.502,653.168v-53.691h9.102v53.691H544.502z
	 M602.627,653.168v-7.891c-4.18,6.073-9.854,9.102-17.031,9.102c-3.174,0-6.123-0.604-8.877-1.815
	c-2.744-1.212-4.785-2.734-6.112-4.591c-1.328-1.836-2.267-4.082-2.804-6.737c-0.371-1.777-0.557-4.609-0.557-8.496v-33.263h9.102
	v29.785c0,4.746,0.187,7.949,0.558,9.59c0.565,2.402,1.776,4.277,3.633,5.646s4.15,2.051,6.875,2.051
	c2.734,0,5.293-0.703,7.686-2.108c2.394-1.388,4.082-3.302,5.078-5.703c0.996-2.402,1.494-5.898,1.494-10.488v-28.77h9.092v53.69
	L602.627,653.168L602.627,653.168z M625.029,653.168v-53.691h8.135v7.539c1.689-2.637,3.926-4.745,6.719-6.348
	c2.803-1.602,5.986-2.402,9.562-2.402c3.975,0,7.235,0.841,9.774,2.48c2.549,1.66,4.336,3.965,5.381,6.934
	c4.248-6.27,9.775-9.414,16.582-9.414c5.322,0,9.414,1.484,12.285,4.435c2.861,2.949,4.297,7.479,4.297,13.613v36.854h-9.053V619.34
	c0-3.633-0.293-6.25-0.879-7.852c-0.596-1.603-1.66-2.892-3.213-3.867c-1.553-0.977-3.369-1.465-5.459-1.465
	c-3.771,0-6.904,1.25-9.404,3.77c-2.49,2.5-3.74,6.523-3.74,12.051v31.191h-9.092v-34.883c0-4.043-0.742-7.07-2.227-9.103
	c-1.484-2.012-3.906-3.026-7.275-3.026c-2.568,0-4.932,0.684-7.109,2.031c-2.168,1.348-3.739,3.301-4.727,5.897
	c-0.977,2.599-1.465,6.349-1.465,11.23v27.852L625.029,653.168L625.029,653.168z"/>
<g>
	<path d="M56.68,859.574v-94.668h20.068v7.52H65.781v79.609h10.967v7.539H56.68L56.68,859.574z M130.527,830.258v8.75H81.553
		c-0.075-2.159,0.287-4.312,1.064-6.328c1.24-3.34,3.242-6.621,5.986-9.844c2.744-3.242,6.709-6.992,11.904-11.229
		c8.047-6.603,13.496-11.837,16.328-15.685c2.822-3.867,4.238-7.52,4.238-10.957c0-3.594-1.289-6.641-3.867-9.121
		c-2.578-2.479-5.938-3.711-10.078-3.711c-4.385,0-7.891,1.31-10.518,3.945c-2.627,2.617-3.955,6.27-3.994,10.918l-9.346-0.957
		c0.635-6.973,3.047-12.305,7.227-15.957c4.18-3.652,9.785-5.488,16.836-5.488c7.109,0,12.734,1.974,16.875,5.918
		c4.15,3.945,6.221,8.828,6.221,14.669c0,2.948-0.605,5.879-1.816,8.729c-1.221,2.871-3.232,5.879-6.045,9.063
		c-2.813,3.163-7.49,7.5-14.023,13.026c-5.459,4.59-8.965,7.695-10.518,9.336c-1.553,1.621-2.832,3.281-3.838,4.922H130.527
		L130.527,830.258z M154.287,798.813c-3.779-1.366-6.572-3.34-8.398-5.897c-1.816-2.578-2.725-5.646-2.725-9.199
		c0-5.391,1.934-9.922,5.811-13.612c3.877-3.673,9.033-5.509,15.469-5.509c6.465,0,11.68,1.896,15.615,5.646
		c3.945,3.75,5.918,8.34,5.918,13.729c0,3.438-0.898,6.427-2.705,8.966c-1.807,2.538-4.541,4.512-8.213,5.879
		c4.551,1.483,8.008,3.887,10.391,7.188c2.373,3.301,3.555,7.246,3.555,11.816c0,6.348-2.236,11.66-6.719,15.977
		c-4.483,4.317-10.381,6.465-17.686,6.465c-7.314,0-13.213-2.147-17.695-6.483c-4.482-4.336-6.719-9.728-6.719-16.211
		c0-4.806,1.221-8.849,3.662-12.091C146.289,802.211,149.766,800.004,154.287,798.813L154.287,798.813z M149.531,817.621
		c0,2.598,0.615,5.098,1.846,7.539c1.23,2.422,3.057,4.297,5.488,5.625c2.422,1.328,5.029,1.992,7.832,1.992
		c4.346,0,7.93-1.388,10.762-4.181c2.832-2.813,4.248-6.366,4.248-10.664c0-4.395-1.455-8.008-4.375-10.879
		c-2.91-2.852-6.563-4.297-10.938-4.297c-4.277,0-7.832,1.426-10.645,4.258S149.531,813.383,149.531,817.621L149.531,817.621z
		 M152.461,783.402c0,3.516,1.133,6.366,3.389,8.594c2.256,2.227,5.186,3.34,8.799,3.34c3.506,0,6.377-1.113,8.613-3.32
		c2.246-2.207,3.359-4.901,3.359-8.104c0-3.34-1.152-6.133-3.457-8.418c-2.314-2.267-5.186-3.418-8.623-3.418
		c-3.467,0-6.348,1.112-8.643,3.34C153.613,777.641,152.461,780.297,152.461,783.402z M197.852,819.594l9.551-0.801
		c0.713,4.648,2.354,8.145,4.932,10.488c2.578,2.343,5.684,3.496,9.326,3.496c4.375,0,8.086-1.642,11.113-4.941
		c3.037-3.301,4.551-7.695,4.551-13.145c0-5.195-1.455-9.277-4.365-12.285c-2.92-2.988-6.738-4.492-11.455-4.492
		c-2.93,0-5.576,0.664-7.93,1.992c-2.363,1.328-4.219,3.065-5.566,5.176l-8.535-1.113l7.178-38.047h36.846v8.691h-29.57
		l-3.994,19.901c4.443-3.086,9.111-4.647,14.004-4.647c6.465,0,11.924,2.246,16.377,6.737c4.443,4.474,6.67,10.234,6.67,17.285
		c0,6.699-1.953,12.5-5.869,17.383c-4.746,5.996-11.23,8.984-19.453,8.984c-6.738,0-12.246-1.875-16.504-5.645
		C200.889,830.824,198.457,825.824,197.852,819.594L197.852,819.594z M273.174,859.574h-20.068v-7.539h10.967v-79.609h-10.967v-7.52
		h20.068V859.574L273.174,859.574z"/>
</g>
<g>
	<path d="M275.986,440.673V255.78h55.87L365.4,381.903l33.164-126.123h55.995v184.893h-34.678V295.136l-36.699,145.537h-35.946
		l-36.572-145.537v145.537H275.986L275.986,440.673z M608.174,346.337l-34.932,6.309c-1.183-6.982-3.849-12.236-8.008-15.771
		c-4.16-3.525-9.57-5.293-16.211-5.293c-8.828,0-15.869,3.047-21.123,9.141c-5.254,6.104-7.881,16.299-7.881,30.586
		c0,15.889,2.666,27.119,8.008,33.672c5.342,6.563,12.51,9.844,21.504,9.844c6.729,0,12.236-1.914,16.522-5.742
		c4.287-3.828,7.314-10.4,9.082-19.736l34.806,5.928c-3.613,15.977-10.558,28.037-20.812,36.191s-24.004,12.236-41.24,12.236
		c-19.59,0-35.204-6.183-46.854-18.535c-11.641-12.363-17.461-29.473-17.461-51.338c0-22.109,5.84-39.326,17.529-51.641
		c11.68-12.314,27.489-18.477,47.422-18.477c16.309,0,29.276,3.516,38.905,10.527C597.051,321.259,603.975,331.962,608.174,346.337
		L608.174,346.337z"/>
</g>
<g>
	<path d="M853.477,99.882v7.588h-42.5c-0.067-1.904,0.244-3.73,0.918-5.479c1.084-2.9,2.813-5.752,5.195-8.555
		c2.383-2.813,5.83-6.055,10.332-9.746c6.992-5.732,11.709-10.264,14.17-13.613c2.451-3.35,3.683-6.514,3.683-9.502
		c0-3.125-1.113-5.771-3.351-7.92c-2.246-2.148-5.156-3.223-8.76-3.223c-3.799,0-6.836,1.143-9.121,3.428
		c-2.275,2.275-3.438,5.439-3.467,9.473l-8.115-0.84c0.557-6.045,2.646-10.664,6.279-13.838c3.623-3.174,8.486-4.756,14.6-4.756
		c6.172,0,11.055,1.709,14.658,5.127c3.594,3.428,5.391,7.666,5.391,12.725c0,2.578-0.526,5.107-1.571,7.588
		c-1.056,2.49-2.804,5.107-5.244,7.852c-2.441,2.754-6.504,6.523-12.179,11.318c-4.735,3.975-7.772,6.68-9.12,8.096
		c-1.349,1.416-2.461,2.842-3.341,4.277H853.477L853.477,99.882z M824.131,162.44c-3.271-1.201-5.703-2.91-7.285-5.137
		c-1.571-2.217-2.362-4.883-2.362-7.979c0-4.678,1.68-8.613,5.039-11.807c3.368-3.184,7.842-4.775,13.428-4.775
		c5.615,0,10.137,1.631,13.555,4.893c3.418,3.262,5.137,7.227,5.137,11.904c0,2.988-0.791,5.586-2.354,7.793
		c-1.563,2.207-3.937,3.906-7.129,5.107c3.955,1.289,6.953,3.359,9.014,6.23c2.07,2.861,3.096,6.289,3.096,10.264
		c0,5.498-1.942,10.117-5.829,13.857c-3.896,3.75-9.015,5.615-15.361,5.615c-6.338,0-11.455-1.875-15.353-5.635
		c-3.887-3.76-5.83-8.447-5.83-14.063c0-4.18,1.056-7.676,3.185-10.498C817.197,165.39,820.215,163.466,824.131,162.44
		L824.131,162.44z M820.01,178.759c0,2.256,0.527,4.434,1.603,6.533c1.063,2.109,2.655,3.74,4.756,4.893
		c2.081,1.146,4.421,1.74,6.797,1.729c3.779,0,6.895-1.211,9.346-3.633c2.461-2.432,3.691-5.518,3.691-9.258
		c0-3.799-1.271-6.943-3.799-9.434c-2.529-2.48-5.693-3.73-9.502-3.73c-3.712,0-6.787,1.23-9.229,3.691
		C821.229,172.001,820.01,175.077,820.01,178.759L820.01,178.759z M822.549,149.062c0,3.037,0.986,5.527,2.939,7.451
		c1.963,1.934,4.502,2.9,7.637,2.9c3.037,0,5.537-0.957,7.48-2.871c1.942-1.914,2.92-4.268,2.92-7.041
		c0-2.9-1.006-5.332-3.009-7.305c-2.002-1.973-4.502-2.959-7.479-2.959c-3.018,0-5.518,0.957-7.5,2.891
		C823.545,144.062,822.549,146.366,822.549,149.062L822.549,149.062z M791.748,287.147h-7.891v-50.313
		c-1.904,1.807-4.396,3.623-7.48,5.439c-3.086,1.807-5.859,3.174-8.311,4.072v-7.627c4.414-2.08,8.271-4.59,11.582-7.549
		c3.301-2.949,5.645-5.82,7.012-8.594h5.088V287.147L791.748,287.147z M824.121,252.274c-3.271-1.201-5.703-2.91-7.285-5.137
		c-1.572-2.217-2.363-4.883-2.363-7.979c0-4.678,1.681-8.613,5.039-11.807c3.369-3.184,7.842-4.775,13.429-4.775
		c5.614,0,10.137,1.631,13.555,4.893c3.418,3.262,5.137,7.227,5.137,11.904c0,2.988-0.791,5.586-2.354,7.793
		c-1.563,2.207-3.937,3.906-7.129,5.107c3.954,1.289,6.952,3.359,9.014,6.23c2.07,2.861,3.096,6.289,3.096,10.264
		c0,5.498-1.942,10.117-5.83,13.857c-3.896,3.75-9.014,5.615-15.36,5.615c-6.339,0-11.455-1.875-15.353-5.635
		c-3.887-3.76-5.83-8.447-5.83-14.063c0-4.18,1.056-7.676,3.185-10.498C817.188,255.224,820.205,253.3,824.121,252.274
		L824.121,252.274z M820,268.593c0,2.256,0.527,4.434,1.602,6.533c1.064,2.109,2.656,3.74,4.757,4.893
		c2.081,1.146,4.421,1.74,6.797,1.729c3.778,0,6.895-1.211,9.346-3.633c2.461-2.432,3.691-5.518,3.691-9.258
		c0-3.799-1.271-6.943-3.8-9.434c-2.528-2.48-5.692-3.73-9.502-3.73c-3.711,0-6.787,1.23-9.229,3.691
		C821.221,261.835,820,264.911,820,268.593L820,268.593z M822.539,238.896c0,3.037,0.986,5.527,2.939,7.451
		c1.963,1.934,4.502,2.9,7.637,2.9c3.037,0,5.537-0.957,7.479-2.871c1.943-1.914,2.92-4.268,2.92-7.041
		c0-2.9-1.006-5.332-3.008-7.305c-2.002-1.973-4.502-2.959-7.479-2.959c-3.019,0-5.519,0.957-7.5,2.891
		C823.535,233.896,822.539,236.2,822.539,238.896L822.539,238.896z M762.051,360.019l7.9-1.055c0.908,4.473,2.451,7.695,4.629,9.668
		c2.178,1.973,4.834,2.959,7.959,2.959c3.711,0,6.855-1.279,9.414-3.857c2.559-2.568,3.838-5.762,3.838-9.561
		c0-3.623-1.191-6.621-3.555-8.975c-2.373-2.354-5.381-3.525-9.043-3.525c-1.484,0-3.34,0.293-5.566,0.879l0.879-6.934
		c0.527,0.059,0.947,0.088,1.271,0.088c3.358,0,6.387-0.879,9.082-2.637c2.686-1.748,4.032-4.453,4.032-8.115
		c0-2.891-0.977-5.293-2.938-7.188c-1.953-1.904-4.492-2.852-7.588-2.852c-3.066,0-5.625,0.957-7.676,2.891
		c-2.052,1.934-3.359,4.824-3.945,8.691l-7.9-1.406c0.967-5.293,3.164-9.395,6.582-12.305s7.676-4.365,12.765-4.365
		c3.506,0,6.737,0.752,9.696,2.256c2.949,1.504,5.215,3.564,6.777,6.162c1.563,2.607,2.344,5.371,2.344,8.291
		c0,2.783-0.742,5.313-2.236,7.588c-1.493,2.285-3.7,4.102-6.62,5.439c3.799,0.879,6.758,2.705,8.856,5.469
		c2.109,2.764,3.164,6.221,3.164,10.371c0,5.615-2.051,10.371-6.143,14.277c-4.103,3.906-9.277,5.859-15.527,5.859
		c-5.646,0-10.332-1.68-14.063-5.049C764.707,369.726,762.578,365.37,762.051,360.019L762.051,360.019z M853.467,369.403v7.588
		h-42.5c-0.067-1.904,0.244-3.73,0.918-5.479c1.084-2.9,2.813-5.752,5.195-8.555c2.383-2.813,5.83-6.055,10.332-9.746
		c6.992-5.732,11.709-10.264,14.17-13.613c2.451-3.35,3.682-6.514,3.682-9.502c0-3.125-1.112-5.771-3.35-7.92
		c-2.246-2.148-5.156-3.223-8.76-3.223c-3.799,0-6.836,1.143-9.121,3.428c-2.275,2.275-3.438,5.439-3.467,9.473l-8.115-0.84
		c0.557-6.045,2.646-10.664,6.279-13.838c3.623-3.174,8.485-4.756,14.6-4.756c6.172,0,11.055,1.709,14.658,5.127
		c3.594,3.428,5.391,7.666,5.391,12.725c0,2.578-0.527,5.107-1.572,7.588c-1.055,2.49-2.803,5.107-5.244,7.852
		c-2.44,2.754-6.504,6.523-12.178,11.318c-4.735,3.975-7.772,6.68-9.121,8.096c-1.348,1.416-2.461,2.842-3.34,4.277H853.467
		L853.467,369.403z M762.051,449.853l7.9-1.055c0.908,4.468,2.451,7.69,4.629,9.663s4.834,2.969,7.959,2.969
		c3.711,0,6.855-1.289,9.414-3.867c2.559-2.559,3.838-5.757,3.838-9.556c0-3.623-1.191-6.621-3.555-8.975
		c-2.373-2.354-5.381-3.525-9.043-3.525c-1.484,0-3.34,0.293-5.566,0.879l0.879-6.934c0.527,0.059,0.947,0.088,1.271,0.088
		c3.358,0,6.387-0.879,9.082-2.637c2.686-1.748,4.032-4.453,4.032-8.115c0-2.891-0.977-5.293-2.938-7.188
		c-1.953-1.903-4.492-2.852-7.588-2.852c-3.066,0-5.625,0.957-7.676,2.891c-2.052,1.935-3.359,4.824-3.945,8.691l-7.9-1.406
		c0.967-5.293,3.164-9.395,6.582-12.305s7.676-4.365,12.765-4.365c3.506,0,6.737,0.752,9.696,2.256
		c2.949,1.504,5.215,3.564,6.777,6.162c1.563,2.607,2.344,5.371,2.344,8.291c0,2.783-0.742,5.313-2.236,7.588
		c-1.493,2.285-3.7,4.103-6.62,5.439c3.799,0.879,6.758,2.705,8.856,5.469c2.109,2.764,3.164,6.221,3.164,10.371
		c0,5.61-2.051,10.376-6.143,14.282c-4.103,3.906-9.277,5.858-15.527,5.858c-5.646,0-10.332-1.68-14.063-5.059
		C764.707,459.555,762.578,455.199,762.051,449.853L762.051,449.853z M853.467,459.242v7.578h-42.5
		c-0.067-1.896,0.244-3.73,0.918-5.47c1.084-2.909,2.813-5.762,5.195-8.555c2.383-2.816,5.83-6.06,10.332-9.751
		c6.992-5.731,11.709-10.264,14.17-13.613c2.451-3.35,3.682-6.514,3.682-9.502c0-3.125-1.112-5.771-3.35-7.92
		c-2.246-2.147-5.156-3.223-8.76-3.223c-3.799,0-6.836,1.143-9.121,3.428c-2.275,2.275-3.438,5.439-3.467,9.473l-8.115-0.84
		c0.557-6.045,2.646-10.664,6.279-13.838c3.623-3.174,8.485-4.756,14.6-4.756c6.172,0,11.055,1.709,14.658,5.127
		c3.594,3.428,5.391,7.666,5.391,12.726c0,2.577-0.527,5.106-1.572,7.588c-1.055,2.489-2.803,5.106-5.244,7.852
		c-2.44,2.754-6.504,6.523-12.178,11.318c-4.735,3.975-7.772,6.675-9.121,8.101c-1.348,1.406-2.461,2.832-3.34,4.277H853.467
		L853.467,459.242z M791.748,556.664h-7.891v-50.313c-1.904,1.816-4.396,3.634-7.48,5.449c-3.086,1.797-5.859,3.164-8.311,4.063
		v-7.617c4.414-2.09,8.271-4.59,11.582-7.559c3.301-2.949,5.645-5.82,7.012-8.595h5.088V556.664L791.748,556.664z M824.121,521.801
		c-3.271-1.211-5.703-2.91-7.285-5.137c-1.572-2.227-2.363-4.883-2.363-7.988c0-4.668,1.681-8.613,5.039-11.797
		c3.369-3.184,7.842-4.785,13.429-4.785c5.614,0,10.137,1.642,13.555,4.902s5.137,7.227,5.137,11.895
		c0,2.988-0.791,5.586-2.354,7.793c-1.563,2.207-3.937,3.906-7.129,5.117c3.954,1.289,6.952,3.359,9.014,6.23
		c2.07,2.852,3.096,6.289,3.096,10.254c0,5.508-1.942,10.117-5.83,13.867c-3.896,3.75-9.014,5.604-15.36,5.604
		c-6.339,0-11.455-1.875-15.353-5.625c-3.887-3.77-5.83-8.457-5.83-14.063c0-4.181,1.056-7.677,3.185-10.509
		C817.188,524.75,820.205,522.816,824.121,521.801z M820,538.109c0,2.266,0.527,4.434,1.602,6.543
		c1.064,2.108,2.656,3.729,4.757,4.883c2.08,1.148,4.42,1.746,6.797,1.738c3.778,0,6.895-1.211,9.346-3.634
		c2.461-2.44,3.691-5.526,3.691-9.258c0-3.809-1.271-6.953-3.8-9.434c-2.528-2.481-5.692-3.73-9.502-3.73
		c-3.711,0-6.787,1.23-9.229,3.691C821.221,531.352,820,534.438,820,538.109L820,538.109z M822.539,508.422
		c0,3.027,0.986,5.527,2.939,7.441c1.963,1.934,4.502,2.91,7.637,2.91c3.037,0,5.537-0.957,7.479-2.871
		c1.943-1.914,2.92-4.277,2.92-7.052c0-2.891-1.006-5.332-3.008-7.305s-4.502-2.949-7.479-2.949c-3.019,0-5.519,0.957-7.5,2.892
		C823.535,503.422,822.539,505.727,822.539,508.422L822.539,508.422z M811.982,629.652l8.291-0.703
		c0.614,4.043,2.041,7.069,4.276,9.102c2.236,2.032,4.933,3.047,8.097,3.047c3.799,0,7.012-1.426,9.647-4.297
		c2.627-2.852,3.945-6.66,3.945-11.406c0-4.491-1.271-8.047-3.799-10.645c-2.529-2.617-5.841-3.906-9.933-3.906
		c-2.539,0-4.844,0.566-6.885,1.719c-2.051,1.173-3.662,2.656-4.824,4.513l-7.412-0.978l6.222-33.026h31.981v7.539h-25.664
		l-3.467,17.284c3.867-2.676,7.91-4.022,12.158-4.022c5.615,0,10.352,1.934,14.209,5.82c3.856,3.905,5.791,8.905,5.791,15
		c0,5.819-1.699,10.858-5.088,15.098c-4.121,5.215-9.756,7.813-16.885,7.813c-5.851,0-10.625-1.641-14.326-4.922
		C814.619,639.418,812.51,635.063,811.982,629.652L811.982,629.652z"/>
</g>
</svg>
