<?xml version="1.0" encoding="utf-8"?>
<!-- Generator: Adobe Illustrator 16.2.0, SVG Export Plug-In . SVG Version: 6.00 Build 0)  -->
<!DOCTYPE svg PUBLIC "-//W3C//DTD SVG 1.1//EN" "http://www.w3.org/Graphics/SVG/1.1/DTD/svg11.dtd">
<svg version="1.1" id="Layer_1" xmlns="http://www.w3.org/2000/svg" xmlns:xlink="http://www.w3.org/1999/xlink" x="0px" y="0px"
	 width="900px" height="900px" viewBox="0 0 900 900" enable-background="new 0 0 900 900" xml:space="preserve">
<path d="M85.848,154.257H72.01V66.073c-3.34,3.184-7.705,6.357-13.115,9.531c-5.4,3.184-10.264,5.566-14.561,7.158V69.384
	c7.734-3.643,14.502-8.047,20.293-13.223c5.791-5.176,9.893-10.205,12.305-15.068h8.916V154.257z M161.727,154.257h-13.838V66.073
	c-3.34,3.184-7.705,6.357-13.115,9.531c-5.4,3.184-10.264,5.566-14.561,7.158V69.384c7.734-3.643,14.502-8.047,20.293-13.223
	c5.791-5.176,9.893-10.205,12.305-15.068h8.916V154.257z M268.973,69.149l-13.76,1.074c-1.23-5.43-2.969-9.375-5.225-11.836
	c-3.75-3.945-8.359-5.918-13.838-5.918c-4.414,0-8.281,1.23-11.611,3.691c-4.355,3.174-7.793,7.813-10.303,13.916
	c-2.51,6.094-3.818,14.785-3.926,26.055c3.33-5.068,7.412-8.838,12.227-11.299s9.863-3.691,15.146-3.691
	c9.229,0,17.08,3.398,23.564,10.186c6.484,6.797,9.727,15.576,9.727,26.338c0,7.07-1.523,13.643-4.58,19.717
	c-3.047,6.074-7.236,10.723-12.568,13.955c-5.332,3.223-11.377,4.844-18.145,4.844c-11.533,0-20.938-4.238-28.213-12.725
	c-7.275-8.487-10.918-22.461-10.918-41.943c0-21.777,4.023-37.617,12.07-47.51c7.021-8.613,16.475-12.91,28.369-12.91
	c8.867,0,16.133,2.48,21.797,7.451S267.85,60.39,268.973,69.149L268.973,69.149z M212.469,117.743c0,4.766,1.006,9.326,3.037,13.682
	c2.021,4.355,4.854,7.676,8.496,9.951c3.633,2.285,7.451,3.428,11.455,3.428c5.84,0,10.859-2.363,15.068-7.08
	c4.199-4.707,6.299-11.113,6.299-19.219c0-7.783-2.07-13.926-6.221-18.408c-4.16-4.482-9.385-6.729-15.684-6.729
	c-6.26,0-11.563,2.246-15.918,6.729S212.469,110.458,212.469,117.743L212.469,117.743z M165.564,653.168v-74.102h9.805v65.352
	h36.494v8.75H165.564z M222.43,589.535v-10.469h9.102v10.469H222.43z M222.43,653.168v-53.691h9.102v53.691H222.43z
	 M260.291,653.168l-20.42-53.691h9.6l11.523,32.148c1.25,3.477,2.393,7.09,3.438,10.82c0.811-2.832,1.934-6.23,3.389-10.215
	l11.924-32.755h9.355l-20.322,53.691L260.291,653.168L260.291,653.168z M333.885,635.883l9.396,1.152
	c-1.484,5.488-4.229,9.766-8.232,12.793c-4.014,3.027-9.141,4.551-15.371,4.551c-7.852,0-14.072-2.422-18.672-7.266
	c-4.6-4.824-6.904-11.603-6.904-20.332c0-9.023,2.324-16.035,6.973-21.035c4.658-4.98,10.684-7.48,18.096-7.48
	c7.178,0,13.047,2.441,17.598,7.345c4.541,4.883,6.816,11.758,6.816,20.604c0,0.547-0.01,1.349-0.049,2.441h-40.029
	c0.332,5.897,2.002,10.41,5,13.535c2.998,3.145,6.738,4.707,11.221,4.707c3.341,0,6.183-0.88,8.546-2.638
	C330.633,642.523,332.498,639.711,333.885,635.883L333.885,635.883z M304.012,621.176h29.971c-0.41-4.531-1.554-7.91-3.438-10.176
	c-2.899-3.496-6.66-5.254-11.27-5.254c-4.181,0-7.695,1.406-10.537,4.199C305.887,612.738,304.314,616.488,304.012,621.176
	L304.012,621.176z M354.598,653.168v-53.691h8.193v8.146c2.09-3.809,4.014-6.309,5.781-7.539c1.776-1.211,3.721-1.815,5.84-1.815
	c3.065,0,6.182,0.977,9.354,2.93l-3.135,8.457c-2.227-1.328-4.453-1.974-6.67-1.974c-1.992,0-3.779,0.586-5.361,1.798
	c-1.582,1.19-2.715,2.852-3.389,4.961c-1.006,3.241-1.514,6.776-1.514,10.625v28.104L354.598,653.168L354.598,653.168z
	 M389.178,653.168v-53.691h8.136v7.539c1.688-2.637,3.926-4.745,6.719-6.348c2.803-1.602,5.985-2.402,9.561-2.402
	c3.976,0,7.236,0.841,9.775,2.48c2.549,1.66,4.336,3.965,5.381,6.934c4.248-6.27,9.775-9.414,16.582-9.414
	c5.322,0,9.414,1.484,12.285,4.435c2.86,2.949,4.297,7.479,4.297,13.613v36.854h-9.053V619.34c0-3.633-0.293-6.25-0.879-7.852
	c-0.597-1.603-1.66-2.892-3.214-3.867c-1.553-0.977-3.368-1.465-5.459-1.465c-3.77,0-6.903,1.25-9.403,3.77
	c-2.49,2.5-3.74,6.523-3.74,12.051v31.191h-9.092v-34.883c0-4.043-0.742-7.07-2.228-9.103c-1.483-2.012-3.905-3.026-7.274-3.026
	c-2.568,0-4.933,0.684-7.109,2.031c-2.168,1.348-3.74,3.301-4.727,5.897c-0.978,2.599-1.466,6.349-1.466,11.23v27.852
	L389.178,653.168L389.178,653.168z M472.02,626.332c0-9.941,2.765-17.305,8.291-22.09c4.609-3.984,10.244-5.978,16.886-5.978
	c7.373,0,13.407,2.422,18.086,7.267c4.688,4.823,7.03,11.504,7.03,20.039c0,6.895-1.034,12.344-3.104,16.289
	c-2.08,3.965-5.088,7.051-9.053,9.237c-3.955,2.188-8.281,3.281-12.959,3.281c-7.521,0-13.595-2.402-18.224-7.227
	C474.334,642.328,472.02,635.395,472.02,626.332L472.02,626.332z M481.365,626.332c0,6.875,1.504,12.012,4.502,15.43
	s6.776,5.138,11.328,5.138c4.512,0,8.271-1.72,11.27-5.156c2.999-3.438,4.492-8.672,4.492-15.724c0-6.641-1.504-11.659-4.521-15.077
	c-3.018-3.438-6.768-5.138-11.239-5.138c-4.552,0-8.33,1.699-11.328,5.099C482.869,614.32,481.365,619.457,481.365,626.332z
	 M532.869,653.168v-53.691h8.193v8.146c2.09-3.809,4.014-6.309,5.78-7.539c1.777-1.211,3.722-1.815,5.84-1.815
	c3.066,0,6.183,0.977,9.355,2.93l-3.135,8.457c-2.228-1.328-4.453-1.974-6.67-1.974c-1.992,0-3.779,0.586-5.361,1.798
	c-1.582,1.19-2.715,2.852-3.389,4.961c-1.007,3.241-1.515,6.776-1.515,10.625v28.104L532.869,653.168L532.869,653.168z
	 M567.498,589.535v-10.469h9.102v10.469H567.498z M567.498,653.168v-53.691h9.102v53.691H567.498z M625.623,653.168v-7.891
	c-4.18,6.073-9.854,9.102-17.031,9.102c-3.174,0-6.123-0.604-8.877-1.815c-2.744-1.212-4.785-2.734-6.113-4.591
	c-1.327-1.836-2.266-4.082-2.803-6.737c-0.371-1.777-0.557-4.609-0.557-8.496v-33.263h9.102v29.785c0,4.746,0.187,7.949,0.558,9.59
	c0.565,2.402,1.776,4.277,3.633,5.646c1.855,1.368,4.149,2.051,6.875,2.051c2.733,0,5.293-0.703,7.686-2.108
	c2.394-1.388,4.082-3.302,5.078-5.703c0.996-2.402,1.494-5.898,1.494-10.488v-28.77h9.092v53.69L625.623,653.168L625.623,653.168z
	 M648.025,653.168v-53.691h8.135v7.539c1.688-2.637,3.926-4.745,6.719-6.348c2.803-1.602,5.986-2.402,9.562-2.402
	c3.975,0,7.235,0.841,9.774,2.48c2.549,1.66,4.336,3.965,5.381,6.934c4.248-6.27,9.775-9.414,16.582-9.414
	c5.322,0,9.414,1.484,12.285,4.435c2.861,2.949,4.297,7.479,4.297,13.613v36.854h-9.053V619.34c0-3.633-0.293-6.25-0.879-7.852
	c-0.596-1.603-1.66-2.892-3.213-3.867c-1.554-0.977-3.369-1.465-5.459-1.465c-3.771,0-6.904,1.25-9.404,3.77
	c-2.49,2.5-3.74,6.523-3.74,12.051v31.191h-9.092v-34.883c0-4.043-0.742-7.07-2.227-9.103c-1.484-2.012-3.906-3.026-7.275-3.026
	c-2.568,0-4.932,0.684-7.109,2.031c-2.168,1.348-3.739,3.301-4.727,5.897c-0.977,2.599-1.465,6.349-1.465,11.23v27.852
	L648.025,653.168L648.025,653.168z"/>
<g>
	<path d="M56.678,859.574v-94.668h20.068v7.52H65.779v79.609h10.967v7.539H56.678L56.678,859.574z M130.525,830.258v8.75H81.551
		c-0.074-2.159,0.288-4.312,1.064-6.328c1.24-3.34,3.242-6.621,5.986-9.844c2.744-3.242,6.709-6.992,11.904-11.229
		c8.047-6.603,13.496-11.837,16.328-15.685c2.822-3.867,4.238-7.52,4.238-10.957c0-3.594-1.289-6.641-3.867-9.121
		c-2.578-2.479-5.938-3.711-10.078-3.711c-4.385,0-7.891,1.31-10.518,3.945c-2.627,2.617-3.955,6.27-3.994,10.918l-9.346-0.957
		c0.635-6.973,3.047-12.305,7.227-15.957c4.18-3.652,9.785-5.488,16.836-5.488c7.109,0,12.734,1.974,16.875,5.918
		c4.15,3.945,6.221,8.828,6.221,14.669c0,2.948-0.605,5.879-1.816,8.729c-1.221,2.871-3.232,5.879-6.045,9.063
		c-2.813,3.163-7.49,7.5-14.023,13.026c-5.459,4.59-8.965,7.695-10.518,9.336c-1.553,1.621-2.832,3.281-3.838,4.922H130.525
		L130.525,830.258z M141.648,821.859l8.74-0.802c0.742,4.121,2.158,7.091,4.248,8.945c2.09,1.855,4.766,2.773,8.037,2.773
		c2.793,0,5.244-0.625,7.354-1.914c2.109-1.271,3.828-2.988,5.176-5.138c1.348-2.129,2.48-5.02,3.389-8.651
		c0.91-3.642,1.369-7.38,1.367-11.133c0-0.392-0.02-0.996-0.049-1.816c-1.826,2.891-4.307,5.254-7.461,7.051
		c-3.111,1.794-6.643,2.73-10.234,2.715c-6.133,0-11.318-2.227-15.566-6.68s-6.367-10.313-6.367-17.598
		c0-7.5,2.217-13.556,6.65-18.146c4.424-4.569,9.98-6.875,16.65-6.875c4.814,0,9.229,1.31,13.213,3.906
		c3.994,2.598,7.031,6.289,9.102,11.094c2.071,4.806,3.105,11.738,3.105,20.84c0,9.474-1.025,17.013-3.076,22.617
		c-2.061,5.625-5.117,9.883-9.18,12.813c-4.063,2.93-8.818,4.395-14.277,4.395c-5.791,0-10.527-1.602-14.199-4.823
		C144.598,832.23,142.391,827.699,141.648,821.859L141.648,821.859z M178.895,789.164c0-5.215-1.387-9.375-4.17-12.441
		c-2.773-3.065-6.123-4.59-10.029-4.59c-4.043,0-7.568,1.66-10.566,4.961s-4.502,7.578-4.502,12.832
		c0,4.707,1.426,8.555,4.277,11.504c2.842,2.949,6.357,4.414,10.537,4.414c4.209,0,7.676-1.465,10.391-4.414
		C177.537,798.48,178.895,794.398,178.895,789.164z M197.898,819.438l9.102-1.211c1.045,5.156,2.822,8.867,5.332,11.152
		c2.51,2.266,5.566,3.398,9.17,3.398c4.277,0,7.891-1.466,10.84-4.435c2.949-2.969,4.424-6.641,4.424-11.016
		c0-4.181-1.357-7.638-4.092-10.353c-2.725-2.715-6.201-4.063-10.41-4.063c-1.719,0-3.857,0.332-6.416,1.016l1.006-7.987
		c0.487,0.054,0.976,0.087,1.465,0.098c3.877,0,7.363-1.016,10.469-3.027c3.096-2.03,4.648-5.137,4.648-9.354
		c0-3.34-1.133-6.094-3.389-8.281c-2.256-2.207-5.176-3.301-8.74-3.301c-3.545,0-6.494,1.113-8.848,3.34
		c-2.363,2.227-3.877,5.566-4.551,10.02l-9.102-1.62c1.113-6.095,3.643-10.82,7.588-14.181c3.936-3.358,8.838-5.039,14.707-5.039
		c4.043,0,7.764,0.879,11.172,2.617c3.398,1.738,6.006,4.103,7.803,7.09c1.807,3.009,2.705,6.191,2.705,9.552
		c0,3.202-0.859,6.112-2.578,8.75c-1.719,2.637-4.258,4.727-7.627,6.27c4.375,1.017,7.783,3.105,10.205,6.289
		c2.432,3.185,3.643,7.168,3.643,11.953c0,6.465-2.363,11.953-7.08,16.465c-4.717,4.492-10.684,6.738-17.891,6.738
		c-6.504,0-11.904-1.935-16.201-5.82C200.955,830.629,198.504,825.609,197.898,819.438L197.898,819.438z M273.172,859.574h-20.068
		v-7.539h10.967v-79.609h-10.967v-7.52h20.068V859.574L273.172,859.574z"/>
</g>
<g>
	<path d="M306.189,440.673V257.294h37.323v152.228h92.822v31.151H306.189z M499.52,440.673l-53.975-133.936h37.207l25.225,68.359
		l7.314,22.822c1.934-5.801,3.154-9.629,3.652-11.475c1.187-3.808,2.449-7.591,3.789-11.348l25.469-68.359h36.455l-53.224,133.936
		L499.52,440.673L499.52,440.673z"/>
</g>
<g>
	<path d="M853.484,99.882v7.588h-42.5c-0.068-1.904,0.244-3.73,0.918-5.479c1.084-2.9,2.813-5.752,5.194-8.555
		c2.384-2.813,5.83-6.055,10.332-9.746c6.992-5.732,11.709-10.264,14.17-13.613c2.451-3.35,3.683-6.514,3.683-9.502
		c0-3.125-1.113-5.771-3.351-7.92c-2.245-2.148-5.155-3.223-8.76-3.223c-3.799,0-6.836,1.143-9.121,3.428
		c-2.274,2.275-3.438,5.439-3.467,9.473l-8.115-0.84c0.558-6.045,2.646-10.664,6.279-13.838c3.623-3.174,8.486-4.756,14.6-4.756
		c6.173,0,11.056,1.709,14.658,5.127c3.594,3.428,5.392,7.666,5.392,12.725c0,2.578-0.527,5.107-1.572,7.588
		c-1.055,2.49-2.803,5.107-5.244,7.852c-2.441,2.754-6.504,6.523-12.178,11.318c-4.736,3.975-7.773,6.68-9.121,8.096
		s-2.461,2.842-3.34,4.277H853.484L853.484,99.882z M824.139,162.44c-3.271-1.201-5.703-2.91-7.285-5.137
		c-1.571-2.217-2.362-4.883-2.362-7.979c0-4.678,1.68-8.613,5.039-11.807c3.369-3.184,7.842-4.775,13.428-4.775
		c5.615,0,10.137,1.631,13.555,4.893c3.418,3.262,5.138,7.227,5.138,11.904c0,2.988-0.791,5.586-2.354,7.793
		c-1.563,2.207-3.936,3.906-7.129,5.107c3.955,1.289,6.953,3.359,9.014,6.23c2.07,2.861,3.097,6.289,3.097,10.264
		c0,5.498-1.943,10.117-5.83,13.857c-3.896,3.75-9.015,5.615-15.361,5.615c-6.338,0-11.455-1.875-15.352-5.635
		c-3.888-3.76-5.83-8.447-5.83-14.063c0-4.18,1.055-7.676,3.184-10.498C817.205,165.39,820.223,163.466,824.139,162.44
		L824.139,162.44z M820.018,178.759c0,2.256,0.527,4.434,1.603,6.533c1.063,2.109,2.656,3.74,4.756,4.893
		c2.082,1.146,4.421,1.74,6.797,1.729c3.779,0,6.896-1.211,9.346-3.633c2.462-2.432,3.691-5.518,3.691-9.258
		c0-3.799-1.271-6.943-3.799-9.434c-2.529-2.48-5.693-3.73-9.502-3.73c-3.711,0-6.787,1.23-9.229,3.691
		C821.238,172.001,820.018,175.077,820.018,178.759L820.018,178.759z M822.557,149.062c0,3.037,0.986,5.527,2.939,7.451
		c1.963,1.934,4.502,2.9,7.637,2.9c3.037,0,5.537-0.957,7.48-2.871c1.942-1.914,2.92-4.268,2.92-7.041
		c0-2.9-1.006-5.332-3.008-7.305c-2.002-1.973-4.502-2.959-7.48-2.959c-3.018,0-5.518,0.957-7.5,2.891
		C823.553,144.062,822.557,146.366,822.557,149.062L822.557,149.062z M791.756,287.147h-7.891v-50.313
		c-1.904,1.807-4.396,3.623-7.48,5.439c-3.086,1.807-5.858,3.174-8.311,4.072v-7.627c4.414-2.08,8.271-4.59,11.582-7.549
		c3.301-2.949,5.645-5.82,7.012-8.594h5.088V287.147L791.756,287.147z M824.129,252.274c-3.271-1.201-5.703-2.91-7.285-5.137
		c-1.571-2.217-2.362-4.883-2.362-7.979c0-4.678,1.68-8.613,5.039-11.807c3.368-3.184,7.842-4.775,13.428-4.775
		c5.615,0,10.137,1.631,13.555,4.893c3.418,3.262,5.137,7.227,5.137,11.904c0,2.988-0.791,5.586-2.354,7.793
		c-1.563,2.207-3.937,3.906-7.129,5.107c3.955,1.289,6.953,3.359,9.014,6.23c2.07,2.861,3.096,6.289,3.096,10.264
		c0,5.498-1.942,10.117-5.829,13.857c-3.896,3.75-9.015,5.615-15.361,5.615c-6.338,0-11.455-1.875-15.353-5.635
		c-3.887-3.76-5.83-8.447-5.83-14.063c0-4.18,1.056-7.676,3.185-10.498C817.195,255.224,820.213,253.3,824.129,252.274
		L824.129,252.274z M820.008,268.593c0,2.256,0.527,4.434,1.603,6.533c1.063,2.109,2.655,3.74,4.756,4.893
		c2.081,1.146,4.421,1.74,6.797,1.729c3.779,0,6.895-1.211,9.346-3.633c2.461-2.432,3.691-5.518,3.691-9.258
		c0-3.799-1.271-6.943-3.799-9.434c-2.529-2.48-5.693-3.73-9.502-3.73c-3.712,0-6.787,1.23-9.229,3.691
		C821.229,261.835,820.008,264.911,820.008,268.593L820.008,268.593z M822.547,238.896c0,3.037,0.986,5.527,2.939,7.451
		c1.963,1.934,4.502,2.9,7.637,2.9c3.037,0,5.537-0.957,7.48-2.871c1.942-1.914,2.92-4.268,2.92-7.041
		c0-2.9-1.006-5.332-3.009-7.305c-2.002-1.973-4.502-2.959-7.479-2.959c-3.018,0-5.518,0.957-7.5,2.891
		C823.543,233.896,822.547,236.2,822.547,238.896L822.547,238.896z M762.059,360.019l7.9-1.055c0.908,4.473,2.451,7.695,4.629,9.668
		c2.178,1.973,4.834,2.959,7.959,2.959c3.711,0,6.855-1.279,9.414-3.857c2.56-2.568,3.838-5.762,3.838-9.561
		c0-3.623-1.19-6.621-3.555-8.975c-2.373-2.354-5.381-3.525-9.043-3.525c-1.484,0-3.34,0.293-5.566,0.879l0.879-6.934
		c0.527,0.059,0.947,0.088,1.271,0.088c3.359,0,6.387-0.879,9.082-2.637c2.686-1.748,4.033-4.453,4.033-8.115
		c0-2.891-0.978-5.293-2.939-7.188c-1.953-1.904-4.492-2.852-7.588-2.852c-3.066,0-5.625,0.957-7.676,2.891
		c-2.052,1.934-3.359,4.824-3.945,8.691l-7.9-1.406c0.968-5.293,3.164-9.395,6.582-12.305s7.677-4.365,12.765-4.365
		c3.506,0,6.737,0.752,9.696,2.256c2.949,1.504,5.216,3.564,6.777,6.162c1.563,2.607,2.344,5.371,2.344,8.291
		c0,2.783-0.741,5.313-2.235,7.588c-1.494,2.285-3.701,4.102-6.621,5.439c3.799,0.879,6.758,2.705,8.856,5.469
		c2.109,2.764,3.164,6.221,3.164,10.371c0,5.615-2.051,10.371-6.143,14.277c-4.103,3.906-9.277,5.859-15.527,5.859
		c-5.645,0-10.332-1.68-14.063-5.049C764.715,369.726,762.586,365.37,762.059,360.019L762.059,360.019z M853.475,369.403v7.588
		h-42.5c-0.067-1.904,0.244-3.73,0.918-5.479c1.084-2.9,2.813-5.752,5.195-8.555c2.383-2.813,5.83-6.055,10.332-9.746
		c6.992-5.732,11.709-10.264,14.17-13.613c2.451-3.35,3.682-6.514,3.682-9.502c0-3.125-1.112-5.771-3.35-7.92
		c-2.246-2.148-5.156-3.223-8.76-3.223c-3.799,0-6.836,1.143-9.121,3.428c-2.275,2.275-3.438,5.439-3.467,9.473l-8.115-0.84
		c0.557-6.045,2.646-10.664,6.279-13.838c3.623-3.174,8.485-4.756,14.6-4.756c6.172,0,11.055,1.709,14.658,5.127
		c3.594,3.428,5.391,7.666,5.391,12.725c0,2.578-0.526,5.107-1.571,7.588c-1.056,2.49-2.804,5.107-5.244,7.852
		c-2.441,2.754-6.504,6.523-12.179,11.318c-4.735,3.975-7.772,6.68-9.12,8.096c-1.349,1.416-2.462,2.842-3.341,4.277H853.475z
		 M762.059,449.853l7.9-1.055c0.908,4.468,2.451,7.69,4.629,9.663s4.834,2.969,7.959,2.969c3.711,0,6.855-1.289,9.414-3.867
		c2.56-2.559,3.838-5.757,3.838-9.556c0-3.623-1.19-6.621-3.555-8.975c-2.373-2.354-5.381-3.525-9.043-3.525
		c-1.484,0-3.34,0.293-5.566,0.879l0.879-6.934c0.527,0.059,0.947,0.088,1.271,0.088c3.359,0,6.387-0.879,9.082-2.637
		c2.686-1.748,4.033-4.453,4.033-8.115c0-2.891-0.978-5.293-2.939-7.188c-1.953-1.903-4.492-2.852-7.588-2.852
		c-3.066,0-5.625,0.957-7.676,2.891c-2.052,1.935-3.359,4.824-3.945,8.691l-7.9-1.406c0.968-5.293,3.164-9.395,6.582-12.305
		s7.677-4.365,12.765-4.365c3.506,0,6.737,0.752,9.696,2.256c2.949,1.504,5.216,3.564,6.777,6.162
		c1.563,2.607,2.344,5.371,2.344,8.291c0,2.783-0.741,5.313-2.235,7.588c-1.494,2.285-3.701,4.103-6.621,5.439
		c3.799,0.879,6.758,2.705,8.856,5.469c2.109,2.764,3.164,6.221,3.164,10.371c0,5.61-2.051,10.376-6.143,14.282
		c-4.103,3.906-9.277,5.858-15.527,5.858c-5.645,0-10.332-1.68-14.063-5.059C764.715,459.555,762.586,455.199,762.059,449.853
		L762.059,449.853z M853.475,459.242v7.578h-42.5c-0.067-1.896,0.244-3.73,0.918-5.47c1.084-2.909,2.813-5.762,5.195-8.555
		c2.383-2.816,5.83-6.06,10.332-9.751c6.992-5.731,11.709-10.264,14.17-13.613c2.451-3.35,3.682-6.514,3.682-9.502
		c0-3.125-1.112-5.771-3.35-7.92c-2.246-2.147-5.156-3.223-8.76-3.223c-3.799,0-6.836,1.143-9.121,3.428
		c-2.275,2.275-3.438,5.439-3.467,9.473l-8.115-0.84c0.557-6.045,2.646-10.664,6.279-13.838c3.623-3.174,8.485-4.756,14.6-4.756
		c6.172,0,11.055,1.709,14.658,5.127c3.594,3.428,5.391,7.666,5.391,12.726c0,2.577-0.526,5.106-1.571,7.588
		c-1.056,2.489-2.804,5.106-5.244,7.852c-2.441,2.754-6.504,6.523-12.179,11.318c-4.735,3.975-7.772,6.675-9.12,8.101
		c-1.349,1.406-2.462,2.832-3.341,4.277H853.475z M791.756,556.664h-7.891v-50.313c-1.904,1.816-4.396,3.634-7.48,5.449
		c-3.086,1.797-5.858,3.164-8.311,4.063v-7.617c4.414-2.09,8.271-4.59,11.582-7.559c3.301-2.949,5.645-5.82,7.012-8.595h5.088
		V556.664L791.756,556.664z M824.129,521.801c-3.271-1.211-5.703-2.91-7.285-5.137c-1.571-2.227-2.362-4.883-2.362-7.988
		c0-4.668,1.68-8.613,5.039-11.797c3.368-3.184,7.842-4.785,13.428-4.785c5.615,0,10.137,1.642,13.555,4.902
		s5.137,7.227,5.137,11.895c0,2.988-0.791,5.586-2.354,7.793c-1.563,2.207-3.937,3.906-7.129,5.117
		c3.955,1.289,6.953,3.359,9.014,6.23c2.07,2.852,3.096,6.289,3.096,10.254c0,5.508-1.942,10.117-5.829,13.867
		c-3.896,3.75-9.015,5.604-15.361,5.604c-6.338,0-11.455-1.875-15.353-5.625c-3.887-3.77-5.83-8.457-5.83-14.063
		c0-4.181,1.056-7.677,3.185-10.509C817.195,524.75,820.213,522.816,824.129,521.801z M820.008,538.109
		c0,2.266,0.527,4.434,1.603,6.543c1.063,2.108,2.655,3.729,4.756,4.883c2.081,1.148,4.42,1.746,6.797,1.738
		c3.779,0,6.895-1.211,9.346-3.634c2.461-2.44,3.691-5.526,3.691-9.258c0-3.809-1.271-6.953-3.799-9.434
		c-2.529-2.481-5.693-3.73-9.502-3.73c-3.712,0-6.787,1.23-9.229,3.691C821.229,531.352,820.008,534.438,820.008,538.109
		L820.008,538.109z M822.547,508.422c0,3.027,0.986,5.527,2.939,7.441c1.963,1.934,4.502,2.91,7.637,2.91
		c3.037,0,5.537-0.957,7.48-2.871c1.942-1.914,2.92-4.277,2.92-7.052c0-2.891-1.006-5.332-3.009-7.305
		c-2.002-1.973-4.502-2.949-7.479-2.949c-3.018,0-5.518,0.957-7.5,2.892C823.543,503.422,822.547,505.727,822.547,508.422
		L822.547,508.422z M852.957,597.934l-7.852,0.625c-0.703-3.104-1.689-5.352-2.979-6.758c-2.139-2.246-4.766-3.379-7.9-3.379
		c-2.51,0-4.717,0.703-6.62,2.109c-2.49,1.815-4.443,4.453-5.88,7.93c-1.436,3.496-2.178,8.438-2.235,14.883
		c1.903-2.891,4.229-5.059,6.973-6.444c2.754-1.406,5.635-2.109,8.643-2.109c5.265,0,9.746,1.934,13.447,5.801
		c3.701,3.888,5.547,8.888,5.547,15.039c0,4.023-0.869,7.773-2.606,11.25c-1.738,3.457-4.131,6.113-7.178,7.949
		c-3.037,1.854-6.484,2.772-10.353,2.772c-6.582,0-11.943-2.422-16.094-7.266c-4.16-4.844-6.23-12.813-6.23-23.926
		c0-12.422,2.295-21.465,6.886-27.109c4.004-4.922,9.403-7.363,16.19-7.363c5.06,0,9.199,1.406,12.433,4.259
		C850.379,589.027,852.313,592.934,852.957,597.934L852.957,597.934z M820.721,625.668c0,2.715,0.576,5.313,1.729,7.813
		c1.151,2.479,2.772,4.375,4.854,5.684c2.07,1.289,4.248,1.934,6.533,1.934c3.33,0,6.201-1.327,8.594-4.022
		c2.402-2.695,3.604-6.348,3.604-10.978c0-4.434-1.191-7.948-3.555-10.508c-2.373-2.559-5.353-3.828-8.955-3.828
		c-3.564,0-6.593,1.271-9.072,3.828C821.961,618.148,820.721,621.508,820.721,625.668L820.721,625.668z"/>
</g>
</svg>
