<?xml version="1.0" encoding="utf-8"?>
<!-- Generator: Adobe Illustrator 16.2.0, SVG Export Plug-In . SVG Version: 6.00 Build 0)  -->
<!DOCTYPE svg PUBLIC "-//W3C//DTD SVG 1.1//EN" "http://www.w3.org/Graphics/SVG/1.1/DTD/svg11.dtd">
<svg version="1.1" id="Layer_1" xmlns="http://www.w3.org/2000/svg" xmlns:xlink="http://www.w3.org/1999/xlink" x="0px" y="0px"
	 width="900px" height="900px" viewBox="0 0 900 900" enable-background="new 0 0 900 900" xml:space="preserve">
<path d="M85.691,154.257H71.854V66.073c-3.34,3.184-7.705,6.357-13.115,9.531c-5.4,3.184-10.264,5.566-14.561,7.158V69.384
	c7.734-3.643,14.502-8.047,20.293-13.223c5.791-5.176,9.893-10.205,12.305-15.068h8.916L85.691,154.257L85.691,154.257z
	 M161.57,154.257h-13.838V66.073c-3.34,3.184-7.705,6.357-13.115,9.531c-5.4,3.184-10.264,5.566-14.561,7.158V69.384
	c7.734-3.643,14.502-8.047,20.293-13.223c5.791-5.176,9.893-10.205,12.305-15.068h8.916V154.257L161.57,154.257z M197.938,56.308
	V43.007h72.959v10.771c-7.178,7.637-14.287,17.783-21.338,30.439c-7.051,12.656-12.49,25.684-16.338,39.053
	c-2.764,9.434-4.531,19.766-5.303,30.986h-14.219c0.146-8.867,1.895-19.58,5.225-32.139c3.33-12.559,8.105-24.658,14.336-36.328
	c6.23-11.65,12.852-21.484,19.873-29.482L197.938,56.308L197.938,56.308z M207.537,653.168v-65.352h-24.414v-8.75h58.74v8.75
	h-24.521v65.352H207.537L207.537,653.168z M276.033,635.883l9.395,1.152c-1.484,5.488-4.229,9.766-8.232,12.793
	c-4.014,3.027-9.141,4.551-15.371,4.551c-7.852,0-14.072-2.422-18.672-7.266c-4.6-4.824-6.904-11.603-6.904-20.332
	c0-9.023,2.324-16.035,6.973-21.035c4.658-4.98,10.684-7.48,18.096-7.48c7.178,0,13.047,2.441,17.598,7.345
	c4.541,4.883,6.816,11.758,6.816,20.604c0,0.547-0.01,1.349-0.049,2.441h-40.029c0.332,5.897,2.002,10.41,5,13.535
	c2.998,3.145,6.738,4.707,11.221,4.707c3.34,0,6.182-0.88,8.545-2.638C272.781,642.523,274.646,639.711,276.033,635.883
	L276.033,635.883z M246.16,621.176h29.971c-0.41-4.531-1.553-7.91-3.438-10.176c-2.9-3.496-6.66-5.254-11.27-5.254
	c-4.18,0-7.695,1.406-10.537,4.199C248.035,612.738,246.463,616.488,246.16,621.176L246.16,621.176z M296.854,653.168v-53.691h8.184
	v7.638c3.945-5.898,9.639-8.849,17.09-8.849c3.232,0,6.201,0.586,8.916,1.759c2.715,1.151,4.746,2.676,6.094,4.569
	c1.349,1.875,2.285,4.121,2.832,6.72c0.332,1.68,0.498,4.629,0.498,8.848v33.008h-9.092v-32.656c0-3.711-0.352-6.483-1.064-8.319
	c-0.702-1.836-1.963-3.302-3.76-4.396c-1.807-1.094-3.926-1.641-6.348-1.641c-3.877,0-7.217,1.229-10.029,3.69
	c-2.822,2.461-4.229,7.129-4.229,14.004v29.316H296.854L296.854,653.168z M354.422,653.168v-53.691h8.185v7.638
	c3.944-5.898,9.639-8.849,17.09-8.849c3.231,0,6.2,0.586,8.916,1.759c2.715,1.151,4.746,2.676,6.094,4.569
	c1.348,1.875,2.285,4.121,2.832,6.72c0.332,1.68,0.498,4.629,0.498,8.848v33.008h-9.092v-32.656c0-3.711-0.353-6.483-1.064-8.319
	c-0.703-1.836-1.963-3.302-3.76-4.396c-1.808-1.094-3.926-1.641-6.349-1.641c-3.877,0-7.217,1.229-10.028,3.69
	c-2.822,2.461-4.229,7.129-4.229,14.004v29.316H354.422L354.422,653.168z M448.748,635.883l9.395,1.152
	c-1.483,5.488-4.229,9.766-8.231,12.793c-4.015,3.027-9.142,4.551-15.371,4.551c-7.853,0-14.072-2.422-18.672-7.266
	c-4.601-4.824-6.904-11.603-6.904-20.332c0-9.023,2.324-16.035,6.973-21.035c4.658-4.98,10.685-7.48,18.097-7.48
	c7.178,0,13.047,2.441,17.598,7.345c4.541,4.883,6.816,11.758,6.816,20.604c0,0.547-0.011,1.349-0.049,2.441h-40.029
	c0.332,5.897,2.002,10.41,5,13.535c2.998,3.145,6.738,4.707,11.221,4.707c3.34,0,6.183-0.88,8.545-2.638
	C445.496,642.523,447.361,639.711,448.748,635.883L448.748,635.883z M418.875,621.176h29.971c-0.41-4.531-1.553-7.91-3.438-10.176
	c-2.9-3.496-6.66-5.254-11.271-5.254c-4.18,0-7.694,1.406-10.537,4.199C420.75,612.738,419.178,616.488,418.875,621.176
	L418.875,621.176z M465.926,637.133l8.994-1.406c0.508,3.613,1.914,6.367,4.229,8.281c2.305,1.935,5.526,2.892,9.678,2.892
	c4.18,0,7.274-0.859,9.297-2.56s3.037-3.69,3.037-5.996c0-2.051-0.898-3.672-2.687-4.844c-1.239-0.801-4.346-1.836-9.297-3.086
	c-6.67-1.68-11.299-3.146-13.877-4.375c-2.578-1.23-4.531-2.93-5.858-5.098c-1.339-2.168-2.003-4.57-2.003-7.207
	c0-2.384,0.548-4.609,1.65-6.642c1.076-2.018,2.607-3.756,4.473-5.078c1.416-1.055,3.341-1.934,5.781-2.655
	c2.441-0.723,5.068-1.095,7.861-1.095c4.209,0,7.91,0.605,11.094,1.816c3.184,1.229,5.537,2.871,7.051,4.94
	c1.515,2.07,2.56,4.845,3.136,8.302l-8.896,1.229c-0.4-2.772-1.572-4.922-3.516-6.483c-1.935-1.543-4.668-2.324-8.213-2.324
	c-4.181,0-7.158,0.703-8.945,2.07c-1.787,1.387-2.676,3.008-2.676,4.862c0,1.172,0.371,2.246,1.112,3.185
	c0.742,0.977,1.904,1.776,3.486,2.422c0.908,0.332,3.584,1.112,8.037,2.324c6.436,1.719,10.928,3.125,13.467,4.219
	c2.549,1.094,4.541,2.694,5.996,4.785c1.445,2.09,2.168,4.688,2.168,7.772c0,3.047-0.879,5.898-2.656,8.574
	c-1.768,2.676-4.315,4.746-7.655,6.211c-3.33,1.465-7.109,2.207-11.318,2.207c-6.973,0-12.295-1.445-15.947-4.355
	C469.266,647.133,466.941,642.836,465.926,637.133L465.926,637.133z M517.684,637.133l8.994-1.406
	c0.508,3.613,1.914,6.367,4.229,8.281c2.305,1.935,5.526,2.892,9.678,2.892c4.18,0,7.275-0.859,9.297-2.56
	c2.022-1.7,3.037-3.69,3.037-5.996c0-2.051-0.897-3.672-2.686-4.844c-1.24-0.801-4.347-1.836-9.298-3.086
	c-6.67-1.68-11.299-3.146-13.877-4.375c-2.577-1.23-4.53-2.93-5.858-5.098c-1.338-2.168-2.002-4.57-2.002-7.207
	c0-2.384,0.547-4.609,1.649-6.642c1.076-2.018,2.607-3.756,4.474-5.078c1.416-1.055,3.34-1.934,5.78-2.655
	c2.441-0.723,5.068-1.095,7.861-1.095c4.209,0,7.91,0.605,11.094,1.816c3.185,1.229,5.537,2.871,7.052,4.94
	c1.514,2.07,2.559,4.845,3.135,8.302l-8.896,1.229c-0.399-2.772-1.571-4.922-3.516-6.483c-1.934-1.543-4.668-2.324-8.213-2.324
	c-4.18,0-7.158,0.703-8.945,2.07c-1.787,1.387-2.676,3.008-2.676,4.862c0,1.172,0.371,2.246,1.113,3.185
	c0.741,0.977,1.903,1.776,3.485,2.422c0.908,0.332,3.584,1.112,8.037,2.324c6.437,1.719,10.928,3.125,13.467,4.219
	c2.55,1.094,4.541,2.694,5.996,4.785c1.445,2.09,2.168,4.688,2.168,7.772c0,3.047-0.879,5.898-2.655,8.574
	c-1.769,2.676-4.316,4.746-7.656,6.211c-3.33,1.465-7.109,2.207-11.318,2.207c-6.973,0-12.295-1.445-15.946-4.355
	C521.023,647.133,518.699,642.836,517.684,637.133L517.684,637.133z M573.133,589.535v-10.469h9.103v10.469H573.133z
	 M573.133,653.168v-53.691h9.103v53.691H573.133z M596.082,653.168v-53.691h8.184v7.638c3.945-5.898,9.64-8.849,17.091-8.849
	c3.231,0,6.2,0.586,8.916,1.759c2.715,1.151,4.745,2.676,6.094,4.569c1.348,1.875,2.285,4.121,2.832,6.72
	c0.332,1.68,0.498,4.629,0.498,8.848v33.008h-9.093v-32.656c0-3.711-0.352-6.483-1.063-8.319c-0.703-1.836-1.963-3.302-3.76-4.396
	c-1.808-1.094-3.927-1.641-6.349-1.641c-3.877,0-7.217,1.229-10.028,3.69c-2.822,2.461-4.229,7.129-4.229,14.004v29.316H596.082z
	 M690.398,635.883l9.395,1.152c-1.484,5.488-4.229,9.766-8.232,12.793c-4.014,3.027-9.141,4.551-15.37,4.551
	c-7.853,0-14.072-2.422-18.673-7.266c-4.6-4.824-6.903-11.603-6.903-20.332c0-9.023,2.324-16.035,6.973-21.035
	c4.658-4.98,10.685-7.48,18.097-7.48c7.178,0,13.047,2.441,17.598,7.345c4.541,4.883,6.815,11.758,6.815,20.604
	c0,0.547-0.01,1.349-0.049,2.441H660.02c0.332,5.897,2.002,10.41,5,13.535c2.998,3.145,6.737,4.707,11.221,4.707
	c3.34,0,6.182-0.88,8.545-2.638C687.146,642.523,689.012,639.711,690.398,635.883L690.398,635.883z M660.525,621.176h29.971
	c-0.41-4.531-1.553-7.91-3.438-10.176c-2.899-3.496-6.659-5.254-11.27-5.254c-4.18,0-7.695,1.406-10.537,4.199
	C662.4,612.738,660.828,616.488,660.525,621.176L660.525,621.176z"/>
<g>
	<path d="M56.512,859.574v-94.668H76.58v7.52H65.613v79.609H76.58v7.539H56.512L56.512,859.574z M130.359,830.258v8.75H81.385
		c-0.074-2.159,0.288-4.312,1.064-6.328c1.24-3.34,3.242-6.621,5.986-9.844c2.744-3.242,6.709-6.992,11.904-11.229
		c8.047-6.603,13.496-11.837,16.328-15.685c2.822-3.867,4.238-7.52,4.238-10.957c0-3.594-1.289-6.641-3.867-9.121
		c-2.578-2.479-5.938-3.711-10.078-3.711c-4.385,0-7.891,1.31-10.518,3.945c-2.627,2.617-3.955,6.27-3.994,10.918l-9.346-0.957
		c0.635-6.973,3.047-12.305,7.227-15.957c4.18-3.652,9.785-5.488,16.836-5.488c7.109,0,12.734,1.974,16.875,5.918
		c4.15,3.945,6.221,8.828,6.221,14.669c0,2.948-0.605,5.879-1.816,8.729c-1.221,2.871-3.232,5.879-6.045,9.063
		c-2.813,3.163-7.49,7.5-14.023,13.026c-5.459,4.59-8.965,7.695-10.518,9.336c-1.553,1.621-2.832,3.281-3.838,4.922H130.359
		L130.359,830.258z M141.482,821.859l8.74-0.802c0.742,4.121,2.158,7.091,4.248,8.945c2.09,1.855,4.766,2.773,8.037,2.773
		c2.793,0,5.244-0.625,7.354-1.914c2.109-1.271,3.828-2.988,5.176-5.138c1.348-2.129,2.48-5.02,3.389-8.651
		c0.91-3.642,1.369-7.38,1.367-11.133c0-0.392-0.02-0.996-0.049-1.816c-1.826,2.891-4.307,5.254-7.461,7.051
		c-3.111,1.794-6.643,2.73-10.234,2.715c-6.133,0-11.318-2.227-15.566-6.68s-6.367-10.313-6.367-17.598
		c0-7.5,2.217-13.556,6.65-18.146c4.424-4.569,9.98-6.875,16.65-6.875c4.814,0,9.229,1.31,13.213,3.906
		c3.994,2.598,7.031,6.289,9.102,11.094c2.071,4.806,3.105,11.738,3.105,20.84c0,9.474-1.025,17.013-3.076,22.617
		c-2.061,5.625-5.117,9.883-9.18,12.813c-4.063,2.93-8.818,4.395-14.277,4.395c-5.791,0-10.527-1.602-14.199-4.823
		C144.432,832.23,142.225,827.699,141.482,821.859L141.482,821.859z M178.729,789.164c0-5.215-1.387-9.375-4.17-12.441
		c-2.773-3.065-6.123-4.59-10.029-4.59c-4.043,0-7.568,1.66-10.566,4.961s-4.502,7.578-4.502,12.832
		c0,4.707,1.426,8.555,4.277,11.504c2.842,2.949,6.357,4.414,10.537,4.414c4.209,0,7.676-1.465,10.391-4.414
		C177.371,798.48,178.729,794.398,178.729,789.164z M226.844,839.008v-17.754h-32.139v-8.34l33.809-48.008h7.432v48.008h10.01v8.34
		h-10.01v17.754H226.844L226.844,839.008z M226.844,812.914v-33.398l-23.193,33.398H226.844z M273.006,859.574h-20.068v-7.539
		h10.967v-79.609h-10.967v-7.52h20.068V859.574L273.006,859.574z"/>
</g>
<g>
	<path d="M356.229,440.663V287.05h-54.862v-31.279H448.3v31.279h-54.735v153.613H356.229z M440.477,402.45l35.566-5.42
		c1.514,6.895,4.58,12.129,9.209,15.692c4.619,3.584,11.094,5.361,19.414,5.361c9.17,0,16.064-1.68,20.684-5.039
		c3.115-2.354,4.668-5.508,4.668-9.463c0-2.687-0.84-4.912-2.52-6.68c-1.768-1.68-5.723-3.242-11.855-4.668
		c-28.584-6.309-46.709-12.061-54.354-17.275c-10.596-7.236-15.889-17.285-15.889-30.146c0-11.602,4.58-21.357,13.739-29.258
		c9.17-7.9,23.379-11.855,42.627-11.855c18.33,0,31.953,2.988,40.869,8.955c8.906,5.967,15.049,14.795,18.408,26.484l-33.418,6.182
		c-1.436-5.215-4.141-9.209-8.135-11.982s-9.697-4.16-17.09-4.16c-9.336,0-16.017,1.299-20.06,3.906
		c-2.686,1.846-4.032,4.248-4.032,7.188c0,2.52,1.182,4.668,3.534,6.436c3.193,2.354,14.229,5.674,33.105,9.961
		s32.052,9.54,39.542,15.761c7.393,6.309,11.094,15.098,11.094,26.357c0,12.285-5.127,22.832-15.391,31.66
		c-10.254,8.828-25.431,13.242-45.527,13.242c-18.242,0-32.686-3.701-43.32-11.104C450.711,425.194,443.758,415.146,440.477,402.45
		L440.477,402.45z"/>
</g>
<g>
	<path d="M853.318,99.882v7.588h-42.5c-0.068-1.904,0.244-3.73,0.918-5.479c1.084-2.9,2.813-5.752,5.194-8.555
		c2.384-2.813,5.83-6.055,10.332-9.746c6.992-5.732,11.709-10.264,14.17-13.613c2.451-3.35,3.683-6.514,3.683-9.502
		c0-3.125-1.113-5.771-3.351-7.92c-2.245-2.148-5.155-3.223-8.76-3.223c-3.799,0-6.836,1.143-9.121,3.428
		c-2.274,2.275-3.438,5.439-3.467,9.473l-8.115-0.84c0.558-6.045,2.646-10.664,6.279-13.838c3.623-3.174,8.486-4.756,14.6-4.756
		c6.173,0,11.056,1.709,14.658,5.127c3.594,3.428,5.392,7.666,5.392,12.725c0,2.578-0.527,5.107-1.572,7.588
		c-1.055,2.49-2.803,5.107-5.244,7.852c-2.441,2.754-6.504,6.523-12.178,11.318c-4.736,3.975-7.773,6.68-9.121,8.096
		s-2.461,2.842-3.34,4.277H853.318L853.318,99.882z M823.973,162.44c-3.271-1.201-5.703-2.91-7.284-5.137
		c-1.572-2.217-2.363-4.883-2.363-7.979c0-4.678,1.68-8.613,5.039-11.807c3.369-3.184,7.842-4.775,13.428-4.775
		c5.615,0,10.137,1.631,13.555,4.893c3.418,3.262,5.138,7.227,5.138,11.904c0,2.988-0.791,5.586-2.354,7.793
		c-1.563,2.207-3.936,3.906-7.129,5.107c3.955,1.289,6.953,3.359,9.014,6.23c2.07,2.861,3.097,6.289,3.097,10.264
		c0,5.498-1.943,10.117-5.83,13.857c-3.896,3.75-9.015,5.615-15.361,5.615c-6.338,0-11.455-1.875-15.352-5.635
		c-3.888-3.76-5.83-8.447-5.83-14.063c0-4.18,1.055-7.676,3.184-10.498C817.039,165.39,820.057,163.466,823.973,162.44
		L823.973,162.44z M819.852,178.759c0,2.256,0.527,4.434,1.603,6.533c1.063,2.109,2.656,3.74,4.756,4.893
		c2.082,1.146,4.421,1.74,6.797,1.729c3.779,0,6.896-1.211,9.347-3.633c2.461-2.432,3.69-5.518,3.69-9.258
		c0-3.799-1.27-6.943-3.799-9.434c-2.529-2.48-5.693-3.73-9.502-3.73c-3.711,0-6.787,1.23-9.229,3.691
		C821.072,172.001,819.852,175.077,819.852,178.759L819.852,178.759z M822.391,149.062c0,3.037,0.986,5.527,2.939,7.451
		c1.963,1.934,4.502,2.9,7.637,2.9c3.037,0,5.537-0.957,7.48-2.871c1.942-1.914,2.92-4.268,2.92-7.041
		c0-2.9-1.006-5.332-3.008-7.305c-2.002-1.973-4.502-2.959-7.48-2.959c-3.018,0-5.518,0.957-7.5,2.891
		C823.387,144.062,822.391,146.366,822.391,149.062L822.391,149.062z M791.59,287.147h-7.891v-50.313
		c-1.904,1.807-4.396,3.623-7.48,5.439c-3.086,1.807-5.858,3.174-8.311,4.072v-7.627c4.414-2.08,8.271-4.59,11.582-7.549
		c3.301-2.949,5.645-5.82,7.012-8.594h5.088V287.147L791.59,287.147z M823.963,252.274c-3.271-1.201-5.703-2.91-7.285-5.137
		c-1.571-2.217-2.362-4.883-2.362-7.979c0-4.678,1.68-8.613,5.039-11.807c3.368-3.184,7.842-4.775,13.428-4.775
		c5.615,0,10.137,1.631,13.555,4.893c3.418,3.262,5.137,7.227,5.137,11.904c0,2.988-0.791,5.586-2.354,7.793
		c-1.563,2.207-3.937,3.906-7.129,5.107c3.955,1.289,6.953,3.359,9.014,6.23c2.07,2.861,3.096,6.289,3.096,10.264
		c0,5.498-1.942,10.117-5.829,13.857c-3.896,3.75-9.015,5.615-15.361,5.615c-6.338,0-11.455-1.875-15.353-5.635
		c-3.887-3.76-5.83-8.447-5.83-14.063c0-4.18,1.056-7.676,3.185-10.498C817.029,255.224,820.047,253.3,823.963,252.274
		L823.963,252.274z M819.842,268.593c0,2.256,0.527,4.434,1.603,6.533c1.063,2.109,2.655,3.74,4.756,4.893
		c2.081,1.146,4.421,1.74,6.797,1.729c3.779,0,6.895-1.211,9.346-3.633c2.461-2.432,3.691-5.518,3.691-9.258
		c0-3.799-1.271-6.943-3.799-9.434c-2.529-2.48-5.693-3.73-9.502-3.73c-3.712,0-6.787,1.23-9.229,3.691
		C821.063,261.835,819.842,264.911,819.842,268.593L819.842,268.593z M822.381,238.896c0,3.037,0.986,5.527,2.939,7.451
		c1.963,1.934,4.502,2.9,7.637,2.9c3.037,0,5.537-0.957,7.48-2.871c1.942-1.914,2.92-4.268,2.92-7.041
		c0-2.9-1.006-5.332-3.009-7.305c-2.002-1.973-4.502-2.959-7.479-2.959c-3.018,0-5.518,0.957-7.5,2.891
		C823.377,233.896,822.381,236.2,822.381,238.896L822.381,238.896z M761.893,360.019l7.9-1.055c0.908,4.473,2.451,7.695,4.629,9.668
		c2.178,1.973,4.834,2.959,7.959,2.959c3.711,0,6.855-1.279,9.414-3.857c2.56-2.568,3.838-5.762,3.838-9.561
		c0-3.623-1.19-6.621-3.555-8.975c-2.373-2.354-5.381-3.525-9.043-3.525c-1.484,0-3.34,0.293-5.566,0.879l0.879-6.934
		c0.527,0.059,0.947,0.088,1.271,0.088c3.359,0,6.387-0.879,9.082-2.637c2.686-1.748,4.033-4.453,4.033-8.115
		c0-2.891-0.978-5.293-2.939-7.188c-1.953-1.904-4.492-2.852-7.588-2.852c-3.066,0-5.625,0.957-7.676,2.891
		c-2.052,1.934-3.359,4.824-3.945,8.691l-7.9-1.406c0.968-5.293,3.164-9.395,6.582-12.305s7.677-4.365,12.765-4.365
		c3.506,0,6.737,0.752,9.696,2.256c2.949,1.504,5.216,3.564,6.777,6.162c1.563,2.607,2.344,5.371,2.344,8.291
		c0,2.783-0.741,5.313-2.235,7.588c-1.494,2.285-3.701,4.102-6.621,5.439c3.799,0.879,6.758,2.705,8.856,5.469
		c2.109,2.764,3.164,6.221,3.164,10.371c0,5.615-2.051,10.371-6.143,14.277c-4.103,3.906-9.277,5.859-15.527,5.859
		c-5.645,0-10.332-1.68-14.063-5.049C764.549,369.726,762.42,365.37,761.893,360.019L761.893,360.019z M853.309,369.403v7.588h-42.5
		c-0.067-1.904,0.244-3.73,0.918-5.479c1.084-2.9,2.813-5.752,5.195-8.555c2.383-2.813,5.83-6.055,10.332-9.746
		c6.992-5.732,11.709-10.264,14.17-13.613c2.451-3.35,3.683-6.514,3.683-9.502c0-3.125-1.113-5.771-3.351-7.92
		c-2.246-2.148-5.156-3.223-8.76-3.223c-3.799,0-6.836,1.143-9.121,3.428c-2.275,2.275-3.438,5.439-3.467,9.473l-8.115-0.84
		c0.557-6.045,2.646-10.664,6.279-13.838c3.623-3.174,8.486-4.756,14.6-4.756c6.172,0,11.055,1.709,14.658,5.127
		c3.594,3.428,5.391,7.666,5.391,12.725c0,2.578-0.526,5.107-1.571,7.588c-1.056,2.49-2.804,5.107-5.244,7.852
		c-2.441,2.754-6.504,6.523-12.179,11.318c-4.735,3.975-7.772,6.68-9.12,8.096c-1.349,1.416-2.461,2.842-3.341,4.277H853.309
		L853.309,369.403z M761.893,449.853l7.9-1.055c0.908,4.468,2.451,7.69,4.629,9.663s4.834,2.969,7.959,2.969
		c3.711,0,6.855-1.289,9.414-3.867c2.56-2.559,3.838-5.757,3.838-9.556c0-3.623-1.19-6.621-3.555-8.975
		c-2.373-2.354-5.381-3.525-9.043-3.525c-1.484,0-3.34,0.293-5.566,0.879l0.879-6.934c0.527,0.059,0.947,0.088,1.271,0.088
		c3.359,0,6.387-0.879,9.082-2.637c2.686-1.748,4.033-4.453,4.033-8.115c0-2.891-0.978-5.293-2.939-7.188
		c-1.953-1.903-4.492-2.852-7.588-2.852c-3.066,0-5.625,0.957-7.676,2.891c-2.052,1.935-3.359,4.824-3.945,8.691l-7.9-1.406
		c0.968-5.293,3.164-9.395,6.582-12.305s7.677-4.365,12.765-4.365c3.506,0,6.737,0.752,9.696,2.256
		c2.949,1.504,5.216,3.564,6.777,6.162c1.563,2.607,2.344,5.371,2.344,8.291c0,2.783-0.741,5.313-2.235,7.588
		c-1.494,2.285-3.701,4.103-6.621,5.439c3.799,0.879,6.758,2.705,8.856,5.469c2.109,2.764,3.164,6.221,3.164,10.371
		c0,5.61-2.051,10.376-6.143,14.282c-4.103,3.906-9.277,5.858-15.527,5.858c-5.645,0-10.332-1.68-14.063-5.059
		C764.549,459.555,762.42,455.199,761.893,449.853L761.893,449.853z M853.309,459.242v7.578h-42.5
		c-0.067-1.896,0.244-3.73,0.918-5.47c1.084-2.909,2.813-5.762,5.195-8.555c2.383-2.816,5.83-6.06,10.332-9.751
		c6.992-5.731,11.709-10.264,14.17-13.613c2.451-3.35,3.683-6.514,3.683-9.502c0-3.125-1.113-5.771-3.351-7.92
		c-2.246-2.147-5.156-3.223-8.76-3.223c-3.799,0-6.836,1.143-9.121,3.428c-2.275,2.275-3.438,5.439-3.467,9.473l-8.115-0.84
		c0.557-6.045,2.646-10.664,6.279-13.838c3.623-3.174,8.486-4.756,14.6-4.756c6.172,0,11.055,1.709,14.658,5.127
		c3.594,3.428,5.391,7.666,5.391,12.726c0,2.577-0.526,5.106-1.571,7.588c-1.056,2.489-2.804,5.106-5.244,7.852
		c-2.441,2.754-6.504,6.523-12.179,11.318c-4.735,3.975-7.772,6.675-9.12,8.101c-1.349,1.406-2.461,2.832-3.341,4.277H853.309
		L853.309,459.242z M791.59,556.664h-7.891v-50.313c-1.904,1.816-4.396,3.634-7.48,5.449c-3.086,1.797-5.858,3.164-8.311,4.063
		v-7.617c4.414-2.09,8.271-4.59,11.582-7.559c3.301-2.949,5.645-5.82,7.012-8.595h5.088V556.664L791.59,556.664z M823.963,521.801
		c-3.271-1.211-5.703-2.91-7.285-5.137c-1.571-2.227-2.362-4.883-2.362-7.988c0-4.668,1.68-8.613,5.039-11.797
		c3.368-3.184,7.842-4.785,13.428-4.785c5.615,0,10.137,1.642,13.555,4.902s5.137,7.227,5.137,11.895
		c0,2.988-0.791,5.586-2.354,7.793c-1.563,2.207-3.937,3.906-7.129,5.117c3.955,1.289,6.953,3.359,9.014,6.23
		c2.07,2.852,3.096,6.289,3.096,10.254c0,5.508-1.942,10.117-5.829,13.867c-3.896,3.75-9.015,5.604-15.361,5.604
		c-6.338,0-11.455-1.875-15.353-5.625c-3.887-3.77-5.83-8.457-5.83-14.063c0-4.181,1.056-7.677,3.185-10.509
		C817.029,524.75,820.047,522.816,823.963,521.801z M819.842,538.109c0,2.266,0.527,4.434,1.603,6.543
		c1.063,2.108,2.655,3.729,4.756,4.883c2.081,1.148,4.42,1.746,6.797,1.738c3.779,0,6.895-1.211,9.346-3.634
		c2.461-2.44,3.691-5.526,3.691-9.258c0-3.809-1.271-6.953-3.799-9.434c-2.529-2.481-5.693-3.73-9.502-3.73
		c-3.712,0-6.787,1.23-9.229,3.691C821.063,531.352,819.842,534.438,819.842,538.109L819.842,538.109z M822.381,508.422
		c0,3.027,0.986,5.527,2.939,7.441c1.963,1.934,4.502,2.91,7.637,2.91c3.037,0,5.537-0.957,7.48-2.871
		c1.942-1.914,2.92-4.277,2.92-7.052c0-2.891-1.006-5.332-3.009-7.305c-2.002-1.973-4.502-2.949-7.479-2.949
		c-3.018,0-5.518,0.957-7.5,2.892C823.377,503.422,822.381,505.727,822.381,508.422L822.381,508.422z M812.352,590.609v-7.578
		h41.632v6.133c-4.103,4.354-8.154,10.156-12.179,17.383c-4.023,7.228-7.129,14.648-9.315,22.285
		c-1.582,5.371-2.588,11.27-3.027,17.676h-8.115c0.089-5.059,1.074-11.172,2.979-18.34s4.629-14.082,8.184-20.723
		c3.556-6.66,7.334-12.267,11.338-16.836H812.352L812.352,590.609z"/>
</g>
</svg>
