<?xml version="1.0" encoding="utf-8"?>
<!-- Generator: Adobe Illustrator 16.2.0, SVG Export Plug-In . SVG Version: 6.00 Build 0)  -->
<!DOCTYPE svg PUBLIC "-//W3C//DTD SVG 1.1//EN" "http://www.w3.org/Graphics/SVG/1.1/DTD/svg11.dtd">
<svg version="1.1" id="Layer_1" xmlns="http://www.w3.org/2000/svg" xmlns:xlink="http://www.w3.org/1999/xlink" x="0px" y="0px"
	 width="900px" height="900px" viewBox="0 0 900 900" enable-background="new 0 0 900 900" xml:space="preserve">
<path d="M85.535,154.257H71.697V66.073c-3.34,3.184-7.705,6.357-13.115,9.531c-5.4,3.184-10.264,5.566-14.561,7.158V69.384
	c7.734-3.643,14.502-8.047,20.293-13.223c5.791-5.176,9.893-10.205,12.305-15.068h8.916V154.257z M161.414,154.257h-13.838V66.073
	c-3.34,3.184-7.705,6.357-13.115,9.531c-5.4,3.184-10.264,5.566-14.561,7.158V69.384c7.734-3.643,14.502-8.047,20.293-13.223
	c5.791-5.176,9.893-10.205,12.305-15.068h8.916V154.257L161.414,154.257z M218.152,93.134c-5.742-2.1-10-5.098-12.764-8.994
	c-2.764-3.896-4.15-8.555-4.15-13.994c0-8.193,2.949-15.088,8.838-20.674c5.898-5.586,13.74-8.379,23.525-8.379
	c9.844,0,17.764,2.852,23.76,8.564c5.996,5.723,8.994,12.676,8.994,20.879c0,5.225-1.377,9.775-4.111,13.643
	c-2.744,3.867-6.914,6.855-12.5,8.955c6.924,2.256,12.188,5.898,15.801,10.918c3.613,5.029,5.42,11.025,5.42,17.988
	c0,9.639-3.408,17.734-10.225,24.297c-6.817,6.563-15.781,9.844-26.904,9.844s-20.098-3.291-26.914-9.883
	c-6.816-6.582-10.225-14.795-10.225-24.639c0-7.324,1.865-13.467,5.576-18.408C205.994,98.3,211.287,94.931,218.152,93.134z
	 M210.926,121.737c0,3.945,0.938,7.764,2.803,11.455c1.875,3.691,4.648,6.543,8.34,8.574c3.691,2.021,7.666,3.037,11.924,3.037
	c6.611,0,12.07-2.129,16.367-6.387c4.307-4.248,6.465-9.658,6.465-16.221c0-6.66-2.217-12.168-6.65-16.523
	c-4.433-4.355-9.98-6.543-16.65-6.543c-6.504,0-11.904,2.158-16.182,6.465C213.065,109.901,210.926,115.282,210.926,121.737z
	 M215.379,69.687c0,5.332,1.719,9.688,5.156,13.076c3.428,3.379,7.891,5.068,13.379,5.068c5.332,0,9.697-1.68,13.105-5.039
	c3.408-3.35,5.117-7.461,5.117-12.334c0-5.078-1.758-9.346-5.273-12.803c-3.506-3.457-7.881-5.186-13.105-5.186
	c-5.283,0-9.658,1.689-13.145,5.068C217.127,60.927,215.379,64.97,215.379,69.687L215.379,69.687z M182.664,617.074
	c0-12.306,3.311-21.935,9.912-28.888c6.601-6.952,15.127-10.43,25.576-10.43c6.836,0,13.008,1.621,18.496,4.902
	c5.498,3.262,9.678,7.813,12.559,13.672c2.881,5.84,4.326,12.461,4.326,19.883c0,7.521-1.514,14.238-4.551,20.176
	c-3.027,5.918-7.324,10.41-12.891,13.457c-5.557,3.047-11.553,4.57-17.988,4.57c-6.982,0-13.213-1.68-18.701-5.039
	c-5.498-3.379-9.658-7.969-12.49-13.809C184.08,629.75,182.664,623.578,182.664,617.074L182.664,617.074z M192.781,617.23
	c0,8.926,2.393,15.956,7.197,21.094c4.804,5.137,10.83,7.715,18.066,7.715c7.383,0,13.457-2.598,18.223-7.793
	c4.775-5.176,7.158-12.539,7.158-22.09c0-6.017-1.025-11.289-3.057-15.781c-2.041-4.512-5.029-7.988-8.955-10.469
	c-3.926-2.481-8.33-3.711-13.213-3.711c-6.943,0-12.91,2.383-17.92,7.147C195.281,598.109,192.781,606.078,192.781,617.23z
	 M263.338,657.602l8.848,1.328c0.371,2.734,1.396,4.707,3.076,5.957c2.266,1.681,5.342,2.539,9.258,2.539
	c4.209,0,7.461-0.858,9.756-2.539c2.285-1.68,3.838-4.043,4.648-7.069c0.469-1.855,0.684-5.742,0.654-11.681
	c-3.975,4.688-8.926,7.031-14.863,7.031c-7.373,0-13.086-2.676-17.129-7.988c-4.043-5.332-6.064-11.719-6.064-19.16
	c0-5.116,0.918-9.844,2.773-14.18s4.541-7.676,8.066-10.039c3.516-2.344,7.656-3.535,12.402-3.535c6.338,0,11.563,2.56,15.674,7.695
	v-6.484h8.389v46.406c0,8.359-0.851,14.277-2.549,17.773c-1.709,3.477-4.404,6.229-8.086,8.262
	c-3.691,2.012-8.232,3.027-13.623,3.027c-6.406,0-11.572-1.445-15.518-4.316C265.105,667.738,263.201,663.402,263.338,657.602
	L263.338,657.602z M270.867,625.355c0,7.051,1.396,12.188,4.199,15.43c2.793,3.223,6.299,4.844,10.508,4.844
	c4.18,0,7.686-1.602,10.518-4.824c2.832-3.222,4.248-8.262,4.248-15.137c0-6.563-1.465-11.523-4.375-14.863
	c-2.92-3.34-6.426-5-10.537-5c-4.043,0-7.48,1.642-10.313,4.922C272.282,614.008,270.867,618.891,270.867,625.355L270.867,625.355z
	 M357.605,646.547c-3.38,2.853-6.621,4.883-9.736,6.055c-3.115,1.191-6.455,1.777-10.029,1.777c-5.897,0-10.43-1.445-13.594-4.316
	c-3.174-2.891-4.756-6.563-4.756-11.055c0-2.617,0.596-5.02,1.797-7.207c1.191-2.168,2.764-3.906,4.697-5.215
	c1.934-1.328,4.121-2.324,6.543-2.988c1.787-0.469,4.481-0.938,8.086-1.366c7.354-0.88,12.754-1.914,16.229-3.125
	c0.029-1.25,0.049-2.052,0.049-2.384c0-3.711-0.858-6.328-2.577-7.832c-2.324-2.051-5.781-3.086-10.361-3.086
	c-4.277,0-7.441,0.742-9.473,2.246c-2.041,1.504-3.556,4.16-4.531,7.969l-8.896-1.211c0.812-3.809,2.148-6.895,3.994-9.237
	c1.855-2.345,4.531-4.142,8.037-5.41c3.506-1.25,7.568-1.896,12.188-1.896c4.579,0,8.301,0.548,11.172,1.621
	c2.86,1.074,4.961,2.441,6.309,4.063c1.348,1.641,2.295,3.711,2.832,6.19c0.303,1.563,0.459,4.355,0.459,8.398v12.129
	c0,8.457,0.195,13.809,0.576,16.055c0.398,2.264,1.178,4.442,2.305,6.445h-9.502C358.475,651.273,357.869,649.066,357.605,646.547
	L357.605,646.547z M356.844,626.215c-3.301,1.348-8.262,2.5-14.862,3.438c-3.74,0.547-6.388,1.151-7.931,1.836
	c-1.553,0.664-2.754,1.659-3.594,2.948s-1.26,2.734-1.26,4.316c0,2.422,0.918,4.453,2.754,6.074s4.521,2.422,8.057,2.422
	c3.506,0,6.621-0.762,9.355-2.305c2.725-1.523,4.735-3.634,6.016-6.289c0.978-2.052,1.465-5.078,1.465-9.103V626.215
	L356.844,626.215z M380.145,653.168v-53.691h8.185v7.638c3.945-5.898,9.639-8.849,17.09-8.849c3.232,0,6.201,0.586,8.916,1.759
	c2.715,1.151,4.746,2.676,6.094,4.569c1.349,1.875,2.285,4.121,2.832,6.72c0.332,1.68,0.498,4.629,0.498,8.848v33.008h-9.092
	v-32.656c0-3.711-0.353-6.483-1.064-8.319c-0.702-1.836-1.963-3.302-3.76-4.396c-1.807-1.094-3.926-1.641-6.348-1.641
	c-3.877,0-7.217,1.229-10.029,3.69c-2.822,2.461-4.229,7.129-4.229,14.004v29.316H380.145L380.145,653.168z M474.471,635.883
	l9.396,1.152c-1.484,5.488-4.229,9.766-8.232,12.793c-4.014,3.027-9.141,4.551-15.371,4.551c-7.852,0-14.071-2.422-18.672-7.266
	c-4.6-4.824-6.903-11.603-6.903-20.332c0-9.023,2.323-16.035,6.973-21.035c4.658-4.98,10.684-7.48,18.096-7.48
	c7.178,0,13.047,2.441,17.598,7.345c4.541,4.883,6.816,11.758,6.816,20.604c0,0.547-0.01,1.349-0.049,2.441H444.09
	c0.332,5.897,2.002,10.41,5,13.535c2.998,3.145,6.738,4.707,11.221,4.707c3.341,0,6.183-0.88,8.546-2.638
	C471.219,642.523,473.084,639.711,474.471,635.883L474.471,635.883z M444.598,621.176h29.972c-0.41-4.531-1.554-7.91-3.438-10.176
	c-2.899-3.496-6.66-5.254-11.27-5.254c-4.181,0-7.695,1.406-10.537,4.199C446.473,612.738,444.9,616.488,444.598,621.176
	L444.598,621.176z M491.648,637.133l8.993-1.406c0.509,3.613,1.914,6.367,4.229,8.281c2.305,1.935,5.527,2.892,9.678,2.892
	c4.18,0,7.275-0.859,9.297-2.56c2.022-1.7,3.037-3.69,3.037-5.996c0-2.051-0.897-3.672-2.686-4.844
	c-1.24-0.801-4.347-1.836-9.297-3.086c-6.67-1.68-11.3-3.146-13.877-4.375c-2.578-1.23-4.531-2.93-5.859-5.098
	c-1.338-2.168-2.002-4.57-2.002-7.207c0-2.384,0.547-4.609,1.649-6.642c1.076-2.018,2.607-3.756,4.474-5.078
	c1.416-1.055,3.34-1.934,5.781-2.655c2.44-0.723,5.067-1.095,7.86-1.095c4.209,0,7.91,0.605,11.095,1.816
	c3.184,1.229,5.536,2.871,7.051,4.94c1.514,2.07,2.559,4.845,3.135,8.302l-8.896,1.229c-0.399-2.772-1.571-4.922-3.516-6.483
	c-1.934-1.543-4.668-2.324-8.213-2.324c-4.18,0-7.158,0.703-8.945,2.07c-1.787,1.387-2.676,3.008-2.676,4.862
	c0,1.172,0.371,2.246,1.113,3.185c0.742,0.977,1.904,1.776,3.485,2.422c0.908,0.332,3.585,1.112,8.037,2.324
	c6.437,1.719,10.929,3.125,13.468,4.219c2.549,1.094,4.541,2.694,5.995,4.785c1.445,2.09,2.169,4.688,2.169,7.772
	c0,3.047-0.88,5.898-2.656,8.574c-1.769,2.676-4.316,4.746-7.656,6.211c-3.33,1.465-7.109,2.207-11.318,2.207
	c-6.973,0-12.295-1.445-15.946-4.355C494.988,647.133,492.664,642.836,491.648,637.133L491.648,637.133z M543.406,637.133
	l8.994-1.406c0.508,3.613,1.914,6.367,4.229,8.281c2.305,1.935,5.527,2.892,9.678,2.892c4.181,0,7.275-0.859,9.297-2.56
	c2.022-1.7,3.037-3.69,3.037-5.996c0-2.051-0.897-3.672-2.686-4.844c-1.24-0.801-4.346-1.836-9.297-3.086
	c-6.67-1.68-11.299-3.146-13.877-4.375c-2.578-1.23-4.531-2.93-5.859-5.098c-1.338-2.168-2.002-4.57-2.002-7.207
	c0-2.384,0.547-4.609,1.65-6.642c1.075-2.018,2.607-3.756,4.473-5.078c1.416-1.055,3.34-1.934,5.781-2.655
	c2.44-0.723,5.067-1.095,7.861-1.095c4.209,0,7.909,0.605,11.094,1.816c3.184,1.229,5.537,2.871,7.051,4.94
	c1.514,2.07,2.559,4.845,3.135,8.302l-8.896,1.229c-0.4-2.772-1.572-4.922-3.517-6.483c-1.934-1.543-4.668-2.324-8.213-2.324
	c-4.18,0-7.158,0.703-8.944,2.07c-1.787,1.387-2.677,3.008-2.677,4.862c0,1.172,0.371,2.246,1.113,3.185
	c0.742,0.977,1.904,1.776,3.486,2.422c0.908,0.332,3.584,1.112,8.037,2.324c6.436,1.719,10.928,3.125,13.467,4.219
	c2.549,1.094,4.541,2.694,5.996,4.785c1.444,2.09,2.168,4.688,2.168,7.772c0,3.047-0.879,5.898-2.656,8.574
	c-1.768,2.676-4.316,4.746-7.656,6.211c-3.33,1.465-7.108,2.207-11.317,2.207c-6.974,0-12.296-1.445-15.947-4.355
	C546.746,647.133,544.422,642.836,543.406,637.133L543.406,637.133z M595.418,626.332c0-9.941,2.764-17.305,8.291-22.09
	c4.609-3.984,10.244-5.978,16.885-5.978c7.373,0,13.408,2.422,18.086,7.267c4.688,4.823,7.031,11.504,7.031,20.039
	c0,6.895-1.035,12.344-3.104,16.289c-2.08,3.965-5.089,7.051-9.054,9.237c-3.955,2.188-8.28,3.281-12.959,3.281
	c-7.52,0-13.594-2.402-18.223-7.227C597.732,642.328,595.418,635.395,595.418,626.332L595.418,626.332z M604.764,626.332
	c0,6.875,1.504,12.012,4.502,15.43s6.777,5.138,11.328,5.138c4.513,0,8.271-1.72,11.271-5.156c2.999-3.438,4.492-8.672,4.492-15.724
	c0-6.641-1.505-11.659-4.521-15.077c-3.018-3.438-6.768-5.138-11.24-5.138c-4.551,0-8.33,1.699-11.327,5.099
	C606.268,614.32,604.764,619.457,604.764,626.332L604.764,626.332z M656.375,653.168v-53.691h8.184v7.638
	c3.945-5.898,9.64-8.849,17.091-8.849c3.231,0,6.2,0.586,8.916,1.759c2.715,1.151,4.745,2.676,6.094,4.569
	c1.348,1.875,2.285,4.121,2.832,6.72c0.332,1.68,0.498,4.629,0.498,8.848v33.008h-9.092v-32.656c0-3.711-0.353-6.483-1.064-8.319
	c-0.703-1.836-1.963-3.302-3.76-4.396c-1.808-1.094-3.927-1.641-6.349-1.641c-3.877,0-7.217,1.229-10.028,3.69
	c-2.822,2.461-4.229,7.129-4.229,14.004v29.316H656.375z"/>
<g>
	<path d="M56.365,859.574v-94.668h20.068v7.52H65.467v79.609h10.967v7.539H56.365L56.365,859.574z M130.213,830.258v8.75H81.238
		c-0.074-2.159,0.288-4.312,1.064-6.328c1.24-3.34,3.242-6.621,5.986-9.844c2.744-3.242,6.709-6.992,11.904-11.229
		c8.047-6.603,13.496-11.837,16.328-15.685c2.822-3.867,4.238-7.52,4.238-10.957c0-3.594-1.289-6.641-3.867-9.121
		c-2.578-2.479-5.938-3.711-10.078-3.711c-4.385,0-7.891,1.31-10.518,3.945c-2.627,2.617-3.955,6.27-3.994,10.918l-9.346-0.957
		c0.635-6.973,3.047-12.305,7.227-15.957c4.18-3.652,9.785-5.488,16.836-5.488c7.109,0,12.734,1.974,16.875,5.918
		c4.15,3.945,6.221,8.828,6.221,14.669c0,2.948-0.605,5.879-1.816,8.729c-1.221,2.871-3.232,5.879-6.045,9.063
		c-2.813,3.163-7.49,7.5-14.023,13.026c-5.459,4.59-8.965,7.695-10.518,9.336c-1.553,1.621-2.832,3.281-3.838,4.922H130.213
		L130.213,830.258z M141.336,821.859l8.74-0.802c0.742,4.121,2.158,7.091,4.248,8.945c2.09,1.855,4.766,2.773,8.037,2.773
		c2.793,0,5.244-0.625,7.354-1.914c2.109-1.271,3.828-2.988,5.176-5.138c1.348-2.129,2.48-5.02,3.389-8.651
		c0.91-3.642,1.369-7.38,1.367-11.133c0-0.392-0.02-0.996-0.049-1.816c-1.826,2.891-4.307,5.254-7.461,7.051
		c-3.112,1.794-6.643,2.73-10.234,2.715c-6.133,0-11.318-2.227-15.566-6.68s-6.367-10.313-6.367-17.598
		c0-7.5,2.217-13.556,6.65-18.146c4.424-4.569,9.98-6.875,16.65-6.875c4.814,0,9.229,1.31,13.213,3.906
		c3.994,2.598,7.031,6.289,9.102,11.094c2.071,4.806,3.105,11.738,3.105,20.84c0,9.474-1.025,17.013-3.076,22.617
		c-2.061,5.625-5.117,9.883-9.18,12.813c-4.063,2.93-8.818,4.395-14.277,4.395c-5.791,0-10.527-1.602-14.199-4.823
		C144.285,832.23,142.078,827.699,141.336,821.859L141.336,821.859z M178.582,789.164c0-5.215-1.387-9.375-4.17-12.441
		c-2.773-3.065-6.123-4.59-10.029-4.59c-4.043,0-7.568,1.66-10.566,4.961s-4.502,7.578-4.502,12.832
		c0,4.707,1.426,8.555,4.277,11.504c2.842,2.949,6.357,4.414,10.537,4.414c4.209,0,7.676-1.465,10.391-4.414
		C177.225,798.48,178.582,794.398,178.582,789.164z M226.697,839.008v-17.754h-32.139v-8.34l33.809-48.008h7.432v48.008h10.01v8.34
		h-10.01v17.754H226.697z M226.697,812.914v-33.398l-23.193,33.398H226.697L226.697,812.914z M272.859,859.574h-20.068v-7.539
		h10.967v-79.609h-10.967v-7.52h20.068V859.574L272.859,859.574z"/>
</g>
<g>
	<path d="M268.67,349.354c0-18.838,2.822-34.639,8.457-47.422c4.199-9.414,9.941-17.861,17.207-25.352
		c7.275-7.48,15.244-13.027,23.906-16.641c11.514-4.883,24.795-7.314,39.854-7.314c27.236,0,49.033,8.447,65.392,25.342
		c16.348,16.904,24.53,40.4,24.53,70.508c0,29.844-8.114,53.193-24.346,70.059c-16.229,16.854-37.92,25.283-65.078,25.283
		c-27.49,0-49.354-8.39-65.576-25.166C276.785,401.884,268.67,378.778,268.67,349.354z M307.137,348.095
		c0,20.938,4.834,36.807,14.502,47.607c9.668,10.8,21.953,16.211,36.826,16.211c14.883,0,27.101-5.361,36.642-16.084
		c9.541-10.723,14.315-26.797,14.315-48.242c0-21.182-4.647-36.992-13.936-47.422c-9.297-10.42-21.631-15.635-37.021-15.635
		c-15.381,0-27.783,5.273-37.197,15.83C311.844,310.907,307.137,326.825,307.137,348.095L307.137,348.095z M473.621,449.491
		l40.479,4.927c0.675,4.707,2.228,7.93,4.668,9.707c3.359,2.52,8.662,3.789,15.89,3.789c9.248,0,16.182-1.406,20.811-4.18
		c3.115-1.836,5.469-4.824,7.062-8.945c1.094-2.944,1.641-8.364,1.641-16.274v-19.541c-10.596,14.464-23.965,21.689-40.107,21.689
		c-17.987,0-32.235-7.607-42.754-22.832c-8.231-12.021-12.354-26.982-12.354-44.893c0-22.451,5.399-39.6,16.201-51.455
		c10.811-11.855,24.237-17.783,40.293-17.783c16.563,0,30.225,7.275,40.996,21.816v-18.789h33.164v120.186
		c0,15.811-1.3,27.622-3.906,35.435c-2.607,7.832-6.271,13.965-10.978,18.418s-10.996,7.949-18.848,10.47
		c-7.871,2.52-17.813,3.789-29.834,3.789c-22.695,0-38.799-3.888-48.301-11.66c-9.502-7.793-14.248-17.638-14.248-29.59
		C473.5,452.346,473.542,450.917,473.621,449.491L473.621,449.491z M505.271,370.917c0,14.209,2.754,24.619,8.262,31.221
		c5.508,6.603,12.295,9.894,20.371,9.894c8.651,0,15.967-3.379,21.942-10.146c5.968-6.768,8.955-16.797,8.955-30.078
		c0-13.877-2.86-24.17-8.573-30.898c-5.724-6.729-12.949-10.088-21.699-10.088c-8.486,0-15.488,3.301-20.996,9.893
		C508.025,347.313,505.271,357.382,505.271,370.917L505.271,370.917z"/>
</g>
<g>
	<path d="M853.152,99.882v7.588h-42.5c-0.068-1.904,0.244-3.73,0.918-5.479c1.084-2.9,2.813-5.752,5.194-8.555
		c2.384-2.813,5.83-6.055,10.332-9.746c6.992-5.732,11.709-10.264,14.17-13.613c2.451-3.35,3.683-6.514,3.683-9.502
		c0-3.125-1.113-5.771-3.351-7.92c-2.245-2.148-5.155-3.223-8.76-3.223c-3.799,0-6.836,1.143-9.121,3.428
		c-2.274,2.275-3.438,5.439-3.467,9.473l-8.115-0.84c0.558-6.045,2.646-10.664,6.279-13.838c3.623-3.174,8.486-4.756,14.6-4.756
		c6.173,0,11.056,1.709,14.658,5.127c3.594,3.428,5.392,7.666,5.392,12.725c0,2.578-0.527,5.107-1.572,7.588
		c-1.055,2.49-2.803,5.107-5.244,7.852c-2.441,2.754-6.504,6.523-12.178,11.318c-4.736,3.975-7.773,6.68-9.121,8.096
		s-2.461,2.842-3.34,4.277H853.152L853.152,99.882z M823.807,162.44c-3.271-1.201-5.703-2.91-7.284-5.137
		c-1.572-2.217-2.363-4.883-2.363-7.979c0-4.678,1.68-8.613,5.039-11.807c3.369-3.184,7.842-4.775,13.428-4.775
		c5.615,0,10.137,1.631,13.555,4.893c3.418,3.262,5.138,7.227,5.138,11.904c0,2.988-0.791,5.586-2.354,7.793
		c-1.563,2.207-3.936,3.906-7.129,5.107c3.955,1.289,6.953,3.359,9.014,6.23c2.07,2.861,3.097,6.289,3.097,10.264
		c0,5.498-1.943,10.117-5.83,13.857c-3.896,3.75-9.015,5.615-15.361,5.615c-6.338,0-11.455-1.875-15.352-5.635
		c-3.888-3.76-5.83-8.447-5.83-14.063c0-4.18,1.055-7.676,3.184-10.498C816.873,165.39,819.891,163.466,823.807,162.44
		L823.807,162.44z M819.686,178.759c0,2.256,0.527,4.434,1.603,6.533c1.063,2.109,2.656,3.74,4.756,4.893
		c2.082,1.146,4.421,1.74,6.797,1.729c3.779,0,6.896-1.211,9.347-3.633c2.461-2.432,3.69-5.518,3.69-9.258
		c0-3.799-1.27-6.943-3.799-9.434c-2.529-2.48-5.693-3.73-9.502-3.73c-3.711,0-6.787,1.23-9.229,3.691
		C820.906,172.001,819.686,175.077,819.686,178.759L819.686,178.759z M822.225,149.062c0,3.037,0.986,5.527,2.939,7.451
		c1.963,1.934,4.502,2.9,7.637,2.9c3.037,0,5.537-0.957,7.48-2.871c1.942-1.914,2.92-4.268,2.92-7.041
		c0-2.9-1.006-5.332-3.008-7.305c-2.002-1.973-4.502-2.959-7.48-2.959c-3.018,0-5.518,0.957-7.5,2.891
		C823.221,144.062,822.225,146.366,822.225,149.062L822.225,149.062z M791.424,287.147h-7.891v-50.313
		c-1.904,1.807-4.396,3.623-7.48,5.439c-3.086,1.807-5.858,3.174-8.311,4.072v-7.627c4.414-2.08,8.271-4.59,11.582-7.549
		c3.301-2.949,5.645-5.82,7.012-8.594h5.088V287.147L791.424,287.147z M823.797,252.274c-3.271-1.201-5.703-2.91-7.285-5.137
		c-1.571-2.217-2.362-4.883-2.362-7.979c0-4.678,1.68-8.613,5.039-11.807c3.368-3.184,7.842-4.775,13.428-4.775
		c5.615,0,10.137,1.631,13.555,4.893c3.418,3.262,5.137,7.227,5.137,11.904c0,2.988-0.791,5.586-2.354,7.793
		c-1.563,2.207-3.937,3.906-7.129,5.107c3.955,1.289,6.953,3.359,9.014,6.23c2.07,2.861,3.096,6.289,3.096,10.264
		c0,5.498-1.942,10.117-5.829,13.857c-3.896,3.75-9.015,5.615-15.361,5.615c-6.338,0-11.455-1.875-15.353-5.635
		c-3.887-3.76-5.83-8.447-5.83-14.063c0-4.18,1.056-7.676,3.185-10.498C816.863,255.224,819.881,253.3,823.797,252.274
		L823.797,252.274z M819.676,268.593c0,2.256,0.527,4.434,1.603,6.533c1.063,2.109,2.655,3.74,4.756,4.893
		c2.081,1.146,4.421,1.74,6.797,1.729c3.779,0,6.895-1.211,9.346-3.633c2.461-2.432,3.691-5.518,3.691-9.258
		c0-3.799-1.271-6.943-3.799-9.434c-2.529-2.48-5.693-3.73-9.502-3.73c-3.712,0-6.787,1.23-9.229,3.691
		C820.896,261.835,819.676,264.911,819.676,268.593L819.676,268.593z M822.215,238.896c0,3.037,0.986,5.527,2.939,7.451
		c1.963,1.934,4.502,2.9,7.637,2.9c3.037,0,5.537-0.957,7.48-2.871c1.942-1.914,2.92-4.268,2.92-7.041
		c0-2.9-1.006-5.332-3.009-7.305c-2.002-1.973-4.502-2.959-7.479-2.959c-3.018,0-5.518,0.957-7.5,2.891
		C823.211,233.896,822.215,236.2,822.215,238.896L822.215,238.896z M761.727,360.019l7.9-1.055c0.908,4.473,2.451,7.695,4.629,9.668
		c2.178,1.973,4.834,2.959,7.959,2.959c3.711,0,6.855-1.279,9.414-3.857c2.56-2.568,3.838-5.762,3.838-9.561
		c0-3.623-1.19-6.621-3.555-8.975c-2.373-2.354-5.381-3.525-9.043-3.525c-1.484,0-3.34,0.293-5.566,0.879l0.879-6.934
		c0.527,0.059,0.947,0.088,1.271,0.088c3.359,0,6.387-0.879,9.082-2.637c2.686-1.748,4.033-4.453,4.033-8.115
		c0-2.891-0.978-5.293-2.939-7.188c-1.953-1.904-4.492-2.852-7.588-2.852c-3.066,0-5.625,0.957-7.676,2.891
		c-2.052,1.934-3.359,4.824-3.945,8.691l-7.9-1.406c0.968-5.293,3.164-9.395,6.582-12.305s7.677-4.365,12.765-4.365
		c3.506,0,6.737,0.752,9.696,2.256c2.949,1.504,5.216,3.564,6.777,6.162c1.563,2.607,2.344,5.371,2.344,8.291
		c0,2.783-0.741,5.313-2.235,7.588c-1.494,2.285-3.701,4.102-6.621,5.439c3.799,0.879,6.758,2.705,8.856,5.469
		c2.109,2.764,3.164,6.221,3.164,10.371c0,5.615-2.051,10.371-6.143,14.277c-4.103,3.906-9.277,5.859-15.527,5.859
		c-5.645,0-10.332-1.68-14.063-5.049C764.383,369.726,762.254,365.37,761.727,360.019L761.727,360.019z M853.143,369.403v7.588
		h-42.5c-0.067-1.904,0.244-3.73,0.918-5.479c1.084-2.9,2.813-5.752,5.195-8.555c2.383-2.813,5.83-6.055,10.332-9.746
		c6.992-5.732,11.709-10.264,14.17-13.613c2.451-3.35,3.683-6.514,3.683-9.502c0-3.125-1.113-5.771-3.351-7.92
		c-2.246-2.148-5.156-3.223-8.76-3.223c-3.799,0-6.836,1.143-9.121,3.428c-2.275,2.275-3.438,5.439-3.467,9.473l-8.115-0.84
		c0.557-6.045,2.646-10.664,6.279-13.838c3.623-3.174,8.486-4.756,14.6-4.756c6.172,0,11.055,1.709,14.658,5.127
		c3.594,3.428,5.391,7.666,5.391,12.725c0,2.578-0.526,5.107-1.571,7.588c-1.056,2.49-2.804,5.107-5.244,7.852
		c-2.441,2.754-6.504,6.523-12.179,11.318c-4.735,3.975-7.772,6.68-9.12,8.096c-1.349,1.416-2.461,2.842-3.341,4.277H853.143
		L853.143,369.403z M761.727,449.853l7.9-1.055c0.908,4.468,2.451,7.69,4.629,9.663s4.834,2.969,7.959,2.969
		c3.711,0,6.855-1.289,9.414-3.867c2.56-2.559,3.838-5.757,3.838-9.556c0-3.623-1.19-6.621-3.555-8.975
		c-2.373-2.354-5.381-3.525-9.043-3.525c-1.484,0-3.34,0.293-5.566,0.879l0.879-6.934c0.527,0.059,0.947,0.088,1.271,0.088
		c3.359,0,6.387-0.879,9.082-2.637c2.686-1.748,4.033-4.453,4.033-8.115c0-2.891-0.978-5.293-2.939-7.188
		c-1.953-1.903-4.492-2.852-7.588-2.852c-3.066,0-5.625,0.957-7.676,2.891c-2.052,1.935-3.359,4.824-3.945,8.691l-7.9-1.406
		c0.968-5.293,3.164-9.395,6.582-12.305s7.677-4.365,12.765-4.365c3.506,0,6.737,0.752,9.696,2.256
		c2.949,1.504,5.216,3.564,6.777,6.162c1.563,2.607,2.344,5.371,2.344,8.291c0,2.783-0.741,5.313-2.235,7.588
		c-1.494,2.285-3.701,4.103-6.621,5.439c3.799,0.879,6.758,2.705,8.856,5.469c2.109,2.764,3.164,6.221,3.164,10.371
		c0,5.61-2.051,10.376-6.143,14.282c-4.103,3.906-9.277,5.858-15.527,5.858c-5.645,0-10.332-1.68-14.063-5.059
		C764.383,459.555,762.254,455.199,761.727,449.853L761.727,449.853z M853.143,459.242v7.578h-42.5
		c-0.067-1.896,0.244-3.73,0.918-5.47c1.084-2.909,2.813-5.762,5.195-8.555c2.383-2.816,5.83-6.06,10.332-9.751
		c6.992-5.731,11.709-10.264,14.17-13.613c2.451-3.35,3.683-6.514,3.683-9.502c0-3.125-1.113-5.771-3.351-7.92
		c-2.246-2.147-5.156-3.223-8.76-3.223c-3.799,0-6.836,1.143-9.121,3.428c-2.275,2.275-3.438,5.439-3.467,9.473l-8.115-0.84
		c0.557-6.045,2.646-10.664,6.279-13.838c3.623-3.174,8.486-4.756,14.6-4.756c6.172,0,11.055,1.709,14.658,5.127
		c3.594,3.428,5.391,7.666,5.391,12.726c0,2.577-0.526,5.106-1.571,7.588c-1.056,2.489-2.804,5.106-5.244,7.852
		c-2.441,2.754-6.504,6.523-12.179,11.318c-4.735,3.975-7.772,6.675-9.12,8.101c-1.349,1.406-2.461,2.832-3.341,4.277H853.143
		L853.143,459.242z M791.424,556.664h-7.891v-50.313c-1.904,1.816-4.396,3.634-7.48,5.449c-3.086,1.797-5.858,3.164-8.311,4.063
		v-7.617c4.414-2.09,8.271-4.59,11.582-7.559c3.301-2.949,5.645-5.82,7.012-8.595h5.088V556.664L791.424,556.664z M823.797,521.801
		c-3.271-1.211-5.703-2.91-7.285-5.137c-1.571-2.227-2.362-4.883-2.362-7.988c0-4.668,1.68-8.613,5.039-11.797
		c3.368-3.184,7.842-4.785,13.428-4.785c5.615,0,10.137,1.642,13.555,4.902s5.137,7.227,5.137,11.895
		c0,2.988-0.791,5.586-2.354,7.793c-1.563,2.207-3.937,3.906-7.129,5.117c3.955,1.289,6.953,3.359,9.014,6.23
		c2.07,2.852,3.096,6.289,3.096,10.254c0,5.508-1.942,10.117-5.829,13.867c-3.896,3.75-9.015,5.604-15.361,5.604
		c-6.338,0-11.455-1.875-15.353-5.625c-3.887-3.77-5.83-8.457-5.83-14.063c0-4.181,1.056-7.677,3.185-10.509
		C816.863,524.75,819.881,522.816,823.797,521.801z M819.676,538.109c0,2.266,0.527,4.434,1.603,6.543
		c1.063,2.108,2.655,3.729,4.756,4.883c2.081,1.148,4.42,1.746,6.797,1.738c3.779,0,6.895-1.211,9.346-3.634
		c2.461-2.44,3.691-5.526,3.691-9.258c0-3.809-1.271-6.953-3.799-9.434c-2.529-2.481-5.693-3.73-9.502-3.73
		c-3.712,0-6.787,1.23-9.229,3.691C820.896,531.352,819.676,534.438,819.676,538.109L819.676,538.109z M822.215,508.422
		c0,3.027,0.986,5.527,2.939,7.441c1.963,1.934,4.502,2.91,7.637,2.91c3.037,0,5.537-0.957,7.48-2.871
		c1.942-1.914,2.92-4.277,2.92-7.052c0-2.891-1.006-5.332-3.009-7.305c-2.002-1.973-4.502-2.949-7.479-2.949
		c-3.018,0-5.518,0.957-7.5,2.892C823.211,503.422,822.215,505.727,822.215,508.422L822.215,508.422z M823.807,611.625
		c-3.271-1.191-5.703-2.91-7.284-5.137c-1.572-2.207-2.363-4.883-2.363-7.97c0-4.688,1.68-8.612,5.039-11.815
		c3.369-3.185,7.842-4.766,13.428-4.766c5.615,0,10.137,1.62,13.555,4.883c3.418,3.262,5.138,7.227,5.138,11.914
		c0,2.987-0.791,5.586-2.354,7.793c-1.563,2.207-3.936,3.905-7.129,5.098c3.955,1.289,6.953,3.359,9.014,6.23
		c2.07,2.87,3.097,6.289,3.097,10.272c0,5.488-1.943,10.117-5.83,13.849c-3.896,3.75-9.015,5.625-15.361,5.625
		c-6.338,0-11.455-1.875-15.352-5.646c-3.888-3.75-5.83-8.438-5.83-14.063c0-4.18,1.055-7.676,3.184-10.487
		C816.873,614.574,819.891,612.66,823.807,611.625L823.807,611.625z M819.686,627.953c0,2.246,0.527,4.434,1.603,6.522
		c1.063,2.109,2.656,3.75,4.756,4.902c2.109,1.152,4.375,1.719,6.797,1.719c3.779,0,6.896-1.211,9.347-3.633
		c2.461-2.422,3.69-5.508,3.69-9.258c0-3.789-1.27-6.935-3.799-9.435c-2.529-2.479-5.693-3.729-9.502-3.729
		c-3.711,0-6.787,1.229-9.229,3.691C820.906,621.194,819.686,624.262,819.686,627.953L819.686,627.953z M822.225,598.246
		c0,3.047,0.986,5.527,2.939,7.461c1.963,1.934,4.502,2.891,7.637,2.891c3.037,0,5.537-0.957,7.48-2.871
		c1.942-1.914,2.92-4.258,2.92-7.03c0-2.91-1.006-5.332-3.008-7.306c-2.002-1.973-4.502-2.969-7.48-2.969
		c-3.018,0-5.518,0.957-7.5,2.891C823.221,593.246,822.225,595.551,822.225,598.246L822.225,598.246z"/>
</g>
</svg>
