<?xml version="1.0" encoding="utf-8"?>
<!-- Generator: Adobe Illustrator 16.0.3, SVG Export Plug-In . SVG Version: 6.00 Build 0)  -->
<!DOCTYPE svg PUBLIC "-//W3C//DTD SVG 1.1//EN" "http://www.w3.org/Graphics/SVG/1.1/DTD/svg11.dtd">
<svg version="1.1" id="Layer_1" xmlns="http://www.w3.org/2000/svg" xmlns:xlink="http://www.w3.org/1999/xlink" x="0px" y="0px"
	 width="900px" height="900px" viewBox="0 0 900 900" enable-background="new 0 0 900 900" xml:space="preserve">
<path d="M86.553,163.557H72.715V75.374c-3.34,3.179-7.705,6.357-13.115,9.536c-5.4,3.179-10.264,5.562-14.561,7.148V78.679
	c7.734-3.638,14.502-8.042,20.293-13.223c5.791-5.176,9.893-10.195,12.305-15.068h8.916V163.557z M194.727,150.256v13.301h-74.502
	c-0.107-3.278,0.441-6.545,1.611-9.609c1.904-5.073,4.932-10.073,9.111-14.99c4.18-4.922,10.215-10.61,18.105-17.07
	c12.256-10.044,20.527-18.003,24.834-23.872c4.307-5.869,6.455-11.416,6.455-16.646c0-5.483-1.953-10.107-5.879-13.877
	c-3.916-3.765-9.033-5.649-15.332-5.649c-6.67,0-12.002,2.002-15.996,5.996c-3.994,3.999-6.025,9.536-6.074,16.606l-14.219-1.46
	c0.967-10.61,4.639-18.691,10.996-24.253c6.348-5.562,14.883-8.345,25.596-8.345c10.811,0,19.375,2.998,25.684,8.994
	c6.299,5.996,9.453,13.433,9.453,22.295c0,4.512-0.928,8.945-2.773,13.301c-1.836,4.36-4.902,8.945-9.18,13.765
	c-4.287,4.814-11.396,11.431-21.338,19.834c-8.301,6.973-13.633,11.699-15.986,14.185c-2.363,2.485-4.307,4.985-5.85,7.495
	L194.727,150.256L194.727,150.256z M183.545,662.463v-74.092h14.756l17.539,52.471c1.621,4.883,2.793,8.535,3.535,10.957
	c0.85-2.695,2.158-6.649,3.945-11.875l17.744-51.553h13.193v74.092h-9.453v-62.012l-21.533,62.012h-8.848l-21.426-63.076v63.076
	H183.545L183.545,662.463z M303.945,655.842c-3.379,2.871-6.621,4.894-9.736,6.074c-3.115,1.172-6.455,1.758-10.029,1.758
	c-5.898,0-10.43-1.436-13.594-4.315c-3.174-2.882-4.756-6.563-4.756-11.035c0-2.638,0.596-5.039,1.797-7.207
	c1.191-2.178,2.764-3.926,4.697-5.234c1.933-1.308,4.121-2.305,6.543-2.987c1.787-0.47,4.482-0.918,8.086-1.357
	c7.354-0.879,12.754-1.924,16.23-3.135c0.029-1.25,0.049-2.031,0.049-2.383c0-3.701-0.859-6.31-2.578-7.832
	c-2.324-2.052-5.781-3.076-10.361-3.076c-4.277,0-7.441,0.752-9.473,2.246c-2.041,1.494-3.555,4.149-4.531,7.959l-8.896-1.211
	c0.811-3.81,2.148-6.875,3.994-9.22c1.855-2.344,4.531-4.149,8.037-5.409c3.506-1.271,7.568-1.896,12.188-1.896
	c4.58,0,8.301,0.537,11.172,1.611c2.861,1.084,4.961,2.432,6.309,4.071c1.348,1.641,2.295,3.691,2.832,6.191
	c0.303,1.543,0.459,4.346,0.459,8.389v12.14c0,8.457,0.195,13.799,0.576,16.034c0.398,2.264,1.178,4.443,2.305,6.445h-9.502
	C304.814,660.588,304.209,658.381,303.945,655.842L303.945,655.842z M303.184,635.529c-3.301,1.348-8.262,2.49-14.863,3.438
	c-3.74,0.537-6.387,1.144-7.93,1.816c-1.553,0.674-2.754,1.66-3.594,2.959c-0.84,1.299-1.26,2.733-1.26,4.326
	c0,2.422,0.918,4.442,2.754,6.055c1.836,1.621,4.521,2.432,8.057,2.432c3.506,0,6.621-0.771,9.355-2.295
	c2.725-1.543,4.736-3.633,6.016-6.299c0.977-2.061,1.465-5.088,1.465-9.092V635.529L303.184,635.529z M324.814,666.916l8.848,1.309
	c0.371,2.734,1.396,4.728,3.076,5.978c2.266,1.68,5.342,2.52,9.258,2.52c4.209,0,7.461-0.84,9.756-2.52
	c2.285-1.699,3.838-4.053,4.648-7.09c0.469-1.847,0.684-5.742,0.654-11.67c-3.975,4.678-8.926,7.021-14.863,7.021
	c-7.373,0-13.086-2.656-17.129-7.988c-4.043-5.313-6.064-11.698-6.064-19.149c0-5.127,0.918-9.854,2.773-14.17
	c1.855-4.336,4.541-7.676,8.066-10.039c3.516-2.363,7.656-3.535,12.402-3.535c6.338,0,11.563,2.56,15.674,7.676v-6.465h8.389v46.396
	c0,8.358-0.85,14.286-2.549,17.764c-1.709,3.496-4.404,6.25-8.086,8.262c-3.691,2.031-8.232,3.047-13.623,3.047
	c-6.406,0-11.572-1.444-15.518-4.336C326.582,677.053,324.678,672.717,324.814,666.916L324.814,666.916z M332.344,634.67
	c0,7.041,1.396,12.178,4.199,15.41c2.793,3.242,6.299,4.863,10.508,4.863c4.18,0,7.686-1.621,10.518-4.834s4.248-8.263,4.248-15.138
	c0-6.571-1.465-11.522-4.375-14.862c-2.92-3.33-6.426-5-10.537-5c-4.043,0-7.48,1.641-10.313,4.932
	C333.76,623.322,332.344,628.205,332.344,634.67L332.344,634.67z M384.053,662.463v-53.672h8.184v7.637
	c3.945-5.897,9.639-8.848,17.09-8.848c3.231,0,6.201,0.576,8.916,1.738s4.746,2.694,6.094,4.569
	c1.348,1.896,2.285,4.142,2.832,6.729c0.332,1.689,0.498,4.639,0.498,8.838v33.008h-9.092v-32.646c0-3.701-0.353-6.476-1.064-8.312
	c-0.703-1.836-1.963-3.301-3.76-4.403c-1.807-1.095-3.926-1.642-6.348-1.642c-3.877,0-7.218,1.23-10.029,3.691
	c-2.822,2.461-4.229,7.119-4.229,13.994v29.315L384.053,662.463L384.053,662.463z M478.379,645.178l9.396,1.173
	c-1.484,5.487-4.229,9.745-8.232,12.782c-4.014,3.037-9.141,4.541-15.371,4.541c-7.852,0-14.072-2.412-18.672-7.246
	s-6.904-11.62-6.904-20.352c0-9.023,2.324-16.035,6.974-21.016c4.657-4.99,10.684-7.48,18.096-7.48
	c7.178,0,13.047,2.441,17.598,7.324c4.541,4.883,6.816,11.758,6.816,20.625c0,0.537-0.01,1.348-0.049,2.422H448
	c0.332,5.898,2.002,10.41,5,13.555c2.998,3.125,6.738,4.688,11.221,4.688c3.34,0,6.183-0.869,8.545-2.617
	C475.127,651.818,476.992,649.025,478.379,645.178L478.379,645.178z M448.506,630.471h29.971c-0.409-4.512-1.553-7.899-3.438-10.155
	c-2.9-3.506-6.66-5.254-11.27-5.254c-4.181,0-7.695,1.396-10.537,4.188C450.381,622.053,448.809,625.783,448.506,630.471
	L448.506,630.471z M495.557,646.447l8.994-1.416c0.508,3.604,1.914,6.367,4.229,8.291c2.305,1.914,5.526,2.871,9.678,2.871
	c4.18,0,7.275-0.84,9.297-2.539c2.021-1.709,3.037-3.711,3.037-5.996c0-2.051-0.898-3.672-2.686-4.854
	c-1.24-0.812-4.347-1.837-9.298-3.076c-6.67-1.689-11.299-3.146-13.877-4.375c-2.578-1.23-4.53-2.931-5.858-5.107
	c-1.338-2.178-2.002-4.58-2.002-7.197c0-2.401,0.547-4.608,1.649-6.649c1.073-2.022,2.605-3.766,4.474-5.088
	c1.416-1.035,3.34-1.925,5.78-2.646c2.441-0.731,5.068-1.084,7.861-1.084c4.209,0,7.91,0.605,11.094,1.816
	c3.185,1.211,5.537,2.852,7.052,4.922c1.514,2.08,2.559,4.844,3.135,8.319l-8.896,1.212c-0.399-2.755-1.571-4.923-3.516-6.466
	c-1.935-1.553-4.668-2.323-8.213-2.323c-4.181,0-7.158,0.684-8.945,2.069c-1.787,1.387-2.676,2.998-2.676,4.845
	c0,1.19,0.371,2.245,1.113,3.192c0.741,0.978,1.903,1.787,3.485,2.422c0.908,0.342,3.584,1.113,8.037,2.334
	c6.437,1.72,10.928,3.125,13.467,4.22c2.55,1.094,4.541,2.676,5.996,4.766c1.445,2.09,2.168,4.688,2.168,7.793
	c0,3.027-0.879,5.879-2.655,8.564c-1.769,2.686-4.316,4.756-7.656,6.221c-3.33,1.465-7.109,2.188-11.318,2.188
	c-6.973,0-12.295-1.444-15.946-4.336C498.896,656.438,496.572,652.142,495.557,646.447L495.557,646.447z M551.006,598.83v-10.459
	h9.103v10.459H551.006z M551.006,662.463v-53.672h9.103v53.672H551.006z M609.131,662.463v-7.881
	c-4.18,6.064-9.854,9.092-17.031,9.092c-3.174,0-6.123-0.604-8.877-1.815c-2.744-1.211-4.784-2.734-6.112-4.57
	s-2.267-4.082-2.804-6.748c-0.37-1.787-0.557-4.619-0.557-8.485v-33.263h9.102v29.767c0,4.756,0.187,7.948,0.558,9.608
	c0.565,2.394,1.776,4.269,3.633,5.635c1.855,1.357,4.15,2.041,6.875,2.041c2.734,0,5.293-0.692,7.687-2.09
	c2.393-1.405,4.081-3.301,5.077-5.713s1.494-5.908,1.494-10.488v-28.76h9.092v53.672L609.131,662.463L609.131,662.463z
	 M631.523,662.463v-53.672h8.135v7.529c1.688-2.627,3.926-4.736,6.719-6.338c2.803-1.603,5.986-2.402,9.562-2.402
	c3.975,0,7.235,0.82,9.774,2.471c2.549,1.65,4.336,3.955,5.381,6.925c4.248-6.271,9.775-9.396,16.582-9.396
	c5.322,0,9.414,1.465,12.285,4.414c2.861,2.949,4.297,7.5,4.297,13.633v36.836h-9.053v-33.809c0-3.644-0.293-6.26-0.879-7.861
	c-0.596-1.602-1.66-2.891-3.213-3.867c-1.554-0.976-3.369-1.465-5.459-1.465c-3.771,0-6.904,1.26-9.404,3.76
	c-2.49,2.521-3.74,6.533-3.74,12.062v31.182h-9.092V627.59c0-4.043-0.742-7.08-2.227-9.092c-1.484-2.031-3.906-3.037-7.275-3.037
	c-2.568,0-4.932,0.674-7.109,2.021c-2.168,1.348-3.739,3.319-4.727,5.918c-0.977,2.598-1.465,6.328-1.465,11.211v27.852H631.523
	L631.523,662.463z M102.451,839.553v8.75H53.477c-0.075-2.159,0.287-4.312,1.064-6.327c1.24-3.33,3.242-6.621,5.986-9.854
	c2.744-3.232,6.709-6.973,11.904-11.221c8.047-6.603,13.496-11.836,16.328-15.693c2.822-3.856,4.238-7.51,4.238-10.947
	c0-3.594-1.289-6.641-3.867-9.12c-2.578-2.48-5.938-3.712-10.078-3.712c-4.385,0-7.891,1.31-10.518,3.945
	c-2.627,2.627-3.955,6.271-3.994,10.918l-9.346-0.957c0.635-6.981,3.047-12.305,7.227-15.957c4.18-3.651,9.785-5.487,16.836-5.487
	c7.109,0,12.734,1.973,16.875,5.918c4.15,3.944,6.221,8.828,6.221,14.668c0,2.959-0.605,5.879-1.816,8.729
	c-1.221,2.871-3.232,5.89-6.045,9.054c-2.813,3.174-7.49,7.51-14.023,13.036c-5.459,4.591-8.965,7.695-10.518,9.336
	c-1.553,1.632-2.832,3.271-3.838,4.923L102.451,839.553L102.451,839.553z M141.367,848.303V830.56h-32.139v-8.341l33.809-48.018
	h7.432v48.018h10.01v8.341h-10.01v17.743H141.367z M141.367,822.219v-33.407l-23.193,33.407H141.367z M174.883,848.303v-10.37
	h10.361v10.37H174.883z M198.584,828.732l9.102-1.211c1.045,5.156,2.822,8.867,5.332,11.151c2.51,2.267,5.566,3.408,9.17,3.408
	c4.277,0,7.891-1.483,10.84-4.442c2.949-2.97,4.424-6.642,4.424-11.025c0-4.17-1.357-7.627-4.092-10.342
	c-2.725-2.705-6.201-4.063-10.41-4.063c-1.719,0-3.857,0.332-6.416,1.017l1.006-7.988c0.487,0.055,0.976,0.087,1.465,0.098
	c3.877,0,7.363-1.016,10.469-3.026c3.096-2.031,4.648-5.138,4.648-9.355c0-3.34-1.133-6.094-3.389-8.291
	c-2.256-2.188-5.176-3.291-8.74-3.291c-3.545,0-6.494,1.113-8.848,3.34c-2.363,2.228-3.877,5.566-4.551,10.011l-9.102-1.611
	c1.113-6.104,3.643-10.83,7.588-14.18c3.936-3.359,8.838-5.039,14.707-5.039c4.043,0,7.764,0.879,11.172,2.617
	c3.398,1.729,6.006,4.102,7.803,7.09c1.807,3.008,2.705,6.19,2.705,9.551c0,3.203-0.859,6.123-2.578,8.75
	c-1.719,2.637-4.258,4.717-7.627,6.27c4.375,1.017,7.783,3.105,10.205,6.289c2.432,3.185,3.643,7.168,3.643,11.953
	c0,6.476-2.363,11.953-7.08,16.455c-4.717,4.502-10.684,6.748-17.891,6.748c-6.504,0-11.904-1.934-16.201-5.811
	S199.189,834.904,198.584,828.732L198.584,828.732z M256.113,811.76c0-8.77,0.898-15.819,2.705-21.151
	c1.797-5.353,4.482-9.474,8.037-12.363c3.555-2.899,8.027-4.354,13.418-4.354c3.975,0,7.461,0.801,10.459,2.401
	c2.998,1.602,5.479,3.916,7.432,6.935c1.953,3.008,3.486,6.68,4.6,11.016c1.114,4.336,1.67,10.166,1.67,17.521
	c0,8.69-0.889,15.702-2.676,21.045c-1.787,5.342-4.463,9.473-8.018,12.383c-3.555,2.92-8.047,4.375-13.467,4.375
	c-7.148,0-12.754-2.568-16.836-7.687C258.555,835.705,256.113,825.666,256.113,811.76L256.113,811.76z M265.459,811.76
	c0,12.158,1.426,20.255,4.277,24.277c2.842,4.023,6.357,6.045,10.537,6.045c4.18,0,7.695-2.021,10.537-6.063
	c2.852-4.043,4.268-12.13,4.268-24.259c0-12.207-1.416-20.313-4.268-24.315c-2.842-4.004-6.396-6.017-10.635-6.017
	c-4.18,0-7.52,1.769-10.01,5.313C267.031,791.252,265.459,799.592,265.459,811.76L265.459,811.76z M313.682,828.89l9.551-0.812
	c0.713,4.658,2.354,8.154,4.932,10.488c2.578,2.344,5.684,3.516,9.326,3.516c4.375,0,8.086-1.649,11.113-4.951
	c3.037-3.301,4.551-7.686,4.551-13.145c0-5.195-1.455-9.277-4.365-12.285c-2.92-2.998-6.738-4.492-11.455-4.492
	c-2.93,0-5.576,0.664-7.93,1.992c-2.363,1.328-4.219,3.057-5.566,5.176l-8.535-1.112l7.178-38.047h36.846v8.69h-29.57l-3.994,19.912
	c4.443-3.096,9.111-4.658,14.004-4.658c6.465,0,11.924,2.246,16.377,6.729c4.443,4.481,6.67,10.244,6.67,17.284
	c0,6.709-1.953,12.511-5.869,17.394c-4.746,5.996-11.23,8.994-19.453,8.994c-6.738,0-12.246-1.885-16.504-5.664
	C316.719,840.129,314.287,835.119,313.682,828.89L313.682,828.89z M269.609,449.963V265.076h55.869l33.545,126.118l33.164-126.118
	h55.997v184.888h-34.679V304.426l-36.699,145.537h-35.947l-36.572-145.537v145.537H269.609L269.609,449.963z M481.738,458.791
	l40.479,4.922c0.674,4.707,2.228,7.949,4.668,9.707c3.359,2.521,8.662,3.789,15.89,3.789c9.248,0,16.182-1.387,20.811-4.16
	c3.115-1.854,5.469-4.844,7.062-8.965c1.094-2.938,1.641-8.358,1.641-16.264V428.27c-10.596,14.463-23.965,21.693-40.107,21.693
	c-17.987,0-32.235-7.606-42.754-22.826c-8.231-12.021-12.354-26.987-12.354-44.897c0-22.451,5.399-39.6,16.201-51.455
	C504.082,318.928,517.51,313,533.564,313c16.563,0,30.225,7.275,40.995,21.816v-18.789h33.164v120.189
	c0,15.806-1.299,27.612-3.905,35.444c-2.607,7.813-6.271,13.945-10.978,18.408c-4.707,4.453-10.996,7.938-18.848,10.459
	c-7.871,2.528-17.813,3.789-29.834,3.789c-22.695,0-38.799-3.888-48.301-11.66c-9.503-7.783-14.248-17.638-14.248-29.58
	C481.611,461.896,481.65,460.471,481.738,458.791L481.738,458.791z M513.389,380.223c0,14.209,2.754,24.613,8.263,31.211
	c5.508,6.602,12.295,9.901,20.371,9.901c8.651,0,15.967-3.384,21.942-10.15c5.967-6.769,8.955-16.797,8.955-30.083
	c0-13.872-2.861-24.17-8.574-30.898c-5.723-6.724-12.948-10.088-21.698-10.088c-8.486,0-15.488,3.301-20.996,9.902
	C516.144,356.618,513.389,366.688,513.389,380.223L513.389,380.223z M854.17,109.177v7.588h-42.5
	c-0.07-1.871,0.242-3.737,0.918-5.483c1.084-2.896,2.813-5.747,5.195-8.555s5.83-6.055,10.332-9.736
	c6.992-5.732,11.709-10.273,14.17-13.623c2.451-3.35,3.682-6.514,3.682-9.497c0-3.13-1.113-5.767-3.35-7.915
	c-2.246-2.153-5.156-3.228-8.76-3.228c-3.8,0-6.836,1.143-9.121,3.423c-2.275,2.28-3.438,5.439-3.467,9.478l-8.115-0.835
	c0.557-6.055,2.646-10.669,6.278-13.843c3.623-3.169,8.486-4.756,14.601-4.756c6.172,0,11.055,1.709,14.658,5.132
	c3.594,3.423,5.391,7.661,5.391,12.72c0,2.573-0.527,5.103-1.572,7.588c-1.055,2.485-2.803,5.107-5.244,7.852
	c-2.44,2.749-6.504,6.523-12.178,11.318c-4.736,3.979-7.772,6.675-9.121,8.096c-1.348,1.416-2.461,2.842-3.34,4.277L854.17,109.177
	L854.17,109.177z M824.824,171.731c-3.271-1.201-5.703-2.91-7.285-5.132c-1.572-2.222-2.363-4.888-2.363-7.983
	c0-4.683,1.681-8.613,5.039-11.802c3.369-3.188,7.842-4.78,13.428-4.78c5.615,0,10.138,1.631,13.556,4.888
	c3.418,3.262,5.137,7.231,5.137,11.914c0,2.979-0.791,5.576-2.354,7.783c-1.563,2.207-3.937,3.911-7.13,5.112
	c3.955,1.284,6.953,3.364,9.015,6.226c2.069,2.871,3.096,6.289,3.096,10.269c0,5.498-1.943,10.117-5.83,13.862
	c-3.896,3.74-9.014,5.615-15.361,5.615c-6.338,0-11.454-1.88-15.352-5.64c-3.887-3.755-5.83-8.442-5.83-14.058
	c0-4.185,1.055-7.686,3.185-10.508C817.891,174.675,820.908,172.751,824.824,171.731z M820.703,188.049
	c0,2.251,0.527,4.429,1.602,6.533c1.064,2.109,2.656,3.74,4.756,4.893c2.081,1.149,4.421,1.746,6.798,1.733
	c3.778,0,6.895-1.211,9.346-3.643c2.461-2.427,3.69-5.513,3.69-9.253c0-3.804-1.27-6.948-3.799-9.434
	c-2.528-2.486-5.692-3.726-9.502-3.726c-3.711,0-6.787,1.226-9.229,3.682C821.923,181.29,820.703,184.363,820.703,188.049
	L820.703,188.049z M823.242,158.352c0,3.042,0.986,5.527,2.938,7.456c1.964,1.929,4.502,2.896,7.638,2.896
	c3.037,0,5.537-0.957,7.479-2.876c1.943-1.914,2.92-4.258,2.92-7.036c0-2.896-1.006-5.332-3.008-7.305
	c-2.002-1.978-4.502-2.964-7.479-2.964c-3.019,0-5.519,0.967-7.5,2.896C824.238,153.352,823.242,155.662,823.242,158.352
	L823.242,158.352z M854.17,288.855v7.588h-42.5c-0.07-1.871,0.242-3.737,0.918-5.483c1.084-2.896,2.813-5.747,5.195-8.555
	c2.382-2.808,5.83-6.055,10.332-9.736c6.992-5.732,11.709-10.273,14.17-13.623c2.451-3.35,3.682-6.514,3.682-9.497
	c0-3.13-1.113-5.767-3.35-7.915c-2.246-2.153-5.156-3.228-8.76-3.228c-3.8,0-6.836,1.143-9.121,3.423
	c-2.275,2.28-3.438,5.439-3.467,9.478l-8.115-0.835c0.557-6.055,2.646-10.669,6.278-13.843c3.623-3.169,8.486-4.756,14.601-4.756
	c6.172,0,11.055,1.709,14.658,5.132c3.594,3.423,5.391,7.661,5.391,12.72c0,2.573-0.527,5.103-1.572,7.588
	c-1.055,2.485-2.803,5.107-5.244,7.852c-2.44,2.749-6.504,6.523-12.178,11.318c-4.736,3.979-7.772,6.675-9.121,8.096
	c-1.348,1.416-2.461,2.842-3.34,4.277L854.17,288.855L854.17,288.855z"/>
</svg>
