<?xml version="1.0" encoding="utf-8"?>
<!-- Generator: Adobe Illustrator 16.0.3, SVG Export Plug-In . SVG Version: 6.00 Build 0)  -->
<!DOCTYPE svg PUBLIC "-//W3C//DTD SVG 1.1//EN" "http://www.w3.org/Graphics/SVG/1.1/DTD/svg11.dtd">
<svg version="1.1" id="Layer_1" xmlns="http://www.w3.org/2000/svg" xmlns:xlink="http://www.w3.org/1999/xlink" x="0px" y="0px"
	 width="900px" height="900px" viewBox="0 0 900 900" enable-background="new 0 0 900 900" xml:space="preserve">
<path d="M86.553,163.582H72.715V75.398c-3.34,3.179-7.705,6.357-13.115,9.536c-5.4,3.179-10.264,5.562-14.561,7.148V78.704
	c7.734-3.638,14.502-8.042,20.293-13.223c5.791-5.176,9.893-10.195,12.305-15.068h8.916V163.582z M122.07,133.831l13.838-1.846
	c1.592,7.842,4.297,13.491,8.115,16.953c3.818,3.457,8.467,5.186,13.955,5.186c6.504,0,12.002-2.251,16.484-6.763
	c4.482-4.512,6.729-10.098,6.729-16.763c0-6.353-2.08-11.592-6.23-15.723c-4.15-4.121-9.424-6.187-15.83-6.187
	c-2.617,0-5.869,0.513-9.766,1.538l1.533-12.148c0.928,0.103,1.67,0.156,2.236,0.156c5.889,0,11.191-1.538,15.908-4.614
	c4.717-3.076,7.07-7.817,7.07-14.224c0-5.073-1.709-9.277-5.146-12.607s-7.871-5-13.301-5c-5.381,0-9.863,1.694-13.457,5.078
	c-3.584,3.379-5.889,8.457-6.914,15.22l-13.838-2.461c1.689-9.272,5.537-16.465,11.533-21.563
	c5.996-5.103,13.447-7.651,22.373-7.651c6.143,0,11.807,1.323,16.982,3.96c5.176,2.642,9.141,6.24,11.885,10.801
	c2.734,4.565,4.111,9.409,4.111,14.531c0,4.868-1.309,9.302-3.926,13.301c-2.607,3.999-6.484,7.178-11.602,9.531
	c6.66,1.538,11.836,4.731,15.527,9.575c3.691,4.844,5.537,10.903,5.537,18.179c0,9.844-3.594,18.184-10.762,25.024
	c-7.178,6.846-16.25,10.264-27.217,10.264c-9.893,0-18.105-2.944-24.648-8.838C126.719,150.847,122.998,143.21,122.07,133.831
	L122.07,133.831z M201.709,662.479l28.457-74.092h10.566l30.332,74.092h-11.172l-8.643-22.44h-30.986l-8.135,22.44H201.709z
	 M223.096,632.049h25.117l-7.734-20.518c-2.354-6.23-4.111-11.357-5.254-15.371c-0.963,4.816-2.298,9.551-3.994,14.16
	L223.096,632.049z M277.529,662.479v-74.092h9.102v74.092H277.529z M335.908,662.479v-7.881c-4.18,6.056-9.854,9.093-17.031,9.093
	c-3.174,0-6.123-0.605-8.877-1.816c-2.744-1.221-4.785-2.744-6.113-4.58c-1.328-1.836-2.266-4.082-2.803-6.738
	c-0.371-1.797-0.557-4.618-0.557-8.495v-33.263h9.102v29.775c0,4.756,0.186,7.949,0.557,9.6c0.566,2.402,1.777,4.277,3.633,5.646
	c1.855,1.356,4.15,2.041,6.875,2.041c2.734,0,5.293-0.693,7.686-2.101c2.393-1.396,4.082-3.301,5.078-5.703
	c0.996-2.422,1.494-5.918,1.494-10.487v-28.771h9.092v53.683h-8.136V662.479z M358.301,662.479v-53.682h8.135v7.539
	c1.689-2.637,3.926-4.746,6.719-6.348c2.803-1.603,5.986-2.402,9.561-2.402c3.975,0,7.236,0.82,9.775,2.48
	c2.549,1.649,4.336,3.955,5.381,6.924c4.248-6.271,9.775-9.404,16.582-9.404c5.322,0,9.414,1.475,12.285,4.424
	c2.86,2.949,4.297,7.49,4.297,13.623v36.846h-9.053V628.66c0-3.633-0.293-6.25-0.88-7.853c-0.596-1.602-1.659-2.891-3.213-3.866
	c-1.553-0.977-3.368-1.466-5.459-1.466c-3.77,0-6.903,1.25-9.403,3.761c-2.49,2.51-3.74,6.532-3.74,12.061v31.182h-9.092v-34.873
	c0-4.043-0.742-7.079-2.227-9.102c-1.485-2.021-3.906-3.027-7.275-3.027c-2.568,0-4.932,0.664-7.109,2.013
	c-2.168,1.348-3.74,3.319-4.727,5.918c-0.977,2.598-1.465,6.338-1.465,11.221v27.853h-9.092V662.479z M444.58,598.836v-10.449h9.102
	v10.449H444.58z M444.58,662.479v-53.682h9.102v53.682H444.58z M467.529,662.479v-53.682h8.184v7.637
	c3.945-5.897,9.639-8.848,17.09-8.848c3.232,0,6.201,0.586,8.916,1.738c2.715,1.172,4.746,2.694,6.094,4.58
	c1.349,1.885,2.285,4.131,2.832,6.729c0.332,1.68,0.498,4.629,0.498,8.838v33.008h-9.092v-32.646c0-3.711-0.352-6.484-1.063-8.32
	c-0.703-1.836-1.964-3.301-3.761-4.395c-1.807-1.094-3.926-1.642-6.348-1.642c-3.877,0-7.217,1.23-10.029,3.691
	c-2.821,2.461-4.229,7.119-4.229,13.994v29.315L467.529,662.479L467.529,662.479z M525.146,598.836v-10.449h9.102v10.449H525.146z
	 M525.146,662.479v-53.682h9.102v53.682H525.146z M583.271,662.479v-7.881c-4.181,6.056-9.854,9.093-17.031,9.093
	c-3.174,0-6.123-0.605-8.877-1.816c-2.744-1.221-4.785-2.744-6.113-4.58s-2.266-4.082-2.803-6.738
	c-0.371-1.797-0.558-4.618-0.558-8.495v-33.263h9.103v29.775c0,4.756,0.186,7.949,0.557,9.6c0.566,2.402,1.777,4.277,3.633,5.646
	c1.855,1.356,4.15,2.041,6.875,2.041c2.734,0,5.293-0.693,7.687-2.101c2.393-1.396,4.082-3.301,5.078-5.703
	c0.996-2.422,1.494-5.918,1.494-10.487v-28.771h9.092v53.683h-8.136V662.479z M605.674,662.479v-53.682h8.135v7.539
	c1.689-2.637,3.927-4.746,6.72-6.348c2.803-1.603,5.985-2.402,9.561-2.402c3.976,0,7.236,0.82,9.775,2.48
	c2.549,1.649,4.336,3.955,5.381,6.924c4.248-6.271,9.774-9.404,16.582-9.404c5.322,0,9.414,1.475,12.285,4.424
	c2.86,2.949,4.297,7.49,4.297,13.623v36.846h-9.053V628.66c0-3.633-0.294-6.25-0.88-7.853c-0.596-1.602-1.659-2.891-3.213-3.866
	c-1.553-0.977-3.369-1.466-5.459-1.466c-3.77,0-6.903,1.25-9.403,3.761c-2.49,2.51-3.74,6.532-3.74,12.061v31.182h-9.092v-34.873
	c0-4.043-0.742-7.079-2.228-9.102c-1.484-2.021-3.906-3.027-7.274-3.027c-2.568,0-4.933,0.664-7.109,2.013
	c-2.168,1.348-3.74,3.319-4.727,5.918c-0.978,2.598-1.466,6.338-1.466,11.221v27.853h-9.092V662.479z M102.451,839.578v8.75H53.477
	c-0.075-2.159,0.287-4.313,1.064-6.328c1.24-3.33,3.242-6.621,5.986-9.854c2.744-3.233,6.709-6.974,11.904-11.222
	c8.047-6.602,13.496-11.836,16.328-15.692c2.822-3.857,4.238-7.511,4.238-10.947c0-3.594-1.289-6.642-3.867-9.121
	c-2.578-2.48-5.938-3.711-10.078-3.711c-4.385,0-7.891,1.309-10.518,3.945c-2.627,2.627-3.955,6.27-3.994,10.918l-9.346-0.957
	c0.635-6.982,3.047-12.306,7.227-15.957c4.18-3.652,9.785-5.488,16.836-5.488c7.109,0,12.734,1.973,16.875,5.918
	c4.15,3.945,6.221,8.828,6.221,14.668c0,2.959-0.605,5.879-1.816,8.73c-1.221,2.871-3.232,5.889-6.045,9.053
	c-2.813,3.174-7.49,7.51-14.023,13.037c-5.459,4.59-8.965,7.695-10.518,9.336c-1.553,1.631-2.832,3.271-3.838,4.922H102.451
	L102.451,839.578z M159.414,792.371l-9.043,0.703c-0.811-3.574-1.953-6.162-3.438-7.773c-2.461-2.598-5.498-3.906-9.102-3.906
	c-2.9,0-5.439,0.82-7.627,2.433c-2.871,2.09-5.127,5.146-6.777,9.149c-1.65,4.005-2.51,9.728-2.578,17.13
	c2.188-3.33,4.873-5.802,8.037-7.423c3.164-1.62,6.484-2.422,9.961-2.422c6.064,0,11.221,2.228,15.488,6.689
	c4.258,4.463,6.396,10.234,6.396,17.313c0,4.648-1.006,8.966-3.008,12.97c-2.012,3.983-4.766,7.051-8.262,9.17
	c-3.506,2.119-7.49,3.184-11.934,3.184c-7.578,0-13.77-2.783-18.545-8.369c-4.795-5.565-7.178-14.766-7.178-27.567
	c0-14.326,2.637-24.736,7.93-31.24c4.619-5.664,10.83-8.496,18.652-8.496c5.83,0,10.605,1.641,14.326,4.912
	C156.445,782.098,158.672,786.609,159.414,792.371L159.414,792.371z M122.266,824.314c0,3.135,0.664,6.133,1.992,8.993
	c1.338,2.871,3.193,5.05,5.586,6.543c2.393,1.505,4.902,2.257,7.529,2.257c3.848,0,7.148-1.554,9.912-4.658
	c2.764-3.086,4.141-7.306,4.141-12.627c0-5.127-1.357-9.16-4.092-12.109c-2.725-2.939-6.162-4.424-10.313-4.424
	c-4.111,0-7.598,1.484-10.459,4.424C123.701,815.662,122.266,819.529,122.266,824.314L122.266,824.314z M174.883,848.328v-10.371
	h10.361v10.371H174.883L174.883,848.328z M199.902,831.189l8.74-0.812c0.742,4.111,2.158,7.09,4.248,8.945
	c2.09,1.854,4.766,2.783,8.037,2.783c2.793,0,5.244-0.636,7.354-1.925c2.109-1.278,3.828-2.987,5.176-5.127
	c1.348-2.139,2.48-5.028,3.389-8.672c0.909-3.643,1.367-7.344,1.367-11.123c0-0.399-0.02-1.006-0.049-1.815
	c-1.826,2.899-4.307,5.254-7.461,7.051c-3.145,1.807-6.563,2.705-10.234,2.705c-6.133,0-11.318-2.217-15.566-6.67
	c-4.248-4.453-6.367-10.313-6.367-17.599c0-7.5,2.217-13.555,6.65-18.145c4.424-4.57,9.98-6.875,16.65-6.875
	c4.814,0,9.229,1.309,13.213,3.906c3.994,2.588,7.031,6.289,9.102,11.094c2.07,4.795,3.105,11.738,3.105,20.84
	c0,9.473-1.025,17.012-3.076,22.617c-2.061,5.615-5.117,9.883-9.18,12.813c-4.063,2.939-8.818,4.404-14.277,4.404
	c-5.791,0-10.527-1.611-14.199-4.834C202.852,841.541,200.645,837.021,199.902,831.189L199.902,831.189z M237.148,798.484
	c0-5.216-1.387-9.365-4.17-12.433c-2.773-3.065-6.123-4.6-10.029-4.6c-4.043,0-7.568,1.649-10.566,4.951
	c-2.998,3.311-4.502,7.588-4.502,12.842c0,4.717,1.426,8.555,4.277,11.504c2.842,2.949,6.357,4.414,10.537,4.414
	c4.209,0,7.676-1.465,10.391-4.414C235.791,807.801,237.148,803.709,237.148,798.484z M270.117,808.133
	c-3.779-1.367-6.572-3.34-8.398-5.908c-1.816-2.559-2.725-5.625-2.725-9.198c0-5.392,1.934-9.923,5.811-13.595
	c3.877-3.672,9.033-5.518,15.469-5.518c6.465,0,11.68,1.885,15.615,5.645c3.945,3.75,5.918,8.33,5.918,13.722
	c0,3.438-0.898,6.436-2.705,8.975s-4.541,4.512-8.213,5.879c4.551,1.484,8.008,3.888,10.391,7.188
	c2.373,3.301,3.555,7.246,3.555,11.826c0,6.338-2.236,11.659-6.719,15.967c-4.482,4.315-10.381,6.475-17.686,6.475
	c-7.314,0-13.213-2.168-17.695-6.494c-4.482-4.336-6.719-9.727-6.719-16.201c0-4.813,1.221-8.856,3.662-12.1
	C262.119,811.531,265.596,809.324,270.117,808.133L270.117,808.133z M265.361,826.941c0,2.598,0.615,5.106,1.846,7.538
	c1.23,2.423,3.057,4.298,5.488,5.625c2.422,1.339,5.029,2.003,7.832,2.003c4.346,0,7.93-1.396,10.762-4.189
	c2.832-2.803,4.248-6.357,4.248-10.674c0-4.385-1.455-7.998-4.375-10.869c-2.91-2.861-6.563-4.297-10.938-4.297
	c-4.277,0-7.832,1.426-10.645,4.248C266.768,819.158,265.361,822.703,265.361,826.941L265.361,826.941z M268.291,792.723
	c0,3.506,1.133,6.367,3.389,8.594c2.256,2.228,5.186,3.341,8.799,3.341c3.506,0,6.377-1.113,8.613-3.32
	c2.246-2.207,3.359-4.902,3.359-8.104c0-3.341-1.152-6.144-3.457-8.419c-2.314-2.274-5.186-3.418-8.623-3.418
	c-3.467,0-6.348,1.113-8.643,3.341C269.443,786.961,268.291,789.617,268.291,792.723L268.291,792.723z M361.494,839.578v8.75H312.52
	c-0.075-2.16,0.287-4.313,1.064-6.328c1.24-3.33,3.242-6.621,5.986-9.854c2.744-3.232,6.709-6.973,11.904-11.221
	c8.047-6.602,13.496-11.836,16.328-15.693c2.822-3.856,4.238-7.51,4.238-10.946c0-3.595-1.289-6.642-3.867-9.121
	c-2.578-2.48-5.938-3.711-10.078-3.711c-4.385,0-7.891,1.309-10.518,3.944c-2.627,2.628-3.955,6.271-3.994,10.919l-9.346-0.957
	c0.635-6.982,3.047-12.306,7.227-15.957c4.18-3.652,9.785-5.488,16.836-5.488c7.109,0,12.734,1.973,16.875,5.918
	c4.15,3.945,6.221,8.828,6.221,14.668c0,2.959-0.605,5.879-1.816,8.73c-1.221,2.87-3.232,5.889-6.045,9.053
	c-2.813,3.174-7.49,7.51-14.023,13.037c-5.459,4.59-8.965,7.694-10.518,9.336c-1.553,1.631-2.832,3.271-3.838,4.922H361.494
	L361.494,839.578z M494.17,449.988h-40.605l-16.143-41.997h-73.906l-15.264,41.997h-39.6L380.664,265.1h39.473L494.17,449.988
	L494.17,449.988z M425.439,376.838L399.96,308.23l-24.971,68.607H425.439L425.439,376.838z M513.711,449.988V265.1h35.439v184.888
	H513.711L513.711,449.988z M854.17,109.202v7.588h-42.5c-0.07-1.871,0.242-3.737,0.918-5.483c1.084-2.896,2.813-5.747,5.195-8.555
	s5.83-6.055,10.332-9.736c6.992-5.732,11.709-10.273,14.17-13.623c2.451-3.35,3.682-6.514,3.682-9.497
	c0-3.13-1.113-5.767-3.35-7.915c-2.246-2.153-5.156-3.228-8.76-3.228c-3.8,0-6.836,1.143-9.121,3.423
	c-2.275,2.28-3.438,5.439-3.467,9.478l-8.115-0.835c0.557-6.055,2.646-10.669,6.278-13.843c3.623-3.169,8.486-4.756,14.601-4.756
	c6.172,0,11.055,1.709,14.658,5.132c3.594,3.423,5.391,7.661,5.391,12.72c0,2.573-0.527,5.103-1.572,7.588
	c-1.055,2.485-2.803,5.107-5.244,7.852c-2.44,2.749-6.504,6.523-12.178,11.318c-4.736,3.979-7.772,6.675-9.121,8.096
	c-1.348,1.416-2.461,2.842-3.34,4.277L854.17,109.202L854.17,109.202z M824.824,171.755c-3.271-1.201-5.703-2.91-7.285-5.132
	c-1.572-2.222-2.363-4.888-2.363-7.983c0-4.683,1.681-8.613,5.039-11.802c3.369-3.188,7.842-4.78,13.428-4.78
	c5.615,0,10.138,1.631,13.556,4.888c3.418,3.262,5.137,7.231,5.137,11.914c0,2.979-0.791,5.576-2.354,7.783
	c-1.563,2.207-3.937,3.911-7.13,5.112c3.955,1.284,6.953,3.364,9.015,6.226c2.069,2.871,3.096,6.289,3.096,10.269
	c0,5.498-1.943,10.117-5.83,13.862c-3.896,3.74-9.014,5.615-15.361,5.615c-6.338,0-11.454-1.88-15.352-5.64
	c-3.887-3.755-5.83-8.442-5.83-14.058c0-4.185,1.055-7.686,3.185-10.508C817.891,174.7,820.908,172.776,824.824,171.755z
	 M820.703,188.074c0,2.251,0.527,4.429,1.602,6.533c1.064,2.109,2.656,3.74,4.756,4.893c2.081,1.149,4.421,1.746,6.798,1.733
	c3.778,0,6.895-1.211,9.346-3.643c2.461-2.427,3.69-5.513,3.69-9.253c0-3.804-1.27-6.948-3.799-9.434
	c-2.528-2.486-5.692-3.726-9.502-3.726c-3.711,0-6.787,1.226-9.229,3.682C821.923,181.315,820.703,184.387,820.703,188.074
	L820.703,188.074z M823.242,158.376c0,3.042,0.986,5.527,2.938,7.456c1.964,1.929,4.502,2.896,7.638,2.896
	c3.037,0,5.537-0.957,7.479-2.876c1.943-1.914,2.92-4.258,2.92-7.036c0-2.896-1.006-5.332-3.008-7.305
	c-2.002-1.978-4.502-2.964-7.479-2.964c-3.019,0-5.519,0.967-7.5,2.896C824.238,153.376,823.242,155.686,823.242,158.376
	L823.242,158.376z M812.715,279.49l7.9-1.05c0.908,4.473,2.451,7.695,4.629,9.673c2.178,1.973,4.834,2.959,7.959,2.959
	c3.711,0,6.854-1.289,9.414-3.862c2.559-2.573,3.838-5.757,3.838-9.561c0-3.628-1.191-6.616-3.555-8.97
	c-2.373-2.354-5.381-3.535-9.043-3.535c-1.484,0-3.341,0.293-5.566,0.879l0.879-6.929c0.527,0.059,0.947,0.088,1.271,0.088
	c3.358,0,6.387-0.879,9.082-2.632c2.686-1.758,4.032-4.463,4.032-8.115c0-2.896-0.977-5.293-2.938-7.197
	c-1.953-1.899-4.492-2.852-7.588-2.852c-3.066,0-5.625,0.967-7.677,2.896c-2.051,1.934-3.358,4.824-3.944,8.687l-7.9-1.401
	c0.967-5.293,3.164-9.395,6.582-12.305c3.418-2.91,7.676-4.365,12.764-4.365c3.507,0,6.738,0.752,9.697,2.256
	c2.949,1.509,5.215,3.564,6.777,6.167c1.562,2.603,2.344,5.366,2.344,8.291c0,2.778-0.742,5.308-2.236,7.588
	c-1.493,2.28-3.7,4.092-6.62,5.439c3.799,0.874,6.758,2.695,8.856,5.459c2.109,2.764,3.164,6.226,3.164,10.376
	c0,5.615-2.051,10.376-6.143,14.277c-4.103,3.906-9.277,5.859-15.527,5.859c-5.646,0-10.332-1.685-14.063-5.049
	C815.371,289.202,813.242,284.841,812.715,279.49L812.715,279.49z"/>
</svg>
