<?xml version="1.0" encoding="utf-8"?>
<!-- Generator: Adobe Illustrator 16.0.3, SVG Export Plug-In . SVG Version: 6.00 Build 0)  -->
<!DOCTYPE svg PUBLIC "-//W3C//DTD SVG 1.1//EN" "http://www.w3.org/Graphics/SVG/1.1/DTD/svg11.dtd">
<svg version="1.1" id="Layer_1" xmlns="http://www.w3.org/2000/svg" xmlns:xlink="http://www.w3.org/1999/xlink" x="0px" y="0px"
	 width="900px" height="900px" viewBox="0 0 900 900" enable-background="new 0 0 900 900" xml:space="preserve">
<path d="M86.553,163.582H72.715V75.398c-3.34,3.179-7.705,6.357-13.115,9.536c-5.4,3.179-10.264,5.562-14.561,7.148V78.704
	c7.734-3.638,14.502-8.042,20.293-13.223c5.791-5.176,9.893-10.195,12.305-15.068h8.916V163.582z M166.357,163.582v-26.987h-48.896
	v-12.681l51.426-73.037h11.309v73.037h15.215v12.681h-15.215v26.987H166.357z M166.357,123.914v-50.82l-35.293,50.82H166.357z
	 M295.586,638.67l9.248-0.811c0.439,3.711,1.465,6.758,3.057,9.121c1.602,2.383,4.092,4.297,7.461,5.762
	c3.369,1.475,7.158,2.207,11.367,2.207c3.74,0,7.051-0.558,9.912-1.67c2.861-1.113,4.99-2.638,6.396-4.58
	c1.396-1.935,2.09-4.043,2.09-6.338c0-2.324-0.674-4.355-2.021-6.084c-1.348-1.738-3.564-3.203-6.67-4.375
	c-1.982-0.781-6.387-1.982-13.193-3.613c-6.807-1.641-11.572-3.184-14.297-4.629c-3.545-1.855-6.182-4.15-7.91-6.896
	c-1.738-2.754-2.607-5.819-2.607-9.229c0-3.74,1.064-7.236,3.184-10.488s5.225-5.713,9.297-7.412c4.082-1.68,8.613-2.52,13.604-2.52
	c5.488,0,10.332,0.879,14.531,2.655c4.189,1.769,7.422,4.375,9.678,7.813c2.256,3.428,3.467,7.324,3.643,11.67l-9.404,0.713
	c-0.508-4.688-2.217-8.223-5.127-10.625c-2.92-2.383-7.227-3.584-12.92-3.584c-5.928,0-10.254,1.084-12.959,3.263
	c-2.715,2.178-4.072,4.795-4.072,7.86c0,2.656,0.957,4.844,2.881,6.563c1.885,1.719,6.816,3.485,14.785,5.293
	c7.969,1.797,13.438,3.379,16.396,4.727c4.316,1.982,7.5,4.502,9.561,7.549c2.051,3.058,3.076,6.563,3.076,10.537
	c0,3.945-1.123,7.656-3.379,11.152c-2.266,3.477-5.508,6.19-9.736,8.135c-4.229,1.935-8.984,2.9-14.277,2.9
	c-6.709,0-12.324-0.978-16.855-2.931c-4.531-1.952-8.086-4.893-10.664-8.817S295.723,643.621,295.586,638.67L295.586,638.67z
	 M366.855,598.836v-10.449h9.102v10.449H366.855z M366.855,662.479v-53.682h9.102v53.682H366.855z M389.6,662.479v-74.092h9.102
	v74.092H389.6L389.6,662.479z M412.852,598.836v-10.449h9.103v10.449H412.852z M412.852,662.479v-53.682h9.103v53.682H412.852z
	 M470.83,642.82l8.945,1.151c-0.978,6.172-3.486,10.996-7.511,14.492c-4.022,3.478-8.975,5.226-14.834,5.226
	c-7.344,0-13.252-2.394-17.715-7.197c-4.463-4.805-6.699-11.689-6.699-20.646c0-5.801,0.957-10.879,2.882-15.215
	c1.924-4.354,4.844-7.617,8.77-9.785s8.193-3.262,12.813-3.262c5.83,0,10.597,1.475,14.308,4.424
	c3.701,2.949,6.084,7.139,7.129,12.56l-8.848,1.366c-0.841-3.604-2.334-6.317-4.474-8.135c-2.139-1.817-4.727-2.733-7.764-2.733
	c-4.58,0-8.301,1.641-11.162,4.922c-2.871,3.291-4.297,8.496-4.297,15.604c0,7.207,1.377,12.441,4.141,15.713
	c2.765,3.272,6.367,4.902,10.82,4.902c3.564,0,6.553-1.094,8.945-3.281C468.672,650.729,470.186,647.371,470.83,642.82
	L470.83,642.82z M484.17,635.633c0-9.932,2.764-17.295,8.291-22.08c4.609-3.975,10.244-5.967,16.885-5.967
	c7.373,0,13.408,2.422,18.086,7.256c4.688,4.834,7.031,11.514,7.031,20.039c0,6.904-1.035,12.344-3.104,16.299
	c-2.08,3.965-5.089,7.031-9.054,9.229c-3.955,2.188-8.28,3.281-12.959,3.281c-7.52,0-13.594-2.412-18.223-7.228
	C486.484,651.648,484.17,644.705,484.17,635.633L484.17,635.633z M493.516,635.633c0,6.875,1.504,12.031,4.502,15.449
	s6.777,5.127,11.328,5.127c4.513,0,8.271-1.719,11.271-5.146c2.998-3.438,4.492-8.682,4.492-15.723
	c0-6.641-1.505-11.67-4.521-15.098c-3.018-3.418-6.768-5.117-11.24-5.117c-4.551,0-8.329,1.699-11.327,5.098
	C495.021,623.622,493.516,628.758,493.516,635.633L493.516,635.633z M545.127,662.479v-53.682h8.184v7.637
	c3.945-5.897,9.64-8.848,17.091-8.848c3.231,0,6.2,0.586,8.916,1.738c2.715,1.172,4.746,2.694,6.094,4.58
	c1.348,1.885,2.285,4.131,2.832,6.729c0.332,1.68,0.498,4.629,0.498,8.838v33.008h-9.092v-32.646c0-3.711-0.353-6.484-1.064-8.32
	c-0.703-1.836-1.963-3.301-3.76-4.395c-1.808-1.094-3.926-1.642-6.349-1.642c-3.877,0-7.217,1.23-10.028,3.691
	c-2.822,2.461-4.229,7.119-4.229,13.994v29.315L545.127,662.479L545.127,662.479z M102.461,839.578v8.75H53.486
	c-0.075-2.159,0.287-4.313,1.064-6.328c1.24-3.33,3.242-6.621,5.986-9.854c2.744-3.233,6.709-6.974,11.904-11.222
	c8.047-6.602,13.496-11.836,16.328-15.692c2.822-3.857,4.238-7.511,4.238-10.947c0-3.594-1.289-6.642-3.867-9.121
	c-2.578-2.48-5.938-3.711-10.078-3.711c-4.385,0-7.891,1.309-10.518,3.945c-2.627,2.627-3.955,6.27-3.994,10.918l-9.346-0.957
	c0.635-6.982,3.047-12.306,7.227-15.957c4.18-3.652,9.785-5.488,16.836-5.488c7.109,0,12.734,1.973,16.875,5.918
	c4.15,3.945,6.221,8.828,6.221,14.668c0,2.959-0.605,5.879-1.816,8.73c-1.221,2.871-3.232,5.889-6.045,9.053
	c-2.813,3.174-7.49,7.51-14.023,13.037c-5.459,4.59-8.965,7.695-10.518,9.336c-1.553,1.631-2.832,3.271-3.838,4.922H102.461
	L102.461,839.578z M126.221,808.133c-3.779-1.367-6.572-3.34-8.398-5.908c-1.816-2.559-2.725-5.625-2.725-9.198
	c0-5.392,1.934-9.923,5.811-13.595s9.033-5.518,15.469-5.518c6.465,0,11.68,1.885,15.615,5.645c3.945,3.75,5.918,8.33,5.918,13.722
	c0,3.438-0.898,6.436-2.705,8.975s-4.541,4.512-8.213,5.879c4.551,1.484,8.008,3.888,10.391,7.188
	c2.373,3.301,3.555,7.246,3.555,11.826c0,6.338-2.236,11.659-6.719,15.967c-4.482,4.315-10.381,6.475-17.686,6.475
	c-7.314,0-13.213-2.168-17.695-6.494c-4.482-4.336-6.719-9.727-6.719-16.201c0-4.813,1.221-8.856,3.662-12.1
	C118.223,811.531,121.699,809.324,126.221,808.133z M121.465,826.941c0,2.598,0.615,5.106,1.846,7.539
	c1.23,2.422,3.057,4.297,5.488,5.625c2.422,1.338,5.029,2.002,7.832,2.002c4.346,0,7.93-1.396,10.762-4.189
	c2.832-2.803,4.248-6.357,4.248-10.674c0-4.385-1.455-7.998-4.375-10.869c-2.91-2.861-6.563-4.297-10.938-4.297
	c-4.277,0-7.832,1.426-10.645,4.248C122.871,819.158,121.465,822.703,121.465,826.941L121.465,826.941z M124.395,792.723
	c0,3.506,1.133,6.367,3.389,8.595c2.256,2.227,5.186,3.34,8.799,3.34c3.506,0,6.377-1.113,8.613-3.32
	c2.246-2.207,3.359-4.902,3.359-8.104c0-3.341-1.152-6.144-3.457-8.418c-2.314-2.275-5.186-3.419-8.623-3.419
	c-3.467,0-6.348,1.113-8.643,3.341C125.547,786.961,124.395,789.617,124.395,792.723L124.395,792.723z M174.893,848.328v-10.371
	h10.361v10.371H174.893z M198.545,811.785c0-8.771,0.898-15.82,2.705-21.152c1.797-5.352,4.482-9.473,8.037-12.363
	c3.555-2.899,8.027-4.354,13.418-4.354c3.975,0,7.461,0.801,10.459,2.402c2.998,1.601,5.479,3.916,7.432,6.934
	c1.953,3.008,3.486,6.68,4.6,11.016c1.114,4.336,1.67,10.166,1.67,17.521c0,8.69-0.889,15.703-2.676,21.045
	s-4.463,9.473-8.018,12.383c-3.555,2.92-8.047,4.375-13.467,4.375c-7.148,0-12.754-2.568-16.836-7.686
	C200.986,835.73,198.545,825.691,198.545,811.785L198.545,811.785z M207.891,811.785c0,12.158,1.426,20.254,4.277,24.276
	c2.842,4.023,6.357,6.045,10.537,6.045c4.18,0,7.695-2.021,10.537-6.063c2.852-4.043,4.268-12.129,4.268-24.258
	c0-12.207-1.416-20.313-4.268-24.316c-2.842-4.004-6.396-6.016-10.635-6.016c-4.18,0-7.52,1.768-10.01,5.313
	C209.463,791.277,207.891,799.617,207.891,811.785L207.891,811.785z M270.127,808.133c-3.779-1.367-6.572-3.34-8.398-5.908
	c-1.816-2.559-2.725-5.625-2.725-9.198c0-5.392,1.934-9.923,5.811-13.595s9.033-5.518,15.469-5.518
	c6.465,0,11.68,1.885,15.615,5.645c3.945,3.75,5.918,8.33,5.918,13.722c0,3.438-0.898,6.436-2.705,8.975
	c-1.807,2.539-4.541,4.512-8.213,5.879c4.551,1.484,8.008,3.888,10.391,7.188c2.373,3.301,3.555,7.246,3.555,11.826
	c0,6.338-2.236,11.659-6.719,15.967c-4.482,4.315-10.381,6.475-17.686,6.475c-7.314,0-13.213-2.168-17.695-6.494
	c-4.482-4.336-6.719-9.727-6.719-16.201c0-4.813,1.221-8.856,3.662-12.1C262.129,811.531,265.605,809.324,270.127,808.133
	L270.127,808.133z M265.371,826.941c0,2.598,0.615,5.106,1.846,7.538c1.23,2.423,3.057,4.298,5.488,5.625
	c2.422,1.339,5.029,2.003,7.832,2.003c4.346,0,7.93-1.396,10.762-4.189c2.832-2.803,4.248-6.357,4.248-10.674
	c0-4.385-1.455-7.998-4.375-10.869c-2.91-2.861-6.563-4.297-10.938-4.297c-4.277,0-7.832,1.426-10.645,4.248
	C266.777,819.158,265.371,822.703,265.371,826.941L265.371,826.941z M268.301,792.723c0,3.506,1.133,6.367,3.389,8.594
	c2.256,2.228,5.186,3.341,8.799,3.341c3.506,0,6.377-1.113,8.613-3.32c2.246-2.207,3.359-4.902,3.359-8.104
	c0-3.341-1.152-6.144-3.457-8.419c-2.314-2.274-5.186-3.418-8.623-3.418c-3.467,0-6.348,1.113-8.643,3.341
	C269.453,786.961,268.301,789.617,268.301,792.723L268.301,792.723z M360.898,792.371l-9.043,0.703
	c-0.811-3.574-1.953-6.162-3.438-7.773c-2.461-2.598-5.498-3.906-9.102-3.906c-2.9,0-5.439,0.82-7.627,2.433
	c-2.871,2.09-5.127,5.146-6.777,9.149s-2.51,9.728-2.578,17.129c2.188-3.329,4.873-5.801,8.037-7.422s6.484-2.422,9.961-2.422
	c6.064,0,11.221,2.228,15.488,6.689c4.258,4.463,6.396,10.233,6.396,17.313c0,4.648-1.006,8.966-3.008,12.97
	c-2.012,3.983-4.766,7.051-8.262,9.17c-3.506,2.119-7.49,3.184-11.934,3.184c-7.578,0-13.77-2.783-18.545-8.369
	c-4.795-5.565-7.178-14.766-7.178-27.567c0-14.326,2.637-24.736,7.93-31.24c4.619-5.664,10.83-8.496,18.652-8.496
	c5.83,0,10.605,1.641,14.326,4.912C357.93,782.098,360.156,786.609,360.898,792.371L360.898,792.371z M323.75,824.313
	c0,3.136,0.664,6.134,1.992,8.994c1.338,2.871,3.193,5.05,5.586,6.543c2.393,1.505,4.902,2.257,7.529,2.257
	c3.848,0,7.148-1.554,9.912-4.658c2.764-3.086,4.141-7.306,4.141-12.627c0-5.127-1.357-9.16-4.092-12.109
	c-2.725-2.939-6.162-4.424-10.313-4.424c-4.111,0-7.598,1.483-10.459,4.424C325.186,815.662,323.75,819.529,323.75,824.313
	L323.75,824.313z M325.107,389.832l36.318-3.535c2.188,12.192,6.621,21.147,13.301,26.865c6.689,5.718,15.703,8.574,27.061,8.574
	c12.021,0,21.074-2.539,27.178-7.627c6.094-5.089,9.141-11.035,9.141-17.848c0-4.37-1.278-8.091-3.848-11.162
	c-2.567-3.065-7.041-5.736-13.428-8.008c-4.375-1.514-14.336-4.204-29.893-8.071c-20.01-4.961-34.053-11.055-42.119-18.285
	c-11.357-10.177-17.031-22.578-17.031-37.207c0-9.415,2.666-18.224,8.008-26.421c5.342-8.198,13.037-14.438,23.086-18.726
	c10.039-4.292,22.168-6.436,36.377-6.436c23.213,0,40.674,5.088,52.402,15.264c11.729,10.171,17.891,23.75,18.477,40.731
	l-37.324,1.642c-1.602-9.502-5.028-16.333-10.282-20.493c-5.254-4.165-13.136-6.245-23.644-6.245
	c-10.85,0-19.346,2.231-25.479,6.685c-3.955,2.861-5.928,6.685-5.928,11.479c0,4.37,1.846,8.115,5.547,11.221
	c4.707,3.955,16.143,8.071,34.307,12.363c18.164,4.287,31.592,8.721,40.293,13.306c8.701,4.58,15.508,10.846,20.43,18.789
	c4.922,7.944,7.383,17.765,7.383,29.448c0,10.596-2.948,20.519-8.827,29.766c-5.89,9.248-14.209,16.123-24.972,20.62
	c-10.771,4.497-24.18,6.749-40.233,6.749c-23.379,0-41.328-5.405-53.857-16.207C335.02,426.257,327.539,410.515,325.107,389.832
	L325.107,389.832z M506.582,297.888V265.1h35.439v32.788L506.582,297.888L506.582,297.888z M506.582,449.988V316.052h35.439v133.937
	H506.582L506.582,449.988z M854.17,109.202v7.588h-42.5c-0.07-1.871,0.242-3.737,0.918-5.483c1.084-2.896,2.813-5.747,5.195-8.555
	s5.83-6.055,10.332-9.736c6.992-5.732,11.709-10.273,14.17-13.623c2.451-3.35,3.682-6.514,3.682-9.497
	c0-3.13-1.113-5.767-3.35-7.915c-2.246-2.153-5.156-3.228-8.76-3.228c-3.8,0-6.836,1.143-9.121,3.423
	c-2.275,2.28-3.438,5.439-3.467,9.478l-8.115-0.835c0.557-6.055,2.646-10.669,6.278-13.843c3.623-3.169,8.486-4.756,14.601-4.756
	c6.172,0,11.055,1.709,14.658,5.132c3.594,3.423,5.391,7.661,5.391,12.72c0,2.573-0.527,5.103-1.572,7.588
	c-1.055,2.485-2.803,5.107-5.244,7.852c-2.44,2.749-6.504,6.523-12.178,11.318c-4.736,3.979-7.772,6.675-9.121,8.096
	c-1.348,1.416-2.461,2.842-3.34,4.277L854.17,109.202L854.17,109.202z M824.824,171.755c-3.271-1.201-5.703-2.91-7.285-5.132
	c-1.572-2.222-2.363-4.888-2.363-7.983c0-4.683,1.681-8.613,5.039-11.802c3.369-3.188,7.842-4.78,13.428-4.78
	c5.615,0,10.138,1.631,13.556,4.888c3.418,3.262,5.137,7.231,5.137,11.914c0,2.979-0.791,5.576-2.354,7.783
	c-1.563,2.207-3.937,3.911-7.13,5.112c3.955,1.284,6.953,3.364,9.015,6.226c2.069,2.871,3.096,6.289,3.096,10.269
	c0,5.498-1.943,10.117-5.83,13.862c-3.896,3.74-9.014,5.615-15.361,5.615c-6.338,0-11.454-1.88-15.352-5.64
	c-3.887-3.755-5.83-8.442-5.83-14.058c0-4.185,1.055-7.686,3.185-10.508C817.891,174.7,820.908,172.776,824.824,171.755z
	 M820.703,188.074c0,2.251,0.527,4.429,1.602,6.533c1.064,2.109,2.656,3.74,4.756,4.893c2.081,1.149,4.421,1.746,6.798,1.733
	c3.778,0,6.895-1.211,9.346-3.643c2.461-2.427,3.69-5.513,3.69-9.253c0-3.804-1.27-6.948-3.799-9.434
	c-2.528-2.486-5.692-3.726-9.502-3.726c-3.711,0-6.787,1.226-9.229,3.682C821.923,181.315,820.703,184.387,820.703,188.074
	L820.703,188.074z M823.242,158.376c0,3.042,0.986,5.527,2.938,7.456c1.964,1.929,4.502,2.896,7.638,2.896
	c3.037,0,5.537-0.957,7.479-2.876c1.943-1.914,2.92-4.258,2.92-7.036c0-2.896-1.006-5.332-3.008-7.305
	c-2.002-1.978-4.502-2.964-7.479-2.964c-3.019,0-5.519,0.967-7.5,2.896C824.238,153.376,823.242,155.686,823.242,158.376
	L823.242,158.376z M837.988,296.467v-15.396h-27.9v-7.241l29.346-41.67h6.445v41.67h8.691v7.241h-8.691v15.396H837.988z
	 M837.988,273.831v-28.994l-20.138,28.994H837.988z"/>
</svg>
