<?xml version="1.0" encoding="utf-8"?>
<!-- Generator: Adobe Illustrator 16.0.3, SVG Export Plug-In . SVG Version: 6.00 Build 0)  -->
<!DOCTYPE svg PUBLIC "-//W3C//DTD SVG 1.1//EN" "http://www.w3.org/Graphics/SVG/1.1/DTD/svg11.dtd">
<svg version="1.1" id="Layer_1" xmlns="http://www.w3.org/2000/svg" xmlns:xlink="http://www.w3.org/1999/xlink" x="0px" y="0px"
	 width="900px" height="900px" viewBox="0 0 900 900" enable-background="new 0 0 900 900" xml:space="preserve">
<path d="M86.382,163.558H72.544V75.374c-3.34,3.179-7.705,6.357-13.115,9.536c-5.4,3.179-10.264,5.562-14.561,7.148V78.68
	c7.734-3.638,14.502-8.042,20.293-13.223c5.791-5.176,9.893-10.195,12.305-15.068h8.916V163.558L86.382,163.558z M121.821,134.036
	l14.531-1.23c1.074,7.075,3.574,12.393,7.5,15.952c3.916,3.564,8.643,5.342,14.18,5.342c6.66,0,12.305-2.51,16.914-7.534
	c4.609-5.02,6.924-11.685,6.924-19.985c0-7.896-2.217-14.121-6.65-18.682c-4.434-4.565-10.244-6.846-17.412-6.846
	c-4.463,0-8.486,1.016-12.07,3.037c-3.594,2.026-6.416,4.653-8.457,7.881l-12.998-1.689L135.2,52.391h56.045v13.223h-44.971
	L140.2,95.901c6.758-4.712,13.857-7.07,21.289-7.07c9.844,0,18.145,3.408,24.912,10.225s10.146,15.581,10.146,26.294
	c0,10.2-2.969,19.014-8.916,26.445c-7.227,9.121-17.09,13.687-29.6,13.687c-10.254,0-18.613-2.871-25.098-8.613
	C126.45,151.131,122.749,143.519,121.821,134.036L121.821,134.036z M174.263,662.453v-74.092h27.949
	c4.922,0,8.672,0.233,11.27,0.703c3.643,0.604,6.689,1.758,9.15,3.457c2.461,1.698,4.443,4.081,5.938,7.147
	c1.504,3.066,2.246,6.445,2.246,10.117c0,6.299-2.002,11.631-6.006,15.996c-4.014,4.364-11.26,6.543-21.738,6.543h-19.004v30.127
	L174.263,662.453L174.263,662.453z M184.067,623.586h19.16c6.328,0,10.83-1.182,13.486-3.545c2.666-2.354,3.994-5.674,3.994-9.951
	c0-3.096-0.781-5.752-2.344-7.959c-1.572-2.207-3.633-3.672-6.191-4.375c-1.65-0.438-4.707-0.664-9.15-0.664h-18.955V623.586
	L184.067,623.586z M242.144,662.453v-74.092h9.092v26.582c4.248-4.922,9.609-7.384,16.074-7.384c3.975,0,7.432,0.781,10.361,2.354
	c2.939,1.563,5.029,3.729,6.299,6.494c1.26,2.764,1.895,6.776,1.895,12.031v34.014h-9.102v-34.014c0-4.552-0.986-7.861-2.959-9.941
	c-1.963-2.07-4.756-3.105-8.359-3.105c-2.695,0-5.234,0.703-7.607,2.101c-2.373,1.396-4.072,3.291-5.078,5.692
	c-1.016,2.384-1.523,5.685-1.523,9.902v29.365H242.144z M296.323,635.607c0-9.933,2.764-17.295,8.291-22.08
	c4.609-3.976,10.244-5.968,16.885-5.968c7.373,0,13.408,2.423,18.086,7.257c4.688,4.834,7.031,11.514,7.031,20.039
	c0,6.903-1.035,12.344-3.105,16.299c-2.08,3.965-5.088,7.03-9.053,9.229c-3.955,2.188-8.281,3.281-12.959,3.281
	c-7.52,0-13.594-2.412-18.223-7.227C298.638,651.623,296.323,644.68,296.323,635.607L296.323,635.607z M305.669,635.607
	c0,6.875,1.504,12.03,4.502,15.448s6.777,5.127,11.328,5.127c4.512,0,8.271-1.719,11.27-5.146c2.998-3.438,4.492-8.682,4.492-15.723
	c0-6.642-1.504-11.671-4.521-15.099c-3.018-3.418-6.768-5.117-11.24-5.117c-4.551,0-8.33,1.699-11.328,5.099
	C307.174,623.596,305.669,628.732,305.669,635.607L305.669,635.607z M353.647,646.428l8.994-1.406
	c0.508,3.595,1.914,6.367,4.229,8.281c2.305,1.924,5.527,2.881,9.678,2.881c4.18,0,7.275-0.85,9.297-2.549s3.037-3.701,3.037-5.996
	c0-2.051-0.898-3.672-2.686-4.844c-1.24-0.811-4.346-1.836-9.297-3.086c-6.67-1.68-11.299-3.145-13.877-4.375
	s-4.531-2.93-5.859-5.098c-1.338-2.179-2.002-4.58-2.002-7.207c0-2.394,0.547-4.609,1.65-6.642c1.07-2.024,2.603-3.768,4.473-5.088
	c1.416-1.045,3.34-1.924,5.781-2.646c2.441-0.732,5.068-1.095,7.861-1.095c4.209,0,7.91,0.605,11.094,1.816s5.537,2.861,7.051,4.932
	c1.514,2.08,2.559,4.845,3.135,8.312l-8.896,1.211c-0.4-2.754-1.572-4.912-3.516-6.465c-1.934-1.543-4.668-2.324-8.213-2.324
	c-4.18,0-7.158,0.693-8.945,2.07c-1.787,1.387-2.676,3.008-2.676,4.854c0,1.182,0.371,2.236,1.113,3.193
	c0.742,0.977,1.904,1.776,3.486,2.422c0.908,0.332,3.584,1.113,8.037,2.324c6.436,1.719,10.928,3.125,13.467,4.219
	c2.549,1.094,4.541,2.686,5.996,4.775c1.445,2.09,2.168,4.678,2.168,7.782c0,3.027-0.879,5.89-2.656,8.574
	c-1.768,2.676-4.316,4.746-7.656,6.211c-3.33,1.465-7.109,2.197-11.318,2.197c-6.973,0-12.295-1.445-15.947-4.346
	C356.987,656.428,354.663,652.131,353.647,646.428L353.647,646.428z M409.048,683.029v-74.258h8.291v6.973
	c1.953-2.725,4.16-4.766,6.621-6.133c2.451-1.367,5.439-2.052,8.945-2.052c4.58,0,8.623,1.183,12.129,3.535
	c3.506,2.363,6.151,5.685,7.938,9.98c1.777,4.297,2.677,9.014,2.677,14.131c0,5.498-0.986,10.438-2.96,14.834
	c-1.973,4.395-4.834,7.772-8.594,10.117c-3.76,2.344-7.705,3.506-11.854,3.506c-3.027,0-5.752-0.635-8.154-1.924
	c-2.412-1.271-4.395-2.892-5.947-4.845v26.134L409.048,683.029L409.048,683.029z M417.28,635.92c0,6.904,1.405,12.012,4.198,15.313
	c2.794,3.301,6.183,4.95,10.156,4.95c4.043,0,7.51-1.709,10.392-5.127c2.881-3.418,4.315-8.721,4.315-15.897
	c0-6.836-1.406-11.963-4.219-15.371c-2.813-3.398-6.172-5.099-10.078-5.099c-3.877,0-7.305,1.816-10.293,5.431
	C418.774,623.742,417.28,629.006,417.28,635.92L417.28,635.92z M466.616,662.453v-74.092h9.092v26.582
	c4.248-4.922,9.609-7.384,16.074-7.384c3.975,0,7.432,0.781,10.36,2.354c2.939,1.563,5.029,3.729,6.3,6.494
	c1.26,2.764,1.895,6.776,1.895,12.031v34.014h-9.102v-34.014c0-4.552-0.986-7.861-2.959-9.941c-1.964-2.07-4.757-3.105-8.359-3.105
	c-2.695,0-5.234,0.703-7.607,2.101c-2.372,1.396-4.071,3.291-5.077,5.692c-1.017,2.384-1.523,5.685-1.523,9.902v29.365H466.616z
	 M520.796,635.607c0-9.933,2.764-17.295,8.291-22.08c4.609-3.976,10.244-5.968,16.885-5.968c7.373,0,13.408,2.423,18.086,7.257
	c4.688,4.834,7.031,11.514,7.031,20.039c0,6.903-1.035,12.344-3.104,16.299c-2.08,3.965-5.088,7.03-9.054,9.229
	c-3.954,2.188-8.28,3.281-12.959,3.281c-7.52,0-13.594-2.412-18.223-7.227C523.11,651.623,520.796,644.68,520.796,635.607
	L520.796,635.607z M530.142,635.607c0,6.875,1.505,12.03,4.503,15.448c2.997,3.418,6.776,5.127,11.327,5.127
	c4.513,0,8.271-1.719,11.271-5.146c2.998-3.438,4.492-8.682,4.492-15.723c0-6.642-1.504-11.671-4.521-15.099
	c-3.018-3.418-6.768-5.117-11.24-5.117c-4.551,0-8.33,1.699-11.327,5.099C531.647,623.596,530.143,628.732,530.142,635.607
	L530.142,635.607z M581.646,662.453v-53.682h8.192v8.145c2.09-3.809,4.015-6.328,5.781-7.539c1.777-1.211,3.721-1.816,5.84-1.816
	c3.066,0,6.183,0.978,9.355,2.931l-3.136,8.438c-2.227-1.309-4.453-1.963-6.67-1.963c-1.992,0-3.778,0.597-5.36,1.787
	c-1.582,1.201-2.716,2.861-3.39,4.98c-1.006,3.241-1.514,6.776-1.514,10.625v28.096L581.646,662.453L581.646,662.453z
	 M651.401,662.453v-7.881c-4.181,6.055-9.854,9.092-17.031,9.092c-3.174,0-6.123-0.605-8.877-1.816
	c-2.744-1.221-4.785-2.744-6.113-4.58s-2.266-4.082-2.803-6.737c-0.371-1.797-0.557-4.619-0.557-8.496v-33.262h9.102v29.774
	c0,4.756,0.186,7.949,0.557,9.601c0.566,2.401,1.777,4.276,3.634,5.645c1.854,1.357,4.149,2.041,6.875,2.041
	c2.733,0,5.293-0.693,7.686-2.1c2.393-1.396,4.082-3.302,5.078-5.703c0.996-2.422,1.494-5.918,1.494-10.488v-28.77h9.092v53.682
	L651.401,662.453L651.401,662.453z M670.151,646.428l8.994-1.406c0.508,3.595,1.913,6.367,4.229,8.281
	c2.305,1.924,5.527,2.881,9.678,2.881c4.181,0,7.275-0.85,9.297-2.549c2.022-1.699,3.037-3.701,3.037-5.996
	c0-2.051-0.897-3.672-2.686-4.844c-1.24-0.811-4.346-1.836-9.297-3.086c-6.67-1.68-11.299-3.145-13.877-4.375
	s-4.531-2.93-5.859-5.098c-1.338-2.179-2.002-4.58-2.002-7.207c0-2.394,0.547-4.609,1.65-6.642c1.069-2.024,2.603-3.768,4.473-5.088
	c1.416-1.045,3.34-1.924,5.781-2.646c2.44-0.732,5.067-1.095,7.86-1.095c4.209,0,7.91,0.605,11.095,1.816
	c3.184,1.211,5.537,2.861,7.051,4.932c1.514,2.08,2.559,4.845,3.135,8.312l-8.896,1.211c-0.4-2.754-1.572-4.912-3.517-6.465
	c-1.934-1.543-4.668-2.324-8.213-2.324c-4.18,0-7.158,0.693-8.944,2.07c-1.787,1.387-2.677,3.008-2.677,4.854
	c0,1.182,0.371,2.236,1.113,3.193c0.742,0.977,1.904,1.776,3.486,2.422c0.907,0.332,3.584,1.113,8.036,2.324
	c6.437,1.719,10.929,3.125,13.468,4.219c2.549,1.094,4.541,2.686,5.996,4.775c1.444,2.09,2.168,4.678,2.168,7.782
	c0,3.027-0.88,5.89-2.656,8.574c-1.769,2.676-4.316,4.746-7.656,6.211c-3.33,1.465-7.108,2.197-11.317,2.197
	c-6.974,0-12.296-1.445-15.947-4.346C673.491,656.428,671.167,652.131,670.151,646.428z M54.517,828.732l9.102-1.211
	c1.045,5.155,2.822,8.866,5.332,11.151c2.51,2.267,5.566,3.408,9.17,3.408c4.277,0,7.891-1.484,10.84-4.443
	c2.949-2.969,4.424-6.641,4.424-11.024c0-4.17-1.357-7.627-4.092-10.342c-2.725-2.705-6.201-4.063-10.41-4.063
	c-1.719,0-3.857,0.332-6.416,1.016l1.006-7.987c0.486,0.055,0.975,0.087,1.465,0.098c3.877,0,7.363-1.016,10.469-3.027
	c3.096-2.03,4.648-5.137,4.648-9.354c0-3.34-1.133-6.094-3.389-8.291c-2.256-2.188-5.176-3.291-8.74-3.291
	c-3.545,0-6.494,1.113-8.848,3.34c-2.363,2.228-3.877,5.566-4.551,10.01l-9.102-1.61c1.113-6.104,3.643-10.83,7.588-14.181
	c3.936-3.358,8.838-5.039,14.707-5.039c4.043,0,7.764,0.88,11.172,2.617c3.398,1.729,6.006,4.103,7.803,7.09
	c1.807,3.009,2.705,6.191,2.705,9.552c0,3.203-0.859,6.123-2.578,8.75c-1.719,2.637-4.258,4.717-7.627,6.27
	c4.375,1.017,7.783,3.105,10.205,6.289c2.432,3.185,3.643,7.168,3.643,11.953c0,6.475-2.363,11.953-7.08,16.455
	c-4.717,4.502-10.684,6.748-17.891,6.748c-6.504,0-11.904-1.935-16.201-5.812S55.122,834.904,54.517,828.732L54.517,828.732z
	 M112.036,811.76c0-8.77,0.898-15.819,2.705-21.151c1.797-5.353,4.482-9.474,8.037-12.363c3.555-2.9,8.027-4.355,13.418-4.355
	c3.975,0,7.461,0.802,10.459,2.402c2.998,1.601,5.479,3.916,7.432,6.935c1.953,3.008,3.486,6.68,4.6,11.016s1.67,10.166,1.67,17.52
	c0,8.691-0.889,15.703-2.676,21.045c-1.787,5.343-4.463,9.474-8.018,12.384c-3.555,2.92-8.047,4.375-13.467,4.375
	c-7.148,0-12.754-2.568-16.836-7.687C114.478,835.705,112.036,825.666,112.036,811.76L112.036,811.76z M121.382,811.76
	c0,12.158,1.426,20.254,4.277,24.277c2.842,4.022,6.357,6.045,10.537,6.045c4.18,0,7.695-2.021,10.537-6.064
	c2.852-4.043,4.268-12.129,4.268-24.258c0-12.207-1.416-20.313-4.268-24.315c-2.842-4.005-6.396-6.017-10.635-6.017
	c-4.18,0-7.52,1.769-10.01,5.313C122.954,791.252,121.382,799.592,121.382,811.76L121.382,811.76z M174.712,848.303v-10.371h10.361
	v10.371H174.712z M199.731,831.164l8.74-0.811c0.742,4.11,2.158,7.09,4.248,8.944c2.09,1.855,4.766,2.783,8.037,2.783
	c2.793,0,5.244-0.635,7.354-1.924c2.109-1.279,3.828-2.988,5.176-5.127c1.348-2.14,2.48-5.029,3.389-8.672
	c0.909-3.644,1.367-7.345,1.367-11.123c0-0.4-0.02-1.006-0.049-1.816c-1.826,2.9-4.307,5.254-7.461,7.051
	c-3.145,1.808-6.563,2.705-10.234,2.705c-6.133,0-11.318-2.217-15.566-6.67s-6.367-10.313-6.367-17.598
	c0-7.5,2.217-13.555,6.65-18.146c4.424-4.569,9.98-6.875,16.65-6.875c4.814,0,9.229,1.31,13.213,3.906
	c3.994,2.588,7.031,6.289,9.102,11.094c2.07,4.795,3.105,11.738,3.105,20.841c0,9.473-1.025,17.012-3.076,22.616
	c-2.061,5.615-5.117,9.884-9.18,12.813c-4.063,2.938-8.818,4.404-14.277,4.404c-5.791,0-10.527-1.611-14.199-4.834
	C202.681,841.516,200.474,836.994,199.731,831.164L199.731,831.164z M236.978,798.459c0-5.215-1.387-9.365-4.17-12.432
	c-2.773-3.066-6.123-4.601-10.029-4.601c-4.043,0-7.568,1.65-10.566,4.951c-2.998,3.312-4.502,7.588-4.502,12.842
	c0,4.717,1.426,8.556,4.277,11.504c2.842,2.949,6.357,4.414,10.537,4.414c4.209,0,7.676-1.465,10.391-4.414
	C235.62,807.775,236.978,803.684,236.978,798.459z M256.548,783.908v-8.75h47.969v7.069c-4.717,5.029-9.395,11.699-14.023,20.021
	c-4.639,8.32-8.213,16.885-10.742,25.684c-1.826,6.191-2.988,12.988-3.486,20.371h-9.355c0.098-5.84,1.25-12.871,3.438-21.133
	s5.332-16.211,9.424-23.887c4.102-7.656,8.447-14.121,13.066-19.375H256.548L256.548,783.908z M342.671,848.303v-17.744h-32.139
	v-8.34l33.809-48.018h7.432v48.018h10.01v8.34h-10.01v17.744H342.671z M342.671,822.219v-33.408l-23.193,33.408H342.671z
	 M372.612,449.964V265.076h59.913c22.694,0,37.489,0.928,44.385,2.773c10.596,2.773,19.473,8.809,26.61,18.101
	c7.148,9.287,10.724,21.294,10.724,36.006c0,11.348-2.062,20.894-6.183,28.628c-4.12,7.734-9.354,13.809-15.702,18.223
	c-6.349,4.414-12.793,7.34-19.355,8.766c-8.916,1.768-21.815,2.65-38.721,2.65h-24.336v69.741H372.612L372.612,449.964z
	 M409.946,296.355v52.461h20.43c14.717,0,24.551-0.963,29.512-2.9c4.961-1.934,8.849-4.961,11.67-9.077
	c2.813-4.121,4.22-8.911,4.22-14.38c0-6.724-1.974-12.275-5.929-16.646c-3.954-4.371-8.954-7.104-15.01-8.198
	c-4.453-0.84-13.408-1.26-26.854-1.26H409.946L409.946,296.355z M853.989,109.178v7.588h-42.5c-0.07-1.871,0.242-3.737,0.918-5.483
	c1.084-2.896,2.813-5.747,5.194-8.555c2.383-2.808,5.83-6.055,10.332-9.736c6.992-5.732,11.709-10.273,14.17-13.623
	c2.451-3.35,3.683-6.514,3.683-9.497c0-3.13-1.113-5.767-3.351-7.915c-2.245-2.153-5.155-3.228-8.76-3.228
	c-3.799,0-6.836,1.143-9.121,3.423c-2.274,2.28-3.438,5.439-3.467,9.478l-8.115-0.835c0.558-6.055,2.646-10.669,6.279-13.843
	c3.623-3.169,8.486-4.756,14.6-4.756c6.173,0,11.056,1.709,14.658,5.132c3.595,3.423,5.392,7.661,5.392,12.72
	c0,2.573-0.527,5.103-1.572,7.588c-1.055,2.485-2.803,5.107-5.244,7.852c-2.44,2.749-6.504,6.523-12.178,11.318
	c-4.736,3.979-7.773,6.675-9.121,8.096c-1.348,1.416-2.461,2.842-3.34,4.277L853.989,109.178L853.989,109.178z M824.645,171.731
	c-3.271-1.201-5.703-2.91-7.285-5.132c-1.572-2.222-2.363-4.888-2.363-7.983c0-4.683,1.68-8.613,5.039-11.802
	c3.369-3.188,7.842-4.78,13.428-4.78c5.615,0,10.137,1.631,13.555,4.888c3.419,3.262,5.138,7.231,5.138,11.914
	c0,2.979-0.791,5.576-2.354,7.783c-1.563,2.207-3.936,3.911-7.129,5.112c3.955,1.284,6.953,3.364,9.014,6.226
	c2.07,2.871,3.097,6.289,3.097,10.269c0,5.498-1.943,10.117-5.83,13.862c-3.896,3.74-9.014,5.615-15.361,5.615
	c-6.338,0-11.455-1.88-15.352-5.64c-3.888-3.755-5.83-8.442-5.83-14.058c0-4.185,1.055-7.686,3.184-10.508
	C817.71,174.676,820.729,172.752,824.645,171.731z M820.522,188.05c0,2.251,0.526,4.429,1.602,6.533
	c1.064,2.109,2.656,3.74,4.756,4.893c2.081,1.149,4.421,1.746,6.797,1.733c3.779,0,6.896-1.211,9.347-3.643
	c2.461-2.427,3.69-5.513,3.69-9.253c0-3.804-1.27-6.948-3.799-9.434c-2.529-2.486-5.693-3.726-9.502-3.726
	c-3.711,0-6.787,1.226-9.229,3.682C821.742,181.291,820.521,184.363,820.522,188.05L820.522,188.05z M823.063,158.353
	c0,3.042,0.985,5.527,2.938,7.456c1.963,1.929,4.502,2.896,7.637,2.896c3.037,0,5.537-0.957,7.48-2.876
	c1.942-1.914,2.92-4.258,2.92-7.036c0-2.896-1.006-5.332-3.008-7.305c-2.002-1.978-4.502-2.964-7.48-2.964
	c-3.018,0-5.518,0.967-7.5,2.896C824.058,153.353,823.063,155.662,823.063,158.353L823.063,158.353z M812.495,279.598l8.291-0.703
	c0.615,4.038,2.041,7.07,4.276,9.106c2.236,2.031,4.933,3.047,8.097,3.047c3.799,0,7.012-1.431,9.647-4.297
	c2.627-2.866,3.945-6.67,3.945-11.406c0-4.507-1.27-8.057-3.799-10.659s-5.84-3.906-9.932-3.906c-2.539,0-4.845,0.576-6.886,1.733
	c-2.051,1.157-3.662,2.651-4.823,4.497l-7.412-0.967l6.221-33.032h31.982v7.544H826.44l-3.468,17.285
	c3.867-2.69,7.91-4.033,12.158-4.033c5.615,0,10.353,1.943,14.209,5.83c3.857,3.892,5.791,8.892,5.791,15.005
	c0,5.82-1.699,10.85-5.088,15.088c-4.121,5.21-9.756,7.813-16.885,7.813c-5.851,0-10.625-1.641-14.326-4.917
	C815.132,289.354,813.022,285.008,812.495,279.598L812.495,279.598z"/>
</svg>
