<?xml version="1.0" encoding="utf-8"?>
<!-- Generator: Adobe Illustrator 16.0.3, SVG Export Plug-In . SVG Version: 6.00 Build 0)  -->
<!DOCTYPE svg PUBLIC "-//W3C//DTD SVG 1.1//EN" "http://www.w3.org/Graphics/SVG/1.1/DTD/svg11.dtd">
<svg version="1.1" id="Layer_1" xmlns="http://www.w3.org/2000/svg" xmlns:xlink="http://www.w3.org/1999/xlink" x="0px" y="0px"
	 width="900px" height="900px" viewBox="0 0 900 900" enable-background="new 0 0 900 900" xml:space="preserve">
<path d="M86.553,163.557H72.715V75.374c-3.34,3.179-7.705,6.357-13.115,9.536c-5.4,3.179-10.264,5.562-14.561,7.148V78.679
	c7.734-3.638,14.502-8.042,20.293-13.223c5.791-5.176,9.893-10.195,12.305-15.068h8.916V163.557z M193.799,78.45l-13.76,1.079
	c-1.23-5.435-2.969-9.38-5.225-11.841c-3.75-3.945-8.359-5.923-13.838-5.923c-4.414,0-8.281,1.23-11.611,3.691
	c-4.355,3.179-7.793,7.817-10.303,13.916c-2.51,6.099-3.818,14.79-3.926,26.064c3.33-5.073,7.412-8.843,12.227-11.304
	c4.815-2.461,9.863-3.691,15.146-3.691c9.229,0,17.08,3.398,23.564,10.19c6.484,6.792,9.727,15.566,9.727,26.328
	c0,7.075-1.523,13.647-4.58,19.722c-3.047,6.074-7.236,10.723-12.568,13.955c-5.332,3.229-11.377,4.844-18.145,4.844
	c-11.533,0-20.938-4.243-28.213-12.725s-10.918-22.461-10.918-41.938c0-21.782,4.023-37.622,12.07-47.515
	c7.021-8.608,16.475-12.915,28.369-12.915c8.867,0,16.133,2.485,21.797,7.456C189.277,62.82,192.676,69.685,193.799,78.45
	L193.799,78.45z M137.295,127.039c0,4.766,1.006,9.331,3.037,13.687c2.021,4.355,4.854,7.676,8.496,9.956
	c3.633,2.28,7.451,3.418,11.455,3.418c5.84,0,10.859-2.354,15.068-7.07c4.199-4.717,6.299-11.123,6.299-19.219
	c0-7.793-2.07-13.931-6.221-18.413c-4.16-4.487-9.385-6.729-15.684-6.729c-6.26,0-11.563,2.241-15.918,6.729
	C139.473,113.879,137.295,119.763,137.295,127.039L137.295,127.039z M311.074,638.645l9.248-0.811
	c0.439,3.711,1.465,6.758,3.057,9.121c1.602,2.383,4.092,4.297,7.461,5.762c3.369,1.476,7.158,2.207,11.367,2.207
	c3.74,0,7.051-0.557,9.912-1.67c2.861-1.113,4.99-2.637,6.396-4.58c1.396-1.934,2.09-4.043,2.09-6.338
	c0-2.324-0.674-4.354-2.021-6.084c-1.348-1.738-3.564-3.203-6.67-4.375c-1.982-0.781-6.387-1.982-13.193-3.613
	c-6.807-1.641-11.572-3.184-14.297-4.629c-3.545-1.854-6.182-4.149-7.91-6.895c-1.738-2.754-2.607-5.82-2.607-9.229
	c0-3.739,1.064-7.235,3.184-10.487c2.12-3.252,5.225-5.714,9.297-7.412c4.082-1.681,8.613-2.521,13.604-2.521
	c5.488,0,10.332,0.879,14.531,2.656c4.189,1.768,7.422,4.375,9.678,7.813c2.256,3.429,3.467,7.324,3.643,11.671l-9.404,0.713
	c-0.508-4.688-2.217-8.224-5.127-10.625c-2.92-2.384-7.227-3.584-12.92-3.584c-5.928,0-10.254,1.084-12.959,3.262
	c-2.715,2.178-4.072,4.795-4.072,7.861c0,2.655,0.957,4.844,2.881,6.563c1.885,1.719,6.816,3.486,14.785,5.293
	c7.969,1.797,13.438,3.379,16.396,4.728c4.316,1.981,7.5,4.502,9.561,7.549c2.051,3.057,3.076,6.563,3.076,10.537
	c0,3.944-1.123,7.655-3.379,11.151c-2.266,3.478-5.508,6.191-9.736,8.136c-4.229,1.934-8.984,2.899-14.277,2.899
	c-6.709,0-12.324-0.977-16.855-2.93s-8.086-4.894-10.664-8.818S311.211,643.596,311.074,638.645L311.074,638.645z M417.471,662.453
	v-7.881c-4.18,6.055-9.854,9.092-17.03,9.092c-3.175,0-6.124-0.605-8.877-1.816c-2.744-1.221-4.785-2.744-6.113-4.58
	c-1.328-1.836-2.266-4.082-2.803-6.737c-0.371-1.797-0.557-4.619-0.557-8.496v-33.262h9.102v29.774c0,4.756,0.186,7.949,0.557,9.601
	c0.566,2.401,1.777,4.276,3.633,5.645c1.855,1.357,4.15,2.041,6.875,2.041c2.734,0,5.293-0.693,7.687-2.1
	c2.393-1.396,4.082-3.302,5.077-5.703c0.996-2.422,1.494-5.918,1.494-10.488v-28.77h9.093v53.682L417.471,662.453L417.471,662.453z
	 M439.658,662.453v-74.092h9.102v74.092H439.658z M465.029,662.453v-46.603h-8.037v-7.079h8.037v-5.703
	c0-3.613,0.321-6.289,0.967-8.047c0.869-2.354,2.412-4.269,4.619-5.732s5.303-2.197,9.276-2.197c2.56,0,5.392,0.303,8.496,0.908
	l-1.366,7.939c-1.896-0.343-3.673-0.509-5.361-0.509c-2.764,0-4.717,0.586-5.859,1.769c-1.151,1.182-1.719,3.389-1.719,6.621v4.951
	h10.459v7.079h-10.459v46.603H465.029z M526.797,662.453v-7.881c-4.18,6.055-9.854,9.092-17.031,9.092
	c-3.174,0-6.123-0.605-8.877-1.816c-2.744-1.221-4.785-2.744-6.112-4.58c-1.328-1.836-2.267-4.082-2.804-6.737
	c-0.371-1.797-0.557-4.619-0.557-8.496v-33.262h9.102v29.774c0,4.756,0.187,7.949,0.558,9.601c0.565,2.401,1.776,4.276,3.633,5.645
	c1.854,1.357,4.149,2.041,6.875,2.041c2.734,0,5.293-0.693,7.686-2.1c2.394-1.396,4.082-3.302,5.078-5.703
	c0.996-2.422,1.494-5.918,1.494-10.488v-28.77h9.092v53.682L526.797,662.453L526.797,662.453z M549.092,662.453v-53.682h8.193v8.145
	c2.09-3.809,4.014-6.328,5.781-7.539c1.776-1.211,3.721-1.816,5.84-1.816c3.065,0,6.182,0.978,9.354,2.931l-3.135,8.438
	c-2.227-1.309-4.453-1.963-6.67-1.963c-1.992,0-3.779,0.597-5.361,1.787c-1.582,1.201-2.715,2.861-3.389,4.98
	c-1.006,3.241-1.514,6.776-1.514,10.625v28.096L549.092,662.453L549.092,662.453z M54.697,828.732l9.102-1.211
	c1.045,5.155,2.822,8.866,5.332,11.151c2.51,2.267,5.566,3.408,9.17,3.408c4.277,0,7.891-1.484,10.84-4.443
	c2.949-2.969,4.424-6.641,4.424-11.024c0-4.17-1.357-7.627-4.092-10.342c-2.725-2.705-6.201-4.063-10.41-4.063
	c-1.719,0-3.857,0.332-6.416,1.016l1.006-7.987c0.487,0.055,0.976,0.087,1.465,0.098c3.877,0,7.363-1.016,10.469-3.027
	c3.096-2.03,4.648-5.137,4.648-9.354c0-3.34-1.133-6.094-3.389-8.291c-2.256-2.188-5.176-3.291-8.74-3.291
	c-3.545,0-6.494,1.113-8.848,3.34c-2.363,2.228-3.877,5.566-4.551,10.01l-9.102-1.61c1.113-6.104,3.643-10.83,7.588-14.181
	c3.936-3.358,8.838-5.039,14.707-5.039c4.043,0,7.764,0.88,11.172,2.617c3.398,1.729,6.006,4.103,7.803,7.09
	c1.807,3.009,2.705,6.191,2.705,9.552c0,3.203-0.859,6.123-2.578,8.75c-1.719,2.637-4.258,4.717-7.627,6.27
	c4.375,1.017,7.783,3.105,10.205,6.289c2.432,3.185,3.643,7.168,3.643,11.953c0,6.475-2.363,11.953-7.08,16.455
	c-4.717,4.502-10.684,6.748-17.891,6.748c-6.504,0-11.904-1.935-16.201-5.812C57.754,839.925,55.303,834.904,54.697,828.732
	L54.697,828.732z M160.029,839.553v8.75h-48.975c-0.076-2.159,0.286-4.312,1.064-6.328c1.24-3.33,3.242-6.621,5.986-9.854
	c2.744-3.233,6.709-6.973,11.904-11.221c8.047-6.603,13.496-11.836,16.328-15.693c2.822-3.857,4.238-7.51,4.238-10.947
	c0-3.594-1.289-6.641-3.867-9.121c-2.578-2.479-5.938-3.711-10.078-3.711c-4.385,0-7.891,1.31-10.518,3.945
	c-2.627,2.627-3.955,6.27-3.994,10.918l-9.346-0.957c0.635-6.982,3.047-12.305,7.227-15.957s9.785-5.488,16.836-5.488
	c7.109,0,12.734,1.974,16.875,5.918c4.15,3.945,6.221,8.828,6.221,14.669c0,2.959-0.605,5.879-1.816,8.729
	c-1.221,2.871-3.232,5.889-6.045,9.053c-2.813,3.174-7.49,7.511-14.023,13.037c-5.459,4.59-8.965,7.695-10.518,9.336
	c-1.553,1.631-2.832,3.271-3.838,4.922H160.029L160.029,839.553z M174.893,848.303v-10.371h10.361v10.371H174.893z M198.545,811.76
	c0-8.77,0.898-15.819,2.705-21.151c1.797-5.353,4.482-9.474,8.037-12.363c3.555-2.9,8.027-4.355,13.418-4.355
	c3.975,0,7.461,0.802,10.459,2.402s5.479,3.916,7.432,6.935c1.953,3.008,3.486,6.68,4.6,11.016c1.114,4.336,1.67,10.166,1.67,17.52
	c0,8.691-0.889,15.703-2.676,21.045c-1.787,5.343-4.463,9.474-8.018,12.384c-3.555,2.92-8.047,4.375-13.467,4.375
	c-7.148,0-12.754-2.568-16.836-7.687C200.986,835.705,198.545,825.666,198.545,811.76L198.545,811.76z M207.891,811.76
	c0,12.158,1.426,20.254,4.277,24.277c2.842,4.022,6.357,6.045,10.537,6.045c4.18,0,7.695-2.021,10.537-6.064
	c2.852-4.043,4.268-12.129,4.268-24.258c0-12.207-1.416-20.313-4.268-24.315c-2.842-4.005-6.396-6.017-10.635-6.017
	c-4.18,0-7.52,1.769-10.01,5.313C209.463,791.252,207.891,799.592,207.891,811.76L207.891,811.76z M303.33,792.346l-9.043,0.703
	c-0.811-3.574-1.953-6.162-3.438-7.772c-2.461-2.599-5.498-3.906-9.102-3.906c-2.9,0-5.439,0.82-7.627,2.432
	c-2.871,2.09-5.127,5.146-6.777,9.15c-1.65,4.004-2.51,9.727-2.578,17.129c2.188-3.33,4.873-5.801,8.037-7.422
	c3.164-1.621,6.484-2.422,9.961-2.422c6.064,0,11.221,2.227,15.488,6.688c4.258,4.463,6.396,10.234,6.396,17.314
	c0,4.647-1.006,8.965-3.008,12.969c-2.012,3.984-4.766,7.051-8.262,9.17c-3.506,2.119-7.49,3.185-11.934,3.185
	c-7.578,0-13.77-2.783-18.545-8.369c-4.795-5.566-7.178-14.767-7.178-27.568c0-14.326,2.637-24.736,7.93-31.24
	c4.619-5.664,10.83-8.495,18.652-8.495c5.83,0,10.605,1.641,14.326,4.911C300.361,782.072,302.588,786.584,303.33,792.346
	L303.33,792.346z M266.182,824.289c0,3.135,0.664,6.133,1.992,8.994c1.338,2.871,3.193,5.049,5.586,6.543
	c2.393,1.504,4.902,2.256,7.529,2.256c3.848,0,7.148-1.553,9.912-4.658c2.764-3.086,4.141-7.305,4.141-12.627
	c0-5.127-1.357-9.16-4.092-12.109c-2.725-2.938-6.162-4.424-10.313-4.424c-4.111,0-7.598,1.484-10.459,4.424
	C267.617,815.637,266.182,819.504,266.182,824.289z M313.691,828.889l9.551-0.811c0.713,4.658,2.354,8.154,4.932,10.488
	c2.578,2.344,5.684,3.516,9.326,3.516c4.375,0,8.086-1.65,11.113-4.951c3.037-3.301,4.551-7.686,4.551-13.145
	c0-5.195-1.455-9.277-4.365-12.285c-2.92-2.998-6.738-4.492-11.455-4.492c-2.93,0-5.576,0.664-7.93,1.992
	c-2.363,1.328-4.219,3.057-5.566,5.176l-8.535-1.113l7.178-38.047h36.846v8.691h-29.57l-3.994,19.912
	c4.443-3.097,9.111-4.658,14.004-4.658c6.465,0,11.924,2.246,16.377,6.729c4.443,4.482,6.67,10.244,6.67,17.285
	c0,6.709-1.953,12.51-5.869,17.394c-4.746,5.995-11.23,8.993-19.453,8.993c-6.738,0-12.246-1.885-16.504-5.663
	C316.729,840.129,314.297,835.119,313.691,828.889L313.691,828.889z M360.986,389.807l36.318-3.535
	c2.188,12.192,6.621,21.147,13.301,26.865c6.689,5.718,15.703,8.574,27.062,8.574c12.021,0,21.074-2.539,27.178-7.627
	c6.094-5.088,9.142-11.035,9.142-17.847c0-4.37-1.279-8.092-3.849-11.162c-2.567-3.066-7.041-5.737-13.428-8.008
	c-4.375-1.515-14.336-4.204-29.893-8.071c-20.011-4.961-34.054-11.055-42.12-18.286c-11.357-10.176-17.031-22.578-17.031-37.207
	c0-9.414,2.666-18.223,8.008-26.421c5.342-8.198,13.037-14.438,23.086-18.726c10.039-4.292,22.168-6.436,36.377-6.436
	c23.213,0,40.674,5.088,52.402,15.264c11.729,10.171,17.891,23.75,18.477,40.732l-37.323,1.641
	c-1.603-9.502-5.029-16.333-10.283-20.493c-5.254-4.165-13.136-6.245-23.644-6.245c-10.85,0-19.346,2.231-25.479,6.685
	c-3.955,2.861-5.928,6.685-5.928,11.479c0,4.37,1.846,8.115,5.547,11.222c4.707,3.955,16.143,8.071,34.307,12.363
	c18.164,4.286,31.592,8.721,40.293,13.306c8.701,4.58,15.508,10.845,20.43,18.789c4.922,7.943,7.384,17.764,7.384,29.448
	c0,10.596-2.949,20.518-8.828,29.766c-5.89,9.248-14.209,16.123-24.972,20.62c-10.771,4.498-24.18,6.748-40.233,6.748
	c-23.379,0-41.328-5.405-53.857-16.206C370.898,426.232,363.418,410.491,360.986,389.807L360.986,389.807z M854.17,109.177v7.588
	h-42.5c-0.07-1.871,0.242-3.737,0.918-5.483c1.084-2.896,2.813-5.747,5.195-8.555s5.83-6.055,10.332-9.736
	c6.992-5.732,11.709-10.273,14.17-13.623c2.451-3.35,3.682-6.514,3.682-9.497c0-3.13-1.113-5.767-3.35-7.915
	c-2.246-2.153-5.156-3.228-8.76-3.228c-3.8,0-6.837,1.143-9.121,3.423c-2.275,2.28-3.438,5.439-3.468,9.478l-8.114-0.835
	c0.557-6.055,2.646-10.669,6.278-13.843c3.623-3.169,8.486-4.756,14.601-4.756c6.172,0,11.055,1.709,14.658,5.132
	c3.594,3.423,5.391,7.661,5.391,12.72c0,2.573-0.527,5.103-1.572,7.588c-1.055,2.485-2.803,5.107-5.244,7.852
	c-2.44,2.749-6.504,6.523-12.178,11.318c-4.736,3.979-7.773,6.675-9.121,8.096c-1.348,1.416-2.461,2.842-3.34,4.277L854.17,109.177
	L854.17,109.177z M824.824,171.731c-3.271-1.201-5.703-2.91-7.285-5.132c-1.572-2.222-2.363-4.888-2.363-7.983
	c0-4.683,1.68-8.613,5.039-11.802c3.369-3.188,7.842-4.78,13.428-4.78c5.615,0,10.138,1.631,13.556,4.888
	c3.418,3.262,5.137,7.231,5.137,11.914c0,2.979-0.791,5.576-2.354,7.783c-1.563,2.207-3.936,3.911-7.129,5.112
	c3.955,1.284,6.953,3.364,9.015,6.226c2.069,2.871,3.096,6.289,3.096,10.269c0,5.498-1.943,10.117-5.83,13.862
	c-3.896,3.74-9.014,5.615-15.361,5.615c-6.338,0-11.455-1.88-15.352-5.64c-3.887-3.755-5.83-8.442-5.83-14.058
	c0-4.185,1.055-7.686,3.184-10.508C817.891,174.675,820.908,172.751,824.824,171.731z M820.703,188.049
	c0,2.251,0.526,4.429,1.602,6.533c1.064,2.109,2.656,3.74,4.756,4.893c2.081,1.149,4.421,1.746,6.797,1.733
	c3.779,0,6.896-1.211,9.347-3.643c2.461-2.427,3.69-5.513,3.69-9.253c0-3.804-1.27-6.948-3.799-9.434s-5.692-3.726-9.502-3.726
	c-3.711,0-6.787,1.226-9.229,3.682C821.923,181.29,820.703,184.363,820.703,188.049L820.703,188.049z M823.242,158.352
	c0,3.042,0.985,5.527,2.938,7.456c1.963,1.929,4.502,2.896,7.638,2.896c3.037,0,5.537-0.957,7.479-2.876
	c1.943-1.914,2.92-4.258,2.92-7.036c0-2.896-1.006-5.332-3.008-7.305c-2.002-1.978-4.502-2.964-7.479-2.964
	c-3.019,0-5.519,0.967-7.5,2.896C824.238,153.352,823.242,155.662,823.242,158.352L823.242,158.352z M853.643,247.883l-7.852,0.615
	c-0.703-3.101-1.689-5.352-2.979-6.758c-2.139-2.251-4.766-3.379-7.899-3.379c-2.51,0-4.717,0.703-6.621,2.109
	c-2.49,1.813-4.443,4.458-5.879,7.939c-1.437,3.477-2.178,8.438-2.236,14.868c1.904-2.896,4.229-5.044,6.973-6.445
	c2.755-1.406,5.636-2.109,8.644-2.109c5.264,0,9.746,1.938,13.447,5.815c3.7,3.872,5.547,8.882,5.547,15.024
	c0,4.033-0.869,7.783-2.607,11.25c-1.737,3.467-4.131,6.118-7.178,7.964c-3.037,1.841-6.484,2.764-10.352,2.764
	c-6.582,0-11.943-2.422-16.095-7.261c-4.16-4.839-6.229-12.817-6.229-23.931c0-12.427,2.295-21.465,6.885-27.109
	c4.004-4.912,9.404-7.368,16.191-7.368c5.059,0,9.198,1.416,12.432,4.253S852.998,242.883,853.643,247.883L853.643,247.883z
	 M821.406,275.608c0,2.72,0.576,5.322,1.729,7.808c1.153,2.486,2.773,4.38,4.854,5.679c2.069,1.304,4.248,1.953,6.532,1.953
	c3.33,0,6.201-1.343,8.595-4.038c2.401-2.69,3.604-6.343,3.604-10.967c0-4.443-1.19-7.944-3.555-10.503
	c-2.373-2.559-5.353-3.838-8.955-3.838c-3.564,0-6.592,1.279-9.072,3.838C822.646,268.098,821.406,271.453,821.406,275.608z"/>
</svg>
