<?xml version="1.0" encoding="utf-8"?>
<!-- Generator: Adobe Illustrator 16.0.3, SVG Export Plug-In . SVG Version: 6.00 Build 0)  -->
<!DOCTYPE svg PUBLIC "-//W3C//DTD SVG 1.1//EN" "http://www.w3.org/Graphics/SVG/1.1/DTD/svg11.dtd">
<svg version="1.1" id="Layer_1" xmlns="http://www.w3.org/2000/svg" xmlns:xlink="http://www.w3.org/1999/xlink" x="0px" y="0px"
	 width="900px" height="900px" viewBox="0 0 900 900" enable-background="new 0 0 900 900" xml:space="preserve">
<path d="M86.553,163.557H72.715V75.374c-3.34,3.179-7.705,6.357-13.115,9.536c-5.4,3.179-10.264,5.562-14.561,7.148V78.679
	c7.734-3.638,14.502-8.042,20.293-13.223c5.791-5.176,9.893-10.195,12.305-15.068h8.916V163.557z M122.92,65.613V52.312h72.959
	v10.762c-7.178,7.637-14.287,17.788-21.338,30.444c-7.051,12.661-12.49,25.679-16.338,39.058
	c-2.764,9.429-4.531,19.756-5.303,30.981h-14.219c0.146-8.867,1.895-19.58,5.225-32.134c3.33-12.559,8.105-24.668,14.336-36.328
	c6.231-11.66,12.852-21.489,19.873-29.482L122.92,65.613L122.92,65.613z M310.781,636.486l9.805,2.479
	c-2.061,8.047-5.752,14.199-11.094,18.418c-5.342,4.238-11.875,6.349-19.59,6.349c-7.988,0-14.482-1.621-19.482-4.884
	c-5.01-3.241-8.818-7.959-11.426-14.121c-2.607-6.172-3.916-12.793-3.916-19.862c0-7.715,1.475-14.453,4.424-20.195
	c2.949-5.742,7.139-10.107,12.588-13.086c5.439-2.988,11.426-4.473,17.969-4.473c7.412,0,13.643,1.875,18.701,5.653
	c5.049,3.779,8.574,9.082,10.557,15.929l-9.648,2.266c-1.719-5.391-4.219-9.316-7.48-11.777c-3.271-2.461-7.383-3.69-12.334-3.69
	c-5.693,0-10.459,1.367-14.277,4.102c-3.828,2.734-6.514,6.388-8.066,10.996c-1.549,4.58-2.334,9.384-2.324,14.219
	c0,6.31,0.918,11.808,2.754,16.504c1.836,4.707,4.697,8.224,8.564,10.548c3.877,2.323,8.076,3.477,12.588,3.477
	c5.498,0,10.146-1.582,13.955-4.746S309.434,642.717,310.781,636.486L310.781,636.486z M331.504,662.463v-74.092h9.092v26.582
	c4.248-4.912,9.609-7.373,16.074-7.373c3.975,0,7.432,0.781,10.361,2.344c2.939,1.563,5.029,3.73,6.299,6.504
	c1.26,2.754,1.895,6.769,1.895,12.021v34.014h-9.102v-34.014c0-4.541-0.986-7.861-2.959-9.933c-1.963-2.069-4.756-3.104-8.359-3.104
	c-2.695,0-5.234,0.703-7.607,2.09c-2.373,1.406-4.072,3.301-5.078,5.693c-1.016,2.393-1.523,5.692-1.523,9.912v29.354
	L331.504,662.463L331.504,662.463z M388.867,662.463v-74.092h9.102v74.092H388.867z M408.682,635.627
	c0-9.941,2.765-17.305,8.291-22.09c4.609-3.976,10.244-5.957,16.886-5.957c7.373,0,13.407,2.412,18.086,7.246
	c4.688,4.844,7.03,11.522,7.03,20.039c0,6.914-1.034,12.344-3.104,16.309c-2.08,3.955-5.088,7.031-9.053,9.219
	c-3.955,2.188-8.281,3.281-12.959,3.281c-7.521,0-13.595-2.402-18.224-7.227C410.996,651.633,408.682,644.689,408.682,635.627
	L408.682,635.627z M418.027,635.627c0,6.875,1.504,12.021,4.502,15.449c2.998,3.418,6.776,5.117,11.328,5.117
	c4.512,0,8.271-1.72,11.27-5.146c2.998-3.438,4.492-8.682,4.492-15.723c0-6.631-1.504-11.67-4.521-15.088
	c-3.017-3.418-6.768-5.127-11.239-5.127c-4.552,0-8.33,1.698-11.328,5.106C419.531,623.615,418.027,628.752,418.027,635.627
	L418.027,635.627z M469.531,662.463v-53.672h8.192v8.135c2.091-3.809,4.015-6.317,5.781-7.529c1.777-1.211,3.721-1.815,5.84-1.815
	c3.066,0,6.183,0.977,9.355,2.93l-3.135,8.438c-2.228-1.31-4.453-1.974-6.671-1.974c-1.991,0-3.778,0.605-5.36,1.798
	c-1.582,1.191-2.715,2.852-3.39,4.979c-1.006,3.232-1.514,6.777-1.514,10.615v28.096L469.531,662.463L469.531,662.463z
	 M504.16,598.83v-10.459h9.102v10.459H504.16z M504.16,662.463v-53.672h9.102v53.672H504.16z M527.109,662.463v-53.672h8.184v7.637
	c3.945-5.897,9.639-8.848,17.09-8.848c3.232,0,6.201,0.576,8.916,1.738c2.715,1.161,4.746,2.694,6.094,4.569
	c1.349,1.896,2.285,4.142,2.832,6.729c0.332,1.688,0.498,4.639,0.498,8.838v33.008h-9.092v-32.646c0-3.701-0.352-6.476-1.063-8.312
	c-0.703-1.836-1.964-3.301-3.761-4.404c-1.807-1.094-3.926-1.641-6.348-1.641c-3.877,0-7.217,1.23-10.029,3.691
	c-2.821,2.461-4.229,7.119-4.229,13.994v29.315L527.109,662.463L527.109,662.463z M621.436,645.178l9.396,1.172
	c-1.484,5.488-4.229,9.746-8.232,12.783c-4.014,3.037-9.141,4.541-15.37,4.541c-7.853,0-14.072-2.412-18.673-7.246
	c-4.6-4.834-6.903-11.621-6.903-20.352c0-9.023,2.324-16.035,6.973-21.016c4.658-4.99,10.685-7.48,18.096-7.48
	c7.179,0,13.048,2.441,17.599,7.324c4.541,4.883,6.815,11.758,6.815,20.625c0,0.537-0.01,1.348-0.049,2.422h-40.029
	c0.332,5.897,2.003,10.41,5,13.555c2.998,3.125,6.738,4.688,11.222,4.688c3.34,0,6.182-0.869,8.545-2.617
	C618.185,651.818,620.049,649.025,621.436,645.178L621.436,645.178z M591.563,630.471h29.971c-0.41-4.512-1.553-7.899-3.438-10.155
	c-2.899-3.507-6.659-5.255-11.27-5.255c-4.18,0-7.695,1.396-10.537,4.189C593.438,622.053,591.865,625.783,591.563,630.471z
	 M54.688,828.732l9.102-1.211c1.045,5.155,2.822,8.866,5.332,11.151c2.51,2.267,5.566,3.408,9.17,3.408
	c4.277,0,7.891-1.484,10.84-4.443c2.949-2.969,4.424-6.641,4.424-11.024c0-4.17-1.357-7.627-4.092-10.342
	c-2.725-2.705-6.201-4.063-10.41-4.063c-1.719,0-3.857,0.332-6.416,1.016l1.006-7.987c0.487,0.055,0.976,0.087,1.465,0.098
	c3.877,0,7.363-1.016,10.469-3.027c3.096-2.03,4.648-5.137,4.648-9.354c0-3.34-1.133-6.094-3.389-8.291
	c-2.256-2.188-5.176-3.291-8.74-3.291c-3.545,0-6.494,1.113-8.848,3.34c-2.363,2.228-3.877,5.566-4.551,10.01l-9.102-1.61
	c1.113-6.104,3.643-10.83,7.588-14.181c3.936-3.358,8.838-5.039,14.707-5.039c4.043,0,7.764,0.88,11.172,2.617
	c3.398,1.729,6.006,4.103,7.803,7.09c1.807,3.009,2.705,6.191,2.705,9.552c0,3.203-0.859,6.123-2.578,8.75
	c-1.719,2.637-4.258,4.717-7.627,6.27c4.375,1.017,7.783,3.105,10.205,6.289c2.432,3.185,3.643,7.168,3.643,11.953
	c0,6.475-2.363,11.953-7.08,16.455c-4.717,4.502-10.684,6.748-17.891,6.748c-6.504,0-11.904-1.935-16.201-5.812
	S55.293,834.904,54.688,828.732L54.688,828.732z M112.207,828.889l9.551-0.811c0.713,4.658,2.354,8.154,4.932,10.488
	c2.578,2.344,5.684,3.516,9.326,3.516c4.375,0,8.086-1.65,11.113-4.951c3.037-3.301,4.551-7.686,4.551-13.145
	c0-5.195-1.455-9.277-4.365-12.285c-2.92-2.998-6.738-4.492-11.455-4.492c-2.93,0-5.576,0.664-7.93,1.992
	c-2.363,1.328-4.219,3.057-5.566,5.176l-8.535-1.113l7.178-38.047h36.846v8.691h-29.57l-3.994,19.912
	c4.443-3.097,9.111-4.658,14.004-4.658c6.465,0,11.924,2.246,16.377,6.729c4.443,4.482,6.67,10.244,6.67,17.285
	c0,6.709-1.953,12.51-5.869,17.394c-4.746,5.995-11.23,8.993-19.453,8.993c-6.738,0-12.246-1.885-16.504-5.663
	C115.244,840.129,112.813,835.119,112.207,828.889L112.207,828.889z M174.883,848.303v-10.371h10.361v10.371H174.883z
	 M227.695,848.303v-17.744h-32.139v-8.34l33.809-48.018h7.432v48.018h10.01v8.34h-10.01v17.744H227.695z M227.695,822.219v-33.408
	l-23.193,33.408H227.695L227.695,822.219z M256.113,828.889l9.551-0.811c0.713,4.658,2.354,8.154,4.932,10.488
	c2.578,2.344,5.684,3.516,9.326,3.516c4.375,0,8.086-1.65,11.113-4.951c3.037-3.301,4.551-7.686,4.551-13.145
	c0-5.195-1.455-9.277-4.365-12.285c-2.92-2.998-6.738-4.492-11.455-4.492c-2.93,0-5.576,0.664-7.93,1.992
	c-2.363,1.328-4.219,3.057-5.566,5.176l-8.535-1.113l7.178-38.047h36.846v8.691h-29.57l-3.994,19.912
	c4.443-3.097,9.111-4.658,14.004-4.658c6.465,0,11.924,2.246,16.377,6.729c4.443,4.482,6.67,10.244,6.67,17.285
	c0,6.709-1.953,12.51-5.869,17.394c-4.746,5.995-11.23,8.993-19.453,8.993c-6.738,0-12.246-1.885-16.504-5.663
	C259.15,840.129,256.719,835.119,256.113,828.889L256.113,828.889z M313.73,828.732l9.102-1.211
	c1.045,5.155,2.822,8.866,5.332,11.151c2.51,2.267,5.566,3.408,9.17,3.408c4.277,0,7.891-1.484,10.84-4.443
	c2.949-2.969,4.424-6.641,4.424-11.024c0-4.17-1.357-7.627-4.092-10.342c-2.725-2.705-6.201-4.063-10.41-4.063
	c-1.719,0-3.857,0.332-6.416,1.016l1.006-7.987c0.487,0.055,0.976,0.087,1.465,0.098c3.877,0,7.363-1.016,10.469-3.027
	c3.096-2.03,4.648-5.137,4.648-9.354c0-3.34-1.133-6.094-3.389-8.291c-2.256-2.188-5.176-3.291-8.74-3.291
	c-3.545,0-6.494,1.113-8.848,3.34c-2.363,2.228-3.877,5.566-4.551,10.01l-9.102-1.61c1.113-6.104,3.643-10.83,7.588-14.181
	c3.936-3.358,8.838-5.039,14.707-5.039c4.043,0,7.764,0.88,11.172,2.617c3.398,1.729,6.006,4.103,7.803,7.09
	c1.807,3.009,2.705,6.191,2.705,9.552c0,3.203-0.859,6.123-2.578,8.75c-1.719,2.637-4.258,4.717-7.627,6.27
	c4.375,1.017,7.783,3.105,10.205,6.289c2.432,3.185,3.643,7.168,3.643,11.953c0,6.475-2.363,11.953-7.08,16.455
	c-4.717,4.502-10.684,6.748-17.891,6.748c-6.504,0-11.904-1.935-16.201-5.812S314.336,834.904,313.73,828.732L313.73,828.732z
	 M445.742,381.985l36.19,11.479c-5.547,20.176-14.774,35.166-27.676,44.961c-12.91,9.795-29.287,14.692-49.121,14.692
	c-24.561,0-44.736-8.389-60.537-25.161c-15.811-16.772-23.711-39.707-23.711-68.799c0-30.771,7.939-54.673,23.838-71.694
	c15.889-17.026,36.777-25.542,62.676-25.542c22.617,0,40.985,6.685,55.117,20.054c8.397,7.905,14.706,19.253,18.915,34.053
	l-36.952,8.828c-2.188-9.585-6.748-17.153-13.683-22.701c-6.942-5.552-15.371-8.325-25.293-8.325
	c-13.701,0-24.824,4.917-33.359,14.756s-12.793,25.771-12.793,47.798c0,23.374,4.199,40.024,12.607,49.941
	c8.408,9.922,19.336,14.883,32.793,14.883c9.922,0,18.457-3.154,25.596-9.458C437.5,405.442,442.627,395.525,445.742,381.985z
	 M513.711,449.963V265.076h35.439v184.888L513.711,449.963L513.711,449.963z M854.17,109.177v7.588h-42.5
	c-0.07-1.871,0.242-3.737,0.918-5.483c1.084-2.896,2.813-5.747,5.195-8.555s5.83-6.055,10.332-9.736
	c6.992-5.732,11.709-10.273,14.17-13.623c2.451-3.35,3.682-6.514,3.682-9.497c0-3.13-1.113-5.767-3.35-7.915
	c-2.246-2.153-5.156-3.228-8.76-3.228c-3.8,0-6.836,1.143-9.121,3.423c-2.275,2.28-3.438,5.439-3.467,9.478l-8.115-0.835
	c0.557-6.055,2.646-10.669,6.278-13.843c3.623-3.169,8.486-4.756,14.601-4.756c6.172,0,11.055,1.709,14.658,5.132
	c3.594,3.423,5.391,7.661,5.391,12.72c0,2.573-0.527,5.103-1.572,7.588c-1.055,2.485-2.803,5.107-5.244,7.852
	c-2.44,2.749-6.504,6.523-12.178,11.318c-4.736,3.979-7.772,6.675-9.121,8.096c-1.348,1.416-2.461,2.842-3.34,4.277L854.17,109.177
	L854.17,109.177z M824.824,171.731c-3.271-1.201-5.703-2.91-7.285-5.132c-1.572-2.222-2.363-4.888-2.363-7.983
	c0-4.683,1.681-8.613,5.039-11.802c3.369-3.188,7.842-4.78,13.428-4.78c5.615,0,10.138,1.631,13.556,4.888
	c3.418,3.262,5.137,7.231,5.137,11.914c0,2.979-0.791,5.576-2.354,7.783c-1.563,2.207-3.937,3.911-7.13,5.112
	c3.955,1.284,6.953,3.364,9.015,6.226c2.069,2.871,3.096,6.289,3.096,10.269c0,5.498-1.943,10.117-5.83,13.862
	c-3.896,3.74-9.014,5.615-15.361,5.615c-6.338,0-11.454-1.88-15.352-5.64c-3.887-3.755-5.83-8.442-5.83-14.058
	c0-4.185,1.055-7.686,3.185-10.508C817.891,174.675,820.908,172.751,824.824,171.731z M820.703,188.049
	c0,2.251,0.527,4.429,1.602,6.533c1.064,2.109,2.656,3.74,4.756,4.893c2.081,1.149,4.421,1.746,6.798,1.733
	c3.778,0,6.895-1.211,9.346-3.643c2.461-2.427,3.69-5.513,3.69-9.253c0-3.804-1.27-6.948-3.799-9.434
	c-2.528-2.486-5.692-3.726-9.502-3.726c-3.711,0-6.787,1.226-9.229,3.682C821.923,181.29,820.703,184.363,820.703,188.049
	L820.703,188.049z M823.242,158.352c0,3.042,0.986,5.527,2.938,7.456c1.964,1.929,4.502,2.896,7.638,2.896
	c3.037,0,5.537-0.957,7.479-2.876c1.943-1.914,2.92-4.258,2.92-7.036c0-2.896-1.006-5.332-3.008-7.305
	c-2.002-1.978-4.502-2.964-7.479-2.964c-3.019,0-5.519,0.967-7.5,2.896C824.238,153.352,823.242,155.662,823.242,158.352
	L823.242,158.352z M813.203,240.554v-7.588h41.631v6.143c-4.102,4.36-8.154,10.146-12.178,17.373
	c-4.023,7.222-7.129,14.648-9.316,22.28c-1.582,5.386-2.588,11.274-3.026,17.681h-8.115c0.088-5.059,1.074-11.172,2.979-18.335
	c1.917-7.203,4.663-14.159,8.185-20.728c3.555-6.655,7.334-12.261,11.338-16.826H813.203L813.203,240.554z"/>
</svg>
