<?xml version="1.0" encoding="utf-8"?>
<!-- Generator: Adobe Illustrator 16.0.3, SVG Export Plug-In . SVG Version: 6.00 Build 0)  -->
<!DOCTYPE svg PUBLIC "-//W3C//DTD SVG 1.1//EN" "http://www.w3.org/Graphics/SVG/1.1/DTD/svg11.dtd">
<svg version="1.1" id="Layer_1" xmlns="http://www.w3.org/2000/svg" xmlns:xlink="http://www.w3.org/1999/xlink" x="0px" y="0px"
	 width="900px" height="900px" viewBox="0 0 900 900" enable-background="new 0 0 900 900" xml:space="preserve">
<path fill="#010101" d="M86.563,163.545H72.72V75.367c-3.34,3.179-7.71,6.355-13.12,9.541c-5.4,3.179-10.259,5.557-14.561,7.148
	V78.676c7.729-3.643,14.502-8.052,20.293-13.223c5.786-5.166,9.888-10.2,12.3-15.068h8.916v113.159L86.563,163.545L86.563,163.545z
	 M143.302,102.438c-5.742-2.109-10-5.112-12.759-9.004c-2.764-3.887-4.15-8.545-4.15-13.975c0-8.203,2.949-15.103,8.838-20.684
	c5.898-5.591,13.74-8.379,23.53-8.379c9.839,0,17.759,2.852,23.76,8.569c6.001,5.708,8.989,12.671,8.989,20.869
	c0,5.22-1.377,9.78-4.106,13.643c-2.744,3.877-6.914,6.86-12.5,8.96c6.919,2.256,12.188,5.889,15.796,10.908
	c3.613,5.029,5.42,11.03,5.42,17.998c0,9.634-3.408,17.734-10.22,24.292c-6.816,6.558-15.776,9.839-26.899,9.839
	c-11.118,0-20.098-3.291-26.909-9.878c-6.821-6.582-10.22-14.79-10.22-24.639c0-7.319,1.87-13.472,5.581-18.413
	C131.144,107.593,136.432,104.225,143.302,102.438L143.302,102.438z M136.07,131.036c0,3.95,0.942,7.759,2.803,11.46
	c1.88,3.691,4.648,6.553,8.34,8.569c3.687,2.021,7.666,3.042,11.919,3.042c6.611,0,12.07-2.129,16.367-6.382
	c4.312-4.258,6.46-9.668,6.46-16.23c0-6.66-2.217-12.168-6.646-16.519c-4.434-4.351-9.98-6.533-16.65-6.533
	c-6.504,0-11.904,2.153-16.182,6.465C138.199,119.214,136.07,124.576,136.07,131.036L136.07,131.036z M140.519,78.976
	c0,5.332,1.724,9.692,5.161,13.081c3.433,3.379,7.891,5.068,13.384,5.068c5.327,0,9.697-1.67,13.105-5.029
	c3.413-3.359,5.122-7.471,5.122-12.339c0-5.073-1.758-9.341-5.269-12.798c-3.521-3.462-7.891-5.195-13.12-5.195
	c-5.283,0-9.663,1.689-13.14,5.083C142.272,70.215,140.519,74.273,140.519,78.976z M305.201,662.446l28.462-74.092h10.566
	l30.332,74.092h-11.172l-8.638-22.44h-30.99l-8.13,22.44H305.201z M326.593,632.018h25.117l-7.729-20.518
	c-2.349-6.23-4.111-11.367-5.249-15.361c-0.969,4.811-2.303,9.541-3.989,14.15L326.593,632.018z M381.119,662.446v-53.672h8.193
	v8.136c2.09-3.81,4.009-6.328,5.776-7.539c1.782-1.211,3.721-1.826,5.84-1.826c3.071,0,6.182,0.985,9.36,2.938l-3.13,8.438
	c-2.227-1.318-4.448-1.974-6.67-1.974c-1.938-0.017-3.824,0.62-5.356,1.808c-1.582,1.19-2.71,2.852-3.394,4.979
	c-1.006,3.231-1.509,6.769-1.509,10.615v28.104h-9.111L381.119,662.446L381.119,662.446z M414.029,666.891l8.853,1.309
	c0.371,2.734,1.401,4.727,3.081,5.977c2.271,1.689,5.337,2.529,9.258,2.529c4.209,0,7.461-0.84,9.761-2.529
	c2.29-1.688,3.838-4.043,4.648-7.08c0.469-1.846,0.684-5.741,0.649-11.67c-3.97,4.679-8.931,7.021-14.858,7.021
	c-7.368,0-13.091-2.666-17.129-7.998c-4.043-5.313-6.06-11.699-6.06-19.141c0-5.137,0.918-9.854,2.769-14.18
	c1.851-4.336,4.541-7.687,8.071-10.039c3.521-2.354,7.661-3.535,12.397-3.535c6.343,0,11.563,2.578,15.674,7.695v-6.465h8.39v46.405
	c0,8.358-0.851,14.276-2.55,17.754c-1.709,3.496-4.403,6.24-8.09,8.263c-3.691,2.03-8.232,3.037-13.623,3.037
	c-6.411,0-11.567-1.437-15.518-4.326C415.8,677.027,413.893,672.691,414.029,666.891z M421.564,634.653
	c0,7.041,1.396,12.179,4.199,15.41c2.788,3.231,6.299,4.854,10.508,4.854c4.18,0,7.69-1.611,10.522-4.824
	c2.827-3.223,4.248-8.262,4.248-15.137c0-6.572-1.46-11.523-4.38-14.863s-6.431-5-10.542-5c-4.038,0-7.48,1.641-10.308,4.922
	C422.97,623.307,421.564,628.18,421.564,634.653z M469.884,635.621c0-9.941,2.755-17.306,8.281-22.091
	c4.608-3.976,10.244-5.978,16.885-5.978c7.373,0,13.408,2.423,18.097,7.267c4.688,4.824,7.03,11.504,7.03,20.039
	c0,6.903-1.045,12.334-3.114,16.299c-2.08,3.955-5.088,7.041-9.054,9.229c-3.965,2.188-8.28,3.281-12.959,3.281
	c-7.521,0-13.584-2.402-18.213-7.228C472.189,651.616,469.884,644.674,469.884,635.621z M479.22,635.621
	c0,6.875,1.505,12.012,4.503,15.43c2.997,3.428,6.776,5.137,11.327,5.137c4.513,0,8.271-1.719,11.271-5.156
	c2.998-3.438,4.492-8.672,4.492-15.713c0-6.641-1.494-11.67-4.521-15.088c-3.018-3.418-6.768-5.137-11.24-5.137
	c-4.551,0-8.33,1.699-11.328,5.098C480.732,623.59,479.22,628.735,479.22,635.621z M530.831,662.446v-53.672h8.174v7.627
	c3.955-5.897,9.647-8.849,17.09-8.849c3.242,0,6.212,0.586,8.927,1.759c2.715,1.151,4.746,2.687,6.094,4.569
	c1.348,1.885,2.285,4.121,2.832,6.72c0.322,1.68,0.488,4.629,0.488,8.848v33.009h-9.082v-32.656c0-3.711-0.353-6.484-1.056-8.32
	c-0.703-1.846-1.973-3.301-3.771-4.395c-1.807-1.095-3.926-1.642-6.348-1.642c-3.887,0-7.227,1.229-10.029,3.69
	c-2.821,2.461-4.229,7.119-4.229,13.984v29.326L530.831,662.446L530.831,662.446z M54.679,828.736l9.102-1.223
	c1.04,5.156,2.822,8.889,5.332,11.152c2.51,2.264,5.566,3.408,9.17,3.408c4.277,0,7.891-1.477,10.84-4.443
	c2.949-2.969,4.419-6.641,4.419-11.025c0-4.17-1.362-7.627-4.092-10.33c-2.72-2.705-6.196-4.072-10.41-4.072
	c-1.719,0-3.857,0.342-6.416,1.023l1.006-7.998c0.61,0.078,1.094,0.107,1.46,0.107c3.882,0,7.363-1.006,10.474-3.037
	c3.101-2.012,4.648-5.137,4.648-9.354c0-3.33-1.128-6.096-3.389-8.291c-2.261-2.189-5.181-3.271-8.74-3.271
	c-3.54,0-6.489,1.104-8.853,3.34c-2.358,2.207-3.877,5.547-4.551,10l-9.097-1.621c1.108-6.094,3.638-10.818,7.588-14.18
	c3.94-3.34,8.843-5.02,14.712-5.02c4.038,0,7.759,0.857,11.167,2.598c3.403,1.738,6.011,4.102,7.803,7.109
	c1.812,2.998,2.71,6.172,2.71,9.551c0,3.191-0.859,6.104-2.578,8.729c-1.724,2.646-4.263,4.729-7.632,6.271
	c4.38,1.023,7.778,3.115,10.21,6.309c2.432,3.186,3.638,7.168,3.638,11.953c0,6.455-2.358,11.943-7.08,16.445
	c-4.717,4.492-10.679,6.748-17.886,6.748c-6.504,0-11.904-1.924-16.201-5.813C57.73,839.928,55.289,834.898,54.679,828.736
	L54.679,828.736z M113.57,831.158l8.74-0.813c0.742,4.104,2.158,7.102,4.253,8.945c2.09,1.865,4.766,2.783,8.037,2.783
	c2.793,0,5.239-0.637,7.349-1.926c2.114-1.27,3.833-2.986,5.181-5.127c1.353-2.139,2.471-5.027,3.379-8.672
	c0.914-3.631,1.375-7.359,1.372-11.104c0-0.41-0.02-1.025-0.049-1.836c-1.831,2.898-4.312,5.254-7.461,7.051
	c-3.14,1.816-6.558,2.715-10.229,2.715c-6.133,0-11.318-2.227-15.571-6.68c-4.248-4.436-6.367-10.303-6.367-17.578
	c0-7.521,2.217-13.564,6.646-18.146c4.424-4.578,9.98-6.875,16.65-6.875c4.814,0,9.233,1.289,13.213,3.896
	c3.989,2.588,7.031,6.289,9.102,11.084c2.065,4.795,3.105,11.758,3.105,20.859c0,9.451-1.025,16.99-3.076,22.615
	c-2.061,5.605-5.122,9.885-9.18,12.813c-4.063,2.93-8.823,4.385-14.282,4.385c-5.791,0-10.532-1.609-14.199-4.813
	C116.52,841.5,114.313,836.988,113.57,831.158L113.57,831.158z M150.821,798.453c0-5.205-1.392-9.365-4.17-12.422
	c-2.769-3.076-6.118-4.609-10.029-4.609c-4.043,0-7.573,1.66-10.571,4.961s-4.502,7.578-4.502,12.832
	c0,4.727,1.431,8.555,4.282,11.504c2.842,2.949,6.357,4.414,10.542,4.414c4.209,0,7.676-1.465,10.386-4.414
	C149.459,807.77,150.821,803.678,150.821,798.453L150.821,798.453z M174.879,848.297v-10.361h10.361v10.361H174.879L174.879,848.297
	z M199.903,831.158l8.74-0.813c0.737,4.104,2.158,7.102,4.248,8.945c2.09,1.865,4.771,2.783,8.037,2.783
	c2.793,0,5.244-0.637,7.354-1.926c2.109-1.27,3.828-2.986,5.181-5.127c1.348-2.139,2.476-5.027,3.389-8.672
	c0.91-3.631,1.369-7.359,1.367-11.104c0-0.41-0.02-1.025-0.049-1.836c-1.831,2.898-4.312,5.254-7.461,7.051
	c-3.14,1.816-6.558,2.715-10.229,2.715c-6.128,0-11.318-2.227-15.566-6.68c-4.253-4.436-6.372-10.303-6.372-17.578
	c0-7.521,2.222-13.564,6.65-18.146c4.419-4.578,9.98-6.875,16.65-6.875c4.81,0,9.229,1.289,13.208,3.889
	c3.989,2.598,7.031,6.299,9.102,11.094c2.071,4.795,3.11,11.758,3.11,20.859c0,9.451-1.03,16.99-3.081,22.615
	c-2.061,5.605-5.117,9.885-9.18,12.813c-4.063,2.93-8.818,4.385-14.282,4.385c-5.786,0-10.527-1.611-14.199-4.813
	C202.853,841.5,200.641,836.988,199.903,831.158L199.903,831.158z M237.14,798.453c0-5.205-1.387-9.365-4.17-12.422
	c-2.769-3.076-6.118-4.609-10.029-4.609c-4.038,0-7.568,1.66-10.571,4.961c-2.998,3.301-4.497,7.578-4.497,12.832
	c0,4.727,1.431,8.555,4.277,11.504c2.842,2.949,6.362,4.414,10.542,4.414c4.209,0,7.681-1.465,10.391-4.414
	S237.14,803.678,237.14,798.453L237.14,798.453z M285.27,848.297v-17.734h-32.139v-8.34l33.809-48.025h7.432v48.025h10.01v8.34
	h-10.01v17.734H285.27z M285.27,822.223v-33.418l-23.188,33.418H285.27z M327.682,808.121c-3.779-1.387-6.572-3.359-8.398-5.928
	c-1.821-2.561-2.72-5.625-2.72-9.199c0-5.393,1.929-9.912,5.806-13.584c3.882-3.672,9.033-5.508,15.474-5.508
	c6.46,0,11.68,1.875,15.62,5.625c3.95,3.76,5.918,8.328,5.918,13.721c0,3.438-0.898,6.436-2.71,8.975s-4.541,4.502-8.208,5.879
	c4.546,1.484,8.008,3.889,10.386,7.188c2.373,3.301,3.555,7.246,3.555,11.826c0,6.338-2.241,11.66-6.724,15.984
	c-4.478,4.309-10.381,6.455-17.69,6.455c-7.309,0-13.208-2.168-17.7-6.494c-4.487-4.314-6.719-9.727-6.719-16.189
	c0-4.814,1.221-8.857,3.662-12.109C319.669,811.52,323.16,809.293,327.682,808.121L327.682,808.121z M322.921,826.91
	c0,2.598,0.62,5.105,1.851,7.539c1.23,2.422,3.062,4.297,5.488,5.625c2.422,1.328,5.029,1.99,7.832,1.99
	c4.351,0,7.93-1.404,10.757-4.188c2.832-2.803,4.253-6.357,4.253-10.674c0-4.375-1.46-7.998-4.38-10.859
	c-2.91-2.871-6.563-4.297-10.942-4.297c-4.277,0-7.827,1.426-10.64,4.238C324.332,819.127,322.921,822.672,322.921,826.91z
	 M325.851,792.691c0,3.518,1.133,6.389,3.389,8.596c2.261,2.227,5.19,3.34,8.804,3.34c3.506,0,6.377-1.094,8.608-3.313
	c2.251-2.207,3.359-4.91,3.359-8.113c0-3.34-1.152-6.145-3.462-8.418c-2.31-2.285-5.19-3.418-8.618-3.418
	c-3.472,0-6.348,1.111-8.638,3.34C327.013,786.93,325.851,789.596,325.851,792.691z M478.126,449.957h-40.615l-16.138-41.992
	h-73.911l-15.259,41.992h-39.604l72.012-184.883h39.473L478.126,449.957z M409.391,376.816l-25.479-68.613l-24.971,68.613H409.391z
	 M531.593,449.957h-35.44V316.025h32.92v19.038c5.636-8.989,10.693-14.917,15.195-17.778c4.502-2.852,9.619-4.292,15.322-4.292
	c8.086,0,15.85,2.231,23.34,6.689l-10.977,30.903c-5.977-3.872-11.523-5.801-16.66-5.801c-4.951,0-9.15,1.372-12.598,4.092
	c-3.457,2.729-6.172,7.681-8.135,14.819c-1.982,7.148-2.97,22.109-2.97,44.888v41.373H531.593z M854.171,109.175v7.588h-42.5
	c-0.069-1.873,0.243-3.74,0.918-5.488c1.084-2.891,2.813-5.742,5.205-8.55c2.383-2.798,5.82-6.05,10.332-9.741
	c6.982-5.728,11.699-10.269,14.16-13.618c2.461-3.349,3.689-6.509,3.689-9.487c0-3.135-1.111-5.771-3.357-7.92
	c-2.246-2.153-5.156-3.223-8.76-3.223c-3.801,0-6.836,1.143-9.111,3.418c-2.285,2.29-3.447,5.439-3.479,9.482l-8.125-0.84
	c0.566-6.05,2.656-10.659,6.289-13.838c3.613-3.174,8.486-4.766,14.592-4.766c6.172,0,11.055,1.714,14.668,5.132
	c3.594,3.433,5.391,7.671,5.391,12.72c0,2.568-0.527,5.103-1.572,7.593c-1.045,2.476-2.803,5.107-5.244,7.847
	c-2.439,2.744-6.492,6.523-12.178,11.323c-4.736,3.97-7.764,6.67-9.111,8.101c-1.355,1.416-2.461,2.837-3.34,4.277h31.533V109.175z
	 M824.825,171.725c-3.281-1.201-5.703-2.91-7.295-5.127c-1.572-2.231-2.354-4.893-2.354-7.993c0-4.678,1.682-8.608,5.039-11.797
	c3.359-3.193,7.832-4.79,13.428-4.79c5.615,0,10.139,1.631,13.546,4.888c3.418,3.262,5.138,7.231,5.138,11.909
	c0,2.983-0.781,5.581-2.345,7.783c-1.563,2.197-3.944,3.906-7.13,5.107c3.967,1.289,6.953,3.369,9.005,6.23
	c2.069,2.871,3.104,6.289,3.104,10.259c0,5.503-1.943,10.122-5.83,13.872c-3.896,3.74-9.014,5.62-15.36,5.62
	c-6.339,0-11.466-1.88-15.353-5.64c-3.887-3.75-5.83-8.442-5.83-14.053c0-4.189,1.055-7.686,3.186-10.508
	C817.892,174.673,820.899,172.745,824.825,171.725L824.825,171.725z M820.704,188.047c0,2.261,0.527,4.429,1.602,6.528
	c1.057,2.109,2.656,3.74,4.756,4.893c2.081,1.149,4.422,1.748,6.799,1.738c3.777,0,6.895-1.211,9.346-3.643
	c2.461-2.427,3.689-5.518,3.689-9.258c0-3.799-1.27-6.938-3.787-9.429c-2.539-2.48-5.693-3.721-9.514-3.721
	c-3.701,0-6.775,1.221-9.219,3.677C821.915,181.285,820.704,184.365,820.704,188.047L820.704,188.047z M823.243,158.345
	c0,3.052,0.984,5.532,2.938,7.461c1.963,1.919,4.502,2.891,7.639,2.891c3.037,0,5.537-0.962,7.479-2.871
	c1.943-1.909,2.92-4.258,2.92-7.041c0-2.891-1.016-5.327-3.008-7.3c-2.002-1.968-4.502-2.959-7.479-2.959
	c-3.027,0-5.527,0.972-7.5,2.891C824.229,153.345,823.243,155.654,823.243,158.345z M824.825,261.567
	c-3.281-1.201-5.703-2.91-7.295-5.142c-1.572-2.222-2.354-4.878-2.354-7.983c0-4.688,1.682-8.608,5.039-11.807
	c3.359-3.179,7.832-4.78,13.428-4.78c5.615,0,10.139,1.631,13.546,4.878c3.418,3.262,5.138,7.241,5.138,11.914
	c0,2.979-0.781,5.576-2.345,7.778c-1.563,2.197-3.944,3.921-7.13,5.122c3.967,1.279,6.953,3.359,9.005,6.216
	c2.069,2.871,3.104,6.294,3.104,10.273c0,5.498-1.943,10.117-5.83,13.857c-3.896,3.74-9.014,5.62-15.36,5.62
	c-6.339,0-11.466-1.88-15.353-5.63c-3.887-3.76-5.83-8.452-5.83-14.058c0-4.18,1.055-7.69,3.186-10.513
	C817.892,264.507,820.899,262.583,824.825,261.567L824.825,261.567z M820.704,277.886c0,2.251,0.527,4.419,1.602,6.528
	c1.057,2.109,2.656,3.74,4.756,4.893c2.083,1.142,4.423,1.737,6.799,1.729c3.777,0,6.895-1.211,9.346-3.638
	c2.461-2.422,3.689-5.513,3.689-9.253c0-3.809-1.27-6.948-3.787-9.429c-2.539-2.49-5.693-3.73-9.514-3.73
	c-3.701,0-6.775,1.23-9.219,3.682C821.915,271.124,820.704,274.194,820.704,277.886L820.704,277.886z M823.243,248.185
	c0,3.042,0.984,5.532,2.938,7.451c1.963,1.929,4.502,2.9,7.639,2.9c3.037,0,5.537-0.962,7.479-2.881
	c1.943-1.909,2.92-4.258,2.92-7.031c0-2.896-1.016-5.327-3.008-7.3c-2.002-1.978-4.502-2.969-7.479-2.969
	c-3.027,0-5.527,0.972-7.5,2.9C824.229,243.185,823.243,245.494,823.243,248.185L823.243,248.185z"/>
</svg>
