<?xml version="1.0" encoding="utf-8"?>
<!-- Generator: Adobe Illustrator 16.0.3, SVG Export Plug-In . SVG Version: 6.00 Build 0)  -->
<!DOCTYPE svg PUBLIC "-//W3C//DTD SVG 1.1//EN" "http://www.w3.org/Graphics/SVG/1.1/DTD/svg11.dtd">
<svg version="1.1" id="Layer_1" xmlns="http://www.w3.org/2000/svg" xmlns:xlink="http://www.w3.org/1999/xlink" x="0px" y="0px"
	 width="900px" height="900px" viewBox="0 0 900 900" enable-background="new 0 0 900 900" xml:space="preserve">
<path d="M86.273,161.978H72.436V73.794c-3.34,3.179-7.705,6.357-13.115,9.536c-5.4,3.179-10.264,5.562-14.561,7.148V77.1
	c7.734-3.638,14.502-8.042,20.293-13.223c5.791-5.176,9.893-10.195,12.305-15.068h8.916L86.273,161.978L86.273,161.978z
	 M123.793,135.913l13.301-1.23c1.123,6.255,3.271,10.791,6.455,13.608c3.174,2.822,7.256,4.229,12.227,4.229
	c4.248,0,7.979-0.972,11.182-2.92c3.203-1.948,5.83-4.546,7.881-7.803c2.051-3.257,3.77-7.651,5.156-13.184
	c1.378-5.532,2.073-11.212,2.07-16.914c0-0.615-0.029-1.538-0.078-2.769c-2.764,4.409-6.543,7.983-11.338,10.723
	c-4.795,2.744-9.98,4.116-15.566,4.116c-9.326,0-17.227-3.384-23.682-10.151c-6.455-6.763-9.688-15.684-9.688-26.753
	c0-11.431,3.369-20.63,10.107-27.598c6.738-6.973,15.186-10.459,25.332-10.459c7.334,0,14.033,1.973,20.107,5.923
	c6.074,3.945,10.684,9.57,13.838,16.875c3.154,7.3,4.727,17.871,4.727,31.709c0,14.404-1.563,25.874-4.688,34.404
	c-3.125,8.535-7.773,15.034-13.955,19.492c-6.172,4.458-13.418,6.689-21.719,6.689c-8.818,0-16.016-2.451-21.602-7.344
	S124.916,144.785,123.793,135.913L123.793,135.913z M180.453,86.172c0-7.944-2.119-14.248-6.348-18.911
	c-4.229-4.663-9.316-6.997-15.254-6.997c-6.152,0-11.514,2.515-16.074,7.534c-4.561,5.024-6.836,11.533-6.836,19.526
	c0,7.178,2.158,13.008,6.494,17.49c4.326,4.487,9.668,6.729,16.025,6.729c6.406,0,11.68-2.241,15.801-6.729
	C178.383,100.332,180.453,94.116,180.453,86.172z M209.467,660.898v-74.103h27.949c4.922,0,8.672,0.234,11.27,0.703
	c3.643,0.604,6.689,1.758,9.15,3.457c2.461,1.719,4.443,4.102,5.938,7.168c1.504,3.066,2.246,6.426,2.246,10.098
	c0,6.31-2.002,11.642-6.006,15.996c-4.014,4.375-11.26,6.543-21.738,6.543h-19.004v30.138H209.467L209.467,660.898z
	 M219.271,622.031h19.16c6.328,0,10.83-1.191,13.486-3.535c2.666-2.363,3.994-5.684,3.994-9.961c0-3.105-0.781-5.762-2.344-7.969
	c-1.572-2.207-3.633-3.672-6.191-4.375c-1.65-0.431-4.707-0.646-9.15-0.646h-18.955V622.031L219.271,622.031z M273.959,634.063
	c0-9.94,2.764-17.305,8.291-22.09c4.609-3.983,10.244-5.977,16.885-5.977c7.373,0,13.408,2.422,18.086,7.266
	c4.688,4.824,7.031,11.504,7.031,20.039c0,6.896-1.035,12.344-3.105,16.289c-2.08,3.965-5.088,7.051-9.053,9.238
	c-3.955,2.188-8.281,3.281-12.959,3.281c-7.52,0-13.594-2.402-18.223-7.228C276.273,650.059,273.959,643.125,273.959,634.063z
	 M283.305,634.063c0,6.875,1.504,12.013,4.502,15.431s6.777,5.137,11.328,5.137c4.512,0,8.271-1.719,11.27-5.156
	c2.999-3.437,4.492-8.672,4.492-15.723c0-6.641-1.504-11.66-4.521-15.078c-3.018-3.438-6.768-5.137-11.24-5.137
	c-4.551,0-8.33,1.699-11.328,5.098C284.809,622.051,283.305,627.188,283.305,634.063L283.305,634.063z M354.779,652.754l1.309,8.047
	c-2.559,0.527-4.844,0.801-6.875,0.801c-3.301,0-5.859-0.526-7.676-1.563c-1.826-1.055-3.105-2.422-3.848-4.121
	c-0.743-1.699-1.104-5.293-1.104-10.742v-30.879h-6.68v-7.09h6.68v-13.281l9.043-5.469v18.75h9.15v7.09h-9.15v31.387
	c0,2.599,0.156,4.259,0.479,5c0.323,0.742,0.84,1.328,1.572,1.777c0.723,0.43,1.758,0.646,3.105,0.646
	C351.791,653.105,353.129,652.988,354.779,652.754L354.779,652.754z M398.705,654.277c-3.379,2.852-6.621,4.883-9.736,6.055
	c-3.115,1.191-6.455,1.777-10.029,1.777c-5.898,0-10.43-1.445-13.594-4.316c-3.174-2.891-4.756-6.563-4.756-11.055
	c0-2.617,0.596-5.021,1.797-7.207c1.191-2.168,2.764-3.906,4.697-5.215c1.934-1.328,4.121-2.324,6.543-2.988
	c1.787-0.469,4.482-0.938,8.086-1.367c7.354-0.879,12.754-1.914,16.23-3.125c0.028-1.25,0.049-2.051,0.049-2.383
	c0-3.711-0.859-6.328-2.578-7.832c-2.324-2.051-5.781-3.086-10.361-3.086c-4.277,0-7.441,0.742-9.473,2.246
	c-2.041,1.504-3.555,4.16-4.531,7.969l-8.896-1.211c0.811-3.809,2.148-6.896,3.994-9.238c1.855-2.344,4.531-4.141,8.037-5.41
	c3.506-1.25,7.568-1.895,12.188-1.895c4.58,0,8.301,0.547,11.172,1.621c2.861,1.074,4.961,2.44,6.309,4.063
	c1.349,1.642,2.296,3.711,2.832,6.191c0.304,1.563,0.459,4.354,0.459,8.397v12.13c0,8.457,0.195,13.809,0.576,16.055
	c0.398,2.263,1.178,4.442,2.306,6.445h-9.502C399.574,659.004,398.969,656.797,398.705,654.277L398.705,654.277z M397.943,633.945
	c-3.301,1.348-8.262,2.5-14.863,3.438c-3.74,0.547-6.387,1.152-7.93,1.836c-1.553,0.664-2.754,1.66-3.594,2.949
	c-0.84,1.289-1.26,2.734-1.26,4.316c0,2.422,0.918,4.452,2.754,6.073c1.836,1.621,4.521,2.422,8.057,2.422
	c3.506,0,6.621-0.762,9.355-2.305c2.725-1.522,4.736-3.633,6.017-6.289c0.977-2.051,1.465-5.078,1.465-9.102V633.945
	L397.943,633.945z M417.611,644.863l8.994-1.406c0.508,3.613,1.914,6.367,4.229,8.281c2.305,1.934,5.527,2.891,9.678,2.891
	c4.181,0,7.275-0.859,9.297-2.559c2.022-1.7,3.037-3.691,3.037-5.996c0-2.051-0.897-3.672-2.686-4.844
	c-1.24-0.802-4.346-1.837-9.297-3.087c-6.67-1.68-11.299-3.145-13.877-4.375c-2.578-1.229-4.531-2.93-5.859-5.098
	c-1.338-2.168-2.002-4.57-2.002-7.207c0-2.383,0.547-4.608,1.65-6.641c1.075-2.018,2.607-3.757,4.473-5.078
	c1.416-1.055,3.34-1.935,5.781-2.656c2.44-0.722,5.067-1.094,7.86-1.094c4.209,0,7.91,0.604,11.095,1.815
	c3.184,1.23,5.536,2.871,7.051,4.941c1.514,2.07,2.559,4.844,3.135,8.301l-8.896,1.23c-0.399-2.773-1.571-4.922-3.516-6.484
	c-1.934-1.543-4.668-2.324-8.213-2.324c-4.18,0-7.158,0.703-8.945,2.07c-1.787,1.387-2.676,3.008-2.676,4.863
	c0,1.172,0.371,2.246,1.113,3.184c0.742,0.978,1.904,1.777,3.486,2.422c0.907,0.332,3.584,1.113,8.036,2.324
	c6.437,1.719,10.929,3.125,13.468,4.219c2.549,1.095,4.541,2.695,5.996,4.785c1.444,2.09,2.168,4.688,2.168,7.773
	c0,3.047-0.88,5.897-2.656,8.573c-1.769,2.677-4.316,4.746-7.656,6.212c-3.33,1.465-7.109,2.206-11.318,2.206
	c-6.973,0-12.295-1.444-15.946-4.354C420.951,654.863,418.627,650.566,417.611,644.863L417.611,644.863z M469.369,644.863
	l8.994-1.406c0.508,3.613,1.914,6.367,4.229,8.281c2.305,1.934,5.527,2.891,9.678,2.891c4.181,0,7.275-0.859,9.298-2.559
	c2.021-1.7,3.036-3.691,3.036-5.996c0-2.051-0.897-3.672-2.686-4.844c-1.24-0.802-4.346-1.837-9.297-3.087
	c-6.67-1.68-11.299-3.145-13.877-4.375c-2.578-1.229-4.531-2.93-5.859-5.098c-1.338-2.168-2.002-4.57-2.002-7.207
	c0-2.383,0.547-4.608,1.65-6.641c1.075-2.018,2.607-3.757,4.473-5.078c1.416-1.055,3.34-1.935,5.781-2.656
	c2.44-0.722,5.068-1.094,7.861-1.094c4.209,0,7.909,0.604,11.094,1.815c3.184,1.23,5.537,2.871,7.051,4.941s2.559,4.844,3.135,8.301
	l-8.896,1.23c-0.4-2.773-1.572-4.922-3.517-6.484c-1.934-1.543-4.668-2.324-8.213-2.324c-4.18,0-7.158,0.703-8.945,2.07
	c-1.786,1.387-2.676,3.008-2.676,4.863c0,1.172,0.371,2.246,1.113,3.184c0.742,0.978,1.904,1.777,3.486,2.422
	c0.908,0.332,3.584,1.113,8.037,2.324c6.436,1.719,10.928,3.125,13.467,4.219c2.549,1.095,4.541,2.695,5.996,4.785
	c1.444,2.09,2.168,4.688,2.168,7.773c0,3.047-0.879,5.897-2.656,8.573c-1.768,2.677-4.316,4.746-7.656,6.212
	c-3.33,1.465-7.108,2.206-11.317,2.206c-6.974,0-12.296-1.444-15.947-4.354C472.709,654.863,470.385,650.566,469.369,644.863
	L469.369,644.863z M524.818,597.266v-10.469h9.102v10.469H524.818z M524.818,660.898v-53.691h9.102v53.691H524.818z
	 M582.943,660.898v-7.892c-4.181,6.074-9.854,9.103-17.031,9.103c-3.174,0-6.123-0.605-8.877-1.816
	c-2.744-1.211-4.785-2.734-6.113-4.59c-1.328-1.836-2.266-4.082-2.803-6.738c-0.371-1.776-0.557-4.608-0.557-8.496v-33.262h9.102
	v29.785c0,4.746,0.186,7.949,0.557,9.59c0.566,2.402,1.777,4.277,3.633,5.645c1.856,1.368,4.15,2.052,6.875,2.052
	c2.734,0,5.294-0.703,7.687-2.109c2.393-1.387,4.082-3.301,5.078-5.703c0.996-2.401,1.494-5.897,1.494-10.487v-28.771h9.092v53.691
	L582.943,660.898L582.943,660.898z M605.336,660.898v-53.691h8.135v7.539c1.689-2.637,3.927-4.746,6.72-6.348
	c2.803-1.603,5.985-2.402,9.561-2.402c3.975,0,7.236,0.84,9.775,2.479c2.549,1.66,4.336,3.966,5.381,6.935
	c4.248-6.271,9.774-9.414,16.582-9.414c5.321,0,9.414,1.484,12.285,4.434c2.86,2.949,4.297,7.48,4.297,13.613v36.855h-9.054V627.07
	c0-3.633-0.293-6.25-0.879-7.853c-0.596-1.602-1.66-2.891-3.213-3.867c-1.553-0.976-3.369-1.465-5.459-1.465
	c-3.77,0-6.904,1.25-9.404,3.771c-2.489,2.5-3.739,6.522-3.739,12.051v31.191h-9.092v-34.884c0-4.043-0.742-7.069-2.228-9.102
	c-1.484-2.012-3.906-3.027-7.275-3.027c-2.567,0-4.932,0.685-7.108,2.031c-2.168,1.348-3.74,3.301-4.728,5.898
	c-0.977,2.598-1.465,6.348-1.465,11.229v27.853L605.336,660.898L605.336,660.898z M54.408,827.168l9.102-1.211
	c1.045,5.156,2.822,8.867,5.332,11.152c2.51,2.266,5.566,3.397,9.17,3.397c4.277,0,7.891-1.465,10.84-4.434
	c2.949-2.97,4.424-6.642,4.424-11.017c0-4.18-1.357-7.637-4.092-10.352c-2.725-2.715-6.201-4.063-10.41-4.063
	c-1.719,0-3.857,0.332-6.416,1.017l1.006-7.988c0.487,0.055,0.976,0.088,1.465,0.098c3.877,0,7.363-1.016,10.469-3.026
	c3.096-2.031,4.648-5.137,4.648-9.355c0-3.34-1.133-6.094-3.389-8.28c-2.256-2.207-5.176-3.302-8.74-3.302
	c-3.545,0-6.494,1.113-8.848,3.341c-2.363,2.227-3.877,5.565-4.551,10.02l-9.102-1.621c1.113-6.094,3.643-10.82,7.588-14.18
	c3.936-3.359,8.838-5.039,14.707-5.039c4.043,0,7.764,0.879,11.172,2.617c3.398,1.737,6.006,4.102,7.803,7.09
	c1.807,3.008,2.705,6.191,2.705,9.551c0,3.203-0.859,6.113-2.578,8.75c-1.719,2.637-4.258,4.728-7.627,6.271
	c4.375,1.016,7.783,3.104,10.205,6.289c2.432,3.184,3.643,7.168,3.643,11.952c0,6.466-2.363,11.953-7.08,16.466
	c-4.717,4.491-10.684,6.737-17.891,6.737c-6.504,0-11.904-1.934-16.201-5.819C57.465,838.359,55.014,833.34,54.408,827.168
	L54.408,827.168z M113.295,829.59l8.74-0.801c0.742,4.121,2.158,7.09,4.248,8.945c2.09,1.854,4.766,2.772,8.037,2.772
	c2.793,0,5.244-0.625,7.354-1.914c2.109-1.27,3.828-2.987,5.176-5.137c1.348-2.129,2.48-5.021,3.389-8.652
	c0.91-3.641,1.369-7.38,1.367-11.133c0-0.391-0.02-0.996-0.049-1.815c-1.826,2.891-4.307,5.254-7.461,7.051
	c-3.112,1.794-6.643,2.73-10.234,2.715c-6.133,0-11.318-2.227-15.566-6.68s-6.367-10.313-6.367-17.599
	c0-7.5,2.217-13.555,6.65-18.145c4.424-4.57,9.98-6.875,16.65-6.875c4.814,0,9.229,1.309,13.213,3.906
	c3.994,2.598,7.031,6.288,9.102,11.094c2.071,4.805,3.105,11.737,3.105,20.84c0,9.473-1.025,17.012-3.076,22.617
	c-2.061,5.625-5.117,9.883-9.18,12.813c-4.063,2.931-8.818,4.396-14.277,4.396c-5.791,0-10.527-1.603-14.199-4.824
	C116.244,839.961,114.037,835.43,113.295,829.59L113.295,829.59z M150.541,796.895c0-5.215-1.387-9.375-4.17-12.44
	c-2.773-3.066-6.123-4.59-10.029-4.59c-4.043,0-7.568,1.66-10.566,4.961s-4.502,7.578-4.502,12.832
	c0,4.707,1.426,8.555,4.277,11.504c2.842,2.949,6.357,4.414,10.537,4.414c4.209,0,7.676-1.465,10.391-4.414
	C149.184,806.211,150.541,802.129,150.541,796.895z M174.604,846.738v-10.371h10.361v10.371H174.604z M198.256,810.195
	c0-8.771,0.898-15.82,2.705-21.152c1.797-5.352,4.482-9.473,8.037-12.363c3.555-2.89,8.027-4.354,13.418-4.354
	c3.975,0,7.461,0.801,10.459,2.402c2.998,1.601,5.479,3.905,7.432,6.934c1.953,3.008,3.486,6.68,4.6,11.016
	c1.114,4.336,1.67,10.177,1.67,17.521c0,8.69-0.889,15.703-2.676,21.055c-1.787,5.332-4.463,9.453-8.018,12.383
	c-3.555,2.91-8.047,4.355-13.467,4.355c-7.148,0-12.754-2.56-16.836-7.676C200.697,834.141,198.256,824.103,198.256,810.195
	L198.256,810.195z M207.602,810.195c0,12.168,1.426,20.254,4.277,24.276c2.842,4.023,6.357,6.035,10.537,6.035
	s7.695-2.012,10.537-6.055c2.852-4.043,4.268-12.129,4.268-24.258c0-12.207-1.416-20.313-4.268-24.316
	c-2.842-4.004-6.396-6.016-10.635-6.016c-4.18,0-7.52,1.776-10.01,5.313C209.174,789.688,207.602,798.027,207.602,810.195
	L207.602,810.195z M257.201,829.59l8.74-0.801c0.742,4.121,2.158,7.09,4.248,8.945c2.09,1.854,4.766,2.772,8.037,2.772
	c2.793,0,5.244-0.625,7.354-1.914c2.109-1.27,3.828-2.987,5.176-5.137c1.348-2.129,2.48-5.021,3.389-8.652
	c0.91-3.641,1.369-7.38,1.367-11.133c0-0.391-0.02-0.996-0.049-1.815c-1.826,2.891-4.307,5.254-7.461,7.051
	c-3.111,1.794-6.643,2.73-10.234,2.715c-6.133,0-11.318-2.227-15.566-6.68s-6.367-10.313-6.367-17.599
	c0-7.5,2.217-13.555,6.65-18.145c4.424-4.57,9.98-6.875,16.65-6.875c4.814,0,9.229,1.309,13.213,3.906
	c3.994,2.598,7.031,6.289,9.102,11.094c2.071,4.805,3.105,11.738,3.105,20.84c0,9.473-1.025,17.012-3.076,22.617
	c-2.061,5.625-5.117,9.883-9.18,12.813c-4.063,2.931-8.818,4.396-14.277,4.396c-5.791,0-10.527-1.603-14.199-4.824
	C260.15,839.961,257.943,835.43,257.201,829.59L257.201,829.59z M294.447,796.896c0-5.216-1.387-9.375-4.17-12.441
	c-2.773-3.066-6.123-4.59-10.029-4.59c-4.043,0-7.568,1.66-10.566,4.961s-4.502,7.578-4.502,12.832
	c0,4.707,1.426,8.555,4.277,11.504c2.842,2.949,6.357,4.414,10.537,4.414c4.209,0,7.676-1.465,10.391-4.414
	C293.09,806.211,294.447,802.129,294.447,796.896L294.447,796.896z M327.406,806.543c-3.779-1.367-6.572-3.34-8.398-5.897
	c-1.816-2.578-2.725-5.646-2.725-9.199c0-5.392,1.934-9.922,5.811-13.613c3.877-3.672,9.033-5.508,15.469-5.508
	c6.465,0,11.68,1.895,15.615,5.645c3.945,3.75,5.918,8.341,5.918,13.73c0,3.438-0.898,6.426-2.705,8.965
	c-1.807,2.539-4.541,4.512-8.213,5.879c4.551,1.484,8.008,3.888,10.391,7.188c2.373,3.301,3.555,7.246,3.555,11.815
	c0,6.349-2.236,11.66-6.719,15.978c-4.483,4.316-10.381,6.465-17.686,6.465c-7.314,0-13.213-2.148-17.695-6.484
	s-6.719-9.727-6.719-16.211c0-4.805,1.221-8.848,3.662-12.09C319.408,809.941,322.885,807.734,327.406,806.543L327.406,806.543z
	 M322.65,825.353c0,2.598,0.615,5.098,1.846,7.538c1.23,2.423,3.057,4.298,5.488,5.625c2.422,1.328,5.029,1.992,7.832,1.992
	c4.346,0,7.93-1.387,10.762-4.18c2.832-2.813,4.248-6.367,4.248-10.664c0-4.395-1.455-8.008-4.375-10.879
	c-2.91-2.852-6.563-4.297-10.938-4.297c-4.277,0-7.832,1.426-10.645,4.258S322.65,821.113,322.65,825.353L322.65,825.353z
	 M325.58,791.133c0,3.517,1.133,6.367,3.389,8.595c2.256,2.227,5.186,3.34,8.799,3.34c3.506,0,6.377-1.113,8.613-3.32
	c2.246-2.207,3.359-4.902,3.359-8.104c0-3.341-1.152-6.134-3.457-8.418c-2.314-2.267-5.186-3.419-8.623-3.419
	c-3.467,0-6.348,1.113-8.643,3.341C326.732,785.371,325.58,788.027,325.58,791.133L325.58,791.133z M383.207,448.395V263.506h37.334
	v82.104l75.41-82.104h50.194l-69.608,72.012l73.397,112.876h-48.301l-50.83-86.768l-30.264,30.898v55.868h-37.333V448.395z
	 M853.881,107.612v7.588h-42.5c-0.07-1.871,0.242-3.737,0.918-5.483c1.084-2.896,2.813-5.747,5.195-8.555s5.83-6.055,10.332-9.736
	c6.992-5.732,11.709-10.273,14.17-13.623c2.451-3.35,3.682-6.514,3.682-9.497c0-3.13-1.112-5.767-3.35-7.915
	c-2.246-2.153-5.156-3.228-8.76-3.228c-3.8,0-6.836,1.143-9.121,3.423c-2.275,2.28-3.438,5.439-3.467,9.478l-8.115-0.835
	c0.557-6.055,2.646-10.669,6.279-13.843c3.622-3.169,8.485-4.756,14.6-4.756c6.172,0,11.055,1.709,14.658,5.132
	c3.594,3.423,5.391,7.661,5.391,12.72c0,2.573-0.527,5.103-1.572,7.588c-1.055,2.485-2.803,5.107-5.244,7.852
	c-2.44,2.749-6.504,6.523-12.178,11.318c-4.736,3.979-7.772,6.675-9.121,8.096c-1.348,1.416-2.461,2.842-3.34,4.277L853.881,107.612
	L853.881,107.612z M824.535,170.166c-3.271-1.201-5.703-2.91-7.285-5.132c-1.572-2.222-2.363-4.888-2.363-7.983
	c0-4.683,1.681-8.613,5.039-11.802c3.369-3.188,7.842-4.78,13.428-4.78c5.615,0,10.138,1.631,13.556,4.888
	c3.418,3.262,5.137,7.231,5.137,11.914c0,2.979-0.791,5.576-2.354,7.783c-1.563,2.207-3.937,3.911-7.13,5.112
	c3.955,1.284,6.953,3.364,9.015,6.226c2.069,2.871,3.096,6.289,3.096,10.269c0,5.498-1.942,10.117-5.83,13.862
	c-3.896,3.74-9.014,5.615-15.36,5.615c-6.339,0-11.455-1.88-15.353-5.64c-3.887-3.755-5.83-8.442-5.83-14.058
	c0-4.185,1.055-7.686,3.185-10.508C817.602,173.11,820.619,171.187,824.535,170.166z M820.414,186.484
	c0,2.251,0.527,4.429,1.602,6.533c1.064,2.109,2.656,3.74,4.756,4.893c2.081,1.149,4.421,1.746,6.798,1.733
	c3.778,0,6.895-1.211,9.346-3.643c2.461-2.427,3.69-5.513,3.69-9.253c0-3.804-1.27-6.948-3.799-9.434
	c-2.528-2.486-5.692-3.726-9.502-3.726c-3.711,0-6.787,1.226-9.229,3.682C821.634,179.725,820.414,182.798,820.414,186.484
	L820.414,186.484z M822.953,156.787c0,3.042,0.986,5.527,2.938,7.456c1.964,1.929,4.503,2.896,7.638,2.896
	c3.037,0,5.537-0.957,7.479-2.876c1.943-1.914,2.92-4.258,2.92-7.036c0-2.896-1.006-5.332-3.008-7.305
	c-2.002-1.978-4.502-2.964-7.479-2.964c-3.019,0-5.519,0.967-7.5,2.896C823.949,151.787,822.953,154.097,822.953,156.787
	L822.953,156.787z M824.535,260.005c-3.271-1.201-5.703-2.91-7.285-5.132c-1.572-2.222-2.363-4.888-2.363-7.983
	c0-4.683,1.681-8.613,5.039-11.802c3.369-3.188,7.842-4.78,13.428-4.78c5.615,0,10.138,1.631,13.556,4.888
	c3.418,3.262,5.137,7.231,5.137,11.914c0,2.979-0.791,5.576-2.354,7.783c-1.563,2.207-3.937,3.911-7.13,5.112
	c3.955,1.284,6.953,3.364,9.015,6.226c2.069,2.871,3.096,6.289,3.096,10.269c0,5.498-1.942,10.117-5.83,13.862
	c-3.896,3.74-9.014,5.615-15.36,5.615c-6.339,0-11.455-1.88-15.353-5.64c-3.887-3.755-5.83-8.442-5.83-14.058
	c0-4.185,1.055-7.686,3.185-10.508C817.602,262.949,820.619,261.025,824.535,260.005z M820.414,276.323
	c0,2.251,0.527,4.429,1.602,6.533c1.064,2.109,2.656,3.74,4.756,4.893c2.081,1.149,4.421,1.746,6.798,1.733
	c3.778,0,6.895-1.211,9.346-3.643c2.461-2.427,3.69-5.513,3.69-9.253c0-3.804-1.27-6.948-3.799-9.434
	c-2.528-2.486-5.692-3.726-9.502-3.726c-3.711,0-6.787,1.226-9.229,3.682C821.634,269.564,820.414,272.637,820.414,276.323
	L820.414,276.323z M822.953,246.626c0,3.042,0.986,5.527,2.938,7.456c1.964,1.929,4.503,2.896,7.638,2.896
	c3.037,0,5.537-0.957,7.479-2.876c1.943-1.914,2.92-4.258,2.92-7.036c0-2.896-1.006-5.332-3.008-7.305
	c-2.002-1.978-4.502-2.964-7.479-2.964c-3.019,0-5.519,0.967-7.5,2.896C823.949,241.626,822.953,243.936,822.953,246.626
	L822.953,246.626z M842.123,384.717h-7.891V334.4c-1.904,1.815-4.396,3.628-7.48,5.438c-3.086,1.816-5.859,3.174-8.311,4.082v-7.632
	c4.414-2.075,8.271-4.59,11.582-7.544c3.301-2.954,5.645-5.82,7.012-8.599h5.088V384.717L842.123,384.717z"/>
</svg>
