<?xml version="1.0" encoding="utf-8"?>
<!-- Generator: Adobe Illustrator 16.0.3, SVG Export Plug-In . SVG Version: 6.00 Build 0)  -->
<!DOCTYPE svg PUBLIC "-//W3C//DTD SVG 1.1//EN" "http://www.w3.org/Graphics/SVG/1.1/DTD/svg11.dtd">
<svg version="1.1" id="Layer_1" xmlns="http://www.w3.org/2000/svg" xmlns:xlink="http://www.w3.org/1999/xlink" x="0px" y="0px"
	 width="900px" height="900px" viewBox="0 0 900 900" enable-background="new 0 0 900 900" xml:space="preserve">
<path d="M113.751,150.288v13.301H39.249c-0.107-3.278,0.441-6.545,1.611-9.609c1.904-5.073,4.932-10.073,9.111-14.99
	c4.18-4.922,10.215-10.61,18.105-17.07c12.256-10.044,20.527-18.003,24.834-23.872c4.307-5.869,6.455-11.416,6.455-16.646
	c0-5.483-1.953-10.107-5.879-13.877c-3.916-3.765-9.033-5.649-15.332-5.649c-6.67,0-12.002,2.002-15.996,5.996
	c-3.994,3.999-6.025,9.536-6.074,16.606l-14.219-1.46c0.967-10.61,4.639-18.691,10.996-24.253
	c6.348-5.562,14.883-8.345,25.596-8.345c10.811,0,19.375,2.998,25.684,8.994c6.299,5.996,9.453,13.433,9.453,22.295
	c0,4.512-0.928,8.945-2.773,13.301c-1.836,4.36-4.902,8.945-9.18,13.765c-4.287,4.814-11.396,11.431-21.338,19.834
	c-8.301,6.973-13.633,11.699-15.986,14.185c-2.363,2.485-4.307,4.985-5.85,7.495L113.751,150.288L113.751,150.288z M297.218,662.485
	v-74.098h9.805v30.425h38.516v-30.425h9.805v74.098h-9.805v-34.928h-38.516v34.928H297.218z M407.257,645.2l9.396,1.162
	c-1.484,5.493-4.229,9.756-8.232,12.788c-4.014,3.031-9.141,4.546-15.371,4.546c-7.852,0-14.072-2.417-18.672-7.251
	s-6.904-11.616-6.904-20.348c0-9.027,2.324-16.034,6.973-21.024c4.658-4.985,10.684-7.48,18.096-7.48
	c7.178,0,13.047,2.446,17.598,7.329c4.541,4.889,6.816,11.764,6.816,20.625c0,0.537-0.01,1.349-0.049,2.422h-40.029
	c0.332,5.898,2.002,10.415,5,13.551c2.998,3.135,6.738,4.696,11.221,4.696c3.34,0,6.182-0.874,8.544-2.627
	C404.007,651.836,405.87,649.038,407.257,645.2L407.257,645.2z M377.384,630.488h29.972c-0.41-4.513-1.554-7.9-3.438-10.156
	c-2.9-3.506-6.66-5.259-11.27-5.259c-4.18,0-7.695,1.4-10.537,4.193C379.259,622.065,377.687,625.806,377.384,630.488
	L377.384,630.488z M427.872,662.485v-74.098h9.102v74.098H427.872z M451.124,598.848v-10.459h9.102v10.459H451.124z
	 M451.124,662.485v-53.678h9.102v53.678H451.124z M509.249,662.485V654.6c-4.18,6.064-9.854,9.098-17.031,9.098
	c-3.174,0-6.123-0.605-8.877-1.816c-2.744-1.216-4.785-2.739-6.112-4.575c-1.328-1.836-2.267-4.087-2.804-6.748
	c-0.371-1.786-0.557-4.613-0.557-8.49V608.81h9.102v29.771c0,4.751,0.187,7.949,0.558,9.6c0.565,2.397,1.776,4.272,3.633,5.641
	c1.854,1.361,4.149,2.046,6.875,2.046c2.733,0,5.293-0.698,7.686-2.101c2.394-1.396,4.082-3.301,5.078-5.708
	c0.996-2.411,1.494-5.907,1.494-10.487v-28.761h9.092v53.678h-8.136V662.485z M531.642,662.485v-53.678h8.136v7.529
	c1.688-2.627,3.926-4.741,6.719-6.343c2.803-1.603,5.986-2.402,9.561-2.402c3.976,0,7.236,0.825,9.775,2.477
	c2.549,1.654,4.336,3.96,5.381,6.929c4.248-6.271,9.775-9.404,16.582-9.404c5.322,0,9.414,1.476,12.285,4.425
	c2.861,2.948,4.297,7.489,4.297,13.622v36.847h-9.053v-33.813c0-3.643-0.293-6.26-0.879-7.86c-0.597-1.603-1.66-2.892-3.213-3.867
	c-1.554-0.977-3.369-1.465-5.459-1.465c-3.771,0-6.904,1.255-9.404,3.765c-2.49,2.51-3.74,6.528-3.74,12.056v31.188h-9.092V627.61
	c0-4.043-0.742-7.075-2.227-9.098c-1.485-2.021-3.906-3.031-7.275-3.031c-2.568,0-4.932,0.674-7.109,2.021
	c-2.168,1.348-3.74,3.32-4.727,5.913c-0.978,2.598-1.465,6.338-1.465,11.221v27.853h-9.093V662.485z M90.392,848.315v-17.739H58.253
	v-8.34l33.809-48.019h7.432v48.019h10.01v8.34h-10.01v17.739H90.392L90.392,848.315z M90.392,822.236v-33.413l-23.193,33.413H90.392
	z M123.907,848.315v-10.361h10.361v10.361H123.907L123.907,848.315z M147.56,811.772c0-8.761,0.898-15.812,2.705-21.152
	c1.797-5.342,4.482-9.463,8.037-12.358c3.555-2.899,8.027-4.351,13.418-4.351c3.975,0,7.461,0.801,10.459,2.402
	c2.998,1.601,5.479,3.911,7.432,6.924c1.953,3.018,3.486,6.688,4.6,11.021c1.114,4.332,1.67,10.166,1.67,17.516
	c0,8.69-0.889,15.713-2.676,21.05c-1.787,5.342-4.463,9.473-8.018,12.383c-3.555,2.915-8.047,4.375-13.467,4.375
	c-7.148,0-12.754-2.563-16.836-7.686C150.001,835.729,147.56,825.688,147.56,811.772L147.56,811.772z M156.905,811.772
	c0,12.163,1.426,20.259,4.277,24.286c2.842,4.023,6.357,6.04,10.537,6.04c4.18,0,7.695-2.021,10.537-6.063
	c2.852-4.048,4.268-12.134,4.268-24.263c0-12.197-1.416-20.304-4.268-24.313c-2.842-4.009-6.396-6.016-10.635-6.016
	c-4.18,0-7.52,1.768-10.01,5.308C158.478,791.27,156.905,799.609,156.905,811.772L156.905,811.772z M205.128,811.772
	c0-8.761,0.898-15.812,2.705-21.152c1.797-5.342,4.482-9.463,8.037-12.358c3.555-2.899,8.027-4.351,13.418-4.351
	c3.975,0,7.461,0.801,10.459,2.402c2.998,1.601,5.479,3.911,7.432,6.924c1.953,3.018,3.486,6.688,4.6,11.021
	c1.114,4.332,1.67,10.166,1.67,17.516c0,8.69-0.889,15.713-2.676,21.05c-1.787,5.342-4.463,9.473-8.018,12.383
	c-3.555,2.915-8.047,4.375-13.467,4.375c-7.148,0-12.754-2.563-16.836-7.686C207.569,835.729,205.128,825.688,205.128,811.772
	L205.128,811.772z M214.474,811.772c0,12.163,1.426,20.259,4.277,24.286c2.842,4.023,6.357,6.04,10.537,6.04
	c4.18,0,7.695-2.021,10.537-6.063c2.852-4.048,4.268-12.134,4.268-24.263c0-12.197-1.416-20.304-4.268-24.313
	c-2.842-4.009-6.396-6.016-10.635-6.016c-4.18,0-7.52,1.768-10.01,5.308C216.046,791.27,214.474,799.609,214.474,811.772
	L214.474,811.772z M310.519,839.57v8.745h-48.975c-0.076-2.156,0.286-4.306,1.064-6.318c1.24-3.335,3.242-6.621,5.986-9.858
	c2.744-3.231,6.709-6.973,11.904-11.221c8.047-6.602,13.496-11.831,16.328-15.693c2.822-3.856,4.238-7.505,4.238-10.941
	c0-3.604-1.289-6.646-3.867-9.121c-2.578-2.48-5.938-3.716-10.078-3.716c-4.385,0-7.891,1.313-10.518,3.939
	c-2.627,2.633-3.955,6.271-3.994,10.918l-9.346-0.956c0.635-6.979,3.047-12.296,7.227-15.947c4.18-3.657,9.785-5.488,16.836-5.488
	c7.109,0,12.734,1.973,16.875,5.918c4.15,3.94,6.221,8.828,6.221,14.658c0,2.964-0.605,5.879-1.816,8.74
	c-1.221,2.865-3.232,5.884-6.045,9.048c-2.813,3.169-7.49,7.515-14.023,13.042c-5.459,4.585-8.965,7.689-10.518,9.326
	c-1.553,1.636-2.832,3.275-3.838,4.927L310.519,839.57L310.519,839.57z M367.481,792.363l-9.043,0.708
	c-0.811-3.574-1.953-6.167-3.438-7.783c-2.461-2.598-5.498-3.896-9.102-3.896c-2.9,0-5.439,0.812-7.627,2.428
	c-2.871,2.09-5.127,5.142-6.777,9.149s-2.51,9.723-2.578,17.135c2.188-3.336,4.873-5.812,8.037-7.428
	c3.164-1.621,6.484-2.427,9.961-2.427c6.064,0,11.221,2.231,15.488,6.694c4.258,4.468,6.396,10.233,6.396,17.313
	c0,4.648-1.006,8.97-3.008,12.964c-2.012,3.994-4.766,7.052-8.262,9.176c-3.506,2.118-7.49,3.184-11.934,3.184
	c-7.578,0-13.77-2.788-18.545-8.364c-4.795-5.576-7.178-14.771-7.178-27.573c0-14.32,2.637-24.735,7.93-31.234
	c4.619-5.664,10.83-8.496,18.652-8.496c5.83,0,10.605,1.636,14.326,4.907C364.513,782.085,366.739,786.602,367.481,792.363
	L367.481,792.363z M330.333,824.307c0,3.136,0.664,6.134,1.992,8.999c1.338,2.861,3.193,5.044,5.586,6.543s4.902,2.251,7.529,2.251
	c3.848,0,7.148-1.553,9.912-4.652c2.764-3.097,4.141-7.311,4.141-12.632c0-5.122-1.357-9.16-4.092-12.109
	c-2.725-2.944-6.162-4.419-10.313-4.419c-4.111,0-7.598,1.475-10.459,4.419C331.769,815.654,330.333,819.521,330.333,824.307
	L330.333,824.307z M298.204,449.995V265.107h37.334v72.769h73.145v-72.769h37.334v184.888h-37.334v-80.84h-73.145v80.84H298.204
	L298.204,449.995z M561.915,407.368l35.313,5.928c-4.541,12.949-11.709,22.808-21.505,29.575
	c-9.795,6.767-22.051,10.151-36.768,10.151c-23.291,0-40.527-7.607-51.709-22.827c-8.828-12.192-13.242-27.578-13.242-46.157
	c0-22.197,5.801-39.58,17.412-52.153c11.602-12.567,26.271-18.853,44.014-18.853c19.922,0,35.646,6.577,47.168,19.735
	c11.515,13.159,17.021,33.315,16.523,60.475h-88.789c0.254,10.513,3.104,18.687,8.574,24.531c5.469,5.844,12.274,8.765,20.43,8.765
	c5.547,0,10.215-1.514,14.004-4.541C557.12,418.97,559.981,414.097,561.915,407.368L561.915,407.368z M563.927,371.548
	c-0.244-10.254-2.899-18.052-7.938-23.394c-5.049-5.337-11.183-8.009-18.418-8.009c-7.734,0-14.121,2.817-19.17,8.452
	c-5.039,5.63-7.521,13.286-7.441,22.949L563.927,371.548L563.927,371.548z M860.763,109.194v7.588h-42.5
	c-0.069-1.871,0.243-3.737,0.918-5.483c1.084-2.896,2.813-5.747,5.195-8.555c2.382-2.808,5.83-6.055,10.332-9.736
	c6.992-5.732,11.709-10.273,14.17-13.623c2.451-3.35,3.683-6.514,3.683-9.497c0-3.13-1.113-5.767-3.351-7.915
	c-2.246-2.153-5.156-3.228-8.76-3.228c-3.799,0-6.836,1.143-9.121,3.423c-2.275,2.28-3.438,5.439-3.467,9.478l-8.115-0.835
	c0.557-6.055,2.646-10.669,6.279-13.843c3.623-3.169,8.485-4.756,14.6-4.756c6.172,0,11.055,1.709,14.658,5.132
	c3.594,3.423,5.391,7.661,5.391,12.72c0,2.573-0.526,5.103-1.571,7.588c-1.056,2.485-2.804,5.107-5.244,7.852
	c-2.441,2.749-6.504,6.523-12.179,11.318c-4.735,3.979-7.772,6.675-9.12,8.096c-1.349,1.416-2.461,2.842-3.341,4.277
	L860.763,109.194L860.763,109.194z"/>
</svg>
