<?xml version="1.0" encoding="utf-8"?>
<!-- Generator: Adobe Illustrator 16.0.3, SVG Export Plug-In . SVG Version: 6.00 Build 0)  -->
<!DOCTYPE svg PUBLIC "-//W3C//DTD SVG 1.1//EN" "http://www.w3.org/Graphics/SVG/1.1/DTD/svg11.dtd">
<svg version="1.1" id="Layer_1" xmlns="http://www.w3.org/2000/svg" xmlns:xlink="http://www.w3.org/1999/xlink" x="0px" y="0px"
	 width="900px" height="900px" viewBox="0 0 900 900" enable-background="new 0 0 900 900" xml:space="preserve">
<path d="M113.355,150.281v13.301H38.854c-0.107-3.278,0.441-6.545,1.611-9.609c1.904-5.073,4.932-10.073,9.111-14.99
	c4.18-4.922,10.215-10.61,18.105-17.07c12.256-10.044,20.527-18.003,24.834-23.872c4.307-5.869,6.455-11.416,6.455-16.646
	c0-5.483-1.953-10.107-5.879-13.877c-3.916-3.765-9.033-5.649-15.332-5.649c-6.67,0-12.002,2.002-15.996,5.996
	c-3.994,3.999-6.025,9.536-6.074,16.606l-14.219-1.46c0.967-10.61,4.639-18.691,10.996-24.253
	c6.348-5.562,14.883-8.345,25.596-8.345c10.811,0,19.375,2.998,25.684,8.994c6.299,5.996,9.453,13.433,9.453,22.295
	c0,4.512-0.928,8.945-2.773,13.301c-1.836,4.36-4.902,8.945-9.18,13.765c-4.287,4.814-11.396,11.431-21.338,19.834
	c-8.301,6.973-13.633,11.699-15.986,14.185c-2.363,2.485-4.307,4.985-5.85,7.495L113.355,150.281L113.355,150.281z M128.189,107.996
	c0-13.325,1.377-24.048,4.111-32.173c2.744-8.125,6.816-14.39,12.227-18.799c5.41-4.404,12.207-6.611,20.41-6.611
	c6.045,0,11.357,1.221,15.918,3.652c4.561,2.437,8.33,5.947,11.299,10.532c2.969,4.59,5.303,10.176,7.002,16.763
	c1.688,6.582,2.529,15.464,2.529,26.636c0,13.223-1.357,23.901-4.072,32.021c-2.715,8.125-6.777,14.404-12.188,18.838
	c-5.4,4.434-12.236,6.65-20.488,6.65c-10.859,0-19.395-3.896-25.596-11.689C131.91,144.436,128.189,129.167,128.189,107.996
	L128.189,107.996z M142.418,107.996c0,18.506,2.158,30.82,6.494,36.943c4.326,6.123,9.668,9.185,16.025,9.185
	s11.699-3.071,16.035-9.224c4.326-6.152,6.494-18.452,6.494-36.904c0-18.55-2.168-30.879-6.494-36.978
	c-4.336-6.099-9.727-9.15-16.182-9.15c-6.357,0-11.436,2.69-15.225,8.071C144.801,76.809,142.418,89.495,142.418,107.996
	L142.418,107.996z M323.502,636.521l9.805,2.461c-2.061,8.065-5.752,14.198-11.094,18.438c-5.342,4.219-11.875,6.328-19.59,6.328
	c-7.988,0-14.482-1.621-19.482-4.863c-5.01-3.262-8.818-7.969-11.426-14.141c-2.607-6.152-3.916-12.773-3.916-19.863
	c0-7.715,1.475-14.434,4.424-20.195c2.949-5.741,7.139-10.098,12.588-13.086c5.439-2.969,11.426-4.473,17.969-4.473
	c7.412,0,13.643,1.896,18.701,5.664c5.049,3.77,8.574,9.082,10.557,15.918l-9.648,2.285c-1.719-5.391-4.219-9.316-7.48-11.777
	c-3.271-2.461-7.383-3.69-12.334-3.69c-5.693,0-10.459,1.366-14.277,4.082c-3.828,2.733-6.514,6.405-8.066,10.995
	c-1.547,4.588-2.333,9.397-2.324,14.238c0,6.289,0.918,11.797,2.754,16.504c1.836,4.688,4.697,8.203,8.564,10.527
	c3.877,2.324,8.076,3.496,12.588,3.496c5.498,0,10.146-1.582,13.955-4.746C319.576,647.439,322.154,642.752,323.502,636.521z
	 M379.254,655.877c-3.379,2.852-6.621,4.883-9.736,6.055c-3.115,1.191-6.455,1.777-10.029,1.777c-5.898,0-10.43-1.445-13.594-4.316
	c-3.174-2.891-4.756-6.563-4.756-11.055c0-2.617,0.596-5.02,1.797-7.207c1.191-2.168,2.764-3.906,4.697-5.215
	c1.934-1.328,4.121-2.324,6.543-2.988c1.787-0.469,4.482-0.938,8.086-1.367c7.354-0.879,12.754-1.913,16.23-3.125
	c0.029-1.25,0.049-2.051,0.049-2.383c0-3.711-0.859-6.328-2.578-7.832c-2.324-2.051-5.781-3.086-10.361-3.086
	c-4.277,0-7.441,0.742-9.473,2.246c-2.041,1.504-3.555,4.16-4.531,7.969l-8.896-1.211c0.811-3.809,2.148-6.895,3.994-9.237
	c1.855-2.345,4.531-4.142,8.037-5.41c3.506-1.25,7.568-1.896,12.188-1.896c4.58,0,8.301,0.547,11.172,1.621
	c2.861,1.074,4.961,2.441,6.309,4.063c1.348,1.641,2.295,3.711,2.832,6.19c0.303,1.563,0.459,4.355,0.459,8.398v12.129
	c0,8.457,0.195,13.809,0.576,16.055c0.398,2.264,1.178,4.442,2.305,6.445h-9.502C380.123,660.604,379.518,658.396,379.254,655.877
	L379.254,655.877z M378.492,635.545c-3.301,1.348-8.262,2.5-14.863,3.438c-3.74,0.547-6.387,1.151-7.93,1.836
	c-1.553,0.664-2.754,1.659-3.594,2.948s-1.26,2.734-1.26,4.316c0,2.422,0.918,4.453,2.754,6.074s4.521,2.422,8.057,2.422
	c3.506,0,6.621-0.762,9.355-2.305c2.725-1.523,4.736-3.634,6.016-6.289c0.977-2.052,1.465-5.078,1.465-9.103V635.545
	L378.492,635.545z M401.588,662.498v-74.102h9.103v74.102H401.588z M459.82,642.83l8.944,1.172
	c-0.977,6.152-3.485,10.978-7.51,14.473c-4.023,3.496-8.975,5.234-14.834,5.234c-7.344,0-13.252-2.402-17.715-7.207
	s-6.699-11.68-6.699-20.645c0-5.802,0.957-10.859,2.881-15.215c1.925-4.356,4.845-7.617,8.771-9.785s8.192-3.263,12.813-3.263
	c5.83,0,10.597,1.484,14.308,4.435c3.7,2.949,6.084,7.129,7.129,12.559l-8.849,1.367c-0.84-3.613-2.334-6.328-4.473-8.145
	c-2.139-1.817-4.727-2.734-7.764-2.734c-4.58,0-8.301,1.641-11.162,4.941c-2.871,3.28-4.297,8.477-4.297,15.586
	c0,7.207,1.377,12.461,4.141,15.723s6.367,4.902,10.82,4.902c3.563,0,6.553-1.095,8.945-3.281
	C457.661,650.76,459.176,647.381,459.82,642.83z M476.598,598.865v-10.469h9.103v10.469H476.598z M476.598,662.498v-53.691h9.103
	v53.691H476.598z M534.723,662.498v-7.891c-4.18,6.073-9.854,9.102-17.03,9.102c-3.175,0-6.123-0.604-8.877-1.816
	c-2.744-1.211-4.785-2.733-6.113-4.59c-1.328-1.836-2.267-4.082-2.803-6.737c-0.371-1.777-0.558-4.609-0.558-8.496v-33.263h9.103
	v29.785c0,4.746,0.186,7.949,0.557,9.59c0.566,2.402,1.777,4.277,3.633,5.646c1.856,1.368,4.15,2.051,6.875,2.051
	c2.734,0,5.293-0.703,7.687-2.108c2.393-1.388,4.082-3.302,5.078-5.703c0.995-2.402,1.493-5.898,1.493-10.488v-28.77h9.093v53.69
	L534.723,662.498L534.723,662.498z M557.115,662.498v-53.691h8.135v7.539c1.689-2.637,3.926-4.746,6.719-6.348
	c2.804-1.602,5.986-2.402,9.562-2.402c3.975,0,7.235,0.841,9.774,2.48c2.55,1.66,4.336,3.965,5.381,6.934
	c4.248-6.27,9.775-9.414,16.582-9.414c5.322,0,9.414,1.484,12.285,4.435c2.861,2.949,4.297,7.479,4.297,13.612v36.855h-9.053V628.67
	c0-3.633-0.293-6.25-0.879-7.852c-0.596-1.603-1.66-2.892-3.213-3.867c-1.553-0.977-3.369-1.465-5.459-1.465
	c-3.771,0-6.904,1.25-9.404,3.77c-2.49,2.5-3.74,6.523-3.74,12.051v31.191h-9.092v-34.883c0-4.043-0.742-7.07-2.227-9.103
	c-1.484-2.012-3.906-3.026-7.275-3.026c-2.567,0-4.932,0.684-7.108,2.03c-2.168,1.349-3.74,3.302-4.728,5.898
	c-0.977,2.598-1.465,6.348-1.465,11.229v27.853L557.115,662.498L557.115,662.498z M89.996,848.338v-17.754H57.857v-8.34
	l33.809-48.008h7.432v48.008h10.01v8.34h-10.01v17.754H89.996z M89.996,822.244v-33.398l-23.193,33.398H89.996z M118.404,811.795
	c0-8.77,0.898-15.82,2.705-21.152c1.797-5.352,4.482-9.473,8.037-12.362s8.027-4.355,13.418-4.355c3.975,0,7.461,0.802,10.459,2.402
	s5.479,3.906,7.432,6.934c1.953,3.009,3.486,6.681,4.6,11.017c1.114,4.336,1.67,10.176,1.67,17.52
	c0,8.691-0.889,15.703-2.676,21.056c-1.787,5.331-4.463,9.452-8.018,12.383c-3.555,2.91-8.047,4.354-13.467,4.354
	c-7.148,0-12.754-2.559-16.836-7.676C120.846,835.74,118.404,825.701,118.404,811.795L118.404,811.795z M127.75,811.795
	c0,12.168,1.426,20.254,4.277,24.277c2.842,4.022,6.357,6.035,10.537,6.035s7.695-2.013,10.537-6.056
	c2.852-4.043,4.268-12.129,4.268-24.258c0-12.207-1.416-20.313-4.268-24.315c-2.842-4.005-6.396-6.017-10.635-6.017
	c-4.18,0-7.52,1.777-10.01,5.313C129.322,791.287,127.75,799.627,127.75,811.795L127.75,811.795z M181.08,848.338v-10.371h10.361
	v10.371H181.08z M204.732,811.795c0-8.77,0.898-15.82,2.705-21.152c1.797-5.352,4.482-9.473,8.037-12.362s8.027-4.355,13.418-4.355
	c3.975,0,7.461,0.802,10.459,2.402s5.479,3.906,7.432,6.934c1.953,3.009,3.486,6.681,4.6,11.017c1.114,4.336,1.67,10.176,1.67,17.52
	c0,8.691-0.889,15.703-2.676,21.056c-1.787,5.331-4.463,9.452-8.018,12.383c-3.555,2.91-8.047,4.354-13.467,4.354
	c-7.148,0-12.754-2.559-16.836-7.676C207.174,835.74,204.732,825.701,204.732,811.795L204.732,811.795z M214.078,811.795
	c0,12.168,1.426,20.254,4.277,24.277c2.842,4.022,6.357,6.035,10.537,6.035s7.695-2.013,10.537-6.056
	c2.852-4.043,4.268-12.129,4.268-24.258c0-12.207-1.416-20.313-4.268-24.315c-2.842-4.005-6.396-6.017-10.635-6.017
	c-4.18,0-7.52,1.777-10.01,5.313C215.65,791.287,214.078,799.627,214.078,811.795L214.078,811.795z M262.916,783.943v-8.75h47.969
	v7.069c-4.717,5.021-9.395,11.699-14.023,20.021c-4.639,8.32-8.213,16.895-10.742,25.684c-1.826,6.191-2.988,12.988-3.486,20.371
	h-9.355c0.098-5.84,1.25-12.871,3.438-21.133s5.332-16.211,9.424-23.887c4.102-7.656,8.457-14.121,13.066-19.375H262.916z
	 M333.883,808.143c-3.779-1.366-6.572-3.34-8.398-5.897c-1.816-2.578-2.725-5.646-2.725-9.199c0-5.391,1.934-9.922,5.811-13.612
	c3.877-3.673,9.033-5.509,15.469-5.509c6.465,0,11.68,1.896,15.615,5.646c3.945,3.75,5.918,8.34,5.918,13.729
	c0,3.438-0.898,6.427-2.705,8.966c-1.807,2.538-4.541,4.512-8.213,5.879c4.551,1.483,8.008,3.887,10.391,7.188
	c2.373,3.301,3.555,7.246,3.555,11.816c0,6.348-2.236,11.66-6.719,15.977c-4.483,4.317-10.381,6.465-17.686,6.465
	c-7.314,0-13.213-2.147-17.695-6.483s-6.719-9.728-6.719-16.211c0-4.806,1.221-8.849,3.662-12.091
	C325.885,811.541,329.361,809.334,333.883,808.143L333.883,808.143z M329.127,826.951c0,2.598,0.615,5.098,1.846,7.539
	c1.23,2.422,3.057,4.297,5.488,5.625c2.422,1.328,5.029,1.992,7.832,1.992c4.346,0,7.93-1.388,10.762-4.181
	c2.832-2.813,4.248-6.366,4.248-10.664c0-4.395-1.455-8.008-4.375-10.879c-2.91-2.852-6.563-4.297-10.938-4.297
	c-4.277,0-7.832,1.426-10.645,4.258S329.127,822.713,329.127,826.951L329.127,826.951z M332.057,792.732
	c0,3.516,1.133,6.366,3.389,8.594c2.256,2.227,5.186,3.34,8.799,3.34c3.506,0,6.377-1.113,8.613-3.32
	c2.246-2.207,3.359-4.901,3.359-8.104c0-3.34-1.152-6.133-3.457-8.418c-2.314-2.267-5.186-3.418-8.623-3.418
	c-3.467,0-6.348,1.112-8.643,3.34C333.209,786.971,332.057,789.627,332.057,792.732L332.057,792.732z M415.982,382.024l36.19,11.479
	c-5.547,20.176-14.774,35.166-27.676,44.961c-12.91,9.795-29.287,14.692-49.121,14.692c-24.561,0-44.736-8.389-60.537-25.161
	c-15.811-16.772-23.711-39.707-23.711-68.799c0-30.771,7.939-54.673,23.838-71.694c15.889-17.026,36.777-25.542,62.676-25.542
	c22.617,0,40.986,6.685,55.117,20.054c8.398,7.905,14.707,19.253,18.916,34.053l-36.953,8.828
	c-2.188-9.585-6.748-17.153-13.682-22.701c-6.943-5.552-15.371-8.325-25.293-8.325c-13.701,0-24.824,4.917-33.359,14.756
	c-8.535,9.839-12.793,25.771-12.793,47.798c0,23.374,4.199,40.024,12.607,49.941c8.408,9.922,19.336,14.883,32.793,14.883
	c9.922,0,18.457-3.154,25.596-9.458C407.74,405.481,412.867,395.564,415.982,382.024L415.982,382.024z M510.436,356.926
	l-32.157-5.801c3.612-12.944,9.844-22.529,18.672-28.755c8.828-6.221,21.942-9.331,39.346-9.331c15.801,0,27.578,1.87,35.313,5.61
	c7.733,3.745,13.174,8.496,16.328,14.253c3.153,5.762,4.735,16.333,4.735,31.719l-0.381,41.367c0,11.771,0.566,20.449,1.699,26.04
	c1.133,5.596,3.262,11.587,6.367,17.974h-35.06c-0.928-2.354-2.061-5.845-3.397-10.469c-0.597-2.101-1.017-3.486-1.271-4.16
	c-6.055,5.884-12.529,10.298-19.414,13.242c-6.895,2.938-14.258,4.414-22.07,4.414c-13.799,0-24.657-3.74-32.606-11.226
	c-7.939-7.479-11.914-16.938-11.914-28.374c0-7.567,1.807-14.315,5.42-20.243c3.613-5.929,8.683-10.47,15.195-13.618
	c6.514-3.154,15.908-5.908,28.192-8.263c16.563-3.109,28.037-6.011,34.425-8.7v-3.535c0-6.808-1.681-11.665-5.039-14.565
	c-3.369-2.899-9.718-4.351-19.043-4.351c-6.31,0-11.23,1.24-14.757,3.721C515.484,346.355,512.623,350.706,510.436,356.926z
	 M557.857,385.681c-4.541,1.515-11.729,3.325-21.563,5.426c-9.834,2.104-16.27,4.159-19.297,6.182
	c-4.629,3.276-6.935,7.437-6.935,12.485c0,4.961,1.847,9.248,5.548,12.86c3.7,3.618,8.407,5.425,14.121,5.425
	c6.396,0,12.489-2.1,18.291-6.309c4.286-3.193,7.1-7.104,8.446-11.729c0.929-3.027,1.388-8.784,1.388-17.275L557.857,385.681
	L557.857,385.681z M860.367,109.211v7.588h-42.5c-0.07-1.871,0.242-3.736,0.918-5.483c1.084-2.896,2.813-5.747,5.195-8.555
	c2.382-2.808,5.83-6.055,10.332-9.736c6.991-5.732,11.709-10.273,14.17-13.623c2.45-3.35,3.682-6.514,3.682-9.497
	c0-3.13-1.113-5.767-3.35-7.915c-2.246-2.153-5.156-3.228-8.761-3.228c-3.799,0-6.836,1.143-9.121,3.423
	c-2.274,2.28-3.438,5.439-3.467,9.478l-8.114-0.835c0.557-6.055,2.646-10.669,6.278-13.843c3.623-3.169,8.486-4.756,14.601-4.756
	c6.172,0,11.055,1.709,14.657,5.132c3.595,3.423,5.392,7.661,5.392,12.72c0,2.573-0.527,5.103-1.572,7.588
	c-1.055,2.485-2.803,5.107-5.244,7.852c-2.44,2.749-6.504,6.523-12.178,11.318c-4.736,3.979-7.773,6.675-9.121,8.096
	c-1.348,1.416-2.461,2.842-3.34,4.277L860.367,109.211L860.367,109.211z M831.021,171.765c-3.271-1.201-5.703-2.91-7.285-5.132
	c-1.572-2.222-2.363-4.888-2.363-7.983c0-4.683,1.68-8.613,5.039-11.802c3.369-3.188,7.842-4.78,13.428-4.78
	c5.615,0,10.137,1.631,13.555,4.888c3.419,3.262,5.138,7.231,5.138,11.914c0,2.979-0.791,5.576-2.354,7.783
	c-1.563,2.207-3.936,3.911-7.129,5.112c3.955,1.284,6.953,3.364,9.014,6.226c2.07,2.871,3.097,6.289,3.097,10.269
	c0,5.498-1.943,10.117-5.83,13.862c-3.896,3.74-9.014,5.615-15.361,5.615c-6.338,0-11.455-1.88-15.352-5.64
	c-3.888-3.755-5.83-8.442-5.83-14.058c0-4.185,1.055-7.686,3.184-10.508C824.088,174.709,827.105,172.786,831.021,171.765z
	 M826.9,188.083c0,2.251,0.526,4.429,1.602,6.533c1.064,2.109,2.656,3.74,4.756,4.893c2.081,1.148,4.421,1.745,6.797,1.733
	c3.779,0,6.896-1.211,9.347-3.643c2.461-2.427,3.69-5.513,3.69-9.253c0-3.804-1.27-6.948-3.799-9.434s-5.693-3.726-9.502-3.726
	c-3.711,0-6.787,1.226-9.229,3.682C828.12,181.324,826.9,184.397,826.9,188.083L826.9,188.083z M829.439,158.386
	c0,3.042,0.985,5.527,2.938,7.456c1.963,1.929,4.502,2.896,7.637,2.896c3.037,0,5.537-0.957,7.48-2.876
	c1.943-1.914,2.92-4.258,2.92-7.036c0-2.896-1.006-5.332-3.008-7.305c-2.002-1.978-4.502-2.964-7.48-2.964
	c-3.018,0-5.518,0.967-7.5,2.896C830.436,153.386,829.439,155.696,829.439,158.386L829.439,158.386z M831.021,261.604
	c-3.271-1.201-5.703-2.91-7.285-5.132c-1.572-2.222-2.363-4.888-2.363-7.983c0-4.683,1.68-8.613,5.039-11.802
	c3.369-3.188,7.842-4.78,13.428-4.78c5.615,0,10.137,1.631,13.555,4.888c3.419,3.262,5.138,7.231,5.138,11.914
	c0,2.979-0.791,5.576-2.354,7.783c-1.563,2.207-3.936,3.911-7.129,5.112c3.955,1.284,6.953,3.364,9.014,6.226
	c2.07,2.871,3.097,6.289,3.097,10.269c0,5.498-1.943,10.117-5.83,13.862c-3.896,3.74-9.014,5.615-15.361,5.615
	c-6.338,0-11.455-1.88-15.352-5.64c-3.888-3.755-5.83-8.442-5.83-14.058c0-4.185,1.055-7.686,3.184-10.508
	C824.088,264.548,827.105,262.625,831.021,261.604z M826.9,277.922c0,2.251,0.526,4.429,1.602,6.533
	c1.064,2.109,2.656,3.74,4.756,4.893c2.081,1.149,4.421,1.746,6.797,1.733c3.779,0,6.896-1.211,9.347-3.643
	c2.461-2.427,3.69-5.513,3.69-9.253c0-3.804-1.27-6.948-3.799-9.434c-2.529-2.486-5.693-3.726-9.502-3.726
	c-3.711,0-6.787,1.226-9.229,3.682C828.12,271.163,826.9,274.236,826.9,277.922L826.9,277.922z M829.439,248.225
	c0,3.042,0.985,5.527,2.938,7.456c1.963,1.929,4.502,2.896,7.637,2.896c3.037,0,5.537-0.957,7.48-2.876
	c1.943-1.914,2.92-4.258,2.92-7.036c0-2.896-1.006-5.332-3.008-7.305c-2.002-1.978-4.502-2.964-7.48-2.964
	c-3.018,0-5.518,0.967-7.5,2.896C830.436,243.225,829.439,245.535,829.439,248.225L829.439,248.225z M860.367,378.729v7.588h-42.5
	c-0.07-1.871,0.242-3.737,0.918-5.483c1.084-2.896,2.813-5.747,5.195-8.555c2.382-2.809,5.83-6.056,10.332-9.736
	c6.991-5.731,11.709-10.272,14.17-13.623c2.45-3.35,3.682-6.514,3.682-9.497c0-3.13-1.113-5.767-3.35-7.915
	c-2.246-2.152-5.156-3.228-8.761-3.228c-3.799,0-6.836,1.143-9.121,3.423c-2.274,2.28-3.438,5.438-3.467,9.478l-8.114-0.835
	c0.557-6.055,2.646-10.669,6.278-13.843c3.623-3.169,8.486-4.756,14.601-4.756c6.172,0,11.055,1.709,14.657,5.132
	c3.595,3.423,5.392,7.661,5.392,12.72c0,2.573-0.527,5.104-1.572,7.589c-1.055,2.484-2.803,5.106-5.244,7.852
	c-2.44,2.749-6.504,6.523-12.178,11.318c-4.736,3.979-7.773,6.675-9.121,8.096c-1.348,1.416-2.461,2.842-3.34,4.277L860.367,378.729
	L860.367,378.729z"/>
</svg>
