<?xml version="1.0" encoding="utf-8"?>
<!-- Generator: Adobe Illustrator 16.0.3, SVG Export Plug-In . SVG Version: 6.00 Build 0)  -->
<!DOCTYPE svg PUBLIC "-//W3C//DTD SVG 1.1//EN" "http://www.w3.org/Graphics/SVG/1.1/DTD/svg11.dtd">
<svg version="1.1" id="Layer_1" xmlns="http://www.w3.org/2000/svg" xmlns:xlink="http://www.w3.org/1999/xlink" x="0px" y="0px"
	 width="900px" height="900px" viewBox="0 0 900 900" enable-background="new 0 0 900 900" xml:space="preserve">
<path d="M113.355,150.281v13.301H38.854c-0.107-3.278,0.441-6.545,1.611-9.609c1.904-5.073,4.932-10.073,9.111-14.99
	c4.18-4.922,10.215-10.61,18.105-17.07c12.256-10.044,20.527-18.003,24.834-23.872c4.307-5.869,6.455-11.416,6.455-16.646
	c0-5.483-1.953-10.107-5.879-13.877c-3.916-3.765-9.033-5.649-15.332-5.649c-6.67,0-12.002,2.002-15.996,5.996
	c-3.994,3.999-6.025,9.536-6.074,16.606l-14.219-1.46c0.967-10.61,4.639-18.691,10.996-24.253
	c6.348-5.562,14.883-8.345,25.596-8.345c10.811,0,19.375,2.998,25.684,8.994c6.299,5.996,9.453,13.433,9.453,22.295
	c0,4.512-0.928,8.945-2.773,13.301c-1.836,4.36-4.902,8.945-9.18,13.765c-4.287,4.814-11.396,11.431-21.338,19.834
	c-8.301,6.973-13.633,11.699-15.986,14.185c-2.363,2.485-4.307,4.985-5.85,7.495L113.355,150.281L113.355,150.281z M180.318,163.582
	H166.48V75.398c-3.34,3.179-7.705,6.357-13.115,9.536c-5.4,3.179-10.264,5.562-14.561,7.148V78.704
	c7.734-3.638,14.502-8.042,20.293-13.223c5.791-5.176,9.893-10.195,12.305-15.068h8.916V163.582z M224.098,638.689l9.248-0.82
	c0.439,3.711,1.465,6.758,3.057,9.141c1.602,2.363,4.092,4.297,7.461,5.762c3.369,1.466,7.158,2.188,11.367,2.188
	c3.74,0,7.051-0.547,9.912-1.66c2.861-1.112,4.99-2.637,6.396-4.569c1.396-1.953,2.09-4.063,2.09-6.349
	c0-2.324-0.674-4.354-2.021-6.094c-1.347-1.739-3.564-3.203-6.67-4.375c-1.982-0.781-6.387-1.974-13.193-3.613
	c-6.806-1.64-11.572-3.184-14.297-4.629c-3.545-1.854-6.182-4.141-7.91-6.895c-1.738-2.755-2.607-5.82-2.607-9.22
	c0-3.75,1.064-7.246,3.184-10.487c2.119-3.263,5.225-5.724,9.297-7.402c4.082-1.699,8.613-2.539,13.604-2.539
	c5.488,0,10.332,0.879,14.531,2.656c4.189,1.776,7.422,4.375,9.678,7.813c2.256,3.438,3.467,7.324,3.643,11.681l-9.404,0.703
	c-0.508-4.688-2.217-8.224-5.127-10.625c-2.92-2.384-7.227-3.574-12.92-3.574c-5.928,0-10.254,1.074-12.959,3.262
	c-2.715,2.168-4.072,4.785-4.072,7.852c0,2.656,0.957,4.845,2.881,6.563c1.885,1.719,6.816,3.496,14.785,5.293
	c7.969,1.797,13.438,3.379,16.396,4.728c4.316,1.991,7.5,4.512,9.561,7.559c2.051,3.047,3.076,6.563,3.076,10.527
	c0,3.944-1.123,7.655-3.379,11.151c-2.266,3.496-5.508,6.191-9.736,8.146c-4.229,1.934-8.984,2.891-14.277,2.891
	c-6.709,0-12.324-0.977-16.855-2.93c-4.531-1.953-8.086-4.883-10.664-8.81C225.596,648.087,224.234,643.631,224.098,638.689
	L224.098,638.689z M330.348,642.83l8.945,1.172c-0.977,6.152-3.486,10.977-7.51,14.473c-4.024,3.496-8.975,5.234-14.834,5.234
	c-7.344,0-13.252-2.402-17.715-7.207s-6.699-11.68-6.699-20.645c0-5.802,0.957-10.859,2.881-15.216
	c1.924-4.355,4.844-7.616,8.77-9.784c3.926-2.168,8.193-3.263,12.813-3.263c5.83,0,10.596,1.484,14.307,4.435
	c3.701,2.948,6.084,7.129,7.129,12.559l-8.848,1.367c-0.84-3.613-2.334-6.328-4.473-8.146c-2.139-1.816-4.727-2.733-7.764-2.733
	c-4.58,0-8.301,1.641-11.162,4.94c-2.871,3.281-4.297,8.478-4.297,15.586c0,7.207,1.377,12.462,4.141,15.724
	c2.764,3.262,6.367,4.901,10.82,4.901c3.564,0,6.553-1.094,8.945-3.28C328.189,650.76,329.703,647.381,330.348,642.83z
	 M382.105,655.877c-3.379,2.852-6.621,4.883-9.736,6.055c-3.115,1.191-6.455,1.777-10.029,1.777c-5.898,0-10.43-1.445-13.594-4.316
	c-3.174-2.891-4.756-6.563-4.756-11.055c0-2.617,0.596-5.02,1.797-7.207c1.191-2.168,2.764-3.906,4.697-5.215
	c1.934-1.328,4.121-2.324,6.543-2.988c1.787-0.469,4.482-0.938,8.086-1.367c7.354-0.879,12.754-1.914,16.23-3.125
	c0.029-1.25,0.049-2.051,0.049-2.383c0-3.711-0.859-6.328-2.578-7.832c-2.324-2.051-5.781-3.086-10.361-3.086
	c-4.277,0-7.441,0.742-9.473,2.246c-2.041,1.504-3.555,4.16-4.531,7.969l-8.896-1.211c0.811-3.809,2.148-6.895,3.994-9.237
	c1.855-2.345,4.531-4.142,8.037-5.41c3.506-1.25,7.568-1.896,12.188-1.896c4.58,0,8.301,0.547,11.172,1.621
	c2.861,1.074,4.961,2.441,6.309,4.063c1.348,1.641,2.295,3.711,2.832,6.19c0.303,1.563,0.459,4.355,0.459,8.398v12.129
	c0,8.457,0.195,13.809,0.576,16.055c0.398,2.264,1.178,4.442,2.305,6.445h-9.502C382.975,660.604,382.369,658.396,382.105,655.877
	L382.105,655.877z M381.344,635.545c-3.301,1.348-8.262,2.5-14.863,3.438c-3.74,0.548-6.387,1.152-7.93,1.837
	c-1.553,0.663-2.754,1.659-3.594,2.948s-1.26,2.734-1.26,4.316c0,2.422,0.918,4.453,2.754,6.074s4.521,2.422,8.057,2.422
	c3.506,0,6.621-0.763,9.355-2.306c2.725-1.522,4.736-3.633,6.016-6.288c0.977-2.052,1.465-5.078,1.465-9.103V635.545
	L381.344,635.545z M404.645,662.498v-53.691h8.185v7.638c3.945-5.898,9.639-8.849,17.09-8.849c3.232,0,6.201,0.586,8.916,1.758
	c2.715,1.152,4.746,2.677,6.094,4.57c1.349,1.875,2.285,4.121,2.832,6.719c0.332,1.681,0.498,4.629,0.498,8.849v33.008h-9.092
	v-32.656c0-3.711-0.353-6.483-1.064-8.319c-0.702-1.837-1.963-3.302-3.76-4.396c-1.807-1.094-3.926-1.641-6.348-1.641
	c-3.877,0-7.217,1.229-10.029,3.69c-2.822,2.461-4.229,7.129-4.229,14.004v29.316H404.645L404.645,662.498z M497.047,662.498v-6.777
	c-3.408,5.332-8.408,7.988-15.01,7.988c-4.287,0-8.213-1.191-11.807-3.535c-3.584-2.363-6.367-5.664-8.341-9.883
	c-1.973-4.238-2.959-9.102-2.959-14.59c0-5.353,0.898-10.215,2.687-14.57c1.776-4.375,4.463-7.715,8.037-10.039
	c3.563-2.324,7.559-3.496,11.973-3.496c3.232,0,6.123,0.685,8.643,2.051c2.529,1.367,4.591,3.146,6.173,5.332v-26.582h9.043v74.103
	L497.047,662.498L497.047,662.498z M468.287,635.701c0,6.875,1.445,12.012,4.346,15.41c2.9,3.418,6.318,5.116,10.264,5.116
	c3.976,0,7.354-1.62,10.128-4.883c2.782-3.242,4.17-8.203,4.17-14.883c0-7.344-1.416-12.734-4.238-16.172
	c-2.832-3.438-6.318-5.156-10.469-5.156c-4.043,0-7.422,1.642-10.138,4.961C469.645,623.396,468.287,628.592,468.287,635.701
	L468.287,635.701z M519.84,598.865v-10.47h9.103v10.47H519.84z M519.84,662.498v-53.691h9.103v53.691H519.84z M577.965,662.498
	v-7.891c-4.18,6.073-9.854,9.102-17.031,9.102c-3.174,0-6.123-0.605-8.877-1.816c-2.744-1.211-4.785-2.733-6.112-4.59
	c-1.328-1.836-2.267-4.082-2.804-6.738c-0.371-1.776-0.557-4.608-0.557-8.495v-33.263h9.102v29.785c0,4.746,0.187,7.949,0.558,9.59
	c0.565,2.402,1.776,4.277,3.633,5.646s4.15,2.051,6.875,2.051c2.734,0,5.293-0.703,7.686-2.109c2.394-1.387,4.082-3.301,5.078-5.702
	c0.996-2.402,1.494-5.898,1.494-10.488v-28.771h9.092v53.691L577.965,662.498L577.965,662.498z M600.357,662.498v-53.691h8.135
	v7.539c1.688-2.637,3.926-4.746,6.719-6.348c2.803-1.603,5.986-2.402,9.561-2.402c3.976,0,7.236,0.84,9.775,2.48
	c2.549,1.66,4.336,3.965,5.381,6.934c4.248-6.27,9.775-9.414,16.582-9.414c5.322,0,9.414,1.484,12.285,4.435
	c2.861,2.948,4.297,7.479,4.297,13.612v36.855h-9.053V628.67c0-3.633-0.293-6.25-0.879-7.852c-0.596-1.603-1.66-2.892-3.213-3.867
	c-1.554-0.977-3.369-1.465-5.459-1.465c-3.771,0-6.904,1.25-9.404,3.77c-2.49,2.5-3.74,6.523-3.74,12.051v31.191h-9.092v-34.883
	c0-4.043-0.742-7.07-2.227-9.103c-1.484-2.012-3.906-3.026-7.275-3.026c-2.568,0-4.932,0.684-7.109,2.03
	c-2.168,1.349-3.739,3.302-4.727,5.898c-0.977,2.598-1.465,6.348-1.465,11.229v27.853L600.357,662.498L600.357,662.498z
	 M90.006,848.338v-17.754H57.867v-8.34l33.809-48.008h7.432v48.008h10.01v8.34h-10.01v17.754H90.006z M90.006,822.244v-33.398
	l-23.193,33.398H90.006z M147.574,848.338v-17.754h-32.139v-8.34l33.809-48.008h7.432v48.008h10.01v8.34h-10.01v17.754H147.574z
	 M147.574,822.244v-33.398l-23.193,33.398H147.574z M181.09,848.338v-10.371h10.361v10.371H181.09z M206.109,831.189l8.74-0.802
	c0.742,4.121,2.158,7.091,4.248,8.945c2.09,1.854,4.766,2.773,8.037,2.773c2.793,0,5.244-0.625,7.354-1.914
	c2.109-1.271,3.828-2.988,5.176-5.138c1.348-2.129,2.48-5.02,3.389-8.651c0.909-3.642,1.368-7.38,1.367-11.134
	c0-0.391-0.02-0.995-0.049-1.815c-1.826,2.891-4.307,5.254-7.461,7.051c-3.111,1.794-6.643,2.73-10.234,2.715
	c-6.133,0-11.318-2.227-15.566-6.68s-6.367-10.313-6.367-17.598c0-7.5,2.217-13.556,6.65-18.146c4.424-4.57,9.98-6.875,16.65-6.875
	c4.814,0,9.229,1.31,13.213,3.906c3.994,2.598,7.031,6.289,9.102,11.094c2.071,4.805,3.105,11.738,3.105,20.84
	c0,9.474-1.025,17.013-3.076,22.617c-2.061,5.625-5.117,9.883-9.18,12.813c-4.063,2.93-8.818,4.395-14.277,4.395
	c-5.791,0-10.527-1.602-14.199-4.824C209.059,841.562,206.852,837.029,206.109,831.189L206.109,831.189z M243.355,798.494
	c0-5.215-1.387-9.375-4.17-12.441c-2.773-3.065-6.123-4.59-10.029-4.59c-4.043,0-7.568,1.66-10.566,4.961s-4.502,7.578-4.502,12.832
	c0,4.707,1.426,8.555,4.277,11.504c2.842,2.949,6.357,4.414,10.537,4.414c4.209,0,7.676-1.465,10.391-4.414
	C241.998,807.811,243.355,803.729,243.355,798.494z M262.32,828.924l9.551-0.801c0.713,4.648,2.354,8.145,4.932,10.488
	c2.578,2.343,5.684,3.496,9.326,3.496c4.375,0,8.086-1.642,11.113-4.941c3.037-3.301,4.551-7.695,4.551-13.146
	c0-5.194-1.455-9.276-4.365-12.284c-2.92-2.988-6.738-4.492-11.455-4.492c-2.93,0-5.576,0.664-7.93,1.992
	c-2.363,1.328-4.219,3.065-5.566,5.176l-8.535-1.113l7.178-38.047h36.846v8.691h-29.57l-3.994,19.901
	c4.443-3.086,9.111-4.647,14.004-4.647c6.465,0,11.924,2.246,16.377,6.737c4.443,4.474,6.67,10.234,6.67,17.285
	c0,6.699-1.953,12.5-5.869,17.383c-4.746,5.996-11.23,8.984-19.453,8.984c-6.738,0-12.246-1.875-16.504-5.646
	C265.357,840.154,262.926,835.154,262.32,828.924L262.32,828.924z M367.096,792.381l-9.043,0.703
	c-0.811-3.574-1.953-6.172-3.438-7.773c-2.461-2.598-5.498-3.905-9.102-3.905c-2.9,0-5.439,0.819-7.627,2.44
	c-2.871,2.09-5.127,5.138-6.777,9.142s-2.51,9.727-2.578,17.129c2.188-3.34,4.873-5.802,8.037-7.422
	c3.164-1.621,6.484-2.423,9.961-2.423c6.064,0,11.221,2.228,15.488,6.699c4.258,4.453,6.396,10.234,6.396,17.306
	c0,4.647-1.006,8.965-3.008,12.969c-2.012,3.983-4.766,7.051-8.262,9.16c-3.506,2.129-7.49,3.184-11.934,3.184
	c-7.578,0-13.77-2.772-18.545-8.359c-4.795-5.565-7.178-14.766-7.178-27.577c0-14.316,2.637-24.728,7.93-31.23
	c4.619-5.664,10.83-8.496,18.652-8.496c5.83,0,10.605,1.642,14.326,4.902C364.127,782.107,366.354,786.619,367.096,792.381
	L367.096,792.381z M329.947,824.314c-0.008,3.111,0.672,6.186,1.992,9.004c1.338,2.871,3.193,5.059,5.586,6.543
	c2.393,1.504,4.902,2.246,7.529,2.246c3.848,0,7.148-1.543,9.912-4.648c2.764-3.086,4.141-7.305,4.141-12.637
	c0-5.117-1.357-9.142-4.092-12.09c-2.725-2.949-6.162-4.435-10.313-4.435c-4.111,0-7.598,1.484-10.459,4.435
	C331.382,815.682,329.947,819.549,329.947,824.314L329.947,824.314z M295.377,389.836l36.318-3.535
	c2.188,12.192,6.621,21.147,13.301,26.865c6.689,5.718,15.703,8.574,27.061,8.574c12.021,0,21.074-2.539,27.178-7.627
	c6.094-5.088,9.141-11.035,9.141-17.848c0-4.37-1.279-8.091-3.848-11.162c-2.568-3.065-7.041-5.736-13.428-8.008
	c-4.375-1.514-14.336-4.204-29.893-8.07c-20.01-4.962-34.053-11.056-42.119-18.286c-11.357-10.177-17.031-22.578-17.031-37.207
	c0-9.414,2.666-18.223,8.008-26.421c5.342-8.198,13.037-14.438,23.086-18.726c10.039-4.292,22.168-6.436,36.377-6.436
	c23.213,0,40.674,5.088,52.402,15.264c11.729,10.171,17.892,23.75,18.478,40.732l-37.324,1.641
	c-1.602-9.502-5.029-16.333-10.283-20.493c-5.254-4.165-13.135-6.245-23.643-6.245c-10.85,0-19.346,2.231-25.479,6.685
	c-3.955,2.861-5.928,6.685-5.928,11.479c0,4.37,1.846,8.115,5.547,11.221c4.707,3.955,16.143,8.071,34.307,12.363
	c18.164,4.287,31.592,8.722,40.293,13.307c8.7,4.579,15.508,10.845,20.43,18.789c4.922,7.943,7.383,17.764,7.383,29.447
	c0,10.597-2.949,20.519-8.828,29.767c-5.889,9.248-14.209,16.123-24.971,20.62c-10.771,4.497-24.18,6.747-40.234,6.747
	c-23.379,0-41.328-5.404-53.857-16.206C305.289,426.262,297.809,410.52,295.377,389.836L295.377,389.836z M593.639,355.657
	l-34.932,6.304c-1.182-6.978-3.848-12.23-8.008-15.762s-9.57-5.298-16.211-5.298c-8.828,0-15.869,3.047-21.123,9.146
	c-5.254,6.094-7.881,16.289-7.881,30.581c0,15.894,2.666,27.114,8.008,33.672c5.342,6.563,12.51,9.839,21.504,9.839
	c6.729,0,12.236-1.909,16.523-5.736c4.286-3.823,7.313-10.405,9.082-19.736l34.805,5.928c-3.613,15.973-10.558,28.042-20.812,36.191
	c-10.254,8.159-24.004,12.235-41.239,12.235c-19.591,0-35.205-6.181-46.855-18.54c-11.641-12.357-17.461-29.468-17.461-51.327
	c0-22.114,5.84-39.326,17.529-51.646c11.68-12.319,27.49-18.477,47.422-18.477c16.309,0,29.277,3.511,38.906,10.531
	C582.516,330.583,589.439,341.282,593.639,355.657L593.639,355.657z M860.367,109.211v7.588h-42.5
	c-0.07-1.871,0.242-3.737,0.918-5.483c1.084-2.896,2.813-5.747,5.195-8.555c2.382-2.808,5.83-6.055,10.332-9.736
	c6.991-5.732,11.709-10.273,14.17-13.623c2.45-3.35,3.682-6.514,3.682-9.497c0-3.13-1.113-5.767-3.35-7.915
	c-2.246-2.153-5.156-3.229-8.761-3.229c-3.799,0-6.836,1.143-9.12,3.423c-2.275,2.28-3.438,5.439-3.468,9.478l-8.114-0.835
	c0.557-6.055,2.646-10.669,6.278-13.843c3.623-3.169,8.486-4.756,14.601-4.756c6.172,0,11.055,1.709,14.657,5.132
	c3.595,3.423,5.392,7.661,5.392,12.72c0,2.573-0.527,5.103-1.572,7.588c-1.055,2.485-2.803,5.107-5.244,7.852
	c-2.44,2.749-6.504,6.523-12.178,11.318c-4.736,3.979-7.773,6.675-9.121,8.096c-1.348,1.416-2.461,2.842-3.34,4.277L860.367,109.211
	L860.367,109.211z M831.021,171.765c-3.271-1.201-5.703-2.91-7.285-5.132c-1.572-2.222-2.363-4.888-2.363-7.983
	c0-4.683,1.68-8.613,5.039-11.802c3.369-3.188,7.842-4.78,13.428-4.78c5.615,0,10.138,1.631,13.556,4.888
	c3.418,3.262,5.137,7.231,5.137,11.914c0,2.979-0.791,5.576-2.354,7.783c-1.563,2.207-3.936,3.911-7.129,5.112
	c3.955,1.284,6.953,3.364,9.015,6.226c2.069,2.871,3.096,6.289,3.096,10.269c0,5.498-1.943,10.117-5.83,13.862
	c-3.896,3.74-9.014,5.615-15.361,5.615c-6.338,0-11.455-1.88-15.352-5.64c-3.888-3.755-5.83-8.442-5.83-14.058
	c0-4.185,1.055-7.686,3.184-10.508C824.088,174.709,827.105,172.786,831.021,171.765z M826.9,188.083
	c0,2.251,0.526,4.429,1.602,6.533c1.064,2.109,2.656,3.74,4.756,4.893c2.081,1.149,4.421,1.746,6.797,1.733
	c3.779,0,6.896-1.211,9.347-3.643c2.461-2.427,3.69-5.513,3.69-9.253c0-3.804-1.27-6.948-3.799-9.434
	c-2.529-2.486-5.693-3.726-9.502-3.726c-3.711,0-6.787,1.226-9.229,3.682C828.12,181.324,826.9,184.397,826.9,188.083L826.9,188.083
	z M829.439,158.386c0,3.042,0.985,5.527,2.938,7.456c1.963,1.929,4.502,2.896,7.638,2.896c3.036,0,5.536-0.957,7.479-2.876
	c1.943-1.914,2.92-4.258,2.92-7.036c0-2.896-1.006-5.332-3.008-7.305c-2.002-1.978-4.502-2.964-7.48-2.964
	c-3.018,0-5.518,0.967-7.5,2.896C830.437,153.386,829.439,155.696,829.439,158.386L829.439,158.386z M820.055,281.604l7.589-0.698
	c0.645,3.564,1.875,6.157,3.69,7.764c1.807,1.606,4.131,2.412,6.973,2.412c2.423,0,4.552-0.557,6.378-1.665
	c1.827-1.113,3.368-2.638,4.502-4.453c1.172-1.86,2.147-4.365,2.938-7.524s1.183-6.377,1.183-9.648c0-0.352-0.021-0.879-0.039-1.582
	c-1.582,2.515-3.74,4.556-6.476,6.118c-2.733,1.567-5.692,2.349-8.887,2.349c-5.322,0-9.824-1.929-13.506-5.791
	c-3.691-3.857-5.527-8.95-5.527-15.264c0-6.523,1.924-11.772,5.771-15.752c3.838-3.975,8.662-5.962,14.453-5.962
	c4.18,0,7.998,1.123,11.465,3.374c3.467,2.256,6.104,5.464,7.899,9.629c1.798,4.17,2.695,10.2,2.695,18.096
	c0,8.218-0.889,14.761-2.676,19.634c-1.787,4.868-4.435,8.574-7.959,11.118c-3.525,2.544-7.656,3.818-12.394,3.818
	c-5.028,0-9.141-1.396-12.323-4.189C822.613,290.593,820.699,286.667,820.055,281.604L820.055,281.604z M852.389,253.225
	c0-4.531-1.211-8.13-3.623-10.791c-2.411-2.661-5.313-3.994-8.711-3.994c-3.506,0-6.563,1.436-9.159,4.302
	c-2.607,2.866-3.906,6.577-3.906,11.143c0,4.092,1.229,7.417,3.701,9.976c2.471,2.563,5.526,3.843,9.149,3.843
	c3.652,0,6.66-1.279,9.015-3.843C851.207,261.301,852.389,257.756,852.389,253.225z M860.367,378.728v7.589h-42.5
	c-0.07-1.871,0.242-3.737,0.918-5.483c1.084-2.896,2.813-5.747,5.195-8.555c2.382-2.809,5.83-6.056,10.332-9.736
	c6.991-5.732,11.709-10.273,14.17-13.623c2.451-3.35,3.682-6.514,3.682-9.497c0-3.13-1.113-5.767-3.35-7.915
	c-2.246-2.153-5.156-3.228-8.761-3.228c-3.799,0-6.836,1.143-9.12,3.423c-2.275,2.28-3.438,5.438-3.468,9.478l-8.114-0.835
	c0.557-6.055,2.646-10.669,6.278-13.843c3.623-3.169,8.486-4.756,14.601-4.756c6.172,0,11.055,1.709,14.658,5.132
	c3.594,3.423,5.391,7.661,5.391,12.72c0,2.573-0.527,5.104-1.572,7.588c-1.055,2.485-2.803,5.107-5.244,7.853
	c-2.44,2.749-6.504,6.522-12.178,11.318c-4.736,3.979-7.773,6.675-9.121,8.096c-1.348,1.416-2.461,2.842-3.34,4.276L860.367,378.728
	L860.367,378.728z"/>
</svg>
