<?xml version="1.0" encoding="utf-8"?>
<!-- Generator: Adobe Illustrator 16.0.3, SVG Export Plug-In . SVG Version: 6.00 Build 0)  -->
<!DOCTYPE svg PUBLIC "-//W3C//DTD SVG 1.1//EN" "http://www.w3.org/Graphics/SVG/1.1/DTD/svg11.dtd">
<svg version="1.1" id="Layer_1" xmlns="http://www.w3.org/2000/svg" xmlns:xlink="http://www.w3.org/1999/xlink" x="0px" y="0px"
	 width="900px" height="900px" viewBox="0 0 900 900" enable-background="new 0 0 900 900" xml:space="preserve">
<path d="M113.36,150.281v13.301H38.858c-0.106-3.278,0.441-6.545,1.611-9.609c1.904-5.073,4.932-10.073,9.111-14.99
	c4.18-4.922,10.215-10.61,18.105-17.07c12.256-10.044,20.527-18.003,24.834-23.872s6.455-11.416,6.455-16.646
	c0-5.483-1.953-10.107-5.879-13.877c-3.916-3.765-9.033-5.649-15.332-5.649c-6.67,0-12.002,2.002-15.996,5.996
	c-3.994,3.999-6.025,9.536-6.074,16.606l-14.219-1.46c0.967-10.61,4.639-18.691,10.996-24.253
	c6.348-5.562,14.883-8.345,25.596-8.345c10.811,0,19.375,2.998,25.684,8.994c6.299,5.996,9.453,13.433,9.453,22.295
	c0,4.512-0.928,8.945-2.773,13.301c-1.836,4.36-4.902,8.945-9.18,13.765c-4.287,4.814-11.396,11.431-21.338,19.834
	c-8.301,6.973-13.633,11.699-15.986,14.185c-2.363,2.485-4.307,4.985-5.85,7.495L113.36,150.281L113.36,150.281z M200.929,150.281
	v13.301h-74.502c-0.106-3.278,0.441-6.545,1.611-9.609c1.904-5.073,4.932-10.073,9.111-14.99c4.18-4.922,10.215-10.61,18.105-17.07
	c12.256-10.044,20.527-18.003,24.834-23.872s6.455-11.416,6.455-16.646c0-5.483-1.953-10.107-5.879-13.877
	c-3.916-3.765-9.033-5.649-15.332-5.649c-6.67,0-12.002,2.002-15.996,5.996c-3.994,3.999-6.025,9.536-6.074,16.606l-14.219-1.46
	c0.967-10.61,4.639-18.691,10.996-24.253c6.348-5.562,14.883-8.345,25.596-8.345c10.811,0,19.375,2.998,25.684,8.994
	c6.299,5.996,9.453,13.433,9.453,22.295c0,4.512-0.928,8.945-2.773,13.301c-1.836,4.36-4.902,8.945-9.18,13.765
	c-4.287,4.814-11.396,11.431-21.338,19.834c-8.301,6.973-13.633,11.699-15.986,14.185c-2.363,2.485-4.307,4.985-5.85,7.495
	L200.929,150.281L200.929,150.281z M279.884,662.498v-65.352H255.47v-8.75h58.74v8.75h-24.521v65.352H279.884z M319.317,598.865
	v-10.469h9.102v10.469H319.317z M319.317,662.498v-53.691h9.102v53.691H319.317z M362.13,654.354l1.309,8.048
	c-2.559,0.526-4.844,0.801-6.875,0.801c-3.301,0-5.859-0.527-7.676-1.563c-1.826-1.055-3.105-2.422-3.848-4.121
	c-0.743-1.698-1.104-5.293-1.104-10.741v-30.879h-6.68v-7.091h6.68v-13.28l9.043-5.47v18.75h9.15v7.091h-9.15v31.387
	c0,2.598,0.156,4.258,0.479,5s0.84,1.328,1.572,1.776c0.723,0.431,1.758,0.646,3.105,0.646
	C359.142,654.705,360.479,654.588,362.13,654.354L362.13,654.354z M406.056,655.877c-3.379,2.852-6.621,4.883-9.735,6.055
	c-3.115,1.191-6.455,1.777-10.029,1.777c-5.898,0-10.43-1.445-13.594-4.316c-3.174-2.891-4.756-6.563-4.756-11.055
	c0-2.617,0.596-5.02,1.797-7.207c1.191-2.168,2.764-3.906,4.697-5.215c1.934-1.328,4.121-2.324,6.543-2.988
	c1.787-0.469,4.482-0.938,8.086-1.367c7.354-0.879,12.754-1.913,16.23-3.125c0.029-1.25,0.049-2.051,0.049-2.383
	c0-3.711-0.858-6.328-2.578-7.832c-2.323-2.051-5.78-3.086-10.361-3.086c-4.277,0-7.441,0.742-9.473,2.246
	c-2.041,1.504-3.555,4.16-4.531,7.969l-8.896-1.211c0.811-3.809,2.148-6.895,3.994-9.237c1.855-2.345,4.531-4.142,8.037-5.41
	c3.506-1.25,7.568-1.896,12.188-1.896c4.58,0,8.301,0.547,11.171,1.621c2.861,1.074,4.962,2.441,6.31,4.063
	c1.348,1.641,2.295,3.711,2.832,6.19c0.303,1.563,0.459,4.355,0.459,8.398v12.129c0,8.457,0.195,13.809,0.576,16.055
	c0.398,2.264,1.178,4.442,2.305,6.445h-9.502C406.925,660.604,406.319,658.396,406.056,655.877L406.056,655.877z M405.294,635.545
	c-3.301,1.348-8.262,2.5-14.863,3.438c-3.74,0.547-6.387,1.151-7.93,1.836c-1.553,0.664-2.754,1.659-3.594,2.948
	c-0.84,1.289-1.26,2.734-1.26,4.316c0,2.422,0.918,4.453,2.754,6.074s4.521,2.422,8.057,2.422c3.506,0,6.621-0.762,9.355-2.305
	c2.725-1.523,4.735-3.634,6.016-6.289c0.977-2.052,1.465-5.078,1.465-9.103V635.545L405.294,635.545z M428.595,662.498v-53.691
	h8.185v7.638c3.944-5.898,9.639-8.849,17.09-8.849c3.231,0,6.201,0.586,8.916,1.759c2.715,1.151,4.746,2.676,6.094,4.569
	c1.348,1.875,2.285,4.121,2.832,6.719c0.332,1.681,0.498,4.63,0.498,8.849v33.008h-9.092v-32.656c0-3.711-0.353-6.483-1.064-8.319
	c-0.703-1.836-1.963-3.302-3.76-4.396c-1.807-1.094-3.926-1.641-6.348-1.641c-3.877,0-7.218,1.229-10.029,3.69
	c-2.822,2.461-4.229,7.129-4.229,14.004v29.316H428.595z M486.212,598.865v-10.469h9.103v10.469H486.212z M486.212,662.498v-53.691
	h9.103v53.691H486.212z M544.337,662.498v-7.891c-4.18,6.073-9.854,9.102-17.031,9.102c-3.174,0-6.123-0.604-8.877-1.816
	c-2.744-1.211-4.784-2.733-6.112-4.59c-1.328-1.836-2.267-4.082-2.804-6.737c-0.371-1.777-0.557-4.609-0.557-8.496v-33.263h9.102
	v29.785c0,4.746,0.187,7.949,0.558,9.59c0.565,2.402,1.776,4.277,3.633,5.646s4.15,2.051,6.875,2.051
	c2.734,0,5.293-0.703,7.686-2.108c2.394-1.388,4.082-3.302,5.078-5.703c0.996-2.402,1.494-5.898,1.494-10.488v-28.77h9.092v53.69
	L544.337,662.498L544.337,662.498z M566.729,662.498v-53.691h8.135v7.539c1.688-2.637,3.926-4.746,6.719-6.348
	c2.803-1.602,5.986-2.402,9.562-2.402c3.975,0,7.235,0.841,9.774,2.48c2.549,1.66,4.336,3.965,5.381,6.934
	c4.248-6.27,9.775-9.414,16.582-9.414c5.322,0,9.414,1.484,12.285,4.435c2.861,2.949,4.297,7.479,4.297,13.612v36.855h-9.053V628.67
	c0-3.633-0.293-6.25-0.879-7.852c-0.597-1.603-1.66-2.892-3.213-3.867c-1.554-0.977-3.369-1.465-5.459-1.465
	c-3.771,0-6.904,1.25-9.404,3.77c-2.49,2.5-3.74,6.523-3.74,12.051v31.191h-9.092v-34.883c0-4.043-0.742-7.07-2.227-9.103
	c-1.484-2.012-3.906-3.026-7.275-3.026c-2.568,0-4.932,0.684-7.109,2.03c-2.168,1.349-3.739,3.302-4.727,5.898
	c-0.978,2.598-1.465,6.348-1.465,11.229v27.853L566.729,662.498L566.729,662.498z M90.001,848.338v-17.754H57.862v-8.34
	l33.809-48.008h7.432v48.008h10.01v8.34h-10.01v17.754H90.001z M90.001,822.244v-33.398l-23.193,33.398H90.001z M119.015,783.943
	v-8.75h47.969v7.069c-4.717,5.021-9.395,11.699-14.023,20.021c-4.639,8.32-8.213,16.895-10.742,25.684
	c-1.826,6.191-2.988,12.988-3.486,20.371h-9.355c0.098-5.84,1.25-12.871,3.438-21.133s5.332-16.211,9.424-23.887
	c4.102-7.656,8.447-14.121,13.066-19.375H119.015z M181.085,848.338v-10.371h10.361v10.371H181.085z M218.741,808.143
	c-3.779-1.366-6.572-3.34-8.398-5.897c-1.816-2.578-2.725-5.646-2.725-9.199c0-5.391,1.934-9.922,5.811-13.613
	c3.877-3.672,9.033-5.508,15.469-5.508c6.465,0,11.68,1.896,15.615,5.646c3.945,3.75,5.918,8.34,5.918,13.729
	c0,3.438-0.898,6.427-2.705,8.965c-1.807,2.539-4.541,4.513-8.213,5.88c4.551,1.483,8.008,3.887,10.391,7.188
	c2.373,3.301,3.555,7.246,3.555,11.816c0,6.348-2.236,11.659-6.719,15.977c-4.483,4.317-10.381,6.465-17.686,6.465
	c-7.314,0-13.213-2.147-17.695-6.483s-6.719-9.728-6.719-16.211c0-4.806,1.221-8.849,3.662-12.091
	C210.743,811.541,214.22,809.334,218.741,808.143L218.741,808.143z M213.985,826.951c0,2.598,0.615,5.098,1.846,7.539
	c1.23,2.422,3.057,4.297,5.488,5.625c2.422,1.328,5.029,1.992,7.832,1.992c4.346,0,7.93-1.388,10.762-4.181
	c2.832-2.813,4.248-6.367,4.248-10.664c0-4.395-1.455-8.008-4.375-10.879c-2.91-2.852-6.563-4.297-10.938-4.297
	c-4.277,0-7.832,1.426-10.645,4.258S213.985,822.713,213.985,826.951z M216.915,792.732c0,3.516,1.133,6.366,3.389,8.594
	c2.256,2.227,5.186,3.34,8.799,3.34c3.506,0,6.377-1.113,8.613-3.32c2.246-2.207,3.359-4.901,3.359-8.104
	c0-3.34-1.152-6.133-3.457-8.418c-2.314-2.267-5.186-3.418-8.623-3.418c-3.467,0-6.348,1.112-8.643,3.34
	C218.067,786.971,216.915,789.627,216.915,792.732z M309.522,792.381l-9.043,0.703c-0.811-3.574-1.953-6.172-3.438-7.773
	c-2.461-2.598-5.498-3.905-9.102-3.905c-2.9,0-5.439,0.819-7.627,2.44c-2.871,2.09-5.127,5.138-6.777,9.142
	c-1.65,4.004-2.51,9.727-2.578,17.129c2.188-3.34,4.873-5.802,8.037-7.422c3.164-1.621,6.484-2.423,9.961-2.423
	c6.064,0,11.221,2.228,15.488,6.699c4.258,4.453,6.396,10.234,6.396,17.306c0,4.647-1.006,8.965-3.008,12.969
	c-2.012,3.983-4.766,7.051-8.262,9.16c-3.506,2.129-7.49,3.184-11.934,3.184c-7.578,0-13.77-2.772-18.545-8.359
	c-4.795-5.565-7.178-14.766-7.178-27.577c0-14.316,2.637-24.728,7.93-31.23c4.619-5.664,10.83-8.496,18.652-8.496
	c5.83,0,10.605,1.642,14.326,4.902C306.554,782.107,308.78,786.619,309.522,792.381L309.522,792.381z M272.374,824.314
	c-0.008,3.111,0.672,6.186,1.992,9.004c1.338,2.871,3.193,5.059,5.586,6.543c2.393,1.504,4.902,2.246,7.529,2.246
	c3.848,0,7.148-1.543,9.912-4.648c2.764-3.086,4.141-7.305,4.141-12.637c0-5.117-1.357-9.142-4.092-12.09
	c-2.725-2.949-6.162-4.435-10.313-4.435c-4.111,0-7.598,1.484-10.459,4.435C273.809,815.682,272.374,819.549,272.374,824.314
	L272.374,824.314z M320.489,783.943v-8.75h47.969v7.069c-4.717,5.021-9.395,11.699-14.023,20.021
	c-4.639,8.32-8.213,16.895-10.742,25.684c-1.826,6.191-2.988,12.988-3.486,20.371h-9.355c0.098-5.84,1.25-12.871,3.438-21.133
	s5.332-16.211,9.424-23.887c4.102-7.656,8.457-14.121,13.066-19.375H320.489L320.489,783.943z M391.974,449.993V296.384H337.11
	v-31.279h146.934v31.279h-54.736v153.608L391.974,449.993L391.974,449.993z M503.204,297.893v-32.788h35.438v32.788H503.204z
	 M503.204,449.993V316.057h35.438v133.937H503.204L503.204,449.993z M860.362,109.211v7.588h-42.5
	c-0.07-1.871,0.242-3.737,0.918-5.483c1.084-2.896,2.813-5.747,5.194-8.555c2.383-2.808,5.83-6.055,10.332-9.736
	c6.992-5.732,11.709-10.273,14.17-13.623c2.451-3.35,3.683-6.514,3.683-9.497c0-3.13-1.113-5.767-3.351-7.915
	c-2.245-2.153-5.155-3.229-8.76-3.229c-3.799,0-6.836,1.143-9.121,3.423c-2.274,2.28-3.438,5.439-3.467,9.478l-8.115-0.835
	c0.558-6.055,2.646-10.669,6.279-13.843c3.623-3.169,8.486-4.756,14.6-4.756c6.173,0,11.056,1.709,14.658,5.132
	c3.594,3.423,5.392,7.661,5.392,12.72c0,2.573-0.527,5.103-1.572,7.588c-1.055,2.485-2.803,5.107-5.244,7.852
	c-2.441,2.749-6.504,6.523-12.178,11.318c-4.736,3.979-7.773,6.675-9.121,8.096c-1.349,1.416-2.461,2.842-3.34,4.277
	L860.362,109.211L860.362,109.211z M831.017,171.765c-3.271-1.201-5.702-2.91-7.284-5.132c-1.572-2.222-2.363-4.888-2.363-7.983
	c0-4.683,1.68-8.613,5.039-11.802c3.369-3.188,7.842-4.78,13.428-4.78c5.615,0,10.137,1.631,13.555,4.888
	c3.418,3.262,5.138,7.231,5.138,11.914c0,2.979-0.791,5.576-2.354,7.783c-1.563,2.207-3.936,3.911-7.129,5.112
	c3.955,1.284,6.953,3.364,9.014,6.226c2.07,2.871,3.097,6.289,3.097,10.269c0,5.498-1.943,10.117-5.83,13.862
	c-3.896,3.74-9.015,5.615-15.361,5.615c-6.338,0-11.455-1.88-15.352-5.64c-3.888-3.755-5.83-8.442-5.83-14.058
	c0-4.185,1.055-7.686,3.184-10.508C824.083,174.709,827.101,172.786,831.017,171.765z M826.896,188.083
	c0,2.251,0.526,4.429,1.602,6.533c1.064,2.109,2.656,3.74,4.756,4.893c2.08,1.149,4.421,1.746,6.797,1.733
	c3.779,0,6.896-1.211,9.347-3.643c2.461-2.427,3.69-5.513,3.69-9.253c0-3.804-1.27-6.948-3.799-9.434
	c-2.529-2.486-5.693-3.726-9.502-3.726c-3.711,0-6.787,1.226-9.229,3.682C828.116,181.324,826.896,184.397,826.896,188.083
	L826.896,188.083z M829.436,158.386c0,3.042,0.985,5.527,2.938,7.456c1.963,1.929,4.502,2.896,7.637,2.896
	c3.037,0,5.537-0.957,7.48-2.876c1.942-1.914,2.92-4.258,2.92-7.036c0-2.896-1.006-5.332-3.008-7.305
	c-2.002-1.978-4.502-2.964-7.48-2.964c-3.018,0-5.518,0.967-7.5,2.896C830.431,153.386,829.436,155.696,829.436,158.386
	L829.436,158.386z M798.634,296.477h-7.891V246.16c-1.904,1.816-4.396,3.628-7.48,5.439c-3.086,1.816-5.858,3.174-8.311,4.082
	v-7.632c4.414-2.075,8.271-4.59,11.582-7.544c3.301-2.954,5.645-5.82,7.012-8.599h5.088V296.477L798.634,296.477z M818.858,264.763
	c0-7.607,0.78-13.726,2.344-18.359c1.563-4.633,3.887-8.213,6.973-10.728c3.086-2.515,6.974-3.77,11.65-3.77
	c3.447,0,6.475,0.693,9.082,2.08c2.598,1.392,4.746,3.394,6.444,6.011c1.699,2.617,3.027,5.806,3.994,9.565
	c0.968,3.755,1.445,8.823,1.445,15.2c0,7.544-0.771,13.633-2.324,18.267c-1.553,4.639-3.867,8.223-6.953,10.747
	c-3.086,2.534-6.981,3.799-11.688,3.799c-6.201,0-11.074-2.222-14.609-6.67C820.979,285.554,818.858,276.838,818.858,264.763
	L818.858,264.763z M826.974,264.763c0,10.557,1.23,17.583,3.701,21.074c2.472,3.496,5.527,5.244,9.15,5.244s6.67-1.753,9.149-5.264
	c2.472-3.511,3.701-10.527,3.701-21.055c0-10.586-1.229-17.622-3.701-21.104c-2.479-3.477-5.557-5.22-9.237-5.22
	c-3.623,0-6.523,1.538-8.683,4.609C828.331,246.965,826.975,254.207,826.974,264.763L826.974,264.763z M860.362,378.728v7.589h-42.5
	c-0.07-1.871,0.242-3.737,0.918-5.483c1.084-2.896,2.813-5.747,5.194-8.555c2.383-2.809,5.83-6.056,10.332-9.736
	c6.992-5.732,11.709-10.273,14.17-13.623c2.451-3.35,3.683-6.514,3.683-9.497c0-3.13-1.113-5.767-3.351-7.915
	c-2.245-2.153-5.155-3.228-8.76-3.228c-3.799,0-6.836,1.143-9.121,3.423c-2.274,2.28-3.438,5.438-3.467,9.478l-8.115-0.835
	c0.558-6.055,2.646-10.669,6.279-13.843c3.623-3.169,8.486-4.756,14.6-4.756c6.173,0,11.056,1.709,14.658,5.132
	c3.595,3.423,5.392,7.661,5.392,12.72c0,2.573-0.527,5.104-1.572,7.588c-1.055,2.485-2.803,5.107-5.244,7.853
	c-2.44,2.749-6.504,6.522-12.178,11.318c-4.736,3.979-7.773,6.675-9.121,8.096c-1.348,1.416-2.461,2.842-3.34,4.277h31.543V378.728z
	"/>
</svg>
