<?xml version="1.0" encoding="utf-8"?>
<!-- Generator: Adobe Illustrator 16.0.3, SVG Export Plug-In . SVG Version: 6.00 Build 0)  -->
<!DOCTYPE svg PUBLIC "-//W3C//DTD SVG 1.1//EN" "http://www.w3.org/Graphics/SVG/1.1/DTD/svg11.dtd">
<svg version="1.1" id="Layer_1" xmlns="http://www.w3.org/2000/svg" xmlns:xlink="http://www.w3.org/1999/xlink" x="0px" y="0px"
	 width="900px" height="900px" viewBox="0 0 900 900" enable-background="new 0 0 900 900" xml:space="preserve">
<path d="M113.36,150.281v13.301H38.858c-0.106-3.278,0.441-6.545,1.611-9.609c1.904-5.073,4.932-10.073,9.111-14.99
	c4.18-4.922,10.215-10.61,18.105-17.07c12.256-10.044,20.527-18.003,24.834-23.872s6.455-11.416,6.455-16.646
	c0-5.483-1.953-10.107-5.879-13.877c-3.916-3.765-9.033-5.649-15.332-5.649c-6.67,0-12.002,2.002-15.996,5.996
	c-3.994,3.999-6.025,9.536-6.074,16.606l-14.219-1.46c0.967-10.61,4.639-18.691,10.996-24.253
	c6.348-5.562,14.883-8.345,25.596-8.345c10.811,0,19.375,2.998,25.684,8.994c6.299,5.996,9.453,13.433,9.453,22.295
	c0,4.512-0.928,8.945-2.773,13.301c-1.836,4.36-4.902,8.945-9.18,13.765c-4.287,4.814-11.396,11.431-21.338,19.834
	c-8.301,6.973-13.633,11.699-15.986,14.185c-2.363,2.485-4.307,4.985-5.85,7.495L113.36,150.281L113.36,150.281z M128.272,133.831
	l13.838-1.846c1.592,7.842,4.297,13.491,8.115,16.953c3.818,3.457,8.467,5.186,13.955,5.186c6.504,0,12.002-2.251,16.484-6.763
	c4.482-4.512,6.729-10.098,6.729-16.763c0-6.353-2.08-11.592-6.23-15.723c-4.15-4.121-9.424-6.187-15.83-6.187
	c-2.617,0-5.869,0.513-9.766,1.538l1.533-12.148c0.928,0.103,1.67,0.156,2.236,0.156c5.889,0,11.191-1.538,15.908-4.614
	c4.717-3.076,7.07-7.817,7.07-14.224c0-5.073-1.709-9.277-5.146-12.607s-7.871-5-13.301-5c-5.381,0-9.863,1.694-13.457,5.078
	c-3.584,3.379-5.889,8.457-6.914,15.22l-13.838-2.461c1.689-9.272,5.537-16.465,11.533-21.563
	c5.996-5.103,13.447-7.651,22.373-7.651c6.143,0,11.807,1.323,16.982,3.96c5.176,2.642,9.141,6.24,11.885,10.801
	c2.734,4.565,4.111,9.409,4.111,14.531c0,4.868-1.309,9.302-3.926,13.301c-2.607,3.999-6.484,7.178-11.602,9.531
	c6.66,1.538,11.836,4.731,15.527,9.575c3.691,4.844,5.537,10.903,5.537,18.179c0,9.844-3.594,18.184-10.762,25.024
	c-7.178,6.846-16.25,10.264-27.217,10.264c-9.893,0-18.105-2.944-24.648-8.838C132.921,150.847,129.2,143.21,128.272,133.831
	L128.272,133.831z M249.532,662.479l-28.701-74.102h10.615l19.248,53.848c1.553,4.298,2.852,8.341,3.896,12.13
	c1.164-4.097,2.496-8.144,3.994-12.13l20.02-53.848h10l-29.014,74.102H249.532L249.532,662.479z M323.585,655.857
	c-3.379,2.87-6.621,4.883-9.736,6.073c-3.115,1.172-6.455,1.759-10.029,1.759c-5.898,0-10.43-1.427-13.594-4.316
	c-3.174-2.871-4.756-6.563-4.756-11.035c0-2.637,0.596-5.039,1.797-7.207c1.191-2.168,2.764-3.926,4.697-5.233
	c1.933-1.309,4.121-2.306,6.543-2.988c1.787-0.469,4.482-0.918,8.086-1.367c7.354-0.859,12.754-1.914,16.23-3.125
	c0.029-1.25,0.049-2.031,0.049-2.383c0-3.691-0.859-6.31-2.578-7.832c-2.324-2.051-5.781-3.086-10.361-3.086
	c-4.277,0-7.441,0.762-9.473,2.266c-2.041,1.484-3.555,4.142-4.531,7.949l-8.896-1.211c0.811-3.81,2.148-6.875,3.994-9.219
	c1.855-2.345,4.531-4.142,8.037-5.41c3.506-1.27,7.568-1.896,12.188-1.896c4.58,0,8.301,0.527,11.172,1.621
	c2.861,1.074,4.961,2.422,6.309,4.063c1.348,1.641,2.295,3.69,2.832,6.19c0.303,1.543,0.459,4.355,0.459,8.398v12.129
	c0,8.457,0.195,13.809,0.576,16.035c0.398,2.263,1.178,4.442,2.305,6.445h-9.502C324.454,660.604,323.849,658.396,323.585,655.857
	L323.585,655.857z M322.823,635.545c-3.301,1.348-8.262,2.5-14.863,3.438c-3.74,0.526-6.387,1.151-7.93,1.815
	c-1.553,0.685-2.754,1.66-3.594,2.949c-0.835,1.291-1.273,2.799-1.26,4.336c0,2.422,0.918,4.434,2.754,6.055
	s4.521,2.422,8.057,2.422c3.506,0,6.621-0.762,9.355-2.284c2.725-1.544,4.736-3.634,6.016-6.289c0.977-2.07,1.465-5.099,1.465-9.103
	V635.545L322.823,635.545z M346.134,662.479v-53.672h8.184v7.638c3.945-5.898,9.639-8.849,17.09-8.849
	c3.232,0,6.201,0.586,8.916,1.738c2.715,1.172,4.746,2.695,6.094,4.57c1.348,1.895,2.285,4.141,2.832,6.719
	c0.332,1.699,0.498,4.648,0.498,8.848v33.008h-9.092v-32.655c0-3.691-0.352-6.465-1.064-8.302c-0.703-1.836-1.963-3.301-3.76-4.395
	c-1.807-1.094-3.926-1.641-6.348-1.641c-3.877,0-7.217,1.229-10.029,3.672c-2.822,2.461-4.229,7.129-4.229,14.004v29.315
	L346.134,662.479L346.134,662.479z M438.731,655.857c-3.38,2.87-6.621,4.883-9.736,6.073c-3.115,1.172-6.455,1.759-10.029,1.759
	c-5.897,0-10.43-1.427-13.594-4.316c-3.174-2.871-4.756-6.563-4.756-11.035c0-2.637,0.596-5.039,1.797-7.207
	c1.191-2.168,2.764-3.926,4.697-5.233c1.933-1.309,4.121-2.306,6.543-2.988c1.787-0.469,4.481-0.918,8.086-1.367
	c7.354-0.859,12.754-1.914,16.229-3.125c0.029-1.25,0.049-2.031,0.049-2.383c0-3.691-0.858-6.31-2.577-7.832
	c-2.324-2.051-5.781-3.086-10.361-3.086c-4.277,0-7.441,0.762-9.473,2.266c-2.041,1.484-3.556,4.142-4.531,7.949l-8.896-1.211
	c0.812-3.81,2.148-6.875,3.994-9.219c1.855-2.345,4.531-4.142,8.037-5.41c3.506-1.27,7.568-1.896,12.188-1.896
	c4.58,0,8.301,0.527,11.172,1.621c2.86,1.074,4.961,2.422,6.309,4.063c1.348,1.641,2.295,3.69,2.832,6.19
	c0.303,1.543,0.459,4.355,0.459,8.398v12.129c0,8.457,0.195,13.809,0.576,16.035c0.398,2.263,1.178,4.442,2.305,6.445h-9.502
	C439.601,660.604,438.995,658.396,438.731,655.857L438.731,655.857z M437.97,635.545c-3.301,1.348-8.262,2.5-14.862,3.438
	c-3.74,0.526-6.388,1.151-7.931,1.815c-1.553,0.685-2.754,1.66-3.594,2.949c-0.835,1.291-1.272,2.799-1.26,4.336
	c0,2.422,0.918,4.434,2.754,6.055s4.521,2.422,8.057,2.422c3.506,0,6.621-0.762,9.355-2.284c2.725-1.544,4.735-3.634,6.016-6.289
	c0.978-2.07,1.465-5.099,1.465-9.103V635.545L437.97,635.545z M496.095,662.479v-6.776c-3.407,5.332-8.407,7.988-15.01,7.988
	c-4.287,0-8.213-1.173-11.807-3.535c-3.584-2.363-6.367-5.646-8.341-9.883c-1.973-4.22-2.959-9.082-2.959-14.57
	c0-5.371,0.898-10.215,2.687-14.59c1.777-4.355,4.463-7.716,8.037-10.039c3.563-2.324,7.559-3.478,11.973-3.478
	c3.232,0,6.123,0.685,8.644,2.052c2.528,1.348,4.59,3.125,6.172,5.331v-26.602h9.043v74.102H496.095L496.095,662.479z
	 M467.335,635.701c0,6.875,1.445,12.012,4.346,15.41c2.901,3.397,6.318,5.098,10.265,5.098c3.975,0,7.354-1.621,10.127-4.863
	c2.783-3.262,4.17-8.223,4.17-14.901c0-7.345-1.416-12.734-4.238-16.172c-2.832-3.438-6.318-5.156-10.469-5.156
	c-4.043,0-7.422,1.66-10.137,4.961C468.692,623.377,467.335,628.592,467.335,635.701L467.335,635.701z M518.888,598.846v-10.469
	h9.103v10.469H518.888z M518.888,662.479v-53.672h9.103v53.672H518.888z M577.013,662.479v-7.87
	c-4.18,6.055-9.854,9.082-17.03,9.082c-3.175,0-6.123-0.605-8.877-1.816c-2.744-1.211-4.785-2.734-6.113-4.57
	s-2.267-4.082-2.803-6.737c-0.371-1.797-0.558-4.629-0.558-8.496v-33.263h9.103v29.767c0,4.746,0.186,7.949,0.557,9.608
	c0.566,2.384,1.777,4.277,3.633,5.625c1.855,1.367,4.15,2.052,6.875,2.052c2.734,0,5.293-0.703,7.687-2.09
	c2.393-1.406,4.082-3.302,5.077-5.724c0.996-2.401,1.494-5.897,1.494-10.488v-28.75h9.093v53.673h-8.137V662.479z M599.405,662.479
	v-53.672h8.135v7.521c1.689-2.617,3.926-4.728,6.719-6.328c2.804-1.602,5.986-2.402,9.562-2.402c3.975,0,7.235,0.82,9.774,2.48
	c2.55,1.641,4.336,3.945,5.381,6.914c4.248-6.271,9.775-9.396,16.582-9.396c5.322,0,9.414,1.465,12.285,4.414
	c2.861,2.949,4.297,7.5,4.297,13.633v36.836h-9.053V628.67c0-3.633-0.293-6.27-0.879-7.852c-0.596-1.603-1.66-2.892-3.213-3.867
	c-1.554-0.977-3.369-1.465-5.459-1.465c-3.771,0-6.904,1.25-9.404,3.75c-2.49,2.52-3.74,6.543-3.74,12.069v31.172H631.3v-34.862
	c0-4.043-0.742-7.09-2.227-9.103c-1.484-2.03-3.906-3.026-7.275-3.026c-2.567,0-4.932,0.664-7.108,2.012
	c-2.169,1.348-3.74,3.32-4.728,5.918c-0.977,2.598-1.465,6.328-1.465,11.211v27.853L599.405,662.479L599.405,662.479z
	 M60.831,828.924l9.551-0.801c0.713,4.648,2.354,8.145,4.932,10.488c2.578,2.343,5.684,3.496,9.326,3.496
	c4.375,0,8.086-1.642,11.113-4.941c3.037-3.301,4.551-7.695,4.551-13.146c0-5.194-1.455-9.276-4.365-12.284
	c-2.92-2.988-6.738-4.492-11.455-4.492c-2.93,0-5.576,0.664-7.93,1.992c-2.363,1.328-4.219,3.065-5.566,5.176l-8.535-1.113
	l7.178-38.047h36.846v8.691h-29.57l-3.994,19.901c4.443-3.086,9.111-4.647,14.004-4.647c6.465,0,11.924,2.246,16.377,6.737
	c4.443,4.474,6.67,10.234,6.67,17.285c0,6.699-1.953,12.5-5.869,17.383c-4.746,5.996-11.23,8.984-19.453,8.984
	c-6.738,0-12.246-1.875-16.504-5.646C63.868,840.154,61.437,835.154,60.831,828.924L60.831,828.924z M118.399,811.795
	c0-8.77,0.898-15.82,2.705-21.152c1.797-5.352,4.482-9.473,8.037-12.362c3.555-2.891,8.027-4.355,13.418-4.355
	c3.975,0,7.461,0.802,10.459,2.402s5.479,3.906,7.432,6.934c1.953,3.009,3.486,6.681,4.6,11.017c1.114,4.336,1.67,10.176,1.67,17.52
	c0,8.691-0.889,15.703-2.676,21.055c-1.787,5.332-4.463,9.453-8.018,12.384c-3.555,2.909-8.047,4.354-13.467,4.354
	c-7.148,0-12.754-2.559-16.836-7.676C120.841,835.74,118.399,825.701,118.399,811.795L118.399,811.795z M127.745,811.795
	c0,12.168,1.426,20.254,4.277,24.277c2.842,4.022,6.357,6.035,10.537,6.035s7.695-2.013,10.537-6.056
	c2.852-4.043,4.268-12.129,4.268-24.258c0-12.207-1.416-20.313-4.268-24.316c-2.842-4.004-6.396-6.016-10.635-6.016
	c-4.18,0-7.52,1.777-10.01,5.313C129.317,791.287,127.745,799.627,127.745,811.795L127.745,811.795z M181.075,848.338v-10.371
	h10.361v10.371H181.075z M206.095,831.189l8.74-0.802c0.742,4.121,2.158,7.091,4.248,8.945s4.766,2.773,8.037,2.773
	c2.793,0,5.244-0.625,7.354-1.914c2.109-1.271,3.828-2.988,5.176-5.138c1.348-2.129,2.48-5.02,3.389-8.651
	c0.91-3.642,1.369-7.38,1.367-11.134c0-0.391-0.02-0.995-0.049-1.815c-1.826,2.891-4.307,5.254-7.461,7.051
	c-3.111,1.794-6.643,2.73-10.234,2.715c-6.133,0-11.318-2.227-15.566-6.68s-6.367-10.313-6.367-17.598
	c0-7.5,2.217-13.556,6.65-18.146c4.424-4.57,9.98-6.875,16.65-6.875c4.813,0,9.229,1.31,13.213,3.906
	c3.994,2.598,7.031,6.289,9.102,11.094c2.071,4.805,3.105,11.738,3.105,20.84c0,9.474-1.025,17.013-3.076,22.617
	c-2.061,5.625-5.117,9.883-9.18,12.813c-4.063,2.93-8.818,4.395-14.277,4.395c-5.791,0-10.527-1.602-14.199-4.824
	C209.044,841.562,206.837,837.029,206.095,831.189L206.095,831.189z M243.341,798.494c0-5.215-1.387-9.375-4.17-12.441
	c-2.773-3.065-6.123-4.59-10.029-4.59c-4.043,0-7.568,1.66-10.566,4.961s-4.502,7.578-4.502,12.832
	c0,4.707,1.426,8.555,4.277,11.504c2.842,2.949,6.357,4.414,10.537,4.414c4.209,0,7.676-1.465,10.391-4.414
	C241.983,807.811,243.341,803.729,243.341,798.494z M291.466,848.338v-17.754h-32.139v-8.34l33.809-48.008h7.432v48.008h10.01v8.34
	h-10.01v17.754H291.466z M291.466,822.244v-33.398l-23.193,33.398H291.466z M367.687,839.588v8.75h-48.975
	c-0.075-2.159,0.287-4.312,1.064-6.328c1.24-3.34,3.242-6.621,5.986-9.844c2.744-3.242,6.709-6.992,11.904-11.23
	c8.047-6.602,13.496-11.836,16.328-15.684c2.822-3.867,4.238-7.52,4.238-10.957c0-3.594-1.289-6.641-3.867-9.121
	c-2.578-2.479-5.938-3.711-10.078-3.711c-4.385,0-7.891,1.31-10.518,3.945c-2.627,2.617-3.955,6.27-3.994,10.918l-9.346-0.957
	c0.635-6.973,3.047-12.305,7.227-15.957c4.18-3.652,9.785-5.488,16.836-5.488c7.109,0,12.734,1.974,16.875,5.918
	c4.15,3.945,6.221,8.828,6.221,14.668c0,2.949-0.605,5.88-1.816,8.73c-1.221,2.871-3.232,5.879-6.045,9.063
	c-2.813,3.164-7.49,7.5-14.023,13.027c-5.459,4.59-8.965,7.695-10.518,9.336c-1.553,1.621-2.832,3.281-3.838,4.922H367.687
	L367.687,839.588z M423.8,450.002l-66.084-184.888h40.488l46.787,136.836l45.272-136.836h39.601l-66.211,184.888H423.8z
	 M860.362,109.211v7.588h-42.5c-0.07-1.871,0.242-3.736,0.918-5.483c1.084-2.896,2.813-5.747,5.194-8.555
	c2.383-2.808,5.83-6.055,10.332-9.736c6.992-5.732,11.709-10.273,14.17-13.623c2.451-3.35,3.683-6.514,3.683-9.497
	c0-3.13-1.113-5.767-3.351-7.915c-2.245-2.153-5.155-3.228-8.76-3.228c-3.799,0-6.836,1.143-9.121,3.423
	c-2.274,2.28-3.438,5.439-3.467,9.478l-8.115-0.835c0.558-6.055,2.646-10.669,6.279-13.843c3.623-3.169,8.486-4.756,14.6-4.756
	c6.173,0,11.056,1.709,14.658,5.132c3.594,3.423,5.392,7.661,5.392,12.72c0,2.573-0.527,5.103-1.572,7.588
	c-1.055,2.485-2.803,5.107-5.244,7.852c-2.441,2.749-6.504,6.523-12.178,11.318c-4.736,3.979-7.773,6.675-9.121,8.096
	c-1.349,1.416-2.461,2.842-3.34,4.277L860.362,109.211L860.362,109.211z M831.017,171.765c-3.271-1.201-5.702-2.91-7.284-5.132
	c-1.572-2.222-2.363-4.888-2.363-7.983c0-4.683,1.68-8.613,5.039-11.802c3.369-3.188,7.842-4.78,13.428-4.78
	c5.615,0,10.137,1.631,13.555,4.888c3.418,3.262,5.138,7.231,5.138,11.914c0,2.979-0.791,5.576-2.354,7.783
	c-1.563,2.207-3.936,3.911-7.129,5.112c3.955,1.284,6.953,3.364,9.014,6.226c2.07,2.871,3.097,6.289,3.097,10.269
	c0,5.498-1.943,10.117-5.83,13.862c-3.896,3.74-9.015,5.615-15.361,5.615c-6.338,0-11.455-1.88-15.352-5.64
	c-3.888-3.755-5.83-8.442-5.83-14.058c0-4.185,1.055-7.686,3.184-10.508C824.083,174.709,827.101,172.786,831.017,171.765z
	 M826.896,188.083c0,2.251,0.526,4.429,1.602,6.533c1.064,2.109,2.656,3.74,4.756,4.893c2.08,1.149,4.421,1.746,6.797,1.733
	c3.779,0,6.896-1.211,9.347-3.643c2.461-2.427,3.69-5.513,3.69-9.253c0-3.804-1.27-6.948-3.799-9.434
	c-2.529-2.486-5.693-3.726-9.502-3.726c-3.711,0-6.787,1.226-9.229,3.682C828.116,181.324,826.896,184.397,826.896,188.083
	L826.896,188.083z M829.436,158.386c0,3.042,0.985,5.527,2.938,7.456c1.963,1.929,4.502,2.896,7.637,2.896
	c3.037,0,5.537-0.957,7.48-2.876c1.942-1.914,2.92-4.258,2.92-7.036c0-2.896-1.006-5.332-3.008-7.305
	c-2.002-1.978-4.502-2.964-7.48-2.964c-3.018,0-5.518,0.967-7.5,2.896C830.431,153.386,829.436,155.696,829.436,158.386
	L829.436,158.386z M805.304,296.477h-7.891V246.16c-1.904,1.816-4.396,3.628-7.479,5.439c-3.087,1.816-5.859,3.174-8.312,4.082
	v-7.632c4.414-2.075,8.271-4.59,11.582-7.544c3.301-2.954,5.646-5.82,7.012-8.599h5.088V296.477L805.304,296.477z M848.604,296.477
	h-7.892V246.16c-1.904,1.816-4.395,3.628-7.479,5.439c-3.086,1.816-5.859,3.174-8.312,4.082v-7.632
	c4.414-2.075,8.271-4.59,11.582-7.544c3.301-2.954,5.646-5.82,7.012-8.599h5.089V296.477L848.604,296.477z M860.362,378.729v7.588
	h-42.5c-0.07-1.871,0.242-3.737,0.918-5.483c1.084-2.896,2.813-5.747,5.194-8.555c2.383-2.809,5.83-6.056,10.332-9.736
	c6.992-5.731,11.709-10.272,14.17-13.623c2.451-3.35,3.683-6.514,3.683-9.497c0-3.13-1.113-5.767-3.351-7.915
	c-2.245-2.152-5.155-3.228-8.76-3.228c-3.799,0-6.836,1.143-9.121,3.423c-2.274,2.28-3.438,5.438-3.467,9.478l-8.115-0.835
	c0.558-6.055,2.646-10.669,6.279-13.843c3.623-3.169,8.486-4.756,14.6-4.756c6.173,0,11.056,1.709,14.658,5.132
	c3.595,3.423,5.392,7.661,5.392,12.72c0,2.573-0.527,5.104-1.572,7.589c-1.055,2.484-2.803,5.106-5.244,7.852
	c-2.44,2.749-6.504,6.523-12.178,11.318c-4.736,3.979-7.773,6.675-9.121,8.096c-1.348,1.416-2.461,2.842-3.34,4.277L860.362,378.729
	L860.362,378.729z"/>
</svg>
