<?xml version="1.0" encoding="utf-8"?>
<!-- Generator: Adobe Illustrator 16.0.3, SVG Export Plug-In . SVG Version: 6.00 Build 0)  -->
<!DOCTYPE svg PUBLIC "-//W3C//DTD SVG 1.1//EN" "http://www.w3.org/Graphics/SVG/1.1/DTD/svg11.dtd">
<svg version="1.1" id="Layer_1" xmlns="http://www.w3.org/2000/svg" xmlns:xlink="http://www.w3.org/1999/xlink" x="0px" y="0px"
	 width="900px" height="900px" viewBox="0 0 900 900" enable-background="new 0 0 900 900" xml:space="preserve">
<path d="M113.351,150.283v13.301H38.849c-0.107-3.278,0.441-6.545,1.611-9.609c1.904-5.068,4.932-10.068,9.111-14.99
	c4.179-4.922,10.215-10.605,18.105-17.07c12.256-10.039,20.527-18.008,24.834-23.867c4.307-5.879,6.455-11.426,6.455-16.65
	c0-5.479-1.953-10.107-5.879-13.877c-3.916-3.77-9.033-5.645-15.332-5.645c-6.67,0-12.002,1.992-15.996,5.996
	c-3.994,3.994-6.025,9.531-6.074,16.602l-14.219-1.465c0.967-10.605,4.639-18.691,10.996-24.248
	c6.348-5.557,14.883-8.35,25.596-8.35c10.811,0,19.375,3.008,25.684,9.004c6.299,5.996,9.453,13.428,9.453,22.285
	c0,4.512-0.928,8.945-2.773,13.301c-1.836,4.365-4.902,8.945-9.18,13.77c-4.287,4.814-11.396,11.426-21.338,19.834
	c-8.301,6.973-13.633,11.699-15.986,14.189c-2.363,2.48-4.307,4.98-5.85,7.49L113.351,150.283L113.351,150.283z M172.55,163.584
	v-26.982h-48.896v-12.686l51.426-73.037h11.309v73.037h15.215v12.686h-15.215v26.982H172.55z M172.55,123.916v-50.82l-35.293,50.82
	H172.55z M271.749,636.523l9.805,2.461c-2.061,8.065-5.752,14.198-11.094,18.438c-5.342,4.219-11.875,6.328-19.59,6.328
	c-7.988,0-14.482-1.621-19.482-4.863c-5.01-3.262-8.818-7.969-11.426-14.141c-2.607-6.152-3.916-12.773-3.916-19.863
	c0-7.715,1.475-14.434,4.424-20.194c2.949-5.742,7.139-10.099,12.588-13.087c5.439-2.969,11.426-4.473,17.969-4.473
	c7.412,0,13.643,1.896,18.701,5.664c5.049,3.771,8.574,9.082,10.557,15.918l-9.648,2.285c-1.719-5.391-4.219-9.316-7.48-11.777
	c-3.271-2.461-7.383-3.69-12.334-3.69c-5.693,0-10.459,1.367-14.277,4.082c-3.828,2.733-6.514,6.405-8.066,10.996
	c-1.547,4.587-2.333,9.396-2.324,14.237c0,6.289,0.918,11.797,2.754,16.504c1.836,4.688,4.697,8.203,8.564,10.527
	c3.877,2.324,8.076,3.496,12.588,3.496c5.498,0,10.146-1.582,13.955-4.746C267.823,647.441,270.401,642.754,271.749,636.523
	L271.749,636.523z M292.472,662.5v-74.102h9.092v26.582c4.248-4.923,9.609-7.384,16.074-7.384c3.975,0,7.432,0.781,10.361,2.363
	c2.939,1.563,5.029,3.729,6.299,6.484c1.26,2.772,1.895,6.776,1.895,12.03V662.5h-9.102v-34.023c0-4.551-0.986-7.852-2.959-9.922
	c-1.963-2.09-4.756-3.125-8.359-3.125c-2.695,0-5.234,0.703-7.607,2.109c-2.373,1.387-4.072,3.281-5.078,5.684
	c-1.016,2.384-1.523,5.703-1.523,9.902V662.5H292.472z M349.933,662.5v-53.691h8.193v8.146c2.09-3.81,4.014-6.31,5.781-7.539
	c1.777-1.211,3.721-1.816,5.84-1.816c3.066,0,6.182,0.978,9.355,2.931l-3.135,8.457c-2.227-1.328-4.453-1.974-6.67-1.974
	c-1.992,0-3.779,0.586-5.361,1.797c-1.582,1.191-2.715,2.853-3.389,4.962c-1.006,3.241-1.514,6.776-1.514,10.625V662.5H349.933
	L349.933,662.5z M381.124,635.664c0-9.941,2.764-17.305,8.291-22.09c4.609-3.984,10.244-5.978,16.885-5.978
	c7.373,0,13.408,2.422,18.086,7.267c4.688,4.823,7.031,11.504,7.031,20.039c0,6.895-1.035,12.344-3.104,16.289
	c-2.08,3.965-5.089,7.051-9.054,9.237c-3.955,2.188-8.281,3.281-12.959,3.281c-7.52,0-13.594-2.402-18.223-7.227
	C383.438,651.66,381.124,644.727,381.124,635.664L381.124,635.664z M390.47,635.664c0,6.875,1.504,12.012,4.502,15.43
	c2.998,3.418,6.777,5.138,11.328,5.138c4.513,0,8.271-1.72,11.271-5.156c2.999-3.438,4.492-8.672,4.492-15.724
	c0-6.641-1.505-11.659-4.521-15.077c-3.018-3.438-6.768-5.138-11.24-5.138c-4.551,0-8.33,1.699-11.328,5.099
	C391.974,623.652,390.47,628.789,390.47,635.664L390.47,635.664z M442.081,662.5v-53.691h8.135v7.539
	c1.689-2.637,3.926-4.746,6.719-6.348c2.804-1.602,5.986-2.402,9.562-2.402c3.975,0,7.236,0.841,9.775,2.48
	c2.549,1.66,4.336,3.965,5.381,6.934c4.248-6.27,9.774-9.414,16.582-9.414c5.321,0,9.414,1.484,12.285,4.435
	c2.86,2.949,4.297,7.479,4.297,13.612V662.5h-9.054v-33.828c0-3.633-0.293-6.25-0.879-7.852c-0.596-1.603-1.66-2.892-3.213-3.867
	c-1.553-0.977-3.369-1.465-5.459-1.465c-3.77,0-6.904,1.25-9.404,3.77c-2.489,2.5-3.739,6.523-3.739,12.051V662.5h-9.093v-34.883
	c0-4.043-0.741-7.07-2.227-9.103c-1.484-2.012-3.906-3.026-7.275-3.026c-2.567,0-4.932,0.684-7.108,2.031
	c-2.168,1.348-3.74,3.301-4.728,5.897c-0.977,2.598-1.465,6.348-1.465,11.23V662.5H442.081L442.081,662.5z M528.36,598.867v-10.469
	h9.102v10.469H528.36z M528.36,662.5v-53.691h9.102V662.5H528.36z M586.485,662.5v-7.891c-4.181,6.073-9.854,9.102-17.031,9.102
	c-3.174,0-6.123-0.604-8.877-1.816c-2.744-1.211-4.785-2.733-6.113-4.59c-1.328-1.836-2.266-4.082-2.803-6.737
	c-0.371-1.777-0.558-4.609-0.558-8.496v-33.263h9.103v29.785c0,4.746,0.186,7.949,0.557,9.59c0.566,2.402,1.777,4.277,3.634,5.646
	c1.855,1.368,4.149,2.051,6.875,2.051c2.733,0,5.293-0.703,7.686-2.108c2.393-1.388,4.082-3.302,5.078-5.703
	c0.996-2.402,1.494-5.898,1.494-10.488v-28.77h9.092V662.5H586.485L586.485,662.5z M608.878,662.5v-53.691h8.135v7.539
	c1.689-2.637,3.927-4.746,6.72-6.348c2.803-1.602,5.985-2.402,9.561-2.402c3.975,0,7.236,0.841,9.775,2.48
	c2.549,1.66,4.336,3.965,5.381,6.934c4.248-6.27,9.774-9.414,16.582-9.414c5.322,0,9.414,1.484,12.285,4.435
	c2.86,2.949,4.297,7.479,4.297,13.612V662.5h-9.054v-33.828c0-3.633-0.293-6.25-0.879-7.852c-0.596-1.603-1.659-2.892-3.213-3.867
	c-1.553-0.977-3.369-1.465-5.459-1.465c-3.77,0-6.903,1.25-9.403,3.77c-2.49,2.5-3.74,6.523-3.74,12.051V662.5h-9.092v-34.883
	c0-4.043-0.742-7.07-2.228-9.103c-1.483-2.012-3.906-3.026-7.274-3.026c-2.568,0-4.933,0.684-7.109,2.031
	c-2.168,1.348-3.74,3.301-4.728,5.897c-0.977,2.598-1.465,6.348-1.465,11.23V662.5H608.878z M60.841,828.926l9.551-0.801
	c0.713,4.648,2.354,8.145,4.932,10.488c2.578,2.343,5.684,3.496,9.326,3.496c4.375,0,8.086-1.642,11.113-4.941
	c3.037-3.301,4.551-7.695,4.551-13.145c0-5.195-1.455-9.277-4.365-12.285c-2.92-2.988-6.738-4.492-11.455-4.492
	c-2.93,0-5.576,0.664-7.93,1.992c-2.363,1.328-4.219,3.065-5.566,5.176l-8.535-1.113l7.178-38.047h36.846v8.691h-29.57
	l-3.994,19.901c4.443-3.086,9.111-4.647,14.004-4.647c6.465,0,11.924,2.246,16.377,6.737c4.443,4.474,6.67,10.234,6.67,17.285
	c0,6.699-1.953,12.5-5.869,17.383c-4.746,5.996-11.23,8.984-19.453,8.984c-6.738,0-12.246-1.875-16.504-5.645
	C63.878,840.156,61.446,835.156,60.841,828.926L60.841,828.926z M152.677,848.34h-9.102v-57.988
	c-2.188,2.091-5.059,4.181-8.613,6.271c-3.554,2.09-6.748,3.672-9.58,4.707v-8.789c5.088-2.402,9.541-5.293,13.35-8.691
	c3.799-3.418,6.504-6.719,8.086-9.922h5.859V848.34L152.677,848.34z M181.085,848.34v-10.371h10.361v10.371H181.085z
	 M206.104,831.191l8.74-0.802c0.742,4.121,2.158,7.091,4.248,8.945c2.09,1.855,4.766,2.773,8.037,2.773
	c2.793,0,5.244-0.625,7.354-1.914c2.109-1.271,3.828-2.988,5.176-5.138c1.348-2.129,2.48-5.02,3.389-8.651
	c0.91-3.642,1.369-7.38,1.367-11.133c0-0.392-0.02-0.996-0.049-1.816c-1.826,2.891-4.307,5.254-7.461,7.051
	c-3.112,1.794-6.643,2.73-10.234,2.715c-6.133,0-11.318-2.227-15.566-6.68s-6.367-10.313-6.367-17.598
	c0-7.5,2.217-13.556,6.65-18.146c4.424-4.569,9.98-6.875,16.65-6.875c4.814,0,9.229,1.31,13.213,3.906
	c3.994,2.598,7.031,6.289,9.102,11.094c2.071,4.806,3.105,11.738,3.105,20.84c0,9.474-1.025,17.013-3.076,22.617
	c-2.061,5.625-5.117,9.883-9.18,12.813c-4.063,2.93-8.818,4.395-14.277,4.395c-5.791,0-10.527-1.602-14.199-4.823
	C209.054,841.563,206.847,837.031,206.104,831.191L206.104,831.191z M243.351,798.496c0-5.215-1.387-9.375-4.17-12.441
	c-2.773-3.065-6.123-4.59-10.029-4.59c-4.043,0-7.568,1.66-10.566,4.961s-4.502,7.578-4.502,12.832
	c0,4.707,1.426,8.555,4.277,11.504c2.842,2.949,6.357,4.414,10.537,4.414c4.209,0,7.676-1.465,10.391-4.414
	C241.993,807.813,243.351,803.73,243.351,798.496z M263.683,831.191l8.74-0.802c0.742,4.121,2.158,7.091,4.248,8.945
	c2.09,1.855,4.766,2.773,8.037,2.773c2.793,0,5.244-0.625,7.354-1.914c2.109-1.271,3.828-2.988,5.176-5.138
	c1.348-2.129,2.48-5.02,3.389-8.651c0.91-3.642,1.369-7.38,1.367-11.133c0-0.392-0.02-0.996-0.049-1.816
	c-1.826,2.891-4.307,5.254-7.461,7.051c-3.111,1.794-6.643,2.73-10.234,2.715c-6.133,0-11.318-2.227-15.566-6.68
	s-6.367-10.313-6.367-17.598c0-7.5,2.217-13.556,6.65-18.146c4.424-4.569,9.98-6.875,16.65-6.875c4.814,0,9.229,1.31,13.213,3.906
	c3.994,2.598,7.031,6.289,9.102,11.094c2.071,4.806,3.105,11.738,3.105,20.84c0,9.474-1.025,17.013-3.076,22.617
	c-2.061,5.625-5.117,9.883-9.18,12.813c-4.063,2.93-8.818,4.395-14.277,4.395c-5.791,0-10.527-1.602-14.199-4.823
	C266.632,841.563,264.425,837.031,263.683,831.191L263.683,831.191z M300.929,798.496c0-5.215-1.387-9.375-4.17-12.441
	c-2.773-3.065-6.123-4.59-10.029-4.59c-4.043,0-7.568,1.66-10.566,4.961s-4.502,7.578-4.502,12.832
	c0,4.707,1.426,8.555,4.277,11.504c2.842,2.949,6.357,4.414,10.537,4.414c4.209,0,7.676-1.465,10.391-4.414
	C299.571,807.813,300.929,803.73,300.929,798.496L300.929,798.496z M367.091,792.383l-9.043,0.703
	c-0.811-3.574-1.953-6.172-3.438-7.772c-2.461-2.599-5.498-3.906-9.102-3.906c-2.9,0-5.439,0.819-7.627,2.44
	c-2.871,2.091-5.127,5.138-6.777,9.142s-2.51,9.727-2.578,17.129c2.188-3.34,4.873-5.801,8.037-7.422s6.484-2.422,9.961-2.422
	c6.064,0,11.221,2.227,15.488,6.698c4.258,4.453,6.396,10.234,6.396,17.306c0,4.647-1.006,8.965-3.008,12.969
	c-2.012,3.984-4.766,7.051-8.262,9.16c-3.506,2.129-7.49,3.184-11.934,3.184c-7.578,0-13.77-2.772-18.545-8.358
	c-4.795-5.566-7.178-14.767-7.178-27.578c0-14.316,2.637-24.728,7.93-31.23c4.619-5.664,10.83-8.496,18.652-8.496
	c5.83,0,10.605,1.642,14.326,4.902C364.122,782.109,366.349,786.621,367.091,792.383L367.091,792.383z M329.942,824.316
	c-0.008,3.111,0.672,6.186,1.992,9.004c1.338,2.871,3.193,5.059,5.586,6.543c2.393,1.504,4.902,2.246,7.529,2.246
	c3.848,0,7.148-1.543,9.912-4.648c2.764-3.086,4.141-7.305,4.141-12.637c0-5.117-1.357-9.142-4.092-12.09
	c-2.725-2.949-6.162-4.435-10.313-4.435c-4.111,0-7.598,1.484-10.459,4.435C331.377,815.684,329.942,819.551,329.942,824.316
	L329.942,824.316z M435.899,382.012l36.19,11.484c-5.547,20.176-14.774,35.166-27.676,44.961
	c-12.91,9.795-29.287,14.688-49.121,14.688c-24.561,0-44.736-8.38-60.537-25.156c-15.811-16.777-23.711-39.707-23.711-68.799
	c0-30.771,7.939-54.678,23.838-71.689c15.889-17.031,36.777-25.547,62.676-25.547c22.617,0,40.986,6.68,55.117,20.059
	c8.398,7.9,14.707,19.248,18.916,34.042l-36.953,8.828c-2.188-9.58-6.748-17.147-13.682-22.695
	c-6.943-5.547-15.371-8.32-25.293-8.32c-13.701,0-24.824,4.912-33.359,14.746c-8.535,9.844-12.793,25.781-12.793,47.803
	c0,23.369,4.199,40.029,12.607,49.941c8.408,9.922,19.336,14.883,32.793,14.883c9.922,0,18.457-3.154,25.596-9.463
	C427.657,405.469,432.784,395.557,435.899,382.012L435.899,382.012z M537.794,450h-35.438V316.055h32.92v19.043
	c5.635-8.983,10.703-14.922,15.194-17.772c4.502-2.861,9.609-4.297,15.322-4.297c8.076,0,15.85,2.227,23.34,6.688l-10.977,30.898
	c-5.967-3.867-11.523-5.801-16.65-5.801c-4.961,0-9.16,1.366-12.606,4.092c-3.447,2.733-6.162,7.676-8.136,14.824
	c-1.981,7.147-2.969,22.108-2.969,44.901V450L537.794,450z M860.372,109.219v7.578h-42.5c-0.07-1.87,0.242-3.734,0.918-5.479
	c1.084-2.9,2.813-5.752,5.195-8.555c2.382-2.803,5.83-6.055,10.332-9.736c6.991-5.732,11.709-10.273,14.17-13.623
	c2.45-3.35,3.682-6.514,3.682-9.502c0-3.125-1.113-5.762-3.35-7.91c-2.246-2.148-5.156-3.223-8.761-3.223
	c-3.799,0-6.836,1.133-9.12,3.418c-2.275,2.285-3.438,5.439-3.468,9.473l-8.114-0.83c0.557-6.055,2.646-10.674,6.278-13.838
	c3.623-3.174,8.486-4.766,14.601-4.766c6.172,0,11.055,1.719,14.657,5.137c3.595,3.418,5.392,7.656,5.392,12.715
	c0,2.578-0.527,5.107-1.572,7.598c-1.055,2.48-2.803,5.098-5.244,7.852c-2.44,2.744-6.504,6.523-12.178,11.309
	c-4.736,3.984-7.773,6.68-9.121,8.105c-1.348,1.406-2.461,2.832-3.34,4.277H860.372L860.372,109.219z M831.026,171.768
	c-3.271-1.201-5.703-2.91-7.285-5.127c-1.572-2.227-2.363-4.893-2.363-7.988c0-4.688,1.68-8.613,5.039-11.797
	c3.369-3.193,7.842-4.785,13.428-4.785c5.615,0,10.138,1.631,13.556,4.883c3.418,3.262,5.137,7.236,5.137,11.914
	c0,2.988-0.791,5.586-2.354,7.793c-1.563,2.207-3.936,3.906-7.129,5.107c3.955,1.279,6.953,3.369,9.015,6.221
	c2.069,2.871,3.096,6.289,3.096,10.273c0,5.498-1.943,10.117-5.83,13.867c-3.896,3.73-9.014,5.605-15.361,5.605
	c-6.338,0-11.455-1.875-15.352-5.635c-3.887-3.76-5.83-8.447-5.83-14.053c0-4.189,1.055-7.695,3.184-10.508
	C824.093,174.707,827.11,172.793,831.026,171.768L831.026,171.768z M826.905,188.086c0,2.246,0.526,4.434,1.602,6.533
	c1.064,2.109,2.656,3.74,4.756,4.893c2.081,1.148,4.421,1.746,6.797,1.738c3.779,0,6.896-1.211,9.347-3.652
	c2.461-2.422,3.69-5.508,3.69-9.248c0-3.799-1.27-6.943-3.799-9.434s-5.692-3.721-9.502-3.721c-3.711,0-6.787,1.221-9.229,3.672
	C828.126,181.328,826.905,184.395,826.905,188.086L826.905,188.086z M829.444,158.389c0,3.037,0.985,5.527,2.938,7.451
	c1.963,1.934,4.502,2.9,7.638,2.9c3.036,0,5.536-0.957,7.479-2.881c1.943-1.914,2.92-4.258,2.92-7.031
	c0-2.891-1.006-5.332-3.008-7.305s-4.502-2.969-7.48-2.969c-3.018,0-5.518,0.977-7.5,2.9
	C830.44,153.389,829.444,155.703,829.444,158.389L829.444,158.389z M798.645,296.484h-7.892v-50.322
	c-1.904,1.816-4.395,3.623-7.479,5.439s-5.859,3.174-8.312,4.082v-7.637c4.414-2.07,8.271-4.59,11.582-7.539
	c3.301-2.949,5.646-5.82,7.012-8.594h5.089V296.484L798.645,296.484z M818.907,279.502l7.899-1.045
	c0.908,4.473,2.451,7.695,4.63,9.668c2.178,1.973,4.834,2.959,7.959,2.959c3.711,0,6.854-1.289,9.413-3.857
	c2.56-2.578,3.839-5.762,3.839-9.57c0-3.623-1.191-6.611-3.556-8.965c-2.373-2.354-5.381-3.535-9.043-3.535
	c-1.483,0-3.34,0.293-5.565,0.879l0.879-6.934c0.526,0.059,0.947,0.098,1.27,0.098c3.359,0,6.388-0.879,9.082-2.637
	c2.687-1.758,4.033-4.463,4.033-8.115c0-2.9-0.977-5.293-2.938-7.197c-1.953-1.895-4.492-2.852-7.589-2.852
	c-3.065,0-5.625,0.967-7.676,2.891c-2.051,1.934-3.358,4.824-3.945,8.691l-7.899-1.406c0.967-5.293,3.164-9.395,6.582-12.305
	s7.676-4.355,12.764-4.355c3.506,0,6.738,0.742,9.697,2.246c2.949,1.514,5.215,3.574,6.776,6.172
	c1.563,2.598,2.345,5.371,2.345,8.291c0,2.783-0.742,5.303-2.236,7.588s-3.701,4.092-6.621,5.439
	c3.799,0.869,6.758,2.695,8.857,5.459c2.108,2.764,3.164,6.23,3.164,10.371c0,5.625-2.052,10.381-6.144,14.277
	c-4.102,3.906-9.276,5.859-15.526,5.859c-5.646,0-10.332-1.68-14.063-5.039S819.435,284.854,818.907,279.502L818.907,279.502z
	 M848.614,386.318h-7.892v-50.322c-1.903,1.816-4.395,3.633-7.479,5.449c-3.085,1.815-5.859,3.164-8.312,4.082v-7.638
	c4.414-2.069,8.271-4.59,11.582-7.539c3.302-2.959,5.646-5.819,7.013-8.604h5.088V386.318L848.614,386.318z"/>
</svg>
