<?xml version="1.0" encoding="utf-8"?>
<!-- Generator: Adobe Illustrator 16.0.3, SVG Export Plug-In . SVG Version: 6.00 Build 0)  -->
<!DOCTYPE svg PUBLIC "-//W3C//DTD SVG 1.1//EN" "http://www.w3.org/Graphics/SVG/1.1/DTD/svg11.dtd">
<svg version="1.1" id="Layer_1" xmlns="http://www.w3.org/2000/svg" xmlns:xlink="http://www.w3.org/1999/xlink" x="0px" y="0px"
	 width="900px" height="900px" viewBox="0 0 900 900" enable-background="new 0 0 900 900" xml:space="preserve">
<path d="M113.355,150.254v13.301H38.854c-0.107-3.278,0.441-6.545,1.611-9.609c1.904-5.068,4.932-10.068,9.111-14.99
	c4.179-4.922,10.215-10.605,18.105-17.07c12.256-10.039,20.527-18.008,24.834-23.867c4.307-5.879,6.455-11.426,6.455-16.65
	c0-5.479-1.953-10.107-5.879-13.877c-3.916-3.77-9.033-5.645-15.332-5.645c-6.67,0-12.002,1.992-15.996,5.996
	c-3.994,3.994-6.025,9.531-6.074,16.602L41.47,82.98c0.967-10.605,4.639-18.691,10.996-24.248c6.348-5.557,14.883-8.35,25.596-8.35
	c10.811,0,19.375,3.008,25.684,9.004c6.299,5.996,9.453,13.428,9.453,22.285c0,4.512-0.928,8.945-2.773,13.301
	c-1.836,4.365-4.902,8.945-9.18,13.77c-4.287,4.814-11.396,11.426-21.338,19.834c-8.301,6.973-13.633,11.699-15.986,14.189
	c-2.363,2.48-4.307,4.98-5.85,7.49L113.355,150.254L113.355,150.254z M128.189,134.033l14.531-1.23
	c1.074,7.07,3.574,12.393,7.5,15.957c3.916,3.555,8.643,5.332,14.18,5.332c6.66,0,12.305-2.5,16.914-7.529
	c4.609-5.02,6.924-11.689,6.924-19.99c0-7.891-2.217-14.121-6.65-18.672c-4.434-4.57-10.244-6.855-17.412-6.855
	c-4.463,0-8.486,1.016-12.07,3.047c-3.594,2.021-6.416,4.648-8.457,7.871l-12.998-1.68l10.918-57.891h56.045v13.223h-44.971
	l-6.074,30.283c6.758-4.717,13.857-7.07,21.289-7.07c9.844,0,18.145,3.408,24.912,10.225c6.767,6.817,10.146,15.586,10.146,26.289
	c0,10.205-2.969,19.023-8.916,26.445c-7.227,9.121-17.09,13.691-29.6,13.691c-10.254,0-18.613-2.871-25.098-8.613
	C132.817,151.124,129.117,143.516,128.189,134.033L128.189,134.033z M186.803,662.471v-74.102h14.756l17.539,52.461
	c1.621,4.883,2.793,8.535,3.535,10.977c0.85-2.694,2.158-6.66,3.945-11.875l17.744-51.563h13.193v74.102h-9.453v-62.03
	l-21.533,62.03h-8.848l-21.426-63.086v63.086H186.803L186.803,662.471z M307.203,655.85c-3.379,2.853-6.621,4.884-9.736,6.056
	c-3.115,1.19-6.455,1.776-10.029,1.776c-5.898,0-10.43-1.444-13.594-4.315c-3.174-2.892-4.756-6.563-4.756-11.056
	c0-2.616,0.596-5.02,1.797-7.207c1.191-2.168,2.764-3.905,4.697-5.215c1.934-1.328,4.121-2.323,6.543-2.987
	c1.787-0.47,4.482-0.938,8.086-1.367c7.354-0.879,12.754-1.914,16.23-3.125c0.029-1.25,0.049-2.051,0.049-2.383
	c0-3.711-0.859-6.328-2.578-7.832c-2.324-2.052-5.781-3.086-10.361-3.086c-4.277,0-7.441,0.741-9.473,2.245
	c-2.041,1.505-3.555,4.16-4.531,7.97l-8.896-1.211c0.811-3.81,2.148-6.896,3.994-9.238c1.855-2.344,4.531-4.141,8.037-5.41
	c3.506-1.25,7.568-1.895,12.188-1.895c4.58,0,8.301,0.547,11.172,1.621c2.861,1.073,4.961,2.44,6.309,4.063
	c1.348,1.641,2.295,3.711,2.832,6.191c0.303,1.563,0.459,4.354,0.459,8.397v12.129c0,8.457,0.195,13.81,0.576,16.056
	c0.398,2.263,1.178,4.442,2.305,6.444h-9.502C308.072,660.576,307.467,658.369,307.203,655.85L307.203,655.85z M306.441,635.518
	c-3.301,1.349-8.262,2.5-14.863,3.438c-3.74,0.547-6.387,1.151-7.93,1.836c-1.553,0.664-2.754,1.66-3.594,2.949
	c-0.84,1.289-1.26,2.733-1.26,4.315c0,2.422,0.918,4.453,2.754,6.074s4.521,2.422,8.057,2.422c3.506,0,6.621-0.762,9.355-2.305
	c2.725-1.523,4.736-3.633,6.016-6.289c0.977-2.051,1.465-5.078,1.465-9.103V635.518L306.441,635.518z M329.742,662.471v-53.69h8.184
	v7.637c3.945-5.897,9.639-8.848,17.09-8.848c3.232,0,6.201,0.586,8.916,1.758c2.715,1.151,4.746,2.676,6.094,4.57
	c1.348,1.875,2.285,4.12,2.832,6.719c0.332,1.68,0.498,4.629,0.498,8.848v33.008h-9.092v-32.655c0-3.711-0.352-6.484-1.064-8.32
	c-0.703-1.836-1.963-3.301-3.76-4.396c-1.807-1.094-3.926-1.641-6.348-1.641c-3.877,0-7.217,1.23-10.029,3.691
	c-2.822,2.461-4.229,7.129-4.229,14.004v29.315H329.742L329.742,662.471z M385.641,666.904l8.848,1.328
	c0.371,2.733,1.396,4.706,3.077,5.956c2.266,1.681,5.342,2.539,9.258,2.539c4.209,0,7.461-0.858,9.756-2.539
	c2.285-1.68,3.838-4.043,4.647-7.069c0.47-1.855,0.685-5.742,0.654-11.681c-3.975,4.688-8.926,7.031-14.863,7.031
	c-7.373,0-13.085-2.676-17.128-7.987c-4.043-5.332-6.064-11.72-6.064-19.16c0-5.117,0.918-9.845,2.773-14.181
	s4.541-7.676,8.066-10.039c3.516-2.344,7.656-3.534,12.402-3.534c6.338,0,11.563,2.559,15.674,7.694v-6.483h8.389v46.405
	c0,8.359-0.85,14.277-2.549,17.773c-1.709,3.477-4.404,6.229-8.086,8.262c-3.691,2.013-8.232,3.027-13.623,3.027
	c-6.406,0-11.572-1.445-15.518-4.316C387.408,677.041,385.504,672.705,385.641,666.904L385.641,666.904z M393.17,634.658
	c0,7.051,1.396,12.188,4.199,15.43c2.793,3.223,6.299,4.844,10.508,4.844c4.18,0,7.686-1.602,10.518-4.823
	c2.832-3.223,4.248-8.263,4.248-15.138c0-6.563-1.465-11.522-4.375-14.862c-2.92-3.341-6.426-5-10.536-5
	c-4.044,0-7.48,1.641-10.313,4.922C394.585,623.311,393.17,628.193,393.17,634.658L393.17,634.658z M479.918,655.85
	c-3.379,2.853-6.621,4.884-9.736,6.056c-3.114,1.19-6.455,1.776-10.028,1.776c-5.898,0-10.431-1.444-13.595-4.315
	c-3.174-2.892-4.756-6.563-4.756-11.056c0-2.616,0.597-5.02,1.797-7.207c1.191-2.168,2.765-3.905,4.697-5.215
	c1.934-1.328,4.121-2.323,6.543-2.987c1.787-0.47,4.482-0.938,8.086-1.367c7.354-0.879,12.754-1.914,16.23-3.125
	c0.028-1.25,0.049-2.051,0.049-2.383c0-3.711-0.859-6.328-2.578-7.832c-2.324-2.052-5.781-3.086-10.361-3.086
	c-4.276,0-7.44,0.741-9.473,2.245c-2.041,1.505-3.555,4.16-4.531,7.97l-8.896-1.211c0.811-3.81,2.147-6.896,3.994-9.238
	c1.854-2.344,4.53-4.141,8.036-5.41c3.507-1.25,7.568-1.895,12.188-1.895c4.58,0,8.301,0.547,11.172,1.621
	c2.861,1.073,4.961,2.44,6.31,4.063c1.348,1.641,2.295,3.711,2.832,6.191c0.303,1.563,0.459,4.354,0.459,8.397v12.129
	c0,8.457,0.194,13.81,0.575,16.056c0.398,2.263,1.178,4.442,2.306,6.444h-9.502C480.787,660.576,480.182,658.369,479.918,655.85
	L479.918,655.85z M479.156,635.518c-3.301,1.349-8.263,2.5-14.863,3.438c-3.74,0.547-6.387,1.151-7.93,1.836
	c-1.554,0.664-2.754,1.66-3.595,2.949c-0.84,1.289-1.26,2.733-1.26,4.315c0,2.422,0.918,4.453,2.754,6.074s4.521,2.422,8.058,2.422
	c3.506,0,6.621-0.762,9.354-2.305c2.726-1.523,4.736-3.633,6.017-6.289c0.977-2.051,1.465-5.078,1.465-9.103V635.518
	L479.156,635.518z M502.457,662.471v-53.69h8.184v7.637c3.945-5.897,9.64-8.848,17.09-8.848c3.232,0,6.201,0.586,8.916,1.758
	c2.716,1.151,4.746,2.676,6.095,4.57c1.348,1.875,2.285,4.12,2.832,6.719c0.332,1.68,0.498,4.629,0.498,8.848v33.008h-9.093v-32.655
	c0-3.711-0.352-6.484-1.063-8.32c-0.703-1.836-1.963-3.301-3.76-4.396c-1.808-1.094-3.927-1.641-6.349-1.641
	c-3.877,0-7.217,1.23-10.028,3.691c-2.822,2.461-4.229,7.129-4.229,14.004v29.315H502.457L502.457,662.471z M596.773,645.186
	l9.395,1.152c-1.484,5.488-4.229,9.766-8.232,12.793c-4.014,3.027-9.141,4.551-15.37,4.551c-7.853,0-14.072-2.422-18.673-7.266
	c-4.6-4.824-6.903-11.602-6.903-20.332c0-9.023,2.323-16.035,6.973-21.035c4.658-4.979,10.685-7.479,18.096-7.479
	c7.179,0,13.048,2.44,17.599,7.344c4.541,4.883,6.815,11.758,6.815,20.604c0,0.548-0.01,1.349-0.049,2.441h-40.028
	c0.331,5.898,2.002,10.41,5,13.535c2.997,3.145,6.737,4.707,11.221,4.707c3.34,0,6.182-0.879,8.545-2.638
	C593.521,651.826,595.387,649.014,596.773,645.186L596.773,645.186z M566.9,630.479h29.971c-0.41-4.53-1.553-7.909-3.438-10.176
	c-2.899-3.496-6.659-5.254-11.27-5.254c-4.18,0-7.695,1.406-10.537,4.199C568.775,622.041,567.203,625.791,566.9,630.479
	L566.9,630.479z M613.951,646.436l8.994-1.405c0.508,3.612,1.914,6.366,4.229,8.28c2.306,1.935,5.527,2.892,9.678,2.892
	c4.181,0,7.275-0.859,9.298-2.56c2.021-1.699,3.036-3.69,3.036-5.996c0-2.051-0.897-3.672-2.686-4.844
	c-1.24-0.801-4.346-1.836-9.297-3.086c-6.67-1.68-11.299-3.145-13.877-4.375c-2.578-1.229-4.531-2.93-5.859-5.098
	c-1.338-2.168-2.002-4.57-2.002-7.207c0-2.383,0.547-4.609,1.65-6.641c1.075-2.018,2.607-3.757,4.473-5.078
	c1.416-1.056,3.34-1.935,5.781-2.656s5.068-1.094,7.861-1.094c4.209,0,7.909,0.604,11.094,1.815c3.184,1.23,5.537,2.871,7.051,4.941
	c1.514,2.069,2.56,4.844,3.135,8.301l-8.896,1.229c-0.4-2.772-1.572-4.922-3.517-6.483c-1.934-1.543-4.668-2.324-8.213-2.324
	c-4.18,0-7.157,0.703-8.944,2.07c-1.787,1.387-2.677,3.008-2.677,4.862c0,1.173,0.371,2.246,1.113,3.185
	c0.742,0.977,1.904,1.777,3.486,2.422c0.908,0.332,3.584,1.113,8.037,2.324c6.436,1.719,10.928,3.125,13.467,4.219
	c2.549,1.094,4.541,2.695,5.996,4.785c1.444,2.09,2.168,4.688,2.168,7.772c0,3.048-0.879,5.898-2.656,8.574
	c-1.768,2.676-4.316,4.746-7.656,6.211c-3.33,1.465-7.108,2.207-11.317,2.207c-6.974,0-12.295-1.445-15.947-4.354
	C617.291,656.436,614.967,652.139,613.951,646.436L613.951,646.436z M706.1,645.186l9.396,1.152
	c-1.484,5.488-4.229,9.766-8.232,12.793c-4.014,3.027-9.141,4.551-15.37,4.551c-7.853,0-14.072-2.422-18.673-7.266
	c-4.6-4.824-6.903-11.602-6.903-20.332c0-9.023,2.323-16.035,6.973-21.035c4.658-4.979,10.684-7.479,18.096-7.479
	c7.179,0,13.047,2.44,17.599,7.344c4.541,4.883,6.815,11.758,6.815,20.604c0,0.548-0.01,1.349-0.049,2.441h-40.029
	c0.332,5.898,2.002,10.41,5,13.535c2.998,3.145,6.738,4.707,11.222,4.707c3.34,0,6.182-0.879,8.545-2.638
	C702.848,651.826,704.713,649.014,706.1,645.186L706.1,645.186z M676.227,630.479h29.972c-0.41-4.53-1.553-7.909-3.438-10.176
	c-2.899-3.496-6.66-5.254-11.27-5.254c-4.18,0-7.695,1.406-10.537,4.199C678.102,622.041,676.529,625.791,676.227,630.479
	L676.227,630.479z M60.846,828.896l9.551-0.802c0.713,4.648,2.354,8.146,4.932,10.488s5.684,3.496,9.326,3.496
	c4.375,0,8.086-1.642,11.113-4.941c3.037-3.301,4.551-7.694,4.551-13.145c0-5.195-1.455-9.277-4.365-12.285
	c-2.92-2.988-6.738-4.492-11.455-4.492c-2.93,0-5.576,0.664-7.93,1.992c-2.363,1.328-4.219,3.065-5.566,5.176l-8.535-1.112
	l7.178-38.048h36.846v8.691H76.92l-3.994,19.902c4.443-3.087,9.111-4.648,14.004-4.648c6.465,0,11.924,2.246,16.377,6.738
	c4.443,4.473,6.67,10.233,6.67,17.284c0,6.699-1.953,12.5-5.869,17.384c-4.746,5.996-11.23,8.983-19.453,8.983
	c-6.738,0-12.246-1.875-16.504-5.645C63.883,840.127,61.451,835.127,60.846,828.896L60.846,828.896z M147.574,848.311v-17.754
	h-32.139v-8.34l33.809-48.008h7.432v48.008h10.01v8.34h-10.01v17.754H147.574z M147.574,822.217v-33.397l-23.193,33.397H147.574z
	 M181.09,848.311v-10.37h10.361v10.37H181.09z M206.109,831.162l8.74-0.801c0.742,4.121,2.158,7.09,4.248,8.944
	c2.09,1.855,4.766,2.773,8.037,2.773c2.793,0,5.244-0.625,7.354-1.914c2.109-1.271,3.828-2.988,5.176-5.137
	c1.348-2.13,2.48-5.021,3.389-8.652c0.909-3.642,1.368-7.38,1.367-11.133c0-0.392-0.02-0.996-0.049-1.816
	c-1.826,2.892-4.307,5.254-7.461,7.052c-3.111,1.793-6.643,2.73-10.234,2.715c-6.133,0-11.318-2.228-15.566-6.681
	c-4.248-4.452-6.367-10.313-6.367-17.598c0-7.5,2.217-13.555,6.65-18.146c4.424-4.569,9.98-6.875,16.65-6.875
	c4.814,0,9.229,1.31,13.213,3.906c3.994,2.599,7.031,6.289,9.102,11.094c2.071,4.806,3.105,11.738,3.105,20.841
	c0,9.473-1.025,17.012-3.076,22.616c-2.061,5.625-5.117,9.884-9.18,12.813s-8.818,4.396-14.277,4.396
	c-5.791,0-10.527-1.603-14.199-4.824C209.059,841.533,206.852,837.002,206.109,831.162L206.109,831.162z M243.355,798.467
	c0-5.215-1.387-9.375-4.17-12.44c-2.773-3.066-6.123-4.591-10.029-4.591c-4.043,0-7.568,1.66-10.566,4.961
	c-2.998,3.302-4.502,7.578-4.502,12.832c0,4.707,1.426,8.556,4.277,11.505c2.842,2.948,6.357,4.413,10.537,4.413
	c4.209,0,7.676-1.465,10.391-4.413C241.998,807.783,243.355,803.701,243.355,798.467z M262.369,828.74l9.102-1.211
	c1.045,5.155,2.822,8.867,5.332,11.151c2.51,2.267,5.566,3.398,9.17,3.398c4.277,0,7.891-1.465,10.84-4.435
	c2.949-2.969,4.424-6.641,4.424-11.016c0-4.18-1.357-7.637-4.092-10.352c-2.725-2.716-6.201-4.063-10.41-4.063
	c-1.719,0-3.857,0.332-6.416,1.017l1.006-7.988c0.486,0.055,0.975,0.087,1.465,0.098c3.877,0,7.363-1.016,10.469-3.026
	c3.096-2.031,4.648-5.138,4.648-9.355c0-3.34-1.133-6.094-3.389-8.281c-2.256-2.207-5.176-3.301-8.74-3.301
	c-3.545,0-6.494,1.113-8.848,3.34c-2.363,2.228-3.877,5.566-4.551,10.021l-9.102-1.621c1.113-6.094,3.643-10.82,7.588-14.18
	c3.936-3.359,8.838-5.039,14.707-5.039c4.043,0,7.764,0.879,11.172,2.616c3.398,1.738,6.006,4.103,7.803,7.091
	c1.807,3.008,2.705,6.19,2.705,9.551c0,3.203-0.859,6.113-2.578,8.75c-1.719,2.637-4.258,4.727-7.627,6.27
	c4.375,1.017,7.783,3.105,10.205,6.289c2.432,3.185,3.643,7.168,3.643,11.953c0,6.465-2.363,11.953-7.08,16.465
	c-4.717,4.492-10.684,6.738-17.891,6.738c-6.504,0-11.904-1.934-16.201-5.82C265.426,839.933,262.975,834.912,262.369,828.74
	L262.369,828.74z M333.893,808.115c-3.779-1.367-6.572-3.34-8.398-5.898c-1.816-2.578-2.725-5.645-2.725-9.199
	c0-5.391,1.934-9.922,5.811-13.612c3.877-3.672,9.033-5.508,15.469-5.508c6.465,0,11.68,1.895,15.615,5.645
	c3.945,3.75,5.918,8.34,5.918,13.73c0,3.438-0.898,6.426-2.705,8.965s-4.541,4.512-8.213,5.879
	c4.551,1.483,8.008,3.887,10.391,7.188c2.373,3.302,3.555,7.246,3.555,11.816c0,6.348-2.236,11.66-6.719,15.977
	c-4.483,4.317-10.381,6.466-17.686,6.466c-7.314,0-13.213-2.148-17.695-6.484c-4.482-4.336-6.719-9.727-6.719-16.211
	c0-4.805,1.221-8.848,3.662-12.09C325.895,811.514,329.371,809.307,333.893,808.115L333.893,808.115z M329.137,826.924
	c0,2.599,0.615,5.099,1.846,7.539c1.23,2.422,3.057,4.297,5.488,5.625c2.422,1.328,5.029,1.992,7.832,1.992
	c4.346,0,7.93-1.387,10.762-4.18c2.832-2.813,4.248-6.367,4.248-10.664c0-4.396-1.455-8.008-4.375-10.879
	c-2.91-2.853-6.563-4.298-10.938-4.298c-4.277,0-7.832,1.427-10.645,4.259S329.137,822.686,329.137,826.924L329.137,826.924z
	 M332.066,792.705c0,3.516,1.133,6.367,3.389,8.594c2.256,2.228,5.186,3.34,8.799,3.34c3.506,0,6.377-1.112,8.613-3.319
	c2.246-2.207,3.359-4.902,3.359-8.105c0-3.34-1.152-6.133-3.457-8.418c-2.314-2.266-5.186-3.418-8.623-3.418
	c-3.467,0-6.348,1.113-8.643,3.34C333.219,786.943,332.066,789.6,332.066,792.705L332.066,792.705z M275.826,449.971V265.078h55.869
	l33.545,126.123l33.164-126.123H454.4v184.893h-34.679V304.424l-36.699,145.547h-35.947l-36.572-145.547v145.547H275.826z
	 M613.063,449.971h-35.438v-68.358c0-14.463-0.762-23.81-2.275-28.066c-1.514-4.238-3.965-7.539-7.373-9.902
	c-3.407-2.344-7.51-3.524-12.295-3.524c-6.143,0-11.649,1.688-16.522,5.049c-4.883,3.359-8.224,7.813-10.029,13.359
	c-1.807,5.557-2.705,15.819-2.705,30.78v60.664h-35.438V316.025h32.909v19.678c11.689-15.127,26.406-22.705,44.142-22.705
	c7.822,0,14.971,1.406,21.444,4.229c6.475,2.823,11.367,6.416,14.688,10.791c3.32,4.365,5.635,9.326,6.943,14.873
	c1.299,5.558,1.952,13.496,1.952,23.838v83.242H613.063z M860.367,109.189v7.578h-42.5c-0.07-1.87,0.242-3.734,0.918-5.479
	c1.084-2.9,2.813-5.752,5.195-8.555c2.382-2.803,5.83-6.055,10.332-9.736c6.991-5.732,11.709-10.273,14.17-13.623
	c2.45-3.35,3.682-6.514,3.682-9.502c0-3.125-1.113-5.762-3.35-7.91c-2.246-2.148-5.156-3.223-8.761-3.223
	c-3.799,0-6.836,1.133-9.121,3.418c-2.274,2.285-3.438,5.439-3.467,9.473l-8.114-0.83c0.557-6.055,2.646-10.674,6.278-13.838
	c3.623-3.174,8.486-4.766,14.601-4.766c6.172,0,11.055,1.719,14.657,5.137c3.595,3.418,5.392,7.656,5.392,12.715
	c0,2.578-0.527,5.107-1.572,7.598c-1.055,2.48-2.803,5.098-5.244,7.852c-2.44,2.744-6.504,6.523-12.178,11.309
	c-4.736,3.984-7.773,6.68-9.121,8.105c-1.348,1.406-2.461,2.832-3.34,4.277H860.367L860.367,109.189z M831.021,171.738
	c-3.271-1.201-5.703-2.91-7.285-5.127c-1.572-2.227-2.363-4.893-2.363-7.988c0-4.688,1.68-8.613,5.039-11.797
	c3.369-3.193,7.842-4.785,13.428-4.785c5.615,0,10.137,1.631,13.555,4.883c3.419,3.262,5.138,7.236,5.138,11.914
	c0,2.988-0.791,5.586-2.354,7.793c-1.563,2.207-3.936,3.906-7.129,5.107c3.955,1.279,6.953,3.369,9.014,6.221
	c2.07,2.871,3.097,6.289,3.097,10.273c0,5.498-1.943,10.117-5.83,13.867c-3.896,3.73-9.014,5.605-15.361,5.605
	c-6.338,0-11.455-1.875-15.352-5.635c-3.888-3.76-5.83-8.447-5.83-14.053c0-4.189,1.055-7.695,3.184-10.508
	C824.088,174.678,827.105,172.764,831.021,171.738z M826.9,188.057c0,2.246,0.526,4.434,1.602,6.533
	c1.064,2.109,2.656,3.74,4.756,4.893c2.081,1.148,4.421,1.747,6.797,1.738c3.779,0,6.896-1.211,9.347-3.652
	c2.461-2.422,3.69-5.508,3.69-9.248c0-3.799-1.27-6.943-3.799-9.434c-2.529-2.491-5.693-3.721-9.502-3.721
	c-3.711,0-6.787,1.221-9.229,3.672C828.121,181.299,826.9,184.365,826.9,188.057L826.9,188.057z M829.439,158.359
	c0,3.037,0.985,5.527,2.938,7.451c1.963,1.934,4.502,2.9,7.637,2.9c3.037,0,5.537-0.957,7.48-2.881
	c1.943-1.914,2.92-4.258,2.92-7.031c0-2.891-1.006-5.332-3.008-7.305c-2.002-1.973-4.502-2.969-7.48-2.969
	c-3.018,0-5.518,0.977-7.5,2.9C830.436,153.359,829.439,155.674,829.439,158.359L829.439,158.359z M798.639,296.455h-7.891v-50.322
	c-1.904,1.816-4.395,3.623-7.48,5.439c-3.084,1.816-5.858,3.174-8.311,4.082v-7.637c4.414-2.07,8.271-4.59,11.582-7.539
	c3.301-2.949,5.645-5.82,7.012-8.594h5.088V296.455L798.639,296.455z M818.902,279.473l7.899-1.045
	c0.908,4.473,2.451,7.695,4.629,9.668c2.179,1.973,4.834,2.959,7.959,2.959c3.712,0,6.855-1.289,9.414-3.857
	c2.56-2.578,3.839-5.762,3.839-9.57c0-3.623-1.191-6.611-3.556-8.965c-2.373-2.354-5.381-3.535-9.043-3.535
	c-1.483,0-3.34,0.293-5.565,0.879l0.879-6.934c0.526,0.059,0.946,0.098,1.27,0.098c3.359,0,6.387-0.879,9.082-2.637
	c2.687-1.758,4.033-4.463,4.033-8.115c0-2.9-0.977-5.293-2.939-7.197c-1.953-1.895-4.491-2.852-7.588-2.852
	c-3.065,0-5.625,0.967-7.676,2.891c-2.051,1.934-3.359,4.824-3.945,8.691l-7.899-1.406c0.967-5.293,3.164-9.395,6.582-12.305
	c3.418-2.91,7.676-4.355,12.764-4.355c3.506,0,6.738,0.742,9.697,2.246c2.948,1.514,5.215,3.574,6.776,6.172
	c1.563,2.598,2.345,5.371,2.345,8.291c0,2.783-0.742,5.303-2.236,7.588c-1.494,2.285-3.701,4.092-6.621,5.439
	c3.799,0.869,6.758,2.695,8.857,5.459c2.108,2.764,3.163,6.23,3.163,10.371c0,5.625-2.051,10.381-6.143,14.277
	c-4.102,3.906-9.277,5.859-15.527,5.859c-5.645,0-10.332-1.68-14.063-5.039C821.558,289.19,819.43,284.824,818.902,279.473
	L818.902,279.473z M860.367,378.701v7.588h-42.5c-0.068-1.904,0.244-3.73,0.918-5.479c1.084-2.899,2.813-5.752,5.195-8.555
	c2.383-2.813,5.83-6.055,10.332-9.746c6.991-5.723,11.709-10.272,14.17-13.612c2.45-3.359,3.682-6.523,3.682-9.503
	c0-3.135-1.113-5.771-3.35-7.92c-2.246-2.147-5.156-3.223-8.761-3.223c-3.799,0-6.836,1.143-9.12,3.418
	c-2.275,2.285-3.438,5.449-3.468,9.482l-8.114-0.83c0.557-6.056,2.646-10.675,6.278-13.849c3.623-3.164,8.486-4.756,14.601-4.756
	c6.172,0,11.055,1.709,14.657,5.127c3.595,3.429,5.392,7.666,5.392,12.726c0,2.567-0.527,5.106-1.572,7.588
	c-1.055,2.479-2.803,5.106-5.244,7.852c-2.44,2.754-6.504,6.523-12.178,11.318c-4.736,3.975-7.773,6.67-9.121,8.096
	c-1.348,1.416-2.461,2.842-3.34,4.277L860.367,378.701L860.367,378.701z"/>
</svg>
