<?xml version="1.0" encoding="utf-8"?>
<!-- Generator: Adobe Illustrator 16.0.3, SVG Export Plug-In . SVG Version: 6.00 Build 0)  -->
<!DOCTYPE svg PUBLIC "-//W3C//DTD SVG 1.1//EN" "http://www.w3.org/Graphics/SVG/1.1/DTD/svg11.dtd">
<svg version="1.1" id="Layer_1" xmlns="http://www.w3.org/2000/svg" xmlns:xlink="http://www.w3.org/1999/xlink" x="0px" y="0px"
	 width="900px" height="900px" viewBox="0 0 900 900" enable-background="new 0 0 900 900" xml:space="preserve">
<path d="M113.351,150.286v13.301H38.849c-0.107-3.278,0.441-6.545,1.611-9.609c1.904-5.073,4.932-10.073,9.111-14.99
	c4.18-4.922,10.215-10.61,18.105-17.07c12.256-10.044,20.527-18.003,24.834-23.872c4.307-5.869,6.455-11.416,6.455-16.646
	c0-5.483-1.953-10.107-5.879-13.877c-3.916-3.765-9.033-5.649-15.332-5.649c-6.67,0-12.002,2.002-15.996,5.996
	c-3.994,3.999-6.025,9.536-6.074,16.606l-14.219-1.46c0.967-10.61,4.639-18.691,10.996-24.253
	c6.348-5.562,14.883-8.345,25.596-8.345c10.811,0,19.375,2.998,25.684,8.994c6.299,5.996,9.453,13.433,9.453,22.295
	c0,4.512-0.928,8.945-2.773,13.301c-1.836,4.36-4.902,8.945-9.18,13.765c-4.287,4.814-11.396,11.431-21.338,19.834
	c-8.301,6.973-13.633,11.699-15.986,14.185c-2.363,2.485-4.307,4.985-5.85,7.495L113.351,150.286L113.351,150.286z M199.991,78.479
	l-13.76,1.079c-1.23-5.435-2.969-9.38-5.225-11.841c-3.75-3.945-8.359-5.923-13.838-5.923c-4.414,0-8.281,1.23-11.611,3.691
	c-4.355,3.179-7.793,7.817-10.303,13.916c-2.51,6.099-3.818,14.79-3.926,26.064c3.33-5.073,7.412-8.843,12.227-11.304
	s9.863-3.691,15.146-3.691c9.229,0,17.08,3.398,23.564,10.19s9.727,15.566,9.727,26.328c0,7.075-1.523,13.647-4.58,19.722
	c-3.047,6.074-7.236,10.723-12.568,13.955c-5.332,3.228-11.377,4.844-18.145,4.844c-11.533,0-20.938-4.243-28.213-12.725
	c-7.275-8.482-10.918-22.461-10.918-41.938c0-21.782,4.023-37.622,12.07-47.515c7.021-8.608,16.475-12.915,28.369-12.915
	c8.867,0,16.133,2.485,21.797,7.456C195.47,62.849,198.868,69.714,199.991,78.479L199.991,78.479z M143.487,127.068
	c0,4.766,1.006,9.331,3.037,13.687c2.021,4.355,4.854,7.676,8.496,9.956c3.633,2.28,7.451,3.418,11.455,3.418
	c5.84,0,10.859-2.354,15.068-7.07c4.199-4.717,6.299-11.123,6.299-19.219c0-7.793-2.07-13.931-6.221-18.413
	c-4.16-4.487-9.385-6.729-15.684-6.729c-6.26,0-11.563,2.241-15.918,6.729C145.665,113.909,143.487,119.792,143.487,127.068
	L143.487,127.068z M369.347,662.473v-74.102h9.805v74.102H369.347z M395.167,662.473v-53.672h8.193v8.146
	c2.09-3.81,4.014-6.328,5.78-7.539c1.777-1.211,3.722-1.816,5.841-1.816c3.065,0,6.182,0.978,9.354,2.931l-3.135,8.438
	c-2.228-1.309-4.453-1.973-6.67-1.973c-1.992,0-3.779,0.604-5.361,1.797c-1.582,1.191-2.715,2.852-3.389,4.979
	c-1.006,3.242-1.515,6.777-1.515,10.605v28.104H395.167L395.167,662.473z M426.358,635.637c0-9.94,2.764-17.305,8.291-22.09
	c4.608-3.965,10.243-5.957,16.885-5.957c7.373,0,13.408,2.422,18.086,7.246c4.688,4.844,7.031,11.523,7.031,20.039
	c0,6.914-1.035,12.344-3.105,16.309c-2.08,3.966-5.088,7.031-9.053,9.22c-3.955,2.188-8.281,3.28-12.959,3.28
	c-7.521,0-13.594-2.401-18.224-7.227C428.673,651.652,426.358,644.699,426.358,635.637z M435.704,635.637
	c0,6.875,1.504,12.031,4.502,15.449s6.777,5.117,11.328,5.117c4.512,0,8.271-1.719,11.27-5.156
	c2.999-3.437,4.492-8.672,4.492-15.703c0-6.641-1.504-11.68-4.521-15.098c-3.018-3.418-6.769-5.137-11.24-5.137
	c-4.551,0-8.33,1.719-11.328,5.116C437.209,623.624,435.704,628.762,435.704,635.637L435.704,635.637z M487.315,662.473v-53.672
	h8.184v7.638c3.945-5.898,9.639-8.849,17.09-8.849c3.232,0,6.201,0.586,8.916,1.738c2.715,1.172,4.746,2.695,6.094,4.57
	c1.349,1.895,2.285,4.141,2.832,6.719c0.332,1.699,0.498,4.647,0.498,8.848v33.008h-9.092v-32.655c0-3.691-0.352-6.466-1.063-8.302
	c-0.703-1.836-1.964-3.301-3.761-4.395c-1.807-1.094-3.926-1.641-6.348-1.641c-3.877,0-7.217,1.229-10.029,3.672
	c-2.821,2.461-4.229,7.129-4.229,14.004v29.315L487.315,662.473L487.315,662.473z M60.841,828.918l9.551-0.801
	c0.713,4.647,2.354,8.145,4.932,10.488c2.578,2.343,5.684,3.495,9.326,3.495c4.375,0,8.086-1.641,11.113-4.94
	c3.037-3.301,4.551-7.695,4.551-13.146c0-5.194-1.455-9.276-4.365-12.284c-2.92-2.988-6.738-4.492-11.455-4.492
	c-2.93,0-5.576,0.664-7.93,1.992c-2.363,1.327-4.219,3.065-5.566,5.176l-8.535-1.113l7.178-38.047h36.846v8.691h-29.57
	l-3.994,19.901c4.443-3.086,9.111-4.647,14.004-4.647c6.465,0,11.924,2.245,16.377,6.737c4.443,4.474,6.67,10.234,6.67,17.285
	c0,6.699-1.953,12.5-5.869,17.383c-4.746,5.996-11.23,8.984-19.453,8.984c-6.738,0-12.246-1.875-16.504-5.646
	C63.878,840.147,61.446,835.147,60.841,828.918L60.841,828.918z M118.409,828.918l9.551-0.801c0.713,4.647,2.354,8.145,4.932,10.488
	c2.578,2.343,5.684,3.495,9.326,3.495c4.375,0,8.086-1.641,11.113-4.94c3.037-3.301,4.551-7.695,4.551-13.146
	c0-5.194-1.455-9.276-4.365-12.284c-2.92-2.988-6.738-4.492-11.455-4.492c-2.93,0-5.576,0.664-7.93,1.992
	c-2.363,1.327-4.219,3.065-5.566,5.176l-8.535-1.113l7.178-38.047h36.846v8.691h-29.57l-3.994,19.901
	c4.443-3.086,9.111-4.647,14.004-4.647c6.465,0,11.924,2.245,16.377,6.737c4.443,4.474,6.67,10.234,6.67,17.285
	c0,6.699-1.953,12.5-5.869,17.383c-4.746,5.996-11.23,8.984-19.453,8.984c-6.738,0-12.246-1.875-16.504-5.646
	C121.446,840.147,119.015,835.147,118.409,828.918L118.409,828.918z M181.085,848.332v-10.371h10.361v10.371H181.085z
	 M218.741,808.137c-3.779-1.367-6.572-3.34-8.398-5.897c-1.816-2.578-2.725-5.646-2.725-9.199c0-5.391,1.934-9.922,5.811-13.613
	c3.877-3.672,9.033-5.508,15.469-5.508c6.465,0,11.68,1.896,15.615,5.646c3.945,3.75,5.918,8.34,5.918,13.729
	c0,3.438-0.898,6.426-2.705,8.965s-4.541,4.513-8.213,5.879c4.551,1.484,8.008,3.888,10.391,7.188
	c2.373,3.301,3.555,7.246,3.555,11.816c0,6.348-2.236,11.659-6.719,15.977c-4.483,4.317-10.381,6.465-17.686,6.465
	c-7.314,0-13.213-2.147-17.695-6.484c-4.482-4.336-6.719-9.727-6.719-16.211c0-4.805,1.221-8.848,3.662-12.09
	C210.743,811.535,214.22,809.328,218.741,808.137L218.741,808.137z M213.985,826.945c0,2.598,0.615,5.098,1.846,7.539
	c1.23,2.422,3.057,4.297,5.488,5.625c2.422,1.328,5.029,1.991,7.832,1.991c4.346,0,7.93-1.387,10.762-4.18
	c2.832-2.813,4.248-6.367,4.248-10.664c0-4.395-1.455-8.008-4.375-10.879c-2.91-2.852-6.563-4.297-10.938-4.297
	c-4.277,0-7.832,1.426-10.645,4.258S213.985,822.707,213.985,826.945z M216.915,792.727c0,3.517,1.133,6.367,3.389,8.595
	c2.256,2.227,5.186,3.34,8.799,3.34c3.506,0,6.377-1.113,8.613-3.32c2.246-2.207,3.359-4.901,3.359-8.104
	c0-3.34-1.152-6.133-3.457-8.418c-2.314-2.267-5.186-3.418-8.623-3.418c-3.467,0-6.348,1.112-8.643,3.34
	C218.067,786.965,216.915,789.621,216.915,792.727z M291.476,848.332v-17.754h-32.139v-8.34l33.809-48.009h7.432v48.009h10.01v8.34
	h-10.01v17.754H291.476z M291.476,822.238V788.84l-23.193,33.398H291.476L291.476,822.238z M319.884,828.918l9.551-0.801
	c0.713,4.647,2.354,8.145,4.932,10.487c2.578,2.344,5.684,3.496,9.326,3.496c4.375,0,8.086-1.641,11.113-4.94
	c3.037-3.301,4.551-7.695,4.551-13.146c0-5.194-1.455-9.276-4.365-12.285c-2.92-2.987-6.738-4.491-11.455-4.491
	c-2.93,0-5.576,0.664-7.93,1.991c-2.363,1.328-4.219,3.066-5.566,5.177l-8.535-1.113l7.178-38.047h36.846v8.69h-29.57l-3.994,19.902
	c4.443-3.086,9.111-4.647,14.004-4.647c6.465,0,11.924,2.245,16.377,6.737c4.443,4.474,6.67,10.234,6.67,17.285
	c0,6.699-1.953,12.5-5.869,17.383c-4.746,5.996-11.23,8.984-19.453,8.984c-6.738,0-12.246-1.875-16.504-5.646
	C322.921,840.147,320.489,835.147,319.884,828.918L319.884,828.918z M312.325,449.998V265.11h126.748v31.279h-89.414v43.76h77.178
	v31.278h-77.178v78.569L312.325,449.998L312.325,449.998z M547.159,407.371l35.313,5.928c-4.541,12.949-11.709,22.809-21.504,29.575
	s-22.051,10.152-36.768,10.152c-23.291,0-40.527-7.608-51.709-22.828c-8.828-12.192-13.242-27.578-13.242-46.157
	c0-22.197,5.801-39.58,17.412-52.153c11.602-12.567,26.27-18.853,44.014-18.853c19.922,0,35.646,6.577,47.168,19.736
	c11.514,13.158,17.021,33.314,16.523,60.474h-88.789c0.254,10.513,3.104,18.687,8.573,24.531c5.47,5.844,12.275,8.765,20.431,8.765
	c5.547,0,10.215-1.514,14.004-4.541C542.364,418.972,545.226,414.099,547.159,407.371L547.159,407.371z M549.171,371.55
	c-0.244-10.254-2.899-18.052-7.938-23.394c-5.05-5.337-11.183-8.008-18.418-8.008c-7.734,0-14.121,2.816-19.171,8.451
	c-5.038,5.631-7.52,13.286-7.44,22.949L549.171,371.55L549.171,371.55z M860.372,109.207v7.588h-42.5
	c-0.07-1.871,0.242-3.737,0.918-5.483c1.084-2.896,2.813-5.747,5.195-8.555c2.382-2.808,5.83-6.055,10.332-9.736
	c6.991-5.732,11.709-10.273,14.17-13.623c2.45-3.35,3.682-6.514,3.682-9.497c0-3.13-1.113-5.767-3.35-7.915
	c-2.246-2.153-5.156-3.228-8.761-3.228c-3.799,0-6.836,1.143-9.12,3.423c-2.275,2.28-3.438,5.439-3.468,9.478l-8.114-0.835
	c0.557-6.055,2.646-10.669,6.278-13.843c3.623-3.169,8.486-4.756,14.601-4.756c6.172,0,11.055,1.709,14.657,5.132
	c3.595,3.423,5.392,7.661,5.392,12.72c0,2.573-0.527,5.103-1.572,7.588c-1.055,2.485-2.803,5.107-5.244,7.852
	c-2.44,2.749-6.504,6.523-12.178,11.318c-4.736,3.979-7.773,6.675-9.121,8.096c-1.348,1.416-2.461,2.842-3.34,4.277L860.372,109.207
	L860.372,109.207z M831.026,171.76c-3.271-1.201-5.703-2.91-7.285-5.132c-1.572-2.222-2.363-4.888-2.363-7.983
	c0-4.683,1.68-8.613,5.039-11.802c3.369-3.188,7.842-4.78,13.428-4.78c5.615,0,10.138,1.631,13.556,4.888
	c3.418,3.262,5.137,7.231,5.137,11.914c0,2.979-0.791,5.576-2.354,7.783c-1.563,2.207-3.936,3.911-7.129,5.112
	c3.955,1.284,6.953,3.364,9.015,6.226c2.069,2.871,3.096,6.289,3.096,10.269c0,5.498-1.943,10.117-5.83,13.862
	c-3.896,3.74-9.014,5.615-15.361,5.615c-6.338,0-11.455-1.88-15.352-5.64c-3.887-3.755-5.83-8.442-5.83-14.058
	c0-4.185,1.055-7.686,3.184-10.508C824.093,174.705,827.11,172.781,831.026,171.76z M826.905,188.079
	c0,2.251,0.526,4.429,1.602,6.533c1.064,2.109,2.656,3.74,4.756,4.893c2.081,1.149,4.421,1.746,6.797,1.733
	c3.779,0,6.896-1.211,9.347-3.643c2.461-2.427,3.69-5.513,3.69-9.253c0-3.804-1.27-6.948-3.799-9.434
	c-2.529-2.486-5.692-3.726-9.502-3.726c-3.711,0-6.787,1.226-9.229,3.682C828.125,181.32,826.905,184.392,826.905,188.079
	L826.905,188.079z M829.444,158.381c0,3.042,0.985,5.527,2.938,7.456c1.963,1.929,4.502,2.896,7.638,2.896
	c3.036,0,5.536-0.957,7.479-2.876c1.943-1.914,2.92-4.258,2.92-7.036c0-2.896-1.006-5.332-3.008-7.305
	c-2.002-1.978-4.502-2.964-7.48-2.964c-3.018,0-5.518,0.967-7.5,2.896C830.44,153.381,829.444,155.691,829.444,158.381
	L829.444,158.381z M798.645,296.472h-7.892v-50.317c-1.904,1.816-4.395,3.628-7.479,5.438c-3.086,1.816-5.859,3.174-8.312,4.082
	v-7.632c4.414-2.075,8.271-4.59,11.582-7.544c3.301-2.954,5.646-5.82,7.012-8.599h5.089V296.472L798.645,296.472z M844.181,296.472
	v-15.396h-27.899v-7.241l29.346-41.67h6.445v41.67h8.69v7.241h-8.69v15.396H844.181z M844.181,273.835v-28.994l-20.137,28.994
	H844.181z M860.372,378.723v7.588h-42.5c-0.07-1.87,0.242-3.736,0.918-5.482c1.084-2.896,2.813-5.747,5.195-8.555
	c2.382-2.809,5.83-6.056,10.332-9.736c6.991-5.732,11.709-10.273,14.17-13.623c2.45-3.35,3.682-6.514,3.682-9.497
	c0-3.13-1.113-5.767-3.35-7.915c-2.246-2.153-5.156-3.228-8.761-3.228c-3.799,0-6.836,1.143-9.12,3.423
	c-2.275,2.279-3.438,5.438-3.468,9.478l-8.114-0.835c0.557-6.055,2.646-10.669,6.278-13.843c3.623-3.169,8.486-4.756,14.601-4.756
	c6.172,0,11.055,1.709,14.657,5.132c3.595,3.423,5.392,7.661,5.392,12.72c0,2.573-0.527,5.104-1.572,7.588
	c-1.055,2.485-2.803,5.107-5.244,7.853c-2.44,2.749-6.504,6.522-12.178,11.317c-4.736,3.979-7.773,6.676-9.121,8.097
	c-1.348,1.416-2.461,2.842-3.34,4.276L860.372,378.723L860.372,378.723z"/>
</svg>
