<?xml version="1.0" encoding="utf-8"?>
<!-- Generator: Adobe Illustrator 16.0.3, SVG Export Plug-In . SVG Version: 6.00 Build 0)  -->
<!DOCTYPE svg PUBLIC "-//W3C//DTD SVG 1.1//EN" "http://www.w3.org/Graphics/SVG/1.1/DTD/svg11.dtd">
<svg version="1.1" id="Layer_1" xmlns="http://www.w3.org/2000/svg" xmlns:xlink="http://www.w3.org/1999/xlink" x="0px" y="0px"
	 width="900px" height="900px" viewBox="0 0 900 900" enable-background="new 0 0 900 900" xml:space="preserve">
<path fill="#010101" d="M113.172,150.239v13.301H38.675c-0.108-3.278,0.438-6.544,1.606-9.609c1.899-5.068,4.932-10.068,9.111-14.99
	c4.179-4.922,10.21-10.61,18.11-17.07c12.261-10.039,20.532-18.003,24.829-23.872c4.302-5.869,6.46-11.416,6.46-16.65
	c0-5.479-1.948-10.107-5.879-13.877c-3.921-3.76-9.028-5.64-15.332-5.64c-6.67,0-11.997,1.997-15.996,6.001
	c-3.994,3.999-6.03,9.541-6.074,16.606l-14.219-1.47c0.972-10.604,4.639-18.691,11.001-24.248c6.353-5.562,14.878-8.34,25.601-8.34
	c10.811,0,19.38,2.998,25.679,8.989c6.299,6.001,9.453,13.433,9.453,22.29c0,4.512-0.933,8.95-2.773,13.301
	c-1.841,4.36-4.897,8.95-9.18,13.76c-4.287,4.81-11.401,11.431-21.338,19.829c-8.301,6.968-13.633,11.699-15.991,14.18
	c-2.358,2.49-4.312,4.99-5.85,7.5h55.278v0.009H113.172z M128.943,65.601V52.29h72.959v10.762
	c-7.178,7.637-14.287,17.788-21.338,30.439c-7.051,12.661-12.49,25.679-16.343,39.058c-2.759,9.434-4.526,19.761-5.298,30.981
	h-14.219c0.146-8.872,1.89-19.58,5.22-32.129c3.33-12.563,8.11-24.673,14.336-36.333c6.23-11.66,12.852-21.489,19.873-29.478h-55.19
	V65.601L128.943,65.601z M360.652,636.475l9.8,2.461c-2.061,8.066-5.747,14.199-11.089,18.438c-5.342,4.229-11.88,6.338-19.59,6.338
	c-7.988,0-14.482-1.621-19.482-4.873c-5.01-3.241-8.818-7.959-11.426-14.12c-2.612-6.173-3.921-12.794-3.921-19.863
	c0-7.715,1.47-14.443,4.419-20.205c2.949-5.732,7.139-10.107,12.588-13.086c5.444-2.979,11.431-4.474,17.974-4.474
	c7.407,0,13.638,1.886,18.696,5.654c5.054,3.771,8.574,9.082,10.562,15.928l-9.648,2.275c-1.719-5.392-4.219-9.316-7.48-11.777
	c-3.271-2.461-7.383-3.69-12.329-3.69c-5.693,0-10.464,1.367-14.282,4.092c-3.828,2.725-6.509,6.396-8.071,11.006
	c-1.558,4.59-2.319,9.346-2.319,14.219c0,6.309,0.923,11.816,2.754,16.504c1.826,4.688,4.697,8.213,8.56,10.547
	c3.877,2.314,8.076,3.486,12.588,3.486c5.498,0,10.151-1.582,13.96-4.756C356.73,647.402,359.313,642.705,360.652,636.475
	L360.652,636.475z M377.991,635.615c0-9.941,2.764-17.295,8.291-22.09c4.609-3.965,10.239-5.967,16.88-5.967
	c7.373,0,13.413,2.422,18.091,7.256c4.692,4.834,7.031,11.514,7.031,20.039c0,6.903-1.04,12.344-3.11,16.309
	c-2.08,3.965-5.093,7.031-9.053,9.229c-3.96,2.188-8.276,3.281-12.959,3.281c-7.52,0-13.589-2.402-18.218-7.236
	C380.305,651.621,377.991,644.678,377.991,635.615L377.991,635.615z M387.332,635.615c0,6.885,1.499,12.031,4.502,15.449
	c2.998,3.418,6.777,5.127,11.328,5.127c4.512,0,8.271-1.719,11.27-5.166c3.003-3.438,4.492-8.672,4.492-15.703
	c0-6.641-1.499-11.67-4.521-15.098c-3.018-3.418-6.768-5.138-11.24-5.138c-4.551,0-8.33,1.72-11.328,5.117
	C388.841,623.604,387.332,628.74,387.332,635.615z M447.332,662.451h-8.438V588.35h9.097v26.444
	c3.853-4.813,8.75-7.235,14.717-7.235c3.301,0,6.426,0.664,9.375,2.002c2.949,1.328,5.381,3.184,7.285,5.604
	c1.914,2.422,3.397,5.313,4.473,8.729c1.074,3.398,1.611,7.031,1.611,10.918c0,9.199-2.275,16.31-6.816,21.328
	c-4.551,5.021-10.01,7.529-16.377,7.529c-6.348,0-11.313-2.646-14.917-7.93v6.709h-0.01V662.451z M447.244,635.205
	c0,6.436,0.869,11.084,2.627,13.955c2.861,4.678,6.744,7.021,11.626,7.021c3.965,0,7.402-1.738,10.313-5.177
	c2.892-3.467,4.347-8.604,4.347-15.448c0-7.013-1.396-12.188-4.17-15.519c-2.783-3.34-6.144-5.011-10.078-5.011
	c-3.984,0-7.422,1.729-10.313,5.195C448.684,623.672,447.244,628.672,447.244,635.205z M531.536,655.83
	c-3.379,2.861-6.61,4.883-9.727,6.055c-3.125,1.191-6.465,1.777-10.039,1.777c-5.898,0-10.43-1.445-13.594-4.316
	c-3.164-2.891-4.757-6.563-4.757-11.045c0-2.627,0.597-5.029,1.808-7.217c1.19-2.168,2.754-3.916,4.697-5.215
	c1.924-1.318,4.11-2.305,6.532-2.988c1.797-0.469,4.492-0.938,8.097-1.367c7.354-0.879,12.744-1.914,16.229-3.135
	c0.029-1.25,0.049-2.041,0.049-2.373c0-3.711-0.858-6.328-2.578-7.832c-2.323-2.051-5.78-3.096-10.36-3.096
	c-4.287,0-7.441,0.752-9.474,2.256c-2.041,1.494-3.545,4.16-4.521,7.969l-8.906-1.211c0.812-3.809,2.148-6.875,3.984-9.238
	c1.865-2.334,4.531-4.131,8.047-5.41c3.516-1.25,7.568-1.885,12.188-1.885c4.58,0,8.302,0.537,11.173,1.621
	c2.86,1.064,4.961,2.433,6.309,4.063c1.348,1.641,2.285,3.7,2.832,6.182c0.293,1.563,0.459,4.365,0.459,8.408v12.129
	c0,8.457,0.205,13.81,0.576,16.045c0.391,2.246,1.162,4.386,2.305,6.445h-9.502C532.415,660.576,531.81,658.359,531.536,655.83
	L531.536,655.83z M530.784,635.508c-3.301,1.357-8.262,2.5-14.862,3.447c-3.74,0.537-6.388,1.143-7.931,1.826
	c-1.553,0.674-2.744,1.66-3.584,2.949c-0.839,1.285-1.281,2.791-1.27,4.326c0,2.422,0.928,4.442,2.754,6.063
	c1.836,1.621,4.521,2.422,8.065,2.422c3.507,0,6.621-0.762,9.355-2.295c2.715-1.522,4.746-3.633,6.016-6.289
	c0.986-2.062,1.465-5.088,1.465-9.103v-3.35h-0.009V635.508L530.784,635.508z M553.899,662.451V588.35h9.092v74.102H553.899z
	 M596.946,654.326l1.318,8.027c-2.568,0.547-4.845,0.801-6.886,0.801c-3.301,0-5.858-0.508-7.676-1.553
	c-1.836-1.045-3.104-2.422-3.848-4.121s-1.104-5.283-1.104-10.742v-30.879h-6.68v-7.08h6.68v-13.291l9.033-5.459v18.75h9.16v7.08
	h-9.16v31.396c0,2.599,0.166,4.259,0.488,5c0.313,0.732,0.84,1.328,1.563,1.777c0.724,0.438,1.769,0.646,3.115,0.646
	C593.958,654.668,595.307,654.551,596.946,654.326L596.946,654.326z M60.652,828.877l9.551-0.801
	c0.708,4.646,2.349,8.145,4.932,10.488c2.578,2.354,5.679,3.516,9.326,3.516c4.38,0,8.091-1.65,11.113-4.951
	c3.037-3.301,4.551-7.686,4.551-13.135c0-5.195-1.46-9.277-4.37-12.285c-2.92-2.998-6.743-4.492-11.46-4.492
	c-2.93,0-5.581,0.654-7.93,1.992c-2.363,1.328-4.224,3.066-5.571,5.176l-8.54-1.104l7.178-38.059h36.851v8.691H76.732l-3.989,19.902
	c4.438-3.098,9.111-4.648,13.999-4.648c6.46,0,11.924,2.246,16.382,6.729c4.438,4.473,6.67,10.232,6.67,17.295
	c0,6.698-1.948,12.5-5.869,17.383c-4.751,5.996-11.23,8.983-19.448,8.983c-6.743,0-12.251-1.875-16.504-5.646
	C63.694,840.127,61.263,835.127,60.652,828.877L60.652,828.877z M132.234,808.115c-3.779-1.387-6.572-3.359-8.403-5.918
	c-1.816-2.568-2.72-5.625-2.72-9.199c0-5.391,1.934-9.922,5.811-13.594c3.882-3.672,9.033-5.508,15.474-5.508
	c6.455,0,11.68,1.875,15.615,5.625c3.95,3.76,5.923,8.34,5.923,13.729c0,3.438-0.898,6.426-2.71,8.965s-4.541,4.502-8.213,5.879
	c4.551,1.484,8.013,3.889,10.391,7.188c2.373,3.301,3.55,7.246,3.55,11.826c0,6.338-2.236,11.659-6.719,15.984
	c-4.478,4.316-10.381,6.455-17.69,6.455c-7.309,0-13.208-2.158-17.7-6.494c-4.478-4.325-6.719-9.727-6.719-16.189
	c0-4.814,1.221-8.857,3.662-12.109C124.222,811.514,127.703,809.287,132.234,808.115L132.234,808.115z M127.473,826.904
	c0,2.598,0.62,5.105,1.851,7.539c1.23,2.422,3.062,4.307,5.488,5.625c2.422,1.328,5.029,1.992,7.832,1.992
	c4.351,0,7.93-1.406,10.757-4.189c2.832-2.803,4.253-6.357,4.253-10.654c0-4.385-1.46-8.018-4.38-10.879
	c-2.91-2.852-6.563-4.297-10.942-4.297c-4.277,0-7.827,1.426-10.64,4.248C128.885,819.121,127.473,822.666,127.473,826.904
	L127.473,826.904z M130.403,792.705c0,3.506,1.128,6.367,3.389,8.584c2.261,2.217,5.19,3.33,8.799,3.33
	c3.511,0,6.382-1.094,8.613-3.313c2.251-2.207,3.359-4.91,3.359-8.113c0-3.34-1.152-6.134-3.462-8.418
	c-2.31-2.275-5.19-3.418-8.618-3.418c-3.472,0-6.348,1.111-8.643,3.34C131.555,786.924,130.403,789.59,130.403,792.705
	L130.403,792.705z M180.901,848.291V837.93h10.361v10.361H180.901L180.901,848.291z M205.921,831.152l8.74-0.802
	c0.742,4.11,2.163,7.091,4.253,8.954c2.09,1.855,4.771,2.766,8.037,2.766c2.793,0,5.244-0.635,7.354-1.904
	c2.109-1.289,3.828-2.998,5.181-5.146c1.348-2.141,2.476-5.029,3.389-8.662c0.91-3.636,1.369-7.367,1.367-11.113
	c0-0.41-0.02-1.016-0.049-1.826c-1.831,2.893-4.307,5.244-7.461,7.051c-3.14,1.809-6.558,2.705-10.229,2.705
	c-6.128,0-11.318-2.227-15.571-6.68c-4.248-4.434-6.367-10.293-6.367-17.578c0-7.52,2.222-13.563,6.65-18.145
	c4.419-4.58,9.98-6.875,16.65-6.875c4.81,0,9.229,1.289,13.208,3.887c3.989,2.605,7.031,6.299,9.102,11.094
	c2.07,4.805,3.11,11.758,3.11,20.859c0,9.463-1.03,17.002-3.081,22.617c-2.061,5.613-5.122,9.883-9.18,12.813
	c-4.063,2.93-8.818,4.385-14.282,4.385c-5.786,0-10.527-1.602-14.199-4.813C208.875,841.514,206.663,836.982,205.921,831.152
	L205.921,831.152z M243.162,798.467c0-5.225-1.387-9.385-4.17-12.439c-2.769-3.076-6.118-4.609-10.029-4.609
	c-4.038,0-7.568,1.66-10.571,4.961c-2.998,3.301-4.497,7.578-4.497,12.832c0,4.729,1.431,8.555,4.277,11.504
	c2.842,2.949,6.362,4.414,10.542,4.414c4.209,0,7.681-1.465,10.391-4.414C241.814,807.765,243.162,803.682,243.162,798.467
	L243.162,798.467z M262.18,828.73l9.102-1.211c1.04,5.165,2.822,8.877,5.332,11.143c2.51,2.266,5.566,3.408,9.17,3.408
	c4.277,0,7.891-1.477,10.84-4.443c2.949-2.968,4.419-6.641,4.419-11.016c0-4.182-1.362-7.639-4.092-10.342
	c-2.72-2.705-6.196-4.072-10.41-4.072c-1.719,0-3.857,0.342-6.416,1.023l1.006-7.998c0.61,0.078,1.094,0.117,1.46,0.117
	c3.882,0,7.363-1.016,10.474-3.047c3.101-2.012,4.648-5.137,4.648-9.354c0-3.33-1.128-6.096-3.389-8.281
	c-2.261-2.197-5.181-3.281-8.74-3.281c-3.54,0-6.489,1.104-8.853,3.34c-2.358,2.229-3.877,5.547-4.551,10l-9.097-1.621
	c1.108-6.084,3.638-10.818,7.588-14.18c3.94-3.34,8.843-5.02,14.712-5.02c4.038,0,7.759,0.857,11.172,2.598
	c3.398,1.748,6.006,4.102,7.798,7.109c1.812,2.997,2.71,6.172,2.71,9.551c0,3.191-0.859,6.104-2.578,8.75
	c-1.724,2.627-4.263,4.717-7.632,6.25c4.38,1.023,7.778,3.125,10.21,6.309c2.432,3.186,3.638,7.168,3.638,11.953
	c0,6.455-2.358,11.943-7.08,16.455c-4.717,4.482-10.679,6.748-17.886,6.748c-6.504,0-11.904-1.935-16.201-5.82
	C265.231,839.922,262.781,834.893,262.18,828.73L262.18,828.73z M319.754,828.73l9.097-1.211c1.045,5.165,2.822,8.877,5.332,11.143
	c2.51,2.266,5.571,3.408,9.17,3.408c4.282,0,7.891-1.477,10.84-4.443c2.949-2.968,4.419-6.641,4.419-11.016
	c0-4.182-1.357-7.639-4.087-10.342c-2.72-2.705-6.201-4.072-10.41-4.072c-1.719,0-3.862,0.342-6.421,1.023l1.011-7.998
	c0.61,0.078,1.089,0.117,1.46,0.117c3.877,0,7.358-1.016,10.469-3.047c3.101-2.012,4.648-5.137,4.648-9.354
	c0-3.33-1.128-6.096-3.389-8.281c-2.261-2.197-5.181-3.281-8.74-3.281c-3.54,0-6.489,1.104-8.848,3.34
	c-2.363,2.229-3.882,5.547-4.551,10l-9.102-1.621c1.108-6.084,3.643-10.818,7.593-14.18c3.936-3.34,8.838-5.02,14.707-5.02
	c4.043,0,7.764,0.857,11.172,2.598c3.398,1.748,6.011,4.102,7.798,7.109c1.812,2.997,2.71,6.172,2.71,9.551
	c0,3.191-0.859,6.104-2.578,8.75c-1.719,2.627-4.263,4.717-7.632,6.25c4.38,1.023,7.783,3.125,10.21,6.309
	c2.432,3.186,3.643,7.168,3.643,11.953c0,6.455-2.363,11.943-7.08,16.455c-4.722,4.482-10.684,6.748-17.891,6.748
	c-6.499,0-11.899-1.935-16.201-5.82C322.805,839.922,320.354,834.893,319.754,828.73L319.754,828.73z M408.752,381.963
	l36.191,11.475c-5.552,20.18-14.78,35.17-27.68,44.96c-12.91,9.79-29.292,14.692-49.121,14.692
	c-24.561,0-44.741-8.389-60.542-25.161c-15.806-16.768-23.706-39.707-23.706-68.799c0-30.771,7.939-54.668,23.838-71.689
	c15.889-17.031,36.782-25.542,62.681-25.542c22.622,0,40.991,6.68,55.122,20.049c8.398,7.91,14.707,19.253,18.916,34.053
	l-36.949,8.828c-2.188-9.58-6.748-17.148-13.682-22.7c-6.938-5.547-15.366-8.33-25.288-8.33c-13.701,0-24.819,4.922-33.359,14.761
	s-12.788,25.771-12.788,47.803c0,23.369,4.199,40.02,12.607,49.937c8.408,9.922,19.341,14.883,32.788,14.883
	c9.922,0,18.462-3.149,25.601-9.463C400.511,405.42,405.633,395.498,408.752,381.963z M468.528,381.079
	c0-11.768,2.909-23.159,8.711-34.17c5.801-11.011,14.014-19.419,24.648-25.22c10.645-5.801,22.52-8.701,35.635-8.701
	c20.264,0,36.865,6.582,49.813,19.741c12.931,13.159,19.414,29.79,19.414,49.883c0,20.259-6.522,37.056-19.608,50.386
	c-13.076,13.33-29.531,19.99-49.375,19.99c-12.285,0-23.984-2.769-35.138-8.33c-11.133-5.547-19.609-13.677-25.41-24.399
	C471.438,409.521,468.528,396.47,468.528,381.079z M504.837,382.969c0,13.291,3.154,23.462,9.474,30.522
	c6.309,7.07,14.072,10.601,23.32,10.601c9.258,0,17.002-3.53,23.271-10.601c6.26-7.061,9.385-17.319,9.385-30.771
	c0-13.12-3.125-23.198-9.385-30.269c-6.27-7.061-14.014-10.591-23.271-10.591c-9.248,0-17.013,3.53-23.32,10.591
	C508.001,359.521,504.837,369.687,504.837,382.969z M860.188,109.17v7.588h-42.5c-0.065-1.869,0.246-3.733,0.918-5.479
	c1.094-2.9,2.813-5.752,5.205-8.55c2.392-2.798,5.83-6.05,10.332-9.741c6.98-5.728,11.709-10.269,14.17-13.618
	c2.451-3.35,3.682-6.509,3.682-9.497c0-3.135-1.113-5.771-3.35-7.92c-2.246-2.153-5.156-3.232-8.771-3.232
	c-3.789,0-6.836,1.143-9.109,3.418c-2.275,2.28-3.447,5.439-3.469,9.482l-8.125-0.83c0.566-6.05,2.656-10.674,6.279-13.838
	c3.623-3.174,8.486-4.766,14.6-4.766c6.174,0,11.057,1.714,14.668,5.132c3.586,3.423,5.383,7.661,5.383,12.72
	c0,2.568-0.527,5.103-1.572,7.593c-1.045,2.485-2.793,5.107-5.234,7.847c-2.439,2.754-6.504,6.523-12.188,11.323
	c-4.729,3.979-7.766,6.67-9.111,8.101c-1.355,1.416-2.461,2.837-3.34,4.277h31.533V109.17L860.188,109.17z M830.843,171.719
	c-3.271-1.201-5.691-2.91-7.295-5.127c-1.563-2.222-2.354-4.893-2.354-7.983c0-4.678,1.68-8.608,5.039-11.797
	c3.369-3.193,7.842-4.78,13.428-4.78c5.625,0,10.137,1.631,13.555,4.888c3.418,3.262,5.139,7.231,5.139,11.909
	c0,2.983-0.791,5.581-2.346,7.783c-1.563,2.197-3.943,3.906-7.129,5.107c3.955,1.279,6.943,3.359,9.004,6.23
	c2.07,2.871,3.105,6.289,3.105,10.273c0,5.498-1.953,10.117-5.84,13.857c-3.896,3.74-9.004,5.62-15.354,5.62
	c-6.348,0-11.465-1.88-15.352-5.64c-3.887-3.75-5.84-8.442-5.84-14.063c0-4.18,1.055-7.686,3.184-10.508
	C823.918,174.666,826.927,172.739,830.843,171.719L830.843,171.719z M826.722,188.042c0,2.251,0.537,4.429,1.604,6.528
	c1.063,2.109,2.666,3.74,4.756,4.893c2.109,1.157,4.385,1.729,6.809,1.729c3.777,0,6.885-1.211,9.346-3.643
	c2.461-2.427,3.689-5.508,3.689-9.248c0-3.799-1.27-6.953-3.799-9.429c-2.527-2.48-5.691-3.73-9.502-3.73
	c-3.711,0-6.787,1.23-9.229,3.677C827.952,181.269,826.722,184.36,826.722,188.042z M829.261,158.34
	c0,3.042,0.986,5.532,2.939,7.461c1.963,1.929,4.502,2.9,7.637,2.9c3.047,0,5.547-0.962,7.48-2.881
	c1.941-1.909,2.93-4.258,2.93-7.041c0-2.9-1.016-5.327-3.008-7.3c-2.012-1.978-4.512-2.959-7.48-2.959c-3.025,0-5.525,0.972-7.5,2.9
	C830.247,153.34,829.261,155.649,829.261,158.34z M798.471,296.44h-7.892v-50.322c-1.903,1.821-4.395,3.633-7.479,5.444
	c-3.097,1.816-5.859,3.169-8.32,4.077v-7.632c4.414-2.08,8.281-4.59,11.582-7.539c3.301-2.949,5.646-5.82,7.012-8.599h5.099
	L798.471,296.44L798.471,296.44z M818.685,279.59l8.291-0.698c0.613,4.038,2.041,7.07,4.275,9.106
	c2.236,2.031,4.934,3.052,8.098,3.052c3.809,0,7.012-1.431,9.646-4.302c2.637-2.866,3.955-6.67,3.955-11.406
	c0-4.512-1.271-8.062-3.799-10.664c-2.529-2.598-5.84-3.906-9.934-3.906c-2.539,0-4.834,0.576-6.885,1.729
	c-2.051,1.162-3.651,2.651-4.813,4.502l-7.412-0.972l6.223-33.033h31.982v7.544h-25.664l-3.467,17.29
	c3.877-2.69,7.908-4.033,12.156-4.033c5.625,0,10.354,1.943,14.221,5.83c3.848,3.892,5.779,8.892,5.779,15
	c0,5.82-1.697,10.85-5.088,15.093c-4.121,5.21-9.756,7.808-16.885,7.808c-5.84,0-10.625-1.641-14.326-4.917
	C821.321,289.351,819.212,285,818.685,279.59L818.685,279.59z M860.188,378.691v7.588h-42.5c-0.061-1.899,0.244-3.73,0.918-5.479
	c1.094-2.9,2.813-5.752,5.205-8.55c2.393-2.803,5.83-6.05,10.332-9.741c6.98-5.728,11.709-10.269,14.17-13.618
	c2.451-3.35,3.682-6.509,3.682-9.502c0-3.13-1.113-5.771-3.35-7.92c-2.246-2.148-5.156-3.228-8.771-3.228
	c-3.789,0-6.836,1.138-9.109,3.418c-2.275,2.28-3.447,5.439-3.469,9.482l-8.125-0.83c0.566-6.055,2.656-10.674,6.279-13.843
	c3.623-3.169,8.486-4.761,14.6-4.761c6.174,0,11.057,1.709,14.668,5.132c3.584,3.418,5.383,7.661,5.383,12.72
	c0,2.568-0.527,5.098-1.572,7.588c-1.045,2.49-2.793,5.112-5.234,7.852c-2.439,2.749-6.504,6.519-12.188,11.318
	c-4.729,3.984-7.766,6.67-9.111,8.101c-1.356,1.421-2.461,2.842-3.34,4.282h31.533V378.691L860.188,378.691z"/>
</svg>
