<?xml version="1.0" encoding="utf-8"?>
<!-- Generator: Adobe Illustrator 16.0.3, SVG Export Plug-In . SVG Version: 6.00 Build 0)  -->
<!DOCTYPE svg PUBLIC "-//W3C//DTD SVG 1.1//EN" "http://www.w3.org/Graphics/SVG/1.1/DTD/svg11.dtd">
<svg version="1.1" id="Layer_1" xmlns="http://www.w3.org/2000/svg" xmlns:xlink="http://www.w3.org/1999/xlink" x="0px" y="0px"
	 width="900px" height="900px" viewBox="0 0 900 900" enable-background="new 0 0 900 900" xml:space="preserve">
<path d="M113.351,150.251v13.301H38.849c-0.107-3.278,0.441-6.544,1.611-9.609c1.904-5.073,4.932-10.073,9.111-14.99
	c4.18-4.922,10.215-10.61,18.105-17.07c12.256-10.044,20.527-18.003,24.834-23.872c4.307-5.869,6.455-11.416,6.455-16.646
	c0-5.483-1.953-10.107-5.879-13.877c-3.916-3.765-9.033-5.649-15.332-5.649c-6.67,0-12.002,2.002-15.996,5.996
	c-3.994,3.999-6.025,9.536-6.074,16.606l-14.219-1.46c0.967-10.61,4.639-18.691,10.996-24.253
	c6.348-5.562,14.883-8.345,25.596-8.345c10.811,0,19.375,2.998,25.684,8.994c6.299,5.996,9.453,13.433,9.453,22.295
	c0,4.512-0.928,8.945-2.773,13.301c-1.836,4.36-4.902,8.945-9.18,13.765c-4.287,4.814-11.396,11.431-21.338,19.834
	c-8.301,6.973-13.633,11.699-15.986,14.185c-2.363,2.485-4.307,4.985-5.85,7.495L113.351,150.251L113.351,150.251z M149.483,102.434
	c-5.742-2.104-10-5.103-12.764-8.999c-2.764-3.892-4.15-8.555-4.15-13.989c0-8.198,2.949-15.093,8.838-20.684
	c5.898-5.586,13.74-8.379,23.525-8.379c9.844,0,17.764,2.856,23.76,8.574c5.996,5.713,8.994,12.671,8.994,20.874
	c0,5.225-1.377,9.775-4.111,13.643c-2.744,3.872-6.914,6.855-12.5,8.96c6.924,2.256,12.188,5.894,15.801,10.913
	c3.613,5.024,5.42,11.021,5.42,17.993c0,9.634-3.408,17.734-10.225,24.292c-6.816,6.563-15.781,9.844-26.904,9.844
	s-20.098-3.296-26.914-9.883c-6.816-6.582-10.225-14.8-10.225-24.639c0-7.329,1.865-13.467,5.576-18.413
	C137.325,107.595,142.618,104.226,149.483,102.434L149.483,102.434z M142.257,131.033c0,3.945,0.938,7.764,2.803,11.455
	c1.875,3.691,4.648,6.548,8.34,8.569c3.691,2.026,7.666,3.037,11.924,3.037c6.611,0,12.07-2.124,16.367-6.377
	c4.307-4.258,6.465-9.663,6.465-16.226c0-6.66-2.217-12.173-6.65-16.528c-4.433-4.355-9.98-6.533-16.65-6.533
	c-6.504,0-11.904,2.153-16.182,6.455C144.396,119.192,142.257,124.573,142.257,131.033L142.257,131.033z M146.71,78.982
	c0,5.332,1.719,9.688,5.156,13.071c3.428,3.384,7.891,5.073,13.379,5.073c5.332,0,9.697-1.675,13.105-5.034
	c3.408-3.354,5.117-7.471,5.117-12.339c0-5.073-1.758-9.341-5.273-12.803c-3.506-3.457-7.881-5.19-13.105-5.19
	c-5.283,0-9.658,1.694-13.145,5.078C148.458,70.217,146.71,74.27,146.71,78.982L146.71,78.982z M316.563,662.469v-74.102h10.059
	l38.926,58.184v-58.184h9.395v74.102h-10.059l-38.916-58.242v58.242H316.563L316.563,662.469z M390.313,598.836v-10.469h9.102
	v10.469H390.313z M390.313,662.469v-53.69h9.102v53.69H390.313z M448.292,642.801l8.945,1.172
	c-0.978,6.152-3.486,10.978-7.511,14.474c-4.023,3.496-8.975,5.233-14.834,5.233c-7.344,0-13.252-2.401-17.715-7.207
	c-4.463-4.805-6.699-11.68-6.699-20.645c0-5.801,0.957-10.859,2.882-15.215c1.924-4.356,4.844-7.617,8.77-9.785
	s8.193-3.262,12.813-3.262c5.83,0,10.596,1.483,14.307,4.434c3.701,2.949,6.084,7.129,7.129,12.559l-8.848,1.367
	c-0.84-3.612-2.334-6.328-4.474-8.145c-2.139-1.817-4.727-2.734-7.764-2.734c-4.58,0-8.301,1.642-11.162,4.941
	c-2.871,3.281-4.297,8.477-4.297,15.586c0,7.207,1.377,12.461,4.141,15.723c2.765,3.262,6.367,4.902,10.82,4.902
	c3.564,0,6.553-1.094,8.945-3.281C446.133,650.731,447.647,647.352,448.292,642.801z M465.069,662.469v-74.102h9.102v42.246
	l21.523-21.836h11.776l-20.518,19.922l22.598,33.77H498.33l-17.744-27.44l-6.416,6.151v21.289H465.069z M553.526,645.184
	l9.395,1.152c-1.483,5.488-4.229,9.766-8.231,12.793c-4.015,3.027-9.142,4.551-15.371,4.551c-7.853,0-14.072-2.422-18.672-7.266
	c-4.601-4.824-6.904-11.602-6.904-20.332c0-9.023,2.324-16.035,6.973-21.035c4.658-4.979,10.685-7.479,18.097-7.479
	c7.178,0,13.047,2.44,17.598,7.344c4.541,4.883,6.815,11.758,6.815,20.604c0,0.548-0.01,1.349-0.049,2.441h-40.028
	c0.332,5.898,2.002,10.41,5,13.535c2.998,3.145,6.737,4.707,11.221,4.707c3.34,0,6.182-0.879,8.545-2.638
	C550.274,651.824,552.14,649.012,553.526,645.184L553.526,645.184z M523.653,630.477h29.971c-0.41-4.53-1.553-7.909-3.438-10.176
	c-2.899-3.496-6.659-5.254-11.27-5.254c-4.18,0-7.695,1.406-10.537,4.199C525.528,622.039,523.956,625.789,523.653,630.477
	L523.653,630.477z M574.142,662.469v-74.102h9.103v74.102H574.142z M60.841,828.895l9.551-0.801
	c0.713,4.648,2.354,8.146,4.932,10.488c2.578,2.343,5.684,3.496,9.326,3.496c4.375,0,8.086-1.642,11.113-4.941
	c3.037-3.301,4.551-7.694,4.551-13.145c0-5.195-1.455-9.277-4.365-12.285c-2.92-2.988-6.738-4.492-11.455-4.492
	c-2.93,0-5.576,0.664-7.93,1.992c-2.363,1.328-4.219,3.066-5.566,5.176l-8.535-1.113l7.178-38.047h36.846v8.691h-29.57
	l-3.994,19.902c4.443-3.086,9.111-4.648,14.004-4.648c6.465,0,11.924,2.246,16.377,6.738c4.443,4.473,6.67,10.233,6.67,17.285
	c0,6.698-1.953,12.5-5.869,17.383c-4.746,5.996-11.23,8.983-19.453,8.983c-6.738,0-12.246-1.875-16.504-5.645
	C63.878,840.125,61.446,835.125,60.841,828.895L60.841,828.895z M132.413,808.113c-3.779-1.367-6.572-3.34-8.398-5.898
	c-1.816-2.578-2.725-5.645-2.725-9.199c0-5.391,1.934-9.922,5.811-13.612c3.877-3.672,9.033-5.508,15.469-5.508
	c6.465,0,11.68,1.895,15.615,5.645c3.945,3.75,5.918,8.34,5.918,13.73c0,3.438-0.898,6.426-2.705,8.965s-4.541,4.512-8.213,5.879
	c4.551,1.483,8.008,3.887,10.391,7.188c2.373,3.302,3.555,7.246,3.555,11.816c0,6.348-2.236,11.66-6.719,15.977
	c-4.483,4.317-10.381,6.466-17.686,6.466c-7.314,0-13.213-2.148-17.695-6.484c-4.482-4.336-6.719-9.727-6.719-16.211
	c0-4.805,1.221-8.848,3.662-12.09C124.415,811.512,127.892,809.305,132.413,808.113L132.413,808.113z M127.657,826.922
	c0,2.599,0.615,5.099,1.846,7.539c1.23,2.422,3.057,4.297,5.488,5.625c2.422,1.328,5.029,1.992,7.832,1.992
	c4.346,0,7.93-1.387,10.762-4.18c2.832-2.813,4.248-6.367,4.248-10.664c0-4.396-1.455-8.008-4.375-10.879
	c-2.91-2.853-6.563-4.298-10.938-4.298c-4.277,0-7.832,1.427-10.645,4.259S127.657,822.684,127.657,826.922L127.657,826.922z
	 M130.587,792.703c0,3.516,1.133,6.367,3.389,8.594c2.256,2.228,5.186,3.34,8.799,3.34c3.506,0,6.377-1.112,8.613-3.319
	c2.246-2.207,3.359-4.902,3.359-8.105c0-3.34-1.152-6.133-3.457-8.418c-2.314-2.266-5.186-3.418-8.623-3.418
	c-3.467,0-6.348,1.113-8.643,3.34C131.739,786.941,130.587,789.598,130.587,792.703L130.587,792.703z M181.085,848.309v-10.37
	h10.361v10.37H181.085z M251.944,792.352l-9.043,0.703c-0.811-3.573-1.953-6.172-3.438-7.772c-2.461-2.599-5.498-3.906-9.102-3.906
	c-2.9,0-5.439,0.82-7.627,2.441c-2.871,2.09-5.127,5.137-6.777,9.141s-2.51,9.727-2.578,17.129c2.188-3.34,4.873-5.801,8.037-7.422
	s6.484-2.422,9.961-2.422c6.064,0,11.221,2.227,15.488,6.699c4.258,4.452,6.396,10.233,6.396,17.305
	c0,4.647-1.006,8.965-3.008,12.969c-2.012,3.984-4.766,7.051-8.262,9.16c-3.506,2.129-7.49,3.184-11.934,3.184
	c-7.578,0-13.77-2.772-18.545-8.358c-4.795-5.566-7.178-14.767-7.178-27.578c0-14.316,2.637-24.727,7.93-31.23
	c4.619-5.664,10.83-8.495,18.652-8.495c5.83,0,10.605,1.641,14.326,4.901C248.976,782.078,251.202,786.59,251.944,792.352
	L251.944,792.352z M214.796,824.285c-0.008,3.111,0.672,6.187,1.992,9.004c1.338,2.871,3.193,5.059,5.586,6.543
	c2.393,1.504,4.902,2.246,7.529,2.246c3.848,0,7.148-1.543,9.912-4.648c2.764-3.086,4.141-7.305,4.141-12.637
	c0-5.117-1.357-9.141-4.092-12.09c-2.725-2.949-6.162-4.435-10.313-4.435c-4.111,0-7.598,1.484-10.459,4.435
	C216.231,815.653,214.796,819.52,214.796,824.285L214.796,824.285z M263.683,831.16l8.74-0.801c0.742,4.121,2.158,7.09,4.248,8.944
	c2.09,1.855,4.766,2.773,8.037,2.773c2.793,0,5.244-0.625,7.354-1.914c2.109-1.271,3.828-2.988,5.176-5.137
	c1.348-2.13,2.48-5.021,3.389-8.652c0.91-3.642,1.369-7.38,1.367-11.133c0-0.392-0.02-0.996-0.049-1.816
	c-1.826,2.892-4.307,5.254-7.461,7.052c-3.111,1.793-6.643,2.73-10.234,2.715c-6.133,0-11.318-2.228-15.566-6.681
	c-4.248-4.452-6.367-10.313-6.367-17.598c0-7.5,2.217-13.555,6.65-18.146c4.424-4.569,9.98-6.875,16.65-6.875
	c4.814,0,9.229,1.31,13.213,3.906c3.994,2.599,7.031,6.289,9.102,11.094c2.071,4.806,3.105,11.738,3.105,20.841
	c0,9.473-1.025,17.012-3.076,22.616c-2.061,5.625-5.117,9.884-9.18,12.813s-8.818,4.396-14.277,4.396
	c-5.791,0-10.527-1.603-14.199-4.824C266.632,841.531,264.425,837,263.683,831.16L263.683,831.16z M300.929,798.465
	c0-5.215-1.387-9.375-4.17-12.44c-2.773-3.066-6.123-4.591-10.029-4.591c-4.043,0-7.568,1.66-10.566,4.961
	c-2.998,3.302-4.502,7.578-4.502,12.832c0,4.707,1.426,8.556,4.277,11.505c2.842,2.948,6.357,4.413,10.537,4.413
	c4.209,0,7.676-1.465,10.391-4.413C299.571,807.781,300.929,803.699,300.929,798.465L300.929,798.465z M319.933,828.738l9.102-1.211
	c1.045,5.155,2.822,8.867,5.332,11.151c2.51,2.267,5.566,3.398,9.17,3.398c4.277,0,7.891-1.465,10.84-4.435
	c2.949-2.969,4.424-6.641,4.424-11.016c0-4.18-1.357-7.637-4.092-10.352c-2.725-2.716-6.201-4.063-10.41-4.063
	c-1.719,0-3.857,0.332-6.416,1.017l1.006-7.988c0.486,0.055,0.975,0.087,1.465,0.098c3.877,0,7.363-1.016,10.469-3.026
	c3.096-2.031,4.648-5.138,4.648-9.355c0-3.34-1.133-6.094-3.389-8.281c-2.256-2.207-5.176-3.301-8.74-3.301
	c-3.545,0-6.494,1.113-8.848,3.34c-2.363,2.228-3.877,5.566-4.551,10.021l-9.102-1.621c1.113-6.094,3.643-10.82,7.588-14.18
	c3.936-3.359,8.838-5.039,14.707-5.039c4.043,0,7.764,0.879,11.172,2.616c3.398,1.738,6.006,4.103,7.803,7.091
	c1.807,3.008,2.705,6.19,2.705,9.551c0,3.203-0.859,6.113-2.578,8.75c-1.719,2.637-4.258,4.727-7.627,6.27
	c4.375,1.017,7.783,3.105,10.205,6.289c2.432,3.185,3.643,7.168,3.643,11.953c0,6.465-2.363,11.953-7.08,16.465
	c-4.717,4.492-10.684,6.738-17.891,6.738c-6.504,0-11.904-1.934-16.201-5.82C322.989,839.931,320.538,834.91,319.933,828.738
	L319.933,828.738z M334.015,449.963V265.076h36.318l75.674,123.467V265.076h34.679v184.888h-37.451l-74.542-120.565v120.565
	L334.015,449.963L334.015,449.963z M519.903,297.864v-32.788h35.438v32.788H519.903z M519.903,449.963V316.028h35.438v133.936
	L519.903,449.963L519.903,449.963z M860.372,109.182v7.588h-42.5c-0.07-1.871,0.242-3.737,0.918-5.483
	c1.084-2.896,2.813-5.747,5.195-8.555s5.83-6.055,10.332-9.736c6.991-5.732,11.709-10.273,14.17-13.623
	c2.45-3.35,3.682-6.514,3.682-9.497c0-3.13-1.113-5.767-3.35-7.915c-2.246-2.153-5.156-3.228-8.761-3.228
	c-3.799,0-6.836,1.143-9.12,3.423c-2.275,2.28-3.438,5.439-3.468,9.478l-8.114-0.835c0.557-6.055,2.646-10.669,6.278-13.843
	c3.623-3.169,8.486-4.756,14.601-4.756c6.172,0,11.055,1.709,14.657,5.132c3.595,3.423,5.392,7.661,5.392,12.72
	c0,2.573-0.527,5.104-1.572,7.588c-1.055,2.485-2.803,5.107-5.244,7.852c-2.44,2.749-6.504,6.523-12.178,11.318
	c-4.736,3.979-7.773,6.675-9.121,8.096c-1.348,1.416-2.461,2.842-3.34,4.277L860.372,109.182L860.372,109.182z M831.026,171.736
	c-3.271-1.201-5.703-2.91-7.285-5.132c-1.572-2.222-2.363-4.888-2.363-7.983c0-4.683,1.68-8.613,5.039-11.802
	c3.369-3.188,7.842-4.78,13.428-4.78c5.615,0,10.138,1.631,13.556,4.888c3.418,3.262,5.137,7.231,5.137,11.914
	c0,2.979-0.791,5.576-2.354,7.783c-1.563,2.207-3.936,3.911-7.129,5.112c3.955,1.284,6.953,3.364,9.015,6.226
	c2.069,2.871,3.096,6.289,3.096,10.269c0,5.498-1.943,10.117-5.83,13.862c-3.896,3.74-9.014,5.615-15.361,5.615
	c-6.338,0-11.455-1.88-15.352-5.64c-3.887-3.755-5.83-8.442-5.83-14.058c0-4.185,1.055-7.686,3.184-10.508
	C824.093,174.68,827.11,172.756,831.026,171.736z M826.905,188.054c0,2.251,0.526,4.429,1.602,6.533
	c1.064,2.109,2.656,3.74,4.756,4.893c2.081,1.149,4.421,1.746,6.797,1.733c3.779,0,6.896-1.211,9.347-3.643
	c2.461-2.427,3.69-5.513,3.69-9.253c0-3.804-1.27-6.948-3.799-9.434c-2.529-2.486-5.692-3.726-9.502-3.726
	c-3.711,0-6.787,1.226-9.229,3.682C828.125,181.295,826.905,184.368,826.905,188.054L826.905,188.054z M829.444,158.357
	c0,3.042,0.985,5.527,2.938,7.456c1.963,1.929,4.502,2.896,7.638,2.896c3.036,0,5.536-0.957,7.479-2.876
	c1.943-1.914,2.92-4.258,2.92-7.036c0-2.896-1.006-5.332-3.008-7.305c-2.002-1.978-4.502-2.964-7.48-2.964
	c-3.018,0-5.518,0.967-7.5,2.896C830.44,153.357,829.444,155.667,829.444,158.357L829.444,158.357z M798.645,296.448h-7.892V246.13
	c-1.904,1.816-4.395,3.628-7.479,5.439c-3.086,1.816-5.859,3.174-8.312,4.082v-7.632c4.414-2.075,8.271-4.59,11.582-7.544
	c3.301-2.954,5.646-5.82,7.012-8.599h5.089V296.448L798.645,296.448z M859.835,247.888l-7.852,0.615
	c-0.703-3.101-1.689-5.352-2.979-6.758c-2.139-2.251-4.766-3.379-7.9-3.379c-2.51,0-4.717,0.703-6.62,2.109
	c-2.49,1.812-4.443,4.458-5.88,7.939c-1.436,3.477-2.178,8.438-2.235,14.868c1.903-2.896,4.229-5.044,6.973-6.445
	c2.754-1.406,5.635-2.109,8.644-2.109c5.264,0,9.746,1.938,13.446,5.815c3.701,3.872,5.548,8.882,5.548,15.024
	c0,4.033-0.869,7.783-2.607,11.25c-1.738,3.467-4.131,6.118-7.178,7.964c-3.037,1.841-6.484,2.764-10.353,2.764
	c-6.582,0-11.942-2.422-16.094-7.261c-4.16-4.839-6.229-12.817-6.229-23.931c0-12.427,2.295-21.465,6.885-27.109
	c4.004-4.912,9.403-7.368,16.19-7.368c5.06,0,9.199,1.416,12.433,4.253C857.258,238.966,859.19,242.888,859.835,247.888
	L859.835,247.888z M827.599,275.613c0,2.72,0.576,5.322,1.729,7.808c1.153,2.486,2.772,4.38,4.854,5.679
	c2.07,1.304,4.248,1.953,6.533,1.953c3.33,0,6.201-1.343,8.594-4.038c2.402-2.69,3.604-6.343,3.604-10.967
	c0-4.443-1.191-7.944-3.555-10.503c-2.373-2.559-5.353-3.838-8.955-3.838c-3.564,0-6.593,1.279-9.072,3.838
	C828.839,268.103,827.599,271.458,827.599,275.613z M860.372,378.699v7.588h-42.5c-0.07-1.871,0.242-3.736,0.918-5.483
	c1.084-2.896,2.813-5.747,5.195-8.555s5.83-6.055,10.332-9.736c6.991-5.731,11.709-10.272,14.17-13.623
	c2.45-3.35,3.682-6.514,3.682-9.496c0-3.131-1.113-5.768-3.35-7.915c-2.246-2.153-5.156-3.229-8.761-3.229
	c-3.799,0-6.836,1.144-9.12,3.423c-2.275,2.28-3.438,5.439-3.468,9.479l-8.114-0.835c0.557-6.056,2.646-10.669,6.278-13.844
	c3.623-3.169,8.486-4.756,14.601-4.756c6.172,0,11.055,1.709,14.657,5.132c3.595,3.424,5.392,7.661,5.392,12.721
	c0,2.573-0.527,5.103-1.572,7.588c-1.055,2.485-2.803,5.106-5.244,7.852c-2.44,2.749-6.504,6.523-12.178,11.318
	c-4.736,3.979-7.773,6.675-9.121,8.096c-1.348,1.416-2.461,2.842-3.34,4.277L860.372,378.699L860.372,378.699z"/>
</svg>
