<?xml version="1.0" encoding="utf-8"?>
<!-- Generator: Adobe Illustrator 16.0.3, SVG Export Plug-In . SVG Version: 6.00 Build 0)  -->
<!DOCTYPE svg PUBLIC "-//W3C//DTD SVG 1.1//EN" "http://www.w3.org/Graphics/SVG/1.1/DTD/svg11.dtd">
<svg version="1.1" id="Layer_1" xmlns="http://www.w3.org/2000/svg" xmlns:xlink="http://www.w3.org/1999/xlink" x="0px" y="0px"
	 width="900px" height="900px" viewBox="0 0 900 900" enable-background="new 0 0 900 900" xml:space="preserve">
<path d="M113.355,150.251v13.301H38.854c-0.107-3.278,0.441-6.544,1.611-9.609c1.904-5.073,4.932-10.073,9.111-14.99
	c4.18-4.922,10.215-10.61,18.105-17.07c12.256-10.044,20.527-18.003,24.834-23.872c4.307-5.869,6.455-11.416,6.455-16.646
	c0-5.483-1.953-10.107-5.879-13.877c-3.916-3.765-9.033-5.649-15.332-5.649c-6.67,0-12.002,2.002-15.996,5.996
	c-3.994,3.999-6.025,9.536-6.074,16.606l-14.219-1.46c0.967-10.61,4.639-18.691,10.996-24.253
	c6.348-5.562,14.883-8.345,25.596-8.345c10.811,0,19.375,2.998,25.684,8.994c6.299,5.996,9.453,13.433,9.453,22.295
	c0,4.512-0.928,8.945-2.773,13.301c-1.836,4.36-4.902,8.945-9.18,13.765c-4.287,4.814-11.396,11.431-21.338,19.834
	c-8.301,6.973-13.633,11.699-15.986,14.185c-2.363,2.485-4.307,4.985-5.85,7.495L113.355,150.251L113.355,150.251z M130.27,137.488
	l13.301-1.23c1.123,6.255,3.271,10.791,6.455,13.608c3.174,2.822,7.256,4.229,12.227,4.229c4.248,0,7.979-0.972,11.182-2.92
	c3.203-1.948,5.83-4.546,7.881-7.803c2.051-3.257,3.77-7.651,5.156-13.184c1.377-5.532,2.073-11.212,2.07-16.914
	c0-0.615-0.029-1.538-0.078-2.769c-2.764,4.409-6.543,7.983-11.338,10.723c-4.795,2.744-9.98,4.116-15.566,4.116
	c-9.326,0-17.227-3.384-23.682-10.151c-6.455-6.763-9.688-15.684-9.688-26.753c0-11.431,3.369-20.63,10.107-27.598
	c6.738-6.973,15.186-10.459,25.332-10.459c7.334,0,14.033,1.973,20.107,5.923c6.074,3.945,10.684,9.57,13.838,16.875
	c3.154,7.3,4.727,17.871,4.727,31.709c0,14.404-1.563,25.874-4.688,34.404c-3.125,8.535-7.773,15.034-13.955,19.492
	c-6.172,4.458-13.418,6.689-21.719,6.689c-8.818,0-16.016-2.451-21.602-7.344C134.751,153.238,131.393,146.36,130.27,137.488z
	 M186.93,87.747c0-7.944-2.119-14.248-6.348-18.911s-9.316-6.997-15.254-6.997c-6.152,0-11.514,2.515-16.074,7.534
	c-4.561,5.024-6.836,11.533-6.836,19.526c0,7.178,2.158,13.008,6.494,17.49c4.326,4.487,9.668,6.729,16.025,6.729
	c6.406,0,11.68-2.241,15.801-6.729C184.859,101.907,186.93,95.691,186.93,87.747z M340.699,636.473l9.805,2.48
	c-2.061,8.047-5.752,14.199-11.094,18.418c-5.342,4.238-11.875,6.348-19.59,6.348c-7.988,0-14.482-1.621-19.482-4.883
	c-5.01-3.242-8.818-7.949-11.426-14.121s-3.916-12.793-3.916-19.863c0-7.715,1.475-14.452,4.424-20.194
	c2.949-5.742,7.139-10.117,12.588-13.086c5.439-2.988,11.426-4.474,17.969-4.474c7.412,0,13.643,1.875,18.701,5.664
	c5.049,3.771,8.574,9.082,10.557,15.918l-9.648,2.267c-1.719-5.392-4.219-9.316-7.48-11.777c-3.271-2.461-7.383-3.69-12.334-3.69
	c-5.693,0-10.459,1.366-14.277,4.102c-3.828,2.734-6.514,6.387-8.066,10.996c-1.549,4.58-2.334,9.384-2.324,14.219
	c0,6.31,0.918,11.816,2.754,16.504c1.836,4.707,4.697,8.224,8.564,10.547c3.877,2.324,8.076,3.478,12.588,3.478
	c5.498,0,10.146-1.582,13.955-4.746C336.776,647.413,339.352,642.703,340.699,636.473L340.699,636.473z M358.033,635.613
	c0-9.941,2.764-17.306,8.291-22.09c4.609-3.966,10.244-5.957,16.885-5.957c7.373,0,13.408,2.422,18.086,7.246
	c4.688,4.844,7.031,11.522,7.031,20.038c0,6.914-1.035,12.345-3.105,16.31c-2.08,3.965-5.088,7.031-9.053,9.219
	c-3.955,2.188-8.281,3.281-12.959,3.281c-7.52,0-13.594-2.402-18.223-7.228C360.348,651.629,358.033,644.676,358.033,635.613
	L358.033,635.613z M367.379,635.613c0,6.875,1.504,12.031,4.502,15.449s6.777,5.116,11.328,5.116c4.512,0,8.271-1.719,11.27-5.155
	c3-3.438,4.492-8.673,4.492-15.703c0-6.642-1.504-11.681-4.521-15.099c-3.017-3.418-6.768-5.137-11.24-5.137
	c-4.551,0-8.33,1.719-11.328,5.117C368.884,623.6,367.379,628.738,367.379,635.613L367.379,635.613z M418.99,683.035v-74.258h8.291
	v6.973c1.953-2.734,4.16-4.785,6.621-6.133c2.451-1.367,5.438-2.051,8.944-2.051c4.58,0,8.623,1.172,12.129,3.534
	c3.507,2.363,6.152,5.685,7.939,9.98c1.777,4.297,2.676,9.004,2.676,14.121c0,5.508-0.985,10.449-2.959,14.844
	c-1.973,4.396-4.834,7.773-8.594,10.117c-3.76,2.324-7.705,3.496-11.855,3.496c-3.026,0-5.752-0.625-8.153-1.914
	c-2.412-1.289-4.396-2.892-5.947-4.844v26.133L418.99,683.035L418.99,683.035z M427.223,635.926c0,6.896,1.406,12.013,4.199,15.313
	s6.182,4.94,10.156,4.94c4.043,0,7.51-1.698,10.391-5.117c2.881-3.418,4.316-8.729,4.316-15.897c0-6.836-1.406-11.973-4.219-15.371
	c-2.813-3.397-6.172-5.098-10.078-5.098c-3.877,0-7.306,1.797-10.293,5.43C428.717,623.738,427.223,629.012,427.223,635.926
	L427.223,635.926z M476.559,683.035v-74.258h8.291v6.973c1.953-2.734,4.16-4.785,6.621-6.133c2.451-1.367,5.439-2.051,8.945-2.051
	c4.58,0,8.623,1.172,12.129,3.534c3.506,2.363,6.152,5.685,7.939,9.98c1.776,4.297,2.676,9.004,2.676,14.121
	c0,5.508-0.986,10.449-2.959,14.844c-1.973,4.396-4.834,7.773-8.594,10.117c-3.761,2.324-7.705,3.496-11.855,3.496
	c-3.027,0-5.752-0.625-8.154-1.914c-2.411-1.289-4.395-2.892-5.946-4.844v26.133L476.559,683.035L476.559,683.035z M484.791,635.926
	c0,6.896,1.406,12.013,4.199,15.313s6.182,4.94,10.156,4.94c4.043,0,7.51-1.698,10.391-5.117c2.881-3.418,4.316-8.729,4.316-15.897
	c0-6.836-1.406-11.973-4.22-15.371c-2.813-3.397-6.172-5.098-10.078-5.098c-3.877,0-7.305,1.797-10.293,5.43
	C486.285,623.738,484.791,629.012,484.791,635.926L484.791,635.926z M570.885,645.164l9.396,1.172
	c-1.484,5.488-4.229,9.746-8.232,12.773c-4.014,3.047-9.141,4.551-15.371,4.551c-7.852,0-14.071-2.402-18.672-7.246
	c-4.6-4.844-6.903-11.621-6.903-20.352c0-9.023,2.323-16.035,6.973-21.017c4.658-5,10.684-7.479,18.096-7.479
	c7.178,0,13.047,2.44,17.599,7.323c4.541,4.884,6.815,11.759,6.815,20.625c0,0.548-0.01,1.349-0.049,2.423h-40.029
	c0.332,5.897,2.002,10.409,5,13.555c2.998,3.125,6.738,4.688,11.222,4.688c3.34,0,6.182-0.858,8.545-2.616
	C567.635,651.805,569.498,649.012,570.885,645.164L570.885,645.164z M541.012,630.457h29.972c-0.41-4.512-1.554-7.891-3.438-10.156
	c-2.9-3.496-6.66-5.254-11.27-5.254c-4.181,0-7.695,1.387-10.537,4.199C542.887,622.039,541.314,625.77,541.012,630.457
	L541.012,630.457z M591.598,662.449v-53.672h8.193v8.145c2.09-3.809,4.014-6.328,5.781-7.539c1.776-1.211,3.721-1.815,5.84-1.815
	c3.066,0,6.182,0.977,9.354,2.93l-3.135,8.438c-2.227-1.31-4.453-1.974-6.67-1.974c-1.992,0-3.779,0.605-5.361,1.797
	c-1.582,1.192-2.715,2.853-3.389,4.98c-1.006,3.242-1.514,6.776-1.514,10.604v28.105H591.598L591.598,662.449z M108.053,792.352
	l-9.043,0.703c-0.811-3.573-1.953-6.172-3.438-7.772c-2.461-2.599-5.498-3.906-9.102-3.906c-2.9,0-5.439,0.82-7.627,2.441
	c-2.871,2.09-5.127,5.137-6.777,9.141s-2.51,9.727-2.578,17.129c2.188-3.34,4.873-5.801,8.037-7.422s6.484-2.422,9.961-2.422
	c6.064,0,11.221,2.227,15.488,6.699c4.258,4.452,6.396,10.233,6.396,17.305c0,4.647-1.006,8.965-3.008,12.969
	c-2.012,3.984-4.766,7.051-8.262,9.16c-3.506,2.129-7.49,3.184-11.934,3.184c-7.578,0-13.77-2.772-18.545-8.358
	c-4.795-5.566-7.178-14.767-7.178-27.578c0-14.316,2.637-24.728,7.93-31.23c4.619-5.664,10.83-8.496,18.652-8.496
	c5.83,0,10.605,1.642,14.326,4.902C105.084,782.078,107.311,786.59,108.053,792.352L108.053,792.352z M70.904,824.285
	c-0.008,3.111,0.672,6.187,1.992,9.004c1.338,2.871,3.193,5.059,5.586,6.543c2.393,1.504,4.902,2.246,7.529,2.246
	c3.848,0,7.148-1.543,9.912-4.648c2.764-3.086,4.141-7.305,4.141-12.637c0-5.117-1.357-9.141-4.092-12.09
	c-2.725-2.949-6.162-4.435-10.313-4.435c-4.111,0-7.598,1.484-10.459,4.435C72.339,815.653,70.904,819.52,70.904,824.285
	L70.904,824.285z M118.463,828.738l9.102-1.211c1.045,5.155,2.822,8.866,5.332,11.151c2.51,2.267,5.566,3.398,9.17,3.398
	c4.277,0,7.891-1.465,10.84-4.435c2.949-2.969,4.424-6.641,4.424-11.016c0-4.18-1.357-7.637-4.092-10.352
	c-2.725-2.716-6.201-4.063-10.41-4.063c-1.719,0-3.857,0.332-6.416,1.016l1.006-7.987c0.487,0.055,0.976,0.087,1.465,0.098
	c3.877,0,7.363-1.016,10.469-3.027c3.096-2.03,4.648-5.137,4.648-9.354c0-3.34-1.133-6.094-3.389-8.281
	c-2.256-2.207-5.176-3.301-8.74-3.301c-3.545,0-6.494,1.113-8.848,3.34c-2.363,2.228-3.877,5.566-4.551,10.021l-9.102-1.621
	c1.113-6.094,3.643-10.82,7.588-14.18c3.936-3.359,8.838-5.039,14.707-5.039c4.043,0,7.764,0.879,11.172,2.616
	c3.398,1.738,6.006,4.103,7.803,7.091c1.807,3.008,2.705,6.19,2.705,9.551c0,3.203-0.859,6.113-2.578,8.75
	c-1.719,2.637-4.258,4.727-7.627,6.27c4.375,1.017,7.783,3.105,10.205,6.289c2.432,3.185,3.643,7.168,3.643,11.953
	c0,6.465-2.363,11.953-7.08,16.465c-4.717,4.492-10.684,6.738-17.891,6.738c-6.504,0-11.904-1.934-16.201-5.82
	C121.52,839.93,119.068,834.91,118.463,828.738L118.463,828.738z M181.09,848.309v-10.371h10.361v10.371H181.09z M204.742,828.895
	l9.551-0.801c0.713,4.648,2.354,8.146,4.932,10.488s5.684,3.496,9.326,3.496c4.375,0,8.086-1.642,11.113-4.941
	c3.037-3.301,4.551-7.695,4.551-13.145c0-5.195-1.455-9.277-4.365-12.285c-2.92-2.988-6.738-4.492-11.455-4.492
	c-2.93,0-5.576,0.664-7.93,1.992c-2.363,1.328-4.219,3.065-5.566,5.176l-8.535-1.113l7.178-38.047h36.846v8.691h-29.57
	l-3.994,19.902c4.443-3.087,9.111-4.648,14.004-4.648c6.465,0,11.924,2.246,16.377,6.738c4.443,4.473,6.67,10.233,6.67,17.284
	c0,6.699-1.953,12.5-5.869,17.384c-4.746,5.996-11.23,8.983-19.453,8.983c-6.738,0-12.246-1.875-16.504-5.645
	C207.779,840.125,205.348,835.125,204.742,828.895L204.742,828.895z M291.48,848.309v-17.754h-32.139v-8.34l33.809-48.008h7.432
	v48.008h10.01v8.34h-10.01v17.754H291.48z M291.48,822.215v-33.397l-23.193,33.397H291.48z M367.096,792.352l-9.043,0.703
	c-0.811-3.573-1.953-6.172-3.438-7.772c-2.461-2.599-5.498-3.906-9.102-3.906c-2.9,0-5.439,0.82-7.627,2.441
	c-2.871,2.09-5.127,5.137-6.777,9.141s-2.51,9.727-2.578,17.129c2.188-3.34,4.873-5.801,8.037-7.422s6.484-2.422,9.961-2.422
	c6.064,0,11.221,2.227,15.488,6.699c4.258,4.452,6.396,10.233,6.396,17.305c0,4.647-1.006,8.965-3.008,12.969
	c-2.012,3.984-4.766,7.051-8.262,9.16c-3.506,2.129-7.49,3.184-11.934,3.184c-7.578,0-13.77-2.772-18.545-8.358
	c-4.795-5.566-7.178-14.767-7.178-27.578c0-14.316,2.637-24.728,7.93-31.23c4.619-5.664,10.83-8.496,18.652-8.496
	c5.83,0,10.605,1.642,14.326,4.902C364.127,782.078,366.354,786.59,367.096,792.352L367.096,792.352z M329.947,824.285
	c-0.008,3.111,0.672,6.187,1.992,9.004c1.338,2.871,3.193,5.059,5.586,6.543c2.393,1.504,4.902,2.246,7.529,2.246
	c3.848,0,7.148-1.543,9.912-4.648c2.764-3.086,4.141-7.305,4.141-12.637c0-5.117-1.357-9.141-4.092-12.09
	c-2.725-2.949-6.162-4.435-10.313-4.435c-4.111,0-7.598,1.484-10.459,4.435C331.382,815.653,329.947,819.52,329.947,824.285
	L329.947,824.285z M408.941,381.995l36.19,11.479c-5.547,20.177-14.774,35.166-27.676,44.961
	c-12.91,9.796-29.287,14.692-49.121,14.692c-24.561,0-44.736-8.388-60.537-25.161c-15.811-16.771-23.711-39.707-23.711-68.799
	c0-30.771,7.939-54.673,23.838-71.694c15.889-17.026,36.777-25.542,62.676-25.542c22.617,0,40.986,6.685,55.117,20.054
	c8.398,7.905,14.707,19.253,18.916,34.053l-36.953,8.828c-2.188-9.585-6.747-17.153-13.682-22.7
	c-6.943-5.552-15.371-8.325-25.293-8.325c-13.701,0-24.824,4.917-33.359,14.756c-8.535,9.839-12.793,25.771-12.793,47.798
	c0,23.374,4.199,40.024,12.607,49.941c8.408,9.922,19.336,14.883,32.793,14.883c9.922,0,18.457-3.154,25.596-9.458
	C400.699,405.452,405.826,395.535,408.941,381.995L408.941,381.995z M565.074,449.973v-20.054
	c-4.883,7.148-11.289,12.783-19.238,16.899c-7.938,4.12-16.328,6.181-25.156,6.181c-9.004,0-17.069-1.978-24.219-5.927
	c-7.147-3.95-12.313-9.502-15.508-16.646c-3.203-7.147-4.795-17.025-4.795-29.639v-84.751h35.438v61.543
	c0,18.838,0.646,30.376,1.953,34.619c1.299,4.248,3.683,7.611,7.129,10.093c3.447,2.48,7.813,3.721,13.115,3.721
	c6.055,0,11.476-1.66,16.271-4.984c4.795-3.32,8.065-7.441,9.834-12.358c1.768-4.917,2.646-16.963,2.646-36.133v-56.499h35.439
	v133.936H565.074L565.074,449.973z M860.367,109.182v7.588h-42.5c-0.07-1.871,0.242-3.737,0.918-5.483
	c1.084-2.896,2.813-5.747,5.195-8.555c2.382-2.808,5.83-6.055,10.332-9.736c6.991-5.732,11.709-10.273,14.17-13.623
	c2.45-3.35,3.682-6.514,3.682-9.497c0-3.13-1.113-5.767-3.35-7.915c-2.246-2.153-5.156-3.228-8.761-3.228
	c-3.799,0-6.836,1.143-9.12,3.423c-2.275,2.28-3.438,5.439-3.468,9.478l-8.114-0.835c0.557-6.055,2.646-10.669,6.278-13.843
	c3.623-3.169,8.486-4.756,14.601-4.756c6.172,0,11.055,1.709,14.657,5.132c3.595,3.423,5.392,7.661,5.392,12.72
	c0,2.573-0.527,5.103-1.572,7.588c-1.055,2.485-2.803,5.107-5.244,7.852c-2.44,2.749-6.504,6.523-12.178,11.318
	c-4.736,3.979-7.773,6.675-9.121,8.096c-1.348,1.416-2.461,2.842-3.34,4.277L860.367,109.182L860.367,109.182z M831.021,171.736
	c-3.271-1.201-5.703-2.91-7.285-5.132c-1.572-2.222-2.363-4.888-2.363-7.983c0-4.683,1.68-8.613,5.039-11.802
	c3.369-3.188,7.842-4.78,13.428-4.78c5.615,0,10.138,1.631,13.556,4.888c3.418,3.262,5.137,7.231,5.137,11.914
	c0,2.979-0.791,5.576-2.354,7.783c-1.563,2.207-3.936,3.911-7.129,5.112c3.955,1.284,6.953,3.364,9.015,6.226
	c2.069,2.871,3.096,6.289,3.096,10.269c0,5.498-1.943,10.117-5.83,13.862c-3.896,3.74-9.014,5.615-15.361,5.615
	c-6.338,0-11.455-1.88-15.352-5.64c-3.888-3.755-5.83-8.442-5.83-14.058c0-4.185,1.055-7.686,3.184-10.508
	C824.088,174.68,827.105,172.756,831.021,171.736z M826.9,188.054c0,2.251,0.526,4.429,1.602,6.533
	c1.064,2.109,2.656,3.74,4.756,4.893c2.081,1.149,4.421,1.746,6.797,1.733c3.779,0,6.896-1.211,9.347-3.643
	c2.461-2.427,3.69-5.513,3.69-9.253c0-3.804-1.27-6.948-3.799-9.434c-2.529-2.486-5.693-3.726-9.502-3.726
	c-3.711,0-6.787,1.226-9.229,3.682C828.12,181.295,826.9,184.368,826.9,188.054L826.9,188.054z M829.439,158.357
	c0,3.042,0.985,5.527,2.938,7.456c1.963,1.929,4.502,2.896,7.638,2.896c3.036,0,5.536-0.957,7.479-2.876
	c1.943-1.914,2.92-4.258,2.92-7.036c0-2.896-1.006-5.332-3.008-7.305c-2.002-1.978-4.502-2.964-7.48-2.964
	c-3.018,0-5.518,0.967-7.5,2.896C830.437,153.357,829.439,155.667,829.439,158.357L829.439,158.357z M798.639,296.448h-7.891V246.13
	c-1.904,1.816-4.395,3.628-7.479,5.439c-3.087,1.816-5.859,3.174-8.312,4.082v-7.632c4.414-2.075,8.271-4.59,11.582-7.544
	c3.301-2.954,5.646-5.82,7.012-8.599h5.088V296.448L798.639,296.448z M831.012,261.575c-3.271-1.201-5.703-2.91-7.284-5.132
	c-1.572-2.222-2.363-4.888-2.363-7.983c0-4.683,1.68-8.613,5.039-11.802c3.369-3.188,7.842-4.78,13.428-4.78
	c5.615,0,10.137,1.631,13.555,4.888c3.418,3.262,5.138,7.231,5.138,11.914c0,2.979-0.791,5.576-2.354,7.783
	c-1.563,2.207-3.936,3.911-7.129,5.112c3.955,1.284,6.953,3.364,9.014,6.226c2.07,2.871,3.097,6.289,3.097,10.269
	c0,5.498-1.943,10.117-5.83,13.862c-3.896,3.74-9.015,5.615-15.361,5.615c-6.338,0-11.455-1.88-15.352-5.64
	c-3.888-3.755-5.83-8.442-5.83-14.058c0-4.185,1.055-7.686,3.184-10.508C824.078,264.519,827.096,262.595,831.012,261.575z
	 M826.891,277.893c0,2.251,0.527,4.429,1.603,6.533c1.063,2.109,2.656,3.74,4.756,4.893c2.08,1.149,4.421,1.746,6.797,1.733
	c3.779,0,6.896-1.211,9.347-3.643c2.461-2.427,3.69-5.513,3.69-9.253c0-3.804-1.27-6.948-3.799-9.434
	c-2.529-2.486-5.693-3.726-9.502-3.726c-3.711,0-6.787,1.226-9.229,3.682C828.111,271.134,826.891,274.207,826.891,277.893
	L826.891,277.893z M829.43,248.196c0,3.042,0.986,5.527,2.939,7.456c1.963,1.929,4.502,2.896,7.637,2.896
	c3.037,0,5.537-0.957,7.48-2.876c1.942-1.914,2.92-4.258,2.92-7.036c0-2.896-1.006-5.332-3.008-7.305
	c-2.002-1.978-4.502-2.964-7.48-2.964c-3.018,0-5.518,0.967-7.5,2.896C830.426,243.196,829.43,245.505,829.43,248.196
	L829.43,248.196z M848.609,386.287h-7.892V335.97c-1.903,1.816-4.395,3.628-7.479,5.439c-3.086,1.815-5.859,3.174-8.312,4.082
	v-7.632c4.414-2.075,8.271-4.591,11.582-7.544c3.302-2.954,5.646-5.82,7.013-8.6h5.088V386.287L848.609,386.287z"/>
</svg>
