<?xml version="1.0" encoding="utf-8"?>
<!-- Generator: Adobe Illustrator 16.0.3, SVG Export Plug-In . SVG Version: 6.00 Build 0)  -->
<!DOCTYPE svg PUBLIC "-//W3C//DTD SVG 1.1//EN" "http://www.w3.org/Graphics/SVG/1.1/DTD/svg11.dtd">
<svg version="1.1" id="Layer_1" xmlns="http://www.w3.org/2000/svg" xmlns:xlink="http://www.w3.org/1999/xlink" x="0px" y="0px"
	 width="900px" height="900px" viewBox="0 0 900 900" enable-background="new 0 0 900 900" xml:space="preserve">
<path d="M38.316,135.001l13.838-1.846c1.592,7.842,4.297,13.491,8.115,16.953c3.818,3.457,8.467,5.186,13.955,5.186
	c6.504,0,12.002-2.251,16.484-6.763c4.482-4.512,6.729-10.098,6.729-16.763c0-6.353-2.08-11.592-6.23-15.723
	c-4.15-4.121-9.424-6.187-15.83-6.187c-2.617,0-5.869,0.513-9.766,1.538l1.533-12.148c0.928,0.103,1.67,0.156,2.236,0.156
	c5.889,0,11.191-1.538,15.908-4.614c4.717-3.076,7.07-7.817,7.07-14.224c0-5.073-1.709-9.277-5.146-12.607s-7.871-5-13.301-5
	c-5.381,0-9.863,1.694-13.457,5.078c-3.584,3.379-5.889,8.457-6.914,15.22l-13.838-2.461c1.689-9.272,5.537-16.465,11.533-21.563
	c5.996-5.103,13.447-7.651,22.373-7.651c6.143,0,11.807,1.323,16.982,3.96c5.176,2.642,9.141,6.24,11.885,10.801
	c2.734,4.565,4.111,9.409,4.111,14.531c0,4.868-1.309,9.302-3.926,13.301c-2.607,3.999-6.484,7.178-11.602,9.531
	c6.66,1.538,11.836,4.731,15.527,9.575c3.691,4.844,5.537,10.903,5.537,18.179c0,9.844-3.594,18.184-10.762,25.024
	c-7.178,6.846-16.25,10.264-27.217,10.264c-9.893,0-18.105-2.944-24.648-8.838C42.965,152.018,39.244,144.381,38.316,135.001
	L38.316,135.001z M287.936,663.648v-74.093h9.805v65.353h36.494v8.74H287.936L287.936,663.648z M344.801,600.016v-10.459h9.102
	v10.459H344.801z M344.801,663.648v-53.673h9.102v53.673H344.801z M387.613,655.514l1.309,8.037
	c-2.559,0.547-4.844,0.812-6.875,0.812c-3.301,0-5.859-0.519-7.676-1.572c-1.826-1.035-3.105-2.412-3.848-4.121
	c-0.742-1.699-1.104-5.273-1.104-10.732v-30.889h-6.68v-7.07h6.68v-13.301l9.043-5.449v18.75h9.15v7.07h-9.15v31.387
	c0,2.599,0.156,4.269,0.479,5.011c0.323,0.742,0.84,1.338,1.572,1.768c0.723,0.439,1.758,0.664,3.105,0.664
	C384.625,655.875,385.963,655.758,387.613,655.514L387.613,655.514z M396.51,663.648v-74.093h9.092v26.582
	c4.248-4.912,9.609-7.373,16.074-7.373c3.976,0,7.433,0.781,10.361,2.345c2.938,1.563,5.029,3.729,6.299,6.504
	c1.26,2.754,1.896,6.768,1.896,12.021v34.015h-9.103v-34.015c0-4.541-0.986-7.86-2.959-9.932c-1.963-2.07-4.756-3.105-8.359-3.105
	c-2.694,0-5.233,0.703-7.606,2.091c-2.373,1.405-4.072,3.301-5.078,5.692c-1.016,2.394-1.523,5.693-1.523,9.912v29.354h-9.093
	V663.648z M454.127,600.016v-10.459h9.102v10.459H454.127z M454.127,663.648v-53.673h9.102v53.673H454.127z M512.252,663.648v-7.882
	c-4.18,6.064-9.854,9.093-17.031,9.093c-3.174,0-6.123-0.605-8.877-1.816c-2.744-1.211-4.785-2.734-6.113-4.57
	c-1.327-1.836-2.266-4.082-2.803-6.748c-0.371-1.787-0.557-4.619-0.557-8.485v-33.263h9.102v29.767c0,4.756,0.187,7.948,0.558,9.608
	c0.565,2.394,1.776,4.269,3.633,5.636c1.854,1.356,4.149,2.041,6.875,2.041c2.733,0,5.293-0.693,7.686-2.091
	c2.394-1.405,4.082-3.301,5.078-5.713s1.494-5.908,1.494-10.487v-28.761h9.092v53.672H512.252L512.252,663.648z M534.654,663.648
	v-53.673h8.135v7.529c1.689-2.627,3.926-4.736,6.719-6.338c2.803-1.603,5.986-2.402,9.562-2.402c3.975,0,7.235,0.82,9.774,2.472
	c2.549,1.649,4.336,3.955,5.381,6.924c4.248-6.271,9.775-9.396,16.582-9.396c5.322,0,9.414,1.466,12.285,4.414
	c2.861,2.949,4.297,7.5,4.297,13.633v36.837h-9.053V629.84c0-3.643-0.293-6.26-0.879-7.861c-0.596-1.602-1.66-2.891-3.213-3.866
	c-1.553-0.977-3.369-1.466-5.459-1.466c-3.771,0-6.904,1.261-9.404,3.761c-2.49,2.52-3.74,6.533-3.74,12.061v31.183h-9.092v-34.873
	c0-4.043-0.742-7.08-2.227-9.093c-1.484-2.03-3.906-3.036-7.275-3.036c-2.568,0-4.932,0.674-7.109,2.021
	c-2.168,1.348-3.739,3.32-4.727,5.918c-0.977,2.599-1.465,6.328-1.465,11.211v27.853h-9.092V663.648z M105.66,793.551l-9.043,0.703
	c-0.811-3.574-1.953-6.172-3.438-7.783c-2.461-2.598-5.498-3.896-9.102-3.896c-2.9,0-5.439,0.811-7.627,2.422
	c-2.871,2.09-5.127,5.146-6.777,9.16c-1.65,4.004-2.51,9.717-2.578,17.129c2.188-3.34,4.873-5.812,8.037-7.422
	c3.164-1.621,6.484-2.433,9.961-2.433c6.064,0,11.221,2.236,15.488,6.689c4.258,4.473,6.396,10.234,6.396,17.324
	c0,4.647-1.006,8.965-3.008,12.959c-2.012,3.994-4.766,7.051-8.262,9.17c-3.506,2.129-7.49,3.184-11.934,3.184
	c-7.578,0-13.77-2.783-18.545-8.358c-4.795-5.576-7.178-14.767-7.178-27.578c0-14.316,2.637-24.728,7.93-31.23
	c4.619-5.664,10.83-8.496,18.652-8.496c5.83,0,10.605,1.642,14.326,4.902C102.691,783.268,104.918,787.789,105.66,793.551z
	 M68.512,825.484c0,3.145,0.664,6.133,1.992,9.004c1.338,2.86,3.193,5.039,5.586,6.543s4.902,2.246,7.529,2.246
	c3.848,0,7.148-1.543,9.912-4.648c2.764-3.096,4.141-7.305,4.141-12.637c0-5.117-1.357-9.16-4.092-12.109
	c-2.725-2.938-6.162-4.414-10.313-4.414c-4.111,0-7.598,1.476-10.459,4.414C69.947,816.832,68.512,820.699,68.512,825.484
	L68.512,825.484z M121.129,849.498v-10.361h10.361v10.361H121.129L121.129,849.498z M146.148,832.359l8.74-0.802
	c0.742,4.103,2.158,7.091,4.248,8.945c2.09,1.855,4.766,2.773,8.037,2.773c2.793,0,5.244-0.636,7.354-1.914
	c2.109-1.289,3.828-2.988,5.176-5.138c1.348-2.129,2.48-5.02,3.389-8.672c0.91-3.634,1.369-7.366,1.367-11.112
	c0-0.41-0.02-1.017-0.049-1.816c-1.826,2.891-4.307,5.244-7.461,7.051c-3.145,1.797-6.563,2.695-10.234,2.695
	c-6.133,0-11.318-2.217-15.566-6.66c-4.248-4.453-6.367-10.313-6.367-17.598c0-7.511,2.217-13.556,6.65-18.146
	c4.424-4.58,9.98-6.875,16.65-6.875c4.814,0,9.229,1.299,13.213,3.896c3.994,2.588,7.031,6.289,9.102,11.094
	c2.07,4.795,3.105,11.748,3.105,20.85c0,9.474-1.025,17.013-3.076,22.617c-2.061,5.605-5.117,9.883-9.18,12.813
	c-4.063,2.93-8.818,4.395-14.277,4.395c-5.791,0-10.527-1.602-14.199-4.824C149.098,842.711,146.891,838.199,146.148,832.359
	L146.148,832.359z M183.395,799.664c0-5.225-1.387-9.375-4.17-12.441c-2.773-3.065-6.123-4.59-10.029-4.59
	c-4.043,0-7.568,1.642-10.566,4.941c-2.998,3.311-4.502,7.588-4.502,12.852c0,4.707,1.426,8.545,4.277,11.494
	c2.842,2.949,6.357,4.424,10.537,4.424c4.209,0,7.676-1.475,10.391-4.424C182.037,808.971,183.395,804.879,183.395,799.664z
	 M231.51,849.498v-17.744h-32.139v-8.34l33.809-48.008h7.432v48.008h10.01v8.34h-10.01v17.744H231.51z M231.51,823.414v-33.408
	l-23.193,33.408H231.51z M294.195,849.498h-9.102V791.52c-2.188,2.091-5.059,4.181-8.613,6.271s-6.748,3.652-9.58,4.707v-8.799
	c5.088-2.394,9.541-5.293,13.35-8.701c3.799-3.398,6.504-6.699,8.086-9.902h5.859L294.195,849.498L294.195,849.498z
	 M366.314,451.168V267.789h37.324v152.222h92.822v31.157H366.314L366.314,451.168z M522.818,299.063v-32.788h35.438v32.788H522.818z
	 M522.818,451.168v-133.94h35.438v133.94H522.818z M857.975,110.357v7.588h-42.5c-0.069-1.871,0.243-3.737,0.918-5.483
	c1.084-2.896,2.813-5.747,5.195-8.555c2.382-2.808,5.83-6.055,10.332-9.736c6.992-5.732,11.709-10.273,14.17-13.623
	c2.451-3.35,3.682-6.514,3.682-9.497c0-3.13-1.112-5.767-3.35-7.915c-2.246-2.153-5.156-3.228-8.76-3.228
	c-3.799,0-6.836,1.143-9.121,3.423c-2.275,2.28-3.438,5.439-3.467,9.478l-8.115-0.835c0.557-6.055,2.646-10.669,6.279-13.843
	c3.623-3.169,8.485-4.756,14.6-4.756c6.172,0,11.055,1.709,14.658,5.132c3.594,3.423,5.391,7.661,5.391,12.72
	c0,2.573-0.526,5.103-1.571,7.588c-1.056,2.485-2.804,5.107-5.244,7.852c-2.441,2.749-6.504,6.523-12.179,11.318
	c-4.735,3.979-7.772,6.675-9.12,8.096c-1.349,1.416-2.462,2.842-3.341,4.277L857.975,110.357L857.975,110.357z M846.217,207.784
	h-7.891v-50.317c-1.904,1.816-4.396,3.628-7.48,5.439c-3.086,1.816-5.858,3.174-8.311,4.082v-7.632
	c4.414-2.075,8.271-4.59,11.582-7.544c3.301-2.954,5.645-5.82,7.012-8.599h5.088V207.784L846.217,207.784z"/>
</svg>
