<?xml version="1.0" encoding="utf-8"?>
<!-- Generator: Adobe Illustrator 16.0.3, SVG Export Plug-In . SVG Version: 6.00 Build 0)  -->
<!DOCTYPE svg PUBLIC "-//W3C//DTD SVG 1.1//EN" "http://www.w3.org/Graphics/SVG/1.1/DTD/svg11.dtd">
<svg version="1.1" id="Layer_1" xmlns="http://www.w3.org/2000/svg" xmlns:xlink="http://www.w3.org/1999/xlink" x="0px" y="0px"
	 width="900px" height="900px" viewBox="0 0 900 900" enable-background="new 0 0 900 900" xml:space="preserve">
<path fill="#010101" d="M39.768,133.795l13.838-1.851c1.593,7.842,4.303,13.491,8.12,16.953c3.823,3.457,8.473,5.19,13.96,5.19
	c6.499,0,12.002-2.251,16.479-6.763c4.481-4.507,6.732-10.098,6.732-16.758c0-6.353-2.08-11.592-6.229-15.723
	c-4.15-4.116-9.419-6.187-15.83-6.187c-2.622,0-5.869,0.508-9.771,1.538l1.528-12.148c0.934,0.098,1.67,0.146,2.231,0.146
	c5.889,0,11.19-1.538,15.907-4.609c4.723-3.071,7.07-7.817,7.07-14.219c0-5.068-1.709-9.282-5.146-12.612
	c-3.442-3.33-7.871-5-13.302-5c-5.381,0-9.862,1.689-13.462,5.083c-3.568,3.369-5.879,8.452-6.898,15.22l-13.838-2.471
	c1.688-9.268,5.537-16.46,11.527-21.563c6.001-5.098,13.452-7.646,22.368-7.646c6.144,0,11.813,1.318,16.982,3.96
	c5.181,2.642,9.141,6.24,11.88,10.801c2.729,4.565,4.111,9.409,4.111,14.526c0,4.873-1.313,9.302-3.932,13.301
	c-2.612,4.004-6.479,7.183-11.602,9.531c6.66,1.543,11.841,4.729,15.532,9.58c3.687,4.849,5.536,10.898,5.536,18.179
	c0,9.839-3.589,18.179-10.757,25.02c-7.183,6.851-16.25,10.264-27.222,10.264c-9.894,0-18.11-2.944-24.653-8.843
	C44.416,150.816,40.695,143.175,39.768,133.795L39.768,133.795z M127.258,107.955c0-13.33,1.382-24.048,4.111-32.168
	c2.738-8.13,6.815-14.39,12.227-18.799c5.41-4.404,12.212-6.611,20.41-6.611c6.04,0,11.362,1.221,15.923,3.647
	c4.562,2.441,8.33,5.952,11.299,10.532c2.97,4.59,5.298,10.181,7.002,16.758c1.689,6.582,2.529,15.459,2.529,26.641
	c0,13.223-1.362,23.901-4.072,32.021c-2.71,8.13-6.776,14.399-12.188,18.838c-5.4,4.434-12.241,6.65-20.493,6.65
	c-10.859,0-19.39-3.896-25.601-11.689C130.978,144.396,127.258,129.137,127.258,107.955L127.258,107.955z M141.486,107.955
	c0,18.511,2.162,30.82,6.488,36.943c4.331,6.118,9.673,9.18,16.03,9.18c6.362,0,11.699-3.071,16.04-9.224
	c4.331-6.147,6.489-18.447,6.489-36.899c0-18.55-2.168-30.879-6.489-36.978c-4.341-6.099-9.728-9.15-16.177-9.15
	c-6.362,0-11.44,2.69-15.221,8.071C143.869,76.774,141.486,89.459,141.486,107.955L141.486,107.955z M352.946,662.457v-9.102
	l37.959-47.461c2.699-3.369,5.264-6.3,7.689-8.789h-41.348v-8.75h53.082v8.75l-41.603,51.405l-4.502,5.205h47.311v8.74
	L352.946,662.457L352.946,662.457z M420.988,598.824v-10.469h9.097v10.469H420.988z M420.988,662.457v-53.682h9.097v53.682H420.988z
	 M443.937,662.457v-53.682h8.18v7.646c3.955-5.908,9.639-8.856,17.09-8.856c3.231,0,6.201,0.596,8.916,1.748
	c2.725,1.162,4.756,2.694,6.094,4.569c1.348,1.886,2.285,4.131,2.832,6.72c0.332,1.698,0.498,4.647,0.498,8.848v33.018h-9.092
	v-32.666c0-3.711-0.353-6.475-1.056-8.32c-0.702-1.836-1.963-3.301-3.76-4.385c-1.807-1.084-3.936-1.641-6.356-1.641
	c-3.877,0-7.218,1.23-10.021,3.682c-2.827,2.461-4.232,7.129-4.232,14.004v29.316H443.937L443.937,662.457z M536.54,642.799
	l8.944,1.162c-0.977,6.152-3.485,10.986-7.51,14.473c-4.014,3.496-8.975,5.225-14.834,5.225c-7.334,0-13.242-2.401-17.705-7.196
	c-4.463-4.806-6.698-11.699-6.698-20.653c0-5.791,0.967-10.859,2.881-15.205c1.914-4.355,4.844-7.617,8.77-9.785
	c3.926-2.179,8.185-3.263,12.813-3.263c5.819,0,10.596,1.466,14.307,4.425c3.701,2.948,6.084,7.139,7.129,12.559l-8.848,1.367
	c-0.84-3.604-2.334-6.318-4.474-8.135c-2.139-1.826-4.727-2.726-7.764-2.726c-4.57,0-8.301,1.642-11.152,4.933
	c-2.87,3.28-4.297,8.477-4.297,15.586c0,7.227,1.377,12.461,4.142,15.723c2.754,3.271,6.367,4.902,10.819,4.902
	c3.556,0,6.543-1.095,8.945-3.281C534.411,650.721,535.886,647.34,536.54,642.799L536.54,642.799z M107.116,792.34l-9.038,0.703
	c-0.812-3.564-1.953-6.172-3.442-7.773c-2.461-2.598-5.498-3.904-9.097-3.904c-2.9,0-5.444,0.811-7.632,2.432
	c-2.871,2.09-5.133,5.146-6.782,9.141c-1.646,4.016-2.51,9.736-2.578,17.141c2.192-3.34,4.868-5.813,8.042-7.422
	c3.159-1.621,6.479-2.424,9.956-2.424c6.06,0,11.221,2.229,15.493,6.699c4.258,4.453,6.396,10.227,6.396,17.295
	c0,4.658-1.006,8.977-3.008,12.971c-2.012,3.992-4.771,7.051-8.262,9.17c-3.506,2.129-7.49,3.184-11.93,3.184
	c-7.577,0-13.77-2.783-18.539-8.359c-4.79-5.586-7.179-14.766-7.179-27.576c0-14.316,2.638-24.729,7.931-31.23
	c4.618-5.664,10.829-8.496,18.646-8.496c5.83,0,10.61,1.631,14.331,4.895C104.157,782.066,106.379,786.578,107.116,792.34
	L107.116,792.34z M69.977,824.293c0,3.125,0.659,6.133,1.987,8.994c1.343,2.859,3.193,5.049,5.591,6.533
	c2.394,1.504,4.902,2.256,7.529,2.256c3.853,0,7.153-1.533,9.912-4.648c2.759-3.096,4.141-7.313,4.141-12.646
	c0-5.117-1.362-9.143-4.092-12.092c-2.72-2.947-6.157-4.424-10.309-4.424c-4.11,0-7.603,1.477-10.459,4.424
	C71.418,815.641,69.977,819.508,69.977,824.293L69.977,824.293z M117.487,828.883l9.551-0.801c0.708,4.646,2.349,8.145,4.927,10.488
	c2.583,2.354,5.684,3.516,9.331,3.516c4.38,0,8.091-1.65,11.113-4.951c3.037-3.301,4.546-7.686,4.546-13.135
	c0-5.195-1.46-9.277-4.37-12.285c-2.92-2.998-6.738-4.492-11.46-4.492c-2.93,0-5.576,0.654-7.93,1.992
	c-2.358,1.328-4.22,3.066-5.566,5.176l-8.54-1.104l7.178-38.059h36.852v8.691h-29.57l-3.989,19.902
	c4.438-3.098,9.111-4.648,13.999-4.648c6.46,0,11.919,2.246,16.382,6.729c4.438,4.473,6.67,10.232,6.67,17.295
	c0,6.697-1.952,12.5-5.868,17.383c-4.751,5.996-11.23,8.983-19.453,8.983c-6.738,0-12.251-1.875-16.499-5.646
	C120.515,840.133,118.088,835.133,117.487,828.883L117.487,828.883z M180.158,848.297v-10.361h10.355v10.361H180.158z
	 M203.854,828.736l9.103-1.211c1.04,5.164,2.822,8.877,5.332,11.143s5.565,3.408,9.17,3.408c4.276,0,7.891-1.477,10.84-4.443
	c2.949-2.968,4.419-6.641,4.419-11.016c0-4.182-1.362-7.639-4.092-10.342c-2.72-2.705-6.196-4.072-10.41-4.072
	c-1.719,0-3.857,0.342-6.416,1.023l1.011-7.998c0.605,0.078,1.089,0.117,1.455,0.117c3.882,0,7.363-1.016,10.475-3.047
	c3.101-2.012,4.647-5.137,4.647-9.354c0-3.33-1.128-6.096-3.389-8.281c-2.261-2.197-5.182-3.281-8.74-3.281
	c-3.54,0-6.489,1.104-8.853,3.34c-2.358,2.229-3.877,5.547-4.552,10l-9.097-1.621c1.108-6.084,3.638-10.818,7.588-14.18
	c3.94-3.34,8.843-5.02,14.712-5.02c4.038,0,7.759,0.857,11.172,2.598c3.398,1.748,6.006,4.102,7.798,7.109
	c1.813,2.996,2.711,6.172,2.711,9.551c0,3.191-0.859,6.104-2.578,8.75c-1.725,2.627-4.264,4.717-7.633,6.25
	c4.381,1.023,7.778,3.125,10.211,6.309c2.432,3.186,3.638,7.168,3.638,11.953c0,6.455-2.358,11.943-7.08,16.455
	c-4.717,4.482-10.679,6.748-17.886,6.748c-6.504,0-11.904-1.936-16.201-5.82C206.916,839.928,204.465,834.898,203.854,828.736
	L203.854,828.736z M275.396,808.121c-3.778-1.387-6.571-3.359-8.397-5.918c-1.821-2.568-2.72-5.625-2.72-9.199
	c0-5.391,1.929-9.922,5.806-13.594c3.882-3.672,9.033-5.508,15.474-5.508c6.46,0,11.681,1.875,15.62,5.625
	c3.95,3.76,5.918,8.34,5.918,13.729c0,3.438-0.897,6.426-2.71,8.965c-1.812,2.539-4.541,4.502-8.208,5.879
	c4.551,1.484,8.008,3.889,10.392,7.188c2.367,3.301,3.55,7.246,3.55,11.826c0,6.338-2.241,11.659-6.725,15.984
	c-4.478,4.316-10.381,6.455-17.689,6.455c-7.31,0-13.208-2.158-17.7-6.494c-4.478-4.325-6.719-9.727-6.719-16.189
	c0-4.814,1.221-8.857,3.662-12.109C267.39,811.52,270.866,809.293,275.396,808.121L275.396,808.121z M270.637,826.91
	c0,2.598,0.62,5.105,1.852,7.539c1.229,2.422,3.062,4.307,5.487,5.625c2.422,1.328,5.029,1.992,7.832,1.992
	c4.352,0,7.931-1.406,10.763-4.189c2.826-2.803,4.247-6.357,4.247-10.654c0-4.385-1.46-8.018-4.38-10.879
	c-2.91-2.852-6.563-4.297-10.941-4.297c-4.277,0-7.827,1.426-10.641,4.248C272.048,819.127,270.637,822.672,270.637,826.91z
	 M273.565,792.711c0,3.506,1.134,6.367,3.39,8.584c2.261,2.217,5.189,3.33,8.804,3.33c3.506,0,6.377-1.094,8.608-3.313
	c2.251-2.207,3.358-4.91,3.358-8.113c0-3.34-1.146-6.134-3.462-8.418c-2.31-2.275-5.186-3.418-8.618-3.418
	c-3.472,0-6.348,1.111-8.638,3.34C274.718,786.93,273.565,789.596,273.565,792.711L273.565,792.711z M288.059,449.957v-33.672
	l97.109-119.941h-86.133v-31.279h135.321v29.014L333.088,418.805h105.18v31.152H288.059L288.059,449.957z M583.425,449.957h-35.439
	v-68.35c0-14.463-0.762-23.809-2.284-28.062c-1.504-4.238-3.955-7.539-7.363-9.897c-3.408-2.354-7.51-3.53-12.285-3.53
	c-6.143,0-11.66,1.68-16.522,5.039c-4.884,3.359-8.224,7.817-10.029,13.369c-1.807,5.552-2.705,15.811-2.705,30.771v60.659h-35.451
	v-133.93h32.91v19.668c11.699-15.127,26.406-22.7,44.141-22.7c7.822,0,14.972,1.411,21.445,4.224
	c6.484,2.808,11.377,6.406,14.697,10.786c3.319,4.37,5.635,9.331,6.942,14.883c1.289,5.547,1.943,13.501,1.943,23.838
	L583.425,449.957L583.425,449.957z M859.431,109.176v7.588h-42.5c-0.065-1.87,0.249-3.735,0.93-5.479
	c1.084-2.9,2.803-5.752,5.205-8.55c2.383-2.798,5.818-6.05,10.32-9.741c6.992-5.728,11.709-10.269,14.17-13.618
	c2.451-3.35,3.684-6.509,3.684-9.497c0-3.135-1.104-5.771-3.352-7.92c-2.246-2.153-5.154-3.232-8.76-3.232
	c-3.799,0-6.846,1.143-9.121,3.418c-2.273,2.28-3.438,5.439-3.467,9.482l-8.125-0.83c0.566-6.05,2.656-10.674,6.289-13.838
	c3.613-3.174,8.477-4.766,14.59-4.766c6.172,0,11.055,1.714,14.668,5.132c3.584,3.423,5.391,7.661,5.391,12.72
	c0,2.568-0.535,5.103-1.582,7.593c-1.045,2.485-2.793,5.107-5.232,7.847c-2.441,2.754-6.504,6.523-12.178,11.323
	c-4.736,3.979-7.773,6.67-9.121,8.101c-1.35,1.416-2.461,2.837-3.34,4.277h31.531V109.176L859.431,109.176z M830.085,171.725
	c-3.271-1.201-5.693-2.91-7.295-5.127c-1.563-2.222-2.354-4.893-2.354-7.983c0-4.678,1.681-8.608,5.038-11.797
	c3.369-3.193,7.844-4.78,13.43-4.78c5.625,0,10.137,1.631,13.555,4.888c3.418,3.262,5.137,7.231,5.137,11.909
	c0,2.983-0.78,5.581-2.344,7.783c-1.563,2.197-3.945,3.906-7.129,5.107c3.955,1.279,6.943,3.359,9.004,6.23
	c2.07,2.871,3.105,6.289,3.105,10.273c0,5.498-1.943,10.117-5.842,13.857c-3.896,3.74-9.004,5.62-15.352,5.62
	s-11.465-1.88-15.352-5.64c-3.889-3.75-5.83-8.442-5.83-14.063c0-4.18,1.045-7.686,3.174-10.508
	C823.16,174.672,826.179,172.745,830.085,171.725L830.085,171.725z M825.974,188.048c0,2.251,0.527,4.429,1.594,6.528
	c1.063,2.109,2.666,3.74,4.756,4.893c2.107,1.157,4.385,1.729,6.807,1.729c3.779,0,6.885-1.211,9.348-3.643
	c2.461-2.427,3.689-5.508,3.689-9.248c0-3.799-1.27-6.953-3.799-9.429c-2.529-2.48-5.693-3.73-9.502-3.73
	c-3.711,0-6.787,1.23-9.229,3.677C827.204,181.275,825.974,184.366,825.974,188.048L825.974,188.048z M828.513,158.346
	c0,3.042,0.986,5.532,2.932,7.461c1.963,1.929,4.512,2.9,7.646,2.9c3.037,0,5.537-0.962,7.48-2.881
	c1.941-1.909,2.92-4.258,2.92-7.041c0-2.9-1.018-5.327-3.008-7.3c-2.002-1.978-4.502-2.959-7.48-2.959c-3.026,0-5.526,0.972-7.5,2.9
	C829.509,153.346,828.513,155.655,828.513,158.346z M797.712,296.446h-7.891v-50.322c-1.904,1.821-4.396,3.633-7.48,5.444
	c-3.096,1.816-5.859,3.169-8.32,4.077v-7.632c4.414-2.08,8.281-4.59,11.582-7.539c3.302-2.949,5.646-5.82,7.013-8.599h5.098
	L797.712,296.446L797.712,296.446z M830.075,261.568c-3.262-1.201-5.703-2.91-7.285-5.132c-1.572-2.222-2.363-4.888-2.363-7.979
	c0-4.683,1.682-8.613,5.039-11.802c3.369-3.188,7.842-4.78,13.438-4.78c5.614,0,10.137,1.631,13.545,4.888
	c3.418,3.262,5.137,7.231,5.137,11.914c0,2.979-0.791,5.576-2.354,7.778c-1.555,2.202-3.938,3.911-7.13,5.112
	c3.966,1.279,6.952,3.359,9.015,6.226c2.069,2.871,3.096,6.294,3.096,10.273c0,5.498-1.934,10.117-5.819,13.857
	c-3.905,3.74-9.015,5.62-15.37,5.62c-6.328,0-11.455-1.88-15.344-5.64c-3.896-3.75-5.829-8.438-5.829-14.058
	c0-4.18,1.056-7.69,3.185-10.513C823.142,264.518,826.169,262.584,830.075,261.568L830.075,261.568z M825.954,277.887
	c0,2.251,0.527,4.429,1.602,6.528c1.057,2.109,2.656,3.74,4.768,4.893c2.107,1.157,4.375,1.729,6.797,1.729
	c3.779,0,6.895-1.211,9.354-3.638c2.451-2.432,3.684-5.513,3.684-9.253c0-3.799-1.271-6.948-3.799-9.429
	c-2.529-2.481-5.686-3.73-9.492-3.73c-3.711,0-6.797,1.23-9.238,3.682C827.185,271.114,825.954,274.195,825.954,277.887
	L825.954,277.887z M828.493,248.185c0,3.042,0.996,5.532,2.949,7.461c1.953,1.929,4.492,2.9,7.637,2.9
	c3.037,0,5.537-0.962,7.48-2.881c1.934-1.909,2.92-4.258,2.92-7.041c0-2.896-1.008-5.327-3.02-7.3
	c-1.992-1.978-4.492-2.959-7.479-2.959c-3.01,0-5.51,0.972-7.5,2.9C829.499,243.185,828.493,245.494,828.493,248.185
	L828.493,248.185z M859.431,378.697v7.588h-42.5c-0.059-1.899,0.244-3.73,0.93-5.479c1.084-2.9,2.803-5.752,5.205-8.55
	c2.383-2.803,5.818-6.05,10.32-9.741c6.992-5.728,11.709-10.269,14.17-13.618c2.451-3.35,3.684-6.509,3.684-9.502
	c0-3.13-1.104-5.771-3.352-7.92s-5.154-3.228-8.76-3.228c-3.799,0-6.846,1.138-9.121,3.418c-2.273,2.28-3.438,5.439-3.467,9.482
	l-8.125-0.83c0.566-6.055,2.656-10.674,6.289-13.843c3.613-3.169,8.477-4.761,14.59-4.761c6.172,0,11.055,1.709,14.668,5.132
	c3.584,3.418,5.391,7.661,5.391,12.72c0,2.568-0.535,5.098-1.582,7.588c-1.045,2.49-2.793,5.112-5.232,7.852
	c-2.441,2.749-6.504,6.519-12.178,11.318c-4.736,3.984-7.773,6.67-9.121,8.101c-1.357,1.421-2.461,2.842-3.34,4.282h31.531V378.697
	L859.431,378.697z"/>
</svg>
