<?xml version="1.0" encoding="utf-8"?>
<!-- Generator: Adobe Illustrator 16.0.3, SVG Export Plug-In . SVG Version: 6.00 Build 0)  -->
<!DOCTYPE svg PUBLIC "-//W3C//DTD SVG 1.1//EN" "http://www.w3.org/Graphics/SVG/1.1/DTD/svg11.dtd">
<svg version="1.1" id="Layer_1" xmlns="http://www.w3.org/2000/svg" xmlns:xlink="http://www.w3.org/1999/xlink" x="0px" y="0px"
	 width="900px" height="900px" viewBox="0 0 900 900" enable-background="new 0 0 900 900" xml:space="preserve">
<path d="M39.771,133.801l13.838-1.846c1.592,7.842,4.297,13.491,8.115,16.953c3.818,3.457,8.467,5.186,13.955,5.186
	c6.504,0,12.002-2.251,16.484-6.763c4.482-4.512,6.729-10.098,6.729-16.763c0-6.353-2.08-11.592-6.23-15.723
	c-4.15-4.121-9.424-6.187-15.83-6.187c-2.617,0-5.869,0.513-9.766,1.538l1.533-12.148c0.928,0.103,1.67,0.156,2.236,0.156
	c5.889,0,11.191-1.538,15.908-4.614c4.717-3.076,7.07-7.817,7.07-14.224c0-5.073-1.709-9.277-5.146-12.607
	c-3.437-3.33-7.871-5-13.301-5c-5.381,0-9.863,1.694-13.457,5.078c-3.584,3.379-5.889,8.457-6.914,15.22l-13.838-2.461
	c1.689-9.272,5.537-16.465,11.533-21.563c5.996-5.103,13.447-7.651,22.373-7.651c6.143,0,11.807,1.323,16.982,3.96
	c5.176,2.642,9.141,6.24,11.885,10.801c2.734,4.565,4.111,9.409,4.111,14.531c0,4.868-1.309,9.302-3.926,13.301
	c-2.607,3.999-6.484,7.178-11.602,9.531c6.66,1.538,11.836,4.731,15.527,9.575c3.691,4.844,5.537,10.903,5.537,18.179
	c0,9.844-3.594,18.184-10.762,25.024c-7.178,6.846-16.25,10.264-27.217,10.264c-9.893,0-18.105-2.944-24.648-8.838
	C44.419,150.818,40.698,143.181,39.771,133.801L39.771,133.801z M179.39,163.552h-13.838V75.369
	c-3.34,3.179-7.705,6.357-13.115,9.536c-5.4,3.179-10.264,5.562-14.561,7.148V78.674c7.734-3.638,14.502-8.042,20.293-13.223
	c5.791-5.176,9.893-10.195,12.305-15.068h8.916V163.552z M315.884,633.406v-8.691l31.396-0.059v27.5
	c-4.824,3.828-9.795,6.719-14.912,8.672c-5.127,1.934-10.381,2.891-15.771,2.891c-7.275,0-13.896-1.543-19.844-4.668
	c-5.947-3.104-10.43-7.617-13.467-13.516c-3.037-5.899-4.551-12.48-4.551-19.767c0-7.206,1.514-13.944,4.521-20.194
	c3.018-6.25,7.354-10.898,13.018-13.926c5.664-3.028,12.188-4.552,19.561-4.552c5.361,0,10.205,0.879,14.531,2.599
	c4.336,1.737,7.725,4.159,10.186,7.266c2.461,3.106,4.336,7.148,5.615,12.129l-8.848,2.422c-1.113-3.77-2.49-6.737-4.15-8.887
	c-1.65-2.168-4.004-3.887-7.07-5.195c-3.066-1.289-6.475-1.934-10.215-1.934c-4.482,0-8.35,0.684-11.621,2.051
	c-3.271,1.348-5.908,3.146-7.91,5.371s-3.564,4.668-4.678,7.324c-1.885,4.59-2.832,9.569-2.832,14.922
	c0,6.602,1.143,12.129,3.418,16.582c2.275,4.434,5.586,7.754,9.932,9.901c4.346,2.148,8.965,3.242,13.848,3.242
	c4.248,0,8.389-0.819,12.432-2.461c4.043-1.641,7.109-3.379,9.199-5.233v-13.789H315.884L315.884,633.406z M395.601,655.848
	c-3.379,2.853-6.621,4.884-9.736,6.056c-3.115,1.19-6.455,1.776-10.029,1.776c-5.898,0-10.43-1.444-13.594-4.315
	c-3.174-2.892-4.756-6.563-4.756-11.056c0-2.616,0.596-5.02,1.797-7.207c1.191-2.168,2.764-3.905,4.697-5.215
	c1.934-1.328,4.121-2.323,6.543-2.987c1.787-0.47,4.482-0.938,8.086-1.367c7.354-0.879,12.754-1.914,16.23-3.125
	c0.029-1.25,0.049-2.051,0.049-2.383c0-3.711-0.859-6.328-2.578-7.832c-2.324-2.052-5.781-3.086-10.361-3.086
	c-4.277,0-7.441,0.741-9.473,2.245c-2.041,1.505-3.555,4.16-4.531,7.97l-8.896-1.211c0.811-3.81,2.148-6.896,3.994-9.238
	c1.855-2.344,4.531-4.141,8.037-5.41c3.506-1.25,7.568-1.895,12.188-1.895c4.58,0,8.301,0.547,11.172,1.621
	c2.861,1.073,4.961,2.44,6.309,4.063c1.348,1.641,2.295,3.711,2.832,6.191c0.303,1.563,0.459,4.354,0.459,8.397v12.129
	c0,8.457,0.195,13.81,0.576,16.056c0.398,2.263,1.178,4.442,2.305,6.444h-9.502C396.47,660.574,395.864,658.367,395.601,655.848
	L395.601,655.848z M394.839,635.516c-3.301,1.349-8.262,2.5-14.863,3.438c-3.74,0.547-6.387,1.151-7.93,1.836
	c-1.553,0.664-2.754,1.66-3.594,2.949c-0.84,1.289-1.26,2.733-1.26,4.315c0,2.422,0.918,4.453,2.754,6.074
	c1.836,1.621,4.521,2.422,8.057,2.422c3.506,0,6.621-0.762,9.355-2.305c2.725-1.523,4.736-3.633,6.016-6.289
	c0.977-2.051,1.465-5.078,1.465-9.103V635.516L394.839,635.516z M417.935,662.469v-74.102h9.103v74.102H417.935z M440.933,662.469
	v-74.102h9.103v74.102H440.933z M464.186,598.836v-10.469h9.102v10.469H464.186z M464.186,662.469v-53.69h9.102v53.69H464.186z
	 M522.311,662.469v-7.891c-4.181,6.074-9.854,9.102-17.031,9.102c-3.174,0-6.123-0.604-8.877-1.815
	c-2.744-1.211-4.785-2.734-6.113-4.59c-1.328-1.837-2.266-4.082-2.803-6.738c-0.371-1.777-0.558-4.609-0.558-8.496v-33.262h9.103
	v29.784c0,4.746,0.186,7.949,0.557,9.591c0.566,2.401,1.777,4.276,3.633,5.645c1.856,1.368,4.15,2.051,6.875,2.051
	c2.734,0,5.293-0.702,7.687-2.108c2.393-1.387,4.082-3.301,5.078-5.703s1.493-5.898,1.493-10.488v-28.77h9.093v53.69
	L522.311,662.469L522.311,662.469z M544.702,662.469v-53.69h8.135v7.539c1.689-2.638,3.926-4.746,6.719-6.349
	c2.804-1.602,5.986-2.401,9.562-2.401c3.975,0,7.236,0.84,9.775,2.479c2.549,1.66,4.336,3.965,5.381,6.935
	c4.248-6.271,9.774-9.414,16.582-9.414c5.321,0,9.414,1.483,12.284,4.434c2.861,2.949,4.298,7.48,4.298,13.613v36.854h-9.054
	v-33.828c0-3.633-0.293-6.25-0.879-7.852c-0.596-1.602-1.66-2.891-3.213-3.867c-1.553-0.976-3.369-1.465-5.459-1.465
	c-3.77,0-6.904,1.25-9.404,3.77c-2.489,2.5-3.739,6.523-3.739,12.052v31.19h-9.093v-34.883c0-4.043-0.741-7.07-2.227-9.102
	c-1.484-2.013-3.906-3.027-7.275-3.027c-2.567,0-4.932,0.684-7.108,2.031c-2.168,1.348-3.74,3.301-4.728,5.897
	c-0.977,2.599-1.465,6.349-1.465,11.23v27.852L544.702,662.469L544.702,662.469z M107.114,792.352l-9.043,0.703
	c-0.811-3.573-1.953-6.172-3.438-7.772c-2.461-2.599-5.498-3.906-9.102-3.906c-2.9,0-5.439,0.82-7.627,2.441
	c-2.871,2.09-5.127,5.137-6.777,9.141s-2.51,9.727-2.578,17.129c2.188-3.34,4.873-5.801,8.037-7.422s6.484-2.422,9.961-2.422
	c6.064,0,11.221,2.227,15.488,6.699c4.258,4.452,6.396,10.233,6.396,17.305c0,4.647-1.006,8.965-3.008,12.969
	c-2.012,3.984-4.766,7.051-8.262,9.16c-3.506,2.129-7.49,3.184-11.934,3.184c-7.578,0-13.77-2.772-18.545-8.358
	c-4.795-5.566-7.178-14.767-7.178-27.578c0-14.316,2.637-24.728,7.93-31.23c4.619-5.664,10.83-8.496,18.652-8.496
	c5.83,0,10.605,1.642,14.326,4.902C104.146,782.078,106.372,786.59,107.114,792.352L107.114,792.352z M69.966,824.285
	c-0.008,3.111,0.672,6.187,1.992,9.004c1.338,2.871,3.193,5.059,5.586,6.543c2.393,1.504,4.902,2.246,7.529,2.246
	c3.848,0,7.148-1.543,9.912-4.648c2.764-3.086,4.141-7.305,4.141-12.637c0-5.117-1.357-9.141-4.092-12.09
	c-2.725-2.949-6.162-4.435-10.313-4.435c-4.111,0-7.598,1.484-10.459,4.435C71.401,815.653,69.966,819.52,69.966,824.285
	L69.966,824.285z M118.843,831.16l8.74-0.801c0.742,4.12,2.158,7.09,4.248,8.944c2.09,1.855,4.766,2.773,8.037,2.773
	c2.793,0,5.244-0.625,7.354-1.914c2.109-1.271,3.828-2.988,5.176-5.137c1.348-2.13,2.48-5.021,3.389-8.652
	c0.909-3.642,1.369-7.38,1.367-11.133c0-0.392-0.02-0.996-0.049-1.816c-1.826,2.892-4.307,5.254-7.461,7.051
	c-3.111,1.794-6.643,2.731-10.234,2.716c-6.133,0-11.318-2.228-15.566-6.681c-4.248-4.453-6.367-10.313-6.367-17.598
	c0-7.5,2.217-13.555,6.65-18.146c4.424-4.569,9.98-6.875,16.65-6.875c4.814,0,9.229,1.31,13.213,3.906
	c3.994,2.599,7.031,6.289,9.102,11.094c2.071,4.806,3.105,11.738,3.105,20.841c0,9.473-1.025,17.012-3.076,22.616
	c-2.061,5.625-5.117,9.884-9.18,12.813s-8.818,4.395-14.277,4.395c-5.791,0-10.527-1.602-14.199-4.823
	C121.792,841.531,119.585,837,118.843,831.16L118.843,831.16z M156.089,798.465c0-5.215-1.387-9.375-4.17-12.44
	c-2.773-3.066-6.123-4.591-10.029-4.591c-4.043,0-7.568,1.66-10.566,4.961c-2.998,3.302-4.502,7.578-4.502,12.832
	c0,4.707,1.426,8.556,4.277,11.504c2.842,2.949,6.357,4.414,10.537,4.414c4.209,0,7.676-1.465,10.391-4.414
	C154.731,807.781,156.089,803.699,156.089,798.465z M180.151,848.309v-10.371h10.361v10.371H180.151z M204.409,783.914v-8.75h47.969
	v7.07c-4.717,5.02-9.395,11.698-14.023,20.02c-4.639,8.32-8.213,16.896-10.742,25.684c-1.826,6.191-2.988,12.988-3.486,20.371
	h-9.355c0.098-5.84,1.25-12.871,3.438-21.133s5.332-16.211,9.424-23.887c4.102-7.656,8.457-14.121,13.066-19.375H204.409z
	 M309.194,839.559v8.75H260.22c-0.075-2.159,0.287-4.312,1.064-6.328c1.24-3.34,3.242-6.62,5.986-9.844
	c2.744-3.242,6.709-6.992,11.904-11.229c8.047-6.603,13.496-11.836,16.328-15.685c2.822-3.867,4.238-7.52,4.238-10.957
	c0-3.594-1.289-6.641-3.867-9.121c-2.578-2.479-5.938-3.711-10.078-3.711c-4.385,0-7.891,1.31-10.518,3.945
	c-2.627,2.617-3.955,6.271-3.994,10.918l-9.346-0.957c0.635-6.973,3.047-12.305,7.227-15.957c4.18-3.651,9.785-5.487,16.836-5.487
	c7.109,0,12.734,1.973,16.875,5.918c4.15,3.944,6.221,8.828,6.221,14.668c0,2.948-0.605,5.879-1.816,8.729
	c-1.221,2.871-3.232,5.879-6.045,9.063c-2.813,3.164-7.49,7.5-14.023,13.026c-5.459,4.591-8.965,7.695-10.518,9.336
	c-1.553,1.621-2.832,3.281-3.838,4.923L309.194,839.559L309.194,839.559z M318.999,828.738l9.102-1.211
	c1.045,5.155,2.822,8.866,5.332,11.151c2.51,2.267,5.566,3.398,9.17,3.398c4.277,0,7.891-1.465,10.84-4.435
	c2.949-2.969,4.424-6.641,4.424-11.016c0-4.18-1.357-7.637-4.092-10.352c-2.725-2.716-6.201-4.063-10.41-4.063
	c-1.719,0-3.857,0.332-6.416,1.016l1.006-7.987c0.486,0.055,0.976,0.087,1.465,0.098c3.877,0,7.363-1.016,10.469-3.027
	c3.096-2.03,4.648-5.137,4.648-9.354c0-3.34-1.133-6.094-3.389-8.281c-2.256-2.207-5.176-3.301-8.74-3.301
	c-3.545,0-6.494,1.113-8.848,3.34c-2.363,2.228-3.877,5.566-4.551,10.021l-9.102-1.621c1.113-6.094,3.643-10.82,7.588-14.18
	c3.936-3.359,8.838-5.039,14.707-5.039c4.043,0,7.764,0.879,11.172,2.616c3.398,1.738,6.006,4.103,7.803,7.091
	c1.807,3.008,2.705,6.19,2.705,9.551c0,3.203-0.859,6.113-2.578,8.75c-1.719,2.637-4.258,4.727-7.627,6.27
	c4.375,1.017,7.783,3.105,10.205,6.289c2.432,3.185,3.643,7.168,3.643,11.953c0,6.465-2.363,11.953-7.08,16.465
	c-4.717,4.492-10.684,6.738-17.891,6.738c-6.504,0-11.904-1.934-16.201-5.82C322.056,839.93,319.604,834.91,318.999,828.738
	L318.999,828.738z M375.591,381.985v-31.147h80.459v73.652c-7.813,7.563-19.149,14.229-33.983,19.984
	c-14.845,5.763-29.874,8.643-45.088,8.643c-19.336,0-36.201-4.058-50.576-12.172c-14.375-8.11-25.176-19.718-32.412-34.811
	c-7.227-15.088-10.84-31.504-10.84-49.248c0-19.253,4.033-36.361,12.1-51.328c8.076-14.966,19.883-26.44,35.439-34.429
	c11.855-6.138,26.611-9.209,44.268-9.209c22.959,0,40.889,4.814,53.789,14.443c12.91,9.629,21.211,22.93,24.912,39.913l-37.08,6.938
	c-2.607-9.082-7.5-16.245-14.688-21.504c-7.197-5.254-16.172-7.881-26.934-7.881c-16.309,0-29.277,5.171-38.906,15.513
	c-9.629,10.342-14.434,25.685-14.434,46.03c0,21.948,4.873,38.403,14.629,49.375c9.746,10.972,22.529,16.46,38.34,16.46
	c7.813,0,15.654-1.533,23.516-4.604c7.861-3.065,14.609-6.786,20.244-11.161v-23.457L375.591,381.985L375.591,381.985z
	 M516.714,356.887l-32.158-5.801c3.613-12.944,9.845-22.529,18.673-28.755c8.827-6.221,21.942-9.331,39.346-9.331
	c15.801,0,27.578,1.87,35.313,5.61c7.734,3.745,13.174,8.496,16.328,14.253c3.154,5.762,4.736,16.333,4.736,31.719l-0.381,41.367
	c0,11.771,0.565,20.449,1.698,26.04c1.134,5.596,3.263,11.587,6.367,17.974h-35.059c-0.928-2.354-2.062-5.845-3.398-10.469
	c-0.596-2.101-1.016-3.486-1.27-4.16c-6.056,5.884-12.529,10.298-19.414,13.242c-6.896,2.938-14.258,4.414-22.07,4.414
	c-13.799,0-24.658-3.74-32.606-11.226c-7.939-7.479-11.914-16.938-11.914-28.374c0-7.567,1.807-14.315,5.42-20.243
	c3.612-5.929,8.682-10.47,15.194-13.618c6.515-3.154,15.908-5.908,28.193-8.263c16.563-3.109,28.037-6.011,34.424-8.7v-3.535
	c0-6.808-1.68-11.665-5.039-14.565c-3.369-2.899-9.717-4.351-19.043-4.351c-6.309,0-11.229,1.24-14.756,3.721
	C521.763,346.316,518.901,350.667,516.714,356.887z M564.136,385.642c-4.541,1.515-11.729,3.325-21.563,5.426
	c-9.834,2.104-16.271,4.159-19.297,6.182c-4.63,3.276-6.935,7.437-6.935,12.485c0,4.961,1.846,9.248,5.547,12.86
	c3.701,3.618,8.408,5.425,14.121,5.425c6.396,0,12.49-2.1,18.291-6.309c4.287-3.193,7.101-7.104,8.447-11.729
	c0.928-3.027,1.387-8.784,1.387-17.275L564.136,385.642L564.136,385.642z M859.438,109.182v7.588h-42.5
	c-0.069-1.871,0.243-3.737,0.919-5.483c1.084-2.896,2.813-5.747,5.194-8.555s5.83-6.055,10.332-9.736
	c6.992-5.732,11.709-10.273,14.17-13.623c2.451-3.35,3.683-6.514,3.683-9.497c0-3.13-1.113-5.767-3.351-7.915
	c-2.246-2.153-5.156-3.228-8.76-3.228c-3.799,0-6.836,1.143-9.121,3.423c-2.275,2.28-3.438,5.438-3.467,9.478l-8.115-0.835
	c0.558-6.055,2.646-10.669,6.279-13.843c3.623-3.169,8.486-4.756,14.6-4.756c6.172,0,11.056,1.709,14.658,5.132
	c3.594,3.423,5.391,7.661,5.391,12.72c0,2.573-0.526,5.103-1.571,7.588c-1.056,2.485-2.804,5.107-5.244,7.852
	c-2.441,2.749-6.504,6.523-12.178,11.318c-4.736,3.979-7.773,6.675-9.121,8.096c-1.349,1.416-2.461,2.842-3.341,4.277
	L859.438,109.182L859.438,109.182z M830.093,171.736c-3.271-1.201-5.703-2.91-7.285-5.132c-1.571-2.222-2.362-4.888-2.362-7.983
	c0-4.683,1.68-8.613,5.039-11.802c3.369-3.188,7.842-4.78,13.428-4.78c5.615,0,10.137,1.631,13.555,4.888
	c3.418,3.262,5.138,7.231,5.138,11.914c0,2.979-0.791,5.576-2.354,7.783c-1.563,2.207-3.936,3.911-7.129,5.112
	c3.955,1.284,6.953,3.364,9.014,6.226c2.07,2.871,3.097,6.289,3.097,10.269c0,5.498-1.943,10.117-5.83,13.862
	c-3.896,3.74-9.015,5.615-15.361,5.615c-6.338,0-11.455-1.88-15.353-5.64c-3.887-3.755-5.829-8.442-5.829-14.058
	c0-4.185,1.055-7.686,3.184-10.508C823.159,174.68,826.177,172.756,830.093,171.736z M825.972,188.054
	c0,2.251,0.527,4.429,1.603,6.533c1.063,2.109,2.656,3.74,4.756,4.893c2.08,1.149,4.42,1.746,6.797,1.733
	c3.779,0,6.896-1.211,9.346-3.643c2.461-2.427,3.691-5.513,3.691-9.253c0-3.804-1.271-6.948-3.799-9.434
	c-2.529-2.486-5.693-3.726-9.502-3.726c-3.711,0-6.787,1.226-9.229,3.682C827.192,181.295,825.972,184.368,825.972,188.054
	L825.972,188.054z M828.511,158.357c0,3.042,0.986,5.527,2.939,7.456c1.963,1.929,4.502,2.896,7.637,2.896
	c3.037,0,5.537-0.957,7.48-2.876c1.942-1.914,2.92-4.258,2.92-7.036c0-2.896-1.006-5.332-3.008-7.305
	c-2.003-1.978-4.503-2.964-7.48-2.964c-3.018,0-5.518,0.967-7.5,2.896C829.507,153.357,828.511,155.667,828.511,158.357
	L828.511,158.357z M797.71,296.448h-7.891V246.13c-1.904,1.816-4.396,3.628-7.48,5.439c-3.086,1.816-5.858,3.174-8.311,4.082v-7.632
	c4.414-2.075,8.271-4.59,11.582-7.544c3.301-2.954,5.645-5.82,7.012-8.599h5.088V296.448L797.71,296.448z M830.083,261.575
	c-3.271-1.201-5.703-2.91-7.285-5.132c-1.572-2.222-2.362-4.888-2.362-7.983c0-4.683,1.68-8.613,5.038-11.802
	c3.369-3.188,7.843-4.78,13.429-4.78c5.614,0,10.137,1.631,13.555,4.888c3.418,3.262,5.137,7.231,5.137,11.914
	c0,2.979-0.791,5.576-2.354,7.783c-1.563,2.207-3.937,3.911-7.129,5.112c3.955,1.284,6.953,3.364,9.014,6.226
	c2.07,2.871,3.096,6.289,3.096,10.269c0,5.498-1.942,10.117-5.83,13.862c-3.896,3.74-9.014,5.615-15.36,5.615
	c-6.338,0-11.455-1.88-15.353-5.64c-3.887-3.755-5.83-8.442-5.83-14.058c0-4.185,1.056-7.686,3.185-10.508
	C823.149,264.519,826.167,262.595,830.083,261.575z M825.962,277.893c0,2.251,0.527,4.429,1.603,6.533
	c1.063,2.109,2.655,3.74,4.756,4.893c2.08,1.149,4.42,1.746,6.797,1.733c3.779,0,6.895-1.211,9.346-3.643
	c2.461-2.427,3.691-5.513,3.691-9.253c0-3.804-1.271-6.948-3.799-9.434c-2.529-2.486-5.693-3.726-9.503-3.726
	c-3.711,0-6.786,1.226-9.229,3.682C827.182,271.134,825.962,274.207,825.962,277.893L825.962,277.893z M828.501,248.196
	c0,3.042,0.986,5.527,2.939,7.456c1.963,1.929,4.502,2.896,7.637,2.896c3.037,0,5.537-0.957,7.479-2.876
	c1.943-1.914,2.92-4.258,2.92-7.036c0-2.896-1.006-5.332-3.008-7.305c-2.002-1.978-4.502-2.964-7.479-2.964
	c-3.019,0-5.519,0.967-7.5,2.896C829.497,243.196,828.501,245.505,828.501,248.196L828.501,248.196z M817.983,369.309l7.899-1.05
	c0.908,4.474,2.451,7.695,4.629,9.673c2.179,1.974,4.834,2.959,7.959,2.959c3.711,0,6.855-1.289,9.414-3.861
	c2.56-2.573,3.838-5.757,3.838-9.562c0-3.628-1.19-6.616-3.555-8.97c-2.373-2.354-5.381-3.535-9.043-3.535
	c-1.484,0-3.34,0.293-5.566,0.879l0.88-6.929c0.526,0.059,0.946,0.088,1.27,0.088c3.359,0,6.387-0.879,9.082-2.632
	c2.687-1.758,4.033-4.463,4.033-8.115c0-2.896-0.978-5.293-2.939-7.197c-1.953-1.898-4.491-2.852-7.588-2.852
	c-3.065,0-5.625,0.967-7.676,2.896c-2.051,1.934-3.359,4.823-3.945,8.687l-7.899-1.401c0.967-5.293,3.164-9.395,6.582-12.305
	s7.676-4.365,12.764-4.365c3.506,0,6.738,0.752,9.697,2.256c2.948,1.51,5.215,3.564,6.776,6.167
	c1.563,2.604,2.345,5.366,2.345,8.291c0,2.778-0.742,5.309-2.236,7.589c-1.494,2.279-3.701,4.092-6.621,5.438
	c3.799,0.874,6.758,2.695,8.857,5.459c2.108,2.764,3.163,6.227,3.163,10.376c0,5.615-2.051,10.376-6.143,14.277
	c-4.102,3.906-9.277,5.858-15.527,5.858c-5.645,0-10.332-1.685-14.063-5.049C820.64,379.021,818.511,374.661,817.983,369.309
	L817.983,369.309z"/>
</svg>
