<?xml version="1.0" encoding="utf-8"?>
<!-- Generator: Adobe Illustrator 16.0.3, SVG Export Plug-In . SVG Version: 6.00 Build 0)  -->
<!DOCTYPE svg PUBLIC "-//W3C//DTD SVG 1.1//EN" "http://www.w3.org/Graphics/SVG/1.1/DTD/svg11.dtd">
<svg version="1.1" id="Layer_1" xmlns="http://www.w3.org/2000/svg" xmlns:xlink="http://www.w3.org/1999/xlink" x="0px" y="0px"
	 width="900px" height="900px" viewBox="0 0 900 900" enable-background="new 0 0 900 900" xml:space="preserve">
<path d="M39.771,133.831l13.838-1.846c1.592,7.842,4.297,13.491,8.115,16.953c3.818,3.457,8.467,5.186,13.955,5.186
	c6.504,0,12.002-2.251,16.484-6.763c4.482-4.512,6.729-10.098,6.729-16.763c0-6.353-2.08-11.592-6.23-15.723
	c-4.15-4.121-9.424-6.187-15.83-6.187c-2.617,0-5.869,0.513-9.766,1.538l1.533-12.148c0.928,0.103,1.67,0.156,2.236,0.156
	c5.889,0,11.191-1.538,15.908-4.614c4.717-3.076,7.07-7.817,7.07-14.224c0-5.073-1.709-9.277-5.146-12.607s-7.871-5-13.301-5
	c-5.381,0-9.863,1.694-13.457,5.078c-3.584,3.379-5.889,8.457-6.914,15.22l-13.838-2.461c1.689-9.272,5.537-16.465,11.533-21.563
	c5.996-5.103,13.447-7.651,22.373-7.651c6.143,0,11.807,1.323,16.982,3.96c5.176,2.642,9.141,6.24,11.885,10.801
	c2.734,4.565,4.111,9.409,4.111,14.531c0,4.868-1.309,9.302-3.926,13.301c-2.607,3.999-6.484,7.178-11.602,9.531
	c6.66,1.538,11.836,4.731,15.527,9.575c3.691,4.844,5.537,10.903,5.537,18.179c0,9.844-3.594,18.184-10.762,25.024
	c-7.178,6.846-16.25,10.264-27.217,10.264c-9.893,0-18.105-2.944-24.648-8.838C44.419,150.847,40.698,143.21,39.771,133.831z
	 M199.995,150.281v13.301h-74.502c-0.107-3.278,0.441-6.545,1.611-9.609c1.904-5.073,4.932-10.073,9.111-14.99
	c4.18-4.922,10.215-10.61,18.105-17.07c12.256-10.044,20.527-18.003,24.834-23.872c4.307-5.869,6.455-11.416,6.455-16.646
	c0-5.483-1.953-10.107-5.879-13.877c-3.916-3.765-9.033-5.649-15.332-5.649c-6.67,0-12.002,2.002-15.996,5.996
	c-3.994,3.999-6.025,9.536-6.074,16.606l-14.219-1.46c0.967-10.61,4.639-18.691,10.996-24.253
	c6.348-5.562,14.883-8.345,25.596-8.345c10.811,0,19.375,2.998,25.684,8.994c6.299,5.996,9.453,13.433,9.453,22.295
	c0,4.512-0.928,8.945-2.773,13.301c-1.836,4.36-4.902,8.945-9.18,13.765c-4.287,4.814-11.396,11.431-21.338,19.834
	c-8.301,6.973-13.633,11.699-15.986,14.185c-2.363,2.485-4.307,4.985-5.85,7.495L199.995,150.281L199.995,150.281z M220.962,633.436
	v-8.69l31.396-0.06v27.5c-4.824,3.828-9.795,6.72-14.912,8.673c-5.127,1.934-10.381,2.891-15.771,2.891
	c-7.275,0-13.896-1.543-19.844-4.668c-5.947-3.105-10.43-7.617-13.467-13.517c-3.037-5.898-4.551-12.479-4.551-19.766
	c0-7.207,1.514-13.945,4.521-20.195c3.018-6.25,7.354-10.897,13.018-13.926c5.664-3.027,12.188-4.551,19.561-4.551
	c5.361,0,10.205,0.879,14.531,2.598c4.336,1.738,7.725,4.16,10.186,7.267c2.461,3.105,4.336,7.147,5.615,12.129l-8.848,2.422
	c-1.113-3.771-2.49-6.738-4.15-8.887c-1.65-2.168-4.004-3.888-7.07-5.195c-3.066-1.289-6.475-1.935-10.215-1.935
	c-4.482,0-8.35,0.685-11.621,2.052c-3.271,1.348-5.908,3.145-7.91,5.371c-2.002,2.226-3.564,4.668-4.678,7.323
	c-1.885,4.591-2.832,9.57-2.832,14.922c0,6.603,1.143,12.13,3.418,16.582c2.275,4.435,5.586,7.755,9.932,9.902
	c4.346,2.148,8.965,3.242,13.848,3.242c4.248,0,8.389-0.82,12.432-2.461c4.043-1.641,7.109-3.379,9.199-5.234v-13.789H220.962
	L220.962,633.436z M302.397,645.213l9.395,1.152c-1.484,5.487-4.229,9.766-8.232,12.793c-4.014,3.026-9.141,4.551-15.371,4.551
	c-7.852,0-14.072-2.422-18.672-7.266c-4.6-4.824-6.904-11.603-6.904-20.332c0-9.023,2.324-16.035,6.973-21.035
	c4.658-4.98,10.684-7.48,18.096-7.48c7.178,0,13.047,2.441,17.598,7.345c4.541,4.883,6.816,11.758,6.816,20.604
	c0,0.547-0.01,1.348-0.049,2.441h-40.029c0.332,5.897,2.002,10.409,5,13.534c2.998,3.146,6.738,4.707,11.221,4.707
	c3.34,0,6.182-0.879,8.545-2.637C299.146,651.854,301.011,649.041,302.397,645.213L302.397,645.213z M272.524,630.506h29.971
	c-0.41-4.531-1.553-7.91-3.438-10.176c-2.9-3.496-6.66-5.254-11.27-5.254c-4.18,0-7.695,1.406-10.537,4.199
	C274.399,622.068,272.827,625.818,272.524,630.506L272.524,630.506z M323.11,662.498v-53.691h8.193v8.146
	c2.09-3.81,4.014-6.31,5.781-7.539c1.777-1.211,3.721-1.816,5.84-1.816c3.066,0,6.182,0.978,9.355,2.931l-3.135,8.457
	c-2.227-1.328-4.453-1.974-6.67-1.974c-1.992,0-3.779,0.586-5.361,1.797c-1.582,1.191-2.715,2.853-3.389,4.961
	c-1.006,3.242-1.514,6.777-1.514,10.625v28.105L323.11,662.498L323.11,662.498z M357.69,662.498v-53.691h8.135v7.539
	c1.689-2.637,3.926-4.746,6.719-6.348c2.803-1.602,5.986-2.402,9.561-2.402c3.975,0,7.236,0.84,9.775,2.48
	c2.549,1.66,4.336,3.965,5.381,6.934c4.248-6.27,9.775-9.414,16.582-9.414c5.322,0,9.414,1.484,12.285,4.435
	c2.861,2.948,4.297,7.479,4.297,13.612v36.855h-9.053V628.67c0-3.633-0.293-6.25-0.879-7.852c-0.596-1.603-1.66-2.892-3.213-3.867
	c-1.554-0.977-3.369-1.465-5.459-1.465c-3.771,0-6.904,1.25-9.404,3.77c-2.49,2.5-3.74,6.523-3.74,12.051v31.191h-9.092v-34.883
	c0-4.043-0.742-7.07-2.227-9.103c-1.484-2.012-3.906-3.026-7.275-3.026c-2.568,0-4.932,0.684-7.109,2.03
	c-2.168,1.349-3.74,3.302-4.727,5.898c-0.977,2.598-1.465,6.348-1.465,11.229v27.853L357.69,662.498L357.69,662.498z
	 M478.95,655.877c-3.379,2.852-6.621,4.883-9.736,6.055c-3.115,1.191-6.455,1.777-10.028,1.777c-5.898,0-10.431-1.445-13.595-4.316
	c-3.174-2.891-4.756-6.563-4.756-11.055c0-2.617,0.596-5.02,1.797-7.207c1.191-2.168,2.765-3.906,4.697-5.215
	c1.934-1.328,4.121-2.324,6.543-2.988c1.787-0.469,4.481-0.938,8.086-1.367c7.354-0.879,12.754-1.913,16.229-3.125
	c0.029-1.25,0.05-2.051,0.05-2.383c0-3.711-0.859-6.328-2.578-7.832c-2.324-2.051-5.781-3.086-10.361-3.086
	c-4.276,0-7.44,0.742-9.473,2.246c-2.041,1.504-3.556,4.16-4.531,7.969l-8.896-1.211c0.811-3.809,2.147-6.895,3.993-9.237
	c1.855-2.345,4.531-4.142,8.037-5.41c3.507-1.25,7.568-1.896,12.188-1.896c4.58,0,8.301,0.547,11.172,1.621
	c2.861,1.074,4.961,2.441,6.309,4.063c1.349,1.641,2.295,3.711,2.832,6.19c0.304,1.563,0.459,4.355,0.459,8.398v12.129
	c0,8.457,0.195,13.809,0.576,16.055c0.398,2.264,1.178,4.442,2.305,6.445h-9.502C479.819,660.604,479.214,658.396,478.95,655.877
	L478.95,655.877z M478.188,635.545c-3.301,1.348-8.262,2.5-14.862,3.438c-3.74,0.547-6.388,1.151-7.931,1.836
	c-1.553,0.664-2.754,1.659-3.594,2.948s-1.26,2.734-1.26,4.316c0,2.422,0.918,4.453,2.754,6.074s4.521,2.422,8.057,2.422
	c3.507,0,6.621-0.762,9.355-2.305c2.725-1.523,4.736-3.634,6.016-6.289c0.978-2.052,1.465-5.078,1.465-9.103V635.545
	L478.188,635.545z M501.489,662.498v-53.691h8.184v7.638c3.945-5.898,9.64-8.849,17.09-8.849c3.232,0,6.201,0.586,8.916,1.759
	c2.716,1.151,4.746,2.676,6.095,4.569c1.348,1.875,2.284,4.121,2.832,6.719c0.331,1.681,0.497,4.63,0.497,8.849v33.008h-9.092
	v-32.656c0-3.711-0.352-6.483-1.063-8.319c-0.703-1.836-1.963-3.302-3.761-4.396c-1.807-1.094-3.926-1.641-6.348-1.641
	c-3.877,0-7.217,1.229-10.029,3.69c-2.821,2.461-4.229,7.129-4.229,14.004v29.316H501.489L501.489,662.498z M559.106,598.865
	v-10.469h9.102v10.469H559.106z M559.106,662.498v-53.691h9.102v53.691H559.106z M617.231,662.498v-7.891
	c-4.181,6.073-9.854,9.102-17.031,9.102c-3.174,0-6.123-0.604-8.877-1.816c-2.744-1.211-4.785-2.733-6.113-4.59
	c-1.328-1.836-2.266-4.082-2.803-6.737c-0.371-1.777-0.558-4.609-0.558-8.496v-33.263h9.103v29.785c0,4.746,0.186,7.949,0.557,9.59
	c0.566,2.402,1.777,4.277,3.633,5.646c1.856,1.368,4.15,2.051,6.875,2.051c2.734,0,5.294-0.703,7.687-2.108
	c2.393-1.388,4.082-3.302,5.078-5.703c0.996-2.402,1.494-5.898,1.494-10.488v-28.77h9.092v53.69L617.231,662.498L617.231,662.498z
	 M639.634,662.498v-53.691h8.136v7.539c1.688-2.637,3.926-4.746,6.719-6.348c2.803-1.602,5.985-2.402,9.561-2.402
	c3.976,0,7.236,0.841,9.775,2.48c2.549,1.66,4.336,3.965,5.381,6.934c4.248-6.27,9.775-9.414,16.582-9.414
	c5.322,0,9.414,1.484,12.285,4.435c2.86,2.949,4.297,7.479,4.297,13.612v36.855h-9.053V628.67c0-3.633-0.293-6.25-0.88-7.852
	c-0.596-1.603-1.659-2.892-3.213-3.867c-1.553-0.977-3.369-1.465-5.459-1.465c-3.77,0-6.903,1.25-9.403,3.77
	c-2.49,2.5-3.74,6.523-3.74,12.051v31.191h-9.092v-34.883c0-4.043-0.742-7.07-2.228-9.103c-1.483-2.012-3.905-3.026-7.274-3.026
	c-2.568,0-4.933,0.684-7.109,2.03c-2.168,1.349-3.74,3.302-4.727,5.898c-0.978,2.598-1.466,6.348-1.466,11.229v27.853
	L639.634,662.498L639.634,662.498z M60.522,783.943v-8.75h47.969v7.069c-4.717,5.021-9.395,11.699-14.023,20.021
	c-4.639,8.32-8.213,16.895-10.742,25.684c-1.826,6.191-2.988,12.988-3.486,20.371h-9.355c0.098-5.84,1.25-12.871,3.438-21.133
	c2.188-8.262,5.332-16.211,9.424-23.887c4.102-7.656,8.447-14.121,13.066-19.375H60.522z M165.298,839.588v8.75h-48.975
	c-0.075-2.159,0.287-4.312,1.064-6.328c1.24-3.34,3.242-6.621,5.986-9.844c2.744-3.242,6.709-6.992,11.904-11.23
	c8.047-6.602,13.496-11.836,16.328-15.684c2.822-3.867,4.238-7.52,4.238-10.957c0-3.594-1.289-6.641-3.867-9.121
	c-2.578-2.479-5.938-3.711-10.078-3.711c-4.385,0-7.891,1.31-10.518,3.945c-2.627,2.617-3.955,6.27-3.994,10.918l-9.346-0.957
	c0.635-6.973,3.047-12.305,7.227-15.957c4.18-3.652,9.785-5.488,16.836-5.488c7.109,0,12.734,1.974,16.875,5.918
	c4.15,3.945,6.221,8.828,6.221,14.668c0,2.949-0.605,5.88-1.816,8.73c-1.221,2.871-3.232,5.879-6.045,9.063
	c-2.813,3.164-7.49,7.5-14.023,13.027c-5.459,4.59-8.965,7.695-10.518,9.336c-1.553,1.621-2.832,3.281-3.838,4.922H165.298
	L165.298,839.588z M180.161,848.338v-10.371h10.361v10.371H180.161z M251.021,792.381l-9.043,0.703
	c-0.811-3.574-1.953-6.172-3.438-7.773c-2.461-2.598-5.498-3.905-9.102-3.905c-2.9,0-5.439,0.819-7.627,2.44
	c-2.871,2.09-5.127,5.138-6.777,9.142c-1.65,4.004-2.51,9.727-2.578,17.129c2.188-3.34,4.873-5.802,8.037-7.422
	c3.164-1.621,6.484-2.423,9.961-2.423c6.064,0,11.221,2.228,15.488,6.699c4.258,4.453,6.396,10.234,6.396,17.306
	c0,4.647-1.006,8.965-3.008,12.969c-2.012,3.983-4.766,7.051-8.262,9.16c-3.506,2.129-7.49,3.184-11.934,3.184
	c-7.578,0-13.77-2.772-18.545-8.359c-4.795-5.565-7.178-14.766-7.178-27.577c0-14.316,2.637-24.728,7.93-31.23
	c4.619-5.664,10.83-8.496,18.652-8.496c5.83,0,10.605,1.642,14.326,4.902C248.052,782.107,250.278,786.619,251.021,792.381
	L251.021,792.381z M213.872,824.314c-0.008,3.111,0.672,6.186,1.992,9.004c1.338,2.871,3.193,5.059,5.586,6.543
	c2.393,1.504,4.902,2.246,7.529,2.246c3.848,0,7.148-1.543,9.912-4.648c2.764-3.086,4.141-7.305,4.141-12.637
	c0-5.117-1.357-9.142-4.092-12.09c-2.725-2.949-6.162-4.435-10.313-4.435c-4.111,0-7.598,1.484-10.459,4.435
	C215.307,815.682,213.872,819.549,213.872,824.314L213.872,824.314z M290.552,848.338v-17.754h-32.139v-8.34l33.809-48.008h7.432
	v48.008h10.01v8.34h-10.01v17.754H290.552z M290.552,822.244v-33.398l-23.193,33.398H290.552z M375.601,382.014v-31.146h80.458
	v73.651c-7.813,7.563-19.149,14.229-33.983,19.985c-14.844,5.762-29.873,8.642-45.088,8.642c-19.336,0-36.201-4.057-50.576-12.172
	c-14.375-8.109-25.176-19.717-32.412-34.81c-7.227-15.088-10.84-31.504-10.84-49.248c0-19.253,4.033-36.362,12.1-51.328
	c8.076-14.966,19.883-26.44,35.439-34.429c11.855-6.138,26.611-9.209,44.268-9.209c22.959,0,40.89,4.814,53.789,14.443
	c12.91,9.629,21.211,22.93,24.912,39.912l-37.08,6.938c-2.606-9.082-7.5-16.245-14.688-21.504
	c-7.197-5.254-16.172-7.881-26.935-7.881c-16.309,0-29.277,5.171-38.906,15.513c-9.629,10.342-14.434,25.684-14.434,46.03
	c0,21.947,4.873,38.402,14.629,49.375c9.746,10.972,22.529,16.46,38.34,16.46c7.813,0,15.654-1.533,23.516-4.604
	c7.86-3.066,14.608-6.787,20.244-11.162v-23.457L375.601,382.014L375.601,382.014z M567.808,407.366l35.313,5.928
	c-4.541,12.949-11.709,22.808-21.504,29.575c-9.795,6.767-22.051,10.15-36.769,10.15c-23.291,0-40.526-7.606-51.709-22.826
	c-8.828-12.192-13.241-27.578-13.241-46.157c0-22.197,5.801-39.58,17.411-52.153c11.603-12.568,26.271-18.853,44.015-18.853
	c19.922,0,35.645,6.577,47.168,19.735c11.514,13.159,17.021,33.315,16.522,60.475h-88.789c0.255,10.513,3.105,18.687,8.574,24.53
	c5.469,5.845,12.275,8.766,20.43,8.766c5.548,0,10.216-1.515,14.005-4.541C563.013,418.967,565.874,414.094,567.808,407.366
	L567.808,407.366z M569.819,371.545c-0.244-10.254-2.9-18.052-7.939-23.394c-5.049-5.338-11.182-8.009-18.418-8.009
	c-7.734,0-14.121,2.817-19.17,8.452c-5.039,5.63-7.521,13.286-7.441,22.949L569.819,371.545L569.819,371.545z M859.438,109.211
	v7.588h-42.5c-0.069-1.871,0.243-3.737,0.919-5.483c1.084-2.896,2.813-5.747,5.194-8.555c2.382-2.808,5.83-6.055,10.332-9.736
	c6.992-5.732,11.709-10.273,14.17-13.623c2.451-3.35,3.683-6.514,3.683-9.497c0-3.13-1.113-5.767-3.351-7.915
	c-2.246-2.153-5.156-3.228-8.76-3.228c-3.799,0-6.836,1.143-9.121,3.423c-2.275,2.28-3.438,5.439-3.467,9.478l-8.115-0.835
	c0.558-6.055,2.646-10.669,6.279-13.843c3.623-3.169,8.486-4.756,14.6-4.756c6.172,0,11.056,1.709,14.658,5.132
	c3.594,3.423,5.391,7.661,5.391,12.72c0,2.573-0.526,5.103-1.571,7.588c-1.056,2.485-2.804,5.107-5.244,7.852
	c-2.441,2.749-6.504,6.523-12.178,11.318c-4.736,3.979-7.773,6.675-9.121,8.096c-1.349,1.416-2.461,2.842-3.341,4.277
	L859.438,109.211L859.438,109.211z M830.093,171.765c-3.271-1.201-5.703-2.91-7.285-5.132c-1.571-2.222-2.362-4.888-2.362-7.983
	c0-4.683,1.68-8.613,5.039-11.802c3.369-3.188,7.842-4.78,13.428-4.78c5.615,0,10.137,1.631,13.555,4.888
	c3.418,3.262,5.138,7.231,5.138,11.914c0,2.979-0.791,5.576-2.354,7.783c-1.563,2.207-3.936,3.911-7.129,5.112
	c3.955,1.284,6.953,3.364,9.014,6.226c2.07,2.871,3.097,6.289,3.097,10.269c0,5.498-1.943,10.117-5.83,13.862
	c-3.896,3.74-9.015,5.615-15.361,5.615c-6.338,0-11.455-1.88-15.353-5.64c-3.887-3.755-5.829-8.442-5.829-14.058
	c0-4.185,1.055-7.686,3.184-10.508C823.159,174.709,826.177,172.786,830.093,171.765z M825.972,188.083
	c0,2.251,0.527,4.429,1.603,6.533c1.063,2.109,2.656,3.74,4.756,4.893c2.08,1.149,4.42,1.746,6.797,1.733
	c3.779,0,6.896-1.211,9.346-3.643c2.461-2.427,3.691-5.513,3.691-9.253c0-3.804-1.271-6.948-3.799-9.434
	c-2.529-2.486-5.693-3.726-9.502-3.726c-3.711,0-6.787,1.226-9.229,3.682C827.192,181.324,825.972,184.397,825.972,188.083
	L825.972,188.083z M828.511,158.386c0,3.042,0.986,5.527,2.939,7.456c1.963,1.929,4.502,2.896,7.637,2.896
	c3.037,0,5.537-0.957,7.48-2.876c1.942-1.914,2.92-4.258,2.92-7.036c0-2.896-1.006-5.332-3.008-7.305
	c-2.003-1.978-4.503-2.964-7.48-2.964c-3.018,0-5.518,0.967-7.5,2.896C829.507,153.386,828.511,155.696,828.511,158.386
	L828.511,158.386z M797.71,296.477h-7.891V246.16c-1.904,1.816-4.396,3.628-7.48,5.439c-3.086,1.816-5.858,3.174-8.311,4.082v-7.632
	c4.414-2.075,8.271-4.59,11.582-7.544c3.301-2.954,5.645-5.82,7.012-8.599h5.088V296.477L797.71,296.477z M830.083,261.604
	c-3.271-1.201-5.703-2.91-7.285-5.132c-1.572-2.222-2.362-4.888-2.362-7.983c0-4.683,1.68-8.613,5.038-11.802
	c3.369-3.188,7.843-4.78,13.429-4.78c5.614,0,10.137,1.631,13.555,4.888c3.418,3.262,5.137,7.231,5.137,11.914
	c0,2.979-0.791,5.576-2.354,7.783c-1.563,2.207-3.937,3.911-7.129,5.112c3.955,1.284,6.953,3.364,9.014,6.226
	c2.07,2.871,3.096,6.289,3.096,10.269c0,5.498-1.942,10.117-5.83,13.862c-3.896,3.74-9.014,5.615-15.36,5.615
	c-6.338,0-11.455-1.88-15.353-5.64c-3.887-3.755-5.83-8.442-5.83-14.058c0-4.185,1.056-7.686,3.185-10.508
	C823.149,264.548,826.167,262.625,830.083,261.604z M825.962,277.922c0,2.251,0.527,4.429,1.603,6.533
	c1.063,2.109,2.655,3.74,4.756,4.893c2.08,1.149,4.42,1.745,6.797,1.733c3.779,0,6.895-1.211,9.346-3.643
	c2.461-2.427,3.691-5.513,3.691-9.253c0-3.804-1.271-6.948-3.799-9.434c-2.529-2.486-5.693-3.726-9.503-3.726
	c-3.711,0-6.786,1.226-9.229,3.682S825.962,274.236,825.962,277.922L825.962,277.922z M828.501,248.225
	c0,3.042,0.986,5.527,2.939,7.456c1.963,1.929,4.502,2.896,7.637,2.896c3.037,0,5.537-0.957,7.479-2.876
	c1.943-1.914,2.92-4.258,2.92-7.036c0-2.896-1.006-5.332-3.008-7.305c-2.002-1.978-4.502-2.964-7.479-2.964
	c-3.019,0-5.519,0.967-7.5,2.896C829.497,243.225,828.501,245.535,828.501,248.225L828.501,248.225z M843.257,386.316V370.92
	h-27.899v-7.241l29.346-41.67h6.445v41.67h8.69v7.241h-8.69v15.396H843.257L843.257,386.316z M843.257,363.679v-28.994
	l-20.137,28.994H843.257z"/>
</svg>
