<?xml version="1.0" encoding="utf-8"?>
<!-- Generator: Adobe Illustrator 16.0.3, SVG Export Plug-In . SVG Version: 6.00 Build 0)  -->
<!DOCTYPE svg PUBLIC "-//W3C//DTD SVG 1.1//EN" "http://www.w3.org/Graphics/SVG/1.1/DTD/svg11.dtd">
<svg version="1.1" id="Layer_1" xmlns="http://www.w3.org/2000/svg" xmlns:xlink="http://www.w3.org/1999/xlink" x="0px" y="0px"
	 width="900px" height="900px" viewBox="0 0 900 900" enable-background="new 0 0 900 900" xml:space="preserve">
<path d="M39.6,133.831l13.838-1.846c1.592,7.842,4.297,13.491,8.115,16.953c3.818,3.457,8.467,5.186,13.955,5.186
	c6.504,0,12.002-2.251,16.484-6.763c4.482-4.512,6.729-10.098,6.729-16.763c0-6.353-2.08-11.592-6.23-15.723
	c-4.15-4.121-9.424-6.187-15.83-6.187c-2.617,0-5.869,0.513-9.766,1.538l1.533-12.148c0.928,0.103,1.67,0.156,2.236,0.156
	c5.889,0,11.191-1.538,15.908-4.614c4.717-3.076,7.07-7.817,7.07-14.224c0-5.073-1.709-9.277-5.146-12.607s-7.871-5-13.301-5
	c-5.381,0-9.863,1.694-13.457,5.078c-3.584,3.379-5.889,8.457-6.914,15.22l-13.838-2.461c1.689-9.272,5.537-16.465,11.533-21.563
	c5.996-5.103,13.447-7.651,22.373-7.651c6.143,0,11.807,1.323,16.982,3.96c5.176,2.642,9.141,6.24,11.885,10.801
	c2.734,4.565,4.111,9.409,4.111,14.531c0,4.868-1.309,9.302-3.926,13.301c-2.607,3.999-6.484,7.178-11.602,9.531
	c6.66,1.538,11.836,4.731,15.527,9.575c3.691,4.844,5.537,10.903,5.537,18.179c0,9.844-3.594,18.184-10.762,25.024
	c-7.178,6.846-16.25,10.264-27.217,10.264c-9.893,0-18.105-2.944-24.648-8.838C44.248,150.847,40.527,143.21,39.6,133.831z
	 M127.168,133.831l13.838-1.846c1.592,7.842,4.297,13.491,8.115,16.953c3.818,3.457,8.467,5.186,13.955,5.186
	c6.504,0,12.002-2.251,16.484-6.763c4.482-4.512,6.729-10.098,6.729-16.763c0-6.353-2.08-11.592-6.23-15.723
	c-4.15-4.121-9.424-6.187-15.83-6.187c-2.617,0-5.869,0.513-9.766,1.538l1.533-12.148c0.928,0.103,1.67,0.156,2.236,0.156
	c5.889,0,11.191-1.538,15.908-4.614c4.717-3.076,7.07-7.817,7.07-14.224c0-5.073-1.709-9.277-5.146-12.607s-7.871-5-13.301-5
	c-5.381,0-9.863,1.694-13.457,5.078c-3.584,3.379-5.889,8.457-6.914,15.22l-13.838-2.461c1.689-9.272,5.537-16.465,11.533-21.563
	c5.996-5.103,13.447-7.651,22.373-7.651c6.143,0,11.807,1.323,16.982,3.96c5.176,2.642,9.141,6.24,11.885,10.801
	c2.734,4.565,4.111,9.409,4.111,14.531c0,4.868-1.309,9.302-3.926,13.301c-2.607,3.999-6.484,7.178-11.602,9.531
	c6.66,1.538,11.836,4.731,15.527,9.575c3.691,4.844,5.537,10.903,5.537,18.179c0,9.844-3.594,18.184-10.762,25.024
	c-7.178,6.846-16.25,10.264-27.217,10.264c-9.893,0-18.105-2.944-24.648-8.838C131.816,150.847,128.096,143.21,127.168,133.831
	L127.168,133.831z M275.83,662.498l28.457-74.102h10.566l30.332,74.102h-11.172l-8.643-22.441h-30.986l-8.135,22.441H275.83z
	 M297.217,632.068h25.117l-7.734-20.527c-2.354-6.23-4.111-11.348-5.254-15.371c-0.961,4.816-2.297,9.551-3.994,14.16
	L297.217,632.068z M351.748,662.498v-53.691h8.193v8.146c2.09-3.81,4.014-6.31,5.781-7.539c1.777-1.211,3.721-1.816,5.84-1.816
	c3.066,0,6.182,0.978,9.355,2.931l-3.135,8.457c-2.227-1.328-4.453-1.974-6.67-1.974c-1.992,0-3.779,0.586-5.361,1.797
	c-1.582,1.191-2.715,2.853-3.389,4.961c-1.006,3.242-1.514,6.777-1.514,10.625v28.105L351.748,662.498L351.748,662.498z
	 M382.686,646.463l8.994-1.406c0.508,3.613,1.914,6.367,4.229,8.281c2.305,1.935,5.526,2.891,9.678,2.891
	c4.18,0,7.275-0.858,9.297-2.559c2.022-1.7,3.037-3.691,3.037-5.996c0-2.051-0.897-3.672-2.686-4.844
	c-1.24-0.801-4.347-1.836-9.298-3.086c-6.67-1.68-11.298-3.146-13.876-4.375c-2.578-1.23-4.531-2.93-5.859-5.098
	c-1.338-2.169-2.002-4.57-2.002-7.207c0-2.384,0.547-4.609,1.65-6.642c1.076-2.018,2.607-3.756,4.473-5.078
	c1.416-1.055,3.34-1.934,5.781-2.655c2.441-0.723,5.068-1.095,7.861-1.095c4.209,0,7.91,0.605,11.094,1.816
	c3.185,1.229,5.537,2.871,7.052,4.94c1.514,2.07,2.559,4.845,3.135,8.302l-8.896,1.229c-0.399-2.772-1.571-4.922-3.516-6.483
	c-1.935-1.544-4.668-2.324-8.213-2.324c-4.181,0-7.158,0.703-8.945,2.069c-1.787,1.388-2.676,3.009-2.676,4.863
	c0,1.172,0.371,2.246,1.113,3.185c0.742,0.977,1.904,1.776,3.486,2.422c0.908,0.332,3.584,1.112,8.037,2.323
	c6.437,1.72,10.928,3.125,13.467,4.22c2.55,1.094,4.541,2.694,5.996,4.785c1.445,2.09,2.168,4.688,2.168,7.772
	c0,3.047-0.879,5.898-2.655,8.574c-1.769,2.676-4.316,4.746-7.656,6.211c-3.33,1.465-7.109,2.207-11.318,2.207
	c-6.973,0-12.295-1.445-15.947-4.355C386.025,656.463,383.701,652.166,382.686,646.463L382.686,646.463z M474.834,645.213
	l9.395,1.152c-1.483,5.487-4.229,9.766-8.231,12.793c-4.014,3.026-9.142,4.551-15.371,4.551c-7.852,0-14.072-2.422-18.672-7.266
	c-4.601-4.824-6.904-11.603-6.904-20.332c0-9.023,2.324-16.035,6.974-21.035c4.657-4.98,10.684-7.48,18.096-7.48
	c7.178,0,13.047,2.441,17.598,7.345c4.541,4.883,6.816,11.758,6.816,20.604c0,0.547-0.01,1.349-0.049,2.441h-40.029
	c0.332,5.897,2.002,10.41,5,13.535c2.998,3.145,6.738,4.707,11.221,4.707c3.34,0,6.183-0.88,8.545-2.638
	C471.582,651.854,473.447,649.041,474.834,645.213z M444.961,630.506h29.971c-0.41-4.531-1.553-7.91-3.438-10.176
	c-2.9-3.496-6.66-5.254-11.271-5.254c-4.18,0-7.694,1.406-10.536,4.199C446.836,622.068,445.264,625.818,444.961,630.506
	L444.961,630.506z M495.654,662.498v-53.691h8.184v7.638c3.945-5.898,9.639-8.849,17.09-8.849c3.232,0,6.201,0.586,8.916,1.759
	c2.715,1.151,4.746,2.676,6.094,4.569c1.349,1.875,2.285,4.121,2.832,6.719c0.332,1.681,0.498,4.63,0.498,8.849v33.008h-9.092
	v-32.656c0-3.711-0.352-6.483-1.063-8.319c-0.703-1.836-1.964-3.302-3.761-4.396c-1.807-1.094-3.926-1.641-6.348-1.641
	c-3.877,0-7.217,1.229-10.029,3.69c-2.821,2.461-4.229,7.129-4.229,14.004v29.316H495.654L495.654,662.498z M553.271,598.865
	v-10.469h9.102v10.469H553.271z M553.271,662.498v-53.691h9.102v53.691H553.271z M611.25,642.83l8.945,1.172
	c-0.978,6.152-3.486,10.978-7.511,14.473c-4.023,3.496-8.975,5.234-14.834,5.234c-7.344,0-13.252-2.402-17.715-7.207
	s-6.698-11.68-6.698-20.645c0-5.802,0.956-10.859,2.881-15.215c1.924-4.356,4.844-7.617,8.77-9.785s8.193-3.263,12.813-3.263
	c5.83,0,10.596,1.484,14.307,4.435c3.701,2.949,6.084,7.129,7.129,12.559l-8.848,1.367c-0.84-3.613-2.334-6.328-4.474-8.145
	c-2.139-1.817-4.727-2.734-7.764-2.734c-4.58,0-8.301,1.641-11.162,4.941c-2.871,3.28-4.297,8.477-4.297,15.586
	c0,7.207,1.377,12.461,4.141,15.723c2.765,3.262,6.367,4.902,10.82,4.902c3.564,0,6.553-1.095,8.945-3.281
	C609.091,650.76,610.605,647.381,611.25,642.83L611.25,642.83z M60.342,783.943v-8.75h47.969v7.069
	c-4.717,5.021-9.395,11.699-14.023,20.021c-4.639,8.32-8.213,16.895-10.742,25.684c-1.826,6.191-2.988,12.988-3.486,20.371h-9.355
	c0.098-5.84,1.25-12.871,3.438-21.133s5.332-16.211,9.424-23.887c4.102-7.656,8.457-14.121,13.066-19.375H60.342z M146.465,848.338
	v-17.754h-32.139v-8.34l33.809-48.008h7.432v48.008h10.01v8.34h-10.01v17.754H146.465z M146.465,822.244v-33.398l-23.193,33.398
	H146.465z M179.98,848.338v-10.371h10.361v10.371H179.98z M205,831.189l8.74-0.802c0.742,4.121,2.158,7.091,4.248,8.945
	c2.09,1.854,4.766,2.773,8.037,2.773c2.793,0,5.244-0.625,7.354-1.914c2.109-1.271,3.828-2.988,5.176-5.138
	c1.348-2.129,2.48-5.02,3.389-8.651c0.91-3.642,1.369-7.38,1.367-11.134c0-0.391-0.02-0.995-0.049-1.815
	c-1.826,2.891-4.307,5.254-7.461,7.051c-3.111,1.794-6.643,2.73-10.234,2.715c-6.133,0-11.318-2.227-15.566-6.68
	s-6.367-10.313-6.367-17.598c0-7.5,2.217-13.556,6.65-18.146c4.424-4.57,9.98-6.875,16.65-6.875c4.814,0,9.229,1.31,13.213,3.906
	c3.994,2.598,7.031,6.289,9.102,11.094s3.105,11.738,3.105,20.84c0,9.474-1.025,17.013-3.076,22.617
	c-2.061,5.625-5.117,9.883-9.18,12.813c-4.063,2.93-8.818,4.395-14.277,4.395c-5.791,0-10.527-1.602-14.199-4.824
	C207.949,841.562,205.742,837.029,205,831.189L205,831.189z M242.246,798.494c0-5.215-1.387-9.375-4.17-12.441
	c-2.773-3.065-6.123-4.59-10.029-4.59c-4.043,0-7.568,1.66-10.566,4.961s-4.502,7.578-4.502,12.832
	c0,4.707,1.426,8.555,4.277,11.504c2.842,2.949,6.357,4.414,10.537,4.414c4.209,0,7.676-1.465,10.391-4.414
	C240.889,807.811,242.246,803.729,242.246,798.494z M309.023,839.588v8.75h-48.975c-0.075-2.159,0.288-4.312,1.064-6.328
	c1.24-3.34,3.242-6.621,5.986-9.844c2.744-3.242,6.709-6.992,11.904-11.23c8.047-6.602,13.496-11.836,16.328-15.684
	c2.822-3.867,4.238-7.52,4.238-10.957c0-3.594-1.289-6.641-3.867-9.121c-2.578-2.479-5.938-3.711-10.078-3.711
	c-4.385,0-7.891,1.31-10.518,3.945c-2.627,2.617-3.955,6.27-3.994,10.918l-9.346-0.957c0.635-6.973,3.047-12.305,7.227-15.957
	c4.18-3.652,9.785-5.488,16.836-5.488c7.109,0,12.734,1.974,16.875,5.918c4.15,3.945,6.221,8.828,6.221,14.668
	c0,2.949-0.605,5.88-1.816,8.73c-1.221,2.871-3.232,5.879-6.045,9.063c-2.813,3.164-7.49,7.5-14.023,13.027
	c-5.459,4.59-8.965,7.695-10.518,9.336c-1.553,1.621-2.832,3.281-3.838,4.922H309.023L309.023,839.588z M366.592,839.588v8.75
	h-48.975c-0.075-2.159,0.287-4.312,1.064-6.328c1.24-3.34,3.242-6.621,5.986-9.844c2.744-3.242,6.709-6.992,11.904-11.23
	c8.047-6.602,13.496-11.836,16.328-15.684c2.822-3.867,4.238-7.52,4.238-10.957c0-3.594-1.289-6.641-3.867-9.121
	c-2.578-2.479-5.938-3.711-10.078-3.711c-4.385,0-7.891,1.31-10.518,3.945c-2.627,2.617-3.955,6.27-3.994,10.918l-9.346-0.957
	c0.635-6.973,3.047-12.305,7.227-15.957s9.785-5.488,16.836-5.488c7.109,0,12.734,1.974,16.875,5.918
	c4.15,3.945,6.221,8.828,6.221,14.668c0,2.949-0.605,5.88-1.816,8.73c-1.221,2.871-3.232,5.879-6.045,9.063
	c-2.813,3.164-7.49,7.5-14.023,13.027c-5.459,4.59-8.965,7.695-10.518,9.336c-1.553,1.621-2.832,3.281-3.838,4.922H366.592
	L366.592,839.588z M463.311,449.993h-40.604l-16.144-41.997h-73.905l-15.264,41.997h-39.6l72.012-184.888h39.473L463.311,449.993
	L463.311,449.993z M394.58,376.843l-25.479-68.607l-24.971,68.607H394.58z M470.371,411.78l35.566-5.425
	c1.514,6.895,4.579,12.129,9.209,15.702c4.618,3.574,11.094,5.361,19.414,5.361c9.17,0,16.063-1.685,20.684-5.049
	c3.115-2.349,4.668-5.503,4.668-9.458c0-2.69-0.84-4.917-2.52-6.686c-1.769-1.68-5.724-3.231-11.855-4.662
	c-28.584-6.31-46.709-12.065-54.355-17.28c-10.596-7.231-15.889-17.275-15.889-30.143c0-11.602,4.58-21.353,13.74-29.258
	c9.17-7.904,23.379-11.854,42.627-11.854c18.33,0,31.953,2.982,40.869,8.955c8.906,5.972,15.049,14.8,18.408,26.483l-33.418,6.177
	c-1.437-5.21-4.142-9.203-8.136-11.978c-3.993-2.778-9.696-4.165-17.09-4.165c-9.336,0-16.016,1.304-20.059,3.911
	c-2.687,1.851-4.033,4.248-4.033,7.188c0,2.524,1.182,4.668,3.535,6.437c3.192,2.354,14.229,5.674,33.104,9.961
	s32.052,9.546,39.541,15.767c7.394,6.305,11.095,15.094,11.095,26.357c0,12.275-5.128,22.827-15.392,31.655
	c-10.254,8.828-25.43,13.241-45.526,13.241c-18.242,0-32.687-3.7-43.32-11.098C480.605,434.524,473.652,424.475,470.371,411.78
	L470.371,411.78z M859.258,109.211v7.588h-42.5c-0.069-1.871,0.242-3.736,0.918-5.483c1.084-2.896,2.813-5.747,5.195-8.555
	c2.382-2.808,5.83-6.055,10.332-9.736c6.992-5.732,11.709-10.273,14.17-13.623c2.451-3.35,3.682-6.514,3.682-9.497
	c0-3.13-1.112-5.767-3.35-7.915c-2.246-2.153-5.156-3.228-8.76-3.228c-3.799,0-6.836,1.143-9.121,3.423
	c-2.275,2.28-3.438,5.439-3.467,9.478l-8.115-0.835c0.557-6.055,2.646-10.669,6.279-13.843c3.623-3.169,8.485-4.756,14.6-4.756
	c6.172,0,11.055,1.709,14.658,5.132c3.594,3.423,5.391,7.661,5.391,12.72c0,2.573-0.526,5.103-1.572,7.588
	c-1.055,2.485-2.803,5.107-5.243,7.852c-2.441,2.749-6.505,6.523-12.179,11.318c-4.735,3.979-7.772,6.675-9.121,8.096
	c-1.348,1.416-2.461,2.842-3.34,4.277L859.258,109.211L859.258,109.211z M829.912,171.765c-3.271-1.201-5.703-2.91-7.285-5.132
	c-1.572-2.222-2.363-4.888-2.363-7.983c0-4.683,1.681-8.613,5.039-11.802c3.369-3.188,7.843-4.78,13.429-4.78
	c5.614,0,10.137,1.631,13.555,4.888c3.418,3.262,5.137,7.231,5.137,11.914c0,2.979-0.791,5.576-2.354,7.783
	c-1.563,2.207-3.937,3.911-7.129,5.112c3.955,1.284,6.952,3.364,9.014,6.226c2.07,2.871,3.096,6.289,3.096,10.269
	c0,5.498-1.942,10.117-5.83,13.862c-3.896,3.74-9.014,5.615-15.36,5.615c-6.338,0-11.455-1.88-15.353-5.64
	c-3.887-3.755-5.83-8.442-5.83-14.058c0-4.185,1.056-7.686,3.185-10.508C822.979,174.709,825.996,172.786,829.912,171.765z
	 M825.791,188.083c0,2.251,0.527,4.429,1.602,6.533c1.064,2.109,2.656,3.74,4.757,4.893c2.08,1.149,4.42,1.746,6.797,1.733
	c3.778,0,6.895-1.211,9.346-3.643c2.461-2.427,3.691-5.513,3.691-9.253c0-3.804-1.271-6.948-3.8-9.434
	c-2.528-2.486-5.692-3.726-9.502-3.726c-3.711,0-6.787,1.226-9.229,3.682C827.011,181.324,825.791,184.397,825.791,188.083
	L825.791,188.083z M828.33,158.386c0,3.042,0.986,5.527,2.939,7.456c1.963,1.929,4.502,2.896,7.637,2.896
	c3.037,0,5.537-0.957,7.479-2.876c1.943-1.914,2.92-4.258,2.92-7.036c0-2.896-1.006-5.332-3.008-7.305
	c-2.002-1.978-4.502-2.964-7.479-2.964c-3.019,0-5.519,0.967-7.5,2.896C829.326,153.386,828.33,155.696,828.33,158.386
	L828.33,158.386z M797.529,296.477h-7.892V246.16c-1.903,1.816-4.395,3.628-7.479,5.439c-3.086,1.816-5.859,3.174-8.312,4.082
	v-7.632c4.414-2.075,8.271-4.59,11.582-7.544c3.302-2.954,5.646-5.82,7.013-8.599h5.088V296.477L797.529,296.477z M829.902,261.604
	c-3.271-1.201-5.703-2.91-7.285-5.132c-1.572-2.222-2.363-4.888-2.363-7.983c0-4.683,1.68-8.613,5.039-11.802
	c3.369-3.188,7.842-4.78,13.428-4.78c5.615,0,10.138,1.631,13.556,4.888c3.418,3.262,5.137,7.231,5.137,11.914
	c0,2.979-0.791,5.576-2.354,7.783c-1.563,2.207-3.936,3.911-7.129,5.112c3.955,1.284,6.953,3.364,9.015,6.226
	c2.069,2.871,3.096,6.289,3.096,10.269c0,5.498-1.943,10.117-5.83,13.862c-3.896,3.74-9.014,5.615-15.361,5.615
	c-6.338,0-11.455-1.88-15.352-5.64c-3.887-3.755-5.83-8.442-5.83-14.058c0-4.185,1.055-7.686,3.184-10.508
	C822.969,264.548,825.986,262.625,829.902,261.604z M825.781,277.922c0,2.251,0.526,4.429,1.602,6.533
	c1.064,2.109,2.656,3.74,4.756,4.893c2.081,1.149,4.421,1.746,6.797,1.733c3.779,0,6.896-1.211,9.347-3.643
	c2.461-2.427,3.69-5.513,3.69-9.253c0-3.804-1.27-6.948-3.799-9.434c-2.529-2.486-5.692-3.726-9.502-3.726
	c-3.711,0-6.787,1.226-9.229,3.682C827.001,271.163,825.781,274.236,825.781,277.922L825.781,277.922z M828.32,248.225
	c0,3.042,0.985,5.527,2.938,7.456c1.963,1.929,4.502,2.896,7.638,2.896c3.037,0,5.537-0.957,7.479-2.876
	c1.943-1.914,2.92-4.258,2.92-7.036c0-2.896-1.006-5.332-3.008-7.305c-2.002-1.978-4.502-2.964-7.479-2.964
	c-3.019,0-5.519,0.967-7.5,2.896C829.316,243.225,828.32,245.535,828.32,248.225L828.32,248.225z M817.764,369.47l8.291-0.703
	c0.615,4.038,2.041,7.07,4.277,9.106c2.236,2.031,4.932,3.047,8.096,3.047c3.799,0,7.013-1.431,9.648-4.297
	c2.627-2.866,3.945-6.67,3.945-11.406c0-4.507-1.271-8.057-3.8-10.659c-2.528-2.602-5.84-3.905-9.932-3.905
	c-2.539,0-4.844,0.575-6.885,1.732c-2.052,1.157-3.662,2.651-4.824,4.497l-7.412-0.967l6.221-33.032h31.982v7.544h-25.664
	l-3.467,17.285c3.867-2.69,7.91-4.033,12.158-4.033c5.614,0,10.352,1.943,14.209,5.83c3.856,3.893,5.791,8.893,5.791,15.005
	c0,5.82-1.699,10.851-5.089,15.088c-4.12,5.21-9.756,7.813-16.885,7.813c-5.85,0-10.625-1.641-14.326-4.917
	C820.4,379.226,818.291,374.88,817.764,369.47L817.764,369.47z"/>
</svg>
