<?xml version="1.0" encoding="utf-8"?>
<!-- Generator: Adobe Illustrator 16.0.3, SVG Export Plug-In . SVG Version: 6.00 Build 0)  -->
<!DOCTYPE svg PUBLIC "-//W3C//DTD SVG 1.1//EN" "http://www.w3.org/Graphics/SVG/1.1/DTD/svg11.dtd">
<svg version="1.1" id="Layer_1" xmlns="http://www.w3.org/2000/svg" xmlns:xlink="http://www.w3.org/1999/xlink" x="0px" y="0px"
	 width="900px" height="900px" viewBox="0 0 900 900" enable-background="new 0 0 900 900" xml:space="preserve">
<path d="M39.771,133.831l13.838-1.846c1.592,7.842,4.297,13.491,8.115,16.953c3.818,3.457,8.467,5.186,13.955,5.186
	c6.504,0,12.002-2.251,16.484-6.763c4.482-4.512,6.729-10.098,6.729-16.763c0-6.353-2.08-11.592-6.23-15.723
	c-4.15-4.121-9.424-6.187-15.83-6.187c-2.617,0-5.869,0.513-9.766,1.538l1.533-12.148c0.928,0.103,1.67,0.156,2.236,0.156
	c5.889,0,11.191-1.538,15.908-4.614c4.717-3.076,7.07-7.817,7.07-14.224c0-5.073-1.709-9.277-5.146-12.607s-7.871-5-13.301-5
	c-5.381,0-9.863,1.694-13.457,5.078c-3.584,3.379-5.889,8.457-6.914,15.22l-13.838-2.461c1.689-9.272,5.537-16.465,11.533-21.563
	c5.996-5.103,13.447-7.651,22.373-7.651c6.143,0,11.807,1.323,16.982,3.96c5.176,2.642,9.141,6.24,11.885,10.801
	c2.734,4.565,4.111,9.409,4.111,14.531c0,4.868-1.309,9.302-3.926,13.301c-2.607,3.999-6.484,7.178-11.602,9.531
	c6.66,1.538,11.836,4.731,15.527,9.575c3.691,4.844,5.537,10.903,5.537,18.179c0,9.844-3.594,18.184-10.762,25.024
	c-7.178,6.846-16.25,10.264-27.217,10.264c-9.893,0-18.105-2.944-24.648-8.838C44.419,150.847,40.698,143.21,39.771,133.831z
	 M171.626,163.582v-26.987H122.73v-12.681l51.426-73.037h11.309v73.037h15.215v12.681h-15.215v26.987H171.626L171.626,163.582z
	 M171.626,123.914v-50.82l-35.293,50.82H171.626z M237.554,638.689l9.248-0.82c0.439,3.711,1.465,6.758,3.057,9.141
	c1.602,2.363,4.092,4.297,7.461,5.763c3.369,1.465,7.158,2.188,11.367,2.188c3.74,0,7.051-0.547,9.912-1.66
	c2.861-1.112,4.99-2.637,6.396-4.569c1.396-1.953,2.09-4.063,2.09-6.349c0-2.324-0.674-4.354-2.021-6.094s-3.564-3.203-6.67-4.375
	c-1.982-0.781-6.387-1.973-13.193-3.613c-6.806-1.64-11.572-3.184-14.297-4.629c-3.545-1.854-6.182-4.141-7.91-6.895
	c-1.738-2.755-2.607-5.82-2.607-9.22c0-3.75,1.064-7.246,3.184-10.487c2.119-3.263,5.225-5.724,9.297-7.402
	c4.082-1.699,8.613-2.539,13.604-2.539c5.488,0,10.332,0.879,14.531,2.656c4.189,1.776,7.422,4.375,9.678,7.813
	c2.256,3.438,3.467,7.324,3.643,11.681l-9.404,0.703c-0.508-4.688-2.217-8.224-5.127-10.625c-2.92-2.384-7.227-3.574-12.92-3.574
	c-5.928,0-10.254,1.074-12.959,3.262c-2.715,2.168-4.072,4.785-4.072,7.853c0,2.655,0.957,4.844,2.881,6.563
	c1.885,1.719,6.816,3.496,14.785,5.293c7.969,1.797,13.438,3.379,16.396,4.728c4.316,1.991,7.5,4.512,9.561,7.559
	c2.051,3.047,3.076,6.563,3.076,10.527c0,3.944-1.123,7.655-3.379,11.151c-2.266,3.496-5.508,6.191-9.736,8.146
	c-4.229,1.934-8.984,2.891-14.277,2.891c-6.709,0-12.324-0.977-16.855-2.93c-4.531-1.953-8.086-4.883-10.664-8.81
	C239.052,648.087,237.69,643.631,237.554,638.689L237.554,638.689z M345.522,645.213l9.395,1.152
	c-1.484,5.487-4.229,9.766-8.232,12.793c-4.014,3.026-9.141,4.551-15.371,4.551c-7.852,0-14.072-2.422-18.672-7.266
	c-4.6-4.824-6.904-11.603-6.904-20.332c0-9.023,2.324-16.035,6.973-21.035c4.658-4.98,10.684-7.48,18.096-7.48
	c7.178,0,13.047,2.441,17.598,7.345c4.541,4.883,6.816,11.758,6.816,20.604c0,0.547-0.01,1.349-0.049,2.441h-40.029
	c0.332,5.897,2.002,10.41,5,13.535c2.998,3.145,6.738,4.707,11.221,4.707c3.34,0,6.182-0.88,8.545-2.638
	C342.271,651.854,344.136,649.041,345.522,645.213L345.522,645.213z M315.649,630.506h29.971c-0.41-4.531-1.553-7.91-3.438-10.176
	c-2.9-3.496-6.66-5.254-11.27-5.254c-4.18,0-7.695,1.406-10.537,4.199C317.524,622.068,315.952,625.818,315.649,630.506
	L315.649,630.506z M366.138,662.498v-74.102h9.102v74.102H366.138z M426.089,645.213l9.396,1.152
	c-1.484,5.488-4.229,9.766-8.232,12.793c-4.014,3.027-9.141,4.551-15.371,4.551c-7.852,0-14.072-2.422-18.672-7.266
	c-4.6-4.824-6.904-11.603-6.904-20.332c0-9.023,2.324-16.035,6.973-21.035c4.658-4.98,10.684-7.48,18.096-7.48
	c7.178,0,13.047,2.441,17.598,7.345c4.541,4.883,6.816,11.758,6.816,20.604c0,0.547-0.01,1.349-0.049,2.441H395.71
	c0.332,5.897,2.002,10.41,5,13.535c2.998,3.145,6.738,4.707,11.221,4.707c3.341,0,6.183-0.88,8.545-2.638
	C422.837,651.854,424.702,649.041,426.089,645.213L426.089,645.213z M396.216,630.506h29.972c-0.41-4.531-1.554-7.91-3.438-10.176
	c-2.9-3.496-6.66-5.254-11.27-5.254c-4.181,0-7.695,1.406-10.537,4.199C398.091,622.068,396.52,625.818,396.216,630.506
	L396.216,630.506z M446.919,662.498v-53.691h8.185v7.638c3.944-5.898,9.639-8.849,17.09-8.849c3.231,0,6.2,0.586,8.916,1.759
	c2.715,1.151,4.746,2.676,6.094,4.569c1.348,1.875,2.285,4.121,2.832,6.72c0.332,1.68,0.498,4.629,0.498,8.848v33.008h-9.092
	v-32.656c0-3.711-0.353-6.483-1.064-8.319c-0.703-1.836-1.963-3.302-3.76-4.396c-1.808-1.094-3.926-1.641-6.349-1.641
	c-3.877,0-7.217,1.229-10.028,3.69c-2.822,2.461-4.229,7.129-4.229,14.004v29.316H446.919L446.919,662.498z M504.536,598.865
	v-10.469h9.102v10.469H504.536z M504.536,662.498v-53.691h9.102v53.691H504.536z M562.661,662.498v-7.891
	c-4.18,6.073-9.854,9.102-17.031,9.102c-3.174,0-6.123-0.604-8.877-1.815c-2.744-1.212-4.785-2.734-6.113-4.591
	c-1.327-1.836-2.266-4.082-2.803-6.737c-0.371-1.777-0.557-4.609-0.557-8.496v-33.263h9.102v29.785c0,4.746,0.187,7.949,0.558,9.59
	c0.565,2.402,1.776,4.277,3.633,5.646c1.855,1.368,4.149,2.051,6.875,2.051c2.733,0,5.293-0.703,7.686-2.108
	c2.394-1.388,4.082-3.302,5.078-5.703c0.996-2.402,1.494-5.898,1.494-10.488v-28.77h9.092v53.69L562.661,662.498L562.661,662.498z
	 M585.054,662.498v-53.691h8.136v7.539c1.688-2.637,3.926-4.745,6.719-6.348c2.803-1.602,5.986-2.402,9.561-2.402
	c3.976,0,7.236,0.841,9.775,2.48c2.549,1.66,4.336,3.965,5.381,6.934c4.248-6.27,9.775-9.414,16.582-9.414
	c5.322,0,9.414,1.484,12.285,4.435c2.861,2.949,4.297,7.479,4.297,13.613v36.854h-9.053V628.67c0-3.633-0.293-6.25-0.879-7.852
	c-0.597-1.603-1.66-2.892-3.214-3.867c-1.553-0.977-3.368-1.465-5.459-1.465c-3.77,0-6.903,1.25-9.403,3.77
	c-2.49,2.5-3.74,6.523-3.74,12.051v31.191h-9.092v-34.883c0-4.043-0.742-7.07-2.228-9.103c-1.483-2.012-3.905-3.026-7.274-3.026
	c-2.568,0-4.933,0.684-7.109,2.03c-2.168,1.349-3.74,3.302-4.727,5.898c-0.978,2.598-1.465,6.348-1.465,11.229v27.853
	L585.054,662.498L585.054,662.498z M60.532,783.943v-8.75h47.969v7.069c-4.717,5.021-9.395,11.699-14.023,20.021
	c-4.639,8.32-8.213,16.895-10.742,25.684c-1.826,6.191-2.988,12.988-3.486,20.371h-9.355c0.098-5.84,1.25-12.871,3.438-21.133
	s5.332-16.211,9.424-23.887c4.102-7.656,8.447-14.121,13.066-19.375H60.532z M131.499,808.143c-3.779-1.366-6.572-3.34-8.398-5.897
	c-1.816-2.578-2.725-5.646-2.725-9.199c0-5.391,1.934-9.922,5.811-13.613c3.877-3.672,9.033-5.508,15.469-5.508
	c6.465,0,11.68,1.896,15.615,5.646c3.945,3.75,5.918,8.34,5.918,13.729c0,3.438-0.898,6.427-2.705,8.965
	c-1.807,2.539-4.541,4.513-8.213,5.88c4.551,1.483,8.008,3.887,10.391,7.188c2.373,3.301,3.555,7.246,3.555,11.816
	c0,6.348-2.236,11.659-6.719,15.977s-10.381,6.465-17.686,6.465c-7.314,0-13.213-2.147-17.695-6.483
	c-4.482-4.336-6.719-9.728-6.719-16.211c0-4.806,1.221-8.849,3.662-12.091C123.501,811.541,126.978,809.334,131.499,808.143
	L131.499,808.143z M126.743,826.951c0,2.598,0.615,5.098,1.846,7.539c1.23,2.422,3.057,4.297,5.488,5.625
	c2.422,1.328,5.029,1.992,7.832,1.992c4.346,0,7.93-1.388,10.762-4.181c2.832-2.813,4.248-6.367,4.248-10.664
	c0-4.395-1.455-8.008-4.375-10.879c-2.91-2.852-6.563-4.297-10.938-4.297c-4.277,0-7.832,1.426-10.645,4.258
	S126.743,822.713,126.743,826.951L126.743,826.951z M129.673,792.732c0,3.516,1.133,6.366,3.389,8.594
	c2.256,2.227,5.186,3.34,8.799,3.34c3.506,0,6.377-1.113,8.613-3.32c2.246-2.207,3.359-4.901,3.359-8.104
	c0-3.34-1.152-6.133-3.457-8.418c-2.314-2.267-5.186-3.418-8.623-3.418c-3.467,0-6.348,1.112-8.643,3.34
	C130.825,786.971,129.673,789.627,129.673,792.732z M180.171,848.338v-10.371h10.361v10.371H180.171z M205.19,831.189l8.74-0.802
	c0.742,4.121,2.158,7.091,4.248,8.945c2.09,1.854,4.766,2.773,8.037,2.773c2.793,0,5.244-0.625,7.354-1.914
	c2.109-1.271,3.828-2.988,5.176-5.138c1.348-2.129,2.48-5.02,3.389-8.651c0.91-3.642,1.369-7.38,1.367-11.134
	c0-0.391-0.02-0.995-0.049-1.815c-1.826,2.891-4.307,5.254-7.461,7.051c-3.111,1.794-6.643,2.73-10.234,2.715
	c-6.133,0-11.318-2.227-15.566-6.68s-6.367-10.313-6.367-17.598c0-7.5,2.217-13.556,6.65-18.146c4.424-4.57,9.98-6.875,16.65-6.875
	c4.814,0,9.229,1.31,13.213,3.906c3.994,2.598,7.031,6.289,9.102,11.094s3.105,11.738,3.105,20.84
	c0,9.474-1.025,17.013-3.076,22.617c-2.061,5.625-5.117,9.883-9.18,12.813c-4.063,2.93-8.818,4.395-14.277,4.395
	c-5.791,0-10.527-1.602-14.199-4.824C208.14,841.562,205.933,837.029,205.19,831.189L205.19,831.189z M242.437,798.494
	c0-5.215-1.387-9.375-4.17-12.441c-2.773-3.065-6.123-4.59-10.029-4.59c-4.043,0-7.568,1.66-10.566,4.961s-4.502,7.578-4.502,12.832
	c0,4.707,1.426,8.555,4.277,11.504c2.842,2.949,6.357,4.414,10.537,4.414c4.209,0,7.676-1.465,10.391-4.414
	C241.079,807.811,242.437,803.729,242.437,798.494z M308.608,792.381l-9.043,0.703c-0.811-3.574-1.953-6.172-3.438-7.773
	c-2.461-2.598-5.498-3.905-9.102-3.905c-2.9,0-5.439,0.819-7.627,2.44c-2.871,2.09-5.127,5.138-6.777,9.142
	s-2.51,9.727-2.578,17.129c2.188-3.34,4.873-5.801,8.037-7.422s6.484-2.422,9.961-2.422c6.064,0,11.221,2.227,15.488,6.698
	c4.258,4.453,6.396,10.234,6.396,17.306c0,4.647-1.006,8.965-3.008,12.969c-2.012,3.983-4.766,7.051-8.262,9.16
	c-3.506,2.129-7.49,3.184-11.934,3.184c-7.578,0-13.77-2.772-18.545-8.358c-4.795-5.566-7.178-14.767-7.178-27.578
	c0-14.316,2.637-24.728,7.93-31.23c4.619-5.664,10.83-8.496,18.652-8.496c5.83,0,10.605,1.642,14.326,4.902
	C305.64,782.107,307.866,786.619,308.608,792.381L308.608,792.381z M271.46,824.314c-0.008,3.111,0.672,6.186,1.992,9.004
	c1.338,2.871,3.193,5.059,5.586,6.543c2.393,1.504,4.902,2.246,7.529,2.246c3.848,0,7.148-1.543,9.912-4.648
	c2.764-3.086,4.141-7.305,4.141-12.637c0-5.117-1.357-9.142-4.092-12.09c-2.725-2.949-6.162-4.435-10.313-4.435
	c-4.111,0-7.598,1.484-10.459,4.435C272.895,815.682,271.46,819.549,271.46,824.314L271.46,824.314z M294.448,389.836l36.318-3.535
	c2.188,12.192,6.621,21.147,13.301,26.865c6.689,5.718,15.703,8.574,27.061,8.574c12.021,0,21.074-2.539,27.178-7.627
	c6.095-5.088,9.142-11.035,9.142-17.848c0-4.369-1.279-8.091-3.849-11.162c-2.567-3.065-7.041-5.736-13.428-8.008
	c-4.375-1.514-14.336-4.204-29.893-8.07c-20.01-4.961-34.053-11.056-42.119-18.286c-11.357-10.177-17.031-22.578-17.031-37.207
	c0-9.414,2.666-18.223,8.008-26.421c5.342-8.198,13.037-14.438,23.086-18.726c10.039-4.292,22.168-6.436,36.377-6.436
	c23.213,0,40.674,5.088,52.402,15.264c11.729,10.171,17.891,23.75,18.478,40.732l-37.324,1.641
	c-1.603-9.502-5.029-16.333-10.283-20.493c-5.254-4.165-13.135-6.245-23.643-6.245c-10.85,0-19.346,2.231-25.479,6.685
	c-3.955,2.861-5.928,6.685-5.928,11.479c0,4.37,1.846,8.115,5.547,11.222c4.707,3.954,16.143,8.07,34.307,12.362
	c18.164,4.287,31.592,8.722,40.293,13.307c8.701,4.58,15.508,10.845,20.431,18.789c4.922,7.943,7.383,17.764,7.383,29.447
	c0,10.597-2.949,20.519-8.828,29.767c-5.889,9.248-14.209,16.123-24.971,20.62c-10.771,4.498-24.181,6.748-40.234,6.748
	c-23.379,0-41.328-5.405-53.857-16.206C304.36,426.262,296.88,410.52,294.448,389.836L294.448,389.836z M553.491,407.366
	l35.313,5.928c-4.541,12.949-11.709,22.808-21.504,29.575c-9.795,6.767-22.051,10.151-36.768,10.151
	c-23.291,0-40.527-7.607-51.709-22.827c-8.828-12.192-13.242-27.578-13.242-46.157c0-22.197,5.801-39.58,17.412-52.153
	c11.602-12.567,26.27-18.853,44.014-18.853c19.922,0,35.646,6.577,47.168,19.735c11.514,13.159,17.021,33.315,16.523,60.475h-88.789
	c0.254,10.513,3.104,18.687,8.573,24.531c5.47,5.844,12.275,8.765,20.431,8.765c5.547,0,10.215-1.514,14.004-4.541
	C548.696,418.967,551.558,414.094,553.491,407.366L553.491,407.366z M555.503,371.545c-0.244-10.254-2.9-18.052-7.938-23.394
	c-5.05-5.337-11.183-8.009-18.418-8.009c-7.734,0-14.121,2.817-19.171,8.452c-5.038,5.63-7.52,13.286-7.44,22.949L555.503,371.545
	L555.503,371.545z M859.438,109.211v7.588h-42.5c-0.069-1.871,0.243-3.736,0.919-5.483c1.084-2.896,2.813-5.747,5.194-8.555
	c2.382-2.808,5.83-6.055,10.332-9.736c6.992-5.732,11.709-10.273,14.17-13.623c2.451-3.35,3.683-6.514,3.683-9.497
	c0-3.13-1.113-5.767-3.351-7.915c-2.246-2.153-5.156-3.228-8.76-3.228c-3.799,0-6.836,1.143-9.121,3.423
	c-2.275,2.28-3.438,5.439-3.467,9.478l-8.115-0.835c0.558-6.055,2.646-10.669,6.279-13.843c3.623-3.169,8.486-4.756,14.6-4.756
	c6.172,0,11.056,1.709,14.658,5.132c3.594,3.423,5.391,7.661,5.391,12.72c0,2.573-0.526,5.103-1.571,7.588
	c-1.056,2.485-2.804,5.107-5.244,7.852c-2.441,2.749-6.504,6.523-12.178,11.318c-4.736,3.979-7.773,6.675-9.121,8.096
	c-1.349,1.416-2.461,2.842-3.341,4.277L859.438,109.211L859.438,109.211z M830.093,171.765c-3.271-1.201-5.703-2.91-7.285-5.132
	c-1.571-2.222-2.362-4.888-2.362-7.983c0-4.683,1.68-8.613,5.039-11.802c3.369-3.188,7.842-4.78,13.428-4.78
	c5.615,0,10.137,1.631,13.555,4.888c3.418,3.262,5.138,7.231,5.138,11.914c0,2.979-0.791,5.576-2.354,7.783
	c-1.563,2.207-3.936,3.911-7.129,5.112c3.955,1.284,6.953,3.364,9.014,6.226c2.07,2.871,3.097,6.289,3.097,10.269
	c0,5.498-1.943,10.117-5.83,13.862c-3.896,3.74-9.015,5.615-15.361,5.615c-6.338,0-11.455-1.88-15.353-5.64
	c-3.887-3.755-5.829-8.442-5.829-14.058c0-4.185,1.055-7.686,3.184-10.508C823.159,174.709,826.177,172.786,830.093,171.765z
	 M825.972,188.083c0,2.251,0.527,4.429,1.603,6.533c1.063,2.109,2.656,3.74,4.756,4.893c2.08,1.149,4.42,1.746,6.797,1.733
	c3.779,0,6.896-1.211,9.346-3.643c2.461-2.427,3.691-5.513,3.691-9.253c0-3.804-1.271-6.948-3.799-9.434
	c-2.529-2.486-5.693-3.726-9.502-3.726c-3.711,0-6.787,1.226-9.229,3.682C827.192,181.324,825.972,184.397,825.972,188.083
	L825.972,188.083z M828.511,158.386c0,3.042,0.986,5.527,2.939,7.456c1.963,1.929,4.502,2.896,7.637,2.896
	c3.037,0,5.537-0.957,7.48-2.876c1.942-1.914,2.92-4.258,2.92-7.036c0-2.896-1.006-5.332-3.008-7.305
	c-2.003-1.978-4.503-2.964-7.48-2.964c-3.018,0-5.518,0.967-7.5,2.896C829.507,153.386,828.511,155.696,828.511,158.386
	L828.511,158.386z M797.71,296.477h-7.891V246.16c-1.904,1.816-4.396,3.628-7.48,5.439c-3.086,1.816-5.858,3.174-8.311,4.082v-7.632
	c4.414-2.075,8.271-4.59,11.582-7.544c3.301-2.954,5.645-5.82,7.012-8.599h5.088V296.477L797.71,296.477z M830.083,261.604
	c-3.271-1.201-5.703-2.91-7.285-5.132c-1.572-2.222-2.362-4.888-2.362-7.983c0-4.683,1.68-8.613,5.038-11.802
	c3.369-3.188,7.843-4.78,13.429-4.78c5.614,0,10.137,1.631,13.555,4.888c3.418,3.262,5.137,7.231,5.137,11.914
	c0,2.979-0.791,5.576-2.354,7.783c-1.563,2.207-3.937,3.911-7.129,5.112c3.955,1.284,6.953,3.364,9.014,6.226
	c2.07,2.871,3.096,6.289,3.096,10.269c0,5.498-1.942,10.117-5.83,13.862c-3.896,3.74-9.014,5.615-15.36,5.615
	c-6.338,0-11.455-1.88-15.353-5.64c-3.887-3.755-5.83-8.442-5.83-14.058c0-4.185,1.056-7.686,3.185-10.508
	C823.149,264.548,826.167,262.625,830.083,261.604z M825.962,277.922c0,2.251,0.527,4.429,1.603,6.533
	c1.063,2.109,2.655,3.74,4.756,4.893c2.08,1.149,4.42,1.745,6.797,1.733c3.779,0,6.895-1.211,9.346-3.643
	c2.461-2.427,3.691-5.513,3.691-9.253c0-3.804-1.271-6.948-3.799-9.434c-2.529-2.486-5.693-3.726-9.503-3.726
	c-3.711,0-6.786,1.226-9.229,3.682S825.962,274.236,825.962,277.922L825.962,277.922z M828.501,248.225
	c0,3.042,0.986,5.527,2.939,7.456c1.963,1.929,4.502,2.896,7.637,2.896c3.037,0,5.537-0.957,7.479-2.876
	c1.943-1.914,2.92-4.258,2.92-7.036c0-2.896-1.006-5.332-3.008-7.305c-2.002-1.978-4.502-2.964-7.479-2.964
	c-3.019,0-5.519,0.967-7.5,2.896C829.497,243.225,828.501,245.535,828.501,248.225L828.501,248.225z M858.911,337.756l-7.853,0.615
	c-0.702-3.102-1.688-5.353-2.979-6.758c-2.139-2.251-4.766-3.379-7.9-3.379c-2.51,0-4.717,0.702-6.621,2.108
	c-2.489,1.813-4.442,4.458-5.879,7.939c-1.436,3.477-2.178,8.438-2.235,14.868c1.903-2.896,4.229-5.044,6.973-6.445
	c2.754-1.406,5.635-2.109,8.643-2.109c5.265,0,9.746,1.938,13.447,5.815c3.701,3.872,5.547,8.882,5.547,15.023
	c0,4.033-0.869,7.783-2.606,11.25c-1.738,3.468-4.131,6.118-7.178,7.965c-3.037,1.841-6.484,2.764-10.353,2.764
	c-6.582,0-11.943-2.422-16.094-7.261c-4.16-4.84-6.23-12.817-6.23-23.932c0-12.427,2.295-21.465,6.886-27.108
	c4.004-4.912,9.403-7.368,16.19-7.368c5.06,0,9.199,1.416,12.433,4.253C856.334,328.834,858.268,332.756,858.911,337.756
	L858.911,337.756z M826.675,365.481c0,2.72,0.576,5.321,1.729,7.808c1.152,2.486,2.772,4.38,4.854,5.679
	c2.07,1.304,4.248,1.953,6.533,1.953c3.33,0,6.201-1.343,8.594-4.038c2.402-2.689,3.604-6.343,3.604-10.967
	c0-4.443-1.191-7.944-3.556-10.503c-2.373-2.56-5.352-3.838-8.955-3.838c-3.563,0-6.592,1.278-9.071,3.838
	C827.915,357.971,826.675,361.326,826.675,365.481z"/>
</svg>
