<?xml version="1.0" encoding="utf-8"?>
<!-- Generator: Adobe Illustrator 16.0.3, SVG Export Plug-In . SVG Version: 6.00 Build 0)  -->
<!DOCTYPE svg PUBLIC "-//W3C//DTD SVG 1.1//EN" "http://www.w3.org/Graphics/SVG/1.1/DTD/svg11.dtd">
<svg version="1.1" id="Layer_1" xmlns="http://www.w3.org/2000/svg" xmlns:xlink="http://www.w3.org/1999/xlink" x="0px" y="0px"
	 width="900px" height="900px" viewBox="0 0 900 900" enable-background="new 0 0 900 900" xml:space="preserve">
<path d="M39.775,133.831l13.838-1.846c1.592,7.842,4.297,13.491,8.115,16.953c3.818,3.457,8.467,5.186,13.955,5.186
	c6.504,0,12.002-2.251,16.484-6.763c4.482-4.512,6.729-10.098,6.729-16.763c0-6.353-2.08-11.592-6.23-15.723
	c-4.15-4.121-9.424-6.187-15.83-6.187c-2.617,0-5.869,0.513-9.766,1.538l1.533-12.148c0.928,0.103,1.67,0.156,2.236,0.156
	c5.889,0,11.191-1.538,15.908-4.614c4.717-3.076,7.07-7.817,7.07-14.224c0-5.073-1.709-9.277-5.146-12.607s-7.871-5-13.301-5
	c-5.381,0-9.863,1.694-13.457,5.078c-3.584,3.379-5.889,8.457-6.914,15.22l-13.838-2.461c1.689-9.272,5.537-16.465,11.533-21.563
	c5.996-5.103,13.447-7.651,22.373-7.651c6.143,0,11.807,1.323,16.982,3.96c5.176,2.642,9.141,6.24,11.885,10.801
	c2.734,4.565,4.111,9.409,4.111,14.531c0,4.868-1.309,9.302-3.926,13.301c-2.607,3.999-6.484,7.178-11.602,9.531
	c6.66,1.538,11.836,4.731,15.527,9.575c3.691,4.844,5.537,10.903,5.537,18.179c0,9.844-3.594,18.184-10.762,25.024
	c-7.178,6.846-16.25,10.264-27.217,10.264c-9.893,0-18.105-2.944-24.648-8.838C44.424,150.847,40.703,143.21,39.775,133.831z
	 M127.266,134.06l14.531-1.23c1.074,7.075,3.574,12.393,7.5,15.952c3.916,3.564,8.643,5.342,14.18,5.342
	c6.66,0,12.305-2.51,16.914-7.534c4.609-5.02,6.924-11.685,6.924-19.985c0-7.896-2.217-14.121-6.65-18.682
	c-4.434-4.565-10.244-6.846-17.412-6.846c-4.463,0-8.486,1.016-12.07,3.037c-3.594,2.026-6.416,4.653-8.457,7.881l-12.998-1.689
	l10.918-57.891h56.045v13.223H151.72l-6.074,30.288c6.758-4.712,13.857-7.07,21.289-7.07c9.844,0,18.145,3.408,24.912,10.225
	s10.146,15.581,10.146,26.294c0,10.2-2.969,19.014-8.916,26.445c-7.227,9.121-17.09,13.687-29.6,13.687
	c-10.254,0-18.613-2.871-25.098-8.613C131.895,151.155,128.193,143.542,127.266,134.06z M263.525,662.479v-74.102h27.803
	c5.664,0,10.205,0.762,13.623,2.266c3.418,1.484,6.094,3.81,8.037,6.914c1.934,3.125,2.9,6.388,2.9,9.785
	c0,3.164-0.85,6.152-2.568,8.945c-1.718,2.793-4.316,5.059-7.793,6.777c4.482,1.309,7.93,3.555,10.342,6.719
	s3.613,6.914,3.613,11.211c0,3.477-0.732,6.699-2.197,9.688c-1.465,2.989-3.281,5.273-5.439,6.896
	c-2.148,1.621-4.854,2.852-8.105,3.672s-7.236,1.229-11.953,1.229H263.525L263.525,662.479z M273.33,619.529h16.025
	c4.346,0,7.461-0.293,9.355-0.859c2.49-0.742,4.365-1.973,5.635-3.691c1.26-1.719,1.895-3.887,1.895-6.483
	c0-2.461-0.586-4.609-1.768-6.484c-1.182-1.875-2.871-3.145-5.059-3.848c-2.188-0.685-5.947-1.035-11.27-1.035H273.33V619.529z
	 M273.33,653.748h18.457c3.164,0,5.391-0.117,6.67-0.371c2.256-0.391,4.141-1.074,5.664-2.012c1.514-0.938,2.754-2.324,3.74-4.121
	c0.977-1.797,1.465-3.887,1.465-6.25c0-2.754-0.713-5.156-2.129-7.188c-1.416-2.051-3.379-3.477-5.889-4.297
	c-2.51-0.84-6.123-1.25-10.84-1.25H273.33V653.748L273.33,653.748z M331.709,662.479v-53.672h8.193v8.146
	c2.09-3.81,4.014-6.328,5.781-7.539c1.777-1.211,3.721-1.816,5.84-1.816c3.066,0,6.182,0.978,9.355,2.931l-3.135,8.438
	c-2.227-1.309-4.453-1.973-6.67-1.973c-1.992,0-3.779,0.604-5.361,1.797s-2.715,2.852-3.389,4.979
	c-1.006,3.242-1.514,6.777-1.514,10.605v28.104H331.709L331.709,662.479z M362.9,635.643c0-9.94,2.764-17.305,8.291-22.09
	c4.609-3.965,10.244-5.957,16.885-5.957c7.373,0,13.408,2.422,18.086,7.246c4.688,4.844,7.031,11.523,7.031,20.039
	c0,6.914-1.035,12.344-3.105,16.31c-2.08,3.965-5.088,7.03-9.053,9.219c-3.955,2.188-8.281,3.281-12.959,3.281
	c-7.52,0-13.594-2.402-18.223-7.228C365.215,651.658,362.9,644.705,362.9,635.643z M372.246,635.643
	c0,6.875,1.504,12.031,4.502,15.449s6.777,5.117,11.328,5.117c4.512,0,8.271-1.719,11.27-5.156
	c2.999-3.437,4.492-8.672,4.492-15.703c0-6.641-1.504-11.68-4.521-15.098c-3.018-3.418-6.769-5.137-11.24-5.137
	c-4.551,0-8.33,1.719-11.328,5.117C373.751,623.63,372.246,628.768,372.246,635.643L372.246,635.643z M423.857,662.479v-53.672
	h8.135v7.521c1.688-2.617,3.926-4.728,6.719-6.328c2.803-1.602,5.986-2.402,9.561-2.402c3.976,0,7.236,0.82,9.775,2.48
	c2.549,1.641,4.336,3.945,5.381,6.914c4.248-6.271,9.775-9.396,16.582-9.396c5.322,0,9.414,1.465,12.285,4.414
	c2.861,2.949,4.297,7.5,4.297,13.633v36.836h-9.053V628.67c0-3.633-0.293-6.27-0.879-7.852c-0.596-1.603-1.66-2.892-3.213-3.867
	c-1.554-0.977-3.369-1.465-5.459-1.465c-3.771,0-6.904,1.25-9.404,3.75c-2.49,2.52-3.74,6.543-3.74,12.069v31.172h-9.092v-34.862
	c0-4.043-0.742-7.09-2.227-9.103c-1.484-2.03-3.906-3.026-7.275-3.026c-2.568,0-4.932,0.664-7.109,2.012
	c-2.168,1.348-3.739,3.32-4.727,5.918c-0.977,2.598-1.465,6.328-1.465,11.211v27.853L423.857,662.479L423.857,662.479z
	 M510.137,598.846v-10.469h9.103v10.469H510.137L510.137,598.846z M510.137,662.479v-53.672h9.103v53.672H510.137L510.137,662.479z
	 M533.086,662.479v-53.672h8.184v7.638c3.945-5.898,9.64-8.849,17.091-8.849c3.231,0,6.2,0.586,8.916,1.738
	c2.715,1.172,4.746,2.695,6.094,4.57c1.348,1.895,2.285,4.141,2.832,6.719c0.332,1.699,0.498,4.648,0.498,8.848v33.008h-9.092
	v-32.655c0-3.691-0.353-6.465-1.064-8.302c-0.703-1.836-1.963-3.301-3.76-4.395c-1.808-1.094-3.926-1.641-6.349-1.641
	c-3.877,0-7.217,1.229-10.028,3.672c-2.822,2.461-4.229,7.129-4.229,14.004v29.315L533.086,662.479L533.086,662.479z
	 M627.402,645.193l9.395,1.172c-1.484,5.487-4.229,9.746-8.231,12.772c-4.015,3.047-9.142,4.552-15.371,4.552
	c-7.853,0-14.072-2.402-18.672-7.246c-4.601-4.845-6.904-11.621-6.904-20.353c0-9.022,2.324-16.035,6.973-21.016
	c4.658-5,10.685-7.48,18.097-7.48c7.178,0,13.047,2.441,17.598,7.324c4.541,4.883,6.816,11.758,6.816,20.625
	c0,0.547-0.011,1.349-0.05,2.422h-40.028c0.332,5.898,2.002,10.41,5,13.556c2.998,3.125,6.737,4.688,11.221,4.688
	c3.34,0,6.182-0.859,8.545-2.617S626.016,649.041,627.402,645.193L627.402,645.193z M597.529,630.486H627.5
	c-0.41-4.513-1.553-7.892-3.438-10.156c-2.9-3.496-6.66-5.254-11.271-5.254c-4.18,0-7.695,1.387-10.537,4.199
	C599.404,622.068,597.832,625.799,597.529,630.486L597.529,630.486z M60.518,783.943v-8.75h47.969v7.069
	c-4.717,5.021-9.395,11.699-14.023,20.021c-4.639,8.32-8.213,16.895-10.742,25.684c-1.826,6.191-2.988,12.988-3.486,20.371h-9.355
	c0.098-5.84,1.25-12.871,3.438-21.133s5.332-16.211,9.424-23.887c4.102-7.656,8.447-14.121,13.066-19.375H60.518z M118.848,831.189
	l8.74-0.802c0.742,4.121,2.158,7.09,4.248,8.945c2.09,1.854,4.766,2.772,8.037,2.772c2.793,0,5.244-0.625,7.354-1.913
	c2.109-1.271,3.828-2.988,5.176-5.138c1.348-2.129,2.48-5.02,3.389-8.651c0.91-3.642,1.369-7.381,1.367-11.134
	c0-0.391-0.02-0.995-0.049-1.815c-1.826,2.891-4.307,5.254-7.461,7.051c-3.111,1.794-6.643,2.73-10.234,2.715
	c-6.133,0-11.318-2.227-15.566-6.68s-6.367-10.313-6.367-17.598c0-7.5,2.217-13.556,6.65-18.146c4.424-4.57,9.98-6.875,16.65-6.875
	c4.814,0,9.229,1.31,13.213,3.906c3.994,2.598,7.031,6.289,9.102,11.094c2.071,4.805,3.105,11.738,3.105,20.84
	c0,9.474-1.025,17.013-3.076,22.617c-2.061,5.625-5.117,9.883-9.18,12.813c-4.063,2.93-8.818,4.395-14.277,4.395
	c-5.791,0-10.527-1.602-14.199-4.824C121.797,841.561,119.59,837.029,118.848,831.189L118.848,831.189z M156.094,798.494
	c0-5.215-1.387-9.375-4.17-12.441c-2.773-3.065-6.123-4.59-10.029-4.59c-4.043,0-7.568,1.66-10.566,4.961s-4.502,7.578-4.502,12.832
	c0,4.707,1.426,8.555,4.277,11.504c2.842,2.949,6.357,4.414,10.537,4.414c4.209,0,7.676-1.465,10.391-4.414
	C154.736,807.811,156.094,803.729,156.094,798.494z M180.156,848.338v-10.371h10.361v10.371H180.156z M205.176,831.189l8.74-0.802
	c0.742,4.121,2.158,7.09,4.248,8.945c2.09,1.854,4.766,2.772,8.037,2.772c2.793,0,5.244-0.625,7.354-1.913
	c2.109-1.271,3.828-2.988,5.176-5.138c1.348-2.129,2.48-5.02,3.389-8.651c0.909-3.642,1.369-7.381,1.367-11.134
	c0-0.391-0.02-0.995-0.049-1.815c-1.826,2.891-4.307,5.254-7.461,7.051c-3.111,1.794-6.643,2.73-10.234,2.715
	c-6.133,0-11.318-2.227-15.566-6.68c-4.248-4.453-6.367-10.313-6.367-17.598c0-7.5,2.217-13.556,6.65-18.146
	c4.424-4.57,9.98-6.875,16.65-6.875c4.814,0,9.229,1.31,13.213,3.906c3.994,2.598,7.031,6.289,9.102,11.094
	c2.071,4.805,3.105,11.738,3.105,20.84c0,9.474-1.025,17.013-3.076,22.617c-2.061,5.625-5.117,9.883-9.18,12.813
	c-4.063,2.93-8.818,4.395-14.277,4.395c-5.791,0-10.527-1.602-14.199-4.824C208.125,841.561,205.918,837.029,205.176,831.189
	L205.176,831.189z M242.422,798.494c0-5.215-1.387-9.375-4.17-12.441c-2.773-3.065-6.123-4.59-10.029-4.59
	c-4.043,0-7.568,1.66-10.566,4.961s-4.502,7.578-4.502,12.832c0,4.707,1.426,8.555,4.277,11.504
	c2.842,2.949,6.357,4.414,10.537,4.414c4.209,0,7.676-1.465,10.391-4.414C241.064,807.811,242.422,803.729,242.422,798.494z
	 M261.387,811.795c0-8.77,0.898-15.82,2.705-21.152c1.797-5.352,4.482-9.473,8.037-12.362c3.555-2.891,8.027-4.355,13.418-4.355
	c3.975,0,7.461,0.802,10.459,2.402s5.479,3.906,7.432,6.934c1.953,3.009,3.486,6.681,4.6,11.017c1.114,4.336,1.67,10.176,1.67,17.52
	c0,8.691-0.889,15.703-2.676,21.055c-1.787,5.332-4.463,9.453-8.018,12.384c-3.555,2.909-8.047,4.354-13.467,4.354
	c-7.148,0-12.754-2.559-16.836-7.676C263.828,835.74,261.387,825.701,261.387,811.795L261.387,811.795z M270.732,811.795
	c0,12.168,1.426,20.254,4.277,24.277c2.842,4.022,6.357,6.035,10.537,6.035c4.18,0,7.695-2.013,10.537-6.056
	c2.852-4.043,4.268-12.129,4.268-24.258c0-12.207-1.416-20.313-4.268-24.316c-2.842-4.004-6.396-6.016-10.635-6.016
	c-4.18,0-7.52,1.777-10.01,5.313C272.305,791.287,270.732,799.627,270.732,811.795L270.732,811.795z M348.115,848.338v-17.754
	h-32.139v-8.34l33.809-48.008h7.432v48.008h10.01v8.34h-10.01v17.754H348.115z M348.115,822.244v-33.398l-23.193,33.398H348.115z
	 M316.797,265.105h73.906c14.629,0,25.537,0.61,32.725,1.826c7.188,1.221,13.623,3.765,19.297,7.632
	c5.675,3.867,10.41,9.019,14.189,15.449c3.779,6.43,5.674,13.643,5.674,21.63c0,8.662-2.334,16.606-7.002,23.833
	c-4.658,7.236-10.986,12.656-18.975,16.271c11.26,3.281,19.922,8.872,25.977,16.777c6.055,7.899,9.082,17.191,9.082,27.871
	c0,8.407-1.953,16.581-5.859,24.525c-3.916,7.949-9.258,14.297-16.024,19.048s-15.107,7.671-25.029,8.766
	c-6.221,0.674-21.229,1.094-45.029,1.26h-62.93L316.797,265.105L316.797,265.105z M354.131,295.876v42.754h24.463
	c14.551,0,23.583-0.21,27.119-0.63c6.387-0.757,11.416-2.964,15.068-6.621c3.662-3.657,5.488-8.472,5.488-14.438
	c0-5.719-1.582-10.361-4.728-13.937c-3.154-3.574-7.842-5.742-14.063-6.499c-3.701-0.42-14.336-0.63-31.915-0.63H354.131
	L354.131,295.876z M354.131,369.402v49.438h34.551c13.457,0,21.992-0.376,25.605-1.133c5.547-1.011,10.068-3.467,13.555-7.378
	c3.487-3.911,5.234-9.146,5.234-15.703c0-5.547-1.348-10.254-4.033-14.126c-2.695-3.862-6.582-6.685-11.67-8.447
	c-5.088-1.768-16.123-2.65-33.105-2.65H354.131z M536.865,449.993h-35.439V316.057h32.92V335.1
	c5.636-8.993,10.703-14.922,15.195-17.782c4.502-2.856,9.609-4.287,15.322-4.287c8.076,0,15.85,2.227,23.34,6.685l-10.977,30.898
	c-5.968-3.867-11.523-5.801-16.65-5.801c-4.961,0-9.16,1.366-12.607,4.097c-3.446,2.733-6.162,7.676-8.135,14.819
	c-1.981,7.147-2.969,22.113-2.969,44.896V449.993L536.865,449.993z M859.434,109.211v7.588h-42.5
	c-0.069-1.871,0.243-3.736,0.919-5.483c1.084-2.896,2.813-5.747,5.194-8.555c2.382-2.808,5.83-6.055,10.332-9.736
	c6.992-5.732,11.709-10.273,14.17-13.623c2.451-3.35,3.683-6.514,3.683-9.497c0-3.13-1.113-5.767-3.351-7.915
	c-2.246-2.153-5.156-3.228-8.76-3.228c-3.799,0-6.836,1.143-9.121,3.423c-2.275,2.28-3.438,5.439-3.467,9.478l-8.115-0.835
	c0.558-6.055,2.646-10.669,6.279-13.843c3.623-3.169,8.486-4.756,14.6-4.756c6.172,0,11.056,1.709,14.658,5.132
	c3.594,3.423,5.391,7.661,5.391,12.72c0,2.573-0.526,5.103-1.571,7.588c-1.056,2.485-2.804,5.107-5.244,7.852
	c-2.441,2.749-6.504,6.523-12.178,11.318c-4.736,3.979-7.773,6.675-9.121,8.096c-1.349,1.416-2.461,2.842-3.341,4.277
	L859.434,109.211L859.434,109.211z M830.088,171.765c-3.271-1.201-5.703-2.91-7.285-5.132c-1.571-2.222-2.362-4.888-2.362-7.983
	c0-4.683,1.68-8.613,5.039-11.802c3.368-3.188,7.842-4.78,13.428-4.78c5.615,0,10.137,1.631,13.555,4.888
	c3.418,3.262,5.138,7.231,5.138,11.914c0,2.979-0.791,5.576-2.354,7.783c-1.563,2.207-3.936,3.911-7.129,5.112
	c3.955,1.284,6.953,3.364,9.014,6.226c2.07,2.871,3.097,6.289,3.097,10.269c0,5.498-1.943,10.117-5.83,13.862
	c-3.896,3.74-9.015,5.615-15.361,5.615c-6.338,0-11.455-1.88-15.353-5.64c-3.887-3.755-5.829-8.442-5.829-14.058
	c0-4.185,1.055-7.686,3.184-10.508C823.154,174.709,826.172,172.786,830.088,171.765z M825.967,188.083
	c0,2.251,0.527,4.429,1.603,6.533c1.063,2.109,2.655,3.74,4.756,4.893c2.08,1.149,4.42,1.746,6.797,1.733
	c3.779,0,6.896-1.211,9.346-3.643c2.461-2.427,3.691-5.513,3.691-9.253c0-3.804-1.271-6.948-3.799-9.434
	c-2.529-2.486-5.693-3.726-9.502-3.726c-3.711,0-6.787,1.226-9.229,3.682C827.188,181.324,825.967,184.397,825.967,188.083
	L825.967,188.083z M828.506,158.386c0,3.042,0.986,5.527,2.939,7.456c1.963,1.929,4.502,2.896,7.637,2.896
	c3.037,0,5.537-0.957,7.48-2.876c1.942-1.914,2.92-4.258,2.92-7.036c0-2.896-1.006-5.332-3.008-7.305
	c-2.003-1.978-4.503-2.964-7.48-2.964c-3.018,0-5.518,0.967-7.5,2.896C829.502,153.386,828.506,155.696,828.506,158.386
	L828.506,158.386z M797.705,296.477h-7.891V246.16c-1.904,1.816-4.396,3.628-7.48,5.439c-3.086,1.816-5.859,3.174-8.311,4.082
	v-7.632c4.414-2.075,8.271-4.59,11.582-7.544c3.301-2.954,5.645-5.82,7.012-8.599h5.088V296.477L797.705,296.477z M830.078,261.604
	c-3.271-1.201-5.703-2.91-7.285-5.132c-1.572-2.222-2.363-4.888-2.363-7.983c0-4.683,1.681-8.613,5.039-11.802
	c3.369-3.188,7.843-4.78,13.429-4.78c5.614,0,10.137,1.631,13.555,4.888c3.418,3.262,5.137,7.231,5.137,11.914
	c0,2.979-0.791,5.576-2.354,7.783c-1.563,2.207-3.937,3.911-7.129,5.112c3.955,1.284,6.952,3.364,9.014,6.226
	c2.07,2.871,3.096,6.289,3.096,10.269c0,5.498-1.942,10.117-5.83,13.862c-3.896,3.74-9.014,5.615-15.36,5.615
	c-6.338,0-11.455-1.88-15.353-5.64c-3.887-3.755-5.83-8.442-5.83-14.058c0-4.185,1.056-7.686,3.185-10.508
	C823.145,264.548,826.162,262.625,830.078,261.604z M825.957,277.922c0,2.251,0.527,4.429,1.602,6.533
	c1.064,2.109,2.656,3.74,4.757,4.893c2.08,1.149,4.42,1.746,6.797,1.733c3.778,0,6.895-1.211,9.346-3.643
	c2.461-2.427,3.691-5.513,3.691-9.253c0-3.804-1.271-6.948-3.8-9.434c-2.528-2.486-5.692-3.726-9.502-3.726
	c-3.711,0-6.787,1.226-9.229,3.682C827.177,271.163,825.957,274.236,825.957,277.922L825.957,277.922z M828.496,248.225
	c0,3.042,0.986,5.527,2.939,7.456c1.963,1.929,4.502,2.896,7.637,2.896c3.037,0,5.537-0.957,7.479-2.876
	c1.943-1.914,2.92-4.258,2.92-7.036c0-2.896-1.006-5.332-3.008-7.305c-2.002-1.978-4.502-2.964-7.479-2.964
	c-3.019,0-5.519,0.967-7.5,2.896C829.492,243.225,828.496,245.535,828.496,248.225L828.496,248.225z M818.467,330.427v-7.588h41.631
	v6.144c-4.102,4.359-8.153,10.146-12.178,17.373c-4.022,7.222-7.129,14.647-9.315,22.279c-1.582,5.387-2.589,11.274-3.027,17.682
	h-8.115c0.088-5.06,1.074-11.172,2.979-18.335c1.916-7.203,4.662-14.159,8.184-20.729c3.555-6.655,7.334-12.261,11.338-16.826
	H818.467L818.467,330.427z"/>
</svg>
