<?xml version="1.0" encoding="utf-8"?>
<!-- Generator: Adobe Illustrator 16.0.3, SVG Export Plug-In . SVG Version: 6.00 Build 0)  -->
<!DOCTYPE svg PUBLIC "-//W3C//DTD SVG 1.1//EN" "http://www.w3.org/Graphics/SVG/1.1/DTD/svg11.dtd">
<svg version="1.1" id="Layer_1" xmlns="http://www.w3.org/2000/svg" xmlns:xlink="http://www.w3.org/1999/xlink" x="0px" y="0px"
	 width="900px" height="900px" viewBox="0 0 900 900" enable-background="new 0 0 900 900" xml:space="preserve">
<path d="M39.775,133.801l13.838-1.846c1.592,7.842,4.297,13.491,8.115,16.953c3.818,3.457,8.467,5.186,13.955,5.186
	c6.504,0,12.002-2.251,16.484-6.763c4.482-4.512,6.729-10.098,6.729-16.763c0-6.353-2.08-11.592-6.23-15.723
	c-4.15-4.121-9.424-6.187-15.83-6.187c-2.617,0-5.869,0.513-9.766,1.538l1.533-12.148c0.928,0.103,1.67,0.156,2.236,0.156
	c5.889,0,11.191-1.538,15.908-4.614c4.717-3.076,7.07-7.817,7.07-14.224c0-5.073-1.709-9.277-5.146-12.607
	c-3.437-3.33-7.871-5-13.301-5c-5.381,0-9.863,1.694-13.457,5.078c-3.584,3.379-5.889,8.457-6.914,15.22l-13.838-2.461
	c1.689-9.272,5.537-16.465,11.533-21.563c5.996-5.103,13.447-7.651,22.373-7.651c6.143,0,11.807,1.323,16.982,3.96
	c5.176,2.642,9.141,6.24,11.885,10.801c2.734,4.565,4.111,9.409,4.111,14.531c0,4.868-1.309,9.302-3.926,13.301
	c-2.607,3.999-6.484,7.178-11.602,9.531c6.66,1.538,11.836,4.731,15.527,9.575c3.691,4.844,5.537,10.903,5.537,18.179
	c0,9.844-3.594,18.184-10.762,25.024c-7.178,6.846-16.25,10.264-27.217,10.264c-9.893,0-18.105-2.944-24.648-8.838
	C44.424,150.818,40.703,143.181,39.775,133.801L39.775,133.801z M199.072,78.445l-13.76,1.079c-1.23-5.435-2.969-9.38-5.225-11.841
	c-3.75-3.945-8.359-5.923-13.838-5.923c-4.414,0-8.281,1.23-11.611,3.691c-4.355,3.179-7.793,7.817-10.303,13.916
	c-2.51,6.099-3.818,14.79-3.926,26.064c3.33-5.073,7.412-8.843,12.227-11.304c4.815-2.461,9.863-3.691,15.146-3.691
	c9.229,0,17.08,3.398,23.564,10.19c6.484,6.792,9.727,15.566,9.727,26.328c0,7.075-1.523,13.647-4.58,19.722
	c-3.047,6.074-7.236,10.723-12.568,13.955c-5.332,3.228-11.377,4.844-18.145,4.844c-11.533,0-20.938-4.243-28.213-12.725
	s-10.918-22.461-10.918-41.938c0-21.782,4.023-37.622,12.07-47.515c7.021-8.608,16.475-12.915,28.369-12.915
	c8.867,0,16.133,2.485,21.797,7.456C194.551,62.815,197.949,69.68,199.072,78.445L199.072,78.445z M142.568,127.034
	c0,4.766,1.006,9.331,3.037,13.687c2.021,4.355,4.854,7.676,8.496,9.956c3.633,2.28,7.451,3.418,11.455,3.418
	c5.84,0,10.859-2.354,15.068-7.07c4.199-4.717,6.299-11.123,6.299-19.219c0-7.793-2.07-13.931-6.221-18.413
	c-4.16-4.487-9.385-6.729-15.684-6.729c-6.26,0-11.563,2.241-15.918,6.729C144.746,113.875,142.568,119.758,142.568,127.034
	L142.568,127.034z M277.871,662.449v-74.103h9.805v36.759l36.797-36.759h13.301l-31.084,30.039l32.441,44.063h-12.939l-26.377-37.5
	l-12.139,11.836v25.664H277.871L277.871,662.449z M346.055,662.449v-53.672h8.193v8.145c2.09-3.809,4.014-6.328,5.781-7.539
	c1.777-1.211,3.721-1.815,5.84-1.815c3.066,0,6.182,0.977,9.355,2.93l-3.135,8.438c-2.227-1.309-4.453-1.973-6.67-1.973
	c-1.992,0-3.779,0.605-5.361,1.797c-1.582,1.192-2.715,2.853-3.389,4.98c-1.006,3.241-1.514,6.776-1.514,10.604v28.105H346.055
	L346.055,662.449z M380.225,683.133l-1.006-8.555c1.982,0.547,3.721,0.82,5.205,0.82c2.021,0,3.643-0.353,4.854-1.017
	c1.213-0.681,2.237-1.654,2.979-2.832c0.576-0.918,1.504-3.164,2.783-6.776c0.166-0.509,0.439-1.25,0.811-2.228l-20.371-53.77h9.805
	l11.172,31.073c1.488,4.085,2.785,8.236,3.887,12.441c1.033-4.138,2.281-8.219,3.74-12.227l11.475-31.289h9.103l-20.42,54.59
	c-2.197,5.897-3.896,9.961-5.107,12.188c-1.621,2.988-3.467,5.195-5.557,6.582c-2.09,1.406-4.59,2.109-7.48,2.109
	C384.336,684.246,382.383,683.875,380.225,683.133L380.225,683.133z M432.393,683.035v-74.258h8.291v6.973
	c1.953-2.734,4.16-4.785,6.621-6.133c2.451-1.367,5.439-2.051,8.945-2.051c4.58,0,8.623,1.172,12.129,3.534
	c3.506,2.363,6.152,5.685,7.939,9.98c1.776,4.297,2.676,9.004,2.676,14.121c0,5.508-0.986,10.448-2.959,14.844
	c-1.974,4.396-4.834,7.773-8.594,10.117c-3.761,2.324-7.705,3.496-11.855,3.496c-3.027,0-5.752-0.625-8.154-1.914
	c-2.412-1.289-4.395-2.892-5.946-4.845v26.134L432.393,683.035L432.393,683.035z M440.625,635.926
	c0,6.896,1.406,12.012,4.199,15.313c2.793,3.301,6.182,4.94,10.156,4.94c4.043,0,7.51-1.699,10.391-5.117s4.316-8.729,4.316-15.897
	c0-6.836-1.406-11.974-4.22-15.371c-2.813-3.397-6.172-5.098-10.078-5.098c-3.877,0-7.305,1.797-10.293,5.43
	C442.119,623.738,440.625,629.012,440.625,635.926L440.625,635.926z M509.824,654.324l1.309,8.026
	c-2.559,0.548-4.844,0.802-6.875,0.802c-3.301,0-5.859-0.509-7.676-1.563c-1.826-1.035-3.105-2.422-3.848-4.121
	c-0.743-1.698-1.104-5.272-1.104-10.742v-30.879h-6.68v-7.069h6.68v-13.302l9.043-5.448v18.75h9.15v7.069h-9.15v31.388
	c0,2.598,0.156,4.276,0.479,5c0.321,0.741,0.84,1.348,1.571,1.776c0.724,0.449,1.759,0.664,3.105,0.664
	C506.836,654.676,508.174,654.559,509.824,654.324z M515.332,635.613c0-9.941,2.764-17.306,8.291-22.09
	c4.609-3.966,10.244-5.957,16.885-5.957c7.373,0,13.408,2.422,18.086,7.245c4.688,4.845,7.031,11.523,7.031,20.039
	c0,6.914-1.035,12.345-3.105,16.31c-2.079,3.965-5.088,7.031-9.053,9.219c-3.955,2.188-8.281,3.281-12.959,3.281
	c-7.52,0-13.594-2.402-18.223-7.228C517.646,651.629,515.332,644.676,515.332,635.613L515.332,635.613z M524.678,635.613
	c0,6.875,1.504,12.03,4.502,15.448s6.777,5.117,11.328,5.117c4.512,0,8.271-1.719,11.271-5.155
	c2.999-3.438,4.491-8.673,4.491-15.703c0-6.642-1.504-11.681-4.521-15.099s-6.768-5.137-11.24-5.137
	c-4.551,0-8.33,1.719-11.328,5.117C526.183,623.6,524.678,628.738,524.678,635.613L524.678,635.613z M576.289,662.449v-53.672h8.184
	v7.637c3.945-5.898,9.64-8.848,17.091-8.848c3.231,0,6.2,0.586,8.916,1.737c2.715,1.172,4.745,2.695,6.094,4.57
	c1.348,1.895,2.285,4.141,2.832,6.719c0.332,1.699,0.498,4.648,0.498,8.849v33.008h-9.093v-32.656c0-3.691-0.352-6.465-1.063-8.301
	c-0.703-1.836-1.963-3.301-3.76-4.396c-1.808-1.094-3.927-1.641-6.349-1.641c-3.877,0-7.217,1.229-10.028,3.672
	c-2.822,2.461-4.229,7.129-4.229,14.004v29.316L576.289,662.449L576.289,662.449z M73.906,808.113
	c-3.779-1.367-6.572-3.34-8.398-5.898c-1.816-2.578-2.725-5.645-2.725-9.199c0-5.391,1.934-9.922,5.811-13.612
	c3.877-3.672,9.033-5.509,15.469-5.509c6.465,0,11.68,1.896,15.615,5.646c3.945,3.75,5.918,8.34,5.918,13.729
	c0,3.438-0.898,6.427-2.705,8.966s-4.541,4.512-8.213,5.879c4.551,1.483,8.008,3.887,10.391,7.188
	c2.373,3.302,3.555,7.246,3.555,11.816c0,6.348-2.236,11.66-6.719,15.977c-4.483,4.317-10.381,6.466-17.686,6.466
	c-7.314,0-13.213-2.148-17.695-6.484s-6.719-9.728-6.719-16.211c0-4.805,1.221-8.849,3.662-12.09
	C65.908,811.512,69.385,809.305,73.906,808.113L73.906,808.113z M69.15,826.922c0,2.598,0.615,5.098,1.846,7.539
	c1.23,2.422,3.057,4.297,5.488,5.625c2.422,1.328,5.029,1.992,7.832,1.992c4.346,0,7.93-1.387,10.762-4.18
	c2.832-2.813,4.248-6.367,4.248-10.664c0-4.396-1.455-8.009-4.375-10.879c-2.91-2.853-6.563-4.298-10.938-4.298
	c-4.277,0-7.832,1.427-10.645,4.259S69.15,822.684,69.15,826.922z M72.08,792.703c0,3.516,1.133,6.367,3.389,8.594
	c2.256,2.228,5.186,3.34,8.799,3.34c3.506,0,6.377-1.112,8.613-3.319c2.246-2.207,3.359-4.902,3.359-8.105
	c0-3.34-1.152-6.133-3.457-8.418c-2.314-2.266-5.186-3.418-8.623-3.418c-3.467,0-6.348,1.113-8.643,3.34
	C73.232,786.941,72.08,789.598,72.08,792.703L72.08,792.703z M117.52,828.738l9.102-1.211c1.045,5.155,2.822,8.866,5.332,11.151
	c2.51,2.267,5.566,3.398,9.17,3.398c4.277,0,7.891-1.465,10.84-4.435c2.949-2.969,4.424-6.641,4.424-11.016
	c0-4.18-1.357-7.637-4.092-10.352c-2.725-2.716-6.201-4.063-10.41-4.063c-1.719,0-3.857,0.332-6.416,1.016l1.006-7.987
	c0.486,0.055,0.976,0.087,1.465,0.098c3.877,0,7.363-1.016,10.469-3.027c3.096-2.03,4.648-5.137,4.648-9.354
	c0-3.34-1.133-6.094-3.389-8.281c-2.256-2.207-5.176-3.301-8.74-3.301c-3.545,0-6.494,1.113-8.848,3.34
	c-2.363,2.228-3.877,5.566-4.551,10.021l-9.102-1.621c1.113-6.094,3.643-10.82,7.588-14.18c3.936-3.359,8.838-5.039,14.707-5.039
	c4.043,0,7.764,0.879,11.172,2.616c3.398,1.738,6.006,4.103,7.803,7.091c1.807,3.008,2.705,6.19,2.705,9.551
	c0,3.203-0.859,6.113-2.578,8.75c-1.719,2.637-4.258,4.727-7.627,6.27c4.375,1.017,7.783,3.105,10.205,6.289
	c2.432,3.185,3.643,7.168,3.643,11.953c0,6.465-2.363,11.953-7.08,16.465c-4.717,4.492-10.684,6.738-17.891,6.738
	c-6.504,0-11.904-1.934-16.201-5.82C120.576,839.93,118.125,834.91,117.52,828.738L117.52,828.738z M180.146,848.309v-10.371h10.361
	v10.371H180.146z M204.404,783.914v-8.75h47.969v7.07c-4.717,5.02-9.395,11.698-14.023,20.02
	c-4.639,8.32-8.213,16.896-10.742,25.684c-1.826,6.191-2.988,12.988-3.486,20.371h-9.355c0.098-5.84,1.25-12.871,3.438-21.133
	s5.332-16.211,9.424-23.887c4.102-7.656,8.447-14.121,13.066-19.375H204.404z M262.744,831.16l8.74-0.801
	c0.742,4.12,2.158,7.09,4.248,8.944c2.09,1.855,4.766,2.773,8.037,2.773c2.793,0,5.244-0.625,7.354-1.914
	c2.109-1.271,3.828-2.988,5.176-5.138c1.348-2.129,2.48-5.02,3.389-8.651c0.91-3.642,1.369-7.38,1.367-11.133
	c0-0.392-0.02-0.996-0.049-1.816c-1.826,2.892-4.307,5.254-7.461,7.051c-3.111,1.794-6.643,2.73-10.234,2.716
	c-6.133,0-11.318-2.228-15.566-6.681s-6.367-10.313-6.367-17.598c0-7.5,2.217-13.555,6.65-18.146
	c4.424-4.569,9.98-6.875,16.65-6.875c4.814,0,9.229,1.31,13.213,3.906c3.994,2.598,7.031,6.289,9.102,11.094
	c2.071,4.806,3.105,11.738,3.105,20.841c0,9.473-1.025,17.012-3.076,22.616c-2.061,5.625-5.117,9.884-9.18,12.813
	s-8.818,4.395-14.277,4.395c-5.791,0-10.527-1.602-14.199-4.823C265.693,841.531,263.486,837,262.744,831.16L262.744,831.16z
	 M299.99,798.465c0-5.215-1.387-9.375-4.17-12.441c-2.773-3.065-6.123-4.59-10.029-4.59c-4.043,0-7.568,1.66-10.566,4.961
	c-2.998,3.302-4.502,7.578-4.502,12.832c0,4.707,1.426,8.556,4.277,11.504c2.842,2.949,6.357,4.414,10.537,4.414
	c4.209,0,7.676-1.465,10.391-4.414C298.633,807.781,299.99,803.699,299.99,798.465L299.99,798.465z M332.949,808.113
	c-3.779-1.367-6.572-3.341-8.398-5.898c-1.816-2.578-2.725-5.645-2.725-9.199c0-5.391,1.934-9.922,5.811-13.612
	c3.877-3.673,9.033-5.509,15.469-5.509c6.465,0,11.68,1.896,15.615,5.646c3.945,3.75,5.918,8.34,5.918,13.729
	c0,3.438-0.898,6.427-2.705,8.966c-1.807,2.539-4.541,4.512-8.213,5.879c4.551,1.483,8.008,3.887,10.391,7.188
	c2.373,3.302,3.555,7.246,3.555,11.816c0,6.348-2.236,11.66-6.719,15.977c-4.483,4.317-10.381,6.465-17.686,6.465
	c-7.314,0-13.213-2.147-17.695-6.483s-6.719-9.728-6.719-16.211c0-4.806,1.221-8.849,3.662-12.09
	C324.951,811.512,328.428,809.305,332.949,808.113L332.949,808.113z M328.193,826.922c0,2.598,0.615,5.098,1.846,7.539
	c1.23,2.422,3.057,4.297,5.488,5.625c2.422,1.328,5.029,1.992,7.832,1.992c4.346,0,7.93-1.387,10.762-4.18
	c2.832-2.813,4.248-6.367,4.248-10.664c0-4.396-1.455-8.009-4.375-10.88c-2.91-2.852-6.563-4.297-10.938-4.297
	c-4.277,0-7.832,1.427-10.645,4.259C329.598,819.147,328.193,822.684,328.193,826.922L328.193,826.922z M331.123,792.703
	c0,3.516,1.133,6.367,3.389,8.594c2.256,2.227,5.186,3.34,8.799,3.34c3.506,0,6.377-1.112,8.613-3.319
	c2.246-2.207,3.359-4.902,3.359-8.105c0-3.34-1.152-6.133-3.457-8.418c-2.314-2.266-5.186-3.418-8.623-3.418
	c-3.467,0-6.348,1.113-8.643,3.34C332.275,786.941,331.123,789.598,331.123,792.703L331.123,792.703z M317.178,449.963V265.076
	h37.334v82.104l75.41-82.104h50.195l-69.609,72.012l73.398,112.876h-48.301l-50.831-86.768l-30.264,30.897v55.869H317.178
	L317.178,449.963z M536.865,449.963h-35.439V316.028h32.92v19.043c5.635-8.994,10.703-14.922,15.195-17.783
	c4.502-2.856,9.609-4.287,15.322-4.287c8.076,0,15.85,2.228,23.34,6.685l-10.978,30.898c-5.967-3.867-11.522-5.801-16.649-5.801
	c-4.961,0-9.16,1.367-12.607,4.097c-3.447,2.734-6.162,7.676-8.135,14.819c-1.982,7.147-2.969,22.114-2.969,44.896V449.963
	L536.865,449.963z M859.434,109.182v7.588h-42.5c-0.069-1.871,0.243-3.737,0.918-5.483c1.084-2.896,2.813-5.747,5.195-8.555
	s5.83-6.055,10.332-9.736c6.992-5.732,11.709-10.273,14.17-13.623c2.451-3.35,3.682-6.514,3.682-9.497
	c0-3.13-1.112-5.767-3.35-7.915c-2.246-2.153-5.156-3.228-8.76-3.228c-3.799,0-6.836,1.143-9.121,3.423
	c-2.275,2.28-3.438,5.439-3.467,9.478l-8.115-0.835c0.557-6.055,2.646-10.669,6.279-13.843c3.623-3.169,8.485-4.756,14.6-4.756
	c6.172,0,11.055,1.709,14.658,5.132c3.594,3.423,5.391,7.661,5.391,12.72c0,2.573-0.526,5.103-1.571,7.588
	c-1.056,2.485-2.804,5.107-5.244,7.852c-2.441,2.749-6.504,6.523-12.179,11.318c-4.735,3.979-7.772,6.675-9.12,8.096
	c-1.349,1.416-2.462,2.842-3.341,4.277L859.434,109.182L859.434,109.182z M830.088,171.736c-3.271-1.201-5.703-2.91-7.285-5.132
	c-1.572-2.222-2.362-4.888-2.362-7.983c0-4.683,1.68-8.613,5.038-11.802c3.369-3.188,7.843-4.78,13.429-4.78
	c5.614,0,10.137,1.631,13.555,4.888c3.418,3.262,5.137,7.231,5.137,11.914c0,2.979-0.791,5.576-2.354,7.783
	c-1.563,2.207-3.937,3.911-7.129,5.112c3.955,1.284,6.953,3.364,9.014,6.226c2.07,2.871,3.096,6.289,3.096,10.269
	c0,5.498-1.942,10.117-5.83,13.862c-3.896,3.74-9.014,5.615-15.36,5.615c-6.338,0-11.455-1.88-15.353-5.64
	c-3.887-3.755-5.83-8.442-5.83-14.058c0-4.185,1.056-7.686,3.185-10.508C823.154,174.68,826.172,172.756,830.088,171.736z
	 M825.967,188.054c0,2.251,0.527,4.429,1.603,6.533c1.063,2.109,2.655,3.74,4.756,4.893c2.08,1.149,4.42,1.746,6.797,1.733
	c3.779,0,6.895-1.211,9.346-3.643c2.461-2.427,3.691-5.513,3.691-9.253c0-3.804-1.271-6.948-3.799-9.434
	c-2.529-2.486-5.693-3.726-9.503-3.726c-3.711,0-6.786,1.226-9.229,3.682S825.967,184.368,825.967,188.054L825.967,188.054z
	 M828.506,158.357c0,3.042,0.986,5.527,2.939,7.456c1.963,1.929,4.502,2.896,7.637,2.896c3.037,0,5.537-0.957,7.48-2.876
	c1.942-1.914,2.92-4.258,2.92-7.036c0-2.896-1.007-5.332-3.009-7.305c-2.002-1.978-4.502-2.964-7.479-2.964
	c-3.019,0-5.519,0.967-7.5,2.896C829.502,153.357,828.506,155.667,828.506,158.357L828.506,158.357z M797.705,296.448h-7.891V246.13
	c-1.904,1.816-4.396,3.628-7.48,5.439c-3.086,1.816-5.859,3.174-8.311,4.082v-7.632c4.414-2.075,8.271-4.59,11.582-7.544
	c3.301-2.954,5.645-5.82,7.012-8.599h5.088V296.448L797.705,296.448z M830.078,261.575c-3.271-1.201-5.703-2.91-7.285-5.132
	c-1.572-2.222-2.363-4.888-2.363-7.983c0-4.683,1.681-8.613,5.039-11.802c3.369-3.188,7.842-4.78,13.428-4.78
	c5.615,0,10.138,1.631,13.556,4.888c3.418,3.262,5.137,7.231,5.137,11.914c0,2.979-0.791,5.576-2.354,7.783
	c-1.563,2.207-3.937,3.911-7.13,5.112c3.955,1.284,6.953,3.364,9.015,6.226c2.069,2.871,3.096,6.289,3.096,10.269
	c0,5.498-1.942,10.117-5.83,13.862c-3.896,3.74-9.014,5.615-15.36,5.615c-6.339,0-11.455-1.88-15.353-5.64
	c-3.887-3.755-5.83-8.442-5.83-14.058c0-4.185,1.055-7.686,3.185-10.508C823.145,264.519,826.162,262.595,830.078,261.575z
	 M825.957,277.893c0,2.251,0.527,4.429,1.602,6.533c1.064,2.109,2.656,3.74,4.756,4.893c2.081,1.149,4.421,1.746,6.798,1.733
	c3.778,0,6.895-1.211,9.346-3.643c2.461-2.427,3.69-5.513,3.69-9.253c0-3.804-1.27-6.948-3.799-9.434
	c-2.528-2.486-5.692-3.726-9.502-3.726c-3.711,0-6.787,1.226-9.229,3.682C827.177,271.134,825.957,274.207,825.957,277.893
	L825.957,277.893z M828.496,248.196c0,3.042,0.986,5.527,2.938,7.456c1.964,1.929,4.503,2.896,7.638,2.896
	c3.037,0,5.537-0.957,7.479-2.876c1.943-1.914,2.92-4.258,2.92-7.036c0-2.896-1.006-5.332-3.008-7.305
	c-2.002-1.978-4.502-2.964-7.479-2.964c-3.019,0-5.519,0.967-7.5,2.896C829.492,243.196,828.496,245.505,828.496,248.196
	L828.496,248.196z M830.088,351.414c-3.271-1.201-5.703-2.91-7.285-5.132c-1.572-2.223-2.362-4.889-2.362-7.983
	c0-4.683,1.68-8.613,5.038-11.802c3.369-3.188,7.843-4.78,13.429-4.78c5.614,0,10.137,1.631,13.555,4.888
	c3.418,3.263,5.137,7.231,5.137,11.914c0,2.979-0.791,5.576-2.354,7.783c-1.563,2.207-3.937,3.911-7.129,5.112
	c3.955,1.284,6.953,3.364,9.014,6.226c2.07,2.871,3.096,6.289,3.096,10.27c0,5.498-1.942,10.117-5.83,13.861
	c-3.896,3.74-9.014,5.615-15.36,5.615c-6.338,0-11.455-1.88-15.353-5.64c-3.887-3.755-5.83-8.442-5.83-14.059
	c0-4.185,1.056-7.686,3.185-10.508C823.154,354.358,826.172,352.434,830.088,351.414z M825.967,367.732
	c0,2.251,0.527,4.429,1.603,6.532c1.063,2.109,2.655,3.74,4.756,4.894c2.08,1.148,4.42,1.745,6.797,1.732
	c3.779,0,6.895-1.211,9.346-3.643c2.461-2.427,3.691-5.513,3.691-9.253c0-3.804-1.271-6.948-3.799-9.435
	c-2.529-2.485-5.693-3.726-9.503-3.726c-3.711,0-6.786,1.226-9.229,3.682S825.967,364.045,825.967,367.732L825.967,367.732z
	 M828.506,338.035c0,3.042,0.986,5.526,2.939,7.456c1.963,1.929,4.502,2.896,7.637,2.896c3.037,0,5.537-0.957,7.48-2.876
	c1.942-1.914,2.92-4.258,2.92-7.036c0-2.896-1.007-5.332-3.009-7.305c-2.002-1.978-4.502-2.964-7.479-2.964
	c-3.019,0-5.519,0.967-7.5,2.896C829.502,333.035,828.506,335.344,828.506,338.035L828.506,338.035z"/>
</svg>
