<?xml version="1.0" encoding="utf-8"?>
<!-- Generator: Adobe Illustrator 16.0.3, SVG Export Plug-In . SVG Version: 6.00 Build 0)  -->
<!DOCTYPE svg PUBLIC "-//W3C//DTD SVG 1.1//EN" "http://www.w3.org/Graphics/SVG/1.1/DTD/svg11.dtd">
<svg version="1.1" id="Layer_1" xmlns="http://www.w3.org/2000/svg" xmlns:xlink="http://www.w3.org/1999/xlink" x="0px" y="0px"
	 width="900px" height="900px" viewBox="0 0 900 900" enable-background="new 0 0 900 900" xml:space="preserve">
<path d="M39.771,133.826l13.838-1.846c1.592,7.842,4.297,13.496,8.115,16.953c3.818,3.467,8.467,5.195,13.955,5.195
	c6.504,0,12.002-2.256,16.484-6.768c4.482-4.512,6.729-10.098,6.729-16.758c0-6.357-2.08-11.602-6.23-15.723
	c-4.15-4.131-9.424-6.191-15.83-6.191c-2.617,0-5.869,0.518-9.766,1.533l1.533-12.139c0.928,0.098,1.67,0.146,2.236,0.146
	c5.889,0,11.191-1.533,15.908-4.609c4.717-3.076,7.07-7.813,7.07-14.219c0-5.078-1.709-9.277-5.146-12.617
	c-3.438-3.33-7.871-4.99-13.301-4.99c-5.381,0-9.863,1.689-13.457,5.068c-3.584,3.389-5.889,8.457-6.914,15.225l-13.838-2.461
	c1.689-9.277,5.537-16.465,11.533-21.563s13.447-7.646,22.373-7.646c6.143,0,11.807,1.318,16.982,3.955
	c5.175,2.637,9.141,6.24,11.885,10.801c2.734,4.561,4.111,9.404,4.111,14.531c0,4.873-1.309,9.307-3.926,13.301
	c-2.607,3.994-6.484,7.178-11.602,9.531c6.66,1.543,11.836,4.727,15.527,9.57c3.691,4.843,5.537,10.908,5.537,18.184
	c0,9.844-3.594,18.184-10.762,25.029c-7.178,6.836-16.25,10.264-27.217,10.264c-9.893,0-18.105-2.949-24.648-8.848
	C44.419,150.847,40.698,143.21,39.771,133.826L39.771,133.826z M128.188,65.632v-13.3h72.959v10.771
	c-7.178,7.637-14.287,17.783-21.338,30.439c-7.051,12.656-12.49,25.684-16.338,39.053c-2.764,9.434-4.531,19.766-5.303,30.986
	H143.95c0.146-8.867,1.895-19.58,5.225-32.139c3.33-12.559,8.105-24.658,14.336-36.328c6.23-11.65,12.852-21.484,19.873-29.482
	H128.188L128.188,65.632z M238.169,662.473v-74.102h32.861c6.602,0,11.621,0.664,15.059,2.012c3.438,1.328,6.182,3.672,8.242,7.051
	c2.051,3.359,3.076,7.091,3.076,11.173c0,5.254-1.699,9.688-5.098,13.28c-3.408,3.613-8.662,5.898-15.771,6.875
	c2.588,1.25,4.561,2.48,5.908,3.691c2.871,2.637,5.576,5.918,8.145,9.863l12.881,20.155h-12.324l-9.814-15.409
	c-2.861-4.453-5.215-7.853-7.07-10.216c-1.855-2.362-3.516-4.004-4.98-4.94c-1.465-0.957-2.959-1.603-4.473-1.974
	c-1.113-0.233-2.93-0.352-5.459-0.352h-11.377v32.891L238.169,662.473L238.169,662.473z M247.974,621.086h21.084
	c4.482,0,7.979-0.469,10.508-1.387c2.529-0.938,4.453-2.422,5.762-4.453c1.318-2.051,1.973-4.258,1.973-6.641
	c0-3.517-1.27-6.388-3.818-8.652c-2.539-2.266-6.563-3.379-12.051-3.379h-23.457L247.974,621.086L247.974,621.086z M346.792,662.473
	v-7.871c-4.18,6.056-9.854,9.082-17.031,9.082c-3.174,0-6.123-0.604-8.877-1.815c-2.744-1.211-4.785-2.734-6.113-4.57
	s-2.266-4.082-2.803-6.737c-0.371-1.798-0.557-4.63-0.557-8.496v-33.263h9.102v29.767c0,4.746,0.186,7.948,0.557,9.608
	c0.566,2.384,1.777,4.277,3.633,5.625c1.855,1.367,4.15,2.052,6.875,2.052c2.734,0,5.293-0.703,7.686-2.091
	c2.393-1.405,4.082-3.301,5.078-5.723c0.996-2.402,1.494-5.898,1.494-10.488v-28.75h9.092v53.672L346.792,662.473L346.792,662.473z
	 M377.573,662.473h-8.438v-74.102h9.092v26.445c3.848-4.824,8.75-7.228,14.707-7.228c3.301,0,6.426,0.664,9.375,1.992
	c2.949,1.328,5.382,3.203,7.285,5.604c1.904,2.423,3.39,5.313,4.474,8.73c1.073,3.398,1.61,7.031,1.61,10.918
	c0,9.199-2.266,16.309-6.815,21.328c-4.551,5.019-10.011,7.52-16.377,7.52c-6.338,0-11.309-2.637-14.912-7.93V662.473
	L377.573,662.473z M377.476,635.227c0,6.445,0.869,11.095,2.627,13.966c2.861,4.668,6.738,7.012,11.621,7.012
	c3.975,0,7.412-1.719,10.313-5.176s4.346-8.595,4.346-15.449c0-6.992-1.387-12.168-4.17-15.508s-6.143-5-10.078-5
	c-3.984,0-7.422,1.719-10.313,5.176C378.921,623.703,377.476,628.703,377.476,635.227L377.476,635.227z M426.802,598.84v-10.469
	h9.103v10.469H426.802z M426.802,662.473v-53.672h9.103v53.672H426.802z M484.575,662.473v-6.776
	c-3.408,5.332-8.408,7.987-15.01,7.987c-4.287,0-8.214-1.172-11.808-3.534c-3.584-2.363-6.367-5.646-8.34-9.884
	c-1.973-4.219-2.959-9.082-2.959-14.569c0-5.371,0.898-10.215,2.686-14.59c1.777-4.355,4.464-7.716,8.037-10.039
	c3.564-2.324,7.56-3.478,11.974-3.478c3.231,0,6.123,0.685,8.643,2.051c2.529,1.349,4.59,3.125,6.172,5.332v-26.602h9.043v74.102
	H484.575L484.575,662.473z M455.815,635.695c0,6.875,1.444,12.012,4.346,15.41c2.901,3.397,6.317,5.098,10.264,5.098
	c3.976,0,7.354-1.621,10.127-4.863c2.783-3.262,4.17-8.223,4.17-14.901c0-7.345-1.416-12.734-4.237-16.173
	c-2.832-3.438-6.318-5.155-10.47-5.155c-4.043,0-7.422,1.659-10.137,4.961C457.173,623.371,455.815,628.586,455.815,635.695
	L455.815,635.695z M507.378,598.84v-10.469h9.103v10.469H507.378z M507.378,662.473v-53.672h9.103v53.672H507.378z M565.503,662.473
	v-7.871c-4.18,6.056-9.854,9.082-17.031,9.082c-3.174,0-6.123-0.604-8.877-1.815c-2.744-1.211-4.785-2.734-6.112-4.57
	c-1.328-1.836-2.267-4.082-2.804-6.737c-0.371-1.798-0.557-4.63-0.557-8.496v-33.263h9.102v29.767c0,4.746,0.187,7.948,0.558,9.608
	c0.565,2.384,1.776,4.277,3.633,5.625c1.854,1.367,4.15,2.052,6.875,2.052c2.734,0,5.293-0.703,7.686-2.091
	c2.394-1.405,4.082-3.301,5.078-5.723c0.996-2.402,1.494-5.898,1.494-10.488v-28.75h9.092v53.672L565.503,662.473L565.503,662.473z
	 M587.896,662.473v-53.672h8.135v7.521c1.688-2.617,3.926-4.728,6.719-6.328c2.803-1.603,5.986-2.402,9.561-2.402
	c3.976,0,7.236,0.82,9.775,2.48c2.549,1.641,4.336,3.944,5.381,6.914c4.248-6.271,9.775-9.396,16.582-9.396
	c5.322,0,9.414,1.465,12.285,4.414c2.861,2.949,4.297,7.5,4.297,13.633v36.836h-9.053v-33.809c0-3.633-0.293-6.271-0.879-7.852
	c-0.597-1.603-1.66-2.892-3.213-3.867c-1.554-0.977-3.369-1.465-5.459-1.465c-3.771,0-6.904,1.25-9.404,3.75
	c-2.49,2.52-3.74,6.543-3.74,12.069v31.172h-9.092v-34.862c0-4.043-0.742-7.091-2.227-9.103c-1.484-2.031-3.906-3.026-7.275-3.026
	c-2.568,0-4.932,0.664-7.109,2.012c-2.168,1.348-3.74,3.32-4.727,5.918c-0.978,2.598-1.465,6.328-1.465,11.211v27.852H587.896
	L587.896,662.473z M73.921,808.137c-3.779-1.387-6.572-3.358-8.398-5.918c-1.816-2.559-2.725-5.625-2.725-9.199
	c0-5.391,1.934-9.922,5.811-13.594s9.033-5.508,15.469-5.508c6.465,0,11.68,1.875,15.615,5.625c3.945,3.771,5.918,8.34,5.918,13.73
	c0,3.438-0.898,6.426-2.705,8.965c-1.807,2.559-4.541,4.512-8.213,5.897c4.551,1.484,8.008,3.867,10.391,7.168
	c2.373,3.302,3.555,7.246,3.555,11.836c0,6.328-2.236,11.66-6.719,15.978c-4.483,4.316-10.381,6.465-17.686,6.465
	c-7.314,0-13.213-2.168-17.695-6.504c-4.482-4.316-6.719-9.727-6.719-16.191c0-4.823,1.221-8.848,3.662-12.108
	C65.923,811.535,69.399,809.309,73.921,808.137L73.921,808.137z M69.165,826.945c0,2.578,0.615,5.098,1.846,7.52
	c1.231,2.422,3.057,4.316,5.488,5.646c2.422,1.328,5.029,1.991,7.832,1.991c4.346,0,7.93-1.405,10.762-4.198
	c2.832-2.793,4.248-6.349,4.248-10.664c0-4.375-1.455-8.008-4.375-10.859c-2.91-2.871-6.563-4.297-10.938-4.297
	c-4.277,0-7.832,1.406-10.645,4.238S69.165,822.688,69.165,826.945L69.165,826.945z M72.095,792.727
	c0,3.496,1.133,6.367,3.389,8.595c2.256,2.207,5.186,3.319,8.799,3.319c3.506,0,6.377-1.094,8.613-3.301
	c2.246-2.207,3.359-4.922,3.359-8.125c0-3.32-1.152-6.133-3.457-8.397c-2.314-2.285-5.186-3.419-8.623-3.419
	c-3.467,0-6.348,1.113-8.643,3.341C73.247,786.965,72.095,789.621,72.095,792.727L72.095,792.727z M117.485,828.898l9.551-0.802
	c0.713,4.648,2.354,8.146,4.932,10.488c2.578,2.343,5.684,3.516,9.326,3.516c4.375,0,8.086-1.659,11.113-4.961
	c3.037-3.301,4.551-7.676,4.551-13.145c0-5.176-1.455-9.277-4.365-12.267c-2.92-3.008-6.738-4.512-11.455-4.512
	c-2.93,0-5.576,0.664-7.93,2.012c-2.363,1.328-4.219,3.048-5.566,5.177l-8.535-1.113l7.178-38.066h36.846v8.691h-29.57
	l-3.994,19.922c4.443-3.104,9.111-4.647,14.004-4.647c6.465,0,11.924,2.245,16.377,6.719c4.443,4.473,6.67,10.233,6.67,17.285
	c0,6.698-1.953,12.5-5.869,17.383c-4.746,5.996-11.23,9.004-19.453,9.004c-6.738,0-12.246-1.896-16.504-5.664
	C120.522,840.148,118.091,835.148,117.485,828.898L117.485,828.898z M180.161,848.313v-10.352h10.361v10.352H180.161z
	 M232.974,848.313v-17.733h-32.139v-8.34l33.809-48.027h7.432v48.027h10.01v8.34h-10.01v17.733H232.974z M232.974,822.238V788.82
	l-23.193,33.418H232.974L232.974,822.238z M308.599,792.355l-9.043,0.723c-0.811-3.574-1.953-6.172-3.438-7.793
	c-2.461-2.599-5.498-3.887-9.102-3.887c-2.9,0-5.439,0.801-7.627,2.422c-2.871,2.09-5.127,5.137-6.777,9.141
	c-1.65,4.023-2.51,9.727-2.578,17.148c2.188-3.341,4.873-5.82,8.037-7.441c3.164-1.602,6.484-2.422,9.961-2.422
	c6.064,0,11.221,2.227,15.488,6.699c4.258,4.473,6.396,10.233,6.396,17.305c0,4.648-1.006,8.984-3.008,12.969
	c-2.012,4.004-4.766,7.051-8.262,9.18c-3.506,2.13-7.49,3.185-11.934,3.185c-7.578,0-13.77-2.793-18.545-8.359
	c-4.795-5.586-7.178-14.766-7.178-27.578c0-14.315,2.637-24.727,7.93-31.229c4.619-5.664,10.83-8.496,18.652-8.496
	c5.83,0,10.605,1.641,14.326,4.902C305.63,782.082,307.856,786.594,308.599,792.355L308.599,792.355z M271.45,824.309
	c0,3.125,0.664,6.134,1.992,9.004c1.338,2.853,3.193,5.039,5.586,6.544c2.393,1.504,4.902,2.245,7.529,2.245
	c3.848,0,7.148-1.543,9.912-4.647c2.764-3.105,4.141-7.324,4.141-12.637c0-5.117-1.357-9.16-4.092-12.109
	c-2.725-2.949-6.162-4.414-10.313-4.414c-4.111,0-7.598,1.465-10.459,4.414C272.885,815.657,271.45,819.523,271.45,824.309
	L271.45,824.309z M332.964,808.137c-3.779-1.387-6.572-3.358-8.398-5.918c-1.816-2.559-2.725-5.625-2.725-9.199
	c0-5.391,1.934-9.922,5.811-13.594s9.033-5.508,15.469-5.508c6.465,0,11.68,1.875,15.615,5.625c3.945,3.77,5.918,8.34,5.918,13.73
	c0,3.438-0.898,6.426-2.705,8.965c-1.807,2.559-4.541,4.512-8.213,5.897c4.551,1.484,8.008,3.867,10.391,7.168
	c2.373,3.302,3.555,7.246,3.555,11.836c0,6.328-2.236,11.66-6.719,15.978c-4.483,4.316-10.381,6.465-17.686,6.465
	c-7.314,0-13.213-2.168-17.695-6.504c-4.482-4.316-6.719-9.728-6.719-16.191c0-4.823,1.221-8.848,3.662-12.108
	C324.966,811.535,328.442,809.309,332.964,808.137L332.964,808.137z M328.208,826.945c0,2.578,0.615,5.098,1.846,7.52
	s3.057,4.316,5.488,5.646c2.422,1.327,5.029,1.991,7.832,1.991c4.346,0,7.93-1.405,10.762-4.198
	c2.832-2.793,4.248-6.349,4.248-10.664c0-4.375-1.455-8.008-4.375-10.859c-2.91-2.871-6.563-4.297-10.938-4.297
	c-4.277,0-7.832,1.406-10.645,4.238C329.613,819.153,328.208,822.688,328.208,826.945L328.208,826.945z M331.138,792.727
	c0,3.496,1.133,6.367,3.389,8.595c2.256,2.207,5.186,3.319,8.799,3.319c3.506,0,6.377-1.094,8.613-3.301
	c2.246-2.207,3.359-4.922,3.359-8.125c0-3.32-1.152-6.133-3.457-8.398c-2.314-2.284-5.186-3.418-8.623-3.418
	c-3.467,0-6.348,1.113-8.643,3.341C332.29,786.965,331.138,789.621,331.138,792.727L331.138,792.727z M292.642,449.998V265.105
	h78.574c19.756,0,34.111,1.67,43.066,4.99c8.955,3.32,16.123,9.229,21.504,17.715c5.381,8.496,8.076,18.203,8.076,29.131
	c0,13.877-4.082,25.332-12.236,34.364c-8.154,9.043-20.352,14.736-36.572,17.091c8.066,4.717,14.727,9.883,19.99,15.518
	c5.254,5.635,12.334,15.635,21.25,30.01l22.568,36.074h-44.64l-26.992-40.234c-9.59-14.375-16.143-23.438-19.678-27.178
	c-3.525-3.74-7.266-6.299-11.221-7.695c-3.955-1.387-10.215-2.08-18.789-2.08h-7.568v77.188L292.642,449.998L292.642,449.998z
	 M329.976,343.298h27.617c17.91,0,29.092-0.752,33.545-2.266c4.463-1.515,7.949-4.121,10.469-7.822
	c2.52-3.691,3.789-8.32,3.789-13.867c0-6.221-1.66-11.25-4.98-15.078c-3.33-3.818-8.018-6.24-14.063-7.246
	c-3.027-0.42-12.109-0.635-27.246-0.635h-29.131V343.298L329.976,343.298z M477.271,449.998V265.105h35.438v66.592
	c10.938-12.441,23.877-18.662,38.848-18.662c16.31,0,29.806,5.908,40.488,17.715c10.674,11.816,16.017,28.779,16.017,50.889
	c0,22.871-5.449,40.488-16.339,52.853c-10.889,12.354-24.11,18.536-39.657,18.536c-7.656,0-15.195-1.914-22.638-5.743
	c-7.44-3.818-13.856-9.474-19.237-16.963v19.678L477.271,449.998L477.271,449.998z M512.466,380.125
	c0,13.877,2.178,24.141,6.553,30.781c6.134,9.414,14.298,14.121,24.474,14.121c7.813,0,14.473-3.341,19.979-10.029
	c5.509-6.68,8.263-17.217,8.263-31.592c0-15.304-2.773-26.338-8.32-33.105c-5.547-6.767-12.656-10.146-21.318-10.146
	c-8.485,0-15.547,3.301-21.182,9.893C515.278,356.648,512.466,366.677,512.466,380.125z M859.438,109.197v7.588h-42.5
	c-0.067-1.904,0.244-3.73,0.919-5.479c1.084-2.9,2.813-5.752,5.194-8.555c2.383-2.813,5.83-6.055,10.332-9.746
	c6.992-5.732,11.709-10.264,14.17-13.613c2.451-3.35,3.683-6.514,3.683-9.502c0-3.125-1.113-5.771-3.351-7.92
	c-2.246-2.148-5.156-3.223-8.76-3.223c-3.799,0-6.836,1.143-9.121,3.428c-2.275,2.275-3.438,5.439-3.467,9.473l-8.115-0.84
	c0.558-6.045,2.646-10.664,6.279-13.838c3.623-3.174,8.486-4.756,14.6-4.756c6.172,0,11.056,1.709,14.658,5.127
	c3.594,3.428,5.391,7.666,5.391,12.725c0,2.578-0.526,5.107-1.571,7.588c-1.056,2.49-2.804,5.107-5.244,7.852
	c-2.441,2.754-6.504,6.523-12.178,11.318c-4.736,3.975-7.773,6.68-9.121,8.096c-1.349,1.416-2.461,2.842-3.341,4.277H859.438z
	 M830.093,171.755c-3.271-1.201-5.703-2.91-7.285-5.137c-1.571-2.217-2.362-4.883-2.362-7.979c0-4.678,1.68-8.613,5.039-11.807
	c3.369-3.184,7.842-4.775,13.428-4.775c5.615,0,10.137,1.631,13.555,4.893c3.418,3.262,5.138,7.227,5.138,11.904
	c0,2.988-0.791,5.586-2.354,7.793c-1.563,2.207-3.936,3.906-7.129,5.107c3.955,1.289,6.953,3.359,9.014,6.23
	c2.07,2.861,3.097,6.289,3.097,10.264c0,5.498-1.943,10.117-5.83,13.857c-3.896,3.75-9.015,5.615-15.361,5.615
	c-6.338,0-11.455-1.875-15.353-5.635c-3.887-3.76-5.829-8.447-5.829-14.063c0-4.18,1.055-7.676,3.184-10.498
	C823.159,174.705,826.177,172.781,830.093,171.755z M825.972,188.074c0,2.256,0.527,4.434,1.603,6.533
	c1.063,2.109,2.656,3.74,4.756,4.893c2.082,1.146,4.421,1.74,6.797,1.729c3.779,0,6.896-1.211,9.346-3.633
	c2.461-2.432,3.691-5.518,3.691-9.258c0-3.799-1.271-6.943-3.799-9.434c-2.529-2.48-5.693-3.73-9.502-3.73
	c-3.711,0-6.787,1.23-9.229,3.691C827.192,181.316,825.972,184.392,825.972,188.074L825.972,188.074z M828.511,158.376
	c0,3.037,0.986,5.527,2.939,7.451c1.963,1.934,4.502,2.9,7.637,2.9c3.037,0,5.537-0.957,7.48-2.871
	c1.942-1.914,2.92-4.268,2.92-7.041c0-2.9-1.006-5.332-3.008-7.305c-2.003-1.973-4.503-2.959-7.48-2.959
	c-3.018,0-5.518,0.957-7.5,2.891C829.507,153.376,828.511,155.681,828.511,158.376L828.511,158.376z M797.71,296.462h-7.891V246.15
	c-1.904,1.807-4.396,3.623-7.48,5.439c-3.086,1.807-5.858,3.174-8.311,4.072v-7.627c4.414-2.08,8.271-4.59,11.582-7.549
	c3.301-2.949,5.645-5.82,7.012-8.594h5.088V296.462L797.71,296.462z M830.083,261.589c-3.271-1.201-5.703-2.91-7.285-5.137
	c-1.572-2.217-2.362-4.883-2.362-7.979c0-4.678,1.68-8.613,5.038-11.807c3.369-3.184,7.843-4.775,13.429-4.775
	c5.614,0,10.137,1.631,13.555,4.893c3.418,3.262,5.137,7.227,5.137,11.904c0,2.988-0.791,5.586-2.354,7.793
	c-1.563,2.207-3.937,3.906-7.129,5.107c3.955,1.289,6.953,3.359,9.014,6.23c2.07,2.861,3.096,6.289,3.096,10.264
	c0,5.498-1.942,10.117-5.83,13.857c-3.896,3.75-9.014,5.615-15.36,5.615c-6.338,0-11.455-1.875-15.353-5.635
	c-3.887-3.76-5.83-8.447-5.83-14.063c0-4.18,1.056-7.676,3.185-10.498C823.149,264.539,826.167,262.615,830.083,261.589
	L830.083,261.589z M825.962,277.908c0,2.256,0.527,4.434,1.603,6.533c1.063,2.109,2.655,3.74,4.756,4.893
	c2.081,1.146,4.421,1.74,6.797,1.729c3.779,0,6.895-1.211,9.346-3.633c2.461-2.432,3.691-5.518,3.691-9.258
	c0-3.799-1.271-6.943-3.799-9.434c-2.529-2.48-5.693-3.73-9.503-3.73c-3.711,0-6.786,1.23-9.229,3.691
	C827.183,271.15,825.962,274.226,825.962,277.908L825.962,277.908z M828.501,248.21c0,3.037,0.986,5.527,2.939,7.451
	c1.963,1.934,4.502,2.9,7.637,2.9c3.037,0,5.537-0.957,7.479-2.871c1.943-1.914,2.92-4.268,2.92-7.041
	c0-2.9-1.006-5.332-3.008-7.305c-2.002-1.973-4.502-2.959-7.479-2.959c-3.019,0-5.519,0.957-7.5,2.891
	C829.497,243.21,828.501,245.515,828.501,248.21L828.501,248.21z M830.093,351.433c-3.271-1.2-5.703-2.909-7.285-5.137
	c-1.571-2.217-2.362-4.883-2.362-7.979c0-4.679,1.68-8.613,5.039-11.808c3.369-3.184,7.842-4.774,13.428-4.774
	c5.615,0,10.137,1.631,13.555,4.893s5.138,7.228,5.138,11.904c0,2.987-0.791,5.586-2.354,7.793
	c-1.563,2.207-3.936,3.906-7.129,5.106c3.955,1.289,6.953,3.359,9.014,6.23c2.07,2.861,3.097,6.289,3.097,10.264
	c0,5.498-1.943,10.117-5.83,13.857c-3.896,3.75-9.015,5.615-15.361,5.615c-6.338,0-11.455-1.875-15.353-5.636
	c-3.887-3.76-5.829-8.446-5.829-14.063c0-4.181,1.055-7.676,3.184-10.498C823.159,354.382,826.177,352.458,830.093,351.433z
	 M825.972,367.751c0,2.256,0.527,4.434,1.603,6.533c1.063,2.108,2.656,3.74,4.756,4.893c2.082,1.146,4.421,1.74,6.797,1.729
	c3.779,0,6.896-1.211,9.346-3.633c2.461-2.433,3.691-5.519,3.691-9.259c0-3.799-1.271-6.942-3.799-9.434
	c-2.529-2.48-5.693-3.73-9.502-3.73c-3.711,0-6.787,1.23-9.229,3.691C827.192,360.994,825.972,364.07,825.972,367.751
	L825.972,367.751z M828.511,338.054c0,3.037,0.986,5.527,2.939,7.451c1.963,1.935,4.502,2.9,7.637,2.9
	c3.037,0,5.537-0.957,7.48-2.871c1.942-1.914,2.92-4.269,2.92-7.041c0-2.9-1.006-5.332-3.008-7.306
	c-2.003-1.973-4.503-2.959-7.48-2.959c-3.018,0-5.518,0.957-7.5,2.892C829.507,333.054,828.511,335.359,828.511,338.054
	L828.511,338.054z M847.681,476.145h-7.891v-50.316c-1.904,1.807-4.396,3.623-7.479,5.438c-3.087,1.808-5.859,3.175-8.312,4.072
	v-7.627c4.414-2.08,8.271-4.59,11.582-7.549c3.301-2.949,5.646-5.82,7.012-8.594h5.088V476.145L847.681,476.145z"/>
</svg>
