<?xml version="1.0" encoding="utf-8"?>
<!-- Generator: Adobe Illustrator 16.0.3, SVG Export Plug-In . SVG Version: 6.00 Build 0)  -->
<!DOCTYPE svg PUBLIC "-//W3C//DTD SVG 1.1//EN" "http://www.w3.org/Graphics/SVG/1.1/DTD/svg11.dtd">
<svg version="1.1" id="Layer_1" xmlns="http://www.w3.org/2000/svg" xmlns:xlink="http://www.w3.org/1999/xlink" x="0px" y="0px"
	 width="900px" height="900px" viewBox="0 0 900 900" enable-background="new 0 0 900 900" xml:space="preserve">
<path d="M39.771,133.826l13.838-1.846c1.592,7.842,4.297,13.496,8.115,16.953c3.818,3.467,8.467,5.195,13.955,5.195
	c6.504,0,12.002-2.256,16.484-6.768c4.482-4.512,6.729-10.098,6.729-16.758c0-6.357-2.08-11.602-6.23-15.723
	c-4.15-4.131-9.424-6.191-15.83-6.191c-2.617,0-5.869,0.518-9.766,1.533l1.533-12.139c0.928,0.098,1.67,0.146,2.236,0.146
	c5.889,0,11.191-1.533,15.908-4.609c4.717-3.076,7.07-7.813,7.07-14.219c0-5.078-1.709-9.277-5.146-12.617
	c-3.438-3.33-7.871-4.99-13.301-4.99c-5.381,0-9.863,1.689-13.457,5.068c-3.584,3.389-5.889,8.457-6.914,15.225l-13.838-2.461
	c1.689-9.277,5.537-16.465,11.533-21.563s13.447-7.646,22.373-7.646c6.143,0,11.807,1.318,16.982,3.955
	c5.175,2.637,9.141,6.24,11.885,10.801c2.734,4.561,4.111,9.404,4.111,14.531c0,4.873-1.309,9.307-3.926,13.301
	c-2.607,3.994-6.484,7.178-11.602,9.531c6.66,1.543,11.836,4.727,15.527,9.57c3.691,4.843,5.537,10.908,5.537,18.184
	c0,9.844-3.594,18.184-10.762,25.029c-7.178,6.836-16.25,10.264-27.217,10.264c-9.893,0-18.105-2.949-24.648-8.848
	C44.419,150.847,40.698,143.21,39.771,133.826L39.771,133.826z M148.56,102.458c-5.742-2.1-10-5.098-12.764-8.994
	c-2.764-3.896-4.15-8.555-4.15-13.994c0-8.193,2.949-15.088,8.838-20.674c5.898-5.586,13.74-8.379,23.525-8.379
	c9.844,0,17.764,2.852,23.76,8.564c5.996,5.723,8.994,12.676,8.994,20.879c0,5.225-1.377,9.775-4.111,13.643
	c-2.744,3.867-6.914,6.855-12.5,8.955c6.924,2.256,12.188,5.898,15.801,10.918c3.613,5.029,5.42,11.025,5.42,17.988
	c0,9.639-3.408,17.734-10.225,24.297s-15.781,9.844-26.904,9.844s-20.098-3.291-26.914-9.883
	c-6.816-6.582-10.225-14.795-10.225-24.639c0-7.324,1.865-13.467,5.576-18.408C136.401,107.625,141.694,104.255,148.56,102.458
	L148.56,102.458z M141.333,131.062c0,3.945,0.938,7.764,2.803,11.455c1.875,3.691,4.648,6.543,8.34,8.574
	c3.691,2.021,7.666,3.037,11.924,3.037c6.611,0,12.07-2.129,16.367-6.387c4.307-4.248,6.465-9.658,6.465-16.221
	c0-6.66-2.217-12.168-6.65-16.523s-9.98-6.543-16.65-6.543c-6.504,0-11.904,2.158-16.182,6.465S141.333,124.607,141.333,131.062
	L141.333,131.062z M145.786,79.011c0,5.332,1.719,9.688,5.156,13.076c3.428,3.379,7.891,5.068,13.379,5.068
	c5.332,0,9.697-1.68,13.105-5.039c3.408-3.35,5.117-7.461,5.117-12.334c0-5.078-1.758-9.346-5.273-12.803
	c-3.506-3.457-7.881-5.186-13.105-5.186c-5.283,0-9.658,1.689-13.145,5.068C147.534,70.251,145.786,74.294,145.786,79.011
	L145.786,79.011z M231.821,638.664l9.248-0.801c0.439,3.711,1.465,6.737,3.057,9.121c1.602,2.383,4.092,4.297,7.461,5.762
	s7.158,2.207,11.367,2.207c3.74,0,7.051-0.566,9.912-1.68c2.861-1.114,4.99-2.638,6.396-4.57c1.396-1.935,2.09-4.043,2.09-6.348
	c0-2.324-0.674-4.355-2.021-6.095c-1.348-1.719-3.564-3.184-6.67-4.354c-1.982-0.781-6.387-1.992-13.193-3.613
	c-6.807-1.641-11.572-3.184-14.297-4.629c-3.545-1.855-6.182-4.16-7.91-6.914c-1.738-2.734-2.607-5.82-2.607-9.219
	c0-3.73,1.064-7.228,3.184-10.488c2.119-3.242,5.225-5.723,9.297-7.402c4.082-1.68,8.613-2.52,13.604-2.52
	c5.488,0,10.332,0.879,14.531,2.656c4.189,1.758,7.422,4.354,9.678,7.793c2.256,3.438,3.467,7.344,3.643,11.68l-9.404,0.703
	c-0.508-4.668-2.217-8.223-5.127-10.605c-2.92-2.401-7.227-3.594-12.92-3.594c-5.928,0-10.254,1.094-12.959,3.262
	c-2.715,2.169-4.072,4.806-4.072,7.871c0,2.656,0.957,4.845,2.881,6.563c1.885,1.719,6.816,3.477,14.785,5.272
	c7.969,1.816,13.438,3.38,16.396,4.728c4.316,1.992,7.5,4.512,9.561,7.559c2.051,3.047,3.076,6.563,3.076,10.547
	c0,3.945-1.123,7.656-3.379,11.134c-2.266,3.496-5.508,6.211-9.736,8.145c-4.228,1.935-8.984,2.91-14.277,2.91
	c-6.709,0-12.324-0.977-16.855-2.93c-4.531-1.953-8.086-4.902-10.664-8.828S231.958,643.625,231.821,638.664L231.821,638.664z
	 M322.905,654.348l1.309,8.027c-2.559,0.547-4.844,0.801-6.875,0.801c-3.301,0-5.859-0.508-7.676-1.563
	c-1.826-1.035-3.105-2.422-3.848-4.121c-0.743-1.699-1.104-5.273-1.104-10.742v-30.879h-6.68v-7.07h6.68V595.5l9.043-5.449v18.75
	h9.15v7.07h-9.15v31.387c0,2.599,0.156,4.277,0.479,5c0.322,0.742,0.84,1.349,1.572,1.777c0.723,0.449,1.758,0.664,3.105,0.664
	C319.917,654.699,321.255,654.582,322.905,654.348L322.905,654.348z M331.694,662.473v-53.672h8.193v8.146
	c2.09-3.81,4.014-6.328,5.781-7.539c1.777-1.211,3.721-1.816,5.84-1.816c3.066,0,6.182,0.978,9.355,2.931l-3.135,8.438
	c-2.227-1.309-4.453-1.973-6.67-1.973c-1.992,0-3.779,0.604-5.361,1.797c-1.582,1.191-2.715,2.852-3.389,4.979
	c-1.006,3.242-1.514,6.777-1.514,10.605v28.104H331.694L331.694,662.473z M362.886,635.637c0-9.94,2.764-17.305,8.291-22.09
	c4.609-3.965,10.244-5.957,16.885-5.957c7.373,0,13.408,2.422,18.086,7.246c4.688,4.844,7.03,11.523,7.03,20.039
	c0,6.914-1.035,12.344-3.104,16.309c-2.08,3.966-5.088,7.031-9.053,9.22c-3.955,2.188-8.281,3.28-12.959,3.28
	c-7.52,0-13.594-2.401-18.223-7.227C365.2,651.652,362.886,644.699,362.886,635.637L362.886,635.637z M372.231,635.637
	c0,6.875,1.504,12.031,4.502,15.449s6.777,5.117,11.328,5.117c4.512,0,8.271-1.719,11.27-5.156
	c2.999-3.437,4.492-8.672,4.492-15.703c0-6.641-1.504-11.68-4.521-15.098c-3.017-3.418-6.768-5.137-11.24-5.137
	c-4.551,0-8.33,1.719-11.328,5.116C373.736,623.624,372.231,628.762,372.231,635.637L372.231,635.637z M423.843,662.473v-53.672
	h8.185v7.638c3.944-5.898,9.639-8.849,17.09-8.849c3.231,0,6.201,0.586,8.916,1.738c2.715,1.172,4.746,2.695,6.094,4.57
	c1.348,1.895,2.285,4.141,2.832,6.719c0.332,1.699,0.498,4.647,0.498,8.848v33.008h-9.092v-32.655c0-3.691-0.353-6.466-1.064-8.302
	c-0.703-1.836-1.963-3.301-3.76-4.395c-1.807-1.094-3.926-1.641-6.348-1.641c-3.877,0-7.218,1.229-10.029,3.672
	c-2.822,2.461-4.229,7.129-4.229,14.004v29.315L423.843,662.473L423.843,662.473z M501.274,654.348l1.309,8.027
	c-2.559,0.547-4.844,0.801-6.875,0.801c-3.301,0-5.859-0.508-7.676-1.563c-1.826-1.035-3.105-2.422-3.849-4.121
	c-0.742-1.699-1.104-5.273-1.104-10.742v-30.879h-6.68v-7.07h6.68V595.5l9.043-5.449v18.75h9.15v7.07h-9.15v31.387
	c0,2.599,0.156,4.277,0.479,5c0.322,0.742,0.841,1.349,1.572,1.777c0.723,0.449,1.758,0.664,3.105,0.664
	C498.286,654.699,499.624,654.582,501.274,654.348L501.274,654.348z M510.22,598.84v-10.469h9.103v10.469H510.22L510.22,598.84z
	 M510.22,662.473v-53.672h9.103v53.672H510.22L510.22,662.473z M568.345,662.473v-7.87c-4.18,6.055-9.854,9.081-17.03,9.081
	c-3.175,0-6.123-0.604-8.878-1.815c-2.743-1.211-4.784-2.734-6.112-4.57s-2.267-4.082-2.803-6.737
	c-0.371-1.798-0.558-4.63-0.558-8.496v-33.263h9.103v29.767c0,4.746,0.186,7.949,0.557,9.608c0.566,2.384,1.777,4.277,3.633,5.625
	c1.855,1.367,4.15,2.052,6.875,2.052c2.734,0,5.293-0.703,7.687-2.091c2.393-1.405,4.081-3.301,5.077-5.723
	c0.996-2.402,1.494-5.897,1.494-10.488v-28.75h9.092v53.673h-8.136V662.473z M590.747,662.473v-53.672h8.135v7.521
	c1.689-2.617,3.926-4.728,6.719-6.328c2.804-1.603,5.986-2.402,9.562-2.402c3.975,0,7.236,0.82,9.774,2.48
	c2.55,1.641,4.337,3.944,5.382,6.914c4.248-6.271,9.774-9.396,16.582-9.396c5.321,0,9.413,1.465,12.284,4.414
	c2.861,2.949,4.297,7.5,4.297,13.633v36.836h-9.053v-33.809c0-3.633-0.293-6.27-0.879-7.852c-0.596-1.603-1.66-2.892-3.213-3.867
	c-1.553-0.977-3.369-1.465-5.459-1.465c-3.771,0-6.904,1.25-9.404,3.75c-2.489,2.52-3.739,6.543-3.739,12.069v31.172h-9.093v-34.862
	c0-4.043-0.741-7.09-2.227-9.103c-1.484-2.03-3.906-3.026-7.275-3.026c-2.567,0-4.932,0.664-7.108,2.012
	c-2.168,1.348-3.74,3.32-4.728,5.918c-0.977,2.598-1.465,6.328-1.465,11.211v27.852H590.747L590.747,662.473z M73.911,808.137
	c-3.779-1.387-6.572-3.358-8.398-5.918c-1.816-2.559-2.725-5.625-2.725-9.199c0-5.391,1.934-9.922,5.811-13.594
	s9.033-5.508,15.469-5.508c6.465,0,11.68,1.875,15.615,5.625c3.945,3.771,5.918,8.34,5.918,13.73c0,3.438-0.898,6.426-2.705,8.965
	c-1.807,2.559-4.541,4.512-8.213,5.897c4.551,1.484,8.008,3.867,10.391,7.168c2.373,3.302,3.555,7.246,3.555,11.836
	c0,6.328-2.236,11.66-6.719,15.978c-4.483,4.316-10.381,6.465-17.686,6.465c-7.314,0-13.213-2.168-17.695-6.504
	c-4.482-4.316-6.719-9.727-6.719-16.191c0-4.823,1.221-8.848,3.662-12.108C65.913,811.535,69.39,809.309,73.911,808.137
	L73.911,808.137z M69.155,826.945c0,2.578,0.615,5.098,1.846,7.52s3.057,4.316,5.488,5.646c2.422,1.328,5.029,1.991,7.832,1.991
	c4.346,0,7.93-1.405,10.762-4.198s4.248-6.349,4.248-10.664c0-4.375-1.455-8.008-4.375-10.859c-2.91-2.871-6.563-4.297-10.938-4.297
	c-4.277,0-7.832,1.406-10.645,4.238S69.155,822.688,69.155,826.945L69.155,826.945z M72.085,792.727
	c0,3.496,1.133,6.367,3.389,8.595c2.256,2.207,5.186,3.319,8.799,3.319c3.506,0,6.377-1.094,8.613-3.301
	c2.246-2.207,3.359-4.922,3.359-8.125c0-3.32-1.152-6.133-3.457-8.397c-2.314-2.285-5.186-3.419-8.623-3.419
	c-3.467,0-6.348,1.113-8.643,3.341C73.237,786.965,72.085,789.621,72.085,792.727L72.085,792.727z M118.081,783.918v-8.73h47.969
	v7.07c-4.717,5.021-9.395,11.699-14.023,20.021c-4.639,8.319-8.213,16.875-10.742,25.664c-1.826,6.211-2.988,12.987-3.486,20.37
	h-9.355c0.098-5.819,1.25-12.87,3.438-21.112c2.188-8.263,5.332-16.23,9.424-23.888c4.102-7.676,8.457-14.141,13.066-19.395H118.081
	z M180.151,848.313v-10.352h10.361v10.352H180.151z M251.011,792.355l-9.043,0.723c-0.811-3.574-1.953-6.172-3.438-7.793
	c-2.461-2.599-5.498-3.887-9.102-3.887c-2.9,0-5.438,0.801-7.627,2.422c-2.871,2.09-5.127,5.137-6.777,9.141
	c-1.65,4.023-2.51,9.727-2.578,17.148c2.188-3.341,4.873-5.82,8.037-7.441c3.164-1.602,6.484-2.422,9.961-2.422
	c6.064,0,11.221,2.227,15.488,6.699c4.258,4.473,6.396,10.233,6.396,17.305c0,4.648-1.006,8.984-3.008,12.969
	c-2.012,4.004-4.766,7.051-8.262,9.18c-3.506,2.13-7.49,3.185-11.934,3.185c-7.578,0-13.77-2.793-18.545-8.359
	c-4.795-5.586-7.178-14.766-7.178-27.578c0-14.315,2.637-24.727,7.93-31.229c4.619-5.664,10.83-8.496,18.652-8.496
	c5.83,0,10.605,1.641,14.326,4.902C248.042,782.082,250.269,786.594,251.011,792.355z M213.862,824.309
	c0,3.125,0.664,6.134,1.992,9.004c1.338,2.853,3.193,5.039,5.586,6.544c2.393,1.504,4.902,2.245,7.529,2.245
	c3.848,0,7.148-1.543,9.912-4.647c2.764-3.105,4.141-7.324,4.141-12.637c0-5.117-1.357-9.16-4.092-12.109
	c-2.725-2.949-6.162-4.414-10.313-4.414c-4.111,0-7.598,1.465-10.459,4.414C215.297,815.657,213.862,819.523,213.862,824.309z
	 M309.194,839.582v8.729H260.22c-0.077-2.153,0.286-4.3,1.064-6.309c1.24-3.34,3.242-6.621,5.986-9.863
	c2.744-3.241,6.709-6.973,11.904-11.211c8.047-6.621,13.496-11.836,16.328-15.703c2.822-3.848,4.238-7.5,4.238-10.938
	c0-3.613-1.289-6.66-3.867-9.121c-2.578-2.479-5.938-3.729-10.078-3.729c-4.385,0-7.891,1.327-10.518,3.944
	c-2.627,2.638-3.955,6.271-3.994,10.918l-9.346-0.957c0.635-6.973,3.047-12.284,7.227-15.938c4.18-3.672,9.785-5.488,16.836-5.488
	c7.109,0,12.734,1.974,16.875,5.918c4.15,3.945,6.221,8.828,6.221,14.648c0,2.969-0.605,5.879-1.816,8.75
	c-1.221,2.871-3.232,5.879-6.045,9.043s-7.49,7.52-14.023,13.047c-5.459,4.57-8.965,7.695-10.518,9.315
	c-1.553,1.642-2.832,3.281-3.838,4.941h36.338V839.582z M314.341,389.841l36.318-3.535c2.188,12.197,6.621,21.152,13.301,26.865
	c6.689,5.723,15.703,8.574,27.061,8.574c12.021,0,21.074-2.539,27.178-7.627c6.094-5.088,9.141-11.035,9.141-17.853
	c0-4.364-1.279-8.086-3.848-11.151c-2.568-3.076-7.041-5.742-13.428-8.019c-4.375-1.504-14.336-4.199-29.894-8.065
	c-20.01-4.961-34.053-11.056-42.119-18.291c-11.357-10.166-17.031-22.568-17.031-37.197c0-9.424,2.666-18.232,8.008-26.426
	c5.342-8.194,13.037-14.443,23.086-18.73c10.039-4.287,22.168-6.426,36.377-6.426c23.213,0,40.674,5.088,52.402,15.254
	c11.729,10.176,17.891,23.76,18.477,40.742l-37.324,1.641c-1.602-9.502-5.029-16.338-10.283-20.498
	c-5.254-4.16-13.135-6.24-23.643-6.24c-10.85,0-19.346,2.227-25.479,6.68c-3.955,2.861-5.928,6.688-5.928,11.475
	c0,4.375,1.846,8.115,5.547,11.23c4.707,3.945,16.143,8.065,34.308,12.354c18.164,4.288,31.592,8.73,40.293,13.312
	s15.508,10.84,20.43,18.789s7.383,17.764,7.383,29.453c0,10.586-2.949,20.508-8.828,29.756
	c-5.889,9.258-14.209,16.123-24.971,20.625c-10.771,4.493-24.18,6.749-40.234,6.749c-23.379,0-41.328-5.401-53.857-16.211
	C324.253,426.267,316.772,410.525,314.341,389.841L314.341,389.841z M529.741,449.998h-35.439V316.063h32.92v19.043
	c5.636-8.994,10.703-14.923,15.195-17.783c4.502-2.861,9.609-4.287,15.322-4.287c8.076,0,15.85,2.227,23.34,6.68l-10.978,30.898
	c-5.967-3.857-11.522-5.801-16.649-5.801c-4.961,0-9.16,1.366-12.607,4.102c-3.446,2.735-6.162,7.676-8.135,14.824
	c-1.981,7.139-2.969,22.108-2.969,44.893V449.998L529.741,449.998z M859.438,109.197v7.588h-42.5
	c-0.067-1.904,0.244-3.73,0.919-5.479c1.084-2.9,2.813-5.752,5.194-8.555c2.383-2.813,5.83-6.055,10.332-9.746
	c6.992-5.732,11.709-10.264,14.17-13.613c2.451-3.35,3.683-6.514,3.683-9.502c0-3.125-1.113-5.771-3.351-7.92
	c-2.246-2.148-5.156-3.223-8.76-3.223c-3.799,0-6.836,1.143-9.121,3.428c-2.275,2.275-3.438,5.439-3.467,9.473l-8.115-0.84
	c0.558-6.045,2.646-10.664,6.279-13.838c3.623-3.174,8.486-4.756,14.6-4.756c6.172,0,11.056,1.709,14.658,5.127
	c3.594,3.428,5.391,7.666,5.391,12.725c0,2.578-0.526,5.107-1.571,7.588c-1.056,2.49-2.804,5.107-5.244,7.852
	c-2.441,2.754-6.504,6.523-12.178,11.318c-4.736,3.975-7.773,6.68-9.121,8.096c-1.349,1.416-2.461,2.842-3.341,4.277H859.438z
	 M830.093,171.755c-3.271-1.201-5.703-2.91-7.285-5.137c-1.571-2.217-2.362-4.883-2.362-7.979c0-4.678,1.68-8.613,5.039-11.807
	c3.369-3.184,7.842-4.775,13.428-4.775c5.615,0,10.137,1.631,13.555,4.893c3.418,3.262,5.138,7.227,5.138,11.904
	c0,2.988-0.791,5.586-2.354,7.793c-1.563,2.207-3.936,3.906-7.129,5.107c3.955,1.289,6.953,3.359,9.014,6.23
	c2.07,2.861,3.097,6.289,3.097,10.264c0,5.498-1.943,10.117-5.83,13.857c-3.896,3.75-9.015,5.615-15.361,5.615
	c-6.338,0-11.455-1.875-15.353-5.635c-3.887-3.76-5.829-8.447-5.829-14.063c0-4.18,1.055-7.676,3.184-10.498
	C823.159,174.705,826.177,172.781,830.093,171.755z M825.972,188.074c0,2.256,0.527,4.434,1.603,6.533
	c1.063,2.109,2.656,3.74,4.756,4.893c2.082,1.146,4.421,1.74,6.797,1.729c3.779,0,6.896-1.211,9.346-3.633
	c2.461-2.432,3.691-5.518,3.691-9.258c0-3.799-1.271-6.943-3.799-9.434c-2.529-2.48-5.693-3.73-9.502-3.73
	c-3.711,0-6.787,1.23-9.229,3.691C827.192,181.316,825.972,184.392,825.972,188.074L825.972,188.074z M828.511,158.376
	c0,3.037,0.986,5.527,2.939,7.451c1.963,1.934,4.502,2.9,7.637,2.9c3.037,0,5.537-0.957,7.48-2.871
	c1.942-1.914,2.92-4.268,2.92-7.041c0-2.9-1.006-5.332-3.008-7.305c-2.003-1.973-4.503-2.959-7.48-2.959
	c-3.018,0-5.518,0.957-7.5,2.891C829.507,153.376,828.511,155.681,828.511,158.376L828.511,158.376z M797.71,296.462h-7.891V246.15
	c-1.904,1.807-4.396,3.623-7.48,5.439c-3.086,1.807-5.858,3.174-8.311,4.072v-7.627c4.414-2.08,8.271-4.59,11.582-7.549
	c3.301-2.949,5.645-5.82,7.012-8.594h5.088V296.462L797.71,296.462z M830.083,261.589c-3.271-1.201-5.703-2.91-7.285-5.137
	c-1.572-2.217-2.362-4.883-2.362-7.979c0-4.678,1.68-8.613,5.038-11.807c3.369-3.184,7.843-4.775,13.429-4.775
	c5.614,0,10.137,1.631,13.555,4.893c3.418,3.262,5.137,7.227,5.137,11.904c0,2.988-0.791,5.586-2.354,7.793
	c-1.563,2.207-3.937,3.906-7.129,5.107c3.955,1.289,6.953,3.359,9.014,6.23c2.07,2.861,3.096,6.289,3.096,10.264
	c0,5.498-1.942,10.117-5.83,13.857c-3.896,3.75-9.014,5.615-15.36,5.615c-6.338,0-11.455-1.875-15.353-5.635
	c-3.887-3.76-5.83-8.447-5.83-14.063c0-4.18,1.056-7.676,3.185-10.498C823.149,264.539,826.167,262.615,830.083,261.589
	L830.083,261.589z M825.962,277.908c0,2.256,0.527,4.434,1.603,6.533c1.063,2.109,2.655,3.74,4.756,4.893
	c2.081,1.146,4.421,1.74,6.797,1.729c3.779,0,6.895-1.211,9.346-3.633c2.461-2.432,3.691-5.518,3.691-9.258
	c0-3.799-1.271-6.943-3.799-9.434c-2.529-2.48-5.693-3.73-9.503-3.73c-3.711,0-6.786,1.23-9.229,3.691
	C827.183,271.15,825.962,274.226,825.962,277.908L825.962,277.908z M828.501,248.21c0,3.037,0.986,5.527,2.939,7.451
	c1.963,1.934,4.502,2.9,7.637,2.9c3.037,0,5.537-0.957,7.479-2.871c1.943-1.914,2.92-4.268,2.92-7.041
	c0-2.9-1.006-5.332-3.008-7.305c-2.002-1.973-4.502-2.959-7.479-2.959c-3.019,0-5.519,0.957-7.5,2.891
	C829.497,243.21,828.501,245.515,828.501,248.21L828.501,248.21z M830.093,351.433c-3.271-1.2-5.703-2.909-7.285-5.137
	c-1.571-2.217-2.362-4.883-2.362-7.979c0-4.679,1.68-8.613,5.039-11.808c3.369-3.184,7.842-4.774,13.428-4.774
	c5.615,0,10.137,1.631,13.555,4.893s5.138,7.228,5.138,11.904c0,2.987-0.791,5.586-2.354,7.793
	c-1.563,2.207-3.936,3.906-7.129,5.106c3.955,1.289,6.953,3.359,9.014,6.23c2.07,2.861,3.097,6.289,3.097,10.264
	c0,5.498-1.943,10.117-5.83,13.857c-3.896,3.75-9.015,5.615-15.361,5.615c-6.338,0-11.455-1.875-15.353-5.636
	c-3.887-3.76-5.829-8.446-5.829-14.063c0-4.181,1.055-7.676,3.184-10.498C823.159,354.382,826.177,352.458,830.093,351.433z
	 M825.972,367.751c0,2.256,0.527,4.434,1.603,6.533c1.063,2.108,2.656,3.74,4.756,4.893c2.082,1.146,4.421,1.74,6.797,1.729
	c3.779,0,6.896-1.211,9.346-3.633c2.461-2.433,3.691-5.519,3.691-9.259c0-3.799-1.271-6.942-3.799-9.434
	c-2.529-2.48-5.693-3.73-9.502-3.73c-3.711,0-6.787,1.23-9.229,3.691C827.192,360.994,825.972,364.07,825.972,367.751
	L825.972,367.751z M828.511,338.054c0,3.037,0.986,5.527,2.939,7.451c1.963,1.935,4.502,2.9,7.637,2.9
	c3.037,0,5.537-0.957,7.48-2.871c1.942-1.914,2.92-4.269,2.92-7.041c0-2.9-1.006-5.332-3.008-7.306
	c-2.003-1.973-4.503-2.959-7.48-2.959c-3.018,0-5.518,0.957-7.5,2.892C829.507,333.054,828.511,335.359,828.511,338.054
	L828.511,338.054z M859.438,468.547v7.598h-42.5c-0.068-1.913,0.243-3.729,0.918-5.487c1.084-2.892,2.813-5.742,5.194-8.556
	c2.383-2.813,5.83-6.049,10.332-9.739c6.992-5.733,11.709-10.265,14.17-13.614c2.451-3.35,3.683-6.514,3.683-9.502
	c0-3.125-1.113-5.771-3.351-7.92c-2.246-2.148-5.155-3.224-8.76-3.224c-3.799,0-6.836,1.144-9.121,3.429
	c-2.274,2.274-3.438,5.438-3.467,9.473l-8.115-0.84c0.558-6.045,2.646-10.664,6.279-13.838c3.623-3.174,8.486-4.756,14.6-4.756
	c6.172,0,11.056,1.709,14.658,5.127c3.594,3.428,5.391,7.666,5.391,12.725c0,2.578-0.526,5.107-1.571,7.588
	c-1.056,2.49-2.804,5.107-5.244,7.853c-2.441,2.754-6.504,6.523-12.178,11.318c-4.736,3.97-7.773,6.685-9.121,8.09
	c-1.349,1.427-2.461,2.853-3.34,4.277L859.438,468.547L859.438,468.547z"/>
</svg>
