<?xml version="1.0" encoding="utf-8"?>
<!-- Generator: Adobe Illustrator 16.0.3, SVG Export Plug-In . SVG Version: 6.00 Build 0)  -->
<!DOCTYPE svg PUBLIC "-//W3C//DTD SVG 1.1//EN" "http://www.w3.org/Graphics/SVG/1.1/DTD/svg11.dtd">
<svg version="1.1" id="Layer_1" xmlns="http://www.w3.org/2000/svg" xmlns:xlink="http://www.w3.org/1999/xlink" x="0px" y="0px"
	 width="900px" height="900px" viewBox="0 0 900 900" enable-background="new 0 0 900 900" xml:space="preserve">
<path d="M39.775,133.826l13.838-1.846c1.592,7.842,4.297,13.496,8.115,16.953c3.818,3.467,8.467,5.195,13.955,5.195
	c6.504,0,12.002-2.256,16.484-6.768c4.482-4.512,6.729-10.098,6.729-16.758c0-6.357-2.08-11.602-6.23-15.723
	c-4.15-4.131-9.424-6.191-15.83-6.191c-2.617,0-5.869,0.518-9.766,1.533l1.533-12.139c0.928,0.098,1.67,0.146,2.236,0.146
	c5.889,0,11.191-1.533,15.908-4.609c4.717-3.076,7.07-7.813,7.07-14.219c0-5.078-1.709-9.277-5.146-12.617
	c-3.438-3.33-7.871-4.99-13.301-4.99c-5.381,0-9.863,1.689-13.457,5.068C58.33,70.251,56.025,75.32,55,82.087l-13.838-2.461
	c1.689-9.277,5.537-16.465,11.533-21.563c5.996-5.098,13.447-7.646,22.373-7.646c6.143,0,11.807,1.318,16.982,3.955
	c5.175,2.637,9.141,6.24,11.885,10.801c2.734,4.561,4.111,9.404,4.111,14.531c0,4.873-1.309,9.307-3.926,13.301
	c-2.607,3.994-6.484,7.178-11.602,9.531c6.66,1.543,11.836,4.727,15.527,9.57c3.691,4.843,5.537,10.908,5.537,18.184
	c0,9.844-3.594,18.184-10.762,25.029c-7.178,6.836-16.25,10.264-27.217,10.264c-9.893,0-18.105-2.949-24.648-8.848
	C44.424,150.847,40.703,143.21,39.775,133.826L39.775,133.826z M129.346,137.517l13.301-1.23c1.123,6.26,3.271,10.791,6.455,13.613
	c3.174,2.813,7.256,4.229,12.227,4.229c4.248,0,7.979-0.977,11.182-2.92c3.203-1.953,5.83-4.551,7.881-7.813
	c2.051-3.252,3.77-7.646,5.156-13.184c1.378-5.532,2.073-11.212,2.07-16.914c0-0.615-0.029-1.533-0.078-2.764
	c-2.764,4.404-6.543,7.979-11.338,10.723c-4.795,2.744-9.98,4.111-15.566,4.111c-9.326,0-17.227-3.379-23.682-10.146
	s-9.688-15.684-9.688-26.748c0-11.436,3.369-20.635,10.107-27.607c6.738-6.963,15.186-10.449,25.332-10.449
	c7.334,0,14.033,1.973,20.107,5.918c6.074,3.945,10.684,9.57,13.838,16.875c3.154,7.305,4.727,17.871,4.727,31.709
	c0,14.404-1.563,25.869-4.688,34.404c-3.125,8.535-7.773,15.029-13.955,19.492c-6.172,4.463-13.418,6.689-21.719,6.689
	c-8.818,0-16.016-2.451-21.602-7.344S130.469,146.384,129.346,137.517L129.346,137.517z M186.006,87.781
	c0-7.949-2.119-14.248-6.348-18.916s-9.316-6.992-15.254-6.992c-6.152,0-11.514,2.51-16.074,7.529
	c-4.561,5.029-6.836,11.533-6.836,19.531c0,7.178,2.158,13.008,6.494,17.49c4.326,4.482,9.668,6.729,16.025,6.729
	c6.406,0,11.68-2.246,15.801-6.729C183.935,101.94,186.006,95.72,186.006,87.781L186.006,87.781z M313.604,662.473v-31.387
	l-28.555-42.715h11.934l14.6,22.344c2.645,4.099,5.159,8.281,7.539,12.539c2.217-3.867,4.912-8.242,8.086-13.086l14.355-21.797
	h11.416l-29.57,42.715v31.387H313.604z M380.479,654.348l1.309,8.027c-2.559,0.547-4.844,0.801-6.875,0.801
	c-3.301,0-5.859-0.508-7.676-1.563c-1.826-1.035-3.105-2.422-3.848-4.121c-0.743-1.699-1.104-5.273-1.104-10.742v-30.879h-6.68
	v-7.07h6.68V595.5l9.043-5.449v18.75h9.15v7.07h-9.15v31.387c0,2.599,0.156,4.277,0.479,5c0.322,0.742,0.84,1.349,1.572,1.777
	c0.723,0.449,1.758,0.664,3.105,0.664C377.49,654.699,378.828,654.582,380.479,654.348z M409.238,654.348l1.309,8.027
	c-2.559,0.547-4.844,0.801-6.875,0.801c-3.301,0-5.859-0.508-7.676-1.563c-1.826-1.035-3.105-2.422-3.848-4.121
	c-0.743-1.699-1.104-5.273-1.104-10.742v-30.879h-6.68v-7.07h6.68V595.5l9.043-5.449v18.75h9.15v7.07h-9.15v31.387
	c0,2.599,0.156,4.277,0.479,5c0.321,0.742,0.84,1.349,1.571,1.777c0.724,0.449,1.759,0.664,3.105,0.664
	C406.25,654.699,407.588,654.582,409.238,654.348z M418.027,662.473v-53.672h8.192v8.146c2.09-3.81,4.015-6.328,5.781-7.539
	c1.777-1.211,3.721-1.816,5.84-1.816c3.066,0,6.183,0.978,9.355,2.931l-3.136,8.438c-2.227-1.309-4.452-1.973-6.67-1.973
	c-1.991,0-3.778,0.604-5.36,1.797c-1.582,1.191-2.715,2.852-3.39,4.979c-1.006,3.242-1.514,6.777-1.514,10.605v28.104H418.027
	L418.027,662.473z M452.656,598.84v-10.469h9.102v10.469H452.656z M452.656,662.473v-53.672h9.102v53.672H452.656z M510.781,662.473
	v-7.871c-4.181,6.056-9.854,9.082-17.031,9.082c-3.174,0-6.123-0.604-8.877-1.815c-2.744-1.211-4.785-2.734-6.113-4.57
	s-2.266-4.082-2.803-6.737c-0.371-1.798-0.557-4.63-0.557-8.496v-33.263h9.102v29.767c0,4.746,0.186,7.948,0.557,9.608
	c0.566,2.384,1.777,4.277,3.634,5.625c1.854,1.367,4.149,2.052,6.875,2.052c2.733,0,5.293-0.703,7.686-2.091
	c2.394-1.405,4.082-3.301,5.078-5.723c0.996-2.402,1.494-5.898,1.494-10.488v-28.75h9.092v53.672L510.781,662.473L510.781,662.473z
	 M533.174,662.473v-53.672h8.135v7.521c1.689-2.617,3.927-4.728,6.72-6.328c2.803-1.603,5.985-2.402,9.561-2.402
	c3.976,0,7.236,0.82,9.775,2.48c2.549,1.641,4.336,3.944,5.381,6.914c4.248-6.271,9.774-9.396,16.582-9.396
	c5.322,0,9.414,1.465,12.285,4.414c2.86,2.949,4.297,7.5,4.297,13.633v36.836h-9.053v-33.809c0-3.633-0.294-6.271-0.88-7.852
	c-0.596-1.603-1.659-2.892-3.213-3.867c-1.553-0.977-3.369-1.465-5.459-1.465c-3.77,0-6.903,1.25-9.403,3.75
	c-2.49,2.52-3.74,6.543-3.74,12.069v31.172h-9.092v-34.862c0-4.043-0.742-7.091-2.228-9.103c-1.483-2.031-3.906-3.026-7.274-3.026
	c-2.568,0-4.933,0.664-7.109,2.012c-2.168,1.348-3.74,3.32-4.727,5.918c-0.978,2.598-1.466,6.328-1.466,11.211v27.852H533.174
	L533.174,662.473z M73.916,808.137c-3.779-1.387-6.572-3.358-8.398-5.918c-1.816-2.559-2.725-5.625-2.725-9.199
	c0-5.391,1.934-9.922,5.811-13.594s9.033-5.508,15.469-5.508c6.465,0,11.68,1.875,15.615,5.625c3.945,3.771,5.918,8.34,5.918,13.73
	c0,3.438-0.898,6.426-2.705,8.965c-1.807,2.559-4.541,4.512-8.213,5.897c4.551,1.484,8.008,3.867,10.391,7.168
	c2.373,3.302,3.555,7.246,3.555,11.836c0,6.328-2.236,11.66-6.719,15.978c-4.483,4.316-10.381,6.465-17.686,6.465
	c-7.314,0-13.213-2.168-17.695-6.504c-4.482-4.316-6.719-9.727-6.719-16.191c0-4.823,1.221-8.848,3.662-12.108
	C65.918,811.535,69.395,809.309,73.916,808.137L73.916,808.137z M69.16,826.945c0,2.578,0.615,5.098,1.846,7.52
	s3.057,4.316,5.488,5.646c2.422,1.328,5.029,1.991,7.832,1.991c4.346,0,7.93-1.405,10.762-4.198s4.248-6.349,4.248-10.664
	c0-4.375-1.455-8.008-4.375-10.859c-2.91-2.871-6.563-4.297-10.938-4.297c-4.277,0-7.832,1.406-10.645,4.238
	S69.16,822.688,69.16,826.945L69.16,826.945z M72.09,792.727c0,3.496,1.133,6.367,3.389,8.595c2.256,2.207,5.186,3.319,8.799,3.319
	c3.506,0,6.377-1.094,8.613-3.301c2.246-2.207,3.359-4.922,3.359-8.125c0-3.32-1.152-6.133-3.457-8.397
	c-2.314-2.285-5.186-3.419-8.623-3.419c-3.467,0-6.348,1.113-8.643,3.341C73.242,786.965,72.09,789.621,72.09,792.727L72.09,792.727
	z M131.484,808.137c-3.779-1.387-6.572-3.358-8.398-5.918c-1.816-2.559-2.725-5.625-2.725-9.199c0-5.391,1.934-9.922,5.811-13.594
	s9.033-5.508,15.469-5.508c6.465,0,11.68,1.875,15.615,5.625c3.945,3.77,5.918,8.34,5.918,13.73c0,3.438-0.898,6.426-2.705,8.965
	c-1.807,2.559-4.541,4.512-8.213,5.897c4.551,1.484,8.008,3.867,10.391,7.168c2.373,3.302,3.555,7.246,3.555,11.836
	c0,6.328-2.236,11.66-6.719,15.978c-4.483,4.316-10.381,6.465-17.686,6.465c-7.314,0-13.213-2.168-17.695-6.504
	c-4.482-4.316-6.719-9.728-6.719-16.191c0-4.823,1.221-8.848,3.662-12.108C123.486,811.535,126.963,809.309,131.484,808.137
	L131.484,808.137z M126.729,826.945c0,2.578,0.615,5.098,1.846,7.52s3.057,4.316,5.488,5.646c2.422,1.327,5.029,1.991,7.832,1.991
	c4.346,0,7.93-1.405,10.762-4.198s4.248-6.349,4.248-10.664c0-4.375-1.455-8.008-4.375-10.859c-2.91-2.871-6.563-4.297-10.938-4.297
	c-4.277,0-7.832,1.406-10.645,4.238S126.729,822.688,126.729,826.945L126.729,826.945z M129.658,792.727
	c0,3.496,1.133,6.367,3.389,8.595c2.256,2.207,5.186,3.319,8.799,3.319c3.506,0,6.377-1.094,8.613-3.301
	c2.246-2.207,3.359-4.922,3.359-8.125c0-3.32-1.152-6.133-3.457-8.398c-2.314-2.284-5.186-3.418-8.623-3.418
	c-3.467,0-6.348,1.113-8.643,3.341C130.811,786.965,129.658,789.621,129.658,792.727L129.658,792.727z M180.156,848.313v-10.352
	h10.361v10.352H180.156z M205.176,831.184l8.74-0.801c0.742,4.102,2.158,7.09,4.248,8.945c2.09,1.854,4.766,2.772,8.037,2.772
	c2.793,0,5.244-0.645,7.354-1.914c2.109-1.289,3.828-2.987,5.176-5.137s2.48-5.039,3.389-8.672s1.367-7.344,1.367-11.113
	c0-0.41-0.02-1.016-0.049-1.815c-1.826,2.891-4.307,5.233-7.461,7.051c-3.145,1.797-6.563,2.695-10.234,2.695
	c-6.133,0-11.318-2.228-15.566-6.681c-4.248-4.434-6.367-10.293-6.367-17.578c0-7.52,2.217-13.573,6.65-18.145
	c4.424-4.59,9.98-6.875,16.65-6.875c4.814,0,9.229,1.289,13.213,3.887c3.994,2.599,7.031,6.289,9.102,11.095
	c2.071,4.805,3.105,11.758,3.105,20.858c0,9.474-1.025,17.012-3.076,22.617c-2.061,5.604-5.117,9.883-9.18,12.813
	c-4.063,2.931-8.818,4.396-14.277,4.396c-5.791,0-10.527-1.602-14.199-4.824C208.126,841.536,205.918,837.004,205.176,831.184
	L205.176,831.184z M242.422,798.488c0-5.234-1.387-9.375-4.17-12.441c-2.773-3.066-6.123-4.609-10.029-4.609
	c-4.043,0-7.568,1.66-10.566,4.961c-2.998,3.302-4.502,7.578-4.502,12.832c0,4.728,1.426,8.556,4.277,11.505
	c2.842,2.948,6.357,4.434,10.537,4.434c4.209,0,7.676-1.484,10.391-4.434C241.064,807.785,242.422,803.703,242.422,798.488z
	 M261.387,811.77c0-8.75,0.898-15.801,2.705-21.151c1.797-5.332,4.482-9.453,8.037-12.363c3.555-2.891,8.027-4.336,13.418-4.336
	c3.975,0,7.461,0.801,10.459,2.402c2.998,1.601,5.479,3.905,7.432,6.914c1.953,3.026,3.486,6.698,4.6,11.016
	c1.113,4.336,1.67,10.176,1.67,17.52c0,8.691-0.889,15.724-2.676,21.056c-1.787,5.352-4.463,9.473-8.018,12.383
	c-3.555,2.91-8.047,4.375-13.467,4.375c-7.148,0-12.754-2.559-16.836-7.676C263.828,835.734,261.387,825.695,261.387,811.77
	L261.387,811.77z M270.732,811.77c0,12.168,1.426,20.273,4.277,24.297c2.842,4.023,6.357,6.035,10.537,6.035
	c4.18,0,7.695-2.03,10.537-6.073c2.852-4.044,4.268-12.13,4.268-24.259c0-12.188-1.416-20.293-4.268-24.315
	c-2.842-4.004-6.396-6.017-10.635-6.017c-4.18,0-7.52,1.777-10.01,5.313C272.305,791.262,270.732,799.602,270.732,811.77
	L270.732,811.77z M366.162,792.354l-9.043,0.724c-0.811-3.574-1.953-6.172-3.438-7.793c-2.461-2.599-5.498-3.888-9.102-3.888
	c-2.9,0-5.439,0.802-7.627,2.423c-2.871,2.09-5.127,5.137-6.777,9.141c-1.65,4.023-2.51,9.727-2.578,17.148
	c2.188-3.341,4.873-5.82,8.037-7.441c3.164-1.602,6.484-2.422,9.961-2.422c6.064,0,11.221,2.227,15.488,6.699
	c4.258,4.473,6.396,10.233,6.396,17.305c0,4.647-1.006,8.984-3.008,12.969c-2.012,4.004-4.766,7.051-8.262,9.18
	c-3.506,2.13-7.49,3.185-11.934,3.185c-7.578,0-13.77-2.793-18.545-8.359c-4.795-5.586-7.178-14.766-7.178-27.578
	c0-14.315,2.637-24.727,7.93-31.229c4.619-5.664,10.83-8.496,18.652-8.496c5.83,0,10.605,1.641,14.326,4.902
	C363.193,782.082,365.42,786.594,366.162,792.354L366.162,792.354z M329.014,824.309c0,3.125,0.664,6.133,1.992,9.004
	c1.338,2.853,3.193,5.039,5.586,6.543c2.393,1.505,4.902,2.246,7.529,2.246c3.848,0,7.148-1.543,9.912-4.647
	c2.764-3.105,4.141-7.324,4.141-12.638c0-5.116-1.357-9.159-4.092-12.108c-2.725-2.949-6.162-4.414-10.313-4.414
	c-4.111,0-7.598,1.465-10.459,4.414S329.014,819.522,329.014,824.309z M424.268,449.998v-77.813l-67.725-107.08h43.77l43.507,73.154
	l42.627-73.154h43.008l-67.979,107.333v77.56H424.268L424.268,449.998z M859.434,109.197v7.588h-42.5
	c-0.067-1.904,0.244-3.73,0.918-5.479c1.084-2.9,2.813-5.752,5.195-8.555c2.383-2.813,5.83-6.055,10.332-9.746
	c6.992-5.732,11.709-10.264,14.17-13.613c2.451-3.35,3.682-6.514,3.682-9.502c0-3.125-1.112-5.771-3.35-7.92
	c-2.246-2.148-5.156-3.223-8.76-3.223c-3.799,0-6.836,1.143-9.121,3.428c-2.275,2.275-3.438,5.439-3.467,9.473l-8.115-0.84
	c0.557-6.045,2.646-10.664,6.279-13.838c3.623-3.174,8.485-4.756,14.6-4.756c6.172,0,11.055,1.709,14.658,5.127
	c3.594,3.428,5.391,7.666,5.391,12.725c0,2.578-0.526,5.107-1.571,7.588c-1.056,2.49-2.804,5.107-5.244,7.852
	c-2.441,2.754-6.504,6.523-12.179,11.318c-4.735,3.975-7.772,6.68-9.12,8.096c-1.349,1.416-2.462,2.842-3.341,4.277H859.434z
	 M830.088,171.755c-3.271-1.201-5.703-2.91-7.285-5.137c-1.572-2.217-2.362-4.883-2.362-7.979c0-4.678,1.68-8.613,5.038-11.807
	c3.369-3.184,7.843-4.775,13.429-4.775c5.614,0,10.137,1.631,13.555,4.893c3.418,3.262,5.137,7.227,5.137,11.904
	c0,2.988-0.791,5.586-2.354,7.793c-1.563,2.207-3.937,3.906-7.129,5.107c3.955,1.289,6.953,3.359,9.014,6.23
	c2.07,2.861,3.096,6.289,3.096,10.264c0,5.498-1.942,10.117-5.83,13.857c-3.896,3.75-9.014,5.615-15.36,5.615
	c-6.338,0-11.455-1.875-15.353-5.635c-3.887-3.76-5.83-8.447-5.83-14.063c0-4.18,1.056-7.676,3.185-10.498
	C823.154,174.705,826.172,172.781,830.088,171.755z M825.967,188.074c0,2.256,0.527,4.434,1.603,6.533
	c1.063,2.109,2.655,3.74,4.756,4.893c2.081,1.146,4.421,1.74,6.797,1.729c3.779,0,6.895-1.211,9.346-3.633
	c2.461-2.432,3.691-5.518,3.691-9.258c0-3.799-1.271-6.943-3.799-9.434c-2.529-2.48-5.693-3.73-9.503-3.73
	c-3.711,0-6.786,1.23-9.229,3.691C827.188,181.316,825.967,184.392,825.967,188.074L825.967,188.074z M828.506,158.376
	c0,3.037,0.986,5.527,2.939,7.451c1.963,1.934,4.502,2.9,7.637,2.9c3.037,0,5.537-0.957,7.48-2.871
	c1.942-1.914,2.92-4.268,2.92-7.041c0-2.9-1.007-5.332-3.009-7.305c-2.002-1.973-4.502-2.959-7.479-2.959
	c-3.019,0-5.519,0.957-7.5,2.891C829.502,153.376,828.506,155.681,828.506,158.376L828.506,158.376z M797.705,296.462h-7.891V246.15
	c-1.904,1.807-4.396,3.623-7.48,5.439c-3.086,1.807-5.859,3.174-8.311,4.072v-7.627c4.414-2.08,8.271-4.59,11.582-7.549
	c3.301-2.949,5.645-5.82,7.012-8.594h5.088V296.462L797.705,296.462z M830.078,261.589c-3.271-1.201-5.703-2.91-7.285-5.137
	c-1.572-2.217-2.363-4.883-2.363-7.979c0-4.678,1.681-8.613,5.039-11.807c3.369-3.184,7.842-4.775,13.428-4.775
	c5.615,0,10.138,1.631,13.556,4.893c3.418,3.262,5.137,7.227,5.137,11.904c0,2.988-0.791,5.586-2.354,7.793
	c-1.563,2.207-3.937,3.906-7.13,5.107c3.955,1.289,6.953,3.359,9.015,6.23c2.069,2.861,3.096,6.289,3.096,10.264
	c0,5.498-1.942,10.117-5.83,13.857c-3.896,3.75-9.014,5.615-15.36,5.615c-6.339,0-11.455-1.875-15.353-5.635
	c-3.887-3.76-5.83-8.447-5.83-14.063c0-4.18,1.055-7.676,3.185-10.498C823.145,264.539,826.162,262.615,830.078,261.589
	L830.078,261.589z M825.957,277.908c0,2.256,0.527,4.434,1.602,6.533c1.064,2.109,2.656,3.74,4.756,4.893
	c2.082,1.146,4.422,1.74,6.798,1.729c3.778,0,6.895-1.211,9.346-3.633c2.461-2.432,3.69-5.518,3.69-9.258
	c0-3.799-1.27-6.943-3.799-9.434c-2.528-2.48-5.692-3.73-9.502-3.73c-3.711,0-6.787,1.23-9.229,3.691
	C827.178,271.15,825.957,274.226,825.957,277.908L825.957,277.908z M828.496,248.21c0,3.037,0.986,5.527,2.938,7.451
	c1.964,1.934,4.503,2.9,7.638,2.9c3.037,0,5.537-0.957,7.479-2.871c1.943-1.914,2.92-4.268,2.92-7.041
	c0-2.9-1.006-5.332-3.008-7.305c-2.002-1.973-4.502-2.959-7.479-2.959c-3.019,0-5.519,0.957-7.5,2.891
	C829.492,243.21,828.496,245.515,828.496,248.21L828.496,248.21z M819.121,371.433l7.588-0.703c0.645,3.574,1.875,6.162,3.691,7.765
	c1.807,1.61,4.131,2.412,6.973,2.412c2.422,0,4.551-0.547,6.377-1.66s3.33-2.599,4.502-4.453c1.172-1.855,2.148-4.365,2.939-7.529
	c0.789-3.155,1.187-6.396,1.182-9.647c0-0.353-0.02-0.879-0.039-1.572c-1.582,2.51-3.74,4.551-6.475,6.113
	c-2.735,1.562-5.693,2.344-8.888,2.344c-5.321,0-9.823-1.924-13.506-5.781c-3.69-3.867-5.526-8.955-5.526-15.272
	c0-6.515,1.924-11.769,5.771-15.742c3.838-3.976,8.662-5.967,14.453-5.967c4.18,0,7.998,1.123,11.465,3.379
	c3.467,2.246,6.104,5.459,7.9,9.629c1.797,4.16,2.694,10.194,2.694,18.096c0,8.213-0.889,14.756-2.676,19.629
	c-1.787,4.863-4.434,8.574-7.959,11.113c-3.524,2.549-7.656,3.818-12.393,3.818c-5.029,0-9.142-1.396-12.324-4.189
	C821.68,380.417,819.767,376.492,819.121,371.433L819.121,371.433z M851.455,343.054c0-4.531-1.211-8.135-3.623-10.791
	c-2.412-2.666-5.313-3.994-8.711-3.994c-3.506,0-6.563,1.437-9.16,4.298c-2.607,2.87-3.906,6.582-3.906,11.143
	c0,4.102,1.23,7.422,3.701,9.98c2.471,2.558,5.527,3.838,9.15,3.838c3.651,0,6.66-1.279,9.014-3.838
	C850.274,351.13,851.455,347.585,851.455,343.054L851.455,343.054z M859.434,468.547v7.598h-42.5
	c-0.067-1.914,0.244-3.729,0.918-5.487c1.084-2.892,2.813-5.742,5.195-8.556c2.382-2.813,5.83-6.049,10.332-9.739
	c6.992-5.733,11.709-10.265,14.17-13.614c2.451-3.351,3.682-6.514,3.682-9.502c0-3.125-1.112-5.771-3.35-7.92
	c-2.246-2.148-5.156-3.224-8.76-3.224c-3.799,0-6.836,1.144-9.121,3.429c-2.275,2.274-3.438,5.438-3.467,9.473l-8.115-0.84
	c0.557-6.045,2.646-10.664,6.279-13.838c3.623-3.174,8.485-4.756,14.6-4.756c6.172,0,11.055,1.709,14.658,5.127
	c3.594,3.428,5.391,7.666,5.391,12.725c0,2.578-0.526,5.107-1.571,7.588c-1.056,2.49-2.804,5.107-5.244,7.853
	c-2.441,2.754-6.504,6.523-12.179,11.318c-4.735,3.97-7.772,6.685-9.12,8.09c-1.349,1.427-2.462,2.853-3.341,4.277L859.434,468.547
	L859.434,468.547z"/>
</svg>
