<?xml version="1.0" encoding="utf-8"?>
<!-- Generator: Adobe Illustrator 16.0.3, SVG Export Plug-In . SVG Version: 6.00 Build 0)  -->
<!DOCTYPE svg PUBLIC "-//W3C//DTD SVG 1.1//EN" "http://www.w3.org/Graphics/SVG/1.1/DTD/svg11.dtd">
<svg version="1.1" id="Layer_1" xmlns="http://www.w3.org/2000/svg" xmlns:xlink="http://www.w3.org/1999/xlink" x="0px" y="0px"
	 width="900px" height="900px" viewBox="0 0 900 900" enable-background="new 0 0 900 900" xml:space="preserve">
<path d="M86.758,163.35v-26.987H37.861v-12.681l51.426-73.037h11.309v73.037h15.215v12.681h-15.215v26.987H86.758z M86.758,123.682
	v-50.82l-35.293,50.82H86.758z M246.113,662.246v-74.092h27.803c5.664,0,10.205,0.752,13.623,2.246
	c3.418,1.493,6.094,3.809,8.037,6.924c1.934,3.125,2.9,6.377,2.9,9.785c0,3.164-0.85,6.151-2.568,8.944
	c-1.718,2.793-4.316,5.06-7.793,6.777c4.482,1.309,7.93,3.555,10.342,6.719s3.613,6.904,3.613,11.222
	c0,3.467-0.732,6.688-2.197,9.678c-1.465,2.988-3.281,5.283-5.439,6.895c-2.148,1.621-4.854,2.842-8.105,3.672
	c-3.252,0.82-7.236,1.23-11.953,1.23H246.113L246.113,662.246z M255.918,619.287h16.025c4.346,0,7.461-0.283,9.355-0.859
	c2.49-0.742,4.365-1.973,5.635-3.69c1.26-1.709,1.895-3.877,1.895-6.476c0-2.45-0.586-4.619-1.768-6.483
	c-1.182-1.875-2.871-3.154-5.059-3.849c-2.188-0.684-5.947-1.034-11.27-1.034h-14.814L255.918,619.287L255.918,619.287z
	 M255.918,653.506h18.457c3.164,0,5.391-0.117,6.67-0.352c2.256-0.4,4.141-1.084,5.664-2.021c1.514-0.938,2.754-2.324,3.74-4.121
	c0.977-1.797,1.465-3.887,1.465-6.239c0-2.765-0.713-5.166-2.129-7.207s-3.379-3.468-5.889-4.287c-2.51-0.83-6.123-1.25-10.84-1.25
	h-17.139L255.918,653.506L255.918,653.506z M351.152,644.961l9.395,1.172c-1.484,5.488-4.229,9.746-8.232,12.783
	c-4.014,3.037-9.141,4.541-15.371,4.541c-7.852,0-14.072-2.412-18.672-7.246s-6.904-11.621-6.904-20.352
	c0-9.023,2.324-16.035,6.973-21.017c4.658-4.989,10.684-7.479,18.096-7.479c7.178,0,13.047,2.44,17.598,7.324
	c4.541,4.883,6.816,11.758,6.816,20.625c0,0.537-0.01,1.348-0.049,2.422h-40.029c0.332,5.897,2.002,10.41,5,13.555
	c2.998,3.125,6.738,4.688,11.221,4.688c3.34,0,6.182-0.869,8.545-2.617C347.9,651.603,349.766,648.809,351.152,644.961
	L351.152,644.961z M321.279,630.254h29.971c-0.41-4.512-1.553-7.899-3.438-10.156c-2.9-3.506-6.66-5.254-11.27-5.254
	c-4.18,0-7.695,1.396-10.537,4.189C323.154,621.836,321.582,625.566,321.279,630.254L321.279,630.254z M371.865,662.246v-53.672
	h8.193v8.135c2.09-3.809,4.014-6.318,5.781-7.529c1.777-1.211,3.721-1.815,5.84-1.815c3.066,0,6.182,0.977,9.355,2.93l-3.135,8.438
	c-2.228-1.31-4.454-1.974-6.67-1.974c-1.992,0-3.779,0.605-5.361,1.797c-1.582,1.192-2.715,2.853-3.389,4.98
	c-1.006,3.231-1.514,6.777-1.514,10.615v28.096L371.865,662.246L371.865,662.246z M406.035,682.93l-1.006-8.555
	c1.981,0.547,3.721,0.82,5.205,0.82c2.021,0,3.643-0.342,4.854-1.017c1.211-0.674,2.207-1.62,2.979-2.831
	c0.575-0.908,1.504-3.164,2.782-6.777c0.166-0.498,0.439-1.24,0.812-2.217l-20.371-53.779h9.805l11.172,31.084
	c1.491,4.08,2.788,8.229,3.888,12.432c1.034-4.138,2.282-8.219,3.739-12.227l11.476-31.289h9.102l-20.42,54.59
	c-2.197,5.898-3.896,9.961-5.106,12.178c-1.621,2.998-3.468,5.205-5.558,6.593c-2.09,1.405-4.59,2.108-7.479,2.108
	C410.146,684.043,408.193,683.672,406.035,682.93L406.035,682.93z M457.998,662.246v-74.092h9.102v74.092H457.998z M480.996,662.246
	v-74.092h9.102v74.092H480.996z M504.248,598.613v-10.459h9.102v10.459H504.248z M504.248,662.246v-53.672h9.102v53.672H504.248z
	 M562.373,662.246v-7.881c-4.18,6.063-9.854,9.092-17.031,9.092c-3.174,0-6.123-0.604-8.877-1.816
	c-2.744-1.211-4.785-2.733-6.113-4.569c-1.327-1.836-2.266-4.082-2.803-6.748c-0.371-1.787-0.557-4.619-0.557-8.486v-33.262h9.102
	v29.766c0,4.756,0.187,7.949,0.558,9.609c0.565,2.393,1.776,4.268,3.633,5.635c1.854,1.357,4.149,2.041,6.875,2.041
	c2.733,0,5.293-0.692,7.686-2.09c2.394-1.406,4.082-3.301,5.078-5.713s1.494-5.908,1.494-10.488v-28.76h9.092v53.672
	L562.373,662.246L562.373,662.246z M584.766,662.246v-53.672h8.136v7.529c1.688-2.627,3.926-4.736,6.719-6.339
	c2.803-1.602,5.986-2.401,9.561-2.401c3.976,0,7.236,0.82,9.775,2.471c2.549,1.65,4.336,3.955,5.381,6.924
	c4.248-6.27,9.775-9.395,16.582-9.395c5.322,0,9.414,1.465,12.285,4.414c2.861,2.949,4.297,7.5,4.297,13.633v36.836h-9.053v-33.809
	c0-3.644-0.293-6.261-0.879-7.861c-0.597-1.603-1.66-2.891-3.213-3.867c-1.554-0.976-3.369-1.465-5.459-1.465
	c-3.771,0-6.904,1.26-9.404,3.76c-2.49,2.521-3.74,6.533-3.74,12.062v31.182h-9.092v-34.873c0-4.043-0.742-7.08-2.228-9.092
	c-1.483-2.031-3.905-3.037-7.274-3.037c-2.568,0-4.933,0.674-7.109,2.021c-2.168,1.349-3.739,3.32-4.727,5.918
	c-0.978,2.599-1.465,6.328-1.465,11.212v27.852L584.766,662.246L584.766,662.246z M63.975,830.957l8.74-0.801
	c0.742,4.102,2.158,7.09,4.248,8.944c2.09,1.855,4.766,2.773,8.037,2.773c2.793,0,5.244-0.635,7.354-1.914
	c2.109-1.289,3.828-2.988,5.176-5.137c1.348-2.129,2.48-5.021,3.389-8.672c0.91-3.635,1.369-7.367,1.367-11.113
	c0-0.41-0.02-1.017-0.049-1.816c-1.826,2.892-4.307,5.244-7.461,7.052c-3.145,1.797-6.563,2.694-10.234,2.694
	c-6.133,0-11.318-2.217-15.566-6.66c-4.248-4.452-6.367-10.313-6.367-17.598c0-7.51,2.217-13.555,6.65-18.145
	c4.424-4.58,9.98-6.875,16.65-6.875c4.814,0,9.229,1.299,13.213,3.896c3.994,2.588,7.031,6.289,9.102,11.094
	c2.07,4.795,3.105,11.748,3.105,20.851c0,9.473-1.025,17.012-3.076,22.616c-2.061,5.605-5.117,9.884-9.18,12.813
	c-4.063,2.93-8.818,4.396-14.277,4.396c-5.791,0-10.527-1.603-14.199-4.824C66.925,841.309,64.717,836.797,63.975,830.957
	L63.975,830.957z M101.221,798.262c0-5.225-1.387-9.375-4.17-12.44c-2.773-3.066-6.123-4.591-10.029-4.591
	c-4.043,0-7.568,1.642-10.566,4.941c-2.998,3.311-4.502,7.588-4.502,12.852c0,4.707,1.426,8.546,4.277,11.494
	c2.842,2.949,6.357,4.425,10.537,4.425c4.209,0,7.676-1.476,10.391-4.425C99.863,807.568,101.221,803.477,101.221,798.262z
	 M125.283,848.096v-10.36h10.361v10.36H125.283z M148.936,811.553c0-8.76,0.898-15.811,2.705-21.151
	c1.797-5.343,4.482-9.464,8.037-12.354c3.555-2.91,8.027-4.354,13.418-4.354c3.975,0,7.461,0.801,10.459,2.401
	c2.998,1.602,5.479,3.906,7.432,6.924c1.953,3.019,3.486,6.689,4.6,11.025c1.113,4.326,1.67,10.156,1.67,17.51
	c0,8.691-0.889,15.713-2.676,21.045c-1.787,5.353-4.463,9.474-8.018,12.384c-3.555,2.92-8.047,4.375-13.467,4.375
	c-7.148,0-12.754-2.56-16.836-7.677C151.377,835.508,148.936,825.469,148.936,811.553L148.936,811.553z M158.281,811.553
	c0,12.158,1.426,20.265,4.277,24.287c2.842,4.023,6.357,6.035,10.537,6.035c4.18,0,7.695-2.012,10.537-6.055
	c2.852-4.054,4.268-12.14,4.268-24.269c0-12.197-1.416-20.303-4.268-24.307c-2.842-4.015-6.396-6.017-10.635-6.017
	c-4.18,0-7.52,1.759-10.01,5.304C159.854,791.055,158.281,799.395,158.281,811.553L158.281,811.553z M240.771,848.096h-9.102
	v-57.979c-2.188,2.09-5.059,4.18-8.613,6.27c-3.554,2.09-6.748,3.652-9.58,4.707v-8.799c5.088-2.393,9.541-5.293,13.35-8.701
	c3.799-3.397,6.504-6.699,8.086-9.901h5.859V848.096z M311.895,839.354v8.74H262.92c-0.076-2.156,0.286-4.306,1.064-6.317
	c1.24-3.341,3.242-6.621,5.986-9.863c2.744-3.223,6.709-6.973,11.904-11.211c8.047-6.603,13.496-11.836,16.328-15.703
	c2.822-3.848,4.238-7.5,4.238-10.938c0-3.604-1.289-6.641-3.867-9.12c-2.578-2.48-5.938-3.711-10.078-3.711
	c-4.385,0-7.891,1.309-10.518,3.936s-3.955,6.27-3.994,10.918l-9.346-0.957c0.635-6.982,3.047-12.295,7.227-15.947
	c4.18-3.651,9.785-5.487,16.836-5.487c7.109,0,12.734,1.973,16.875,5.918c4.15,3.944,6.221,8.828,6.221,14.657
	c0,2.959-0.605,5.88-1.816,8.74c-1.221,2.871-3.232,5.879-6.045,9.043c-2.813,3.174-7.49,7.521-14.023,13.047
	c-5.459,4.591-8.965,7.695-10.518,9.326c-1.553,1.631-2.832,3.271-3.838,4.933h36.339V839.354z M369.463,839.354v8.74h-48.975
	c-0.076-2.156,0.286-4.306,1.064-6.317c1.24-3.341,3.242-6.621,5.986-9.863c2.744-3.223,6.709-6.973,11.904-11.211
	c8.047-6.603,13.496-11.836,16.328-15.703c2.822-3.848,4.238-7.5,4.238-10.938c0-3.604-1.289-6.641-3.867-9.12
	c-2.578-2.48-5.938-3.711-10.078-3.711c-4.385,0-7.891,1.309-10.518,3.936s-3.955,6.27-3.994,10.918l-9.346-0.957
	c0.635-6.982,3.047-12.295,7.227-15.947c4.18-3.651,9.785-5.487,16.836-5.487c7.109,0,12.734,1.973,16.875,5.918
	c4.15,3.944,6.221,8.828,6.221,14.657c0,2.959-0.605,5.88-1.816,8.74c-1.221,2.871-3.232,5.879-6.045,9.043
	c-2.813,3.174-7.49,7.521-14.023,13.047c-5.459,4.591-8.965,7.695-10.518,9.326s-2.832,3.271-3.838,4.933h36.339V839.354z
	 M299.58,264.873h73.906c14.629,0,25.538,0.61,32.725,1.826c7.188,1.221,13.623,3.765,19.297,7.632
	c5.674,3.867,10.41,9.019,14.189,15.449c3.778,6.43,5.674,13.643,5.674,21.631c0,8.662-2.334,16.605-7.002,23.833
	c-4.658,7.236-10.986,12.656-18.976,16.27c11.261,3.281,19.923,8.872,25.978,16.777c6.055,7.9,9.082,17.192,9.082,27.871
	c0,8.408-1.953,16.582-5.859,24.525c-3.916,7.949-9.258,14.298-16.024,19.049c-6.768,4.751-15.107,7.671-25.029,8.765
	c-6.221,0.674-21.23,1.094-45.029,1.26h-62.93L299.58,264.873L299.58,264.873z M336.914,295.645v42.754h24.463
	c14.551,0,23.584-0.21,27.119-0.631c6.387-0.757,11.416-2.964,15.068-6.62c3.661-3.657,5.487-8.473,5.487-14.438
	c0-5.718-1.582-10.361-4.727-13.936c-3.154-3.574-7.842-5.742-14.063-6.499c-3.701-0.42-14.336-0.63-31.914-0.63H336.914
	L336.914,295.645z M336.914,369.17v49.438h34.551c13.457,0,21.992-0.376,25.605-1.134c5.547-1.011,10.067-3.467,13.555-7.378
	s5.234-9.146,5.234-15.703c0-5.547-1.349-10.254-4.033-14.126c-2.695-3.861-6.582-6.685-11.67-8.446
	c-5.088-1.769-16.123-2.651-33.105-2.651H336.914z M563.291,407.134l35.313,5.928c-4.541,12.949-11.709,22.809-21.504,29.575
	c-9.795,6.768-22.051,10.151-36.768,10.151c-23.291,0-40.527-7.607-51.709-22.827c-8.828-12.192-13.242-27.578-13.242-46.157
	c0-22.196,5.801-39.58,17.412-52.152c11.602-12.568,26.27-18.854,44.014-18.854c19.922,0,35.646,6.577,47.168,19.736
	c11.515,13.159,17.021,33.314,16.523,60.474h-88.789c0.254,10.514,3.105,18.688,8.574,24.531s12.274,8.765,20.43,8.765
	c5.547,0,10.215-1.514,14.004-4.541C558.496,418.735,561.357,413.862,563.291,407.134L563.291,407.134z M565.303,371.313
	c-0.244-10.254-2.899-18.052-7.938-23.394c-5.049-5.337-11.183-8.008-18.418-8.008c-7.734,0-14.121,2.816-19.17,8.452
	c-5.039,5.63-7.521,13.286-7.441,22.948L565.303,371.313L565.303,371.313z M862.139,108.955v7.588h-42.5
	c-0.069-1.871,0.243-3.737,0.918-5.483c1.084-2.896,2.813-5.747,5.195-8.555s5.83-6.055,10.332-9.736
	c6.992-5.732,11.709-10.273,14.17-13.623c2.451-3.35,3.682-6.514,3.682-9.497c0-3.13-1.112-5.767-3.35-7.915
	c-2.246-2.153-5.156-3.228-8.76-3.228c-3.799,0-6.836,1.143-9.121,3.423c-2.275,2.28-3.438,5.439-3.467,9.479l-8.115-0.835
	c0.557-6.055,2.646-10.669,6.279-13.843c3.623-3.169,8.485-4.756,14.6-4.756c6.172,0,11.055,1.709,14.658,5.132
	c3.594,3.423,5.391,7.661,5.391,12.72c0,2.573-0.526,5.103-1.571,7.588c-1.056,2.485-2.804,5.107-5.244,7.852
	c-2.441,2.749-6.504,6.523-12.179,11.318c-4.735,3.979-7.772,6.675-9.12,8.096c-1.349,1.416-2.462,2.842-3.341,4.277
	L862.139,108.955L862.139,108.955z M862.139,198.794v7.588h-42.5c-0.069-1.871,0.243-3.737,0.918-5.483
	c1.084-2.896,2.813-5.747,5.195-8.555c2.382-2.808,5.83-6.055,10.332-9.736c6.992-5.732,11.709-10.273,14.17-13.623
	c2.451-3.35,3.682-6.514,3.682-9.497c0-3.13-1.112-5.767-3.35-7.915c-2.246-2.153-5.156-3.229-8.76-3.229
	c-3.799,0-6.836,1.143-9.121,3.423c-2.275,2.28-3.438,5.439-3.467,9.478l-8.115-0.835c0.557-6.055,2.646-10.669,6.279-13.843
	c3.623-3.169,8.485-4.756,14.6-4.756c6.172,0,11.055,1.709,14.658,5.132c3.594,3.423,5.391,7.661,5.391,12.72
	c0,2.573-0.526,5.103-1.571,7.588c-1.056,2.485-2.804,5.107-5.244,7.852c-2.441,2.749-6.504,6.523-12.179,11.318
	c-4.735,3.979-7.772,6.675-9.12,8.096c-1.349,1.416-2.462,2.842-3.341,4.277L862.139,198.794L862.139,198.794z"/>
</svg>
