<?xml version="1.0" encoding="utf-8"?>
<!-- Generator: Adobe Illustrator 16.0.3, SVG Export Plug-In . SVG Version: 6.00 Build 0)  -->
<!DOCTYPE svg PUBLIC "-//W3C//DTD SVG 1.1//EN" "http://www.w3.org/Graphics/SVG/1.1/DTD/svg11.dtd">
<svg version="1.1" id="Layer_1" xmlns="http://www.w3.org/2000/svg" xmlns:xlink="http://www.w3.org/1999/xlink" x="0px" y="0px"
	 width="900px" height="900px" viewBox="0 0 900 900" enable-background="new 0 0 900 900" xml:space="preserve">
<path d="M86.367,163.582V136.6H37.471v-12.686l51.426-73.037h11.309v73.037h15.215V136.6h-15.215v26.982H86.367z M86.367,123.914
	v-50.82l-35.293,50.82H86.367z M129.57,107.996c0-13.32,1.377-24.053,4.111-32.178c2.744-8.115,6.816-14.385,12.227-18.789
	c5.41-4.414,12.207-6.611,20.41-6.611c6.045,0,11.357,1.211,15.918,3.652c4.561,2.432,8.33,5.938,11.299,10.527
	c2.969,4.589,5.303,10.176,7.002,16.758c1.689,6.592,2.529,15.469,2.529,26.641c0,13.223-1.357,23.896-4.072,32.021
	c-2.715,8.125-6.777,14.404-12.188,18.838c-5.4,4.434-12.236,6.65-20.488,6.65c-10.859,0-19.395-3.896-25.596-11.689
	C133.291,144.441,129.57,129.167,129.57,107.996L129.57,107.996z M143.799,107.996c0,18.506,2.158,30.82,6.494,36.943
	c4.326,6.123,9.668,9.189,16.025,9.189s11.699-3.076,16.035-9.229c4.326-6.152,6.494-18.447,6.494-36.904
	c0-18.555-2.168-30.879-6.494-36.982c-4.336-6.094-9.727-9.141-16.182-9.141c-6.357,0-11.436,2.686-15.225,8.066
	C146.182,76.814,143.799,89.5,143.799,107.996L143.799,107.996z M225.84,662.473v-9.102l37.959-47.461
	c2.695-3.359,5.264-6.289,7.686-8.789h-41.348v-8.75h53.076v8.75l-41.602,51.406l-4.502,5.215h47.314v8.729L225.84,662.473
	L225.84,662.473z M293.877,598.84v-10.469h9.102v10.469H293.877z M293.877,662.473v-53.672h9.102v53.672H293.877z M316.719,662.473
	v-53.672h8.193v8.146c2.09-3.81,4.014-6.328,5.781-7.539c1.777-1.211,3.721-1.816,5.84-1.816c3.066,0,6.182,0.978,9.355,2.931
	l-3.135,8.438c-2.227-1.309-4.453-1.973-6.67-1.973c-1.992,0-3.779,0.604-5.361,1.797c-1.582,1.191-2.715,2.852-3.389,4.979
	c-1.006,3.242-1.514,6.777-1.514,10.605v28.104H316.719L316.719,662.473z M386.328,642.824l8.945,1.151
	c-0.977,6.173-3.486,10.996-7.51,14.492c-4.023,3.478-8.975,5.215-14.834,5.215c-7.344,0-13.252-2.401-17.715-7.188
	c-4.463-4.805-6.699-11.699-6.699-20.664c0-5.781,0.957-10.859,2.881-15.215c1.924-4.336,4.844-7.599,8.77-9.767
	c3.926-2.188,8.193-3.262,12.813-3.262c5.83,0,10.596,1.465,14.307,4.414c3.701,2.949,6.084,7.148,7.129,12.559l-8.848,1.367
	c-0.84-3.594-2.334-6.309-4.473-8.125c-2.139-1.836-4.727-2.733-7.764-2.733c-4.58,0-8.301,1.641-11.162,4.922
	c-2.871,3.281-4.297,8.477-4.297,15.586c0,7.227,1.377,12.461,4.141,15.723c2.764,3.281,6.367,4.902,10.82,4.902
	c3.564,0,6.553-1.094,8.945-3.281C384.169,650.734,385.684,647.355,386.328,642.824z M399.668,635.637
	c0-9.94,2.764-17.305,8.291-22.09c4.609-3.965,10.244-5.957,16.885-5.957c7.373,0,13.408,2.422,18.086,7.246
	c4.688,4.844,7.031,11.523,7.031,20.039c0,6.914-1.035,12.344-3.104,16.309c-2.08,3.966-5.089,7.031-9.054,9.22
	c-3.955,2.188-8.28,3.28-12.959,3.28c-7.52,0-13.594-2.401-18.223-7.227C401.982,651.652,399.668,644.699,399.668,635.637
	L399.668,635.637z M409.014,635.637c0,6.875,1.504,12.031,4.502,15.449s6.777,5.117,11.328,5.117c4.513,0,8.271-1.719,11.271-5.156
	c2.999-3.437,4.492-8.672,4.492-15.703c0-6.641-1.505-11.68-4.521-15.098s-6.768-5.137-11.24-5.137
	c-4.551,0-8.33,1.719-11.328,5.116C410.52,623.624,409.014,628.762,409.014,635.637L409.014,635.637z M460.625,662.473v-53.672
	h8.184v7.638c3.945-5.898,9.64-8.849,17.091-8.849c3.231,0,6.2,0.586,8.916,1.738c2.715,1.172,4.745,2.695,6.094,4.57
	c1.348,1.895,2.285,4.141,2.832,6.719c0.332,1.699,0.498,4.647,0.498,8.848v33.008h-9.093v-32.655c0-3.691-0.352-6.466-1.063-8.302
	c-0.703-1.836-1.963-3.301-3.76-4.395c-1.808-1.094-3.927-1.641-6.349-1.641c-3.877,0-7.217,1.229-10.028,3.672
	c-2.822,2.461-4.229,7.129-4.229,14.004v29.315L460.625,662.473L460.625,662.473z M518.242,598.84v-10.469h9.102v10.469H518.242z
	 M518.242,662.473v-53.672h9.102v53.672H518.242z M576.367,662.473v-7.871c-4.18,6.056-9.854,9.082-17.031,9.082
	c-3.174,0-6.123-0.604-8.877-1.815c-2.744-1.211-4.785-2.734-6.113-4.57s-2.266-4.082-2.803-6.737
	c-0.371-1.798-0.557-4.63-0.557-8.496v-33.263h9.102v29.767c0,4.746,0.187,7.948,0.557,9.608c0.566,2.384,1.777,4.277,3.634,5.625
	c1.854,1.367,4.149,2.052,6.875,2.052c2.733,0,5.293-0.703,7.686-2.091c2.394-1.405,4.082-3.301,5.078-5.723
	c0.996-2.402,1.494-5.898,1.494-10.488v-28.75h9.092v53.672L576.367,662.473L576.367,662.473z M598.76,662.473v-53.672h8.135v7.521
	c1.689-2.617,3.927-4.728,6.72-6.328c2.803-1.603,5.985-2.402,9.561-2.402c3.976,0,7.236,0.82,9.775,2.48
	c2.549,1.641,4.336,3.944,5.381,6.914c4.248-6.271,9.775-9.396,16.582-9.396c5.322,0,9.414,1.465,12.285,4.414
	c2.86,2.949,4.297,7.5,4.297,13.633v36.836h-9.053v-33.809c0-3.633-0.294-6.271-0.88-7.852c-0.596-1.603-1.659-2.892-3.213-3.867
	c-1.553-0.977-3.369-1.465-5.459-1.465c-3.77,0-6.903,1.25-9.403,3.75c-2.49,2.52-3.74,6.543-3.74,12.069v31.172h-9.092v-34.862
	c0-4.043-0.742-7.091-2.228-9.103c-1.483-2.031-3.906-3.026-7.274-3.026c-2.568,0-4.933,0.664-7.109,2.012
	c-2.168,1.348-3.74,3.32-4.727,5.918c-0.978,2.598-1.466,6.328-1.466,11.211v27.852H598.76L598.76,662.473z M63.584,831.184
	l8.74-0.801c0.742,4.103,2.158,7.09,4.248,8.945c2.09,1.854,4.766,2.772,8.037,2.772c2.793,0,5.244-0.645,7.354-1.913
	c2.109-1.289,3.828-2.988,5.176-5.138c1.348-2.148,2.48-5.039,3.389-8.672c0.909-3.633,1.367-7.344,1.367-11.113
	c0-0.409-0.02-1.016-0.049-1.815c-1.826,2.891-4.307,5.233-7.461,7.051c-3.145,1.797-6.563,2.695-10.234,2.695
	c-6.133,0-11.318-2.228-15.566-6.681c-4.248-4.434-6.367-10.293-6.367-17.577c0-7.521,2.217-13.574,6.65-18.146
	c4.424-4.59,9.98-6.875,16.65-6.875c4.814,0,9.229,1.289,13.213,3.887c3.994,2.599,7.031,6.289,9.102,11.095
	c2.071,4.805,3.105,11.758,3.105,20.858c0,9.474-1.025,17.013-3.076,22.617c-2.061,5.605-5.117,9.883-9.18,12.813
	c-4.063,2.93-8.818,4.395-14.277,4.395c-5.791,0-10.527-1.602-14.199-4.824C66.534,841.536,64.326,837.004,63.584,831.184
	L63.584,831.184z M100.83,798.488c0-5.234-1.387-9.375-4.17-12.441c-2.773-3.065-6.123-4.608-10.029-4.608
	c-4.043,0-7.568,1.659-10.566,4.961c-2.998,3.301-4.502,7.577-4.502,12.832c0,4.727,1.426,8.555,4.277,11.504
	c2.842,2.948,6.357,4.434,10.537,4.434c4.209,0,7.676-1.483,10.391-4.434C99.473,807.785,100.83,803.703,100.83,798.488z
	 M154.053,848.313h-9.102v-57.97c-2.188,2.09-5.059,4.181-8.613,6.271c-3.554,2.09-6.748,3.651-9.58,4.707v-8.81
	c5.088-2.383,9.541-5.293,13.35-8.69c3.799-3.398,6.504-6.699,8.086-9.902h5.859V848.313L154.053,848.313z M182.461,848.313v-10.353
	h10.361v10.353H182.461L182.461,848.313z M253.926,839.582v8.73h-48.975c-0.076-2.154,0.286-4.3,1.064-6.31
	c1.24-3.34,3.242-6.621,5.986-9.863c2.744-3.241,6.709-6.973,11.904-11.211c8.047-6.621,13.496-11.836,16.328-15.703
	c2.822-3.848,4.238-7.5,4.238-10.938c0-3.613-1.289-6.66-3.867-9.121c-2.578-2.479-5.938-3.729-10.078-3.729
	c-4.385,0-7.891,1.327-10.518,3.944c-2.627,2.638-3.955,6.271-3.994,10.918l-9.346-0.957c0.635-6.973,3.047-12.284,7.227-15.938
	c4.18-3.672,9.785-5.488,16.836-5.488c7.109,0,12.734,1.974,16.875,5.918c4.15,3.945,6.221,8.828,6.221,14.648
	c0,2.969-0.605,5.879-1.816,8.75c-1.221,2.871-3.232,5.879-6.045,9.043s-7.49,7.52-14.023,13.047
	c-5.459,4.57-8.965,7.695-10.518,9.316c-1.553,1.641-2.832,3.28-3.838,4.94h36.339V839.582z M311.504,839.582v8.73h-48.975
	c-0.076-2.154,0.286-4.3,1.064-6.31c1.24-3.34,3.242-6.621,5.986-9.863c2.744-3.241,6.709-6.973,11.904-11.211
	c8.047-6.621,13.496-11.836,16.328-15.703c2.822-3.848,4.238-7.5,4.238-10.938c0-3.613-1.289-6.66-3.867-9.121
	c-2.578-2.479-5.938-3.729-10.078-3.729c-4.385,0-7.891,1.327-10.518,3.944c-2.627,2.638-3.955,6.271-3.994,10.918l-9.346-0.957
	c0.635-6.973,3.047-12.284,7.227-15.938c4.18-3.672,9.785-5.488,16.836-5.488c7.109,0,12.734,1.974,16.875,5.918
	c4.15,3.945,6.221,8.828,6.221,14.648c0,2.969-0.605,5.879-1.816,8.75c-1.221,2.871-3.232,5.879-6.045,9.043
	s-7.49,7.52-14.023,13.047c-5.459,4.57-8.965,7.695-10.518,9.316c-1.553,1.641-2.832,3.28-3.838,4.94h36.339V839.582z
	 M350.42,848.313v-17.734h-32.139v-8.34l33.809-48.027h7.432v48.027h10.01v8.34h-10.01v17.734H350.42z M350.42,822.238V788.82
	l-23.193,33.418H350.42z M317.344,449.998v-33.672l97.109-119.941H328.32v-31.279h135.322v29.014l-101.27,124.727h105.176v31.152
	L317.344,449.998L317.344,449.998z M524.805,449.998h-35.438V316.063h32.92v19.043c5.635-8.994,10.703-14.923,15.195-17.783
	c4.502-2.861,9.608-4.287,15.321-4.287c8.076,0,15.851,2.227,23.34,6.68l-10.977,30.898c-5.967-3.857-11.523-5.801-16.65-5.801
	c-4.961,0-9.159,1.366-12.606,4.102s-6.162,7.676-8.135,14.824c-1.982,7.139-2.97,22.108-2.97,44.893V449.998L524.805,449.998z
	 M861.738,109.197v7.588h-42.5c-0.068-1.904,0.244-3.73,0.918-5.479c1.084-2.9,2.813-5.752,5.195-8.555
	c2.383-2.813,5.829-6.055,10.331-9.746c6.992-5.732,11.709-10.264,14.171-13.613c2.45-3.35,3.682-6.514,3.682-9.502
	c0-3.125-1.113-5.771-3.35-7.92c-2.246-2.148-5.156-3.223-8.761-3.223c-3.799,0-6.836,1.143-9.121,3.428
	c-2.274,2.275-3.438,5.439-3.467,9.473l-8.115-0.84c0.558-6.045,2.646-10.664,6.279-13.838c3.623-3.174,8.486-4.756,14.601-4.756
	c6.172,0,11.055,1.709,14.657,5.127c3.595,3.428,5.392,7.666,5.392,12.725c0,2.578-0.527,5.107-1.572,7.588
	c-1.055,2.49-2.803,5.107-5.244,7.852c-2.441,2.754-6.504,6.523-12.178,11.318c-4.736,3.975-7.773,6.68-9.121,8.096
	s-2.461,2.842-3.34,4.277H861.738z M832.393,171.755c-3.271-1.201-5.702-2.91-7.284-5.137c-1.572-2.217-2.363-4.883-2.363-7.979
	c0-4.678,1.68-8.613,5.039-11.807c3.369-3.184,7.842-4.775,13.428-4.775c5.615,0,10.138,1.631,13.556,4.893
	c3.418,3.262,5.137,7.227,5.137,11.904c0,2.988-0.791,5.586-2.354,7.793c-1.563,2.207-3.936,3.906-7.129,5.107
	c3.955,1.289,6.953,3.359,9.015,6.23c2.069,2.861,3.096,6.289,3.096,10.264c0,5.498-1.943,10.117-5.83,13.857
	c-3.896,3.75-9.014,5.615-15.361,5.615c-6.338,0-11.455-1.875-15.352-5.635c-3.888-3.76-5.83-8.447-5.83-14.063
	c0-4.18,1.055-7.676,3.184-10.498C825.459,174.705,828.477,172.781,832.393,171.755z M828.271,188.074
	c0,2.256,0.526,4.434,1.602,6.533c1.064,2.109,2.656,3.74,4.756,4.893c2.082,1.146,4.421,1.741,6.797,1.729
	c3.779,0,6.896-1.211,9.347-3.633c2.461-2.432,3.69-5.518,3.69-9.258c0-3.799-1.27-6.943-3.799-9.434
	c-2.529-2.48-5.693-3.73-9.502-3.73c-3.711,0-6.787,1.23-9.229,3.691C829.492,181.316,828.271,184.392,828.271,188.074
	L828.271,188.074z M830.811,158.376c0,3.037,0.986,5.527,2.939,7.451c1.963,1.934,4.502,2.9,7.637,2.9
	c3.037,0,5.537-0.957,7.48-2.871s2.92-4.268,2.92-7.041c0-2.9-1.006-5.332-3.008-7.305c-2.002-1.973-4.502-2.959-7.48-2.959
	c-3.018,0-5.518,0.957-7.5,2.891C831.807,153.376,830.812,155.681,830.811,158.376L830.811,158.376z M800.01,296.462h-7.891V246.15
	c-1.904,1.807-4.396,3.623-7.48,5.439c-3.086,1.807-5.858,3.174-8.311,4.072v-7.627c4.414-2.08,8.271-4.59,11.582-7.549
	c3.301-2.949,5.645-5.82,7.012-8.594h5.088V296.462L800.01,296.462z M832.383,261.589c-3.271-1.201-5.703-2.91-7.285-5.137
	c-1.571-2.217-2.362-4.883-2.362-7.979c0-4.678,1.68-8.613,5.039-11.807c3.368-3.184,7.842-4.775,13.428-4.775
	c5.615,0,10.137,1.631,13.555,4.893c3.418,3.262,5.138,7.227,5.138,11.904c0,2.988-0.791,5.586-2.354,7.793
	s-3.936,3.906-7.129,5.107c3.955,1.289,6.953,3.359,9.014,6.23c2.07,2.861,3.097,6.289,3.097,10.264
	c0,5.498-1.943,10.117-5.83,13.857c-3.896,3.75-9.015,5.615-15.361,5.615c-6.338,0-11.455-1.875-15.353-5.635
	c-3.887-3.76-5.829-8.447-5.829-14.063c0-4.18,1.055-7.676,3.184-10.498C825.449,264.539,828.467,262.615,832.383,261.589
	L832.383,261.589z M828.262,277.908c0,2.256,0.527,4.434,1.603,6.533c1.063,2.109,2.655,3.74,4.756,4.893
	c2.081,1.146,4.421,1.74,6.797,1.729c3.779,0,6.896-1.211,9.346-3.633c2.461-2.432,3.691-5.518,3.691-9.258
	c0-3.799-1.271-6.943-3.799-9.434c-2.529-2.48-5.693-3.73-9.502-3.73c-3.711,0-6.787,1.23-9.229,3.691
	C829.482,271.15,828.262,274.226,828.262,277.908L828.262,277.908z M830.801,248.21c0,3.037,0.986,5.527,2.939,7.451
	c1.963,1.934,4.502,2.9,7.637,2.9c3.037,0,5.537-0.957,7.48-2.871c1.942-1.914,2.92-4.268,2.92-7.041c0-2.9-1.006-5.332-3.008-7.305
	c-2.003-1.973-4.503-2.959-7.48-2.959c-3.018,0-5.518,0.957-7.5,2.891C831.797,243.21,830.801,245.515,830.801,248.21
	L830.801,248.21z M800.01,386.306h-7.891v-50.313c-1.904,1.807-4.396,3.623-7.48,5.438c-3.086,1.808-5.858,3.175-8.311,4.072v-7.627
	c4.414-2.08,8.271-4.59,11.582-7.549c3.301-2.949,5.645-5.82,7.012-8.594h5.088V386.306L800.01,386.306z M820.234,354.587
	c0-7.598,0.78-13.721,2.344-18.359c1.563-4.629,3.887-8.202,6.973-10.723c3.086-2.51,6.974-3.77,11.65-3.77
	c3.447,0,6.475,0.692,9.082,2.08c2.598,1.387,4.746,3.397,6.445,6.016c1.698,2.618,3.026,5.801,3.993,9.561
	c0.968,3.761,1.445,8.828,1.445,15.195c0,7.549-0.771,13.644-2.324,18.271c-1.553,4.639-3.866,8.223-6.953,10.752
	c-3.086,2.528-6.981,3.789-11.688,3.789c-6.201,0-11.074-2.218-14.609-6.66C822.354,375.388,820.234,366.667,820.234,354.587
	L820.234,354.587z M828.35,354.587c0,10.557,1.23,17.588,3.701,21.084c2.472,3.496,5.527,5.234,9.15,5.234s6.67-1.748,9.15-5.265
	c2.471-3.506,3.7-10.526,3.7-21.055c0-10.586-1.229-17.617-3.7-21.094c-2.48-3.486-5.558-5.226-9.238-5.226
	c-3.623,0-6.523,1.533-8.683,4.609C829.707,336.794,828.35,344.031,828.35,354.587L828.35,354.587z M861.738,468.547v7.598h-42.5
	c-0.068-1.913,0.244-3.729,0.918-5.487c1.084-2.892,2.813-5.742,5.195-8.556c2.382-2.813,5.829-6.049,10.331-9.739
	c6.992-5.733,11.709-10.265,14.171-13.614c2.45-3.35,3.682-6.514,3.682-9.502c0-3.125-1.113-5.771-3.35-7.92
	c-2.246-2.148-5.156-3.224-8.761-3.224c-3.799,0-6.836,1.144-9.121,3.429c-2.274,2.274-3.438,5.438-3.467,9.473l-8.115-0.84
	c0.558-6.045,2.646-10.664,6.279-13.838c3.623-3.174,8.486-4.756,14.601-4.756c6.172,0,11.055,1.709,14.657,5.127
	c3.595,3.428,5.392,7.666,5.392,12.725c0,2.578-0.527,5.107-1.572,7.588c-1.055,2.49-2.803,5.107-5.244,7.853
	c-2.441,2.754-6.504,6.523-12.178,11.318c-4.736,3.97-7.773,6.685-9.121,8.09c-1.348,1.427-2.461,2.853-3.34,4.277L861.738,468.547
	L861.738,468.547z"/>
</svg>
