<?xml version="1.0" encoding="utf-8"?>
<!-- Generator: Adobe Illustrator 16.0.3, SVG Export Plug-In . SVG Version: 6.00 Build 0)  -->
<!DOCTYPE svg PUBLIC "-//W3C//DTD SVG 1.1//EN" "http://www.w3.org/Graphics/SVG/1.1/DTD/svg11.dtd">
<svg version="1.1" id="Layer_1" xmlns="http://www.w3.org/2000/svg" xmlns:xlink="http://www.w3.org/1999/xlink" x="0px" y="0px"
	 width="900px" height="900px" viewBox="0 0 900 900" enable-background="new 0 0 900 900" xml:space="preserve">
<path d="M86.362,163.582V136.6H37.466v-12.686l51.426-73.037H100.2v73.037h15.215V136.6H100.2v26.982H86.362z M86.362,123.914
	v-50.82l-35.293,50.82H86.362z M181.694,163.582h-13.838V75.398c-3.34,3.184-7.705,6.357-13.115,9.531
	c-5.4,3.184-10.264,5.566-14.561,7.158V78.708c7.734-3.643,14.502-8.047,20.293-13.223c5.791-5.176,9.893-10.205,12.305-15.068
	h8.916V163.582L181.694,163.582z M269.009,662.473v-74.102h10.059l38.926,58.184v-58.184h9.395v74.102H317.33l-38.916-58.223v58.223
	H269.009z M342.759,598.84v-10.469h9.102v10.469H342.759z M342.759,662.473v-53.672h9.102v53.672H342.759z M362.319,635.637
	c0-9.94,2.764-17.305,8.291-22.09c4.609-3.965,10.244-5.957,16.885-5.957c7.373,0,13.408,2.422,18.086,7.246
	c4.688,4.844,7.031,11.523,7.031,20.039c0,6.914-1.035,12.344-3.105,16.309c-2.08,3.966-5.088,7.031-9.053,9.22
	c-3.955,2.188-8.281,3.28-12.959,3.28c-7.52,0-13.594-2.401-18.223-7.227C364.634,651.652,362.319,644.699,362.319,635.637z
	 M371.665,635.637c0,6.875,1.504,12.031,4.502,15.449s6.777,5.117,11.328,5.117c4.512,0,8.271-1.719,11.27-5.156
	c2.999-3.437,4.492-8.672,4.492-15.703c0-6.641-1.504-11.68-4.521-15.098c-3.017-3.418-6.769-5.137-11.24-5.137
	c-4.551,0-8.33,1.719-11.328,5.116C373.17,623.624,371.665,628.762,371.665,635.637L371.665,635.637z M431.665,662.473h-8.438
	v-74.102h9.093v26.445c3.848-4.824,8.75-7.228,14.707-7.228c3.301,0,6.426,0.664,9.375,1.992c2.948,1.328,5.381,3.203,7.284,5.604
	c1.904,2.423,3.39,5.313,4.474,8.73c1.074,3.398,1.61,7.031,1.61,10.918c0,9.199-2.266,16.309-6.815,21.328
	c-4.55,5.019-10.01,7.52-16.377,7.52c-6.338,0-11.31-2.637-14.912-7.93V662.473L431.665,662.473z M431.567,635.227
	c0,6.445,0.868,11.095,2.627,13.966c2.86,4.668,6.737,7.012,11.621,7.012c3.975,0,7.411-1.719,10.313-5.176
	s4.346-8.595,4.346-15.449c0-6.992-1.387-12.168-4.17-15.508c-2.782-3.34-6.143-5-10.078-5c-3.983,0-7.422,1.719-10.313,5.176
	C433.013,623.703,431.567,628.703,431.567,635.227L431.567,635.227z M480.895,598.84v-10.469h9.102v10.469H480.895z
	 M480.895,662.473v-53.672h9.102v53.672H480.895z M539.02,662.473v-7.871c-4.181,6.056-9.854,9.082-17.031,9.082
	c-3.174,0-6.123-0.604-8.877-1.815c-2.744-1.211-4.785-2.734-6.113-4.57s-2.266-4.082-2.803-6.737
	c-0.371-1.798-0.558-4.63-0.558-8.496v-33.263h9.103v29.767c0,4.746,0.186,7.948,0.557,9.608c0.566,2.384,1.777,4.277,3.633,5.625
	c1.855,1.367,4.15,2.052,6.875,2.052c2.734,0,5.293-0.703,7.687-2.091c2.393-1.405,4.082-3.301,5.078-5.723
	c0.995-2.402,1.493-5.898,1.493-10.488v-28.75h9.093v53.672L539.02,662.473L539.02,662.473z M561.421,662.473v-53.672h8.135v7.521
	c1.689-2.617,3.927-4.728,6.72-6.328c2.803-1.603,5.985-2.402,9.561-2.402c3.975,0,7.236,0.82,9.775,2.48
	c2.549,1.641,4.336,3.944,5.381,6.914c4.248-6.271,9.774-9.396,16.582-9.396c5.322,0,9.414,1.465,12.285,4.414
	c2.86,2.949,4.297,7.5,4.297,13.633v36.836h-9.054v-33.809c0-3.633-0.293-6.271-0.879-7.852c-0.596-1.603-1.659-2.892-3.213-3.867
	c-1.553-0.977-3.369-1.465-5.459-1.465c-3.77,0-6.903,1.25-9.403,3.75c-2.49,2.52-3.74,6.543-3.74,12.069v31.172h-9.092v-34.862
	c0-4.043-0.742-7.091-2.228-9.103c-1.483-2.031-3.906-3.026-7.274-3.026c-2.568,0-4.933,0.664-7.109,2.012
	c-2.168,1.348-3.74,3.32-4.728,5.918c-0.977,2.598-1.465,6.328-1.465,11.211v27.852H561.421L561.421,662.473z M63.579,831.184
	l8.74-0.801c0.742,4.103,2.158,7.09,4.248,8.945c2.09,1.854,4.766,2.772,8.037,2.772c2.793,0,5.244-0.645,7.354-1.913
	c2.109-1.289,3.828-2.988,5.176-5.138c1.348-2.148,2.48-5.039,3.389-8.672c0.909-3.633,1.367-7.344,1.367-11.113
	c0-0.409-0.02-1.016-0.049-1.815c-1.826,2.891-4.307,5.233-7.461,7.051c-3.145,1.797-6.563,2.695-10.234,2.695
	c-6.133,0-11.318-2.228-15.566-6.681c-4.248-4.434-6.367-10.293-6.367-17.577c0-7.521,2.217-13.574,6.65-18.146
	c4.424-4.59,9.98-6.875,16.65-6.875c4.814,0,9.229,1.289,13.213,3.887c3.994,2.599,7.031,6.289,9.102,11.095
	c2.071,4.805,3.105,11.758,3.105,20.858c0,9.474-1.025,17.013-3.076,22.617c-2.061,5.605-5.117,9.883-9.18,12.813
	c-4.063,2.93-8.818,4.395-14.277,4.395c-5.791,0-10.527-1.602-14.199-4.824C66.529,841.536,64.321,837.004,63.579,831.184
	L63.579,831.184z M100.825,798.488c0-5.234-1.387-9.375-4.17-12.441c-2.773-3.065-6.123-4.608-10.029-4.608
	c-4.043,0-7.568,1.659-10.566,4.961c-2.998,3.301-4.502,7.577-4.502,12.832c0,4.727,1.426,8.555,4.277,11.504
	c2.842,2.948,6.357,4.434,10.537,4.434c4.209,0,7.676-1.483,10.391-4.434C99.468,807.785,100.825,803.703,100.825,798.488z
	 M167.593,839.582v8.73h-48.975c-0.076-2.154,0.286-4.3,1.064-6.31c1.24-3.34,3.242-6.621,5.986-9.863
	c2.744-3.241,6.709-6.973,11.904-11.211c8.047-6.621,13.496-11.836,16.328-15.703c2.822-3.848,4.238-7.5,4.238-10.938
	c0-3.613-1.289-6.66-3.867-9.121c-2.578-2.479-5.938-3.729-10.078-3.729c-4.385,0-7.891,1.327-10.518,3.944
	c-2.627,2.638-3.955,6.271-3.994,10.918l-9.346-0.957c0.635-6.973,3.047-12.284,7.227-15.938c4.18-3.672,9.785-5.488,16.836-5.488
	c7.109,0,12.734,1.974,16.875,5.918c4.15,3.945,6.221,8.828,6.221,14.648c0,2.969-0.605,5.879-1.816,8.75
	c-1.221,2.871-3.232,5.879-6.045,9.043s-7.49,7.52-14.023,13.047c-5.459,4.57-8.965,7.695-10.518,9.316
	c-1.553,1.641-2.832,3.28-3.838,4.94h36.339V839.582z M182.456,848.313v-10.353h10.361v10.353H182.456z M207.476,831.184l8.74-0.801
	c0.742,4.103,2.158,7.09,4.248,8.945c2.09,1.854,4.766,2.772,8.037,2.772c2.793,0,5.244-0.645,7.354-1.913
	c2.109-1.289,3.828-2.988,5.176-5.138c1.348-2.148,2.479-5.039,3.389-8.672s1.367-7.344,1.367-11.113
	c0-0.409-0.02-1.016-0.049-1.815c-1.826,2.891-4.307,5.233-7.461,7.051c-3.145,1.797-6.563,2.695-10.234,2.695
	c-6.133,0-11.318-2.228-15.566-6.681c-4.248-4.434-6.367-10.293-6.367-17.577c0-7.521,2.217-13.574,6.65-18.146
	c4.424-4.59,9.98-6.875,16.65-6.875c4.814,0,9.229,1.289,13.213,3.887c3.994,2.599,7.031,6.289,9.102,11.095
	c2.071,4.805,3.105,11.758,3.105,20.858c0,9.474-1.025,17.013-3.076,22.617c-2.061,5.605-5.117,9.883-9.18,12.813
	c-4.063,2.93-8.818,4.395-14.277,4.395c-5.791,0-10.527-1.602-14.199-4.824C210.426,841.536,208.218,837.004,207.476,831.184
	L207.476,831.184z M244.722,798.488c0-5.234-1.387-9.375-4.17-12.441c-2.773-3.065-6.123-4.608-10.029-4.608
	c-4.043,0-7.568,1.659-10.566,4.961c-2.998,3.301-4.502,7.577-4.502,12.832c0,4.727,1.426,8.555,4.277,11.504
	c2.842,2.948,6.357,4.434,10.537,4.434c4.209,0,7.676-1.483,10.391-4.434C243.364,807.785,244.722,803.703,244.722,798.488z
	 M263.687,811.77c0-8.75,0.898-15.801,2.705-21.151c1.797-5.332,4.482-9.453,8.037-12.363c3.555-2.891,8.027-4.336,13.418-4.336
	c3.975,0,7.461,0.801,10.459,2.402c2.998,1.601,5.479,3.905,7.432,6.914c1.953,3.026,3.486,6.698,4.6,11.016
	c1.113,4.336,1.67,10.176,1.67,17.521c0,8.69-0.889,15.723-2.676,21.055c-1.787,5.352-4.463,9.473-8.018,12.383
	s-8.047,4.375-13.467,4.375c-7.148,0-12.754-2.559-16.836-7.676C266.128,835.734,263.687,825.695,263.687,811.77L263.687,811.77z
	 M273.032,811.77c0,12.169,1.426,20.273,4.277,24.298c2.842,4.022,6.357,6.034,10.537,6.034c4.18,0,7.695-2.03,10.537-6.073
	c2.852-4.043,4.268-12.129,4.268-24.259c0-12.188-1.416-20.293-4.268-24.315c-2.842-4.004-6.396-6.016-10.635-6.016
	c-4.18,0-7.52,1.776-10.01,5.313C274.604,791.262,273.032,799.602,273.032,811.77L273.032,811.77z M368.462,792.355l-9.043,0.723
	c-0.811-3.574-1.953-6.172-3.438-7.793c-2.461-2.598-5.498-3.887-9.102-3.887c-2.9,0-5.439,0.801-7.627,2.422
	c-2.871,2.09-5.127,5.137-6.777,9.141c-1.65,4.023-2.51,9.727-2.578,17.148c2.188-3.341,4.873-5.82,8.037-7.441
	c3.164-1.602,6.484-2.422,9.961-2.422c6.064,0,11.221,2.227,15.488,6.699c4.258,4.473,6.396,10.233,6.396,17.305
	c0,4.648-1.006,8.984-3.008,12.969c-2.012,4.004-4.766,7.051-8.262,9.181c-3.506,2.129-7.49,3.184-11.934,3.184
	c-7.578,0-13.77-2.793-18.545-8.359c-4.795-5.586-7.178-14.766-7.178-27.577c0-14.316,2.637-24.728,7.93-31.23
	c4.619-5.664,10.83-8.496,18.652-8.496c5.83,0,10.605,1.641,14.326,4.902C365.493,782.082,367.72,786.594,368.462,792.355
	L368.462,792.355z M331.313,824.309c0,3.125,0.664,6.134,1.992,9.005c1.338,2.852,3.193,5.038,5.586,6.543
	c2.393,1.504,4.902,2.245,7.529,2.245c3.848,0,7.148-1.543,9.912-4.647c2.764-3.105,4.141-7.324,4.141-12.637
	c0-5.117-1.357-9.16-4.092-12.109c-2.725-2.949-6.162-4.414-10.313-4.414c-4.111,0-7.598,1.465-10.459,4.414
	C332.748,815.657,331.313,819.523,331.313,824.309z M292.388,449.998V265.105h36.318l75.674,123.477V265.105h34.678v184.893h-37.45
	l-74.542-120.566v120.566H292.388z M476.763,449.998V265.105h35.439v66.592c10.938-12.441,23.877-18.662,38.848-18.662
	c16.31,0,29.806,5.908,40.488,17.715c10.674,11.816,16.016,28.779,16.016,50.889c0,22.871-5.448,40.488-16.338,52.853
	c-10.889,12.354-24.11,18.536-39.658,18.536c-7.655,0-15.194-1.914-22.637-5.743c-7.44-3.818-13.856-9.474-19.238-16.963v19.678
	L476.763,449.998L476.763,449.998z M511.958,380.125c0,13.877,2.178,24.141,6.553,30.781c6.134,9.414,14.297,14.121,24.474,14.121
	c7.813,0,14.473-3.34,19.979-10.029c5.508-6.68,8.263-17.217,8.263-31.592c0-15.304-2.773-26.338-8.32-33.105
	c-5.547-6.767-12.656-10.146-21.318-10.146c-8.486,0-15.547,3.301-21.182,9.893C514.771,356.648,511.958,366.677,511.958,380.125
	L511.958,380.125z M861.743,109.197v7.588h-42.5c-0.068-1.904,0.244-3.73,0.918-5.479c1.084-2.9,2.813-5.752,5.195-8.555
	c2.383-2.813,5.83-6.055,10.332-9.746c6.991-5.732,11.709-10.264,14.17-13.613c2.45-3.35,3.682-6.514,3.682-9.502
	c0-3.125-1.113-5.771-3.35-7.92c-2.246-2.148-5.156-3.223-8.761-3.223c-3.799,0-6.836,1.143-9.121,3.428
	c-2.274,2.275-3.438,5.439-3.467,9.473l-8.114-0.84c0.557-6.045,2.646-10.664,6.278-13.838c3.623-3.174,8.486-4.756,14.601-4.756
	c6.172,0,11.055,1.709,14.657,5.127c3.595,3.428,5.392,7.666,5.392,12.725c0,2.578-0.527,5.107-1.572,7.588
	c-1.055,2.49-2.803,5.107-5.244,7.852c-2.44,2.754-6.504,6.523-12.178,11.318c-4.736,3.975-7.773,6.68-9.121,8.096
	s-2.461,2.842-3.34,4.277H861.743z M832.397,171.755c-3.271-1.201-5.703-2.91-7.285-5.137c-1.572-2.217-2.363-4.883-2.363-7.979
	c0-4.678,1.68-8.613,5.039-11.807c3.369-3.184,7.842-4.775,13.428-4.775c5.615,0,10.138,1.631,13.556,4.893
	c3.418,3.262,5.137,7.227,5.137,11.904c0,2.988-0.791,5.586-2.354,7.793c-1.563,2.207-3.936,3.906-7.129,5.107
	c3.955,1.289,6.953,3.359,9.015,6.23c2.069,2.861,3.096,6.289,3.096,10.264c0,5.498-1.943,10.117-5.83,13.857
	c-3.896,3.75-9.014,5.615-15.361,5.615c-6.338,0-11.455-1.875-15.352-5.635c-3.887-3.76-5.83-8.447-5.83-14.063
	c0-4.18,1.055-7.676,3.184-10.498C825.464,174.705,828.481,172.781,832.397,171.755z M828.276,188.074
	c0,2.256,0.526,4.434,1.602,6.533c1.064,2.109,2.656,3.74,4.756,4.893c2.082,1.146,4.421,1.74,6.797,1.729
	c3.779,0,6.896-1.211,9.347-3.633c2.461-2.432,3.69-5.518,3.69-9.258c0-3.799-1.27-6.943-3.799-9.434
	c-2.529-2.48-5.693-3.73-9.502-3.73c-3.711,0-6.787,1.23-9.229,3.691C829.497,181.316,828.276,184.392,828.276,188.074
	L828.276,188.074z M830.815,158.376c0,3.037,0.985,5.527,2.938,7.451c1.963,1.934,4.502,2.9,7.637,2.9
	c3.037,0,5.537-0.957,7.48-2.871s2.92-4.268,2.92-7.041c0-2.9-1.006-5.332-3.008-7.305c-2.002-1.973-4.502-2.959-7.48-2.959
	c-3.018,0-5.518,0.957-7.5,2.891C831.813,153.376,830.815,155.681,830.815,158.376L830.815,158.376z M800.015,296.462h-7.891V246.15
	c-1.904,1.807-4.395,3.623-7.479,5.439c-3.086,1.807-5.859,3.174-8.312,4.072v-7.627c4.414-2.08,8.271-4.59,11.582-7.549
	c3.301-2.949,5.646-5.82,7.012-8.594h5.089L800.015,296.462L800.015,296.462z M832.388,261.589c-3.271-1.201-5.702-2.91-7.284-5.137
	c-1.572-2.217-2.363-4.883-2.363-7.979c0-4.678,1.68-8.613,5.039-11.807c3.369-3.184,7.842-4.775,13.428-4.775
	c5.615,0,10.137,1.631,13.555,4.893c3.418,3.262,5.138,7.227,5.138,11.904c0,2.988-0.791,5.586-2.354,7.793
	c-1.563,2.207-3.936,3.906-7.129,5.107c3.955,1.289,6.953,3.359,9.014,6.23c2.07,2.861,3.097,6.289,3.097,10.264
	c0,5.498-1.943,10.117-5.83,13.857c-3.896,3.75-9.015,5.615-15.361,5.615c-6.338,0-11.455-1.875-15.352-5.635
	c-3.888-3.76-5.83-8.447-5.83-14.063c0-4.18,1.055-7.676,3.184-10.498C825.454,264.539,828.472,262.615,832.388,261.589
	L832.388,261.589z M828.268,277.908c0,2.256,0.526,4.434,1.602,6.533c1.064,2.109,2.656,3.74,4.756,4.893
	c2.082,1.146,4.421,1.74,6.797,1.729c3.779,0,6.896-1.211,9.346-3.633c2.462-2.432,3.691-5.518,3.691-9.258
	c0-3.799-1.27-6.943-3.799-9.434c-2.529-2.48-5.693-3.73-9.502-3.73c-3.711,0-6.787,1.23-9.229,3.691
	C829.487,271.15,828.267,274.226,828.268,277.908L828.268,277.908z M830.806,248.21c0,3.037,0.986,5.527,2.939,7.451
	c1.963,1.934,4.502,2.9,7.637,2.9c3.037,0,5.537-0.957,7.48-2.871c1.942-1.914,2.92-4.268,2.92-7.041c0-2.9-1.006-5.332-3.008-7.305
	c-2.002-1.973-4.502-2.959-7.48-2.959c-3.018,0-5.518,0.957-7.5,2.891C831.802,243.21,830.807,245.515,830.806,248.21
	L830.806,248.21z M800.015,386.306h-7.891v-50.313c-1.904,1.807-4.395,3.623-7.479,5.438c-3.086,1.808-5.859,3.175-8.312,4.072
	v-7.627c4.414-2.08,8.271-4.59,11.582-7.549c3.301-2.949,5.646-5.82,7.012-8.594h5.089L800.015,386.306L800.015,386.306z
	 M861.733,378.718v7.588h-42.5c-0.068-1.903,0.244-3.729,0.918-5.479c1.084-2.9,2.813-5.752,5.194-8.556
	c2.384-2.813,5.83-6.055,10.332-9.745c6.992-5.732,11.709-10.265,14.17-13.613c2.451-3.351,3.683-6.514,3.683-9.502
	c0-3.125-1.113-5.771-3.351-7.92c-2.245-2.148-5.155-3.224-8.76-3.224c-3.799,0-6.836,1.144-9.121,3.429
	c-2.274,2.274-3.438,5.438-3.467,9.473l-8.115-0.84c0.558-6.045,2.646-10.664,6.279-13.838c3.623-3.174,8.486-4.756,14.6-4.756
	c6.173,0,11.056,1.709,14.658,5.127c3.594,3.428,5.392,7.666,5.392,12.725c0,2.578-0.527,5.107-1.572,7.588
	c-1.055,2.49-2.803,5.107-5.244,7.853c-2.441,2.754-6.504,6.522-12.178,11.317c-4.736,3.976-7.773,6.681-9.121,8.097
	s-2.461,2.842-3.34,4.276H861.733L861.733,378.718z M849.985,476.145h-7.892v-50.316c-1.903,1.807-4.395,3.623-7.479,5.438
	c-3.086,1.808-5.859,3.175-8.312,4.072v-7.627c4.414-2.08,8.271-4.59,11.582-7.549c3.302-2.949,5.646-5.82,7.013-8.594h5.088
	V476.145L849.985,476.145z"/>
</svg>
