<?xml version="1.0" encoding="utf-8"?>
<!-- Generator: Adobe Illustrator 16.0.3, SVG Export Plug-In . SVG Version: 6.00 Build 0)  -->
<!DOCTYPE svg PUBLIC "-//W3C//DTD SVG 1.1//EN" "http://www.w3.org/Graphics/SVG/1.1/DTD/svg11.dtd">
<svg version="1.1" id="Layer_1" xmlns="http://www.w3.org/2000/svg" xmlns:xlink="http://www.w3.org/1999/xlink" x="0px" y="0px"
	 width="900px" height="900px" viewBox="0 0 900 900" enable-background="new 0 0 900 900" xml:space="preserve">
<path d="M86.362,163.584v-26.992H37.466v-12.676l51.426-73.047H100.2v73.047h15.215v12.676H100.2v26.992H86.362z M86.362,123.916
	v-50.82l-35.293,50.82H86.362z M202.3,150.283v13.301h-74.502c-0.098-3.34,0.439-6.543,1.611-9.609
	c1.904-5.078,4.932-10.078,9.111-15s10.215-10.605,18.105-17.07c12.256-10.039,20.527-17.988,24.834-23.867
	c4.307-5.859,6.455-11.406,6.455-16.641c0-5.488-1.953-10.117-5.879-13.887c-3.916-3.77-9.033-5.645-15.332-5.645
	c-6.67,0-12.002,1.992-15.996,5.996c-3.994,4.004-6.025,9.531-6.074,16.602l-14.219-1.445c0.967-10.625,4.639-18.711,10.996-24.258
	c6.348-5.566,14.883-8.34,25.596-8.34c10.811,0,19.375,2.988,25.684,8.984c6.299,5.996,9.453,13.438,9.453,22.305
	c0,4.512-0.928,8.945-2.773,13.301c-1.836,4.355-4.902,8.945-9.18,13.75c-4.287,4.824-11.396,11.426-21.338,19.844
	c-8.301,6.973-13.633,11.699-15.986,14.18c-2.363,2.48-4.307,4.98-5.85,7.5L202.3,150.283L202.3,150.283z M162.339,662.471v-74.102
	h14.756l17.539,52.479c1.621,4.884,2.793,8.535,3.535,10.957c0.85-2.694,2.158-6.659,3.945-11.875l17.744-51.563h13.193v74.102
	h-9.453v-62.012l-21.533,62.012h-8.848l-21.426-63.065v63.065L162.339,662.471L162.339,662.471z M244.321,635.635
	c0-9.94,2.764-17.305,8.291-22.09c4.609-3.965,10.244-5.957,16.885-5.957c7.373,0,13.408,2.422,18.086,7.246
	c4.688,4.844,7.031,11.523,7.031,20.039c0,6.914-1.035,12.344-3.105,16.309c-2.08,3.966-5.088,7.031-9.053,9.22
	c-3.955,2.188-8.281,3.28-12.959,3.28c-7.52,0-13.594-2.401-18.223-7.227C246.636,651.65,244.321,644.697,244.321,635.635z
	 M253.667,635.635c0,6.875,1.504,12.031,4.502,15.449s6.777,5.117,11.328,5.117c4.512,0,8.271-1.719,11.27-5.156
	c2.999-3.437,4.492-8.672,4.492-15.703c0-6.641-1.504-11.68-4.521-15.098c-3.017-3.418-6.768-5.137-11.24-5.137
	c-4.551,0-8.33,1.719-11.328,5.116C255.172,623.622,253.667,628.76,253.667,635.635L253.667,635.635z M305.073,662.471v-74.102
	h9.102v74.102H305.073z M327.866,683.154l-1.006-8.556c1.982,0.548,3.721,0.82,5.205,0.82c2.021,0,3.643-0.352,4.854-1.016
	c1.213-0.682,2.237-1.655,2.979-2.832c0.576-0.918,1.504-3.164,2.783-6.777c0.166-0.508,0.439-1.25,0.811-2.227l-20.371-53.771
	h9.805l11.172,31.074c1.488,4.084,2.785,8.235,3.887,12.441c1.033-4.139,2.281-8.22,3.74-12.228l11.475-31.289h9.102l-20.42,54.59
	c-2.197,5.898-3.896,9.961-5.107,12.188c-1.621,2.988-3.467,5.195-5.557,6.582c-2.09,1.406-4.59,2.108-7.48,2.108
	C331.978,684.268,330.024,683.896,327.866,683.154L327.866,683.154z M388.423,662.471h-8.438v-74.102h9.092v26.445
	c3.848-4.824,8.75-7.228,14.707-7.228c3.301,0,6.426,0.664,9.375,1.992s5.381,3.203,7.285,5.604c1.903,2.423,3.389,5.313,4.473,8.73
	c1.074,3.398,1.611,7.031,1.611,10.918c0,9.199-2.267,16.309-6.816,21.328c-4.55,5.019-10.01,7.52-16.377,7.52
	c-6.338,0-11.309-2.637-14.912-7.93V662.471L388.423,662.471z M388.325,635.225c0,6.445,0.869,11.095,2.627,13.966
	c2.861,4.668,6.738,7.012,11.621,7.012c3.975,0,7.412-1.719,10.313-5.176c2.901-3.457,4.347-8.595,4.347-15.449
	c0-6.992-1.388-12.168-4.17-15.508c-2.783-3.34-6.144-5-10.078-5c-3.984,0-7.422,1.719-10.313,5.176
	C389.771,623.701,388.325,628.701,388.325,635.225L388.325,635.225z M472.427,662.471v-6.776c-3.407,5.332-8.407,7.987-15.01,7.987
	c-4.287,0-8.213-1.172-11.807-3.534c-3.584-2.363-6.367-5.646-8.341-9.884c-1.973-4.219-2.959-9.082-2.959-14.569
	c0-5.371,0.898-10.216,2.687-14.591c1.777-4.354,4.463-7.715,8.037-10.038c3.563-2.324,7.559-3.478,11.973-3.478
	c3.232,0,6.123,0.685,8.644,2.051c2.528,1.349,4.59,3.125,6.172,5.332v-26.602h9.043v74.102H472.427z M443.667,635.693
	c0,6.875,1.445,12.012,4.346,15.409c2.901,3.398,6.318,5.099,10.265,5.099c3.975,0,7.354-1.621,10.127-4.863
	c2.783-3.262,4.17-8.223,4.17-14.902c0-7.344-1.416-12.733-4.238-16.172c-2.832-3.438-6.318-5.155-10.469-5.155
	c-4.043,0-7.422,1.659-10.137,4.961C445.024,623.369,443.667,628.584,443.667,635.693L443.667,635.693z M531.929,645.186
	l9.396,1.173c-1.484,5.487-4.229,9.745-8.232,12.772c-4.014,3.047-9.141,4.551-15.371,4.551c-7.852,0-14.071-2.401-18.672-7.246
	c-4.6-4.844-6.903-11.62-6.903-20.352c0-9.023,2.323-16.035,6.973-21.016c4.658-5,10.684-7.48,18.096-7.48
	c7.178,0,13.047,2.441,17.599,7.324c4.541,4.883,6.815,11.758,6.815,20.625c0,0.547-0.01,1.348-0.049,2.422H501.55
	c0.332,5.898,2.002,10.41,5,13.555c2.998,3.125,6.738,4.688,11.222,4.688c3.34,0,6.182-0.859,8.545-2.617
	C528.679,651.827,530.542,649.033,531.929,645.186L531.929,645.186z M502.056,630.479h29.972c-0.41-4.512-1.554-7.891-3.438-10.155
	c-2.899-3.496-6.66-5.254-11.27-5.254c-4.181,0-7.695,1.387-10.537,4.198C503.931,622.061,502.358,625.791,502.056,630.479
	L502.056,630.479z M552.749,662.471v-53.672h8.184v7.637c3.945-5.897,9.64-8.848,17.091-8.848c3.231,0,6.2,0.586,8.916,1.738
	c2.715,1.172,4.746,2.695,6.094,4.57c1.348,1.895,2.285,4.141,2.832,6.719c0.332,1.699,0.498,4.647,0.498,8.848v33.008h-9.092
	v-32.655c0-3.691-0.353-6.466-1.064-8.302c-0.703-1.836-1.963-3.301-3.76-4.395c-1.808-1.094-3.926-1.642-6.349-1.642
	c-3.877,0-7.217,1.23-10.028,3.673c-2.822,2.461-4.229,7.129-4.229,14.004v29.315L552.749,662.471L552.749,662.471z
	 M645.493,662.471V654.6c-4.18,6.056-9.854,9.082-17.031,9.082c-3.174,0-6.123-0.604-8.877-1.815
	c-2.744-1.211-4.785-2.734-6.113-4.57c-1.327-1.836-2.266-4.082-2.803-6.738c-0.371-1.797-0.557-4.629-0.557-8.495V608.8h9.102
	v29.767c0,4.745,0.187,7.948,0.558,9.608c0.565,2.383,1.776,4.277,3.633,5.625c1.854,1.367,4.149,2.051,6.875,2.051
	c2.733,0,5.293-0.702,7.686-2.09c2.394-1.405,4.082-3.301,5.078-5.723c0.996-2.402,1.494-5.898,1.494-10.488V608.8h9.092v53.672
	L645.493,662.471L645.493,662.471z M667.886,662.471v-53.672h8.136v7.521c1.688-2.617,3.926-4.728,6.719-6.328
	c2.803-1.603,5.986-2.402,9.561-2.402c3.976,0,7.236,0.82,9.775,2.48c2.549,1.641,4.336,3.944,5.381,6.914
	c4.248-6.271,9.775-9.396,16.582-9.396c5.322,0,9.414,1.465,12.285,4.414c2.861,2.949,4.297,7.5,4.297,13.633v36.836h-9.053v-33.809
	c0-3.633-0.293-6.271-0.879-7.853c-0.597-1.602-1.66-2.891-3.214-3.866c-1.553-0.977-3.368-1.466-5.459-1.466
	c-3.77,0-6.903,1.25-9.403,3.75c-2.49,2.521-3.74,6.544-3.74,12.07v31.172h-9.092v-34.862c0-4.043-0.742-7.091-2.228-9.103
	c-1.483-2.031-3.905-3.026-7.274-3.026c-2.568,0-4.933,0.663-7.109,2.012c-2.168,1.348-3.74,3.32-4.727,5.918
	c-0.978,2.598-1.465,6.328-1.465,11.211v27.852H667.886L667.886,662.471z M63.579,831.182l8.74-0.801
	c0.742,4.103,2.158,7.09,4.248,8.945c2.09,1.854,4.766,2.772,8.037,2.772c2.793,0,5.244-0.645,7.354-1.914
	c2.109-1.288,3.828-2.987,5.176-5.137c1.348-2.149,2.48-5.039,3.389-8.672c0.909-3.633,1.367-7.344,1.367-11.113
	c0-0.409-0.02-1.016-0.049-1.815c-1.826,2.891-4.307,5.233-7.461,7.051c-3.145,1.797-6.563,2.695-10.234,2.695
	c-6.133,0-11.318-2.228-15.566-6.681c-4.248-4.434-6.367-10.293-6.367-17.577c0-7.521,2.217-13.574,6.65-18.146
	c4.424-4.59,9.98-6.875,16.65-6.875c4.814,0,9.229,1.289,13.213,3.887c3.994,2.599,7.031,6.289,9.102,11.095
	c2.071,4.805,3.105,11.758,3.105,20.858c0,9.474-1.025,17.013-3.076,22.617c-2.061,5.604-5.117,9.883-9.18,12.813
	c-4.063,2.93-8.818,4.395-14.277,4.395c-5.791,0-10.527-1.602-14.199-4.824C66.529,841.534,64.321,837.002,63.579,831.182
	L63.579,831.182z M100.825,798.486c0-5.234-1.387-9.375-4.17-12.441c-2.773-3.065-6.123-4.609-10.029-4.609
	c-4.043,0-7.568,1.66-10.566,4.962c-2.998,3.301-4.502,7.577-4.502,12.831c0,4.728,1.426,8.556,4.277,11.505
	c2.842,2.948,6.357,4.434,10.537,4.434c4.209,0,7.676-1.484,10.391-4.434C99.468,807.783,100.825,803.701,100.825,798.486z
	 M119.78,828.896l9.551-0.802c0.713,4.648,2.354,8.146,4.932,10.488c2.578,2.343,5.684,3.516,9.326,3.516
	c4.375,0,8.086-1.659,11.113-4.961c3.037-3.301,4.551-7.676,4.551-13.145c0-5.177-1.455-9.277-4.365-12.267
	c-2.92-3.008-6.738-4.512-11.455-4.512c-2.93,0-5.576,0.664-7.93,2.012c-2.363,1.328-4.219,3.047-5.566,5.177l-8.535-1.113
	l7.178-38.066h36.846v8.691h-29.57l-3.994,19.922c4.443-3.104,9.111-4.647,14.004-4.647c6.465,0,11.924,2.245,16.377,6.719
	c4.443,4.473,6.67,10.233,6.67,17.285c0,6.698-1.953,12.5-5.869,17.383c-4.746,5.996-11.23,9.004-19.453,9.004
	c-6.738,0-12.246-1.896-16.504-5.664C122.817,840.146,120.386,835.146,119.78,828.896L119.78,828.896z M182.456,848.311v-10.352
	h10.361v10.352H182.456z M207.476,831.182l8.74-0.801c0.742,4.102,2.158,7.09,4.248,8.945c2.09,1.854,4.766,2.772,8.037,2.772
	c2.793,0,5.244-0.645,7.354-1.914c2.109-1.289,3.828-2.987,5.176-5.137c1.348-2.149,2.479-5.039,3.389-8.672
	s1.367-7.344,1.367-11.113c0-0.41-0.02-1.016-0.049-1.815c-1.826,2.891-4.307,5.233-7.461,7.051
	c-3.145,1.797-6.563,2.695-10.234,2.695c-6.133,0-11.318-2.228-15.566-6.681c-4.248-4.434-6.367-10.293-6.367-17.578
	c0-7.52,2.217-13.573,6.65-18.145c4.424-4.59,9.98-6.875,16.65-6.875c4.814,0,9.229,1.289,13.213,3.887
	c3.994,2.599,7.031,6.289,9.102,11.095c2.071,4.805,3.105,11.758,3.105,20.858c0,9.474-1.025,17.012-3.076,22.617
	c-2.061,5.604-5.117,9.883-9.18,12.813c-4.063,2.931-8.818,4.396-14.277,4.396c-5.791,0-10.527-1.602-14.199-4.824
	C210.426,841.534,208.218,837.002,207.476,831.182L207.476,831.182z M244.722,798.486c0-5.234-1.387-9.375-4.17-12.441
	c-2.773-3.066-6.123-4.609-10.029-4.609c-4.043,0-7.568,1.66-10.566,4.961c-2.998,3.302-4.502,7.578-4.502,12.832
	c0,4.728,1.426,8.556,4.277,11.505c2.842,2.948,6.357,4.434,10.537,4.434c4.209,0,7.676-1.484,10.391-4.434
	C243.364,807.783,244.722,803.701,244.722,798.486z M310.894,792.354l-9.043,0.724c-0.811-3.574-1.953-6.172-3.438-7.793
	c-2.461-2.599-5.498-3.888-9.102-3.888c-2.9,0-5.439,0.802-7.627,2.423c-2.871,2.09-5.127,5.137-6.777,9.141
	c-1.65,4.022-2.51,9.727-2.578,17.147c2.188-3.34,4.873-5.819,8.037-7.44c3.164-1.603,6.484-2.422,9.961-2.422
	c6.064,0,11.221,2.227,15.488,6.699c4.258,4.473,6.396,10.233,6.396,17.305c0,4.647-1.006,8.983-3.008,12.969
	c-2.012,4.004-4.766,7.051-8.262,9.18c-3.506,2.13-7.49,3.185-11.934,3.185c-7.578,0-13.77-2.793-18.545-8.359
	c-4.795-5.586-7.178-14.766-7.178-27.578c0-14.315,2.637-24.727,7.93-31.229c4.619-5.664,10.83-8.496,18.652-8.496
	c5.83,0,10.605,1.641,14.326,4.902C307.925,782.08,310.151,786.592,310.894,792.354L310.894,792.354z M273.745,824.307
	c0,3.125,0.664,6.133,1.992,9.004c1.338,2.853,3.193,5.039,5.586,6.543c2.393,1.505,4.902,2.246,7.529,2.246
	c3.848,0,7.148-1.543,9.912-4.647c2.764-3.105,4.141-7.324,4.141-12.638c0-5.116-1.357-9.159-4.092-12.108
	c-2.725-2.949-6.162-4.414-10.313-4.414c-4.111,0-7.598,1.465-10.459,4.414C275.18,815.655,273.745,819.521,273.745,824.307
	L273.745,824.307z M277.192,449.99V265.107h55.869l33.545,126.113l33.164-126.113h55.996V449.99h-34.678V304.463L384.39,449.99
	h-35.947L311.87,304.463V449.99H277.192L277.192,449.99z M484.399,381.143c0-11.776,2.899-23.164,8.7-34.18
	c5.802-11.016,14.023-19.434,24.658-25.234c10.635-5.8,22.51-8.69,35.625-8.69c20.264,0,36.865,6.582,49.814,19.727
	c12.949,13.164,19.424,29.785,19.424,49.883c0,20.273-6.533,37.07-19.609,50.392s-29.53,19.979-49.375,19.979
	c-12.274,0-23.983-2.772-35.127-8.319c-11.143-5.547-19.608-13.691-25.41-24.396C487.3,409.58,484.399,396.514,484.399,381.143
	L484.399,381.143z M520.718,383.018c0,13.302,3.154,23.478,9.463,30.527c6.31,7.07,14.082,10.605,23.33,10.605
	s17.002-3.535,23.271-10.605c6.26-7.051,9.395-17.324,9.395-30.762c0-13.125-3.135-23.224-9.395-30.273
	c-6.271-7.07-14.023-10.604-23.271-10.604s-17.021,3.534-23.33,10.604C523.872,359.561,520.718,369.736,520.718,383.018z
	 M861.743,109.189v7.598h-42.5c-0.068-1.914,0.244-3.73,0.918-5.488c1.084-2.891,2.813-5.742,5.195-8.555
	c2.382-2.813,5.83-6.055,10.332-9.746c6.991-5.723,11.709-10.254,14.17-13.613c2.45-3.34,3.682-6.504,3.682-9.492
	c0-3.125-1.113-5.781-3.35-7.93c-2.246-2.148-5.156-3.223-8.761-3.223c-3.799,0-6.836,1.152-9.121,3.438
	c-2.274,2.266-3.438,5.43-3.467,9.473l-8.114-0.84c0.557-6.055,2.646-10.664,6.278-13.848c3.623-3.164,8.486-4.746,14.601-4.746
	c6.172,0,11.055,1.699,14.657,5.117c3.595,3.438,5.392,7.676,5.392,12.734c0,2.578-0.527,5.098-1.572,7.578
	c-1.055,2.5-2.803,5.117-5.244,7.852c-2.44,2.754-6.504,6.523-12.178,11.328c-4.736,3.965-7.773,6.68-9.121,8.086
	c-1.348,1.426-2.461,2.852-3.34,4.277H861.743L861.743,109.189z M832.397,171.748c-3.271-1.191-5.703-2.91-7.285-5.137
	c-1.572-2.207-2.363-4.883-2.363-7.969c0-4.688,1.68-8.613,5.039-11.816c3.369-3.184,7.842-4.766,13.428-4.766
	c5.615,0,10.138,1.621,13.556,4.883c3.418,3.262,5.137,7.227,5.137,11.914c0,2.988-0.791,5.586-2.354,7.793
	c-1.563,2.207-3.936,3.906-7.129,5.098c3.955,1.289,6.953,3.359,9.015,6.23c2.069,2.871,3.096,6.289,3.096,10.273
	c0,5.488-1.943,10.117-5.83,13.848c-3.896,3.75-9.014,5.625-15.361,5.625c-6.338,0-11.455-1.875-15.352-5.645
	c-3.887-3.75-5.83-8.438-5.83-14.063c0-4.18,1.055-7.676,3.184-10.488C825.464,174.697,828.481,172.783,832.397,171.748z
	 M828.276,188.076c0,2.246,0.526,4.434,1.602,6.523c1.064,2.109,2.656,3.75,4.756,4.902c2.109,1.152,4.375,1.719,6.797,1.719
	c3.779,0,6.896-1.211,9.347-3.633c2.461-2.422,3.69-5.508,3.69-9.258c0-3.789-1.27-6.934-3.799-9.434
	c-2.529-2.48-5.693-3.73-9.502-3.73c-3.711,0-6.787,1.23-9.229,3.691C829.496,181.317,828.276,184.385,828.276,188.076
	L828.276,188.076z M830.815,158.369c0,3.047,0.985,5.527,2.938,7.461c1.963,1.934,4.502,2.891,7.637,2.891
	c3.037,0,5.537-0.957,7.48-2.871c1.943-1.914,2.92-4.258,2.92-7.031c0-2.91-1.006-5.332-3.008-7.305
	c-2.002-1.973-4.502-2.969-7.48-2.969c-3.018,0-5.518,0.957-7.5,2.891C831.813,153.369,830.815,155.674,830.815,158.369
	L830.815,158.369z M800.015,296.455h-7.891v-50.313c-1.904,1.816-4.395,3.633-7.479,5.449c-3.086,1.797-5.859,3.164-8.312,4.063
	v-7.617c4.414-2.09,8.271-4.59,11.582-7.559c3.301-2.949,5.646-5.82,7.012-8.594h5.089L800.015,296.455L800.015,296.455z
	 M832.388,261.592c-3.271-1.211-5.702-2.91-7.284-5.137c-1.572-2.227-2.363-4.883-2.363-7.988c0-4.668,1.68-8.613,5.039-11.797
	c3.369-3.184,7.842-4.785,13.428-4.785c5.615,0,10.137,1.641,13.555,4.902c3.418,3.261,5.138,7.227,5.138,11.895
	c0,2.988-0.791,5.586-2.354,7.793c-1.563,2.207-3.936,3.906-7.129,5.117c3.955,1.289,6.953,3.359,9.014,6.23
	c2.07,2.852,3.097,6.289,3.097,10.254c0,5.508-1.943,10.117-5.83,13.867c-3.896,3.75-9.015,5.605-15.361,5.605
	c-6.338,0-11.455-1.875-15.352-5.625c-3.888-3.77-5.83-8.457-5.83-14.063c0-4.18,1.055-7.676,3.184-10.508
	C825.454,264.541,828.472,262.607,832.388,261.592L832.388,261.592z M828.268,277.9c0,2.266,0.526,4.434,1.602,6.543
	c1.064,2.109,2.656,3.73,4.756,4.883c2.081,1.148,4.42,1.746,6.797,1.738c3.779,0,6.896-1.211,9.346-3.633
	c2.462-2.441,3.691-5.527,3.691-9.258c0-3.809-1.27-6.953-3.799-9.434s-5.693-3.73-9.502-3.73c-3.711,0-6.787,1.23-9.229,3.691
	C829.487,271.143,828.267,274.229,828.268,277.9L828.268,277.9z M830.806,248.213c0,3.027,0.986,5.527,2.939,7.441
	c1.963,1.934,4.502,2.91,7.637,2.91c3.037,0,5.537-0.957,7.48-2.871c1.942-1.914,2.92-4.277,2.92-7.051
	c0-2.891-1.006-5.332-3.008-7.305s-4.502-2.949-7.48-2.949c-3.018,0-5.518,0.957-7.5,2.891
	C831.802,243.213,830.807,245.518,830.806,248.213L830.806,248.213z M800.015,386.299h-7.891v-50.313
	c-1.904,1.815-4.395,3.633-7.479,5.448c-3.086,1.798-5.859,3.164-8.312,4.063v-7.617c4.414-2.09,8.271-4.59,11.582-7.559
	c3.301-2.949,5.646-5.82,7.012-8.595h5.089L800.015,386.299L800.015,386.299z M820.278,369.326l7.899-1.056
	c0.908,4.474,2.451,7.695,4.629,9.669c2.179,1.973,4.834,2.969,7.959,2.969c3.712,0,6.855-1.289,9.414-3.867
	c2.56-2.559,3.839-5.762,3.839-9.551c0-3.633-1.191-6.621-3.556-8.984c-2.373-2.344-5.381-3.516-9.043-3.516
	c-1.483,0-3.34,0.293-5.565,0.879l0.879-6.935c0.526,0.06,0.946,0.078,1.27,0.078c3.359,0,6.388-0.879,9.082-2.637
	c2.687-1.738,4.033-4.453,4.033-8.105c0-2.891-0.977-5.293-2.939-7.188c-1.952-1.914-4.491-2.852-7.588-2.852
	c-3.065,0-5.625,0.956-7.676,2.891c-2.051,1.934-3.359,4.824-3.945,8.69l-7.899-1.405c0.967-5.293,3.164-9.396,6.582-12.306
	c3.418-2.909,7.676-4.375,12.764-4.375c3.506,0,6.738,0.763,9.697,2.267c2.949,1.504,5.215,3.555,6.776,6.151
	c1.563,2.617,2.345,5.371,2.345,8.302c0,2.772-0.742,5.313-2.236,7.578c-1.494,2.284-3.701,4.102-6.621,5.448
	c3.799,0.879,6.758,2.695,8.857,5.47c2.108,2.754,3.164,6.211,3.164,10.37c0,5.605-2.052,10.371-6.144,14.277
	c-4.102,3.906-9.276,5.859-15.526,5.859c-5.646,0-10.332-1.681-14.063-5.06C822.936,379.033,820.806,374.678,820.278,369.326
	L820.278,369.326z M849.985,476.143h-7.892V425.83c-1.903,1.797-4.395,3.613-7.479,5.43c-3.085,1.817-5.859,3.185-8.312,4.082
	v-7.637c4.414-2.07,8.271-4.59,11.582-7.539c3.302-2.949,5.646-5.82,7.013-8.594h5.088V476.143L849.985,476.143z"/>
</svg>
