<?xml version="1.0" encoding="utf-8"?>
<!-- Generator: Adobe Illustrator 16.0.3, SVG Export Plug-In . SVG Version: 6.00 Build 0)  -->
<!DOCTYPE svg PUBLIC "-//W3C//DTD SVG 1.1//EN" "http://www.w3.org/Graphics/SVG/1.1/DTD/svg11.dtd">
<svg version="1.1" id="Layer_1" xmlns="http://www.w3.org/2000/svg" xmlns:xlink="http://www.w3.org/1999/xlink" x="0px" y="0px"
	 width="900px" height="900px" viewBox="0 0 900 900" enable-background="new 0 0 900 900" xml:space="preserve">
<path d="M86.362,153.923v-26.982H37.466v-12.686l51.426-73.037H100.2v73.037h15.215v12.686H100.2v26.982H86.362z M86.362,114.255
	v-50.82l-35.293,50.82H86.362z M129.644,124.167l13.838-1.846c1.592,7.842,4.297,13.496,8.115,16.953
	c3.818,3.467,8.467,5.195,13.955,5.195c6.504,0,12.002-2.256,16.484-6.768c4.482-4.512,6.729-10.098,6.729-16.758
	c0-6.357-2.08-11.602-6.23-15.723c-4.15-4.131-9.424-6.191-15.83-6.191c-2.617,0-5.869,0.518-9.766,1.533l1.533-12.139
	c0.928,0.098,1.67,0.146,2.236,0.146c5.889,0,11.191-1.533,15.908-4.609c4.717-3.076,7.07-7.813,7.07-14.219
	c0-5.078-1.709-9.277-5.146-12.617c-3.438-3.33-7.871-4.99-13.301-4.99c-5.381,0-9.863,1.689-13.457,5.068
	c-3.584,3.389-5.889,8.457-6.914,15.225l-13.838-2.461c1.689-9.277,5.537-16.465,11.533-21.563
	c5.996-5.098,13.447-7.646,22.373-7.646c6.143,0,11.807,1.318,16.982,3.955c5.175,2.637,9.141,6.24,11.885,10.801
	c2.734,4.561,4.111,9.404,4.111,14.531c0,4.873-1.309,9.307-3.926,13.301c-2.607,3.994-6.484,7.178-11.602,9.531
	c6.66,1.543,11.836,4.727,15.527,9.57c3.691,4.843,5.537,10.908,5.537,18.184c0,9.844-3.594,18.184-10.762,25.029
	c-7.178,6.836-16.25,10.264-27.217,10.264c-9.893,0-18.105-2.949-24.648-8.848C134.292,141.189,130.571,133.552,129.644,124.167
	L129.644,124.167z M213.13,652.814v-65.353h-24.414v-8.75h58.74v8.75h-24.521v65.353H213.13z M281.626,635.529l9.395,1.172
	c-1.484,5.488-4.229,9.746-8.232,12.772c-4.014,3.048-9.141,4.552-15.371,4.552c-7.852,0-14.072-2.402-18.672-7.246
	s-6.904-11.621-6.904-20.353c0-9.022,2.324-16.034,6.973-21.016c4.658-5,10.684-7.48,18.096-7.48c7.178,0,13.047,2.441,17.598,7.324
	c4.541,4.883,6.816,11.758,6.816,20.625c0,0.547-0.01,1.349-0.049,2.422h-40.029c0.332,5.898,2.002,10.41,5,13.556
	c2.998,3.125,6.738,4.688,11.221,4.688c3.34,0,6.182-0.859,8.545-2.617C278.376,642.17,280.239,639.377,281.626,635.529
	L281.626,635.529z M251.753,620.822h29.971c-0.41-4.513-1.553-7.892-3.438-10.156c-2.9-3.496-6.66-5.254-11.27-5.254
	c-4.18,0-7.695,1.387-10.537,4.199C253.628,612.404,252.056,616.135,251.753,620.822L251.753,620.822z M337.476,633.166l8.945,1.152
	c-0.977,6.172-3.486,10.996-7.51,14.491c-4.023,3.478-8.975,5.216-14.834,5.216c-7.344,0-13.252-2.402-17.715-7.188
	c-4.463-4.805-6.699-11.699-6.699-20.664c0-5.781,0.957-10.858,2.881-15.215c1.924-4.336,4.844-7.598,8.77-9.766
	c3.926-2.188,8.193-3.263,12.813-3.263c5.83,0,10.596,1.465,14.307,4.414c3.701,2.949,6.084,7.148,7.129,12.56l-8.848,1.366
	c-0.84-3.594-2.334-6.309-4.473-8.125c-2.139-1.836-4.727-2.733-7.764-2.733c-4.58,0-8.301,1.641-11.162,4.922
	c-2.871,3.281-4.297,8.477-4.297,15.586c0,7.228,1.377,12.461,4.141,15.723c2.764,3.281,6.367,4.902,10.82,4.902
	c3.564,0,6.553-1.094,8.945-3.281C335.317,641.076,336.831,637.697,337.476,633.166L337.476,633.166z M354.204,652.814v-74.103
	h9.092v26.603c4.248-4.923,9.609-7.384,16.074-7.384c3.975,0,7.432,0.781,10.361,2.345c2.939,1.563,5.029,3.729,6.299,6.504
	c1.26,2.754,1.895,6.758,1.895,12.031v34.004h-9.102V618.81c0-4.551-0.986-7.87-2.959-9.94c-1.963-2.07-4.756-3.105-8.359-3.105
	c-2.695,0-5.234,0.703-7.607,2.091c-2.373,1.405-4.072,3.301-5.078,5.684c-1.016,2.402-1.523,5.703-1.523,9.922v29.355
	L354.204,652.814L354.204,652.814z M411.772,652.814v-53.673h8.184v7.638c3.945-5.898,9.639-8.849,17.09-8.849
	c3.232,0,6.201,0.586,8.916,1.738c2.715,1.172,4.746,2.695,6.094,4.57c1.349,1.895,2.285,4.141,2.832,6.719
	c0.332,1.699,0.498,4.648,0.498,8.848v33.009h-9.092v-32.656c0-3.691-0.352-6.465-1.063-8.301c-0.703-1.836-1.964-3.302-3.761-4.396
	c-1.807-1.094-3.926-1.641-6.348-1.641c-3.877,0-7.217,1.229-10.029,3.672c-2.822,2.461-4.229,7.129-4.229,14.004v29.315h-9.093
	L411.772,652.814z M506.099,635.529l9.396,1.172c-1.484,5.488-4.229,9.746-8.232,12.772c-4.014,3.048-9.141,4.552-15.371,4.552
	c-7.852,0-14.071-2.402-18.672-7.246c-4.6-4.844-6.903-11.621-6.903-20.353c0-9.022,2.323-16.034,6.973-21.016
	c4.658-5,10.684-7.479,18.096-7.479c7.179,0,13.047,2.44,17.599,7.323c4.541,4.883,6.815,11.758,6.815,20.625
	c0,0.547-0.01,1.349-0.049,2.422H475.72c0.332,5.898,2.002,10.41,5,13.556c2.998,3.125,6.738,4.688,11.222,4.688
	c3.34,0,6.182-0.858,8.545-2.617C502.849,642.17,504.712,639.377,506.099,635.529L506.099,635.529z M476.226,620.822h29.972
	c-0.41-4.512-1.553-7.892-3.438-10.156c-2.899-3.496-6.66-5.254-11.27-5.254c-4.181,0-7.695,1.387-10.537,4.199
	C478.102,612.404,476.528,616.135,476.226,620.822L476.226,620.822z M546.782,644.689l1.309,8.026
	c-2.559,0.547-4.844,0.802-6.875,0.802c-3.301,0-5.858-0.509-7.676-1.563c-1.826-1.035-3.105-2.422-3.848-4.121
	c-0.743-1.699-1.104-5.272-1.104-10.742v-30.879h-6.68v-7.069h6.68v-13.302l9.043-5.448v18.75h9.15v7.069h-9.15V637.6
	c0,2.599,0.156,4.277,0.479,5c0.321,0.742,0.84,1.349,1.571,1.777c0.724,0.449,1.759,0.664,3.105,0.664
	C543.794,645.041,545.132,644.924,546.782,644.689L546.782,644.689z M555.728,589.182v-10.469h9.103v10.469H555.728z
	 M555.728,652.814v-53.672h9.103v53.672H555.728z M613.853,652.814v-7.871c-4.18,6.055-9.854,9.082-17.03,9.082
	c-3.174,0-6.123-0.605-8.877-1.816c-2.744-1.211-4.785-2.734-6.113-4.57s-2.266-4.082-2.803-6.737
	c-0.371-1.797-0.558-4.629-0.558-8.496v-33.262h9.103v29.766c0,4.746,0.186,7.949,0.557,9.609c0.566,2.383,1.777,4.276,3.633,5.625
	c1.855,1.366,4.15,2.051,6.875,2.051c2.734,0,5.293-0.703,7.687-2.09c2.393-1.406,4.082-3.302,5.078-5.724
	c0.995-2.401,1.493-5.897,1.493-10.487v-28.75h9.093v53.672L613.853,652.814L613.853,652.814z M636.245,652.814v-53.672h8.135v7.52
	c1.689-2.617,3.926-4.727,6.719-6.328c2.804-1.602,5.986-2.402,9.562-2.402c3.975,0,7.236,0.82,9.774,2.48
	c2.55,1.641,4.337,3.945,5.382,6.914c4.248-6.271,9.774-9.396,16.582-9.396c5.321,0,9.413,1.466,12.284,4.414
	c2.861,2.949,4.297,7.5,4.297,13.634v36.836h-9.053v-33.81c0-3.633-0.293-6.27-0.879-7.852c-0.596-1.603-1.66-2.892-3.213-3.867
	s-3.369-1.465-5.459-1.465c-3.771,0-6.904,1.25-9.404,3.75c-2.489,2.52-3.739,6.543-3.739,12.069v31.173h-9.093V617.95
	c0-4.043-0.741-7.09-2.227-9.103c-1.484-2.03-3.906-3.026-7.275-3.026c-2.567,0-4.932,0.664-7.108,2.012
	c-2.168,1.348-3.74,3.32-4.728,5.918c-0.977,2.599-1.465,6.328-1.465,11.211v27.853H636.245L636.245,652.814z M64.956,859.24
	v-94.688h20.068v7.539H74.058V851.7h10.967v7.539L64.956,859.24L64.956,859.24z M92.358,821.525l8.74-0.802
	c0.742,4.103,2.158,7.091,4.248,8.945c2.09,1.854,4.766,2.773,8.037,2.773c2.793,0,5.244-0.646,7.354-1.914
	c2.109-1.289,3.828-2.988,5.176-5.138c1.348-2.148,2.48-5.039,3.389-8.672c0.909-3.633,1.367-7.344,1.367-11.113
	c0-0.409-0.02-1.016-0.049-1.815c-1.826,2.891-4.307,5.234-7.461,7.051c-3.145,1.797-6.563,2.695-10.234,2.695
	c-6.133,0-11.318-2.228-15.566-6.68c-4.248-4.435-6.367-10.294-6.367-17.578c0-7.521,2.217-13.574,6.65-18.146
	c4.424-4.59,9.98-6.875,16.65-6.875c4.814,0,9.229,1.289,13.213,3.887c3.994,2.599,7.031,6.289,9.102,11.095
	c2.071,4.805,3.105,11.758,3.105,20.858c0,9.474-1.025,17.013-3.076,22.617c-2.061,5.605-5.117,9.883-9.18,12.813
	c-4.063,2.93-8.818,4.395-14.277,4.395c-5.791,0-10.527-1.602-14.199-4.824C95.308,831.877,93.101,827.346,92.358,821.525
	L92.358,821.525z M129.604,788.83c0-5.234-1.387-9.375-4.17-12.441c-2.773-3.065-6.123-4.608-10.029-4.608
	c-4.043,0-7.568,1.659-10.566,4.961c-2.998,3.301-4.502,7.578-4.502,12.832c0,4.727,1.426,8.555,4.277,11.504
	c2.842,2.949,6.357,4.434,10.537,4.434c4.209,0,7.676-1.483,10.391-4.434C128.247,798.127,129.604,794.045,129.604,788.83z
	 M162.563,798.479c-3.779-1.387-6.572-3.358-8.398-5.918c-1.816-2.559-2.725-5.625-2.725-9.198c0-5.392,1.934-9.923,5.811-13.595
	s9.033-5.508,15.469-5.508c6.465,0,11.68,1.875,15.615,5.625c3.945,3.771,5.918,8.34,5.918,13.73c0,3.438-0.898,6.426-2.705,8.965
	c-1.807,2.559-4.541,4.512-8.213,5.897c4.551,1.484,8.008,3.867,10.391,7.169c2.373,3.301,3.555,7.245,3.555,11.836
	c0,6.327-2.236,11.659-6.719,15.977s-10.381,6.465-17.686,6.465c-7.314,0-13.213-2.168-17.695-6.504
	c-4.482-4.316-6.719-9.727-6.719-16.191c0-4.823,1.221-8.848,3.662-12.108C154.565,801.877,158.042,799.65,162.563,798.479
	L162.563,798.479z M157.808,817.287c0,2.578,0.615,5.098,1.846,7.52s3.057,4.316,5.488,5.646c2.422,1.328,5.029,1.992,7.832,1.992
	c4.346,0,7.93-1.406,10.762-4.199s4.248-6.349,4.248-10.664c0-4.375-1.455-8.008-4.375-10.859c-2.91-2.871-6.563-4.297-10.938-4.297
	c-4.277,0-7.832,1.406-10.645,4.238S157.808,813.029,157.808,817.287L157.808,817.287z M160.737,783.068
	c0,3.495,1.133,6.366,3.389,8.594c2.256,2.207,5.186,3.32,8.799,3.32c3.506,0,6.377-1.095,8.613-3.302
	c2.246-2.207,3.359-4.922,3.359-8.125c0-3.319-1.152-6.133-3.457-8.397c-2.314-2.285-5.186-3.418-8.623-3.418
	c-3.467,0-6.348,1.112-8.643,3.34C161.89,777.307,160.737,779.963,160.737,783.068L160.737,783.068z M223.872,859.24h-20.068v-7.539
	h10.967v-79.609h-10.967v-7.539h20.068V859.24L223.872,859.24z M364.663,440.339V286.726H309.8v-31.279h146.935v31.279h-54.736
	v153.613H364.663L364.663,440.339z M578.179,346.003l-34.932,6.309c-1.182-6.981-3.848-12.235-8.008-15.771
	c-4.16-3.525-9.57-5.293-16.211-5.293c-8.828,0-15.869,3.047-21.123,9.141c-5.254,6.104-7.881,16.299-7.881,30.586
	c0,15.89,2.666,27.119,8.008,33.672c5.342,6.563,12.51,9.845,21.504,9.845c6.729,0,12.236-1.914,16.522-5.742
	c4.287-3.828,7.314-10.4,9.082-19.736l34.806,5.929c-3.613,15.977-10.558,28.036-20.812,36.19s-24.004,12.236-41.24,12.236
	c-19.59,0-35.204-6.183-46.854-18.535c-11.641-12.363-17.461-29.473-17.461-51.338c0-22.109,5.84-39.326,17.529-51.642
	c11.68-12.313,27.489-18.477,47.422-18.477c16.309,0,29.276,3.516,38.905,10.527C567.056,320.925,573.979,331.628,578.179,346.003z
	 M861.743,99.539v7.588h-42.5c-0.068-1.904,0.244-3.73,0.918-5.479c1.084-2.9,2.813-5.752,5.195-8.555
	c2.383-2.813,5.829-6.055,10.331-9.746c6.992-5.732,11.709-10.264,14.171-13.613c2.45-3.35,3.682-6.514,3.682-9.502
	c0-3.125-1.113-5.771-3.35-7.92c-2.246-2.148-5.156-3.223-8.761-3.223c-3.799,0-6.836,1.143-9.121,3.428
	c-2.274,2.275-3.438,5.439-3.467,9.473l-8.115-0.84c0.558-6.045,2.646-10.664,6.279-13.838c3.623-3.174,8.486-4.756,14.601-4.756
	c6.172,0,11.055,1.709,14.657,5.127c3.595,3.428,5.392,7.666,5.392,12.725c0,2.578-0.527,5.107-1.572,7.588
	c-1.055,2.49-2.803,5.107-5.244,7.852c-2.44,2.754-6.504,6.523-12.178,11.318c-4.736,3.975-7.773,6.68-9.121,8.096
	c-1.348,1.416-2.461,2.842-3.34,4.277H861.743L861.743,99.539z M832.396,162.097c-3.271-1.201-5.702-2.91-7.284-5.137
	c-1.572-2.217-2.363-4.883-2.363-7.979c0-4.678,1.68-8.613,5.039-11.807c3.369-3.184,7.842-4.775,13.428-4.775
	c5.615,0,10.138,1.631,13.556,4.893s5.137,7.227,5.137,11.904c0,2.988-0.791,5.586-2.354,7.793
	c-1.563,2.207-3.936,3.906-7.129,5.107c3.955,1.289,6.953,3.359,9.015,6.23c2.069,2.861,3.096,6.289,3.096,10.264
	c0,5.498-1.943,10.117-5.83,13.857c-3.896,3.75-9.014,5.615-15.361,5.615c-6.338,0-11.455-1.875-15.352-5.635
	c-3.888-3.76-5.83-8.447-5.83-14.063c0-4.18,1.055-7.676,3.184-10.498C825.464,165.046,828.48,163.123,832.396,162.097z
	 M828.276,178.416c0,2.256,0.526,4.434,1.602,6.533c1.064,2.109,2.656,3.74,4.756,4.893c2.082,1.146,4.421,1.741,6.797,1.729
	c3.779,0,6.896-1.211,9.347-3.633c2.461-2.432,3.69-5.518,3.69-9.258c0-3.799-1.27-6.943-3.799-9.434
	c-2.529-2.48-5.693-3.73-9.502-3.73c-3.711,0-6.787,1.23-9.229,3.691C829.497,171.658,828.276,174.734,828.276,178.416
	L828.276,178.416z M830.815,148.718c0,3.037,0.985,5.527,2.938,7.451c1.963,1.934,4.502,2.9,7.637,2.9
	c3.037,0,5.537-0.957,7.48-2.871c1.943-1.914,2.92-4.268,2.92-7.041c0-2.9-1.006-5.332-3.008-7.305s-4.502-2.959-7.48-2.959
	c-3.018,0-5.518,0.957-7.5,2.891C831.813,143.718,830.815,146.023,830.815,148.718L830.815,148.718z M800.015,286.804h-7.891
	v-50.313c-1.904,1.807-4.396,3.623-7.479,5.439c-3.087,1.807-5.859,3.174-8.312,4.072v-7.627c4.414-2.08,8.271-4.59,11.582-7.549
	c3.301-2.949,5.646-5.82,7.012-8.594h5.088V286.804L800.015,286.804z M832.388,251.931c-3.271-1.201-5.703-2.91-7.284-5.137
	c-1.572-2.217-2.363-4.883-2.363-7.979c0-4.678,1.68-8.613,5.039-11.807c3.369-3.184,7.842-4.775,13.428-4.775
	c5.615,0,10.137,1.631,13.555,4.893c3.418,3.262,5.138,7.227,5.138,11.904c0,2.988-0.791,5.586-2.354,7.793
	c-1.563,2.207-3.936,3.906-7.129,5.107c3.955,1.289,6.953,3.359,9.014,6.23c2.07,2.861,3.097,6.289,3.097,10.264
	c0,5.498-1.943,10.117-5.83,13.857c-3.896,3.75-9.015,5.615-15.361,5.615c-6.338,0-11.455-1.875-15.352-5.635
	c-3.888-3.76-5.83-8.447-5.83-14.063c0-4.18,1.055-7.676,3.184-10.498C825.454,254.88,828.472,252.957,832.388,251.931z
	 M828.267,268.25c0,2.256,0.527,4.434,1.603,6.533c1.063,2.109,2.656,3.74,4.756,4.893c2.082,1.146,4.421,1.741,6.797,1.729
	c3.779,0,6.896-1.211,9.346-3.633c2.461-2.432,3.691-5.518,3.691-9.258c0-3.799-1.27-6.943-3.799-9.434
	c-2.529-2.48-5.693-3.73-9.502-3.73c-3.711,0-6.787,1.23-9.229,3.691C829.487,261.492,828.267,264.568,828.267,268.25
	L828.267,268.25z M830.806,238.552c0,3.037,0.986,5.527,2.939,7.451c1.963,1.934,4.502,2.9,7.637,2.9
	c3.037,0,5.537-0.957,7.48-2.871c1.942-1.914,2.92-4.268,2.92-7.041c0-2.9-1.006-5.332-3.008-7.305s-4.502-2.959-7.48-2.959
	c-3.018,0-5.518,0.957-7.5,2.891C831.802,233.552,830.806,235.857,830.806,238.552L830.806,238.552z M800.015,376.648h-7.891
	v-50.313c-1.904,1.807-4.396,3.623-7.479,5.439c-3.087,1.807-5.859,3.174-8.312,4.071v-7.627c4.414-2.08,8.271-4.59,11.582-7.549
	c3.301-2.949,5.646-5.82,7.012-8.594h5.088V376.648L800.015,376.648z M845.552,376.648v-15.4h-27.899v-7.236l29.346-41.67h6.445
	v41.67h8.69v7.236h-8.69v15.4H845.552z M845.552,354.011v-28.994l-20.137,28.994H845.552z M849.985,466.486h-7.892v-50.317
	c-1.903,1.807-4.395,3.623-7.479,5.439c-3.086,1.807-5.859,3.174-8.312,4.071v-7.627c4.414-2.08,8.271-4.59,11.582-7.549
	c3.301-2.949,5.646-5.82,7.013-8.594h5.088V466.486L849.985,466.486z"/>
</svg>
