<?xml version="1.0" encoding="utf-8"?>
<!-- Generator: Adobe Illustrator 16.0.3, SVG Export Plug-In . SVG Version: 6.00 Build 0)  -->
<!DOCTYPE svg PUBLIC "-//W3C//DTD SVG 1.1//EN" "http://www.w3.org/Graphics/SVG/1.1/DTD/svg11.dtd">
<svg version="1.1" id="Layer_1" xmlns="http://www.w3.org/2000/svg" xmlns:xlink="http://www.w3.org/1999/xlink" x="0px" y="0px"
	 width="900px" height="900px" viewBox="0 0 900 900" enable-background="new 0 0 900 900" xml:space="preserve">
<path d="M86.187,163.352V136.37H37.29v-12.686l51.426-73.037h11.309v73.037h15.215v12.686h-15.215v26.982H86.187z M86.187,123.684
	v-50.82l-35.293,50.82H86.187z M173.755,163.352V136.37h-48.896v-12.686l51.426-73.037h11.309v73.037h15.215v12.686h-15.215v26.982
	H173.755z M173.755,123.684v-50.82l-35.293,50.82H173.755z M208.638,662.244v-74.103h32.861c6.602,0,11.621,0.664,15.059,2.013
	c3.438,1.328,6.182,3.672,8.242,7.051c2.051,3.359,3.076,7.09,3.076,11.172c0,5.254-1.699,9.688-5.098,13.281
	c-3.408,3.613-8.662,5.897-15.771,6.875c2.588,1.25,4.561,2.479,5.908,3.69c2.871,2.638,5.576,5.919,8.145,9.863l12.881,20.156
	h-12.324l-9.814-15.41c-2.861-4.453-5.215-7.852-7.07-10.215s-3.516-4.004-4.98-4.941c-1.465-0.957-2.959-1.602-4.473-1.973
	c-1.113-0.234-2.93-0.353-5.459-0.353h-11.377v32.892L208.638,662.244L208.638,662.244z M218.442,620.857h21.084
	c4.482,0,7.979-0.47,10.508-1.388c2.529-0.938,4.453-2.422,5.762-4.453c1.318-2.051,1.973-4.258,1.973-6.641
	c0-3.516-1.27-6.387-3.818-8.652c-2.539-2.266-6.563-3.379-12.051-3.379h-23.457L218.442,620.857L218.442,620.857z M317.261,662.244
	v-7.871c-4.18,6.055-9.854,9.082-17.031,9.082c-3.174,0-6.123-0.605-8.877-1.816c-2.744-1.211-4.785-2.733-6.113-4.569
	c-1.328-1.836-2.266-4.082-2.803-6.738c-0.371-1.797-0.557-4.629-0.557-8.496v-33.262h9.102v29.766c0,4.746,0.186,7.949,0.557,9.609
	c0.566,2.383,1.777,4.276,3.633,5.625c1.855,1.367,4.15,2.051,6.875,2.051c2.734,0,5.293-0.703,7.686-2.09
	c2.393-1.406,4.082-3.301,5.078-5.724c0.996-2.401,1.494-5.897,1.494-10.487v-28.75h9.092v53.672L317.261,662.244L317.261,662.244z
	 M359.517,654.119l1.309,8.027c-2.559,0.547-4.844,0.801-6.875,0.801c-3.301,0-5.859-0.508-7.676-1.563
	c-1.826-1.035-3.105-2.422-3.848-4.121c-0.743-1.698-1.104-5.272-1.104-10.741v-30.88h-6.68v-7.069h6.68v-13.301l9.043-5.449v18.75
	h9.15v7.069h-9.15v31.388c0,2.598,0.156,4.276,0.479,5c0.322,0.742,0.84,1.348,1.572,1.776c0.723,0.449,1.758,0.664,3.105,0.664
	C356.528,654.471,357.866,654.354,359.517,654.119z M368.413,662.244v-74.103h9.092v26.603c4.248-4.922,9.609-7.383,16.074-7.383
	c3.975,0,7.432,0.78,10.361,2.344c2.938,1.563,5.028,3.729,6.299,6.504c1.26,2.754,1.895,6.758,1.895,12.031v34.004h-9.102V628.24
	c0-4.551-0.986-7.871-2.959-9.941c-1.963-2.07-4.756-3.104-8.359-3.104c-2.695,0-5.234,0.703-7.607,2.09
	c-2.373,1.406-4.072,3.301-5.078,5.684c-1.016,2.402-1.523,5.703-1.523,9.922v29.355L368.413,662.244L368.413,662.244z
	 M462.729,644.959l9.396,1.172c-1.484,5.488-4.229,9.746-8.232,12.773c-4.014,3.047-9.141,4.551-15.37,4.551
	c-7.853,0-14.072-2.402-18.673-7.246c-4.6-4.844-6.903-11.621-6.903-20.352c0-9.023,2.323-16.035,6.973-21.017
	c4.658-5,10.684-7.479,18.096-7.479c7.179,0,13.047,2.44,17.599,7.324c4.541,4.883,6.815,11.758,6.815,20.625
	c0,0.547-0.01,1.348-0.049,2.422H432.35c0.332,5.897,2.002,10.41,5,13.555c2.998,3.125,6.738,4.688,11.222,4.688
	c3.34,0,6.182-0.858,8.545-2.616C459.479,651.6,461.343,648.807,462.729,644.959L462.729,644.959z M432.856,630.252h29.971
	c-0.41-4.512-1.553-7.891-3.438-10.156c-2.899-3.496-6.66-5.254-11.27-5.254c-4.18,0-7.695,1.388-10.537,4.199
	C434.731,621.834,433.159,625.564,432.856,630.252L432.856,630.252z M483.561,662.244v-53.672h8.184v7.637
	c3.945-5.897,9.639-8.848,17.09-8.848c3.232,0,6.201,0.586,8.916,1.737c2.715,1.173,4.746,2.695,6.094,4.57
	c1.349,1.896,2.285,4.142,2.832,6.719c0.332,1.699,0.498,4.648,0.498,8.849v33.008h-9.092v-32.656c0-3.69-0.352-6.465-1.064-8.301
	c-0.703-1.836-1.963-3.301-3.76-4.396c-1.807-1.094-3.926-1.641-6.348-1.641c-3.877,0-7.217,1.23-10.029,3.672
	c-2.822,2.461-4.229,7.129-4.229,14.004v29.316L483.561,662.244L483.561,662.244z M541.177,598.611v-10.469h9.103v10.469H541.177z
	 M541.177,662.244v-53.672h9.103v53.672H541.177z M599.302,662.244v-7.871c-4.18,6.055-9.854,9.082-17.03,9.082
	c-3.175,0-6.123-0.605-8.878-1.816c-2.743-1.211-4.784-2.733-6.112-4.569s-2.267-4.082-2.803-6.738
	c-0.371-1.797-0.558-4.629-0.558-8.496v-33.262h9.103v29.766c0,4.746,0.186,7.949,0.557,9.609c0.566,2.383,1.777,4.276,3.633,5.625
	c1.855,1.367,4.15,2.051,6.875,2.051c2.734,0,5.293-0.703,7.687-2.09c2.393-1.406,4.081-3.301,5.077-5.723
	c0.996-2.402,1.494-5.898,1.494-10.488v-28.75h9.092v53.672L599.302,662.244L599.302,662.244z M621.694,662.244v-53.672h8.135v7.52
	c1.688-2.617,3.926-4.727,6.719-6.328c2.803-1.602,5.986-2.401,9.562-2.401c3.975,0,7.235,0.819,9.774,2.479
	c2.549,1.642,4.336,3.945,5.381,6.914c4.248-6.27,9.775-9.395,16.582-9.395c5.322,0,9.414,1.465,12.285,4.414
	c2.861,2.948,4.297,7.5,4.297,13.633v36.836h-9.053v-33.809c0-3.634-0.293-6.271-0.879-7.853c-0.596-1.602-1.66-2.891-3.213-3.867
	c-1.554-0.976-3.369-1.465-5.459-1.465c-3.771,0-6.904,1.25-9.404,3.75c-2.49,2.521-3.74,6.543-3.74,12.07v31.172h-9.092V627.38
	c0-4.043-0.742-7.09-2.227-9.102c-1.484-2.031-3.906-3.027-7.275-3.027c-2.567,0-4.932,0.664-7.108,2.012
	c-2.169,1.349-3.74,3.32-4.728,5.918c-0.977,2.599-1.465,6.328-1.465,11.212v27.852H621.694z M96.313,848.084h-9.102v-57.969
	c-2.188,2.09-5.059,4.18-8.613,6.27c-3.554,2.09-6.748,3.652-9.58,4.707v-8.809c5.088-2.383,9.541-5.293,13.35-8.691
	c3.799-3.397,6.504-6.699,8.086-9.901h5.859V848.084z M119.614,811.541c0-8.75,0.898-15.801,2.705-21.152
	c1.797-5.332,4.482-9.453,8.037-12.362c3.555-2.892,8.027-4.336,13.418-4.336c3.975,0,7.461,0.801,10.459,2.401
	c2.998,1.602,5.479,3.906,7.432,6.914c1.953,3.027,3.486,6.699,4.6,11.017c1.113,4.336,1.67,10.176,1.67,17.52
	c0,8.691-0.889,15.723-2.676,21.055c-1.787,5.353-4.463,9.474-8.018,12.384c-3.555,2.909-8.047,4.375-13.467,4.375
	c-7.148,0-12.754-2.56-16.836-7.677C122.056,835.506,119.614,825.467,119.614,811.541z M128.96,811.541
	c0,12.168,1.426,20.273,4.277,24.297c2.842,4.023,6.357,6.035,10.537,6.035s7.695-2.031,10.537-6.074
	c2.852-4.043,4.268-12.129,4.268-24.258c0-12.188-1.416-20.293-4.268-24.316c-2.842-4.004-6.396-6.016-10.635-6.016
	c-4.18,0-7.52,1.777-10.01,5.313C130.532,791.033,128.96,799.373,128.96,811.541L128.96,811.541z M211.45,848.084h-9.102v-57.969
	c-2.188,2.09-5.059,4.18-8.613,6.27c-3.554,2.09-6.748,3.652-9.58,4.707v-8.809c5.088-2.383,9.541-5.293,13.35-8.691
	c3.799-3.397,6.504-6.699,8.086-9.901h5.859V848.084z M239.868,848.084v-10.352h10.361v10.352H239.868z M263.521,811.541
	c0-8.75,0.898-15.801,2.705-21.152c1.797-5.332,4.482-9.453,8.037-12.362c3.555-2.892,8.027-4.336,13.418-4.336
	c3.975,0,7.461,0.801,10.459,2.401c2.998,1.602,5.479,3.906,7.432,6.914c1.953,3.027,3.486,6.699,4.6,11.017
	c1.113,4.336,1.67,10.176,1.67,17.52c0,8.691-0.889,15.723-2.676,21.055c-1.787,5.353-4.463,9.474-8.018,12.384
	c-3.555,2.909-8.047,4.375-13.467,4.375c-7.148,0-12.754-2.56-16.836-7.677C265.962,835.506,263.521,825.467,263.521,811.541
	L263.521,811.541z M272.866,811.541c0,12.168,1.426,20.273,4.277,24.297c2.842,4.023,6.357,6.035,10.537,6.035
	c4.18,0,7.695-2.031,10.537-6.074c2.852-4.043,4.268-12.129,4.268-24.258c0-12.188-1.416-20.293-4.268-24.316
	c-2.842-4.004-6.396-6.016-10.635-6.016c-4.18,0-7.52,1.777-10.01,5.313C274.438,791.033,272.866,799.373,272.866,811.541
	L272.866,811.541z M321.694,783.689v-8.73h47.969v7.07c-4.717,5.02-9.395,11.699-14.023,20.02
	c-4.639,8.32-8.213,16.875-10.742,25.664c-1.826,6.211-2.988,12.988-3.486,20.371h-9.355c0.098-5.82,1.25-12.871,3.438-21.113
	c2.188-8.262,5.332-16.229,9.424-23.887c4.102-7.676,8.457-14.141,13.066-19.395H321.694L321.694,783.689z M291.958,449.768V264.875
	h78.574c19.756,0,34.11,1.67,43.065,4.99c8.955,3.32,16.123,9.229,21.504,17.715c5.382,8.496,8.076,18.203,8.076,29.131
	c0,13.877-4.082,25.332-12.235,34.365c-8.154,9.043-20.353,14.735-36.572,17.09c8.065,4.717,14.727,9.883,19.99,15.518
	c5.254,5.636,12.334,15.636,21.25,30.011l22.567,36.073H413.54l-26.992-40.233c-9.59-14.375-16.143-23.438-19.678-27.178
	c-3.525-3.74-7.266-6.3-11.221-7.695c-3.955-1.387-10.215-2.08-18.789-2.08h-7.568v77.188L291.958,449.768L291.958,449.768z
	 M329.292,343.069h27.617c17.91,0,29.092-0.752,33.545-2.267c4.463-1.514,7.949-4.121,10.469-7.821
	c2.521-3.691,3.789-8.32,3.789-13.867c0-6.222-1.66-11.25-4.979-15.078c-3.33-3.818-8.019-6.24-14.063-7.246
	c-3.027-0.42-12.109-0.635-27.246-0.635h-29.131V343.069L329.292,343.069z M566.265,449.768v-20.049
	c-4.883,7.14-11.289,12.773-19.237,16.896c-7.939,4.121-16.328,6.181-25.156,6.181c-9.004,0-17.07-1.973-24.219-5.927
	c-7.148-3.955-12.314-9.502-15.508-16.65c-3.203-7.139-4.796-17.021-4.796-29.639v-84.746h35.439v61.543
	c0,18.838,0.645,30.371,1.953,34.619c1.299,4.248,3.682,7.606,7.129,10.088s7.813,3.721,13.115,3.721
	c6.055,0,11.475-1.66,16.27-4.979c4.795-3.32,8.066-7.441,9.834-12.354c1.769-4.922,2.646-16.963,2.646-36.133v-56.504h35.438
	v133.936L566.265,449.768L566.265,449.768z M861.577,108.967v7.588h-42.5c-0.068-1.904,0.244-3.73,0.918-5.479
	c1.084-2.9,2.813-5.752,5.195-8.555c2.383-2.813,5.83-6.055,10.332-9.746c6.991-5.732,11.709-10.264,14.17-13.613
	c2.45-3.35,3.682-6.514,3.682-9.502c0-3.125-1.113-5.771-3.35-7.92c-2.246-2.148-5.156-3.223-8.761-3.223
	c-3.799,0-6.836,1.143-9.121,3.428c-2.274,2.275-3.438,5.438-3.467,9.473l-8.114-0.84c0.557-6.045,2.646-10.664,6.278-13.838
	c3.623-3.174,8.486-4.756,14.601-4.756c6.172,0,11.055,1.709,14.657,5.127c3.595,3.428,5.392,7.666,5.392,12.725
	c0,2.578-0.527,5.107-1.572,7.588c-1.055,2.49-2.803,5.107-5.244,7.852c-2.44,2.754-6.504,6.523-12.178,11.318
	c-4.736,3.975-7.773,6.68-9.121,8.096s-2.461,2.842-3.34,4.277H861.577z M832.231,171.526c-3.271-1.201-5.703-2.91-7.285-5.137
	c-1.572-2.217-2.363-4.883-2.363-7.979c0-4.678,1.68-8.613,5.039-11.807c3.369-3.184,7.842-4.775,13.428-4.775
	c5.615,0,10.138,1.631,13.556,4.893c3.418,3.262,5.137,7.227,5.137,11.904c0,2.988-0.791,5.586-2.354,7.793
	c-1.563,2.207-3.936,3.906-7.129,5.107c3.955,1.289,6.953,3.359,9.015,6.23c2.069,2.861,3.096,6.289,3.096,10.264
	c0,5.498-1.943,10.117-5.83,13.857c-3.896,3.75-9.014,5.615-15.361,5.615c-6.338,0-11.455-1.875-15.352-5.635
	c-3.887-3.76-5.83-8.447-5.83-14.063c0-4.18,1.055-7.676,3.184-10.498C825.298,174.475,828.315,172.551,832.231,171.526
	L832.231,171.526z M828.11,187.844c0,2.256,0.526,4.434,1.602,6.533c1.064,2.109,2.656,3.74,4.756,4.893
	c2.082,1.146,4.421,1.741,6.797,1.729c3.779,0,6.896-1.211,9.347-3.633c2.461-2.432,3.69-5.518,3.69-9.258
	c0-3.799-1.27-6.943-3.799-9.434c-2.529-2.48-5.693-3.73-9.502-3.73c-3.711,0-6.787,1.23-9.229,3.691
	C829.331,181.086,828.11,184.163,828.11,187.844L828.11,187.844z M830.649,158.147c0,3.037,0.985,5.527,2.938,7.451
	c1.963,1.934,4.502,2.9,7.637,2.9c3.037,0,5.537-0.957,7.48-2.871s2.92-4.268,2.92-7.041c0-2.9-1.006-5.332-3.008-7.305
	c-2.002-1.973-4.502-2.959-7.48-2.959c-3.018,0-5.518,0.957-7.5,2.891C831.646,153.147,830.649,155.452,830.649,158.147
	L830.649,158.147z M799.849,296.233h-7.891V245.92c-1.904,1.807-4.395,3.623-7.479,5.439c-3.086,1.807-5.859,3.174-8.312,4.072
	v-7.627c4.414-2.08,8.271-4.59,11.582-7.549c3.301-2.949,5.646-5.82,7.012-8.594h5.089L799.849,296.233L799.849,296.233z
	 M832.222,261.36c-3.271-1.201-5.702-2.91-7.284-5.137c-1.572-2.217-2.363-4.883-2.363-7.979c0-4.678,1.68-8.613,5.039-11.807
	c3.369-3.184,7.842-4.775,13.428-4.775c5.615,0,10.137,1.631,13.555,4.893c3.418,3.262,5.138,7.227,5.138,11.904
	c0,2.988-0.791,5.586-2.354,7.793c-1.563,2.207-3.936,3.906-7.129,5.107c3.955,1.289,6.953,3.359,9.014,6.23
	c2.07,2.861,3.097,6.289,3.097,10.264c0,5.498-1.943,10.117-5.83,13.857c-3.896,3.75-9.015,5.615-15.361,5.615
	c-6.338,0-11.455-1.875-15.352-5.635c-3.888-3.76-5.83-8.447-5.83-14.063c0-4.18,1.055-7.676,3.184-10.498
	C825.288,264.309,828.306,262.385,832.222,261.36L832.222,261.36z M828.102,277.678c0,2.256,0.526,4.434,1.602,6.533
	c1.064,2.109,2.656,3.74,4.756,4.893c2.082,1.146,4.421,1.741,6.797,1.729c3.779,0,6.896-1.211,9.346-3.633
	c2.462-2.432,3.691-5.518,3.691-9.258c0-3.799-1.27-6.943-3.799-9.434c-2.529-2.48-5.693-3.73-9.502-3.73
	c-3.711,0-6.787,1.23-9.229,3.691C829.321,270.92,828.101,273.997,828.102,277.678L828.102,277.678z M830.64,247.981
	c0,3.037,0.986,5.527,2.939,7.451c1.963,1.934,4.502,2.9,7.637,2.9c3.037,0,5.537-0.957,7.48-2.871
	c1.942-1.914,2.92-4.268,2.92-7.041c0-2.9-1.006-5.332-3.008-7.305c-2.002-1.973-4.502-2.959-7.48-2.959
	c-3.018,0-5.518,0.957-7.5,2.891C831.636,242.981,830.641,245.286,830.64,247.981L830.64,247.981z M799.849,386.077h-7.891v-50.313
	c-1.904,1.808-4.395,3.623-7.479,5.439c-3.086,1.807-5.859,3.174-8.312,4.072v-7.627c4.414-2.08,8.271-4.591,11.582-7.55
	c3.301-2.948,5.646-5.819,7.012-8.594h5.089L799.849,386.077L799.849,386.077z M820.073,369.231l8.291-0.703
	c0.615,4.032,2.041,7.069,4.276,9.102c2.236,2.032,4.933,3.047,8.097,3.047c3.799,0,7.012-1.426,9.647-4.297
	c2.627-2.861,3.945-6.67,3.945-11.406c0-4.502-1.27-8.057-3.799-10.653c-2.529-2.607-5.84-3.906-9.933-3.906
	c-2.538,0-4.844,0.576-6.885,1.729c-2.051,1.162-3.662,2.656-4.824,4.502l-7.411-0.967l6.221-33.026h31.981v7.539h-25.663
	l-3.468,17.284c3.867-2.686,7.91-4.032,12.158-4.032c5.615,0,10.353,1.942,14.209,5.83c3.857,3.896,5.791,8.896,5.791,15
	c0,5.819-1.699,10.858-5.088,15.098c-4.121,5.205-9.756,7.803-16.885,7.803c-5.851,0-10.625-1.631-14.326-4.912
	C822.71,378.987,820.602,374.641,820.073,369.231L820.073,369.231z M849.819,475.916h-7.892v-50.318
	c-1.903,1.808-4.395,3.623-7.479,5.439c-3.086,1.807-5.859,3.174-8.312,4.072v-7.627c4.414-2.08,8.271-4.591,11.582-7.55
	c3.302-2.948,5.646-5.819,7.013-8.594h5.088V475.916L849.819,475.916z"/>
</svg>
