<?xml version="1.0" encoding="utf-8"?>
<!-- Generator: Adobe Illustrator 16.0.3, SVG Export Plug-In . SVG Version: 6.00 Build 0)  -->
<!DOCTYPE svg PUBLIC "-//W3C//DTD SVG 1.1//EN" "http://www.w3.org/Graphics/SVG/1.1/DTD/svg11.dtd">
<svg version="1.1" id="Layer_1" xmlns="http://www.w3.org/2000/svg" xmlns:xlink="http://www.w3.org/1999/xlink" x="0px" y="0px"
	 width="900px" height="900px" viewBox="0 0 900 900" enable-background="new 0 0 900 900" xml:space="preserve">
<path d="M86.367,163.352V136.37H37.471v-12.686l51.426-73.037h11.309v73.037h15.215v12.686h-15.215v26.982H86.367z M86.367,123.684
	v-50.82l-35.293,50.82H86.367z M129.57,133.831l14.531-1.23c1.074,7.07,3.574,12.393,7.5,15.957
	c3.916,3.555,8.643,5.342,14.18,5.342c6.66,0,12.305-2.51,16.914-7.539c4.609-5.02,6.924-11.68,6.924-19.99
	c0-7.891-2.217-14.121-6.65-18.682c-4.433-4.561-10.244-6.836-17.412-6.836c-4.463,0-8.486,1.006-12.07,3.037
	c-3.594,2.021-6.416,4.648-8.457,7.881l-12.998-1.699l10.918-57.891h56.045v13.223h-44.971l-6.074,30.293
	c6.758-4.717,13.857-7.07,21.289-7.07c9.844,0,18.145,3.408,24.912,10.225s10.146,15.576,10.146,26.289
	c0,10.205-2.969,19.023-8.916,26.445c-7.227,9.131-17.09,13.691-29.6,13.691c-10.254,0-18.613-2.871-25.098-8.613
	S130.498,143.313,129.57,133.831L129.57,133.831z M251.973,662.244v-74.103h32.861c6.602,0,11.621,0.664,15.059,2.013
	c3.438,1.328,6.182,3.672,8.242,7.051c2.051,3.359,3.076,7.09,3.076,11.172c0,5.254-1.699,9.688-5.098,13.281
	c-3.408,3.613-8.662,5.897-15.771,6.875c2.588,1.25,4.561,2.479,5.908,3.69c2.871,2.638,5.576,5.919,8.145,9.863l12.881,20.156
	h-12.324l-9.814-15.41c-2.861-4.453-5.215-7.852-7.07-10.215s-3.516-4.004-4.98-4.941c-1.465-0.957-2.959-1.602-4.473-1.973
	c-1.113-0.234-2.93-0.353-5.459-0.353h-11.377v32.892L251.973,662.244L251.973,662.244z M261.777,620.857h21.084
	c4.482,0,7.979-0.47,10.508-1.388c2.529-0.938,4.453-2.422,5.762-4.453c1.318-2.051,1.973-4.258,1.973-6.641
	c0-3.516-1.27-6.387-3.818-8.652c-2.539-2.266-6.563-3.379-12.051-3.379h-23.457L261.777,620.857L261.777,620.857z M325.42,662.244
	v-74.103h9.092v26.603c4.248-4.922,9.609-7.383,16.074-7.383c3.975,0,7.432,0.78,10.361,2.344c2.939,1.563,5.029,3.729,6.299,6.504
	c1.26,2.754,1.895,6.758,1.895,12.031v34.004h-9.102V628.24c0-4.551-0.986-7.871-2.959-9.941c-1.963-2.07-4.756-3.104-8.359-3.104
	c-2.695,0-5.234,0.703-7.607,2.09c-2.373,1.406-4.072,3.301-5.078,5.684c-1.016,2.402-1.523,5.703-1.523,9.922v29.355
	L325.42,662.244L325.42,662.244z M379.6,635.408c0-9.941,2.764-17.305,8.291-22.09c4.609-3.966,10.244-5.957,16.885-5.957
	c7.373,0,13.407,2.422,18.086,7.246c4.688,4.844,7.03,11.522,7.03,20.039c0,6.913-1.034,12.344-3.104,16.309
	c-2.08,3.965-5.088,7.031-9.053,9.219c-3.955,2.188-8.281,3.281-12.959,3.281c-7.521,0-13.594-2.402-18.223-7.227
	C381.914,651.424,379.6,644.471,379.6,635.408L379.6,635.408z M388.945,635.408c0,6.875,1.504,12.031,4.502,15.449
	c2.999,3.418,6.777,5.116,11.329,5.116c4.512,0,8.271-1.719,11.27-5.155c2.999-3.438,4.492-8.672,4.492-15.703
	c0-6.642-1.504-11.681-4.521-15.099c-3.017-3.418-6.768-5.137-11.239-5.137c-4.552,0-8.33,1.719-11.328,5.117
	C390.45,623.395,388.945,628.533,388.945,635.408L388.945,635.408z M475.381,662.244v-6.777c-3.408,5.332-8.408,7.988-15.01,7.988
	c-4.287,0-8.213-1.172-11.807-3.535c-3.584-2.363-6.367-5.645-8.341-9.883c-1.973-4.219-2.959-9.082-2.959-14.57
	c0-5.371,0.898-10.215,2.687-14.59c1.776-4.354,4.463-7.715,8.037-10.039c3.563-2.324,7.559-3.477,11.973-3.477
	c3.232,0,6.123,0.684,8.643,2.051c2.529,1.348,4.591,3.125,6.173,5.332v-26.603h9.043v74.103H475.381z M446.621,635.467
	c0,6.875,1.445,12.013,4.346,15.41c2.901,3.398,6.318,5.098,10.264,5.098c3.976,0,7.354-1.62,10.128-4.862
	c2.782-3.263,4.17-8.224,4.17-14.902c0-7.344-1.416-12.733-4.238-16.172c-2.832-3.438-6.318-5.156-10.469-5.156
	c-4.043,0-7.422,1.66-10.138,4.961C447.979,623.143,446.621,628.357,446.621,635.467L446.621,635.467z M498.184,598.611v-10.47
	h9.103v10.47H498.184z M498.184,662.244v-53.672h9.103v53.672H498.184z M556.309,662.244v-7.871
	c-4.18,6.055-9.854,9.082-17.03,9.082c-3.175,0-6.123-0.605-8.877-1.816c-2.744-1.211-4.785-2.733-6.113-4.569
	s-2.267-4.082-2.803-6.738c-0.371-1.797-0.558-4.629-0.558-8.496v-33.262h9.103v29.766c0,4.746,0.186,7.949,0.557,9.609
	c0.566,2.383,1.777,4.276,3.633,5.625c1.855,1.367,4.15,2.051,6.875,2.051c2.734,0,5.293-0.703,7.687-2.09
	c2.393-1.406,4.082-3.301,5.078-5.724c0.995-2.401,1.493-5.897,1.493-10.487v-28.75h9.093v53.672L556.309,662.244L556.309,662.244z
	 M578.701,662.244v-53.672h8.135v7.52c1.689-2.617,3.926-4.727,6.719-6.328c2.804-1.602,5.986-2.401,9.562-2.401
	c3.975,0,7.235,0.819,9.774,2.479c2.55,1.642,4.336,3.945,5.381,6.914c4.248-6.27,9.775-9.395,16.582-9.395
	c5.322,0,9.414,1.465,12.285,4.414c2.861,2.948,4.297,7.5,4.297,13.633v36.836h-9.053v-33.81c0-3.633-0.293-6.27-0.879-7.852
	c-0.596-1.602-1.66-2.891-3.213-3.867c-1.553-0.976-3.369-1.465-5.459-1.465c-3.771,0-6.904,1.25-9.404,3.75
	c-2.49,2.521-3.74,6.543-3.74,12.07v31.172h-9.092V627.38c0-4.043-0.742-7.09-2.227-9.102c-1.484-2.031-3.906-3.027-7.275-3.027
	c-2.567,0-4.932,0.664-7.108,2.012c-2.168,1.349-3.74,3.32-4.728,5.918c-0.977,2.599-1.465,6.328-1.465,11.212v27.852H578.701
	L578.701,662.244z M96.475,848.084h-9.102v-57.969c-2.188,2.09-5.059,4.18-8.613,6.27c-3.554,2.09-6.748,3.652-9.58,4.707v-8.809
	c5.088-2.383,9.541-5.293,13.35-8.691c3.799-3.397,6.504-6.699,8.086-9.901h5.859V848.084z M119.775,811.541
	c0-8.75,0.898-15.801,2.705-21.152c1.797-5.332,4.482-9.453,8.037-12.362c3.555-2.892,8.027-4.336,13.418-4.336
	c3.975,0,7.461,0.801,10.459,2.401c2.998,1.602,5.479,3.906,7.432,6.914c1.953,3.027,3.486,6.699,4.6,11.017
	c1.113,4.336,1.67,10.176,1.67,17.52c0,8.691-0.889,15.723-2.676,21.055c-1.787,5.353-4.463,9.474-8.018,12.384
	c-3.555,2.909-8.047,4.375-13.467,4.375c-7.148,0-12.754-2.56-16.836-7.677C122.217,835.506,119.775,825.467,119.775,811.541
	L119.775,811.541z M129.121,811.541c0,12.168,1.426,20.273,4.277,24.297c2.842,4.023,6.357,6.035,10.537,6.035
	s7.695-2.031,10.537-6.074c2.852-4.043,4.268-12.129,4.268-24.258c0-12.188-1.416-20.293-4.268-24.316
	c-2.842-4.004-6.396-6.016-10.635-6.016c-4.18,0-7.52,1.777-10.01,5.313C130.693,791.033,129.121,799.373,129.121,811.541
	L129.121,811.541z M225.156,839.354v8.73h-48.975c-0.076-2.153,0.286-4.3,1.064-6.309c1.24-3.341,3.242-6.621,5.986-9.863
	s6.709-6.973,11.904-11.211c8.047-6.621,13.496-11.836,16.328-15.703c2.822-3.848,4.238-7.5,4.238-10.938
	c0-3.612-1.289-6.659-3.867-9.12c-2.578-2.48-5.938-3.73-10.078-3.73c-4.385,0-7.891,1.328-10.518,3.945
	c-2.627,2.637-3.955,6.27-3.994,10.918l-9.346-0.957c0.635-6.973,3.047-12.285,7.227-15.938c4.18-3.672,9.785-5.487,16.836-5.487
	c7.109,0,12.734,1.973,16.875,5.918c4.15,3.944,6.221,8.828,6.221,14.647c0,2.97-0.605,5.879-1.816,8.75
	c-1.221,2.871-3.232,5.879-6.045,9.043s-7.49,7.521-14.023,13.048c-5.459,4.569-8.965,7.694-10.518,9.315
	c-1.553,1.641-2.832,3.281-3.838,4.941L225.156,839.354L225.156,839.354z M240.029,848.084v-10.352h10.361v10.352H240.029z
	 M265.049,830.955l8.74-0.801c0.742,4.102,2.158,7.09,4.248,8.944c2.09,1.855,4.766,2.773,8.037,2.773
	c2.793,0,5.244-0.646,7.354-1.914c2.109-1.289,3.828-2.988,5.176-5.137c1.348-2.149,2.48-5.039,3.389-8.673
	c0.909-3.633,1.367-7.344,1.367-11.112c0-0.41-0.02-1.017-0.049-1.816c-1.826,2.892-4.307,5.234-7.461,7.052
	c-3.145,1.797-6.563,2.694-10.234,2.694c-6.133,0-11.318-2.227-15.566-6.68c-4.248-4.435-6.367-10.293-6.367-17.578
	c0-7.521,2.217-13.574,6.65-18.146c4.424-4.59,9.98-6.875,16.65-6.875c4.814,0,9.229,1.289,13.213,3.888
	c3.994,2.598,7.031,6.289,9.102,11.094c2.071,4.805,3.105,11.758,3.105,20.859c0,9.473-1.025,17.012-3.076,22.616
	c-2.061,5.605-5.117,9.884-9.18,12.813s-8.818,4.396-14.277,4.396c-5.791,0-10.527-1.603-14.199-4.824
	C267.999,841.307,265.791,836.775,265.049,830.955L265.049,830.955z M302.295,798.26c0-5.233-1.387-9.375-4.17-12.44
	c-2.773-3.066-6.123-4.609-10.029-4.609c-4.043,0-7.568,1.66-10.566,4.961s-4.502,7.578-4.502,12.832
	c0,4.727,1.426,8.555,4.277,11.504c2.842,2.949,6.357,4.435,10.537,4.435c4.209,0,7.676-1.484,10.391-4.435
	C300.938,807.557,302.295,803.475,302.295,798.26L302.295,798.26z M355.518,848.084h-9.102v-57.969
	c-2.188,2.09-5.059,4.18-8.613,6.27c-3.554,2.09-6.748,3.652-9.58,4.707v-8.809c5.088-2.383,9.541-5.293,13.35-8.691
	c3.799-3.397,6.504-6.699,8.086-9.902h5.859V848.084L355.518,848.084z M292.129,449.768V264.875h78.574
	c19.756,0,34.111,1.67,43.065,4.99c8.955,3.32,16.123,9.229,21.505,17.715c5.381,8.496,8.075,18.203,8.075,29.131
	c0,13.877-4.082,25.332-12.235,34.365c-8.154,9.043-20.353,14.735-36.572,17.09c8.066,4.717,14.727,9.883,19.99,15.518
	c5.254,5.636,12.334,15.636,21.25,30.011l22.567,36.073H413.71l-26.992-40.233c-9.59-14.375-16.143-23.438-19.678-27.178
	c-3.525-3.74-7.266-6.3-11.221-7.695c-3.955-1.387-10.215-2.08-18.789-2.08h-7.568v77.188L292.129,449.768L292.129,449.768z
	 M329.463,343.069h27.617c17.91,0,29.092-0.753,33.545-2.267c4.463-1.514,7.949-4.121,10.469-7.822
	c2.521-3.69,3.789-8.319,3.789-13.866c0-6.222-1.66-11.25-4.979-15.078c-3.33-3.818-8.019-6.24-14.063-7.246
	c-3.027-0.42-12.109-0.635-27.246-0.635h-29.131V343.069L329.463,343.069z M513.584,264.875v67.979
	c11.436-13.368,25.098-20.049,40.996-20.049c8.154,0,15.508,1.515,22.07,4.541c6.553,3.027,11.493,6.896,14.813,11.603
	s5.596,9.922,6.808,15.635c1.221,5.723,1.836,14.59,1.836,26.611v78.573h-35.439v-70.752c0-14.043-0.674-22.949-2.021-26.737
	c-1.348-3.779-3.721-6.787-7.129-9.015c-3.397-2.227-7.666-3.34-12.793-3.34c-5.889,0-11.143,1.426-15.771,4.287
	c-4.619,2.852-8.008,7.168-10.146,12.92c-2.147,5.762-3.223,14.277-3.223,25.547v67.09h-35.43V264.875H513.584L513.584,264.875z
	 M861.738,108.967v7.588h-42.5c-0.068-1.904,0.244-3.73,0.918-5.479c1.084-2.9,2.813-5.752,5.194-8.555
	c2.384-2.813,5.83-6.055,10.332-9.746c6.992-5.732,11.709-10.264,14.17-13.613c2.451-3.35,3.683-6.514,3.683-9.502
	c0-3.125-1.113-5.771-3.351-7.92c-2.245-2.148-5.155-3.223-8.76-3.223c-3.799,0-6.836,1.143-9.121,3.428
	c-2.274,2.275-3.438,5.439-3.467,9.473l-8.115-0.84c0.558-6.045,2.646-10.664,6.279-13.838c3.623-3.174,8.486-4.756,14.6-4.756
	c6.173,0,11.056,1.709,14.658,5.127c3.595,3.428,5.392,7.666,5.392,12.725c0,2.578-0.527,5.107-1.572,7.588
	c-1.055,2.49-2.803,5.107-5.244,7.852c-2.441,2.754-6.504,6.523-12.178,11.318c-4.736,3.975-7.773,6.68-9.121,8.096
	s-2.461,2.842-3.34,4.277H861.738L861.738,108.967z M832.393,171.526c-3.271-1.201-5.702-2.91-7.284-5.137
	c-1.572-2.217-2.363-4.883-2.363-7.979c0-4.678,1.68-8.613,5.039-11.807c3.369-3.184,7.842-4.775,13.428-4.775
	c5.615,0,10.137,1.631,13.555,4.893c3.418,3.262,5.138,7.227,5.138,11.904c0,2.988-0.791,5.586-2.354,7.793
	c-1.563,2.207-3.936,3.906-7.129,5.107c3.955,1.289,6.953,3.359,9.014,6.23c2.07,2.861,3.097,6.289,3.097,10.264
	c0,5.498-1.943,10.117-5.83,13.857c-3.896,3.75-9.014,5.615-15.361,5.615c-6.338,0-11.455-1.875-15.352-5.635
	c-3.888-3.76-5.83-8.447-5.83-14.063c0-4.18,1.055-7.676,3.184-10.498C825.459,174.475,828.477,172.551,832.393,171.526
	L832.393,171.526z M828.271,187.844c0,2.256,0.526,4.434,1.602,6.533c1.064,2.109,2.656,3.74,4.756,4.893
	c2.082,1.145,4.421,1.74,6.797,1.729c3.779,0,6.896-1.211,9.346-3.633c2.462-2.432,3.691-5.518,3.691-9.258
	c0-3.799-1.27-6.943-3.799-9.434c-2.529-2.48-5.693-3.73-9.502-3.73c-3.711,0-6.787,1.23-9.229,3.691
	C829.492,181.086,828.271,184.163,828.271,187.844L828.271,187.844z M830.811,158.147c0,3.037,0.986,5.527,2.939,7.451
	c1.963,1.934,4.502,2.9,7.637,2.9c3.037,0,5.537-0.957,7.48-2.871c1.942-1.914,2.92-4.268,2.92-7.041c0-2.9-1.006-5.332-3.008-7.305
	c-2.002-1.973-4.502-2.959-7.48-2.959c-3.018,0-5.518,0.957-7.5,2.891C831.807,153.147,830.811,155.452,830.811,158.147
	L830.811,158.147z M800.01,296.233h-7.891V245.92c-1.904,1.807-4.396,3.623-7.48,5.439c-3.086,1.807-5.858,3.174-8.311,4.072v-7.627
	c4.414-2.08,8.271-4.59,11.582-7.549c3.301-2.949,5.645-5.82,7.012-8.594h5.088V296.233L800.01,296.233z M832.383,261.36
	c-3.271-1.201-5.703-2.91-7.285-5.137c-1.571-2.217-2.362-4.883-2.362-7.979c0-4.678,1.68-8.613,5.039-11.807
	c3.368-3.184,7.842-4.775,13.428-4.775c5.615,0,10.137,1.631,13.555,4.893c3.418,3.262,5.138,7.227,5.138,11.904
	c0,2.988-0.791,5.586-2.354,7.793s-3.936,3.906-7.129,5.107c3.955,1.289,6.953,3.359,9.014,6.23
	c2.07,2.861,3.097,6.289,3.097,10.264c0,5.498-1.943,10.117-5.83,13.857c-3.896,3.75-9.015,5.615-15.361,5.615
	c-6.338,0-11.455-1.875-15.353-5.635c-3.887-3.76-5.829-8.447-5.829-14.063c0-4.18,1.055-7.676,3.184-10.498
	C825.449,264.309,828.467,262.385,832.383,261.36L832.383,261.36z M828.262,277.678c0,2.256,0.527,4.434,1.603,6.533
	c1.063,2.109,2.655,3.74,4.756,4.893c2.081,1.146,4.421,1.74,6.797,1.729c3.779,0,6.896-1.211,9.346-3.633
	c2.461-2.432,3.691-5.518,3.691-9.258c0-3.799-1.271-6.943-3.799-9.434c-2.529-2.48-5.693-3.73-9.502-3.73
	c-3.711,0-6.787,1.23-9.229,3.691C829.482,270.92,828.262,273.997,828.262,277.678L828.262,277.678z M830.801,247.981
	c0,3.037,0.986,5.527,2.939,7.451c1.963,1.934,4.502,2.9,7.637,2.9c3.037,0,5.537-0.957,7.48-2.871
	c1.942-1.914,2.92-4.268,2.92-7.041c0-2.9-1.006-5.332-3.008-7.305c-2.003-1.973-4.503-2.959-7.48-2.959
	c-3.018,0-5.518,0.957-7.5,2.891C831.797,242.981,830.801,245.286,830.801,247.981L830.801,247.981z M800.01,386.077h-7.891v-50.313
	c-1.904,1.808-4.396,3.623-7.48,5.439c-3.086,1.807-5.858,3.174-8.311,4.072v-7.627c4.414-2.08,8.271-4.591,11.582-7.55
	c3.301-2.948,5.645-5.819,7.012-8.594h5.088V386.077L800.01,386.077z M832.383,351.204c-3.271-1.201-5.703-2.91-7.285-5.137
	c-1.571-2.218-2.362-4.884-2.362-7.979c0-4.678,1.68-8.613,5.039-11.807c3.368-3.185,7.842-4.775,13.428-4.775
	c5.615,0,10.137,1.631,13.555,4.894c3.418,3.262,5.138,7.227,5.138,11.903c0,2.988-0.791,5.586-2.354,7.793
	s-3.936,3.906-7.129,5.107c3.955,1.289,6.953,3.358,9.014,6.229c2.07,2.861,3.097,6.289,3.097,10.265
	c0,5.498-1.943,10.117-5.83,13.856c-3.896,3.75-9.015,5.615-15.361,5.615c-6.338,0-11.455-1.875-15.353-5.635
	c-3.887-3.76-5.829-8.447-5.829-14.063c0-4.18,1.055-7.676,3.184-10.498C825.449,354.153,828.467,352.229,832.383,351.204z
	 M828.262,367.521c0,2.257,0.527,4.435,1.603,6.533c1.063,2.109,2.655,3.74,4.756,4.894c2.081,1.146,4.421,1.74,6.797,1.729
	c3.779,0,6.896-1.211,9.346-3.633c2.461-2.432,3.691-5.518,3.691-9.258c0-3.799-1.271-6.943-3.799-9.435
	c-2.529-2.479-5.693-3.729-9.502-3.729c-3.711,0-6.787,1.229-9.229,3.69C829.482,360.764,828.262,363.84,828.262,367.521
	L828.262,367.521z M830.801,337.825c0,3.037,0.986,5.526,2.939,7.451c1.963,1.934,4.502,2.899,7.637,2.899
	c3.037,0,5.537-0.957,7.48-2.871c1.942-1.914,2.92-4.268,2.92-7.041c0-2.899-1.006-5.332-3.008-7.305
	c-2.003-1.973-4.503-2.959-7.48-2.959c-3.018,0-5.518,0.957-7.5,2.891C831.797,332.825,830.801,335.129,830.801,337.825
	L830.801,337.825z M849.98,475.916h-7.892v-50.318c-1.903,1.808-4.395,3.623-7.479,5.439c-3.086,1.807-5.859,3.174-8.312,4.072
	v-7.627c4.414-2.08,8.271-4.591,11.582-7.55c3.301-2.948,5.646-5.819,7.013-8.594h5.088V475.916L849.98,475.916z"/>
</svg>
