<?xml version="1.0" encoding="utf-8"?>
<!-- Generator: Adobe Illustrator 16.0.3, SVG Export Plug-In . SVG Version: 6.00 Build 0)  -->
<!DOCTYPE svg PUBLIC "-//W3C//DTD SVG 1.1//EN" "http://www.w3.org/Graphics/SVG/1.1/DTD/svg11.dtd">
<svg version="1.1" id="Layer_1" xmlns="http://www.w3.org/2000/svg" xmlns:xlink="http://www.w3.org/1999/xlink" x="0px" y="0px"
	 width="900px" height="900px" viewBox="0 0 900 900" enable-background="new 0 0 900 900" xml:space="preserve">
<path d="M86.357,163.582V136.6H37.461v-12.686l51.426-73.037h11.309v73.037h15.215V136.6h-15.215v26.982H86.357z M86.357,123.914
	v-50.82l-35.293,50.82H86.357z M201.367,78.474l-13.76,1.074c-1.23-5.43-2.969-9.375-5.225-11.836
	c-3.75-3.945-8.359-5.918-13.838-5.918c-4.414,0-8.281,1.23-11.611,3.691c-4.355,3.174-7.793,7.813-10.303,13.916
	c-2.51,6.094-3.818,14.785-3.926,26.055c3.33-5.068,7.412-8.838,12.227-11.299c4.815-2.461,9.863-3.691,15.146-3.691
	c9.229,0,17.08,3.398,23.564,10.186c6.484,6.797,9.727,15.576,9.727,26.338c0,7.07-1.523,13.643-4.58,19.717
	c-3.047,6.074-7.236,10.723-12.568,13.955c-5.332,3.223-11.377,4.844-18.145,4.844c-11.533,0-20.938-4.238-28.213-12.725
	c-7.275-8.487-10.918-22.461-10.918-41.943c0-21.777,4.023-37.617,12.07-47.51c7.021-8.613,16.475-12.91,28.369-12.91
	c8.867,0,16.133,2.48,21.797,7.451C196.844,62.84,200.244,69.714,201.367,78.474L201.367,78.474z M144.863,127.068
	c0,4.766,1.006,9.326,3.037,13.682c2.021,4.355,4.854,7.676,8.496,9.951c3.633,2.285,7.451,3.428,11.455,3.428
	c5.84,0,10.859-2.363,15.068-7.08c4.199-4.707,6.299-11.113,6.299-19.219c0-7.783-2.07-13.926-6.221-18.408
	c-4.16-4.482-9.385-6.729-15.684-6.729c-6.26,0-11.563,2.246-15.918,6.729S144.863,119.783,144.863,127.068z M231.689,662.473
	v-74.102h27.949c4.922,0,8.672,0.234,11.27,0.723c3.643,0.605,6.689,1.758,9.15,3.457s4.443,4.082,5.938,7.148
	c1.504,3.065,2.246,6.445,2.246,10.117c0,6.289-2.002,11.621-6.006,15.996c-4.014,4.354-11.26,6.543-21.738,6.543h-19.004v30.116
	L231.689,662.473L231.689,662.473z M241.494,623.605h19.16c6.328,0,10.83-1.173,13.486-3.535c2.666-2.363,3.994-5.685,3.994-9.961
	c0-3.105-0.781-5.742-2.344-7.949c-1.572-2.207-3.633-3.672-6.191-4.375c-1.65-0.449-4.707-0.664-9.15-0.664h-18.955V623.605
	L241.494,623.605z M334.6,655.852c-3.379,2.871-6.621,4.884-9.736,6.074c-3.115,1.172-6.455,1.758-10.029,1.758
	c-5.898,0-10.43-1.426-13.594-4.315c-3.174-2.871-4.756-6.563-4.756-11.035c0-2.637,0.596-5.039,1.797-7.207
	c1.191-2.168,2.764-3.926,4.697-5.233c1.933-1.309,4.121-2.306,6.543-2.988c1.787-0.469,4.482-0.918,8.086-1.367
	c7.354-0.859,12.754-1.914,16.23-3.125c0.029-1.25,0.049-2.031,0.049-2.383c0-3.691-0.859-6.31-2.578-7.832
	c-2.324-2.051-5.781-3.086-10.361-3.086c-4.277,0-7.441,0.762-9.473,2.266c-2.041,1.484-3.555,4.142-4.531,7.949l-8.896-1.211
	c0.811-3.81,2.148-6.875,3.994-9.219c1.855-2.345,4.531-4.142,8.037-5.41c3.506-1.27,7.568-1.896,12.188-1.896
	c4.58,0,8.301,0.527,11.172,1.621c2.861,1.074,4.961,2.422,6.309,4.063c1.348,1.641,2.295,3.69,2.832,6.19
	c0.303,1.543,0.459,4.355,0.459,8.398v12.129c0,8.457,0.195,13.809,0.576,16.035c0.398,2.263,1.178,4.442,2.305,6.444h-9.502
	C335.469,660.598,334.863,658.391,334.6,655.852L334.6,655.852z M333.838,635.539c-3.301,1.348-8.262,2.5-14.863,3.438
	c-3.74,0.527-6.387,1.152-7.93,1.816c-1.553,0.684-2.754,1.66-3.594,2.949c-0.835,1.291-1.273,2.799-1.26,4.336
	c0,2.422,0.918,4.434,2.754,6.055s4.521,2.422,8.057,2.422c3.506,0,6.621-0.762,9.355-2.285c2.725-1.543,4.736-3.633,6.016-6.288
	c0.977-2.07,1.465-5.099,1.465-9.103V635.539L333.838,635.539z M356.934,662.473v-74.102h9.102v74.102H356.934z M379.932,662.473
	v-74.102h9.102v74.102H379.932z M438.164,655.853c-3.379,2.87-6.621,4.883-9.736,6.073c-3.115,1.172-6.455,1.758-10.028,1.758
	c-5.898,0-10.431-1.426-13.595-4.315c-3.174-2.871-4.756-6.563-4.756-11.035c0-2.637,0.596-5.039,1.797-7.207
	c1.191-2.168,2.765-3.926,4.697-5.233c1.933-1.309,4.121-2.306,6.543-2.988c1.787-0.469,4.482-0.918,8.086-1.367
	c7.354-0.859,12.754-1.914,16.23-3.125c0.028-1.25,0.049-2.031,0.049-2.383c0-3.691-0.859-6.31-2.578-7.832
	c-2.324-2.051-5.781-3.086-10.361-3.086c-4.276,0-7.44,0.762-9.473,2.266c-2.041,1.484-3.555,4.142-4.531,7.949l-8.896-1.211
	c0.811-3.809,2.147-6.875,3.994-9.219c1.854-2.345,4.53-4.142,8.036-5.41c3.507-1.27,7.568-1.896,12.188-1.896
	c4.58,0,8.301,0.527,11.172,1.621c2.861,1.074,4.961,2.422,6.309,4.063c1.349,1.641,2.296,3.69,2.832,6.19
	c0.304,1.543,0.459,4.355,0.459,8.398v12.129c0,8.457,0.195,13.809,0.576,16.035c0.398,2.263,1.178,4.442,2.306,6.444h-9.502
	C439.033,660.598,438.428,658.392,438.164,655.853L438.164,655.853z M437.402,635.539c-3.302,1.348-8.263,2.5-14.863,3.438
	c-3.74,0.526-6.387,1.151-7.93,1.815c-1.554,0.685-2.754,1.66-3.595,2.949c-0.835,1.291-1.272,2.799-1.26,4.336
	c0,2.422,0.918,4.434,2.754,6.055s4.521,2.422,8.058,2.422c3.506,0,6.62-0.762,9.354-2.284c2.726-1.544,4.736-3.634,6.017-6.289
	c0.977-2.07,1.465-5.099,1.465-9.103V635.539L437.402,635.539z M495.537,662.473v-6.776c-3.408,5.332-8.408,7.988-15.01,7.988
	c-4.287,0-8.213-1.173-11.808-3.535c-3.584-2.363-6.367-5.646-8.34-9.883c-1.973-4.22-2.959-9.082-2.959-14.57
	c0-5.371,0.898-10.215,2.687-14.59c1.776-4.355,4.463-7.716,8.036-10.039c3.564-2.324,7.56-3.478,11.974-3.478
	c3.231,0,6.123,0.685,8.643,2.052c2.529,1.348,4.59,3.125,6.172,5.331v-26.602h9.043v74.102H495.537z M466.777,635.695
	c0,6.875,1.444,12.012,4.346,15.41c2.901,3.397,6.318,5.098,10.264,5.098c3.976,0,7.354-1.621,10.127-4.863
	c2.783-3.262,4.17-8.223,4.17-14.901c0-7.345-1.416-12.734-4.237-16.172c-2.832-3.438-6.318-5.156-10.47-5.156
	c-4.043,0-7.422,1.66-10.137,4.961C468.135,623.371,466.777,628.586,466.777,635.695L466.777,635.695z M518.33,598.84v-10.469h9.102
	v10.469H518.33z M518.33,662.473v-53.672h9.102v53.672H518.33z M576.455,662.473v-7.87c-4.18,6.055-9.854,9.082-17.031,9.082
	c-3.174,0-6.123-0.605-8.877-1.816c-2.744-1.211-4.785-2.734-6.113-4.57s-2.266-4.082-2.803-6.737
	c-0.371-1.797-0.557-4.629-0.557-8.496v-33.263h9.102v29.767c0,4.746,0.187,7.949,0.558,9.608c0.565,2.384,1.776,4.277,3.633,5.625
	c1.854,1.367,4.149,2.052,6.875,2.052c2.733,0,5.293-0.703,7.686-2.09c2.394-1.406,4.082-3.302,5.078-5.724
	c0.996-2.401,1.494-5.897,1.494-10.488v-28.75h9.092v53.673h-8.136V662.473z M598.848,662.473v-53.672h8.136v7.521
	c1.688-2.617,3.926-4.728,6.719-6.328c2.803-1.602,5.985-2.402,9.561-2.402c3.976,0,7.236,0.82,9.775,2.48
	c2.549,1.641,4.336,3.945,5.381,6.914c4.248-6.271,9.775-9.396,16.582-9.396c5.322,0,9.414,1.465,12.285,4.414
	c2.86,2.949,4.297,7.5,4.297,13.633v36.836h-9.053v-33.809c0-3.633-0.293-6.27-0.879-7.852c-0.597-1.603-1.66-2.892-3.214-3.867
	c-1.553-0.977-3.368-1.465-5.459-1.465c-3.77,0-6.903,1.25-9.403,3.75c-2.49,2.52-3.74,6.543-3.74,12.069v31.172h-9.092v-34.862
	c0-4.043-0.742-7.09-2.228-9.103c-1.483-2.03-3.905-3.026-7.274-3.026c-2.568,0-4.933,0.664-7.109,2.012
	c-2.168,1.348-3.74,3.32-4.727,5.918c-0.978,2.598-1.466,6.328-1.466,11.211v27.853L598.848,662.473L598.848,662.473z
	 M96.494,848.313h-9.102v-57.969c-2.188,2.09-5.059,4.181-8.613,6.271c-3.554,2.09-6.748,3.651-9.58,4.707v-8.81
	c5.088-2.383,9.541-5.293,13.35-8.69c3.799-3.398,6.504-6.699,8.086-9.902h5.859V848.313z M119.795,811.77
	c0-8.75,0.898-15.801,2.705-21.151c1.797-5.332,4.482-9.453,8.037-12.363c3.555-2.891,8.027-4.336,13.418-4.336
	c3.975,0,7.461,0.801,10.459,2.402c2.998,1.601,5.479,3.905,7.432,6.914c1.953,3.026,3.486,6.698,4.6,11.016
	c1.113,4.336,1.67,10.176,1.67,17.521c0,8.69-0.889,15.723-2.676,21.055c-1.787,5.352-4.463,9.473-8.018,12.383
	c-3.555,2.91-8.047,4.375-13.467,4.375c-7.148,0-12.754-2.559-16.836-7.676C122.236,835.734,119.795,825.695,119.795,811.77z
	 M129.141,811.77c0,12.169,1.426,20.273,4.277,24.298c2.842,4.022,6.357,6.034,10.537,6.034c4.18,0,7.695-2.03,10.537-6.073
	c2.852-4.043,4.268-12.129,4.268-24.259c0-12.188-1.416-20.293-4.268-24.315c-2.842-4.004-6.396-6.016-10.635-6.016
	c-4.18,0-7.52,1.776-10.01,5.313C130.713,791.262,129.141,799.602,129.141,811.77L129.141,811.77z M224.57,792.355l-9.043,0.723
	c-0.811-3.574-1.953-6.172-3.438-7.793c-2.461-2.598-5.498-3.887-9.102-3.887c-2.9,0-5.439,0.801-7.627,2.422
	c-2.871,2.09-5.127,5.137-6.777,9.141c-1.65,4.023-2.51,9.727-2.578,17.148c2.188-3.341,4.873-5.82,8.037-7.441
	c3.164-1.602,6.484-2.422,9.961-2.422c6.064,0,11.221,2.227,15.488,6.699c4.258,4.473,6.396,10.233,6.396,17.305
	c0,4.648-1.006,8.984-3.008,12.969c-2.012,4.004-4.766,7.051-8.262,9.181c-3.506,2.129-7.49,3.184-11.934,3.184
	c-7.578,0-13.77-2.793-18.545-8.359c-4.795-5.586-7.178-14.766-7.178-27.577c0-14.316,2.637-24.728,7.93-31.23
	c4.619-5.664,10.83-8.496,18.652-8.496c5.83,0,10.605,1.641,14.326,4.902C221.602,782.082,223.828,786.594,224.57,792.355z
	 M187.422,824.309c0,3.125,0.664,6.134,1.992,9.005c1.338,2.852,3.193,5.038,5.586,6.543c2.393,1.504,4.902,2.245,7.529,2.245
	c3.848,0,7.148-1.543,9.912-4.647c2.764-3.105,4.141-7.324,4.141-12.637c0-5.117-1.357-9.16-4.092-12.109
	c-2.725-2.949-6.162-4.414-10.313-4.414c-4.111,0-7.598,1.465-10.459,4.414C188.857,815.657,187.422,819.523,187.422,824.309
	L187.422,824.309z M240.049,848.313v-10.353h10.361v10.353H240.049z M292.861,848.313v-17.734h-32.139v-8.34l33.809-48.027h7.432
	v48.027h10.01v8.34h-10.01v17.734H292.861z M292.861,822.238V788.82l-23.193,33.418H292.861z M369.082,839.582v8.73h-48.975
	c-0.076-2.154,0.286-4.3,1.064-6.31c1.24-3.34,3.242-6.621,5.986-9.863c2.744-3.241,6.709-6.973,11.904-11.211
	c8.047-6.621,13.496-11.836,16.328-15.703c2.822-3.848,4.238-7.5,4.238-10.938c0-3.613-1.289-6.66-3.867-9.121
	c-2.578-2.479-5.938-3.729-10.078-3.729c-4.385,0-7.891,1.327-10.518,3.944c-2.627,2.638-3.955,6.271-3.994,10.918l-9.346-0.957
	c0.635-6.973,3.047-12.284,7.227-15.938c4.18-3.672,9.785-5.488,16.836-5.488c7.109,0,12.734,1.974,16.875,5.918
	c4.15,3.945,6.221,8.828,6.221,14.648c0,2.969-0.605,5.879-1.816,8.75c-1.221,2.871-3.232,5.879-6.045,9.043
	s-7.49,7.52-14.023,13.047c-5.459,4.57-8.965,7.695-10.518,9.316c-1.553,1.641-2.832,3.28-3.838,4.94h36.339V839.582z
	 M299.141,449.998V265.105h59.912c22.695,0,37.49,0.928,44.385,2.783c10.596,2.773,19.473,8.809,26.61,18.096
	c7.148,9.287,10.723,21.29,10.723,36.006c0,11.348-2.061,20.889-6.182,28.623c-4.121,7.744-9.354,13.817-15.703,18.231
	c-6.348,4.414-12.793,7.334-19.354,8.761c-8.916,1.768-21.816,2.646-38.721,2.646h-24.336v69.746L299.141,449.998L299.141,449.998z
	 M336.475,296.384v52.472h20.43c14.717,0,24.551-0.968,29.512-2.9s8.848-4.961,11.67-9.082c2.813-4.121,4.219-8.916,4.219-14.375
	c0-6.729-1.973-12.275-5.928-16.65c-3.955-4.375-8.955-7.109-15.01-8.203c-4.453-0.84-13.408-1.26-26.855-1.26h-18.038V296.384z
	 M594.004,449.998h-32.92V430.32c-5.459,7.655-11.914,13.35-19.354,17.09c-7.441,3.741-14.941,5.616-22.511,5.616
	c-15.391,0-28.563-6.202-39.541-18.604c-10.967-12.402-16.455-29.697-16.455-51.895c0-22.705,5.332-39.961,16.017-51.777
	c10.674-11.807,24.17-17.715,40.479-17.715c14.972,0,27.92,6.221,38.849,18.662v-66.592h35.438L594.004,449.998L594.004,449.998z
	 M499.414,380.125c0,14.297,1.973,24.639,5.928,31.025c5.724,9.258,13.701,13.877,23.965,13.877c8.154,0,15.089-3.467,20.812-10.4
	c5.713-6.943,8.574-17.305,8.574-31.094c0-15.381-2.773-26.465-8.32-33.232c-5.557-6.768-12.656-10.146-21.318-10.146
	c-8.407,0-15.448,3.34-21.123,10.02C502.256,356.863,499.414,366.843,499.414,380.125L499.414,380.125z M861.748,109.197v7.588
	h-42.5c-0.068-1.904,0.244-3.73,0.918-5.479c1.084-2.9,2.813-5.752,5.195-8.555c2.383-2.813,5.83-6.055,10.332-9.746
	c6.992-5.732,11.709-10.264,14.17-13.613c2.451-3.35,3.682-6.514,3.682-9.502c0-3.125-1.113-5.771-3.35-7.92
	c-2.246-2.148-5.156-3.223-8.76-3.223c-3.8,0-6.837,1.143-9.121,3.428c-2.275,2.275-3.438,5.439-3.468,9.473l-8.114-0.84
	c0.557-6.045,2.646-10.664,6.278-13.838c3.623-3.174,8.486-4.756,14.601-4.756c6.172,0,11.055,1.709,14.658,5.127
	c3.594,3.428,5.391,7.666,5.391,12.725c0,2.578-0.527,5.107-1.572,7.588c-1.055,2.49-2.803,5.107-5.244,7.852
	c-2.44,2.754-6.504,6.523-12.178,11.318c-4.736,3.975-7.773,6.68-9.121,8.096s-2.461,2.842-3.34,4.277H861.748z M832.402,171.755
	c-3.271-1.201-5.703-2.91-7.285-5.137c-1.572-2.217-2.363-4.883-2.363-7.979c0-4.678,1.68-8.613,5.039-11.807
	c3.369-3.184,7.842-4.775,13.428-4.775c5.615,0,10.138,1.631,13.556,4.893c3.418,3.262,5.137,7.227,5.137,11.904
	c0,2.988-0.791,5.586-2.354,7.793c-1.563,2.207-3.936,3.906-7.129,5.107c3.955,1.289,6.953,3.359,9.015,6.23
	c2.069,2.861,3.096,6.289,3.096,10.264c0,5.498-1.943,10.117-5.83,13.857c-3.896,3.75-9.014,5.615-15.361,5.615
	c-6.338,0-11.455-1.875-15.352-5.635c-3.887-3.76-5.83-8.447-5.83-14.063c0-4.18,1.055-7.676,3.184-10.498
	C825.469,174.705,828.486,172.781,832.402,171.755z M828.281,188.074c0,2.256,0.526,4.434,1.602,6.533
	c1.064,2.109,2.656,3.74,4.756,4.893c2.082,1.146,4.422,1.741,6.797,1.729c3.779,0,6.896-1.211,9.347-3.633
	c2.461-2.432,3.69-5.518,3.69-9.258c0-3.799-1.27-6.943-3.799-9.434c-2.529-2.48-5.692-3.73-9.502-3.73
	c-3.711,0-6.787,1.23-9.229,3.691C829.502,181.316,828.281,184.392,828.281,188.074L828.281,188.074z M830.82,158.376
	c0,3.037,0.985,5.527,2.938,7.451c1.963,1.934,4.502,2.9,7.638,2.9c3.037,0,5.537-0.957,7.479-2.871
	c1.943-1.914,2.92-4.268,2.92-7.041c0-2.9-1.006-5.332-3.008-7.305c-2.002-1.973-4.502-2.959-7.479-2.959
	c-3.019,0-5.519,0.957-7.5,2.891C831.816,153.376,830.82,155.681,830.82,158.376L830.82,158.376z M800.021,296.462h-7.892V246.15
	c-1.904,1.807-4.395,3.623-7.479,5.439c-3.086,1.807-5.859,3.174-8.312,4.072v-7.627c4.414-2.08,8.271-4.59,11.582-7.549
	c3.301-2.949,5.646-5.82,7.012-8.594h5.089V296.462L800.021,296.462z M832.393,261.589c-3.271-1.201-5.702-2.91-7.284-5.137
	c-1.572-2.217-2.363-4.883-2.363-7.979c0-4.678,1.68-8.613,5.039-11.807c3.369-3.184,7.842-4.775,13.428-4.775
	c5.615,0,10.138,1.631,13.556,4.893c3.418,3.262,5.137,7.227,5.137,11.904c0,2.988-0.791,5.586-2.354,7.793
	c-1.563,2.207-3.936,3.906-7.129,5.107c3.955,1.289,6.953,3.359,9.015,6.23c2.069,2.861,3.096,6.289,3.096,10.264
	c0,5.498-1.943,10.117-5.83,13.857c-3.896,3.75-9.014,5.615-15.361,5.615c-6.338,0-11.455-1.875-15.352-5.635
	c-3.888-3.76-5.83-8.447-5.83-14.063c0-4.18,1.055-7.676,3.184-10.498C825.459,264.539,828.477,262.615,832.393,261.589
	L832.393,261.589z M828.271,277.908c0,2.256,0.526,4.434,1.602,6.533c1.064,2.109,2.656,3.74,4.756,4.893
	c2.082,1.146,4.421,1.741,6.797,1.729c3.779,0,6.896-1.211,9.347-3.633c2.461-2.432,3.69-5.518,3.69-9.258
	c0-3.799-1.27-6.943-3.799-9.434c-2.529-2.48-5.693-3.73-9.502-3.73c-3.711,0-6.787,1.23-9.229,3.691
	C829.492,271.15,828.271,274.226,828.271,277.908L828.271,277.908z M830.811,248.21c0,3.037,0.986,5.527,2.939,7.451
	c1.963,1.934,4.502,2.9,7.637,2.9c3.037,0,5.537-0.957,7.48-2.871s2.92-4.268,2.92-7.041c0-2.9-1.006-5.332-3.008-7.305
	c-2.002-1.973-4.502-2.959-7.48-2.959c-3.018,0-5.518,0.957-7.5,2.891C831.807,243.21,830.812,245.515,830.811,248.21
	L830.811,248.21z M800.02,386.306h-7.891v-50.313c-1.904,1.807-4.395,3.623-7.479,5.438c-3.086,1.808-5.859,3.175-8.312,4.072
	v-7.627c4.414-2.08,8.271-4.59,11.582-7.549c3.301-2.949,5.646-5.82,7.012-8.594h5.089L800.02,386.306L800.02,386.306z
	 M832.393,351.433c-3.271-1.2-5.702-2.909-7.284-5.137c-1.572-2.217-2.363-4.883-2.363-7.979c0-4.679,1.68-8.613,5.039-11.808
	c3.369-3.184,7.842-4.774,13.428-4.774c5.615,0,10.137,1.631,13.555,4.893s5.138,7.228,5.138,11.904
	c0,2.987-0.791,5.586-2.354,7.793c-1.563,2.207-3.936,3.906-7.129,5.106c3.955,1.289,6.953,3.359,9.014,6.23
	c2.07,2.861,3.097,6.289,3.097,10.264c0,5.498-1.943,10.117-5.83,13.857c-3.896,3.75-9.014,5.615-15.361,5.615
	c-6.338,0-11.455-1.875-15.352-5.636c-3.888-3.76-5.83-8.446-5.83-14.063c0-4.181,1.055-7.676,3.184-10.498
	C825.459,354.382,828.477,352.458,832.393,351.433z M828.271,367.751c0,2.256,0.526,4.434,1.602,6.533
	c1.064,2.108,2.656,3.74,4.756,4.893c2.082,1.146,4.421,1.74,6.797,1.729c3.779,0,6.896-1.211,9.346-3.633
	c2.462-2.433,3.691-5.519,3.691-9.259c0-3.799-1.27-6.942-3.799-9.434c-2.529-2.48-5.693-3.73-9.502-3.73
	c-3.711,0-6.787,1.23-9.229,3.691C829.492,360.994,828.271,364.07,828.271,367.751L828.271,367.751z M830.811,338.054
	c0,3.037,0.986,5.527,2.939,7.451c1.963,1.935,4.502,2.9,7.637,2.9c3.037,0,5.537-0.957,7.48-2.871
	c1.942-1.914,2.92-4.269,2.92-7.041c0-2.9-1.006-5.332-3.008-7.306c-2.002-1.973-4.502-2.959-7.48-2.959
	c-3.018,0-5.518,0.957-7.5,2.892C831.807,333.054,830.811,335.359,830.811,338.054L830.811,338.054z M820.254,444.421
	c0-7.598,0.781-13.721,2.344-18.359c1.563-4.629,3.888-8.202,6.974-10.723c3.086-2.51,6.973-3.77,11.649-3.77
	c3.447,0,6.476,0.692,9.082,2.08c2.599,1.387,4.746,3.397,6.445,6.016s3.027,5.801,3.994,9.561
	c0.967,3.761,1.445,8.828,1.445,15.195c0,7.549-0.771,13.644-2.324,18.266c-1.553,4.648-3.867,8.224-6.953,10.763
	c-3.086,2.52-6.982,3.789-11.689,3.789c-6.201,0-11.073-2.228-14.608-6.66C822.373,465.227,820.254,456.502,820.254,444.421
	L820.254,444.421z M828.369,444.421c0,10.557,1.229,17.583,3.701,21.079c2.471,3.496,5.526,5.234,9.149,5.234s6.67-1.738,9.15-5.254
	c2.471-3.517,3.701-10.531,3.701-21.06c0-10.586-1.23-17.617-3.701-21.094c-2.48-3.486-5.558-5.226-9.238-5.226
	c-3.623,0-6.522,1.533-8.682,4.609C829.727,426.628,828.369,433.865,828.369,444.421L828.369,444.421z"/>
</svg>
