<?xml version="1.0" encoding="utf-8"?>
<!-- Generator: Adobe Illustrator 16.0.3, SVG Export Plug-In . SVG Version: 6.00 Build 0)  -->
<!DOCTYPE svg PUBLIC "-//W3C//DTD SVG 1.1//EN" "http://www.w3.org/Graphics/SVG/1.1/DTD/svg11.dtd">
<svg version="1.1" id="Layer_1" xmlns="http://www.w3.org/2000/svg" xmlns:xlink="http://www.w3.org/1999/xlink" x="0px" y="0px"
	 width="900px" height="900px" viewBox="0 0 900 900" enable-background="new 0 0 900 900" xml:space="preserve">
<path d="M86.362,163.354v-26.982H37.466v-12.686l51.426-73.037H100.2v73.037h15.215v12.686H100.2v26.982H86.362z M86.362,123.687
	v-50.82l-35.293,50.82H86.362z M130.493,65.405V52.104h72.959v10.771c-7.178,7.637-14.287,17.783-21.338,30.439
	c-7.051,12.656-12.49,25.684-16.338,39.053c-2.764,9.434-4.531,19.766-5.303,30.986h-14.219c0.146-8.867,1.895-19.58,5.225-32.139
	s8.105-24.658,14.336-36.328c6.23-11.65,12.852-21.484,19.873-29.482h-55.195V65.405z M326.274,638.442l9.248-0.812
	c0.439,3.711,1.465,6.748,3.057,9.131c1.602,2.373,4.092,4.297,7.461,5.763c3.369,1.465,7.158,2.196,11.367,2.196
	c3.74,0,7.051-0.557,9.912-1.67c2.861-1.112,4.99-2.637,6.396-4.569c1.396-1.943,2.09-4.054,2.09-6.349
	c0-2.324-0.674-4.354-2.021-6.094c-1.348-1.729-3.564-3.193-6.67-4.365c-1.982-0.781-6.387-1.981-13.193-3.612
	c-6.807-1.642-11.572-3.185-14.297-4.63c-3.545-1.854-6.182-4.149-7.91-6.903c-1.738-2.744-2.607-5.82-2.607-9.22
	c0-3.739,1.064-7.235,3.184-10.487s5.225-5.724,9.297-7.402c4.082-1.688,8.613-2.528,13.604-2.528
	c5.488,0,10.332,0.879,14.531,2.655c4.189,1.769,7.422,4.365,9.678,7.804c2.256,3.438,3.467,7.334,3.643,11.68l-9.404,0.703
	c-0.508-4.679-2.217-8.224-5.127-10.615c-2.92-2.393-7.227-3.584-12.92-3.584c-5.928,0-10.254,1.084-12.959,3.262
	c-2.715,2.168-4.072,4.795-4.072,7.861c0,2.656,0.957,4.844,2.881,6.563c1.885,1.72,6.816,3.486,14.785,5.283
	c7.969,1.808,13.438,3.379,16.396,4.728c4.316,1.991,7.5,4.512,9.561,7.559c2.051,3.047,3.076,6.563,3.076,10.537
	c0,3.945-1.123,7.656-3.379,11.143c-2.266,3.496-5.508,6.201-9.736,8.146c-4.229,1.934-8.984,2.9-14.277,2.9
	c-6.709,0-12.324-0.978-16.855-2.931c-4.531-1.953-8.086-4.893-10.664-8.817C327.772,647.84,326.411,643.395,326.274,638.442
	L326.274,638.442z M397.544,598.618v-10.469h9.102v10.469H397.544z M397.544,662.251v-53.682h9.102v53.682H397.544z
	 M420.288,662.251v-74.102h9.102v74.102H420.288z M458.403,662.251l-20.421-53.682h9.601l11.522,32.147
	c1.277,3.564,2.424,7.173,3.438,10.82c0.812-2.832,1.934-6.24,3.389-10.215l11.925-32.754h9.354L466.89,662.25L458.403,662.251
	L458.403,662.251z M531.997,644.966l9.395,1.162c-1.483,5.488-4.229,9.756-8.231,12.783c-4.014,3.037-9.142,4.551-15.371,4.551
	c-7.852,0-14.072-2.412-18.672-7.256c-4.601-4.834-6.904-11.611-6.904-20.342c0-9.023,2.324-16.035,6.973-21.025
	c4.658-4.989,10.685-7.479,18.097-7.479c7.178,0,13.047,2.44,17.598,7.334c4.541,4.883,6.816,11.758,6.816,20.615
	c0,0.547-0.011,1.348-0.05,2.432h-40.028c0.332,5.897,2.002,10.41,5,13.545s6.737,4.697,11.221,4.697
	c3.34,0,6.183-0.869,8.545-2.627C528.745,651.606,530.61,648.804,531.997,644.966L531.997,644.966z M502.124,630.259h29.971
	c-0.41-4.521-1.553-7.899-3.438-10.166c-2.9-3.496-6.66-5.254-11.271-5.254c-4.18,0-7.694,1.396-10.537,4.199
	C503.999,621.831,502.427,625.571,502.124,630.259L502.124,630.259z M552.71,662.251v-53.682h8.193v8.145
	c2.09-3.809,4.014-6.317,5.78-7.539c1.777-1.211,3.722-1.815,5.841-1.815c3.065,0,6.182,0.977,9.354,2.93l-3.135,8.447
	c-2.228-1.318-4.453-1.974-6.67-1.974c-1.992,0-3.779,0.597-5.361,1.798c-1.582,1.19-2.715,2.852-3.389,4.971
	c-1.006,3.242-1.515,6.777-1.515,10.615v28.104H552.71L552.71,662.251z M96.479,848.091h-9.102v-57.979
	c-2.188,2.09-5.059,4.18-8.613,6.27c-3.554,2.09-6.748,3.662-9.58,4.707v-8.799c5.088-2.394,9.541-5.293,13.35-8.691
	c3.799-3.407,6.504-6.709,8.086-9.911h5.859V848.091z M119.78,811.548c0-8.76,0.898-15.811,2.705-21.151
	c1.797-5.343,4.482-9.464,8.037-12.363c3.555-2.892,8.027-4.346,13.418-4.346c3.975,0,7.461,0.801,10.459,2.401
	s5.479,3.906,7.432,6.924c1.953,3.019,3.486,6.689,4.6,11.017c1.113,4.336,1.67,10.176,1.67,17.52
	c0,8.691-0.889,15.713-2.676,21.055c-1.787,5.343-4.463,9.464-8.018,12.384c-3.555,2.909-8.047,4.364-13.467,4.364
	c-7.148,0-12.754-2.559-16.836-7.676C122.222,835.503,119.78,825.464,119.78,811.548L119.78,811.548z M129.126,811.548
	c0,12.168,1.426,20.264,4.277,24.287c2.842,4.023,6.357,6.035,10.537,6.035s7.695-2.021,10.537-6.064
	c2.852-4.043,4.268-12.129,4.268-24.258c0-12.197-1.416-20.303-4.268-24.315c-2.842-4.005-6.396-6.017-10.635-6.017
	c-4.18,0-7.52,1.777-10.01,5.313C130.698,791.04,129.126,799.38,129.126,811.548L129.126,811.548z M177.954,783.696v-8.74h47.969
	v7.07c-4.717,5.02-9.395,11.698-14.023,20.02c-4.639,8.32-8.213,16.885-10.742,25.674c-1.826,6.201-2.988,12.988-3.486,20.371
	h-9.355c0.098-5.83,1.25-12.871,3.438-21.123c2.188-8.262,5.332-16.221,9.424-23.887c4.102-7.666,8.457-14.131,13.066-19.385
	H177.954z M240.034,848.091v-10.36h10.361v10.36H240.034z M277.69,807.905c-3.779-1.377-6.572-3.351-8.398-5.908
	c-1.816-2.568-2.725-5.635-2.725-9.199c0-5.391,1.934-9.922,5.811-13.604c3.877-3.672,9.033-5.509,15.469-5.509
	c6.465,0,11.68,1.886,15.615,5.636c3.945,3.76,5.918,8.34,5.918,13.729c0,3.438-0.898,6.426-2.705,8.965
	c-1.807,2.55-4.541,4.513-8.213,5.89c4.551,1.483,8.008,3.877,10.391,7.178c2.373,3.301,3.555,7.246,3.555,11.826
	c0,6.338-2.236,11.66-6.719,15.977c-4.483,4.317-10.381,6.465-17.686,6.465c-7.314,0-13.213-2.157-17.695-6.493
	c-4.482-4.326-6.719-9.728-6.719-16.201c0-4.814,1.221-8.849,3.662-12.101S273.169,809.087,277.69,807.905L277.69,807.905z
	 M272.935,826.714c0,2.588,0.615,5.099,1.846,7.529c1.23,2.422,3.057,4.307,5.488,5.635c2.422,1.328,5.029,1.992,7.832,1.992
	c4.346,0,7.93-1.396,10.762-4.189c2.832-2.803,4.248-6.356,4.248-10.664c0-4.385-1.455-8.008-4.375-10.868
	c-2.91-2.861-6.563-4.298-10.938-4.298c-4.277,0-7.832,1.416-10.645,4.248S272.935,822.466,272.935,826.714L272.935,826.714z
	 M275.864,792.495c0,3.506,1.133,6.367,3.389,8.594c2.256,2.217,5.186,3.33,8.799,3.33c3.506,0,6.377-1.104,8.613-3.311
	c2.246-2.207,3.359-4.912,3.359-8.115c0-3.33-1.152-6.133-3.457-8.408c-2.314-2.274-5.186-3.418-8.623-3.418
	c-3.467,0-6.348,1.113-8.643,3.34C277.017,786.733,275.864,789.39,275.864,792.495L275.864,792.495z M321.86,783.696v-8.74h47.969
	v7.07c-4.717,5.02-9.395,11.698-14.023,20.02c-4.639,8.32-8.213,16.885-10.742,25.674c-1.826,6.201-2.988,12.988-3.486,20.371
	h-9.355c0.098-5.83,1.25-12.871,3.438-21.123c2.188-8.262,5.332-16.221,9.424-23.887c4.102-7.666,8.457-14.131,13.066-19.385H321.86
	z M458.745,449.771H418.14l-16.143-41.992h-73.906l-15.264,41.992h-39.6l72.012-184.894h39.473L458.745,449.771z M390.015,376.626
	l-25.479-68.613l-24.971,68.613H390.015z M475.015,458.599l40.479,4.923c0.674,4.707,2.227,7.938,4.668,9.707
	c3.359,2.52,8.662,3.788,15.889,3.788c9.248,0,16.183-1.396,20.812-4.17c3.114-1.846,5.469-4.834,7.061-8.955
	c1.094-2.938,1.641-8.358,1.641-16.27v-19.541c-10.596,14.463-23.965,21.689-40.106,21.689c-17.988,0-32.236-7.607-42.754-22.832
	c-8.232-12.021-12.354-26.982-12.354-44.894c0-22.451,5.4-39.6,16.201-51.455c10.812-11.854,24.238-17.783,40.293-17.783
	c16.563,0,30.226,7.275,40.996,21.816v-18.789h33.164V436.02c0,15.812-1.299,27.628-3.906,35.439
	c-2.606,7.822-6.27,13.955-10.977,18.418c-4.707,4.453-10.996,7.939-18.849,10.469c-7.871,2.521-17.813,3.779-29.834,3.779
	c-22.694,0-38.799-3.887-48.301-11.66c-9.502-7.783-14.248-17.637-14.248-29.58C474.894,461.455,474.936,460.026,475.015,458.599
	L475.015,458.599z M506.665,380.024c0,14.209,2.754,24.618,8.262,31.221c5.509,6.602,12.295,9.893,20.371,9.893
	c8.652,0,15.967-3.379,21.943-10.146c5.967-6.769,8.955-16.797,8.955-30.078c0-13.877-2.861-24.17-8.574-30.898
	c-5.723-6.729-12.949-10.088-21.699-10.088c-8.485,0-15.487,3.302-20.996,9.894C509.419,356.421,506.665,366.489,506.665,380.024
	L506.665,380.024z M861.743,108.97v7.588h-42.5c-0.068-1.904,0.244-3.73,0.918-5.479c1.084-2.9,2.813-5.752,5.195-8.555
	c2.383-2.813,5.829-6.055,10.331-9.746c6.992-5.732,11.709-10.264,14.171-13.613c2.45-3.35,3.682-6.514,3.682-9.502
	c0-3.125-1.113-5.771-3.35-7.92c-2.246-2.148-5.156-3.223-8.761-3.223c-3.799,0-6.836,1.143-9.121,3.428
	c-2.274,2.275-3.438,5.439-3.467,9.473l-8.115-0.84c0.558-6.045,2.646-10.664,6.279-13.838c3.623-3.174,8.486-4.756,14.601-4.756
	c6.172,0,11.055,1.709,14.657,5.127c3.595,3.428,5.392,7.666,5.392,12.725c0,2.578-0.527,5.107-1.572,7.588
	c-1.055,2.49-2.803,5.107-5.244,7.852c-2.44,2.754-6.504,6.523-12.178,11.318c-4.736,3.975-7.773,6.68-9.121,8.096
	s-2.461,2.842-3.34,4.277H861.743L861.743,108.97z M832.396,171.528c-3.271-1.201-5.702-2.91-7.284-5.137
	c-1.572-2.217-2.363-4.883-2.363-7.979c0-4.678,1.68-8.613,5.039-11.807c3.369-3.184,7.842-4.775,13.428-4.775
	c5.615,0,10.138,1.631,13.556,4.893c3.418,3.262,5.137,7.227,5.137,11.904c0,2.988-0.791,5.586-2.354,7.793
	c-1.563,2.207-3.936,3.906-7.129,5.107c3.955,1.289,6.953,3.359,9.015,6.23c2.069,2.861,3.096,6.289,3.096,10.264
	c0,5.498-1.943,10.117-5.83,13.857c-3.896,3.75-9.014,5.615-15.361,5.615c-6.338,0-11.455-1.875-15.352-5.635
	c-3.888-3.76-5.83-8.447-5.83-14.063c0-4.18,1.055-7.676,3.184-10.498C825.464,174.478,828.48,172.554,832.396,171.528z
	 M828.276,187.847c0,2.256,0.526,4.434,1.602,6.533c1.064,2.109,2.656,3.74,4.756,4.893c2.082,1.146,4.421,1.741,6.797,1.729
	c3.779,0,6.896-1.211,9.347-3.633c2.461-2.432,3.69-5.518,3.69-9.258c0-3.799-1.27-6.943-3.799-9.434
	c-2.529-2.479-5.693-3.729-9.502-3.729c-3.711,0-6.787,1.229-9.229,3.691C829.497,181.089,828.276,184.165,828.276,187.847
	L828.276,187.847z M830.815,158.149c0,3.037,0.985,5.527,2.938,7.451c1.963,1.934,4.502,2.9,7.637,2.9
	c3.037,0,5.537-0.957,7.48-2.871s2.92-4.268,2.92-7.041c0-2.9-1.006-5.332-3.008-7.305c-2.002-1.973-4.502-2.959-7.48-2.959
	c-3.018,0-5.518,0.957-7.5,2.891C831.813,153.149,830.815,155.454,830.815,158.149L830.815,158.149z M800.015,296.235h-7.891
	v-50.313c-1.904,1.807-4.396,3.623-7.479,5.439c-3.087,1.807-5.859,3.174-8.312,4.072v-7.627c4.414-2.08,8.271-4.59,11.582-7.549
	c3.301-2.949,5.646-5.82,7.012-8.594h5.088V296.235L800.015,296.235z M832.388,261.362c-3.271-1.201-5.703-2.91-7.284-5.137
	c-1.572-2.217-2.363-4.883-2.363-7.979c0-4.678,1.68-8.613,5.039-11.807c3.369-3.184,7.842-4.775,13.428-4.775
	c5.615,0,10.137,1.631,13.555,4.893c3.418,3.262,5.138,7.227,5.138,11.904c0,2.988-0.791,5.586-2.354,7.793
	c-1.563,2.207-3.936,3.906-7.129,5.107c3.955,1.289,6.953,3.359,9.014,6.23c2.07,2.861,3.097,6.289,3.097,10.264
	c0,5.498-1.943,10.117-5.83,13.857c-3.896,3.75-9.015,5.615-15.361,5.615c-6.338,0-11.455-1.875-15.352-5.635
	c-3.888-3.76-5.83-8.447-5.83-14.063c0-4.18,1.055-7.676,3.184-10.498C825.454,264.312,828.472,262.388,832.388,261.362
	L832.388,261.362z M828.267,277.681c0,2.256,0.527,4.434,1.603,6.533c1.063,2.109,2.656,3.74,4.756,4.893
	c2.082,1.146,4.421,1.741,6.797,1.729c3.779,0,6.896-1.211,9.346-3.633c2.461-2.432,3.691-5.518,3.691-9.258
	c0-3.799-1.27-6.943-3.799-9.434c-2.529-2.48-5.693-3.73-9.502-3.73c-3.711,0-6.787,1.23-9.229,3.691
	C829.487,270.923,828.267,273.999,828.267,277.681L828.267,277.681z M830.806,247.983c0,3.037,0.986,5.527,2.939,7.451
	c1.963,1.934,4.502,2.9,7.637,2.9c3.037,0,5.537-0.957,7.48-2.871c1.942-1.914,2.92-4.268,2.92-7.041c0-2.9-1.006-5.332-3.008-7.305
	c-2.002-1.973-4.502-2.959-7.48-2.959c-3.018,0-5.518,0.957-7.5,2.891C831.802,242.983,830.806,245.288,830.806,247.983
	L830.806,247.983z M800.015,386.079h-7.891v-50.313c-1.904,1.808-4.396,3.623-7.479,5.439c-3.087,1.807-5.859,3.174-8.312,4.072
	v-7.627c4.414-2.08,8.271-4.591,11.582-7.55c3.301-2.948,5.646-5.819,7.012-8.594h5.088V386.079L800.015,386.079z M832.388,351.206
	c-3.271-1.201-5.703-2.91-7.284-5.137c-1.572-2.218-2.363-4.884-2.363-7.979c0-4.678,1.68-8.613,5.039-11.807
	c3.369-3.185,7.842-4.775,13.428-4.775c5.615,0,10.137,1.631,13.555,4.894c3.418,3.262,5.138,7.227,5.138,11.903
	c0,2.988-0.791,5.586-2.354,7.793c-1.563,2.207-3.936,3.906-7.129,5.107c3.955,1.289,6.953,3.359,9.014,6.229
	c2.07,2.861,3.097,6.289,3.097,10.265c0,5.498-1.943,10.117-5.83,13.856c-3.896,3.75-9.015,5.615-15.361,5.615
	c-6.338,0-11.455-1.875-15.352-5.635c-3.888-3.76-5.83-8.447-5.83-14.063c0-4.18,1.055-7.676,3.184-10.498
	C825.454,354.155,828.472,352.231,832.388,351.206z M828.267,367.524c0,2.256,0.527,4.434,1.603,6.532
	c1.063,2.109,2.656,3.74,4.756,4.894c2.082,1.146,4.421,1.74,6.797,1.729c3.779,0,6.896-1.211,9.346-3.633
	c2.461-2.432,3.691-5.518,3.691-9.258c0-3.799-1.27-6.943-3.799-9.435c-2.529-2.479-5.693-3.729-9.502-3.729
	c-3.711,0-6.787,1.229-9.229,3.691C829.487,360.767,828.267,363.843,828.267,367.524L828.267,367.524z M830.806,337.827
	c0,3.037,0.986,5.526,2.939,7.451c1.963,1.934,4.502,2.899,7.637,2.899c3.037,0,5.537-0.957,7.48-2.871
	c1.942-1.914,2.92-4.268,2.92-7.041c0-2.899-1.006-5.332-3.008-7.305s-4.502-2.959-7.48-2.959c-3.018,0-5.518,0.957-7.5,2.891
	C831.802,332.827,830.806,335.132,830.806,337.827L830.806,337.827z M849.985,475.913h-7.892V425.6
	c-1.903,1.808-4.395,3.623-7.479,5.439c-3.086,1.807-5.859,3.174-8.312,4.072v-7.627c4.414-2.08,8.271-4.591,11.582-7.55
	c3.302-2.948,5.646-5.819,7.013-8.594h5.088V475.913L849.985,475.913z"/>
</svg>
