<?xml version="1.0" encoding="utf-8"?>
<!-- Generator: Adobe Illustrator 16.0.3, SVG Export Plug-In . SVG Version: 6.00 Build 0)  -->
<!DOCTYPE svg PUBLIC "-//W3C//DTD SVG 1.1//EN" "http://www.w3.org/Graphics/SVG/1.1/DTD/svg11.dtd">
<svg version="1.1" id="Layer_1" xmlns="http://www.w3.org/2000/svg" xmlns:xlink="http://www.w3.org/1999/xlink" x="0px" y="0px"
	 width="900px" height="900px" viewBox="0 0 900 900" enable-background="new 0 0 900 900" xml:space="preserve">
<path d="M86.362,164.209v-26.982H37.466v-12.686l51.426-73.037H100.2v73.037h15.215v12.686H100.2v26.982H86.362z M86.362,124.541
	v-50.82l-35.293,50.82H86.362z M150.864,103.086c-5.742-2.1-10-5.098-12.764-8.994c-2.764-3.896-4.15-8.555-4.15-13.994
	c0-8.193,2.949-15.088,8.838-20.674c5.898-5.586,13.74-8.379,23.525-8.379c9.844,0,17.764,2.852,23.76,8.564
	c5.996,5.723,8.994,12.676,8.994,20.879c0,5.225-1.377,9.775-4.111,13.643c-2.744,3.867-6.914,6.855-12.5,8.955
	c6.924,2.256,12.188,5.898,15.801,10.918c3.613,5.029,5.42,11.025,5.42,17.988c0,9.639-3.408,17.734-10.225,24.297
	c-6.817,6.563-15.781,9.844-26.904,9.844s-20.098-3.291-26.914-9.883c-6.816-6.582-10.225-14.795-10.225-24.639
	c0-7.324,1.865-13.467,5.576-18.408C138.706,108.252,143.999,104.883,150.864,103.086L150.864,103.086z M143.638,131.689
	c0,3.945,0.938,7.764,2.803,11.455c1.875,3.691,4.648,6.543,8.34,8.574c3.691,2.021,7.666,3.037,11.924,3.037
	c6.611,0,12.07-2.129,16.367-6.387c4.307-4.248,6.465-9.658,6.465-16.221c0-6.66-2.217-12.168-6.65-16.523
	c-4.433-4.355-9.98-6.543-16.65-6.543c-6.504,0-11.904,2.158-16.182,6.465C145.777,119.853,143.638,125.234,143.638,131.689
	L143.638,131.689z M148.091,79.639c0,5.332,1.719,9.688,5.156,13.076c3.428,3.379,7.891,5.068,13.379,5.068
	c5.332,0,9.697-1.68,13.105-5.039c3.408-3.35,5.117-7.461,5.117-12.334c0-5.078-1.758-9.346-5.273-12.803
	c-3.506-3.457-7.881-5.186-13.105-5.186c-5.283,0-9.658,1.689-13.145,5.068C149.839,70.879,148.091,74.922,148.091,79.639
	L148.091,79.639z M290.366,637.139l9.805,2.472c-2.061,8.057-5.752,14.198-11.094,18.428c-5.342,4.229-11.875,6.338-19.59,6.338
	c-7.988,0-14.482-1.621-19.482-4.873c-5.01-3.252-8.818-7.959-11.426-14.131c-2.607-6.162-3.916-12.783-3.916-19.863
	c0-7.715,1.475-14.442,4.424-20.194c2.949-5.742,7.139-10.107,12.588-13.086c5.439-2.979,11.426-4.474,17.969-4.474
	c7.412,0,13.643,1.885,18.701,5.664c5.049,3.771,8.574,9.082,10.557,15.918l-9.648,2.275c-1.719-5.392-4.219-9.316-7.48-11.777
	c-3.271-2.461-7.383-3.69-12.334-3.69c-5.693,0-10.459,1.366-14.277,4.092c-3.828,2.733-6.514,6.396-8.066,10.996
	c-1.552,4.6-2.324,9.346-2.324,14.229c0,6.299,0.918,11.807,2.754,16.504s4.697,8.213,8.564,10.537
	c3.877,2.324,8.076,3.486,12.588,3.486c5.498,0,10.146-1.582,13.955-4.746C286.44,648.066,289.019,643.369,290.366,637.139
	L290.366,637.139z M346.118,656.494c-3.379,2.861-6.621,4.883-9.736,6.063c-3.115,1.182-6.455,1.769-10.029,1.769
	c-5.898,0-10.43-1.437-13.594-4.316c-3.174-2.881-4.756-6.563-4.756-11.045c0-2.627,0.596-5.029,1.797-7.207
	c1.191-2.168,2.764-3.916,4.697-5.225c1.934-1.318,4.121-2.314,6.543-2.988c1.787-0.469,4.482-0.928,8.086-1.367
	c7.354-0.869,12.754-1.914,16.23-3.125c0.029-1.25,0.049-2.041,0.049-2.383c0-3.701-0.859-6.317-2.578-7.832
	c-2.324-2.051-5.781-3.086-10.361-3.086c-4.277,0-7.441,0.752-9.473,2.256c-2.041,1.494-3.555,4.15-4.531,7.959l-8.896-1.211
	c0.811-3.809,2.148-6.885,3.994-9.229c1.855-2.344,4.531-4.142,8.037-5.41c3.506-1.26,7.568-1.896,12.188-1.896
	c4.58,0,8.301,0.537,11.172,1.621c2.861,1.074,4.961,2.433,6.309,4.063c1.348,1.641,2.295,3.701,2.832,6.19
	c0.303,1.554,0.459,4.355,0.459,8.398v12.129c0,8.457,0.195,13.81,0.576,16.045c0.398,2.264,1.178,4.442,2.305,6.445h-9.502
	C346.987,661.23,346.382,659.023,346.118,656.494L346.118,656.494z M345.356,636.172c-3.301,1.348-8.262,2.5-14.863,3.438
	c-3.74,0.536-6.387,1.151-7.93,1.825c-1.553,0.675-2.754,1.66-3.594,2.949c-0.84,1.299-1.26,2.744-1.26,4.326
	c0,2.422,0.918,4.443,2.754,6.064c1.836,1.62,4.521,2.422,8.057,2.422c3.506,0,6.621-0.763,9.355-2.295
	c2.725-1.533,4.736-3.634,6.016-6.289c0.977-2.062,1.465-5.088,1.465-9.103V636.172z M403.481,663.115v-6.777
	c-3.408,5.332-8.408,7.988-15.01,7.988c-4.287,0-8.213-1.183-11.807-3.535c-3.584-2.363-6.367-5.654-8.34-9.883
	c-1.973-4.229-2.959-9.092-2.959-14.58c0-5.361,0.898-10.215,2.686-14.58c1.777-4.365,4.463-7.715,8.037-10.039
	c3.564-2.324,7.559-3.486,11.973-3.486c3.232,0,6.123,0.685,8.643,2.051c2.529,1.357,4.59,3.136,6.172,5.332v-26.592h9.043v74.103
	L403.481,663.115L403.481,663.115z M374.722,636.328c0,6.875,1.445,12.012,4.346,15.41c2.9,3.407,6.318,5.106,10.264,5.106
	c3.975,0,7.354-1.621,10.127-4.873c2.783-3.252,4.17-8.213,4.17-14.893c0-7.344-1.416-12.734-4.238-16.172
	c-2.832-3.438-6.317-5.156-10.469-5.156c-4.043,0-7.422,1.65-10.137,4.961C376.079,624.014,374.722,629.219,374.722,636.328
	L374.722,636.328z M426.226,663.115v-53.683h8.136v7.529c1.688-2.627,3.926-4.736,6.719-6.338c2.803-1.603,5.986-2.402,9.561-2.402
	c3.976,0,7.236,0.83,9.775,2.48c2.549,1.649,4.336,3.955,5.381,6.924c4.248-6.271,9.775-9.404,16.582-9.404
	c5.322,0,9.414,1.476,12.285,4.424c2.861,2.949,4.297,7.49,4.297,13.623v36.847h-9.053v-33.818c0-3.633-0.293-6.26-0.879-7.852
	c-0.597-1.603-1.66-2.892-3.213-3.867c-1.554-0.977-3.369-1.465-5.459-1.465c-3.771,0-6.904,1.25-9.404,3.76
	c-2.49,2.51-3.74,6.533-3.74,12.061v31.183h-9.092v-34.873c0-4.043-0.742-7.08-2.228-9.103c-1.484-2.021-3.905-3.026-7.274-3.026
	c-2.568,0-4.932,0.674-7.109,2.021c-2.168,1.349-3.74,3.312-4.727,5.908c-0.978,2.598-1.465,6.338-1.465,11.221v27.853
	L426.226,663.115L426.226,663.115z M512.505,599.482v-10.47h9.103v10.47H512.505z M512.505,663.115v-53.683h9.103v53.683H512.505z
	 M570.63,663.115v-7.881c-4.18,6.063-9.854,9.092-17.031,9.092c-3.174,0-6.123-0.605-8.877-1.816
	c-2.744-1.211-4.784-2.733-6.112-4.58c-1.328-1.836-2.267-4.082-2.804-6.737c-0.37-1.787-0.557-4.619-0.557-8.496v-33.263h9.102
	v29.775c0,4.746,0.187,7.949,0.558,9.6c0.565,2.394,1.776,4.277,3.633,5.636c1.855,1.366,4.15,2.051,6.875,2.051
	c2.734,0,5.293-0.703,7.686-2.101c2.394-1.396,4.082-3.301,5.078-5.713c0.996-2.401,1.494-5.897,1.494-10.487v-28.761h9.092v53.683
	L570.63,663.115L570.63,663.115z M593.032,663.115v-53.683h8.135v7.529c1.689-2.627,3.926-4.736,6.719-6.338
	c2.804-1.603,5.986-2.402,9.562-2.402c3.975,0,7.235,0.83,9.774,2.48c2.55,1.649,4.336,3.955,5.381,6.924
	c4.248-6.271,9.775-9.404,16.582-9.404c5.322,0,9.414,1.476,12.285,4.424c2.861,2.949,4.297,7.49,4.297,13.623v36.847h-9.053
	v-33.818c0-3.633-0.293-6.26-0.879-7.852c-0.596-1.603-1.66-2.892-3.213-3.867c-1.554-0.977-3.369-1.465-5.459-1.465
	c-3.771,0-6.904,1.25-9.404,3.76c-2.49,2.51-3.74,6.533-3.74,12.061v31.183h-9.092v-34.873c0-4.043-0.742-7.08-2.227-9.103
	c-1.485-2.021-3.906-3.026-7.275-3.026c-2.567,0-4.932,0.674-7.108,2.021c-2.169,1.349-3.74,3.312-4.728,5.908
	c-0.977,2.598-1.465,6.338-1.465,11.221v27.853L593.032,663.115L593.032,663.115z M96.489,848.955h-9.102v-57.979
	c-2.188,2.091-5.059,4.181-8.613,6.271c-3.554,2.09-6.748,3.662-9.58,4.707v-8.799c5.088-2.394,9.541-5.293,13.35-8.691
	c3.799-3.408,6.504-6.709,8.086-9.912h5.859V848.955z M146.372,848.955h-9.102v-57.979c-2.188,2.091-5.059,4.181-8.613,6.271
	c-3.554,2.09-6.748,3.662-9.58,4.707v-8.799c5.088-2.394,9.541-5.293,13.35-8.691c3.799-3.408,6.504-6.709,8.086-9.912h5.859
	V848.955L146.372,848.955z M217.495,840.215v8.74H168.52c-0.076-2.156,0.287-4.306,1.064-6.318c1.24-3.34,3.242-6.621,5.986-9.854
	c2.744-3.242,6.709-6.982,11.904-11.221c8.047-6.611,13.496-11.837,16.328-15.693c2.822-3.857,4.238-7.51,4.238-10.947
	c0-3.604-1.289-6.65-3.867-9.121c-2.578-2.479-5.938-3.721-10.078-3.721c-4.385,0-7.891,1.318-10.518,3.945
	s-3.955,6.27-3.994,10.918l-9.346-0.957c0.635-6.974,3.047-12.295,7.227-15.947c4.18-3.662,9.785-5.488,16.836-5.488
	c7.109,0,12.734,1.974,16.875,5.918c4.15,3.945,6.221,8.828,6.221,14.658c0,2.959-0.605,5.879-1.816,8.74
	c-1.221,2.871-3.232,5.879-6.045,9.053c-2.813,3.164-7.49,7.51-14.023,13.037c-5.459,4.58-8.965,7.695-10.518,9.326
	c-1.553,1.631-2.832,3.281-3.838,4.932H217.495L217.495,840.215z M232.358,848.955v-10.361h10.361v10.361H232.358z M285.171,848.955
	v-17.744h-32.139v-8.34l33.809-48.019h7.432v48.019h10.01v8.34h-10.01v17.744H285.171z M285.171,822.871v-33.408l-23.193,33.408
	H285.171z M347.847,848.955h-9.102v-57.979c-2.188,2.091-5.059,4.181-8.613,6.271c-3.554,2.09-6.748,3.662-9.58,4.707v-8.799
	c5.088-2.394,9.541-5.293,13.35-8.691c3.799-3.408,6.504-6.709,8.086-9.912h5.859V848.955L347.847,848.955z M410.317,382.656
	l36.19,11.475c-5.547,20.187-14.774,35.166-27.676,44.961c-12.91,9.795-29.287,14.697-49.121,14.697
	c-24.561,0-44.736-8.389-60.537-25.166c-15.811-16.768-23.711-39.697-23.711-68.789c0-30.771,7.939-54.678,23.838-71.699
	c15.889-17.031,36.777-25.537,62.676-25.537c22.617,0,40.986,6.68,55.117,20.049c8.398,7.9,14.707,19.258,18.916,34.053
	l-36.953,8.828c-2.188-9.59-6.748-17.148-13.682-22.705c-6.943-5.547-15.371-8.32-25.293-8.32c-13.701,0-24.824,4.922-33.359,14.756
	c-8.535,9.834-12.793,25.771-12.793,47.804c0,23.368,4.199,40.02,12.607,49.94c8.408,9.921,19.336,14.883,32.793,14.883
	c9.922,0,18.457-3.153,25.596-9.463C402.075,406.113,407.202,396.191,410.317,382.656L410.317,382.656z M601.128,450.635h-32.92
	v-19.678c-5.459,7.656-11.914,13.35-19.354,17.09c-7.441,3.74-14.941,5.615-22.511,5.615c-15.391,0-28.563-6.201-39.541-18.604
	c-10.967-12.401-16.455-29.696-16.455-51.895c0-22.705,5.332-39.961,16.017-51.777c10.674-11.807,24.17-17.715,40.479-17.715
	c14.971,0,27.92,6.221,38.849,18.662v-66.592h35.438L601.128,450.635L601.128,450.635z M506.538,380.762
	c0,14.297,1.973,24.64,5.928,31.025c5.724,9.258,13.701,13.877,23.965,13.877c8.154,0,15.089-3.467,20.812-10.4
	c5.713-6.942,8.574-17.305,8.574-31.094c0-15.381-2.773-26.465-8.32-33.231c-5.557-6.769-12.656-10.146-21.318-10.146
	c-8.408,0-15.449,3.34-21.123,10.021C509.38,357.5,506.538,367.48,506.538,380.762L506.538,380.762z M861.743,109.834v7.588h-42.5
	c-0.068-1.904,0.244-3.73,0.918-5.479c1.084-2.9,2.813-5.752,5.195-8.555c2.383-2.813,5.829-6.055,10.331-9.746
	c6.992-5.732,11.709-10.264,14.171-13.613c2.45-3.35,3.682-6.514,3.682-9.502c0-3.125-1.113-5.771-3.35-7.92
	c-2.246-2.148-5.156-3.223-8.761-3.223c-3.799,0-6.836,1.143-9.121,3.428c-2.274,2.275-3.438,5.439-3.467,9.473l-8.115-0.84
	c0.558-6.045,2.646-10.664,6.279-13.838c3.623-3.174,8.486-4.756,14.601-4.756c6.172,0,11.055,1.709,14.657,5.127
	c3.595,3.428,5.392,7.666,5.392,12.725c0,2.578-0.527,5.107-1.572,7.588c-1.055,2.49-2.803,5.107-5.244,7.852
	c-2.44,2.754-6.504,6.523-12.178,11.318c-4.736,3.975-7.773,6.68-9.121,8.096s-2.461,2.842-3.34,4.277H861.743L861.743,109.834z
	 M832.396,172.393c-3.271-1.201-5.702-2.91-7.284-5.137c-1.572-2.217-2.363-4.883-2.363-7.979c0-4.678,1.68-8.613,5.039-11.807
	c3.369-3.184,7.842-4.775,13.428-4.775c5.615,0,10.138,1.631,13.556,4.893c3.418,3.262,5.137,7.227,5.137,11.904
	c0,2.988-0.791,5.586-2.354,7.793c-1.563,2.207-3.936,3.906-7.129,5.107c3.955,1.289,6.953,3.359,9.015,6.23
	c2.069,2.861,3.096,6.289,3.096,10.264c0,5.498-1.943,10.117-5.83,13.857c-3.896,3.75-9.014,5.615-15.361,5.615
	c-6.338,0-11.455-1.875-15.352-5.635c-3.888-3.76-5.83-8.447-5.83-14.063c0-4.18,1.055-7.676,3.184-10.498
	C825.464,175.342,828.48,173.418,832.396,172.393z M828.276,188.711c0,2.256,0.526,4.434,1.602,6.533
	c1.064,2.109,2.656,3.74,4.756,4.893c2.082,1.145,4.421,1.74,6.797,1.729c3.779,0,6.896-1.211,9.347-3.633
	c2.461-2.432,3.69-5.518,3.69-9.258c0-3.799-1.27-6.943-3.799-9.434c-2.529-2.48-5.693-3.73-9.502-3.73
	c-3.711,0-6.787,1.23-9.229,3.691C829.497,181.953,828.276,185.029,828.276,188.711L828.276,188.711z M830.815,159.014
	c0,3.037,0.985,5.527,2.938,7.451c1.963,1.934,4.502,2.9,7.637,2.9c3.037,0,5.537-0.957,7.48-2.871s2.92-4.268,2.92-7.041
	c0-2.9-1.006-5.332-3.008-7.305s-4.502-2.959-7.48-2.959c-3.018,0-5.518,0.957-7.5,2.891
	C831.813,154.014,830.815,156.318,830.815,159.014L830.815,159.014z M800.015,297.1h-7.891v-50.313
	c-1.904,1.807-4.396,3.623-7.479,5.439c-3.087,1.807-5.859,3.174-8.312,4.072v-7.627c4.414-2.08,8.271-4.59,11.582-7.549
	c3.301-2.949,5.646-5.82,7.012-8.594h5.088V297.1L800.015,297.1z M832.388,262.227c-3.271-1.201-5.703-2.91-7.284-5.137
	c-1.572-2.217-2.363-4.883-2.363-7.979c0-4.678,1.68-8.613,5.039-11.807c3.369-3.184,7.842-4.775,13.428-4.775
	c5.615,0,10.137,1.631,13.555,4.893c3.418,3.262,5.138,7.227,5.138,11.904c0,2.988-0.791,5.586-2.354,7.793
	c-1.563,2.207-3.936,3.906-7.129,5.107c3.955,1.289,6.953,3.359,9.014,6.23c2.07,2.861,3.097,6.289,3.097,10.264
	c0,5.498-1.943,10.117-5.83,13.857c-3.896,3.75-9.015,5.615-15.361,5.615c-6.338,0-11.455-1.875-15.352-5.635
	c-3.888-3.76-5.83-8.447-5.83-14.063c0-4.18,1.055-7.676,3.184-10.498C825.454,265.176,828.472,263.252,832.388,262.227
	L832.388,262.227z M828.267,278.545c0,2.256,0.527,4.434,1.603,6.533c1.063,2.109,2.656,3.74,4.756,4.893
	c2.082,1.145,4.421,1.74,6.797,1.729c3.779,0,6.896-1.211,9.346-3.633c2.461-2.432,3.691-5.518,3.691-9.258
	c0-3.799-1.27-6.943-3.799-9.434c-2.529-2.48-5.693-3.73-9.502-3.73c-3.711,0-6.787,1.23-9.229,3.691
	C829.487,271.787,828.267,274.863,828.267,278.545L828.267,278.545z M830.806,248.848c0,3.037,0.986,5.527,2.939,7.451
	c1.963,1.934,4.502,2.9,7.637,2.9c3.037,0,5.537-0.957,7.48-2.871c1.942-1.914,2.92-4.268,2.92-7.041c0-2.9-1.006-5.332-3.008-7.305
	s-4.502-2.959-7.48-2.959c-3.018,0-5.518,0.957-7.5,2.891C831.802,243.848,830.806,246.152,830.806,248.848L830.806,248.848z
	 M800.015,386.943h-7.891V336.63c-1.904,1.808-4.396,3.623-7.479,5.439c-3.087,1.807-5.859,3.174-8.312,4.071v-7.627
	c4.414-2.08,8.271-4.59,11.582-7.549c3.301-2.949,5.646-5.82,7.012-8.594h5.088V386.943L800.015,386.943z M832.388,352.07
	c-3.271-1.201-5.703-2.91-7.284-5.138c-1.572-2.217-2.363-4.883-2.363-7.979c0-4.678,1.68-8.613,5.039-11.807
	c3.369-3.185,7.842-4.775,13.428-4.775c5.615,0,10.137,1.631,13.555,4.893c3.418,3.263,5.138,7.228,5.138,11.904
	c0,2.988-0.791,5.586-2.354,7.793c-1.563,2.207-3.936,3.906-7.129,5.107c3.955,1.289,6.953,3.358,9.014,6.229
	c2.07,2.861,3.097,6.289,3.097,10.265c0,5.497-1.943,10.116-5.83,13.856c-3.896,3.75-9.015,5.615-15.361,5.615
	c-6.338,0-11.455-1.875-15.352-5.635c-3.888-3.761-5.83-8.447-5.83-14.063c0-4.18,1.055-7.676,3.184-10.498
	C825.454,355.02,828.472,353.096,832.388,352.07z M828.267,368.389c0,2.256,0.527,4.435,1.603,6.533
	c1.063,2.109,2.656,3.74,4.756,4.894c2.082,1.145,4.421,1.74,6.797,1.729c3.779,0,6.896-1.211,9.346-3.633
	c2.461-2.433,3.691-5.519,3.691-9.258c0-3.8-1.27-6.943-3.799-9.435c-2.529-2.479-5.693-3.729-9.502-3.729
	c-3.711,0-6.787,1.229-9.229,3.69C829.487,361.631,828.267,364.707,828.267,368.389L828.267,368.389z M830.806,338.691
	c0,3.036,0.986,5.526,2.939,7.45c1.963,1.935,4.502,2.9,7.637,2.9c3.037,0,5.537-0.957,7.48-2.871
	c1.942-1.914,2.92-4.268,2.92-7.041c0-2.899-1.006-5.332-3.008-7.305c-2.002-1.974-4.502-2.959-7.48-2.959
	c-3.018,0-5.518,0.957-7.5,2.891C831.802,333.691,830.806,335.996,830.806,338.691L830.806,338.691z M861.743,469.189v7.588h-42.5
	c-0.068-1.904,0.244-3.73,0.918-5.479c1.084-2.899,2.813-5.752,5.195-8.555c2.383-2.813,5.83-6.055,10.332-9.746
	c6.991-5.732,11.709-10.264,14.17-13.613c2.45-3.35,3.682-6.514,3.682-9.502c0-3.125-1.113-5.771-3.35-7.92
	c-2.246-2.147-5.156-3.223-8.761-3.223c-3.799,0-6.836,1.143-9.121,3.428c-2.274,2.275-3.438,5.439-3.467,9.473l-8.114-0.84
	c0.557-6.045,2.646-10.664,6.278-13.838c3.623-3.174,8.486-4.756,14.601-4.756c6.172,0,11.055,1.709,14.657,5.127
	c3.595,3.428,5.392,7.666,5.392,12.725c0,2.578-0.527,5.107-1.572,7.589c-1.055,2.489-2.803,5.106-5.244,7.852
	c-2.44,2.754-6.504,6.523-12.178,11.318c-4.736,3.975-7.773,6.68-9.121,8.096s-2.461,2.842-3.34,4.277H861.743z"/>
</svg>
