<?xml version="1.0" encoding="utf-8"?>
<!-- Generator: Adobe Illustrator 16.0.3, SVG Export Plug-In . SVG Version: 6.00 Build 0)  -->
<!DOCTYPE svg PUBLIC "-//W3C//DTD SVG 1.1//EN" "http://www.w3.org/Graphics/SVG/1.1/DTD/svg11.dtd">
<svg version="1.1" id="Layer_1" xmlns="http://www.w3.org/2000/svg" xmlns:xlink="http://www.w3.org/1999/xlink" x="0px" y="0px"
	 width="900px" height="900px" viewBox="0 0 900 900" enable-background="new 0 0 900 900" xml:space="preserve">
<path d="M86.362,163.582V136.6H37.466v-12.686l51.426-73.037H100.2v73.037h15.215V136.6H100.2v26.982H86.362z M86.362,123.914
	v-50.82l-35.293,50.82H86.362z M131.646,137.517l13.301-1.23c1.123,6.26,3.271,10.791,6.455,13.613
	c3.174,2.813,7.256,4.229,12.227,4.229c4.248,0,7.979-0.977,11.182-2.92c3.203-1.953,5.83-4.551,7.881-7.813
	c2.051-3.252,3.77-7.646,5.156-13.184c1.378-5.532,2.073-11.212,2.07-16.914c0-0.615-0.029-1.533-0.078-2.764
	c-2.764,4.404-6.543,7.979-11.338,10.723c-4.795,2.744-9.98,4.111-15.566,4.111c-9.326,0-17.227-3.379-23.682-10.146
	s-9.688-15.684-9.688-26.748c0-11.436,3.369-20.635,10.107-27.607c6.738-6.963,15.186-10.449,25.332-10.449
	c7.334,0,14.033,1.973,20.107,5.918c6.074,3.945,10.684,9.57,13.838,16.875c3.154,7.305,4.727,17.871,4.727,31.709
	c0,14.404-1.563,25.869-4.688,34.404c-3.125,8.535-7.773,15.029-13.955,19.492c-6.172,4.463-13.418,6.689-21.719,6.689
	c-8.818,0-16.016-2.451-21.602-7.344S132.769,146.384,131.646,137.517L131.646,137.517z M188.306,87.781
	c0-7.949-2.119-14.248-6.348-18.916s-9.316-6.992-15.254-6.992c-6.152,0-11.514,2.51-16.074,7.529
	c-4.561,5.029-6.836,11.533-6.836,19.531c0,7.178,2.158,13.008,6.494,17.49c4.326,4.482,9.668,6.729,16.025,6.729
	c6.406,0,11.68-2.246,15.801-6.729C186.235,101.94,188.306,95.72,188.306,87.781L188.306,87.781z M305.278,662.473v-74.102h9.805
	v74.102H305.278z M331.206,662.473v-53.672h8.184v7.638c3.945-5.898,9.639-8.849,17.09-8.849c3.232,0,6.201,0.586,8.916,1.738
	c2.715,1.172,4.746,2.695,6.094,4.57c1.348,1.895,2.285,4.141,2.832,6.719c0.332,1.699,0.498,4.647,0.498,8.848v33.008h-9.092
	v-32.655c0-3.691-0.352-6.466-1.064-8.302c-0.703-1.836-1.963-3.301-3.76-4.395c-1.807-1.094-3.926-1.641-6.348-1.641
	c-3.877,0-7.217,1.229-10.029,3.672c-2.822,2.461-4.229,7.129-4.229,14.004v29.315L331.206,662.473L331.206,662.473z
	 M423.599,662.473v-6.776c-3.407,5.332-8.407,7.987-15.01,7.987c-4.287,0-8.213-1.172-11.807-3.534
	c-3.584-2.363-6.367-5.646-8.34-9.884c-1.973-4.219-2.959-9.082-2.959-14.569c0-5.371,0.898-10.215,2.686-14.59
	c1.777-4.355,4.463-7.716,8.037-10.039c3.563-2.324,7.559-3.478,11.973-3.478c3.232,0,6.123,0.685,8.644,2.051
	c2.528,1.349,4.59,3.125,6.172,5.332v-26.602h9.043v74.102H423.599L423.599,662.473z M394.839,635.695
	c0,6.875,1.445,12.012,4.346,15.41c2.901,3.397,6.318,5.098,10.265,5.098c3.975,0,7.354-1.621,10.127-4.863
	c2.783-3.262,4.17-8.223,4.17-14.901c0-7.345-1.416-12.734-4.238-16.173c-2.832-3.438-6.317-5.155-10.469-5.155
	c-4.043,0-7.422,1.659-10.137,4.961C396.196,623.371,394.839,628.586,394.839,635.695L394.839,635.695z M446.392,598.84v-10.469
	h9.103v10.469H446.392z M446.392,662.473v-53.672h9.103v53.672H446.392z M504.517,662.473v-7.871
	c-4.18,6.056-9.854,9.082-17.03,9.082c-3.174,0-6.123-0.604-8.877-1.815c-2.744-1.211-4.785-2.734-6.113-4.57
	s-2.266-4.082-2.803-6.737c-0.371-1.798-0.558-4.63-0.558-8.496v-33.263h9.103v29.767c0,4.746,0.186,7.948,0.557,9.608
	c0.566,2.384,1.777,4.277,3.633,5.625c1.855,1.367,4.15,2.052,6.875,2.052c2.734,0,5.293-0.703,7.687-2.091
	c2.393-1.405,4.082-3.301,5.078-5.723c0.995-2.402,1.493-5.898,1.493-10.488v-28.75h9.093v53.672L504.517,662.473L504.517,662.473z
	 M526.919,662.473v-53.672h8.135v7.521c1.689-2.617,3.927-4.728,6.72-6.328c2.803-1.603,5.985-2.402,9.561-2.402
	c3.975,0,7.236,0.82,9.775,2.48c2.549,1.641,4.336,3.944,5.381,6.914c4.248-6.271,9.774-9.396,16.582-9.396
	c5.322,0,9.414,1.465,12.285,4.414c2.86,2.949,4.297,7.5,4.297,13.633v36.836h-9.054v-33.809c0-3.633-0.293-6.271-0.879-7.852
	c-0.596-1.603-1.659-2.892-3.213-3.867c-1.553-0.977-3.369-1.465-5.459-1.465c-3.77,0-6.903,1.25-9.403,3.75
	c-2.49,2.52-3.74,6.543-3.74,12.069v31.172h-9.092v-34.862c0-4.043-0.742-7.091-2.228-9.103c-1.483-2.031-3.906-3.026-7.274-3.026
	c-2.568,0-4.933,0.664-7.109,2.012c-2.168,1.348-3.74,3.32-4.728,5.918c-0.977,2.598-1.465,6.328-1.465,11.211v27.852H526.919
	L526.919,662.473z M96.489,848.313h-9.102v-57.969c-2.188,2.09-5.059,4.181-8.613,6.271c-3.554,2.09-6.748,3.651-9.58,4.707v-8.81
	c5.088-2.383,9.541-5.293,13.35-8.69c3.799-3.398,6.504-6.699,8.086-9.902h5.859V848.313z M146.372,848.313h-9.102v-57.969
	c-2.188,2.09-5.059,4.181-8.613,6.271c-3.554,2.09-6.748,3.651-9.58,4.707v-8.81c5.088-2.383,9.541-5.293,13.35-8.69
	c3.799-3.398,6.504-6.699,8.086-9.902h5.859V848.313L146.372,848.313z M198.843,848.313v-17.733h-32.139v-8.34l33.809-48.027h7.432
	v48.027h10.01v8.34h-10.01v17.733H198.843z M198.843,822.238V788.82l-23.193,33.418H198.843L198.843,822.238z M232.358,848.313
	v-10.352h10.361v10.352H232.358z M270.015,808.137c-3.779-1.387-6.572-3.358-8.398-5.918c-1.816-2.559-2.725-5.625-2.725-9.199
	c0-5.391,1.934-9.922,5.811-13.594s9.033-5.508,15.469-5.508c6.465,0,11.68,1.875,15.615,5.625c3.945,3.77,5.918,8.34,5.918,13.73
	c0,3.438-0.898,6.426-2.705,8.965c-1.807,2.559-4.541,4.512-8.213,5.897c4.551,1.484,8.008,3.867,10.391,7.168
	c2.373,3.302,3.555,7.246,3.555,11.836c0,6.328-2.236,11.66-6.719,15.978c-4.483,4.316-10.381,6.465-17.686,6.465
	c-7.314,0-13.213-2.168-17.695-6.504c-4.482-4.316-6.719-9.728-6.719-16.191c0-4.823,1.221-8.848,3.662-12.108
	C262.017,811.535,265.493,809.309,270.015,808.137L270.015,808.137z M265.259,826.945c0,2.578,0.615,5.098,1.846,7.52
	s3.057,4.316,5.488,5.646c2.422,1.327,5.029,1.991,7.832,1.991c4.346,0,7.93-1.405,10.762-4.198s4.248-6.349,4.248-10.664
	c0-4.375-1.455-8.008-4.375-10.859c-2.91-2.871-6.563-4.297-10.938-4.297c-4.277,0-7.832,1.406-10.645,4.238
	S265.259,822.688,265.259,826.945L265.259,826.945z M268.188,792.727c0,3.496,1.133,6.367,3.389,8.595
	c2.256,2.207,5.186,3.319,8.799,3.319c3.506,0,6.377-1.094,8.613-3.301c2.246-2.207,3.359-4.922,3.359-8.125
	c0-3.32-1.152-6.133-3.457-8.398c-2.314-2.284-5.186-3.418-8.623-3.418c-3.467,0-6.348,1.113-8.643,3.341
	C269.341,786.965,268.188,789.621,268.188,792.727L268.188,792.727z M361.392,839.582v8.729h-48.975
	c-0.076-2.153,0.286-4.3,1.064-6.309c1.24-3.34,3.242-6.621,5.986-9.863c2.744-3.242,6.709-6.973,11.904-11.211
	c8.047-6.621,13.496-11.836,16.328-15.703c2.822-3.848,4.238-7.5,4.238-10.938c0-3.613-1.289-6.66-3.867-9.121
	c-2.578-2.48-5.938-3.73-10.078-3.73c-4.385,0-7.891,1.328-10.518,3.945c-2.627,2.637-3.955,6.271-3.994,10.918l-9.346-0.957
	c0.635-6.973,3.047-12.285,7.227-15.938c4.18-3.672,9.785-5.488,16.836-5.488c7.109,0,12.734,1.973,16.875,5.918
	c4.15,3.945,6.221,8.828,6.221,14.648c0,2.969-0.605,5.879-1.816,8.75c-1.221,2.871-3.232,5.879-6.045,9.043
	s-7.49,7.52-14.023,13.047c-5.459,4.57-8.965,7.695-10.518,9.315c-1.553,1.642-2.832,3.281-3.838,4.941h36.339V839.582z
	 M348.257,449.998V265.105h37.334v184.893H348.257L348.257,449.998z M542.729,449.998H507.29v-68.359
	c0-14.453-0.762-23.809-2.275-28.057c-1.513-4.248-3.965-7.549-7.373-9.902c-3.407-2.353-7.51-3.524-12.295-3.524
	c-6.143,0-11.649,1.68-16.522,5.039c-4.883,3.368-8.224,7.821-10.029,13.368s-2.705,15.812-2.705,30.771v60.664h-35.438V316.063
	h32.909v19.678c11.689-15.137,26.406-22.705,44.142-22.705c7.822,0,14.971,1.406,21.445,4.229
	c6.475,2.813,11.366,6.406,14.688,10.781s5.635,9.326,6.943,14.883c1.299,5.547,1.953,13.496,1.953,23.828v83.242H542.729z
	 M861.743,109.197v7.588h-42.5c-0.068-1.904,0.244-3.73,0.918-5.479c1.084-2.9,2.813-5.752,5.195-8.555
	c2.383-2.813,5.83-6.055,10.332-9.746c6.991-5.732,11.709-10.264,14.17-13.613c2.45-3.35,3.682-6.514,3.682-9.502
	c0-3.125-1.113-5.771-3.35-7.92c-2.246-2.148-5.156-3.223-8.761-3.223c-3.799,0-6.836,1.143-9.121,3.428
	c-2.274,2.275-3.438,5.439-3.467,9.473l-8.114-0.84c0.557-6.045,2.646-10.664,6.278-13.838c3.623-3.174,8.486-4.756,14.601-4.756
	c6.172,0,11.055,1.709,14.657,5.127c3.595,3.428,5.392,7.666,5.392,12.725c0,2.578-0.527,5.107-1.572,7.588
	c-1.055,2.49-2.803,5.107-5.244,7.852c-2.44,2.754-6.504,6.523-12.178,11.318c-4.736,3.975-7.773,6.68-9.121,8.096
	s-2.461,2.842-3.34,4.277H861.743z M832.397,171.755c-3.271-1.201-5.703-2.91-7.285-5.137c-1.572-2.217-2.363-4.883-2.363-7.979
	c0-4.678,1.68-8.613,5.039-11.807c3.369-3.184,7.842-4.775,13.428-4.775c5.615,0,10.138,1.631,13.556,4.893
	c3.418,3.262,5.137,7.227,5.137,11.904c0,2.988-0.791,5.586-2.354,7.793c-1.563,2.207-3.936,3.906-7.129,5.107
	c3.955,1.289,6.953,3.359,9.015,6.23c2.069,2.861,3.096,6.289,3.096,10.264c0,5.498-1.943,10.117-5.83,13.857
	c-3.896,3.75-9.014,5.615-15.361,5.615c-6.338,0-11.455-1.875-15.352-5.635c-3.887-3.76-5.83-8.447-5.83-14.063
	c0-4.18,1.055-7.676,3.184-10.498C825.464,174.705,828.481,172.781,832.397,171.755z M828.276,188.074
	c0,2.256,0.526,4.434,1.602,6.533c1.064,2.109,2.656,3.74,4.756,4.893c2.082,1.146,4.421,1.74,6.797,1.729
	c3.779,0,6.896-1.211,9.347-3.633c2.461-2.432,3.69-5.518,3.69-9.258c0-3.799-1.27-6.943-3.799-9.434
	c-2.529-2.48-5.693-3.73-9.502-3.73c-3.711,0-6.787,1.23-9.229,3.691C829.497,181.316,828.276,184.392,828.276,188.074
	L828.276,188.074z M830.815,158.376c0,3.037,0.985,5.527,2.938,7.451c1.963,1.934,4.502,2.9,7.637,2.9
	c3.037,0,5.537-0.957,7.48-2.871s2.92-4.268,2.92-7.041c0-2.9-1.006-5.332-3.008-7.305c-2.002-1.973-4.502-2.959-7.48-2.959
	c-3.018,0-5.518,0.957-7.5,2.891C831.813,153.376,830.815,155.681,830.815,158.376L830.815,158.376z M800.015,296.462h-7.891V246.15
	c-1.904,1.807-4.395,3.623-7.479,5.439c-3.086,1.807-5.859,3.174-8.312,4.072v-7.627c4.414-2.08,8.271-4.59,11.582-7.549
	c3.301-2.949,5.646-5.82,7.012-8.594h5.089L800.015,296.462L800.015,296.462z M832.388,261.589c-3.271-1.201-5.702-2.91-7.284-5.137
	c-1.572-2.217-2.363-4.883-2.363-7.979c0-4.678,1.68-8.613,5.039-11.807c3.369-3.184,7.842-4.775,13.428-4.775
	c5.615,0,10.137,1.631,13.555,4.893c3.418,3.262,5.138,7.227,5.138,11.904c0,2.988-0.791,5.586-2.354,7.793
	c-1.563,2.207-3.936,3.906-7.129,5.107c3.955,1.289,6.953,3.359,9.014,6.23c2.07,2.861,3.097,6.289,3.097,10.264
	c0,5.498-1.943,10.117-5.83,13.857c-3.896,3.75-9.015,5.615-15.361,5.615c-6.338,0-11.455-1.875-15.352-5.635
	c-3.888-3.76-5.83-8.447-5.83-14.063c0-4.18,1.055-7.676,3.184-10.498C825.454,264.539,828.472,262.615,832.388,261.589
	L832.388,261.589z M828.268,277.908c0,2.256,0.526,4.434,1.602,6.533c1.064,2.109,2.656,3.74,4.756,4.893
	c2.082,1.146,4.421,1.74,6.797,1.729c3.779,0,6.896-1.211,9.346-3.633c2.462-2.432,3.691-5.518,3.691-9.258
	c0-3.799-1.27-6.943-3.799-9.434c-2.529-2.48-5.693-3.73-9.502-3.73c-3.711,0-6.787,1.23-9.229,3.691
	C829.487,271.15,828.267,274.226,828.268,277.908L828.268,277.908z M830.806,248.21c0,3.037,0.986,5.527,2.939,7.451
	c1.963,1.934,4.502,2.9,7.637,2.9c3.037,0,5.537-0.957,7.48-2.871c1.942-1.914,2.92-4.268,2.92-7.041c0-2.9-1.006-5.332-3.008-7.305
	c-2.002-1.973-4.502-2.959-7.48-2.959c-3.018,0-5.518,0.957-7.5,2.891C831.802,243.21,830.807,245.515,830.806,248.21
	L830.806,248.21z M800.015,386.306h-7.891v-50.313c-1.904,1.807-4.395,3.623-7.479,5.438c-3.086,1.808-5.859,3.174-8.312,4.072
	v-7.627c4.414-2.08,8.271-4.59,11.582-7.549c3.301-2.949,5.646-5.82,7.012-8.594h5.089L800.015,386.306L800.015,386.306z
	 M832.388,351.433c-3.271-1.2-5.702-2.91-7.284-5.137c-1.572-2.217-2.363-4.883-2.363-7.979c0-4.679,1.68-8.613,5.039-11.808
	c3.369-3.184,7.842-4.774,13.428-4.774c5.615,0,10.137,1.631,13.555,4.893s5.138,7.227,5.138,11.904
	c0,2.987-0.791,5.586-2.354,7.793c-1.563,2.207-3.936,3.905-7.129,5.106c3.955,1.289,6.953,3.359,9.014,6.23
	c2.07,2.86,3.097,6.289,3.097,10.264c0,5.498-1.943,10.117-5.83,13.857c-3.896,3.75-9.015,5.614-15.361,5.614
	c-6.338,0-11.455-1.875-15.352-5.635c-3.888-3.76-5.83-8.446-5.83-14.063c0-4.181,1.055-7.677,3.184-10.498
	C825.454,354.382,828.472,352.458,832.388,351.433z M828.268,367.751c0,2.256,0.526,4.434,1.602,6.533
	c1.064,2.108,2.656,3.739,4.756,4.893c2.082,1.146,4.421,1.74,6.797,1.729c3.779,0,6.896-1.211,9.346-3.634
	c2.462-2.432,3.691-5.518,3.691-9.258c0-3.799-1.27-6.942-3.799-9.434c-2.529-2.48-5.693-3.73-9.502-3.73
	c-3.711,0-6.787,1.23-9.229,3.691C829.487,360.994,828.267,364.07,828.268,367.751L828.268,367.751z M830.806,338.054
	c0,3.037,0.986,5.527,2.939,7.451c1.963,1.934,4.502,2.9,7.637,2.9c3.037,0,5.537-0.957,7.48-2.871
	c1.942-1.914,2.92-4.269,2.92-7.041c0-2.9-1.006-5.332-3.008-7.306c-2.002-1.973-4.502-2.959-7.48-2.959
	c-3.018,0-5.518,0.957-7.5,2.892C831.802,333.054,830.807,335.359,830.806,338.054L830.806,338.054z M820.288,459.172l7.9-1.059
	c0.907,4.477,2.45,7.698,4.629,9.672c2.178,1.973,4.834,2.949,7.959,2.949c3.711,0,6.854-1.271,9.414-3.849
	c2.559-2.578,3.838-5.762,3.838-9.563c0-3.623-1.191-6.621-3.556-8.976c-2.372-2.354-5.381-3.524-9.043-3.524
	c-1.483,0-3.34,0.293-5.565,0.879l0.879-6.935c0.527,0.06,0.947,0.089,1.271,0.089c3.358,0,6.387-0.88,9.081-2.638
	c2.687-1.748,4.033-4.453,4.033-8.115c0-2.891-0.977-5.293-2.938-7.188c-1.953-1.904-4.492-2.852-7.588-2.852
	c-3.066,0-5.625,0.956-7.677,2.891c-2.051,1.934-3.358,4.824-3.944,8.69l-7.9-1.405c0.967-5.293,3.164-9.396,6.582-12.306
	c3.418-2.909,7.676-4.364,12.764-4.364c3.506,0,6.738,0.752,9.697,2.256c2.949,1.504,5.215,3.563,6.777,6.162
	c1.563,2.606,2.344,5.371,2.344,8.291c0,2.782-0.742,5.313-2.236,7.588c-1.494,2.285-3.701,4.102-6.621,5.438
	c3.799,0.879,6.758,2.705,8.857,5.47c2.109,2.764,3.164,6.221,3.164,10.372c0,5.618-2.051,10.364-6.144,14.271
	c-4.102,3.906-9.276,5.859-15.526,5.859c-5.646,0-10.332-1.681-14.063-5.039C822.944,468.878,820.815,464.523,820.288,459.172
	L820.288,459.172z"/>
</svg>
