<?xml version="1.0" encoding="utf-8"?>
<!-- Generator: Adobe Illustrator 16.0.3, SVG Export Plug-In . SVG Version: 6.00 Build 0)  -->
<!DOCTYPE svg PUBLIC "-//W3C//DTD SVG 1.1//EN" "http://www.w3.org/Graphics/SVG/1.1/DTD/svg11.dtd">
<svg version="1.1" id="Layer_1" xmlns="http://www.w3.org/2000/svg" xmlns:xlink="http://www.w3.org/1999/xlink" x="0px" y="0px"
	 width="900px" height="900px" viewBox="0 0 900 900" enable-background="new 0 0 900 900" xml:space="preserve">
<path d="M39.795,133.162l14.531-1.23c1.074,7.075,3.574,12.393,7.5,15.952c3.916,3.564,8.643,5.342,14.18,5.342
	c6.66,0,12.305-2.51,16.914-7.534c4.609-5.02,6.924-11.685,6.924-19.985c0-7.896-2.217-14.121-6.65-18.682
	c-4.434-4.565-10.244-6.846-17.412-6.846c-4.463,0-8.486,1.016-12.07,3.037c-3.594,2.026-6.416,4.653-8.457,7.881l-12.998-1.689
	l10.918-57.891h56.045V64.74H64.248l-6.074,30.288c6.758-4.712,13.857-7.07,21.289-7.07c9.844,0,18.145,3.408,24.912,10.225
	s10.146,15.581,10.146,26.294c0,10.2-2.969,19.014-8.916,26.445c-7.227,9.121-17.09,13.687-29.6,13.687
	c-10.254,0-18.613-2.871-25.098-8.613C44.424,150.256,40.723,142.644,39.795,133.162z M317.51,661.574v-74.097h27.803
	c5.664,0,10.205,0.746,13.623,2.246c3.418,1.498,6.094,3.81,8.037,6.925c1.934,3.118,2.9,6.377,2.9,9.778
	c0,3.17-0.85,6.152-2.568,8.951c-1.719,2.797-4.316,5.053-7.793,6.771c4.482,1.314,7.93,3.556,10.342,6.726
	c2.412,3.164,3.613,6.904,3.613,11.221c0,3.467-0.732,6.693-2.197,9.678c-1.465,2.982-3.281,5.283-5.439,6.898
	c-2.148,1.617-4.854,2.838-8.105,3.662c-3.252,0.83-7.236,1.24-11.953,1.24L317.51,661.574L317.51,661.574z M327.314,618.611h16.025
	c4.346,0,7.461-0.283,9.355-0.859c2.49-0.742,4.365-1.973,5.635-3.691c1.26-1.715,1.895-3.873,1.895-6.471
	c0-2.455-0.586-4.623-1.768-6.494c-1.182-1.869-2.871-3.147-5.059-3.838c-2.188-0.693-5.947-1.039-11.27-1.039h-14.814
	L327.314,618.611L327.314,618.611z M327.314,652.83h18.457c3.164,0,5.391-0.117,6.67-0.353c2.256-0.405,4.141-1.079,5.664-2.021
	c1.514-0.943,2.754-2.32,3.74-4.121c0.977-1.803,1.465-3.883,1.465-6.24c0-2.764-0.713-5.166-2.129-7.207
	c-1.416-2.037-3.379-3.467-5.889-4.293c-2.51-0.823-6.123-1.239-10.84-1.239h-17.139L327.314,652.83L327.314,652.83z
	 M382.412,634.734c0-9.938,2.764-17.302,8.291-22.086c4.609-3.979,10.244-5.968,16.885-5.968c7.373,0,13.408,2.418,18.086,7.256
	c4.688,4.834,7.031,11.515,7.031,20.039c0,6.91-1.035,12.345-3.105,16.3c-2.08,3.961-5.088,7.036-9.053,9.229
	c-3.955,2.188-8.281,3.281-12.959,3.281c-7.52,0-13.594-2.406-18.223-7.228C384.727,650.74,382.412,643.801,382.412,634.734
	L382.412,634.734z M391.758,634.734c0,6.875,1.504,12.021,4.502,15.442c2.998,3.418,6.777,5.127,11.328,5.127
	c4.512,0,8.271-1.719,11.271-5.149c2.998-3.438,4.491-8.679,4.491-15.724c0-6.637-1.504-11.666-4.521-15.088
	c-3.019-3.418-6.769-5.127-11.24-5.127c-4.551,0-8.33,1.699-11.328,5.103C393.262,622.723,391.758,627.859,391.758,634.734
	L391.758,634.734z M443.262,661.574v-53.676h8.193v8.135c2.09-3.81,4.014-6.318,5.781-7.529c1.776-1.217,3.721-1.822,5.84-1.822
	c3.065,0,6.182,0.978,9.354,2.937l-3.135,8.438c-2.227-1.313-4.453-1.969-6.67-1.969c-1.992,0-3.779,0.596-5.361,1.793
	c-1.582,1.195-2.715,2.855-3.389,4.98c-1.006,3.231-1.514,6.771-1.514,10.614v28.101L443.262,661.574L443.262,661.574z
	 M474.453,634.734c0-9.938,2.764-17.302,8.291-22.086c4.609-3.979,10.244-5.968,16.885-5.968c7.373,0,13.408,2.418,18.086,7.256
	c4.688,4.834,7.031,11.515,7.031,20.039c0,6.91-1.035,12.345-3.105,16.3c-2.08,3.961-5.088,7.036-9.053,9.229
	c-3.955,2.188-8.281,3.281-12.959,3.281c-7.52,0-13.594-2.406-18.223-7.228C476.768,650.74,474.453,643.801,474.453,634.734
	L474.453,634.734z M483.799,634.734c0,6.875,1.504,12.021,4.502,15.442c2.998,3.418,6.777,5.127,11.328,5.127
	c4.512,0,8.271-1.719,11.271-5.149c2.998-3.438,4.491-8.679,4.491-15.724c0-6.637-1.504-11.666-4.521-15.088
	c-3.019-3.418-6.769-5.127-11.24-5.127c-4.551,0-8.33,1.699-11.328,5.103C485.303,622.723,483.799,627.859,483.799,634.734
	L483.799,634.734z M535.41,661.574v-53.676h8.184v7.631c3.945-5.898,9.64-8.849,17.09-8.849c3.232,0,6.201,0.582,8.916,1.744
	c2.716,1.162,4.746,2.689,6.095,4.574c1.348,1.891,2.285,4.131,2.832,6.725c0.332,1.685,0.498,4.633,0.498,8.842v33.009h-9.093
	v-32.65c0-3.707-0.352-6.48-1.063-8.316c-0.703-1.836-1.963-3.301-3.76-4.397c-1.808-1.094-3.927-1.642-6.349-1.642
	c-3.877,0-7.217,1.23-10.028,3.691c-2.822,2.461-4.229,7.123-4.229,13.998v29.316H535.41L535.41,661.574z M94.287,847.43h-9.102
	v-57.975c-2.188,2.09-5.059,4.18-8.613,6.266c-3.555,2.09-6.748,3.656-9.58,4.701v-8.793c5.088-2.393,9.541-5.293,13.35-8.697
	c3.799-3.401,6.504-6.703,8.086-9.905h5.859V847.43L94.287,847.43z M117.588,810.887c0-8.76,0.898-15.811,2.705-21.151
	c1.797-5.343,4.482-9.464,8.037-12.359c3.555-2.9,8.027-4.35,13.418-4.35c3.975,0,7.461,0.801,10.459,2.401
	c2.998,1.602,5.479,3.91,7.432,6.924c1.953,3.019,3.486,6.689,4.6,11.021c1.113,4.332,1.67,10.166,1.67,17.516
	c0,8.691-0.889,15.713-2.676,21.05c-1.787,5.342-4.463,9.473-8.018,12.383c-3.555,2.916-8.047,4.375-13.467,4.375
	c-7.148,0-12.754-2.563-16.836-7.687C120.029,834.842,117.588,824.803,117.588,810.887L117.588,810.887z M126.934,810.887
	c0,12.162,1.426,20.258,4.277,24.287c2.842,4.023,6.357,6.039,10.537,6.039s7.695-2.021,10.537-6.064
	c2.852-4.047,4.268-12.133,4.268-24.262c0-12.197-1.416-20.303-4.268-24.313c-2.842-4.008-6.396-6.017-10.635-6.017
	c-4.18,0-7.52,1.769-10.01,5.31C128.506,790.383,126.934,798.723,126.934,810.887L126.934,810.887z M180.264,847.43v-10.36h10.361
	v10.36H180.264z M217.92,807.244c-3.779-1.377-6.572-3.351-8.398-5.914c-1.816-2.56-2.725-5.625-2.725-9.199
	c0-5.391,1.934-9.922,5.811-13.594s9.033-5.512,15.469-5.512c6.465,0,11.68,1.879,15.615,5.639c3.945,3.756,5.918,8.33,5.918,13.721
	c0,3.438-0.898,6.433-2.705,8.976c-1.807,2.545-4.541,4.508-8.213,5.885c4.551,1.483,8.008,3.877,10.391,7.178
	c2.373,3.305,3.555,7.246,3.555,11.83c0,6.334-2.236,11.66-6.719,15.973c-4.482,4.312-10.381,6.47-17.686,6.47
	c-7.314,0-13.213-2.168-17.695-6.494c-4.482-4.33-6.719-9.73-6.719-16.201c0-4.818,1.221-8.852,3.662-12.104
	C209.922,810.644,213.398,808.426,217.92,807.244L217.92,807.244z M213.164,826.047c0,2.598,0.615,5.107,1.846,7.535
	c1.23,2.426,3.057,4.301,5.488,5.635c2.422,1.332,5.029,1.996,7.832,1.996c4.346,0,7.93-1.4,10.762-4.193
	c2.832-2.799,4.248-6.354,4.248-10.67c0-4.379-1.455-8.002-4.375-10.862c-2.91-2.867-6.563-4.298-10.938-4.298
	c-4.277,0-7.832,1.416-10.645,4.242C214.57,818.264,213.164,821.805,213.164,826.047z M216.094,791.828
	c0,3.506,1.133,6.373,3.389,8.594c2.256,2.223,5.186,3.336,8.799,3.336c3.506,0,6.377-1.104,8.613-3.311
	c2.246-2.207,3.359-4.912,3.359-8.111c0-3.334-1.152-6.143-3.457-8.418c-2.314-2.275-5.186-3.412-8.623-3.412
	c-3.467,0-6.348,1.113-8.643,3.34C217.246,786.066,216.094,788.729,216.094,791.828z M295.762,847.43h-9.102v-57.975
	c-2.188,2.09-5.059,4.18-8.613,6.266c-3.555,2.09-6.748,3.656-9.58,4.701v-8.793c5.088-2.393,9.541-5.293,13.35-8.697
	c3.799-3.401,6.504-6.703,8.086-9.906h5.859V847.43L295.762,847.43z M345.645,847.43h-9.102v-57.975
	c-2.188,2.09-5.059,4.18-8.613,6.266c-3.555,2.09-6.748,3.656-9.58,4.701v-8.793c5.088-2.393,9.541-5.293,13.35-8.697
	c3.799-3.401,6.504-6.703,8.086-9.906h5.859V847.43L345.645,847.43z M368.818,264.207h73.906c14.63,0,25.537,0.61,32.726,1.826
	c7.188,1.221,13.623,3.765,19.297,7.632c5.674,3.867,10.41,9.019,14.189,15.449c3.778,6.43,5.674,13.643,5.674,21.631
	c0,8.662-2.334,16.605-7.002,23.833c-4.658,7.235-10.986,12.656-18.976,16.27c11.26,3.281,19.922,8.872,25.978,16.777
	c6.055,7.9,9.082,17.191,9.082,27.871c0,8.408-1.953,16.582-5.859,24.525c-3.916,7.949-9.258,14.298-16.025,19.049
	c-6.767,4.751-15.106,7.671-25.028,8.765c-6.222,0.674-21.23,1.094-45.029,1.26h-62.93L368.818,264.207L368.818,264.207z
	 M406.152,294.978v42.753h24.463c14.551,0,23.584-0.21,27.119-0.63c6.387-0.757,11.416-2.964,15.067-6.621
	c3.662-3.656,5.488-8.472,5.488-14.438c0-5.718-1.582-10.361-4.727-13.936c-3.154-3.574-7.843-5.742-14.063-6.499
	c-3.701-0.42-14.336-0.63-31.914-0.63H406.152L406.152,294.978z M406.152,368.503v49.438h34.551c13.457,0,21.992-0.376,25.604-1.133
	c5.548-1.011,10.068-3.467,13.556-7.378c3.486-3.911,5.233-9.146,5.233-15.703c0-5.547-1.348-10.254-4.032-14.126
	c-2.695-3.861-6.582-6.685-11.67-8.446c-5.089-1.769-16.123-2.651-33.105-2.651H406.152z M859.541,108.289v7.588h-42.5
	c-0.07-1.871,0.242-3.737,0.918-5.483c1.084-2.896,2.813-5.747,5.195-8.555s5.83-6.055,10.332-9.736
	c6.992-5.732,11.709-10.273,14.17-13.623c2.451-3.35,3.682-6.514,3.682-9.497c0-3.13-1.113-5.767-3.35-7.915
	c-2.246-2.153-5.156-3.228-8.76-3.228c-3.8,0-6.837,1.143-9.121,3.423c-2.275,2.28-3.438,5.439-3.468,9.478l-8.114-0.835
	c0.557-6.055,2.646-10.669,6.278-13.843c3.623-3.169,8.486-4.756,14.601-4.756c6.172,0,11.055,1.709,14.658,5.132
	c3.594,3.423,5.391,7.661,5.391,12.72c0,2.573-0.527,5.103-1.572,7.588c-1.055,2.485-2.803,5.107-5.244,7.852
	c-2.44,2.749-6.504,6.523-12.178,11.318c-4.736,3.979-7.773,6.675-9.121,8.096c-1.348,1.416-2.461,2.842-3.34,4.277L859.541,108.289
	L859.541,108.289z M818.086,188.738l7.9-1.05c0.908,4.473,2.451,7.695,4.629,9.673c2.178,1.973,4.834,2.959,7.959,2.959
	c3.711,0,6.854-1.289,9.414-3.862c2.559-2.573,3.838-5.757,3.838-9.561c0-3.628-1.191-6.616-3.555-8.97
	c-2.373-2.354-5.382-3.535-9.043-3.535c-1.484,0-3.341,0.293-5.566,0.879l0.879-6.929c0.527,0.059,0.947,0.088,1.271,0.088
	c3.358,0,6.387-0.879,9.081-2.632c2.687-1.758,4.033-4.463,4.033-8.115c0-2.896-0.977-5.293-2.938-7.197
	c-1.953-1.899-4.492-2.852-7.588-2.852c-3.066,0-5.625,0.967-7.677,2.896c-2.051,1.934-3.358,4.824-3.944,8.687l-7.9-1.401
	c0.967-5.293,3.164-9.395,6.582-12.305c3.418-2.91,7.676-4.365,12.764-4.365c3.506,0,6.738,0.752,9.697,2.256
	c2.949,1.509,5.215,3.564,6.777,6.167c1.562,2.603,2.344,5.366,2.344,8.291c0,2.778-0.742,5.308-2.236,7.588
	c-1.494,2.28-3.701,4.092-6.621,5.439c3.8,0.874,6.759,2.695,8.857,5.459c2.109,2.764,3.164,6.226,3.164,10.376
	c0,5.615-2.051,10.376-6.144,14.277c-4.102,3.906-9.276,5.859-15.526,5.859c-5.646,0-10.332-1.685-14.063-5.049
	C820.742,198.45,818.613,194.089,818.086,188.738L818.086,188.738z"/>
</svg>
