<?xml version="1.0" encoding="utf-8"?>
<!-- Generator: Adobe Illustrator 16.0.3, SVG Export Plug-In . SVG Version: 6.00 Build 0)  -->
<!DOCTYPE svg PUBLIC "-//W3C//DTD SVG 1.1//EN" "http://www.w3.org/Graphics/SVG/1.1/DTD/svg11.dtd">
<svg version="1.1" id="Layer_1" xmlns="http://www.w3.org/2000/svg" xmlns:xlink="http://www.w3.org/1999/xlink" x="0px" y="0px"
	 width="900px" height="900px" viewBox="0 0 900 900" enable-background="new 0 0 900 900" xml:space="preserve">
<path d="M39.731,134.06l14.531-1.23c1.074,7.07,3.574,12.393,7.5,15.957c3.916,3.555,8.643,5.342,14.18,5.342
	c6.66,0,12.305-2.51,16.914-7.539c4.609-5.02,6.924-11.68,6.924-19.99c0-7.891-2.217-14.121-6.65-18.682s-10.244-6.836-17.412-6.836
	c-4.463,0-8.486,1.006-12.07,3.037c-3.594,2.021-6.416,4.648-8.457,7.881l-12.999-1.7L53.11,52.41h56.045v13.223h-44.97
	L58.11,95.925c6.758-4.717,13.857-7.07,21.289-7.07c9.844,0,18.145,3.408,24.912,10.225s10.146,15.576,10.146,26.289
	c0,10.205-2.969,19.023-8.916,26.445c-7.227,9.131-17.09,13.691-29.6,13.691c-10.254,0-18.613-2.871-25.098-8.613
	C44.358,151.15,40.659,143.542,39.731,134.06z M127.3,107.996c0-13.32,1.377-24.053,4.111-32.178
	c2.744-8.115,6.816-14.385,12.227-18.789c5.41-4.414,12.207-6.611,20.41-6.611c6.045,0,11.357,1.211,15.918,3.652
	c4.561,2.432,8.33,5.938,11.299,10.527c2.969,4.589,5.303,10.176,7.002,16.758c1.689,6.592,2.529,15.469,2.529,26.641
	c0,13.223-1.357,23.896-4.072,32.021c-2.715,8.125-6.777,14.404-12.188,18.838c-5.4,4.434-12.236,6.65-20.488,6.65
	c-10.859,0-19.395-3.896-25.596-11.689C131.021,144.441,127.3,129.167,127.3,107.996L127.3,107.996z M141.528,107.996
	c0,18.506,2.158,30.82,6.494,36.943c4.326,6.123,9.668,9.189,16.025,9.189s11.699-3.076,16.035-9.229
	c4.326-6.152,6.494-18.447,6.494-36.904c0-18.555-2.168-30.879-6.494-36.982c-4.336-6.094-9.727-9.141-16.182-9.141
	c-6.357,0-11.436,2.686-15.225,8.066C143.911,76.814,141.528,89.5,141.528,107.996L141.528,107.996z M405.563,662.473v-65.352
	h-24.415v-8.75h58.74v8.75h-24.521v65.352H405.563z M444.995,598.84v-10.469h9.102v10.469H444.995z M444.995,662.473v-53.672h9.102
	v53.672H444.995z M467.944,662.473v-53.672h8.184v7.638c3.945-5.898,9.639-8.849,17.09-8.849c3.232,0,6.201,0.586,8.916,1.738
	c2.715,1.172,4.746,2.695,6.094,4.57c1.349,1.895,2.285,4.141,2.832,6.719c0.332,1.699,0.498,4.647,0.498,8.848v33.008h-9.092
	v-32.655c0-3.691-0.352-6.466-1.063-8.302c-0.703-1.836-1.963-3.301-3.761-4.395c-1.807-1.094-3.926-1.641-6.348-1.641
	c-3.877,0-7.217,1.229-10.029,3.672c-2.821,2.461-4.229,7.129-4.229,14.004v29.315L467.944,662.473L467.944,662.473z
	 M94.233,848.313h-9.102v-57.969c-2.188,2.09-5.059,4.181-8.613,6.271c-3.554,2.09-6.748,3.651-9.58,4.707v-8.81
	c5.088-2.383,9.541-5.293,13.35-8.69c3.799-3.398,6.504-6.699,8.086-9.902h5.859V848.313z M144.116,848.313h-9.102v-57.969
	c-2.188,2.09-5.059,4.181-8.613,6.271c-3.554,2.09-6.748,3.651-9.58,4.707v-8.81c5.088-2.383,9.541-5.293,13.35-8.69
	c3.799-3.398,6.504-6.699,8.086-9.902h5.859V848.313L144.116,848.313z M181.431,808.137c-3.779-1.387-6.572-3.358-8.398-5.918
	c-1.816-2.559-2.725-5.625-2.725-9.199c0-5.391,1.934-9.922,5.811-13.594s9.033-5.508,15.469-5.508
	c6.465,0,11.68,1.875,15.615,5.625c3.945,3.77,5.918,8.34,5.918,13.73c0,3.438-0.898,6.426-2.705,8.965
	c-1.807,2.559-4.541,4.512-8.213,5.897c4.551,1.484,8.008,3.867,10.391,7.168c2.373,3.302,3.555,7.246,3.555,11.836
	c0,6.328-2.236,11.66-6.719,15.978c-4.483,4.316-10.381,6.465-17.686,6.465c-7.314,0-13.213-2.168-17.695-6.504
	c-4.482-4.316-6.719-9.728-6.719-16.191c0-4.823,1.221-8.848,3.662-12.108C173.433,811.535,176.909,809.309,181.431,808.137
	L181.431,808.137z M176.675,826.945c0,2.578,0.615,5.098,1.846,7.52s3.057,4.316,5.488,5.646c2.422,1.327,5.029,1.991,7.832,1.991
	c4.346,0,7.93-1.405,10.762-4.198s4.248-6.349,4.248-10.664c0-4.375-1.455-8.008-4.375-10.859c-2.91-2.871-6.563-4.297-10.938-4.297
	c-4.277,0-7.832,1.406-10.645,4.238S176.675,822.688,176.675,826.945L176.675,826.945z M179.604,792.727
	c0,3.496,1.133,6.367,3.389,8.595c2.256,2.207,5.186,3.319,8.799,3.319c3.506,0,6.377-1.094,8.613-3.301
	c2.246-2.207,3.359-4.922,3.359-8.125c0-3.32-1.152-6.133-3.457-8.398c-2.314-2.284-5.186-3.418-8.623-3.418
	c-3.467,0-6.348,1.113-8.643,3.341C180.757,786.965,179.604,789.621,179.604,792.727L179.604,792.727z M230.103,848.313v-10.352
	h10.361v10.352H230.103z M254.36,783.918v-8.73h47.969v7.07c-4.717,5.021-9.395,11.699-14.023,20.021
	c-4.639,8.319-8.213,16.875-10.742,25.664c-1.826,6.211-2.988,12.987-3.486,20.37h-9.355c0.098-5.819,1.25-12.87,3.438-21.112
	c2.188-8.263,5.332-16.23,9.424-23.888c4.102-7.676,8.457-14.141,13.066-19.395H254.36z M345.591,848.313h-9.102v-57.969
	c-2.188,2.09-5.059,4.18-8.613,6.271c-3.554,2.09-6.748,3.651-9.58,4.707v-8.81c5.088-2.383,9.541-5.293,13.35-8.69
	c3.799-3.398,6.504-6.699,8.086-9.902h5.859V848.313L345.591,848.313z M287.417,389.841l36.318-3.535
	c2.188,12.197,6.621,21.152,13.301,26.865c6.689,5.723,15.703,8.574,27.061,8.574c12.021,0,21.074-2.539,27.178-7.627
	c6.094-5.088,9.141-11.035,9.141-17.853c0-4.364-1.279-8.086-3.848-11.151c-2.568-3.076-7.042-5.742-13.428-8.019
	c-4.375-1.504-14.336-4.199-29.893-8.065c-20.01-4.961-34.053-11.056-42.119-18.291c-11.357-10.166-17.031-22.568-17.031-37.197
	c0-9.424,2.666-18.232,8.008-26.426c5.342-8.194,13.037-14.443,23.086-18.73c10.039-4.287,22.168-6.426,36.377-6.426
	c23.213,0,40.674,5.088,52.402,15.254c11.729,10.176,17.892,23.76,18.478,40.742l-37.324,1.641
	c-1.602-9.502-5.029-16.338-10.283-20.498c-5.254-4.16-13.135-6.24-23.643-6.24c-10.85,0-19.346,2.227-25.479,6.68
	c-3.955,2.861-5.928,6.688-5.928,11.475c0,4.375,1.846,8.115,5.547,11.23c4.707,3.944,16.143,8.065,34.307,12.354
	s31.592,8.73,40.292,13.312c8.701,4.581,15.509,10.84,20.431,18.789c4.922,7.948,7.383,17.764,7.383,29.453
	c0,10.586-2.949,20.508-8.828,29.756c-5.889,9.258-14.209,16.123-24.971,20.625c-10.771,4.493-24.18,6.749-40.234,6.749
	c-23.379,0-41.328-5.401-53.857-16.211C297.329,426.267,289.849,410.525,287.417,389.841L287.417,389.841z M590.729,449.998h-35.439
	v-68.359c0-14.453-0.762-23.809-2.275-28.057c-1.513-4.248-3.965-7.549-7.373-9.902c-3.407-2.353-7.51-3.524-12.295-3.524
	c-6.143,0-11.649,1.68-16.522,5.039c-4.883,3.368-8.224,7.821-10.029,13.368c-1.806,5.548-2.705,15.812-2.705,30.771v60.664H468.65
	V316.063h32.909v19.678c11.689-15.137,26.406-22.705,44.142-22.705c7.822,0,14.971,1.406,21.445,4.229
	c6.475,2.813,11.366,6.406,14.688,10.781s5.635,9.326,6.943,14.883c1.299,5.547,1.953,13.496,1.953,23.828v83.242H590.729z
	 M859.479,109.197v7.588h-42.5c-0.068-1.904,0.243-3.73,0.918-5.479c1.084-2.9,2.813-5.752,5.194-8.555
	c2.383-2.813,5.83-6.055,10.332-9.746c6.992-5.732,11.709-10.264,14.17-13.613c2.451-3.35,3.683-6.514,3.683-9.502
	c0-3.125-1.113-5.771-3.351-7.92c-2.246-2.148-5.155-3.223-8.76-3.223c-3.799,0-6.836,1.143-9.121,3.428
	c-2.274,2.275-3.438,5.439-3.467,9.473l-8.115-0.84c0.558-6.045,2.646-10.664,6.279-13.838c3.623-3.174,8.486-4.756,14.6-4.756
	c6.172,0,11.056,1.709,14.658,5.127c3.594,3.428,5.391,7.666,5.391,12.725c0,2.578-0.526,5.107-1.571,7.588
	c-1.056,2.49-2.804,5.107-5.244,7.852c-2.441,2.754-6.504,6.523-12.178,11.318c-4.736,3.975-7.773,6.68-9.121,8.096
	c-1.349,1.416-2.461,2.842-3.34,4.277H859.479z M830.132,171.755c-3.271-1.201-5.703-2.91-7.285-5.137
	c-1.571-2.217-2.362-4.883-2.362-7.979c0-4.678,1.68-8.613,5.039-11.807c3.369-3.184,7.842-4.775,13.428-4.775
	c5.615,0,10.137,1.631,13.555,4.893c3.418,3.262,5.137,7.227,5.137,11.904c0,2.988-0.791,5.586-2.354,7.793
	s-3.936,3.906-7.129,5.107c3.955,1.289,6.953,3.359,9.014,6.23c2.07,2.861,3.096,6.289,3.096,10.264
	c0,5.498-1.942,10.117-5.829,13.857c-3.896,3.75-9.015,5.615-15.361,5.615c-6.338,0-11.455-1.875-15.353-5.635
	c-3.887-3.76-5.83-8.447-5.83-14.063c0-4.18,1.056-7.676,3.185-10.498C823.198,174.705,826.216,172.781,830.132,171.755z
	 M826.011,188.074c0,2.256,0.527,4.434,1.603,6.533c1.063,2.109,2.656,3.74,4.756,4.893c2.081,1.146,4.421,1.74,6.797,1.729
	c3.779,0,6.895-1.211,9.346-3.633c2.461-2.432,3.691-5.518,3.691-9.258c0-3.799-1.271-6.943-3.799-9.434
	c-2.529-2.48-5.693-3.73-9.502-3.73c-3.711,0-6.787,1.23-9.229,3.691C827.23,181.316,826.011,184.392,826.011,188.074
	L826.011,188.074z M828.55,158.376c0,3.037,0.986,5.527,2.939,7.451c1.963,1.934,4.502,2.9,7.637,2.9
	c3.037,0,5.537-0.957,7.48-2.871c1.942-1.914,2.92-4.268,2.92-7.041c0-2.9-1.006-5.332-3.009-7.305
	c-2.002-1.973-4.502-2.959-7.479-2.959c-3.018,0-5.518,0.957-7.5,2.891C829.546,153.376,828.55,155.681,828.55,158.376
	L828.55,158.376z M797.749,296.462h-7.891V246.15c-1.904,1.807-4.396,3.623-7.48,5.439c-3.086,1.807-5.858,3.174-8.311,4.072v-7.627
	c4.414-2.08,8.271-4.59,11.582-7.549c3.301-2.949,5.645-5.82,7.012-8.594h5.088V296.462L797.749,296.462z M830.122,261.589
	c-3.271-1.201-5.703-2.91-7.285-5.137c-1.572-2.217-2.363-4.883-2.363-7.979c0-4.678,1.681-8.613,5.039-11.807
	c3.369-3.184,7.843-4.775,13.429-4.775c5.614,0,10.137,1.631,13.555,4.893c3.418,3.262,5.137,7.227,5.137,11.904
	c0,2.988-0.791,5.586-2.354,7.793c-1.563,2.207-3.937,3.906-7.129,5.107c3.955,1.289,6.953,3.359,9.014,6.23
	c2.07,2.861,3.096,6.289,3.096,10.264c0,5.498-1.942,10.117-5.83,13.857c-3.896,3.75-9.014,5.615-15.36,5.615
	c-6.339,0-11.455-1.875-15.353-5.635c-3.887-3.76-5.83-8.447-5.83-14.063c0-4.18,1.056-7.676,3.185-10.498
	C823.188,264.539,826.206,262.615,830.122,261.589L830.122,261.589z M826.001,277.908c0,2.256,0.527,4.434,1.603,6.533
	c1.063,2.109,2.655,3.74,4.756,4.893c2.081,1.146,4.421,1.74,6.797,1.729c3.778,0,6.895-1.211,9.346-3.633
	c2.461-2.432,3.691-5.518,3.691-9.258c0-3.799-1.271-6.943-3.8-9.434c-2.528-2.48-5.692-3.73-9.502-3.73
	c-3.711,0-6.786,1.23-9.229,3.691C827.222,271.15,826.001,274.226,826.001,277.908L826.001,277.908z M828.54,248.21
	c0,3.037,0.986,5.527,2.939,7.451c1.963,1.934,4.502,2.9,7.637,2.9c3.037,0,5.537-0.957,7.479-2.871
	c1.943-1.914,2.92-4.268,2.92-7.041c0-2.9-1.006-5.332-3.008-7.305c-2.002-1.973-4.502-2.959-7.479-2.959
	c-3.019,0-5.519,0.957-7.5,2.891C829.536,243.21,828.54,245.515,828.54,248.21L828.54,248.21z M797.749,386.306h-7.891v-50.313
	c-1.904,1.807-4.396,3.623-7.48,5.438c-3.086,1.808-5.858,3.175-8.311,4.072v-7.627c4.414-2.08,8.271-4.59,11.582-7.549
	c3.301-2.949,5.645-5.82,7.012-8.594h5.088V386.306L797.749,386.306z M830.122,351.433c-3.271-1.2-5.703-2.909-7.285-5.137
	c-1.572-2.217-2.363-4.883-2.363-7.979c0-4.679,1.681-8.613,5.039-11.808c3.369-3.184,7.843-4.774,13.429-4.774
	c5.614,0,10.137,1.631,13.555,4.893s5.137,7.228,5.137,11.904c0,2.987-0.791,5.586-2.354,7.793
	c-1.563,2.207-3.937,3.906-7.129,5.106c3.955,1.289,6.953,3.359,9.014,6.23c2.07,2.861,3.096,6.289,3.096,10.264
	c0,5.498-1.942,10.117-5.83,13.857c-3.896,3.75-9.014,5.615-15.36,5.615c-6.339,0-11.455-1.875-15.353-5.636
	c-3.887-3.76-5.83-8.446-5.83-14.063c0-4.181,1.056-7.676,3.185-10.498C823.188,354.382,826.206,352.458,830.122,351.433z
	 M826.001,367.751c0,2.256,0.527,4.434,1.603,6.533c1.063,2.108,2.655,3.74,4.756,4.893c2.081,1.146,4.421,1.74,6.797,1.729
	c3.778,0,6.895-1.211,9.346-3.633c2.461-2.433,3.691-5.519,3.691-9.259c0-3.799-1.271-6.942-3.8-9.434
	c-2.528-2.48-5.692-3.73-9.502-3.73c-3.711,0-6.786,1.23-9.229,3.691C827.222,360.994,826.001,364.07,826.001,367.751
	L826.001,367.751z M828.54,338.054c0,3.037,0.986,5.527,2.939,7.451c1.963,1.935,4.502,2.9,7.637,2.9
	c3.037,0,5.537-0.957,7.479-2.871c1.943-1.914,2.92-4.269,2.92-7.041c0-2.9-1.006-5.332-3.008-7.306
	c-2.002-1.973-4.502-2.959-7.479-2.959c-3.019,0-5.519,0.957-7.5,2.892C829.536,333.054,828.54,335.359,828.54,338.054
	L828.54,338.054z M843.296,476.145v-15.409h-27.899v-7.23l29.346-41.67h6.445v41.67h8.69v7.23h-8.69v15.409H843.296L843.296,476.145
	z M843.296,453.504v-28.995l-20.137,28.995H843.296z"/>
</svg>
