<?xml version="1.0" encoding="utf-8"?>
<!-- Generator: Adobe Illustrator 16.0.3, SVG Export Plug-In . SVG Version: 6.00 Build 0)  -->
<!DOCTYPE svg PUBLIC "-//W3C//DTD SVG 1.1//EN" "http://www.w3.org/Graphics/SVG/1.1/DTD/svg11.dtd">
<svg version="1.1" id="Layer_1" xmlns="http://www.w3.org/2000/svg" xmlns:xlink="http://www.w3.org/1999/xlink" x="0px" y="0px"
	 width="900px" height="900px" viewBox="0 0 900 900" enable-background="new 0 0 900 900" xml:space="preserve">
<path d="M39.561,134.06l14.531-1.23c1.074,7.07,3.574,12.393,7.5,15.957c3.916,3.555,8.643,5.342,14.18,5.342
	c6.66,0,12.305-2.51,16.914-7.539c4.609-5.02,6.924-11.68,6.924-19.99c0-7.891-2.217-14.121-6.65-18.682s-10.244-6.836-17.412-6.836
	c-4.463,0-8.486,1.006-12.07,3.037c-3.594,2.021-6.416,4.648-8.457,7.881l-13-1.7l10.918-57.89h56.045v13.223h-44.97L57.94,95.926
	c6.758-4.717,13.857-7.07,21.289-7.07c9.844,0,18.145,3.408,24.912,10.225s10.146,15.576,10.146,26.289
	c0,10.205-2.969,19.023-8.916,26.445c-7.227,9.131-17.09,13.691-29.6,13.691c-10.254,0-18.613-2.871-25.098-8.613
	C44.188,151.151,40.488,143.542,39.561,134.06z M179.258,163.582H165.42V75.398c-3.34,3.184-7.705,6.357-13.115,9.531
	c-5.4,3.184-10.264,5.566-14.561,7.158V78.708c7.734-3.643,14.502-8.047,20.293-13.223c5.791-5.176,9.893-10.205,12.305-15.068
	h8.916V163.582z M232.627,662.473l28.457-74.102h10.566l30.332,74.102H290.81l-8.643-22.44h-30.986l-8.135,22.44H232.627z
	 M254.014,632.043h25.117l-7.734-20.508c-2.354-6.25-4.111-11.367-5.254-15.371c-0.964,4.816-2.299,9.55-3.994,14.16
	L254.014,632.043L254.014,632.043z M308.652,662.473v-53.672h8.184v7.638c3.945-5.898,9.639-8.849,17.09-8.849
	c3.232,0,6.201,0.586,8.916,1.738c2.715,1.172,4.746,2.695,6.094,4.57c1.348,1.895,2.285,4.141,2.832,6.719
	c0.332,1.699,0.498,4.647,0.498,8.848v33.008h-9.092v-32.655c0-3.691-0.352-6.466-1.064-8.302c-0.703-1.836-1.963-3.301-3.76-4.395
	c-1.807-1.094-3.926-1.641-6.348-1.641c-3.877,0-7.217,1.229-10.029,3.672c-2.822,2.461-4.229,7.129-4.229,14.004v29.315
	L308.652,662.473L308.652,662.473z M386.084,654.348l1.309,8.027c-2.559,0.547-4.844,0.801-6.875,0.801
	c-3.301,0-5.859-0.508-7.676-1.563c-1.826-1.035-3.105-2.422-3.848-4.121c-0.743-1.699-1.104-5.273-1.104-10.742v-30.879h-6.68
	v-7.07h6.68V595.5l9.043-5.449v18.75h9.15v7.07h-9.15v31.387c0,2.599,0.156,4.277,0.479,5c0.322,0.742,0.84,1.349,1.572,1.777
	c0.723,0.449,1.758,0.664,3.105,0.664C383.096,654.699,384.434,654.582,386.084,654.348z M395.029,598.84v-10.469h9.102v10.469
	H395.029z M395.029,662.473v-53.672h9.102v53.672H395.029z M417.979,662.473v-53.672h8.135v7.521
	c1.688-2.617,3.926-4.728,6.719-6.328c2.803-1.603,5.986-2.402,9.562-2.402c3.975,0,7.235,0.82,9.774,2.48
	c2.549,1.641,4.336,3.944,5.381,6.914c4.248-6.271,9.775-9.396,16.582-9.396c5.322,0,9.414,1.465,12.285,4.414
	c2.861,2.949,4.297,7.5,4.297,13.633v36.836h-9.053v-33.809c0-3.633-0.293-6.271-0.879-7.852c-0.597-1.603-1.66-2.892-3.213-3.867
	c-1.554-0.977-3.369-1.465-5.459-1.465c-3.771,0-6.904,1.25-9.404,3.75c-2.49,2.52-3.74,6.543-3.74,12.069v31.172h-9.092v-34.862
	c0-4.043-0.742-7.091-2.227-9.103c-1.484-2.031-3.906-3.026-7.275-3.026c-2.568,0-4.932,0.664-7.109,2.012
	c-2.168,1.348-3.739,3.32-4.727,5.918c-0.978,2.598-1.465,6.328-1.465,11.211v27.852H417.979L417.979,662.473z M500.82,635.637
	c0-9.94,2.764-17.305,8.291-22.09c4.608-3.965,10.244-5.957,16.885-5.957c7.373,0,13.408,2.422,18.086,7.246
	c4.688,4.844,7.031,11.523,7.031,20.039c0,6.914-1.035,12.344-3.105,16.309c-2.08,3.966-5.088,7.031-9.053,9.22
	c-3.955,2.188-8.281,3.28-12.959,3.28c-7.52,0-13.594-2.401-18.223-7.227C503.135,651.652,500.82,644.699,500.82,635.637z
	 M510.166,635.637c0,6.875,1.504,12.031,4.502,15.449s6.777,5.117,11.328,5.117c4.512,0,8.271-1.719,11.27-5.156
	c2.999-3.437,4.492-8.672,4.492-15.703c0-6.641-1.504-11.68-4.521-15.098c-3.018-3.418-6.769-5.137-11.24-5.137
	c-4.551,0-8.33,1.719-11.328,5.116C511.671,623.624,510.166,628.762,510.166,635.637L510.166,635.637z M561.777,662.473v-53.672
	h8.184v7.638c3.945-5.898,9.639-8.849,17.09-8.849c3.232,0,6.201,0.586,8.916,1.738c2.715,1.172,4.746,2.695,6.095,4.57
	c1.348,1.895,2.284,4.141,2.831,6.719c0.332,1.699,0.498,4.647,0.498,8.848v33.008h-9.092v-32.655c0-3.691-0.352-6.466-1.063-8.302
	c-0.703-1.836-1.963-3.301-3.761-4.395c-1.807-1.094-3.926-1.641-6.348-1.641c-3.877,0-7.217,1.229-10.029,3.672
	c-2.821,2.461-4.229,7.129-4.229,14.004v29.315L561.777,662.473L561.777,662.473z M618.945,683.156l-1.006-8.556
	c1.981,0.548,3.721,0.82,5.205,0.82c2.021,0,3.643-0.352,4.854-1.016c1.213-0.682,2.237-1.655,2.979-2.832
	c0.575-0.918,1.504-3.164,2.782-6.777c0.166-0.508,0.439-1.25,0.812-2.227L614.2,608.799h9.805l11.172,31.074
	c1.488,4.084,2.786,8.236,3.888,12.441c1.032-4.139,2.281-8.22,3.739-12.228l11.476-31.289h9.102l-20.42,54.59
	c-2.197,5.898-3.896,9.961-5.106,12.188c-1.621,2.988-3.468,5.195-5.558,6.582c-2.09,1.406-4.59,2.108-7.479,2.108
	C623.057,684.27,621.104,683.898,618.945,683.156L618.945,683.156z M94.043,848.313h-9.102v-57.969
	c-2.188,2.09-5.059,4.181-8.613,6.271c-3.554,2.09-6.748,3.651-9.58,4.707v-8.81c5.088-2.383,9.541-5.293,13.35-8.69
	c3.799-3.398,6.504-6.699,8.086-9.902h5.859V848.313z M165.156,839.582v8.729h-48.975c-0.076-2.153,0.286-4.3,1.064-6.309
	c1.24-3.34,3.242-6.621,5.986-9.863c2.744-3.241,6.709-6.973,11.904-11.211c8.047-6.621,13.496-11.836,16.328-15.703
	c2.822-3.848,4.238-7.5,4.238-10.938c0-3.613-1.289-6.66-3.867-9.121c-2.578-2.479-5.938-3.729-10.078-3.729
	c-4.385,0-7.891,1.327-10.518,3.944c-2.627,2.638-3.955,6.271-3.994,10.918l-9.346-0.957c0.635-6.973,3.047-12.284,7.227-15.938
	c4.18-3.672,9.785-5.488,16.836-5.488c7.109,0,12.734,1.974,16.875,5.918c4.15,3.945,6.221,8.828,6.221,14.648
	c0,2.969-0.605,5.879-1.816,8.75c-1.221,2.871-3.232,5.879-6.045,9.043s-7.49,7.52-14.023,13.047
	c-5.459,4.57-8.965,7.695-10.518,9.315c-1.553,1.642-2.832,3.281-3.838,4.941h36.339V839.582z M209.18,848.313h-9.102v-57.969
	c-2.188,2.09-5.059,4.181-8.613,6.271c-3.554,2.09-6.748,3.651-9.58,4.707v-8.81c5.088-2.383,9.541-5.293,13.35-8.69
	c3.799-3.398,6.504-6.699,8.086-9.902h5.859V848.313z M237.598,848.313v-10.352h10.361v10.352H237.598z M261.855,783.918v-8.73
	h47.969v7.07c-4.717,5.021-9.395,11.699-14.023,20.021c-4.639,8.319-8.213,16.875-10.742,25.664
	c-1.826,6.211-2.988,12.987-3.486,20.37h-9.355c0.098-5.819,1.25-12.87,3.438-21.112c2.188-8.263,5.332-16.23,9.424-23.888
	c4.102-7.676,8.447-14.141,13.066-19.395H261.855L261.855,783.918z M366.025,792.355l-9.043,0.723
	c-0.811-3.574-1.953-6.172-3.438-7.793c-2.461-2.599-5.498-3.887-9.102-3.887c-2.9,0-5.439,0.801-7.627,2.422
	c-2.871,2.09-5.127,5.137-6.777,9.141c-1.65,4.023-2.51,9.727-2.578,17.148c2.188-3.341,4.873-5.82,8.037-7.441
	c3.164-1.602,6.484-2.422,9.961-2.422c6.064,0,11.221,2.227,15.488,6.699c4.258,4.473,6.396,10.233,6.396,17.305
	c0,4.648-1.006,8.984-3.008,12.969c-2.012,4.004-4.766,7.051-8.262,9.18c-3.506,2.13-7.49,3.185-11.934,3.185
	c-7.578,0-13.77-2.793-18.545-8.359c-4.795-5.586-7.178-14.766-7.178-27.578c0-14.315,2.637-24.727,7.93-31.229
	c4.619-5.664,10.83-8.496,18.652-8.496c5.83,0,10.605,1.641,14.326,4.902C363.057,782.082,365.283,786.594,366.025,792.355
	L366.025,792.355z M328.877,824.309c0,3.125,0.664,6.134,1.992,9.004c1.338,2.853,3.193,5.039,5.586,6.544
	c2.393,1.504,4.902,2.245,7.529,2.245c3.848,0,7.148-1.543,9.912-4.647c2.764-3.105,4.141-7.324,4.141-12.637
	c0-5.117-1.357-9.16-4.092-12.109c-2.725-2.949-6.162-4.414-10.313-4.414c-4.111,0-7.598,1.465-10.459,4.414
	C330.312,815.657,328.877,819.523,328.877,824.309L328.877,824.309z M287.256,389.841l36.318-3.535
	c2.188,12.197,6.621,21.152,13.301,26.865c6.689,5.723,15.703,8.574,27.061,8.574c12.021,0,21.074-2.539,27.178-7.627
	c6.094-5.088,9.141-11.035,9.141-17.853c0-4.364-1.279-8.086-3.848-11.151c-2.568-3.076-7.041-5.742-13.428-8.019
	c-4.375-1.504-14.336-4.199-29.893-8.065c-20.01-4.961-34.053-11.056-42.119-18.291c-11.357-10.166-17.031-22.568-17.031-37.197
	c0-9.424,2.666-18.232,8.008-26.426c5.342-8.194,13.037-14.443,23.086-18.73c10.039-4.287,22.168-6.426,36.377-6.426
	c23.213,0,40.674,5.088,52.401,15.254c11.729,10.176,17.892,23.76,18.478,40.742l-37.324,1.641
	c-1.602-9.502-5.029-16.338-10.283-20.498c-5.254-4.16-13.135-6.24-23.643-6.24c-10.85,0-19.346,2.227-25.479,6.68
	c-3.955,2.861-5.928,6.688-5.928,11.475c0,4.375,1.846,8.115,5.547,11.23c4.707,3.945,16.143,8.065,34.307,12.354
	s31.592,8.73,40.293,13.312c8.7,4.581,15.508,10.84,20.43,18.789s7.383,17.764,7.383,29.453c0,10.586-2.949,20.508-8.828,29.756
	c-5.889,9.258-14.209,16.123-24.971,20.625c-10.771,4.493-24.18,6.749-40.234,6.749c-23.379,0-41.328-5.401-53.857-16.211
	C297.168,426.267,289.688,410.525,287.256,389.841L287.256,389.841z M467.217,449.998V265.105h35.439v66.592
	c10.938-12.441,23.877-18.662,38.848-18.662c16.31,0,29.805,5.908,40.488,17.715c10.674,11.816,16.016,28.779,16.016,50.889
	c0,22.871-5.449,40.488-16.338,52.853c-10.889,12.354-24.111,18.536-39.658,18.536c-7.656,0-15.194-1.914-22.637-5.743
	c-7.441-3.818-13.857-9.474-19.238-16.963v19.678L467.217,449.998L467.217,449.998z M502.412,380.125
	c0,13.877,2.178,24.141,6.553,30.781c6.133,9.414,14.297,14.121,24.474,14.121c7.813,0,14.473-3.34,19.979-10.029
	c5.508-6.68,8.262-17.217,8.262-31.592c0-15.304-2.772-26.338-8.319-33.105c-5.547-6.767-12.656-10.146-21.318-10.146
	c-8.486,0-15.547,3.301-21.182,9.893C505.225,356.648,502.412,366.677,502.412,380.125L502.412,380.125z M859.297,109.197v7.588
	h-42.5c-0.068-1.904,0.244-3.73,0.918-5.479c1.084-2.9,2.813-5.752,5.195-8.555c2.383-2.813,5.83-6.055,10.332-9.746
	c6.992-5.732,11.709-10.264,14.17-13.613c2.451-3.35,3.682-6.514,3.682-9.502c0-3.125-1.112-5.771-3.35-7.92
	c-2.246-2.148-5.156-3.223-8.76-3.223c-3.8,0-6.836,1.143-9.121,3.428c-2.275,2.275-3.438,5.439-3.467,9.473l-8.115-0.84
	c0.557-6.045,2.646-10.664,6.279-13.838c3.622-3.174,8.485-4.756,14.6-4.756c6.172,0,11.055,1.709,14.658,5.127
	c3.594,3.428,5.391,7.666,5.391,12.725c0,2.578-0.527,5.107-1.572,7.588c-1.055,2.49-2.803,5.107-5.244,7.852
	c-2.44,2.754-6.504,6.523-12.178,11.318c-4.736,3.975-7.772,6.68-9.121,8.096c-1.348,1.416-2.461,2.842-3.34,4.277H859.297z
	 M829.951,171.755c-3.271-1.201-5.703-2.91-7.285-5.137c-1.572-2.217-2.363-4.883-2.363-7.979c0-4.678,1.681-8.613,5.039-11.807
	c3.369-3.184,7.842-4.775,13.428-4.775c5.615,0,10.138,1.631,13.556,4.893c3.418,3.262,5.137,7.227,5.137,11.904
	c0,2.988-0.791,5.586-2.354,7.793c-1.563,2.207-3.937,3.906-7.13,5.107c3.955,1.289,6.953,3.359,9.015,6.23
	c2.069,2.861,3.096,6.289,3.096,10.264c0,5.498-1.942,10.117-5.83,13.857c-3.896,3.75-9.014,5.615-15.36,5.615
	c-6.339,0-11.455-1.875-15.353-5.635c-3.887-3.76-5.83-8.447-5.83-14.063c0-4.18,1.055-7.676,3.185-10.498
	C823.018,174.705,826.035,172.781,829.951,171.755z M825.83,188.074c0,2.256,0.527,4.434,1.602,6.533
	c1.064,2.109,2.656,3.74,4.756,4.893c2.082,1.146,4.422,1.74,6.798,1.729c3.778,0,6.895-1.211,9.346-3.633
	c2.461-2.432,3.69-5.518,3.69-9.258c0-3.799-1.27-6.943-3.799-9.434c-2.528-2.48-5.692-3.73-9.502-3.73
	c-3.711,0-6.787,1.23-9.229,3.691C827.051,181.316,825.83,184.392,825.83,188.074L825.83,188.074z M828.369,158.376
	c0,3.037,0.986,5.527,2.938,7.451c1.964,1.934,4.503,2.9,7.638,2.9c3.037,0,5.537-0.957,7.479-2.871
	c1.943-1.914,2.92-4.268,2.92-7.041c0-2.9-1.006-5.332-3.008-7.305c-2.002-1.973-4.502-2.959-7.479-2.959
	c-3.019,0-5.519,0.957-7.5,2.891C829.365,153.376,828.369,155.681,828.369,158.376L828.369,158.376z M797.568,296.462h-7.892V246.15
	c-1.903,1.807-4.395,3.623-7.479,5.439c-3.086,1.807-5.859,3.174-8.312,4.072v-7.627c4.414-2.08,8.271-4.59,11.582-7.549
	c3.302-2.949,5.646-5.82,7.013-8.594h5.088V296.462L797.568,296.462z M829.941,261.589c-3.271-1.201-5.703-2.91-7.285-5.137
	c-1.572-2.217-2.363-4.883-2.363-7.979c0-4.678,1.68-8.613,5.039-11.807c3.369-3.184,7.842-4.775,13.428-4.775
	c5.615,0,10.138,1.631,13.556,4.893c3.418,3.262,5.137,7.227,5.137,11.904c0,2.988-0.791,5.586-2.354,7.793
	c-1.563,2.207-3.936,3.906-7.129,5.107c3.955,1.289,6.953,3.359,9.015,6.23c2.069,2.861,3.096,6.289,3.096,10.264
	c0,5.498-1.943,10.117-5.83,13.857c-3.896,3.75-9.014,5.615-15.361,5.615c-6.338,0-11.455-1.875-15.352-5.635
	c-3.888-3.76-5.83-8.447-5.83-14.063c0-4.18,1.055-7.676,3.184-10.498C823.008,264.539,826.025,262.615,829.941,261.589
	L829.941,261.589z M825.82,277.908c0,2.256,0.526,4.434,1.602,6.533c1.064,2.109,2.656,3.74,4.756,4.893
	c2.082,1.146,4.422,1.74,6.797,1.729c3.779,0,6.896-1.211,9.347-3.633c2.461-2.432,3.69-5.518,3.69-9.258
	c0-3.799-1.27-6.943-3.799-9.434c-2.529-2.48-5.693-3.73-9.502-3.73c-3.711,0-6.787,1.23-9.229,3.691
	C827.041,271.15,825.82,274.226,825.82,277.908L825.82,277.908z M828.359,248.21c0,3.037,0.985,5.527,2.938,7.451
	c1.963,1.934,4.502,2.9,7.638,2.9c3.036,0,5.536-0.957,7.479-2.871s2.92-4.268,2.92-7.041c0-2.9-1.006-5.332-3.008-7.305
	c-2.002-1.973-4.502-2.959-7.48-2.959c-3.018,0-5.518,0.957-7.5,2.891C829.355,243.21,828.359,245.515,828.359,248.21
	L828.359,248.21z M797.568,386.306h-7.892v-50.313c-1.903,1.807-4.395,3.623-7.479,5.438c-3.086,1.808-5.859,3.175-8.312,4.072
	v-7.627c4.414-2.08,8.271-4.59,11.582-7.549c3.302-2.949,5.646-5.82,7.013-8.594h5.088V386.306L797.568,386.306z M829.941,351.433
	c-3.271-1.2-5.703-2.909-7.285-5.137c-1.572-2.217-2.363-4.883-2.363-7.979c0-4.679,1.68-8.613,5.039-11.808
	c3.369-3.184,7.842-4.774,13.428-4.774c5.615,0,10.138,1.631,13.556,4.893s5.137,7.228,5.137,11.904
	c0,2.987-0.791,5.586-2.354,7.793c-1.563,2.207-3.936,3.906-7.129,5.106c3.955,1.289,6.953,3.359,9.015,6.23
	c2.069,2.861,3.096,6.289,3.096,10.264c0,5.498-1.943,10.117-5.83,13.857c-3.896,3.75-9.014,5.615-15.361,5.615
	c-6.338,0-11.455-1.875-15.352-5.636c-3.888-3.76-5.83-8.446-5.83-14.063c0-4.181,1.055-7.676,3.184-10.498
	C823.008,354.382,826.025,352.458,829.941,351.433z M825.82,367.751c0,2.256,0.526,4.434,1.602,6.533
	c1.064,2.108,2.656,3.74,4.756,4.893c2.082,1.146,4.422,1.74,6.797,1.729c3.779,0,6.896-1.211,9.347-3.633
	c2.461-2.433,3.69-5.519,3.69-9.259c0-3.799-1.27-6.942-3.799-9.434c-2.529-2.48-5.693-3.73-9.502-3.73
	c-3.711,0-6.787,1.23-9.229,3.691C827.041,360.994,825.82,364.07,825.82,367.751L825.82,367.751z M828.359,338.054
	c0,3.037,0.985,5.527,2.938,7.451c1.963,1.935,4.502,2.9,7.638,2.9c3.036,0,5.536-0.957,7.479-2.871s2.92-4.269,2.92-7.041
	c0-2.9-1.006-5.332-3.008-7.306c-2.002-1.973-4.502-2.959-7.48-2.959c-3.018,0-5.518,0.957-7.5,2.892
	C829.355,333.054,828.359,335.359,828.359,338.054L828.359,338.054z M817.803,459.289l8.291-0.703
	c0.615,4.043,2.041,7.07,4.277,9.102c2.236,2.032,4.932,3.048,8.096,3.048c3.799,0,7.012-1.427,9.648-4.298
	c2.627-2.852,3.944-6.659,3.944-11.399c0-4.502-1.27-8.057-3.799-10.655c-2.528-2.606-5.84-3.906-9.932-3.906
	c-2.539,0-4.844,0.576-6.885,1.729c-2.052,1.162-3.662,2.656-4.824,4.502l-7.412-0.967l6.221-33.027h31.982v7.539h-25.664
	l-3.467,17.285c3.867-2.687,7.91-4.033,12.158-4.033c5.614,0,10.352,1.943,14.209,5.83c3.856,3.896,5.791,8.896,5.791,15
	c0,5.814-1.699,10.854-5.089,15.092c-4.12,5.215-9.756,7.813-16.885,7.813c-5.85,0-10.625-1.642-14.326-4.922
	C820.439,469.055,818.33,464.699,817.803,459.289L817.803,459.289z"/>
</svg>
