<?xml version="1.0" encoding="utf-8"?>
<!-- Generator: Adobe Illustrator 16.0.3, SVG Export Plug-In . SVG Version: 6.00 Build 0)  -->
<!DOCTYPE svg PUBLIC "-//W3C//DTD SVG 1.1//EN" "http://www.w3.org/Graphics/SVG/1.1/DTD/svg11.dtd">
<svg version="1.1" id="Layer_1" xmlns="http://www.w3.org/2000/svg" xmlns:xlink="http://www.w3.org/1999/xlink" x="0px" y="0px"
	 width="900px" height="900px" viewBox="0 0 900 900" enable-background="new 0 0 900 900" xml:space="preserve">
<path d="M39.731,134.06l14.531-1.23c1.074,7.07,3.574,12.393,7.5,15.957c3.916,3.555,8.643,5.342,14.18,5.342
	c6.66,0,12.305-2.51,16.914-7.539c4.609-5.02,6.924-11.68,6.924-19.99c0-7.891-2.217-14.121-6.65-18.682s-10.244-6.836-17.412-6.836
	c-4.463,0-8.486,1.006-12.07,3.037c-3.594,2.021-6.416,4.648-8.457,7.881l-12.999-1.7L53.11,52.41h56.045v13.223h-44.97
	L58.11,95.925c6.758-4.717,13.857-7.07,21.289-7.07c9.844,0,18.145,3.408,24.912,10.225s10.146,15.576,10.146,26.289
	c0,10.205-2.969,19.023-8.916,26.445c-7.227,9.131-17.09,13.691-29.6,13.691c-10.254,0-18.613-2.871-25.098-8.613
	C44.358,151.15,40.659,143.542,39.731,134.06z M200.034,150.281v13.301h-74.502c-0.107-3.278,0.441-6.545,1.611-9.609
	c1.904-5.078,4.932-10.068,9.111-14.99c4.179-4.922,10.215-10.615,18.105-17.07c12.256-10.049,20.527-17.998,24.834-23.867
	s6.455-11.416,6.455-16.65c0-5.479-1.953-10.107-5.879-13.877c-3.916-3.77-9.033-5.645-15.332-5.645
	c-6.67,0-12.002,1.992-15.996,5.996c-3.994,3.994-6.025,9.531-6.074,16.602l-14.219-1.455c0.967-10.615,4.639-18.701,10.996-24.258
	c6.348-5.566,14.883-8.34,25.596-8.34c10.811,0,19.375,2.998,25.684,8.994c6.299,5.996,9.453,13.428,9.453,22.295
	c0,4.512-0.928,8.945-2.773,13.301c-1.836,4.355-4.902,8.945-9.18,13.76c-4.287,4.814-11.396,11.426-21.338,19.834
	c-8.301,6.973-13.633,11.699-15.986,14.18c-2.363,2.49-4.307,4.99-5.85,7.5h55.284V150.281z M267.749,662.473v-65.352h-24.414v-8.75
	h58.74v8.75h-24.521v65.352H267.749z M336.245,645.188l9.395,1.172c-1.484,5.487-4.229,9.746-8.232,12.772
	c-4.014,3.047-9.141,4.551-15.371,4.551c-7.852,0-14.072-2.401-18.672-7.245c-4.6-4.845-6.904-11.621-6.904-20.353
	c0-9.022,2.324-16.035,6.973-21.016c4.658-5,10.684-7.48,18.096-7.48c7.178,0,13.047,2.441,17.598,7.324
	c4.541,4.883,6.816,11.758,6.816,20.625c0,0.547-0.01,1.348-0.049,2.422h-40.029c0.332,5.898,2.002,10.41,5,13.555
	c2.998,3.125,6.738,4.688,11.221,4.688c3.34,0,6.182-0.859,8.545-2.617C332.995,651.829,334.858,649.035,336.245,645.188
	L336.245,645.188z M306.372,630.48h29.971c-0.41-4.513-1.553-7.892-3.438-10.156c-2.9-3.496-6.66-5.254-11.27-5.254
	c-4.18,0-7.695,1.387-10.537,4.198C308.247,622.063,306.675,625.793,306.372,630.48L306.372,630.48z M356.86,662.473v-74.102h9.102
	v74.102H356.86z M379.858,662.473v-74.102h9.102v74.102H379.858z M438.237,662.473v-7.871c-4.181,6.056-9.854,9.082-17.031,9.082
	c-3.174,0-6.123-0.604-8.877-1.815c-2.744-1.211-4.785-2.734-6.113-4.57s-2.266-4.082-2.803-6.737
	c-0.371-1.798-0.558-4.63-0.558-8.496v-33.263h9.103v29.767c0,4.746,0.186,7.948,0.557,9.608c0.566,2.384,1.777,4.277,3.634,5.625
	c1.854,1.367,4.149,2.052,6.875,2.052c2.733,0,5.293-0.703,7.686-2.091c2.393-1.405,4.082-3.301,5.078-5.723
	c0.996-2.402,1.494-5.898,1.494-10.488v-28.75h9.092v53.672L438.237,662.473L438.237,662.473z M460.521,662.473v-53.672h8.193v8.146
	c2.09-3.81,4.014-6.328,5.781-7.539c1.777-1.211,3.721-1.816,5.84-1.816c3.066,0,6.182,0.978,9.355,2.931l-3.136,8.438
	c-2.227-1.309-4.452-1.973-6.67-1.973c-1.992,0-3.778,0.604-5.36,1.797c-1.582,1.191-2.716,2.852-3.39,4.979
	c-1.006,3.242-1.514,6.777-1.514,10.605v28.104H460.521L460.521,662.473z M495.151,598.84v-10.469h9.102v10.469H495.151z
	 M495.151,662.473v-53.672h9.102v53.672H495.151z M553.276,662.473v-7.871c-4.181,6.056-9.854,9.082-17.031,9.082
	c-3.174,0-6.123-0.604-8.877-1.815c-2.744-1.211-4.785-2.734-6.113-4.57s-2.266-4.082-2.803-6.737
	c-0.371-1.798-0.558-4.63-0.558-8.496v-33.263h9.103v29.767c0,4.746,0.186,7.948,0.557,9.608c0.566,2.384,1.777,4.277,3.634,5.625
	c1.854,1.367,4.149,2.052,6.875,2.052c2.733,0,5.293-0.703,7.686-2.091c2.393-1.405,4.082-3.301,5.078-5.723
	c0.996-2.402,1.494-5.898,1.494-10.488v-28.75h9.092v53.672L553.276,662.473L553.276,662.473z M575.669,662.473v-53.672h8.135v7.521
	c1.689-2.617,3.927-4.728,6.72-6.328c2.803-1.603,5.985-2.402,9.561-2.402c3.975,0,7.236,0.82,9.775,2.48
	c2.549,1.641,4.336,3.944,5.381,6.914c4.248-6.271,9.774-9.396,16.582-9.396c5.322,0,9.414,1.465,12.285,4.414
	c2.86,2.949,4.297,7.5,4.297,13.633v36.836h-9.054v-33.809c0-3.633-0.293-6.271-0.879-7.852c-0.596-1.603-1.659-2.892-3.213-3.867
	c-1.553-0.977-3.369-1.465-5.459-1.465c-3.77,0-6.903,1.25-9.403,3.75c-2.49,2.52-3.74,6.543-3.74,12.069v31.172h-9.092v-34.862
	c0-4.043-0.742-7.091-2.228-9.103c-1.483-2.031-3.906-3.026-7.274-3.026c-2.568,0-4.933,0.664-7.109,2.012
	c-2.168,1.348-3.74,3.32-4.728,5.918c-0.977,2.598-1.465,6.328-1.465,11.211v27.852H575.669L575.669,662.473z M94.224,848.313
	h-9.102v-57.969c-2.188,2.09-5.059,4.181-8.613,6.271c-3.554,2.09-6.748,3.651-9.58,4.707v-8.81c5.088-2.383,9.541-5.293,13.35-8.69
	c3.799-3.398,6.504-6.699,8.086-9.902h5.859V848.313z M165.337,839.582v8.729h-48.975c-0.076-2.153,0.286-4.3,1.064-6.309
	c1.24-3.34,3.242-6.621,5.986-9.863c2.744-3.241,6.709-6.973,11.904-11.211c8.047-6.621,13.496-11.836,16.328-15.703
	c2.822-3.848,4.238-7.5,4.238-10.938c0-3.613-1.289-6.66-3.867-9.121c-2.578-2.479-5.938-3.729-10.078-3.729
	c-4.385,0-7.891,1.327-10.518,3.944c-2.627,2.638-3.955,6.271-3.994,10.918l-9.346-0.957c0.635-6.973,3.047-12.284,7.227-15.938
	c4.18-3.672,9.785-5.488,16.836-5.488c7.109,0,12.734,1.974,16.875,5.918c4.15,3.945,6.221,8.828,6.221,14.648
	c0,2.969-0.605,5.879-1.816,8.75c-1.221,2.871-3.232,5.879-6.045,9.043s-7.49,7.52-14.023,13.047
	c-5.459,4.57-8.965,7.695-10.518,9.315c-1.553,1.642-2.832,3.281-3.838,4.941h36.339V839.582z M175.698,783.918v-8.73h47.969v7.07
	c-4.717,5.021-9.395,11.699-14.023,20.021c-4.639,8.319-8.213,16.875-10.742,25.664c-1.826,6.211-2.988,12.987-3.486,20.37h-9.355
	c0.098-5.819,1.25-12.87,3.438-21.112c2.188-8.263,5.332-16.23,9.424-23.888c4.102-7.676,8.457-14.141,13.066-19.395H175.698z
	 M237.778,848.313v-10.352h10.361v10.352H237.778z M308.638,792.355l-9.043,0.723c-0.811-3.574-1.953-6.172-3.438-7.793
	c-2.461-2.599-5.498-3.887-9.102-3.887c-2.9,0-5.439,0.801-7.627,2.422c-2.871,2.09-5.127,5.137-6.777,9.141
	c-1.65,4.023-2.51,9.727-2.578,17.148c2.188-3.341,4.873-5.82,8.037-7.441c3.164-1.602,6.484-2.422,9.961-2.422
	c6.064,0,11.221,2.227,15.488,6.699c4.258,4.473,6.396,10.233,6.396,17.305c0,4.648-1.006,8.984-3.008,12.969
	c-2.012,4.004-4.766,7.051-8.262,9.18c-3.506,2.13-7.49,3.185-11.934,3.185c-7.578,0-13.77-2.793-18.545-8.359
	c-4.795-5.586-7.178-14.766-7.178-27.578c0-14.315,2.637-24.727,7.93-31.229c4.619-5.664,10.83-8.496,18.652-8.496
	c5.83,0,10.605,1.641,14.326,4.902C305.669,782.082,307.896,786.594,308.638,792.355L308.638,792.355z M271.489,824.309
	c0,3.125,0.664,6.134,1.992,9.004c1.338,2.853,3.193,5.039,5.586,6.544c2.393,1.504,4.902,2.245,7.529,2.245
	c3.848,0,7.148-1.543,9.912-4.647c2.764-3.105,4.141-7.324,4.141-12.637c0-5.117-1.357-9.16-4.092-12.109
	c-2.725-2.949-6.162-4.414-10.313-4.414c-4.111,0-7.598,1.465-10.459,4.414C272.924,815.657,271.489,819.523,271.489,824.309
	L271.489,824.309z M318.999,811.77c0-8.75,0.898-15.801,2.705-21.151c1.797-5.332,4.482-9.453,8.037-12.363
	c3.555-2.891,8.027-4.336,13.418-4.336c3.975,0,7.461,0.801,10.459,2.402c2.998,1.601,5.479,3.905,7.432,6.914
	c1.953,3.026,3.486,6.698,4.6,11.016c1.113,4.336,1.67,10.176,1.67,17.521c0,8.69-0.889,15.723-2.676,21.055
	c-1.787,5.352-4.463,9.473-8.018,12.383s-8.047,4.375-13.467,4.375c-7.148,0-12.754-2.559-16.836-7.676
	C321.44,835.734,318.999,825.695,318.999,811.77L318.999,811.77z M328.345,811.77c0,12.168,1.426,20.273,4.277,24.298
	c2.842,4.022,6.357,6.034,10.537,6.034c4.18,0,7.695-2.03,10.537-6.073c2.852-4.043,4.268-12.13,4.268-24.259
	c0-12.188-1.416-20.293-4.268-24.315c-2.842-4.004-6.396-6.017-10.635-6.017c-4.18,0-7.52,1.777-10.01,5.313
	C329.917,791.262,328.345,799.602,328.345,811.77L328.345,811.77z M362.388,449.998V296.384h-54.863v-31.279h146.934v31.279h-54.736
	v153.613L362.388,449.998L362.388,449.998z M536.686,407.371l35.313,5.928c-4.541,12.949-11.709,22.803-21.504,29.57
	c-9.795,6.767-22.051,10.157-36.769,10.157c-23.291,0-40.526-7.608-51.709-22.833c-8.827-12.188-13.241-27.568-13.241-46.152
	c0-22.197,5.801-39.58,17.412-52.148c11.602-12.567,26.27-18.856,44.014-18.856c19.922,0,35.645,6.582,47.168,19.735
	c11.514,13.164,17.021,33.32,16.522,60.479h-88.788c0.254,10.508,3.104,18.682,8.573,24.521c5.47,5.851,12.275,8.771,20.431,8.771
	c5.547,0,10.215-1.514,14.004-4.541C531.89,418.972,534.751,414.099,536.686,407.371z M538.696,371.55
	c-0.244-10.254-2.9-18.057-7.939-23.389c-5.049-5.342-11.182-8.008-18.418-8.008c-7.733,0-14.121,2.813-19.17,8.446
	c-5.039,5.636-7.52,13.281-7.441,22.949L538.696,371.55L538.696,371.55z M859.479,109.197v7.588h-42.5
	c-0.068-1.904,0.243-3.73,0.918-5.479c1.084-2.9,2.813-5.752,5.194-8.555c2.383-2.813,5.83-6.055,10.332-9.746
	c6.992-5.732,11.709-10.264,14.17-13.613c2.451-3.35,3.683-6.514,3.683-9.502c0-3.125-1.113-5.771-3.351-7.92
	c-2.246-2.148-5.155-3.223-8.76-3.223c-3.799,0-6.836,1.143-9.121,3.428c-2.274,2.275-3.438,5.439-3.467,9.473l-8.115-0.84
	c0.558-6.045,2.646-10.664,6.279-13.838c3.623-3.174,8.486-4.756,14.6-4.756c6.172,0,11.056,1.709,14.658,5.127
	c3.594,3.428,5.391,7.666,5.391,12.725c0,2.578-0.526,5.107-1.571,7.588c-1.056,2.49-2.804,5.107-5.244,7.852
	c-2.441,2.754-6.504,6.523-12.178,11.318c-4.736,3.975-7.773,6.68-9.121,8.096c-1.349,1.416-2.461,2.842-3.34,4.277H859.479z
	 M830.132,171.755c-3.271-1.201-5.703-2.91-7.285-5.137c-1.571-2.217-2.362-4.883-2.362-7.979c0-4.678,1.68-8.613,5.039-11.807
	c3.369-3.184,7.842-4.775,13.428-4.775c5.615,0,10.137,1.631,13.555,4.893c3.418,3.262,5.137,7.227,5.137,11.904
	c0,2.988-0.791,5.586-2.354,7.793s-3.936,3.906-7.129,5.107c3.955,1.289,6.953,3.359,9.014,6.23
	c2.07,2.861,3.096,6.289,3.096,10.264c0,5.498-1.942,10.117-5.829,13.857c-3.896,3.75-9.015,5.615-15.361,5.615
	c-6.338,0-11.455-1.875-15.353-5.635c-3.887-3.76-5.83-8.447-5.83-14.063c0-4.18,1.056-7.676,3.185-10.498
	C823.198,174.705,826.216,172.781,830.132,171.755z M826.011,188.074c0,2.256,0.527,4.434,1.603,6.533
	c1.063,2.109,2.656,3.74,4.756,4.893c2.081,1.146,4.421,1.74,6.797,1.729c3.779,0,6.895-1.211,9.346-3.633
	c2.461-2.432,3.691-5.518,3.691-9.258c0-3.799-1.271-6.943-3.799-9.434c-2.529-2.48-5.693-3.73-9.502-3.73
	c-3.711,0-6.787,1.23-9.229,3.691C827.23,181.316,826.011,184.392,826.011,188.074L826.011,188.074z M828.55,158.376
	c0,3.037,0.986,5.527,2.939,7.451c1.963,1.934,4.502,2.9,7.637,2.9c3.037,0,5.537-0.957,7.48-2.871
	c1.942-1.914,2.92-4.268,2.92-7.041c0-2.9-1.006-5.332-3.009-7.305c-2.002-1.973-4.502-2.959-7.479-2.959
	c-3.018,0-5.518,0.957-7.5,2.891C829.546,153.376,828.55,155.681,828.55,158.376L828.55,158.376z M797.749,296.462h-7.891V246.15
	c-1.904,1.807-4.396,3.623-7.48,5.439c-3.086,1.807-5.858,3.174-8.311,4.072v-7.627c4.414-2.08,8.271-4.59,11.582-7.549
	c3.301-2.949,5.645-5.82,7.012-8.594h5.088V296.462L797.749,296.462z M830.122,261.589c-3.271-1.201-5.703-2.91-7.285-5.137
	c-1.572-2.217-2.363-4.883-2.363-7.979c0-4.678,1.681-8.613,5.039-11.807c3.369-3.184,7.843-4.775,13.429-4.775
	c5.614,0,10.137,1.631,13.555,4.893c3.418,3.262,5.137,7.227,5.137,11.904c0,2.988-0.791,5.586-2.354,7.793
	c-1.563,2.207-3.937,3.906-7.129,5.107c3.955,1.289,6.953,3.359,9.014,6.23c2.07,2.861,3.096,6.289,3.096,10.264
	c0,5.498-1.942,10.117-5.83,13.857c-3.896,3.75-9.014,5.615-15.36,5.615c-6.339,0-11.455-1.875-15.353-5.635
	c-3.887-3.76-5.83-8.447-5.83-14.063c0-4.18,1.056-7.676,3.185-10.498C823.188,264.539,826.206,262.615,830.122,261.589
	L830.122,261.589z M826.001,277.908c0,2.256,0.527,4.434,1.603,6.533c1.063,2.109,2.655,3.74,4.756,4.893
	c2.081,1.146,4.421,1.74,6.797,1.729c3.778,0,6.895-1.211,9.346-3.633c2.461-2.432,3.691-5.518,3.691-9.258
	c0-3.799-1.271-6.943-3.8-9.434c-2.528-2.48-5.692-3.73-9.502-3.73c-3.711,0-6.786,1.23-9.229,3.691
	C827.222,271.15,826.001,274.226,826.001,277.908L826.001,277.908z M828.54,248.21c0,3.037,0.986,5.527,2.939,7.451
	c1.963,1.934,4.502,2.9,7.637,2.9c3.037,0,5.537-0.957,7.479-2.871c1.943-1.914,2.92-4.268,2.92-7.041
	c0-2.9-1.006-5.332-3.008-7.305c-2.002-1.973-4.502-2.959-7.479-2.959c-3.019,0-5.519,0.957-7.5,2.891
	C829.536,243.21,828.54,245.515,828.54,248.21L828.54,248.21z M797.749,386.306h-7.891v-50.313c-1.904,1.807-4.396,3.623-7.48,5.438
	c-3.086,1.808-5.858,3.175-8.311,4.072v-7.627c4.414-2.08,8.271-4.59,11.582-7.549c3.301-2.949,5.645-5.82,7.012-8.594h5.088
	V386.306L797.749,386.306z M830.122,351.433c-3.271-1.2-5.703-2.909-7.285-5.137c-1.572-2.217-2.363-4.883-2.363-7.979
	c0-4.679,1.681-8.613,5.039-11.808c3.369-3.184,7.843-4.774,13.429-4.774c5.614,0,10.137,1.631,13.555,4.893
	s5.137,7.228,5.137,11.904c0,2.987-0.791,5.586-2.354,7.793c-1.563,2.207-3.937,3.906-7.129,5.106
	c3.955,1.289,6.953,3.359,9.014,6.23c2.07,2.861,3.096,6.289,3.096,10.264c0,5.498-1.942,10.117-5.83,13.857
	c-3.896,3.75-9.014,5.615-15.36,5.615c-6.339,0-11.455-1.875-15.353-5.636c-3.887-3.76-5.83-8.446-5.83-14.063
	c0-4.181,1.056-7.676,3.185-10.498C823.188,354.382,826.206,352.458,830.122,351.433z M826.001,367.751
	c0,2.256,0.527,4.434,1.603,6.533c1.063,2.108,2.655,3.74,4.756,4.893c2.081,1.146,4.421,1.74,6.797,1.729
	c3.778,0,6.895-1.211,9.346-3.633c2.461-2.433,3.691-5.519,3.691-9.259c0-3.799-1.271-6.942-3.8-9.434
	c-2.528-2.48-5.692-3.73-9.502-3.73c-3.711,0-6.786,1.23-9.229,3.691C827.222,360.994,826.001,364.07,826.001,367.751
	L826.001,367.751z M828.54,338.054c0,3.037,0.986,5.527,2.939,7.451c1.963,1.935,4.502,2.9,7.637,2.9
	c3.037,0,5.537-0.957,7.479-2.871c1.943-1.914,2.92-4.269,2.92-7.041c0-2.9-1.006-5.332-3.008-7.306
	c-2.002-1.973-4.502-2.959-7.479-2.959c-3.019,0-5.519,0.957-7.5,2.892C829.536,333.054,828.54,335.359,828.54,338.054
	L828.54,338.054z M858.95,427.576l-7.853,0.615c-0.703-3.097-1.688-5.353-2.979-6.748c-2.139-2.257-4.766-3.379-7.9-3.379
	c-2.51,0-4.717,0.702-6.621,2.1c-2.489,1.816-4.442,4.463-5.879,7.938c-1.436,3.486-2.178,8.438-2.235,14.873
	c1.903-2.891,4.229-5.049,6.973-6.444c2.754-1.406,5.635-2.109,8.643-2.109c5.265,0,9.746,1.943,13.447,5.812
	c3.701,3.877,5.547,8.887,5.547,15.029c0,4.027-0.869,7.777-2.606,11.254c-1.738,3.457-4.131,6.113-7.179,7.949
	c-3.036,1.855-6.483,2.773-10.352,2.773c-6.582,0-11.943-2.422-16.094-7.267c-4.16-4.844-6.23-12.807-6.23-23.92
	c0-12.432,2.295-21.475,6.886-27.119c4.004-4.911,9.403-7.362,16.19-7.362c5.06,0,9.199,1.416,12.432,4.258
	C856.372,418.66,858.306,422.576,858.95,427.576L858.95,427.576z M826.714,455.301c0,2.726,0.576,5.316,1.729,7.816
	c1.151,2.479,2.772,4.375,4.854,5.684c2.07,1.289,4.248,1.935,6.533,1.935c3.33,0,6.201-1.328,8.594-4.023
	c2.402-2.695,3.604-6.348,3.604-10.971c0-4.443-1.191-7.95-3.556-10.508c-2.373-2.56-5.352-3.839-8.955-3.839
	c-3.563,0-6.592,1.279-9.071,3.839C827.954,447.791,826.714,451.15,826.714,455.301L826.714,455.301z"/>
</svg>
