<?xml version="1.0" encoding="utf-8"?>
<!-- Generator: Adobe Illustrator 16.0.3, SVG Export Plug-In . SVG Version: 6.00 Build 0)  -->
<!DOCTYPE svg PUBLIC "-//W3C//DTD SVG 1.1//EN" "http://www.w3.org/Graphics/SVG/1.1/DTD/svg11.dtd">
<svg version="1.1" id="Layer_1" xmlns="http://www.w3.org/2000/svg" xmlns:xlink="http://www.w3.org/1999/xlink" x="0px" y="0px"
	 width="900px" height="900px" viewBox="0 0 900 900" enable-background="new 0 0 900 900" xml:space="preserve">
<path d="M39.736,134.06l14.531-1.23c1.074,7.07,3.574,12.393,7.5,15.957c3.916,3.555,8.643,5.342,14.18,5.342
	c6.66,0,12.305-2.51,16.914-7.539c4.609-5.02,6.924-11.68,6.924-19.99c0-7.891-2.217-14.121-6.65-18.682
	c-4.433-4.561-10.244-6.836-17.412-6.836c-4.463,0-8.486,1.006-12.07,3.037c-3.594,2.021-6.416,4.648-8.457,7.881l-12.999-1.7
	l10.918-57.89h56.045v13.223H64.189l-6.074,30.293c6.758-4.717,13.857-7.07,21.289-7.07c9.844,0,18.145,3.408,24.912,10.225
	s10.146,15.576,10.146,26.289c0,10.205-2.969,19.023-8.916,26.445c-7.227,9.131-17.09,13.691-29.6,13.691
	c-10.254,0-18.613-2.871-25.098-8.613C44.363,151.151,40.664,143.542,39.736,134.06z M127.383,133.826l13.838-1.846
	c1.592,7.842,4.297,13.496,8.115,16.953c3.818,3.467,8.467,5.195,13.955,5.195c6.504,0,12.002-2.256,16.484-6.768
	c4.482-4.512,6.729-10.098,6.729-16.758c0-6.357-2.08-11.602-6.23-15.723c-4.15-4.131-9.424-6.191-15.83-6.191
	c-2.617,0-5.869,0.518-9.766,1.533l1.533-12.139c0.928,0.098,1.67,0.146,2.236,0.146c5.889,0,11.191-1.533,15.908-4.609
	c4.717-3.076,7.07-7.813,7.07-14.219c0-5.078-1.709-9.277-5.146-12.617c-3.438-3.33-7.871-4.99-13.301-4.99
	c-5.381,0-9.863,1.689-13.457,5.068c-3.584,3.389-5.889,8.457-6.914,15.225l-13.838-2.461c1.689-9.277,5.537-16.465,11.533-21.563
	c5.996-5.098,13.447-7.646,22.373-7.646c6.143,0,11.807,1.318,16.982,3.955c5.175,2.637,9.141,6.24,11.885,10.801
	c2.734,4.561,4.111,9.404,4.111,14.531c0,4.873-1.309,9.307-3.926,13.301c-2.607,3.994-6.484,7.178-11.602,9.531
	c6.66,1.543,11.836,4.727,15.527,9.57c3.691,4.843,5.537,10.908,5.537,18.184c0,9.844-3.594,18.184-10.762,25.029
	c-7.178,6.836-16.25,10.264-27.217,10.264c-9.893,0-18.105-2.949-24.648-8.848C132.031,150.847,128.311,143.21,127.383,133.826
	L127.383,133.826z M317.354,662.473v-74.102h9.805v74.102H317.354z M339.893,635.637c0-9.94,2.764-17.305,8.291-22.09
	c4.609-3.965,10.244-5.957,16.885-5.957c7.373,0,13.408,2.422,18.086,7.246c4.688,4.844,7.031,11.523,7.031,20.039
	c0,6.914-1.035,12.344-3.105,16.309c-2.08,3.966-5.088,7.031-9.053,9.22c-3.955,2.188-8.281,3.28-12.959,3.28
	c-7.52,0-13.594-2.401-18.223-7.227C342.207,651.652,339.893,644.699,339.893,635.637L339.893,635.637z M349.238,635.637
	c0,6.875,1.504,12.031,4.502,15.449s6.777,5.117,11.328,5.117c4.512,0,8.271-1.719,11.27-5.156
	c2.999-3.437,4.492-8.672,4.492-15.703c0-6.641-1.504-11.68-4.521-15.098s-6.768-5.137-11.24-5.137
	c-4.551,0-8.33,1.719-11.328,5.116C350.743,623.624,349.238,628.762,349.238,635.637L349.238,635.637z M435.674,662.473v-6.776
	c-3.408,5.332-8.408,7.987-15.01,7.987c-4.287,0-8.213-1.172-11.807-3.534c-3.584-2.363-6.367-5.646-8.341-9.884
	c-1.973-4.219-2.959-9.082-2.959-14.569c0-5.371,0.898-10.216,2.687-14.591c1.777-4.354,4.463-7.715,8.037-10.038
	c3.563-2.324,7.559-3.478,11.973-3.478c3.232,0,6.123,0.685,8.643,2.051c2.529,1.349,4.591,3.125,6.173,5.332v-26.602h9.043v74.102
	H435.674L435.674,662.473z M406.914,635.695c0,6.875,1.445,12.012,4.346,15.409c2.901,3.398,6.318,5.099,10.265,5.099
	c3.975,0,7.354-1.621,10.127-4.863c2.782-3.262,4.17-8.223,4.17-14.902c0-7.344-1.416-12.733-4.238-16.172
	c-2.832-3.438-6.318-5.155-10.469-5.155c-4.043,0-7.422,1.659-10.138,4.961C408.271,623.371,406.914,628.586,406.914,635.695
	L406.914,635.695z M458.467,598.84v-10.469h9.103v10.469H458.467z M458.467,662.473v-53.672h9.103v53.672H458.467z M481.416,662.473
	v-53.672h8.184v7.637c3.945-5.897,9.64-8.848,17.091-8.848c3.231,0,6.2,0.586,8.916,1.738c2.715,1.172,4.745,2.695,6.094,4.57
	c1.348,1.895,2.285,4.141,2.832,6.719c0.332,1.699,0.498,4.647,0.498,8.848v33.008h-9.093v-32.655c0-3.691-0.352-6.466-1.063-8.302
	c-0.703-1.836-1.963-3.301-3.76-4.395c-1.808-1.094-3.927-1.642-6.349-1.642c-3.877,0-7.217,1.23-10.028,3.673
	c-2.822,2.461-4.229,7.129-4.229,14.004v29.315L481.416,662.473L481.416,662.473z M575.742,645.188l9.395,1.173
	c-1.483,5.487-4.229,9.745-8.231,12.772c-4.015,3.047-9.142,4.551-15.371,4.551c-7.853,0-14.072-2.401-18.672-7.245
	c-4.601-4.845-6.904-11.621-6.904-20.353c0-9.022,2.324-16.035,6.973-21.016c4.658-5,10.685-7.48,18.097-7.48
	c7.178,0,13.047,2.441,17.598,7.324c4.541,4.883,6.816,11.758,6.816,20.625c0,0.547-0.011,1.348-0.049,2.422h-40.029
	c0.332,5.898,2.002,10.41,5,13.555c2.998,3.125,6.738,4.688,11.221,4.688c3.34,0,6.182-0.859,8.545-2.617
	S574.355,649.035,575.742,645.188L575.742,645.188z M545.869,630.48h29.971c-0.41-4.513-1.553-7.892-3.438-10.156
	c-2.9-3.496-6.66-5.254-11.271-5.254c-4.18,0-7.694,1.387-10.537,4.198C547.744,622.063,546.172,625.793,545.869,630.48
	L545.869,630.48z M94.219,848.313h-9.102v-57.969c-2.188,2.09-5.059,4.181-8.613,6.271c-3.554,2.09-6.748,3.651-9.58,4.707v-8.81
	c5.088-2.383,9.541-5.293,13.35-8.69c3.799-3.398,6.504-6.699,8.086-9.902h5.859V848.313z M165.332,839.582v8.729h-48.975
	c-0.076-2.153,0.286-4.3,1.064-6.309c1.24-3.34,3.242-6.621,5.986-9.863c2.744-3.241,6.709-6.973,11.904-11.211
	c8.047-6.621,13.496-11.836,16.328-15.703c2.822-3.848,4.238-7.5,4.238-10.938c0-3.613-1.289-6.66-3.867-9.121
	c-2.578-2.479-5.938-3.729-10.078-3.729c-4.385,0-7.891,1.327-10.518,3.944c-2.627,2.638-3.955,6.271-3.994,10.918l-9.346-0.957
	c0.635-6.973,3.047-12.284,7.227-15.938c4.18-3.672,9.785-5.488,16.836-5.488c7.109,0,12.734,1.974,16.875,5.918
	c4.15,3.945,6.221,8.828,6.221,14.648c0,2.969-0.605,5.879-1.816,8.75c-1.221,2.871-3.232,5.879-6.045,9.043
	s-7.49,7.52-14.023,13.047c-5.459,4.57-8.965,7.695-10.518,9.315c-1.553,1.642-2.832,3.281-3.838,4.941h36.339V839.582z
	 M222.295,792.355l-9.043,0.723c-0.811-3.574-1.953-6.172-3.438-7.793c-2.461-2.599-5.498-3.887-9.102-3.887
	c-2.9,0-5.439,0.801-7.627,2.422c-2.871,2.09-5.127,5.137-6.777,9.141c-1.65,4.023-2.51,9.727-2.578,17.148
	c2.188-3.341,4.873-5.82,8.037-7.441c3.164-1.602,6.484-2.422,9.961-2.422c6.064,0,11.221,2.227,15.488,6.699
	c4.258,4.473,6.396,10.233,6.396,17.305c0,4.648-1.006,8.984-3.008,12.969c-2.012,4.004-4.766,7.051-8.262,9.18
	c-3.506,2.13-7.49,3.185-11.934,3.185c-7.578,0-13.77-2.793-18.545-8.359c-4.795-5.586-7.178-14.766-7.178-27.578
	c0-14.315,2.637-24.727,7.93-31.229c4.619-5.664,10.83-8.496,18.652-8.496c5.83,0,10.605,1.641,14.326,4.902
	C219.326,782.082,221.553,786.594,222.295,792.355z M185.146,824.309c0,3.125,0.664,6.134,1.992,9.004
	c1.338,2.853,3.193,5.039,5.586,6.544c2.393,1.504,4.902,2.245,7.529,2.245c3.848,0,7.148-1.543,9.912-4.647
	c2.764-3.105,4.141-7.324,4.141-12.637c0-5.117-1.357-9.16-4.092-12.109c-2.725-2.949-6.162-4.414-10.313-4.414
	c-4.111,0-7.598,1.465-10.459,4.414C186.581,815.657,185.146,819.523,185.146,824.309z M237.773,848.313v-10.352h10.361v10.352
	H237.773z M262.793,831.184l8.74-0.801c0.742,4.103,2.158,7.09,4.248,8.945c2.09,1.854,4.766,2.772,8.037,2.772
	c2.793,0,5.244-0.645,7.354-1.914c2.109-1.288,3.828-2.987,5.176-5.137c1.348-2.149,2.48-5.039,3.389-8.672
	c0.909-3.633,1.367-7.344,1.367-11.113c0-0.409-0.02-1.016-0.049-1.815c-1.826,2.891-4.307,5.233-7.461,7.051
	c-3.145,1.797-6.563,2.695-10.234,2.695c-6.133,0-11.318-2.228-15.566-6.681c-4.248-4.434-6.367-10.293-6.367-17.577
	c0-7.521,2.217-13.574,6.65-18.146c4.424-4.59,9.98-6.875,16.65-6.875c4.814,0,9.229,1.289,13.213,3.887
	c3.994,2.599,7.031,6.289,9.102,11.095c2.071,4.805,3.105,11.758,3.105,20.858c0,9.474-1.025,17.013-3.076,22.617
	c-2.061,5.604-5.117,9.883-9.18,12.813c-4.063,2.93-8.818,4.395-14.277,4.395c-5.791,0-10.527-1.602-14.199-4.824
	C265.743,841.536,263.535,837.004,262.793,831.184L262.793,831.184z M300.039,798.488c0-5.234-1.387-9.375-4.17-12.441
	c-2.773-3.065-6.123-4.609-10.029-4.609c-4.043,0-7.568,1.66-10.566,4.962c-2.998,3.301-4.502,7.577-4.502,12.831
	c0,4.728,1.426,8.556,4.277,11.505c2.842,2.948,6.357,4.434,10.537,4.434c4.209,0,7.676-1.484,10.391-4.434
	C298.682,807.785,300.039,803.703,300.039,798.488L300.039,798.488z M318.994,811.77c0-8.75,0.898-15.801,2.705-21.151
	c1.797-5.332,4.482-9.453,8.037-12.363c3.555-2.891,8.027-4.336,13.418-4.336c3.975,0,7.461,0.801,10.459,2.402
	c2.998,1.601,5.479,3.905,7.432,6.914c1.953,3.026,3.486,6.698,4.6,11.016c1.113,4.336,1.67,10.176,1.67,17.521
	c0,8.69-0.889,15.723-2.676,21.055c-1.787,5.352-4.463,9.473-8.018,12.383c-3.555,2.91-8.047,4.375-13.467,4.375
	c-7.148,0-12.754-2.559-16.836-7.676C321.436,835.734,318.994,825.695,318.994,811.77z M328.34,811.77
	c0,12.168,1.426,20.273,4.277,24.298c2.842,4.022,6.357,6.034,10.537,6.034c4.18,0,7.695-2.03,10.537-6.073
	c2.852-4.043,4.268-12.13,4.268-24.259c0-12.188-1.416-20.293-4.268-24.315c-2.842-4.004-6.396-6.017-10.635-6.017
	c-4.18,0-7.52,1.777-10.01,5.313C329.912,791.262,328.34,799.602,328.34,811.77L328.34,811.77z M424.883,449.998V265.105h37.334
	v184.893H424.883L424.883,449.998z M859.473,109.197v7.588h-42.5c-0.067-1.904,0.244-3.73,0.918-5.479
	c1.084-2.9,2.813-5.752,5.195-8.555c2.383-2.813,5.83-6.055,10.332-9.746c6.992-5.732,11.709-10.264,14.17-13.613
	c2.451-3.35,3.682-6.514,3.682-9.502c0-3.125-1.112-5.771-3.35-7.92c-2.246-2.148-5.156-3.223-8.76-3.223
	c-3.799,0-6.836,1.143-9.121,3.428c-2.275,2.275-3.438,5.439-3.467,9.473l-8.115-0.84c0.557-6.045,2.646-10.664,6.279-13.838
	c3.623-3.174,8.485-4.756,14.6-4.756c6.172,0,11.055,1.709,14.658,5.127c3.594,3.428,5.391,7.666,5.391,12.725
	c0,2.578-0.526,5.107-1.571,7.588c-1.056,2.49-2.804,5.107-5.244,7.852c-2.441,2.754-6.504,6.523-12.179,11.318
	c-4.735,3.975-7.772,6.68-9.12,8.096c-1.349,1.416-2.462,2.842-3.341,4.277H859.473z M830.127,171.755
	c-3.271-1.201-5.703-2.91-7.285-5.137c-1.572-2.217-2.362-4.883-2.362-7.979c0-4.678,1.68-8.613,5.038-11.807
	c3.369-3.184,7.843-4.775,13.429-4.775c5.614,0,10.137,1.631,13.555,4.893c3.418,3.262,5.137,7.227,5.137,11.904
	c0,2.988-0.791,5.586-2.354,7.793c-1.563,2.207-3.937,3.906-7.129,5.107c3.955,1.289,6.953,3.359,9.014,6.23
	c2.07,2.861,3.096,6.289,3.096,10.264c0,5.498-1.942,10.117-5.83,13.857c-3.896,3.75-9.014,5.615-15.36,5.615
	c-6.338,0-11.455-1.875-15.353-5.635c-3.887-3.76-5.83-8.447-5.83-14.063c0-4.18,1.056-7.676,3.185-10.498
	C823.193,174.705,826.211,172.781,830.127,171.755z M826.006,188.074c0,2.256,0.527,4.434,1.603,6.533
	c1.063,2.109,2.655,3.74,4.756,4.893c2.081,1.146,4.421,1.74,6.797,1.729c3.779,0,6.895-1.211,9.346-3.633
	c2.461-2.432,3.691-5.518,3.691-9.258c0-3.799-1.271-6.943-3.799-9.434c-2.529-2.48-5.693-3.73-9.503-3.73
	c-3.711,0-6.786,1.23-9.229,3.691C827.227,181.316,826.006,184.392,826.006,188.074L826.006,188.074z M828.545,158.376
	c0,3.037,0.986,5.527,2.939,7.451c1.963,1.934,4.502,2.9,7.637,2.9c3.037,0,5.537-0.957,7.48-2.871
	c1.942-1.914,2.92-4.268,2.92-7.041c0-2.9-1.007-5.332-3.009-7.305c-2.002-1.973-4.502-2.959-7.479-2.959
	c-3.019,0-5.519,0.957-7.5,2.891C829.541,153.376,828.545,155.681,828.545,158.376L828.545,158.376z M797.744,296.462h-7.891V246.15
	c-1.904,1.807-4.396,3.623-7.48,5.439c-3.086,1.807-5.859,3.174-8.311,4.072v-7.627c4.414-2.08,8.271-4.59,11.582-7.549
	c3.301-2.949,5.645-5.82,7.012-8.594h5.088V296.462L797.744,296.462z M830.117,261.589c-3.271-1.201-5.703-2.91-7.285-5.137
	c-1.572-2.217-2.363-4.883-2.363-7.979c0-4.678,1.681-8.613,5.039-11.807c3.369-3.184,7.842-4.775,13.428-4.775
	c5.615,0,10.138,1.631,13.556,4.893c3.418,3.262,5.137,7.227,5.137,11.904c0,2.988-0.791,5.586-2.354,7.793
	c-1.563,2.207-3.937,3.906-7.13,5.107c3.955,1.289,6.953,3.359,9.015,6.23c2.069,2.861,3.096,6.289,3.096,10.264
	c0,5.498-1.942,10.117-5.83,13.857c-3.896,3.75-9.014,5.615-15.36,5.615c-6.339,0-11.455-1.875-15.353-5.635
	c-3.887-3.76-5.83-8.447-5.83-14.063c0-4.18,1.055-7.676,3.185-10.498C823.184,264.539,826.201,262.615,830.117,261.589
	L830.117,261.589z M825.996,277.908c0,2.256,0.527,4.434,1.602,6.533c1.064,2.109,2.656,3.74,4.756,4.893
	c2.082,1.146,4.422,1.74,6.798,1.729c3.778,0,6.895-1.211,9.346-3.633c2.461-2.432,3.69-5.518,3.69-9.258
	c0-3.799-1.27-6.943-3.799-9.434c-2.528-2.48-5.692-3.73-9.502-3.73c-3.711,0-6.787,1.23-9.229,3.691
	C827.217,271.15,825.996,274.226,825.996,277.908L825.996,277.908z M828.535,248.21c0,3.037,0.986,5.527,2.938,7.451
	c1.964,1.934,4.503,2.9,7.638,2.9c3.037,0,5.537-0.957,7.479-2.871c1.943-1.914,2.92-4.268,2.92-7.041
	c0-2.9-1.006-5.332-3.008-7.305c-2.002-1.973-4.502-2.959-7.479-2.959c-3.019,0-5.519,0.957-7.5,2.891
	C829.531,243.21,828.535,245.515,828.535,248.21L828.535,248.21z M797.744,386.306h-7.891v-50.313
	c-1.904,1.807-4.396,3.623-7.48,5.438c-3.086,1.808-5.859,3.175-8.311,4.072v-7.627c4.414-2.08,8.271-4.59,11.582-7.549
	c3.301-2.949,5.645-5.82,7.012-8.594h5.088V386.306L797.744,386.306z M830.117,351.433c-3.271-1.2-5.703-2.909-7.285-5.137
	c-1.572-2.217-2.363-4.883-2.363-7.979c0-4.679,1.681-8.613,5.039-11.808c3.369-3.184,7.842-4.774,13.428-4.774
	c5.615,0,10.138,1.631,13.556,4.893s5.137,7.228,5.137,11.904c0,2.987-0.791,5.586-2.354,7.793c-1.563,2.207-3.937,3.906-7.13,5.106
	c3.955,1.289,6.953,3.359,9.015,6.23c2.069,2.861,3.096,6.289,3.096,10.264c0,5.498-1.942,10.117-5.83,13.857
	c-3.896,3.75-9.014,5.615-15.36,5.615c-6.339,0-11.455-1.875-15.353-5.636c-3.887-3.76-5.83-8.446-5.83-14.063
	c0-4.181,1.055-7.676,3.185-10.498C823.184,354.382,826.201,352.458,830.117,351.433z M825.996,367.751
	c0,2.256,0.527,4.434,1.602,6.533c1.064,2.108,2.656,3.74,4.756,4.893c2.082,1.146,4.422,1.74,6.798,1.729
	c3.778,0,6.895-1.211,9.346-3.633c2.461-2.433,3.69-5.519,3.69-9.259c0-3.799-1.27-6.942-3.799-9.434
	c-2.528-2.48-5.692-3.73-9.502-3.73c-3.711,0-6.787,1.23-9.229,3.691C827.217,360.994,825.996,364.07,825.996,367.751
	L825.996,367.751z M828.535,338.054c0,3.037,0.986,5.527,2.938,7.451c1.964,1.935,4.503,2.9,7.638,2.9
	c3.037,0,5.537-0.957,7.479-2.871c1.943-1.914,2.92-4.269,2.92-7.041c0-2.9-1.006-5.332-3.008-7.306
	c-2.002-1.973-4.502-2.959-7.479-2.959c-3.019,0-5.519,0.957-7.5,2.892C829.531,333.054,828.535,335.359,828.535,338.054
	L828.535,338.054z M818.506,420.251v-7.588h41.631v6.143c-4.102,4.355-8.153,10.146-12.178,17.373
	c-4.023,7.228-7.129,14.649-9.316,22.29c-1.581,5.371-2.588,11.271-3.026,17.676H827.5c0.088-5.059,1.074-11.172,2.979-18.344
	c1.904-7.158,4.63-14.073,8.185-20.723c3.555-6.65,7.334-12.267,11.338-16.826L818.506,420.251L818.506,420.251z"/>
</svg>
