<?xml version="1.0" encoding="utf-8"?>
<!-- Generator: Adobe Illustrator 16.0.3, SVG Export Plug-In . SVG Version: 6.00 Build 0)  -->
<!DOCTYPE svg PUBLIC "-//W3C//DTD SVG 1.1//EN" "http://www.w3.org/Graphics/SVG/1.1/DTD/svg11.dtd">
<svg version="1.1" id="Layer_1" xmlns="http://www.w3.org/2000/svg" xmlns:xlink="http://www.w3.org/1999/xlink" x="0px" y="0px"
	 width="900px" height="900px" viewBox="0 0 900 900" enable-background="new 0 0 900 900" xml:space="preserve">
<path fill="#010101" d="M39.733,133.791l14.526-1.229c1.074,7.069,3.574,12.393,7.5,15.962c3.921,3.55,8.643,5.342,14.185,5.342
	c6.655,0,12.3-2.515,16.909-7.544c4.609-5.021,6.919-11.68,6.919-19.99c0-7.891-2.222-14.116-6.65-18.677
	c-4.428-4.562-10.239-6.841-17.412-6.841c-4.458,0-8.486,1.011-12.065,3.037c-3.594,2.021-6.421,4.652-8.462,7.881l-13.003-1.699
	l10.923-57.891h56.04v13.223H64.182l-6.069,30.298c6.748-4.722,13.848-7.07,21.279-7.07c9.839,0,18.14,3.413,24.912,10.221
	c6.768,6.812,10.146,15.581,10.146,26.289c0,10.215-2.969,19.022-8.916,26.455c-7.231,9.126-17.09,13.687-29.604,13.687
	c-10.249,0-18.608-2.871-25.098-8.608C44.343,150.892,40.651,143.283,39.733,133.791z M171.662,163.322V136.34h-48.901v-12.686
	l51.431-73.042H185.5v73.042h15.21v12.686H185.5v26.982H171.662L171.662,163.322z M171.662,123.654v-50.82l-35.288,50.82H171.662
	L171.662,123.654z M299.494,662.219l28.647-38.612l-25.269-35.488h11.68l13.447,18.994c2.793,3.955,4.79,6.981,5.962,9.102
	c1.66-2.705,3.608-5.518,5.869-8.446l14.912-19.668h10.659l-26.04,34.94l28.062,39.16h-12.134l-18.647-26.436
	c-1.118-1.624-2.195-3.275-3.232-4.951c-1.66,2.694-2.827,4.551-3.54,5.565l-18.589,25.82h-11.787V662.219L299.494,662.219z
	 M411.652,644.935l9.39,1.151c-1.479,5.498-4.229,9.767-8.228,12.793c-4.014,3.027-9.141,4.541-15.371,4.541
	c-7.852,0-14.072-2.412-18.672-7.256c-4.6-4.834-6.899-11.611-6.899-20.342c0-9.014,2.319-16.045,6.968-21.025
	c4.663-5,10.684-7.479,18.101-7.479c7.183,0,13.052,2.44,17.603,7.324c4.541,4.883,6.821,11.758,6.821,20.625
	c0,0.547-0.015,1.348-0.054,2.422h-40.029c0.332,5.897,2.002,10.41,5,13.545c3.003,3.135,6.743,4.697,11.221,4.697
	c3.34,0,6.182-0.869,8.54-2.627C408.4,651.574,410.261,648.763,411.652,644.935z M381.784,630.228h29.966
	c-0.41-4.531-1.548-7.91-3.438-10.177c-2.9-3.495-6.66-5.254-11.27-5.254c-4.18,0-7.7,1.406-10.542,4.199
	C383.654,621.789,382.082,625.539,381.784,630.228L381.784,630.228z M432.472,662.219v-53.69h8.179v7.646
	c3.95-5.907,9.639-8.856,17.095-8.856c3.223,0,6.19,0.596,8.916,1.758c2.725,1.152,4.756,2.686,6.084,4.57
	c1.348,1.875,2.295,4.121,2.832,6.719c0.332,1.688,0.508,4.639,0.508,8.848v33.008h-9.092v-32.655c0-3.701-0.353-6.465-1.064-8.312
	c-0.703-1.846-1.953-3.301-3.76-4.385c-1.807-1.094-3.926-1.641-6.348-1.641c-3.883,0-7.223,1.229-10.03,3.672
	c-2.822,2.461-4.229,7.129-4.229,14.004v29.315H432.472L432.472,662.219z M486.662,635.383c0-9.94,2.764-17.305,8.291-22.09
	c4.608-3.965,10.233-5.977,16.875-5.977c7.373,0,13.418,2.422,18.096,7.266c4.688,4.824,7.021,11.504,7.021,20.039
	c0,6.896-1.035,12.344-3.105,16.299c-2.08,3.965-5.088,7.041-9.043,9.229c-3.965,2.188-8.281,3.281-12.969,3.281
	c-7.521,0-13.584-2.402-18.224-7.228C488.976,651.379,486.662,644.445,486.662,635.383L486.662,635.383z M496.008,635.383
	c0,6.875,1.504,12.021,4.502,15.439s6.787,5.127,11.338,5.127c4.502,0,8.262-1.719,11.27-5.156
	c2.988-3.438,4.482-8.672,4.482-15.713c0-6.641-1.494-11.67-4.521-15.088c-3.018-3.428-6.768-5.137-11.229-5.137
	c-4.551,0-8.34,1.709-11.338,5.106C497.513,623.36,496.008,628.508,496.008,635.383z M547.629,662.219v-53.69h8.174v7.646
	c3.955-5.907,9.639-8.856,17.09-8.856c3.232,0,6.201,0.596,8.916,1.758c2.725,1.152,4.756,2.686,6.094,4.57
	c1.338,1.875,2.285,4.121,2.832,6.719c0.332,1.688,0.498,4.639,0.498,8.848v33.008h-9.092v-32.655c0-3.701-0.352-6.465-1.055-8.312
	c-0.703-1.846-1.963-3.301-3.77-4.385c-1.808-1.094-3.927-1.641-6.349-1.641c-3.877,0-7.218,1.229-10.021,3.672
	c-2.832,2.461-4.238,7.129-4.238,14.004v29.315H547.629L547.629,662.219z M94.201,848.059h-9.102V790.07
	c-2.188,2.09-5.059,4.18-8.608,6.27s-6.748,3.662-9.58,4.707v-8.789c5.093-2.4,9.541-5.293,13.35-8.689
	c3.804-3.418,6.499-6.721,8.091-9.912h5.859v74.402H94.201L94.201,848.059z M117.551,828.488l9.102-1.211
	c1.04,5.166,2.822,8.877,5.332,11.143c2.51,2.275,5.566,3.408,9.17,3.408c4.277,0,7.886-1.465,10.84-4.436
	c2.949-2.969,4.419-6.641,4.419-11.016c0-4.188-1.362-7.637-4.092-10.352c-2.72-2.705-6.201-4.063-10.41-4.063
	c-1.719,0-3.857,0.332-6.421,1.017l1.011-7.987c0.61,0.066,1.089,0.105,1.46,0.105c3.882,0,7.363-1.016,10.469-3.037
	c3.101-2.021,4.653-5.137,4.653-9.354c0-3.34-1.133-6.094-3.389-8.281c-2.261-2.207-5.181-3.291-8.74-3.291
	c-3.54,0-6.494,1.104-8.853,3.34c-2.358,2.229-3.877,5.559-4.551,10.012l-9.097-1.621c1.108-6.096,3.638-10.82,7.588-14.182
	c3.94-3.35,8.843-5.027,14.712-5.027c4.038,0,7.759,0.869,11.167,2.605c3.403,1.738,6.011,4.104,7.803,7.102
	c1.807,2.998,2.71,6.182,2.71,9.551c0,3.193-0.859,6.104-2.583,8.75c-1.719,2.627-4.258,4.717-7.627,6.26
	c4.38,1.018,7.778,3.125,10.21,6.299c2.427,3.186,3.638,7.18,3.638,11.953c0,6.455-2.358,11.943-7.08,16.455
	c-4.717,4.492-10.679,6.758-17.891,6.758c-6.499,0-11.899-1.941-16.196-5.818C120.612,839.68,118.151,834.65,117.551,828.488
	L117.551,828.488z M209.343,848.059h-9.102V790.07c-2.188,2.09-5.059,4.18-8.608,6.27c-3.549,2.09-6.748,3.662-9.58,4.707v-8.789
	c5.088-2.4,9.541-5.293,13.35-8.689c3.799-3.418,6.499-6.721,8.091-9.912h5.859v74.402H209.343L209.343,848.059z M237.75,848.059
	v-10.371h10.361v10.371H237.75L237.75,848.059z M309.221,839.309v8.75h-48.97c-0.075-2.158,0.285-4.311,1.06-6.327
	c1.24-3.341,3.242-6.62,5.991-9.845c2.739-3.242,6.709-6.98,11.899-11.229c8.052-6.604,13.501-11.836,16.333-15.686
	c2.817-3.866,4.238-7.51,4.238-10.957c0-3.594-1.289-6.641-3.872-9.109c-2.578-2.48-5.938-3.723-10.078-3.723
	c-4.38,0-7.891,1.318-10.518,3.945c-2.632,2.637-3.965,6.271-3.994,10.918l-9.351-0.957c0.63-6.973,3.052-12.285,7.231-15.947
	c4.179-3.66,9.79-5.486,16.841-5.486c7.109,0,12.729,1.963,16.88,5.918s6.221,8.828,6.221,14.657c0,2.96-0.61,5.88-1.821,8.739
	c-1.221,2.871-3.228,5.879-6.04,9.055c-2.808,3.163-7.49,7.51-14.019,13.035c-5.459,4.58-8.96,7.705-10.522,9.326
	c-1.558,1.643-2.827,3.281-3.838,4.941h36.328L309.221,839.309L309.221,839.309z M320.344,830.91l8.74-0.801
	c0.737,4.109,2.158,7.09,4.248,8.955c2.09,1.854,4.771,2.764,8.042,2.764c2.788,0,5.239-0.625,7.349-1.904s3.828-2.998,5.181-5.146
	c1.348-2.129,2.48-5.021,3.389-8.652c0.911-3.638,1.372-7.373,1.372-11.123c0-0.399-0.02-1.006-0.054-1.826
	c-1.826,2.893-4.307,5.244-7.456,7.052c-3.145,1.808-6.563,2.716-10.234,2.716c-6.128,0-11.318-2.229-15.566-6.682
	c-4.253-4.434-6.372-10.293-6.372-17.588c0-7.51,2.222-13.563,6.65-18.135c4.419-4.59,9.98-6.885,16.65-6.885
	c4.81,0,9.229,1.299,13.208,3.896c3.994,2.6,7.031,6.289,9.102,11.094c2.07,4.797,3.11,11.748,3.11,20.852
	c0,9.463-1.03,17.002-3.081,22.617c-2.061,5.613-5.117,9.883-9.18,12.813c-4.058,2.931-8.818,4.385-14.277,4.385
	c-5.791,0-10.532-1.602-14.199-4.813C323.292,841.271,321.081,836.74,320.344,830.91z M357.59,798.225
	c0-5.225-1.387-9.385-4.17-12.439c-2.769-3.076-6.118-4.602-10.029-4.602c-4.038,0-7.568,1.66-10.566,4.961
	c-3.003,3.303-4.502,7.578-4.502,12.832c0,4.719,1.431,8.546,4.277,11.494c2.842,2.949,6.362,4.424,10.542,4.424
	c4.209,0,7.681-1.475,10.391-4.424C356.232,807.521,357.59,803.438,357.59,798.225L357.59,798.225z M285.143,449.733l63.179-96.479
	l-57.261-88.413h43.633l37.08,59.399l36.328-59.399h43.247l-57.51,89.801l63.185,95.093h-45.02l-40.991-63.95l-41.108,63.95
	L285.143,449.733L285.143,449.733z M553.527,407.103l35.303,5.933c-4.541,12.949-11.709,22.798-21.494,29.565
	c-9.795,6.771-22.051,10.16-36.777,10.16c-23.281,0-40.527-7.606-51.709-22.826c-8.829-12.193-13.232-27.574-13.232-46.153
	c0-22.197,5.801-39.58,17.401-52.148c11.601-12.567,26.271-18.861,44.015-18.861c19.912,0,35.635,6.582,47.168,19.741
	c11.514,13.158,17.021,33.319,16.522,60.479h-88.798c0.254,10.513,3.115,18.682,8.574,24.521c5.469,5.85,12.285,8.77,20.43,8.77
	c5.547,0,10.215-1.509,14.004-4.541C548.722,418.713,551.584,413.83,553.527,407.103z M555.539,371.281
	c-0.254-10.249-2.91-18.057-7.949-23.389c-5.049-5.343-11.172-8.009-18.418-8.009c-7.734,0-14.121,2.809-19.17,8.447
	c-5.039,5.63-7.52,13.281-7.441,22.949L555.539,371.281L555.539,371.281z M859.465,108.934v7.588h-42.5
	c-0.08-1.871,0.232-3.737,0.918-5.479c1.074-2.899,2.813-5.747,5.195-8.55c2.383-2.813,5.84-6.05,10.332-9.751
	c6.992-5.728,11.719-10.259,14.17-13.608c2.451-3.349,3.682-6.514,3.682-9.502c0-3.13-1.111-5.771-3.35-7.92
	c-2.256-2.147-5.166-3.218-8.76-3.218c-3.799,0-6.836,1.138-9.121,3.428c-2.285,2.28-3.439,5.444-3.467,9.474l-8.115-0.84
	c0.547-6.04,2.637-10.659,6.27-13.844c3.623-3.169,8.496-4.756,14.609-4.756c6.162,0,11.045,1.709,14.648,5.127
	c3.594,3.428,5.391,7.671,5.391,12.72c0,2.583-0.527,5.112-1.563,7.594c-1.057,2.489-2.805,5.106-5.244,7.847
	c-2.434,2.749-6.494,6.519-12.18,11.323c-4.744,3.965-7.771,6.68-9.121,8.096c-1.348,1.421-2.461,2.842-3.34,4.282h31.543
	L859.465,108.934L859.465,108.934z M830.129,171.491c-3.279-1.196-5.703-2.91-7.295-5.142c-1.572-2.218-2.363-4.878-2.363-7.979
	c0-4.678,1.682-8.608,5.039-11.807c3.369-3.185,7.844-4.78,13.43-4.78c5.625,0,10.145,1.626,13.555,4.888
	c3.408,3.263,5.137,7.231,5.137,11.899c0,2.993-0.779,5.591-2.344,7.793c-1.563,2.197-3.945,3.906-7.129,5.106
	c3.955,1.289,6.953,3.359,9.004,6.23c2.07,2.861,3.105,6.289,3.105,10.259c0,5.503-1.943,10.122-5.842,13.862
	c-3.887,3.75-9.004,5.62-15.352,5.62s-11.465-1.88-15.352-5.63c-3.889-3.761-5.83-8.452-5.83-14.063
	c0-4.18,1.045-7.681,3.174-10.498C823.176,174.44,826.203,172.512,830.129,171.491L830.129,171.491z M826.008,187.814
	c0,2.256,0.527,4.429,1.594,6.527c1.063,2.109,2.666,3.74,4.756,4.889c2.084,1.146,4.428,1.742,6.807,1.732
	c3.779,0,6.885-1.211,9.346-3.633c2.463-2.427,3.691-5.518,3.691-9.258c0-3.804-1.27-6.938-3.799-9.429
	c-2.529-2.48-5.693-3.73-9.502-3.73c-3.711,0-6.787,1.23-9.23,3.688C827.219,181.052,826.008,184.133,826.008,187.814
	L826.008,187.814z M828.527,158.112c0,3.042,0.996,5.532,2.949,7.451c1.953,1.929,4.49,2.899,7.637,2.899
	c3.037,0,5.537-0.962,7.479-2.871c1.936-1.908,2.922-4.271,2.922-7.041c0-2.899-1.008-5.326-3.02-7.3
	c-1.992-1.968-4.492-2.959-7.479-2.959c-3.01,0-5.51,0.957-7.5,2.892C829.533,153.112,828.527,155.412,828.527,158.112z
	 M797.726,296.203h-7.892v-50.313c-1.895,1.812-4.385,3.623-7.479,5.438c-3.086,1.813-5.858,3.174-8.301,4.072v-7.632
	c4.414-2.08,8.263-4.59,11.582-7.55c3.301-2.948,5.635-5.819,7.013-8.589h5.077V296.203z M830.109,261.32
	c-3.262-1.196-5.703-2.91-7.285-5.137c-1.572-2.223-2.363-4.884-2.363-7.983c0-4.678,1.682-8.608,5.039-11.807
	c3.379-3.18,7.842-4.78,13.438-4.78c5.613,0,10.137,1.631,13.545,4.888c3.408,3.263,5.146,7.231,5.146,11.899
	c0,2.993-0.801,5.591-2.361,7.793c-1.555,2.197-3.938,3.906-7.131,5.106c3.967,1.289,6.953,3.359,9.016,6.23
	c2.068,2.861,3.096,6.289,3.096,10.264c0,5.498-1.934,10.117-5.82,13.857c-3.904,3.75-9.014,5.62-15.359,5.62
	c-6.338,0-11.465-1.88-15.354-5.63c-3.896-3.761-5.83-8.452-5.83-14.063c0-4.18,1.057-7.676,3.186-10.498
	C823.176,264.271,826.193,262.352,830.109,261.32z M825.988,277.645c0,2.261,0.527,4.429,1.602,6.527
	c1.064,2.109,2.656,3.74,4.768,4.894c2.082,1.143,4.42,1.737,6.797,1.729c3.777,0,6.895-1.211,9.354-3.633
	c2.461-2.427,3.691-5.518,3.691-9.258c0-3.799-1.279-6.938-3.809-9.429c-2.529-2.48-5.686-3.73-9.492-3.73
	c-3.711,0-6.797,1.23-9.238,3.688C827.219,270.881,825.988,273.962,825.988,277.645z M828.527,247.941
	c0,3.042,0.996,5.532,2.949,7.451c1.953,1.929,4.49,2.899,7.637,2.899c3.037,0,5.537-0.962,7.479-2.871
	c1.936-1.909,2.922-4.268,2.922-7.041c0-2.899-1.008-5.327-3.02-7.3c-1.992-1.968-4.492-2.959-7.479-2.959
	c-3.01,0-5.51,0.962-7.5,2.891C829.523,242.941,828.527,245.251,828.527,247.941z M797.726,386.042h-7.892v-50.308
	c-1.895,1.807-4.385,3.618-7.479,5.438c-3.086,1.808-5.858,3.169-8.301,4.067v-7.627c4.414-2.08,8.263-4.595,11.582-7.554
	c3.301-2.949,5.635-5.82,7.013-8.59h5.077V386.042z M830.109,351.174c-3.262-1.2-5.703-2.909-7.285-5.142
	c-1.572-2.222-2.363-4.878-2.363-7.979c0-4.683,1.682-8.612,5.039-11.812c3.379-3.179,7.842-4.78,13.438-4.78
	c5.613,0,10.137,1.631,13.545,4.889c3.408,3.262,5.146,7.23,5.146,11.903c0,2.988-0.801,5.586-2.361,7.788
	c-1.555,2.202-3.938,3.911-7.131,5.112c3.967,1.289,6.953,3.359,9.016,6.229c2.068,2.856,3.096,6.289,3.096,10.26
	c0,5.498-1.934,10.116-5.82,13.856c-3.904,3.75-9.014,5.62-15.359,5.62c-6.338,0-11.465-1.88-15.354-5.63
	c-3.896-3.76-5.83-8.447-5.83-14.058c0-4.181,1.057-7.682,3.186-10.504C823.176,354.123,826.193,352.189,830.109,351.174z
	 M825.988,367.492c0,2.261,0.527,4.429,1.602,6.528c1.064,2.113,2.656,3.739,4.768,4.893c2.082,1.144,4.42,1.738,6.797,1.729
	c3.777,0,6.895-1.211,9.354-3.628c2.461-2.433,3.691-5.522,3.691-9.264c0-3.799-1.279-6.938-3.809-9.429
	c-2.529-2.48-5.686-3.73-9.492-3.73c-3.711,0-6.797,1.23-9.238,3.691C827.219,360.734,825.988,363.801,825.988,367.492z
	 M828.527,337.795c0,3.037,0.996,5.527,2.949,7.446c1.953,1.929,4.49,2.9,7.637,2.9c3.037,0,5.537-0.962,7.479-2.871
	c1.936-1.909,2.922-4.269,2.922-7.036c0-2.9-1.008-5.332-3.02-7.305c-1.992-1.969-4.492-2.96-7.479-2.96
	c-3.01,0-5.51,0.963-7.5,2.892C829.523,332.795,828.527,335.09,828.527,337.795z M830.129,441.003
	c-3.279-1.201-5.703-2.91-7.295-5.142c-1.572-2.217-2.363-4.878-2.363-7.979c0-4.683,1.682-8.612,5.039-11.812
	c3.369-3.179,7.844-4.78,13.43-4.78c5.625,0,10.145,1.631,13.555,4.894c3.408,3.257,5.137,7.227,5.137,11.898
	c0,2.988-0.779,5.591-2.344,7.788c-1.563,2.202-3.945,3.911-7.129,5.112c3.955,1.289,6.953,3.358,9.004,6.229
	c2.07,2.856,3.105,6.289,3.105,10.26c0,5.497-1.943,10.116-5.842,13.856c-3.887,3.75-9.004,5.615-15.352,5.615
	s-11.465-1.875-15.352-5.625c-3.889-3.76-5.83-8.447-5.83-14.063c0-4.175,1.045-7.676,3.174-10.498
	C823.176,443.952,826.203,442.033,830.129,441.003L830.129,441.003z M826.008,457.316c0,2.266,0.527,4.434,1.594,6.533
	c1.063,2.118,2.666,3.739,4.756,4.893c2.084,1.144,4.428,1.739,6.807,1.729c3.779,0,6.885-1.212,9.346-3.623
	c2.463-2.441,3.691-5.527,3.691-9.269c0-3.799-1.27-6.938-3.799-9.429c-2.529-2.48-5.693-3.73-9.502-3.73
	c-3.711,0-6.787,1.23-9.23,3.691C827.219,450.563,826.008,453.646,826.008,457.316L826.008,457.316z M828.527,427.624
	c0,3.037,0.996,5.527,2.949,7.446c1.953,1.934,4.49,2.899,7.637,2.899c3.037,0,5.537-0.956,7.479-2.87
	c1.936-1.909,2.922-4.269,2.922-7.036c0-2.9-1.008-5.332-3.02-7.3c-1.992-1.974-4.492-2.959-7.479-2.959
	c-3.01,0-5.51,0.956-7.5,2.886C829.533,422.624,828.527,424.935,828.527,427.624z"/>
</svg>
