<?xml version="1.0" encoding="utf-8"?>
<!-- Generator: Adobe Illustrator 16.0.3, SVG Export Plug-In . SVG Version: 6.00 Build 0)  -->
<!DOCTYPE svg PUBLIC "-//W3C//DTD SVG 1.1//EN" "http://www.w3.org/Graphics/SVG/1.1/DTD/svg11.dtd">
<svg version="1.1" id="Layer_1" xmlns="http://www.w3.org/2000/svg" xmlns:xlink="http://www.w3.org/1999/xlink" x="0px" y="0px"
	 width="900px" height="900px" viewBox="0 0 900 900" enable-background="new 0 0 900 900" xml:space="preserve">
<path d="M39.736,133.137l14.531-1.23c1.074,7.07,3.574,12.393,7.5,15.957c3.916,3.555,8.643,5.342,14.18,5.342
	c6.66,0,12.305-2.51,16.914-7.539c4.609-5.02,6.924-11.68,6.924-19.99c0-7.891-2.217-14.121-6.65-18.682
	c-4.433-4.561-10.244-6.836-17.412-6.836c-4.463,0-8.486,1.006-12.07,3.037c-3.594,2.021-6.416,4.648-8.457,7.881l-12.998-1.699
	l10.918-57.891h56.045V64.71H64.189l-6.074,30.293c6.758-4.717,13.857-7.07,21.289-7.07c9.844,0,18.145,3.408,24.912,10.225
	c6.767,6.817,10.146,15.576,10.146,26.289c0,10.205-2.969,19.023-8.916,26.445c-7.227,9.131-17.09,13.691-29.6,13.691
	c-10.254,0-18.613-2.871-25.098-8.613C44.363,150.228,40.664,142.62,39.736,133.137z M127.305,133.137l14.531-1.23
	c1.074,7.07,3.574,12.393,7.5,15.957c3.916,3.555,8.643,5.342,14.18,5.342c6.66,0,12.305-2.51,16.914-7.539
	c4.609-5.02,6.924-11.68,6.924-19.99c0-7.891-2.217-14.121-6.65-18.682s-10.244-6.836-17.412-6.836
	c-4.463,0-8.486,1.006-12.07,3.037c-3.594,2.021-6.416,4.648-8.457,7.881l-12.998-1.699l10.918-57.891h56.045V64.71h-44.971
	l-6.074,30.293c6.758-4.717,13.857-7.07,21.289-7.07c9.844,0,18.145,3.408,24.912,10.225c6.767,6.817,10.146,15.576,10.146,26.289
	c0,10.205-2.969,19.023-8.916,26.445c-7.227,9.131-17.09,13.691-29.6,13.691c-10.254,0-18.613-2.871-25.098-8.613
	C131.933,150.228,128.232,142.62,127.305,133.137L127.305,133.137z M334.121,635.584l9.805,2.461
	c-2.061,8.066-5.752,14.199-11.094,18.438c-5.342,4.219-11.875,6.327-19.59,6.327c-7.988,0-14.482-1.62-19.482-4.862
	c-5.01-3.263-8.818-7.97-11.426-14.142c-2.607-6.151-3.916-12.772-3.916-19.862c0-7.716,1.475-14.435,4.424-20.195
	c2.949-5.742,7.139-10.098,12.588-13.086c5.439-2.969,11.426-4.473,17.969-4.473c7.412,0,13.643,1.895,18.701,5.663
	c5.049,3.771,8.574,9.082,10.557,15.919l-9.648,2.284c-1.719-5.391-4.219-9.315-7.48-11.776c-3.271-2.461-7.383-3.691-12.334-3.691
	c-5.693,0-10.459,1.367-14.277,4.082c-3.828,2.734-6.514,6.406-8.066,10.996c-1.548,4.587-2.333,9.396-2.324,14.238
	c0,6.289,0.918,11.797,2.754,16.504c1.836,4.688,4.697,8.203,8.564,10.526c3.877,2.324,8.076,3.496,12.588,3.496
	c5.498,0,10.146-1.582,13.955-4.746C330.195,646.502,332.773,641.814,334.121,635.584L334.121,635.584z M391.592,644.275
	l9.396,1.151c-1.484,5.488-4.229,9.767-8.232,12.793c-4.014,3.027-9.141,4.552-15.371,4.552c-7.852,0-14.072-2.423-18.672-7.267
	c-4.6-4.824-6.904-11.602-6.904-20.332c0-9.022,2.324-16.035,6.973-21.035c4.658-4.979,10.684-7.479,18.096-7.479
	c7.178,0,13.047,2.44,17.598,7.344c4.541,4.883,6.816,11.758,6.816,20.605c0,0.547-0.01,1.348-0.049,2.44h-40.029
	c0.332,5.898,2.002,10.41,5,13.535c2.998,3.145,6.738,4.707,11.221,4.707c3.34,0,6.182-0.879,8.545-2.637
	C388.34,650.916,390.205,648.104,391.592,644.275L391.592,644.275z M361.719,629.568h29.971c-0.41-4.531-1.553-7.91-3.438-10.177
	c-2.9-3.495-6.66-5.254-11.27-5.254c-4.18,0-7.695,1.406-10.537,4.199C363.594,621.131,362.021,624.881,361.719,629.568
	L361.719,629.568z M408.77,645.525l8.994-1.406c0.509,3.613,1.914,6.367,4.229,8.281c2.305,1.934,5.526,2.891,9.678,2.891
	c4.18,0,7.275-0.859,9.297-2.559c2.022-1.7,3.037-3.691,3.037-5.996c0-2.052-0.897-3.672-2.686-4.845
	c-1.24-0.801-4.347-1.836-9.298-3.086c-6.67-1.68-11.299-3.145-13.877-4.375c-2.577-1.229-4.53-2.93-5.858-5.098
	c-1.338-2.168-2.002-4.57-2.002-7.207c0-2.383,0.547-4.609,1.649-6.641c1.076-2.018,2.607-3.757,4.474-5.078
	c1.416-1.056,3.34-1.935,5.78-2.656c2.441-0.722,5.068-1.094,7.861-1.094c4.209,0,7.91,0.604,11.094,1.815
	c3.185,1.23,5.537,2.871,7.052,4.941c1.514,2.07,2.559,4.844,3.135,8.301l-8.896,1.23c-0.399-2.773-1.571-4.922-3.516-6.484
	c-1.934-1.543-4.668-2.324-8.213-2.324c-4.18,0-7.158,0.703-8.945,2.07c-1.787,1.387-2.676,3.008-2.676,4.863
	c0,1.172,0.371,2.246,1.113,3.184c0.741,0.977,1.903,1.777,3.485,2.422c0.908,0.332,3.584,1.113,8.037,2.324
	c6.437,1.719,10.928,3.125,13.467,4.219c2.55,1.094,4.541,2.695,5.996,4.785c1.445,2.09,2.168,4.688,2.168,7.773
	c0,3.047-0.879,5.897-2.655,8.573c-1.769,2.677-4.316,4.746-7.656,6.211c-3.33,1.466-7.109,2.207-11.318,2.207
	c-6.973,0-12.295-1.444-15.946-4.354C412.109,655.525,409.785,651.229,408.77,645.525L408.77,645.525z M464.219,597.928v-10.469
	h9.103v10.469H464.219z M464.219,661.561v-53.69h9.103v53.69H464.219z M522.344,661.561v-7.891
	c-4.18,6.074-9.854,9.102-17.031,9.102c-3.174,0-6.122-0.604-8.877-1.815c-2.743-1.211-4.784-2.734-6.112-4.59
	c-1.328-1.836-2.267-4.082-2.804-6.738c-0.371-1.777-0.557-4.609-0.557-8.496V607.87h9.102v29.785c0,4.746,0.187,7.948,0.558,9.59
	c0.565,2.401,1.776,4.276,3.633,5.645s4.15,2.052,6.875,2.052c2.734,0,5.293-0.703,7.687-2.109c2.393-1.387,4.081-3.301,5.077-5.703
	s1.494-5.897,1.494-10.488v-28.77h9.092v53.691h-8.136V661.561z M544.736,661.561v-53.69h8.135v7.539
	c1.689-2.638,3.926-4.746,6.719-6.349c2.803-1.602,5.986-2.401,9.562-2.401c3.975,0,7.235,0.84,9.774,2.479
	c2.549,1.66,4.336,3.965,5.381,6.935c4.248-6.271,9.775-9.414,16.582-9.414c5.322,0,9.414,1.483,12.285,4.434
	c2.861,2.949,4.297,7.48,4.297,13.613v36.854h-9.053v-33.827c0-3.634-0.293-6.25-0.879-7.853c-0.596-1.602-1.66-2.891-3.213-3.867
	c-1.553-0.976-3.369-1.465-5.459-1.465c-3.771,0-6.904,1.25-9.404,3.771c-2.49,2.5-3.74,6.522-3.74,12.051v31.19h-9.092v-34.883
	c0-4.043-0.742-7.069-2.227-9.102c-1.484-2.012-3.906-3.027-7.275-3.027c-2.568,0-4.932,0.685-7.109,2.031
	c-2.168,1.348-3.739,3.301-4.727,5.898c-0.977,2.598-1.465,6.348-1.465,11.229v27.852L544.736,661.561L544.736,661.561z
	 M94.219,847.4h-9.102v-57.988c-2.188,2.09-5.059,4.18-8.613,6.27c-3.554,2.091-6.748,3.673-9.58,4.707V791.6
	c5.088-2.401,9.541-5.293,13.35-8.69c3.799-3.418,6.504-6.719,8.086-9.922h5.859V847.4z M117.568,827.83l9.102-1.211
	c1.045,5.156,2.822,8.867,5.332,11.152c2.51,2.266,5.566,3.397,9.17,3.397c4.277,0,7.891-1.465,10.84-4.434
	c2.949-2.97,4.424-6.642,4.424-11.017c0-4.18-1.357-7.637-4.092-10.352c-2.725-2.715-6.201-4.063-10.41-4.063
	c-1.719,0-3.857,0.332-6.416,1.017l1.006-7.988c0.487,0.055,0.976,0.087,1.465,0.098c3.877,0,7.363-1.016,10.469-3.026
	c3.096-2.031,4.648-5.138,4.648-9.355c0-3.34-1.133-6.094-3.389-8.28c-2.256-2.207-5.176-3.302-8.74-3.302
	c-3.545,0-6.494,1.113-8.848,3.34c-2.363,2.228-3.877,5.566-4.551,10.021l-9.102-1.621c1.113-6.094,3.643-10.82,7.588-14.18
	c3.936-3.359,8.838-5.039,14.707-5.039c4.043,0,7.764,0.879,11.172,2.617c3.398,1.737,6.006,4.102,7.803,7.09
	c1.807,3.008,2.705,6.19,2.705,9.551c0,3.203-0.859,6.113-2.578,8.75c-1.719,2.637-4.258,4.727-7.627,6.271
	c4.375,1.016,7.783,3.104,10.205,6.288c2.432,3.185,3.643,7.169,3.643,11.953c0,6.466-2.363,11.953-7.08,16.466
	c-4.717,4.491-10.684,6.737-17.891,6.737c-6.504,0-11.904-1.934-16.201-5.819C120.625,839.021,118.174,834.002,117.568,827.83
	L117.568,827.83z M222.9,838.65v8.75h-48.975c-0.074-2.16,0.288-4.313,1.064-6.328c1.24-3.34,3.242-6.621,5.986-9.844
	c2.744-3.242,6.709-6.992,11.904-11.23c8.047-6.602,13.496-11.836,16.328-15.684c2.822-3.867,4.238-7.521,4.238-10.957
	c0-3.595-1.289-6.642-3.867-9.121c-2.578-2.48-5.938-3.711-10.078-3.711c-4.385,0-7.891,1.309-10.518,3.944
	c-2.627,2.617-3.955,6.271-3.994,10.918l-9.346-0.956c0.635-6.974,3.047-12.306,7.227-15.957c4.18-3.652,9.785-5.488,16.836-5.488
	c7.109,0,12.734,1.973,16.875,5.918c4.15,3.945,6.221,8.828,6.221,14.668c0,2.949-0.605,5.879-1.816,8.73
	c-1.221,2.87-3.232,5.879-6.045,9.063c-2.813,3.164-7.49,7.5-14.023,13.027c-5.459,4.59-8.965,7.694-10.518,9.336
	c-1.553,1.621-2.832,3.28-3.838,4.922H222.9L222.9,838.65z M237.773,847.4v-10.371h10.361V847.4H237.773z M262.793,830.252
	l8.74-0.801c0.742,4.121,2.158,7.09,4.248,8.945c2.09,1.854,4.766,2.772,8.037,2.772c2.793,0,5.244-0.625,7.354-1.914
	c2.109-1.27,3.828-2.988,5.176-5.137c1.348-2.129,2.48-5.021,3.389-8.652c0.91-3.641,1.369-7.38,1.367-11.133
	c0-0.391-0.02-0.996-0.049-1.816c-1.826,2.892-4.307,5.255-7.461,7.052c-3.111,1.793-6.643,2.73-10.234,2.715
	c-6.133,0-11.318-2.228-15.566-6.68c-4.248-4.453-6.367-10.313-6.367-17.599c0-7.5,2.217-13.555,6.65-18.145
	c4.424-4.57,9.98-6.875,16.65-6.875c4.814,0,9.229,1.309,13.213,3.905c3.994,2.599,7.031,6.289,9.102,11.095
	c2.071,4.805,3.105,11.737,3.105,20.84c0,9.473-1.025,17.012-3.076,22.617c-2.061,5.625-5.117,9.883-9.18,12.813
	c-4.063,2.931-8.818,4.396-14.277,4.396c-5.791,0-10.527-1.603-14.199-4.824C265.742,840.623,263.535,836.092,262.793,830.252
	L262.793,830.252z M300.039,797.557c0-5.215-1.387-9.375-4.17-12.44c-2.773-3.066-6.123-4.59-10.029-4.59
	c-4.043,0-7.568,1.659-10.566,4.961c-2.998,3.301-4.502,7.578-4.502,12.832c0,4.707,1.426,8.555,4.277,11.504
	c2.842,2.948,6.357,4.414,10.537,4.414c4.209,0,7.676-1.466,10.391-4.414C298.682,806.873,300.039,802.791,300.039,797.557
	L300.039,797.557z M353.262,847.4h-9.102v-57.988c-2.188,2.09-5.059,4.18-8.613,6.27c-3.554,2.091-6.748,3.673-9.58,4.707V791.6
	c5.088-2.401,9.541-5.293,13.35-8.69c3.799-3.418,6.504-6.719,8.086-9.922h5.859V847.4L353.262,847.4z M401.084,381.086
	l36.191,11.475c-5.547,20.187-14.775,35.166-27.677,44.962c-12.909,9.795-29.287,14.696-49.121,14.696
	c-24.561,0-44.736-8.388-60.537-25.166c-15.811-16.768-23.711-39.696-23.711-68.789c0-30.771,7.939-54.678,23.838-71.699
	c15.889-17.031,36.777-25.537,62.676-25.537c22.617,0,40.986,6.68,55.117,20.049c8.397,7.9,14.707,19.258,18.916,34.053
	l-36.953,8.828c-2.188-9.59-6.748-17.147-13.682-22.705c-6.943-5.547-15.371-8.32-25.293-8.32c-13.701,0-24.824,4.922-33.359,14.756
	c-8.535,9.834-12.793,25.771-12.793,47.803c0,23.369,4.199,40.02,12.607,49.941c8.408,9.921,19.336,14.883,32.793,14.883
	c9.922,0,18.457-3.154,25.596-9.463C392.842,404.543,397.969,394.622,401.084,381.086L401.084,381.086z M456.572,410.852
	l35.565-5.42c1.515,6.896,4.58,12.129,9.209,15.693c4.619,3.584,11.095,5.361,19.414,5.361c9.17,0,16.064-1.681,20.685-5.039
	c3.114-2.354,4.668-5.508,4.668-9.463c0-2.687-0.84-4.912-2.521-6.681c-1.768-1.68-5.723-3.242-11.854-4.668
	c-28.584-6.309-46.709-12.061-54.355-17.274c-10.596-7.236-15.889-17.285-15.889-30.146c0-11.602,4.58-21.356,13.74-29.258
	c9.17-7.9,23.379-11.855,42.627-11.855c18.33,0,31.953,2.988,40.869,8.955c8.905,5.968,15.049,14.795,18.407,26.484l-33.418,6.182
	c-1.436-5.215-4.141-9.209-8.135-11.981c-3.994-2.773-9.697-4.16-17.09-4.16c-9.336,0-16.016,1.299-20.06,3.906
	c-2.686,1.846-4.032,4.248-4.032,7.188c0,2.521,1.182,4.668,3.535,6.437c3.192,2.354,14.229,5.674,33.104,9.961
	s32.051,9.541,39.541,15.762c7.394,6.309,11.094,15.098,11.094,26.357c0,12.284-5.127,22.832-15.391,31.659
	c-10.254,8.828-25.43,13.242-45.527,13.242c-18.241,0-32.686-3.701-43.319-11.103C466.807,433.596,459.854,423.547,456.572,410.852
	L456.572,410.852z M859.473,108.274v7.588h-42.5c-0.067-1.904,0.244-3.73,0.918-5.479c1.084-2.9,2.813-5.752,5.195-8.555
	c2.383-2.813,5.83-6.055,10.332-9.746c6.992-5.732,11.709-10.264,14.17-13.613c2.451-3.35,3.682-6.514,3.682-9.502
	c0-3.125-1.112-5.771-3.35-7.92c-2.246-2.148-5.156-3.223-8.76-3.223c-3.799,0-6.836,1.143-9.121,3.428
	c-2.275,2.275-3.438,5.439-3.467,9.473l-8.115-0.84c0.557-6.045,2.646-10.664,6.279-13.838c3.623-3.174,8.485-4.756,14.6-4.756
	c6.172,0,11.055,1.709,14.658,5.127c3.594,3.428,5.391,7.666,5.391,12.725c0,2.578-0.526,5.107-1.571,7.588
	c-1.056,2.49-2.804,5.107-5.244,7.852c-2.441,2.754-6.504,6.523-12.179,11.318c-4.735,3.975-7.772,6.68-9.12,8.096
	c-1.349,1.416-2.462,2.842-3.341,4.277H859.473z M830.127,170.833c-3.271-1.201-5.703-2.91-7.285-5.137
	c-1.572-2.217-2.362-4.883-2.362-7.979c0-4.678,1.68-8.613,5.038-11.807c3.369-3.184,7.843-4.775,13.429-4.775
	c5.614,0,10.137,1.631,13.555,4.893c3.418,3.262,5.137,7.227,5.137,11.904c0,2.988-0.791,5.586-2.354,7.793
	c-1.563,2.207-3.937,3.906-7.129,5.107c3.955,1.289,6.953,3.359,9.014,6.23c2.07,2.861,3.096,6.289,3.096,10.264
	c0,5.498-1.942,10.117-5.83,13.857c-3.896,3.75-9.014,5.615-15.36,5.615c-6.338,0-11.455-1.875-15.353-5.635
	c-3.887-3.76-5.83-8.447-5.83-14.063c0-4.18,1.056-7.676,3.185-10.498C823.193,173.782,826.211,171.858,830.127,170.833z
	 M826.006,187.151c0,2.256,0.527,4.434,1.603,6.533c1.063,2.109,2.655,3.74,4.756,4.893c2.081,1.145,4.421,1.74,6.797,1.729
	c3.779,0,6.895-1.211,9.346-3.633c2.461-2.432,3.691-5.518,3.691-9.258c0-3.799-1.271-6.943-3.799-9.434
	c-2.529-2.48-5.693-3.73-9.503-3.73c-3.711,0-6.786,1.23-9.229,3.691C827.227,180.393,826.006,183.469,826.006,187.151
	L826.006,187.151z M828.545,157.454c0,3.037,0.986,5.527,2.939,7.451c1.963,1.934,4.502,2.9,7.637,2.9
	c3.037,0,5.537-0.957,7.48-2.871c1.942-1.914,2.92-4.268,2.92-7.041c0-2.9-1.007-5.332-3.009-7.305
	c-2.002-1.973-4.502-2.959-7.479-2.959c-3.019,0-5.519,0.957-7.5,2.891C829.541,152.454,828.545,154.758,828.545,157.454
	L828.545,157.454z M797.744,295.54h-7.891v-50.313c-1.904,1.807-4.396,3.623-7.48,5.439c-3.086,1.807-5.859,3.174-8.311,4.072
	v-7.627c4.414-2.08,8.271-4.59,11.582-7.549c3.301-2.949,5.645-5.82,7.012-8.594h5.088V295.54L797.744,295.54z M830.117,260.667
	c-3.271-1.201-5.703-2.91-7.285-5.137c-1.572-2.217-2.363-4.883-2.363-7.979c0-4.678,1.681-8.613,5.039-11.807
	c3.369-3.184,7.842-4.775,13.428-4.775c5.615,0,10.138,1.631,13.556,4.893c3.418,3.262,5.137,7.227,5.137,11.904
	c0,2.988-0.791,5.586-2.354,7.793c-1.563,2.207-3.937,3.906-7.13,5.107c3.955,1.289,6.953,3.359,9.015,6.23
	c2.069,2.861,3.096,6.289,3.096,10.264c0,5.498-1.942,10.117-5.83,13.857c-3.896,3.75-9.014,5.615-15.36,5.615
	c-6.339,0-11.455-1.875-15.353-5.635c-3.887-3.76-5.83-8.447-5.83-14.063c0-4.18,1.055-7.676,3.185-10.498
	C823.184,263.616,826.201,261.692,830.117,260.667L830.117,260.667z M825.996,276.985c0,2.256,0.527,4.434,1.602,6.533
	c1.064,2.109,2.656,3.74,4.756,4.893c2.082,1.145,4.422,1.74,6.798,1.729c3.778,0,6.895-1.211,9.346-3.633
	c2.461-2.432,3.69-5.518,3.69-9.258c0-3.799-1.27-6.943-3.799-9.434c-2.528-2.48-5.692-3.73-9.502-3.73
	c-3.711,0-6.787,1.23-9.229,3.691C827.217,270.227,825.996,273.303,825.996,276.985L825.996,276.985z M828.535,247.288
	c0,3.037,0.986,5.527,2.938,7.451c1.964,1.934,4.503,2.9,7.638,2.9c3.037,0,5.537-0.957,7.479-2.871
	c1.943-1.914,2.92-4.268,2.92-7.041c0-2.9-1.006-5.332-3.008-7.305c-2.002-1.973-4.502-2.959-7.479-2.959
	c-3.019,0-5.519,0.957-7.5,2.891C829.531,242.288,828.535,244.592,828.535,247.288L828.535,247.288z M797.744,385.383h-7.891V335.07
	c-1.904,1.807-4.396,3.623-7.48,5.438c-3.086,1.808-5.859,3.174-8.311,4.072v-7.627c4.414-2.08,8.271-4.59,11.582-7.549
	c3.301-2.949,5.645-5.82,7.012-8.595h5.088V385.383L797.744,385.383z M830.117,350.51c-3.271-1.201-5.703-2.91-7.285-5.137
	c-1.572-2.217-2.363-4.883-2.363-7.979c0-4.678,1.681-8.612,5.039-11.807c3.369-3.184,7.842-4.774,13.428-4.774
	c5.615,0,10.138,1.631,13.556,4.893s5.137,7.227,5.137,11.904c0,2.987-0.791,5.586-2.354,7.793c-1.563,2.207-3.937,3.905-7.13,5.106
	c3.955,1.289,6.953,3.359,9.015,6.23c2.069,2.86,3.096,6.289,3.096,10.264c0,5.498-1.942,10.117-5.83,13.857
	c-3.896,3.75-9.014,5.614-15.36,5.614c-6.339,0-11.455-1.875-15.353-5.635c-3.887-3.76-5.83-8.447-5.83-14.063
	c0-4.181,1.055-7.677,3.185-10.498C823.184,353.459,826.201,351.536,830.117,350.51z M825.996,366.829
	c0,2.256,0.527,4.434,1.602,6.533c1.064,2.108,2.656,3.739,4.756,4.893c2.082,1.146,4.422,1.74,6.798,1.729
	c3.778,0,6.895-1.211,9.346-3.634c2.461-2.432,3.69-5.518,3.69-9.258c0-3.799-1.27-6.942-3.799-9.434
	c-2.528-2.48-5.692-3.73-9.502-3.73c-3.711,0-6.787,1.23-9.229,3.691C827.217,360.071,825.996,363.147,825.996,366.829
	L825.996,366.829z M828.535,337.131c0,3.037,0.986,5.527,2.938,7.451c1.964,1.934,4.503,2.9,7.638,2.9
	c3.037,0,5.537-0.957,7.479-2.871c1.943-1.914,2.92-4.269,2.92-7.041c0-2.9-1.006-5.332-3.008-7.306
	c-2.002-1.973-4.502-2.959-7.479-2.959c-3.019,0-5.519,0.957-7.5,2.892C829.531,332.131,828.535,334.436,828.535,337.131
	L828.535,337.131z M830.127,440.344c-3.271-1.201-5.703-2.91-7.285-5.137c-1.572-2.217-2.362-4.883-2.362-7.979
	c0-4.678,1.68-8.612,5.038-11.807c3.369-3.184,7.843-4.774,13.429-4.774c5.614,0,10.137,1.631,13.555,4.893
	s5.137,7.227,5.137,11.904c0,2.987-0.791,5.586-2.354,7.793c-1.563,2.207-3.937,3.905-7.129,5.106
	c3.955,1.289,6.953,3.359,9.014,6.23c2.07,2.86,3.096,6.289,3.096,10.263c0,5.504-1.942,10.113-5.83,13.863
	c-3.896,3.75-9.014,5.604-15.36,5.604c-6.338,0-11.455-1.875-15.353-5.625c-3.887-3.77-5.83-8.457-5.83-14.067
	c0-4.181,1.056-7.676,3.185-10.498C823.193,443.293,826.211,441.37,830.127,440.344L830.127,440.344z M826.006,456.662
	c0,2.262,0.527,4.43,1.603,6.539c1.063,2.108,2.655,3.729,4.756,4.883c2.081,1.148,4.42,1.746,6.797,1.738
	c3.779,0,6.895-1.211,9.346-3.633c2.461-2.441,3.691-5.527,3.691-9.265c0-3.799-1.271-6.942-3.799-9.433
	c-2.529-2.48-5.693-3.73-9.503-3.73c-3.711,0-6.786,1.23-9.229,3.691C827.227,449.905,826.006,452.98,826.006,456.662
	L826.006,456.662z M828.545,426.965c0,3.037,0.986,5.527,2.939,7.451c1.963,1.934,4.502,2.9,7.637,2.9
	c3.037,0,5.537-0.957,7.48-2.871c1.942-1.914,2.92-4.269,2.92-7.041c0-2.9-1.007-5.332-3.009-7.306
	c-2.002-1.973-4.502-2.959-7.479-2.959c-3.019,0-5.519,0.957-7.5,2.892C829.541,421.965,828.545,424.27,828.545,426.965
	L828.545,426.965z M847.715,565.057h-7.891v-50.313c-1.904,1.815-4.396,3.633-7.48,5.449c-3.086,1.797-5.858,3.164-8.311,4.063
	v-7.617c4.414-2.09,8.271-4.59,11.582-7.559c3.301-2.949,5.645-5.82,7.012-8.594h5.088V565.057L847.715,565.057z"/>
</svg>
