<?xml version="1.0" encoding="utf-8"?>
<!-- Generator: Adobe Illustrator 16.0.3, SVG Export Plug-In . SVG Version: 6.00 Build 0)  -->
<!DOCTYPE svg PUBLIC "-//W3C//DTD SVG 1.1//EN" "http://www.w3.org/Graphics/SVG/1.1/DTD/svg11.dtd">
<svg version="1.1" id="Layer_1" xmlns="http://www.w3.org/2000/svg" xmlns:xlink="http://www.w3.org/1999/xlink" x="0px" y="0px"
	 width="900px" height="900px" viewBox="0 0 900 900" enable-background="new 0 0 900 900" xml:space="preserve">
<path d="M39.731,134.036l14.531-1.23c1.074,7.07,3.574,12.393,7.5,15.957c3.916,3.555,8.643,5.342,14.18,5.342
	c6.66,0,12.305-2.51,16.914-7.539c4.609-5.02,6.924-11.68,6.924-19.99c0-7.891-2.217-14.121-6.65-18.682s-10.244-6.836-17.412-6.836
	c-4.463,0-8.486,1.006-12.07,3.037c-3.594,2.021-6.416,4.648-8.457,7.881l-12.998-1.699L53.11,52.385h56.045v13.223h-44.97
	L58.11,95.901c6.758-4.717,13.857-7.07,21.289-7.07c9.844,0,18.145,3.408,24.912,10.225s10.146,15.576,10.146,26.289
	c0,10.205-2.969,19.023-8.916,26.445c-7.227,9.131-17.09,13.691-29.6,13.691c-10.254,0-18.613-2.871-25.098-8.613
	C44.358,151.126,40.659,143.518,39.731,134.036z M199.106,78.45l-13.76,1.074c-1.23-5.43-2.969-9.375-5.225-11.836
	c-3.75-3.945-8.359-5.918-13.838-5.918c-4.414,0-8.281,1.23-11.611,3.691c-4.355,3.174-7.793,7.813-10.303,13.916
	c-2.51,6.094-3.818,14.785-3.926,26.055c3.33-5.068,7.412-8.838,12.227-11.299s9.863-3.691,15.146-3.691
	c9.229,0,17.08,3.398,23.564,10.186c6.484,6.797,9.727,15.566,9.727,26.338c0,7.07-1.523,13.643-4.58,19.717
	c-3.047,6.074-7.236,10.723-12.568,13.955c-5.332,3.223-11.377,4.844-18.145,4.844c-11.533,0-20.938-4.238-28.213-12.725
	c-7.275-8.487-10.918-22.461-10.918-41.943c0-21.777,4.023-37.617,12.07-47.51c7.021-8.613,16.475-12.91,28.369-12.91
	c8.867,0,16.133,2.48,21.797,7.451C194.583,62.816,197.983,69.69,199.106,78.45L199.106,78.45z M142.603,127.043
	c0,4.766,1.006,9.326,3.037,13.682c2.021,4.355,4.854,7.676,8.496,9.951c3.633,2.285,7.451,3.428,11.455,3.428
	c5.84,0,10.859-2.363,15.068-7.08c4.199-4.707,6.299-11.113,6.299-19.219c0-7.783-2.07-13.926-6.221-18.408
	c-4.16-4.482-9.385-6.729-15.684-6.729c-6.26,0-11.563,2.246-15.918,6.729C144.78,113.88,142.603,119.758,142.603,127.043z
	 M292.329,662.459v-74.102h27.803c5.664,0,10.205,0.741,13.623,2.245c3.418,1.505,6.094,3.81,8.037,6.935
	c1.934,3.104,2.9,6.367,2.9,9.766c0,3.185-0.85,6.152-2.568,8.945c-1.719,2.813-4.316,5.059-7.793,6.777
	c4.482,1.309,7.93,3.555,10.342,6.719c2.412,3.184,3.613,6.914,3.613,11.229c0,3.478-0.732,6.699-2.197,9.668
	c-1.465,2.988-3.281,5.293-5.439,6.914c-2.148,1.621-4.854,2.832-8.105,3.652c-3.252,0.84-7.236,1.25-11.953,1.25L292.329,662.459
	L292.329,662.459z M302.134,619.49h16.025c4.346,0,7.461-0.293,9.355-0.859c2.49-0.742,4.365-1.973,5.635-3.69
	c1.26-1.72,1.895-3.867,1.895-6.466c0-2.461-0.586-4.629-1.768-6.504c-1.182-1.854-2.871-3.145-5.059-3.828
	c-2.188-0.703-5.947-1.034-11.27-1.034h-14.814L302.134,619.49L302.134,619.49z M302.134,653.709h18.457
	c3.164,0,5.391-0.117,6.67-0.352c2.256-0.41,4.141-1.074,5.664-2.031c1.514-0.938,2.754-2.305,3.74-4.121
	c0.977-1.797,1.465-3.867,1.465-6.23c0-2.772-0.713-5.155-2.129-7.207c-1.416-2.03-3.379-3.477-5.889-4.297
	c-2.51-0.819-6.123-1.229-10.84-1.229h-17.139L302.134,653.709L302.134,653.709z M395.649,655.838
	c-3.379,2.853-6.621,4.883-9.736,6.055c-3.115,1.191-6.455,1.777-10.029,1.777c-5.898,0-10.43-1.445-13.594-4.316
	c-3.174-2.891-4.756-6.563-4.756-11.055c0-2.617,0.596-5.02,1.797-7.207c1.191-2.168,2.764-3.906,4.697-5.215
	c1.934-1.328,4.121-2.324,6.543-2.988c1.787-0.469,4.482-0.938,8.086-1.366c7.354-0.88,12.754-1.914,16.23-3.125
	c0.029-1.25,0.049-2.052,0.049-2.384c0-3.711-0.859-6.328-2.578-7.832c-2.324-2.051-5.781-3.086-10.361-3.086
	c-4.277,0-7.441,0.742-9.473,2.246c-2.041,1.504-3.555,4.16-4.531,7.969l-8.896-1.211c0.811-3.809,2.148-6.895,3.994-9.237
	c1.855-2.345,4.531-4.142,8.037-5.41c3.506-1.25,7.568-1.896,12.188-1.896c4.58,0,8.301,0.548,11.172,1.621
	c2.861,1.074,4.961,2.441,6.309,4.063c1.348,1.641,2.295,3.711,2.832,6.19c0.303,1.563,0.459,4.355,0.459,8.398v12.129
	c0,8.457,0.195,13.809,0.576,16.055c0.398,2.264,1.178,4.442,2.305,6.445h-9.502C396.519,660.564,395.913,658.357,395.649,655.838
	L395.649,655.838z M394.888,635.506c-3.301,1.348-8.262,2.5-14.863,3.438c-3.74,0.547-6.387,1.151-7.93,1.836
	c-1.553,0.664-2.754,1.659-3.594,2.948s-1.26,2.734-1.26,4.316c0,2.422,0.918,4.453,2.754,6.074s4.521,2.422,8.057,2.422
	c3.506,0,6.621-0.762,9.355-2.305c2.725-1.523,4.736-3.634,6.016-6.289c0.977-2.052,1.465-5.078,1.465-9.103V635.506
	L394.888,635.506z M418.081,662.459v-53.691h8.193v8.146c2.09-3.81,4.014-6.31,5.78-7.539c1.777-1.211,3.722-1.816,5.84-1.816
	c3.066,0,6.183,0.978,9.355,2.931l-3.135,8.457c-2.228-1.328-4.453-1.974-6.67-1.974c-1.992,0-3.779,0.586-5.361,1.797
	c-1.582,1.191-2.715,2.853-3.389,4.962c-1.006,3.241-1.515,6.776-1.515,10.625v28.104L418.081,662.459L418.081,662.459z
	 M452.71,598.826v-10.469h9.103v10.469H452.71z M452.71,662.459v-53.691h9.103v53.691H452.71z M510.835,662.459v-7.891
	c-4.18,6.073-9.854,9.102-17.031,9.102c-3.174,0-6.123-0.604-8.877-1.816c-2.744-1.211-4.785-2.733-6.112-4.59
	c-1.328-1.836-2.267-4.082-2.804-6.737c-0.371-1.777-0.557-4.609-0.557-8.496v-33.263h9.102v29.785c0,4.746,0.187,7.949,0.558,9.59
	c0.565,2.402,1.776,4.277,3.633,5.646c1.855,1.368,4.149,2.051,6.875,2.051c2.734,0,5.293-0.703,7.686-2.108
	c2.394-1.388,4.082-3.302,5.078-5.703c0.996-2.402,1.494-5.898,1.494-10.488v-28.77h9.092v53.69L510.835,662.459L510.835,662.459z
	 M533.228,662.459v-53.691h8.136v7.539c1.688-2.637,3.926-4.746,6.719-6.348c2.803-1.602,5.986-2.402,9.561-2.402
	c3.976,0,7.236,0.841,9.775,2.48c2.549,1.66,4.336,3.965,5.381,6.934c4.248-6.27,9.775-9.414,16.582-9.414
	c5.322,0,9.414,1.484,12.285,4.435c2.861,2.949,4.297,7.479,4.297,13.612v36.855h-9.053v-33.828c0-3.633-0.293-6.25-0.879-7.852
	c-0.597-1.603-1.66-2.892-3.213-3.867c-1.554-0.977-3.369-1.465-5.459-1.465c-3.771,0-6.904,1.25-9.404,3.77
	c-2.49,2.5-3.74,6.523-3.74,12.051v31.191h-9.092v-34.883c0-4.043-0.742-7.07-2.227-9.103c-1.484-2.012-3.906-3.026-7.275-3.026
	c-2.568,0-4.932,0.684-7.109,2.031c-2.168,1.348-3.74,3.301-4.727,5.897c-0.978,2.598-1.465,6.348-1.465,11.23v27.852
	L533.228,662.459L533.228,662.459z M94.214,848.299h-9.102v-57.988c-2.188,2.091-5.059,4.181-8.613,6.271s-6.748,3.672-9.58,4.707
	v-8.789c5.088-2.402,9.541-5.293,13.35-8.691c3.799-3.418,6.504-6.719,8.086-9.922h5.859V848.299L94.214,848.299z M117.563,828.729
	l9.102-1.211c1.045,5.156,2.822,8.867,5.332,11.152c2.51,2.266,5.566,3.398,9.17,3.398c4.277,0,7.891-1.466,10.84-4.435
	c2.949-2.969,4.424-6.641,4.424-11.016c0-4.181-1.357-7.638-4.092-10.353c-2.725-2.715-6.201-4.063-10.41-4.063
	c-1.719,0-3.857,0.332-6.416,1.016l1.006-7.987c0.486,0.054,0.976,0.087,1.465,0.098c3.877,0,7.363-1.016,10.469-3.027
	c3.096-2.03,4.648-5.137,4.648-9.354c0-3.34-1.133-6.094-3.389-8.281c-2.256-2.207-5.176-3.301-8.74-3.301
	c-3.545,0-6.494,1.113-8.848,3.34c-2.363,2.227-3.877,5.566-4.551,10.02l-9.102-1.62c1.113-6.095,3.643-10.82,7.588-14.181
	c3.936-3.358,8.838-5.039,14.707-5.039c4.043,0,7.764,0.879,11.172,2.617c3.398,1.738,6.006,4.103,7.803,7.09
	c1.807,3.009,2.705,6.191,2.705,9.552c0,3.202-0.859,6.112-2.578,8.75c-1.719,2.637-4.258,4.727-7.627,6.27
	c4.375,1.017,7.783,3.105,10.205,6.289c2.432,3.185,3.643,7.168,3.643,11.953c0,6.465-2.363,11.953-7.08,16.465
	c-4.717,4.492-10.684,6.738-17.891,6.738c-6.504,0-11.904-1.935-16.201-5.82C120.62,839.92,118.169,834.9,117.563,828.729
	L117.563,828.729z M175.688,783.904v-8.75h47.969v7.069c-4.717,5.021-9.396,11.699-14.023,20.021
	c-4.639,8.32-8.213,16.895-10.742,25.684c-1.826,6.191-2.988,12.988-3.486,20.371h-9.355c0.098-5.84,1.25-12.871,3.438-21.133
	s5.332-16.211,9.424-23.887c4.102-7.656,8.447-14.121,13.066-19.375H175.688z M237.769,848.299v-10.371h10.361v10.371H237.769z
	 M261.47,828.729l9.102-1.211c1.045,5.156,2.822,8.867,5.332,11.152c2.51,2.266,5.566,3.398,9.17,3.398
	c4.277,0,7.891-1.466,10.84-4.435c2.949-2.969,4.424-6.641,4.424-11.016c0-4.181-1.357-7.638-4.092-10.353
	c-2.725-2.715-6.201-4.063-10.41-4.063c-1.719,0-3.857,0.332-6.416,1.016l1.006-7.987c0.487,0.054,0.976,0.087,1.465,0.098
	c3.877,0,7.363-1.016,10.469-3.027c3.096-2.03,4.648-5.137,4.648-9.354c0-3.34-1.133-6.094-3.389-8.281
	c-2.256-2.207-5.176-3.301-8.74-3.301c-3.545,0-6.494,1.113-8.848,3.34c-2.363,2.227-3.877,5.566-4.551,10.02l-9.102-1.62
	c1.113-6.095,3.643-10.82,7.588-14.181c3.936-3.358,8.838-5.039,14.707-5.039c4.043,0,7.764,0.879,11.172,2.617
	c3.398,1.738,6.006,4.103,7.803,7.09c1.807,3.009,2.705,6.191,2.705,9.552c0,3.202-0.859,6.112-2.578,8.75
	c-1.719,2.637-4.258,4.727-7.627,6.27c4.375,1.017,7.783,3.105,10.205,6.289c2.432,3.185,3.643,7.168,3.643,11.953
	c0,6.465-2.363,11.953-7.08,16.465c-4.717,4.492-10.684,6.738-17.891,6.738c-6.504,0-11.904-1.935-16.201-5.82
	C264.526,839.92,262.075,834.9,261.47,828.729L261.47,828.729z M319.038,828.729l9.102-1.211c1.045,5.156,2.822,8.867,5.332,11.152
	c2.51,2.266,5.566,3.398,9.17,3.398c4.277,0,7.891-1.466,10.84-4.435c2.949-2.969,4.424-6.641,4.424-11.016
	c0-4.181-1.357-7.638-4.092-10.353c-2.725-2.715-6.201-4.063-10.41-4.063c-1.719,0-3.857,0.332-6.416,1.016l1.006-7.987
	c0.486,0.054,0.975,0.087,1.465,0.098c3.877,0,7.363-1.016,10.469-3.027c3.096-2.03,4.648-5.137,4.648-9.354
	c0-3.34-1.133-6.094-3.389-8.281c-2.256-2.207-5.176-3.301-8.74-3.301c-3.545,0-6.494,1.113-8.848,3.34
	c-2.363,2.227-3.877,5.566-4.551,10.02l-9.102-1.62c1.113-6.095,3.643-10.82,7.588-14.181c3.936-3.358,8.838-5.039,14.707-5.039
	c4.043,0,7.764,0.879,11.172,2.617c3.398,1.738,6.006,4.103,7.803,7.09c1.807,3.009,2.705,6.191,2.705,9.552
	c0,3.202-0.859,6.112-2.578,8.75c-1.719,2.637-4.258,4.727-7.627,6.27c4.375,1.017,7.783,3.105,10.205,6.289
	c2.432,3.185,3.643,7.168,3.643,11.953c0,6.465-2.363,11.953-7.08,16.465c-4.717,4.492-10.684,6.738-17.891,6.738
	c-6.504,0-11.904-1.935-16.201-5.82C322.095,839.92,319.644,834.9,319.038,828.729L319.038,828.729z M296.919,265.071h73.906
	c14.629,0,25.537,0.615,32.725,1.836c7.188,1.221,13.623,3.76,19.297,7.627c5.675,3.867,10.41,9.014,14.189,15.449
	c3.778,6.435,5.674,13.643,5.674,21.631c0,8.662-2.334,16.602-7.002,23.838c-4.658,7.227-10.986,12.656-18.975,16.27
	c11.26,3.271,19.922,8.867,25.977,16.769c6.055,7.91,9.082,17.197,9.082,27.871c0,8.407-1.953,16.592-5.859,24.53
	c-3.916,7.949-9.258,14.298-16.024,19.043c-6.769,4.757-15.107,7.677-25.029,8.771c-6.221,0.674-21.23,1.094-45.029,1.26h-62.93
	L296.919,265.071L296.919,265.071z M334.253,295.852v42.754h24.463c14.551,0,23.584-0.216,27.119-0.636
	c6.387-0.752,11.416-2.959,15.068-6.621c3.662-3.662,5.487-8.467,5.487-14.442c0-5.713-1.582-10.361-4.727-13.936
	c-3.154-3.574-7.842-5.732-14.063-6.494c-3.701-0.42-14.336-0.625-31.914-0.625H334.253L334.253,295.852z M334.253,369.377v49.434
	h34.551c13.457,0,21.992-0.381,25.605-1.133c5.547-1.006,10.067-3.467,13.555-7.383c3.486-3.906,5.234-9.141,5.234-15.693
	c0-5.557-1.349-10.264-4.033-14.131c-2.695-3.867-6.582-6.68-11.67-8.446c-5.088-1.768-16.123-2.646-33.105-2.646L334.253,369.377
	L334.253,369.377z M509.546,356.887l-32.158-5.801c3.613-12.949,9.845-22.529,18.672-28.75c8.828-6.221,21.943-9.336,39.346-9.336
	c15.801,0,27.578,1.875,35.313,5.615c7.735,3.74,13.174,8.485,16.328,14.248c3.154,5.762,4.736,16.328,4.736,31.719l-0.381,41.367
	c0,11.768,0.565,20.449,1.698,26.045c1.134,5.586,3.263,11.582,6.367,17.969h-35.059c-0.928-2.354-2.062-5.84-3.398-10.469
	c-0.596-2.101-1.016-3.486-1.27-4.16c-6.056,5.889-12.529,10.303-19.414,13.242c-6.896,2.938-14.258,4.414-22.07,4.414
	c-13.799,0-24.658-3.74-32.606-11.221c-7.939-7.489-11.914-16.942-11.914-28.379c0-7.567,1.807-14.315,5.42-20.243
	c3.612-5.929,8.682-10.47,15.194-13.623c6.514-3.154,15.908-5.898,28.193-8.263c16.563-3.104,28.037-6.006,34.424-8.701v-3.524
	c0-6.816-1.68-11.67-5.039-14.57c-3.369-2.899-9.717-4.346-19.043-4.346c-6.309,0-11.229,1.24-14.756,3.721
	C514.595,346.321,511.733,350.667,509.546,356.887L509.546,356.887z M556.968,385.647c-4.541,1.514-11.729,3.319-21.563,5.42
	c-9.834,2.1-16.271,4.159-19.297,6.182c-4.63,3.281-6.935,7.441-6.935,12.48c0,4.961,1.846,9.247,5.547,12.87
	c3.701,3.613,8.408,5.421,14.121,5.421c6.396,0,12.49-2.101,18.291-6.31c4.287-3.193,7.101-7.1,8.447-11.729
	c0.928-3.027,1.387-8.779,1.387-17.275L556.968,385.647L556.968,385.647z M859.479,109.172v7.588h-42.5
	c-0.068-1.904,0.243-3.73,0.918-5.479c1.084-2.9,2.813-5.752,5.194-8.555c2.383-2.813,5.83-6.055,10.332-9.746
	c6.992-5.732,11.709-10.264,14.17-13.613c2.451-3.35,3.683-6.514,3.683-9.502c0-3.125-1.113-5.771-3.351-7.92
	c-2.246-2.148-5.155-3.223-8.76-3.223c-3.799,0-6.836,1.143-9.121,3.428c-2.274,2.275-3.438,5.439-3.467,9.473l-8.115-0.84
	c0.558-6.045,2.646-10.664,6.279-13.838c3.623-3.174,8.486-4.756,14.6-4.756c6.172,0,11.056,1.709,14.658,5.127
	c3.594,3.428,5.391,7.666,5.391,12.725c0,2.578-0.526,5.107-1.571,7.588c-1.056,2.49-2.804,5.107-5.244,7.852
	c-2.441,2.754-6.504,6.523-12.178,11.318c-4.736,3.975-7.773,6.68-9.121,8.096c-1.349,1.416-2.461,2.842-3.34,4.277H859.479z
	 M830.132,171.731c-3.271-1.201-5.703-2.91-7.285-5.137c-1.571-2.217-2.362-4.883-2.362-7.979c0-4.678,1.68-8.613,5.039-11.807
	c3.369-3.184,7.842-4.775,13.428-4.775c5.615,0,10.137,1.631,13.555,4.893c3.418,3.262,5.137,7.227,5.137,11.904
	c0,2.988-0.791,5.586-2.354,7.793s-3.936,3.906-7.129,5.107c3.955,1.289,6.953,3.359,9.014,6.23
	c2.07,2.861,3.096,6.289,3.096,10.264c0,5.498-1.942,10.117-5.829,13.857c-3.896,3.75-9.015,5.615-15.361,5.615
	c-6.338,0-11.455-1.875-15.353-5.635c-3.887-3.76-5.83-8.447-5.83-14.063c0-4.18,1.056-7.676,3.185-10.498
	C823.198,174.68,826.216,172.756,830.132,171.731L830.132,171.731z M826.011,188.049c0,2.256,0.527,4.434,1.603,6.533
	c1.063,2.109,2.656,3.74,4.756,4.893c2.081,1.145,4.421,1.74,6.797,1.729c3.779,0,6.895-1.211,9.346-3.633
	c2.461-2.432,3.691-5.518,3.691-9.258c0-3.799-1.271-6.943-3.799-9.434c-2.529-2.48-5.693-3.73-9.502-3.73
	c-3.711,0-6.787,1.23-9.229,3.691C827.23,181.292,826.011,184.368,826.011,188.049L826.011,188.049z M828.55,158.352
	c0,3.037,0.986,5.527,2.939,7.451c1.963,1.934,4.502,2.9,7.637,2.9c3.037,0,5.537-0.957,7.48-2.871
	c1.942-1.914,2.92-4.268,2.92-7.041c0-2.9-1.006-5.332-3.009-7.305c-2.002-1.973-4.502-2.959-7.479-2.959
	c-3.018,0-5.518,0.957-7.5,2.891C829.546,153.352,828.55,155.657,828.55,158.352L828.55,158.352z M797.749,296.438h-7.891v-50.313
	c-1.904,1.807-4.396,3.623-7.48,5.439c-3.086,1.807-5.858,3.174-8.311,4.072v-7.627c4.414-2.08,8.271-4.59,11.582-7.549
	c3.301-2.949,5.645-5.82,7.012-8.594h5.088V296.438L797.749,296.438z M830.122,261.565c-3.271-1.201-5.703-2.91-7.285-5.137
	c-1.572-2.217-2.363-4.883-2.363-7.979c0-4.678,1.681-8.613,5.039-11.807c3.369-3.184,7.843-4.775,13.429-4.775
	c5.614,0,10.137,1.631,13.555,4.893c3.418,3.262,5.137,7.227,5.137,11.904c0,2.988-0.791,5.586-2.354,7.793
	c-1.563,2.207-3.937,3.906-7.129,5.107c3.955,1.289,6.953,3.359,9.014,6.23c2.07,2.861,3.096,6.289,3.096,10.264
	c0,5.498-1.942,10.117-5.83,13.857c-3.896,3.75-9.014,5.615-15.36,5.615c-6.339,0-11.455-1.875-15.353-5.635
	c-3.887-3.76-5.83-8.447-5.83-14.063c0-4.18,1.056-7.676,3.185-10.498C823.188,264.514,826.206,262.59,830.122,261.565
	L830.122,261.565z M826.001,277.883c0,2.256,0.527,4.434,1.603,6.533c1.063,2.109,2.655,3.74,4.756,4.893
	c2.081,1.145,4.421,1.74,6.797,1.729c3.778,0,6.895-1.211,9.346-3.633c2.461-2.432,3.691-5.518,3.691-9.258
	c0-3.799-1.271-6.943-3.8-9.434c-2.528-2.48-5.692-3.73-9.502-3.73c-3.711,0-6.786,1.23-9.229,3.691
	C827.222,271.125,826.001,274.202,826.001,277.883L826.001,277.883z M828.54,248.186c0,3.037,0.986,5.527,2.939,7.451
	c1.963,1.934,4.502,2.9,7.637,2.9c3.037,0,5.537-0.957,7.479-2.871c1.943-1.914,2.92-4.268,2.92-7.041
	c0-2.9-1.006-5.332-3.008-7.305c-2.002-1.973-4.502-2.959-7.479-2.959c-3.019,0-5.519,0.957-7.5,2.891
	C829.536,243.186,828.54,245.491,828.54,248.186L828.54,248.186z M797.749,386.282h-7.891v-50.313
	c-1.904,1.808-4.396,3.623-7.48,5.439c-3.086,1.807-5.858,3.174-8.311,4.072v-7.628c4.414-2.079,8.271-4.59,11.582-7.549
	c3.301-2.949,5.645-5.819,7.012-8.594h5.088V386.282L797.749,386.282z M830.122,351.409c-3.271-1.201-5.703-2.91-7.285-5.137
	c-1.572-2.218-2.363-4.884-2.363-7.979c0-4.678,1.681-8.613,5.039-11.807c3.369-3.185,7.843-4.775,13.429-4.775
	c5.614,0,10.137,1.631,13.555,4.893c3.418,3.263,5.137,7.228,5.137,11.904c0,2.988-0.791,5.586-2.354,7.793
	c-1.563,2.207-3.937,3.906-7.129,5.107c3.955,1.289,6.953,3.358,9.014,6.229c2.07,2.861,3.096,6.289,3.096,10.265
	c0,5.498-1.942,10.116-5.83,13.856c-3.896,3.75-9.014,5.615-15.36,5.615c-6.339,0-11.455-1.875-15.353-5.635
	c-3.887-3.761-5.83-8.447-5.83-14.063c0-4.18,1.056-7.676,3.185-10.498C823.188,354.358,826.206,352.434,830.122,351.409z
	 M826.001,367.727c0,2.257,0.527,4.435,1.603,6.533c1.063,2.109,2.655,3.74,4.756,4.894c2.081,1.146,4.421,1.74,6.797,1.729
	c3.778,0,6.895-1.211,9.346-3.633c2.461-2.432,3.691-5.518,3.691-9.258c0-3.799-1.271-6.943-3.8-9.435
	c-2.528-2.479-5.692-3.729-9.502-3.729c-3.711,0-6.786,1.229-9.229,3.69C827.222,360.969,826.001,364.045,826.001,367.727
	L826.001,367.727z M828.54,338.03c0,3.037,0.986,5.526,2.939,7.451c1.963,1.934,4.502,2.899,7.637,2.899
	c3.037,0,5.537-0.957,7.479-2.871c1.943-1.914,2.92-4.268,2.92-7.041c0-2.899-1.006-5.332-3.008-7.305s-4.502-2.959-7.479-2.959
	c-3.019,0-5.519,0.957-7.5,2.891C829.536,333.03,828.54,335.334,828.54,338.03L828.54,338.03z M830.132,441.243
	c-3.271-1.201-5.703-2.91-7.285-5.137c-1.571-2.218-2.362-4.884-2.362-7.979c0-4.678,1.68-8.613,5.039-11.807
	c3.369-3.185,7.842-4.775,13.428-4.775c5.615,0,10.137,1.631,13.555,4.893c3.418,3.263,5.137,7.228,5.137,11.904
	c0,2.988-0.791,5.586-2.354,7.793s-3.936,3.906-7.129,5.107c3.955,1.289,6.953,3.358,9.014,6.229
	c2.07,2.861,3.096,6.289,3.096,10.264c0,5.504-1.942,10.112-5.829,13.862c-3.896,3.75-9.015,5.605-15.361,5.605
	c-6.338,0-11.455-1.875-15.353-5.625c-3.887-3.771-5.83-8.457-5.83-14.068c0-4.18,1.056-7.675,3.185-10.498
	C823.198,444.192,826.216,442.268,830.132,441.243L830.132,441.243z M826.011,457.561c0,2.263,0.527,4.431,1.603,6.539
	c1.063,2.109,2.656,3.73,4.756,4.884c2.081,1.147,4.42,1.746,6.797,1.737c3.779,0,6.895-1.211,9.346-3.633
	c2.461-2.441,3.691-5.527,3.691-9.264c0-3.799-1.271-6.943-3.799-9.434c-2.529-2.479-5.693-3.729-9.502-3.729
	c-3.711,0-6.787,1.229-9.229,3.69C827.23,450.803,826.011,453.879,826.011,457.561L826.011,457.561z M828.55,427.864
	c0,3.037,0.986,5.526,2.939,7.451c1.963,1.934,4.502,2.899,7.637,2.899c3.037,0,5.537-0.957,7.48-2.871
	c1.942-1.914,2.92-4.268,2.92-7.041c0-2.899-1.006-5.332-3.009-7.305c-2.002-1.973-4.502-2.959-7.479-2.959
	c-3.018,0-5.518,0.957-7.5,2.891C829.546,422.864,828.55,425.168,828.55,427.864L828.55,427.864z M859.479,558.377v7.578h-42.5
	c-0.068-1.896,0.243-3.73,0.918-5.469c1.084-2.91,2.813-5.763,5.194-8.556c2.383-2.813,5.83-6.055,10.332-9.746
	c6.992-5.741,11.709-10.272,14.17-13.612c2.451-3.359,3.683-6.523,3.683-9.513c0-3.125-1.113-5.762-3.351-7.909
	c-2.246-2.148-5.155-3.224-8.76-3.224c-3.799,0-6.836,1.133-9.121,3.418c-2.274,2.285-3.438,5.449-3.467,9.474l-8.115-0.841
	c0.558-6.034,2.646-10.663,6.279-13.827c3.623-3.185,8.486-4.767,14.6-4.767c6.172,0,11.056,1.719,14.658,5.137
	c3.594,3.419,5.391,7.656,5.391,12.716c0,2.578-0.526,5.116-1.571,7.598c-1.056,2.48-2.804,5.098-5.244,7.852
	c-2.441,2.754-6.504,6.523-12.178,11.31c-4.736,3.983-7.773,6.68-9.121,8.104c-1.349,1.406-2.461,2.832-3.34,4.277H859.479z"/>
</svg>
