<?xml version="1.0" encoding="utf-8"?>
<!-- Generator: Adobe Illustrator 16.0.3, SVG Export Plug-In . SVG Version: 6.00 Build 0)  -->
<!DOCTYPE svg PUBLIC "-//W3C//DTD SVG 1.1//EN" "http://www.w3.org/Graphics/SVG/1.1/DTD/svg11.dtd">
<svg version="1.1" id="Layer_1" xmlns="http://www.w3.org/2000/svg" xmlns:xlink="http://www.w3.org/1999/xlink" x="0px" y="0px"
	 width="900px" height="900px" viewBox="0 0 900 900" enable-background="new 0 0 900 900" xml:space="preserve">
<path d="M39.736,133.125l14.531-1.23c1.074,7.07,3.574,12.383,7.5,15.957c3.916,3.555,8.643,5.332,14.18,5.332
	c6.66,0,12.305-2.5,16.914-7.539c4.609-5.02,6.924-11.68,6.924-19.98c0-7.891-2.217-14.121-6.65-18.691
	c-4.434-4.551-10.244-6.836-17.412-6.836c-4.463,0-8.486,1.016-12.07,3.047c-3.594,2.012-6.416,4.648-8.457,7.871l-12.998-1.699
	l10.918-57.891h56.045v13.223H64.189L58.115,94.98c6.758-4.707,13.857-7.07,21.289-7.07c9.844,0,18.145,3.418,24.912,10.234
	s10.146,15.566,10.146,26.289c0,10.195-2.969,19.023-8.916,26.445c-7.227,9.121-17.09,13.691-29.6,13.691
	c-10.254,0-18.613-2.871-25.098-8.613C44.363,150.214,40.664,142.598,39.736,133.125z M128.232,64.688V51.387h72.959v10.781
	c-7.178,7.637-14.287,17.773-21.338,30.43c-7.051,12.657-12.49,25.684-16.338,39.063c-2.764,9.434-4.531,19.766-5.303,30.977
	h-14.219c0.146-8.867,1.895-19.57,5.225-32.129c3.33-12.559,8.105-24.668,14.336-36.328c6.231-11.66,12.852-21.484,19.873-29.492
	L128.232,64.688L128.232,64.688z M197.285,661.563v-74.102h9.805v65.352h36.494v8.75H197.285z M289.131,654.941
	c-3.379,2.852-6.621,4.883-9.736,6.055c-3.115,1.19-6.455,1.777-10.029,1.777c-5.898,0-10.43-1.445-13.594-4.316
	c-3.174-2.891-4.756-6.563-4.756-11.055c0-2.617,0.596-5.021,1.797-7.207c1.191-2.168,2.764-3.906,4.697-5.215
	c1.934-1.328,4.121-2.324,6.543-2.988c1.787-0.469,4.482-0.938,8.086-1.367c7.354-0.879,12.754-1.914,16.23-3.125
	c0.029-1.25,0.049-2.051,0.049-2.383c0-3.711-0.859-6.328-2.578-7.832c-2.324-2.051-5.781-3.086-10.361-3.086
	c-4.277,0-7.441,0.742-9.473,2.246c-2.041,1.504-3.555,4.16-4.531,7.969l-8.896-1.211c0.811-3.81,2.148-6.896,3.994-9.238
	c1.855-2.344,4.531-4.141,8.037-5.41c3.506-1.25,7.568-1.895,12.188-1.895c4.58,0,8.301,0.547,11.172,1.621
	c2.861,1.074,4.961,2.44,6.309,4.063c1.348,1.642,2.295,3.711,2.832,6.191c0.303,1.563,0.459,4.354,0.459,8.397v12.13
	c0,8.456,0.195,13.809,0.576,16.055c0.398,2.263,1.178,4.442,2.305,6.445h-9.502C290,659.668,289.395,657.461,289.131,654.941
	L289.131,654.941z M288.369,634.609c-3.301,1.348-8.262,2.5-14.863,3.438c-3.74,0.547-6.387,1.152-7.93,1.836
	c-1.553,0.664-2.754,1.66-3.594,2.949c-0.84,1.289-1.26,2.734-1.26,4.316c0,2.422,0.918,4.452,2.754,6.073s4.521,2.422,8.057,2.422
	c3.506,0,6.621-0.762,9.355-2.305c2.725-1.522,4.736-3.633,6.016-6.289c0.977-2.051,1.465-5.078,1.465-9.102V634.609
	L288.369,634.609z M311.67,661.563v-53.69h8.184v7.637c3.945-5.897,9.639-8.848,17.09-8.848c3.232,0,6.201,0.586,8.916,1.758
	c2.715,1.152,4.746,2.676,6.094,4.57c1.348,1.875,2.285,4.121,2.832,6.719c0.332,1.68,0.498,4.629,0.498,8.848v33.009h-9.092
	v-32.656c0-3.711-0.352-6.484-1.064-8.32c-0.703-1.836-1.963-3.301-3.76-4.395c-1.807-1.095-3.926-1.642-6.348-1.642
	c-3.877,0-7.217,1.23-10.029,3.691c-2.822,2.461-4.229,7.129-4.229,14.004v29.315H311.67L311.67,661.563z M389.111,653.418
	l1.309,8.047c-2.559,0.527-4.844,0.801-6.875,0.801c-3.301,0-5.859-0.526-7.676-1.563c-1.826-1.055-3.105-2.422-3.848-4.121
	s-1.104-5.293-1.104-10.742v-30.879h-6.68v-7.09h6.68V594.59l9.043-5.469v18.75h9.15v7.09h-9.15v31.387c0,2.599,0.156,4.259,0.479,5
	c0.323,0.742,0.84,1.328,1.572,1.777c0.723,0.43,1.758,0.646,3.105,0.646C386.123,653.771,387.461,653.652,389.111,653.418
	L389.111,653.418z M398.008,661.563v-74.102h9.092v26.582c4.248-4.922,9.609-7.383,16.074-7.383c3.976,0,7.433,0.781,10.361,2.363
	c2.938,1.563,5.029,3.729,6.299,6.483c1.26,2.773,1.895,6.777,1.895,12.031v34.022h-9.102v-34.022c0-4.551-0.986-7.853-2.959-9.922
	c-1.963-2.09-4.756-3.125-8.359-3.125c-2.694,0-5.233,0.703-7.606,2.108c-2.373,1.388-4.072,3.281-5.078,5.685
	c-1.016,2.383-1.523,5.703-1.523,9.901v29.375h-9.093V661.563z M490.605,654.941c-3.379,2.852-6.621,4.883-9.736,6.055
	c-3.115,1.19-6.455,1.777-10.029,1.777c-5.897,0-10.43-1.445-13.594-4.316c-3.174-2.891-4.756-6.563-4.756-11.055
	c0-2.617,0.596-5.021,1.797-7.207c1.191-2.168,2.764-3.906,4.697-5.215c1.934-1.328,4.121-2.324,6.543-2.988
	c1.787-0.469,4.481-0.938,8.086-1.367c7.354-0.879,12.754-1.914,16.229-3.125c0.029-1.25,0.05-2.051,0.05-2.383
	c0-3.711-0.859-6.328-2.578-7.832c-2.324-2.051-5.781-3.086-10.361-3.086c-4.277,0-7.441,0.742-9.473,2.246
	c-2.041,1.504-3.556,4.16-4.531,7.969l-8.896-1.211c0.812-3.81,2.148-6.896,3.994-9.238c1.855-2.344,4.531-4.141,8.037-5.41
	c3.506-1.25,7.568-1.895,12.188-1.895c4.579,0,8.301,0.547,11.172,1.621c2.86,1.074,4.961,2.44,6.309,4.063
	c1.348,1.642,2.295,3.711,2.832,6.191c0.303,1.563,0.459,4.354,0.459,8.397v12.13c0,8.456,0.195,13.809,0.576,16.055
	c0.398,2.263,1.178,4.442,2.305,6.445h-9.502C491.475,659.668,490.869,657.461,490.605,654.941L490.605,654.941z M489.844,634.609
	c-3.301,1.348-8.262,2.5-14.862,3.438c-3.74,0.547-6.388,1.152-7.931,1.836c-1.553,0.664-2.754,1.66-3.594,2.949
	s-1.26,2.734-1.26,4.316c0,2.422,0.918,4.452,2.754,6.073s4.521,2.422,8.057,2.422c3.506,0,6.621-0.762,9.355-2.305
	c2.725-1.522,4.735-3.633,6.016-6.289c0.978-2.051,1.465-5.078,1.465-9.102V634.609L489.844,634.609z M513.146,661.563v-53.69h8.184
	v7.637c3.945-5.897,9.639-8.848,17.09-8.848c3.232,0,6.201,0.586,8.916,1.758c2.715,1.152,4.746,2.676,6.094,4.57
	c1.349,1.875,2.285,4.121,2.832,6.719c0.332,1.68,0.498,4.629,0.498,8.848v33.009h-9.092v-32.656c0-3.711-0.352-6.484-1.063-8.32
	c-0.703-1.836-1.964-3.301-3.761-4.395c-1.807-1.095-3.926-1.642-6.348-1.642c-3.877,0-7.217,1.23-10.029,3.691
	c-2.821,2.461-4.229,7.129-4.229,14.004v29.315H513.146z M605.889,661.563v-7.891c-4.18,6.074-9.854,9.103-17.03,9.103
	c-3.175,0-6.123-0.605-8.877-1.816c-2.744-1.211-4.785-2.734-6.113-4.59c-1.328-1.836-2.266-4.082-2.803-6.738
	c-0.371-1.776-0.558-4.608-0.558-8.496v-33.262h9.103v29.785c0,4.746,0.186,7.948,0.557,9.59c0.566,2.402,1.777,4.277,3.633,5.645
	c1.856,1.368,4.15,2.052,6.875,2.052c2.734,0,5.293-0.703,7.687-2.109c2.393-1.387,4.082-3.301,5.078-5.703
	c0.996-2.401,1.494-5.897,1.494-10.488v-28.77h9.092v53.691h-8.137V661.563z M628.291,661.563v-53.69h8.135v7.539
	c1.689-2.637,3.927-4.746,6.72-6.349c2.803-1.602,5.985-2.401,9.561-2.401c3.975,0,7.236,0.84,9.775,2.479
	c2.549,1.66,4.336,3.966,5.381,6.935c4.248-6.271,9.774-9.414,16.582-9.414c5.321,0,9.414,1.483,12.285,4.434
	c2.86,2.949,4.297,7.48,4.297,13.613v36.854h-9.054v-33.827c0-3.634-0.293-6.25-0.879-7.853c-0.596-1.602-1.66-2.891-3.213-3.867
	c-1.553-0.976-3.369-1.465-5.459-1.465c-3.77,0-6.904,1.25-9.404,3.771c-2.489,2.5-3.739,6.522-3.739,12.051v31.19h-9.092V626.68
	c0-4.043-0.742-7.069-2.228-9.102c-1.484-2.012-3.906-3.027-7.275-3.027c-2.567,0-4.932,0.685-7.108,2.031
	c-2.168,1.348-3.74,3.301-4.728,5.898c-0.977,2.598-1.465,6.348-1.465,11.229v27.853H628.291L628.291,661.563z M94.219,847.383
	h-9.102v-57.969c-2.188,2.09-5.059,4.18-8.613,6.27c-3.554,2.091-6.748,3.652-9.58,4.707v-8.809
	c5.088-2.383,9.541-5.293,13.35-8.691c3.799-3.397,6.504-6.698,8.086-9.901h5.859V847.383z M117.568,827.832l9.102-1.211
	c1.045,5.156,2.822,8.867,5.332,11.133c2.51,2.285,5.566,3.418,9.17,3.418c4.277,0,7.891-1.484,10.84-4.453
	c2.949-2.969,4.424-6.641,4.424-11.016c0-4.18-1.357-7.617-4.092-10.332c-2.725-2.715-6.201-4.082-10.41-4.082
	c-1.719,0-3.857,0.352-6.416,1.016l1.006-7.987c0.605,0.078,1.094,0.116,1.465,0.116c3.877,0,7.363-1.016,10.469-3.047
	c3.096-2.012,4.648-5.137,4.648-9.354c0-3.32-1.133-6.094-3.389-8.281c-2.256-2.187-5.176-3.281-8.74-3.281
	c-3.545,0-6.494,1.113-8.848,3.341c-2.363,2.227-3.877,5.547-4.551,10l-9.102-1.621c1.113-6.095,3.643-10.82,7.588-14.181
	c3.936-3.34,8.838-5.02,14.707-5.02c4.043,0,7.764,0.858,11.172,2.598c3.398,1.738,6.006,4.103,7.803,7.109
	c1.807,2.988,2.705,6.172,2.705,9.551c0,3.203-0.859,6.113-2.578,8.75c-1.719,2.617-4.258,4.707-7.627,6.25
	c4.375,1.017,7.783,3.125,10.205,6.31c2.432,3.184,3.643,7.168,3.643,11.952c0,6.466-2.363,11.953-7.08,16.445
	c-4.717,4.492-10.684,6.758-17.891,6.758c-6.504,0-11.904-1.953-16.201-5.819C120.625,839.025,118.174,833.984,117.568,827.832
	L117.568,827.832z M189.092,807.207c-3.779-1.387-6.572-3.359-8.398-5.918c-1.816-2.56-2.725-5.625-2.725-9.199
	c0-5.391,1.934-9.922,5.812-13.594c3.877-3.672,9.033-5.508,15.469-5.508c6.465,0,11.68,1.875,15.615,5.625
	c3.945,3.77,5.918,8.34,5.918,13.729c0,3.438-0.898,6.426-2.705,8.965c-1.807,2.56-4.541,4.513-8.213,5.898
	c4.551,1.484,8.008,3.867,10.391,7.168c2.373,3.301,3.555,7.246,3.555,11.836c0,6.328-2.236,11.66-6.719,15.978
	c-4.483,4.316-10.381,6.465-17.686,6.465c-7.314,0-13.213-2.168-17.695-6.504c-4.482-4.316-6.719-9.728-6.719-16.191
	c0-4.824,1.221-8.848,3.662-12.109C181.094,810.605,184.57,808.379,189.092,807.207L189.092,807.207z M184.336,826.016
	c0,2.578,0.615,5.099,1.846,7.521s3.057,4.315,5.488,5.645c2.422,1.328,5.029,1.992,7.832,1.992c4.346,0,7.93-1.406,10.762-4.199
	s4.248-6.348,4.248-10.663c0-4.375-1.455-8.009-4.375-10.859c-2.91-2.871-6.563-4.297-10.938-4.297
	c-4.277,0-7.832,1.406-10.645,4.237C185.741,818.224,184.336,821.758,184.336,826.016L184.336,826.016z M187.266,791.797
	c0,3.496,1.133,6.367,3.389,8.594c2.256,2.207,5.186,3.32,8.799,3.32c3.506,0,6.377-1.094,8.613-3.301
	c2.246-2.207,3.359-4.922,3.359-8.125c0-3.32-1.152-6.133-3.457-8.398c-2.314-2.285-5.186-3.418-8.623-3.418
	c-3.467,0-6.348,1.113-8.643,3.34C188.418,786.035,187.266,788.691,187.266,791.797L187.266,791.797z M237.773,847.383v-10.352
	h10.361v10.352H237.773z M262.793,830.254l8.74-0.801c0.742,4.102,2.158,7.09,4.248,8.945c2.09,1.854,4.766,2.772,8.037,2.772
	c2.793,0,5.244-0.645,7.354-1.914c2.109-1.289,3.828-2.988,5.176-5.137c1.348-2.149,2.48-5.039,3.389-8.672
	c0.909-3.634,1.367-7.345,1.367-11.113c0-0.41-0.02-1.016-0.049-1.816c-1.826,2.892-4.307,5.234-7.461,7.052
	c-3.145,1.797-6.563,2.694-10.234,2.694c-6.133,0-11.318-2.227-15.566-6.68c-4.248-4.434-6.367-10.293-6.367-17.578
	c0-7.52,2.217-13.574,6.65-18.145c4.424-4.591,9.98-6.875,16.65-6.875c4.814,0,9.229,1.289,13.213,3.887
	c3.994,2.598,7.031,6.289,9.102,11.094c2.071,4.806,3.105,11.758,3.105,20.859c0,9.473-1.025,17.012-3.076,22.617
	c-2.061,5.604-5.117,9.883-9.18,12.813c-4.063,2.931-8.818,4.396-14.277,4.396c-5.791,0-10.527-1.603-14.199-4.824
	S263.535,836.074,262.793,830.254L262.793,830.254z M300.039,797.559c0-5.233-1.387-9.375-4.17-12.44
	c-2.773-3.066-6.123-4.609-10.029-4.609c-4.043,0-7.568,1.66-10.566,4.961c-2.998,3.302-4.502,7.578-4.502,12.832
	c0,4.728,1.426,8.556,4.277,11.504c2.842,2.949,6.357,4.435,10.537,4.435c4.209,0,7.676-1.484,10.391-4.435
	C298.682,806.855,300.039,802.773,300.039,797.559L300.039,797.559z M353.262,847.383h-9.102v-57.969
	c-2.188,2.09-5.059,4.18-8.613,6.27c-3.554,2.091-6.748,3.652-9.58,4.707v-8.809c5.088-2.383,9.541-5.293,13.35-8.691
	c3.799-3.397,6.504-6.698,8.086-9.901h5.859V847.383L353.262,847.383z M312.197,439.883V256.504h37.324V408.73h92.822v31.151
	L312.197,439.883L312.197,439.883z M495.186,346.797l-32.157-5.801c3.612-12.949,9.844-22.521,18.672-28.75
	c8.828-6.211,21.942-9.336,39.346-9.336c15.801,0,27.578,1.875,35.313,5.625c7.733,3.729,13.174,8.477,16.327,14.238
	c3.154,5.761,4.736,16.327,4.736,31.719l-0.381,41.367c0,11.776,0.566,20.448,1.699,26.055c1.133,5.586,3.262,11.582,6.367,17.969
	h-35.06c-0.928-2.363-2.061-5.84-3.397-10.469c-0.597-2.109-1.017-3.496-1.271-4.16c-6.055,5.879-12.529,10.293-19.414,13.242
	c-6.895,2.93-14.258,4.414-22.07,4.414c-13.799,0-24.657-3.75-32.606-11.23c-7.939-7.479-11.914-16.934-11.914-28.379
	c0-7.559,1.807-14.315,5.42-20.233c3.613-5.938,8.682-10.47,15.195-13.634c6.514-3.145,15.907-5.897,28.192-8.262
	c16.563-3.104,28.037-5.996,34.424-8.691v-3.534c0-6.816-1.68-11.66-5.038-14.57c-3.369-2.891-9.718-4.336-19.044-4.336
	c-6.309,0-11.229,1.229-14.756,3.711C500.234,336.229,497.373,340.586,495.186,346.797L495.186,346.797z M542.607,375.566
	c-4.541,1.504-11.729,3.319-21.563,5.409c-9.834,2.109-16.27,4.16-19.297,6.191c-4.629,3.281-6.935,7.441-6.935,12.479
	c0,4.962,1.847,9.238,5.548,12.871c3.7,3.613,8.407,5.41,14.121,5.41c6.396,0,12.489-2.09,18.291-6.309
	c4.286-3.185,7.1-7.09,8.446-11.719c0.929-3.027,1.388-8.789,1.388-17.285L542.607,375.566L542.607,375.566z M859.473,108.262v7.598
	h-42.5c-0.067-1.914,0.244-3.73,0.918-5.488c1.084-2.891,2.813-5.742,5.195-8.555s5.83-6.055,10.332-9.746
	c6.992-5.723,11.709-10.254,14.17-13.613c2.451-3.34,3.682-6.504,3.682-9.492c0-3.125-1.112-5.781-3.35-7.93
	c-2.246-2.148-5.156-3.223-8.76-3.223c-3.799,0-6.836,1.152-9.121,3.438c-2.275,2.266-3.438,5.43-3.467,9.473l-8.115-0.84
	c0.557-6.055,2.646-10.664,6.279-13.848c3.623-3.164,8.485-4.746,14.6-4.746c6.172,0,11.055,1.699,14.658,5.117
	c3.594,3.438,5.391,7.676,5.391,12.734c0,2.578-0.526,5.098-1.571,7.578c-1.056,2.5-2.804,5.117-5.244,7.852
	c-2.441,2.754-6.504,6.523-12.179,11.328c-4.735,3.965-7.772,6.68-9.12,8.086c-1.349,1.426-2.462,2.852-3.341,4.277H859.473z
	 M830.127,170.82c-3.271-1.191-5.703-2.91-7.285-5.137c-1.572-2.207-2.362-4.883-2.362-7.969c0-4.688,1.68-8.613,5.038-11.816
	c3.369-3.184,7.843-4.766,13.429-4.766c5.614,0,10.137,1.621,13.555,4.883c3.418,3.262,5.137,7.227,5.137,11.914
	c0,2.988-0.791,5.586-2.354,7.793c-1.563,2.207-3.937,3.906-7.129,5.098c3.955,1.289,6.953,3.359,9.014,6.23
	c2.07,2.871,3.096,6.289,3.096,10.273c0,5.488-1.942,10.117-5.83,13.848c-3.896,3.75-9.014,5.625-15.36,5.625
	c-6.338,0-11.455-1.875-15.353-5.645c-3.887-3.75-5.83-8.438-5.83-14.063c0-4.18,1.056-7.676,3.185-10.488
	C823.193,173.77,826.211,171.855,830.127,170.82z M826.006,187.148c0,2.246,0.527,4.434,1.603,6.523
	c1.063,2.109,2.655,3.75,4.756,4.902c2.108,1.152,4.375,1.719,6.797,1.719c3.779,0,6.895-1.211,9.346-3.633
	c2.461-2.422,3.691-5.508,3.691-9.258c0-3.789-1.271-6.934-3.799-9.434c-2.529-2.48-5.693-3.73-9.503-3.73
	c-3.711,0-6.786,1.23-9.229,3.691C827.226,180.389,826.006,183.457,826.006,187.148L826.006,187.148z M828.545,157.441
	c0,3.047,0.986,5.527,2.939,7.461c1.963,1.934,4.502,2.891,7.637,2.891c3.037,0,5.537-0.957,7.48-2.871
	c1.942-1.914,2.92-4.258,2.92-7.031c0-2.91-1.007-5.332-3.009-7.305s-4.502-2.969-7.479-2.969c-3.019,0-5.519,0.957-7.5,2.891
	C829.541,152.441,828.545,154.746,828.545,157.441L828.545,157.441z M797.744,295.527h-7.891v-50.313
	c-1.904,1.816-4.396,3.633-7.48,5.449c-3.086,1.797-5.859,3.164-8.311,4.063v-7.617c4.414-2.09,8.271-4.59,11.582-7.559
	c3.301-2.949,5.645-5.82,7.012-8.594h5.088V295.527L797.744,295.527z M830.117,260.664c-3.271-1.211-5.703-2.91-7.285-5.137
	c-1.572-2.227-2.363-4.883-2.363-7.988c0-4.668,1.681-8.613,5.039-11.797c3.369-3.184,7.842-4.785,13.428-4.785
	c5.615,0,10.138,1.641,13.556,4.902c3.418,3.261,5.137,7.227,5.137,11.895c0,2.988-0.791,5.586-2.354,7.793
	c-1.563,2.207-3.937,3.906-7.13,5.117c3.955,1.289,6.953,3.359,9.015,6.23c2.069,2.852,3.096,6.289,3.096,10.254
	c0,5.508-1.942,10.117-5.83,13.867c-3.896,3.75-9.014,5.605-15.36,5.605c-6.339,0-11.455-1.875-15.353-5.625
	c-3.887-3.77-5.83-8.457-5.83-14.063c0-4.18,1.055-7.676,3.185-10.508C823.184,263.613,826.201,261.68,830.117,260.664
	L830.117,260.664z M825.996,276.973c0,2.266,0.527,4.434,1.602,6.543c1.064,2.109,2.656,3.73,4.756,4.883
	c2.081,1.148,4.421,1.747,6.798,1.738c3.778,0,6.895-1.211,9.346-3.633c2.461-2.441,3.69-5.527,3.69-9.258
	c0-3.809-1.27-6.953-3.799-9.434c-2.528-2.481-5.692-3.73-9.502-3.73c-3.711,0-6.787,1.23-9.229,3.691
	C827.217,270.215,825.996,273.301,825.996,276.973L825.996,276.973z M828.535,247.285c0,3.027,0.986,5.527,2.938,7.441
	c1.964,1.934,4.503,2.91,7.638,2.91c3.037,0,5.537-0.957,7.479-2.871c1.943-1.914,2.92-4.277,2.92-7.051
	c0-2.891-1.006-5.332-3.008-7.305c-2.002-1.973-4.502-2.949-7.479-2.949c-3.019,0-5.519,0.957-7.5,2.891
	C829.531,242.285,828.535,244.59,828.535,247.285L828.535,247.285z M797.744,385.371h-7.891v-50.313
	c-1.904,1.816-4.396,3.634-7.48,5.449c-3.086,1.797-5.859,3.164-8.311,4.063v-7.617c4.414-2.09,8.271-4.59,11.582-7.56
	c3.301-2.948,5.645-5.819,7.012-8.594h5.088V385.371L797.744,385.371z M830.117,350.508c-3.271-1.211-5.703-2.91-7.285-5.137
	c-1.572-2.228-2.363-4.883-2.363-7.988c0-4.668,1.681-8.613,5.039-11.797c3.369-3.184,7.842-4.785,13.428-4.785
	c5.615,0,10.138,1.642,13.556,4.902s5.137,7.227,5.137,11.895c0,2.988-0.791,5.586-2.354,7.793c-1.563,2.207-3.937,3.906-7.13,5.117
	c3.955,1.289,6.953,3.359,9.015,6.23c2.069,2.852,3.096,6.289,3.096,10.254c0,5.508-1.942,10.117-5.83,13.867
	c-3.896,3.75-9.014,5.604-15.36,5.604c-6.339,0-11.455-1.875-15.353-5.625c-3.887-3.77-5.83-8.457-5.83-14.063
	c0-4.181,1.055-7.677,3.185-10.509C823.184,353.457,826.201,351.523,830.117,350.508L830.117,350.508z M825.996,366.816
	c0,2.266,0.527,4.434,1.602,6.543c1.064,2.108,2.656,3.729,4.756,4.883c2.081,1.147,4.421,1.746,6.798,1.738
	c3.778,0,6.895-1.212,9.346-3.634c2.461-2.44,3.69-5.526,3.69-9.258c0-3.809-1.27-6.953-3.799-9.434
	c-2.528-2.481-5.692-3.73-9.502-3.73c-3.711,0-6.787,1.23-9.229,3.691C827.217,360.059,825.996,363.145,825.996,366.816
	L825.996,366.816z M828.535,337.129c0,3.027,0.986,5.527,2.938,7.441c1.964,1.934,4.503,2.91,7.638,2.91
	c3.037,0,5.537-0.957,7.479-2.871c1.943-1.914,2.92-4.277,2.92-7.052c0-2.891-1.006-5.332-3.008-7.305s-4.502-2.949-7.479-2.949
	c-3.019,0-5.519,0.957-7.5,2.892C829.531,332.129,828.535,334.434,828.535,337.129L828.535,337.129z M819.16,460.332l7.588-0.703
	c0.645,3.574,1.875,6.172,3.691,7.773c1.807,1.602,4.131,2.401,6.973,2.401c2.422,0,4.551-0.547,6.377-1.66
	c1.826-1.112,3.33-2.598,4.502-4.452c1.172-1.855,2.148-4.355,2.939-7.521s1.182-6.367,1.182-9.647c0-0.353-0.02-0.88-0.039-1.582
	c-1.582,2.52-3.74,4.551-6.475,6.112c-2.735,1.563-5.693,2.345-8.888,2.345c-5.321,0-9.823-1.914-13.506-5.781
	c-3.69-3.867-5.526-8.945-5.526-15.273c0-6.504,1.924-11.758,5.771-15.742c3.838-3.965,8.662-5.957,14.453-5.957
	c4.18,0,7.998,1.113,11.465,3.38c3.467,2.245,6.104,5.448,7.9,9.629c1.797,4.159,2.694,10.194,2.694,18.086
	c0,8.223-0.889,14.766-2.676,19.629c-1.787,4.862-4.434,8.574-7.959,11.112c-3.524,2.56-7.656,3.828-12.393,3.828
	c-5.029,0-9.142-1.405-12.324-4.198C821.719,469.316,819.806,465.391,819.16,460.332L819.16,460.332z M851.494,431.953
	c0-4.531-1.211-8.125-3.623-10.781c-2.412-2.676-5.313-4.004-8.711-4.004c-3.506,0-6.563,1.445-9.16,4.297
	c-2.607,2.871-3.906,6.582-3.906,11.152c0,4.102,1.23,7.422,3.701,9.979c2.471,2.559,5.527,3.828,9.15,3.828
	c3.651,0,6.66-1.27,9.014-3.828C850.313,440.039,851.494,436.484,851.494,431.953z M859.473,557.461v7.598h-42.5
	c-0.067-1.914,0.244-3.729,0.918-5.487c1.084-2.892,2.813-5.742,5.195-8.556c2.382-2.813,5.83-6.055,10.332-9.745
	c6.992-5.724,11.709-10.255,14.17-13.613c2.451-3.34,3.682-6.504,3.682-9.492c0-3.125-1.112-5.781-3.35-7.93
	c-2.246-2.148-5.156-3.224-8.76-3.224c-3.799,0-6.836,1.152-9.121,3.438c-2.275,2.266-3.438,5.43-3.467,9.473l-8.115-0.84
	c0.557-6.055,2.646-10.664,6.279-13.848c3.623-3.164,8.485-4.746,14.6-4.746c6.172,0,11.055,1.699,14.658,5.117
	c3.594,3.438,5.391,7.676,5.391,12.733c0,2.578-0.526,5.099-1.571,7.578c-1.056,2.5-2.804,5.117-5.244,7.853
	c-2.441,2.754-6.504,6.522-12.179,11.327c-4.735,3.966-7.772,6.681-9.12,8.086c-1.349,1.427-2.462,2.853-3.341,4.277H859.473
	L859.473,557.461z"/>
</svg>
