<?xml version="1.0" encoding="utf-8"?>
<!-- Generator: Adobe Illustrator 16.0.3, SVG Export Plug-In . SVG Version: 6.00 Build 0)  -->
<!DOCTYPE svg PUBLIC "-//W3C//DTD SVG 1.1//EN" "http://www.w3.org/Graphics/SVG/1.1/DTD/svg11.dtd">
<svg version="1.1" id="Layer_1" xmlns="http://www.w3.org/2000/svg" xmlns:xlink="http://www.w3.org/1999/xlink" x="0px" y="0px"
	 width="900px" height="900px" viewBox="0 0 900 900" enable-background="new 0 0 900 900" xml:space="preserve">
<path d="M39.736,134.055l14.531-1.23c1.074,7.07,3.574,12.393,7.5,15.957c3.916,3.555,8.643,5.342,14.18,5.342
	c6.66,0,12.305-2.51,16.914-7.539c4.609-5.02,6.924-11.68,6.924-19.99c0-7.891-2.217-14.121-6.65-18.682
	c-4.433-4.561-10.244-6.836-17.412-6.836c-4.463,0-8.486,1.006-12.07,3.037c-3.594,2.021-6.416,4.648-8.457,7.881l-12.998-1.699
	l10.918-57.891h56.045v13.223H64.189L58.115,95.92c6.758-4.717,13.857-7.07,21.289-7.07c9.844,0,18.145,3.408,24.912,10.225
	c6.767,6.817,10.146,15.576,10.146,26.289c0,10.205-2.969,19.023-8.916,26.445c-7.227,9.131-17.09,13.691-29.6,13.691
	c-10.254,0-18.613-2.871-25.098-8.613C44.363,151.145,40.664,143.538,39.736,134.055z M148.604,102.454
	c-5.742-2.1-10-5.098-12.764-8.994c-2.764-3.896-4.15-8.555-4.15-13.994c0-8.193,2.949-15.088,8.838-20.674
	c5.898-5.586,13.74-8.379,23.525-8.379c9.844,0,17.764,2.852,23.76,8.564c5.996,5.723,8.994,12.676,8.994,20.879
	c0,5.225-1.377,9.775-4.111,13.643c-2.744,3.867-6.914,6.855-12.5,8.955c6.924,2.256,12.188,5.898,15.801,10.918
	c3.613,5.029,5.42,11.025,5.42,17.988c0,9.639-3.408,17.734-10.225,24.297c-6.817,6.563-15.781,9.844-26.904,9.844
	s-20.098-3.291-26.914-9.883c-6.816-6.582-10.225-14.795-10.225-24.639c0-7.324,1.865-13.467,5.576-18.408
	C136.445,107.62,141.738,104.25,148.604,102.454L148.604,102.454z M141.377,131.057c0,3.945,0.938,7.764,2.803,11.455
	c1.875,3.691,4.648,6.543,8.34,8.574c3.691,2.021,7.666,3.037,11.924,3.037c6.611,0,12.07-2.129,16.367-6.387
	c4.307-4.248,6.465-9.658,6.465-16.221c0-6.66-2.217-12.168-6.65-16.523s-9.98-6.543-16.65-6.543
	c-6.504,0-11.904,2.158-16.182,6.465S141.377,124.602,141.377,131.057L141.377,131.057z M145.83,79.006
	c0,5.332,1.719,9.688,5.156,13.076c3.428,3.379,7.891,5.068,13.379,5.068c5.332,0,9.697-1.68,13.105-5.039
	c3.408-3.35,5.117-7.461,5.117-12.334c0-5.078-1.758-9.346-5.273-12.803c-3.506-3.457-7.881-5.186-13.105-5.186
	c-5.283,0-9.658,1.689-13.145,5.068C147.578,70.247,145.83,74.29,145.83,79.006L145.83,79.006z M342.764,636.521l9.805,2.461
	c-2.061,8.065-5.752,14.198-11.094,18.438c-5.342,4.219-11.875,6.328-19.59,6.328c-7.988,0-14.482-1.621-19.482-4.863
	c-5.01-3.262-8.818-7.969-11.426-14.141c-2.607-6.152-3.916-12.773-3.916-19.863c0-7.715,1.475-14.434,4.424-20.195
	c2.949-5.741,7.139-10.098,12.588-13.086c5.439-2.969,11.426-4.473,17.969-4.473c7.412,0,13.643,1.896,18.701,5.664
	c5.049,3.77,8.574,9.082,10.557,15.918l-9.648,2.285c-1.719-5.391-4.219-9.316-7.48-11.777c-3.271-2.461-7.383-3.69-12.334-3.69
	c-5.693,0-10.459,1.366-14.277,4.082c-3.828,2.733-6.514,6.405-8.066,10.995c-1.548,4.588-2.333,9.397-2.324,14.238
	c0,6.289,0.918,11.797,2.754,16.504c1.836,4.688,4.697,8.203,8.564,10.527c3.877,2.324,8.076,3.496,12.588,3.496
	c5.498,0,10.146-1.582,13.955-4.746C338.838,647.439,341.416,642.752,342.764,636.521L342.764,636.521z M400.234,645.213
	l9.395,1.152c-1.484,5.487-4.229,9.766-8.231,12.793c-4.015,3.026-9.142,4.551-15.372,4.551c-7.852,0-14.072-2.422-18.672-7.266
	c-4.6-4.824-6.904-11.603-6.904-20.332c0-9.023,2.324-16.035,6.973-21.035c4.658-4.98,10.684-7.48,18.096-7.48
	c7.178,0,13.047,2.441,17.598,7.345c4.541,4.883,6.815,11.758,6.815,20.604c0,0.547-0.01,1.349-0.049,2.441h-40.029
	c0.332,5.897,2.002,10.41,5,13.535c2.998,3.145,6.738,4.707,11.221,4.707c3.34,0,6.182-0.88,8.545-2.638
	C396.982,651.854,398.848,649.041,400.234,645.213L400.234,645.213z M370.361,630.506h29.971c-0.41-4.531-1.553-7.91-3.438-10.176
	c-2.9-3.496-6.661-5.254-11.271-5.254c-4.18,0-7.695,1.406-10.537,4.199C372.236,622.068,370.664,625.818,370.361,630.506
	L370.361,630.506z M420.947,662.498v-53.691h8.192v8.146c2.091-3.81,4.015-6.31,5.781-7.539c1.777-1.211,3.721-1.816,5.84-1.816
	c3.066,0,6.183,0.978,9.355,2.931l-3.135,8.457c-2.228-1.328-4.453-1.974-6.671-1.974c-1.991,0-3.778,0.586-5.36,1.797
	c-1.582,1.191-2.715,2.853-3.39,4.962c-1.006,3.241-1.514,6.776-1.514,10.625v28.104L420.947,662.498L420.947,662.498z
	 M455.576,598.865v-10.469h9.102v10.469H455.576z M455.576,662.498v-53.691h9.102v53.691H455.576z M513.701,662.498v-7.891
	c-4.18,6.073-9.854,9.102-17.031,9.102c-3.174,0-6.123-0.604-8.877-1.816c-2.744-1.211-4.785-2.733-6.113-4.59
	c-1.328-1.836-2.266-4.082-2.803-6.737c-0.371-1.777-0.557-4.609-0.557-8.496v-33.263h9.102v29.785c0,4.746,0.187,7.949,0.557,9.59
	c0.566,2.402,1.777,4.277,3.634,5.646c1.855,1.368,4.149,2.051,6.875,2.051c2.733,0,5.293-0.703,7.686-2.108
	c2.394-1.388,4.082-3.302,5.078-5.703c0.996-2.402,1.494-5.898,1.494-10.488v-28.77h9.092v53.69L513.701,662.498L513.701,662.498z
	 M536.094,662.498v-53.691h8.136v7.539c1.688-2.637,3.926-4.746,6.719-6.348c2.803-1.602,5.985-2.402,9.561-2.402
	c3.976,0,7.236,0.841,9.775,2.48c2.549,1.66,4.336,3.965,5.381,6.934c4.248-6.27,9.775-9.414,16.582-9.414
	c5.322,0,9.414,1.484,12.285,4.435c2.86,2.949,4.297,7.479,4.297,13.612v36.855h-9.053V628.67c0-3.633-0.293-6.25-0.879-7.852
	c-0.597-1.603-1.66-2.892-3.214-3.867c-1.553-0.977-3.368-1.465-5.459-1.465c-3.77,0-6.903,1.25-9.403,3.77
	c-2.49,2.5-3.74,6.523-3.74,12.051v31.191h-9.092v-34.883c0-4.043-0.742-7.07-2.228-9.103c-1.483-2.012-3.905-3.026-7.274-3.026
	c-2.568,0-4.933,0.684-7.109,2.03c-2.168,1.349-3.74,3.302-4.727,5.898c-0.978,2.598-1.466,6.348-1.466,11.229v27.853
	L536.094,662.498L536.094,662.498z M94.219,848.318h-9.102V790.35c-2.188,2.091-5.059,4.181-8.613,6.271
	c-3.554,2.09-6.748,3.651-9.58,4.707v-8.81c5.088-2.383,9.541-5.293,13.35-8.69c3.799-3.398,6.504-6.699,8.086-9.902h5.859V848.318z
	 M146.68,848.318v-17.734h-32.139v-8.34l33.809-48.027h7.432v48.027h10.01v8.34h-10.01v17.734H146.68z M146.68,822.244v-33.418
	l-23.193,33.418H146.68z M175.088,811.775c0-8.75,0.898-15.802,2.705-21.152c1.797-5.332,4.482-9.453,8.037-12.363
	c3.555-2.891,8.027-4.336,13.418-4.336c3.975,0,7.461,0.801,10.459,2.402c2.998,1.601,5.479,3.906,7.432,6.914
	c1.953,3.026,3.486,6.699,4.6,11.016c1.113,4.336,1.67,10.176,1.67,17.521c0,8.69-0.889,15.723-2.676,21.055
	c-1.787,5.352-4.463,9.473-8.018,12.383c-3.555,2.91-8.047,4.375-13.467,4.375c-7.148,0-12.754-2.559-16.836-7.676
	C177.529,835.74,175.088,825.701,175.088,811.775z M184.434,811.775c0,12.168,1.426,20.272,4.277,24.297
	c2.842,4.022,6.357,6.035,10.537,6.035c4.18,0,7.695-2.031,10.537-6.074c2.852-4.043,4.268-12.129,4.268-24.258
	c0-12.188-1.416-20.293-4.268-24.316c-2.842-4.004-6.396-6.016-10.635-6.016c-4.18,0-7.52,1.776-10.01,5.313
	C186.006,791.268,184.434,799.607,184.434,811.775L184.434,811.775z M237.773,848.318v-10.353h10.361v10.353H237.773z
	 M295.693,848.318h-9.102V790.35c-2.188,2.091-5.059,4.181-8.613,6.271s-6.748,3.651-9.58,4.707v-8.81
	c5.088-2.383,9.541-5.293,13.35-8.69c3.799-3.398,6.504-6.699,8.086-9.902h5.859V848.318L295.693,848.318z M366.807,839.588v8.73
	h-48.975c-0.076-2.153,0.286-4.3,1.064-6.31c1.24-3.34,3.242-6.621,5.986-9.862c2.744-3.242,6.709-6.974,11.904-11.212
	c8.047-6.62,13.496-11.836,16.328-15.702c2.822-3.849,4.238-7.5,4.238-10.938c0-3.613-1.289-6.66-3.867-9.121
	c-2.578-2.479-5.938-3.729-10.078-3.729c-4.385,0-7.891,1.328-10.518,3.944c-2.627,2.638-3.955,6.271-3.994,10.918l-9.346-0.956
	c0.635-6.974,3.047-12.285,7.227-15.938c4.18-3.672,9.785-5.488,16.836-5.488c7.109,0,12.734,1.974,16.875,5.918
	c4.15,3.945,6.221,8.828,6.221,14.648c0,2.969-0.605,5.879-1.816,8.75c-1.221,2.871-3.232,5.879-6.045,9.043
	s-7.49,7.521-14.023,13.047c-5.459,4.57-8.965,7.695-10.518,9.316c-1.553,1.641-2.832,3.28-3.838,4.94h36.339V839.588z
	 M415.107,372.834l36.19,11.475c-5.547,20.187-14.774,35.166-27.676,44.961c-12.91,9.796-29.287,14.697-49.121,14.697
	c-24.561,0-44.736-8.389-60.537-25.166c-15.811-16.768-23.711-39.696-23.711-68.789c0-30.771,7.939-54.678,23.838-71.699
	c15.889-17.031,36.777-25.537,62.676-25.537c22.617,0,40.986,6.68,55.117,20.049c8.398,7.9,14.707,19.258,18.916,34.053
	l-36.953,8.828c-2.188-9.59-6.748-17.148-13.682-22.705c-6.943-5.547-15.371-8.32-25.293-8.32c-13.701,0-24.824,4.922-33.359,14.756
	c-8.535,9.834-12.793,25.771-12.793,47.803c0,23.369,4.199,40.02,12.607,49.94c8.408,9.922,19.336,14.884,32.793,14.884
	c9.922,0,18.457-3.154,25.596-9.464C406.865,396.292,411.992,386.37,415.107,372.834L415.107,372.834z M560.645,398.186
	l35.313,5.929c-4.541,12.949-11.709,22.803-21.504,29.569c-9.795,6.768-22.051,10.156-36.769,10.156
	c-23.291,0-40.526-7.606-51.709-22.832c-8.827-12.188-13.241-27.567-13.241-46.151c0-22.197,5.801-39.58,17.411-52.148
	c11.603-12.568,26.271-18.857,44.015-18.857c19.922,0,35.645,6.582,47.168,19.736c11.514,13.164,17.021,33.32,16.522,60.479h-88.789
	c0.255,10.508,3.105,18.682,8.574,24.521c5.469,5.851,12.275,8.771,20.431,8.771c5.547,0,10.215-1.515,14.004-4.541
	C555.85,409.788,558.711,404.915,560.645,398.186L560.645,398.186z M562.656,362.366c-0.244-10.254-2.9-18.058-7.939-23.39
	c-5.049-5.342-11.182-8.008-18.418-8.008c-7.734,0-14.121,2.813-19.17,8.447c-5.039,5.635-7.52,13.281-7.441,22.949L562.656,362.366
	L562.656,362.366z M859.473,109.202v7.588h-42.5c-0.067-1.904,0.244-3.73,0.918-5.479c1.084-2.9,2.813-5.752,5.195-8.555
	c2.383-2.813,5.83-6.055,10.332-9.746c6.992-5.732,11.709-10.264,14.17-13.613c2.451-3.35,3.682-6.514,3.682-9.502
	c0-3.125-1.112-5.771-3.35-7.92c-2.246-2.148-5.156-3.223-8.76-3.223c-3.799,0-6.836,1.143-9.121,3.428
	c-2.275,2.275-3.438,5.439-3.467,9.473l-8.115-0.84c0.557-6.045,2.646-10.664,6.279-13.838c3.623-3.174,8.485-4.756,14.6-4.756
	c6.172,0,11.055,1.709,14.658,5.127c3.594,3.428,5.391,7.666,5.391,12.725c0,2.578-0.526,5.107-1.571,7.588
	c-1.056,2.49-2.804,5.107-5.244,7.852c-2.441,2.754-6.504,6.523-12.179,11.318c-4.735,3.975-7.772,6.68-9.12,8.096
	c-1.349,1.416-2.462,2.842-3.341,4.277H859.473z M830.127,171.76c-3.271-1.201-5.703-2.91-7.285-5.137
	c-1.572-2.217-2.362-4.883-2.362-7.979c0-4.678,1.68-8.613,5.038-11.807c3.369-3.184,7.843-4.775,13.429-4.775
	c5.614,0,10.137,1.631,13.555,4.893c3.418,3.262,5.137,7.227,5.137,11.904c0,2.988-0.791,5.586-2.354,7.793
	c-1.563,2.207-3.937,3.906-7.129,5.107c3.955,1.289,6.953,3.359,9.014,6.23c2.07,2.861,3.096,6.289,3.096,10.264
	c0,5.498-1.942,10.117-5.83,13.857c-3.896,3.75-9.014,5.615-15.36,5.615c-6.338,0-11.455-1.875-15.353-5.635
	c-3.887-3.76-5.83-8.447-5.83-14.063c0-4.18,1.056-7.676,3.185-10.498C823.193,174.709,826.211,172.786,830.127,171.76z
	 M826.006,188.079c0,2.256,0.527,4.434,1.603,6.533c1.063,2.109,2.655,3.74,4.756,4.893c2.081,1.146,4.421,1.741,6.797,1.729
	c3.779,0,6.895-1.211,9.346-3.633c2.461-2.432,3.691-5.518,3.691-9.258c0-3.799-1.271-6.943-3.799-9.434
	c-2.529-2.48-5.693-3.73-9.503-3.73c-3.711,0-6.786,1.23-9.229,3.691C827.227,181.321,826.006,184.397,826.006,188.079
	L826.006,188.079z M828.545,158.381c0,3.037,0.986,5.527,2.939,7.451c1.963,1.934,4.502,2.9,7.637,2.9
	c3.037,0,5.537-0.957,7.48-2.871c1.942-1.914,2.92-4.268,2.92-7.041c0-2.9-1.007-5.332-3.009-7.305
	c-2.002-1.973-4.502-2.959-7.479-2.959c-3.019,0-5.519,0.957-7.5,2.891C829.541,153.381,828.545,155.686,828.545,158.381
	L828.545,158.381z M797.744,296.467h-7.891v-50.313c-1.904,1.807-4.396,3.623-7.48,5.439c-3.086,1.807-5.859,3.174-8.311,4.072
	v-7.627c4.414-2.08,8.271-4.59,11.582-7.549c3.301-2.949,5.645-5.82,7.012-8.594h5.088V296.467L797.744,296.467z M830.117,261.594
	c-3.271-1.201-5.703-2.91-7.285-5.137c-1.572-2.217-2.363-4.883-2.363-7.979c0-4.678,1.681-8.613,5.039-11.807
	c3.369-3.184,7.842-4.775,13.428-4.775c5.615,0,10.138,1.631,13.556,4.893c3.418,3.262,5.137,7.227,5.137,11.904
	c0,2.988-0.791,5.586-2.354,7.793c-1.563,2.207-3.937,3.906-7.13,5.107c3.955,1.289,6.953,3.359,9.015,6.23
	c2.069,2.861,3.096,6.289,3.096,10.264c0,5.498-1.942,10.117-5.83,13.857c-3.896,3.75-9.014,5.615-15.36,5.615
	c-6.339,0-11.455-1.875-15.353-5.635c-3.887-3.76-5.83-8.447-5.83-14.063c0-4.18,1.055-7.676,3.185-10.498
	C823.184,264.543,826.201,262.62,830.117,261.594L830.117,261.594z M825.996,277.913c0,2.256,0.527,4.434,1.602,6.533
	c1.064,2.109,2.656,3.74,4.756,4.893c2.082,1.146,4.422,1.741,6.798,1.729c3.778,0,6.895-1.211,9.346-3.633
	c2.461-2.432,3.69-5.518,3.69-9.258c0-3.799-1.27-6.943-3.799-9.434c-2.528-2.48-5.692-3.73-9.502-3.73
	c-3.711,0-6.787,1.23-9.229,3.691C827.217,271.155,825.996,274.231,825.996,277.913L825.996,277.913z M828.535,248.215
	c0,3.037,0.986,5.527,2.938,7.451c1.964,1.934,4.503,2.9,7.638,2.9c3.037,0,5.537-0.957,7.479-2.871
	c1.943-1.914,2.92-4.268,2.92-7.041c0-2.9-1.006-5.332-3.008-7.305s-4.502-2.959-7.479-2.959c-3.019,0-5.519,0.957-7.5,2.891
	C829.531,243.215,828.535,245.52,828.535,248.215L828.535,248.215z M797.744,386.311h-7.891v-50.313
	c-1.904,1.807-4.396,3.623-7.48,5.438c-3.086,1.808-5.859,3.175-8.311,4.072v-7.627c4.414-2.08,8.271-4.59,11.582-7.549
	c3.301-2.949,5.645-5.82,7.012-8.594h5.088V386.311L797.744,386.311z M819.15,371.438l7.588-0.702
	c0.645,3.573,1.875,6.161,3.69,7.764c1.808,1.611,4.131,2.412,6.974,2.412c2.422,0,4.551-0.547,6.377-1.66s3.33-2.598,4.502-4.453
	c1.172-1.854,2.147-4.365,2.938-7.529c0.79-3.154,1.188-6.396,1.183-9.647c0-0.353-0.021-0.879-0.039-1.572
	c-1.582,2.51-3.74,4.551-6.476,6.113c-2.734,1.562-5.692,2.344-8.887,2.344c-5.322,0-9.824-1.924-13.506-5.781
	c-3.691-3.866-5.527-8.955-5.527-15.272c0-6.515,1.925-11.769,5.771-15.742c3.838-3.975,8.662-5.967,14.453-5.967
	c4.18,0,7.998,1.123,11.465,3.379c3.467,2.246,6.104,5.459,7.9,9.629c1.797,4.16,2.694,10.195,2.694,18.096
	c0,8.213-0.889,14.756-2.676,19.629c-1.787,4.863-4.434,8.574-7.959,11.113c-3.525,2.549-7.656,3.818-12.393,3.818
	c-5.029,0-9.142-1.396-12.324-4.189C821.709,380.422,819.795,376.497,819.15,371.438L819.15,371.438z M851.484,343.059
	c0-4.53-1.211-8.135-3.623-10.791c-2.412-2.666-5.313-3.993-8.711-3.993c-3.506,0-6.563,1.436-9.16,4.297
	c-2.607,2.871-3.906,6.582-3.906,11.143c0,4.103,1.23,7.422,3.701,9.98c2.471,2.558,5.527,3.838,9.15,3.838
	c3.651,0,6.659-1.279,9.014-3.838C850.303,351.135,851.484,347.59,851.484,343.059L851.484,343.059z M819.16,461.268l7.588-0.702
	c0.645,3.573,1.875,6.172,3.691,7.772c1.807,1.603,4.131,2.402,6.973,2.402c2.422,0,4.551-0.547,6.377-1.66s3.33-2.598,4.502-4.453
	c1.172-1.854,2.148-4.354,2.939-7.525c0.789-3.154,1.187-6.396,1.182-9.647c0-0.353-0.021-0.879-0.039-1.572
	c-1.582,2.51-3.74,4.551-6.475,6.113s-5.693,2.344-8.888,2.344c-5.321,0-9.823-1.924-13.506-5.781
	c-3.69-3.866-5.526-8.954-5.526-15.272c0-6.514,1.924-11.769,5.771-15.742c3.838-3.975,8.662-5.967,14.453-5.967
	c4.18,0,7.998,1.123,11.465,3.379c3.467,2.246,6.104,5.459,7.9,9.629c1.797,4.16,2.694,10.195,2.694,18.096
	c0,8.212-0.889,14.755-2.676,19.625c-1.787,4.863-4.434,8.574-7.959,11.113c-3.524,2.559-7.656,3.828-12.393,3.828
	c-5.029,0-9.142-1.406-12.324-4.199C821.719,470.252,819.805,466.326,819.16,461.268L819.16,461.268z M851.494,432.893
	c0-4.53-1.211-8.135-3.623-10.791c-2.412-2.666-5.313-3.993-8.711-3.993c-3.506,0-6.563,1.436-9.16,4.297
	c-2.607,2.871-3.906,6.582-3.906,11.143c0,4.103,1.23,7.422,3.701,9.98c2.471,2.558,5.527,3.838,9.15,3.838
	c3.651,0,6.66-1.279,9.014-3.838C850.313,440.969,851.494,437.424,851.494,432.893z M859.473,558.396v7.598h-42.5
	c-0.067-1.914,0.244-3.73,0.918-5.488c1.084-2.891,2.813-5.742,5.195-8.555c2.382-2.813,5.83-6.055,10.332-9.746
	c6.992-5.723,11.709-10.254,14.17-13.613c2.451-3.34,3.682-6.504,3.682-9.492c0-3.125-1.112-5.78-3.35-7.93
	c-2.246-2.147-5.156-3.223-8.76-3.223c-3.799,0-6.836,1.152-9.121,3.438c-2.275,2.267-3.438,5.431-3.467,9.474l-8.115-0.841
	c0.557-6.055,2.646-10.663,6.279-13.848c3.623-3.164,8.485-4.746,14.6-4.746c6.172,0,11.055,1.699,14.658,5.117
	c3.594,3.438,5.391,7.676,5.391,12.734c0,2.578-0.526,5.098-1.572,7.578c-1.055,2.5-2.803,5.116-5.243,7.852
	c-2.441,2.754-6.505,6.523-12.179,11.328c-4.735,3.965-7.772,6.68-9.121,8.086c-1.348,1.426-2.461,2.852-3.34,4.277H859.473
	L859.473,558.396z"/>
</svg>
