<?xml version="1.0" encoding="utf-8"?>
<!-- Generator: Adobe Illustrator 16.0.3, SVG Export Plug-In . SVG Version: 6.00 Build 0)  -->
<!DOCTYPE svg PUBLIC "-//W3C//DTD SVG 1.1//EN" "http://www.w3.org/Graphics/SVG/1.1/DTD/svg11.dtd">
<svg version="1.1" id="Layer_1" xmlns="http://www.w3.org/2000/svg" xmlns:xlink="http://www.w3.org/1999/xlink" x="0px" y="0px"
	 width="900px" height="900px" viewBox="0 0 900 900" enable-background="new 0 0 900 900" xml:space="preserve">
<path d="M39.731,134.058l14.531-1.23c1.074,7.07,3.574,12.393,7.5,15.957c3.916,3.555,8.643,5.342,14.18,5.342
	c6.66,0,12.305-2.51,16.914-7.539c4.609-5.02,6.924-11.68,6.924-19.99c0-7.891-2.217-14.121-6.65-18.682s-10.244-6.836-17.412-6.836
	c-4.463,0-8.486,1.006-12.07,3.037c-3.594,2.021-6.416,4.648-8.457,7.881l-12.998-1.699L53.11,52.407h56.045V65.63h-44.97
	L58.11,95.923c6.758-4.717,13.857-7.07,21.289-7.07c9.844,0,18.145,3.408,24.912,10.225c6.767,6.817,10.146,15.576,10.146,26.289
	c0,10.205-2.969,19.023-8.916,26.445c-7.227,9.131-17.09,13.691-29.6,13.691c-10.254,0-18.613-2.871-25.098-8.613
	C44.358,151.148,40.659,143.54,39.731,134.058z M129.38,137.515l13.301-1.23c1.123,6.26,3.271,10.791,6.455,13.613
	c3.174,2.813,7.256,4.229,12.227,4.229c4.248,0,7.979-0.977,11.182-2.92c3.203-1.953,5.83-4.551,7.881-7.813
	c2.051-3.252,3.77-7.646,5.156-13.184c1.378-5.532,2.073-11.212,2.07-16.914c0-0.615-0.029-1.533-0.078-2.764
	c-2.764,4.404-6.543,7.979-11.338,10.723c-4.795,2.744-9.98,4.111-15.566,4.111c-9.326,0-17.227-3.379-23.682-10.146
	c-6.455-6.767-9.688-15.684-9.688-26.748c0-11.436,3.369-20.635,10.107-27.607c6.738-6.963,15.186-10.449,25.332-10.449
	c7.334,0,14.033,1.973,20.107,5.918c6.074,3.945,10.684,9.57,13.838,16.875c3.154,7.305,4.727,17.871,4.727,31.709
	c0,14.404-1.563,25.869-4.688,34.404c-3.125,8.535-7.773,15.029-13.955,19.492c-6.172,4.463-13.418,6.689-21.719,6.689
	c-8.818,0-16.016-2.451-21.602-7.344C133.861,153.266,130.503,146.382,129.38,137.515L129.38,137.515z M186.04,87.778
	c0-7.949-2.119-14.248-6.348-18.916c-4.229-4.668-9.316-6.992-15.254-6.992c-6.152,0-11.514,2.51-16.074,7.529
	c-4.561,5.029-6.836,11.533-6.836,19.531c0,7.178,2.158,13.008,6.494,17.49c4.326,4.482,9.668,6.729,16.025,6.729
	c6.406,0,11.68-2.246,15.801-6.729C183.969,101.937,186.04,95.718,186.04,87.778L186.04,87.778z M111.528,662.495v-74.103h27.949
	c4.922,0,8.672,0.234,11.27,0.714c3.643,0.604,6.689,1.758,9.15,3.456c2.461,1.709,4.443,4.093,5.938,7.158
	c1.504,3.066,2.246,6.437,2.246,10.107c0,6.299-2.002,11.631-6.006,15.996c-4.014,4.365-11.26,6.543-21.738,6.543h-19.004v30.127
	L111.528,662.495L111.528,662.495z M121.333,623.628h19.16c6.328,0,10.83-1.182,13.486-3.535c2.666-2.362,3.994-5.684,3.994-9.961
	c0-3.104-0.781-5.752-2.344-7.959c-1.572-2.207-3.633-3.672-6.191-4.375c-1.65-0.438-4.707-0.653-9.15-0.653h-18.955V623.628
	L121.333,623.628z M179.302,662.495v-53.683h8.193v8.146c2.09-3.809,4.014-6.318,5.781-7.539c1.777-1.211,3.721-1.815,5.84-1.815
	c3.066,0,6.182,0.977,9.355,2.93l-3.135,8.447c-2.227-1.318-4.453-1.974-6.67-1.974c-1.992,0-3.779,0.597-5.361,1.797
	c-1.582,1.191-2.715,2.853-3.389,4.972c-1.006,3.241-1.514,6.776-1.514,10.614v28.105H179.302L179.302,662.495z M248.911,655.874
	c-3.379,2.861-6.621,4.883-9.736,6.064c-3.115,1.181-6.455,1.768-10.029,1.768c-5.898,0-10.43-1.436-13.594-4.316
	c-3.174-2.881-4.756-6.563-4.756-11.045c0-2.627,0.596-5.028,1.797-7.207c1.191-2.168,2.764-3.916,4.697-5.225
	c1.934-1.318,4.121-2.313,6.543-2.988c1.787-0.469,4.482-0.928,8.086-1.366c7.354-0.869,12.754-1.914,16.23-3.125
	c0.029-1.25,0.049-2.041,0.049-2.384c0-3.7-0.859-6.317-2.578-7.832c-2.324-2.051-5.781-3.086-10.361-3.086
	c-4.277,0-7.441,0.752-9.473,2.257c-2.041,1.493-3.555,4.149-4.531,7.959l-8.896-1.212c0.811-3.809,2.148-6.885,3.994-9.229
	c1.855-2.344,4.531-4.141,8.037-5.41c3.506-1.26,7.568-1.895,12.188-1.895c4.58,0,8.301,0.536,11.172,1.62
	c2.861,1.074,4.961,2.433,6.309,4.063c1.348,1.641,2.295,3.701,2.832,6.191c0.303,1.553,0.459,4.354,0.459,8.397v12.129
	c0,8.457,0.195,13.81,0.576,16.045c0.398,2.264,1.178,4.442,2.305,6.445h-9.502C249.78,660.61,249.175,658.403,248.911,655.874
	L248.911,655.874z M248.149,635.552c-3.301,1.349-8.262,2.5-14.863,3.438c-3.74,0.537-6.387,1.151-7.93,1.826
	c-1.553,0.674-2.754,1.659-3.594,2.948c-0.84,1.3-1.26,2.744-1.26,4.326c0,2.422,0.918,4.443,2.754,6.064s4.521,2.422,8.057,2.422
	c3.506,0,6.621-0.763,9.355-2.295c2.725-1.533,4.736-3.633,6.016-6.289c0.977-2.062,1.465-5.088,1.465-9.103V635.552
	L248.149,635.552z M267.808,646.47l8.994-1.416c0.508,3.613,1.914,6.367,4.229,8.291c2.305,1.925,5.527,2.881,9.678,2.881
	c4.18,0,7.275-0.85,9.297-2.549s3.037-3.701,3.037-5.996c0-2.051-0.898-3.672-2.686-4.844c-1.24-0.811-4.346-1.836-9.297-3.086
	c-6.67-1.688-11.299-3.145-13.877-4.375c-2.578-1.229-4.531-2.93-5.859-5.106c-1.338-2.169-2.002-4.57-2.002-7.197
	c0-2.394,0.547-4.609,1.65-6.65c1.076-2.018,2.607-3.756,4.473-5.078c1.416-1.045,3.34-1.924,5.781-2.656
	c2.441-0.723,5.068-1.084,7.861-1.084c4.209,0,7.91,0.605,11.094,1.816c3.184,1.221,5.537,2.861,7.051,4.932
	c1.514,2.071,2.559,4.845,3.135,8.312l-8.896,1.221c-0.4-2.764-1.572-4.922-3.516-6.475c-1.934-1.543-4.668-2.324-8.213-2.324
	c-4.18,0-7.158,0.693-8.945,2.07c-1.787,1.387-2.676,2.998-2.676,4.854c0,1.183,0.371,2.246,1.113,3.185
	c0.742,0.977,1.904,1.787,3.486,2.432c0.908,0.332,3.584,1.113,8.037,2.324c6.436,1.719,10.928,3.125,13.467,4.219
	c2.549,1.094,4.541,2.686,5.996,4.775c1.445,2.09,2.168,4.688,2.168,7.783c0,3.036-0.879,5.889-2.656,8.563
	c-1.768,2.687-4.316,4.756-7.656,6.221c-3.33,1.466-7.109,2.197-11.318,2.197c-6.973,0-12.295-1.445-15.947-4.346
	C271.147,656.46,268.823,652.163,267.808,646.47L267.808,646.47z M359.956,645.21l9.395,1.162
	c-1.484,5.488-4.229,9.756-8.232,12.783c-4.014,3.037-9.141,4.551-15.371,4.551c-7.852,0-14.072-2.412-18.672-7.256
	c-4.6-4.834-6.904-11.611-6.904-20.342c0-9.023,2.324-16.035,6.973-21.025c4.658-4.99,10.684-7.479,18.096-7.479
	c7.178,0,13.047,2.44,17.598,7.334c4.541,4.883,6.816,11.758,6.816,20.614c0,0.547-0.01,1.349-0.049,2.433h-40.029
	c0.332,5.897,2.002,10.41,5,13.545s6.738,4.697,11.221,4.697c3.34,0,6.182-0.869,8.545-2.628
	C356.704,651.852,358.569,649.048,359.956,645.21L359.956,645.21z M330.083,630.503h29.971c-0.41-4.521-1.553-7.899-3.438-10.166
	c-2.9-3.496-6.66-5.254-11.27-5.254c-4.18,0-7.695,1.396-10.537,4.199C331.958,622.075,330.386,625.815,330.083,630.503
	L330.083,630.503z M377.388,635.659c0-9.941,2.764-17.305,8.291-22.09c4.609-3.976,10.244-5.968,16.885-5.968
	c7.373,0,13.407,2.423,18.086,7.257c4.688,4.834,7.03,11.514,7.03,20.039c0,6.903-1.034,12.344-3.104,16.299
	c-2.08,3.965-5.088,7.041-9.053,9.229c-3.955,2.188-8.281,3.281-12.959,3.281c-7.521,0-13.594-2.402-18.224-7.227
	C379.702,651.665,377.388,644.722,377.388,635.659z M386.733,635.659c0,6.875,1.504,12.021,4.502,15.438s6.777,5.127,11.329,5.127
	c4.512,0,8.271-1.719,11.27-5.155c2.999-3.438,4.492-8.672,4.492-15.713c0-6.642-1.504-11.67-4.521-15.089
	c-3.018-3.428-6.768-5.137-11.239-5.137c-4.552,0-8.331,1.709-11.329,5.107C388.237,623.647,386.733,628.784,386.733,635.659
	L386.733,635.659z M473.179,662.495v-6.777c-3.407,5.332-8.407,7.988-15.01,7.988c-4.287,0-8.213-1.182-11.807-3.535
	c-3.584-2.362-6.367-5.653-8.341-9.883c-1.973-4.229-2.959-9.092-2.959-14.58c0-5.361,0.898-10.215,2.687-14.58
	c1.777-4.365,4.463-7.715,8.037-10.039c3.563-2.324,7.559-3.485,11.973-3.485c3.232,0,6.123,0.684,8.644,2.051
	c2.528,1.356,4.59,3.135,6.172,5.332v-26.592h9.043v74.102L473.179,662.495L473.179,662.495z M444.419,635.708
	c0,6.875,1.445,12.012,4.346,15.41c2.9,3.408,6.318,5.106,10.265,5.106c3.975,0,7.354-1.62,10.127-4.873
	c2.783-3.252,4.17-8.213,4.17-14.893c0-7.344-1.416-12.734-4.238-16.172c-2.832-3.438-6.318-5.156-10.469-5.156
	c-4.043,0-7.422,1.65-10.137,4.961C445.776,623.395,444.419,628.599,444.419,635.708L444.419,635.708z M495.513,683.169
	l-1.006-8.545c1.982,0.537,3.722,0.812,5.205,0.812c2.021,0,3.644-0.343,4.854-1.017s2.207-1.611,2.979-2.822
	c0.576-0.918,1.504-3.174,2.783-6.776c0.166-0.508,0.438-1.25,0.811-2.228l-20.371-53.778h9.806l11.172,31.084
	c1.489,4.084,2.786,8.235,3.887,12.44c1.034-4.141,2.282-8.225,3.74-12.235l11.475-31.289h9.103l-20.42,54.59
	c-2.197,5.897-3.896,9.961-5.107,12.188c-1.621,2.998-3.467,5.195-5.557,6.592c-2.09,1.397-4.59,2.101-7.48,2.101
	C499.624,684.282,497.671,683.911,495.513,683.169L495.513,683.169z M547.681,662.495v-53.682h8.136v7.528
	c1.688-2.627,3.926-4.735,6.719-6.338c2.803-1.602,5.986-2.402,9.561-2.402c3.976,0,7.236,0.83,9.775,2.48
	c2.549,1.65,4.336,3.955,5.381,6.924c4.248-6.27,9.775-9.404,16.582-9.404c5.322,0,9.414,1.476,12.285,4.425
	c2.861,2.948,4.297,7.489,4.297,13.623v36.846h-9.053v-33.818c0-3.633-0.293-6.26-0.879-7.852c-0.597-1.603-1.66-2.892-3.214-3.867
	c-1.553-0.976-3.368-1.465-5.459-1.465c-3.77,0-6.903,1.25-9.403,3.76c-2.49,2.51-3.74,6.533-3.74,12.062v31.182h-9.092v-34.873
	c0-4.043-0.742-7.08-2.228-9.102c-1.484-2.022-3.905-3.027-7.274-3.027c-2.568,0-4.933,0.674-7.109,2.021
	c-2.168,1.349-3.74,3.312-4.727,5.908c-0.978,2.599-1.465,6.338-1.465,11.222v27.852L547.681,662.495L547.681,662.495z
	 M633.96,598.862v-10.47h9.103v10.47H633.96z M633.96,662.495v-53.682h9.103v53.682H633.96z M692.085,662.495v-7.881
	c-4.18,6.063-9.854,9.092-17.031,9.092c-3.174,0-6.123-0.604-8.877-1.816c-2.744-1.211-4.785-2.733-6.112-4.579
	c-1.328-1.837-2.267-4.082-2.804-6.738c-0.371-1.787-0.557-4.619-0.557-8.496v-33.262h9.102v29.774c0,4.746,0.187,7.949,0.558,9.601
	c0.565,2.393,1.776,4.276,3.633,5.635c1.854,1.367,4.15,2.051,6.875,2.051c2.734,0,5.293-0.703,7.686-2.1
	c2.394-1.397,4.082-3.301,5.078-5.713c0.996-2.402,1.494-5.898,1.494-10.488v-28.76h9.092v53.682L692.085,662.495L692.085,662.495z
	 M714.479,662.495v-53.682h8.135v7.528c1.688-2.627,3.926-4.735,6.719-6.338c2.803-1.602,5.986-2.402,9.561-2.402
	c3.976,0,7.236,0.83,9.775,2.48c2.549,1.65,4.336,3.955,5.381,6.924c4.248-6.27,9.775-9.404,16.582-9.404
	c5.322,0,9.414,1.476,12.285,4.425c2.861,2.948,4.297,7.489,4.297,13.623v36.846h-9.053v-33.818c0-3.633-0.293-6.26-0.879-7.852
	c-0.597-1.603-1.66-2.892-3.213-3.867c-1.554-0.976-3.369-1.465-5.459-1.465c-3.771,0-6.904,1.25-9.404,3.76
	c-2.49,2.51-3.74,6.533-3.74,12.062v31.182h-9.092v-34.873c0-4.043-0.742-7.08-2.227-9.102c-1.485-2.022-3.906-3.027-7.275-3.027
	c-2.568,0-4.932,0.674-7.109,2.021c-2.168,1.349-3.74,3.312-4.727,5.908c-0.978,2.599-1.465,6.338-1.465,11.222v27.852
	L714.479,662.495L714.479,662.495z M94.214,848.325h-9.102v-57.979c-2.188,2.09-5.059,4.181-8.613,6.271s-6.748,3.662-9.58,4.707
	v-8.799c5.088-2.394,9.541-5.294,13.35-8.691c3.799-3.408,6.504-6.709,8.086-9.912h5.859V848.325z M146.675,848.325v-17.744h-32.139
	v-8.34l33.809-48.019h7.432v48.019h10.01v8.34h-10.01v17.744H146.675z M146.675,822.241v-33.408l-23.193,33.408H146.675z
	 M175.083,811.782c0-8.76,0.898-15.812,2.705-21.152c1.797-5.342,4.482-9.463,8.037-12.362c3.555-2.892,8.027-4.347,13.418-4.347
	c3.975,0,7.461,0.801,10.459,2.402c2.998,1.601,5.479,3.906,7.432,6.924c1.953,3.018,3.486,6.689,4.6,11.016
	c1.113,4.336,1.67,10.177,1.67,17.521c0,8.69-0.889,15.713-2.676,21.055s-4.463,9.463-8.018,12.383
	c-3.555,2.91-8.047,4.365-13.467,4.365c-7.148,0-12.754-2.559-16.836-7.676C177.524,835.737,175.083,825.698,175.083,811.782z
	 M184.429,811.782c0,12.168,1.426,20.264,4.277,24.287c2.842,4.022,6.357,6.034,10.537,6.034c4.18,0,7.695-2.021,10.537-6.063
	c2.852-4.043,4.268-12.129,4.268-24.258c0-12.197-1.416-20.304-4.268-24.316c-2.842-4.004-6.396-6.016-10.635-6.016
	c-4.18,0-7.52,1.776-10.01,5.313C186.001,791.274,184.429,799.614,184.429,811.782L184.429,811.782z M237.769,848.325v-10.361
	h10.361v10.361H237.769z M262.788,831.188l8.74-0.802c0.742,4.111,2.158,7.091,4.248,8.945c2.09,1.854,4.766,2.773,8.037,2.773
	c2.793,0,5.244-0.636,7.354-1.914c2.11-1.279,3.828-2.988,5.176-5.138c1.348-2.139,2.48-5.028,3.389-8.662
	c0.91-3.638,1.369-7.373,1.367-11.123c0-0.399-0.02-1.006-0.049-1.815c-1.826,2.891-4.307,5.244-7.461,7.051
	c-3.145,1.797-6.563,2.705-10.234,2.705c-6.133,0-11.318-2.227-15.566-6.68c-4.248-4.443-6.367-10.303-6.367-17.588
	c0-7.511,2.217-13.564,6.65-18.146c4.424-4.58,9.98-6.875,16.65-6.875c4.814,0,9.229,1.299,13.213,3.896
	c3.994,2.598,7.031,6.289,9.102,11.094c2.071,4.805,3.105,11.748,3.105,20.85c0,9.474-1.025,17.013-3.076,22.617
	c-2.061,5.615-5.117,9.883-9.18,12.813c-4.063,2.93-8.818,4.395-14.277,4.395c-5.791,0-10.527-1.602-14.199-4.824
	C265.737,841.548,263.53,837.018,262.788,831.188L262.788,831.188z M300.034,798.491c0-5.226-1.387-9.375-4.17-12.441
	c-2.773-3.065-6.123-4.6-10.029-4.6c-4.043,0-7.568,1.66-10.566,4.961s-4.502,7.578-4.502,12.832c0,4.717,1.426,8.555,4.277,11.504
	c2.842,2.949,6.357,4.424,10.537,4.424c4.209,0,7.676-1.475,10.391-4.424C298.677,807.798,300.034,803.716,300.034,798.491
	L300.034,798.491z M353.257,848.325h-9.102v-57.979c-2.188,2.091-5.059,4.181-8.613,6.271s-6.748,3.662-9.58,4.707v-8.799
	c5.088-2.394,9.541-5.293,13.35-8.691c3.799-3.408,6.504-6.709,8.086-9.912h5.859V848.325L353.257,848.325z M323.833,440.815
	V255.923h59.912c22.695,0,37.49,0.928,44.385,2.783c10.596,2.773,19.473,8.809,26.611,18.096
	c7.147,9.287,10.723,21.289,10.723,36.006c0,11.349-2.061,20.89-6.182,28.623c-4.121,7.744-9.355,13.818-15.703,18.232
	c-6.349,4.414-12.793,7.334-19.355,8.76c-8.916,1.769-21.815,2.646-38.721,2.646h-24.336v69.746H323.833L323.833,440.815z
	 M361.167,287.202v52.471h20.43c14.717,0,24.551-0.967,29.512-2.899c4.961-1.934,8.848-4.961,11.67-9.082
	c2.813-4.121,4.219-8.916,4.219-14.375c0-6.729-1.973-12.275-5.928-16.65s-8.955-7.109-15.011-8.203
	c-4.452-0.84-13.408-1.26-26.854-1.26L361.167,287.202L361.167,287.202z M529.78,440.815h-35.439V306.88h32.92v19.043
	c5.636-8.994,10.703-14.922,15.195-17.783c4.502-2.861,9.609-4.287,15.322-4.287c8.076,0,15.85,2.227,23.34,6.68l-10.978,30.897
	c-5.967-3.856-11.522-5.801-16.649-5.801c-4.961,0-9.16,1.367-12.607,4.103c-3.446,2.734-6.162,7.676-8.135,14.823
	c-1.981,7.14-2.969,22.109-2.969,44.894V440.815L529.78,440.815z M859.479,109.204v7.588h-42.5c-0.068-1.904,0.243-3.73,0.918-5.479
	c1.084-2.9,2.813-5.752,5.194-8.555c2.383-2.813,5.83-6.055,10.332-9.746c6.992-5.732,11.709-10.264,14.17-13.613
	c2.451-3.35,3.683-6.514,3.683-9.502c0-3.125-1.113-5.771-3.351-7.92c-2.246-2.148-5.155-3.223-8.76-3.223
	c-3.799,0-6.836,1.143-9.121,3.428c-2.274,2.275-3.438,5.439-3.467,9.473l-8.115-0.84c0.558-6.045,2.646-10.664,6.279-13.838
	c3.623-3.174,8.486-4.756,14.6-4.756c6.172,0,11.056,1.709,14.658,5.127c3.594,3.428,5.391,7.666,5.391,12.725
	c0,2.578-0.526,5.107-1.571,7.588c-1.056,2.49-2.804,5.107-5.244,7.852c-2.441,2.754-6.504,6.523-12.178,11.318
	c-4.736,3.975-7.773,6.68-9.121,8.096c-1.349,1.416-2.461,2.842-3.34,4.277H859.479z M830.132,171.763
	c-3.271-1.201-5.703-2.91-7.285-5.137c-1.571-2.217-2.362-4.883-2.362-7.979c0-4.678,1.68-8.613,5.039-11.807
	c3.369-3.184,7.842-4.775,13.428-4.775c5.615,0,10.137,1.631,13.555,4.893s5.137,7.227,5.137,11.904
	c0,2.988-0.791,5.586-2.354,7.793c-1.563,2.207-3.936,3.906-7.129,5.107c3.955,1.289,6.953,3.359,9.014,6.23
	c2.07,2.861,3.096,6.289,3.096,10.264c0,5.498-1.942,10.117-5.829,13.857c-3.896,3.75-9.015,5.615-15.361,5.615
	c-6.338,0-11.455-1.875-15.353-5.635c-3.887-3.76-5.83-8.447-5.83-14.063c0-4.18,1.056-7.676,3.185-10.498
	C823.198,174.712,826.216,172.788,830.132,171.763z M826.011,188.081c0,2.256,0.527,4.434,1.603,6.533
	c1.063,2.109,2.656,3.74,4.756,4.893c2.081,1.146,4.421,1.741,6.797,1.729c3.779,0,6.895-1.211,9.346-3.633
	c2.461-2.432,3.691-5.518,3.691-9.258c0-3.799-1.271-6.943-3.799-9.434c-2.529-2.48-5.693-3.73-9.502-3.73
	c-3.711,0-6.787,1.23-9.229,3.691C827.23,181.323,826.011,184.399,826.011,188.081L826.011,188.081z M828.55,158.384
	c0,3.037,0.986,5.527,2.939,7.451c1.963,1.934,4.502,2.9,7.637,2.9c3.037,0,5.537-0.957,7.48-2.871
	c1.942-1.914,2.92-4.268,2.92-7.041c0-2.9-1.006-5.332-3.009-7.305c-2.002-1.973-4.502-2.959-7.479-2.959
	c-3.018,0-5.518,0.957-7.5,2.891C829.546,153.384,828.55,155.688,828.55,158.384L828.55,158.384z M797.749,296.47h-7.891v-50.313
	c-1.904,1.807-4.396,3.623-7.48,5.439c-3.086,1.807-5.858,3.174-8.311,4.072v-7.627c4.414-2.08,8.271-4.59,11.582-7.549
	c3.301-2.949,5.645-5.82,7.012-8.594h5.088V296.47L797.749,296.47z M830.122,261.597c-3.271-1.201-5.703-2.91-7.285-5.137
	c-1.572-2.217-2.363-4.883-2.363-7.979c0-4.678,1.681-8.613,5.039-11.807c3.369-3.184,7.843-4.775,13.429-4.775
	c5.614,0,10.137,1.631,13.555,4.893s5.137,7.227,5.137,11.904c0,2.988-0.791,5.586-2.354,7.793
	c-1.563,2.207-3.937,3.906-7.129,5.107c3.955,1.289,6.953,3.359,9.014,6.23c2.07,2.861,3.096,6.289,3.096,10.264
	c0,5.498-1.942,10.117-5.83,13.857c-3.896,3.75-9.014,5.615-15.36,5.615c-6.339,0-11.455-1.875-15.353-5.635
	c-3.887-3.76-5.83-8.447-5.83-14.063c0-4.18,1.056-7.676,3.185-10.498C823.188,264.546,826.206,262.622,830.122,261.597
	L830.122,261.597z M826.001,277.915c0,2.256,0.527,4.434,1.603,6.533c1.063,2.109,2.655,3.74,4.756,4.893
	c2.081,1.146,4.421,1.741,6.797,1.729c3.778,0,6.895-1.211,9.346-3.633c2.461-2.432,3.691-5.518,3.691-9.258
	c0-3.799-1.271-6.943-3.8-9.434c-2.528-2.48-5.692-3.73-9.502-3.73c-3.711,0-6.786,1.23-9.229,3.691
	C827.222,271.157,826.001,274.233,826.001,277.915L826.001,277.915z M828.54,248.218c0,3.037,0.986,5.527,2.939,7.451
	c1.963,1.934,4.502,2.9,7.637,2.9c3.037,0,5.537-0.957,7.479-2.871c1.943-1.914,2.92-4.268,2.92-7.041
	c0-2.9-1.006-5.332-3.008-7.305s-4.502-2.959-7.479-2.959c-3.019,0-5.519,0.957-7.5,2.891
	C829.536,243.218,828.54,245.522,828.54,248.218L828.54,248.218z M809.507,378.726v7.589h-42.5c-0.067-1.904,0.244-3.73,0.918-5.479
	c1.084-2.9,2.813-5.752,5.195-8.555c2.383-2.813,5.83-6.056,10.332-9.746c6.992-5.732,11.709-10.265,14.17-13.613
	c2.451-3.35,3.682-6.514,3.682-9.502c0-3.125-1.112-5.771-3.35-7.92c-2.246-2.148-5.156-3.223-8.76-3.223
	c-3.8,0-6.836,1.143-9.121,3.428c-2.275,2.274-3.438,5.438-3.467,9.473l-8.115-0.84c0.557-6.045,2.646-10.664,6.279-13.838
	c3.622-3.174,8.485-4.756,14.6-4.756c6.172,0,11.055,1.709,14.658,5.127c3.594,3.428,5.391,7.666,5.391,12.725
	c0,2.578-0.526,5.107-1.572,7.588c-1.055,2.49-2.803,5.107-5.243,7.853c-2.441,2.754-6.505,6.522-12.179,11.317
	c-4.735,3.976-7.772,6.681-9.121,8.097c-1.348,1.416-2.461,2.842-3.34,4.276H809.507L809.507,378.726z M847.71,386.313h-7.891V336
	c-1.904,1.807-4.396,3.623-7.48,5.439c-3.086,1.807-5.858,3.174-8.311,4.071v-7.627c4.414-2.08,8.271-4.59,11.582-7.549
	c3.301-2.949,5.645-5.82,7.012-8.594h5.088V386.313L847.71,386.313z M830.132,441.274c-3.271-1.201-5.703-2.91-7.285-5.138
	c-1.571-2.217-2.362-4.883-2.362-7.979c0-4.679,1.68-8.613,5.039-11.808c3.369-3.184,7.842-4.774,13.428-4.774
	c5.615,0,10.137,1.631,13.555,4.893s5.137,7.228,5.137,11.904c0,2.988-0.791,5.586-2.354,7.793s-3.936,3.906-7.129,5.107
	c3.955,1.288,6.953,3.358,9.014,6.229c2.07,2.861,3.096,6.289,3.096,10.264c0,5.498-1.942,10.117-5.829,13.857
	c-3.896,3.75-9.015,5.615-15.361,5.615c-6.338,0-11.455-1.875-15.353-5.636c-3.887-3.76-5.83-8.446-5.83-14.063
	c0-4.18,1.056-7.676,3.185-10.498C823.198,444.224,826.216,442.3,830.132,441.274z M826.011,457.593
	c0,2.256,0.527,4.435,1.603,6.533c1.063,2.109,2.656,3.74,4.756,4.893c2.081,1.146,4.421,1.741,6.797,1.729
	c3.779,0,6.895-1.211,9.346-3.633c2.461-2.433,3.691-5.519,3.691-9.258c0-3.8-1.271-6.943-3.799-9.435
	c-2.529-2.479-5.693-3.729-9.502-3.729c-3.711,0-6.787,1.229-9.229,3.69C827.23,450.835,826.011,453.911,826.011,457.593
	L826.011,457.593z M828.55,427.896c0,3.037,0.986,5.527,2.939,7.451c1.963,1.935,4.502,2.9,7.637,2.9
	c3.037,0,5.537-0.957,7.48-2.871c1.942-1.914,2.92-4.268,2.92-7.041c0-2.9-1.006-5.332-3.009-7.305
	c-2.002-1.974-4.502-2.959-7.479-2.959c-3.018,0-5.518,0.957-7.5,2.891C829.546,422.896,828.55,425.2,828.55,427.896L828.55,427.896
	z M859.479,558.403v7.588h-42.5c-0.068-1.904,0.243-3.73,0.918-5.479c1.084-2.899,2.813-5.752,5.194-8.555
	c2.383-2.813,5.83-6.055,10.332-9.746c6.992-5.732,11.709-10.264,14.17-13.613c2.451-3.35,3.683-6.514,3.683-9.502
	c0-3.125-1.113-5.771-3.351-7.92c-2.246-2.147-5.155-3.223-8.76-3.223c-3.799,0-6.836,1.143-9.121,3.428
	c-2.274,2.275-3.438,5.439-3.467,9.473l-8.115-0.84c0.558-6.045,2.646-10.664,6.279-13.838c3.623-3.174,8.486-4.756,14.6-4.756
	c6.172,0,11.056,1.709,14.658,5.127c3.594,3.428,5.391,7.666,5.391,12.725c0,2.578-0.526,5.107-1.571,7.589
	c-1.056,2.489-2.804,5.106-5.244,7.852c-2.441,2.754-6.504,6.523-12.178,11.318c-4.736,3.975-7.773,6.68-9.121,8.096
	c-1.349,1.416-2.461,2.842-3.34,4.277H859.479z"/>
</svg>
