<?xml version="1.0" encoding="utf-8"?>
<!-- Generator: Adobe Illustrator 16.0.3, SVG Export Plug-In . SVG Version: 6.00 Build 0)  -->
<!DOCTYPE svg PUBLIC "-//W3C//DTD SVG 1.1//EN" "http://www.w3.org/Graphics/SVG/1.1/DTD/svg11.dtd">
<svg version="1.1" id="Layer_1" xmlns="http://www.w3.org/2000/svg" xmlns:xlink="http://www.w3.org/1999/xlink" x="0px" y="0px"
	 width="900px" height="900px" viewBox="0 0 900 900" enable-background="new 0 0 900 900" xml:space="preserve">
<path fill="#010101" d="M112.037,78.476l-13.76,1.079c-1.23-5.43-2.969-9.38-5.22-11.841c-3.75-3.95-8.359-5.923-13.843-5.923
	c-4.409,0-8.281,1.229-11.611,3.69c-4.355,3.185-7.798,7.822-10.308,13.911c-2.51,6.089-3.818,14.79-3.931,26.061
	c3.33-5.068,7.412-8.838,12.231-11.299c4.819-2.461,9.858-3.691,15.151-3.691c9.229,0,17.08,3.398,23.56,10.19
	s9.727,15.57,9.727,26.333c0,7.079-1.519,13.646-4.58,19.717c-3.047,6.068-7.236,10.723-12.568,13.96
	c-5.327,3.231-11.382,4.839-18.14,4.839c-11.528,0-20.938-4.238-28.208-12.72c-7.271-8.478-10.923-22.456-10.923-41.938
	c0-21.776,4.023-37.617,12.07-47.51c7.021-8.608,16.47-12.92,28.369-12.92c8.872,0,16.133,2.49,21.802,7.461
	C107.516,62.846,110.914,69.711,112.037,78.476L112.037,78.476z M55.538,127.064c-0.012,4.732,1.026,9.408,3.037,13.691
	c2.021,4.355,4.849,7.676,8.501,9.956c3.628,2.28,7.451,3.423,11.46,3.423c5.84,0,10.859-2.354,15.068-7.07
	c4.204-4.722,6.304-11.122,6.304-19.219c0-7.793-2.07-13.931-6.221-18.413c-4.16-4.486-9.38-6.729-15.684-6.729
	c-6.26,0-11.558,2.241-15.918,6.729C57.706,113.906,55.538,119.794,55.538,127.064L55.538,127.064z M340.308,636.489l9.795,2.479
	c-2.056,8.059-5.747,14.199-11.089,18.429c-5.337,4.229-11.88,6.339-19.59,6.339c-7.988,0-14.478-1.633-19.478-4.885
	c-5.01-3.24-8.823-7.959-11.431-14.12c-2.612-6.173-3.921-12.793-3.921-19.884c0-7.705,1.47-14.434,4.419-20.186
	c2.949-5.752,7.144-10.107,12.593-13.086c5.439-2.979,11.431-4.474,17.969-4.474c7.412,0,13.638,1.886,18.701,5.653
	c5.049,3.771,8.569,9.082,10.557,15.928l-9.648,2.275c-1.719-5.391-4.219-9.315-7.48-11.777c-3.271-2.461-7.378-3.689-12.329-3.689
	c-5.688,0-10.459,1.367-14.282,4.102c-3.828,2.734-6.509,6.388-8.066,10.996c-1.563,4.59-2.319,9.347-2.319,14.219
	c0,6.311,0.918,11.809,2.749,16.505c1.831,4.707,4.697,8.214,8.56,10.548c3.882,2.313,8.081,3.484,12.588,3.484
	c5.503,0,10.151-1.582,13.96-4.756C336.388,647.436,338.956,642.719,340.308,636.489L340.308,636.489z M396.056,655.854
	c-3.379,2.871-6.621,4.895-9.741,6.064c-3.12,1.171-6.46,1.768-10.029,1.768c-5.898,0-10.43-1.436-13.589-4.324
	c-3.169-2.871-4.761-6.555-4.761-11.035c0-2.638,0.601-5.029,1.802-7.207c1.187-2.168,2.759-3.926,4.697-5.234
	c1.943-1.309,4.121-2.305,6.543-2.979c1.787-0.47,4.478-0.918,8.091-1.357c7.349-0.879,12.749-1.924,16.226-3.135
	c0.034-1.25,0.054-2.041,0.054-2.373c0-3.711-0.859-6.31-2.583-7.832c-2.319-2.062-5.776-3.086-10.356-3.086
	c-4.282,0-7.441,0.752-9.473,2.246c-2.041,1.504-3.55,4.16-4.531,7.969l-8.896-1.221c0.811-3.811,2.148-6.886,3.989-9.22
	c1.86-2.345,4.531-4.149,8.037-5.409c3.511-1.261,7.573-1.896,12.192-1.896c4.58,0,8.301,0.537,11.172,1.621
	c2.856,1.084,4.957,2.441,6.309,4.072c1.348,1.631,2.29,3.701,2.827,6.189c0.303,1.544,0.464,4.348,0.464,8.391v12.129
	c0,8.467,0.2,13.799,0.576,16.045c0.391,2.236,1.162,4.385,2.3,6.445h-9.497C396.925,660.59,396.324,658.383,396.056,655.854
	L396.056,655.854z M395.294,635.532c-3.296,1.348-8.257,2.489-14.858,3.438c-3.74,0.547-6.392,1.145-7.93,1.826
	c-1.548,0.674-2.749,1.66-3.589,2.959c-0.84,1.289-1.26,2.734-1.26,4.316c0,2.432,0.918,4.452,2.749,6.063
	c1.831,1.611,4.521,2.433,8.062,2.433c3.511,0,6.616-0.771,9.36-2.306c2.72-1.521,4.736-3.633,6.016-6.289
	c0.981-2.061,1.465-5.088,1.465-9.102v-3.34L395.294,635.532L395.294,635.532z M418.497,662.475v-53.682h8.188v8.125
	c2.091-3.809,4.01-6.309,5.781-7.521c1.709-1.201,3.751-1.84,5.84-1.824c3.071,0,6.183,0.984,9.36,2.93l-3.13,8.447
	c-2.231-1.311-4.453-1.975-6.67-1.975c-1.992,0-3.779,0.598-5.361,1.787c-1.582,1.191-2.71,2.861-3.389,4.98
	c-1.011,3.23-1.515,6.768-1.515,10.615v28.104h-9.105L418.497,662.475L418.497,662.475z M461.461,662.475h-8.447v-74.102h9.092
	v26.436c3.85-4.813,8.75-7.234,14.707-7.234c3.303,0,6.438,0.674,9.387,2.002c2.947,1.328,5.381,3.203,7.295,5.604
	c1.896,2.412,3.379,5.322,4.463,8.73c1.063,3.396,1.61,7.031,1.61,10.918c0,9.199-2.267,16.309-6.815,21.328
	c-4.55,5.019-10.021,7.527-16.387,7.527c-6.339,0-11.311-2.646-14.902-7.93L461.461,662.475L461.461,662.475z M461.363,635.219
	c0,6.445,0.879,11.094,2.637,13.965c2.852,4.68,6.738,7.021,11.621,7.021c3.965,0,7.402-1.719,10.303-5.188
	c2.9-3.445,4.346-8.594,4.346-15.43c0-7.012-1.387-12.188-4.158-15.527c-2.783-3.34-6.145-5-10.078-5
	c-3.984,0-7.423,1.738-10.313,5.178C462.809,623.705,461.363,628.696,461.363,635.219L461.363,635.219z M507.262,635.629
	c0-9.941,2.754-17.295,8.281-22.07c4.609-3.982,10.244-5.977,16.885-5.977c7.373,0,13.408,2.422,18.086,7.266
	c4.697,4.824,7.031,11.504,7.031,20.039c0,6.914-1.045,12.344-3.115,16.299c-2.068,3.955-5.078,7.041-9.043,9.229
	c-3.965,2.188-8.281,3.281-12.959,3.281c-7.52,0-13.594-2.412-18.223-7.229C509.566,651.645,507.262,644.701,507.262,635.629z
	 M516.598,635.629c0,6.885,1.504,12.031,4.492,15.449c3.008,3.418,6.787,5.127,11.338,5.127c4.502,0,8.271-1.719,11.271-5.146
	c2.998-3.445,4.48-8.689,4.48-15.723c0-6.641-1.494-11.67-4.512-15.098c-3.027-3.418-6.777-5.127-11.24-5.127
	c-4.551,0-8.33,1.709-11.338,5.105C518.102,623.617,516.598,628.754,516.598,635.629L516.598,635.629z M568.219,662.475v-53.682
	h8.186v7.637c3.943-5.908,9.629-8.855,17.09-8.855c3.224,0,6.189,0.576,8.916,1.748c2.726,1.15,4.746,2.686,6.084,4.568
	c1.349,1.896,2.295,4.131,2.832,6.721c0.332,1.68,0.508,4.629,0.508,8.848v33.008h-9.104V629.81c0-3.711-0.342-6.475-1.055-8.318
	c-0.703-1.836-1.953-3.302-3.76-4.396c-1.807-1.094-3.937-1.641-6.348-1.641c-3.878,0-7.218,1.229-10.029,3.689
	c-2.822,2.462-4.238,7.119-4.238,14.005v29.315h-9.082V662.475z M94.737,848.334h-9.102v-57.969c-2.188,2.09-5.059,4.18-8.608,6.26
	c-3.55,2.09-6.753,3.652-9.58,4.696v-8.788c5.088-2.395,9.541-5.283,13.35-8.701c3.799-3.398,6.499-6.699,8.091-9.902h5.859v74.404
	H94.737z M165.846,839.584v8.75h-48.97c-0.068-2.188,0.278-4.308,1.06-6.318c1.24-3.33,3.242-6.621,5.991-9.862
	c2.739-3.224,6.709-6.974,11.899-11.222c8.052-6.592,13.501-11.825,16.328-15.692c2.822-3.849,4.243-7.499,4.243-10.938
	c0-3.594-1.294-6.641-3.872-9.121c-2.578-2.479-5.938-3.711-10.078-3.711c-4.38,0-7.891,1.311-10.522,3.938
	c-2.627,2.627-3.96,6.27-3.989,10.918l-9.351-0.957c0.63-6.982,3.052-12.295,7.231-15.947c4.18-3.662,9.79-5.488,16.841-5.488
	c7.109,0,12.729,1.964,16.88,5.919c4.15,3.937,6.221,8.827,6.221,14.657c0,2.959-0.61,5.879-1.821,8.74
	c-1.221,2.87-3.232,5.879-6.04,9.043c-2.813,3.174-7.49,7.521-14.019,13.047c-5.464,4.58-8.96,7.687-10.522,9.326
	c-1.558,1.641-2.827,3.28-3.838,4.932h36.328V839.584L165.846,839.584z M180.704,848.334v-10.361h10.361v10.361H180.704z
	 M204.366,811.781c0-8.76,0.898-15.801,2.71-21.151c1.802-5.332,4.482-9.453,8.042-12.354c3.55-2.9,8.027-4.348,13.418-4.348
	c3.97,0,7.461,0.802,10.459,2.395c3.003,1.602,5.483,3.916,7.432,6.924c1.948,3.018,3.491,6.688,4.6,11.016
	c1.108,4.336,1.67,10.177,1.67,17.511c0,8.69-0.889,15.713-2.681,21.056c-1.787,5.342-4.458,9.463-8.018,12.373
	c-3.55,2.93-8.052,4.385-13.472,4.385c-7.148,0-12.749-2.56-16.841-7.687C206.808,835.746,204.366,825.707,204.366,811.781
	L204.366,811.781z M213.707,811.781c0,12.168,1.431,20.265,4.277,24.298c2.842,4.014,6.362,6.034,10.542,6.034
	c4.18,0,7.7-2.021,10.542-6.056c2.847-4.053,4.268-12.129,4.268-24.258c0-12.207-1.421-20.313-4.268-24.314
	c-2.842-4.005-6.401-6.018-10.635-6.018c-4.18,0-7.52,1.77-10.01,5.303C215.274,791.283,213.707,799.623,213.707,811.781
	L213.707,811.781z M296.207,848.334h-9.102v-57.969c-2.188,2.09-5.059,4.18-8.608,6.26c-3.55,2.09-6.753,3.652-9.58,4.696v-8.788
	c5.088-2.395,9.541-5.283,13.35-8.701c3.799-3.398,6.499-6.699,8.091-9.902h5.859v74.404H296.207L296.207,848.334z M346.085,848.334
	h-9.097v-57.969c-2.192,2.09-5.063,4.18-8.613,6.26c-3.55,2.09-6.748,3.652-9.58,4.696v-8.788c5.093-2.395,9.541-5.283,13.35-8.701
	c3.804-3.398,6.504-6.699,8.091-9.902h5.859v74.404H346.085L346.085,848.334z M487.438,382.016l36.19,11.479
	c-5.547,20.181-14.784,35.171-27.676,44.956c-12.91,9.795-29.297,14.69-49.126,14.69c-24.562,0-44.741-8.389-60.542-25.159
	c-15.809-16.769-23.71-39.706-23.71-68.8c0-30.771,7.939-54.667,23.843-71.688c15.889-17.031,36.777-25.542,62.681-25.542
	c22.617,0,40.986,6.68,55.117,20.054c8.398,7.91,14.707,19.248,18.926,34.048l-36.953,8.827c-2.188-9.575-6.758-17.146-13.683-22.7
	c-6.942-5.547-15.37-8.33-25.288-8.33c-13.701,0-24.818,4.922-33.364,14.762c-8.534,9.838-12.787,25.771-12.787,47.802
	c0,23.369,4.198,40.02,12.611,49.938c8.408,9.922,19.336,14.884,32.788,14.884c9.917,0,18.463-3.149,25.603-9.464
	C479.195,405.473,484.332,395.556,487.438,382.016L487.438,382.016z M859.977,109.184v7.588h-42.5
	c-0.075-1.87,0.237-3.735,0.919-5.479c1.084-2.9,2.813-5.752,5.193-8.55c2.402-2.798,5.84-6.05,10.332-9.741
	c6.992-5.729,11.72-10.27,14.181-13.618c2.44-3.35,3.673-6.509,3.673-9.497c0-3.135-1.113-5.771-3.352-7.92
	c-2.246-2.153-5.155-3.231-8.76-3.231c-3.799,0-6.836,1.143-9.121,3.418c-2.274,2.279-3.438,5.438-3.467,9.481l-8.115-0.83
	c0.558-6.05,2.646-10.674,6.271-13.838c3.623-3.174,8.495-4.766,14.607-4.766c6.172,0,11.045,1.714,14.658,5.132
	c3.584,3.423,5.391,7.661,5.391,12.72c0,2.568-0.536,5.104-1.57,7.593c-1.057,2.485-2.805,5.107-5.234,7.848
	c-2.44,2.754-6.504,6.522-12.188,11.322c-4.736,3.979-7.773,6.671-9.121,8.102c-1.35,1.416-2.461,2.837-3.341,4.277h31.543V109.184z
	 M843.795,206.616v-15.4h-27.898v-7.241l29.354-41.67h6.445v41.67h8.689v7.241h-8.689v15.4H843.795z M843.795,183.974v-28.988
	l-20.137,28.988H843.795z"/>
</svg>
