<?xml version="1.0" encoding="utf-8"?>
<!-- Generator: Adobe Illustrator 16.0.3, SVG Export Plug-In . SVG Version: 6.00 Build 0)  -->
<!DOCTYPE svg PUBLIC "-//W3C//DTD SVG 1.1//EN" "http://www.w3.org/Graphics/SVG/1.1/DTD/svg11.dtd">
<svg version="1.1" id="Layer_1" xmlns="http://www.w3.org/2000/svg" xmlns:xlink="http://www.w3.org/1999/xlink" x="0px" y="0px"
	 width="900px" height="900px" viewBox="0 0 900 900" enable-background="new 0 0 900 900" xml:space="preserve">
<path d="M111.851,79.111l-13.76,1.074c-1.23-5.43-2.969-9.375-5.225-11.836c-3.75-3.945-8.359-5.918-13.838-5.918
	c-4.414,0-8.281,1.23-11.611,3.691c-4.355,3.164-7.793,7.813-10.303,13.906c-2.51,6.093-3.818,14.785-3.926,26.055
	c3.33-5.059,7.412-8.828,12.227-11.289s9.863-3.691,15.146-3.691c9.229,0,17.08,3.398,23.564,10.176
	c6.484,6.797,9.727,15.566,9.727,26.348c0,7.07-1.523,13.633-4.58,19.707c-3.047,6.074-7.236,10.723-12.568,13.965
	c-5.332,3.223-11.377,4.844-18.145,4.844c-11.533,0-20.938-4.238-28.213-12.734c-7.275-8.477-10.918-22.461-10.918-41.934
	c0-21.777,4.023-37.617,12.07-47.52c7.021-8.613,16.475-12.91,28.369-12.91c8.867,0,16.133,2.48,21.797,7.461
	C107.329,63.467,110.728,70.342,111.851,79.111L111.851,79.111z M55.347,127.705c-0.011,4.726,1.026,9.396,3.037,13.672
	c2.021,4.355,4.854,7.676,8.496,9.961c3.633,2.285,7.451,3.418,11.455,3.418c5.84,0,10.859-2.363,15.068-7.07
	c4.199-4.707,6.299-11.113,6.299-19.219c0-7.793-2.07-13.926-6.221-18.418c-4.16-4.473-9.385-6.719-15.684-6.719
	c-6.26,0-11.563,2.246-15.918,6.719C57.524,114.541,55.347,120.42,55.347,127.705L55.347,127.705z M127.612,108.623
	c0-13.32,1.377-24.043,4.111-32.168c2.744-8.125,6.816-14.395,12.227-18.789c5.41-4.414,12.207-6.621,20.41-6.621
	c6.045,0,11.357,1.211,15.918,3.652c4.561,2.441,8.33,5.938,11.299,10.527c2.969,4.589,5.303,10.176,7.002,16.758
	c1.689,6.602,2.529,15.469,2.529,26.641c0,13.223-1.357,23.906-4.072,32.031c-2.715,8.125-6.777,14.395-12.188,18.828
	c-5.4,4.434-12.236,6.66-20.488,6.66c-10.859,0-19.395-3.906-25.596-11.699C131.333,145.068,127.612,129.795,127.612,108.623
	L127.612,108.623z M141.841,108.623c0,18.516,2.158,30.82,6.494,36.953c4.326,6.113,9.668,9.18,16.025,9.18
	s11.699-3.066,16.035-9.219c4.326-6.152,6.494-18.457,6.494-36.914c0-18.555-2.168-30.879-6.494-36.973
	c-4.336-6.094-9.727-9.141-16.182-9.141c-6.357,0-11.436,2.676-15.225,8.066C144.224,77.451,141.841,90.127,141.841,108.623
	L141.841,108.623z M180.776,663.135v-74.102h10.059l38.926,58.184v-58.184h9.396v74.102h-10.059l-38.916-58.242v58.242H180.776z
	 M291.226,645.85l9.395,1.152c-1.484,5.488-4.229,9.766-8.232,12.793c-4.014,3.027-9.141,4.551-15.371,4.551
	c-7.852,0-14.072-2.422-18.672-7.266c-4.6-4.824-6.904-11.602-6.904-20.332c0-9.023,2.324-16.035,6.973-21.035
	c4.658-4.979,10.684-7.479,18.096-7.479c7.178,0,13.047,2.44,17.598,7.344c4.541,4.883,6.816,11.758,6.816,20.604
	c0,0.548-0.01,1.349-0.049,2.441h-40.029c0.332,5.898,2.002,10.41,5,13.535c2.998,3.145,6.738,4.707,11.221,4.707
	c3.34,0,6.182-0.879,8.545-2.638C287.974,652.49,289.839,649.678,291.226,645.85L291.226,645.85z M261.353,631.143h29.971
	c-0.41-4.53-1.553-7.909-3.438-10.176c-2.9-3.496-6.66-5.254-11.27-5.254c-4.18,0-7.695,1.406-10.537,4.199
	C263.228,622.705,261.655,626.455,261.353,631.143L261.353,631.143z M308.657,636.299c0-9.94,2.764-17.305,8.291-22.09
	c4.609-3.984,10.244-5.977,16.885-5.977c7.373,0,13.408,2.422,18.086,7.266c4.688,4.824,7.031,11.504,7.031,20.039
	c0,6.895-1.035,12.344-3.105,16.289c-2.08,3.965-5.088,7.051-9.053,9.238c-3.955,2.188-8.281,3.28-12.959,3.28
	c-7.52,0-13.594-2.401-18.223-7.227C310.972,652.295,308.657,645.361,308.657,636.299L308.657,636.299z M318.003,636.299
	c0,6.875,1.504,12.013,4.502,15.431s6.777,5.137,11.328,5.137c4.512,0,8.271-1.719,11.27-5.156
	c2.999-3.437,4.492-8.672,4.492-15.723c0-6.642-1.504-11.66-4.521-15.078c-3.018-3.438-6.768-5.137-11.24-5.137
	c-4.551,0-8.33,1.698-11.328,5.098C319.507,624.287,318.003,629.424,318.003,636.299L318.003,636.299z M404.438,663.135v-6.776
	c-3.408,5.332-8.408,7.987-15.01,7.987c-4.287,0-8.213-1.19-11.807-3.534c-3.584-2.363-6.367-5.664-8.34-9.884
	c-1.973-4.237-2.959-9.102-2.959-14.59c0-5.352,0.898-10.215,2.686-14.57c1.777-4.375,4.463-7.715,8.037-10.038
	c3.564-2.324,7.559-3.496,11.973-3.496c3.232,0,6.123,0.684,8.643,2.051c2.529,1.367,4.59,3.145,6.172,5.332v-26.582h9.043v74.102
	L404.438,663.135L404.438,663.135z M375.679,636.338c0,6.875,1.445,12.012,4.346,15.41c2.9,3.418,6.318,5.117,10.264,5.117
	c3.975,0,7.354-1.621,10.127-4.883c2.783-3.242,4.17-8.203,4.17-14.884c0-7.344-1.416-12.733-4.238-16.172
	c-2.832-3.438-6.317-5.155-10.469-5.155c-4.043,0-7.422,1.641-10.137,4.961C377.036,624.033,375.679,629.229,375.679,636.338
	L375.679,636.338z M426.782,683.799l-1.006-8.535c1.981,0.527,3.721,0.802,5.205,0.802c2.021,0,3.643-0.332,4.854-1.017
	c1.217-0.668,2.242-1.636,2.979-2.813c0.575-0.918,1.504-3.185,2.782-6.777c0.166-0.508,0.439-1.25,0.812-2.227l-20.371-53.789
	h9.805l11.172,31.094c1.491,4.084,2.788,8.235,3.888,12.441c1.035-4.144,2.283-8.231,3.739-12.246l11.476-31.289h9.102l-20.42,54.59
	c-2.197,5.898-3.896,9.961-5.106,12.188c-1.621,3.009-3.468,5.195-5.558,6.603c-2.09,1.387-4.59,2.09-7.479,2.09
	C430.894,684.912,428.939,684.541,426.782,683.799L426.782,683.799z M478.95,663.135v-53.69h8.135v7.539
	c1.689-2.638,3.926-4.746,6.719-6.349c2.804-1.602,5.986-2.401,9.562-2.401c3.975,0,7.236,0.84,9.774,2.479
	c2.55,1.66,4.337,3.965,5.382,6.935c4.248-6.271,9.774-9.414,16.582-9.414c5.321,0,9.413,1.483,12.284,4.434
	c2.861,2.949,4.297,7.48,4.297,13.613v36.854h-9.053v-33.828c0-3.633-0.293-6.25-0.879-7.852c-0.596-1.602-1.66-2.891-3.213-3.867
	c-1.553-0.976-3.369-1.465-5.459-1.465c-3.771,0-6.904,1.25-9.404,3.77c-2.489,2.5-3.739,6.523-3.739,12.052v31.19h-9.093v-34.883
	c0-4.043-0.741-7.07-2.227-9.102c-1.484-2.013-3.906-3.027-7.275-3.027c-2.567,0-4.932,0.684-7.108,2.031
	c-2.168,1.348-3.74,3.301-4.728,5.897c-0.977,2.599-1.465,6.349-1.465,11.23v27.852L478.95,663.135L478.95,663.135z
	 M565.229,599.502v-10.469h9.102v10.469H565.229z M565.229,663.135v-53.69h9.102v53.69H565.229z M623.354,663.135v-7.891
	c-4.181,6.074-9.854,9.102-17.031,9.102c-3.174,0-6.123-0.604-8.877-1.815c-2.744-1.211-4.785-2.734-6.113-4.59
	c-1.328-1.836-2.266-4.082-2.803-6.738c-0.371-1.777-0.558-4.609-0.558-8.496v-33.262h9.103v29.785c0,4.745,0.186,7.948,0.557,9.59
	c0.566,2.401,1.777,4.276,3.633,5.645c1.856,1.368,4.15,2.052,6.875,2.052c2.734,0,5.294-0.703,7.687-2.109
	c2.393-1.387,4.082-3.301,5.078-5.703s1.494-5.898,1.494-10.488v-28.77h9.092v53.69L623.354,663.135L623.354,663.135z
	 M645.747,663.135v-53.69h8.135v7.539c1.689-2.638,3.927-4.746,6.72-6.349c2.803-1.602,5.985-2.401,9.561-2.401
	c3.975,0,7.236,0.84,9.775,2.479c2.549,1.66,4.336,3.965,5.381,6.935c4.248-6.271,9.774-9.414,16.582-9.414
	c5.321,0,9.414,1.483,12.284,4.434c2.861,2.949,4.298,7.48,4.298,13.613v36.854h-9.054v-33.828c0-3.633-0.293-6.25-0.879-7.852
	c-0.596-1.602-1.66-2.891-3.213-3.867c-1.553-0.976-3.369-1.465-5.459-1.465c-3.77,0-6.904,1.25-9.404,3.77
	c-2.489,2.5-3.739,6.523-3.739,12.052v31.19h-9.093v-34.883c0-4.043-0.741-7.07-2.227-9.102c-1.484-2.013-3.906-3.027-7.275-3.027
	c-2.567,0-4.932,0.684-7.108,2.031c-2.168,1.348-3.74,3.301-4.728,5.897c-0.977,2.599-1.465,6.349-1.465,11.23v27.852
	L645.747,663.135L645.747,663.135z M94.526,848.955h-9.102v-57.969c-2.188,2.09-5.059,4.18-8.613,6.27s-6.748,3.652-9.58,4.707
	v-8.809c5.088-2.383,9.541-5.293,13.35-8.691c3.799-3.397,6.504-6.699,8.086-9.902h5.859V848.955z M146.987,848.955v-17.734h-32.139
	v-8.34l33.809-48.027h7.432v48.027h10.01v8.34h-10.01v17.734H146.987z M146.987,822.881v-33.418l-23.193,33.418H146.987
	L146.987,822.881z M204.556,848.955v-17.734h-32.139v-8.34l33.809-48.027h7.432v48.027h10.01v8.34h-10.01v17.734H204.556
	L204.556,848.955z M204.556,822.881v-33.418l-23.193,33.418H204.556L204.556,822.881z M238.081,848.955v-10.352h10.361v10.352
	H238.081z M309.546,840.225v8.73h-48.975c-0.076-2.153,0.286-4.3,1.064-6.309c1.24-3.341,3.242-6.621,5.986-9.863
	c2.744-3.242,6.709-6.974,11.904-11.211c8.047-6.621,13.496-11.836,16.328-15.703c2.822-3.848,4.238-7.5,4.238-10.938
	c0-3.612-1.289-6.659-3.867-9.12c-2.578-2.48-5.938-3.73-10.078-3.73c-4.385,0-7.891,1.328-10.518,3.945
	c-2.627,2.637-3.955,6.27-3.994,10.918l-9.346-0.957c0.635-6.974,3.047-12.285,7.227-15.938c4.18-3.672,9.785-5.487,16.836-5.487
	c7.109,0,12.734,1.973,16.875,5.918c4.15,3.944,6.221,8.828,6.221,14.647c0,2.97-0.605,5.879-1.816,8.75
	c-1.221,2.871-3.232,5.879-6.045,9.043s-7.49,7.521-14.023,13.047c-5.459,4.57-8.965,7.695-10.518,9.316
	c-1.553,1.641-2.832,3.281-3.838,4.941L309.546,840.225L309.546,840.225z M348.462,848.955v-17.734h-32.139v-8.34l33.809-48.027
	h7.432v48.027h10.01v8.34h-10.01v17.734H348.462z M348.462,822.881v-33.418l-23.193,33.418H348.462L348.462,822.881z
	 M290.435,441.455V256.553h36.318l75.674,123.477V256.553h34.679v184.902h-37.451l-74.542-120.566v120.566H290.435L290.435,441.455z
	 M599.165,441.455h-32.92v-19.688c-5.459,7.656-11.914,13.359-19.355,17.091c-7.44,3.75-14.94,5.625-22.51,5.625
	c-15.391,0-28.563-6.211-39.541-18.613c-10.967-12.402-16.455-29.688-16.455-51.896c0-22.694,5.332-39.961,16.017-51.776
	c10.674-11.797,24.17-17.715,40.479-17.715c14.971,0,27.92,6.23,38.848,18.672v-66.602h35.439L599.165,441.455L599.165,441.455z
	 M504.575,371.572c0,14.297,1.973,24.647,5.928,31.035c5.723,9.258,13.701,13.866,23.965,13.866c8.154,0,15.088-3.457,20.812-10.391
	c5.713-6.953,8.573-17.305,8.573-31.094c0-15.392-2.772-26.465-8.319-33.242c-5.558-6.758-12.656-10.137-21.318-10.137
	c-8.408,0-15.449,3.34-21.123,10.02C507.418,348.311,504.575,358.291,504.575,371.572z M859.78,109.834v7.598h-42.5
	c-0.068-1.914,0.244-3.73,0.918-5.488c1.084-2.891,2.813-5.742,5.194-8.555c2.383-2.813,5.83-6.055,10.332-9.746
	c6.992-5.723,11.709-10.254,14.17-13.613c2.451-3.34,3.683-6.504,3.683-9.492c0-3.125-1.113-5.781-3.351-7.93
	c-2.245-2.148-5.155-3.223-8.76-3.223c-3.799,0-6.836,1.152-9.121,3.438c-2.274,2.266-3.438,5.43-3.467,9.473l-8.115-0.84
	c0.558-6.055,2.646-10.664,6.279-13.848c3.623-3.164,8.486-4.746,14.6-4.746c6.173,0,11.056,1.699,14.658,5.117
	c3.595,3.438,5.392,7.676,5.392,12.734c0,2.578-0.527,5.098-1.572,7.578c-1.055,2.5-2.803,5.117-5.244,7.852
	c-2.44,2.754-6.504,6.523-12.178,11.328c-4.736,3.965-7.773,6.68-9.121,8.086c-1.348,1.426-2.461,2.852-3.34,4.277H859.78
	L859.78,109.834z M830.436,172.393c-3.271-1.191-5.703-2.91-7.285-5.137c-1.572-2.207-2.363-4.883-2.363-7.969
	c0-4.688,1.68-8.613,5.039-11.816c3.369-3.184,7.842-4.766,13.428-4.766c5.615,0,10.137,1.621,13.555,4.883
	c3.418,3.262,5.138,7.227,5.138,11.914c0,2.988-0.791,5.586-2.354,7.793c-1.563,2.207-3.936,3.906-7.129,5.098
	c3.955,1.289,6.953,3.359,9.014,6.23c2.07,2.871,3.097,6.289,3.097,10.273c0,5.488-1.943,10.117-5.83,13.848
	c-3.896,3.75-9.014,5.625-15.361,5.625c-6.338,0-11.455-1.875-15.352-5.645c-3.888-3.75-5.83-8.438-5.83-14.063
	c0-4.18,1.055-7.676,3.184-10.488C823.501,175.342,826.52,173.428,830.436,172.393z M826.313,188.721
	c0,2.246,0.526,4.434,1.602,6.523c1.064,2.109,2.656,3.75,4.756,4.902c2.109,1.152,4.375,1.719,6.797,1.719
	c3.779,0,6.896-1.211,9.347-3.633c2.461-2.422,3.69-5.508,3.69-9.258c0-3.789-1.27-6.934-3.799-9.434
	c-2.529-2.48-5.693-3.73-9.502-3.73c-3.711,0-6.787,1.23-9.229,3.691C827.533,181.962,826.313,185.029,826.313,188.721
	L826.313,188.721z M828.854,159.014c0,3.047,0.985,5.527,2.938,7.461c1.963,1.934,4.502,2.891,7.637,2.891
	c3.037,0,5.537-0.957,7.48-2.871c1.942-1.914,2.92-4.258,2.92-7.031c0-2.91-1.006-5.332-3.008-7.305
	c-2.002-1.973-4.502-2.969-7.48-2.969c-3.018,0-5.518,0.957-7.5,2.891C829.849,154.014,828.854,156.318,828.854,159.014
	L828.854,159.014z M798.052,297.1h-7.891v-50.313c-1.904,1.816-4.396,3.633-7.48,5.449c-3.086,1.797-5.858,3.164-8.311,4.063v-7.617
	c4.414-2.09,8.271-4.59,11.582-7.559c3.301-2.949,5.645-5.82,7.012-8.594h5.088V297.1L798.052,297.1z M830.425,262.236
	c-3.271-1.211-5.703-2.91-7.285-5.137c-1.571-2.227-2.362-4.883-2.362-7.988c0-4.668,1.68-8.613,5.039-11.797
	c3.369-3.184,7.842-4.785,13.428-4.785c5.615,0,10.137,1.641,13.555,4.902c3.418,3.261,5.137,7.227,5.137,11.895
	c0,2.988-0.791,5.586-2.354,7.793s-3.936,3.906-7.129,5.117c3.955,1.289,6.953,3.359,9.014,6.23
	c2.07,2.852,3.096,6.289,3.096,10.254c0,5.508-1.942,10.117-5.829,13.867c-3.896,3.75-9.015,5.605-15.361,5.605
	c-6.338,0-11.455-1.875-15.353-5.625c-3.887-3.77-5.83-8.457-5.83-14.063c0-4.18,1.056-7.676,3.185-10.508
	C823.491,265.186,826.509,263.252,830.425,262.236L830.425,262.236z M826.304,278.545c0,2.266,0.527,4.434,1.603,6.543
	c1.063,2.109,2.656,3.73,4.756,4.883c2.081,1.148,4.42,1.746,6.797,1.738c3.779,0,6.895-1.211,9.346-3.633
	c2.461-2.441,3.691-5.527,3.691-9.258c0-3.809-1.271-6.953-3.799-9.434c-2.529-2.481-5.693-3.73-9.502-3.73
	c-3.711,0-6.787,1.23-9.229,3.691C827.523,271.787,826.304,274.873,826.304,278.545L826.304,278.545z M828.843,248.857
	c0,3.027,0.986,5.527,2.939,7.441c1.963,1.934,4.502,2.91,7.637,2.91c3.037,0,5.537-0.957,7.48-2.871
	c1.942-1.914,2.92-4.277,2.92-7.051c0-2.891-1.006-5.332-3.009-7.305c-2.002-1.973-4.502-2.949-7.479-2.949
	c-3.018,0-5.518,0.957-7.5,2.891C829.839,243.857,828.843,246.162,828.843,248.857L828.843,248.857z M809.81,379.365v7.578h-42.5
	c-0.067-1.896,0.244-3.73,0.919-5.47c1.084-2.909,2.813-5.762,5.194-8.555c2.383-2.813,5.83-6.055,10.332-9.746
	c6.992-5.742,11.709-10.272,14.17-13.613c2.451-3.358,3.683-6.522,3.683-9.512c0-3.125-1.113-5.762-3.351-7.91
	c-2.246-2.147-5.156-3.223-8.76-3.223c-3.799,0-6.836,1.133-9.121,3.418c-2.275,2.285-3.438,5.449-3.467,9.473l-8.115-0.84
	c0.558-6.035,2.646-10.664,6.279-13.828c3.623-3.184,8.485-4.766,14.6-4.766c6.172,0,11.056,1.719,14.658,5.137
	c3.594,3.418,5.391,7.656,5.391,12.715c0,2.578-0.526,5.117-1.571,7.599c-1.056,2.479-2.804,5.098-5.244,7.852
	c-2.441,2.754-6.504,6.523-12.178,11.31c-4.736,3.983-7.773,6.68-9.121,8.104c-1.349,1.406-2.461,2.832-3.341,4.277H809.81
	L809.81,379.365z M859.771,379.365v7.578h-42.5c-0.068-1.896,0.243-3.73,0.918-5.47c1.084-2.909,2.813-5.762,5.194-8.555
	c2.383-2.813,5.83-6.055,10.332-9.746c6.992-5.742,11.709-10.272,14.17-13.613c2.451-3.358,3.683-6.522,3.683-9.512
	c0-3.125-1.113-5.762-3.351-7.91c-2.246-2.147-5.155-3.223-8.76-3.223c-3.799,0-6.836,1.133-9.121,3.418
	c-2.274,2.285-3.438,5.449-3.467,9.473l-8.115-0.84c0.558-6.035,2.646-10.664,6.279-13.828c3.623-3.184,8.486-4.766,14.6-4.766
	c6.172,0,11.056,1.719,14.658,5.137c3.594,3.418,5.391,7.656,5.391,12.715c0,2.578-0.526,5.117-1.571,7.599
	c-1.056,2.479-2.804,5.098-5.244,7.852c-2.441,2.754-6.504,6.523-12.178,11.31c-4.736,3.983-7.773,6.68-9.121,8.104
	c-1.349,1.406-2.461,2.832-3.34,4.277H859.771z M830.435,441.904c-3.271-1.191-5.702-2.91-7.284-5.138
	c-1.572-2.207-2.363-4.883-2.363-7.969c0-4.688,1.68-8.613,5.039-11.815c3.369-3.185,7.842-4.767,13.428-4.767
	c5.615,0,10.137,1.621,13.555,4.883c3.418,3.263,5.138,7.228,5.138,11.914c0,2.988-0.791,5.586-2.354,7.793
	c-1.563,2.207-3.936,3.906-7.129,5.099c3.955,1.289,6.953,3.358,9.014,6.229c2.07,2.871,3.097,6.289,3.097,10.273
	c0,5.487-1.943,10.117-5.83,13.848c-3.896,3.75-9.015,5.625-15.361,5.625c-6.338,0-11.455-1.875-15.352-5.645
	c-3.888-3.75-5.83-8.438-5.83-14.063c0-4.18,1.055-7.676,3.184-10.488C823.501,444.854,826.519,442.939,830.435,441.904
	L830.435,441.904z M826.313,458.232c0,2.245,0.527,4.434,1.603,6.522c1.063,2.109,2.656,3.75,4.756,4.902
	c2.109,1.151,4.375,1.719,6.797,1.719c3.779,0,6.896-1.211,9.347-3.633c2.461-2.422,3.69-5.508,3.69-9.258
	c0-3.789-1.27-6.935-3.799-9.435c-2.529-2.479-5.693-3.729-9.502-3.729c-3.711,0-6.787,1.229-9.229,3.69
	C827.533,451.473,826.313,454.541,826.313,458.232L826.313,458.232z M828.853,428.525c0,3.047,0.986,5.526,2.939,7.461
	c1.963,1.934,4.502,2.891,7.637,2.891c3.037,0,5.537-0.957,7.48-2.871c1.942-1.914,2.92-4.258,2.92-7.031
	c0-2.909-1.006-5.332-3.008-7.305s-4.502-2.969-7.48-2.969c-3.018,0-5.518,0.957-7.5,2.891
	C829.849,423.525,828.854,425.83,828.853,428.525L828.853,428.525z M859.78,559.033v7.598h-42.5
	c-0.068-1.914,0.244-3.729,0.918-5.488c1.084-2.891,2.813-5.741,5.194-8.555c2.383-2.813,5.83-6.055,10.332-9.746
	c6.992-5.723,11.709-10.254,14.17-13.612c2.451-3.341,3.683-6.505,3.683-9.492c0-3.125-1.113-5.781-3.351-7.931
	c-2.245-2.147-5.155-3.223-8.76-3.223c-3.799,0-6.836,1.152-9.121,3.438c-2.274,2.266-3.438,5.43-3.467,9.473l-8.115-0.84
	c0.558-6.056,2.646-10.664,6.279-13.849c3.623-3.163,8.486-4.745,14.6-4.745c6.173,0,11.056,1.698,14.658,5.116
	c3.594,3.438,5.392,7.677,5.392,12.734c0,2.578-0.527,5.098-1.572,7.578c-1.055,2.5-2.803,5.117-5.244,7.852
	c-2.441,2.754-6.504,6.523-12.178,11.328c-4.736,3.965-7.773,6.68-9.121,8.086c-1.349,1.426-2.461,2.853-3.34,4.277H859.78
	L859.78,559.033z"/>
</svg>
