<?xml version="1.0" encoding="utf-8"?>
<!-- Generator: Adobe Illustrator 16.0.3, SVG Export Plug-In . SVG Version: 6.00 Build 0)  -->
<!DOCTYPE svg PUBLIC "-//W3C//DTD SVG 1.1//EN" "http://www.w3.org/Graphics/SVG/1.1/DTD/svg11.dtd">
<svg version="1.1" id="Layer_1" xmlns="http://www.w3.org/2000/svg" xmlns:xlink="http://www.w3.org/1999/xlink" x="0px" y="0px"
	 width="900px" height="900px" viewBox="0 0 900 900" enable-background="new 0 0 900 900" xml:space="preserve">
<path d="M111.846,68.811l-13.76,1.074c-1.23-5.43-2.969-9.375-5.225-11.836c-3.75-3.945-8.359-5.918-13.838-5.918
	c-4.414,0-8.281,1.23-11.611,3.691c-4.355,3.174-7.793,7.813-10.303,13.916c-2.51,6.094-3.818,14.785-3.926,26.055
	c3.33-5.068,7.412-8.838,12.227-11.299s9.863-3.691,15.146-3.691c9.229,0,17.08,3.398,23.564,10.186
	c6.484,6.797,9.727,15.566,9.727,26.338c0,7.07-1.523,13.643-4.58,19.717c-3.047,6.074-7.236,10.723-12.568,13.955
	c-5.332,3.223-11.377,4.844-18.145,4.844c-11.533,0-20.938-4.238-28.213-12.725c-7.275-8.487-10.918-22.461-10.918-41.943
	c0-21.777,4.023-37.617,12.07-47.51c7.021-8.613,16.475-12.91,28.369-12.91c8.867,0,16.133,2.48,21.797,7.451
	C107.323,53.177,110.723,60.051,111.846,68.811L111.846,68.811z M55.342,117.405c0,4.766,1.006,9.326,3.037,13.682
	c2.021,4.355,4.854,7.676,8.496,9.951c3.633,2.285,7.451,3.428,11.455,3.428c5.84,0,10.859-2.363,15.068-7.08
	c4.199-4.707,6.299-11.113,6.299-19.219c0-7.783-2.07-13.926-6.221-18.408c-4.16-4.482-9.385-6.729-15.684-6.729
	c-6.26,0-11.563,2.246-15.918,6.729C57.519,104.242,55.342,110.12,55.342,117.405L55.342,117.405z M179.736,153.918h-13.838V65.735
	c-3.34,3.184-7.705,6.357-13.115,9.531c-5.4,3.184-10.264,5.566-14.561,7.158V69.045c7.734-3.643,14.502-8.047,20.293-13.223
	c5.791-5.176,9.893-10.205,12.305-15.068h8.916V153.918L179.736,153.918z M177.998,652.84v-74.102h27.949
	c4.922,0,8.672,0.233,11.27,0.703c3.643,0.604,6.689,1.758,9.15,3.457c2.461,1.719,4.443,4.102,5.938,7.168
	c1.504,3.065,2.246,6.426,2.246,10.098c0,6.309-2.002,11.641-6.006,15.996c-4.014,4.375-11.26,6.543-21.738,6.543h-19.004v30.137
	H177.998L177.998,652.84z M187.803,613.973h19.16c6.328,0,10.83-1.19,13.486-3.535c2.666-2.362,3.994-5.684,3.994-9.961
	c0-3.104-0.781-5.762-2.344-7.969c-1.572-2.207-3.633-3.672-6.191-4.375c-1.65-0.43-4.707-0.645-9.15-0.645h-18.955V613.973z
	 M245.771,652.84v-53.69h8.193v8.145c2.09-3.809,4.014-6.309,5.781-7.539c1.777-1.211,3.721-1.815,5.84-1.815
	c3.066,0,6.182,0.977,9.355,2.93l-3.135,8.457c-2.227-1.328-4.453-1.974-6.67-1.974c-1.992,0-3.779,0.587-5.361,1.798
	c-1.582,1.19-2.715,2.852-3.389,4.961c-1.006,3.241-1.514,6.776-1.514,10.625v28.104L245.771,652.84L245.771,652.84z
	 M276.963,626.004c0-9.941,2.764-17.305,8.291-22.09c4.609-3.984,10.244-5.978,16.885-5.978c7.373,0,13.408,2.423,18.086,7.267
	c4.688,4.824,7.031,11.504,7.031,20.039c0,6.895-1.035,12.344-3.105,16.289c-2.08,3.965-5.088,7.051-9.053,9.237
	c-3.955,2.188-8.281,3.281-12.959,3.281c-7.52,0-13.594-2.401-18.223-7.227C279.277,642,276.963,635.066,276.963,626.004
	L276.963,626.004z M286.309,626.004c0,6.875,1.504,12.012,4.502,15.43s6.777,5.138,11.328,5.138c4.512,0,8.271-1.72,11.27-5.156
	c2.999-3.438,4.492-8.672,4.492-15.723c0-6.642-1.504-11.66-4.521-15.078c-3.018-3.438-6.768-5.138-11.24-5.138
	c-4.551,0-8.33,1.699-11.328,5.099C287.813,613.992,286.309,619.129,286.309,626.004L286.309,626.004z M337.92,652.84v-53.69h8.135
	v7.538c1.689-2.637,3.926-4.745,6.719-6.348c2.803-1.602,5.986-2.402,9.561-2.402c3.975,0,7.236,0.841,9.775,2.48
	c2.549,1.66,4.336,3.965,5.381,6.934c4.248-6.27,9.775-9.414,16.582-9.414c5.321,0,9.414,1.484,12.285,4.435
	c2.86,2.949,4.297,7.479,4.297,13.613v36.854h-9.054v-33.828c0-3.633-0.293-6.25-0.879-7.852c-0.596-1.603-1.66-2.892-3.213-3.867
	s-3.369-1.465-5.459-1.465c-3.77,0-6.904,1.25-9.404,3.77c-2.49,2.5-3.74,6.523-3.74,12.052v31.19h-9.092v-34.883
	c0-4.043-0.742-7.07-2.227-9.102c-1.484-2.013-3.906-3.027-7.275-3.027c-2.568,0-4.932,0.684-7.109,2.031
	c-2.168,1.348-3.74,3.301-4.727,5.897c-0.977,2.599-1.465,6.349-1.465,11.23v27.852L337.92,652.84L337.92,652.84z M460.898,635.555
	l9.395,1.152c-1.484,5.488-4.229,9.766-8.232,12.793c-4.014,3.027-9.141,4.551-15.371,4.551c-7.852,0-14.071-2.422-18.672-7.266
	c-4.6-4.824-6.903-11.603-6.903-20.332c0-9.023,2.323-16.035,6.973-21.035c4.658-4.979,10.685-7.479,18.096-7.479
	c7.179,0,13.048,2.44,17.599,7.344c4.541,4.883,6.815,11.758,6.815,20.604c0,0.547-0.01,1.349-0.049,2.441h-40.029
	c0.332,5.897,2.003,10.41,5,13.535c2.998,3.145,6.738,4.707,11.222,4.707c3.34,0,6.182-0.879,8.545-2.638
	C457.646,642.195,459.512,639.383,460.898,635.555L460.898,635.555z M431.025,620.848h29.971c-0.41-4.53-1.553-7.909-3.438-10.176
	c-2.899-3.496-6.659-5.254-11.27-5.254c-4.18,0-7.695,1.406-10.537,4.199C432.9,612.41,431.328,616.16,431.025,620.848
	L431.025,620.848z M501.582,644.695l1.309,8.047c-2.559,0.526-4.844,0.801-6.875,0.801c-3.301,0-5.858-0.527-7.676-1.563
	c-1.826-1.056-3.104-2.423-3.848-4.121c-0.743-1.699-1.104-5.293-1.104-10.742v-30.879h-6.68v-7.09h6.68v-13.281l9.043-5.469v18.75
	h9.15v7.09h-9.15v31.387c0,2.598,0.156,4.258,0.479,5s0.84,1.328,1.572,1.777c0.723,0.43,1.758,0.645,3.104,0.645
	C498.594,645.047,499.932,644.93,501.582,644.695L501.582,644.695z M510.479,652.84v-74.102h9.093v26.582
	c4.248-4.922,9.608-7.383,16.073-7.383c3.976,0,7.433,0.78,10.361,2.362c2.939,1.563,5.029,3.73,6.299,6.484
	c1.261,2.772,1.896,6.776,1.896,12.031v34.022h-9.103v-34.022c0-4.552-0.985-7.853-2.959-9.923c-1.963-2.09-4.756-3.125-8.358-3.125
	c-2.695,0-5.234,0.703-7.607,2.109c-2.373,1.387-4.072,3.281-5.078,5.685c-1.016,2.383-1.522,5.702-1.522,9.901v29.375h-9.094
	V652.84z M568.105,589.207v-10.469h9.102v10.469H568.105z M568.105,652.84v-53.69h9.102v53.69H568.105z M626.23,652.84v-7.891
	c-4.181,6.074-9.854,9.102-17.031,9.102c-3.174,0-6.123-0.604-8.877-1.815c-2.744-1.211-4.785-2.734-6.113-4.591
	c-1.328-1.836-2.266-4.081-2.803-6.737c-0.371-1.777-0.558-4.609-0.558-8.496v-33.262h9.103v29.784c0,4.746,0.186,7.949,0.557,9.591
	c0.566,2.401,1.777,4.276,3.633,5.645c1.856,1.368,4.15,2.051,6.875,2.051c2.734,0,5.293-0.702,7.687-2.108
	c2.393-1.388,4.082-3.301,5.078-5.703s1.494-5.898,1.494-10.488v-28.77h9.092v53.69L626.23,652.84L626.23,652.84z M648.623,652.84
	v-53.69h8.135v7.539c1.689-2.638,3.926-4.746,6.719-6.349c2.804-1.602,5.986-2.401,9.562-2.401c3.975,0,7.236,0.84,9.774,2.479
	c2.55,1.66,4.337,3.965,5.382,6.934c4.248-6.27,9.774-9.413,16.582-9.413c5.321,0,9.414,1.483,12.284,4.434
	c2.861,2.949,4.298,7.479,4.298,13.613v36.854h-9.054v-33.828c0-3.633-0.293-6.25-0.879-7.852c-0.596-1.603-1.66-2.891-3.213-3.867
	c-1.553-0.976-3.369-1.465-5.459-1.465c-3.77,0-6.904,1.25-9.404,3.77c-2.489,2.5-3.739,6.523-3.739,12.052v31.19h-9.093v-34.883
	c0-4.043-0.741-7.07-2.227-9.102c-1.484-2.013-3.906-3.027-7.275-3.027c-2.567,0-4.932,0.684-7.108,2.031
	c-2.168,1.348-3.74,3.301-4.728,5.897c-0.977,2.599-1.465,6.349-1.465,11.23v27.852L648.623,652.84L648.623,652.84z M62.988,859.246
	v-94.688h20.068v7.539H72.09v79.609h10.967v7.539L62.988,859.246L62.988,859.246z M123.291,838.66h-9.102v-57.969
	c-2.188,2.09-5.059,4.18-8.613,6.27c-3.554,2.09-6.748,3.652-9.58,4.707v-8.809c5.088-2.384,9.541-5.293,13.35-8.691
	c3.799-3.398,6.504-6.699,8.086-9.902h5.859V838.66z M175.752,838.66v-17.734h-32.139v-8.34l33.809-48.027h7.432v48.027h10.01v8.34
	h-10.01v17.734H175.752z M175.752,812.586v-33.418l-23.193,33.418H175.752L175.752,812.586z M204.16,819.246l9.551-0.801
	c0.713,4.647,2.354,8.145,4.932,10.487s5.684,3.517,9.326,3.517c4.375,0,8.086-1.66,11.113-4.961
	c3.037-3.302,4.551-7.677,4.551-13.146c0-5.176-1.455-9.276-4.365-12.266c-2.92-3.008-6.738-4.513-11.455-4.513
	c-2.93,0-5.576,0.664-7.93,2.013c-2.363,1.328-4.219,3.047-5.566,5.176l-8.535-1.113l7.178-38.065h36.846v8.69h-29.57l-3.994,19.922
	c4.443-3.104,9.111-4.647,14.004-4.647c6.465,0,11.924,2.246,16.377,6.719c4.443,4.473,6.67,10.234,6.67,17.285
	c0,6.699-1.953,12.5-5.869,17.383c-4.746,5.996-11.23,9.004-19.453,9.004c-6.738,0-12.246-1.895-16.504-5.664
	C207.197,830.496,204.766,825.496,204.16,819.246L204.16,819.246z M279.482,859.246h-20.068v-7.539h10.967v-79.609h-10.967v-7.539
	h20.068V859.246z M261.24,431.155V246.262h59.912c22.695,0,37.49,0.928,44.385,2.783c10.596,2.773,19.473,8.809,26.611,18.096
	c7.148,9.287,10.723,21.289,10.723,36.006c0,11.348-2.062,20.889-6.182,28.623c-4.122,7.744-9.355,13.818-15.704,18.232
	c-6.348,4.414-12.793,7.334-19.355,8.76c-8.916,1.769-21.816,2.646-38.721,2.646h-24.336v69.746L261.24,431.155L261.24,431.155z
	 M298.574,277.542v52.471h20.43c14.717,0,24.551-0.967,29.512-2.899c4.961-1.934,8.848-4.961,11.67-9.082
	c2.813-4.121,4.219-8.916,4.219-14.375c0-6.729-1.973-12.275-5.928-16.65s-8.955-7.109-15.01-8.203
	c-4.453-0.84-13.408-1.26-26.855-1.26L298.574,277.542L298.574,277.542z M430.615,297.219h32.666V315.5
	c11.688-14.199,25.604-21.309,41.748-21.309c8.573,0,16.016,1.768,22.323,5.293c6.3,3.535,11.476,8.877,15.509,16.016
	c5.889-7.139,12.235-12.48,19.043-16.016c6.807-3.525,14.082-5.293,21.815-5.293c9.844,0,18.164,2.002,24.972,5.986
	c6.815,3.994,11.903,9.863,15.264,17.599c2.44,5.723,3.662,14.971,3.662,27.743v85.636h-35.439v-76.554
	c0-13.28-1.221-21.854-3.662-25.731c-3.281-5.039-8.319-7.56-15.137-7.56c-4.961,0-9.629,1.515-13.994,4.531
	c-4.375,3.027-7.529,7.472-9.463,13.312s-2.9,15.067-2.9,27.686v64.316h-35.438v-73.398c0-13.037-0.625-21.445-1.886-25.225
	c-1.27-3.779-3.223-6.603-5.868-8.447c-2.646-1.855-6.24-2.773-10.781-2.773c-5.469,0-10.391,1.466-14.756,4.414
	c-4.375,2.939-7.511,7.188-9.396,12.734c-1.895,5.547-2.842,14.756-2.842,27.617v65.078h-35.438L430.615,297.219L430.615,297.219z
	 M859.785,99.543v7.588h-42.5c-0.068-1.904,0.244-3.73,0.918-5.479c1.084-2.9,2.813-5.752,5.195-8.555
	c2.383-2.813,5.83-6.055,10.332-9.746c6.991-5.732,11.709-10.264,14.17-13.613c2.45-3.35,3.682-6.514,3.682-9.502
	c0-3.125-1.113-5.771-3.35-7.92c-2.246-2.148-5.156-3.223-8.761-3.223c-3.799,0-6.836,1.143-9.12,3.428
	c-2.275,2.275-3.438,5.439-3.468,9.473l-8.114-0.84c0.557-6.045,2.646-10.664,6.278-13.838c3.623-3.174,8.486-4.756,14.601-4.756
	c6.172,0,11.055,1.709,14.657,5.127c3.595,3.428,5.392,7.666,5.392,12.725c0,2.578-0.527,5.107-1.572,7.588
	c-1.055,2.49-2.803,5.107-5.244,7.852c-2.44,2.754-6.504,6.523-12.178,11.318c-4.736,3.975-7.773,6.68-9.121,8.096
	s-2.461,2.842-3.34,4.277H859.785z M830.439,162.102c-3.271-1.201-5.703-2.91-7.285-5.137c-1.572-2.217-2.363-4.883-2.363-7.979
	c0-4.678,1.68-8.613,5.039-11.807c3.369-3.184,7.842-4.775,13.428-4.775c5.615,0,10.138,1.631,13.556,4.893
	c3.418,3.262,5.137,7.227,5.137,11.904c0,2.988-0.791,5.586-2.354,7.793c-1.563,2.207-3.936,3.906-7.129,5.107
	c3.955,1.289,6.953,3.359,9.015,6.23c2.069,2.861,3.096,6.289,3.096,10.264c0,5.498-1.943,10.117-5.83,13.857
	c-3.896,3.75-9.014,5.615-15.361,5.615c-6.338,0-11.455-1.875-15.352-5.635c-3.888-3.76-5.83-8.447-5.83-14.063
	c0-4.18,1.055-7.676,3.184-10.498C823.506,165.051,826.523,163.127,830.439,162.102z M826.318,178.42
	c0,2.256,0.526,4.434,1.602,6.533c1.064,2.109,2.656,3.74,4.756,4.893c2.082,1.145,4.422,1.74,6.797,1.729
	c3.779,0,6.896-1.211,9.347-3.633c2.461-2.432,3.69-5.518,3.69-9.258c0-3.799-1.27-6.943-3.799-9.434
	c-2.529-2.48-5.693-3.73-9.502-3.73c-3.711,0-6.787,1.23-9.229,3.691C827.539,171.663,826.318,174.739,826.318,178.42
	L826.318,178.42z M828.857,148.723c0,3.037,0.985,5.527,2.938,7.451c1.963,1.934,4.502,2.9,7.638,2.9
	c3.036,0,5.536-0.957,7.479-2.871s2.92-4.268,2.92-7.041c0-2.9-1.006-5.332-3.008-7.305s-4.502-2.959-7.48-2.959
	c-3.018,0-5.518,0.957-7.5,2.891C829.854,143.723,828.857,146.028,828.857,148.723L828.857,148.723z M798.057,286.809h-7.891
	v-50.313c-1.904,1.807-4.395,3.623-7.479,5.439c-3.087,1.807-5.859,3.174-8.312,4.072v-7.627c4.414-2.08,8.271-4.59,11.582-7.549
	c3.301-2.949,5.646-5.82,7.012-8.594h5.088V286.809L798.057,286.809z M830.43,251.936c-3.271-1.201-5.703-2.91-7.284-5.137
	c-1.572-2.217-2.363-4.883-2.363-7.979c0-4.678,1.68-8.613,5.039-11.807c3.369-3.184,7.842-4.775,13.428-4.775
	c5.615,0,10.137,1.631,13.555,4.893c3.418,3.262,5.138,7.227,5.138,11.904c0,2.988-0.791,5.586-2.354,7.793
	c-1.563,2.207-3.936,3.906-7.129,5.107c3.955,1.289,6.953,3.359,9.014,6.23c2.07,2.861,3.097,6.289,3.097,10.264
	c0,5.498-1.943,10.117-5.83,13.857c-3.896,3.75-9.015,5.615-15.361,5.615c-6.338,0-11.455-1.875-15.352-5.635
	c-3.888-3.76-5.83-8.447-5.83-14.063c0-4.18,1.055-7.676,3.184-10.498C823.496,254.885,826.514,252.961,830.43,251.936z
	 M826.309,268.254c0,2.256,0.527,4.434,1.603,6.533c1.063,2.109,2.656,3.74,4.756,4.893c2.082,1.145,4.421,1.74,6.797,1.729
	c3.779,0,6.896-1.211,9.347-3.633c2.461-2.432,3.69-5.518,3.69-9.258c0-3.799-1.27-6.943-3.799-9.434
	c-2.529-2.48-5.693-3.73-9.502-3.73c-3.711,0-6.787,1.23-9.229,3.691C827.529,261.497,826.309,264.573,826.309,268.254
	L826.309,268.254z M828.848,238.557c0,3.037,0.986,5.527,2.939,7.451c1.963,1.934,4.502,2.9,7.637,2.9
	c3.037,0,5.537-0.957,7.48-2.871c1.942-1.914,2.92-4.268,2.92-7.041c0-2.9-1.006-5.332-3.008-7.305s-4.502-2.959-7.48-2.959
	c-3.018,0-5.518,0.957-7.5,2.891C829.844,233.557,828.848,235.862,828.848,238.557L828.848,238.557z M809.814,369.064v7.589h-42.5
	c-0.068-1.904,0.244-3.73,0.918-5.479c1.084-2.899,2.813-5.752,5.194-8.555c2.384-2.813,5.83-6.055,10.332-9.746
	c6.992-5.732,11.709-10.264,14.17-13.613c2.451-3.35,3.683-6.514,3.683-9.502c0-3.125-1.113-5.771-3.351-7.92
	c-2.245-2.148-5.155-3.223-8.76-3.223c-3.799,0-6.836,1.143-9.121,3.428c-2.274,2.275-3.438,5.439-3.467,9.473l-8.115-0.84
	c0.558-6.045,2.646-10.664,6.279-13.838c3.623-3.174,8.486-4.756,14.6-4.756c6.173,0,11.056,1.709,14.658,5.127
	c3.594,3.428,5.392,7.666,5.392,12.725c0,2.578-0.527,5.107-1.572,7.588c-1.055,2.49-2.803,5.107-5.244,7.853
	c-2.441,2.754-6.504,6.522-12.178,11.318c-4.736,3.975-7.773,6.68-9.121,8.096s-2.461,2.842-3.34,4.276H809.814z M818.32,359.68
	l7.899-1.055c0.908,4.473,2.451,7.695,4.63,9.668c2.178,1.973,4.834,2.959,7.959,2.959c3.711,0,6.854-1.279,9.413-3.857
	c2.56-2.567,3.839-5.762,3.839-9.561c0-3.623-1.191-6.621-3.556-8.975c-2.373-2.354-5.381-3.525-9.043-3.525
	c-1.483,0-3.34,0.293-5.565,0.879l0.879-6.934c0.526,0.059,0.947,0.088,1.27,0.088c3.359,0,6.388-0.879,9.082-2.637
	c2.687-1.748,4.033-4.453,4.033-8.115c0-2.892-0.977-5.293-2.939-7.188c-1.952-1.903-4.491-2.852-7.588-2.852
	c-3.065,0-5.625,0.957-7.676,2.891c-2.051,1.935-3.359,4.824-3.945,8.691l-7.899-1.406c0.967-5.293,3.164-9.395,6.582-12.305
	s7.676-4.365,12.764-4.365c3.506,0,6.738,0.752,9.697,2.256c2.948,1.504,5.215,3.564,6.776,6.162
	c1.563,2.607,2.345,5.371,2.345,8.291c0,2.783-0.742,5.313-2.236,7.588c-1.494,2.285-3.701,4.103-6.621,5.439
	c3.799,0.879,6.758,2.705,8.857,5.469c2.108,2.764,3.164,6.221,3.164,10.371c0,5.615-2.052,10.371-6.144,14.276
	c-4.102,3.906-9.277,5.859-15.527,5.859c-5.645,0-10.331-1.68-14.063-5.049C820.977,369.387,818.848,365.032,818.32,359.68
	L818.32,359.68z M830.439,431.614c-3.271-1.201-5.703-2.91-7.285-5.138c-1.572-2.217-2.363-4.883-2.363-7.979
	c0-4.678,1.68-8.613,5.039-11.807c3.369-3.185,7.842-4.775,13.428-4.775c5.615,0,10.138,1.631,13.556,4.893
	c3.418,3.263,5.137,7.228,5.137,11.904c0,2.988-0.791,5.586-2.354,7.793c-1.563,2.207-3.936,3.906-7.129,5.107
	c3.955,1.289,6.953,3.358,9.015,6.229c2.069,2.861,3.096,6.289,3.096,10.265c0,5.493-1.943,10.122-5.83,13.853
	c-3.896,3.75-9.014,5.625-15.361,5.625c-6.338,0-11.455-1.875-15.352-5.646c-3.887-3.75-5.83-8.438-5.83-14.058
	c0-4.18,1.055-7.676,3.184-10.498C823.506,434.563,826.523,432.639,830.439,431.614L830.439,431.614z M826.318,447.932
	c0,2.251,0.526,4.439,1.602,6.529c1.064,2.109,2.656,3.75,4.756,4.902c2.109,1.151,4.375,1.719,6.797,1.719
	c3.779,0,6.896-1.211,9.347-3.633c2.461-2.422,3.69-5.508,3.69-9.253c0-3.8-1.27-6.943-3.799-9.435
	c-2.529-2.479-5.693-3.729-9.502-3.729c-3.711,0-6.787,1.229-9.229,3.69C827.539,441.174,826.318,444.25,826.318,447.932
	L826.318,447.932z M828.857,418.235c0,3.036,0.985,5.526,2.938,7.45c1.963,1.935,4.502,2.9,7.638,2.9
	c3.036,0,5.536-0.957,7.479-2.871s2.92-4.268,2.92-7.041c0-2.9-1.006-5.332-3.008-7.305c-2.002-1.974-4.502-2.959-7.48-2.959
	c-3.018,0-5.518,0.957-7.5,2.891C829.854,413.235,828.857,415.54,828.857,418.235L828.857,418.235z M859.785,548.738v7.598h-42.5
	c-0.068-1.914,0.244-3.73,0.918-5.488c1.084-2.891,2.813-5.742,5.195-8.555c2.382-2.813,5.83-6.055,10.332-9.746
	c6.991-5.723,11.709-10.254,14.17-13.613c2.451-3.34,3.682-6.504,3.682-9.491c0-3.125-1.113-5.781-3.35-7.931
	c-2.246-2.147-5.156-3.223-8.761-3.223c-3.799,0-6.836,1.152-9.12,3.438c-2.275,2.267-3.438,5.431-3.468,9.474l-8.114-0.84
	c0.557-6.056,2.646-10.664,6.278-13.849c3.623-3.164,8.486-4.746,14.601-4.746c6.172,0,11.055,1.699,14.658,5.117
	c3.594,3.438,5.391,7.676,5.391,12.734c0,2.578-0.527,5.098-1.572,7.578c-1.055,2.5-2.803,5.117-5.244,7.852
	c-2.44,2.754-6.504,6.523-12.178,11.328c-4.736,3.965-7.773,6.68-9.121,8.086c-1.348,1.426-2.461,2.852-3.34,4.277H859.785
	L859.785,548.738z"/>
</svg>
