<?xml version="1.0" encoding="utf-8"?>
<!-- Generator: Adobe Illustrator 16.0.3, SVG Export Plug-In . SVG Version: 6.00 Build 0)  -->
<!DOCTYPE svg PUBLIC "-//W3C//DTD SVG 1.1//EN" "http://www.w3.org/Graphics/SVG/1.1/DTD/svg11.dtd">
<svg version="1.1" id="Layer_1" xmlns="http://www.w3.org/2000/svg" xmlns:xlink="http://www.w3.org/1999/xlink" x="0px" y="0px"
	 width="900px" height="900px" viewBox="0 0 900 900" enable-background="new 0 0 900 900" xml:space="preserve">
<path d="M111.846,78.44l-13.76,1.074c-1.23-5.43-2.969-9.375-5.225-11.836c-3.75-3.945-8.359-5.918-13.838-5.918
	c-4.414,0-8.281,1.23-11.611,3.691c-4.355,3.174-7.793,7.813-10.303,13.916c-2.51,6.094-3.818,14.785-3.926,26.055
	c3.33-5.068,7.412-8.838,12.227-11.299s9.863-3.691,15.146-3.691c9.229,0,17.08,3.398,23.564,10.186
	c6.484,6.797,9.727,15.566,9.727,26.338c0,7.07-1.523,13.643-4.58,19.717c-3.047,6.074-7.236,10.723-12.568,13.955
	c-5.332,3.223-11.377,4.844-18.145,4.844c-11.533,0-20.938-4.238-28.213-12.725c-7.275-8.487-10.918-22.461-10.918-41.943
	c0-21.777,4.023-37.617,12.07-47.51c7.021-8.613,16.475-12.91,28.369-12.91c8.867,0,16.133,2.48,21.797,7.451
	C107.323,62.806,110.723,69.68,111.846,78.44L111.846,78.44z M55.342,127.034c0,4.766,1.006,9.326,3.037,13.682
	c2.021,4.355,4.854,7.676,8.496,9.951c3.633,2.285,7.451,3.428,11.455,3.428c5.84,0,10.859-2.363,15.068-7.08
	c4.199-4.707,6.299-11.113,6.299-19.219c0-7.783-2.07-13.926-6.221-18.408c-4.16-4.482-9.385-6.729-15.684-6.729
	c-6.26,0-11.563,2.246-15.918,6.729C57.519,113.871,55.342,119.749,55.342,127.034L55.342,127.034z M200.342,150.247v13.301H125.84
	c-0.106-3.278,0.441-6.545,1.611-9.609c1.904-5.078,4.932-10.068,9.111-14.99c4.179-4.922,10.215-10.615,18.105-17.07
	c12.256-10.049,20.527-17.998,24.834-23.867c4.307-5.869,6.455-11.416,6.455-16.65c0-5.479-1.953-10.107-5.879-13.877
	c-3.916-3.77-9.033-5.645-15.332-5.645c-6.67,0-12.002,1.992-15.996,5.996c-3.994,3.994-6.025,9.531-6.074,16.602l-14.219-1.455
	c0.967-10.615,4.639-18.701,10.996-24.258c6.348-5.566,14.883-8.34,25.596-8.34c10.811,0,19.375,2.998,25.684,8.994
	c6.299,5.996,9.453,13.428,9.453,22.295c0,4.512-0.928,8.945-2.773,13.301c-1.836,4.355-4.902,8.945-9.18,13.76
	c-4.287,4.814-11.396,11.426-21.338,19.834c-8.301,6.973-13.633,11.699-15.986,14.18c-2.363,2.49-4.307,4.99-5.85,7.5h55.284
	V150.247z M217.832,638.66l9.248-0.82c0.439,3.711,1.465,6.758,3.057,9.142c1.602,2.362,4.092,4.297,7.461,5.762
	c3.369,1.465,7.158,2.188,11.367,2.188c3.74,0,7.051-0.547,9.912-1.659c2.861-1.113,4.99-2.638,6.396-4.57
	c1.396-1.953,2.09-4.063,2.09-6.348c0-2.324-0.674-4.355-2.021-6.095c-1.347-1.739-3.564-3.203-6.67-4.375
	c-1.982-0.78-6.387-1.973-13.193-3.612c-6.806-1.641-11.572-3.185-14.297-4.63c-3.545-1.854-6.182-4.141-7.91-6.895
	c-1.738-2.754-2.607-5.82-2.607-9.219c0-3.75,1.064-7.246,3.184-10.488c2.119-3.262,5.225-5.723,9.297-7.402
	c4.082-1.698,8.613-2.539,13.604-2.539c5.488,0,10.332,0.88,14.531,2.656c4.189,1.777,7.422,4.375,9.678,7.813
	c2.256,3.438,3.467,7.323,3.643,11.68l-9.404,0.703c-0.508-4.688-2.217-8.223-5.127-10.625c-2.92-2.383-7.227-3.574-12.92-3.574
	c-5.928,0-10.254,1.074-12.959,3.262c-2.715,2.168-4.072,4.785-4.072,7.853c0,2.656,0.957,4.844,2.881,6.563
	c1.885,1.72,6.816,3.496,14.785,5.293c7.969,1.798,13.438,3.38,16.396,4.728c4.316,1.992,7.5,4.512,9.561,7.559
	c2.051,3.047,3.076,6.563,3.076,10.527c0,3.945-1.123,7.656-3.379,11.152c-2.266,3.495-5.508,6.19-9.736,8.145
	c-4.229,1.934-8.984,2.891-14.277,2.891c-6.709,0-12.324-0.977-16.854-2.93c-4.531-1.953-8.086-4.883-10.664-8.809
	C219.33,648.058,217.969,643.602,217.832,638.66L217.832,638.66z M324.082,655.848c-3.379,2.853-6.621,4.884-9.736,6.056
	c-3.115,1.19-6.455,1.776-10.029,1.776c-5.898,0-10.43-1.444-13.594-4.315c-3.174-2.892-4.756-6.563-4.756-11.056
	c0-2.616,0.596-5.02,1.797-7.207c1.191-2.168,2.764-3.905,4.697-5.215c1.934-1.328,4.121-2.323,6.543-2.987
	c1.787-0.47,4.482-0.938,8.086-1.367c7.354-0.879,12.754-1.914,16.23-3.125c0.029-1.25,0.049-2.051,0.049-2.383
	c0-3.711-0.859-6.328-2.578-7.832c-2.324-2.052-5.781-3.086-10.361-3.086c-4.277,0-7.441,0.741-9.473,2.245
	c-2.041,1.505-3.555,4.16-4.531,7.97l-8.896-1.211c0.811-3.81,2.148-6.896,3.994-9.238c1.855-2.344,4.531-4.141,8.037-5.41
	c3.506-1.25,7.568-1.895,12.188-1.895c4.58,0,8.301,0.547,11.172,1.621c2.861,1.073,4.961,2.44,6.309,4.063
	c1.348,1.641,2.295,3.711,2.832,6.191c0.303,1.563,0.459,4.354,0.459,8.397v12.129c0,8.457,0.195,13.81,0.576,16.056
	c0.398,2.263,1.178,4.442,2.305,6.444H325.9C324.951,660.574,324.346,658.367,324.082,655.848L324.082,655.848z M323.32,635.516
	c-3.301,1.349-8.262,2.5-14.863,3.438c-3.74,0.547-6.387,1.151-7.93,1.836c-1.553,0.664-2.754,1.66-3.594,2.949
	c-0.84,1.289-1.26,2.733-1.26,4.315c0,2.422,0.918,4.453,2.754,6.074c1.836,1.621,4.521,2.422,8.057,2.422
	c3.506,0,6.621-0.762,9.355-2.305c2.725-1.523,4.736-3.633,6.016-6.289c0.977-2.051,1.465-5.078,1.465-9.103V635.516L323.32,635.516
	z M346.621,662.469v-53.69h8.135v7.539c1.689-2.638,3.926-4.746,6.719-6.349c2.803-1.602,5.986-2.401,9.561-2.401
	c3.975,0,7.236,0.84,9.775,2.479c2.549,1.66,4.336,3.965,5.381,6.935c4.248-6.271,9.775-9.414,16.583-9.414
	c5.321,0,9.414,1.483,12.284,4.434c2.861,2.949,4.298,7.48,4.298,13.613v36.854h-9.054v-33.828c0-3.633-0.293-6.25-0.879-7.852
	c-0.596-1.602-1.66-2.891-3.213-3.867c-1.553-0.976-3.369-1.465-5.459-1.465c-3.77,0-6.904,1.25-9.404,3.77
	c-2.49,2.5-3.74,6.523-3.74,12.052v31.19h-9.092v-34.883c0-4.043-0.742-7.07-2.227-9.102c-1.484-2.013-3.906-3.027-7.275-3.027
	c-2.568,0-4.932,0.684-7.109,2.031c-2.168,1.348-3.74,3.301-4.727,5.897c-0.977,2.599-1.465,6.349-1.465,11.23v27.852
	L346.621,662.469L346.621,662.469z M467.881,655.848c-3.379,2.853-6.621,4.884-9.736,6.056c-3.114,1.19-6.454,1.776-10.028,1.776
	c-5.898,0-10.431-1.444-13.594-4.315c-3.175-2.892-4.757-6.563-4.757-11.056c0-2.616,0.597-5.02,1.797-7.207
	c1.191-2.168,2.765-3.905,4.697-5.215c1.935-1.328,4.121-2.323,6.543-2.987c1.787-0.47,4.482-0.938,8.086-1.367
	c7.354-0.879,12.754-1.914,16.23-3.125c0.029-1.25,0.049-2.051,0.049-2.383c0-3.711-0.859-6.328-2.578-7.832
	c-2.324-2.052-5.781-3.086-10.361-3.086c-4.276,0-7.44,0.741-9.473,2.245c-2.041,1.505-3.555,4.16-4.531,7.97l-8.896-1.211
	c0.811-3.81,2.147-6.896,3.994-9.238c1.854-2.344,4.53-4.141,8.037-5.41c3.506-1.25,7.567-1.895,12.188-1.895
	c4.58,0,8.301,0.547,11.172,1.621c2.861,1.073,4.961,2.44,6.31,4.063c1.348,1.641,2.295,3.711,2.832,6.191
	c0.303,1.563,0.459,4.354,0.459,8.397v12.129c0,8.457,0.194,13.81,0.576,16.056c0.397,2.263,1.178,4.442,2.305,6.444h-9.502
	C468.75,660.574,468.145,658.367,467.881,655.848L467.881,655.848z M467.119,635.516c-3.301,1.349-8.262,2.5-14.863,3.438
	c-3.74,0.547-6.387,1.151-7.93,1.836c-1.553,0.664-2.754,1.66-3.594,2.949c-0.841,1.289-1.261,2.733-1.261,4.315
	c0,2.422,0.918,4.453,2.754,6.074c1.837,1.621,4.521,2.422,8.058,2.422c3.506,0,6.621-0.762,9.354-2.305
	c2.726-1.523,4.736-3.633,6.017-6.289c0.977-2.051,1.465-5.078,1.465-9.103V635.516L467.119,635.516z M490.313,662.469v-53.69h8.193
	v8.145c2.09-3.809,4.014-6.309,5.781-7.539c1.777-1.211,3.721-1.815,5.84-1.815c3.066,0,6.182,0.977,9.355,2.93l-3.136,8.457
	c-2.227-1.328-4.453-1.973-6.67-1.973c-1.992,0-3.778,0.586-5.36,1.797c-1.582,1.19-2.716,2.852-3.39,4.961
	c-1.006,3.242-1.514,6.776-1.514,10.625v28.104L490.313,662.469L490.313,662.469z M524.941,598.836v-10.469h9.102v10.469H524.941z
	 M524.941,662.469v-53.69h9.102v53.69H524.941z M583.066,662.469v-7.891c-4.181,6.074-9.854,9.102-17.031,9.102
	c-3.174,0-6.123-0.604-8.877-1.815c-2.744-1.211-4.785-2.734-6.113-4.59c-1.328-1.837-2.266-4.082-2.803-6.738
	c-0.371-1.777-0.557-4.609-0.557-8.496v-33.262h9.102v29.784c0,4.746,0.186,7.949,0.557,9.591c0.566,2.401,1.777,4.276,3.633,5.645
	c1.856,1.368,4.15,2.051,6.875,2.051c2.734,0,5.294-0.702,7.687-2.108c2.393-1.387,4.082-3.301,5.078-5.703
	s1.494-5.898,1.494-10.488v-28.77h9.092v53.69L583.066,662.469L583.066,662.469z M605.469,662.469v-53.69h8.136v7.539
	c1.688-2.638,3.926-4.746,6.719-6.349c2.803-1.602,5.985-2.401,9.561-2.401c3.976,0,7.236,0.84,9.775,2.479
	c2.549,1.66,4.336,3.965,5.381,6.935c4.248-6.271,9.775-9.414,16.582-9.414c5.322,0,9.414,1.483,12.285,4.434
	c2.86,2.949,4.297,7.48,4.297,13.613v36.854h-9.053v-33.828c0-3.633-0.293-6.25-0.879-7.852c-0.597-1.602-1.66-2.891-3.214-3.867
	c-1.553-0.976-3.368-1.465-5.459-1.465c-3.77,0-6.903,1.25-9.403,3.77c-2.49,2.5-3.74,6.523-3.74,12.052v31.19h-9.092v-34.883
	c0-4.043-0.742-7.07-2.228-9.102c-1.483-2.013-3.905-3.027-7.274-3.027c-2.568,0-4.933,0.684-7.109,2.031
	c-2.168,1.348-3.74,3.301-4.727,5.897c-0.978,2.599-1.466,6.349-1.466,11.23v27.852L605.469,662.469L605.469,662.469z
	 M94.531,848.289H85.43V790.32c-2.188,2.09-5.059,4.18-8.613,6.27c-3.554,2.09-6.748,3.652-9.58,4.707v-8.809
	c5.088-2.383,9.541-5.293,13.35-8.691c3.799-3.397,6.504-6.699,8.086-9.902h5.859L94.531,848.289L94.531,848.289z M117.832,828.875
	l9.551-0.801c0.713,4.647,2.354,8.145,4.932,10.487c2.578,2.344,5.684,3.517,9.326,3.517c4.375,0,8.086-1.66,11.113-4.961
	c3.037-3.301,4.551-7.676,4.551-13.146c0-5.176-1.455-9.276-4.365-12.266c-2.92-3.008-6.738-4.512-11.455-4.512
	c-2.93,0-5.576,0.663-7.93,2.012c-2.363,1.328-4.219,3.047-5.566,5.176l-8.535-1.113l7.178-38.065h36.846v8.69h-29.57l-3.994,19.923
	c4.443-3.105,9.111-4.648,14.004-4.648c6.465,0,11.924,2.246,16.377,6.719c4.443,4.474,6.67,10.234,6.67,17.285
	c0,6.699-1.953,12.5-5.869,17.383c-4.746,5.996-11.23,9.004-19.453,9.004c-6.738,0-12.246-1.895-16.504-5.664
	C120.869,840.125,118.438,835.125,117.832,828.875L117.832,828.875z M175.4,811.746c0-8.75,0.898-15.801,2.705-21.152
	c1.797-5.332,4.482-9.453,8.037-12.362c3.555-2.892,8.027-4.337,13.418-4.337c3.975,0,7.461,0.802,10.459,2.402
	c2.998,1.602,5.479,3.906,7.432,6.914c1.953,3.027,3.486,6.699,4.6,11.016c1.113,4.336,1.67,10.177,1.67,17.521
	c0,8.69-0.889,15.723-2.676,21.055c-1.787,5.353-4.463,9.474-8.018,12.383c-3.555,2.91-8.047,4.375-13.467,4.375
	c-7.148,0-12.754-2.559-16.836-7.676C177.842,835.711,175.4,825.672,175.4,811.746L175.4,811.746z M184.746,811.746
	c0,12.168,1.426,20.272,4.277,24.297c2.842,4.023,6.357,6.035,10.537,6.035s7.695-2.031,10.537-6.074
	c2.852-4.043,4.268-12.129,4.268-24.258c0-12.188-1.416-20.293-4.268-24.316c-2.842-4.004-6.396-6.016-10.635-6.016
	c-4.18,0-7.52,1.777-10.01,5.313C186.318,791.238,184.746,799.578,184.746,811.746L184.746,811.746z M238.086,848.289v-10.353
	h10.361v10.353H238.086z M261.787,828.738l9.102-1.211c1.045,5.155,2.822,8.866,5.332,11.133c2.51,2.285,5.566,3.418,9.17,3.418
	c4.277,0,7.891-1.484,10.84-4.453c2.949-2.969,4.424-6.641,4.424-11.016c0-4.181-1.357-7.617-4.092-10.332
	c-2.725-2.716-6.201-4.082-10.41-4.082c-1.719,0-3.857,0.352-6.416,1.016l1.006-7.988c0.605,0.078,1.094,0.117,1.465,0.117
	c3.877,0,7.363-1.016,10.469-3.047c3.096-2.012,4.648-5.137,4.648-9.354c0-3.32-1.133-6.095-3.389-8.281
	c-2.256-2.188-5.176-3.281-8.74-3.281c-3.545,0-6.494,1.113-8.848,3.34c-2.363,2.228-3.877,5.547-4.551,10l-9.102-1.621
	c1.113-6.094,3.643-10.819,7.588-14.18c3.936-3.34,8.838-5.02,14.707-5.02c4.043,0,7.764,0.858,11.172,2.598
	c3.398,1.738,6.006,4.102,7.803,7.109c1.807,2.987,2.705,6.172,2.705,9.551c0,3.203-0.859,6.112-2.578,8.75
	c-1.719,2.617-4.258,4.707-7.627,6.25c4.375,1.016,7.783,3.125,10.205,6.309c2.432,3.185,3.643,7.168,3.643,11.953
	c0,6.465-2.363,11.953-7.08,16.445c-4.717,4.492-10.684,6.758-17.891,6.758c-6.504,0-11.904-1.953-16.201-5.82
	C264.844,839.932,262.393,834.892,261.787,828.738L261.787,828.738z M366.514,792.332l-9.043,0.723
	c-0.811-3.574-1.953-6.172-3.438-7.793c-2.461-2.598-5.498-3.887-9.102-3.887c-2.9,0-5.439,0.801-7.627,2.422
	c-2.871,2.09-5.127,5.137-6.777,9.141c-1.65,4.023-2.51,9.728-2.578,17.148c2.188-3.34,4.873-5.82,8.037-7.441
	c3.164-1.602,6.484-2.422,9.961-2.422c6.064,0,11.221,2.228,15.488,6.699c4.258,4.473,6.396,10.234,6.396,17.305
	c0,4.648-1.006,8.984-3.008,12.97c-2.012,4.004-4.766,7.051-8.262,9.18c-3.506,2.129-7.49,3.184-11.934,3.184
	c-7.578,0-13.77-2.793-18.545-8.358c-4.795-5.586-7.178-14.767-7.178-27.578c0-14.316,2.637-24.728,7.93-31.23
	c4.619-5.664,10.83-8.496,18.652-8.496c5.83,0,10.605,1.642,14.326,4.902C363.545,782.059,365.771,786.57,366.514,792.332
	L366.514,792.332z M329.365,824.285c0,3.125,0.664,6.133,1.992,9.004c1.338,2.852,3.193,5.039,5.586,6.543s4.902,2.246,7.529,2.246
	c3.848,0,7.148-1.543,9.912-4.648c2.764-3.104,4.141-7.324,4.141-12.637c0-5.117-1.357-9.16-4.092-12.109
	c-2.725-2.948-6.162-4.414-10.313-4.414c-4.111,0-7.598,1.466-10.459,4.414C330.8,815.633,329.365,819.5,329.365,824.285
	L329.365,824.285z M251.777,375.984l36.318-3.535c2.188,12.196,6.621,21.151,13.301,26.864c6.689,5.724,15.703,8.574,27.061,8.574
	c12.021,0,21.074-2.539,27.178-7.627c6.094-5.088,9.141-11.035,9.141-17.852c0-4.365-1.279-8.086-3.848-11.152
	c-2.568-3.076-7.041-5.742-13.428-8.018c-4.375-1.504-14.336-4.199-29.893-8.066c-20.01-4.961-34.053-11.055-42.119-18.291
	c-11.357-10.166-17.031-22.568-17.031-37.197c0-9.424,2.666-18.232,8.008-26.426c5.342-8.194,13.037-14.443,23.086-18.73
	c10.039-4.287,22.168-6.426,36.377-6.426c23.213,0,40.674,5.088,52.402,15.254c11.729,10.176,17.891,23.76,18.477,40.742
	l-37.324,1.641c-1.602-9.502-5.029-16.338-10.283-20.498c-5.254-4.16-13.135-6.24-23.643-6.24c-10.85,0-19.346,2.227-25.479,6.68
	c-3.955,2.861-5.928,6.689-5.928,11.475c0,4.375,1.846,8.115,5.547,11.23c4.707,3.945,16.143,8.066,34.307,12.354
	s31.592,8.729,40.293,13.311c8.701,4.581,15.508,10.84,20.43,18.789c4.922,7.949,7.383,17.765,7.383,29.453
	c0,10.586-2.949,20.508-8.829,29.756c-5.889,9.258-14.209,16.123-24.971,20.625c-10.771,4.492-24.18,6.748-40.234,6.748
	c-23.379,0-41.328-5.399-53.857-16.211C261.689,412.41,254.209,396.667,251.777,375.984L251.777,375.984z M430.605,302.205h32.666
	v18.281c11.688-14.199,25.604-21.31,41.747-21.31c8.574,0,16.017,1.768,22.324,5.293c6.299,3.535,11.476,8.877,15.508,16.017
	c5.89-7.14,12.236-12.48,19.043-16.017c6.808-3.525,14.082-5.293,21.816-5.293c9.844,0,18.164,2.002,24.971,5.986
	c6.816,3.994,11.904,9.863,15.265,17.598c2.44,5.724,3.661,14.972,3.661,27.744v85.635h-35.438v-76.553
	c0-13.281-1.221-21.855-3.662-25.732c-3.281-5.038-8.32-7.559-15.137-7.559c-4.961,0-9.629,1.514-13.994,4.531
	c-4.375,3.026-7.529,7.471-9.463,13.311c-1.935,5.84-2.9,15.068-2.9,27.687v64.315h-35.439v-73.397
	c0-13.037-0.625-21.445-1.885-25.226c-1.27-3.778-3.223-6.602-5.869-8.446c-2.646-1.855-6.239-2.773-10.78-2.773
	c-5.47,0-10.392,1.465-14.757,4.414c-4.375,2.939-7.51,7.188-9.395,12.734c-1.895,5.547-2.842,14.756-2.842,27.616v65.078h-35.439
	V302.205L430.605,302.205z M859.785,109.172v7.588h-42.5c-0.068-1.904,0.244-3.73,0.918-5.479c1.084-2.9,2.813-5.752,5.195-8.555
	c2.383-2.813,5.83-6.055,10.332-9.746c6.991-5.732,11.709-10.264,14.17-13.613c2.45-3.35,3.682-6.514,3.682-9.502
	c0-3.125-1.113-5.771-3.35-7.92c-2.246-2.148-5.156-3.223-8.761-3.223c-3.799,0-6.836,1.143-9.121,3.428
	c-2.274,2.275-3.438,5.439-3.467,9.473l-8.114-0.84c0.557-6.045,2.646-10.664,6.278-13.838c3.623-3.174,8.486-4.756,14.601-4.756
	c6.172,0,11.055,1.709,14.657,5.127c3.595,3.428,5.392,7.666,5.392,12.725c0,2.578-0.527,5.107-1.572,7.588
	c-1.055,2.49-2.803,5.107-5.244,7.852c-2.44,2.754-6.504,6.523-12.178,11.318c-4.736,3.975-7.773,6.68-9.121,8.096
	s-2.461,2.842-3.34,4.277H859.785L859.785,109.172z M830.439,171.731c-3.271-1.201-5.703-2.91-7.285-5.137
	c-1.572-2.217-2.363-4.883-2.363-7.979c0-4.678,1.68-8.613,5.039-11.807c3.369-3.184,7.842-4.775,13.428-4.775
	c5.615,0,10.137,1.631,13.555,4.893c3.418,3.262,5.138,7.227,5.138,11.904c0,2.988-0.791,5.586-2.354,7.793
	c-1.563,2.207-3.936,3.906-7.129,5.107c3.955,1.289,6.953,3.359,9.014,6.23c2.07,2.861,3.097,6.289,3.097,10.264
	c0,5.498-1.943,10.117-5.83,13.857c-3.896,3.75-9.014,5.615-15.361,5.615c-6.338,0-11.455-1.875-15.352-5.635
	c-3.888-3.76-5.83-8.447-5.83-14.063c0-4.18,1.055-7.676,3.184-10.498C823.506,174.68,826.523,172.756,830.439,171.731
	L830.439,171.731z M826.318,188.049c0,2.256,0.526,4.434,1.602,6.533c1.064,2.109,2.656,3.74,4.756,4.893
	c2.082,1.145,4.421,1.74,6.797,1.729c3.779,0,6.896-1.211,9.347-3.633c2.461-2.432,3.69-5.518,3.69-9.258
	c0-3.799-1.27-6.943-3.799-9.434c-2.529-2.48-5.693-3.73-9.502-3.73c-3.711,0-6.787,1.23-9.229,3.691
	C827.539,181.292,826.318,184.368,826.318,188.049L826.318,188.049z M828.857,158.352c0,3.037,0.985,5.527,2.938,7.451
	c1.963,1.934,4.502,2.9,7.637,2.9c3.037,0,5.537-0.957,7.48-2.871s2.92-4.268,2.92-7.041c0-2.9-1.006-5.332-3.008-7.305
	s-4.502-2.959-7.48-2.959c-3.018,0-5.518,0.957-7.5,2.891C829.854,153.352,828.857,155.657,828.857,158.352L828.857,158.352z
	 M798.057,296.438h-7.891v-50.313c-1.904,1.807-4.395,3.623-7.48,5.439c-3.086,1.807-5.858,3.174-8.311,4.072v-7.627
	c4.414-2.08,8.271-4.59,11.582-7.549c3.301-2.949,5.645-5.82,7.012-8.594h5.088V296.438L798.057,296.438z M830.43,261.565
	c-3.271-1.201-5.703-2.91-7.285-5.137c-1.571-2.217-2.362-4.883-2.362-7.979c0-4.678,1.68-8.613,5.039-11.807
	c3.369-3.184,7.842-4.775,13.428-4.775c5.615,0,10.137,1.631,13.555,4.893c3.418,3.262,5.138,7.227,5.138,11.904
	c0,2.988-0.791,5.586-2.354,7.793c-1.563,2.207-3.936,3.906-7.129,5.107c3.955,1.289,6.953,3.359,9.014,6.23
	c2.07,2.861,3.097,6.289,3.097,10.264c0,5.498-1.943,10.117-5.83,13.857c-3.896,3.75-9.015,5.615-15.361,5.615
	c-6.338,0-11.455-1.875-15.352-5.635c-3.888-3.76-5.83-8.447-5.83-14.063c0-4.18,1.055-7.676,3.184-10.498
	C823.496,264.514,826.514,262.59,830.43,261.565L830.43,261.565z M826.309,277.883c0,2.256,0.527,4.434,1.603,6.533
	c1.063,2.109,2.656,3.74,4.756,4.893c2.082,1.145,4.421,1.74,6.797,1.729c3.779,0,6.896-1.211,9.346-3.633
	c2.462-2.432,3.691-5.518,3.691-9.258c0-3.799-1.271-6.943-3.799-9.434c-2.529-2.48-5.693-3.73-9.502-3.73
	c-3.711,0-6.787,1.23-9.229,3.691C827.529,271.125,826.309,274.202,826.309,277.883L826.309,277.883z M828.848,248.186
	c0,3.037,0.986,5.527,2.939,7.451c1.963,1.934,4.502,2.9,7.637,2.9c3.037,0,5.537-0.957,7.48-2.871
	c1.942-1.914,2.92-4.268,2.92-7.041c0-2.9-1.006-5.332-3.008-7.305s-4.502-2.959-7.48-2.959c-3.018,0-5.518,0.957-7.5,2.891
	C829.844,243.186,828.848,245.491,828.848,248.186L828.848,248.186z M809.814,378.694v7.588h-42.5
	c-0.068-1.904,0.243-3.73,0.918-5.479c1.084-2.899,2.813-5.752,5.194-8.555c2.384-2.813,5.83-6.055,10.332-9.746
	c6.992-5.732,11.709-10.264,14.17-13.613c2.451-3.35,3.683-6.514,3.683-9.502c0-3.125-1.113-5.771-3.351-7.92
	c-2.246-2.147-5.155-3.223-8.76-3.223c-3.799,0-6.836,1.143-9.121,3.428c-2.274,2.275-3.438,5.439-3.467,9.473l-8.115-0.84
	c0.558-6.045,2.646-10.664,6.279-13.838c3.623-3.174,8.486-4.756,14.6-4.756c6.172,0,11.056,1.709,14.658,5.127
	c3.594,3.428,5.392,7.666,5.392,12.725c0,2.578-0.527,5.107-1.572,7.589c-1.056,2.489-2.803,5.106-5.244,7.852
	c-2.441,2.754-6.504,6.523-12.178,11.318c-4.736,3.975-7.773,6.68-9.121,8.096c-1.349,1.416-2.461,2.842-3.34,4.277H809.814
	L809.814,378.694z M843.594,386.282v-15.4h-27.899v-7.236l29.346-41.67h6.445v41.67h8.69v7.236h-8.69v15.4H843.594z
	 M843.594,363.645v-28.993l-20.137,28.993H843.594z M830.439,441.243c-3.271-1.201-5.703-2.91-7.285-5.138
	c-1.572-2.217-2.363-4.883-2.363-7.979c0-4.678,1.68-8.613,5.039-11.807c3.369-3.185,7.842-4.775,13.428-4.775
	c5.615,0,10.137,1.631,13.555,4.893c3.418,3.263,5.138,7.228,5.138,11.904c0,2.988-0.791,5.586-2.354,7.793
	c-1.563,2.207-3.936,3.906-7.129,5.107c3.955,1.289,6.953,3.358,9.014,6.229c2.07,2.861,3.097,6.289,3.097,10.264
	c0,5.493-1.943,10.122-5.83,13.854c-3.896,3.75-9.014,5.625-15.361,5.625c-6.338,0-11.455-1.875-15.352-5.645
	c-3.888-3.75-5.83-8.438-5.83-14.06c0-4.18,1.055-7.675,3.184-10.498C823.506,444.192,826.523,442.268,830.439,441.243
	L830.439,441.243z M826.318,457.561c0,2.252,0.526,4.439,1.602,6.529c1.064,2.109,2.656,3.75,4.756,4.902
	c2.109,1.151,4.375,1.719,6.797,1.719c3.779,0,6.896-1.211,9.347-3.633c2.461-2.422,3.69-5.508,3.69-9.254
	c0-3.799-1.27-6.943-3.799-9.434c-2.529-2.479-5.693-3.729-9.502-3.729c-3.711,0-6.787,1.229-9.229,3.69
	C827.539,450.803,826.318,453.879,826.318,457.561L826.318,457.561z M828.857,427.864c0,3.037,0.985,5.526,2.938,7.45
	c1.963,1.935,4.502,2.9,7.637,2.9c3.037,0,5.537-0.957,7.48-2.871s2.92-4.268,2.92-7.041c0-2.899-1.006-5.332-3.008-7.305
	s-4.502-2.959-7.48-2.959c-3.018,0-5.518,0.957-7.5,2.891C829.854,422.864,828.857,425.168,828.857,427.864L828.857,427.864z
	 M859.785,558.367v7.598h-42.5c-0.068-1.914,0.244-3.729,0.918-5.488c1.084-2.891,2.813-5.741,5.195-8.555
	c2.382-2.813,5.83-6.055,10.332-9.746c6.991-5.723,11.709-10.254,14.17-13.612c2.45-3.341,3.682-6.505,3.682-9.492
	c0-3.125-1.113-5.781-3.35-7.931c-2.246-2.147-5.156-3.223-8.761-3.223c-3.799,0-6.836,1.152-9.121,3.438
	c-2.274,2.266-3.438,5.43-3.467,9.473l-8.114-0.84c0.557-6.056,2.646-10.664,6.278-13.849c3.623-3.164,8.486-4.746,14.601-4.746
	c6.172,0,11.055,1.699,14.657,5.117c3.595,3.438,5.392,7.677,5.392,12.734c0,2.578-0.527,5.098-1.572,7.578
	c-1.055,2.5-2.803,5.117-5.244,7.852c-2.44,2.754-6.504,6.523-12.178,11.328c-4.736,3.965-7.773,6.68-9.121,8.086
	c-1.348,1.426-2.461,2.853-3.34,4.277H859.785L859.785,558.367z"/>
</svg>
