<?xml version="1.0" encoding="utf-8"?>
<!-- Generator: Adobe Illustrator 16.0.3, SVG Export Plug-In . SVG Version: 6.00 Build 0)  -->
<!DOCTYPE svg PUBLIC "-//W3C//DTD SVG 1.1//EN" "http://www.w3.org/Graphics/SVG/1.1/DTD/svg11.dtd">
<svg version="1.1" id="Layer_1" xmlns="http://www.w3.org/2000/svg" xmlns:xlink="http://www.w3.org/1999/xlink" x="0px" y="0px"
	 width="900px" height="900px" viewBox="0 0 900 900" enable-background="new 0 0 900 900" xml:space="preserve">
<path d="M111.68,78.469l-13.76,1.074c-1.23-5.43-2.969-9.375-5.225-11.836c-3.75-3.945-8.359-5.918-13.838-5.918
	c-4.414,0-8.281,1.23-11.611,3.691c-4.355,3.174-7.793,7.813-10.303,13.916c-2.51,6.094-3.818,14.785-3.926,26.055
	c3.33-5.068,7.412-8.838,12.227-11.299s9.863-3.691,15.146-3.691c9.229,0,17.08,3.398,23.564,10.186
	c6.484,6.797,9.727,15.566,9.727,26.338c0,7.07-1.523,13.643-4.58,19.717c-3.047,6.074-7.236,10.723-12.568,13.955
	c-5.332,3.223-11.377,4.844-18.145,4.844c-11.533,0-20.938-4.238-28.213-12.725c-7.275-8.487-10.918-22.461-10.918-41.943
	c0-21.777,4.023-37.617,12.07-47.51c7.021-8.613,16.475-12.91,28.369-12.91c8.867,0,16.133,2.48,21.797,7.451
	C107.157,62.835,110.557,69.709,111.68,78.469L111.68,78.469z M55.176,127.063c0,4.766,1.006,9.326,3.037,13.682
	c2.021,4.355,4.854,7.676,8.496,9.951c3.633,2.285,7.451,3.428,11.455,3.428c5.84,0,10.859-2.363,15.068-7.08
	c4.199-4.707,6.299-11.113,6.299-19.219c0-7.783-2.07-13.926-6.221-18.408c-4.16-4.482-9.385-6.729-15.684-6.729
	c-6.26,0-11.563,2.246-15.918,6.729S55.176,119.778,55.176,127.063L55.176,127.063z M127.52,133.821l13.838-1.846
	c1.592,7.842,4.297,13.496,8.115,16.953c3.818,3.467,8.467,5.195,13.955,5.195c6.504,0,12.002-2.256,16.484-6.768
	s6.729-10.098,6.729-16.758c0-6.357-2.08-11.602-6.23-15.723c-4.15-4.131-9.424-6.191-15.83-6.191c-2.617,0-5.869,0.518-9.766,1.533
	l1.533-12.139c0.928,0.098,1.67,0.146,2.236,0.146c5.889,0,11.191-1.533,15.908-4.609c4.717-3.076,7.07-7.813,7.07-14.219
	c0-5.078-1.709-9.277-5.146-12.617c-3.438-3.33-7.871-4.99-13.301-4.99c-5.381,0-9.863,1.689-13.457,5.068
	c-3.584,3.389-5.889,8.457-6.914,15.225l-13.838-2.461c1.689-9.277,5.537-16.465,11.533-21.563s13.447-7.646,22.373-7.646
	c6.143,0,11.807,1.318,16.982,3.955c5.175,2.637,9.141,6.24,11.885,10.801c2.734,4.561,4.111,9.404,4.111,14.531
	c0,4.873-1.309,9.307-3.926,13.301c-2.607,3.994-6.484,7.178-11.602,9.531c6.66,1.543,11.836,4.727,15.527,9.57
	c3.691,4.843,5.537,10.908,5.537,18.184c0,9.844-3.594,18.184-10.762,25.029c-7.178,6.836-16.25,10.264-27.217,10.264
	c-9.893,0-18.105-2.949-24.648-8.848C132.168,150.842,128.447,143.206,127.52,133.821L127.52,133.821z M235.508,662.498v-74.102
	h53.584v8.75h-43.77v22.694h40.986v8.691h-40.986v25.215h45.488v8.75L235.508,662.498L235.508,662.498z M338.369,662.498v-7.891
	c-4.18,6.073-9.854,9.102-17.031,9.102c-3.174,0-6.123-0.605-8.877-1.816c-2.744-1.211-4.785-2.733-6.113-4.59
	c-1.328-1.836-2.266-4.082-2.803-6.737c-0.371-1.777-0.557-4.609-0.557-8.496v-33.263h9.102v29.785c0,4.746,0.186,7.949,0.557,9.59
	c0.566,2.402,1.777,4.277,3.633,5.646s4.15,2.051,6.875,2.051c2.734,0,5.293-0.703,7.686-2.108c2.393-1.388,4.082-3.302,5.078-5.703
	c0.996-2.402,1.494-5.898,1.494-10.488v-28.771h9.092v53.691L338.369,662.498L338.369,662.498z M360.654,662.498v-53.691h8.193
	v8.146c2.09-3.81,4.014-6.31,5.781-7.539c1.777-1.211,3.721-1.816,5.84-1.816c3.066,0,6.182,0.978,9.355,2.931l-3.135,8.457
	c-2.227-1.328-4.453-1.974-6.67-1.974c-1.992,0-3.779,0.586-5.361,1.797c-1.582,1.191-2.715,2.853-3.389,4.961
	c-1.006,3.242-1.514,6.777-1.514,10.625v28.105L360.654,662.498L360.654,662.498z M391.846,635.662
	c0-9.941,2.764-17.305,8.291-22.09c4.609-3.984,10.244-5.978,16.885-5.978c7.373,0,13.408,2.422,18.087,7.267
	c4.688,4.823,7.03,11.504,7.03,20.039c0,6.895-1.035,12.344-3.104,16.289c-2.08,3.965-5.088,7.051-9.054,9.237
	c-3.954,2.188-8.28,3.281-12.959,3.281c-7.52,0-13.594-2.402-18.223-7.228C394.16,651.658,391.846,644.725,391.846,635.662z
	 M401.191,635.662c0,6.875,1.504,12.012,4.502,15.43s6.776,5.137,11.328,5.137c4.512,0,8.271-1.719,11.27-5.155
	c2.999-3.438,4.492-8.672,4.492-15.724c0-6.641-1.504-11.659-4.521-15.078c-3.018-3.438-6.768-5.137-11.239-5.137
	c-4.552,0-8.33,1.699-11.328,5.099C402.695,623.65,401.191,628.787,401.191,635.662L401.191,635.662z M452.803,683.064v-74.259
	h8.291v6.992c1.953-2.733,4.16-4.785,6.621-6.151c2.451-1.367,5.439-2.052,8.945-2.052c4.58,0,8.623,1.191,12.129,3.535
	c3.506,2.363,6.152,5.703,7.939,10c1.776,4.297,2.676,9.004,2.676,14.121c0,5.488-0.986,10.43-2.959,14.824
	c-1.974,4.414-4.834,7.772-8.595,10.116c-3.76,2.345-7.704,3.517-11.854,3.517c-3.027,0-5.752-0.646-8.154-1.914
	c-2.412-1.289-4.395-2.91-5.947-4.863v26.133L452.803,683.064L452.803,683.064z M461.035,635.955c0,6.914,1.406,12.012,4.199,15.313
	c2.793,3.302,6.182,4.961,10.155,4.961c4.043,0,7.511-1.719,10.392-5.137s4.315-8.711,4.315-15.897
	c0-6.837-1.405-11.953-4.219-15.353c-2.813-3.418-6.172-5.117-10.078-5.117c-3.877,0-7.305,1.816-10.293,5.431
	C462.529,623.787,461.035,629.041,461.035,635.955L461.035,635.955z M510.43,598.865v-10.47h9.103v10.47H510.43L510.43,598.865z
	 M510.43,662.498v-53.691h9.103v53.691H510.43L510.43,662.498z M568.555,662.498v-7.891c-4.18,6.073-9.854,9.102-17.031,9.102
	c-3.174,0-6.122-0.605-8.877-1.816c-2.743-1.211-4.784-2.733-6.112-4.59c-1.328-1.836-2.267-4.082-2.804-6.738
	c-0.37-1.776-0.557-4.608-0.557-8.495v-33.263h9.103v29.785c0,4.746,0.186,7.949,0.557,9.59c0.565,2.402,1.777,4.277,3.633,5.646
	c1.856,1.368,4.15,2.051,6.875,2.051c2.734,0,5.293-0.703,7.687-2.109c2.393-1.387,4.082-3.301,5.077-5.702
	c0.996-2.402,1.494-5.898,1.494-10.488v-28.771h9.093v53.691L568.555,662.498L568.555,662.498z M590.947,662.498v-53.691h8.135
	v7.539c1.689-2.637,3.926-4.746,6.719-6.348c2.803-1.603,5.986-2.402,9.562-2.402c3.975,0,7.235,0.84,9.774,2.48
	c2.549,1.66,4.336,3.965,5.381,6.934c4.248-6.27,9.775-9.414,16.582-9.414c5.322,0,9.414,1.484,12.285,4.435
	c2.861,2.948,4.297,7.479,4.297,13.612v36.855h-9.053V628.67c0-3.633-0.293-6.25-0.879-7.852c-0.596-1.603-1.66-2.892-3.213-3.867
	c-1.553-0.977-3.369-1.465-5.459-1.465c-3.771,0-6.904,1.25-9.404,3.77c-2.49,2.5-3.74,6.523-3.74,12.051v31.191h-9.092v-34.883
	c0-4.043-0.742-7.07-2.227-9.103c-1.484-2.012-3.906-3.026-7.275-3.026c-2.568,0-4.932,0.684-7.109,2.03
	c-2.168,1.349-3.739,3.302-4.727,5.898c-0.977,2.598-1.465,6.348-1.465,11.229v27.853L590.947,662.498L590.947,662.498z
	 M94.346,848.318h-9.102V790.35c-2.188,2.091-5.059,4.181-8.613,6.271c-3.554,2.09-6.748,3.651-9.58,4.707v-8.81
	c5.088-2.383,9.541-5.293,13.35-8.69c3.799-3.398,6.504-6.699,8.086-9.902h5.859V848.318z M117.646,828.904l9.551-0.802
	c0.713,4.648,2.354,8.146,4.932,10.488s5.684,3.517,9.326,3.517c4.375,0,8.086-1.66,11.113-4.962
	c3.037-3.301,4.551-7.676,4.551-13.145c0-5.176-1.455-9.277-4.365-12.266c-2.92-3.009-6.738-4.513-11.455-4.513
	c-2.93,0-5.576,0.664-7.93,2.013c-2.363,1.327-4.219,3.047-5.566,5.176l-8.535-1.113l7.178-38.065h36.846v8.69h-29.57l-3.994,19.922
	c4.443-3.104,9.111-4.647,14.004-4.647c6.465,0,11.924,2.246,16.377,6.719c4.443,4.473,6.67,10.234,6.67,17.285
	c0,6.699-1.953,12.5-5.869,17.383c-4.746,5.996-11.23,9.004-19.453,9.004c-6.738,0-12.246-1.895-16.504-5.664
	C120.684,840.154,118.252,835.154,117.646,828.904L117.646,828.904z M209.482,848.318h-9.102V790.35
	c-2.188,2.091-5.059,4.181-8.613,6.271c-3.554,2.09-6.748,3.651-9.58,4.707v-8.81c5.088-2.383,9.541-5.293,13.35-8.69
	c3.799-3.398,6.504-6.699,8.086-9.902h5.859V848.318z M237.9,848.318v-10.353h10.361v10.353H237.9z M262.92,831.189l8.74-0.802
	c0.742,4.103,2.158,7.09,4.248,8.945c2.09,1.854,4.766,2.772,8.037,2.772c2.793,0,5.244-0.645,7.354-1.913
	c2.109-1.289,3.828-2.988,5.176-5.138c1.348-2.148,2.48-5.039,3.389-8.672c0.909-3.633,1.367-7.344,1.367-11.113
	c0-0.409-0.02-1.016-0.049-1.815c-1.826,2.891-4.307,5.233-7.461,7.051c-3.145,1.797-6.563,2.695-10.234,2.695
	c-6.133,0-11.318-2.228-15.566-6.681c-4.248-4.434-6.367-10.293-6.367-17.577c0-7.521,2.217-13.574,6.65-18.146
	c4.424-4.59,9.98-6.875,16.65-6.875c4.814,0,9.229,1.289,13.213,3.887c3.994,2.599,7.031,6.289,9.102,11.095
	c2.071,4.805,3.105,11.758,3.105,20.858c0,9.474-1.025,17.013-3.076,22.617c-2.061,5.605-5.117,9.883-9.18,12.813
	c-4.063,2.93-8.818,4.395-14.277,4.395c-5.791,0-10.527-1.602-14.199-4.824C265.87,841.541,263.662,837.01,262.92,831.189
	L262.92,831.189z M300.166,798.494c0-5.234-1.387-9.375-4.17-12.441c-2.773-3.065-6.123-4.608-10.029-4.608
	c-4.043,0-7.568,1.659-10.566,4.961c-2.998,3.301-4.502,7.578-4.502,12.832c0,4.727,1.426,8.555,4.277,11.504
	c2.842,2.948,6.357,4.434,10.537,4.434c4.209,0,7.676-1.483,10.391-4.434C298.809,807.791,300.166,803.709,300.166,798.494
	L300.166,798.494z M366.328,792.361l-9.043,0.723c-0.811-3.574-1.953-6.172-3.438-7.793c-2.461-2.598-5.498-3.887-9.102-3.887
	c-2.9,0-5.439,0.801-7.627,2.422c-2.871,2.09-5.127,5.137-6.777,9.141c-1.65,4.023-2.51,9.728-2.578,17.148
	c2.188-3.34,4.873-5.82,8.037-7.441c3.164-1.602,6.484-2.422,9.961-2.422c6.064,0,11.221,2.227,15.488,6.699
	c4.258,4.473,6.396,10.233,6.396,17.305c0,4.648-1.006,8.984-3.008,12.969c-2.012,4.004-4.766,7.052-8.262,9.181
	c-3.506,2.129-7.49,3.184-11.934,3.184c-7.578,0-13.77-2.793-18.545-8.359c-4.795-5.586-7.178-14.766-7.178-27.577
	c0-14.316,2.637-24.728,7.93-31.23c4.619-5.664,10.83-8.496,18.652-8.496c5.83,0,10.605,1.642,14.326,4.902
	C363.359,782.088,365.586,786.6,366.328,792.361L366.328,792.361z M329.18,824.314c0,3.125,0.664,6.133,1.992,9.004
	c1.338,2.852,3.193,5.039,5.586,6.543c2.393,1.504,4.902,2.246,7.529,2.246c3.848,0,7.148-1.543,9.912-4.648
	c2.764-3.105,4.141-7.324,4.141-12.637c0-5.117-1.357-9.16-4.092-12.109c-2.725-2.949-6.162-4.414-10.313-4.414
	c-4.111,0-7.598,1.465-10.459,4.414C330.615,815.662,329.18,819.529,329.18,824.314L329.18,824.314z M297.012,440.813V255.92
	h137.089v31.28h-99.755v40.985h92.822v31.152h-92.822v50.322h103.291v31.152H297.012L297.012,440.813z M557.197,440.813v-20.049
	c-4.883,7.14-11.289,12.773-19.238,16.896c-7.939,4.121-16.328,6.182-25.156,6.182c-9.004,0-17.069-1.973-24.219-5.928
	c-7.148-3.955-12.314-9.502-15.508-16.65c-3.203-7.139-4.795-17.021-4.795-29.639v-84.746h35.438v61.543
	c0,18.838,0.646,30.371,1.953,34.619c1.299,4.248,3.683,7.606,7.129,10.088c3.447,2.481,7.813,3.721,13.115,3.721
	c6.055,0,11.475-1.66,16.271-4.979c4.795-3.32,8.065-7.441,9.834-12.354c1.768-4.922,2.646-16.963,2.646-36.133v-56.504h35.439
	v133.936L557.197,440.813L557.197,440.813z M859.609,109.202v7.588h-42.5c-0.068-1.904,0.244-3.73,0.918-5.479
	c1.084-2.9,2.813-5.752,5.194-8.555c2.384-2.813,5.83-6.055,10.332-9.746c6.992-5.732,11.709-10.264,14.17-13.613
	c2.451-3.35,3.683-6.514,3.683-9.502c0-3.125-1.113-5.771-3.351-7.92c-2.245-2.148-5.155-3.223-8.76-3.223
	c-3.799,0-6.836,1.143-9.121,3.428c-2.274,2.275-3.438,5.439-3.467,9.473l-8.115-0.84c0.558-6.045,2.646-10.664,6.279-13.838
	c3.623-3.174,8.486-4.756,14.6-4.756c6.173,0,11.056,1.709,14.658,5.127c3.594,3.428,5.392,7.666,5.392,12.725
	c0,2.578-0.527,5.107-1.572,7.588c-1.055,2.49-2.803,5.107-5.244,7.852c-2.441,2.754-6.504,6.523-12.178,11.318
	c-4.736,3.975-7.773,6.68-9.121,8.096s-2.461,2.842-3.34,4.277H859.609z M830.264,171.76c-3.271-1.201-5.703-2.91-7.284-5.137
	c-1.572-2.217-2.363-4.883-2.363-7.979c0-4.678,1.68-8.613,5.039-11.807c3.369-3.184,7.842-4.775,13.428-4.775
	c5.615,0,10.137,1.631,13.555,4.893c3.418,3.262,5.138,7.227,5.138,11.904c0,2.988-0.791,5.586-2.354,7.793
	c-1.563,2.207-3.936,3.906-7.129,5.107c3.955,1.289,6.953,3.359,9.014,6.23c2.07,2.861,3.097,6.289,3.097,10.264
	c0,5.498-1.943,10.117-5.83,13.857c-3.896,3.75-9.015,5.615-15.361,5.615c-6.338,0-11.455-1.875-15.352-5.635
	c-3.888-3.76-5.83-8.447-5.83-14.063c0-4.18,1.055-7.676,3.184-10.498C823.33,174.709,826.348,172.786,830.264,171.76z
	 M826.143,188.079c0,2.256,0.527,4.434,1.603,6.533c1.063,2.109,2.656,3.74,4.756,4.893c2.082,1.146,4.421,1.741,6.797,1.729
	c3.779,0,6.896-1.211,9.347-3.633c2.461-2.432,3.69-5.518,3.69-9.258c0-3.799-1.27-6.943-3.799-9.434
	c-2.529-2.48-5.693-3.73-9.502-3.73c-3.711,0-6.787,1.23-9.229,3.691C827.363,181.321,826.143,184.397,826.143,188.079
	L826.143,188.079z M828.682,158.381c0,3.037,0.986,5.527,2.939,7.451c1.963,1.934,4.502,2.9,7.637,2.9
	c3.037,0,5.537-0.957,7.48-2.871c1.942-1.914,2.92-4.268,2.92-7.041c0-2.9-1.006-5.332-3.008-7.305
	c-2.002-1.973-4.502-2.959-7.48-2.959c-3.018,0-5.518,0.957-7.5,2.891C829.678,153.381,828.682,155.686,828.682,158.381
	L828.682,158.381z M797.881,296.467h-7.891v-50.313c-1.904,1.807-4.396,3.623-7.48,5.439c-3.086,1.807-5.858,3.174-8.311,4.072
	v-7.627c4.414-2.08,8.271-4.59,11.582-7.549c3.301-2.949,5.645-5.82,7.012-8.594h5.088V296.467L797.881,296.467z M830.254,261.594
	c-3.271-1.201-5.703-2.91-7.285-5.137c-1.571-2.217-2.362-4.883-2.362-7.979c0-4.678,1.68-8.613,5.039-11.807
	c3.368-3.184,7.842-4.775,13.428-4.775c5.615,0,10.137,1.631,13.555,4.893c3.418,3.262,5.137,7.227,5.137,11.904
	c0,2.988-0.791,5.586-2.354,7.793c-1.563,2.207-3.937,3.906-7.129,5.107c3.955,1.289,6.953,3.359,9.014,6.23
	c2.07,2.861,3.096,6.289,3.096,10.264c0,5.498-1.942,10.117-5.829,13.857c-3.896,3.75-9.015,5.615-15.361,5.615
	c-6.338,0-11.455-1.875-15.353-5.635c-3.887-3.76-5.83-8.447-5.83-14.063c0-4.18,1.056-7.676,3.185-10.498
	C823.32,264.543,826.338,262.62,830.254,261.594L830.254,261.594z M826.133,277.913c0,2.256,0.527,4.434,1.603,6.533
	c1.063,2.109,2.655,3.74,4.756,4.893c2.081,1.146,4.421,1.741,6.797,1.729c3.779,0,6.895-1.211,9.346-3.633
	c2.461-2.432,3.691-5.518,3.691-9.258c0-3.799-1.271-6.943-3.799-9.434c-2.529-2.48-5.693-3.73-9.502-3.73
	c-3.712,0-6.787,1.23-9.229,3.691C827.354,271.155,826.133,274.231,826.133,277.913L826.133,277.913z M828.672,248.215
	c0,3.037,0.986,5.527,2.939,7.451c1.963,1.934,4.502,2.9,7.637,2.9c3.037,0,5.537-0.957,7.48-2.871
	c1.942-1.914,2.92-4.268,2.92-7.041c0-2.9-1.006-5.332-3.009-7.305c-2.002-1.973-4.502-2.959-7.479-2.959
	c-3.018,0-5.518,0.957-7.5,2.891C829.668,243.215,828.672,245.52,828.672,248.215L828.672,248.215z M809.639,378.723v7.588h-42.5
	c-0.067-1.903,0.244-3.729,0.918-5.479c1.084-2.9,2.813-5.752,5.195-8.555c2.383-2.813,5.83-6.056,10.332-9.746
	c6.992-5.732,11.709-10.265,14.17-13.613c2.451-3.35,3.682-6.514,3.682-9.502c0-3.125-1.112-5.771-3.35-7.92
	c-2.246-2.148-5.156-3.223-8.76-3.223c-3.799,0-6.836,1.143-9.121,3.428c-2.275,2.274-3.438,5.438-3.467,9.473l-8.115-0.84
	c0.557-6.045,2.646-10.664,6.279-13.838c3.623-3.174,8.485-4.756,14.6-4.756c6.172,0,11.055,1.709,14.658,5.127
	c3.594,3.428,5.391,7.666,5.391,12.725c0,2.578-0.526,5.107-1.571,7.588c-1.056,2.49-2.804,5.107-5.244,7.853
	c-2.441,2.754-6.504,6.522-12.179,11.317c-4.735,3.976-7.772,6.681-9.12,8.097c-1.349,1.416-2.462,2.842-3.341,4.276H809.639z
	 M818.105,369.465l8.291-0.703c0.614,4.033,2.041,7.07,4.276,9.103c2.236,2.031,4.933,3.047,8.097,3.047
	c3.799,0,7.012-1.426,9.647-4.297c2.627-2.861,3.945-6.67,3.945-11.406c0-4.502-1.271-8.057-3.799-10.654
	c-2.529-2.606-5.841-3.905-9.933-3.905c-2.539,0-4.844,0.575-6.885,1.729c-2.051,1.162-3.662,2.656-4.824,4.502l-7.412-0.967
	l6.222-33.027h31.981v7.539h-25.664l-3.467,17.285c3.867-2.686,7.91-4.033,12.158-4.033c5.615,0,10.352,1.943,14.209,5.83
	c3.856,3.896,5.791,8.896,5.791,15c0,5.82-1.699,10.859-5.088,15.098c-4.121,5.205-9.756,7.804-16.885,7.804
	c-5.851,0-10.625-1.631-14.326-4.912C820.742,379.221,818.633,374.875,818.105,369.465L818.105,369.465z M830.264,441.272
	c-3.271-1.201-5.703-2.91-7.284-5.138c-1.572-2.217-2.363-4.883-2.363-7.979c0-4.679,1.68-8.613,5.039-11.808
	c3.369-3.184,7.842-4.774,13.428-4.774c5.615,0,10.137,1.631,13.555,4.893s5.138,7.228,5.138,11.904
	c0,2.988-0.791,5.586-2.354,7.793c-1.563,2.207-3.936,3.906-7.129,5.107c3.955,1.288,6.953,3.358,9.014,6.229
	c2.07,2.861,3.097,6.289,3.097,10.263c0,5.494-1.943,10.123-5.83,13.854c-3.896,3.75-9.015,5.625-15.361,5.625
	c-6.338,0-11.455-1.875-15.352-5.646c-3.888-3.75-5.83-8.438-5.83-14.059c0-4.18,1.055-7.675,3.184-10.498
	C823.33,444.221,826.348,442.297,830.264,441.272L830.264,441.272z M826.143,457.59c0,2.252,0.527,4.439,1.603,6.529
	c1.063,2.108,2.656,3.75,4.756,4.902c2.109,1.151,4.375,1.719,6.797,1.719c3.779,0,6.896-1.211,9.347-3.633
	c2.461-2.423,3.69-5.509,3.69-9.255c0-3.799-1.27-6.942-3.799-9.433c-2.529-2.479-5.693-3.729-9.502-3.729
	c-3.711,0-6.787,1.229-9.229,3.69C827.363,450.832,826.143,453.908,826.143,457.59L826.143,457.59z M828.682,427.893
	c0,3.037,0.986,5.527,2.939,7.451c1.963,1.935,4.502,2.9,7.637,2.9c3.037,0,5.537-0.957,7.48-2.871
	c1.942-1.914,2.92-4.268,2.92-7.041c0-2.9-1.006-5.332-3.008-7.305c-2.002-1.974-4.502-2.959-7.48-2.959
	c-3.018,0-5.518,0.957-7.5,2.891C829.678,422.893,828.682,425.198,828.682,427.893L828.682,427.893z M859.609,558.396v7.598h-42.5
	c-0.068-1.914,0.244-3.73,0.918-5.488c1.084-2.891,2.813-5.742,5.194-8.555c2.383-2.813,5.83-6.055,10.332-9.746
	c6.992-5.723,11.709-10.254,14.17-13.613c2.451-3.34,3.683-6.504,3.683-9.492c0-3.125-1.113-5.78-3.351-7.93
	c-2.245-2.147-5.155-3.223-8.76-3.223c-3.799,0-6.836,1.152-9.121,3.438c-2.274,2.267-3.438,5.431-3.467,9.474l-8.115-0.841
	c0.558-6.055,2.646-10.663,6.279-13.848c3.623-3.164,8.486-4.746,14.6-4.746c6.173,0,11.056,1.699,14.658,5.117
	c3.595,3.438,5.392,7.676,5.392,12.734c0,2.578-0.527,5.098-1.572,7.578c-1.055,2.5-2.803,5.116-5.244,7.852
	c-2.441,2.754-6.504,6.523-12.178,11.328c-4.736,3.965-7.773,6.68-9.121,8.086c-1.348,1.426-2.461,2.852-3.34,4.277H859.609
	L859.609,558.396z"/>
</svg>
