<?xml version="1.0" encoding="utf-8"?>
<!-- Generator: Adobe Illustrator 16.0.3, SVG Export Plug-In . SVG Version: 6.00 Build 0)  -->
<!DOCTYPE svg PUBLIC "-//W3C//DTD SVG 1.1//EN" "http://www.w3.org/Graphics/SVG/1.1/DTD/svg11.dtd">
<svg version="1.1" id="Layer_1" xmlns="http://www.w3.org/2000/svg" xmlns:xlink="http://www.w3.org/1999/xlink" x="0px" y="0px"
	 width="900px" height="900px" viewBox="0 0 900 900" enable-background="new 0 0 900 900" xml:space="preserve">
<path d="M111.846,78.469l-13.76,1.074c-1.23-5.43-2.969-9.375-5.225-11.836c-3.75-3.945-8.359-5.918-13.838-5.918
	c-4.414,0-8.281,1.23-11.611,3.691c-4.355,3.174-7.793,7.813-10.303,13.916c-2.51,6.094-3.818,14.785-3.926,26.055
	c3.33-5.068,7.412-8.838,12.227-11.299s9.863-3.691,15.146-3.691c9.229,0,17.08,3.398,23.564,10.186
	c6.484,6.797,9.727,15.566,9.727,26.338c0,7.07-1.523,13.643-4.58,19.717c-3.047,6.074-7.236,10.723-12.568,13.955
	c-5.332,3.223-11.377,4.844-18.145,4.844c-11.533,0-20.938-4.238-28.213-12.725c-7.275-8.487-10.918-22.461-10.918-41.943
	c0-21.777,4.023-37.617,12.07-47.51c7.021-8.613,16.475-12.91,28.369-12.91c8.867,0,16.133,2.48,21.797,7.451
	C107.323,62.835,110.723,69.709,111.846,78.469L111.846,78.469z M55.342,127.063c0,4.766,1.006,9.326,3.037,13.682
	c2.021,4.355,4.854,7.676,8.496,9.951c3.633,2.285,7.451,3.428,11.455,3.428c5.84,0,10.859-2.363,15.068-7.08
	c4.199-4.707,6.299-11.113,6.299-19.219c0-7.783-2.07-13.926-6.221-18.408c-4.16-4.482-9.385-6.729-15.684-6.729
	c-6.26,0-11.563,2.246-15.918,6.729S55.342,119.778,55.342,127.063L55.342,127.063z M171.973,163.577v-26.982h-48.896v-12.686
	l51.426-73.037h11.309v73.037h15.215v12.686h-15.215v26.982H171.973z M171.973,123.909v-50.82l-35.293,50.82H171.973z
	 M229.883,633.436v-8.69l31.396-0.06v27.5c-4.824,3.828-9.795,6.72-14.912,8.673c-5.127,1.934-10.381,2.891-15.771,2.891
	c-7.275,0-13.896-1.543-19.844-4.668c-5.947-3.105-10.43-7.617-13.467-13.516c-3.037-5.899-4.551-12.48-4.551-19.767
	c0-7.207,1.514-13.945,4.521-20.195c3.018-6.25,7.354-10.897,13.018-13.926c5.664-3.027,12.188-4.551,19.561-4.551
	c5.361,0,10.205,0.879,14.531,2.598c4.336,1.738,7.725,4.16,10.186,7.267c2.461,3.105,4.336,7.147,5.615,12.129l-8.848,2.422
	c-1.113-3.771-2.49-6.738-4.15-8.887c-1.65-2.168-4.004-3.888-7.07-5.195c-3.066-1.289-6.475-1.934-10.215-1.934
	c-4.482,0-8.35,0.684-11.621,2.051c-3.271,1.348-5.908,3.145-7.91,5.371c-2.002,2.226-3.564,4.668-4.678,7.323
	c-1.885,4.591-2.832,9.57-2.832,14.923c0,6.602,1.143,12.129,3.418,16.581c2.275,4.435,5.586,7.755,9.932,9.902
	c4.346,2.148,8.965,3.242,13.848,3.242c4.248,0,8.389-0.82,12.432-2.461s7.109-3.379,9.199-5.234v-13.789H229.883L229.883,633.436z
	 M309.6,655.877c-3.379,2.852-6.621,4.883-9.736,6.055c-3.115,1.191-6.455,1.777-10.029,1.777c-5.898,0-10.43-1.445-13.594-4.316
	c-3.174-2.891-4.756-6.563-4.756-11.055c0-2.617,0.596-5.02,1.797-7.207c1.191-2.168,2.764-3.906,4.697-5.215
	c1.934-1.328,4.121-2.324,6.543-2.988c1.787-0.469,4.482-0.938,8.086-1.367c7.354-0.879,12.754-1.913,16.23-3.125
	c0.029-1.25,0.049-2.051,0.049-2.383c0-3.711-0.859-6.328-2.578-7.832c-2.324-2.051-5.781-3.086-10.361-3.086
	c-4.277,0-7.441,0.742-9.473,2.246c-2.041,1.504-3.555,4.16-4.531,7.969l-8.896-1.211c0.811-3.809,2.148-6.895,3.994-9.237
	c1.855-2.345,4.531-4.142,8.037-5.41c3.506-1.25,7.568-1.896,12.188-1.896c4.58,0,8.301,0.547,11.172,1.621
	c2.861,1.074,4.961,2.441,6.309,4.063c1.348,1.641,2.295,3.711,2.832,6.19c0.303,1.563,0.459,4.355,0.459,8.398v12.129
	c0,8.457,0.195,13.809,0.576,16.055c0.398,2.264,1.178,4.442,2.305,6.445h-9.502C310.469,660.604,309.863,658.396,309.6,655.877
	L309.6,655.877z M308.838,635.545c-3.301,1.348-8.262,2.5-14.863,3.438c-3.74,0.547-6.387,1.151-7.93,1.836
	c-1.553,0.664-2.754,1.659-3.594,2.948c-0.84,1.289-1.26,2.734-1.26,4.316c0,2.422,0.918,4.453,2.754,6.074
	c1.836,1.621,4.521,2.422,8.057,2.422c3.506,0,6.621-0.762,9.355-2.305c2.725-1.523,4.736-3.634,6.016-6.289
	c0.977-2.052,1.465-5.078,1.465-9.103V635.545L308.838,635.545z M366.963,662.498v-6.777c-3.408,5.332-8.408,7.988-15.01,7.988
	c-4.287,0-8.213-1.191-11.807-3.535c-3.584-2.362-6.367-5.664-8.34-9.883c-1.973-4.238-2.959-9.102-2.959-14.59
	c0-5.353,0.898-10.215,2.686-14.57c1.777-4.375,4.463-7.715,8.037-10.039c3.564-2.324,7.559-3.496,11.973-3.496
	c3.232,0,6.123,0.685,8.643,2.052c2.529,1.366,4.59,3.145,6.172,5.332v-26.582h9.043v74.102L366.963,662.498L366.963,662.498z
	 M338.203,635.701c0,6.875,1.445,12.012,4.346,15.41c2.9,3.418,6.318,5.117,10.264,5.117c3.975,0,7.354-1.621,10.127-4.884
	c2.783-3.241,4.17-8.203,4.17-14.883c0-7.344-1.416-12.733-4.238-16.172c-2.832-3.438-6.318-5.156-10.469-5.156
	c-4.043,0-7.422,1.642-10.137,4.961C339.561,623.396,338.203,628.592,338.203,635.701L338.203,635.701z M386.318,635.662
	c0-9.941,2.764-17.305,8.291-22.09c4.609-3.984,10.244-5.978,16.885-5.978c7.373,0,13.408,2.422,18.086,7.267
	c4.688,4.823,7.031,11.504,7.031,20.039c0,6.895-1.035,12.344-3.105,16.289c-2.08,3.965-5.088,7.051-9.053,9.237
	c-3.955,2.188-8.281,3.281-12.959,3.281c-7.521,0-13.594-2.402-18.223-7.227C388.633,651.658,386.318,644.725,386.318,635.662
	L386.318,635.662z M395.664,635.662c0,6.875,1.504,12.012,4.502,15.43s6.777,5.138,11.328,5.138c4.512,0,8.271-1.72,11.27-5.156
	c2.999-3.438,4.492-8.672,4.492-15.724c0-6.641-1.504-11.659-4.521-15.077c-3.019-3.438-6.769-5.138-11.24-5.138
	c-4.551,0-8.33,1.699-11.328,5.099C397.168,623.65,395.664,628.787,395.664,635.662L395.664,635.662z M447.08,662.498v-74.102h9.102
	v74.102H447.08z M470.332,598.865v-10.469h9.102v10.469H470.332z M470.332,662.498v-53.691h9.102v53.691H470.332z M493.281,662.498
	v-53.691h8.184v7.638c3.945-5.898,9.639-8.849,17.09-8.849c3.232,0,6.201,0.586,8.916,1.759c2.716,1.151,4.746,2.676,6.095,4.569
	c1.348,1.875,2.284,4.121,2.832,6.719c0.331,1.681,0.497,4.63,0.497,8.849v33.008h-9.092v-32.656c0-3.711-0.352-6.483-1.063-8.319
	c-0.703-1.836-1.963-3.302-3.761-4.396c-1.807-1.094-3.926-1.641-6.348-1.641c-3.877,0-7.217,1.229-10.029,3.69
	c-2.821,2.461-4.229,7.129-4.229,14.004v29.316H493.281z M550.898,598.865v-10.469H560v10.469H550.898z M550.898,662.498v-53.691
	H560v53.691H550.898z M609.023,662.498v-7.891c-4.181,6.073-9.854,9.102-17.031,9.102c-3.174,0-6.123-0.604-8.877-1.816
	c-2.744-1.211-4.785-2.733-6.113-4.59c-1.328-1.836-2.266-4.082-2.803-6.737c-0.371-1.777-0.558-4.609-0.558-8.496v-33.263h9.103
	v29.785c0,4.746,0.186,7.949,0.557,9.59c0.566,2.402,1.777,4.277,3.633,5.646c1.856,1.368,4.15,2.051,6.875,2.051
	c2.734,0,5.293-0.703,7.687-2.108c2.393-1.388,4.082-3.302,5.078-5.703c0.996-2.402,1.494-5.898,1.494-10.488v-28.77h9.092v53.69
	L609.023,662.498L609.023,662.498z M631.416,662.498v-53.691h8.135v7.539c1.689-2.637,3.926-4.746,6.719-6.348
	c2.804-1.602,5.986-2.402,9.562-2.402c3.975,0,7.236,0.841,9.775,2.48c2.549,1.66,4.336,3.965,5.381,6.934
	c4.248-6.27,9.774-9.414,16.582-9.414c5.321,0,9.414,1.484,12.284,4.435c2.861,2.949,4.298,7.479,4.298,13.612v36.855h-9.054V628.67
	c0-3.633-0.293-6.25-0.879-7.852c-0.596-1.603-1.66-2.892-3.213-3.867c-1.553-0.977-3.369-1.465-5.459-1.465
	c-3.77,0-6.904,1.25-9.404,3.77c-2.489,2.5-3.739,6.523-3.739,12.051v31.191h-9.093v-34.883c0-4.043-0.741-7.07-2.227-9.103
	c-1.484-2.012-3.906-3.026-7.275-3.026c-2.567,0-4.932,0.684-7.108,2.03c-2.168,1.349-3.74,3.302-4.728,5.898
	c-0.977,2.598-1.465,6.348-1.465,11.229v27.853L631.416,662.498L631.416,662.498z M94.531,848.318H85.43V790.35
	c-2.188,2.091-5.059,4.181-8.613,6.271c-3.554,2.09-6.748,3.651-9.58,4.707v-8.81c5.088-2.383,9.541-5.293,13.35-8.69
	c3.799-3.398,6.504-6.699,8.086-9.902h5.859L94.531,848.318L94.531,848.318z M117.832,828.904l9.551-0.802
	c0.713,4.648,2.354,8.146,4.932,10.488s5.684,3.517,9.326,3.517c4.375,0,8.086-1.66,11.113-4.962
	c3.037-3.301,4.551-7.676,4.551-13.145c0-5.176-1.455-9.277-4.365-12.266c-2.92-3.009-6.738-4.513-11.455-4.513
	c-2.93,0-5.576,0.664-7.93,2.013c-2.363,1.327-4.219,3.047-5.566,5.176l-8.535-1.113l7.178-38.065h36.846v8.69h-29.57l-3.994,19.922
	c4.443-3.104,9.111-4.647,14.004-4.647c6.465,0,11.924,2.246,16.377,6.719c4.443,4.473,6.67,10.234,6.67,17.285
	c0,6.699-1.953,12.5-5.869,17.383c-4.746,5.996-11.23,9.004-19.453,9.004c-6.738,0-12.246-1.895-16.504-5.664
	C120.869,840.154,118.438,835.154,117.832,828.904L117.832,828.904z M176.006,783.924v-8.729h47.969v7.069
	c-4.717,5.021-9.395,11.699-14.023,20.021c-4.639,8.32-8.213,16.875-10.742,25.664c-1.826,6.211-2.988,12.987-3.486,20.371h-9.355
	c0.098-5.82,1.25-12.871,3.438-21.113c2.188-8.262,5.332-16.229,9.424-23.887c4.102-7.677,8.447-14.142,13.066-19.396H176.006z
	 M238.086,848.318v-10.353h10.361v10.353H238.086z M309.551,839.588v8.73h-48.975c-0.076-2.153,0.286-4.3,1.064-6.31
	c1.24-3.34,3.242-6.621,5.986-9.862c2.744-3.242,6.709-6.974,11.904-11.212c8.047-6.62,13.496-11.836,16.328-15.702
	c2.822-3.849,4.238-7.5,4.238-10.938c0-3.613-1.289-6.66-3.867-9.121c-2.578-2.479-5.938-3.729-10.078-3.729
	c-4.385,0-7.891,1.328-10.518,3.944c-2.627,2.638-3.955,6.271-3.994,10.918l-9.346-0.956c0.635-6.974,3.047-12.285,7.227-15.938
	c4.18-3.672,9.785-5.488,16.836-5.488c7.109,0,12.734,1.974,16.875,5.918c4.15,3.945,6.221,8.828,6.221,14.648
	c0,2.969-0.605,5.879-1.816,8.75c-1.221,2.871-3.232,5.879-6.045,9.043s-7.49,7.521-14.023,13.047
	c-5.459,4.57-8.965,7.695-10.518,9.316c-1.553,1.641-2.832,3.28-3.838,4.94h36.339V839.588z M319.307,828.904l9.551-0.802
	c0.713,4.648,2.354,8.146,4.932,10.488s5.684,3.517,9.326,3.517c4.375,0,8.086-1.66,11.113-4.962
	c3.037-3.301,4.551-7.676,4.551-13.145c0-5.176-1.455-9.277-4.365-12.266c-2.92-3.009-6.738-4.513-11.455-4.513
	c-2.93,0-5.576,0.664-7.93,2.013c-2.363,1.327-4.219,3.047-5.566,5.176l-8.535-1.113l7.178-38.065h36.846v8.69h-29.57l-3.994,19.922
	c4.443-3.104,9.111-4.647,14.004-4.647c6.465,0,11.924,2.246,16.377,6.719c4.443,4.473,6.67,10.234,6.67,17.285
	c0,6.699-1.953,12.5-5.869,17.383c-4.746,5.996-11.23,9.004-19.453,9.004c-6.738,0-12.246-1.895-16.504-5.664
	C322.344,840.154,319.912,835.154,319.307,828.904L319.307,828.904z M368.887,372.834v-31.152h80.458v73.652
	c-7.813,7.568-19.149,14.238-33.983,19.99c-14.845,5.762-29.873,8.643-45.088,8.643c-19.336,0-36.201-4.053-50.576-12.168
	s-25.176-19.717-32.412-34.813c-7.227-15.089-10.84-31.504-10.84-49.248c0-19.248,4.033-36.357,12.1-51.328
	c8.076-14.961,19.883-26.445,35.439-34.434c11.855-6.133,26.611-9.199,44.268-9.199c22.959,0,40.889,4.814,53.789,14.434
	c12.91,9.629,21.211,22.939,24.912,39.922l-37.08,6.935c-2.607-9.083-7.5-16.25-14.688-21.504
	c-7.197-5.254-16.172-7.881-26.934-7.881c-16.309,0-29.277,5.166-38.906,15.508c-9.629,10.342-14.434,25.693-14.434,46.035
	c0,21.943,4.873,38.408,14.629,49.375c9.746,10.978,22.529,16.466,38.34,16.466c7.813,0,15.654-1.533,23.516-4.609
	c7.861-3.066,14.609-6.787,20.244-11.162v-23.457h-42.753V372.834z M606.367,440.813h-32.92v-19.678
	c-5.459,7.656-11.914,13.351-19.355,17.09c-7.44,3.74-14.94,5.615-22.51,5.615c-15.391,0-28.564-6.201-39.541-18.604
	c-10.967-12.402-16.455-29.697-16.455-51.896c0-22.705,5.332-39.961,16.016-51.776c10.675-11.808,24.171-17.715,40.479-17.715
	c14.971,0,27.92,6.221,38.848,18.662V255.92h35.439L606.367,440.813L606.367,440.813z M511.777,370.94
	c0,14.297,1.973,24.639,5.928,31.024c5.723,9.258,13.701,13.877,23.965,13.877c8.154,0,15.088-3.467,20.812-10.399
	c5.713-6.943,8.573-17.306,8.573-31.095c0-15.381-2.772-26.465-8.319-33.231c-5.558-6.769-12.656-10.146-21.318-10.146
	c-8.408,0-15.449,3.34-21.123,10.021C514.619,347.678,511.777,357.659,511.777,370.94L511.777,370.94z M859.785,109.202v7.588h-42.5
	c-0.068-1.904,0.244-3.73,0.918-5.479c1.084-2.9,2.813-5.752,5.195-8.555c2.383-2.813,5.83-6.055,10.332-9.746
	c6.991-5.732,11.709-10.264,14.17-13.613c2.45-3.35,3.682-6.514,3.682-9.502c0-3.125-1.113-5.771-3.35-7.92
	c-2.246-2.148-5.156-3.223-8.761-3.223c-3.799,0-6.836,1.143-9.12,3.428c-2.275,2.275-3.438,5.439-3.468,9.473l-8.114-0.84
	c0.557-6.045,2.646-10.664,6.278-13.838c3.623-3.174,8.486-4.756,14.601-4.756c6.172,0,11.055,1.709,14.657,5.127
	c3.595,3.428,5.392,7.666,5.392,12.725c0,2.578-0.527,5.107-1.572,7.588c-1.055,2.49-2.803,5.107-5.244,7.852
	c-2.44,2.754-6.504,6.523-12.178,11.318c-4.736,3.975-7.773,6.68-9.121,8.096s-2.461,2.842-3.34,4.277H859.785z M830.439,171.76
	c-3.271-1.201-5.703-2.91-7.285-5.137c-1.572-2.217-2.363-4.883-2.363-7.979c0-4.678,1.68-8.613,5.039-11.807
	c3.369-3.184,7.842-4.775,13.428-4.775c5.615,0,10.138,1.631,13.556,4.893c3.418,3.262,5.137,7.227,5.137,11.904
	c0,2.988-0.791,5.586-2.354,7.793c-1.563,2.207-3.936,3.906-7.129,5.107c3.955,1.289,6.953,3.359,9.015,6.23
	c2.069,2.861,3.096,6.289,3.096,10.264c0,5.498-1.943,10.117-5.83,13.857c-3.896,3.75-9.014,5.615-15.361,5.615
	c-6.338,0-11.455-1.875-15.352-5.635c-3.888-3.76-5.83-8.447-5.83-14.063c0-4.18,1.055-7.676,3.184-10.498
	C823.506,174.709,826.523,172.786,830.439,171.76z M826.318,188.079c0,2.256,0.526,4.434,1.602,6.533
	c1.064,2.109,2.656,3.74,4.756,4.893c2.082,1.146,4.422,1.741,6.797,1.729c3.779,0,6.896-1.211,9.347-3.633
	c2.461-2.432,3.69-5.518,3.69-9.258c0-3.799-1.27-6.943-3.799-9.434c-2.529-2.48-5.693-3.73-9.502-3.73
	c-3.711,0-6.787,1.23-9.229,3.691C827.539,181.321,826.318,184.397,826.318,188.079L826.318,188.079z M828.857,158.381
	c0,3.037,0.985,5.527,2.938,7.451c1.963,1.934,4.502,2.9,7.638,2.9c3.036,0,5.536-0.957,7.479-2.871s2.92-4.268,2.92-7.041
	c0-2.9-1.006-5.332-3.008-7.305c-2.002-1.973-4.502-2.959-7.48-2.959c-3.018,0-5.518,0.957-7.5,2.891
	C829.854,153.381,828.857,155.686,828.857,158.381L828.857,158.381z M798.057,296.467h-7.891v-50.313
	c-1.904,1.807-4.395,3.623-7.479,5.439c-3.087,1.807-5.859,3.174-8.312,4.072v-7.627c4.414-2.08,8.271-4.59,11.582-7.549
	c3.301-2.949,5.646-5.82,7.012-8.594h5.088V296.467L798.057,296.467z M830.43,261.594c-3.271-1.201-5.703-2.91-7.284-5.137
	c-1.572-2.217-2.363-4.883-2.363-7.979c0-4.678,1.68-8.613,5.039-11.807c3.369-3.184,7.842-4.775,13.428-4.775
	c5.615,0,10.137,1.631,13.555,4.893c3.418,3.262,5.138,7.227,5.138,11.904c0,2.988-0.791,5.586-2.354,7.793
	c-1.563,2.207-3.936,3.906-7.129,5.107c3.955,1.289,6.953,3.359,9.014,6.23c2.07,2.861,3.097,6.289,3.097,10.264
	c0,5.498-1.943,10.117-5.83,13.857c-3.896,3.75-9.015,5.615-15.361,5.615c-6.338,0-11.455-1.875-15.352-5.635
	c-3.888-3.76-5.83-8.447-5.83-14.063c0-4.18,1.055-7.676,3.184-10.498C823.496,264.543,826.514,262.62,830.43,261.594
	L830.43,261.594z M826.309,277.913c0,2.256,0.527,4.434,1.603,6.533c1.063,2.109,2.656,3.74,4.756,4.893
	c2.082,1.146,4.421,1.741,6.797,1.729c3.779,0,6.896-1.211,9.347-3.633c2.461-2.432,3.69-5.518,3.69-9.258
	c0-3.799-1.27-6.943-3.799-9.434c-2.529-2.48-5.693-3.73-9.502-3.73c-3.711,0-6.787,1.23-9.229,3.691
	C827.529,271.155,826.309,274.231,826.309,277.913L826.309,277.913z M828.848,248.215c0,3.037,0.986,5.527,2.939,7.451
	c1.963,1.934,4.502,2.9,7.637,2.9c3.037,0,5.537-0.957,7.48-2.871c1.942-1.914,2.92-4.268,2.92-7.041c0-2.9-1.006-5.332-3.008-7.305
	s-4.502-2.959-7.48-2.959c-3.018,0-5.518,0.957-7.5,2.891C829.844,243.215,828.848,245.52,828.848,248.215L828.848,248.215z
	 M809.814,378.723v7.588h-42.5c-0.068-1.903,0.244-3.729,0.918-5.479c1.084-2.9,2.813-5.752,5.194-8.555
	c2.384-2.813,5.83-6.056,10.332-9.746c6.992-5.732,11.709-10.265,14.17-13.613c2.451-3.35,3.683-6.514,3.683-9.502
	c0-3.125-1.113-5.771-3.351-7.92c-2.245-2.148-5.155-3.223-8.76-3.223c-3.799,0-6.836,1.143-9.121,3.428
	c-2.274,2.274-3.438,5.438-3.467,9.473l-8.115-0.84c0.558-6.045,2.646-10.664,6.279-13.838c3.623-3.174,8.486-4.756,14.6-4.756
	c6.173,0,11.056,1.709,14.658,5.127c3.594,3.428,5.392,7.666,5.392,12.725c0,2.578-0.527,5.107-1.572,7.588
	c-1.055,2.49-2.803,5.107-5.244,7.853c-2.441,2.754-6.504,6.522-12.178,11.317c-4.736,3.976-7.773,6.681-9.121,8.097
	s-2.461,2.842-3.34,4.276H809.814z M859.248,337.747l-7.852,0.615c-0.703-3.097-1.689-5.353-2.979-6.748
	c-2.139-2.256-4.766-3.379-7.899-3.379c-2.511,0-4.718,0.702-6.621,2.1c-2.49,1.816-4.443,4.463-5.879,7.939
	c-1.437,3.485-2.179,8.438-2.236,14.872c1.904-2.891,4.229-5.049,6.973-6.444c2.754-1.406,5.635-2.109,8.644-2.109
	c5.264,0,9.745,1.943,13.446,5.812c3.701,3.877,5.547,8.887,5.547,15.028c0,4.033-0.868,7.783-2.606,11.25
	c-1.738,3.468-4.131,6.123-7.178,7.959c-3.037,1.847-6.484,2.765-10.353,2.765c-6.582,0-11.942-2.412-16.094-7.256
	c-4.16-4.845-6.23-12.813-6.23-23.927c0-12.432,2.296-21.475,6.886-27.118c4.004-4.912,9.403-7.363,16.19-7.363
	c5.06,0,9.199,1.416,12.433,4.258C856.67,328.831,858.604,332.747,859.248,337.747L859.248,337.747z M827.012,365.471
	c0,2.726,0.576,5.322,1.729,7.813c1.151,2.479,2.772,4.375,4.854,5.684c2.07,1.299,4.248,1.943,6.533,1.943
	c3.33,0,6.201-1.338,8.594-4.033c2.402-2.686,3.604-6.348,3.604-10.967c0-4.443-1.191-7.949-3.555-10.508
	c-2.373-2.56-5.353-3.839-8.955-3.839c-3.564,0-6.592,1.279-9.072,3.839C828.252,357.961,827.012,361.321,827.012,365.471
	L827.012,365.471z M830.439,441.271c-3.271-1.2-5.703-2.909-7.285-5.137c-1.572-2.217-2.363-4.883-2.363-7.979
	c0-4.679,1.68-8.613,5.039-11.808c3.369-3.184,7.842-4.774,13.428-4.774c5.615,0,10.138,1.631,13.556,4.893
	s5.137,7.228,5.137,11.904c0,2.988-0.791,5.586-2.354,7.793c-1.563,2.207-3.936,3.906-7.129,5.106
	c3.955,1.289,6.953,3.359,9.015,6.23c2.069,2.861,3.096,6.289,3.096,10.263c0,5.494-1.943,10.123-5.83,13.854
	c-3.896,3.75-9.014,5.625-15.361,5.625c-6.338,0-11.455-1.875-15.352-5.646c-3.887-3.75-5.83-8.438-5.83-14.059
	c0-4.18,1.055-7.675,3.184-10.498C823.506,444.221,826.523,442.297,830.439,441.271L830.439,441.271z M826.318,457.59
	c0,2.252,0.526,4.439,1.602,6.529c1.064,2.108,2.656,3.75,4.756,4.901c2.109,1.152,4.375,1.72,6.797,1.72
	c3.779,0,6.896-1.211,9.347-3.633c2.461-2.423,3.69-5.509,3.69-9.255c0-3.799-1.27-6.942-3.799-9.433
	c-2.529-2.48-5.693-3.73-9.502-3.73c-3.711,0-6.787,1.23-9.229,3.691C827.539,450.832,826.318,453.908,826.318,457.59
	L826.318,457.59z M828.857,427.893c0,3.037,0.985,5.527,2.938,7.451c1.963,1.935,4.502,2.9,7.638,2.9
	c3.036,0,5.536-0.957,7.479-2.871s2.92-4.269,2.92-7.041c0-2.9-1.006-5.332-3.008-7.305c-2.002-1.974-4.502-2.959-7.48-2.959
	c-3.018,0-5.518,0.957-7.5,2.891C829.854,422.893,828.857,425.198,828.857,427.893L828.857,427.893z M859.785,558.396v7.598h-42.5
	c-0.068-1.914,0.244-3.73,0.918-5.488c1.084-2.891,2.813-5.742,5.195-8.555c2.382-2.813,5.83-6.055,10.332-9.746
	c6.991-5.723,11.709-10.254,14.17-13.613c2.451-3.34,3.682-6.504,3.682-9.492c0-3.125-1.113-5.78-3.35-7.93
	c-2.246-2.147-5.156-3.223-8.761-3.223c-3.799,0-6.836,1.152-9.12,3.438c-2.275,2.267-3.438,5.431-3.468,9.474l-8.114-0.841
	c0.557-6.055,2.646-10.663,6.278-13.848c3.623-3.164,8.486-4.746,14.601-4.746c6.172,0,11.055,1.699,14.658,5.117
	c3.594,3.438,5.391,7.676,5.391,12.734c0,2.578-0.527,5.098-1.572,7.578c-1.055,2.5-2.803,5.116-5.244,7.852
	c-2.44,2.754-6.504,6.523-12.178,11.328c-4.736,3.965-7.773,6.68-9.121,8.086c-1.348,1.426-2.461,2.852-3.34,4.277H859.785
	L859.785,558.396z"/>
</svg>
