<?xml version="1.0" encoding="utf-8"?>
<!-- Generator: Adobe Illustrator 16.0.3, SVG Export Plug-In . SVG Version: 6.00 Build 0)  -->
<!DOCTYPE svg PUBLIC "-//W3C//DTD SVG 1.1//EN" "http://www.w3.org/Graphics/SVG/1.1/DTD/svg11.dtd">
<svg version="1.1" id="Layer_1" xmlns="http://www.w3.org/2000/svg" xmlns:xlink="http://www.w3.org/1999/xlink" x="0px" y="0px"
	 width="900px" height="900px" viewBox="0 0 900 900" enable-background="new 0 0 900 900" xml:space="preserve">
<path d="M111.846,78.44l-13.76,1.074c-1.23-5.43-2.969-9.375-5.225-11.836c-3.75-3.945-8.359-5.918-13.838-5.918
	c-4.414,0-8.281,1.23-11.611,3.691c-4.355,3.174-7.793,7.813-10.303,13.916c-2.51,6.094-3.818,14.785-3.926,26.055
	c3.33-5.068,7.412-8.838,12.227-11.299s9.863-3.691,15.146-3.691c9.229,0,17.08,3.398,23.564,10.186
	c6.484,6.797,9.727,15.566,9.727,26.338c0,7.07-1.523,13.643-4.58,19.717c-3.047,6.074-7.236,10.723-12.568,13.955
	c-5.332,3.223-11.377,4.844-18.145,4.844c-11.533,0-20.938-4.238-28.213-12.725c-7.275-8.487-10.918-22.461-10.918-41.943
	c0-21.777,4.023-37.617,12.07-47.51c7.021-8.613,16.475-12.91,28.369-12.91c8.867,0,16.133,2.48,21.797,7.451
	C107.323,62.806,110.723,69.68,111.846,78.44L111.846,78.44z M55.342,127.034c0,4.766,1.006,9.326,3.037,13.682
	c2.021,4.355,4.854,7.676,8.496,9.951c3.633,2.285,7.451,3.428,11.455,3.428c5.84,0,10.859-2.363,15.068-7.08
	c4.199-4.707,6.299-11.113,6.299-19.219c0-7.783-2.07-13.926-6.221-18.408c-4.16-4.482-9.385-6.729-15.684-6.729
	c-6.26,0-11.563,2.246-15.918,6.729C57.519,113.871,55.342,119.749,55.342,127.034L55.342,127.034z M127.607,134.026l14.531-1.23
	c1.074,7.07,3.574,12.393,7.5,15.957c3.916,3.555,8.643,5.342,14.18,5.342c6.66,0,12.305-2.51,16.914-7.539
	c4.609-5.02,6.924-11.68,6.924-19.99c0-7.891-2.217-14.121-6.65-18.682c-4.433-4.561-10.244-6.836-17.412-6.836
	c-4.463,0-8.486,1.006-12.07,3.037c-3.594,2.021-6.416,4.648-8.457,7.881l-12.998-1.699l10.918-57.891h56.045v13.223h-44.971
	l-6.074,30.293c6.758-4.717,13.857-7.07,21.289-7.07c9.844,0,18.145,3.408,24.912,10.225c6.767,6.817,10.146,15.576,10.146,26.289
	c0,10.205-2.969,19.023-8.916,26.445c-7.227,9.131-17.09,13.691-29.6,13.691c-10.254,0-18.613-2.871-25.098-8.613
	C132.235,151.117,128.535,143.508,127.607,134.026L127.607,134.026z M291.768,662.469v-65.352h-24.414v-8.75h58.74v8.75h-24.521
	v65.352H291.768z M360.264,645.184l9.395,1.152c-1.484,5.488-4.229,9.766-8.232,12.793c-4.014,3.027-9.141,4.551-15.371,4.551
	c-7.852,0-14.072-2.422-18.672-7.266c-4.6-4.824-6.904-11.602-6.904-20.332c0-9.023,2.324-16.035,6.973-21.035
	c4.658-4.979,10.684-7.479,18.096-7.479c7.178,0,13.047,2.44,17.598,7.344c4.541,4.883,6.816,11.758,6.816,20.604
	c0,0.548-0.01,1.349-0.049,2.441h-40.029c0.332,5.898,2.002,10.41,5,13.535c2.998,3.145,6.738,4.707,11.221,4.707
	c3.34,0,6.182-0.879,8.545-2.638C357.012,651.824,358.877,649.012,360.264,645.184L360.264,645.184z M330.391,630.477h29.971
	c-0.41-4.53-1.553-7.909-3.438-10.176c-2.9-3.496-6.66-5.254-11.27-5.254c-4.18,0-7.695,1.406-10.537,4.199
	C332.266,622.039,330.693,625.789,330.391,630.477L330.391,630.477z M380.977,662.469v-53.69h8.193v8.145
	c2.09-3.809,4.014-6.309,5.781-7.539c1.777-1.211,3.721-1.815,5.84-1.815c3.066,0,6.182,0.977,9.355,2.93l-3.136,8.457
	c-2.227-1.328-4.453-1.973-6.67-1.973c-1.992,0-3.778,0.586-5.361,1.797c-1.582,1.19-2.715,2.852-3.389,4.961
	c-1.006,3.242-1.514,6.776-1.514,10.625v28.104L380.977,662.469L380.977,662.469z M423.945,662.469h-8.438v-74.102h9.092v26.426
	c3.849-4.805,8.75-7.227,14.707-7.227c3.302,0,6.427,0.664,9.375,2.012c2.949,1.328,5.382,3.184,7.285,5.605
	c1.904,2.401,3.39,5.313,4.474,8.711c1.073,3.397,1.61,7.051,1.61,10.918c0,9.198-2.266,16.309-6.815,21.328
	c-4.551,5.019-10.011,7.538-16.377,7.538c-6.339,0-11.31-2.655-14.912-7.93V662.469L423.945,662.469z M423.848,635.223
	c0,6.427,0.869,11.095,2.627,13.945c2.861,4.688,6.738,7.031,11.621,7.031c3.976,0,7.412-1.738,10.313-5.176
	c2.899-3.457,4.346-8.613,4.346-15.449c0-7.012-1.387-12.188-4.17-15.508c-2.783-3.34-6.143-5.021-10.078-5.021
	c-3.983,0-7.422,1.738-10.313,5.195C425.293,623.68,423.848,628.68,423.848,635.223z M473.174,598.836v-10.469h9.103v10.469H473.174
	z M473.174,662.469v-53.69h9.103v53.69H473.174z M531.299,662.469v-7.891c-4.18,6.074-9.854,9.102-17.031,9.102
	c-3.174,0-6.123-0.604-8.877-1.815c-2.744-1.211-4.785-2.734-6.112-4.59c-1.328-1.836-2.267-4.082-2.804-6.738
	c-0.371-1.777-0.557-4.609-0.557-8.496v-33.262h9.102v29.785c0,4.745,0.187,7.948,0.558,9.59c0.565,2.401,1.776,4.276,3.633,5.645
	s4.15,2.052,6.875,2.052c2.734,0,5.293-0.703,7.686-2.109c2.394-1.387,4.082-3.301,5.078-5.703s1.494-5.898,1.494-10.488v-28.77
	h9.092v53.69L531.299,662.469L531.299,662.469z M553.701,662.469v-53.69h8.135v7.539c1.689-2.638,3.926-4.746,6.719-6.349
	c2.804-1.602,5.986-2.401,9.562-2.401c3.975,0,7.235,0.84,9.774,2.479c2.55,1.66,4.336,3.965,5.381,6.935
	c4.248-6.271,9.775-9.414,16.582-9.414c5.322,0,9.414,1.483,12.285,4.434c2.861,2.949,4.297,7.48,4.297,13.613v36.854h-9.053
	v-33.828c0-3.633-0.293-6.25-0.879-7.852c-0.596-1.602-1.66-2.891-3.213-3.867c-1.553-0.976-3.369-1.465-5.459-1.465
	c-3.771,0-6.904,1.25-9.404,3.77c-2.49,2.5-3.74,6.523-3.74,12.052v31.19h-9.092v-34.883c0-4.043-0.742-7.07-2.227-9.102
	c-1.484-2.013-3.906-3.027-7.275-3.027c-2.567,0-4.932,0.684-7.108,2.031c-2.168,1.348-3.74,3.301-4.728,5.897
	c-0.977,2.599-1.465,6.349-1.465,11.23v27.852L553.701,662.469L553.701,662.469z M94.531,848.289H85.43V790.32
	c-2.188,2.09-5.059,4.18-8.613,6.27c-3.554,2.09-6.748,3.652-9.58,4.707v-8.809c5.088-2.383,9.541-5.293,13.35-8.691
	c3.799-3.397,6.504-6.699,8.086-9.902h5.859v74.395H94.531z M117.832,828.875l9.551-0.801c0.713,4.647,2.354,8.145,4.932,10.488
	c2.578,2.343,5.684,3.516,9.326,3.516c4.375,0,8.086-1.66,11.113-4.961c3.037-3.301,4.551-7.676,4.551-13.146
	c0-5.176-1.455-9.276-4.365-12.266c-2.92-3.008-6.738-4.512-11.455-4.512c-2.93,0-5.576,0.664-7.93,2.012
	c-2.363,1.328-4.219,3.047-5.566,5.176l-8.535-1.112l7.178-38.066h36.846v8.691h-29.57l-3.994,19.922
	c4.443-3.105,9.111-4.648,14.004-4.648c6.465,0,11.924,2.246,16.377,6.719c4.443,4.474,6.67,10.234,6.67,17.285
	c0,6.699-1.953,12.5-5.869,17.383c-4.746,5.996-11.23,9.004-19.453,9.004c-6.738,0-12.246-1.895-16.504-5.664
	C120.869,840.125,118.438,835.125,117.832,828.875L117.832,828.875z M189.404,808.113c-3.779-1.388-6.572-3.359-8.398-5.918
	c-1.816-2.56-2.725-5.625-2.725-9.199c0-5.391,1.934-9.922,5.811-13.594s9.033-5.508,15.469-5.508c6.465,0,11.68,1.875,15.615,5.625
	c3.945,3.77,5.918,8.34,5.918,13.729c0,3.438-0.898,6.426-2.705,8.965c-1.807,2.56-4.541,4.513-8.213,5.898
	c4.551,1.483,8.008,3.867,10.391,7.168c2.373,3.301,3.555,7.246,3.555,11.836c0,6.328-2.236,11.66-6.719,15.977
	c-4.483,4.317-10.381,6.466-17.686,6.466c-7.314,0-13.213-2.169-17.695-6.505c-4.482-4.315-6.719-9.727-6.719-16.19
	c0-4.824,1.221-8.849,3.662-12.109C181.406,811.512,184.883,809.285,189.404,808.113L189.404,808.113z M184.648,826.922
	c0,2.578,0.615,5.099,1.846,7.521s3.057,4.315,5.488,5.645c2.422,1.328,5.029,1.992,7.832,1.992c4.346,0,7.93-1.406,10.762-4.199
	s4.248-6.348,4.248-10.664c0-4.375-1.455-8.008-4.375-10.858c-2.91-2.871-6.563-4.297-10.938-4.297
	c-4.277,0-7.832,1.405-10.645,4.237C186.053,819.13,184.648,822.664,184.648,826.922L184.648,826.922z M187.578,792.703
	c0,3.496,1.133,6.367,3.389,8.594c2.256,2.207,5.186,3.32,8.799,3.32c3.506,0,6.377-1.094,8.613-3.301
	c2.246-2.207,3.359-4.922,3.359-8.125c0-3.32-1.152-6.134-3.457-8.398c-2.314-2.285-5.186-3.418-8.623-3.418
	c-3.467,0-6.348,1.113-8.643,3.34C188.73,786.941,187.578,789.598,187.578,792.703L187.578,792.703z M238.086,848.289v-10.352
	h10.361v10.352H238.086z M263.105,831.16l8.74-0.801c0.742,4.102,2.158,7.09,4.248,8.944c2.09,1.855,4.766,2.773,8.037,2.773
	c2.793,0,5.244-0.646,7.354-1.914c2.109-1.289,3.828-2.988,5.176-5.137c1.348-2.149,2.48-5.039,3.389-8.673
	c0.909-3.633,1.367-7.344,1.367-11.112c0-0.41-0.02-1.017-0.049-1.816c-1.826,2.892-4.307,5.234-7.461,7.052
	c-3.145,1.797-6.563,2.694-10.234,2.694c-6.133,0-11.318-2.227-15.566-6.68c-4.248-4.435-6.367-10.293-6.367-17.578
	c0-7.521,2.217-13.574,6.65-18.146c4.424-4.59,9.98-6.875,16.65-6.875c4.814,0,9.229,1.289,13.213,3.888
	c3.994,2.598,7.031,6.289,9.102,11.094c2.071,4.805,3.105,11.758,3.105,20.859c0,9.473-1.025,17.012-3.076,22.616
	c-2.061,5.605-5.117,9.884-9.18,12.813s-8.818,4.396-14.277,4.396c-5.791,0-10.527-1.603-14.199-4.824
	C266.055,841.512,263.848,836.98,263.105,831.16L263.105,831.16z M300.352,798.465c0-5.233-1.387-9.375-4.17-12.44
	c-2.773-3.066-6.123-4.609-10.029-4.609c-4.043,0-7.568,1.66-10.566,4.961s-4.502,7.578-4.502,12.832
	c0,4.727,1.426,8.555,4.277,11.504c2.842,2.949,6.357,4.435,10.537,4.435c4.209,0,7.676-1.484,10.391-4.435
	C298.994,807.762,300.352,803.68,300.352,798.465L300.352,798.465z M319.355,828.738l9.102-1.211
	c1.045,5.155,2.822,8.867,5.332,11.133c2.51,2.285,5.566,3.418,9.17,3.418c4.277,0,7.891-1.484,10.84-4.453
	c2.949-2.969,4.424-6.641,4.424-11.016c0-4.181-1.357-7.617-4.092-10.332c-2.725-2.715-6.201-4.082-10.41-4.082
	c-1.719,0-3.857,0.352-6.416,1.016l1.006-7.988c0.605,0.078,1.094,0.117,1.465,0.117c3.877,0,7.363-1.016,10.469-3.047
	c3.096-2.012,4.648-5.137,4.648-9.354c0-3.32-1.133-6.095-3.389-8.281c-2.256-2.188-5.176-3.281-8.74-3.281
	c-3.545,0-6.494,1.113-8.848,3.34c-2.363,2.228-3.877,5.548-4.551,10l-9.102-1.62c1.113-6.095,3.643-10.82,7.588-14.181
	c3.936-3.34,8.838-5.02,14.707-5.02c4.043,0,7.764,0.858,11.172,2.598c3.398,1.738,6.006,4.103,7.803,7.109
	c1.807,2.987,2.705,6.172,2.705,9.551c0,3.203-0.859,6.113-2.578,8.75c-1.719,2.617-4.258,4.707-7.627,6.25
	c4.375,1.016,7.783,3.125,10.205,6.309c2.432,3.185,3.643,7.168,3.643,11.953c0,6.465-2.363,11.953-7.08,16.445
	c-4.717,4.492-10.684,6.758-17.891,6.758c-6.504,0-11.904-1.953-16.201-5.82C322.412,839.932,319.961,834.892,319.355,828.738
	L319.355,828.738z M346.045,440.784V287.17h-54.863v-31.279h146.934v31.279H383.38v153.613L346.045,440.784L346.045,440.784z
	 M460.43,440.784V255.891h35.439v66.592c10.938-12.441,23.877-18.663,38.848-18.663c16.31,0,29.805,5.908,40.488,17.715
	c10.674,11.815,16.016,28.779,16.016,50.889c0,22.871-5.449,40.488-16.338,52.853c-10.889,12.354-24.111,18.535-39.658,18.535
	c-7.655,0-15.194-1.914-22.637-5.742c-7.441-3.818-13.857-9.474-19.238-16.963v19.678L460.43,440.784L460.43,440.784z
	 M495.625,370.911c0,13.877,2.178,24.141,6.553,30.781c6.133,9.414,14.297,14.121,24.474,14.121c7.813,0,14.473-3.341,19.979-10.029
	c5.508-6.68,8.262-17.217,8.262-31.592c0-15.304-2.772-26.339-8.319-33.105s-12.656-10.146-21.318-10.146
	c-8.486,0-15.547,3.301-21.182,9.893C498.438,347.434,495.625,357.463,495.625,370.911z M859.785,109.172v7.588h-42.5
	c-0.068-1.904,0.244-3.73,0.918-5.479c1.084-2.9,2.813-5.752,5.195-8.555c2.383-2.813,5.83-6.055,10.332-9.746
	c6.991-5.732,11.709-10.264,14.17-13.613c2.45-3.35,3.682-6.514,3.682-9.502c0-3.125-1.113-5.771-3.35-7.92
	c-2.246-2.148-5.156-3.223-8.761-3.223c-3.799,0-6.836,1.143-9.12,3.428c-2.275,2.275-3.438,5.439-3.468,9.473l-8.114-0.84
	c0.557-6.045,2.646-10.664,6.278-13.838c3.623-3.174,8.486-4.756,14.601-4.756c6.172,0,11.055,1.709,14.657,5.127
	c3.595,3.428,5.392,7.666,5.392,12.725c0,2.578-0.527,5.107-1.572,7.588c-1.055,2.49-2.803,5.107-5.244,7.852
	c-2.44,2.754-6.504,6.523-12.178,11.318c-4.736,3.975-7.773,6.68-9.121,8.096s-2.461,2.842-3.34,4.277H859.785z M830.439,171.731
	c-3.271-1.201-5.703-2.91-7.285-5.137c-1.572-2.217-2.363-4.883-2.363-7.979c0-4.678,1.68-8.613,5.039-11.807
	c3.369-3.184,7.842-4.775,13.428-4.775c5.615,0,10.138,1.631,13.556,4.893c3.418,3.262,5.137,7.227,5.137,11.904
	c0,2.988-0.791,5.586-2.354,7.793c-1.563,2.207-3.936,3.906-7.129,5.107c3.955,1.289,6.953,3.359,9.015,6.23
	c2.069,2.861,3.096,6.289,3.096,10.264c0,5.498-1.943,10.117-5.83,13.857c-3.896,3.75-9.014,5.615-15.361,5.615
	c-6.338,0-11.455-1.875-15.352-5.635c-3.888-3.76-5.83-8.447-5.83-14.063c0-4.18,1.055-7.676,3.184-10.498
	C823.506,174.68,826.523,172.756,830.439,171.731L830.439,171.731z M826.318,188.049c0,2.256,0.526,4.434,1.602,6.533
	c1.064,2.109,2.656,3.74,4.756,4.893c2.082,1.145,4.422,1.74,6.797,1.729c3.779,0,6.896-1.211,9.347-3.633
	c2.461-2.432,3.69-5.518,3.69-9.258c0-3.799-1.27-6.943-3.799-9.434c-2.529-2.48-5.693-3.73-9.502-3.73
	c-3.711,0-6.787,1.23-9.229,3.691C827.539,181.292,826.318,184.368,826.318,188.049L826.318,188.049z M828.857,158.352
	c0,3.037,0.985,5.527,2.938,7.451c1.963,1.934,4.502,2.9,7.638,2.9c3.036,0,5.536-0.957,7.479-2.871s2.92-4.268,2.92-7.041
	c0-2.9-1.006-5.332-3.008-7.305c-2.002-1.973-4.502-2.959-7.48-2.959c-3.018,0-5.518,0.957-7.5,2.891
	C829.854,153.352,828.857,155.657,828.857,158.352L828.857,158.352z M798.057,296.438h-7.891v-50.313
	c-1.904,1.807-4.395,3.623-7.479,5.439c-3.087,1.807-5.859,3.174-8.312,4.072v-7.627c4.414-2.08,8.271-4.59,11.582-7.549
	c3.301-2.949,5.646-5.82,7.012-8.594h5.088V296.438L798.057,296.438z M830.43,261.565c-3.271-1.201-5.703-2.91-7.284-5.137
	c-1.572-2.217-2.363-4.883-2.363-7.979c0-4.678,1.68-8.613,5.039-11.807c3.369-3.184,7.842-4.775,13.428-4.775
	c5.615,0,10.137,1.631,13.555,4.893c3.418,3.262,5.138,7.227,5.138,11.904c0,2.988-0.791,5.586-2.354,7.793
	c-1.563,2.207-3.936,3.906-7.129,5.107c3.955,1.289,6.953,3.359,9.014,6.23c2.07,2.861,3.097,6.289,3.097,10.264
	c0,5.498-1.943,10.117-5.83,13.857c-3.896,3.75-9.015,5.615-15.361,5.615c-6.338,0-11.455-1.875-15.352-5.635
	c-3.888-3.76-5.83-8.447-5.83-14.063c0-4.18,1.055-7.676,3.184-10.498C823.496,264.514,826.514,262.59,830.43,261.565
	L830.43,261.565z M826.309,277.883c0,2.256,0.527,4.434,1.603,6.533c1.063,2.109,2.656,3.74,4.756,4.893
	c2.082,1.145,4.421,1.74,6.797,1.729c3.779,0,6.896-1.211,9.347-3.633c2.461-2.432,3.69-5.518,3.69-9.258
	c0-3.799-1.27-6.943-3.799-9.434c-2.529-2.48-5.693-3.73-9.502-3.73c-3.711,0-6.787,1.23-9.229,3.691
	C827.529,271.125,826.309,274.202,826.309,277.883L826.309,277.883z M828.848,248.186c0,3.037,0.986,5.527,2.939,7.451
	c1.963,1.934,4.502,2.9,7.637,2.9c3.037,0,5.537-0.957,7.48-2.871c1.942-1.914,2.92-4.268,2.92-7.041c0-2.9-1.006-5.332-3.008-7.305
	c-2.002-1.973-4.502-2.959-7.48-2.959c-3.018,0-5.518,0.957-7.5,2.891C829.844,243.186,828.848,245.491,828.848,248.186
	L828.848,248.186z M809.814,378.694v7.588h-42.5c-0.068-1.904,0.244-3.73,0.918-5.479c1.084-2.899,2.813-5.752,5.194-8.555
	c2.384-2.813,5.83-6.055,10.332-9.746c6.992-5.732,11.709-10.264,14.17-13.613c2.451-3.35,3.683-6.514,3.683-9.502
	c0-3.125-1.113-5.771-3.351-7.92c-2.245-2.147-5.155-3.223-8.76-3.223c-3.799,0-6.836,1.143-9.121,3.428
	c-2.274,2.275-3.438,5.439-3.467,9.473l-8.115-0.84c0.558-6.045,2.646-10.664,6.279-13.838c3.623-3.174,8.486-4.756,14.6-4.756
	c6.173,0,11.056,1.709,14.658,5.127c3.594,3.428,5.392,7.666,5.392,12.725c0,2.578-0.527,5.107-1.572,7.589
	c-1.055,2.489-2.803,5.106-5.244,7.852c-2.441,2.754-6.504,6.523-12.178,11.318c-4.736,3.975-7.773,6.68-9.121,8.096
	s-2.461,2.842-3.34,4.277H809.814z M818.809,330.393v-7.588h41.632v6.144c-4.103,4.354-8.154,10.146-12.179,17.373
	c-4.023,7.227-7.129,14.647-9.315,22.284c-1.582,5.382-2.588,11.271-3.027,17.677h-8.115c0.089-5.06,1.074-11.172,2.979-18.34
	c1.904-7.158,4.629-14.072,8.184-20.724c3.556-6.65,7.334-12.266,11.338-16.826H818.809L818.809,330.393z M830.439,441.243
	c-3.271-1.201-5.703-2.91-7.285-5.137c-1.572-2.218-2.363-4.884-2.363-7.979c0-4.678,1.68-8.613,5.039-11.807
	c3.369-3.185,7.842-4.775,13.428-4.775c5.615,0,10.138,1.631,13.556,4.893c3.418,3.263,5.137,7.228,5.137,11.904
	c0,2.988-0.791,5.586-2.354,7.793c-1.563,2.207-3.936,3.906-7.129,5.107c3.955,1.289,6.953,3.358,9.015,6.229
	c2.069,2.861,3.096,6.289,3.096,10.264c0,5.493-1.943,10.123-5.83,13.854c-3.896,3.75-9.014,5.625-15.361,5.625
	c-6.338,0-11.455-1.875-15.352-5.645c-3.887-3.75-5.83-8.438-5.83-14.06c0-4.18,1.055-7.675,3.184-10.498
	C823.506,444.192,826.523,442.268,830.439,441.243L830.439,441.243z M826.318,457.561c0,2.252,0.526,4.439,1.602,6.529
	c1.064,2.109,2.656,3.75,4.756,4.902c2.109,1.151,4.375,1.719,6.797,1.719c3.779,0,6.896-1.211,9.347-3.633
	c2.461-2.422,3.69-5.508,3.69-9.254c0-3.799-1.27-6.943-3.799-9.434c-2.529-2.479-5.693-3.729-9.502-3.729
	c-3.711,0-6.787,1.229-9.229,3.69C827.539,450.803,826.318,453.879,826.318,457.561L826.318,457.561z M828.857,427.864
	c0,3.037,0.985,5.526,2.938,7.451c1.963,1.934,4.502,2.899,7.638,2.899c3.036,0,5.536-0.957,7.479-2.871s2.92-4.268,2.92-7.041
	c0-2.899-1.006-5.332-3.008-7.305s-4.502-2.959-7.48-2.959c-3.018,0-5.518,0.957-7.5,2.891
	C829.854,422.864,828.857,425.168,828.857,427.864L828.857,427.864z M859.785,558.367v7.598h-42.5
	c-0.068-1.914,0.244-3.729,0.918-5.488c1.084-2.891,2.813-5.741,5.195-8.555c2.382-2.813,5.83-6.055,10.332-9.746
	c6.991-5.723,11.709-10.254,14.17-13.612c2.451-3.341,3.682-6.505,3.682-9.492c0-3.125-1.113-5.781-3.35-7.931
	c-2.246-2.147-5.156-3.223-8.761-3.223c-3.799,0-6.836,1.152-9.12,3.438c-2.275,2.266-3.438,5.43-3.468,9.473l-8.114-0.84
	c0.557-6.056,2.646-10.664,6.278-13.849c3.623-3.163,8.486-4.745,14.601-4.745c6.172,0,11.055,1.698,14.658,5.116
	c3.594,3.438,5.391,7.677,5.391,12.734c0,2.578-0.527,5.098-1.572,7.578c-1.055,2.5-2.803,5.117-5.244,7.852
	c-2.44,2.754-6.504,6.523-12.178,11.328c-4.736,3.965-7.773,6.68-9.121,8.086c-1.348,1.426-2.461,2.853-3.34,4.277H859.785
	L859.785,558.367z"/>
</svg>
