<?xml version="1.0" encoding="utf-8"?>
<!-- Generator: Adobe Illustrator 16.0.3, SVG Export Plug-In . SVG Version: 6.00 Build 0)  -->
<!DOCTYPE svg PUBLIC "-//W3C//DTD SVG 1.1//EN" "http://www.w3.org/Graphics/SVG/1.1/DTD/svg11.dtd">
<svg version="1.1" id="Layer_1" xmlns="http://www.w3.org/2000/svg" xmlns:xlink="http://www.w3.org/1999/xlink" x="0px" y="0px"
	 width="900px" height="900px" viewBox="0 0 900 900" enable-background="new 0 0 900 900" xml:space="preserve">
<path d="M111.846,78.472l-13.76,1.074c-1.23-5.43-2.969-9.375-5.225-11.836c-3.75-3.945-8.359-5.918-13.838-5.918
	c-4.414,0-8.281,1.23-11.611,3.691c-4.355,3.174-7.793,7.813-10.303,13.916c-2.51,6.094-3.818,14.785-3.926,26.055
	c3.33-5.068,7.412-8.838,12.227-11.299c4.815-2.461,9.863-3.691,15.146-3.691c9.229,0,17.08,3.398,23.564,10.186
	c6.484,6.797,9.727,15.566,9.727,26.338c0,7.07-1.523,13.643-4.58,19.717c-3.047,6.074-7.236,10.723-12.568,13.955
	c-5.332,3.223-11.377,4.844-18.145,4.844c-11.533,0-20.938-4.238-28.213-12.725c-7.275-8.487-10.918-22.461-10.918-41.943
	c0-21.777,4.023-37.617,12.07-47.51c7.021-8.613,16.475-12.91,28.369-12.91c8.867,0,16.133,2.48,21.797,7.451
	C107.323,62.838,110.723,69.712,111.846,78.472L111.846,78.472z M55.342,127.065c0,4.766,1.006,9.326,3.037,13.682
	c2.021,4.355,4.854,7.676,8.496,9.951c3.633,2.285,7.451,3.428,11.455,3.428c5.84,0,10.859-2.363,15.068-7.08
	c4.199-4.707,6.299-11.113,6.299-19.219c0-7.783-2.07-13.926-6.221-18.408c-4.16-4.482-9.385-6.729-15.684-6.729
	c-6.26,0-11.563,2.246-15.918,6.729S55.342,119.78,55.342,127.065L55.342,127.065z M199.414,78.472l-13.76,1.074
	c-1.23-5.43-2.969-9.375-5.225-11.836c-3.75-3.945-8.359-5.918-13.838-5.918c-4.414,0-8.281,1.23-11.611,3.691
	c-4.355,3.174-7.793,7.813-10.303,13.916c-2.51,6.094-3.818,14.785-3.926,26.055c3.33-5.068,7.412-8.838,12.227-11.299
	c4.815-2.461,9.863-3.691,15.146-3.691c9.229,0,17.08,3.398,23.564,10.186c6.484,6.797,9.727,15.566,9.727,26.338
	c0,7.07-1.523,13.643-4.58,19.717c-3.047,6.074-7.236,10.723-12.568,13.955c-5.332,3.223-11.377,4.844-18.145,4.844
	c-11.533,0-20.938-4.238-28.213-12.725c-7.275-8.487-10.918-22.461-10.918-41.943c0-21.777,4.023-37.617,12.07-47.51
	c7.021-8.613,16.475-12.91,28.369-12.91c8.867,0,16.133,2.48,21.797,7.451C194.891,62.838,198.291,69.712,199.414,78.472
	L199.414,78.472z M142.91,127.065c0,4.766,1.006,9.326,3.037,13.682c2.021,4.355,4.854,7.676,8.496,9.951
	c3.633,2.285,7.451,3.428,11.455,3.428c5.84,0,10.859-2.363,15.068-7.08c4.199-4.707,6.299-11.113,6.299-19.219
	c0-7.783-2.07-13.926-6.221-18.408c-4.16-4.482-9.385-6.729-15.684-6.729c-6.26,0-11.563,2.246-15.918,6.729
	S142.91,119.78,142.91,127.065z M183.779,662.495v-74.103h25.527c5.762,0,10.156,0.361,13.184,1.064
	c4.248,0.977,7.871,2.744,10.869,5.303c3.906,3.312,6.836,7.529,8.77,12.666c1.943,5.138,2.91,11.006,2.91,17.617
	c0,5.625-0.654,10.615-1.973,14.961s-2.998,7.939-5.059,10.791c-2.051,2.842-4.297,5.088-6.748,6.719
	c-2.441,1.642-5.391,2.871-8.838,3.722c-3.457,0.84-7.422,1.26-11.904,1.26H183.779L183.779,662.495z M193.584,653.755h15.82
	c4.883,0,8.721-0.459,11.494-1.367c2.783-0.907,5-2.188,6.65-3.848c2.324-2.324,4.141-5.449,5.43-9.375
	c1.299-3.926,1.953-8.682,1.953-14.277c0-7.744-1.279-13.7-3.818-17.86c-2.549-4.17-5.635-6.953-9.277-8.369
	c-2.627-1.017-6.855-1.515-12.686-1.515h-15.566V653.755L193.584,653.755z M256.963,683.169l-1.006-8.545
	c1.982,0.537,3.721,0.811,5.205,0.811c2.021,0,3.643-0.342,4.854-1.016s2.207-1.611,2.979-2.822
	c0.576-0.918,1.504-3.174,2.783-6.776c0.166-0.508,0.439-1.25,0.811-2.228l-20.371-53.778h9.805l11.172,31.084
	c1.49,4.084,2.787,8.235,3.887,12.44c1.034-4.141,2.282-8.225,3.74-12.236l11.475-31.288h9.102l-20.42,54.59
	c-2.197,5.897-3.896,9.961-5.107,12.188c-1.621,2.998-3.467,5.195-5.557,6.592c-2.09,1.397-4.59,2.101-7.48,2.101
	C261.074,684.282,259.121,683.911,256.963,683.169L256.963,683.169z M305.488,646.47l8.994-1.416
	c0.508,3.613,1.914,6.367,4.229,8.291c2.305,1.925,5.527,2.881,9.678,2.881c4.18,0,7.275-0.85,9.297-2.549s3.037-3.701,3.037-5.996
	c0-2.051-0.898-3.672-2.686-4.844c-1.24-0.811-4.346-1.836-9.297-3.086c-6.67-1.688-11.299-3.145-13.877-4.375
	c-2.578-1.229-4.531-2.93-5.859-5.106c-1.338-2.169-2.002-4.57-2.002-7.197c0-2.394,0.547-4.609,1.65-6.65
	c1.076-2.018,2.607-3.756,4.473-5.078c1.416-1.045,3.34-1.924,5.781-2.656c2.441-0.723,5.068-1.084,7.861-1.084
	c4.209,0,7.91,0.605,11.094,1.816c3.184,1.221,5.537,2.861,7.051,4.932c1.514,2.071,2.559,4.845,3.135,8.312l-8.896,1.221
	c-0.4-2.764-1.572-4.922-3.516-6.475c-1.934-1.543-4.668-2.324-8.213-2.324c-4.18,0-7.158,0.693-8.945,2.07
	c-1.787,1.387-2.676,2.998-2.676,4.854c0,1.183,0.371,2.246,1.113,3.185c0.742,0.977,1.904,1.787,3.486,2.432
	c0.908,0.332,3.584,1.113,8.037,2.324c6.436,1.719,10.928,3.125,13.467,4.219c2.549,1.094,4.541,2.686,5.996,4.775
	c1.445,2.09,2.168,4.688,2.168,7.783c0,3.036-0.879,5.889-2.656,8.563c-1.768,2.687-4.316,4.756-7.656,6.221
	c-3.33,1.466-7.109,2.197-11.318,2.197c-6.973,0-12.295-1.445-15.947-4.346C308.828,656.46,306.504,652.163,305.488,646.47
	L305.488,646.47z M360.889,683.071v-74.258h8.291v6.981c1.953-2.734,4.16-4.785,6.621-6.143c2.451-1.367,5.439-2.052,8.945-2.052
	c4.58,0,8.623,1.183,12.129,3.535c3.506,2.363,6.152,5.693,7.939,9.99c1.776,4.297,2.676,9.004,2.676,14.121
	c0,5.498-0.986,10.438-2.959,14.834c-1.974,4.404-4.834,7.772-8.594,10.117c-3.76,2.334-7.705,3.506-11.855,3.506
	c-3.027,0-5.752-0.635-8.154-1.914c-2.412-1.289-4.395-2.9-5.947-4.854v26.134h-9.092V683.071z M369.121,635.962
	c0,6.904,1.406,12.012,4.199,15.313c2.793,3.301,6.182,4.95,10.156,4.95c4.043,0,7.51-1.709,10.391-5.127
	c2.881-3.418,4.315-8.721,4.315-15.897c0-6.836-1.405-11.963-4.219-15.361c-2.813-3.408-6.172-5.106-10.078-5.106
	c-3.877,0-7.305,1.807-10.293,5.43C370.615,623.784,369.121,629.048,369.121,635.962L369.121,635.962z M418.35,662.495v-53.682
	h8.193v8.145c2.09-3.809,4.014-6.318,5.781-7.539c1.776-1.211,3.721-1.815,5.84-1.815c3.066,0,6.182,0.977,9.355,2.93l-3.136,8.447
	c-2.227-1.318-4.453-1.974-6.67-1.974c-1.992,0-3.779,0.597-5.36,1.797c-1.582,1.191-2.716,2.853-3.39,4.972
	c-1.006,3.242-1.514,6.776-1.514,10.614v28.105H418.35L418.35,662.495z M449.541,635.659c0-9.941,2.764-17.305,8.291-22.09
	c4.609-3.976,10.244-5.968,16.885-5.968c7.373,0,13.408,2.423,18.086,7.257c4.688,4.834,7.031,11.514,7.031,20.039
	c0,6.903-1.035,12.344-3.105,16.299c-2.079,3.965-5.088,7.041-9.053,9.229c-3.955,2.188-8.281,3.281-12.959,3.281
	c-7.52,0-13.594-2.402-18.223-7.227C451.855,651.665,449.541,644.722,449.541,635.659z M458.887,635.659
	c0,6.875,1.504,12.021,4.502,15.438s6.777,5.127,11.328,5.127c4.512,0,8.271-1.719,11.271-5.155
	c2.999-3.438,4.491-8.672,4.491-15.713c0-6.642-1.504-11.67-4.521-15.089c-3.018-3.428-6.768-5.137-11.24-5.137
	c-4.551,0-8.33,1.709-11.328,5.107C460.391,623.647,458.887,628.784,458.887,635.659L458.887,635.659z M506.855,646.47l8.993-1.416
	c0.509,3.613,1.914,6.367,4.229,8.291c2.305,1.925,5.527,2.881,9.678,2.881c4.18,0,7.275-0.85,9.297-2.549
	c2.022-1.699,3.037-3.701,3.037-5.996c0-2.051-0.897-3.672-2.686-4.844c-1.24-0.811-4.347-1.836-9.297-3.086
	c-6.67-1.688-11.3-3.145-13.877-4.375c-2.578-1.229-4.531-2.93-5.859-5.106c-1.338-2.169-2.002-4.57-2.002-7.197
	c0-2.394,0.547-4.609,1.649-6.65c1.076-2.018,2.607-3.756,4.474-5.078c1.416-1.045,3.34-1.924,5.781-2.656
	c2.44-0.723,5.067-1.084,7.86-1.084c4.209,0,7.91,0.605,11.094,1.816c3.185,1.221,5.537,2.861,7.052,4.932
	c1.514,2.071,2.559,4.845,3.135,8.312l-8.896,1.221c-0.399-2.764-1.571-4.922-3.516-6.475c-1.934-1.543-4.668-2.324-8.213-2.324
	c-4.18,0-7.158,0.693-8.945,2.07c-1.787,1.387-2.676,2.998-2.676,4.854c0,1.183,0.371,2.246,1.113,3.185
	c0.742,0.977,1.903,1.787,3.485,2.432c0.908,0.332,3.584,1.113,8.037,2.324c6.437,1.719,10.929,3.125,13.467,4.219
	c2.55,1.094,4.541,2.686,5.996,4.775c1.445,2.09,2.168,4.688,2.168,7.783c0,3.036-0.879,5.889-2.655,8.563
	c-1.769,2.687-4.316,4.756-7.656,6.221c-3.33,1.466-7.109,2.197-11.318,2.197c-6.973,0-12.295-1.445-15.947-4.346
	C510.195,656.46,507.871,652.163,506.855,646.47L506.855,646.47z M562.305,598.862v-10.47h9.103v10.47H562.305z M562.305,662.495
	v-53.682h9.103v53.682H562.305z M620.43,662.495v-7.881c-4.18,6.063-9.854,9.092-17.03,9.092c-3.175,0-6.123-0.604-8.878-1.816
	c-2.743-1.211-4.784-2.733-6.112-4.579c-1.328-1.837-2.267-4.082-2.803-6.738c-0.371-1.787-0.558-4.619-0.558-8.496v-33.262h9.103
	v29.774c0,4.746,0.186,7.949,0.557,9.601c0.566,2.393,1.777,4.276,3.633,5.635c1.855,1.367,4.15,2.051,6.875,2.051
	c2.734,0,5.293-0.703,7.687-2.1c2.393-1.397,4.082-3.301,5.078-5.713c0.995-2.402,1.493-5.898,1.493-10.488v-28.76h9.093v53.682
	L620.43,662.495L620.43,662.495z M642.832,662.495v-53.682h8.135v7.528c1.689-2.627,3.926-4.735,6.719-6.338
	c2.804-1.602,5.986-2.402,9.562-2.402c3.975,0,7.236,0.83,9.774,2.48c2.55,1.65,4.337,3.955,5.382,6.924
	c4.248-6.27,9.774-9.404,16.582-9.404c5.321,0,9.414,1.476,12.284,4.425c2.861,2.948,4.298,7.489,4.298,13.623v36.846h-9.054
	v-33.818c0-3.633-0.293-6.26-0.879-7.852c-0.596-1.603-1.66-2.892-3.213-3.867s-3.369-1.465-5.459-1.465
	c-3.77,0-6.904,1.25-9.404,3.76c-2.489,2.51-3.739,6.533-3.739,12.062v31.182h-9.093v-34.873c0-4.043-0.741-7.08-2.227-9.102
	c-1.485-2.022-3.906-3.027-7.275-3.027c-2.567,0-4.932,0.674-7.108,2.021c-2.168,1.349-3.74,3.312-4.728,5.908
	c-0.977,2.599-1.465,6.338-1.465,11.222v27.852L642.832,662.495L642.832,662.495z M94.521,848.325H85.42v-57.979
	c-2.188,2.09-5.059,4.181-8.613,6.271c-3.554,2.09-6.748,3.662-9.58,4.707v-8.799c5.088-2.394,9.541-5.294,13.35-8.691
	c3.799-3.408,6.504-6.709,8.086-9.912h5.859L94.521,848.325L94.521,848.325z M165.029,792.368l-9.043,0.713
	c-0.811-3.574-1.953-6.172-3.438-7.783c-2.461-2.598-5.498-3.896-9.102-3.896c-2.9,0-5.439,0.811-7.627,2.432
	c-2.871,2.09-5.127,5.137-6.777,9.141c-1.65,4.015-2.51,9.728-2.578,17.14c2.188-3.34,4.873-5.812,8.037-7.433
	c3.164-1.61,6.484-2.422,9.961-2.422c6.064,0,11.221,2.228,15.488,6.699c4.258,4.463,6.396,10.234,6.396,17.305
	c0,4.648-1.006,8.976-3.008,12.97c-2.012,3.993-4.766,7.051-8.262,9.17c-3.506,2.129-7.49,3.184-11.934,3.184
	c-7.578,0-13.77-2.783-18.545-8.359c-4.795-5.575-7.178-14.766-7.178-27.577c0-14.316,2.637-24.728,7.93-31.23
	c4.619-5.664,10.83-8.496,18.652-8.496c5.83,0,10.605,1.642,14.326,4.902C162.061,782.095,164.287,786.606,165.029,792.368
	L165.029,792.368z M127.881,824.313c0,3.135,0.664,6.143,1.992,9.004c1.338,2.86,3.193,5.049,5.586,6.543
	c2.393,1.504,4.902,2.246,7.529,2.246c3.848,0,7.148-1.543,9.912-4.648c2.764-3.096,4.141-7.314,4.141-12.637
	c0-5.117-1.357-9.15-4.092-12.101c-2.725-2.948-6.162-4.424-10.313-4.424c-4.111,0-7.598,1.476-10.459,4.424
	C129.316,815.669,127.881,819.536,127.881,824.313L127.881,824.313z M223.203,839.585v8.74h-48.975
	c-0.076-2.156,0.287-4.306,1.064-6.318c1.24-3.34,3.242-6.621,5.986-9.854c2.744-3.242,6.709-6.982,11.904-11.222
	c8.047-6.61,13.496-11.836,16.328-15.692c2.822-3.857,4.238-7.511,4.238-10.947c0-3.604-1.289-6.65-3.867-9.121
	c-2.578-2.479-5.938-3.721-10.078-3.721c-4.385,0-7.891,1.317-10.518,3.944c-2.627,2.628-3.955,6.271-3.994,10.919l-9.346-0.957
	c0.635-6.974,3.047-12.295,7.227-15.947c4.18-3.662,9.785-5.488,16.836-5.488c7.109,0,12.734,1.974,16.875,5.918
	c4.15,3.945,6.221,8.828,6.221,14.658c0,2.959-0.605,5.879-1.816,8.74c-1.221,2.871-3.232,5.879-6.045,9.053
	c-2.813,3.164-7.49,7.51-14.023,13.037c-5.459,4.58-8.965,7.695-10.518,9.326c-1.553,1.631-2.832,3.28-3.838,4.932H223.203
	L223.203,839.585z M238.076,848.325v-10.361h10.361v10.361H238.076L238.076,848.325z M261.729,828.911l9.551-0.801
	c0.713,4.647,2.354,8.145,4.932,10.487c2.578,2.344,5.684,3.506,9.326,3.506c4.375,0,8.086-1.649,11.113-4.95
	c3.037-3.302,4.551-7.687,4.551-13.146c0-5.186-1.455-9.277-4.365-12.275c-2.92-2.997-6.738-4.502-11.455-4.502
	c-2.93,0-5.576,0.664-7.93,2.002c-2.363,1.328-4.219,3.058-5.566,5.177l-8.535-1.113l7.178-38.057h36.846v8.69h-29.57l-3.994,19.912
	c4.443-3.096,9.111-4.647,14.004-4.647c6.465,0,11.924,2.245,16.377,6.729c4.443,4.473,6.67,10.234,6.67,17.285
	c0,6.699-1.953,12.5-5.869,17.383c-4.746,5.996-11.23,8.994-19.453,8.994c-6.738,0-12.246-1.885-16.504-5.654
	C264.766,840.15,262.334,835.15,261.729,828.911L261.729,828.911z M319.297,811.782c0-8.761,0.898-15.812,2.705-21.152
	c1.797-5.342,4.482-9.463,8.037-12.363c3.555-2.891,8.027-4.346,13.418-4.346c3.975,0,7.461,0.801,10.459,2.402
	c2.998,1.601,5.479,3.905,7.432,6.924c1.953,3.018,3.486,6.688,4.6,11.016c1.113,4.336,1.67,10.177,1.67,17.521
	c0,8.69-0.889,15.713-2.676,21.055s-4.463,9.463-8.018,12.383c-3.555,2.91-8.047,4.365-13.467,4.365
	c-7.148,0-12.754-2.559-16.836-7.676C321.738,835.737,319.297,825.698,319.297,811.782L319.297,811.782z M328.643,811.782
	c0,12.168,1.426,20.264,4.277,24.287c2.842,4.022,6.357,6.034,10.537,6.034s7.695-2.021,10.537-6.063
	c2.852-4.043,4.268-12.129,4.268-24.258c0-12.197-1.416-20.304-4.268-24.316c-2.842-4.004-6.396-6.016-10.635-6.016
	c-4.18,0-7.52,1.776-10.01,5.313C330.215,791.273,328.643,799.614,328.643,811.782L328.643,811.782z M296.992,255.923h68.232
	c15.391,0,27.119,1.182,35.186,3.535c10.85,3.193,20.137,8.877,27.871,17.031c7.733,8.154,13.623,18.135,17.656,29.952
	c4.043,11.807,6.055,26.377,6.055,43.7c0,15.215-1.896,28.33-5.674,39.347c-4.629,13.446-11.222,24.336-19.806,32.666
	c-6.475,6.299-15.215,11.221-26.229,14.756c-8.242,2.606-19.248,3.906-33.037,3.906h-70.254V255.923L296.992,255.923z
	 M334.326,287.202v122.461h27.871c10.43,0,17.949-0.586,22.578-1.769c6.055-1.514,11.074-4.071,15.068-7.686
	c3.994-3.623,7.256-9.57,9.775-17.852c2.519-8.282,3.778-19.57,3.778-33.857c0-14.297-1.26-25.264-3.778-32.92
	c-2.521-7.646-6.056-13.623-10.597-17.91c-4.541-4.287-10.303-7.188-17.274-8.701c-5.215-1.172-15.43-1.768-30.645-1.768
	L334.326,287.202L334.326,287.202z M466.621,306.88h37.705l32.031,95.088l31.278-95.088h36.699L557.04,435.767l-8.447,23.341
	c-3.104,7.813-6.074,13.778-8.887,17.899c-2.822,4.121-6.055,7.461-9.717,10.029c-3.652,2.567-8.154,4.561-13.496,5.996
	c-5.332,1.426-11.367,2.139-18.097,2.139c-6.74,0.008-13.461-0.71-20.049-2.139l-3.153-27.754c5.547,1.094,10.547,1.641,15.01,1.641
	c8.231,0,14.336-2.412,18.281-7.246c3.955-4.834,6.981-10.996,9.082-18.477L466.621,306.88L466.621,306.88z M859.785,109.204v7.588
	h-42.5c-0.068-1.904,0.244-3.73,0.918-5.479c1.084-2.9,2.813-5.752,5.195-8.555c2.383-2.813,5.83-6.055,10.332-9.746
	c6.991-5.732,11.709-10.264,14.17-13.613c2.45-3.35,3.682-6.514,3.682-9.502c0-3.125-1.113-5.771-3.35-7.92
	c-2.246-2.148-5.156-3.223-8.761-3.223c-3.799,0-6.836,1.143-9.121,3.428c-2.274,2.275-3.438,5.439-3.467,9.473l-8.114-0.84
	c0.557-6.045,2.646-10.664,6.278-13.838c3.623-3.174,8.486-4.756,14.601-4.756c6.172,0,11.055,1.709,14.657,5.127
	c3.595,3.428,5.392,7.666,5.392,12.725c0,2.578-0.527,5.107-1.572,7.588c-1.055,2.49-2.803,5.107-5.244,7.852
	c-2.44,2.754-6.504,6.523-12.178,11.318c-4.736,3.975-7.773,6.68-9.121,8.096s-2.461,2.842-3.34,4.277H859.785L859.785,109.204z
	 M830.439,171.763c-3.271-1.201-5.703-2.91-7.285-5.137c-1.572-2.217-2.363-4.883-2.363-7.979c0-4.678,1.68-8.613,5.039-11.807
	c3.369-3.184,7.842-4.775,13.428-4.775c5.615,0,10.137,1.631,13.555,4.893c3.418,3.262,5.138,7.227,5.138,11.904
	c0,2.988-0.791,5.586-2.354,7.793c-1.563,2.207-3.936,3.906-7.129,5.107c3.955,1.289,6.953,3.359,9.014,6.23
	c2.07,2.861,3.097,6.289,3.097,10.264c0,5.498-1.943,10.117-5.83,13.857c-3.896,3.75-9.014,5.615-15.361,5.615
	c-6.338,0-11.455-1.875-15.352-5.635c-3.888-3.76-5.83-8.447-5.83-14.063c0-4.18,1.055-7.676,3.184-10.498
	C823.506,174.712,826.523,172.788,830.439,171.763L830.439,171.763z M826.318,188.081c0,2.256,0.526,4.434,1.602,6.533
	c1.064,2.109,2.656,3.74,4.756,4.893c2.082,1.146,4.421,1.741,6.797,1.729c3.779,0,6.896-1.211,9.347-3.633
	c2.461-2.432,3.69-5.518,3.69-9.258c0-3.799-1.27-6.943-3.799-9.434c-2.529-2.48-5.693-3.73-9.502-3.73
	c-3.711,0-6.787,1.23-9.229,3.691C827.539,181.323,826.318,184.399,826.318,188.081L826.318,188.081z M828.857,158.384
	c0,3.037,0.985,5.527,2.938,7.451c1.963,1.934,4.502,2.9,7.637,2.9c3.037,0,5.537-0.957,7.48-2.871
	c1.943-1.914,2.92-4.268,2.92-7.041c0-2.9-1.006-5.332-3.008-7.305s-4.502-2.959-7.48-2.959c-3.018,0-5.518,0.957-7.5,2.891
	C829.854,153.384,828.857,155.688,828.857,158.384L828.857,158.384z M798.057,296.47h-7.891v-50.313
	c-1.904,1.807-4.395,3.623-7.48,5.438c-3.086,1.807-5.858,3.174-8.311,4.072v-7.627c4.414-2.08,8.271-4.59,11.582-7.549
	c3.301-2.949,5.645-5.82,7.012-8.594h5.088V296.47L798.057,296.47z M830.43,261.597c-3.271-1.201-5.703-2.91-7.285-5.137
	c-1.571-2.217-2.362-4.883-2.362-7.979c0-4.678,1.68-8.613,5.039-11.807c3.369-3.184,7.842-4.775,13.428-4.775
	c5.615,0,10.137,1.631,13.555,4.893s5.138,7.227,5.138,11.904c0,2.988-0.791,5.586-2.354,7.793
	c-1.563,2.207-3.936,3.906-7.129,5.107c3.955,1.289,6.953,3.359,9.014,6.23c2.07,2.861,3.097,6.289,3.097,10.264
	c0,5.498-1.943,10.117-5.83,13.857c-3.896,3.75-9.015,5.615-15.361,5.615c-6.338,0-11.455-1.875-15.352-5.635
	c-3.888-3.76-5.83-8.447-5.83-14.063c0-4.18,1.055-7.676,3.184-10.498C823.496,264.546,826.514,262.622,830.43,261.597
	L830.43,261.597z M826.309,277.915c0,2.256,0.527,4.434,1.603,6.533c1.063,2.109,2.656,3.74,4.756,4.893
	c2.082,1.146,4.421,1.741,6.797,1.729c3.779,0,6.896-1.211,9.346-3.633c2.462-2.432,3.691-5.518,3.691-9.258
	c0-3.799-1.271-6.943-3.799-9.434c-2.529-2.48-5.693-3.73-9.502-3.73c-3.711,0-6.787,1.23-9.229,3.691
	C827.529,271.157,826.309,274.233,826.309,277.915L826.309,277.915z M828.848,248.218c0,3.037,0.986,5.527,2.939,7.451
	c1.963,1.934,4.502,2.9,7.637,2.9c3.037,0,5.537-0.957,7.48-2.871c1.942-1.914,2.92-4.268,2.92-7.041c0-2.9-1.006-5.332-3.008-7.305
	s-4.502-2.959-7.48-2.959c-3.018,0-5.518,0.957-7.5,2.891C829.844,243.218,828.848,245.522,828.848,248.218L828.848,248.218z
	 M809.814,378.726v7.589h-42.5c-0.068-1.904,0.243-3.73,0.918-5.479c1.084-2.9,2.813-5.752,5.194-8.555
	c2.384-2.813,5.83-6.056,10.332-9.746c6.992-5.732,11.709-10.265,14.17-13.613c2.451-3.35,3.683-6.514,3.683-9.502
	c0-3.125-1.113-5.771-3.351-7.92c-2.246-2.148-5.155-3.223-8.76-3.223c-3.799,0-6.836,1.143-9.121,3.428
	c-2.274,2.274-3.438,5.438-3.467,9.473l-8.115-0.84c0.558-6.045,2.646-10.664,6.279-13.838c3.623-3.174,8.486-4.756,14.6-4.756
	c6.172,0,11.056,1.709,14.658,5.127c3.594,3.428,5.392,7.666,5.392,12.725c0,2.578-0.527,5.107-1.572,7.588
	c-1.056,2.49-2.803,5.107-5.244,7.853c-2.441,2.754-6.504,6.522-12.178,11.317c-4.736,3.976-7.773,6.681-9.121,8.097
	c-1.349,1.416-2.461,2.842-3.34,4.276H809.814L809.814,378.726z M830.43,351.439c-3.271-1.2-5.703-2.909-7.284-5.137
	c-1.572-2.217-2.363-4.883-2.363-7.979c0-4.679,1.68-8.613,5.039-11.808c3.369-3.184,7.842-4.774,13.428-4.774
	c5.615,0,10.137,1.631,13.555,4.893s5.138,7.228,5.138,11.904c0,2.988-0.791,5.586-2.354,7.793
	c-1.563,2.207-3.936,3.906-7.129,5.106c3.955,1.289,6.953,3.359,9.014,6.23c2.07,2.861,3.097,6.289,3.097,10.264
	c0,5.498-1.943,10.117-5.83,13.857c-3.896,3.75-9.015,5.615-15.361,5.615c-6.338,0-11.455-1.875-15.352-5.636
	c-3.888-3.76-5.83-8.446-5.83-14.063c0-4.18,1.055-7.676,3.184-10.498C823.496,354.39,826.514,352.466,830.43,351.439z
	 M826.309,367.759c0,2.256,0.527,4.435,1.603,6.533c1.063,2.109,2.656,3.74,4.756,4.893c2.082,1.146,4.421,1.741,6.797,1.729
	c3.779,0,6.896-1.211,9.347-3.633c2.461-2.433,3.69-5.519,3.69-9.258c0-3.8-1.27-6.943-3.799-9.435
	c-2.529-2.479-5.693-3.729-9.502-3.729c-3.711,0-6.787,1.229-9.229,3.69C827.529,361.001,826.309,364.077,826.309,367.759
	L826.309,367.759z M828.848,338.062c0,3.037,0.986,5.527,2.939,7.451c1.963,1.935,4.502,2.9,7.637,2.9
	c3.037,0,5.537-0.957,7.48-2.871c1.942-1.914,2.92-4.269,2.92-7.041c0-2.9-1.006-5.332-3.008-7.305
	c-2.002-1.974-4.502-2.959-7.48-2.959c-3.018,0-5.518,0.957-7.5,2.891C829.844,333.062,828.848,335.366,828.848,338.062
	L828.848,338.062z M830.439,441.274c-3.271-1.201-5.703-2.91-7.285-5.138c-1.572-2.217-2.363-4.883-2.363-7.979
	c0-4.679,1.68-8.613,5.039-11.808c3.369-3.184,7.842-4.774,13.428-4.774c5.615,0,10.138,1.631,13.556,4.893
	s5.137,7.228,5.137,11.904c0,2.988-0.791,5.586-2.354,7.793c-1.563,2.207-3.936,3.906-7.129,5.107
	c3.955,1.288,6.953,3.358,9.015,6.229c2.069,2.861,3.096,6.289,3.096,10.264c0,5.498-1.943,10.117-5.83,13.857
	c-3.896,3.75-9.014,5.615-15.361,5.615c-6.338,0-11.455-1.875-15.352-5.636c-3.887-3.76-5.83-8.446-5.83-14.063
	c0-4.18,1.055-7.676,3.184-10.498C823.506,444.224,826.523,442.3,830.439,441.274z M826.318,457.593
	c0,2.256,0.526,4.435,1.602,6.533c1.064,2.109,2.656,3.74,4.756,4.893c2.082,1.146,4.422,1.741,6.797,1.729
	c3.779,0,6.896-1.211,9.347-3.633c2.461-2.433,3.69-5.519,3.69-9.258c0-3.8-1.27-6.943-3.799-9.435
	c-2.529-2.479-5.693-3.729-9.502-3.729c-3.711,0-6.787,1.229-9.229,3.69C827.539,450.835,826.318,453.911,826.318,457.593
	L826.318,457.593z M828.857,427.896c0,3.037,0.985,5.527,2.938,7.451c1.963,1.935,4.502,2.9,7.638,2.9
	c3.036,0,5.536-0.957,7.479-2.871s2.92-4.268,2.92-7.041c0-2.9-1.006-5.332-3.008-7.305c-2.002-1.974-4.502-2.959-7.48-2.959
	c-3.018,0-5.518,0.957-7.5,2.891C829.854,422.896,828.857,425.2,828.857,427.896L828.857,427.896z M859.785,558.403v7.588h-42.5
	c-0.068-1.904,0.244-3.73,0.918-5.479c1.084-2.899,2.813-5.752,5.195-8.555c2.383-2.813,5.83-6.055,10.332-9.746
	c6.991-5.732,11.709-10.264,14.17-13.613c2.451-3.35,3.682-6.514,3.682-9.502c0-3.125-1.113-5.771-3.35-7.92
	c-2.246-2.147-5.156-3.223-8.761-3.223c-3.799,0-6.836,1.143-9.12,3.428c-2.275,2.275-3.438,5.439-3.468,9.473l-8.114-0.84
	c0.557-6.045,2.646-10.664,6.278-13.838c3.623-3.174,8.486-4.756,14.601-4.756c6.172,0,11.055,1.709,14.658,5.127
	c3.594,3.428,5.391,7.666,5.391,12.725c0,2.578-0.527,5.107-1.572,7.589c-1.055,2.489-2.803,5.106-5.244,7.852
	c-2.44,2.754-6.504,6.523-12.178,11.318c-4.736,3.975-7.773,6.68-9.121,8.096s-2.461,2.842-3.34,4.277H859.785L859.785,558.403z"/>
</svg>
