<?xml version="1.0" encoding="utf-8"?>
<!-- Generator: Adobe Illustrator 16.0.3, SVG Export Plug-In . SVG Version: 6.00 Build 0)  -->
<!DOCTYPE svg PUBLIC "-//W3C//DTD SVG 1.1//EN" "http://www.w3.org/Graphics/SVG/1.1/DTD/svg11.dtd">
<svg version="1.1" id="Layer_1" xmlns="http://www.w3.org/2000/svg" xmlns:xlink="http://www.w3.org/1999/xlink" x="0px" y="0px"
	 width="900px" height="900px" viewBox="0 0 900 900" enable-background="new 0 0 900 900" xml:space="preserve">
<path d="M111.851,78.44l-13.76,1.074c-1.23-5.43-2.969-9.375-5.225-11.836c-3.75-3.945-8.359-5.918-13.838-5.918
	c-4.414,0-8.281,1.23-11.611,3.691c-4.355,3.174-7.793,7.813-10.303,13.916c-2.51,6.094-3.818,14.785-3.926,26.055
	c3.33-5.068,7.412-8.838,12.227-11.299s9.863-3.691,15.146-3.691c9.229,0,17.08,3.398,23.564,10.186
	c6.484,6.797,9.727,15.566,9.727,26.338c0,7.07-1.523,13.643-4.58,19.717c-3.047,6.074-7.236,10.723-12.568,13.955
	c-5.332,3.223-11.377,4.844-18.145,4.844c-11.533,0-20.938-4.238-28.213-12.725c-7.275-8.487-10.918-22.461-10.918-41.943
	c0-21.777,4.023-37.617,12.07-47.51c7.021-8.613,16.475-12.91,28.369-12.91c8.867,0,16.133,2.48,21.797,7.451
	S110.728,69.68,111.851,78.44L111.851,78.44z M55.347,127.034c0,4.766,1.006,9.326,3.037,13.682
	c2.021,4.355,4.854,7.676,8.496,9.951c3.633,2.285,7.451,3.428,11.455,3.428c5.84,0,10.859-2.363,15.068-7.08
	c4.199-4.707,6.299-11.113,6.299-19.219c0-7.783-2.07-13.926-6.221-18.408c-4.16-4.482-9.385-6.729-15.684-6.729
	c-6.26,0-11.563,2.246-15.918,6.729C57.524,113.871,55.347,119.749,55.347,127.034z M128.54,65.598V52.297h72.959v10.771
	c-7.178,7.637-14.287,17.783-21.338,30.439c-7.051,12.656-12.49,25.684-16.338,39.053c-2.764,9.434-4.531,19.766-5.303,30.986
	h-14.219c0.146-8.867,1.895-19.58,5.225-32.139c3.33-12.559,8.105-24.658,14.336-36.328c6.23-11.65,12.852-21.484,19.873-29.482
	L128.54,65.598L128.54,65.598z M253.12,662.469v-74.102h9.805v30.43h38.516v-30.43h9.805v74.102h-9.805v-34.922h-38.516v34.922
	H253.12z M323.022,635.633c0-9.94,2.764-17.305,8.291-22.09c4.609-3.984,10.244-5.977,16.885-5.977
	c7.373,0,13.408,2.422,18.086,7.266c4.688,4.824,7.031,11.504,7.031,20.039c0,6.895-1.035,12.344-3.105,16.289
	c-2.08,3.965-5.088,7.051-9.053,9.238c-3.955,2.188-8.281,3.28-12.959,3.28c-7.52,0-13.594-2.401-18.223-7.227
	C325.337,651.629,323.022,644.695,323.022,635.633L323.022,635.633z M332.368,635.633c0,6.875,1.504,12.012,4.502,15.43
	s6.777,5.138,11.328,5.138c4.512,0,8.271-1.719,11.27-5.156c2.999-3.437,4.492-8.672,4.492-15.723c0-6.642-1.504-11.66-4.521-15.078
	c-3.018-3.438-6.768-5.138-11.24-5.138c-4.551,0-8.33,1.699-11.328,5.099C333.872,623.621,332.368,628.758,332.368,635.633
	L332.368,635.633z M383.774,662.469v-74.102h9.102v74.102H383.774z M406.979,662.469v-53.69h8.135v7.539
	c1.688-2.638,3.926-4.746,6.719-6.349c2.803-1.602,5.986-2.401,9.561-2.401c3.976,0,7.236,0.84,9.775,2.479
	c2.549,1.66,4.336,3.965,5.381,6.935c4.248-6.271,9.775-9.414,16.582-9.414c5.322,0,9.414,1.483,12.285,4.434
	c2.861,2.949,4.297,7.48,4.297,13.613v36.854h-9.053v-33.828c0-3.633-0.293-6.25-0.879-7.852c-0.596-1.602-1.66-2.891-3.213-3.867
	c-1.554-0.976-3.369-1.465-5.459-1.465c-3.771,0-6.904,1.25-9.404,3.77c-2.49,2.5-3.74,6.523-3.74,12.052v31.19h-9.092v-34.883
	c0-4.043-0.742-7.07-2.227-9.102c-1.484-2.013-3.906-3.027-7.275-3.027c-2.568,0-4.932,0.684-7.109,2.031
	c-2.168,1.348-3.739,3.301-4.727,5.897c-0.978,2.599-1.465,6.349-1.465,11.23v27.852L406.979,662.469L406.979,662.469z
	 M493.257,598.836v-10.469h9.103v10.469H493.257z M493.257,662.469v-53.69h9.103v53.69H493.257z M551.382,662.469v-7.891
	c-4.18,6.074-9.854,9.102-17.031,9.102c-3.174,0-6.122-0.604-8.877-1.815c-2.743-1.211-4.784-2.734-6.112-4.59
	c-1.328-1.837-2.267-4.082-2.804-6.738c-0.37-1.777-0.557-4.609-0.557-8.496v-33.262h9.103v29.784c0,4.746,0.186,7.949,0.557,9.591
	c0.565,2.401,1.777,4.276,3.633,5.645c1.856,1.368,4.15,2.051,6.875,2.051c2.734,0,5.293-0.702,7.686-2.108
	c2.394-1.387,4.082-3.301,5.078-5.703s1.494-5.898,1.494-10.488v-28.77h9.092v53.69L551.382,662.469L551.382,662.469z
	 M573.774,662.469v-53.69h8.135v7.539c1.688-2.638,3.926-4.746,6.719-6.349c2.803-1.602,5.986-2.401,9.562-2.401
	c3.975,0,7.235,0.84,9.774,2.479c2.549,1.66,4.336,3.965,5.381,6.935c4.248-6.271,9.775-9.414,16.582-9.414
	c5.322,0,9.414,1.483,12.285,4.434c2.861,2.949,4.297,7.48,4.297,13.613v36.854h-9.053v-33.828c0-3.633-0.293-6.25-0.879-7.852
	c-0.597-1.602-1.66-2.891-3.213-3.867c-1.554-0.976-3.369-1.465-5.459-1.465c-3.771,0-6.904,1.25-9.404,3.77
	c-2.49,2.5-3.74,6.523-3.74,12.052v31.19h-9.092v-34.883c0-4.043-0.742-7.07-2.227-9.102c-1.484-2.013-3.906-3.027-7.275-3.027
	c-2.568,0-4.932,0.684-7.109,2.031c-2.168,1.348-3.739,3.301-4.727,5.897c-0.978,2.599-1.465,6.349-1.465,11.23v27.852
	L573.774,662.469L573.774,662.469z M94.526,848.289h-9.102V790.32c-2.188,2.09-5.059,4.18-8.613,6.27s-6.748,3.652-9.58,4.707
	v-8.809c5.088-2.383,9.541-5.293,13.35-8.691c3.799-3.397,6.504-6.699,8.086-9.902h5.859V848.289z M165.034,792.332l-9.043,0.723
	c-0.811-3.573-1.953-6.172-3.438-7.793c-2.461-2.598-5.498-3.887-9.102-3.887c-2.9,0-5.439,0.801-7.627,2.422
	c-2.871,2.09-5.127,5.137-6.777,9.141c-1.65,4.023-2.51,9.728-2.578,17.148c2.188-3.34,4.873-5.82,8.037-7.441
	c3.164-1.602,6.484-2.422,9.961-2.422c6.064,0,11.221,2.228,15.488,6.699c4.258,4.473,6.396,10.234,6.396,17.305
	c0,4.648-1.006,8.984-3.008,12.97c-2.012,4.004-4.766,7.051-8.262,9.18c-3.506,2.129-7.49,3.184-11.934,3.184
	c-7.578,0-13.77-2.793-18.545-8.358c-4.795-5.586-7.178-14.767-7.178-27.578c0-14.316,2.637-24.727,7.93-31.23
	c4.619-5.664,10.83-8.495,18.652-8.495c5.83,0,10.605,1.641,14.326,4.901C162.065,782.059,164.292,786.57,165.034,792.332
	L165.034,792.332z M127.886,824.285c0,3.125,0.664,6.133,1.992,9.004c1.338,2.852,3.193,5.039,5.586,6.543s4.902,2.246,7.529,2.246
	c3.848,0,7.148-1.543,9.912-4.648c2.764-3.104,4.141-7.323,4.141-12.637c0-5.117-1.357-9.16-4.092-12.109
	c-2.725-2.948-6.162-4.414-10.313-4.414c-4.111,0-7.598,1.466-10.459,4.414C129.321,815.633,127.886,819.5,127.886,824.285
	L127.886,824.285z M204.556,848.289v-17.734h-32.139v-8.34l33.809-48.026h7.432v48.026h10.01v8.34h-10.01v17.734H204.556
	L204.556,848.289z M204.556,822.215v-33.418l-23.193,33.418H204.556z M238.081,848.289v-10.352h10.361v10.352H238.081z
	 M263.101,831.16l8.74-0.801c0.742,4.102,2.158,7.09,4.248,8.944c2.09,1.855,4.766,2.773,8.037,2.773
	c2.793,0,5.244-0.646,7.354-1.914c2.109-1.289,3.828-2.988,5.176-5.137c1.348-2.149,2.48-5.039,3.389-8.673
	c0.909-3.633,1.367-7.344,1.367-11.112c0-0.41-0.02-1.017-0.049-1.816c-1.826,2.892-4.307,5.234-7.461,7.052
	c-3.145,1.797-6.563,2.694-10.234,2.694c-6.133,0-11.318-2.227-15.566-6.68c-4.248-4.435-6.367-10.293-6.367-17.578
	c0-7.521,2.217-13.574,6.65-18.146c4.424-4.59,9.98-6.875,16.65-6.875c4.814,0,9.229,1.289,13.213,3.888
	c3.994,2.598,7.031,6.289,9.102,11.094c2.071,4.805,3.105,11.758,3.105,20.859c0,9.473-1.025,17.012-3.076,22.616
	c-2.061,5.605-5.117,9.884-9.18,12.813s-8.818,4.396-14.277,4.396c-5.791,0-10.527-1.603-14.199-4.824
	C266.051,841.512,263.843,836.98,263.101,831.16L263.101,831.16z M300.347,798.465c0-5.233-1.387-9.375-4.17-12.44
	c-2.773-3.066-6.123-4.609-10.029-4.609c-4.043,0-7.568,1.66-10.566,4.961s-4.502,7.578-4.502,12.832
	c0,4.727,1.426,8.555,4.277,11.504c2.842,2.949,6.357,4.435,10.537,4.435c4.209,0,7.676-1.484,10.391-4.435
	C298.989,807.762,300.347,803.68,300.347,798.465L300.347,798.465z M319.351,828.738l9.102-1.211
	c1.045,5.155,2.822,8.867,5.332,11.133c2.51,2.285,5.566,3.418,9.17,3.418c4.277,0,7.891-1.484,10.84-4.453
	c2.949-2.969,4.424-6.641,4.424-11.016c0-4.181-1.357-7.617-4.092-10.332c-2.725-2.715-6.201-4.082-10.41-4.082
	c-1.719,0-3.857,0.352-6.416,1.016l1.006-7.988c0.605,0.078,1.094,0.117,1.465,0.117c3.877,0,7.363-1.016,10.469-3.047
	c3.096-2.012,4.648-5.137,4.648-9.354c0-3.32-1.133-6.095-3.389-8.281c-2.256-2.188-5.176-3.281-8.74-3.281
	c-3.545,0-6.494,1.113-8.848,3.34c-2.363,2.228-3.877,5.548-4.551,10l-9.102-1.62c1.113-6.095,3.643-10.82,7.588-14.181
	c3.936-3.34,8.838-5.02,14.707-5.02c4.043,0,7.764,0.858,11.172,2.598c3.398,1.738,6.006,4.103,7.803,7.109
	c1.807,2.987,2.705,6.172,2.705,9.551c0,3.203-0.859,6.113-2.578,8.75c-1.719,2.617-4.258,4.707-7.627,6.25
	c4.375,1.016,7.783,3.125,10.205,6.309c2.432,3.185,3.643,7.168,3.643,11.953c0,6.465-2.363,11.953-7.08,16.445
	c-4.717,4.492-10.684,6.758-17.891,6.758c-6.504,0-11.904-1.953-16.201-5.82C322.408,839.932,319.956,834.892,319.351,828.738
	L319.351,828.738z M290.181,440.784V255.891h37.334v72.773h73.145v-72.773h37.334v184.893H400.66v-80.84h-73.145v80.84H290.181
	L290.181,440.784z M468.13,371.926c0-11.776,2.9-23.164,8.701-34.18s14.022-19.424,24.658-25.225
	c10.635-5.802,22.51-8.702,35.625-8.702c20.264,0,36.864,6.583,49.813,19.736c12.949,13.164,19.424,29.785,19.424,49.884
	c0,20.264-6.532,37.061-19.608,50.381c-13.076,13.33-29.531,19.989-49.375,19.989c-12.275,0-23.984-2.772-35.127-8.319
	c-11.144-5.558-19.609-13.691-25.41-24.404C471.03,400.364,468.13,387.307,468.13,371.926z M504.448,373.811
	c0,13.291,3.153,23.468,9.463,30.527c6.309,7.061,14.082,10.596,23.33,10.596s17.002-3.534,23.271-10.596
	c6.26-7.061,9.396-17.324,9.396-30.771c0-13.115-3.136-23.213-9.396-30.273c-6.27-7.061-14.022-10.596-23.271-10.596
	s-17.021,3.535-23.33,10.596C507.602,350.355,504.448,360.53,504.448,373.811L504.448,373.811z M859.78,109.172v7.588h-42.5
	c-0.068-1.904,0.244-3.73,0.918-5.479c1.084-2.9,2.813-5.752,5.194-8.555c2.384-2.813,5.83-6.055,10.332-9.746
	c6.992-5.732,11.709-10.264,14.17-13.613c2.451-3.35,3.683-6.514,3.683-9.502c0-3.125-1.113-5.771-3.351-7.92
	c-2.245-2.148-5.155-3.223-8.76-3.223c-3.799,0-6.836,1.143-9.121,3.428c-2.274,2.275-3.438,5.439-3.467,9.473l-8.115-0.84
	c0.558-6.045,2.646-10.664,6.279-13.838c3.623-3.174,8.486-4.756,14.6-4.756c6.173,0,11.056,1.709,14.658,5.127
	c3.595,3.428,5.392,7.666,5.392,12.725c0,2.578-0.527,5.107-1.572,7.588c-1.055,2.49-2.803,5.107-5.244,7.852
	c-2.44,2.754-6.504,6.523-12.178,11.318c-4.736,3.975-7.773,6.68-9.121,8.096s-2.461,2.842-3.34,4.277H859.78z M830.436,171.731
	c-3.271-1.201-5.703-2.91-7.285-5.137c-1.572-2.217-2.363-4.883-2.363-7.979c0-4.678,1.68-8.613,5.039-11.807
	c3.369-3.184,7.842-4.775,13.428-4.775c5.615,0,10.137,1.631,13.555,4.893c3.418,3.262,5.138,7.227,5.138,11.904
	c0,2.988-0.791,5.586-2.354,7.793c-1.563,2.207-3.936,3.906-7.129,5.107c3.955,1.289,6.953,3.359,9.014,6.23
	c2.07,2.861,3.097,6.289,3.097,10.264c0,5.498-1.943,10.117-5.83,13.857c-3.896,3.75-9.014,5.615-15.361,5.615
	c-6.338,0-11.455-1.875-15.352-5.635c-3.888-3.76-5.83-8.447-5.83-14.063c0-4.18,1.055-7.676,3.184-10.498
	C823.501,174.68,826.52,172.756,830.436,171.731L830.436,171.731z M826.313,188.049c0,2.256,0.526,4.434,1.602,6.533
	c1.064,2.109,2.656,3.74,4.756,4.893c2.082,1.145,4.421,1.74,6.797,1.729c3.779,0,6.896-1.211,9.347-3.633
	c2.461-2.432,3.69-5.518,3.69-9.258c0-3.799-1.27-6.943-3.799-9.434c-2.529-2.48-5.693-3.73-9.502-3.73
	c-3.711,0-6.787,1.23-9.229,3.691C827.534,181.292,826.313,184.368,826.313,188.049L826.313,188.049z M828.854,158.352
	c0,3.037,0.985,5.527,2.938,7.451c1.963,1.934,4.502,2.9,7.637,2.9c3.037,0,5.537-0.957,7.48-2.871
	c1.942-1.914,2.92-4.268,2.92-7.041c0-2.9-1.006-5.332-3.008-7.305c-2.002-1.973-4.502-2.959-7.48-2.959
	c-3.018,0-5.518,0.957-7.5,2.891C829.849,153.352,828.854,155.657,828.854,158.352L828.854,158.352z M798.052,296.438h-7.891
	v-50.313c-1.904,1.807-4.396,3.623-7.48,5.439c-3.086,1.807-5.858,3.174-8.311,4.072v-7.627c4.414-2.08,8.271-4.59,11.582-7.549
	c3.301-2.949,5.645-5.82,7.012-8.594h5.088V296.438L798.052,296.438z M830.425,261.565c-3.271-1.201-5.703-2.91-7.285-5.137
	c-1.571-2.217-2.362-4.883-2.362-7.979c0-4.678,1.68-8.613,5.039-11.807c3.369-3.184,7.842-4.775,13.428-4.775
	c5.615,0,10.137,1.631,13.555,4.893c3.418,3.262,5.137,7.227,5.137,11.904c0,2.988-0.791,5.586-2.354,7.793
	s-3.936,3.906-7.129,5.107c3.955,1.289,6.953,3.359,9.014,6.23c2.07,2.861,3.096,6.289,3.096,10.264
	c0,5.498-1.942,10.117-5.829,13.857c-3.896,3.75-9.015,5.615-15.361,5.615c-6.338,0-11.455-1.875-15.353-5.635
	c-3.887-3.76-5.83-8.447-5.83-14.063c0-4.18,1.056-7.676,3.185-10.498C823.491,264.514,826.509,262.59,830.425,261.565
	L830.425,261.565z M826.304,277.883c0,2.256,0.527,4.434,1.603,6.533c1.063,2.109,2.656,3.74,4.756,4.893
	c2.081,1.145,4.421,1.74,6.797,1.729c3.779,0,6.895-1.211,9.346-3.633c2.461-2.432,3.691-5.518,3.691-9.258
	c0-3.799-1.271-6.943-3.799-9.434c-2.529-2.48-5.693-3.73-9.502-3.73c-3.711,0-6.787,1.23-9.229,3.691
	C827.523,271.125,826.304,274.202,826.304,277.883L826.304,277.883z M828.843,248.186c0,3.037,0.986,5.527,2.939,7.451
	c1.963,1.934,4.502,2.9,7.637,2.9c3.037,0,5.537-0.957,7.48-2.871c1.942-1.914,2.92-4.268,2.92-7.041c0-2.9-1.006-5.332-3.009-7.305
	c-2.002-1.973-4.502-2.959-7.479-2.959c-3.018,0-5.518,0.957-7.5,2.891C829.839,243.186,828.843,245.491,828.843,248.186
	L828.843,248.186z M809.81,378.694v7.588h-42.5c-0.067-1.904,0.244-3.73,0.919-5.479c1.084-2.899,2.813-5.752,5.194-8.555
	c2.383-2.813,5.83-6.055,10.332-9.746c6.992-5.732,11.709-10.264,14.17-13.613c2.451-3.35,3.683-6.514,3.683-9.502
	c0-3.125-1.113-5.771-3.351-7.92c-2.246-2.147-5.156-3.223-8.76-3.223c-3.799,0-6.836,1.143-9.121,3.428
	c-2.275,2.275-3.438,5.439-3.467,9.473l-8.115-0.84c0.558-6.045,2.646-10.664,6.279-13.838c3.623-3.174,8.485-4.756,14.6-4.756
	c6.172,0,11.056,1.709,14.658,5.127c3.594,3.428,5.391,7.666,5.391,12.725c0,2.578-0.526,5.107-1.571,7.589
	c-1.056,2.489-2.804,5.106-5.244,7.852c-2.441,2.754-6.504,6.523-12.178,11.318c-4.736,3.975-7.773,6.68-9.121,8.096
	c-1.349,1.416-2.461,2.842-3.341,4.277H809.81L809.81,378.694z M819.458,371.409l7.588-0.703c0.646,3.574,1.875,6.162,3.691,7.764
	c1.807,1.611,4.131,2.412,6.973,2.412c2.422,0,4.551-0.547,6.377-1.66c1.826-1.112,3.33-2.598,4.502-4.453
	c1.172-1.854,2.148-4.364,2.939-7.528c0.79-3.155,1.187-6.396,1.182-9.648c0-0.352-0.02-0.879-0.039-1.572
	c-1.582,2.511-3.74,4.552-6.475,6.113c-2.735,1.563-5.693,2.344-8.888,2.344c-5.321,0-9.823-1.924-13.506-5.78
	c-3.69-3.867-5.526-8.955-5.526-15.273c0-6.514,1.924-11.768,5.771-15.742c3.838-3.975,8.662-5.967,14.453-5.967
	c4.18,0,7.998,1.123,11.465,3.379c3.467,2.246,6.104,5.459,7.9,9.629c1.797,4.16,2.695,10.195,2.695,18.097
	c0,8.213-0.89,14.756-2.677,19.629c-1.786,4.862-4.434,8.573-7.959,11.112c-3.524,2.55-7.655,3.818-12.393,3.818
	c-5.029,0-9.141-1.396-12.324-4.188C822.018,380.393,820.104,376.467,819.458,371.409L819.458,371.409z M851.792,343.03
	c0-4.531-1.211-8.136-3.623-10.791c-2.412-2.666-5.313-3.994-8.711-3.994c-3.506,0-6.563,1.436-9.16,4.297
	c-2.606,2.871-3.906,6.582-3.906,11.143c0,4.103,1.23,7.423,3.701,9.98c2.472,2.558,5.527,3.838,9.15,3.838
	c3.651,0,6.66-1.279,9.014-3.838C850.611,351.106,851.792,347.561,851.792,343.03L851.792,343.03z M830.435,441.243
	c-3.271-1.201-5.702-2.91-7.284-5.137c-1.572-2.218-2.363-4.884-2.363-7.979c0-4.678,1.68-8.613,5.039-11.807
	c3.369-3.185,7.842-4.775,13.428-4.775c5.615,0,10.137,1.631,13.555,4.893c3.418,3.263,5.138,7.228,5.138,11.904
	c0,2.988-0.791,5.586-2.354,7.793c-1.563,2.207-3.936,3.906-7.129,5.107c3.955,1.289,6.953,3.358,9.014,6.229
	c2.07,2.861,3.097,6.289,3.097,10.264c0,5.493-1.943,10.123-5.83,13.854c-3.896,3.75-9.015,5.625-15.361,5.625
	c-6.338,0-11.455-1.875-15.352-5.645c-3.888-3.75-5.83-8.438-5.83-14.06c0-4.18,1.055-7.675,3.184-10.498
	C823.501,444.192,826.519,442.268,830.435,441.243L830.435,441.243z M826.313,457.561c0,2.252,0.527,4.439,1.603,6.529
	c1.063,2.109,2.656,3.75,4.756,4.902c2.109,1.151,4.375,1.719,6.797,1.719c3.779,0,6.896-1.211,9.347-3.633
	c2.461-2.422,3.69-5.508,3.69-9.254c0-3.799-1.27-6.943-3.799-9.434c-2.529-2.479-5.693-3.729-9.502-3.729
	c-3.711,0-6.787,1.229-9.229,3.69C827.534,450.803,826.313,453.879,826.313,457.561L826.313,457.561z M828.853,427.864
	c0,3.037,0.986,5.526,2.939,7.451c1.963,1.934,4.502,2.899,7.637,2.899c3.037,0,5.537-0.957,7.48-2.871
	c1.942-1.914,2.92-4.268,2.92-7.041c0-2.899-1.006-5.332-3.008-7.305s-4.502-2.959-7.48-2.959c-3.018,0-5.518,0.957-7.5,2.891
	C829.849,422.864,828.854,425.168,828.853,427.864L828.853,427.864z M859.78,558.367v7.598h-42.5
	c-0.068-1.914,0.244-3.729,0.918-5.488c1.084-2.891,2.813-5.741,5.194-8.555c2.383-2.813,5.83-6.055,10.332-9.746
	c6.992-5.723,11.709-10.254,14.17-13.612c2.451-3.341,3.683-6.505,3.683-9.492c0-3.125-1.113-5.781-3.351-7.931
	c-2.245-2.147-5.155-3.223-8.76-3.223c-3.799,0-6.836,1.152-9.121,3.438c-2.274,2.266-3.438,5.43-3.467,9.473l-8.115-0.84
	c0.558-6.056,2.646-10.664,6.279-13.849c3.623-3.163,8.486-4.745,14.6-4.745c6.173,0,11.056,1.698,14.658,5.116
	c3.594,3.438,5.392,7.677,5.392,12.734c0,2.578-0.527,5.098-1.572,7.578c-1.055,2.5-2.803,5.117-5.244,7.852
	c-2.441,2.754-6.504,6.523-12.178,11.328c-4.736,3.965-7.773,6.68-9.121,8.086c-1.349,1.426-2.461,2.853-3.34,4.277H859.78
	L859.78,558.367z"/>
</svg>
