<?xml version="1.0" encoding="utf-8"?>
<!-- Generator: Adobe Illustrator 16.0.3, SVG Export Plug-In . SVG Version: 6.00 Build 0)  -->
<!DOCTYPE svg PUBLIC "-//W3C//DTD SVG 1.1//EN" "http://www.w3.org/Graphics/SVG/1.1/DTD/svg11.dtd">
<svg version="1.1" id="Layer_1" xmlns="http://www.w3.org/2000/svg" xmlns:xlink="http://www.w3.org/1999/xlink" x="0px" y="0px"
	 width="900px" height="900px" viewBox="0 0 900 900" enable-background="new 0 0 900 900" xml:space="preserve">
<path d="M111.846,78.469l-13.76,1.074c-1.23-5.43-2.969-9.375-5.225-11.836c-3.75-3.945-8.359-5.918-13.838-5.918
	c-4.414,0-8.281,1.23-11.611,3.691c-4.355,3.174-7.793,7.813-10.303,13.916c-2.51,6.094-3.818,14.785-3.926,26.055
	c3.33-5.068,7.412-8.838,12.227-11.299s9.863-3.691,15.146-3.691c9.229,0,17.08,3.398,23.564,10.186
	c6.484,6.797,9.727,15.566,9.727,26.338c0,7.07-1.523,13.643-4.58,19.717c-3.047,6.074-7.236,10.723-12.568,13.955
	c-5.332,3.223-11.377,4.844-18.145,4.844c-11.533,0-20.938-4.238-28.213-12.725c-7.275-8.487-10.918-22.461-10.918-41.943
	c0-21.777,4.023-37.617,12.07-47.51c7.021-8.613,16.475-12.91,28.369-12.91c8.867,0,16.133,2.48,21.797,7.451
	C107.323,62.835,110.723,69.709,111.846,78.469L111.846,78.469z M55.342,127.063c0,4.766,1.006,9.326,3.037,13.682
	c2.021,4.355,4.854,7.676,8.496,9.951c3.633,2.285,7.451,3.428,11.455,3.428c5.84,0,10.859-2.363,15.068-7.08
	c4.199-4.707,6.299-11.113,6.299-19.219c0-7.783-2.07-13.926-6.221-18.408c-4.16-4.482-9.385-6.729-15.684-6.729
	c-6.26,0-11.563,2.246-15.918,6.729S55.342,119.778,55.342,127.063L55.342,127.063z M148.906,102.454
	c-5.742-2.1-10-5.098-12.764-8.994s-4.15-8.555-4.15-13.994c0-8.193,2.949-15.088,8.838-20.674
	c5.898-5.586,13.74-8.379,23.525-8.379c9.844,0,17.764,2.852,23.76,8.564c5.996,5.723,8.994,12.676,8.994,20.879
	c0,5.225-1.377,9.775-4.111,13.643c-2.744,3.867-6.914,6.855-12.5,8.955c6.924,2.256,12.188,5.898,15.801,10.918
	c3.613,5.029,5.42,11.025,5.42,17.988c0,9.639-3.408,17.734-10.225,24.297c-6.817,6.563-15.781,9.844-26.904,9.844
	s-20.098-3.291-26.914-9.883c-6.816-6.582-10.225-14.795-10.225-24.639c0-7.324,1.865-13.467,5.576-18.408
	C136.748,107.62,142.041,104.25,148.906,102.454L148.906,102.454z M141.68,131.057c0,3.945,0.938,7.764,2.803,11.455
	c1.875,3.691,4.648,6.543,8.34,8.574c3.691,2.021,7.666,3.037,11.924,3.037c6.611,0,12.07-2.129,16.367-6.387
	c4.307-4.248,6.465-9.658,6.465-16.221c0-6.66-2.217-12.168-6.65-16.523c-4.433-4.355-9.98-6.543-16.65-6.543
	c-6.504,0-11.904,2.158-16.182,6.465C143.819,119.221,141.68,124.602,141.68,131.057L141.68,131.057z M146.133,79.006
	c0,5.332,1.719,9.688,5.156,13.076c3.428,3.379,7.891,5.068,13.379,5.068c5.332,0,9.697-1.68,13.105-5.039
	c3.408-3.35,5.117-7.461,5.117-12.334c0-5.078-1.758-9.346-5.273-12.803c-3.506-3.457-7.881-5.186-13.105-5.186
	c-5.283,0-9.658,1.689-13.145,5.068C147.881,70.247,146.133,74.29,146.133,79.006L146.133,79.006z M293.262,662.498v-74.102h53.584
	v8.75h-43.77v22.694h40.986v8.691h-40.986v25.215h45.488v8.75L293.262,662.498L293.262,662.498z M360.84,662.498v-53.691h8.193
	v8.146c2.09-3.81,4.014-6.31,5.781-7.539c1.777-1.211,3.721-1.816,5.84-1.816c3.066,0,6.182,0.978,9.355,2.931l-3.135,8.457
	c-2.227-1.328-4.453-1.974-6.67-1.974c-1.992,0-3.779,0.586-5.361,1.797c-1.582,1.191-2.715,2.853-3.389,4.962
	c-1.006,3.241-1.514,6.776-1.514,10.625v28.104L360.84,662.498L360.84,662.498z M403.809,662.498h-8.438v-74.102h9.092v26.426
	c3.848-4.805,8.75-7.228,14.707-7.228c3.301,0,6.426,0.664,9.375,2.013c2.949,1.328,5.381,3.184,7.285,5.604
	c1.904,2.402,3.389,5.313,4.473,8.711c1.074,3.398,1.611,7.052,1.611,10.918c0,9.199-2.266,16.31-6.816,21.328
	c-4.55,5.02-10.01,7.539-16.377,7.539c-6.338,0-11.309-2.656-14.912-7.93V662.498L403.809,662.498z M403.711,635.252
	c0,6.426,0.869,11.094,2.627,13.945c2.861,4.688,6.738,7.031,11.621,7.031c3.975,0,7.412-1.738,10.313-5.177
	c2.899-3.457,4.346-8.612,4.346-15.448c0-7.013-1.387-12.188-4.17-15.509c-2.783-3.34-6.144-5.02-10.078-5.02
	c-3.984,0-7.422,1.738-10.313,5.195C405.156,623.709,403.711,628.709,403.711,635.252z M453.037,598.865v-10.469h9.102v10.469
	H453.037z M453.037,662.498v-53.691h9.102v53.691H453.037z M511.162,662.498v-7.891c-4.18,6.073-9.854,9.102-17.031,9.102
	c-3.174,0-6.123-0.604-8.877-1.816c-2.744-1.211-4.785-2.733-6.113-4.59c-1.328-1.836-2.266-4.082-2.803-6.737
	c-0.371-1.777-0.557-4.609-0.557-8.496v-33.263h9.102v29.785c0,4.746,0.187,7.949,0.557,9.59c0.566,2.402,1.777,4.277,3.634,5.646
	c1.855,1.368,4.149,2.051,6.875,2.051c2.733,0,5.293-0.703,7.686-2.108c2.394-1.388,4.082-3.302,5.078-5.703
	c0.996-2.402,1.494-5.898,1.494-10.488v-28.77h9.092v53.69L511.162,662.498L511.162,662.498z M533.555,662.498v-53.691h8.136v7.539
	c1.688-2.637,3.926-4.746,6.719-6.348c2.803-1.602,5.985-2.402,9.561-2.402c3.976,0,7.236,0.841,9.775,2.48
	c2.549,1.66,4.336,3.965,5.381,6.934c4.248-6.27,9.775-9.414,16.582-9.414c5.322,0,9.414,1.484,12.285,4.435
	c2.86,2.949,4.297,7.479,4.297,13.612v36.855h-9.053V628.67c0-3.633-0.293-6.25-0.879-7.852c-0.597-1.603-1.66-2.892-3.214-3.867
	c-1.553-0.977-3.368-1.465-5.459-1.465c-3.77,0-6.903,1.25-9.403,3.77c-2.49,2.5-3.74,6.523-3.74,12.051v31.191h-9.092v-34.883
	c0-4.043-0.742-7.07-2.228-9.103c-1.483-2.012-3.905-3.026-7.274-3.026c-2.568,0-4.933,0.684-7.109,2.03
	c-2.168,1.349-3.74,3.302-4.727,5.898c-0.978,2.598-1.466,6.348-1.466,11.229v27.853L533.555,662.498L533.555,662.498z
	 M94.531,848.318H85.43V790.35c-2.188,2.091-5.059,4.181-8.613,6.271c-3.554,2.09-6.748,3.651-9.58,4.707v-8.81
	c5.088-2.383,9.541-5.293,13.35-8.69c3.799-3.398,6.504-6.699,8.086-9.902h5.859L94.531,848.318L94.531,848.318z M165.039,792.361
	l-9.043,0.723c-0.811-3.574-1.953-6.172-3.438-7.793c-2.461-2.598-5.498-3.887-9.102-3.887c-2.9,0-5.439,0.801-7.627,2.422
	c-2.871,2.09-5.127,5.137-6.777,9.141c-1.65,4.023-2.51,9.728-2.578,17.148c2.188-3.34,4.873-5.82,8.037-7.441
	c3.164-1.602,6.484-2.422,9.961-2.422c6.064,0,11.221,2.227,15.488,6.699c4.258,4.473,6.396,10.233,6.396,17.305
	c0,4.648-1.006,8.984-3.008,12.969c-2.012,4.004-4.766,7.052-8.262,9.181c-3.506,2.129-7.49,3.184-11.934,3.184
	c-7.578,0-13.77-2.793-18.545-8.359c-4.795-5.586-7.178-14.766-7.178-27.577c0-14.316,2.637-24.728,7.93-31.23
	c4.619-5.664,10.83-8.496,18.652-8.496c5.83,0,10.605,1.642,14.326,4.902C162.07,782.088,164.297,786.6,165.039,792.361
	L165.039,792.361z M127.891,824.314c0,3.125,0.664,6.133,1.992,9.004c1.338,2.852,3.193,5.039,5.586,6.543
	c2.393,1.504,4.902,2.246,7.529,2.246c3.848,0,7.148-1.543,9.912-4.648c2.764-3.105,4.141-7.324,4.141-12.637
	c0-5.117-1.357-9.16-4.092-12.109c-2.725-2.949-6.162-4.414-10.313-4.414c-4.111,0-7.598,1.465-10.459,4.414
	S127.891,819.529,127.891,824.314L127.891,824.314z M176.006,783.924v-8.729h47.969v7.069c-4.717,5.021-9.395,11.699-14.023,20.021
	c-4.639,8.319-8.213,16.875-10.742,25.664c-1.826,6.211-2.988,12.987-3.486,20.371h-9.355c0.098-5.82,1.25-12.871,3.438-21.113
	c2.188-8.262,5.332-16.23,9.424-23.887c4.102-7.677,8.447-14.142,13.066-19.396H176.006L176.006,783.924z M238.086,848.318v-10.353
	h10.361v10.353H238.086L238.086,848.318z M309.551,839.588v8.73h-48.975c-0.076-2.154,0.286-4.3,1.064-6.31
	c1.24-3.34,3.242-6.621,5.986-9.863c2.744-3.241,6.709-6.973,11.904-11.211c8.047-6.62,13.496-11.836,16.328-15.702
	c2.822-3.849,4.238-7.5,4.238-10.938c0-3.613-1.289-6.66-3.867-9.121c-2.578-2.479-5.938-3.729-10.078-3.729
	c-4.385,0-7.891,1.328-10.518,3.944c-2.627,2.638-3.955,6.271-3.994,10.918l-9.346-0.957c0.635-6.973,3.047-12.284,7.227-15.938
	c4.18-3.672,9.785-5.488,16.836-5.488c7.109,0,12.734,1.974,16.875,5.918c4.15,3.945,6.221,8.828,6.221,14.648
	c0,2.969-0.605,5.879-1.816,8.75c-1.221,2.871-3.232,5.879-6.045,9.043s-7.49,7.52-14.023,13.047
	c-5.459,4.57-8.965,7.695-10.518,9.316c-1.553,1.641-2.832,3.28-3.838,4.94h36.339V839.588z M366.514,792.361l-9.043,0.723
	c-0.811-3.574-1.953-6.172-3.438-7.793c-2.461-2.598-5.498-3.887-9.102-3.887c-2.9,0-5.439,0.801-7.627,2.422
	c-2.871,2.09-5.127,5.137-6.777,9.141c-1.65,4.023-2.51,9.728-2.578,17.148c2.188-3.34,4.873-5.82,8.037-7.441
	c3.164-1.602,6.484-2.422,9.961-2.422c6.064,0,11.221,2.227,15.488,6.699c4.258,4.473,6.396,10.233,6.396,17.305
	c0,4.648-1.006,8.984-3.008,12.969c-2.012,4.004-4.766,7.052-8.262,9.181c-3.506,2.129-7.49,3.184-11.934,3.184
	c-7.578,0-13.77-2.793-18.545-8.359c-4.795-5.586-7.178-14.766-7.178-27.577c0-14.316,2.637-24.728,7.93-31.23
	c4.619-5.664,10.83-8.496,18.652-8.496c5.83,0,10.605,1.642,14.326,4.902C363.545,782.088,365.771,786.6,366.514,792.361
	L366.514,792.361z M329.365,824.314c0,3.125,0.664,6.133,1.992,9.004c1.338,2.852,3.193,5.039,5.586,6.543s4.902,2.246,7.529,2.246
	c3.848,0,7.148-1.543,9.912-4.648c2.764-3.105,4.141-7.324,4.141-12.637c0-5.117-1.357-9.16-4.092-12.109
	c-2.725-2.949-6.162-4.414-10.313-4.414c-4.111,0-7.598,1.465-10.459,4.414C330.8,815.662,329.365,819.529,329.365,824.314
	L329.365,824.314z M324.141,440.813V255.92h137.09v31.28h-99.756v40.985h92.822v31.152h-92.822v50.322h103.291v31.152H324.141
	L324.141,440.813z M530.088,440.813h-35.438V306.877h32.92v19.043c5.635-8.994,10.703-14.922,15.194-17.783
	c4.502-2.861,9.609-4.287,15.322-4.287c8.076,0,15.851,2.227,23.34,6.68l-10.977,30.897c-5.967-3.856-11.523-5.801-16.65-5.801
	c-4.961,0-9.16,1.367-12.606,4.103c-3.447,2.734-6.162,7.676-8.136,14.823c-1.981,7.14-2.969,22.109-2.969,44.894V440.813
	L530.088,440.813z M859.785,109.202v7.588h-42.5c-0.068-1.904,0.244-3.73,0.918-5.479c1.084-2.9,2.813-5.752,5.195-8.555
	c2.383-2.813,5.83-6.055,10.332-9.746c6.991-5.732,11.709-10.264,14.17-13.613c2.45-3.35,3.682-6.514,3.682-9.502
	c0-3.125-1.113-5.771-3.35-7.92c-2.246-2.148-5.156-3.223-8.761-3.223c-3.799,0-6.836,1.143-9.12,3.428
	c-2.275,2.275-3.438,5.439-3.468,9.473l-8.114-0.84c0.557-6.045,2.646-10.664,6.278-13.838c3.623-3.174,8.486-4.756,14.601-4.756
	c6.172,0,11.055,1.709,14.657,5.127c3.595,3.428,5.392,7.666,5.392,12.725c0,2.578-0.527,5.107-1.572,7.588
	c-1.055,2.49-2.803,5.107-5.244,7.852c-2.44,2.754-6.504,6.523-12.178,11.318c-4.736,3.975-7.773,6.68-9.121,8.096
	s-2.461,2.842-3.34,4.277H859.785z M830.439,171.76c-3.271-1.201-5.703-2.91-7.285-5.137c-1.572-2.217-2.363-4.883-2.363-7.979
	c0-4.678,1.68-8.613,5.039-11.807c3.369-3.184,7.842-4.775,13.428-4.775c5.615,0,10.138,1.631,13.556,4.893
	c3.418,3.262,5.137,7.227,5.137,11.904c0,2.988-0.791,5.586-2.354,7.793c-1.563,2.207-3.936,3.906-7.129,5.107
	c3.955,1.289,6.953,3.359,9.015,6.23c2.069,2.861,3.096,6.289,3.096,10.264c0,5.498-1.943,10.117-5.83,13.857
	c-3.896,3.75-9.014,5.615-15.361,5.615c-6.338,0-11.455-1.875-15.352-5.635c-3.888-3.76-5.83-8.447-5.83-14.063
	c0-4.18,1.055-7.676,3.184-10.498C823.506,174.709,826.523,172.786,830.439,171.76z M826.318,188.079
	c0,2.256,0.526,4.434,1.602,6.533c1.064,2.109,2.656,3.74,4.756,4.893c2.082,1.146,4.422,1.741,6.797,1.729
	c3.779,0,6.896-1.211,9.347-3.633c2.461-2.432,3.69-5.518,3.69-9.258c0-3.799-1.27-6.943-3.799-9.434
	c-2.529-2.48-5.693-3.73-9.502-3.73c-3.711,0-6.787,1.23-9.229,3.691C827.539,181.321,826.318,184.397,826.318,188.079
	L826.318,188.079z M828.857,158.381c0,3.037,0.985,5.527,2.938,7.451c1.963,1.934,4.502,2.9,7.638,2.9
	c3.036,0,5.536-0.957,7.479-2.871s2.92-4.268,2.92-7.041c0-2.9-1.006-5.332-3.008-7.305c-2.002-1.973-4.502-2.959-7.48-2.959
	c-3.018,0-5.518,0.957-7.5,2.891C829.854,153.381,828.857,155.686,828.857,158.381L828.857,158.381z M798.057,296.467h-7.891
	v-50.313c-1.904,1.807-4.395,3.623-7.479,5.439c-3.087,1.807-5.859,3.174-8.312,4.072v-7.627c4.414-2.08,8.271-4.59,11.582-7.549
	c3.301-2.949,5.646-5.82,7.012-8.594h5.088V296.467L798.057,296.467z M830.43,261.594c-3.271-1.201-5.703-2.91-7.284-5.137
	c-1.572-2.217-2.363-4.883-2.363-7.979c0-4.678,1.68-8.613,5.039-11.807c3.369-3.184,7.842-4.775,13.428-4.775
	c5.615,0,10.137,1.631,13.555,4.893c3.418,3.262,5.138,7.227,5.138,11.904c0,2.988-0.791,5.586-2.354,7.793
	c-1.563,2.207-3.936,3.906-7.129,5.107c3.955,1.289,6.953,3.359,9.014,6.23c2.07,2.861,3.097,6.289,3.097,10.264
	c0,5.498-1.943,10.117-5.83,13.857c-3.896,3.75-9.015,5.615-15.361,5.615c-6.338,0-11.455-1.875-15.352-5.635
	c-3.888-3.76-5.83-8.447-5.83-14.063c0-4.18,1.055-7.676,3.184-10.498C823.496,264.543,826.514,262.62,830.43,261.594
	L830.43,261.594z M826.309,277.913c0,2.256,0.527,4.434,1.603,6.533c1.063,2.109,2.656,3.74,4.756,4.893
	c2.082,1.146,4.421,1.741,6.797,1.729c3.779,0,6.896-1.211,9.347-3.633c2.461-2.432,3.69-5.518,3.69-9.258
	c0-3.799-1.27-6.943-3.799-9.434c-2.529-2.48-5.693-3.73-9.502-3.73c-3.711,0-6.787,1.23-9.229,3.691
	C827.529,271.155,826.309,274.231,826.309,277.913L826.309,277.913z M828.848,248.215c0,3.037,0.986,5.527,2.939,7.451
	c1.963,1.934,4.502,2.9,7.637,2.9c3.037,0,5.537-0.957,7.48-2.871c1.942-1.914,2.92-4.268,2.92-7.041c0-2.9-1.006-5.332-3.008-7.305
	s-4.502-2.959-7.48-2.959c-3.018,0-5.518,0.957-7.5,2.891C829.844,243.215,828.848,245.52,828.848,248.215L828.848,248.215z
	 M768.359,369.338l7.899-1.055c0.908,4.473,2.451,7.695,4.629,9.668c2.179,1.973,4.834,2.959,7.959,2.959
	c3.712,0,6.855-1.279,9.414-3.857c2.56-2.567,3.839-5.762,3.839-9.561c0-3.623-1.191-6.621-3.556-8.976
	c-2.373-2.354-5.381-3.524-9.043-3.524c-1.483,0-3.34,0.293-5.565,0.879l0.879-6.934c0.526,0.059,0.946,0.088,1.27,0.088
	c3.359,0,6.387-0.879,9.082-2.638c2.687-1.748,4.033-4.452,4.033-8.114c0-2.892-0.977-5.293-2.939-7.188
	c-1.953-1.904-4.491-2.852-7.588-2.852c-3.065,0-5.625,0.957-7.676,2.891s-3.359,4.824-3.945,8.691l-7.899-1.406
	c0.967-5.293,3.164-9.396,6.582-12.305c3.418-2.91,7.676-4.365,12.764-4.365c3.506,0,6.738,0.752,9.697,2.256
	c2.948,1.504,5.215,3.564,6.776,6.162c1.563,2.606,2.345,5.371,2.345,8.291c0,2.783-0.742,5.313-2.236,7.588
	c-1.494,2.285-3.701,4.102-6.621,5.439c3.799,0.879,6.758,2.704,8.857,5.469c2.108,2.764,3.163,6.221,3.163,10.371
	c0,5.614-2.051,10.371-6.143,14.276c-4.102,3.906-9.277,5.859-15.527,5.859c-5.645,0-10.332-1.68-14.063-5.049
	C771.016,379.045,768.887,374.69,768.359,369.338L768.359,369.338z M818.281,354.592c0-7.598,0.781-13.721,2.344-18.358
	c1.563-4.63,3.887-8.203,6.973-10.724c3.086-2.51,6.974-3.77,11.65-3.77c3.447,0,6.475,0.692,9.082,2.08
	c2.598,1.387,4.746,3.397,6.445,6.016s3.026,5.801,3.994,9.562c0.967,3.76,1.444,8.827,1.444,15.194
	c0,7.549-0.771,13.644-2.323,18.271c-1.554,4.639-3.867,8.223-6.953,10.752s-6.982,3.789-11.689,3.789
	c-6.201,0-11.074-2.217-14.609-6.66C820.4,375.393,818.281,366.672,818.281,354.592L818.281,354.592z M826.396,354.592
	c0,10.558,1.229,17.588,3.7,21.084c2.472,3.496,5.527,5.234,9.15,5.234s6.67-1.748,9.15-5.264c2.471-3.507,3.7-10.527,3.7-21.056
	c0-10.586-1.229-17.617-3.7-21.094c-2.48-3.486-5.558-5.225-9.238-5.225c-3.623,0-6.523,1.532-8.682,4.608
	C827.754,336.799,826.396,344.036,826.396,354.592L826.396,354.592z M830.439,441.272c-3.271-1.201-5.703-2.91-7.285-5.138
	c-1.572-2.217-2.363-4.883-2.363-7.979c0-4.679,1.68-8.613,5.039-11.808c3.369-3.184,7.842-4.774,13.428-4.774
	c5.615,0,10.138,1.631,13.556,4.893s5.137,7.228,5.137,11.904c0,2.988-0.791,5.586-2.354,7.793
	c-1.563,2.207-3.936,3.906-7.129,5.107c3.955,1.288,6.953,3.358,9.015,6.229c2.069,2.861,3.096,6.289,3.096,10.263
	c0,5.494-1.943,10.123-5.83,13.854c-3.896,3.75-9.014,5.625-15.361,5.625c-6.338,0-11.455-1.875-15.352-5.646
	c-3.887-3.75-5.83-8.438-5.83-14.059c0-4.18,1.055-7.675,3.184-10.498C823.506,444.221,826.523,442.297,830.439,441.272
	L830.439,441.272z M826.318,457.59c0,2.252,0.526,4.439,1.602,6.529c1.064,2.108,2.656,3.75,4.756,4.902
	c2.109,1.151,4.375,1.719,6.797,1.719c3.779,0,6.896-1.211,9.347-3.633c2.461-2.423,3.69-5.509,3.69-9.255
	c0-3.799-1.27-6.942-3.799-9.433c-2.529-2.479-5.693-3.729-9.502-3.729c-3.711,0-6.787,1.229-9.229,3.69
	C827.539,450.832,826.318,453.908,826.318,457.59L826.318,457.59z M828.857,427.893c0,3.037,0.985,5.527,2.938,7.451
	c1.963,1.935,4.502,2.9,7.638,2.9c3.036,0,5.536-0.957,7.479-2.871s2.92-4.268,2.92-7.041c0-2.9-1.006-5.332-3.008-7.305
	c-2.002-1.974-4.502-2.959-7.48-2.959c-3.018,0-5.518,0.957-7.5,2.891C829.854,422.893,828.857,425.198,828.857,427.893
	L828.857,427.893z M859.785,558.396v7.598h-42.5c-0.068-1.914,0.244-3.73,0.918-5.488c1.084-2.891,2.813-5.742,5.195-8.555
	c2.382-2.813,5.83-6.055,10.332-9.746c6.991-5.723,11.709-10.254,14.17-13.613c2.451-3.34,3.682-6.504,3.682-9.492
	c0-3.125-1.113-5.78-3.35-7.93c-2.246-2.147-5.156-3.223-8.761-3.223c-3.799,0-6.836,1.152-9.12,3.438
	c-2.275,2.267-3.438,5.431-3.468,9.474l-8.114-0.841c0.557-6.055,2.646-10.663,6.278-13.848c3.623-3.164,8.486-4.746,14.601-4.746
	c6.172,0,11.055,1.699,14.658,5.117c3.594,3.438,5.391,7.676,5.391,12.734c0,2.578-0.527,5.098-1.572,7.578
	c-1.055,2.5-2.803,5.116-5.244,7.852c-2.44,2.754-6.504,6.523-12.178,11.328c-4.736,3.965-7.773,6.68-9.121,8.086
	c-1.348,1.426-2.461,2.852-3.34,4.277H859.785L859.785,558.396z"/>
</svg>
