<?xml version="1.0" encoding="utf-8"?>
<!-- Generator: Adobe Illustrator 16.0.3, SVG Export Plug-In . SVG Version: 6.00 Build 0)  -->
<!DOCTYPE svg PUBLIC "-//W3C//DTD SVG 1.1//EN" "http://www.w3.org/Graphics/SVG/1.1/DTD/svg11.dtd">
<svg version="1.1" id="Layer_1" xmlns="http://www.w3.org/2000/svg" xmlns:xlink="http://www.w3.org/1999/xlink" x="0px" y="0px"
	 width="900px" height="900px" viewBox="0 0 900 900" enable-background="new 0 0 900 900" xml:space="preserve">
<path d="M111.846,78.44l-13.76,1.074c-1.23-5.43-2.969-9.375-5.225-11.836c-3.75-3.945-8.359-5.918-13.838-5.918
	c-4.414,0-8.281,1.23-11.611,3.691c-4.355,3.174-7.793,7.813-10.303,13.916c-2.51,6.094-3.818,14.785-3.926,26.055
	c3.33-5.068,7.412-8.838,12.227-11.299s9.863-3.691,15.146-3.691c9.229,0,17.08,3.398,23.564,10.186
	c6.484,6.797,9.727,15.566,9.727,26.338c0,7.07-1.523,13.643-4.58,19.717c-3.047,6.074-7.236,10.723-12.568,13.955
	c-5.332,3.223-11.377,4.844-18.145,4.844c-11.533,0-20.938-4.238-28.213-12.725c-7.275-8.487-10.918-22.461-10.918-41.943
	c0-21.777,4.023-37.617,12.07-47.51c7.021-8.613,16.475-12.91,28.369-12.91c8.867,0,16.133,2.48,21.797,7.451
	C107.323,62.806,110.723,69.68,111.846,78.44L111.846,78.44z M55.342,127.034c0,4.766,1.006,9.326,3.037,13.682
	c2.021,4.355,4.854,7.676,8.496,9.951c3.633,2.285,7.451,3.428,11.455,3.428c5.84,0,10.859-2.363,15.068-7.08
	c4.199-4.707,6.299-11.113,6.299-19.219c0-7.783-2.07-13.926-6.221-18.408c-4.16-4.482-9.385-6.729-15.684-6.729
	c-6.26,0-11.563,2.246-15.918,6.729C57.519,113.871,55.342,119.749,55.342,127.034L55.342,127.034z M129.688,137.483l13.301-1.23
	c1.123,6.26,3.271,10.791,6.455,13.613c3.174,2.813,7.256,4.229,12.227,4.229c4.248,0,7.979-0.977,11.182-2.92
	c3.203-1.953,5.83-4.551,7.881-7.813c2.051-3.252,3.77-7.646,5.156-13.184c1.378-5.533,2.073-11.213,2.07-16.914
	c0-0.615-0.029-1.533-0.078-2.764c-2.764,4.404-6.543,7.979-11.338,10.723c-4.795,2.744-9.98,4.111-15.566,4.111
	c-9.326,0-17.227-3.379-23.682-10.146s-9.688-15.684-9.688-26.748c0-11.436,3.369-20.635,10.107-27.607
	c6.738-6.963,15.186-10.449,25.332-10.449c7.334,0,14.033,1.973,20.107,5.918c6.074,3.945,10.684,9.57,13.838,16.875
	c3.154,7.305,4.727,17.871,4.727,31.709c0,14.404-1.563,25.869-4.688,34.404s-7.773,15.029-13.955,19.492
	c-6.172,4.463-13.418,6.689-21.719,6.689c-8.818,0-16.016-2.451-21.602-7.344S130.811,146.35,129.688,137.483L129.688,137.483z
	 M186.348,87.747c0-7.949-2.119-14.248-6.348-18.916s-9.316-6.992-15.254-6.992c-6.152,0-11.514,2.51-16.074,7.529
	c-4.561,5.029-6.836,11.533-6.836,19.531c0,7.178,2.158,13.008,6.494,17.49c4.326,4.482,9.668,6.729,16.025,6.729
	c6.406,0,11.68-2.246,15.801-6.729C184.277,101.906,186.348,95.686,186.348,87.747L186.348,87.747z M291.758,662.469v-65.352
	h-24.414v-8.75h58.74v8.75h-24.521v65.352H291.758z M334.98,662.469v-74.102h9.092v26.582c4.248-4.922,9.609-7.383,16.074-7.383
	c3.975,0,7.432,0.78,10.361,2.362c2.939,1.563,5.029,3.73,6.299,6.484c1.26,2.772,1.895,6.776,1.895,12.031v34.022H369.6v-34.022
	c0-4.552-0.986-7.853-2.959-9.923c-1.963-2.09-4.756-3.125-8.359-3.125c-2.695,0-5.234,0.703-7.607,2.109
	c-2.373,1.387-4.072,3.281-5.078,5.685c-1.016,2.383-1.523,5.702-1.523,9.901v29.375h-9.094V662.469z M427.725,662.469v-7.891
	c-4.18,6.074-9.854,9.102-17.03,9.102c-3.175,0-6.123-0.604-8.877-1.815c-2.744-1.211-4.785-2.734-6.113-4.59
	c-1.328-1.837-2.266-4.082-2.803-6.738c-0.371-1.777-0.557-4.609-0.557-8.496v-33.262h9.103v29.784c0,4.746,0.186,7.949,0.557,9.591
	c0.566,2.401,1.777,4.276,3.633,5.645c1.856,1.368,4.15,2.051,6.875,2.051c2.734,0,5.293-0.702,7.687-2.108
	c2.393-1.387,4.082-3.301,5.078-5.703c0.995-2.402,1.493-5.898,1.493-10.488v-28.77h9.093v53.69L427.725,662.469L427.725,662.469z
	 M449.912,662.469v-74.102h9.102v74.102H449.912z M473.164,598.836v-10.469h9.102v10.469H473.164z M473.164,662.469v-53.69h9.102
	v53.69H473.164z M531.289,662.469v-7.891c-4.18,6.074-9.854,9.102-17.031,9.102c-3.174,0-6.123-0.604-8.877-1.815
	c-2.744-1.211-4.785-2.734-6.113-4.59c-1.328-1.837-2.266-4.082-2.803-6.738c-0.371-1.777-0.557-4.609-0.557-8.496v-33.262h9.102
	v29.784c0,4.746,0.187,7.949,0.558,9.591c0.565,2.401,1.776,4.276,3.633,5.645c1.855,1.368,4.149,2.051,6.875,2.051
	c2.733,0,5.293-0.702,7.686-2.108c2.394-1.387,4.082-3.301,5.078-5.703s1.494-5.898,1.494-10.488v-28.77h9.092v53.69
	L531.289,662.469L531.289,662.469z M553.691,662.469v-53.69h8.135v7.539c1.688-2.638,3.926-4.746,6.719-6.349
	c2.803-1.602,5.986-2.401,9.561-2.401c3.976,0,7.236,0.84,9.775,2.479c2.549,1.66,4.336,3.965,5.381,6.935
	c4.248-6.271,9.775-9.414,16.582-9.414c5.322,0,9.414,1.483,12.285,4.434c2.861,2.949,4.297,7.48,4.297,13.613v36.854h-9.053
	v-33.828c0-3.633-0.293-6.25-0.879-7.852c-0.596-1.602-1.66-2.891-3.213-3.867c-1.554-0.976-3.369-1.465-5.459-1.465
	c-3.771,0-6.904,1.25-9.404,3.77c-2.49,2.5-3.74,6.523-3.74,12.052v31.19h-9.092v-34.883c0-4.043-0.742-7.07-2.227-9.102
	c-1.484-2.013-3.906-3.027-7.275-3.027c-2.568,0-4.932,0.684-7.109,2.031c-2.168,1.348-3.739,3.301-4.727,5.897
	c-0.977,2.599-1.465,6.349-1.465,11.23v27.852L553.691,662.469L553.691,662.469z M94.521,848.289H85.42V790.32
	c-2.188,2.09-5.059,4.18-8.613,6.27c-3.554,2.09-6.748,3.652-9.58,4.707v-8.809c5.088-2.383,9.541-5.293,13.35-8.691
	c3.799-3.397,6.504-6.699,8.086-9.902h5.859L94.521,848.289L94.521,848.289z M165.029,792.332l-9.043,0.723
	c-0.811-3.573-1.953-6.172-3.438-7.793c-2.461-2.598-5.498-3.887-9.102-3.887c-2.9,0-5.439,0.801-7.627,2.422
	c-2.871,2.09-5.127,5.137-6.777,9.141c-1.65,4.023-2.51,9.728-2.578,17.148c2.188-3.34,4.873-5.82,8.037-7.441
	c3.164-1.602,6.484-2.422,9.961-2.422c6.064,0,11.221,2.228,15.488,6.699c4.258,4.473,6.396,10.234,6.396,17.305
	c0,4.648-1.006,8.984-3.008,12.97c-2.012,4.004-4.766,7.051-8.262,9.18c-3.506,2.129-7.49,3.184-11.934,3.184
	c-7.578,0-13.77-2.793-18.545-8.358c-4.795-5.586-7.178-14.767-7.178-27.578c0-14.316,2.637-24.727,7.93-31.23
	c4.619-5.664,10.83-8.495,18.652-8.495c5.83,0,10.605,1.641,14.326,4.901C162.061,782.059,164.287,786.57,165.029,792.332
	L165.029,792.332z M127.881,824.285c0,3.125,0.664,6.133,1.992,9.004c1.338,2.852,3.193,5.039,5.586,6.543s4.902,2.246,7.529,2.246
	c3.848,0,7.148-1.543,9.912-4.648c2.764-3.104,4.141-7.323,4.141-12.637c0-5.117-1.357-9.16-4.092-12.109
	c-2.725-2.948-6.162-4.414-10.313-4.414c-4.111,0-7.598,1.466-10.459,4.414C129.316,815.633,127.881,819.5,127.881,824.285
	L127.881,824.285z M189.395,808.113c-3.779-1.388-6.572-3.359-8.398-5.918c-1.816-2.56-2.725-5.625-2.725-9.199
	c0-5.391,1.934-9.922,5.811-13.594s9.033-5.508,15.469-5.508c6.465,0,11.68,1.875,15.615,5.625c3.945,3.77,5.918,8.34,5.918,13.729
	c0,3.438-0.898,6.426-2.705,8.965c-1.807,2.56-4.541,4.513-8.213,5.898c4.551,1.483,8.008,3.867,10.391,7.168
	c2.373,3.301,3.555,7.246,3.555,11.836c0,6.328-2.236,11.66-6.719,15.977c-4.483,4.317-10.381,6.466-17.686,6.466
	c-7.314,0-13.213-2.169-17.695-6.505c-4.482-4.315-6.719-9.727-6.719-16.19c0-4.824,1.221-8.849,3.662-12.109
	C181.396,811.512,184.873,809.285,189.395,808.113L189.395,808.113z M184.639,826.922c0,2.578,0.615,5.099,1.846,7.521
	s3.057,4.315,5.488,5.645c2.422,1.328,5.029,1.992,7.832,1.992c4.346,0,7.93-1.406,10.762-4.199s4.248-6.348,4.248-10.664
	c0-4.375-1.455-8.008-4.375-10.858c-2.91-2.871-6.563-4.297-10.938-4.297c-4.277,0-7.832,1.405-10.645,4.237
	S184.639,822.664,184.639,826.922L184.639,826.922z M187.568,792.703c0,3.496,1.133,6.367,3.389,8.594
	c2.256,2.207,5.186,3.32,8.799,3.32c3.506,0,6.377-1.094,8.613-3.301c2.246-2.207,3.359-4.922,3.359-8.125
	c0-3.32-1.152-6.134-3.457-8.398c-2.314-2.285-5.186-3.418-8.623-3.418c-3.467,0-6.348,1.113-8.643,3.34
	C188.721,786.941,187.568,789.598,187.568,792.703L187.568,792.703z M238.076,848.289v-10.352h10.361v10.352H238.076z
	 M263.096,831.16l8.74-0.801c0.742,4.102,2.158,7.09,4.248,8.944c2.09,1.855,4.766,2.773,8.037,2.773
	c2.793,0,5.244-0.646,7.354-1.914c2.109-1.289,3.828-2.988,5.176-5.137c1.348-2.149,2.48-5.039,3.389-8.673
	c0.909-3.633,1.367-7.344,1.367-11.112c0-0.41-0.02-1.017-0.049-1.816c-1.826,2.892-4.307,5.234-7.461,7.052
	c-3.145,1.797-6.563,2.694-10.234,2.694c-6.133,0-11.318-2.227-15.566-6.68c-4.248-4.435-6.367-10.293-6.367-17.578
	c0-7.521,2.217-13.574,6.65-18.146c4.424-4.59,9.98-6.875,16.65-6.875c4.814,0,9.229,1.289,13.213,3.888
	c3.994,2.598,7.031,6.289,9.102,11.094c2.071,4.805,3.105,11.758,3.105,20.859c0,9.473-1.025,17.012-3.076,22.616
	c-2.061,5.605-5.117,9.884-9.18,12.813s-8.818,4.396-14.277,4.396c-5.791,0-10.527-1.603-14.199-4.824
	C266.046,841.512,263.838,836.98,263.096,831.16L263.096,831.16z M300.342,798.465c0-5.233-1.387-9.375-4.17-12.44
	c-2.773-3.066-6.123-4.609-10.029-4.609c-4.043,0-7.568,1.66-10.566,4.961s-4.502,7.578-4.502,12.832
	c0,4.727,1.426,8.555,4.277,11.504c2.842,2.949,6.357,4.435,10.537,4.435c4.209,0,7.676-1.484,10.391-4.435
	C298.984,807.762,300.342,803.68,300.342,798.465L300.342,798.465z M319.346,828.738l9.102-1.211
	c1.045,5.155,2.822,8.867,5.332,11.133c2.51,2.285,5.566,3.418,9.17,3.418c4.277,0,7.891-1.484,10.84-4.453
	c2.949-2.969,4.424-6.641,4.424-11.016c0-4.181-1.357-7.617-4.092-10.332c-2.725-2.715-6.201-4.082-10.41-4.082
	c-1.719,0-3.857,0.352-6.416,1.016l1.006-7.988c0.605,0.078,1.094,0.117,1.465,0.117c3.877,0,7.363-1.016,10.469-3.047
	c3.096-2.012,4.648-5.137,4.648-9.354c0-3.32-1.133-6.095-3.389-8.281c-2.256-2.188-5.176-3.281-8.74-3.281
	c-3.545,0-6.494,1.113-8.848,3.34c-2.363,2.228-3.877,5.548-4.551,10l-9.102-1.62c1.113-6.095,3.643-10.82,7.588-14.181
	c3.936-3.34,8.838-5.02,14.707-5.02c4.043,0,7.764,0.858,11.172,2.598c3.398,1.738,6.006,4.103,7.803,7.109
	c1.807,2.987,2.705,6.172,2.705,9.551c0,3.203-0.859,6.113-2.578,8.75c-1.719,2.617-4.258,4.707-7.627,6.25
	c4.375,1.016,7.783,3.125,10.205,6.309c2.432,3.185,3.643,7.168,3.643,11.953c0,6.465-2.363,11.953-7.08,16.445
	s-10.684,6.758-17.891,6.758c-6.504,0-11.904-1.953-16.201-5.82C322.403,839.932,319.951,834.892,319.346,828.738L319.346,828.738z
	 M310.098,440.784V287.17h-54.863v-31.279h146.934v31.279h-54.736v153.613L310.098,440.784L310.098,440.784z M423.35,306.848h32.666
	v18.281c11.689-14.199,25.605-21.309,41.748-21.309c8.574,0,16.017,1.768,22.324,5.293c6.299,3.535,11.475,8.877,15.508,16.016
	c5.89-7.139,12.236-12.479,19.043-16.016c6.808-3.525,14.082-5.293,21.816-5.293c9.844,0,18.164,2.002,24.971,5.986
	c6.816,3.994,11.904,9.863,15.264,17.599c2.441,5.723,3.662,14.971,3.662,27.744v85.635h-35.438V364.23
	c0-13.281-1.222-21.855-3.662-25.732c-3.281-5.039-8.32-7.559-15.137-7.559c-4.962,0-9.63,1.514-13.994,4.53
	c-4.375,3.027-7.529,7.472-9.463,13.312c-1.935,5.84-2.9,15.067-2.9,27.686v64.316h-35.439v-73.398
	c0-13.037-0.625-21.444-1.885-25.225c-1.27-3.779-3.223-6.603-5.869-8.447c-2.646-1.854-6.239-2.772-10.78-2.772
	c-5.47,0-10.392,1.465-14.757,4.414c-4.375,2.938-7.51,7.188-9.395,12.733c-1.896,5.547-2.842,14.756-2.842,27.617v65.078h-35.44
	V306.848L423.35,306.848z M859.785,109.172v7.588h-42.5c-0.068-1.904,0.244-3.73,0.918-5.479c1.084-2.9,2.813-5.752,5.195-8.555
	c2.383-2.813,5.83-6.055,10.332-9.746c6.991-5.732,11.709-10.264,14.17-13.613c2.45-3.35,3.682-6.514,3.682-9.502
	c0-3.125-1.113-5.771-3.35-7.92c-2.246-2.148-5.156-3.223-8.761-3.223c-3.799,0-6.836,1.143-9.12,3.428
	c-2.275,2.275-3.438,5.439-3.468,9.473l-8.114-0.84c0.557-6.045,2.646-10.664,6.278-13.838c3.623-3.174,8.486-4.756,14.601-4.756
	c6.172,0,11.055,1.709,14.657,5.127c3.595,3.428,5.392,7.666,5.392,12.725c0,2.578-0.527,5.107-1.572,7.588
	c-1.055,2.49-2.803,5.107-5.244,7.852c-2.44,2.754-6.504,6.523-12.178,11.318c-4.736,3.975-7.773,6.68-9.121,8.096
	s-2.461,2.842-3.34,4.277H859.785z M830.439,171.731c-3.271-1.201-5.703-2.91-7.285-5.137c-1.572-2.217-2.363-4.883-2.363-7.979
	c0-4.678,1.68-8.613,5.039-11.807c3.369-3.184,7.842-4.775,13.428-4.775c5.615,0,10.138,1.631,13.556,4.893
	c3.418,3.262,5.137,7.227,5.137,11.904c0,2.988-0.791,5.586-2.354,7.793c-1.563,2.207-3.936,3.906-7.129,5.107
	c3.955,1.289,6.953,3.359,9.015,6.23c2.069,2.861,3.096,6.289,3.096,10.264c0,5.498-1.943,10.117-5.83,13.857
	c-3.896,3.75-9.014,5.615-15.361,5.615c-6.338,0-11.455-1.875-15.352-5.635c-3.888-3.76-5.83-8.447-5.83-14.063
	c0-4.18,1.055-7.676,3.184-10.498C823.506,174.68,826.523,172.756,830.439,171.731L830.439,171.731z M826.318,188.049
	c0,2.256,0.526,4.434,1.602,6.533c1.064,2.109,2.656,3.74,4.756,4.893c2.082,1.145,4.422,1.74,6.797,1.729
	c3.779,0,6.896-1.211,9.347-3.633c2.461-2.432,3.69-5.518,3.69-9.258c0-3.799-1.27-6.943-3.799-9.434
	c-2.529-2.48-5.693-3.73-9.502-3.73c-3.711,0-6.787,1.23-9.229,3.691C827.539,181.292,826.318,184.368,826.318,188.049
	L826.318,188.049z M828.857,158.352c0,3.037,0.985,5.527,2.938,7.451c1.963,1.934,4.502,2.9,7.638,2.9
	c3.036,0,5.536-0.957,7.479-2.871s2.92-4.268,2.92-7.041c0-2.9-1.006-5.332-3.008-7.305c-2.002-1.973-4.502-2.959-7.48-2.959
	c-3.018,0-5.518,0.957-7.5,2.891C829.854,153.352,828.857,155.657,828.857,158.352L828.857,158.352z M798.057,296.438h-7.891
	v-50.313c-1.904,1.807-4.395,3.623-7.479,5.439c-3.087,1.807-5.859,3.174-8.312,4.072v-7.627c4.414-2.08,8.271-4.59,11.582-7.549
	c3.301-2.949,5.646-5.82,7.012-8.594h5.088V296.438L798.057,296.438z M830.43,261.565c-3.271-1.201-5.703-2.91-7.284-5.137
	c-1.572-2.217-2.363-4.883-2.363-7.979c0-4.678,1.68-8.613,5.039-11.807c3.369-3.184,7.842-4.775,13.428-4.775
	c5.615,0,10.137,1.631,13.555,4.893c3.418,3.262,5.138,7.227,5.138,11.904c0,2.988-0.791,5.586-2.354,7.793
	c-1.563,2.207-3.936,3.906-7.129,5.107c3.955,1.289,6.953,3.359,9.014,6.23c2.07,2.861,3.097,6.289,3.097,10.264
	c0,5.498-1.943,10.117-5.83,13.857c-3.896,3.75-9.015,5.615-15.361,5.615c-6.338,0-11.455-1.875-15.352-5.635
	c-3.888-3.76-5.83-8.447-5.83-14.063c0-4.18,1.055-7.676,3.184-10.498C823.496,264.514,826.514,262.59,830.43,261.565
	L830.43,261.565z M826.309,277.883c0,2.256,0.527,4.434,1.603,6.533c1.063,2.109,2.656,3.74,4.756,4.893
	c2.082,1.145,4.421,1.74,6.797,1.729c3.779,0,6.896-1.211,9.347-3.633c2.461-2.432,3.69-5.518,3.69-9.258
	c0-3.799-1.27-6.943-3.799-9.434c-2.529-2.48-5.693-3.73-9.502-3.73c-3.711,0-6.787,1.23-9.229,3.691
	C827.529,271.125,826.309,274.202,826.309,277.883L826.309,277.883z M828.848,248.186c0,3.037,0.986,5.527,2.939,7.451
	c1.963,1.934,4.502,2.9,7.637,2.9c3.037,0,5.537-0.957,7.48-2.871c1.942-1.914,2.92-4.268,2.92-7.041c0-2.9-1.006-5.332-3.008-7.305
	c-2.002-1.973-4.502-2.959-7.48-2.959c-3.018,0-5.518,0.957-7.5,2.891C829.844,243.186,828.848,245.491,828.848,248.186
	L828.848,248.186z M768.359,369.309l7.899-1.055c0.908,4.473,2.451,7.695,4.629,9.668c2.179,1.973,4.834,2.959,7.959,2.959
	c3.712,0,6.855-1.279,9.414-3.856c2.56-2.568,3.839-5.763,3.839-9.562c0-3.623-1.191-6.621-3.556-8.975
	c-2.373-2.354-5.381-3.525-9.043-3.525c-1.483,0-3.34,0.293-5.565,0.879l0.879-6.934c0.526,0.059,0.946,0.088,1.27,0.088
	c3.359,0,6.387-0.879,9.082-2.637c2.687-1.748,4.033-4.453,4.033-8.115c0-2.891-0.977-5.293-2.939-7.188
	c-1.953-1.903-4.491-2.852-7.588-2.852c-3.065,0-5.625,0.957-7.676,2.891c-2.051,1.935-3.359,4.824-3.945,8.691l-7.899-1.406
	c0.967-5.293,3.164-9.395,6.582-12.305s7.676-4.365,12.764-4.365c3.506,0,6.738,0.752,9.697,2.256
	c2.948,1.504,5.215,3.564,6.776,6.162c1.563,2.607,2.345,5.371,2.345,8.291c0,2.783-0.742,5.313-2.236,7.588
	c-1.494,2.285-3.701,4.103-6.621,5.439c3.799,0.879,6.758,2.705,8.857,5.469c2.108,2.764,3.163,6.221,3.163,10.371
	c0,5.615-2.051,10.371-6.143,14.277c-4.102,3.905-9.277,5.858-15.527,5.858c-5.645,0-10.332-1.68-14.063-5.049
	C771.016,379.016,768.887,374.661,768.359,369.309L768.359,369.309z M848.018,386.282h-7.891v-50.313
	c-1.904,1.808-4.395,3.623-7.479,5.439c-3.086,1.807-5.859,3.174-8.312,4.072v-7.628c4.414-2.079,8.271-4.59,11.582-7.549
	c3.301-2.949,5.646-5.819,7.012-8.594h5.089L848.018,386.282L848.018,386.282z M830.439,441.243
	c-3.271-1.201-5.703-2.91-7.285-5.137c-1.572-2.218-2.363-4.884-2.363-7.979c0-4.678,1.68-8.613,5.039-11.807
	c3.369-3.185,7.842-4.775,13.428-4.775c5.615,0,10.138,1.631,13.556,4.893c3.418,3.263,5.137,7.228,5.137,11.904
	c0,2.988-0.791,5.586-2.354,7.793c-1.563,2.207-3.936,3.906-7.129,5.107c3.955,1.289,6.953,3.358,9.015,6.229
	c2.069,2.861,3.096,6.289,3.096,10.264c0,5.493-1.943,10.123-5.83,13.854c-3.896,3.75-9.014,5.625-15.361,5.625
	c-6.338,0-11.455-1.875-15.352-5.645c-3.887-3.75-5.83-8.438-5.83-14.06c0-4.18,1.055-7.675,3.184-10.498
	C823.506,444.192,826.523,442.268,830.439,441.243L830.439,441.243z M826.318,457.561c0,2.252,0.526,4.439,1.602,6.529
	c1.064,2.109,2.656,3.75,4.756,4.902c2.109,1.151,4.375,1.719,6.797,1.719c3.779,0,6.896-1.211,9.347-3.633
	c2.461-2.422,3.69-5.508,3.69-9.254c0-3.799-1.27-6.943-3.799-9.434c-2.529-2.479-5.693-3.729-9.502-3.729
	c-3.711,0-6.787,1.229-9.229,3.69C827.539,450.803,826.318,453.879,826.318,457.561L826.318,457.561z M828.857,427.864
	c0,3.037,0.985,5.526,2.938,7.451c1.963,1.934,4.502,2.899,7.638,2.899c3.036,0,5.536-0.957,7.479-2.871s2.92-4.268,2.92-7.041
	c0-2.899-1.006-5.332-3.008-7.305s-4.502-2.959-7.48-2.959c-3.018,0-5.518,0.957-7.5,2.891
	C829.854,422.864,828.857,425.168,828.857,427.864L828.857,427.864z M859.785,558.367v7.598h-42.5
	c-0.068-1.914,0.244-3.729,0.918-5.488c1.084-2.891,2.813-5.741,5.195-8.555c2.382-2.813,5.83-6.055,10.332-9.746
	c6.991-5.723,11.709-10.254,14.17-13.612c2.451-3.341,3.682-6.505,3.682-9.492c0-3.125-1.113-5.781-3.35-7.931
	c-2.246-2.147-5.156-3.223-8.761-3.223c-3.799,0-6.836,1.152-9.12,3.438c-2.275,2.266-3.438,5.43-3.468,9.473l-8.114-0.84
	c0.557-6.056,2.646-10.664,6.278-13.849c3.623-3.163,8.486-4.745,14.601-4.745c6.172,0,11.055,1.698,14.658,5.116
	c3.594,3.438,5.391,7.677,5.391,12.734c0,2.578-0.527,5.098-1.572,7.578c-1.055,2.5-2.803,5.117-5.244,7.852
	c-2.44,2.754-6.504,6.523-12.178,11.328c-4.736,3.965-7.773,6.68-9.121,8.086c-1.348,1.426-2.461,2.853-3.34,4.277H859.785
	L859.785,558.367z"/>
</svg>
