<?xml version="1.0" encoding="utf-8"?>
<!-- Generator: Adobe Illustrator 16.0.3, SVG Export Plug-In . SVG Version: 6.00 Build 0)  -->
<!DOCTYPE svg PUBLIC "-//W3C//DTD SVG 1.1//EN" "http://www.w3.org/Graphics/SVG/1.1/DTD/svg11.dtd">
<svg version="1.1" id="Layer_1" xmlns="http://www.w3.org/2000/svg" xmlns:xlink="http://www.w3.org/1999/xlink" x="0px" y="0px"
	 width="900px" height="900px" viewBox="0 0 900 900" enable-background="new 0 0 900 900" xml:space="preserve">
<path d="M40.024,64.741V51.44h72.959v10.762c-7.178,7.637-14.287,17.788-21.338,30.444c-7.051,12.661-12.49,25.679-16.338,39.058
	c-2.764,9.429-4.531,19.756-5.303,30.981H55.786c0.146-8.867,1.895-19.58,5.225-32.134c3.33-12.559,8.105-24.668,14.336-36.328
	c6.231-11.66,12.851-21.489,19.873-29.482H40.024z M260.396,661.582V587.49h10.059l38.926,58.174V587.49h9.395v74.092h-10.059
	L269.8,603.359v58.223H260.396z M334.146,597.949V587.49h9.102v10.459H334.146L334.146,597.949z M334.146,661.582V607.91h9.102
	v53.672H334.146L334.146,661.582z M376.958,653.447l1.309,8.037c-2.559,0.547-4.844,0.811-6.875,0.811
	c-3.301,0-5.859-0.518-7.676-1.572c-1.826-1.035-3.105-2.412-3.848-4.121c-0.742-1.698-1.104-5.272-1.104-10.731v-30.89h-6.68v-7.07
	h6.68v-13.301l9.043-5.449v18.75h9.15v7.07h-9.15v31.387c0,2.598,0.156,4.268,0.479,5.01c0.323,0.742,0.84,1.338,1.572,1.768
	c0.723,0.439,1.758,0.664,3.105,0.664C373.97,653.809,375.308,653.691,376.958,653.447z M385.747,661.582V607.91h8.193v8.135
	c2.09-3.809,4.014-6.318,5.781-7.529c1.777-1.211,3.722-1.815,5.84-1.815c3.066,0,6.183,0.977,9.355,2.93l-3.135,8.438
	c-2.228-1.31-4.453-1.974-6.67-1.974c-1.992,0-3.779,0.605-5.361,1.797c-1.582,1.192-2.715,2.853-3.389,4.98
	c-1.006,3.231-1.514,6.776-1.514,10.615v28.096L385.747,661.582L385.747,661.582z M416.938,634.746c0-9.941,2.764-17.305,8.29-22.09
	c4.609-3.976,10.244-5.957,16.886-5.957c7.373,0,13.407,2.412,18.086,7.246c4.688,4.844,7.031,11.522,7.031,20.039
	c0,6.914-1.035,12.344-3.105,16.309c-2.08,3.955-5.088,7.031-9.053,9.219c-3.955,2.188-8.281,3.281-12.959,3.281
	c-7.521,0-13.595-2.402-18.224-7.227C419.253,650.752,416.938,643.809,416.938,634.746z M426.284,634.746
	c0,6.875,1.504,12.021,4.502,15.449c2.998,3.418,6.777,5.117,11.328,5.117c4.512,0,8.271-1.72,11.27-5.146
	c2.998-3.438,4.492-8.682,4.492-15.723c0-6.631-1.504-11.67-4.521-15.088c-3.018-3.419-6.769-5.128-11.24-5.128
	c-4.551,0-8.33,1.699-11.328,5.107C427.788,622.734,426.284,627.871,426.284,634.746L426.284,634.746z M476.226,666.035l8.849,1.309
	c0.371,2.734,1.396,4.728,3.076,5.978c2.266,1.68,5.342,2.52,9.258,2.52c4.209,0,7.461-0.84,9.756-2.52
	c2.285-1.699,3.838-4.054,4.648-7.09c0.469-1.847,0.684-5.742,0.653-11.671c-3.975,4.679-8.926,7.021-14.862,7.021
	c-7.373,0-13.087-2.656-17.13-7.988c-4.043-5.313-6.063-11.698-6.063-19.149c0-5.127,0.918-9.854,2.772-14.17
	c1.855-4.336,4.541-7.677,8.066-10.039c3.516-2.363,7.656-3.535,12.402-3.535c6.338,0,11.563,2.559,15.674,7.676v-6.465h8.389
	v46.396c0,8.359-0.85,14.287-2.549,17.765c-1.709,3.496-4.404,6.25-8.086,8.262c-3.691,2.031-8.232,3.047-13.623,3.047
	c-6.406,0-11.572-1.444-15.519-4.336C477.993,676.172,476.089,671.836,476.226,666.035L476.226,666.035z M483.755,633.789
	c0,7.041,1.396,12.178,4.199,15.41c2.793,3.242,6.299,4.863,10.508,4.863c4.18,0,7.687-1.621,10.519-4.834
	c2.832-3.214,4.248-8.263,4.248-15.138c0-6.572-1.466-11.522-4.375-14.862c-2.921-3.33-6.427-5-10.537-5
	c-4.043,0-7.48,1.641-10.313,4.932C485.171,622.441,483.755,627.324,483.755,633.789L483.755,633.789z M572.212,644.297l9.396,1.172
	c-1.484,5.488-4.229,9.746-8.232,12.783c-4.014,3.037-9.141,4.541-15.371,4.541c-7.852,0-14.072-2.412-18.672-7.246
	s-6.904-11.621-6.904-20.352c0-9.023,2.324-16.035,6.974-21.017c4.658-4.989,10.684-7.479,18.096-7.479
	c7.178,0,13.047,2.441,17.598,7.324c4.541,4.883,6.816,11.758,6.816,20.625c0,0.537-0.01,1.348-0.049,2.422h-40.029
	c0.332,5.897,2.002,10.41,5,13.555c2.998,3.125,6.738,4.688,11.221,4.688c3.341,0,6.183-0.869,8.546-2.617
	C568.96,650.938,570.825,648.146,572.212,644.297L572.212,644.297z M542.339,629.59h29.972c-0.41-4.512-1.554-7.899-3.438-10.156
	c-2.9-3.506-6.66-5.254-11.271-5.254c-4.18,0-7.694,1.396-10.536,4.189C544.214,621.172,542.643,624.902,542.339,629.59z
	 M593.042,661.582V607.91h8.185v7.637c3.944-5.897,9.639-8.848,17.09-8.848c3.231,0,6.201,0.576,8.916,1.737
	c2.715,1.162,4.746,2.695,6.094,4.57c1.348,1.896,2.285,4.142,2.832,6.729c0.332,1.688,0.498,4.639,0.498,8.838v33.008h-9.092
	v-32.646c0-3.7-0.353-6.475-1.064-8.311c-0.703-1.836-1.963-3.301-3.76-4.404c-1.808-1.094-3.926-1.641-6.349-1.641
	c-3.877,0-7.217,1.229-10.028,3.691c-2.822,2.461-4.229,7.118-4.229,13.993v29.316L593.042,661.582L593.042,661.582z
	 M93.579,847.432h-9.102v-57.979c-2.188,2.09-5.059,4.18-8.613,6.27c-3.554,2.091-6.748,3.652-9.58,4.707v-8.799
	c5.088-2.393,9.541-5.293,13.35-8.701c3.799-3.397,6.504-6.698,8.086-9.901h5.859V847.432z M146.04,847.432v-17.744h-32.139v-8.34
	l33.809-48.008h7.432v48.008h10.01v8.34h-10.01v17.744H146.04z M146.04,821.348V787.94l-23.193,33.407H146.04z M179.556,847.432
	V837.07h10.361v10.36L179.556,847.432L179.556,847.432z M203.208,810.889c0-8.76,0.898-15.811,2.705-21.151
	c1.797-5.342,4.482-9.463,8.037-12.354c3.555-2.91,8.027-4.354,13.418-4.354c3.975,0,7.461,0.801,10.459,2.401
	c2.998,1.602,5.479,3.906,7.432,6.925c1.953,3.018,3.486,6.688,4.6,11.024c1.113,4.326,1.67,10.156,1.67,17.51
	c0,8.691-0.889,15.714-2.676,21.045c-1.787,5.353-4.463,9.474-8.018,12.384c-3.555,2.92-8.047,4.375-13.467,4.375
	c-7.148,0-12.754-2.56-16.836-7.677C205.649,834.844,203.208,824.805,203.208,810.889z M212.554,810.889
	c0,12.158,1.426,20.265,4.277,24.287c2.842,4.023,6.357,6.035,10.537,6.035c4.18,0,7.695-2.012,10.537-6.055
	c2.852-4.053,4.268-12.14,4.268-24.269c0-12.196-1.416-20.303-4.268-24.307c-2.842-4.014-6.396-6.016-10.635-6.016
	c-4.18,0-7.52,1.758-10.01,5.303C214.126,790.391,212.554,798.73,212.554,810.889L212.554,810.889z M260.786,810.889
	c0-8.76,0.898-15.811,2.705-21.151c1.797-5.342,4.482-9.463,8.037-12.354c3.555-2.91,8.027-4.354,13.418-4.354
	c3.975,0,7.461,0.801,10.459,2.401c2.998,1.602,5.479,3.906,7.432,6.925c1.953,3.018,3.486,6.688,4.6,11.024
	c1.113,4.326,1.67,10.156,1.67,17.51c0,8.691-0.889,15.714-2.676,21.045c-1.787,5.353-4.463,9.474-8.018,12.384
	c-3.555,2.92-8.047,4.375-13.467,4.375c-7.148,0-12.754-2.56-16.836-7.677C263.228,834.844,260.786,824.805,260.786,810.889
	L260.786,810.889z M270.132,810.889c0,12.158,1.426,20.265,4.277,24.287c2.842,4.023,6.357,6.035,10.537,6.035
	c4.18,0,7.695-2.012,10.537-6.055c2.852-4.053,4.268-12.14,4.268-24.269c0-12.196-1.416-20.303-4.268-24.307
	c-2.842-4.014-6.396-6.016-10.635-6.016c-4.18,0-7.52,1.758-10.01,5.303C271.704,790.391,270.132,798.73,270.132,810.889
	L270.132,810.889z M318.96,783.037v-8.74h47.969v7.07c-4.717,5.02-9.395,11.699-14.023,20.02
	c-4.639,8.32-8.213,16.875-10.742,25.675c-1.826,6.2-2.988,12.997-3.486,20.37h-9.355c0.098-5.83,1.25-12.87,3.438-21.123
	c2.188-8.262,5.332-16.221,9.424-23.887c4.102-7.666,8.457-14.121,13.066-19.385H318.96L318.96,783.037z M368.364,449.097V264.209
	h36.317l75.675,123.467V264.209h34.678v184.888h-37.451L403.042,328.53v120.565L368.364,449.097L368.364,449.097z M858.833,108.291
	v7.588h-42.5c-0.07-1.871,0.242-3.737,0.918-5.483c1.084-2.896,2.813-5.747,5.195-8.555c2.382-2.808,5.83-6.055,10.332-9.736
	c6.991-5.732,11.709-10.273,14.17-13.623c2.451-3.35,3.682-6.514,3.682-9.497c0-3.13-1.113-5.767-3.35-7.915
	c-2.246-2.153-5.156-3.229-8.761-3.229c-3.799,0-6.836,1.143-9.12,3.423c-2.275,2.28-3.438,5.439-3.468,9.478l-8.114-0.835
	c0.557-6.055,2.646-10.669,6.278-13.843c3.623-3.169,8.486-4.756,14.601-4.756c6.172,0,11.055,1.709,14.658,5.132
	c3.594,3.423,5.391,7.661,5.391,12.72c0,2.573-0.527,5.103-1.572,7.588c-1.055,2.485-2.803,5.107-5.244,7.852
	c-2.44,2.749-6.504,6.523-12.178,11.318c-4.736,3.979-7.772,6.675-9.121,8.096c-1.348,1.416-2.461,2.842-3.34,4.277L858.833,108.291
	L858.833,108.291z M817.339,188.872l8.291-0.703c0.615,4.038,2.041,7.07,4.277,9.106c2.235,2.031,4.932,3.047,8.096,3.047
	c3.799,0,7.012-1.431,9.648-4.297c2.627-2.866,3.944-6.67,3.944-11.406c0-4.507-1.27-8.057-3.799-10.659s-5.84-3.906-9.932-3.906
	c-2.539,0-4.844,0.576-6.885,1.733c-2.052,1.157-3.662,2.651-4.824,4.497l-7.412-0.967l6.221-33.032h31.982v7.544h-25.664
	l-3.467,17.285c3.866-2.69,7.909-4.033,12.157-4.033c5.615,0,10.353,1.943,14.209,5.83c3.857,3.892,5.791,8.892,5.791,15.005
	c0,5.82-1.698,10.85-5.088,15.088c-4.121,5.21-9.756,7.813-16.885,7.813c-5.85,0-10.625-1.641-14.326-4.917
	C819.977,198.628,817.866,194.282,817.339,188.872L817.339,188.872z"/>
</svg>
