<?xml version="1.0" encoding="utf-8"?>
<!-- Generator: Adobe Illustrator 16.0.3, SVG Export Plug-In . SVG Version: 6.00 Build 0)  -->
<!DOCTYPE svg PUBLIC "-//W3C//DTD SVG 1.1//EN" "http://www.w3.org/Graphics/SVG/1.1/DTD/svg11.dtd">
<svg version="1.1" id="Layer_1" xmlns="http://www.w3.org/2000/svg" xmlns:xlink="http://www.w3.org/1999/xlink" x="0px" y="0px"
	 width="900px" height="900px" viewBox="0 0 900 900" enable-background="new 0 0 900 900" xml:space="preserve">
<path d="M40.195,65.598V52.297h72.959v10.771c-7.178,7.637-14.287,17.783-21.338,30.439c-7.051,12.656-12.49,25.684-16.338,39.053
	c-2.764,9.434-4.531,19.766-5.303,30.986H55.957c0.146-8.867,1.895-19.58,5.225-32.139c3.33-12.559,8.105-24.658,14.336-36.328
	c6.23-11.65,12.852-21.484,19.873-29.482L40.195,65.598L40.195,65.598z M126.836,107.961c0-13.32,1.377-24.053,4.111-32.178
	c2.744-8.115,6.816-14.385,12.227-18.789c5.41-4.414,12.207-6.611,20.41-6.611c6.045,0,11.357,1.211,15.918,3.652
	c4.561,2.432,8.33,5.938,11.299,10.527c2.969,4.589,5.303,10.176,7.002,16.758c1.689,6.592,2.529,15.469,2.529,26.641
	c0,13.223-1.357,23.896-4.072,32.021c-2.715,8.125-6.777,14.404-12.188,18.838c-5.4,4.434-12.236,6.65-20.488,6.65
	c-10.859,0-19.395-3.896-25.596-11.688C130.557,144.407,126.836,129.133,126.836,107.961L126.836,107.961z M141.064,107.961
	c0,18.506,2.158,30.82,6.494,36.943c4.326,6.123,9.668,9.189,16.025,9.189s11.699-3.076,16.035-9.229
	c4.326-6.152,6.494-18.447,6.494-36.904c0-18.555-2.168-30.879-6.494-36.982c-4.336-6.094-9.727-9.141-16.182-9.141
	c-6.357,0-11.436,2.686-15.225,8.066C143.447,76.78,141.064,89.465,141.064,107.961z M255.625,662.469v-31.387l-28.555-42.715
	h11.934l14.6,22.344c2.645,4.099,5.159,8.28,7.539,12.539c2.217-3.887,4.912-8.242,8.086-13.105l14.355-21.776H295l-29.57,42.715
	v31.387L255.625,662.469L255.625,662.469z M322.5,654.324l1.309,8.047c-2.559,0.527-4.844,0.801-6.875,0.801
	c-3.301,0-5.859-0.527-7.676-1.563c-1.826-1.056-3.105-2.422-3.848-4.121c-0.743-1.699-1.104-5.293-1.104-10.742v-30.879h-6.68
	v-7.09h6.68v-13.281l9.043-5.469v18.75h9.15v7.09h-9.15v31.387c0,2.598,0.156,4.258,0.479,5c0.323,0.742,0.84,1.328,1.572,1.777
	c0.723,0.43,1.758,0.645,3.105,0.645C319.512,654.676,320.85,654.559,322.5,654.324L322.5,654.324z M351.26,654.324l1.309,8.047
	c-2.559,0.527-4.844,0.801-6.875,0.801c-3.301,0-5.859-0.527-7.676-1.563c-1.826-1.056-3.105-2.422-3.848-4.121
	c-0.743-1.699-1.104-5.293-1.104-10.742v-30.879h-6.68v-7.09h6.68v-13.281l9.043-5.469v18.75h9.15v7.09h-9.15v31.387
	c0,2.598,0.156,4.258,0.479,5c0.323,0.742,0.84,1.328,1.572,1.777c0.723,0.43,1.758,0.645,3.105,0.645
	C348.271,654.676,349.609,654.559,351.26,654.324L351.26,654.324z M396.904,645.184l9.395,1.152
	c-1.483,5.488-4.229,9.766-8.231,12.793c-4.014,3.027-9.142,4.551-15.372,4.551c-7.852,0-14.072-2.422-18.672-7.266
	c-4.6-4.824-6.904-11.602-6.904-20.332c0-9.023,2.324-16.035,6.973-21.035c4.658-4.979,10.684-7.479,18.096-7.479
	c7.178,0,13.047,2.44,17.598,7.344c4.541,4.883,6.816,11.758,6.816,20.604c0,0.548-0.011,1.349-0.05,2.441h-40.029
	c0.332,5.898,2.002,10.41,5,13.535c2.998,3.145,6.738,4.707,11.221,4.707c3.34,0,6.182-0.879,8.545-2.638
	C393.652,651.824,395.518,649.012,396.904,645.184L396.904,645.184z M367.031,630.477h29.971c-0.41-4.53-1.553-7.909-3.438-10.176
	c-2.9-3.496-6.66-5.254-11.27-5.254c-4.18,0-7.695,1.406-10.537,4.199C368.906,622.039,367.334,625.789,367.031,630.477
	L367.031,630.477z M417.617,662.469v-53.69h8.192v8.145c2.091-3.809,4.015-6.309,5.781-7.539c1.777-1.211,3.722-1.815,5.84-1.815
	c3.066,0,6.183,0.977,9.355,2.93l-3.135,8.457c-2.228-1.328-4.453-1.973-6.67-1.973c-1.992,0-3.779,0.586-5.361,1.797
	c-1.582,1.19-2.715,2.852-3.389,4.961c-1.007,3.242-1.515,6.776-1.515,10.625v28.104L417.617,662.469L417.617,662.469z
	 M460.586,662.469h-8.438v-74.102h9.092v26.426c3.848-4.805,8.75-7.227,14.707-7.227c3.301,0,6.426,0.664,9.375,2.012
	c2.949,1.328,5.381,3.184,7.285,5.604c1.903,2.402,3.389,5.313,4.473,8.712c1.074,3.397,1.611,7.051,1.611,10.918
	c0,9.198-2.267,16.309-6.816,21.327c-4.55,5.02-10.01,7.539-16.377,7.539c-6.338,0-11.309-2.655-14.912-7.93V662.469
	L460.586,662.469z M460.488,635.223c0,6.427,0.869,11.095,2.627,13.945c2.861,4.688,6.738,7.031,11.621,7.031
	c3.975,0,7.412-1.738,10.313-5.176c2.9-3.457,4.346-8.613,4.346-15.449c0-7.012-1.387-12.188-4.17-15.508
	c-2.782-3.341-6.143-5.021-10.077-5.021c-3.984,0-7.423,1.738-10.313,5.195C461.934,623.68,460.488,628.68,460.488,635.223z
	 M509.814,598.836v-10.469h9.102v10.469H509.814z M509.814,662.469v-53.69h9.102v53.69H509.814z M567.939,662.469v-7.891
	c-4.181,6.074-9.854,9.102-17.031,9.102c-3.174,0-6.123-0.604-8.877-1.815c-2.744-1.211-4.785-2.734-6.113-4.59
	c-1.328-1.837-2.266-4.082-2.803-6.738c-0.371-1.777-0.558-4.609-0.558-8.496v-33.262h9.103v29.784c0,4.746,0.186,7.949,0.557,9.591
	c0.566,2.401,1.777,4.276,3.633,5.645c1.856,1.368,4.15,2.051,6.875,2.051c2.734,0,5.293-0.702,7.687-2.108
	c2.393-1.387,4.082-3.301,5.078-5.703s1.494-5.898,1.494-10.488v-28.77h9.092v53.69L567.939,662.469L567.939,662.469z
	 M590.342,662.469v-53.69h8.135v7.539c1.689-2.638,3.927-4.746,6.72-6.349c2.803-1.602,5.985-2.401,9.561-2.401
	c3.976,0,7.236,0.84,9.775,2.479c2.549,1.66,4.336,3.965,5.381,6.935c4.248-6.271,9.775-9.414,16.582-9.414
	c5.322,0,9.414,1.483,12.285,4.434c2.86,2.949,4.297,7.48,4.297,13.613v36.854h-9.053v-33.828c0-3.633-0.294-6.25-0.88-7.852
	c-0.596-1.602-1.659-2.891-3.213-3.867c-1.553-0.976-3.369-1.465-5.459-1.465c-3.77,0-6.903,1.25-9.403,3.77
	c-2.49,2.5-3.74,6.523-3.74,12.052v31.19h-9.092v-34.883c0-4.043-0.742-7.07-2.228-9.102c-1.483-2.013-3.906-3.027-7.274-3.027
	c-2.568,0-4.933,0.684-7.109,2.031c-2.168,1.348-3.74,3.301-4.727,5.897c-0.978,2.599-1.466,6.349-1.466,11.23v27.852
	L590.342,662.469L590.342,662.469z M93.76,848.289h-9.102V790.32c-2.188,2.09-5.059,4.18-8.613,6.27
	c-3.554,2.09-6.748,3.652-9.58,4.707v-8.809c5.088-2.383,9.541-5.293,13.35-8.691c3.799-3.397,6.504-6.699,8.086-9.902h5.859
	V848.289z M117.666,783.895v-8.729h47.969v7.07c-4.717,5.02-9.395,11.698-14.023,20.02c-4.639,8.32-8.213,16.875-10.742,25.664
	c-1.826,6.211-2.988,12.988-3.486,20.371h-9.355c0.098-5.82,1.25-12.871,3.438-21.113c2.188-8.262,5.332-16.229,9.424-23.887
	c4.102-7.676,8.447-14.141,13.066-19.396H117.666z M174.678,828.738l9.102-1.211c1.045,5.155,2.822,8.867,5.332,11.133
	c2.51,2.285,5.566,3.418,9.17,3.418c4.277,0,7.891-1.484,10.84-4.453c2.949-2.969,4.424-6.641,4.424-11.016
	c0-4.181-1.357-7.617-4.092-10.332c-2.725-2.715-6.201-4.082-10.41-4.082c-1.719,0-3.857,0.352-6.416,1.016l1.006-7.988
	c0.605,0.078,1.094,0.117,1.465,0.117c3.877,0,7.363-1.016,10.469-3.047c3.096-2.012,4.648-5.137,4.648-9.354
	c0-3.32-1.133-6.095-3.389-8.281c-2.256-2.188-5.176-3.281-8.74-3.281c-3.545,0-6.494,1.113-8.848,3.34
	c-2.363,2.228-3.877,5.548-4.551,10l-9.102-1.62c1.113-6.095,3.643-10.82,7.588-14.181c3.936-3.34,8.838-5.02,14.707-5.02
	c4.043,0,7.764,0.858,11.172,2.598c3.398,1.738,6.006,4.103,7.803,7.109c1.807,2.987,2.705,6.172,2.705,9.551
	c0,3.203-0.859,6.113-2.578,8.75c-1.719,2.617-4.258,4.707-7.627,6.25c4.375,1.016,7.783,3.125,10.205,6.309
	c2.432,3.185,3.643,7.168,3.643,11.953c0,6.465-2.363,11.953-7.08,16.445s-10.684,6.758-17.891,6.758
	c-6.504,0-11.904-1.953-16.201-5.82C177.735,839.932,175.283,834.892,174.678,828.738L174.678,828.738z M237.314,848.289v-10.352
	h10.361v10.352H237.314z M260.967,811.746c0-8.75,0.898-15.801,2.705-21.152c1.797-5.332,4.482-9.453,8.037-12.362
	c3.555-2.892,8.027-4.336,13.418-4.336c3.975,0,7.461,0.801,10.459,2.401c2.998,1.602,5.479,3.906,7.432,6.914
	c1.953,3.027,3.486,6.699,4.6,11.017c1.113,4.336,1.67,10.176,1.67,17.52c0,8.691-0.889,15.723-2.676,21.055
	c-1.787,5.353-4.463,9.474-8.018,12.384c-3.555,2.909-8.047,4.375-13.467,4.375c-7.148,0-12.754-2.56-16.836-7.677
	C263.408,835.711,260.967,825.672,260.967,811.746z M270.313,811.746c0,12.168,1.426,20.273,4.277,24.297
	c2.842,4.023,6.357,6.035,10.537,6.035c4.18,0,7.695-2.031,10.537-6.074c2.852-4.043,4.268-12.129,4.268-24.258
	c0-12.188-1.416-20.293-4.268-24.316c-2.842-4.004-6.396-6.016-10.635-6.016c-4.18,0-7.52,1.777-10.01,5.313
	C271.885,791.238,270.313,799.578,270.313,811.746L270.313,811.746z M318.535,828.875l9.551-0.801
	c0.713,4.647,2.354,8.145,4.932,10.488c2.578,2.343,5.684,3.516,9.326,3.516c4.375,0,8.086-1.66,11.113-4.961
	c3.037-3.301,4.551-7.676,4.551-13.146c0-5.176-1.455-9.276-4.365-12.266c-2.92-3.008-6.738-4.512-11.455-4.512
	c-2.93,0-5.576,0.664-7.93,2.012c-2.363,1.328-4.219,3.047-5.566,5.176l-8.535-1.112l7.178-38.066h36.846v8.691h-29.57
	l-3.994,19.922c4.443-3.105,9.111-4.648,14.004-4.648c6.465,0,11.924,2.246,16.377,6.719c4.443,4.474,6.67,10.234,6.67,17.285
	c0,6.699-1.953,12.5-5.869,17.383c-4.746,5.996-11.23,9.004-19.453,9.004c-6.738,0-12.246-1.895-16.504-5.663
	C321.572,840.125,319.141,835.125,318.535,828.875L318.535,828.875z M345.156,440.784v-77.813l-67.725-107.08h43.77l43.506,73.154
	l42.627-73.154h43.008l-67.979,107.334v77.559H345.156L345.156,440.784z M467.109,440.784V255.891h35.438v66.592
	c10.938-12.441,23.877-18.663,38.849-18.663c16.309,0,29.805,5.908,40.487,17.715c10.674,11.815,16.017,28.779,16.017,50.889
	c0,22.871-5.449,40.488-16.338,52.853c-10.89,12.354-24.111,18.535-39.658,18.535c-7.656,0-15.195-1.914-22.638-5.742
	c-7.44-3.818-13.856-9.474-19.237-16.963v19.678L467.109,440.784L467.109,440.784z M502.305,370.911
	c0,13.877,2.179,24.141,6.554,30.781c6.133,9.414,14.297,14.121,24.473,14.121c7.813,0,14.473-3.341,19.979-10.029
	c5.509-6.68,8.263-17.217,8.263-31.592c0-15.304-2.773-26.338-8.32-33.105c-5.547-6.767-12.656-10.146-21.317-10.146
	c-8.486,0-15.548,3.301-21.183,9.893C505.117,347.435,502.305,357.463,502.305,370.911z M859.014,109.172v7.588h-42.5
	c-0.067-1.904,0.244-3.73,0.918-5.479c1.084-2.9,2.813-5.752,5.195-8.555c2.383-2.813,5.83-6.055,10.332-9.746
	c6.992-5.732,11.709-10.264,14.17-13.613c2.451-3.35,3.682-6.514,3.682-9.502c0-3.125-1.112-5.771-3.35-7.92
	c-2.246-2.148-5.156-3.223-8.76-3.223c-3.799,0-6.836,1.143-9.121,3.428c-2.275,2.275-3.438,5.438-3.467,9.473l-8.115-0.84
	c0.557-6.045,2.646-10.664,6.279-13.838c3.623-3.174,8.485-4.756,14.6-4.756c6.172,0,11.055,1.709,14.658,5.127
	c3.594,3.428,5.391,7.666,5.391,12.725c0,2.578-0.526,5.107-1.571,7.588c-1.056,2.49-2.804,5.107-5.244,7.852
	c-2.441,2.754-6.504,6.523-12.179,11.318c-4.735,3.975-7.772,6.68-9.12,8.096c-1.349,1.416-2.462,2.842-3.341,4.277H859.014z
	 M829.668,171.731c-3.271-1.201-5.703-2.91-7.285-5.137c-1.572-2.217-2.362-4.883-2.362-7.979c0-4.678,1.68-8.613,5.038-11.807
	c3.369-3.184,7.843-4.775,13.429-4.775c5.614,0,10.137,1.631,13.555,4.893c3.418,3.262,5.137,7.227,5.137,11.904
	c0,2.988-0.791,5.586-2.354,7.793c-1.563,2.207-3.937,3.906-7.129,5.107c3.955,1.289,6.953,3.359,9.014,6.23
	c2.07,2.861,3.096,6.289,3.096,10.264c0,5.498-1.942,10.117-5.83,13.857c-3.896,3.75-9.014,5.615-15.36,5.615
	c-6.338,0-11.455-1.875-15.353-5.635c-3.887-3.76-5.83-8.447-5.83-14.063c0-4.18,1.056-7.676,3.185-10.498
	C822.734,174.68,825.752,172.756,829.668,171.731L829.668,171.731z M825.547,188.049c0,2.256,0.527,4.434,1.603,6.533
	c1.063,2.109,2.655,3.74,4.756,4.893c2.081,1.146,4.421,1.741,6.797,1.729c3.779,0,6.895-1.211,9.346-3.633
	c2.461-2.432,3.691-5.518,3.691-9.258c0-3.799-1.271-6.943-3.799-9.434c-2.529-2.48-5.693-3.73-9.503-3.73
	c-3.711,0-6.786,1.23-9.229,3.691C826.768,181.292,825.547,184.368,825.547,188.049L825.547,188.049z M828.086,158.352
	c0,3.037,0.986,5.527,2.939,7.451c1.963,1.934,4.502,2.9,7.637,2.9c3.037,0,5.537-0.957,7.48-2.871
	c1.942-1.914,2.92-4.268,2.92-7.041c0-2.9-1.007-5.332-3.009-7.305c-2.002-1.973-4.502-2.959-7.479-2.959
	c-3.019,0-5.519,0.957-7.5,2.891C829.082,153.352,828.086,155.657,828.086,158.352L828.086,158.352z M797.285,296.438h-7.891
	v-50.313c-1.904,1.807-4.396,3.623-7.48,5.439c-3.086,1.807-5.859,3.174-8.311,4.072v-7.627c4.414-2.08,8.271-4.59,11.582-7.549
	c3.301-2.949,5.645-5.82,7.012-8.594h5.088V296.438L797.285,296.438z M829.658,261.565c-3.271-1.201-5.703-2.91-7.285-5.137
	c-1.572-2.217-2.363-4.883-2.363-7.979c0-4.678,1.681-8.613,5.039-11.807c3.369-3.184,7.842-4.775,13.428-4.775
	c5.615,0,10.138,1.631,13.556,4.893c3.418,3.262,5.137,7.227,5.137,11.904c0,2.988-0.791,5.586-2.354,7.793
	c-1.563,2.207-3.937,3.906-7.13,5.107c3.955,1.289,6.953,3.359,9.015,6.23c2.069,2.861,3.096,6.289,3.096,10.264
	c0,5.498-1.942,10.117-5.83,13.857c-3.896,3.75-9.014,5.615-15.36,5.615c-6.339,0-11.455-1.875-15.353-5.635
	c-3.887-3.76-5.83-8.447-5.83-14.063c0-4.18,1.055-7.676,3.185-10.498C822.725,264.514,825.742,262.59,829.658,261.565
	L829.658,261.565z M825.537,277.883c0,2.256,0.527,4.434,1.602,6.533c1.064,2.109,2.656,3.74,4.756,4.893
	c2.082,1.146,4.422,1.741,6.798,1.729c3.778,0,6.895-1.211,9.346-3.633c2.461-2.432,3.69-5.518,3.69-9.258
	c0-3.799-1.27-6.943-3.799-9.434c-2.528-2.48-5.692-3.73-9.502-3.73c-3.711,0-6.787,1.23-9.229,3.691
	C826.758,271.125,825.537,274.202,825.537,277.883L825.537,277.883z M828.076,248.186c0,3.037,0.986,5.527,2.938,7.451
	c1.964,1.934,4.503,2.9,7.638,2.9c3.037,0,5.537-0.957,7.479-2.871c1.943-1.914,2.92-4.268,2.92-7.041
	c0-2.9-1.006-5.332-3.008-7.305c-2.002-1.973-4.502-2.959-7.479-2.959c-3.019,0-5.519,0.957-7.5,2.891
	C829.072,243.186,828.076,245.491,828.076,248.186L828.076,248.186z M767.588,369.31l7.9-1.056c0.908,4.474,2.451,7.695,4.629,9.668
	c2.178,1.974,4.834,2.959,7.959,2.959c3.711,0,6.854-1.278,9.414-3.856c2.559-2.568,3.838-5.763,3.838-9.562
	c0-3.623-1.191-6.621-3.555-8.975c-2.373-2.354-5.381-3.525-9.043-3.525c-1.484,0-3.341,0.293-5.566,0.879l0.879-6.934
	c0.527,0.059,0.947,0.088,1.271,0.088c3.358,0,6.387-0.879,9.082-2.637c2.686-1.748,4.032-4.453,4.032-8.115
	c0-2.891-0.977-5.293-2.938-7.188c-1.953-1.904-4.492-2.853-7.588-2.853c-3.066,0-5.625,0.957-7.677,2.891
	c-2.051,1.935-3.358,4.824-3.944,8.691l-7.9-1.406c0.967-5.293,3.164-9.395,6.582-12.305s7.676-4.365,12.764-4.365
	c3.507,0,6.738,0.752,9.697,2.256c2.949,1.505,5.215,3.564,6.777,6.162c1.563,2.607,2.344,5.371,2.344,8.291
	c0,2.783-0.742,5.313-2.236,7.588c-1.493,2.285-3.7,4.103-6.62,5.439c3.799,0.879,6.758,2.705,8.856,5.469
	c2.109,2.765,3.164,6.221,3.164,10.371c0,5.615-2.051,10.371-6.143,14.277c-4.103,3.905-9.277,5.858-15.527,5.858
	c-5.646,0-10.332-1.68-14.063-5.049C770.244,379.017,768.115,374.661,767.588,369.31L767.588,369.31z M847.246,386.282h-7.891
	v-50.313c-1.904,1.808-4.396,3.623-7.48,5.439c-3.086,1.807-5.859,3.174-8.311,4.072v-7.627c4.414-2.08,8.271-4.591,11.582-7.55
	c3.301-2.948,5.645-5.819,7.012-8.594h5.088V386.282L847.246,386.282z M829.668,441.243c-3.271-1.201-5.703-2.91-7.285-5.137
	c-1.571-2.218-2.362-4.884-2.362-7.979c0-4.678,1.68-8.613,5.039-11.807c3.368-3.185,7.842-4.775,13.428-4.775
	c5.615,0,10.137,1.631,13.555,4.894c3.418,3.262,5.137,7.227,5.137,11.903c0,2.988-0.791,5.586-2.354,7.793
	c-1.563,2.207-3.937,3.906-7.129,5.107c3.955,1.289,6.953,3.359,9.014,6.229c2.07,2.861,3.096,6.289,3.096,10.264
	c0,5.494-1.942,10.123-5.829,13.854c-3.896,3.75-9.015,5.625-15.361,5.625c-6.338,0-11.455-1.875-15.353-5.645
	c-3.887-3.75-5.83-8.438-5.83-14.06c0-4.18,1.056-7.675,3.185-10.498C822.734,444.192,825.752,442.269,829.668,441.243
	L829.668,441.243z M825.547,457.562c0,2.252,0.527,4.438,1.603,6.528c1.063,2.109,2.655,3.75,4.756,4.902
	c2.108,1.152,4.375,1.719,6.797,1.719c3.779,0,6.895-1.211,9.346-3.633c2.461-2.422,3.691-5.508,3.691-9.254
	c0-3.799-1.271-6.943-3.799-9.434c-2.529-2.479-5.693-3.729-9.502-3.729c-3.712,0-6.787,1.229-9.229,3.691
	C826.768,450.803,825.547,453.879,825.547,457.562L825.547,457.562z M828.086,427.864c0,3.037,0.986,5.526,2.939,7.451
	c1.963,1.934,4.502,2.899,7.637,2.899c3.037,0,5.537-0.957,7.48-2.871c1.942-1.914,2.92-4.268,2.92-7.041
	c0-2.899-1.006-5.332-3.009-7.305c-2.002-1.973-4.502-2.959-7.479-2.959c-3.018,0-5.518,0.957-7.5,2.891
	C829.082,422.864,828.086,425.168,828.086,427.864L828.086,427.864z M859.014,558.367v7.598h-42.5
	c-0.067-1.914,0.244-3.729,0.918-5.487c1.084-2.892,2.813-5.742,5.195-8.556c2.382-2.813,5.83-6.055,10.332-9.746
	c6.992-5.723,11.709-10.254,14.17-13.612c2.451-3.34,3.683-6.504,3.683-9.492c0-3.125-1.113-5.781-3.351-7.93
	c-2.246-2.148-5.156-3.224-8.76-3.224c-3.799,0-6.836,1.152-9.121,3.438c-2.275,2.266-3.438,5.43-3.467,9.473l-8.115-0.84
	c0.557-6.055,2.646-10.664,6.279-13.848c3.623-3.164,8.486-4.746,14.6-4.746c6.172,0,11.055,1.698,14.658,5.116
	c3.594,3.438,5.391,7.677,5.391,12.734c0,2.578-0.526,5.098-1.571,7.578c-1.056,2.5-2.804,5.117-5.244,7.852
	c-2.441,2.755-6.504,6.523-12.179,11.328c-4.735,3.965-7.772,6.681-9.12,8.086c-1.349,1.427-2.461,2.853-3.341,4.277H859.014
	L859.014,558.367z"/>
</svg>
