<?xml version="1.0" encoding="utf-8"?>
<!-- Generator: Adobe Illustrator 16.0.3, SVG Export Plug-In . SVG Version: 6.00 Build 0)  -->
<!DOCTYPE svg PUBLIC "-//W3C//DTD SVG 1.1//EN" "http://www.w3.org/Graphics/SVG/1.1/DTD/svg11.dtd">
<svg version="1.1" id="Layer_1" xmlns="http://www.w3.org/2000/svg" xmlns:xlink="http://www.w3.org/1999/xlink" x="0px" y="0px"
	 width="900px" height="900px" viewBox="0 0 900 900" enable-background="new 0 0 900 900" xml:space="preserve">
<path d="M40.195,65.627v-13.3h72.959v10.771c-7.178,7.637-14.287,17.783-21.338,30.439c-7.051,12.656-12.49,25.684-16.338,39.053
	c-2.764,9.434-4.531,19.766-5.303,30.986H55.957c0.146-8.867,1.895-19.58,5.225-32.139s8.105-24.658,14.336-36.328
	c6.23-11.65,12.852-21.484,19.873-29.482H40.195L40.195,65.627z M178.965,163.577h-13.838V75.393
	c-3.34,3.184-7.705,6.357-13.115,9.531c-5.4,3.184-10.264,5.566-14.561,7.158V78.704c7.734-3.643,14.502-8.047,20.293-13.223
	c5.791-5.176,9.893-10.205,12.305-15.068h8.916V163.577L178.965,163.577z M257.305,662.498v-74.102h9.805v65.352h36.494v8.75
	H257.305L257.305,662.498z M349.297,662.498v-7.891c-4.18,6.073-9.854,9.102-17.031,9.102c-3.174,0-6.123-0.605-8.877-1.816
	c-2.744-1.211-4.785-2.733-6.113-4.59c-1.328-1.836-2.266-4.082-2.803-6.737c-0.371-1.777-0.557-4.609-0.557-8.496v-33.263h9.102
	v29.785c0,4.746,0.186,7.949,0.557,9.59c0.566,2.402,1.777,4.277,3.633,5.646s4.15,2.051,6.875,2.051
	c2.734,0,5.293-0.703,7.686-2.108c2.393-1.388,4.082-3.302,5.078-5.703c0.996-2.402,1.494-5.898,1.494-10.488v-28.771h9.092v53.691
	L349.297,662.498L349.297,662.498z M391.553,654.354l1.309,8.048c-2.559,0.526-4.844,0.801-6.875,0.801
	c-3.301,0-5.859-0.527-7.676-1.563c-1.826-1.055-3.105-2.422-3.848-4.121c-0.743-1.698-1.104-5.293-1.104-10.741v-30.879h-6.68
	v-7.091h6.68v-13.28l9.043-5.47v18.75h9.15v7.091h-9.15v31.387c0,2.598,0.156,4.258,0.479,5c0.323,0.742,0.84,1.328,1.572,1.776
	c0.723,0.431,1.758,0.646,3.105,0.646C388.564,654.705,389.902,654.588,391.553,654.354L391.553,654.354z M437.197,645.213
	l9.395,1.152c-1.483,5.487-4.229,9.766-8.231,12.793c-4.015,3.026-9.142,4.551-15.371,4.551c-7.853,0-14.072-2.422-18.672-7.266
	c-4.601-4.824-6.904-11.603-6.904-20.332c0-9.023,2.324-16.035,6.973-21.035c4.658-4.98,10.685-7.48,18.097-7.48
	c7.178,0,13.047,2.441,17.598,7.345c4.541,4.883,6.816,11.758,6.816,20.604c0,0.547-0.011,1.349-0.05,2.441h-40.028
	c0.332,5.897,2.002,10.41,5,13.535c2.998,3.145,6.737,4.707,11.221,4.707c3.34,0,6.182-0.88,8.545-2.638
	C433.945,651.854,435.811,649.041,437.197,645.213z M407.324,630.506h29.971c-0.41-4.531-1.553-7.91-3.438-10.176
	c-2.9-3.496-6.66-5.254-11.271-5.254c-4.18,0-7.695,1.406-10.537,4.199C409.199,622.068,407.627,625.818,407.324,630.506
	L407.324,630.506z M477.891,654.354l1.31,8.047c-2.56,0.526-4.844,0.801-6.875,0.801c-3.301,0-5.859-0.527-7.676-1.563
	c-1.826-1.055-3.105-2.422-3.849-4.12c-0.742-1.699-1.104-5.294-1.104-10.742v-30.879h-6.68v-7.091h6.68v-13.28l9.043-5.47v18.75
	h9.149v7.091h-9.149v31.387c0,2.598,0.156,4.258,0.479,5c0.323,0.742,0.84,1.328,1.572,1.777c0.723,0.43,1.758,0.645,3.105,0.645
	C474.902,654.705,476.24,654.588,477.891,654.354L477.891,654.354z M486.836,598.865v-10.469h9.103v10.469H486.836z
	 M486.836,662.498v-53.691h9.103v53.691H486.836z M544.961,662.498v-7.891c-4.18,6.073-9.854,9.102-17.031,9.102
	c-3.174,0-6.123-0.604-8.877-1.816c-2.744-1.211-4.785-2.733-6.112-4.59c-1.328-1.836-2.267-4.082-2.804-6.737
	c-0.371-1.777-0.557-4.609-0.557-8.496v-33.263h9.102v29.785c0,4.746,0.187,7.949,0.558,9.59c0.565,2.402,1.776,4.277,3.633,5.646
	s4.15,2.051,6.875,2.051c2.734,0,5.293-0.703,7.686-2.108c2.394-1.388,4.082-3.302,5.078-5.703
	c0.996-2.402,1.494-5.898,1.494-10.488v-28.77h9.092v53.69L544.961,662.498L544.961,662.498z M567.354,662.498v-53.691h8.135v7.539
	c1.688-2.637,3.926-4.746,6.719-6.348c2.803-1.602,5.986-2.402,9.562-2.402c3.975,0,7.235,0.841,9.774,2.48
	c2.549,1.66,4.336,3.965,5.381,6.934c4.248-6.27,9.775-9.414,16.582-9.414c5.322,0,9.414,1.484,12.285,4.435
	c2.861,2.949,4.297,7.479,4.297,13.612v36.855h-9.053V628.67c0-3.633-0.293-6.25-0.879-7.852c-0.597-1.603-1.66-2.892-3.213-3.867
	c-1.554-0.977-3.369-1.465-5.459-1.465c-3.771,0-6.904,1.25-9.404,3.77c-2.49,2.5-3.74,6.523-3.74,12.051v31.191h-9.092v-34.883
	c0-4.043-0.742-7.07-2.227-9.103c-1.484-2.012-3.906-3.026-7.275-3.026c-2.568,0-4.932,0.684-7.109,2.03
	c-2.168,1.349-3.739,3.302-4.727,5.898c-0.978,2.598-1.465,6.348-1.465,11.229v27.853L567.354,662.498L567.354,662.498z
	 M93.75,848.318h-9.102V790.35c-2.188,2.091-5.059,4.181-8.613,6.271c-3.554,2.09-6.748,3.651-9.58,4.707v-8.81
	c5.088-2.383,9.541-5.293,13.35-8.69c3.799-3.398,6.504-6.699,8.086-9.902h5.859V848.318z M117.656,783.924v-8.729h47.969v7.069
	c-4.717,5.021-9.395,11.699-14.023,20.021c-4.639,8.32-8.213,16.875-10.742,25.664c-1.826,6.211-2.988,12.987-3.486,20.371h-9.355
	c0.098-5.82,1.25-12.871,3.438-21.113c2.188-8.262,5.332-16.229,9.424-23.887c4.102-7.677,8.457-14.142,13.066-19.396H117.656
	L117.656,783.924z M203.779,848.318v-17.734H171.64v-8.34l33.809-48.027h7.432v48.027h10.01v8.34h-10.01v17.734H203.779z
	 M203.779,822.244v-33.418l-23.193,33.418H203.779z M237.305,848.318v-10.353h10.361v10.353H237.305z M262.324,831.189l8.74-0.802
	c0.742,4.103,2.158,7.09,4.248,8.945c2.09,1.854,4.766,2.772,8.037,2.772c2.793,0,5.244-0.645,7.354-1.913
	c2.109-1.289,3.828-2.988,5.176-5.138c1.348-2.148,2.48-5.039,3.389-8.672c0.909-3.633,1.367-7.344,1.367-11.113
	c0-0.409-0.02-1.016-0.049-1.815c-1.826,2.891-4.307,5.233-7.461,7.051c-3.145,1.797-6.563,2.695-10.234,2.695
	c-6.133,0-11.318-2.228-15.566-6.681c-4.248-4.434-6.367-10.293-6.367-17.577c0-7.521,2.217-13.574,6.65-18.146
	c4.424-4.59,9.98-6.875,16.65-6.875c4.814,0,9.229,1.289,13.213,3.887c3.994,2.599,7.031,6.289,9.102,11.095
	c2.071,4.805,3.105,11.758,3.105,20.858c0,9.474-1.025,17.013-3.076,22.617c-2.061,5.605-5.117,9.883-9.18,12.813
	c-4.063,2.93-8.818,4.395-14.277,4.395c-5.791,0-10.527-1.602-14.199-4.824C265.274,841.541,263.066,837.01,262.324,831.189
	L262.324,831.189z M299.57,798.494c0-5.234-1.387-9.375-4.17-12.441c-2.773-3.065-6.123-4.608-10.029-4.608
	c-4.043,0-7.568,1.659-10.566,4.961c-2.998,3.301-4.502,7.578-4.502,12.832c0,4.727,1.426,8.555,4.277,11.504
	c2.842,2.948,6.357,4.434,10.537,4.434c4.209,0,7.676-1.483,10.391-4.434C298.213,807.791,299.57,803.709,299.57,798.494
	L299.57,798.494z M319.131,783.924v-8.729H367.1v7.069c-4.717,5.021-9.395,11.699-14.023,20.021
	c-4.639,8.319-8.213,16.875-10.742,25.664c-1.826,6.211-2.988,12.987-3.486,20.371h-9.355c0.098-5.82,1.25-12.871,3.438-21.113
	c2.188-8.262,5.332-16.23,9.424-23.887c4.102-7.677,8.447-14.142,13.066-19.396H319.131L319.131,783.924z M304.668,440.813V257.434
	h37.324v152.227h92.822v31.152L304.668,440.813L304.668,440.813z M549.336,440.813v-20.049c-4.883,7.14-11.289,12.773-19.238,16.896
	c-7.938,4.121-16.328,6.182-25.155,6.182c-9.005,0-17.07-1.973-24.22-5.928c-7.148-3.955-12.313-9.502-15.508-16.65
	c-3.203-7.139-4.795-17.021-4.795-29.639v-84.746h35.439v61.543c0,18.838,0.645,30.371,1.953,34.619
	c1.299,4.248,3.682,7.606,7.129,10.088c3.446,2.481,7.813,3.721,13.114,3.721c6.056,0,11.476-1.66,16.271-4.979
	c4.795-3.32,8.065-7.441,9.834-12.354c1.768-4.922,2.646-16.963,2.646-36.133v-56.504h35.439v133.936L549.336,440.813
	L549.336,440.813z M859.014,109.202v7.588h-42.5c-0.067-1.904,0.244-3.73,0.918-5.479c1.084-2.9,2.813-5.752,5.195-8.555
	c2.383-2.813,5.83-6.055,10.332-9.746c6.992-5.732,11.709-10.264,14.17-13.613c2.451-3.35,3.682-6.514,3.682-9.502
	c0-3.125-1.112-5.771-3.35-7.92c-2.246-2.148-5.156-3.223-8.76-3.223c-3.799,0-6.836,1.143-9.121,3.428
	c-2.275,2.275-3.438,5.439-3.467,9.473l-8.115-0.84c0.557-6.045,2.646-10.664,6.279-13.838c3.623-3.174,8.485-4.756,14.6-4.756
	c6.172,0,11.055,1.709,14.658,5.127c3.594,3.428,5.391,7.666,5.391,12.725c0,2.578-0.526,5.107-1.571,7.588
	c-1.056,2.49-2.804,5.107-5.244,7.852c-2.441,2.754-6.504,6.523-12.179,11.318c-4.735,3.975-7.772,6.68-9.12,8.096
	c-1.349,1.416-2.462,2.842-3.341,4.277H859.014z M829.668,171.76c-3.271-1.201-5.703-2.91-7.285-5.137
	c-1.572-2.217-2.362-4.883-2.362-7.979c0-4.678,1.68-8.613,5.038-11.807c3.369-3.184,7.843-4.775,13.429-4.775
	c5.614,0,10.137,1.631,13.555,4.893c3.418,3.262,5.137,7.227,5.137,11.904c0,2.988-0.791,5.586-2.354,7.793
	c-1.563,2.207-3.937,3.906-7.129,5.107c3.955,1.289,6.953,3.359,9.014,6.23c2.07,2.861,3.096,6.289,3.096,10.264
	c0,5.498-1.942,10.117-5.83,13.857c-3.896,3.75-9.014,5.615-15.36,5.615c-6.338,0-11.455-1.875-15.353-5.635
	c-3.887-3.76-5.83-8.447-5.83-14.063c0-4.18,1.056-7.676,3.185-10.498C822.734,174.709,825.752,172.786,829.668,171.76z
	 M825.547,188.079c0,2.256,0.527,4.434,1.603,6.533c1.063,2.109,2.655,3.74,4.756,4.893c2.081,1.146,4.421,1.741,6.797,1.729
	c3.779,0,6.895-1.211,9.346-3.633c2.461-2.432,3.691-5.518,3.691-9.258c0-3.799-1.271-6.943-3.799-9.434
	c-2.529-2.48-5.693-3.73-9.503-3.73c-3.711,0-6.786,1.23-9.229,3.691C826.768,181.321,825.547,184.397,825.547,188.079
	L825.547,188.079z M828.086,158.381c0,3.037,0.986,5.527,2.939,7.451c1.963,1.934,4.502,2.9,7.637,2.9
	c3.037,0,5.537-0.957,7.48-2.871c1.942-1.914,2.92-4.268,2.92-7.041c0-2.9-1.007-5.332-3.009-7.305
	c-2.002-1.973-4.502-2.959-7.479-2.959c-3.019,0-5.519,0.957-7.5,2.891C829.082,153.381,828.086,155.686,828.086,158.381
	L828.086,158.381z M797.285,296.467h-7.891v-50.313c-1.904,1.807-4.396,3.623-7.48,5.439c-3.086,1.807-5.859,3.174-8.311,4.072
	v-7.627c4.414-2.08,8.271-4.59,11.582-7.549c3.301-2.949,5.645-5.82,7.012-8.594h5.088V296.467L797.285,296.467z M829.658,261.594
	c-3.271-1.201-5.703-2.91-7.285-5.137c-1.572-2.217-2.363-4.883-2.363-7.979c0-4.678,1.681-8.613,5.039-11.807
	c3.369-3.184,7.842-4.775,13.428-4.775c5.615,0,10.138,1.631,13.556,4.893c3.418,3.262,5.137,7.227,5.137,11.904
	c0,2.988-0.791,5.586-2.354,7.793c-1.563,2.207-3.937,3.906-7.13,5.107c3.955,1.289,6.953,3.359,9.015,6.23
	c2.069,2.861,3.096,6.289,3.096,10.264c0,5.498-1.942,10.117-5.83,13.857c-3.896,3.75-9.014,5.615-15.36,5.615
	c-6.339,0-11.455-1.875-15.353-5.635c-3.887-3.76-5.83-8.447-5.83-14.063c0-4.18,1.055-7.676,3.185-10.498
	C822.725,264.543,825.742,262.62,829.658,261.594L829.658,261.594z M825.537,277.913c0,2.256,0.527,4.434,1.602,6.533
	c1.064,2.109,2.656,3.74,4.756,4.893c2.082,1.146,4.422,1.741,6.798,1.729c3.778,0,6.895-1.211,9.346-3.633
	c2.461-2.432,3.69-5.518,3.69-9.258c0-3.799-1.27-6.943-3.799-9.434c-2.528-2.48-5.692-3.73-9.502-3.73
	c-3.711,0-6.787,1.23-9.229,3.691C826.758,271.155,825.537,274.231,825.537,277.913L825.537,277.913z M828.076,248.215
	c0,3.037,0.986,5.527,2.938,7.451c1.964,1.934,4.503,2.9,7.638,2.9c3.037,0,5.537-0.957,7.479-2.871
	c1.943-1.914,2.92-4.268,2.92-7.041c0-2.9-1.006-5.332-3.008-7.305s-4.502-2.959-7.479-2.959c-3.019,0-5.519,0.957-7.5,2.891
	C829.072,243.215,828.076,245.52,828.076,248.215L828.076,248.215z M767.588,369.338l7.9-1.055c0.908,4.473,2.451,7.695,4.629,9.668
	s4.834,2.959,7.959,2.959c3.711,0,6.854-1.279,9.414-3.857c2.559-2.567,3.838-5.762,3.838-9.561c0-3.623-1.191-6.621-3.555-8.976
	c-2.373-2.354-5.381-3.524-9.043-3.524c-1.484,0-3.341,0.293-5.566,0.879l0.879-6.934c0.527,0.059,0.947,0.088,1.271,0.088
	c3.358,0,6.387-0.879,9.082-2.638c2.686-1.748,4.032-4.452,4.032-8.114c0-2.892-0.977-5.293-2.938-7.188
	c-1.953-1.904-4.492-2.852-7.588-2.852c-3.066,0-5.625,0.957-7.677,2.891c-2.051,1.934-3.358,4.824-3.944,8.691l-7.9-1.406
	c0.967-5.293,3.164-9.396,6.582-12.305c3.418-2.91,7.676-4.365,12.764-4.365c3.507,0,6.738,0.752,9.697,2.256
	c2.949,1.504,5.215,3.564,6.777,6.162c1.563,2.606,2.344,5.371,2.344,8.291c0,2.783-0.742,5.313-2.236,7.588
	c-1.493,2.285-3.7,4.102-6.62,5.439c3.799,0.879,6.758,2.704,8.856,5.469c2.109,2.764,3.164,6.221,3.164,10.371
	c0,5.614-2.051,10.371-6.143,14.276c-4.103,3.906-9.277,5.859-15.527,5.859c-5.646,0-10.332-1.68-14.063-5.049
	C770.244,379.045,768.115,374.69,767.588,369.338L767.588,369.338z M859.004,378.723v7.588h-42.5
	c-0.067-1.903,0.244-3.729,0.918-5.479c1.084-2.9,2.813-5.752,5.195-8.555c2.383-2.813,5.83-6.056,10.332-9.746
	c6.992-5.732,11.709-10.265,14.17-13.613c2.451-3.35,3.682-6.514,3.682-9.502c0-3.125-1.112-5.771-3.35-7.92
	c-2.246-2.148-5.156-3.223-8.76-3.223c-3.799,0-6.836,1.143-9.121,3.428c-2.275,2.274-3.438,5.438-3.467,9.473l-8.115-0.84
	c0.557-6.045,2.646-10.664,6.279-13.838c3.623-3.174,8.485-4.756,14.6-4.756c6.172,0,11.055,1.709,14.658,5.127
	c3.594,3.428,5.391,7.666,5.391,12.725c0,2.578-0.527,5.107-1.572,7.588c-1.055,2.49-2.803,5.107-5.244,7.853
	c-2.44,2.754-6.504,6.522-12.178,11.317c-4.735,3.976-7.772,6.681-9.121,8.097c-1.348,1.416-2.461,2.842-3.34,4.276H859.004
	L859.004,378.723z M818.701,461.268l7.588-0.702c0.646,3.573,1.875,6.172,3.691,7.772c1.807,1.603,4.131,2.402,6.973,2.402
	c2.422,0,4.551-0.547,6.377-1.66s3.33-2.598,4.502-4.453c1.172-1.854,2.148-4.354,2.939-7.525c0.789-3.154,1.187-6.396,1.182-9.647
	c0-0.353-0.02-0.879-0.039-1.572c-1.582,2.51-3.74,4.551-6.475,6.113s-5.693,2.344-8.888,2.344c-5.321,0-9.823-1.924-13.506-5.781
	c-3.69-3.866-5.526-8.954-5.526-15.272c0-6.514,1.924-11.769,5.771-15.742c3.838-3.975,8.662-5.967,14.453-5.967
	c4.18,0,7.998,1.123,11.465,3.379c3.467,2.246,6.104,5.459,7.9,9.629c1.797,4.16,2.695,10.195,2.695,18.096
	c0,8.212-0.89,14.755-2.677,19.625c-1.787,4.863-4.434,8.574-7.959,11.113c-3.524,2.559-7.655,3.828-12.393,3.828
	c-5.029,0-9.141-1.406-12.324-4.199C821.261,470.252,819.347,466.326,818.701,461.268L818.701,461.268z M851.035,432.893
	c0-4.53-1.211-8.135-3.623-10.791c-2.412-2.666-5.313-3.993-8.711-3.993c-3.506,0-6.563,1.436-9.16,4.297
	c-2.606,2.871-3.906,6.582-3.906,11.143c0,4.103,1.23,7.422,3.701,9.98c2.471,2.558,5.527,3.838,9.15,3.838
	c3.651,0,6.66-1.279,9.014-3.838C849.854,440.969,851.035,437.424,851.035,432.893z M859.014,558.396v7.598h-42.5
	c-0.067-1.914,0.244-3.73,0.918-5.488c1.084-2.891,2.813-5.742,5.195-8.555c2.382-2.813,5.83-6.055,10.332-9.746
	c6.992-5.723,11.709-10.254,14.17-13.613c2.451-3.34,3.683-6.504,3.683-9.492c0-3.125-1.113-5.78-3.351-7.93
	c-2.246-2.147-5.156-3.223-8.76-3.223c-3.799,0-6.836,1.152-9.121,3.438c-2.275,2.267-3.438,5.431-3.467,9.474l-8.115-0.841
	c0.557-6.055,2.646-10.663,6.279-13.848c3.623-3.164,8.486-4.746,14.6-4.746c6.172,0,11.055,1.699,14.658,5.117
	c3.594,3.438,5.391,7.676,5.391,12.734c0,2.578-0.526,5.098-1.571,7.578c-1.056,2.5-2.804,5.116-5.244,7.852
	c-2.441,2.754-6.504,6.523-12.179,11.328c-4.735,3.965-7.772,6.68-9.12,8.086c-1.349,1.426-2.461,2.852-3.341,4.277H859.014
	L859.014,558.396z"/>
</svg>
