<?xml version="1.0" encoding="utf-8"?>
<!-- Generator: Adobe Illustrator 16.0.3, SVG Export Plug-In . SVG Version: 6.00 Build 0)  -->
<!DOCTYPE svg PUBLIC "-//W3C//DTD SVG 1.1//EN" "http://www.w3.org/Graphics/SVG/1.1/DTD/svg11.dtd">
<svg version="1.1" id="Layer_1" xmlns="http://www.w3.org/2000/svg" xmlns:xlink="http://www.w3.org/1999/xlink" x="0px" y="0px"
	 width="900px" height="900px" viewBox="0 0 900 900" enable-background="new 0 0 900 900" xml:space="preserve">
<path d="M40.2,65.635V52.334h72.959v10.781c-7.178,7.637-14.287,17.773-21.338,30.43c-7.051,12.657-12.49,25.684-16.338,39.063
	c-2.764,9.434-4.531,19.766-5.303,30.977H55.962c0.146-8.867,1.895-19.57,5.225-32.129s8.105-24.668,14.336-36.328
	s12.852-21.484,19.873-29.492L40.2,65.635L40.2,65.635z M199.575,150.283v13.301h-74.502c-0.105-3.278,0.442-6.544,1.611-9.609
	c1.904-5.078,4.932-10.059,9.111-14.98c4.179-4.921,10.215-10.625,18.105-17.07c12.256-10.059,20.527-18.008,24.834-23.867
	c4.307-5.879,6.455-11.426,6.455-16.66c0-5.469-1.953-10.098-5.879-13.867c-3.916-3.771-9.033-5.646-15.332-5.646
	c-6.67,0-12.002,1.992-15.996,5.996c-3.994,3.984-6.025,9.531-6.074,16.602l-14.219-1.465c0.967-10.605,4.639-18.691,10.996-24.258
	c6.348-5.566,14.883-8.34,25.596-8.34c10.811,0,19.375,3.008,25.684,9.004c6.299,5.996,9.453,13.418,9.453,22.285
	c0,4.512-0.928,8.945-2.773,13.301c-1.836,4.355-4.902,8.945-9.18,13.77c-4.287,4.805-11.396,11.426-21.338,19.824
	c-8.301,6.973-13.633,11.699-15.986,14.18c-2.363,2.5-4.307,5-5.85,7.5h55.284V150.283z M263.804,662.49v-74.103h9.805v30.431
	h38.516v-30.431h9.805v74.103h-9.805v-34.922h-38.516v34.922H263.804z M372.124,655.869c-3.379,2.852-6.621,4.883-9.736,6.055
	c-3.115,1.191-6.455,1.777-10.029,1.777c-5.898,0-10.43-1.445-13.594-4.316c-3.174-2.891-4.756-6.563-4.756-11.055
	c0-2.617,0.596-5.021,1.797-7.207c1.191-2.168,2.764-3.906,4.697-5.215c1.934-1.328,4.121-2.324,6.543-2.988
	c1.787-0.469,4.482-0.938,8.086-1.367c7.354-0.879,12.754-1.914,16.23-3.125c0.029-1.25,0.049-2.051,0.049-2.383
	c0-3.711-0.859-6.328-2.578-7.832c-2.324-2.051-5.781-3.086-10.361-3.086c-4.277,0-7.441,0.742-9.473,2.246
	c-2.041,1.504-3.555,4.16-4.531,7.969l-8.896-1.211c0.811-3.809,2.148-6.895,3.994-9.238c1.855-2.344,4.531-4.141,8.037-5.409
	c3.506-1.25,7.568-1.896,12.188-1.896c4.58,0,8.301,0.547,11.172,1.621c2.861,1.074,4.961,2.441,6.309,4.063
	c1.348,1.641,2.295,3.711,2.832,6.19c0.303,1.563,0.459,4.355,0.459,8.398v12.129c0,8.457,0.195,13.809,0.576,16.055
	c0.398,2.264,1.178,4.442,2.305,6.445h-9.502C372.993,660.596,372.388,658.389,372.124,655.869L372.124,655.869z M371.362,635.537
	c-3.301,1.348-8.262,2.5-14.863,3.438c-3.74,0.547-6.387,1.152-7.93,1.836c-1.553,0.664-2.754,1.66-3.594,2.949
	c-0.84,1.289-1.26,2.734-1.26,4.316c0,2.422,0.918,4.453,2.754,6.074c1.836,1.62,4.521,2.422,8.057,2.422
	c3.506,0,6.621-0.763,9.355-2.306c2.725-1.522,4.736-3.633,6.016-6.289c0.977-2.051,1.465-5.077,1.465-9.102V635.537
	L371.362,635.537z M396.831,662.49v-46.603h-8.037v-7.09h8.037v-5.703c0-3.612,0.322-6.289,0.967-8.047
	c0.869-2.344,2.412-4.258,4.619-5.723s5.303-2.207,9.277-2.207c2.559,0,5.391,0.313,8.496,0.918l-1.367,7.93
	c-1.896-0.332-3.672-0.508-5.361-0.508c-2.764,0-4.717,0.586-5.859,1.777c-1.151,1.172-1.719,3.379-1.719,6.62v4.941h10.459v7.09
	h-10.459v46.603L396.831,662.49L396.831,662.49z M423.423,662.49v-53.691h8.185v7.637c3.944-5.897,9.639-8.848,17.09-8.848
	c3.231,0,6.201,0.586,8.916,1.758c2.715,1.152,4.746,2.677,6.094,4.57c1.348,1.875,2.285,4.121,2.832,6.719
	c0.332,1.681,0.498,4.629,0.498,8.849v33.008h-9.092v-32.656c0-3.711-0.353-6.484-1.064-8.32c-0.703-1.836-1.963-3.301-3.76-4.395
	c-1.807-1.094-3.926-1.642-6.348-1.642c-3.878,0-7.218,1.23-10.029,3.691c-2.822,2.461-4.229,7.129-4.229,14.004v29.316H423.423
	L423.423,662.49z M481.04,598.857v-10.47h9.102v10.47H481.04z M481.04,662.49v-53.691h9.102v53.691H481.04z M539.165,662.49V654.6
	c-4.18,6.074-9.854,9.103-17.031,9.103c-3.174,0-6.123-0.605-8.877-1.816c-2.744-1.211-4.785-2.733-6.112-4.59
	c-1.328-1.836-2.267-4.082-2.804-6.738c-0.371-1.776-0.557-4.608-0.557-8.495V608.8h9.102v29.785c0,4.746,0.187,7.949,0.558,9.59
	c0.565,2.402,1.776,4.277,3.633,5.646c1.855,1.368,4.149,2.051,6.875,2.051c2.733,0,5.293-0.703,7.686-2.109
	c2.394-1.387,4.082-3.301,5.078-5.703c0.996-2.401,1.494-5.897,1.494-10.487v-28.771h9.092v53.691h-8.136V662.49z M561.567,662.49
	v-53.691h8.135v7.539c1.688-2.637,3.926-4.746,6.719-6.348c2.803-1.603,5.986-2.402,9.562-2.402c3.975,0,7.235,0.84,9.774,2.48
	c2.549,1.659,4.336,3.965,5.381,6.934c4.248-6.27,9.775-9.414,16.582-9.414c5.322,0,9.414,1.484,12.285,4.435
	c2.861,2.948,4.297,7.479,4.297,13.612v36.855h-9.053v-33.828c0-3.633-0.293-6.25-0.879-7.853c-0.597-1.602-1.66-2.891-3.213-3.866
	c-1.554-0.977-3.369-1.466-5.459-1.466c-3.771,0-6.904,1.25-9.404,3.771c-2.49,2.5-3.74,6.523-3.74,12.051v31.191h-9.092v-34.883
	c0-4.043-0.742-7.07-2.227-9.103c-1.484-2.012-3.906-3.026-7.275-3.026c-2.568,0-4.932,0.684-7.109,2.03
	c-2.168,1.349-3.739,3.302-4.727,5.898c-0.978,2.598-1.465,6.348-1.465,11.229v27.853L561.567,662.49L561.567,662.49z
	 M93.755,848.33h-9.102v-57.988c-2.188,2.09-5.059,4.181-8.613,6.271c-3.554,2.09-6.748,3.672-9.58,4.707v-8.789
	c5.088-2.402,9.541-5.293,13.35-8.691c3.799-3.418,6.504-6.719,8.086-9.922h5.859V848.33L93.755,848.33z M117.661,783.936v-8.75
	h47.969v7.07c-4.717,5.021-9.395,11.699-14.023,20.021c-4.639,8.319-8.213,16.895-10.742,25.684
	c-1.826,6.191-2.988,12.988-3.486,20.371h-9.355c0.098-5.84,1.25-12.871,3.438-21.133c2.188-8.263,5.332-16.211,9.424-23.888
	c4.102-7.655,8.447-14.12,13.066-19.375H117.661z M188.628,808.135c-3.779-1.367-6.572-3.34-8.398-5.897
	c-1.816-2.578-2.725-5.646-2.725-9.199c0-5.391,1.934-9.922,5.811-13.613c3.877-3.672,9.033-5.508,15.469-5.508
	c6.465,0,11.68,1.896,15.615,5.646c3.945,3.75,5.918,8.34,5.918,13.729c0,3.438-0.898,6.426-2.705,8.965
	c-1.807,2.539-4.541,4.513-8.213,5.879c4.551,1.484,8.008,3.888,10.391,7.188c2.373,3.301,3.555,7.246,3.555,11.815
	c0,6.349-2.236,11.66-6.719,15.978c-4.483,4.316-10.381,6.465-17.686,6.465c-7.314,0-13.213-2.148-17.695-6.484
	s-6.719-9.727-6.719-16.211c0-4.805,1.221-8.848,3.662-12.09C180.63,811.533,184.106,809.326,188.628,808.135L188.628,808.135z
	 M183.872,826.943c0,2.598,0.615,5.098,1.846,7.539c1.23,2.422,3.057,4.297,5.488,5.625c2.422,1.327,5.029,1.991,7.832,1.991
	c4.346,0,7.93-1.387,10.762-4.18c2.832-2.813,4.248-6.367,4.248-10.664c0-4.395-1.455-8.008-4.375-10.879
	c-2.91-2.852-6.563-4.297-10.938-4.297c-4.277,0-7.832,1.426-10.645,4.258S183.872,822.705,183.872,826.943L183.872,826.943z
	 M186.802,792.725c0,3.517,1.133,6.367,3.389,8.595c2.256,2.227,5.186,3.34,8.799,3.34c3.506,0,6.377-1.113,8.613-3.32
	c2.246-2.207,3.359-4.901,3.359-8.104c0-3.341-1.152-6.134-3.457-8.418c-2.314-2.267-5.186-3.418-8.623-3.418
	c-3.467,0-6.348,1.112-8.643,3.34C187.954,786.963,186.802,789.619,186.802,792.725L186.802,792.725z M237.31,848.33v-10.371h10.361
	v10.371H237.31z M290.122,848.33v-17.754h-32.139v-8.34l33.809-48.009h7.432v48.009h10.01v8.34h-10.01v17.754H290.122z
	 M290.122,822.236v-33.398l-23.193,33.398H290.122z M319.897,831.182l8.74-0.801c0.742,4.121,2.158,7.09,4.248,8.945
	c2.09,1.854,4.766,2.772,8.037,2.772c2.793,0,5.244-0.625,7.354-1.914c2.109-1.27,3.828-2.987,5.176-5.137
	c1.348-2.129,2.48-5.02,3.389-8.652c0.91-3.641,1.369-7.38,1.367-11.133c0-0.391-0.02-0.996-0.049-1.815
	c-1.826,2.891-4.307,5.254-7.461,7.051c-3.111,1.794-6.643,2.73-10.234,2.715c-6.133,0-11.318-2.227-15.566-6.68
	s-6.367-10.313-6.367-17.599c0-7.5,2.217-13.555,6.65-18.145c4.424-4.57,9.98-6.875,16.65-6.875c4.814,0,9.229,1.309,13.213,3.906
	c3.994,2.598,7.031,6.289,9.102,11.094c2.071,4.805,3.105,11.738,3.105,20.84c0,9.474-1.025,17.012-3.076,22.617
	c-2.061,5.625-5.117,9.883-9.18,12.813c-4.063,2.931-8.818,4.396-14.277,4.396c-5.791,0-10.527-1.602-14.199-4.824
	C322.847,841.553,320.64,837.021,319.897,831.182L319.897,831.182z M357.144,798.486c0-5.216-1.387-9.375-4.17-12.441
	c-2.773-3.066-6.123-4.59-10.029-4.59c-4.043,0-7.568,1.66-10.566,4.961s-4.502,7.578-4.502,12.832
	c0,4.707,1.426,8.555,4.277,11.504c2.842,2.949,6.357,4.414,10.537,4.414c4.209,0,7.676-1.465,10.391-4.414
	C355.786,807.803,357.144,803.721,357.144,798.486L357.144,798.486z M321.284,449.99V265.107h37.334v72.773h73.145v-72.773h37.334
	V449.99h-37.334v-80.84h-73.145v80.84H321.284L321.284,449.99z M491.919,316.064h19.678v-10.099c0-11.27,1.191-19.668,3.595-25.215
	c2.393-5.547,6.807-10.078,13.241-13.555c6.427-3.496,14.562-5.234,24.404-5.234c10.05-0.009,20.042,1.519,29.629,4.531
	l-4.785,24.727c-5.635-1.348-11.055-2.031-16.27-2.031c-5.127,0-8.81,1.211-11.035,3.594c-2.227,2.402-3.34,7.012-3.34,13.809v9.473
	h26.484v27.871h-26.484V449.99h-35.439V343.936h-19.678V316.064L491.919,316.064z M859.009,109.209v7.578h-42.5
	c-0.067-1.895,0.244-3.73,0.918-5.469c1.084-2.91,2.813-5.762,5.195-8.555c2.383-2.813,5.83-6.055,10.332-9.746
	c6.992-5.742,11.709-10.273,14.17-13.613c2.451-3.359,3.682-6.523,3.682-9.512c0-3.125-1.112-5.762-3.35-7.91
	c-2.246-2.148-5.156-3.223-8.76-3.223c-3.799,0-6.836,1.133-9.121,3.418c-2.275,2.285-3.438,5.449-3.467,9.473l-8.115-0.84
	c0.557-6.035,2.646-10.664,6.279-13.828c3.623-3.184,8.485-4.766,14.6-4.766c6.172,0,11.055,1.719,14.658,5.137
	c3.594,3.418,5.391,7.656,5.391,12.715c0,2.578-0.526,5.117-1.572,7.598c-1.055,2.48-2.803,5.098-5.243,7.852
	c-2.441,2.754-6.505,6.523-12.179,11.309c-4.735,3.984-7.772,6.68-9.121,8.105c-1.348,1.406-2.461,2.832-3.34,4.277H859.009
	L859.009,109.209z M829.663,171.768c-3.271-1.211-5.703-2.91-7.285-5.137c-1.572-2.227-2.363-4.883-2.363-7.988
	c0-4.668,1.681-8.613,5.039-11.797c3.369-3.184,7.843-4.785,13.429-4.785c5.614,0,10.137,1.641,13.555,4.902
	c3.418,3.261,5.137,7.227,5.137,11.895c0,2.988-0.791,5.586-2.354,7.793c-1.563,2.207-3.937,3.906-7.129,5.117
	c3.955,1.289,6.953,3.359,9.014,6.23c2.07,2.852,3.096,6.289,3.096,10.254c0,5.508-1.942,10.117-5.83,13.867
	c-3.896,3.75-9.014,5.605-15.36,5.605c-6.339,0-11.455-1.875-15.353-5.625c-3.887-3.77-5.83-8.457-5.83-14.063
	c0-4.18,1.056-7.676,3.185-10.508C822.729,174.717,825.747,172.783,829.663,171.768z M825.542,188.076
	c0,2.266,0.527,4.434,1.603,6.543c1.063,2.109,2.655,3.73,4.756,4.883c2.08,1.148,4.42,1.746,6.797,1.738
	c3.778,0,6.895-1.211,9.346-3.633c2.461-2.441,3.691-5.527,3.691-9.258c0-3.809-1.271-6.953-3.8-9.434
	c-2.528-2.481-5.692-3.73-9.502-3.73c-3.711,0-6.786,1.23-9.229,3.691C826.763,181.318,825.542,184.404,825.542,188.076
	L825.542,188.076z M828.081,158.389c0,3.027,0.986,5.527,2.939,7.441c1.963,1.934,4.502,2.91,7.637,2.91
	c3.037,0,5.537-0.957,7.479-2.871c1.943-1.914,2.92-4.277,2.92-7.051c0-2.891-1.006-5.332-3.008-7.305
	c-2.002-1.973-4.502-2.949-7.479-2.949c-3.019,0-5.519,0.957-7.5,2.891C829.077,153.389,828.081,155.693,828.081,158.389
	L828.081,158.389z M797.28,296.475h-7.892v-50.313c-1.903,1.797-4.395,3.613-7.479,5.43c-3.085,1.817-5.859,3.184-8.312,4.082
	v-7.637c4.414-2.07,8.271-4.59,11.582-7.539c3.302-2.949,5.646-5.82,7.013-8.594h5.088V296.475L797.28,296.475z M829.653,261.592
	c-3.271-1.191-5.703-2.91-7.285-5.137c-1.572-2.207-2.363-4.883-2.363-7.969c0-4.688,1.681-8.613,5.039-11.816
	c3.369-3.184,7.842-4.766,13.428-4.766c5.615,0,10.138,1.621,13.556,4.883c3.418,3.262,5.137,7.227,5.137,11.914
	c0,2.988-0.791,5.586-2.354,7.793c-1.563,2.207-3.937,3.906-7.13,5.098c3.955,1.289,6.953,3.359,9.015,6.23
	c2.069,2.871,3.096,6.289,3.096,10.273c0,5.488-1.943,10.117-5.83,13.848c-3.896,3.75-9.014,5.625-15.361,5.625
	c-6.338,0-11.455-1.875-15.352-5.645c-3.887-3.75-5.83-8.438-5.83-14.063c0-4.18,1.055-7.676,3.184-10.488
	C822.72,264.541,825.737,262.627,829.653,261.592L829.653,261.592z M825.532,277.92c0,2.246,0.526,4.434,1.602,6.523
	c1.064,2.109,2.656,3.75,4.756,4.902c2.109,1.152,4.375,1.719,6.798,1.719c3.778,0,6.895-1.211,9.346-3.633
	c2.461-2.422,3.69-5.508,3.69-9.258c0-3.789-1.27-6.934-3.799-9.434c-2.528-2.48-5.692-3.73-9.502-3.73
	c-3.711,0-6.787,1.23-9.229,3.691C826.752,271.161,825.532,274.229,825.532,277.92L825.532,277.92z M828.071,248.213
	c0,3.047,0.985,5.527,2.938,7.461c1.963,1.934,4.502,2.891,7.638,2.891c3.036,0,5.536-0.957,7.479-2.871s2.92-4.258,2.92-7.031
	c0-2.91-1.006-5.332-3.008-7.305s-4.502-2.969-7.48-2.969c-3.018,0-5.518,0.957-7.5,2.891
	C829.067,243.213,828.071,245.518,828.071,248.213L828.071,248.213z M767.583,369.346l7.9-1.055c0.907,4.473,2.45,7.695,4.629,9.668
	c2.178,1.973,4.834,2.949,7.959,2.949c3.711,0,6.854-1.271,9.414-3.849c2.559-2.577,3.838-5.762,3.838-9.569
	c0-3.613-1.191-6.621-3.555-8.965c-2.373-2.363-5.382-3.535-9.044-3.535c-1.483,0-3.34,0.293-5.565,0.879l0.879-6.935
	c0.527,0.06,0.947,0.099,1.271,0.099c3.358,0,6.387-0.879,9.082-2.637c2.686-1.759,4.032-4.453,4.032-8.125
	c0-2.892-0.977-5.293-2.938-7.188c-1.953-1.895-4.492-2.852-7.588-2.852c-3.066,0-5.625,0.957-7.677,2.891
	c-2.051,1.934-3.358,4.824-3.944,8.691l-7.9-1.406c0.967-5.293,3.164-9.396,6.582-12.306c3.418-2.909,7.676-4.354,12.764-4.354
	c3.506,0,6.738,0.742,9.697,2.246c2.949,1.504,5.215,3.574,6.777,6.172c1.562,2.598,2.344,5.371,2.344,8.281
	c0,2.793-0.742,5.313-2.236,7.598s-3.701,4.103-6.621,5.43c3.8,0.88,6.759,2.716,8.857,5.47c2.109,2.772,3.164,6.229,3.164,10.371
	c0,5.625-2.051,10.37-6.144,14.276c-4.102,3.906-9.276,5.859-15.526,5.859c-5.646,0-10.332-1.68-14.063-5.039
	C770.239,379.052,768.11,374.697,767.583,369.346L767.583,369.346z M858.999,378.721v7.599h-42.5
	c-0.068-1.914,0.244-3.73,0.918-5.488c1.084-2.891,2.813-5.742,5.195-8.555c2.382-2.813,5.83-6.056,10.332-9.746
	c6.992-5.724,11.709-10.254,14.17-13.613c2.451-3.34,3.682-6.504,3.682-9.492c0-3.125-1.112-5.781-3.35-7.93
	c-2.246-2.148-5.156-3.223-8.76-3.223c-3.8,0-6.837,1.151-9.121,3.438c-2.275,2.266-3.438,5.43-3.468,9.473l-8.114-0.84
	c0.557-6.055,2.646-10.664,6.278-13.848c3.623-3.164,8.486-4.746,14.601-4.746c6.172,0,11.055,1.699,14.658,5.117
	c3.594,3.438,5.391,7.676,5.391,12.733c0,2.578-0.527,5.099-1.572,7.578c-1.055,2.5-2.803,5.117-5.244,7.853
	c-2.44,2.754-6.504,6.522-12.178,11.328c-4.736,3.965-7.772,6.68-9.121,8.086c-1.348,1.426-2.461,2.852-3.34,4.276H858.999
	L858.999,378.721z M797.28,476.143h-7.892V425.83c-1.903,1.816-4.395,3.633-7.479,5.449c-3.086,1.797-5.859,3.164-8.312,4.063
	v-7.617c4.414-2.09,8.271-4.59,11.582-7.559c3.302-2.949,5.646-5.82,7.013-8.594h5.088V476.143L797.28,476.143z M817.505,444.424
	c0-7.598,0.781-13.711,2.344-18.358c1.563-4.63,3.888-8.203,6.974-10.724c3.086-2.5,6.973-3.77,11.649-3.77
	c3.447,0,6.476,0.703,9.082,2.09c2.599,1.387,4.746,3.397,6.445,6.016s3.027,5.801,3.994,9.551
	c0.967,3.771,1.445,8.828,1.445,15.195c0,7.56-0.771,13.652-2.324,18.281s-3.867,8.223-6.953,10.742
	c-3.086,2.539-6.982,3.789-11.689,3.789c-6.2,0-11.073-2.207-14.608-6.66C819.624,465.225,817.505,456.514,817.505,444.424
	L817.505,444.424z M825.62,444.424c0,10.566,1.229,17.599,3.701,21.094c2.471,3.496,5.526,5.234,9.149,5.234s6.67-1.758,9.15-5.273
	c2.471-3.495,3.701-10.526,3.701-21.055c0-10.586-1.23-17.617-3.701-21.094c-2.48-3.477-5.557-5.215-9.238-5.215
	c-3.623,0-6.522,1.522-8.682,4.608C826.979,426.631,825.62,433.877,825.62,444.424L825.62,444.424z M859.009,558.408v7.578h-42.5
	c-0.067-1.896,0.244-3.73,0.918-5.47c1.084-2.909,2.813-5.762,5.195-8.555c2.383-2.813,5.83-6.055,10.332-9.746
	c6.992-5.742,11.709-10.272,14.17-13.612c2.451-3.359,3.682-6.523,3.682-9.513c0-3.125-1.112-5.762-3.35-7.91
	c-2.246-2.147-5.156-3.223-8.76-3.223c-3.799,0-6.836,1.133-9.121,3.418c-2.275,2.285-3.438,5.449-3.467,9.473l-8.115-0.84
	c0.557-6.035,2.646-10.664,6.279-13.828c3.623-3.184,8.485-4.766,14.6-4.766c6.172,0,11.055,1.719,14.658,5.137
	c3.594,3.418,5.391,7.656,5.391,12.715c0,2.578-0.526,5.117-1.572,7.599c-1.055,2.479-2.803,5.098-5.243,7.852
	c-2.441,2.754-6.505,6.523-12.179,11.31c-4.735,3.983-7.772,6.68-9.121,8.104c-1.348,1.406-2.461,2.832-3.34,4.277H859.009z"/>
</svg>
