<?xml version="1.0" encoding="utf-8"?>
<!-- Generator: Adobe Illustrator 16.0.3, SVG Export Plug-In . SVG Version: 6.00 Build 0)  -->
<!DOCTYPE svg PUBLIC "-//W3C//DTD SVG 1.1//EN" "http://www.w3.org/Graphics/SVG/1.1/DTD/svg11.dtd">
<svg version="1.1" id="Layer_1" xmlns="http://www.w3.org/2000/svg" xmlns:xlink="http://www.w3.org/1999/xlink" x="0px" y="0px"
	 width="900px" height="900px" viewBox="0 0 900 900" enable-background="new 0 0 900 900" xml:space="preserve">
<path d="M40.2,65.637V52.336h72.959v10.771c-7.178,7.637-14.287,17.783-21.338,30.439c-7.051,12.656-12.49,25.684-16.338,39.053
	c-2.764,9.434-4.531,19.766-5.303,30.986H55.962c0.146-8.867,1.895-19.58,5.225-32.139s8.105-24.658,14.336-36.328
	c6.23-11.65,12.852-21.484,19.873-29.482H40.2V65.637z M126.919,133.831l13.838-1.846c1.592,7.842,4.297,13.496,8.115,16.953
	c3.818,3.467,8.467,5.195,13.955,5.195c6.504,0,12.002-2.256,16.484-6.768c4.482-4.512,6.729-10.098,6.729-16.758
	c0-6.357-2.08-11.602-6.23-15.723c-4.15-4.131-9.424-6.191-15.83-6.191c-2.617,0-5.869,0.518-9.766,1.533l1.533-12.139
	c0.928,0.098,1.67,0.146,2.236,0.146c5.889,0,11.191-1.533,15.908-4.609c4.717-3.076,7.07-7.813,7.07-14.219
	c0-5.078-1.709-9.277-5.146-12.617c-3.438-3.33-7.871-4.99-13.301-4.99c-5.381,0-9.863,1.689-13.457,5.068
	c-3.584,3.389-5.889,8.457-6.914,15.225l-13.838-2.461c1.689-9.277,5.537-16.465,11.533-21.563s13.447-7.646,22.373-7.646
	c6.143,0,11.807,1.318,16.982,3.955c5.175,2.637,9.141,6.24,11.885,10.801c2.734,4.562,4.111,9.404,4.111,14.531
	c0,4.873-1.309,9.307-3.926,13.301c-2.607,3.994-6.484,7.178-11.602,9.531c6.66,1.543,11.836,4.727,15.527,9.57
	c3.691,4.843,5.537,10.908,5.537,18.184c0,9.844-3.594,18.184-10.762,25.029c-7.178,6.836-16.25,10.264-27.217,10.264
	c-9.893,0-18.105-2.949-24.648-8.848C131.567,150.852,127.847,143.215,126.919,133.831L126.919,133.831z M265.063,662.488v-65.353
	h-24.414v-8.75h58.74v8.75h-24.521v65.353H265.063z M331.841,655.867c-3.379,2.852-6.621,4.883-9.736,6.055
	c-3.115,1.191-6.455,1.777-10.029,1.777c-5.898,0-10.43-1.445-13.594-4.316c-3.174-2.891-4.756-6.563-4.756-11.055
	c0-2.617,0.596-5.021,1.797-7.207c1.191-2.168,2.764-3.906,4.697-5.215c1.934-1.328,4.121-2.324,6.543-2.988
	c1.787-0.469,4.482-0.938,8.086-1.367c7.354-0.879,12.754-1.914,16.23-3.125c0.029-1.25,0.049-2.051,0.049-2.383
	c0-3.711-0.859-6.328-2.578-7.832c-2.324-2.051-5.781-3.086-10.361-3.086c-4.277,0-7.441,0.742-9.473,2.246
	c-2.041,1.504-3.555,4.16-4.531,7.969l-8.896-1.211c0.811-3.809,2.148-6.895,3.994-9.238c1.855-2.344,4.531-4.141,8.037-5.409
	c3.506-1.25,7.568-1.896,12.188-1.896c4.58,0,8.301,0.547,11.172,1.621c2.861,1.074,4.961,2.441,6.309,4.063
	c1.348,1.642,2.295,3.712,2.832,6.191c0.303,1.563,0.459,4.355,0.459,8.398v12.129c0,8.457,0.195,13.809,0.576,16.055
	c0.398,2.264,1.178,4.442,2.305,6.445h-9.502C332.71,660.594,332.104,658.387,331.841,655.867L331.841,655.867z M331.079,635.535
	c-3.301,1.348-8.262,2.5-14.863,3.438c-3.74,0.547-6.387,1.152-7.93,1.836c-1.553,0.664-2.754,1.66-3.594,2.949
	c-0.84,1.289-1.26,2.734-1.26,4.316c0,2.422,0.918,4.453,2.754,6.074c1.836,1.62,4.521,2.422,8.057,2.422
	c3.506,0,6.621-0.763,9.355-2.306c2.725-1.522,4.736-3.633,6.016-6.289c0.977-2.051,1.465-5.077,1.465-9.102V635.535
	L331.079,635.535z M354.38,662.488v-53.691h8.184v7.637c3.945-5.897,9.639-8.848,17.09-8.848c3.232,0,6.201,0.586,8.916,1.758
	c2.715,1.152,4.746,2.677,6.094,4.57c1.348,1.875,2.285,4.121,2.832,6.719c0.332,1.681,0.498,4.629,0.498,8.849v33.008h-9.092
	v-32.656c0-3.711-0.352-6.484-1.064-8.32c-0.703-1.836-1.963-3.301-3.76-4.395c-1.807-1.094-3.926-1.642-6.348-1.642
	c-3.877,0-7.217,1.23-10.029,3.691c-2.822,2.461-4.229,7.129-4.229,14.004v29.316H354.38L354.38,662.488z M431.813,654.344
	l1.309,8.047c-2.559,0.527-4.844,0.802-6.875,0.802c-3.301,0-5.859-0.527-7.676-1.563c-1.826-1.055-3.105-2.422-3.849-4.121
	c-0.742-1.698-1.104-5.293-1.104-10.742v-30.879h-6.68v-7.09h6.68v-13.281l9.043-5.469v18.75h9.149v7.09h-9.149v31.388
	c0,2.598,0.156,4.258,0.479,5c0.323,0.741,0.841,1.328,1.572,1.776c0.723,0.431,1.758,0.646,3.105,0.646
	C428.823,654.695,430.161,654.578,431.813,654.344L431.813,654.344z M475.737,655.867c-3.379,2.852-6.621,4.883-9.736,6.055
	c-3.115,1.191-6.455,1.777-10.029,1.777c-5.897,0-10.43-1.445-13.594-4.316c-3.174-2.891-4.756-6.563-4.756-11.055
	c0-2.617,0.596-5.021,1.797-7.207c1.191-2.168,2.764-3.906,4.697-5.215c1.934-1.328,4.121-2.324,6.543-2.988
	c1.787-0.469,4.481-0.938,8.086-1.367c7.354-0.879,12.754-1.914,16.229-3.125c0.029-1.25,0.05-2.051,0.05-2.383
	c0-3.711-0.859-6.328-2.578-7.832c-2.324-2.051-5.781-3.086-10.361-3.086c-4.277,0-7.44,0.742-9.473,2.246
	c-2.041,1.504-3.556,4.16-4.531,7.969l-8.896-1.211c0.811-3.809,2.147-6.895,3.993-9.238c1.855-2.344,4.531-4.141,8.037-5.409
	c3.506-1.25,7.568-1.896,12.188-1.896c4.58,0,8.301,0.547,11.172,1.621c2.861,1.074,4.961,2.441,6.309,4.063
	c1.349,1.641,2.295,3.711,2.832,6.19c0.303,1.563,0.459,4.355,0.459,8.398v12.129c0,8.457,0.195,13.809,0.576,16.055
	c0.398,2.264,1.178,4.442,2.305,6.445h-9.502C476.605,660.594,476.001,658.387,475.737,655.867L475.737,655.867z M474.976,635.535
	c-3.301,1.348-8.262,2.5-14.862,3.438c-3.74,0.547-6.388,1.152-7.931,1.836c-1.553,0.664-2.754,1.66-3.594,2.949
	s-1.26,2.734-1.26,4.316c0,2.422,0.918,4.453,2.754,6.074c1.836,1.62,4.521,2.422,8.057,2.422c3.507,0,6.621-0.763,9.355-2.306
	c2.725-1.522,4.736-3.633,6.016-6.289c0.978-2.051,1.465-5.077,1.465-9.102V635.535L474.976,635.535z M498.081,662.488v-74.103
	h9.102v74.103H498.081z M556.46,662.488v-7.892c-4.18,6.074-9.854,9.103-17.031,9.103c-3.174,0-6.123-0.605-8.877-1.816
	c-2.744-1.211-4.785-2.733-6.112-4.59c-1.328-1.836-2.267-4.082-2.804-6.738c-0.371-1.776-0.557-4.608-0.557-8.496v-33.262h9.102
	v29.785c0,4.746,0.187,7.949,0.558,9.59c0.565,2.402,1.776,4.277,3.633,5.646c1.855,1.368,4.15,2.051,6.875,2.051
	c2.734,0,5.293-0.703,7.686-2.109c2.394-1.387,4.082-3.301,5.078-5.703c0.996-2.401,1.494-5.897,1.494-10.487v-28.771h9.092v53.691
	L556.46,662.488L556.46,662.488z M578.854,662.488v-53.691h8.135v7.539c1.688-2.637,3.926-4.746,6.719-6.348
	c2.803-1.603,5.986-2.402,9.561-2.402c3.976,0,7.236,0.84,9.775,2.48c2.549,1.659,4.336,3.965,5.381,6.934
	c4.248-6.27,9.775-9.414,16.582-9.414c5.322,0,9.414,1.484,12.285,4.435c2.861,2.948,4.297,7.479,4.297,13.612v36.855h-9.053V628.66
	c0-3.633-0.293-6.25-0.879-7.853c-0.597-1.602-1.66-2.891-3.213-3.866c-1.554-0.977-3.369-1.466-5.459-1.466
	c-3.771,0-6.904,1.25-9.404,3.771c-2.49,2.5-3.74,6.522-3.74,12.051v31.191h-9.092v-34.883c0-4.044-0.742-7.07-2.227-9.103
	c-1.484-2.012-3.906-3.027-7.275-3.027c-2.568,0-4.932,0.685-7.109,2.031c-2.168,1.349-3.74,3.301-4.727,5.898
	c-0.978,2.598-1.465,6.348-1.465,11.229v27.853L578.854,662.488L578.854,662.488z M93.745,848.328h-9.102V790.34
	c-2.188,2.09-5.059,4.18-8.613,6.271c-3.554,2.09-6.748,3.672-9.58,4.707v-8.789c5.088-2.402,9.541-5.293,13.35-8.691
	c3.799-3.418,6.504-6.719,8.086-9.922h5.859V848.328L93.745,848.328z M131.05,808.133c-3.779-1.367-6.572-3.34-8.398-5.897
	c-1.816-2.578-2.725-5.646-2.725-9.199c0-5.392,1.934-9.922,5.811-13.613c3.877-3.672,9.033-5.508,15.469-5.508
	c6.465,0,11.68,1.896,15.615,5.646c3.945,3.75,5.918,8.34,5.918,13.729c0,3.438-0.898,6.426-2.705,8.965
	c-1.807,2.539-4.541,4.513-8.213,5.879c4.551,1.484,8.008,3.888,10.391,7.188c2.373,3.301,3.555,7.246,3.555,11.815
	c0,6.349-2.236,11.66-6.719,15.978c-4.483,4.316-10.381,6.465-17.686,6.465c-7.314,0-13.213-2.148-17.695-6.484
	s-6.719-9.727-6.719-16.211c0-4.805,1.221-8.848,3.662-12.09C123.052,811.531,126.528,809.324,131.05,808.133L131.05,808.133z
	 M126.294,826.941c0,2.598,0.615,5.098,1.846,7.539c1.23,2.422,3.057,4.297,5.488,5.625c2.422,1.327,5.029,1.991,7.832,1.991
	c4.346,0,7.93-1.387,10.762-4.18c2.832-2.813,4.248-6.367,4.248-10.664c0-4.395-1.455-8.008-4.375-10.879
	c-2.91-2.853-6.563-4.297-10.938-4.297c-4.277,0-7.832,1.426-10.645,4.258S126.294,822.703,126.294,826.941L126.294,826.941z
	 M129.224,792.723c0,3.517,1.133,6.367,3.389,8.595c2.256,2.227,5.186,3.34,8.799,3.34c3.506,0,6.377-1.113,8.613-3.32
	c2.246-2.207,3.359-4.902,3.359-8.104c0-3.341-1.152-6.134-3.457-8.418c-2.314-2.267-5.186-3.419-8.623-3.419
	c-3.467,0-6.348,1.113-8.643,3.341C130.376,786.961,129.224,789.617,129.224,792.723z M174.614,811.785
	c0-8.771,0.898-15.82,2.705-21.152c1.797-5.352,4.482-9.473,8.037-12.363c3.555-2.89,8.027-4.354,13.418-4.354
	c3.975,0,7.461,0.801,10.459,2.402c2.998,1.601,5.479,3.905,7.432,6.934c1.953,3.008,3.486,6.68,4.6,11.016
	c1.114,4.337,1.67,10.177,1.67,17.521c0,8.691-0.889,15.703-2.676,21.055c-1.787,5.332-4.463,9.453-8.018,12.383
	c-3.555,2.91-8.047,4.355-13.467,4.355c-7.148,0-12.754-2.559-16.836-7.676C177.056,835.73,174.614,825.691,174.614,811.785z
	 M183.96,811.785c0,12.168,1.426,20.254,4.277,24.276c2.842,4.023,6.357,6.035,10.537,6.035s7.695-2.012,10.537-6.055
	c2.852-4.043,4.268-12.129,4.268-24.258c0-12.207-1.416-20.313-4.268-24.316c-2.842-4.004-6.396-6.016-10.635-6.016
	c-4.18,0-7.52,1.776-10.01,5.313C185.532,791.277,183.96,799.617,183.96,811.785L183.96,811.785z M237.3,848.328v-10.371h10.361
	v10.371H237.3z M262.319,831.18l8.74-0.801c0.742,4.121,2.158,7.09,4.248,8.945c2.09,1.854,4.766,2.772,8.037,2.772
	c2.793,0,5.244-0.625,7.354-1.914c2.109-1.27,3.828-2.987,5.176-5.137c1.348-2.129,2.48-5.02,3.389-8.652
	c0.909-3.641,1.368-7.38,1.367-11.133c0-0.391-0.02-0.996-0.049-1.815c-1.826,2.891-4.307,5.254-7.461,7.051
	c-3.111,1.794-6.643,2.73-10.234,2.715c-6.133,0-11.318-2.227-15.566-6.68s-6.367-10.313-6.367-17.599
	c0-7.5,2.217-13.555,6.65-18.145c4.424-4.57,9.98-6.875,16.65-6.875c4.814,0,9.229,1.309,13.213,3.906
	c3.994,2.598,7.031,6.289,9.102,11.094s3.105,11.738,3.105,20.84c0,9.474-1.025,17.012-3.076,22.617
	c-2.061,5.625-5.117,9.883-9.18,12.813c-4.063,2.931-8.818,4.396-14.277,4.396c-5.791,0-10.527-1.602-14.199-4.824
	C265.269,841.551,263.062,837.021,262.319,831.18L262.319,831.18z M299.565,798.484c0-5.216-1.387-9.375-4.17-12.441
	c-2.773-3.066-6.123-4.59-10.029-4.59c-4.043,0-7.568,1.66-10.566,4.961s-4.502,7.578-4.502,12.832
	c0,4.707,1.426,8.555,4.277,11.504c2.842,2.949,6.357,4.414,10.537,4.414c4.209,0,7.676-1.465,10.391-4.414
	C298.208,807.801,299.565,803.719,299.565,798.484L299.565,798.484z M318.521,828.914l9.551-0.801
	c0.713,4.647,2.354,8.145,4.932,10.487c2.578,2.344,5.684,3.496,9.326,3.496c4.375,0,8.086-1.641,11.113-4.94
	c3.037-3.302,4.551-7.695,4.551-13.146c0-5.194-1.455-9.276-4.365-12.285c-2.92-2.987-6.738-4.491-11.455-4.491
	c-2.93,0-5.576,0.664-7.93,1.991c-2.363,1.328-4.219,3.066-5.566,5.177l-8.535-1.113l7.178-38.047h36.846v8.69h-29.57l-3.994,19.902
	c4.443-3.086,9.111-4.648,14.004-4.648c6.465,0,11.924,2.246,16.377,6.738c4.443,4.474,6.67,10.234,6.67,17.285
	c0,6.699-1.953,12.5-5.869,17.383c-4.746,5.996-11.23,8.984-19.453,8.984c-6.738,0-12.246-1.875-16.504-5.646
	C321.558,840.145,319.126,835.145,318.521,828.914L318.521,828.914z M361.909,449.993V296.379h-54.863V265.1H453.98v31.279h-54.736
	v153.613L361.909,449.993L361.909,449.993z M485.122,356.917l-32.158-5.801c3.613-12.949,9.844-22.529,18.672-28.75
	c8.828-6.222,21.943-9.336,39.347-9.336c15.801,0,27.577,1.875,35.313,5.614c7.735,3.74,13.174,8.486,16.328,14.248
	c3.154,5.763,4.736,16.328,4.736,31.72l-0.381,41.366c0,11.769,0.565,20.449,1.698,26.046c1.134,5.586,3.263,11.582,6.367,17.969
	h-35.059c-0.929-2.354-2.062-5.84-3.398-10.469c-0.596-2.101-1.016-3.486-1.27-4.16c-6.056,5.889-12.529,10.303-19.414,13.242
	c-6.896,2.938-14.259,4.413-22.07,4.413c-13.799,0-24.658-3.739-32.607-11.22c-7.938-7.49-11.913-16.942-11.913-28.379
	c0-7.567,1.807-14.315,5.42-20.244c3.612-5.928,8.682-10.469,15.194-13.623c6.514-3.153,15.908-5.897,28.193-8.262
	c16.563-3.104,28.037-6.006,34.424-8.701v-3.524c0-6.816-1.68-11.67-5.039-14.57c-3.369-2.9-9.717-4.346-19.043-4.346
	c-6.309,0-11.229,1.239-14.756,3.721C490.171,346.35,487.31,350.696,485.122,356.917L485.122,356.917z M532.544,385.676
	c-4.541,1.515-11.729,3.32-21.563,5.42c-9.834,2.101-16.271,4.16-19.298,6.183c-4.629,3.28-6.934,7.44-6.934,12.479
	c0,4.961,1.846,9.248,5.547,12.871c3.701,3.613,8.408,5.42,14.121,5.42c6.396,0,12.49-2.1,18.291-6.309
	c4.287-3.193,7.1-7.101,8.447-11.729c0.928-3.026,1.387-8.778,1.387-17.274L532.544,385.676L532.544,385.676z M859.009,109.202
	v7.588h-42.5c-0.067-1.904,0.244-3.73,0.918-5.479c1.084-2.9,2.813-5.752,5.195-8.555c2.383-2.813,5.83-6.055,10.332-9.746
	c6.992-5.732,11.709-10.264,14.17-13.613c2.451-3.35,3.682-6.514,3.682-9.502c0-3.125-1.112-5.771-3.35-7.92
	c-2.246-2.148-5.156-3.223-8.76-3.223c-3.799,0-6.836,1.143-9.121,3.428c-2.275,2.275-3.438,5.439-3.467,9.473l-8.115-0.84
	c0.557-6.045,2.646-10.664,6.279-13.838c3.623-3.174,8.485-4.756,14.6-4.756c6.172,0,11.055,1.709,14.658,5.127
	c3.594,3.428,5.391,7.666,5.391,12.725c0,2.578-0.526,5.107-1.572,7.588c-1.055,2.49-2.803,5.107-5.243,7.852
	c-2.441,2.754-6.505,6.523-12.179,11.318c-4.735,3.975-7.772,6.68-9.121,8.096c-1.348,1.416-2.461,2.842-3.34,4.277H859.009z
	 M829.663,171.76c-3.271-1.201-5.703-2.91-7.285-5.137c-1.572-2.217-2.363-4.883-2.363-7.979c0-4.678,1.681-8.613,5.039-11.807
	c3.369-3.184,7.843-4.775,13.429-4.775c5.614,0,10.137,1.631,13.555,4.893c3.418,3.262,5.137,7.227,5.137,11.904
	c0,2.988-0.791,5.586-2.354,7.793c-1.563,2.207-3.937,3.906-7.129,5.107c3.955,1.289,6.953,3.359,9.014,6.23
	c2.07,2.861,3.096,6.289,3.096,10.264c0,5.498-1.942,10.117-5.83,13.857c-3.896,3.75-9.014,5.615-15.36,5.615
	c-6.339,0-11.455-1.875-15.353-5.635c-3.887-3.76-5.83-8.447-5.83-14.063c0-4.18,1.056-7.676,3.185-10.498
	C822.729,174.709,825.747,172.786,829.663,171.76z M825.542,188.079c0,2.256,0.527,4.434,1.603,6.533
	c1.063,2.109,2.655,3.74,4.756,4.893c2.081,1.146,4.421,1.741,6.797,1.729c3.778,0,6.895-1.211,9.346-3.633
	c2.461-2.432,3.691-5.518,3.691-9.258c0-3.799-1.271-6.943-3.8-9.434c-2.528-2.48-5.692-3.73-9.502-3.73
	c-3.711,0-6.786,1.23-9.229,3.691C826.763,181.321,825.542,184.397,825.542,188.079L825.542,188.079z M828.081,158.381
	c0,3.037,0.986,5.527,2.939,7.451c1.963,1.934,4.502,2.9,7.637,2.9c3.037,0,5.537-0.957,7.479-2.871
	c1.943-1.914,2.92-4.268,2.92-7.041c0-2.9-1.006-5.332-3.008-7.305s-4.502-2.959-7.479-2.959c-3.019,0-5.519,0.957-7.5,2.891
	C829.077,153.381,828.081,155.686,828.081,158.381L828.081,158.381z M797.28,296.467h-7.892v-50.313
	c-1.903,1.807-4.395,3.623-7.479,5.439c-3.086,1.807-5.859,3.174-8.312,4.072v-7.627c4.414-2.08,8.271-4.59,11.582-7.549
	c3.302-2.949,5.646-5.82,7.013-8.594h5.088V296.467L797.28,296.467z M829.653,261.594c-3.271-1.201-5.703-2.91-7.285-5.137
	c-1.572-2.217-2.363-4.883-2.363-7.979c0-4.678,1.681-8.613,5.039-11.807c3.369-3.184,7.842-4.775,13.428-4.775
	c5.615,0,10.138,1.631,13.556,4.893c3.418,3.262,5.137,7.227,5.137,11.904c0,2.988-0.791,5.586-2.354,7.793
	c-1.563,2.207-3.937,3.906-7.13,5.107c3.955,1.289,6.953,3.359,9.015,6.23c2.069,2.861,3.096,6.289,3.096,10.264
	c0,5.498-1.943,10.117-5.83,13.857c-3.896,3.75-9.014,5.615-15.361,5.615c-6.338,0-11.455-1.875-15.352-5.635
	c-3.887-3.76-5.83-8.447-5.83-14.063c0-4.18,1.055-7.676,3.184-10.498C822.72,264.543,825.737,262.62,829.653,261.594
	L829.653,261.594z M825.532,277.913c0,2.256,0.526,4.434,1.602,6.533c1.064,2.109,2.656,3.74,4.756,4.893
	c2.082,1.146,4.422,1.741,6.798,1.729c3.778,0,6.895-1.211,9.346-3.633c2.461-2.432,3.69-5.518,3.69-9.258
	c0-3.799-1.27-6.943-3.799-9.434c-2.528-2.48-5.692-3.73-9.502-3.73c-3.711,0-6.787,1.23-9.229,3.691
	C826.753,271.155,825.532,274.231,825.532,277.913L825.532,277.913z M828.071,248.215c0,3.037,0.985,5.527,2.938,7.451
	c1.963,1.934,4.502,2.9,7.638,2.9c3.036,0,5.536-0.957,7.479-2.871c1.943-1.914,2.92-4.268,2.92-7.041
	c0-2.9-1.006-5.332-3.008-7.305s-4.502-2.959-7.48-2.959c-3.018,0-5.518,0.957-7.5,2.891
	C829.067,243.215,828.071,245.52,828.071,248.215L828.071,248.215z M767.583,369.338l7.9-1.055c0.907,4.473,2.45,7.695,4.629,9.668
	c2.178,1.973,4.834,2.959,7.959,2.959c3.711,0,6.854-1.279,9.414-3.857c2.559-2.567,3.838-5.762,3.838-9.561
	c0-3.623-1.191-6.621-3.555-8.976c-2.373-2.354-5.382-3.524-9.044-3.524c-1.483,0-3.34,0.293-5.565,0.879l0.879-6.934
	c0.527,0.059,0.947,0.088,1.271,0.088c3.358,0,6.387-0.879,9.082-2.638c2.686-1.748,4.032-4.452,4.032-8.114
	c0-2.892-0.977-5.293-2.938-7.188c-1.953-1.904-4.492-2.852-7.588-2.852c-3.066,0-5.625,0.957-7.677,2.891
	c-2.051,1.934-3.358,4.824-3.944,8.691l-7.9-1.406c0.967-5.293,3.164-9.396,6.582-12.305c3.418-2.91,7.676-4.365,12.764-4.365
	c3.506,0,6.738,0.752,9.697,2.256c2.949,1.504,5.215,3.564,6.777,6.162c1.563,2.606,2.344,5.371,2.344,8.291
	c0,2.783-0.742,5.313-2.236,7.588c-1.494,2.285-3.701,4.102-6.621,5.439c3.8,0.879,6.759,2.704,8.857,5.469
	c2.109,2.764,3.164,6.221,3.164,10.371c0,5.614-2.051,10.371-6.144,14.276c-4.102,3.906-9.276,5.859-15.526,5.859
	c-5.646,0-10.332-1.68-14.063-5.049C770.239,379.045,768.11,374.69,767.583,369.338L767.583,369.338z M858.999,378.723v7.588h-42.5
	c-0.068-1.903,0.244-3.729,0.918-5.479c1.084-2.9,2.813-5.752,5.195-8.555c2.383-2.813,5.83-6.056,10.332-9.746
	c6.992-5.732,11.709-10.265,14.17-13.613c2.451-3.35,3.682-6.514,3.682-9.502c0-3.125-1.112-5.771-3.35-7.92
	c-2.246-2.148-5.156-3.223-8.76-3.223c-3.8,0-6.837,1.143-9.121,3.428c-2.275,2.274-3.438,5.438-3.468,9.473l-8.114-0.84
	c0.557-6.045,2.646-10.664,6.278-13.838c3.623-3.174,8.486-4.756,14.601-4.756c6.172,0,11.055,1.709,14.658,5.127
	c3.594,3.428,5.391,7.666,5.391,12.725c0,2.578-0.527,5.107-1.572,7.588c-1.055,2.49-2.803,5.107-5.244,7.853
	c-2.44,2.754-6.504,6.522-12.178,11.317c-4.736,3.976-7.772,6.681-9.121,8.097c-1.348,1.416-2.461,2.842-3.34,4.276H858.999
	L858.999,378.723z M803.95,476.141h-7.892v-50.308c-1.903,1.807-4.395,3.623-7.479,5.439c-3.086,1.807-5.859,3.174-8.311,4.071
	v-7.627c4.413-2.08,8.271-4.59,11.581-7.549c3.302-2.949,5.646-5.82,7.013-8.594h5.088V476.141L803.95,476.141z M847.251,476.141
	h-7.891v-50.308c-1.904,1.807-4.396,3.623-7.48,5.439c-3.086,1.807-5.858,3.174-8.311,4.071v-7.627
	c4.414-2.08,8.271-4.59,11.582-7.549c3.301-2.949,5.645-5.82,7.012-8.594h5.088V476.141L847.251,476.141z M859.009,558.406v7.578
	h-42.5c-0.067-1.896,0.244-3.73,0.918-5.47c1.084-2.909,2.813-5.762,5.195-8.555c2.383-2.813,5.83-6.055,10.332-9.746
	c6.992-5.742,11.709-10.272,14.17-13.612c2.451-3.359,3.682-6.523,3.682-9.513c0-3.125-1.112-5.762-3.35-7.91
	c-2.246-2.147-5.156-3.223-8.76-3.223c-3.799,0-6.836,1.133-9.121,3.418c-2.275,2.285-3.438,5.449-3.467,9.473l-8.115-0.84
	c0.557-6.035,2.646-10.664,6.279-13.828c3.623-3.184,8.485-4.766,14.6-4.766c6.172,0,11.055,1.719,14.658,5.137
	c3.594,3.418,5.391,7.656,5.391,12.715c0,2.578-0.526,5.117-1.571,7.599c-1.056,2.479-2.804,5.098-5.244,7.852
	c-2.441,2.754-6.504,6.523-12.179,11.31c-4.735,3.983-7.772,6.68-9.12,8.104c-1.349,1.406-2.462,2.832-3.341,4.277H859.009
	L859.009,558.406z"/>
</svg>
