<?xml version="1.0" encoding="utf-8"?>
<!-- Generator: Adobe Illustrator 16.0.3, SVG Export Plug-In . SVG Version: 6.00 Build 0)  -->
<!DOCTYPE svg PUBLIC "-//W3C//DTD SVG 1.1//EN" "http://www.w3.org/Graphics/SVG/1.1/DTD/svg11.dtd">
<svg version="1.1" id="Layer_1" xmlns="http://www.w3.org/2000/svg" xmlns:xlink="http://www.w3.org/1999/xlink" x="0px" y="0px"
	 width="900px" height="900px" viewBox="0 0 900 900" enable-background="new 0 0 900 900" xml:space="preserve">
<path fill="#010101" d="M40.192,65.373V52.072h72.959v10.771c-7.178,7.638-14.292,17.778-21.338,30.439
	c-7.052,12.656-12.49,25.679-16.344,39.048c-2.759,9.429-4.53,19.771-5.298,30.991H55.953c0.146-8.872,1.89-19.58,5.22-32.139
	c3.33-12.56,8.11-24.663,14.336-36.333c6.23-11.646,12.853-21.479,19.873-29.479H40.192V65.373L40.192,65.373z M171.203,163.322
	V136.34h-48.901v-12.686l51.432-73.042h11.309v73.042h15.21v12.686h-15.21v26.982H171.203L171.203,163.322z M171.203,123.654v-50.82
	l-35.293,50.82H171.203L171.203,123.654z M277.453,662.219l-19.673-74.102h10.063l11.279,48.564c1.2,5.021,2.244,10.078,3.13,15.166
	c1.891-7.91,3.008-12.48,3.34-13.691l14.098-50.039h11.831l10.62,37.5c2.671,9.307,4.579,18.047,5.762,26.23
	c0.947-4.688,2.178-10.06,3.69-16.113l11.616-47.617h9.863l-20.322,74.102h-9.448l-15.619-56.465
	c-1.323-4.727-2.091-7.616-2.319-8.701c-0.781,3.408-1.504,6.31-2.183,8.701l-15.708,56.465H277.453z M355.793,635.383
	c0-9.94,2.759-17.305,8.291-22.09c4.609-3.965,10.239-5.977,16.88-5.977c7.368,0,13.408,2.422,18.086,7.266
	c4.692,4.824,7.031,11.504,7.031,20.039c0,6.896-1.04,12.344-3.109,16.299c-2.08,3.965-5.089,7.041-9.049,9.229
	c-3.96,2.188-8.28,3.281-12.959,3.281c-7.523,0-13.594-2.402-18.223-7.228C358.104,651.379,355.793,644.445,355.793,635.383z
	 M365.134,635.383c0,6.875,1.499,12.021,4.497,15.439c3.003,3.418,6.782,5.127,11.333,5.127c4.508,0,8.268-1.719,11.271-5.156
	c2.998-3.438,4.487-8.672,4.487-15.713c0-6.641-1.499-11.67-4.518-15.088c-3.021-3.428-6.771-5.137-11.24-5.137
	c-4.551,0-8.33,1.709-11.333,5.106C366.644,623.361,365.134,628.508,365.134,635.383z M416.55,662.219v-74.102h9.103v74.102H416.55z
	 M441.911,662.219v-46.602h-8.037v-7.09h8.037v-5.703c0-3.604,0.322-6.279,0.972-8.047c0.869-2.344,2.407-4.269,4.619-5.723
	c2.212-1.466,5.298-2.207,9.277-2.207c2.559,0,5.391,0.303,8.496,0.918l-1.367,7.93c-1.885-0.332-3.672-0.508-5.352-0.508
	c-2.765,0-4.728,0.596-5.864,1.776c-1.152,1.172-1.719,3.39-1.719,6.621v4.941h10.453v7.09h-10.452v46.602L441.911,662.219
	L441.911,662.219z M468.4,662.219v-53.69h8.192v8.145c2.091-3.809,4.015-6.317,5.771-7.539c1.787-1.211,3.729-1.815,5.84-1.815
	c3.076,0,6.191,0.977,9.365,2.93l-3.135,8.447c-2.228-1.318-4.443-1.973-6.66-1.973c-1.992,0-3.789,0.596-5.361,1.807
	c-1.582,1.19-2.705,2.852-3.389,4.961c-1.017,3.242-1.515,6.777-1.515,10.625v28.105H468.4V662.219L468.4,662.219z M538,655.599
	c-3.379,2.852-6.61,4.873-9.735,6.055s-6.466,1.768-10.029,1.768c-5.908,0-10.439-1.436-13.594-4.315
	c-3.175-2.881-4.757-6.563-4.757-11.045c0-2.627,0.597-5.021,1.798-7.207c1.19-2.168,2.754-3.926,4.707-5.215
	c1.924-1.328,4.11-2.314,6.532-2.988c1.787-0.479,4.482-0.938,8.097-1.377c7.344-0.869,12.743-1.904,16.229-3.135
	c0.021-1.25,0.039-2.031,0.039-2.373c0-3.701-0.859-6.318-2.578-7.832c-2.313-2.052-5.781-3.097-10.352-3.097
	c-4.287,0-7.441,0.763-9.474,2.267c-2.041,1.483-3.555,4.149-4.53,7.959l-8.906-1.211c0.82-3.81,2.147-6.875,3.994-9.229
	c1.865-2.344,4.531-4.141,8.037-5.41c3.516-1.26,7.578-1.895,12.188-1.895c4.59,0,8.301,0.547,11.172,1.621s4.961,2.44,6.31,4.063
	c1.356,1.642,2.295,3.701,2.832,6.191c0.303,1.553,0.469,4.354,0.469,8.397v12.13c0,8.456,0.195,13.809,0.576,16.045
	c0.391,2.245,1.162,4.385,2.295,6.455h-9.492C538.869,660.334,538.273,658.117,538,655.599L538,655.599z M537.248,635.267
	c-3.301,1.356-8.262,2.5-14.863,3.446c-3.739,0.537-6.387,1.144-7.93,1.826c-1.553,0.674-2.754,1.66-3.594,2.949
	c-0.84,1.309-1.26,2.744-1.26,4.336c0,2.422,0.918,4.434,2.743,6.055c1.837,1.621,4.531,2.422,8.066,2.422
	c3.516,0,6.621-0.762,9.355-2.284c2.725-1.533,4.745-3.634,6.024-6.289c0.978-2.07,1.455-5.099,1.455-9.103v-3.358H537.248z
	 M560.549,662.219v-53.69h8.136v7.539c1.688-2.637,3.926-4.746,6.719-6.349c2.803-1.602,5.986-2.401,9.561-2.401
	c3.965,0,7.246,0.84,9.785,2.479c2.539,1.66,4.336,3.965,5.371,6.925c4.258-6.271,9.785-9.404,16.582-9.404
	c5.322,0,9.414,1.475,12.285,4.424s4.307,7.49,4.307,13.623v36.854h-9.053v-33.827c0-3.634-0.293-6.261-0.879-7.853
	c-0.605-1.602-1.66-2.891-3.203-3.867c-1.563-0.977-3.379-1.465-5.469-1.465c-3.771,0-6.896,1.25-9.396,3.771
	c-2.5,2.5-3.75,6.522-3.75,12.051v31.19h-9.082v-34.883c0-4.033-0.742-7.069-2.227-9.092c-1.494-2.021-3.916-3.037-7.285-3.037
	c-2.568,0-4.932,0.674-7.109,2.031c-2.168,1.348-3.739,3.301-4.727,5.897c-0.977,2.607-1.465,6.349-1.465,11.23v27.852
	L560.549,662.219L560.549,662.219z M93.752,848.059H84.65V790.07c-2.188,2.09-5.06,4.18-8.608,6.27s-6.748,3.662-9.58,4.707v-8.789
	c5.088-2.4,9.541-5.293,13.351-8.689c3.799-3.418,6.499-6.721,8.091-9.912h5.859v74.402H93.752L93.752,848.059z M131.063,807.873
	c-3.779-1.377-6.567-3.35-8.398-5.908c-1.821-2.578-2.72-5.635-2.72-9.199c0-5.391,1.929-9.922,5.811-13.604
	c3.877-3.672,9.028-5.508,15.47-5.508c6.46,0,11.68,1.885,15.619,5.635c3.95,3.75,5.918,8.34,5.918,13.721
	c0,3.447-0.897,6.438-2.71,8.965c-1.807,2.551-4.541,4.502-8.208,5.891c4.552,1.482,8.009,3.877,10.392,7.178
	c2.368,3.301,3.55,7.256,3.55,11.826c0,6.348-2.241,11.66-6.719,15.984c-4.482,4.316-10.381,6.455-17.69,6.455
	c-7.309,0-13.213-2.156-17.7-6.482c-4.481-4.336-6.724-9.729-6.724-16.201c0-4.814,1.221-8.857,3.662-12.1
	C123.054,811.271,126.54,809.055,131.063,807.873L131.063,807.873z M126.301,826.672c0,2.588,0.62,5.098,1.852,7.529
	c1.229,2.422,3.062,4.307,5.493,5.635c2.417,1.328,5.028,1.992,7.827,1.992c4.351,0,7.93-1.406,10.762-4.199
	c2.827-2.793,4.248-6.355,4.248-10.654c0-4.385-1.46-8.018-4.38-10.867c-2.91-2.861-6.559-4.299-10.938-4.299
	c-4.282,0-7.832,1.416-10.645,4.238C127.712,818.879,126.301,822.434,126.301,826.672L126.301,826.672z M129.231,792.463
	c0,3.506,1.133,6.367,3.394,8.584c2.256,2.229,5.19,3.34,8.799,3.34c3.512,0,6.377-1.104,8.608-3.318
	c2.251-2.207,3.359-4.902,3.359-8.115c0-3.33-1.147-6.123-3.457-8.408c-2.311-2.285-5.19-3.418-8.623-3.418
	c-3.468,0-6.349,1.113-8.639,3.34C130.394,786.691,129.231,789.348,129.231,792.463L129.231,792.463z M174.67,828.488l9.103-1.211
	c1.04,5.166,2.821,8.877,5.332,11.143c2.51,2.275,5.565,3.408,9.17,3.408c4.276,0,7.891-1.465,10.84-4.436
	c2.949-2.969,4.419-6.641,4.419-11.016c0-4.188-1.362-7.637-4.092-10.352c-2.72-2.705-6.196-4.063-10.41-4.063
	c-1.719,0-3.857,0.332-6.421,1.018l1.011-7.988c0.61,0.066,1.094,0.105,1.46,0.105c3.882,0,7.363-1.016,10.475-3.037
	c3.101-2.021,4.647-5.137,4.647-9.354c0-3.34-1.128-6.094-3.389-8.281c-2.262-2.207-5.182-3.291-8.74-3.291
	c-3.54,0-6.489,1.104-8.853,3.34c-2.358,2.229-3.878,5.559-4.552,10.012l-9.097-1.621c1.108-6.095,3.638-10.82,7.588-14.182
	c3.94-3.35,8.843-5.027,14.712-5.027c4.038,0,7.759,0.869,11.167,2.605c3.403,1.738,6.011,4.104,7.803,7.102
	c1.813,2.998,2.71,6.182,2.71,9.551c0,3.193-0.858,6.104-2.582,8.75c-1.72,2.627-4.259,4.717-7.628,6.26
	c4.381,1.018,7.778,3.125,10.211,6.299c2.432,3.186,3.638,7.18,3.638,11.953c0,6.455-2.358,11.943-7.08,16.455
	c-4.717,4.492-10.679,6.758-17.891,6.758c-6.499,0-11.899-1.941-16.196-5.818C177.731,839.68,175.28,834.65,174.67,828.488
	L174.67,828.488z M237.313,848.059v-10.369h10.36v10.369H237.313z M274.974,807.873c-3.779-1.377-6.572-3.35-8.398-5.908
	c-1.821-2.578-2.725-5.635-2.725-9.199c0-5.391,1.934-9.922,5.811-13.604c3.882-3.672,9.033-5.508,15.474-5.508
	c6.46,0,11.681,1.885,15.62,5.635c3.95,3.75,5.918,8.34,5.918,13.721c0,3.447-0.897,6.438-2.71,8.965
	c-1.812,2.551-4.541,4.502-8.208,5.891c4.546,1.482,8.009,3.877,10.392,7.178c2.368,3.301,3.545,7.256,3.545,11.826
	c0,6.348-2.236,11.66-6.719,15.986c-4.479,4.314-10.382,6.453-17.69,6.453s-13.208-2.156-17.7-6.482
	c-4.478-4.336-6.719-9.729-6.719-16.201c0-4.814,1.221-8.857,3.662-12.1C266.96,811.271,270.441,809.055,274.974,807.873z
	 M270.212,826.672c0,2.588,0.62,5.098,1.852,7.529c1.229,2.422,3.062,4.307,5.487,5.635c2.423,1.328,5.029,1.992,7.832,1.992
	c4.352,0,7.931-1.406,10.763-4.199c2.827-2.793,4.248-6.355,4.248-10.654c0-4.385-1.46-8.018-4.38-10.867
	c-2.91-2.861-6.563-4.299-10.942-4.299c-4.277,0-7.827,1.416-10.64,4.238C271.623,818.879,270.212,822.434,270.212,826.672
	L270.212,826.672z M273.143,792.463c0,3.506,1.128,6.367,3.389,8.584c2.261,2.229,5.189,3.34,8.804,3.34
	c3.506,0,6.377-1.104,8.608-3.318c2.251-2.207,3.358-4.902,3.358-8.115c0-3.33-1.146-6.123-3.462-8.408
	c-2.31-2.285-5.186-3.418-8.617-3.418c-3.473,0-6.349,1.113-8.639,3.34S273.143,789.348,273.143,792.463L273.143,792.463z
	 M347.692,848.059v-17.742h-32.14v-8.342l33.81-48.018h7.432v48.018h10.01v8.342h-10.01v17.742H347.692z M347.692,821.975v-33.406
	l-23.188,33.406H347.692z M365.773,449.725l-44.142-184.894h38.208l27.883,127.002l33.799-127.002h44.38l32.412,129.15
	l28.379-129.15h37.588l-44.903,184.894h-39.59l-36.836-138.224l-36.699,138.224H365.773L365.773,449.725z M859.025,108.934v7.588
	h-42.5c-0.08-1.871,0.231-3.737,0.918-5.479c1.072-2.899,2.813-5.747,5.193-8.55c2.383-2.813,5.84-6.05,10.332-9.751
	c6.992-5.728,11.709-10.259,14.17-13.608c2.451-3.35,3.684-6.514,3.684-9.502c0-3.13-1.113-5.771-3.352-7.92
	c-2.256-2.147-5.166-3.218-8.76-3.218c-3.799,0-6.836,1.138-9.121,3.428c-2.285,2.28-3.438,5.444-3.477,9.474l-8.115-0.851
	c0.557-6.04,2.646-10.659,6.279-13.843c3.623-3.169,8.496-4.761,14.607-4.761c6.162,0,11.045,1.714,14.648,5.132
	c3.594,3.428,5.391,7.671,5.391,12.72c0,2.583-0.525,5.112-1.563,7.593c-1.057,2.49-2.805,5.107-5.244,7.848
	c-2.441,2.749-6.494,6.519-12.178,11.323c-4.746,3.965-7.773,6.68-9.121,8.096c-1.35,1.421-2.461,2.842-3.341,4.282H859.025
	L859.025,108.934z M829.67,171.491c-3.262-1.196-5.703-2.91-7.285-5.142c-1.572-2.218-2.363-4.878-2.363-7.979
	c0-4.678,1.682-8.608,5.039-11.807c3.369-3.185,7.844-4.78,13.438-4.78c5.615,0,10.137,1.626,13.545,4.888
	c3.408,3.263,5.137,7.231,5.137,11.899c0,2.993-0.791,5.591-2.354,7.793c-1.554,2.197-3.938,3.906-7.129,5.106
	c3.965,1.289,6.953,3.359,9.014,6.23c2.07,2.861,3.096,6.289,3.096,10.259c0,5.503-1.934,10.122-5.818,13.862
	c-3.906,3.75-9.016,5.62-15.371,5.62c-6.328,0-11.455-1.88-15.342-5.63c-3.896-3.761-5.83-8.452-5.83-14.063
	c0-4.18,1.055-7.681,3.184-10.498C822.736,174.44,825.764,172.512,829.67,171.491L829.67,171.491z M825.549,187.814
	c0,2.256,0.527,4.429,1.604,6.527c1.055,2.109,2.654,3.74,4.766,4.889c2.081,1.146,4.421,1.743,6.797,1.732
	c3.779,0,6.896-1.211,9.355-3.633c2.449-2.427,3.682-5.518,3.682-9.258c0-3.804-1.271-6.938-3.799-9.429
	c-2.529-2.48-5.686-3.73-9.492-3.73c-3.711,0-6.797,1.23-9.238,3.688C826.77,181.052,825.549,184.133,825.549,187.814
	L825.549,187.814z M828.088,158.112c0,3.042,0.996,5.532,2.949,7.451c1.953,1.929,4.492,2.899,7.637,2.899
	c3.037,0,5.537-0.962,7.48-2.871c1.934-1.908,2.92-4.271,2.92-7.041c0-2.899-1.006-5.326-3.02-7.3
	c-1.99-1.968-4.49-2.959-7.479-2.959c-3.008,0-5.508,0.957-7.5,2.892C829.094,153.112,828.088,155.412,828.088,158.112z
	 M797.287,296.203h-7.891v-50.313c-1.896,1.812-4.386,3.623-7.48,5.438c-3.086,1.813-5.858,3.174-8.301,4.072v-7.632
	c4.404-2.08,8.262-4.59,11.582-7.55c3.301-2.948,5.635-5.819,7.012-8.589h5.078V296.203z M829.66,261.32
	c-3.271-1.196-5.693-2.91-7.295-5.137c-1.563-2.223-2.354-4.884-2.354-7.983c0-4.678,1.682-8.608,5.039-11.807
	c3.369-3.18,7.842-4.78,13.428-4.78c5.625,0,10.139,1.631,13.557,4.888c3.407,3.263,5.137,7.231,5.137,11.899
	c0,2.993-0.781,5.591-2.344,7.793c-1.563,2.197-3.945,3.906-7.129,5.106c3.955,1.289,6.941,3.359,9.004,6.23
	c2.069,2.861,3.104,6.289,3.104,10.264c0,5.498-1.941,10.117-5.84,13.857c-3.896,3.75-9.004,5.62-15.352,5.62
	c-6.35,0-11.465-1.88-15.354-5.63c-3.887-3.761-5.83-8.452-5.83-14.063c0-4.18,1.045-7.676,3.175-10.498
	C822.736,264.271,825.754,262.352,829.66,261.32L829.66,261.32z M825.549,277.645c0,2.261,0.527,4.429,1.592,6.527
	c1.064,2.109,2.666,3.74,4.758,4.894c2.086,1.143,4.428,1.737,6.807,1.729c3.779,0,6.885-1.211,9.346-3.633
	c2.461-2.427,3.691-5.518,3.691-9.258c0-3.799-1.271-6.938-3.799-9.429c-2.529-2.48-5.693-3.73-9.502-3.73
	c-3.713,0-6.787,1.23-9.229,3.688C826.76,270.881,825.549,273.962,825.549,277.645L825.549,277.645z M828.088,247.941
	c0,3.042,0.986,5.532,2.93,7.451c1.965,1.929,4.502,2.899,7.646,2.899c3.037,0,5.537-0.962,7.479-2.871
	c1.943-1.909,2.922-4.268,2.922-7.041c0-2.899-1.018-5.327-3.01-7.3c-2.012-1.968-4.512-2.959-7.479-2.959
	c-3.027,0-5.527,0.962-7.5,2.891C829.084,242.941,828.088,245.251,828.088,247.941z M797.287,386.042h-7.891v-50.308
	c-1.896,1.807-4.386,3.618-7.48,5.438c-3.086,1.808-5.858,3.169-8.301,4.067v-7.627c4.404-2.08,8.262-4.595,11.582-7.554
	c3.301-2.949,5.635-5.82,7.012-8.59h5.078V386.042z M859.006,378.454v7.588h-42.5c-0.059-1.898,0.244-3.729,0.928-5.479
	c1.084-2.9,2.805-5.752,5.205-8.55c2.373-2.813,5.82-6.051,10.322-9.751c6.992-5.732,11.709-10.26,14.17-13.608
	c2.451-3.35,3.682-6.514,3.682-9.502c0-3.13-1.104-5.771-3.35-7.92c-2.246-2.149-5.156-3.224-8.76-3.224
	c-3.799,0-6.846,1.144-9.121,3.434c-2.275,2.28-3.447,5.438-3.467,9.468l-8.125-0.84c0.564-6.04,2.654-10.659,6.277-13.838
	c3.623-3.169,8.486-4.761,14.602-4.761c6.172,0,11.055,1.709,14.668,5.132c3.584,3.428,5.391,7.666,5.391,12.72
	c0,2.578-0.537,5.107-1.582,7.588c-1.045,2.49-2.793,5.112-5.232,7.853c-2.441,2.749-6.506,6.519-12.18,11.317
	c-4.734,3.97-7.771,6.68-9.121,8.102c-1.355,1.421-2.461,2.842-3.34,4.281h31.533V378.454L859.006,378.454z M859.025,468.293v7.588
	h-42.5c-0.078-1.903,0.232-3.729,0.918-5.479c1.072-2.9,2.813-5.752,5.193-8.555c2.382-2.804,5.84-6.046,10.332-9.746
	c6.992-5.729,11.709-10.26,14.17-13.608c2.451-3.35,3.684-6.509,3.684-9.502c0-3.13-1.113-5.767-3.352-7.92
	c-2.256-2.148-5.166-3.218-8.76-3.218c-3.799,0-6.836,1.138-9.121,3.428c-2.285,2.28-3.438,5.438-3.477,9.473l-8.115-0.85
	c0.557-6.04,2.646-10.664,6.279-13.843c3.623-3.169,8.496-4.762,14.607-4.762c6.162,0,11.045,1.709,14.648,5.133
	c3.594,3.428,5.391,7.671,5.391,12.72c0,2.578-0.525,5.106-1.563,7.588c-1.057,2.49-2.805,5.112-5.244,7.852
	c-2.441,2.749-6.494,6.52-12.178,11.318c-4.746,3.975-7.773,6.68-9.121,8.105c-1.35,1.416-2.461,2.832-3.341,4.276L859.025,468.293
	L859.025,468.293z"/>
</svg>
