<?xml version="1.0" encoding="utf-8"?>
<!-- Generator: Adobe Illustrator 16.0.3, SVG Export Plug-In . SVG Version: 6.00 Build 0)  -->
<!DOCTYPE svg PUBLIC "-//W3C//DTD SVG 1.1//EN" "http://www.w3.org/Graphics/SVG/1.1/DTD/svg11.dtd">
<svg version="1.1" id="Layer_1" xmlns="http://www.w3.org/2000/svg" xmlns:xlink="http://www.w3.org/1999/xlink" x="0px" y="0px"
	 width="900px" height="900px" viewBox="0 0 900 900" enable-background="new 0 0 900 900" xml:space="preserve">
<path d="M40.195,64.739V51.438h72.959v10.771c-7.178,7.637-14.287,17.783-21.338,30.439c-7.051,12.656-12.49,25.684-16.338,39.053
	c-2.764,9.434-4.531,19.766-5.303,30.986H55.957c0.146-8.867,1.895-19.58,5.225-32.139s8.105-24.658,14.336-36.328
	c6.23-11.65,12.852-21.484,19.873-29.482H40.195V64.739z M126.836,133.167l14.531-1.23c1.074,7.07,3.574,12.393,7.5,15.957
	c3.916,3.555,8.643,5.342,14.18,5.342c6.66,0,12.305-2.51,16.914-7.539c4.609-5.02,6.924-11.68,6.924-19.99
	c0-7.891-2.217-14.121-6.65-18.682s-10.244-6.836-17.412-6.836c-4.463,0-8.486,1.006-12.07,3.037
	c-3.594,2.021-6.416,4.648-8.457,7.881l-12.998-1.699l10.918-57.891h56.045V64.74H151.29l-6.074,30.293
	c6.758-4.717,13.857-7.07,21.289-7.07c9.844,0,18.145,3.408,24.912,10.225s10.146,15.576,10.146,26.289
	c0,10.205-2.969,19.023-8.916,26.445c-7.227,9.131-17.09,13.691-29.6,13.691c-10.254,0-18.613-2.871-25.098-8.613
	C131.464,150.258,127.764,142.649,126.836,133.167L126.836,133.167z M249.248,661.59v-74.102h32.861
	c6.602,0,11.621,0.664,15.059,1.992c3.438,1.327,6.182,3.69,8.242,7.051c2.051,3.379,3.076,7.09,3.076,11.172
	c0,5.254-1.699,9.688-5.098,13.301c-3.408,3.594-8.662,5.898-15.771,6.875c2.588,1.23,4.561,2.461,5.908,3.691
	c2.871,2.617,5.576,5.897,8.145,9.844l12.881,20.176h-12.324l-9.814-15.43c-2.861-4.434-5.215-7.852-7.07-10.195
	c-1.855-2.362-3.516-4.022-4.98-4.961c-1.464-0.938-2.959-1.602-4.473-1.973c-1.113-0.234-2.93-0.353-5.459-0.353h-11.377v32.91
	L249.248,661.59L249.248,661.59z M259.053,620.184h21.084c4.482,0,7.979-0.448,10.508-1.387c2.529-0.918,4.453-2.402,5.762-4.453
	c1.318-2.031,1.973-4.237,1.973-6.641c0-3.496-1.27-6.387-3.818-8.633c-2.539-2.267-6.563-3.398-12.051-3.398h-23.457
	L259.053,620.184L259.053,620.184z M322.695,661.59v-74.102h9.092v26.582c4.248-4.922,9.609-7.383,16.074-7.383
	c3.975,0,7.432,0.78,10.361,2.362c2.939,1.563,5.029,3.73,6.299,6.484c1.26,2.772,1.895,6.776,1.895,12.031v34.022h-9.102v-34.022
	c0-4.552-0.986-7.853-2.959-9.923c-1.963-2.09-4.756-3.125-8.359-3.125c-2.695,0-5.234,0.703-7.607,2.109
	c-2.373,1.387-4.072,3.281-5.078,5.685c-1.016,2.383-1.523,5.702-1.523,9.901v29.375h-9.093V661.59z M417.012,644.305l9.396,1.152
	c-1.484,5.488-4.229,9.766-8.232,12.793c-4.014,3.027-9.141,4.551-15.371,4.551c-7.852,0-14.072-2.422-18.672-7.266
	c-4.6-4.824-6.904-11.602-6.904-20.332c0-9.023,2.324-16.035,6.973-21.035c4.658-4.979,10.684-7.479,18.096-7.479
	c7.178,0,13.047,2.44,17.598,7.344c4.541,4.883,6.816,11.758,6.816,20.604c0,0.548-0.01,1.349-0.049,2.441h-40.029
	c0.332,5.898,2.002,10.41,5,13.535c2.998,3.145,6.738,4.707,11.222,4.707c3.34,0,6.182-0.879,8.545-2.638
	C413.76,650.945,415.625,648.133,417.012,644.305L417.012,644.305z M387.139,629.598h29.971c-0.41-4.53-1.554-7.909-3.438-10.176
	c-2.899-3.496-6.66-5.254-11.27-5.254c-4.181,0-7.695,1.406-10.537,4.199C389.014,621.16,387.441,624.91,387.139,629.598
	L387.139,629.598z M437.832,661.59v-53.69h8.184v7.637c3.945-5.898,9.64-8.848,17.091-8.848c3.231,0,6.2,0.586,8.916,1.758
	c2.715,1.151,4.745,2.676,6.094,4.569c1.348,1.875,2.285,4.121,2.832,6.72c0.332,1.68,0.498,4.629,0.498,8.848v33.008h-9.093
	v-32.655c0-3.711-0.352-6.484-1.063-8.32c-0.703-1.836-1.963-3.301-3.76-4.396c-1.808-1.094-3.927-1.641-6.349-1.641
	c-3.877,0-7.217,1.229-10.028,3.691c-2.822,2.461-4.229,7.129-4.229,14.004v29.315H437.832z M495.459,597.957v-10.469h9.102v10.469
	H495.459z M495.459,661.59v-53.69h9.102v53.69H495.459z M553.584,661.59v-7.891c-4.18,6.074-9.854,9.102-17.031,9.102
	c-3.174,0-6.123-0.604-8.877-1.815c-2.744-1.211-4.785-2.734-6.112-4.59c-1.328-1.837-2.267-4.082-2.804-6.738
	c-0.371-1.777-0.557-4.609-0.557-8.496v-33.262h9.102v29.784c0,4.746,0.187,7.949,0.558,9.591c0.565,2.401,1.776,4.276,3.633,5.645
	s4.15,2.051,6.875,2.051c2.734,0,5.293-0.702,7.686-2.108c2.394-1.387,4.082-3.301,5.078-5.703s1.494-5.898,1.494-10.488V607.9
	h9.092v53.69L553.584,661.59L553.584,661.59z M575.977,661.59v-53.69h8.136v7.539c1.688-2.638,3.926-4.746,6.719-6.349
	c2.803-1.602,5.986-2.401,9.561-2.401c3.976,0,7.236,0.84,9.775,2.479c2.549,1.66,4.336,3.965,5.381,6.935
	c4.248-6.271,9.775-9.414,16.582-9.414c5.322,0,9.414,1.483,12.285,4.434c2.861,2.949,4.297,7.48,4.297,13.613v36.854h-9.053
	v-33.828c0-3.633-0.293-6.25-0.879-7.852c-0.597-1.602-1.66-2.891-3.213-3.867c-1.554-0.976-3.369-1.465-5.459-1.465
	c-3.771,0-6.904,1.25-9.404,3.77c-2.49,2.5-3.74,6.523-3.74,12.052v31.19h-9.092v-34.883c0-4.043-0.742-7.07-2.228-9.102
	c-1.483-2.013-3.905-3.027-7.274-3.027c-2.568,0-4.933,0.684-7.109,2.031c-2.168,1.348-3.739,3.301-4.727,5.897
	c-0.978,2.599-1.465,6.349-1.465,11.23v27.852L575.977,661.59L575.977,661.59z M93.76,847.43h-9.102v-57.987
	c-2.188,2.09-5.059,4.18-8.613,6.27c-3.554,2.09-6.748,3.672-9.58,4.707v-8.789c5.088-2.401,9.541-5.293,13.35-8.69
	c3.799-3.418,6.504-6.72,8.086-9.923h5.859V847.43L93.76,847.43z M131.064,807.234c-3.779-1.367-6.572-3.341-8.398-5.898
	c-1.816-2.578-2.725-5.645-2.725-9.199c0-5.391,1.934-9.922,5.811-13.612c3.877-3.673,9.033-5.509,15.469-5.509
	c6.465,0,11.68,1.896,15.615,5.646c3.945,3.75,5.918,8.34,5.918,13.729c0,3.438-0.898,6.427-2.705,8.966
	c-1.807,2.539-4.541,4.512-8.213,5.879c4.551,1.483,8.008,3.887,10.391,7.188c2.373,3.302,3.555,7.246,3.555,11.816
	c0,6.348-2.236,11.66-6.719,15.977c-4.483,4.317-10.381,6.465-17.686,6.465c-7.314,0-13.213-2.147-17.695-6.483
	s-6.719-9.728-6.719-16.211c0-4.806,1.221-8.849,3.662-12.09C123.066,810.633,126.543,808.426,131.064,807.234L131.064,807.234z
	 M126.309,826.043c0,2.598,0.615,5.098,1.846,7.539c1.23,2.422,3.057,4.297,5.488,5.625c2.422,1.328,5.029,1.992,7.832,1.992
	c4.346,0,7.93-1.387,10.762-4.18c2.832-2.813,4.248-6.367,4.248-10.664c0-4.396-1.455-8.009-4.375-10.88
	c-2.91-2.852-6.563-4.297-10.938-4.297c-4.277,0-7.832,1.427-10.645,4.259C127.714,818.269,126.309,821.805,126.309,826.043z
	 M129.238,791.824c0,3.516,1.133,6.367,3.389,8.594s5.186,3.34,8.799,3.34c3.506,0,6.377-1.112,8.613-3.319
	c2.246-2.207,3.359-4.902,3.359-8.105c0-3.34-1.152-6.133-3.457-8.418c-2.314-2.266-5.186-3.418-8.623-3.418
	c-3.467,0-6.348,1.113-8.643,3.34C130.391,786.063,129.238,788.719,129.238,791.824L129.238,791.824z M221.836,791.473l-9.043,0.703
	c-0.811-3.574-1.953-6.172-3.438-7.772c-2.461-2.599-5.498-3.906-9.102-3.906c-2.9,0-5.439,0.82-7.627,2.44
	c-2.871,2.091-5.127,5.138-6.777,9.142s-2.51,9.727-2.578,17.129c2.188-3.34,4.873-5.801,8.037-7.422s6.484-2.422,9.961-2.422
	c6.064,0,11.221,2.227,15.488,6.698c4.258,4.453,6.396,10.234,6.396,17.306c0,4.647-1.006,8.965-3.008,12.969
	c-2.012,3.984-4.766,7.051-8.262,9.16c-3.506,2.129-7.49,3.184-11.934,3.184c-7.578,0-13.77-2.772-18.545-8.358
	c-4.795-5.566-7.178-14.767-7.178-27.578c0-14.316,2.637-24.728,7.93-31.23c4.619-5.664,10.83-8.496,18.652-8.496
	c5.83,0,10.605,1.642,14.326,4.902C218.867,781.199,221.094,785.711,221.836,791.473L221.836,791.473z M184.688,823.406
	c-0.008,3.111,0.672,6.186,1.992,9.004c1.338,2.871,3.193,5.059,5.586,6.543c2.393,1.504,4.902,2.246,7.529,2.246
	c3.848,0,7.148-1.543,9.912-4.648c2.764-3.086,4.141-7.305,4.141-12.637c0-5.117-1.357-9.141-4.092-12.09
	c-2.725-2.949-6.162-4.435-10.313-4.435c-4.111,0-7.598,1.484-10.459,4.435C186.123,814.774,184.688,818.641,184.688,823.406
	L184.688,823.406z M237.314,847.43v-10.371h10.361v10.371H237.314z M308.779,838.68v8.75h-48.975
	c-0.075-2.159,0.287-4.312,1.064-6.328c1.24-3.34,3.242-6.62,5.986-9.844c2.744-3.242,6.709-6.992,11.904-11.229
	c8.047-6.603,13.496-11.836,16.328-15.685c2.822-3.867,4.238-7.52,4.238-10.957c0-3.594-1.289-6.641-3.867-9.121
	c-2.578-2.479-5.938-3.711-10.078-3.711c-4.385,0-7.891,1.31-10.518,3.945c-2.627,2.617-3.955,6.271-3.994,10.918l-9.346-0.957
	c0.635-6.973,3.047-12.305,7.227-15.957c4.18-3.651,9.785-5.487,16.836-5.487c7.109,0,12.734,1.973,16.875,5.918
	c4.15,3.944,6.221,8.827,6.221,14.668c0,2.948-0.605,5.879-1.816,8.729c-1.221,2.871-3.232,5.879-6.045,9.063
	c-2.813,3.164-7.49,7.5-14.023,13.026c-5.459,4.59-8.965,7.695-10.518,9.336c-1.553,1.621-2.832,3.281-3.838,4.922H308.779
	L308.779,838.68z M352.803,847.43h-9.102v-57.987c-2.188,2.09-5.059,4.18-8.613,6.27c-3.554,2.09-6.748,3.672-9.58,4.707v-8.789
	c5.088-2.401,9.541-5.293,13.35-8.69c3.799-3.418,6.504-6.72,8.086-9.923h5.859L352.803,847.43L352.803,847.43z M296.475,449.094
	V264.202h78.574c19.756,0,34.111,1.67,43.066,4.99s16.123,9.229,21.504,17.715c5.381,8.496,8.076,18.203,8.076,29.131
	c0,13.877-4.082,25.332-12.236,34.365c-8.154,9.043-20.352,14.735-36.572,17.09c8.066,4.717,14.728,9.883,19.99,15.518
	c5.254,5.636,12.334,15.636,21.25,30.011l22.568,36.073h-44.64l-26.992-40.233c-9.59-14.375-16.143-23.438-19.678-27.179
	c-3.525-3.739-7.266-6.299-11.221-7.694c-3.955-1.388-10.215-2.08-18.789-2.08h-7.568v77.188h-37.333V449.094z M333.809,342.395
	h27.617c17.91,0,29.092-0.752,33.545-2.266c4.463-1.514,7.949-4.121,10.469-7.822c2.521-3.69,3.789-8.319,3.789-13.866
	c0-6.222-1.659-11.25-4.979-15.079c-3.33-3.818-8.019-6.24-14.063-7.246c-3.027-0.42-12.109-0.635-27.246-0.635h-29.131V342.395
	L333.809,342.395z M560.186,406.467l35.313,5.928c-4.541,12.949-11.709,22.804-21.504,29.57
	c-9.795,6.768-22.051,10.156-36.769,10.156c-23.291,0-40.526-7.607-51.709-22.832c-8.828-12.188-13.241-27.568-13.241-46.152
	c0-22.196,5.801-39.58,17.411-52.147c11.603-12.568,26.271-18.857,44.015-18.857c19.922,0,35.645,6.582,47.168,19.736
	c11.514,13.164,17.021,33.319,16.522,60.479h-88.789c0.254,10.509,3.105,18.683,8.574,24.521c5.469,5.85,12.275,8.77,20.43,8.77
	c5.548,0,10.216-1.514,14.005-4.541C555.391,418.069,558.252,413.196,560.186,406.467L560.186,406.467z M562.197,370.646
	c-0.244-10.254-2.9-18.057-7.939-23.389c-5.049-5.342-11.182-8.008-18.418-8.008c-7.734,0-14.121,2.813-19.17,8.447
	c-5.039,5.635-7.52,13.28-7.441,22.948L562.197,370.646L562.197,370.646z M859.014,108.303v7.588h-42.5
	c-0.067-1.904,0.244-3.73,0.918-5.479c1.084-2.9,2.813-5.752,5.195-8.555c2.383-2.813,5.83-6.055,10.332-9.746
	c6.992-5.732,11.709-10.264,14.17-13.613c2.451-3.35,3.682-6.514,3.682-9.502c0-3.125-1.112-5.771-3.35-7.92
	c-2.246-2.148-5.156-3.223-8.76-3.223c-3.799,0-6.836,1.143-9.121,3.428c-2.275,2.275-3.438,5.438-3.467,9.473l-8.115-0.84
	c0.557-6.045,2.646-10.664,6.279-13.838c3.623-3.174,8.485-4.756,14.6-4.756c6.172,0,11.055,1.709,14.658,5.127
	c3.594,3.428,5.391,7.666,5.391,12.725c0,2.578-0.526,5.107-1.572,7.588c-1.055,2.49-2.803,5.107-5.243,7.852
	c-2.441,2.754-6.505,6.523-12.179,11.318c-4.735,3.975-7.772,6.68-9.121,8.096c-1.348,1.416-2.461,2.842-3.34,4.277H859.014z
	 M829.668,170.862c-3.271-1.201-5.703-2.91-7.285-5.137c-1.572-2.217-2.363-4.883-2.363-7.979c0-4.678,1.681-8.613,5.039-11.807
	c3.369-3.184,7.843-4.775,13.429-4.775c5.614,0,10.137,1.631,13.555,4.893c3.418,3.262,5.137,7.227,5.137,11.904
	c0,2.988-0.791,5.586-2.354,7.793c-1.563,2.207-3.937,3.906-7.129,5.107c3.955,1.289,6.952,3.359,9.014,6.23
	c2.07,2.861,3.096,6.289,3.096,10.264c0,5.498-1.942,10.117-5.83,13.857c-3.896,3.75-9.014,5.615-15.36,5.615
	c-6.338,0-11.455-1.875-15.353-5.635c-3.887-3.76-5.83-8.447-5.83-14.063c0-4.18,1.056-7.676,3.185-10.498
	C822.734,173.811,825.752,171.887,829.668,170.862L829.668,170.862z M825.547,187.18c0,2.256,0.527,4.434,1.602,6.533
	c1.064,2.109,2.656,3.74,4.757,4.893c2.081,1.146,4.421,1.741,6.797,1.729c3.778,0,6.895-1.211,9.346-3.633
	c2.461-2.432,3.691-5.518,3.691-9.258c0-3.799-1.271-6.943-3.8-9.434c-2.528-2.48-5.692-3.73-9.502-3.73
	c-3.711,0-6.787,1.23-9.229,3.691C826.768,180.422,825.547,183.499,825.547,187.18L825.547,187.18z M828.086,157.483
	c0,3.037,0.986,5.527,2.939,7.451c1.963,1.934,4.502,2.9,7.637,2.9c3.037,0,5.537-0.957,7.479-2.871
	c1.943-1.914,2.92-4.268,2.92-7.041c0-2.9-1.006-5.332-3.008-7.305c-2.002-1.973-4.502-2.959-7.479-2.959
	c-3.019,0-5.519,0.957-7.5,2.891C829.082,152.483,828.086,154.788,828.086,157.483L828.086,157.483z M797.285,295.569h-7.892
	v-50.313c-1.903,1.807-4.395,3.623-7.479,5.439c-3.086,1.807-5.859,3.174-8.312,4.072v-7.627c4.414-2.08,8.271-4.59,11.582-7.549
	c3.302-2.949,5.646-5.82,7.013-8.594h5.088V295.569L797.285,295.569z M829.658,260.696c-3.271-1.201-5.703-2.91-7.285-5.137
	c-1.572-2.217-2.363-4.883-2.363-7.979c0-4.678,1.68-8.613,5.039-11.807c3.369-3.184,7.842-4.775,13.428-4.775
	c5.615,0,10.138,1.631,13.556,4.893c3.418,3.262,5.137,7.227,5.137,11.904c0,2.988-0.791,5.586-2.354,7.793
	c-1.563,2.207-3.936,3.906-7.129,5.107c3.955,1.289,6.953,3.359,9.015,6.23c2.069,2.861,3.096,6.289,3.096,10.264
	c0,5.498-1.943,10.117-5.83,13.857c-3.896,3.75-9.014,5.615-15.361,5.615c-6.338,0-11.455-1.875-15.352-5.635
	c-3.887-3.76-5.83-8.447-5.83-14.063c0-4.18,1.055-7.676,3.184-10.498C822.725,263.645,825.742,261.721,829.658,260.696
	L829.658,260.696z M825.537,277.014c0,2.256,0.526,4.434,1.602,6.533c1.064,2.109,2.656,3.74,4.756,4.893
	c2.082,1.146,4.422,1.741,6.797,1.729c3.779,0,6.896-1.211,9.347-3.633c2.461-2.432,3.69-5.518,3.69-9.258
	c0-3.799-1.27-6.943-3.799-9.434c-2.529-2.48-5.692-3.73-9.502-3.73c-3.711,0-6.787,1.23-9.229,3.691
	C826.758,270.256,825.537,273.333,825.537,277.014L825.537,277.014z M828.076,247.317c0,3.037,0.985,5.527,2.938,7.451
	c1.963,1.934,4.502,2.9,7.638,2.9c3.037,0,5.537-0.957,7.479-2.871c1.943-1.914,2.92-4.268,2.92-7.041
	c0-2.9-1.006-5.332-3.008-7.305c-2.002-1.973-4.502-2.959-7.479-2.959c-3.019,0-5.519,0.957-7.5,2.891
	C829.072,242.317,828.076,244.622,828.076,247.317L828.076,247.317z M767.588,368.44l7.9-1.056c0.908,4.474,2.451,7.695,4.629,9.668
	c2.178,1.974,4.834,2.959,7.959,2.959c3.711,0,6.854-1.278,9.414-3.856c2.559-2.568,3.838-5.763,3.838-9.562
	c0-3.623-1.191-6.621-3.555-8.975c-2.373-2.354-5.381-3.525-9.043-3.525c-1.484,0-3.341,0.293-5.566,0.879l0.879-6.934
	c0.527,0.059,0.947,0.088,1.271,0.088c3.358,0,6.387-0.879,9.082-2.637c2.686-1.748,4.032-4.453,4.032-8.115
	c0-2.891-0.977-5.293-2.938-7.188c-1.953-1.904-4.492-2.853-7.588-2.853c-3.066,0-5.625,0.957-7.677,2.892
	c-2.051,1.934-3.358,4.823-3.944,8.69l-7.9-1.406c0.967-5.293,3.164-9.395,6.582-12.305s7.676-4.365,12.764-4.365
	c3.507,0,6.738,0.752,9.697,2.256c2.949,1.505,5.215,3.564,6.777,6.162c1.563,2.607,2.344,5.371,2.344,8.291
	c0,2.783-0.742,5.313-2.236,7.588c-1.494,2.285-3.7,4.103-6.621,5.439c3.8,0.879,6.759,2.705,8.857,5.469
	c2.109,2.765,3.164,6.222,3.164,10.371c0,5.615-2.051,10.371-6.144,14.277c-4.102,3.906-9.276,5.858-15.526,5.858
	c-5.646,0-10.332-1.68-14.063-5.049C770.244,378.147,768.115,373.792,767.588,368.44L767.588,368.44z M859.004,377.825v7.588h-42.5
	c-0.068-1.904,0.244-3.73,0.918-5.479c1.084-2.899,2.813-5.752,5.195-8.555c2.383-2.813,5.83-6.055,10.332-9.746
	c6.992-5.731,11.709-10.264,14.17-13.613c2.451-3.35,3.682-6.514,3.682-9.502c0-3.125-1.112-5.771-3.35-7.92
	c-2.246-2.147-5.156-3.223-8.76-3.223c-3.8,0-6.836,1.143-9.121,3.428c-2.275,2.275-3.438,5.439-3.467,9.474l-8.115-0.841
	c0.557-6.045,2.646-10.663,6.279-13.838c3.622-3.174,8.485-4.756,14.6-4.756c6.172,0,11.055,1.709,14.658,5.127
	c3.594,3.429,5.391,7.666,5.391,12.726c0,2.578-0.527,5.106-1.572,7.588c-1.055,2.49-2.803,5.106-5.244,7.852
	c-2.44,2.754-6.504,6.523-12.178,11.318c-4.736,3.975-7.772,6.68-9.121,8.096c-1.348,1.416-2.461,2.842-3.34,4.277H859.004z
	 M797.285,475.242h-7.891v-50.309c-1.904,1.808-4.396,3.623-7.48,5.439c-3.086,1.807-5.859,3.174-8.311,4.072v-7.627
	c4.414-2.08,8.271-4.591,11.582-7.55c3.301-2.948,5.645-5.819,7.012-8.594h5.088V475.242L797.285,475.242z M817.549,458.273
	l7.9-1.056c0.908,4.47,2.451,7.691,4.629,9.664c2.178,1.974,4.834,2.969,7.959,2.969c3.711,0,6.854-1.288,9.414-3.866
	c2.559-2.56,3.838-5.763,3.838-9.558c0-3.623-1.191-6.621-3.555-8.974c-2.373-2.354-5.381-3.525-9.043-3.525
	c-1.484,0-3.341,0.293-5.566,0.879l0.879-6.934c0.527,0.059,0.947,0.088,1.271,0.088c3.358,0,6.387-0.879,9.082-2.637
	c2.686-1.748,4.032-4.453,4.032-8.115c0-2.891-0.977-5.293-2.938-7.188c-1.953-1.904-4.492-2.853-7.588-2.853
	c-3.066,0-5.625,0.957-7.677,2.892c-2.051,1.934-3.358,4.823-3.944,8.69l-7.9-1.406c0.967-5.293,3.164-9.395,6.582-12.305
	s7.676-4.365,12.764-4.365c3.507,0,6.738,0.752,9.697,2.256c2.949,1.505,5.215,3.564,6.777,6.162
	c1.563,2.607,2.344,5.371,2.344,8.291c0,2.783-0.742,5.313-2.236,7.588c-1.493,2.285-3.7,4.103-6.62,5.439
	c3.799,0.879,6.758,2.705,8.856,5.469c2.109,2.765,3.164,6.22,3.164,10.371c0,5.611-2.051,10.377-6.143,14.283
	c-4.103,3.906-9.277,5.859-15.527,5.859c-5.646,0-10.332-1.681-14.063-5.06C820.205,467.978,818.076,463.621,817.549,458.273
	L817.549,458.273z M859.014,557.508v7.578h-42.5c-0.067-1.895,0.244-3.729,0.918-5.469c1.084-2.91,2.813-5.762,5.195-8.555
	c2.383-2.813,5.83-6.056,10.332-9.746c6.992-5.742,11.709-10.273,14.17-13.613c2.451-3.359,3.682-6.523,3.682-9.512
	c0-3.125-1.112-5.763-3.35-7.91c-2.246-2.148-5.156-3.224-8.76-3.224c-3.799,0-6.836,1.134-9.121,3.418
	c-2.275,2.285-3.438,5.449-3.467,9.474l-8.115-0.84c0.557-6.035,2.646-10.664,6.279-13.828c3.623-3.185,8.485-4.767,14.6-4.767
	c6.172,0,11.055,1.72,14.658,5.138c3.594,3.418,5.391,7.655,5.391,12.715c0,2.578-0.526,5.117-1.571,7.598
	c-1.056,2.48-2.804,5.099-5.244,7.853c-2.441,2.754-6.504,6.522-12.179,11.309c-4.735,3.984-7.772,6.68-9.12,8.105
	c-1.349,1.405-2.462,2.831-3.341,4.276H859.014z"/>
</svg>
