<?xml version="1.0" encoding="utf-8"?>
<!-- Generator: Adobe Illustrator 16.0.3, SVG Export Plug-In . SVG Version: 6.00 Build 0)  -->
<!DOCTYPE svg PUBLIC "-//W3C//DTD SVG 1.1//EN" "http://www.w3.org/Graphics/SVG/1.1/DTD/svg11.dtd">
<svg version="1.1" id="Layer_1" xmlns="http://www.w3.org/2000/svg" xmlns:xlink="http://www.w3.org/1999/xlink" x="0px" y="0px"
	 width="900px" height="900px" viewBox="0 0 900 900" enable-background="new 0 0 900 900" xml:space="preserve">
<path d="M40.024,64.739V51.438h72.959v10.771c-7.178,7.637-14.287,17.783-21.338,30.439c-7.051,12.656-12.49,25.684-16.338,39.053
	c-2.764,9.434-4.531,19.766-5.303,30.986H55.786c0.146-8.867,1.895-19.58,5.225-32.139c3.33-12.559,8.105-24.658,14.336-36.328
	c6.23-11.65,12.852-21.484,19.873-29.482H40.024V64.739z M127.593,64.739V51.438h72.959v10.771
	c-7.178,7.637-14.287,17.783-21.338,30.439c-7.051,12.656-12.49,25.684-16.338,39.053c-2.764,9.434-4.531,19.766-5.303,30.986
	h-14.219c0.146-8.867,1.895-19.58,5.225-32.139s8.105-24.658,14.336-36.328c6.23-11.65,12.852-21.484,19.873-29.482h-55.195V64.739z
	 M302.427,661.59v-74.102h9.805v74.102H302.427z M328.247,661.59v-53.69h8.193v8.145c2.09-3.809,4.014-6.309,5.781-7.539
	c1.777-1.211,3.721-1.815,5.84-1.815c3.066,0,6.182,0.977,9.355,2.93l-3.135,8.457c-2.227-1.328-4.453-1.973-6.67-1.973
	c-1.992,0-3.779,0.586-5.361,1.797c-1.582,1.19-2.715,2.852-3.389,4.961c-1.006,3.242-1.514,6.776-1.514,10.625v28.104
	L328.247,661.59L328.247,661.59z M362.876,597.957v-10.469h9.102v10.469H362.876z M362.876,661.59v-53.69h9.102v53.69H362.876z
	 M420.649,661.59v-6.776c-3.408,5.331-8.408,7.987-15.011,7.987c-4.287,0-8.213-1.19-11.807-3.535
	c-3.584-2.362-6.367-5.664-8.34-9.883c-1.973-4.237-2.959-9.102-2.959-14.59c0-5.352,0.898-10.215,2.686-14.57
	c1.777-4.375,4.463-7.715,8.037-10.039c3.564-2.323,7.56-3.495,11.973-3.495c3.232,0,6.123,0.684,8.644,2.051
	c2.529,1.367,4.59,3.145,6.172,5.332v-26.582h9.043v74.102L420.649,661.59L420.649,661.59z M391.89,634.793
	c0,6.875,1.445,12.012,4.346,15.41c2.899,3.418,6.317,5.117,10.264,5.117c3.975,0,7.354-1.621,10.127-4.883
	c2.783-3.242,4.17-8.203,4.17-14.884c0-7.344-1.416-12.733-4.238-16.172c-2.832-3.438-6.317-5.156-10.469-5.156
	c-4.043,0-7.422,1.642-10.137,4.962C393.247,622.488,391.89,627.684,391.89,634.793L391.89,634.793z M443.442,597.957v-10.469h9.102
	v10.469H443.442z M443.442,661.59v-53.69h9.102v53.69H443.442z M501.567,661.59v-7.891c-4.181,6.074-9.854,9.102-17.031,9.102
	c-3.174,0-6.123-0.604-8.877-1.815c-2.744-1.211-4.785-2.734-6.113-4.591c-1.328-1.836-2.266-4.081-2.803-6.737
	c-0.371-1.777-0.558-4.609-0.558-8.496v-33.262h9.103v29.784c0,4.746,0.186,7.949,0.557,9.591c0.566,2.401,1.777,4.276,3.633,5.645
	c1.856,1.368,4.15,2.051,6.875,2.051c2.734,0,5.294-0.702,7.687-2.108c2.393-1.388,4.082-3.301,5.078-5.703
	s1.494-5.898,1.494-10.488V607.9h9.092v53.69L501.567,661.59L501.567,661.59z M523.96,661.59v-53.69h8.135v7.539
	c1.689-2.638,3.927-4.746,6.72-6.349c2.803-1.602,5.985-2.401,9.561-2.401c3.975,0,7.236,0.84,9.775,2.479
	c2.549,1.66,4.336,3.965,5.381,6.934c4.248-6.27,9.774-9.413,16.582-9.413c5.322,0,9.414,1.483,12.285,4.434
	c2.86,2.949,4.297,7.479,4.297,13.613v36.854h-9.054v-33.828c0-3.633-0.293-6.25-0.879-7.852c-0.596-1.603-1.659-2.891-3.213-3.867
	c-1.553-0.976-3.369-1.465-5.459-1.465c-3.77,0-6.903,1.25-9.403,3.77c-2.49,2.5-3.74,6.523-3.74,12.052v31.19h-9.092v-34.883
	c0-4.043-0.742-7.07-2.228-9.102c-1.483-2.013-3.906-3.027-7.274-3.027c-2.568,0-4.933,0.684-7.109,2.031
	c-2.168,1.348-3.74,3.301-4.728,5.897c-0.977,2.599-1.465,6.349-1.465,11.23v27.852L523.96,661.59L523.96,661.59z M93.579,847.43
	h-9.102v-57.987c-2.188,2.09-5.059,4.18-8.613,6.27c-3.554,2.09-6.748,3.672-9.58,4.707v-8.789c5.088-2.401,9.541-5.293,13.35-8.69
	c3.799-3.418,6.504-6.72,8.086-9.923h5.859V847.43L93.579,847.43z M118.247,830.281l8.74-0.801c0.742,4.12,2.158,7.09,4.248,8.944
	c2.09,1.855,4.766,2.773,8.037,2.773c2.793,0,5.244-0.625,7.354-1.914c2.109-1.271,3.828-2.988,5.176-5.138
	c1.348-2.129,2.48-5.02,3.389-8.651c0.91-3.642,1.369-7.38,1.367-11.133c0-0.392-0.02-0.996-0.049-1.816
	c-1.826,2.892-4.307,5.254-7.461,7.051c-3.111,1.794-6.643,2.73-10.234,2.716c-6.133,0-11.318-2.228-15.566-6.681
	s-6.367-10.313-6.367-17.598c0-7.5,2.217-13.555,6.65-18.146c4.424-4.569,9.98-6.875,16.65-6.875c4.814,0,9.229,1.31,13.213,3.906
	c3.994,2.598,7.031,6.289,9.102,11.094c2.071,4.806,3.105,11.738,3.105,20.841c0,9.473-1.025,17.012-3.076,22.616
	c-2.061,5.625-5.117,9.884-9.18,12.813s-8.818,4.395-14.277,4.395c-5.791,0-10.527-1.602-14.199-4.823
	C121.196,840.652,118.989,836.121,118.247,830.281L118.247,830.281z M155.493,797.586c0-5.215-1.387-9.375-4.17-12.441
	c-2.773-3.065-6.123-4.59-10.029-4.59c-4.043,0-7.568,1.66-10.566,4.961c-2.998,3.302-4.502,7.578-4.502,12.832
	c0,4.707,1.426,8.556,4.277,11.504c2.842,2.949,6.357,4.414,10.537,4.414c4.209,0,7.676-1.465,10.391-4.414
	C154.136,806.902,155.493,802.82,155.493,797.586z M222.261,838.68v8.75h-48.975c-0.075-2.159,0.287-4.312,1.064-6.328
	c1.24-3.34,3.242-6.62,5.986-9.844c2.744-3.242,6.709-6.992,11.904-11.229c8.047-6.603,13.496-11.836,16.328-15.685
	c2.822-3.867,4.238-7.52,4.238-10.957c0-3.594-1.289-6.641-3.867-9.121c-2.578-2.479-5.938-3.711-10.078-3.711
	c-4.385,0-7.891,1.31-10.518,3.945c-2.627,2.617-3.955,6.271-3.994,10.918l-9.346-0.957c0.635-6.973,3.047-12.305,7.227-15.957
	c4.18-3.651,9.785-5.487,16.836-5.487c7.109,0,12.734,1.973,16.875,5.918c4.15,3.944,6.221,8.827,6.221,14.668
	c0,2.948-0.605,5.879-1.816,8.729c-1.221,2.871-3.232,5.879-6.045,9.063c-2.813,3.164-7.49,7.5-14.023,13.026
	c-5.459,4.59-8.965,7.695-10.518,9.336c-1.553,1.621-2.832,3.281-3.838,4.922H222.261L222.261,838.68z M237.134,847.43v-10.371
	h10.361v10.371H237.134L237.134,847.43z M308.599,838.68v8.75h-48.975c-0.075-2.159,0.287-4.312,1.064-6.328
	c1.24-3.34,3.242-6.62,5.986-9.844c2.744-3.242,6.709-6.992,11.904-11.229c8.047-6.603,13.496-11.836,16.328-15.685
	c2.822-3.867,4.238-7.52,4.238-10.957c0-3.594-1.289-6.641-3.867-9.121c-2.578-2.479-5.938-3.711-10.078-3.711
	c-4.385,0-7.891,1.31-10.518,3.945c-2.627,2.617-3.955,6.271-3.994,10.918l-9.346-0.957c0.635-6.973,3.047-12.305,7.227-15.957
	c4.18-3.651,9.785-5.487,16.836-5.487c7.109,0,12.734,1.973,16.875,5.918c4.15,3.944,6.221,8.827,6.221,14.668
	c0,2.948-0.605,5.879-1.816,8.729c-1.221,2.871-3.232,5.879-6.045,9.063c-2.813,3.164-7.49,7.5-14.023,13.026
	c-5.459,4.59-8.965,7.695-10.518,9.336c-1.553,1.621-2.832,3.281-3.838,4.922H308.599L308.599,838.68z M366.167,838.68v8.75h-48.975
	c-0.075-2.159,0.288-4.312,1.064-6.328c1.24-3.34,3.242-6.62,5.986-9.844c2.744-3.242,6.709-6.992,11.904-11.229
	c8.047-6.603,13.496-11.836,16.328-15.685c2.822-3.867,4.238-7.52,4.238-10.957c0-3.594-1.289-6.641-3.867-9.121
	c-2.578-2.479-5.938-3.711-10.078-3.711c-4.385,0-7.891,1.31-10.518,3.945c-2.627,2.617-3.955,6.271-3.994,10.918l-9.346-0.957
	c0.635-6.973,3.047-12.305,7.227-15.957c4.18-3.651,9.785-5.487,16.836-5.487c7.109,0,12.734,1.973,16.875,5.918
	c4.15,3.944,6.221,8.827,6.221,14.668c0,2.948-0.605,5.879-1.816,8.729c-1.221,2.871-3.232,5.879-6.045,9.063
	c-2.813,3.164-7.49,7.5-14.023,13.026c-5.459,4.59-8.965,7.695-10.518,9.336c-1.553,1.621-2.832,3.281-3.838,4.922H366.167
	L366.167,838.68z M372.329,449.094V264.202h37.334v184.893L372.329,449.094L372.329,449.094z M478.892,449.094h-35.438V315.159
	h32.92v19.043c5.635-8.994,10.703-14.922,15.195-17.783c4.502-2.861,9.608-4.287,15.321-4.287c8.076,0,15.851,2.228,23.341,6.681
	l-10.978,30.897c-5.967-3.856-11.522-5.801-16.649-5.801c-4.962,0-9.16,1.367-12.607,4.102c-3.447,2.735-6.162,7.677-8.135,14.824
	c-1.982,7.139-2.97,22.109-2.97,44.894V449.094L478.892,449.094z M858.843,108.303v7.588h-42.5c-0.067-1.904,0.244-3.73,0.918-5.479
	c1.084-2.9,2.813-5.752,5.195-8.555c2.383-2.813,5.83-6.055,10.332-9.746c6.992-5.732,11.709-10.264,14.17-13.613
	c2.451-3.35,3.682-6.514,3.682-9.502c0-3.125-1.112-5.771-3.35-7.92c-2.246-2.148-5.156-3.223-8.76-3.223
	c-3.8,0-6.836,1.143-9.121,3.428c-2.275,2.275-3.438,5.439-3.467,9.473l-8.115-0.84c0.557-6.045,2.646-10.664,6.279-13.838
	c3.622-3.174,8.485-4.756,14.6-4.756c6.172,0,11.055,1.709,14.658,5.127c3.594,3.428,5.391,7.666,5.391,12.725
	c0,2.578-0.526,5.107-1.572,7.588c-1.055,2.49-2.803,5.107-5.243,7.852c-2.441,2.754-6.505,6.523-12.179,11.318
	c-4.735,3.975-7.772,6.68-9.121,8.096c-1.348,1.416-2.461,2.842-3.34,4.277H858.843L858.843,108.303z M829.497,170.862
	c-3.271-1.201-5.703-2.91-7.285-5.137c-1.572-2.217-2.363-4.883-2.363-7.979c0-4.678,1.681-8.613,5.039-11.807
	c3.369-3.184,7.843-4.775,13.429-4.775c5.614,0,10.137,1.631,13.555,4.893c3.418,3.262,5.137,7.227,5.137,11.904
	c0,2.988-0.791,5.586-2.354,7.793c-1.563,2.207-3.937,3.906-7.129,5.107c3.955,1.289,6.952,3.359,9.014,6.23
	c2.07,2.861,3.096,6.289,3.096,10.264c0,5.498-1.942,10.117-5.83,13.857c-3.896,3.75-9.014,5.615-15.36,5.615
	c-6.339,0-11.455-1.875-15.353-5.635c-3.887-3.76-5.83-8.447-5.83-14.063c0-4.18,1.055-7.676,3.185-10.498
	C822.563,173.811,825.581,171.887,829.497,170.862z M825.376,187.18c0,2.256,0.527,4.434,1.602,6.533
	c1.064,2.109,2.656,3.74,4.757,4.893c2.081,1.146,4.421,1.741,6.797,1.729c3.778,0,6.895-1.211,9.346-3.633
	c2.461-2.432,3.691-5.518,3.691-9.258c0-3.799-1.271-6.943-3.8-9.434c-2.528-2.479-5.692-3.729-9.502-3.729
	c-3.711,0-6.787,1.229-9.229,3.691C826.597,180.422,825.376,183.499,825.376,187.18L825.376,187.18z M827.915,157.483
	c0,3.037,0.986,5.527,2.938,7.451c1.964,1.934,4.503,2.9,7.638,2.9c3.037,0,5.537-0.957,7.479-2.871
	c1.943-1.914,2.92-4.268,2.92-7.041c0-2.9-1.006-5.332-3.008-7.305c-2.002-1.973-4.502-2.959-7.479-2.959
	c-3.019,0-5.519,0.957-7.5,2.891C828.911,152.483,827.915,154.788,827.915,157.483L827.915,157.483z M797.114,295.569h-7.892
	v-50.313c-1.903,1.807-4.395,3.623-7.479,5.439c-3.086,1.807-5.859,3.174-8.312,4.072v-7.627c4.414-2.08,8.271-4.59,11.582-7.549
	c3.302-2.949,5.646-5.82,7.013-8.594h5.088V295.569L797.114,295.569z M829.487,260.696c-3.271-1.201-5.703-2.91-7.285-5.137
	c-1.572-2.217-2.363-4.883-2.363-7.979c0-4.678,1.68-8.613,5.039-11.807c3.369-3.184,7.842-4.775,13.428-4.775
	c5.615,0,10.138,1.631,13.556,4.893c3.418,3.262,5.137,7.227,5.137,11.904c0,2.988-0.791,5.586-2.354,7.793
	c-1.563,2.207-3.936,3.906-7.129,5.107c3.955,1.289,6.953,3.359,9.015,6.23c2.069,2.861,3.096,6.289,3.096,10.264
	c0,5.498-1.943,10.117-5.83,13.857c-3.896,3.75-9.014,5.615-15.361,5.615c-6.338,0-11.455-1.875-15.352-5.635
	c-3.887-3.76-5.83-8.447-5.83-14.063c0-4.18,1.055-7.676,3.184-10.498C822.554,263.645,825.571,261.721,829.487,260.696
	L829.487,260.696z M825.366,277.014c0,2.256,0.526,4.434,1.602,6.533c1.064,2.109,2.656,3.74,4.756,4.893
	c2.082,1.146,4.422,1.741,6.797,1.729c3.779,0,6.896-1.211,9.347-3.633c2.461-2.432,3.69-5.518,3.69-9.258
	c0-3.799-1.27-6.943-3.799-9.434c-2.529-2.48-5.692-3.73-9.502-3.73c-3.711,0-6.787,1.23-9.229,3.691
	C826.587,270.256,825.366,273.333,825.366,277.014L825.366,277.014z M827.905,247.317c0,3.037,0.985,5.527,2.938,7.451
	c1.963,1.934,4.502,2.9,7.638,2.9c3.036,0,5.536-0.957,7.479-2.871s2.92-4.268,2.92-7.041c0-2.9-1.006-5.332-3.008-7.305
	c-2.002-1.973-4.502-2.959-7.48-2.959c-3.018,0-5.518,0.957-7.5,2.891C828.901,242.317,827.905,244.622,827.905,247.317
	L827.905,247.317z M767.417,368.44l7.9-1.056c0.907,4.474,2.45,7.695,4.629,9.668c2.178,1.974,4.834,2.959,7.959,2.959
	c3.711,0,6.854-1.278,9.414-3.856c2.559-2.568,3.838-5.763,3.838-9.562c0-3.623-1.191-6.621-3.556-8.975
	c-2.372-2.354-5.381-3.525-9.043-3.525c-1.483,0-3.34,0.293-5.565,0.879l0.879-6.934c0.527,0.059,0.947,0.088,1.271,0.088
	c3.358,0,6.387-0.879,9.081-2.637c2.687-1.748,4.033-4.453,4.033-8.115c0-2.891-0.977-5.293-2.938-7.188
	c-1.953-1.904-4.492-2.853-7.588-2.853c-3.066,0-5.625,0.957-7.677,2.892c-2.051,1.934-3.358,4.823-3.944,8.69l-7.9-1.406
	c0.967-5.293,3.164-9.395,6.582-12.305s7.676-4.365,12.764-4.365c3.506,0,6.738,0.752,9.697,2.256
	c2.949,1.505,5.215,3.564,6.777,6.162c1.563,2.607,2.344,5.371,2.344,8.291c0,2.783-0.742,5.313-2.236,7.588
	c-1.494,2.285-3.701,4.103-6.621,5.439c3.799,0.879,6.758,2.705,8.857,5.469c2.109,2.765,3.164,6.222,3.164,10.371
	c0,5.615-2.051,10.371-6.144,14.277c-4.102,3.906-9.276,5.858-15.526,5.858c-5.646,0-10.332-1.68-14.063-5.049
	C770.073,378.147,767.944,373.792,767.417,368.44L767.417,368.44z M858.833,377.825v7.588h-42.5
	c-0.068-1.904,0.244-3.73,0.918-5.479c1.084-2.899,2.813-5.752,5.195-8.555c2.383-2.813,5.83-6.055,10.332-9.746
	c6.991-5.731,11.709-10.264,14.17-13.613c2.451-3.35,3.682-6.514,3.682-9.502c0-3.125-1.113-5.771-3.35-7.92
	c-2.246-2.147-5.156-3.223-8.761-3.223c-3.799,0-6.836,1.143-9.12,3.428c-2.275,2.275-3.438,5.439-3.468,9.474l-8.114-0.841
	c0.557-6.045,2.646-10.663,6.278-13.838c3.623-3.174,8.486-4.756,14.601-4.756c6.172,0,11.055,1.709,14.658,5.127
	c3.594,3.429,5.391,7.666,5.391,12.726c0,2.578-0.527,5.106-1.572,7.588c-1.055,2.49-2.803,5.106-5.244,7.852
	c-2.44,2.754-6.504,6.523-12.178,11.318c-4.736,3.975-7.772,6.68-9.121,8.096c-1.348,1.416-2.461,2.842-3.34,4.277H858.833z
	 M797.114,475.242h-7.892v-50.309c-1.903,1.808-4.395,3.623-7.479,5.439c-3.086,1.807-5.859,3.174-8.312,4.072v-7.627
	c4.414-2.08,8.271-4.591,11.582-7.55c3.302-2.948,5.646-5.819,7.013-8.594h5.088V475.242L797.114,475.242z M817.339,458.4
	l8.291-0.703c0.615,4.028,2.041,7.076,4.277,9.106c2.235,2.031,4.932,3.047,8.096,3.047c3.799,0,7.012-1.426,9.648-4.297
	c2.627-2.871,3.944-6.68,3.944-11.412c0-4.501-1.27-8.056-3.799-10.653c-2.529-2.607-5.84-3.906-9.932-3.906
	c-2.539,0-4.844,0.576-6.885,1.729c-2.052,1.162-3.662,2.656-4.824,4.503l-7.412-0.968l6.221-33.026h31.982v7.539h-25.664
	l-3.467,17.284c3.866-2.686,7.909-4.032,12.157-4.032c5.615,0,10.353,1.942,14.209,5.83c3.857,3.896,5.791,8.896,5.791,15
	c0,5.825-1.698,10.864-5.088,15.104c-4.121,5.195-9.756,7.793-16.885,7.793c-5.85,0-10.625-1.621-14.326-4.902
	C819.974,468.154,817.866,463.816,817.339,458.4L817.339,458.4z M858.843,557.508v7.578h-42.5c-0.067-1.895,0.244-3.729,0.918-5.469
	c1.084-2.91,2.813-5.762,5.195-8.555c2.383-2.813,5.83-6.056,10.332-9.746c6.992-5.742,11.709-10.273,14.17-13.613
	c2.451-3.359,3.682-6.523,3.682-9.512c0-3.125-1.112-5.763-3.35-7.91c-2.246-2.148-5.156-3.224-8.76-3.224
	c-3.799,0-6.836,1.134-9.121,3.418c-2.275,2.285-3.438,5.449-3.467,9.474l-8.115-0.84c0.557-6.035,2.646-10.664,6.279-13.828
	c3.623-3.185,8.485-4.767,14.6-4.767c6.172,0,11.055,1.72,14.658,5.138c3.594,3.418,5.391,7.655,5.391,12.715
	c0,2.578-0.526,5.117-1.572,7.598c-1.055,2.48-2.803,5.099-5.243,7.853c-2.441,2.754-6.505,6.522-12.179,11.309
	c-4.735,3.984-7.772,6.68-9.121,8.105c-1.348,1.405-2.461,2.831-3.34,4.276H858.843z"/>
</svg>
