<?xml version="1.0" encoding="utf-8"?>
<!-- Generator: Adobe Illustrator 16.0.3, SVG Export Plug-In . SVG Version: 6.00 Build 0)  -->
<!DOCTYPE svg PUBLIC "-//W3C//DTD SVG 1.1//EN" "http://www.w3.org/Graphics/SVG/1.1/DTD/svg11.dtd">
<svg version="1.1" id="Layer_1" xmlns="http://www.w3.org/2000/svg" xmlns:xlink="http://www.w3.org/1999/xlink" x="0px" y="0px"
	 width="900px" height="900px" viewBox="0 0 900 900" enable-background="new 0 0 900 900" xml:space="preserve">
<path d="M40.19,65.637V52.336h72.959v10.771c-7.178,7.637-14.287,17.783-21.338,30.439c-7.051,12.656-12.49,25.684-16.338,39.053
	c-2.764,9.434-4.531,19.766-5.303,30.986H55.952c0.146-8.867,1.895-19.58,5.225-32.139c3.33-12.559,8.105-24.658,14.336-36.328
	c6.23-11.65,12.852-21.484,19.873-29.482H40.19V65.637z M148.13,102.463c-5.742-2.1-10-5.098-12.764-8.994
	c-2.764-3.896-4.15-8.555-4.15-13.994c0-8.193,2.949-15.088,8.838-20.674c5.898-5.586,13.74-8.379,23.525-8.379
	c9.844,0,17.764,2.852,23.76,8.564c5.996,5.723,8.994,12.676,8.994,20.879c0,5.225-1.377,9.775-4.111,13.643
	c-2.744,3.867-6.914,6.855-12.5,8.955c6.924,2.256,12.188,5.898,15.801,10.918c3.613,5.029,5.42,11.025,5.42,17.988
	c0,9.639-3.408,17.734-10.225,24.297c-6.817,6.563-15.781,9.844-26.904,9.844s-20.098-3.291-26.914-9.883
	c-6.816-6.582-10.225-14.795-10.225-24.639c0-7.324,1.865-13.467,5.576-18.408C135.972,107.629,141.265,104.26,148.13,102.463
	L148.13,102.463z M140.903,131.067c0,3.945,0.938,7.764,2.803,11.455c1.875,3.691,4.648,6.543,8.34,8.574
	c3.691,2.021,7.666,3.037,11.924,3.037c6.611,0,12.07-2.129,16.367-6.387c4.307-4.248,6.465-9.658,6.465-16.221
	c0-6.66-2.217-12.168-6.65-16.523s-9.98-6.543-16.65-6.543c-6.504,0-11.904,2.158-16.182,6.465
	C143.042,119.231,140.903,124.612,140.903,131.067L140.903,131.067z M145.356,79.016c0,5.332,1.719,9.688,5.156,13.076
	c3.428,3.379,7.891,5.068,13.379,5.068c5.332,0,9.697-1.68,13.105-5.039c3.408-3.35,5.117-7.461,5.117-12.334
	c0-5.078-1.758-9.346-5.273-12.803c-3.506-3.457-7.881-5.186-13.105-5.186c-5.283,0-9.658,1.689-13.145,5.068
	C147.104,70.256,145.356,74.299,145.356,79.016L145.356,79.016z M254.868,662.488v-74.103h27.949c4.922,0,8.672,0.234,11.27,0.703
	c3.643,0.605,6.689,1.758,9.15,3.457c2.461,1.719,4.443,4.103,5.938,7.168c1.504,3.066,2.246,6.426,2.246,10.099
	c0,6.309-2.002,11.641-6.006,15.995c-4.014,4.375-11.26,6.543-21.738,6.543h-19.004v30.138H254.868L254.868,662.488z
	 M264.673,623.621h19.16c6.328,0,10.83-1.191,13.486-3.535c2.666-2.363,3.994-5.684,3.994-9.961c0-3.105-0.781-5.762-2.344-7.969
	c-1.572-2.207-3.633-3.672-6.191-4.375c-1.65-0.431-4.707-0.646-9.15-0.646h-18.955V623.621z M322.544,662.488v-74.103h9.102v74.103
	H322.544z M380.776,655.867c-3.379,2.852-6.621,4.883-9.736,6.055c-3.115,1.191-6.455,1.777-10.029,1.777
	c-5.898,0-10.43-1.445-13.594-4.316c-3.174-2.891-4.756-6.563-4.756-11.055c0-2.617,0.596-5.021,1.797-7.207
	c1.191-2.168,2.764-3.906,4.697-5.215c1.934-1.328,4.121-2.324,6.543-2.988c1.787-0.469,4.482-0.938,8.086-1.367
	c7.354-0.879,12.754-1.914,16.23-3.125c0.029-1.25,0.049-2.051,0.049-2.383c0-3.711-0.859-6.328-2.578-7.832
	c-2.324-2.051-5.781-3.086-10.361-3.086c-4.277,0-7.441,0.742-9.473,2.246c-2.041,1.504-3.555,4.16-4.531,7.969l-8.896-1.211
	c0.811-3.809,2.148-6.895,3.994-9.238c1.855-2.344,4.531-4.141,8.037-5.409c3.506-1.25,7.568-1.896,12.188-1.896
	c4.58,0,8.301,0.547,11.172,1.621c2.861,1.074,4.961,2.441,6.309,4.063c1.348,1.642,2.295,3.712,2.832,6.191
	c0.303,1.563,0.459,4.355,0.459,8.398v12.129c0,8.457,0.195,13.809,0.576,16.055c0.398,2.264,1.178,4.442,2.305,6.445h-9.502
	C381.646,660.594,381.04,658.387,380.776,655.867L380.776,655.867z M380.015,635.535c-3.301,1.348-8.262,2.5-14.863,3.438
	c-3.74,0.547-6.387,1.152-7.93,1.836c-1.553,0.664-2.754,1.66-3.594,2.949s-1.26,2.734-1.26,4.316c0,2.422,0.918,4.453,2.754,6.074
	c1.836,1.62,4.521,2.422,8.057,2.422c3.506,0,6.621-0.763,9.355-2.306c2.725-1.522,4.736-3.633,6.016-6.289
	c0.977-2.051,1.465-5.077,1.465-9.102V635.535L380.015,635.535z M423.179,654.344l1.31,8.047c-2.56,0.527-4.845,0.802-6.875,0.802
	c-3.301,0-5.859-0.527-7.676-1.563c-1.826-1.055-3.105-2.422-3.849-4.121c-0.743-1.698-1.104-5.293-1.104-10.742v-30.879h-6.681
	v-7.09h6.681v-13.281l9.043-5.469v18.75h9.149v7.09h-9.149v31.388c0,2.598,0.155,4.258,0.479,5c0.323,0.741,0.84,1.328,1.572,1.776
	c0.723,0.431,1.758,0.646,3.104,0.646C420.19,654.695,421.528,654.578,423.179,654.344L423.179,654.344z M432.124,598.855v-10.47
	h9.102v10.47H432.124z M432.124,662.488v-53.691h9.102v53.691H432.124z M455.073,662.488v-53.691h8.184v7.637
	c3.945-5.897,9.64-8.848,17.09-8.848c3.232,0,6.201,0.586,8.916,1.758c2.716,1.152,4.746,2.677,6.095,4.57
	c1.348,1.875,2.284,4.121,2.832,6.719c0.332,1.681,0.498,4.629,0.498,8.849v33.008h-9.093v-32.656c0-3.711-0.352-6.484-1.063-8.32
	c-0.703-1.836-1.963-3.301-3.76-4.395c-1.808-1.094-3.927-1.642-6.349-1.642c-3.877,0-7.217,1.23-10.029,3.691
	c-2.821,2.461-4.229,7.129-4.229,14.004v29.316H455.073z M547.827,662.488v-7.892c-4.18,6.074-9.854,9.103-17.031,9.103
	c-3.174,0-6.123-0.605-8.877-1.816c-2.744-1.211-4.785-2.733-6.113-4.59c-1.327-1.836-2.266-4.082-2.803-6.738
	c-0.371-1.776-0.557-4.608-0.557-8.496v-33.262h9.102v29.785c0,4.746,0.187,7.949,0.558,9.59c0.565,2.402,1.776,4.277,3.633,5.646
	c1.855,1.368,4.149,2.051,6.875,2.051c2.733,0,5.293-0.703,7.686-2.109c2.394-1.387,4.082-3.301,5.078-5.703
	c0.996-2.401,1.494-5.897,1.494-10.487v-28.771h9.092v53.691L547.827,662.488L547.827,662.488z M570.22,662.488v-53.691h8.136v7.539
	c1.688-2.637,3.926-4.746,6.719-6.348c2.803-1.603,5.986-2.402,9.561-2.402c3.976,0,7.236,0.84,9.775,2.48
	c2.549,1.659,4.336,3.965,5.381,6.934c4.248-6.27,9.775-9.414,16.582-9.414c5.322,0,9.414,1.484,12.285,4.435
	c2.861,2.948,4.297,7.479,4.297,13.612v36.855h-9.053V628.66c0-3.633-0.293-6.25-0.879-7.853c-0.597-1.602-1.66-2.891-3.214-3.866
	c-1.553-0.977-3.368-1.466-5.459-1.466c-3.77,0-6.903,1.25-9.403,3.771c-2.49,2.5-3.74,6.522-3.74,12.051v31.191h-9.092v-34.883
	c0-4.044-0.742-7.07-2.228-9.103c-1.483-2.012-3.905-3.027-7.274-3.027c-2.568,0-4.933,0.685-7.109,2.031
	c-2.168,1.349-3.74,3.301-4.727,5.898c-0.978,2.598-1.465,6.348-1.465,11.229v27.853L570.22,662.488L570.22,662.488z
	 M93.755,848.328h-9.102V790.34c-2.188,2.09-5.059,4.18-8.613,6.271c-3.554,2.09-6.748,3.672-9.58,4.707v-8.789
	c5.088-2.402,9.541-5.293,13.35-8.691c3.799-3.418,6.504-6.719,8.086-9.922h5.859V848.328L93.755,848.328z M118.423,831.18
	l8.74-0.801c0.742,4.121,2.158,7.09,4.248,8.945c2.09,1.854,4.766,2.772,8.037,2.772c2.793,0,5.244-0.625,7.354-1.914
	c2.109-1.27,3.828-2.987,5.176-5.137c1.348-2.129,2.48-5.02,3.389-8.652c0.909-3.641,1.368-7.38,1.367-11.133
	c0-0.391-0.02-0.996-0.049-1.815c-1.826,2.891-4.307,5.254-7.461,7.051c-3.111,1.794-6.643,2.73-10.234,2.715
	c-6.133,0-11.318-2.227-15.566-6.68s-6.367-10.313-6.367-17.599c0-7.5,2.217-13.555,6.65-18.145c4.424-4.57,9.98-6.875,16.65-6.875
	c4.814,0,9.229,1.309,13.213,3.906c3.994,2.598,7.031,6.289,9.102,11.094c2.071,4.805,3.105,11.738,3.105,20.84
	c0,9.474-1.025,17.012-3.076,22.617c-2.061,5.625-5.117,9.883-9.18,12.813c-4.063,2.931-8.818,4.396-14.277,4.396
	c-5.791,0-10.527-1.602-14.199-4.824C121.372,841.551,119.165,837.021,118.423,831.18L118.423,831.18z M155.669,798.484
	c0-5.216-1.387-9.375-4.17-12.441c-2.773-3.066-6.123-4.59-10.029-4.59c-4.043,0-7.568,1.66-10.566,4.961s-4.502,7.578-4.502,12.832
	c0,4.707,1.426,8.555,4.277,11.504c2.842,2.949,6.357,4.414,10.537,4.414c4.209,0,7.676-1.465,10.391-4.414
	C154.312,807.801,155.669,803.719,155.669,798.484z M174.624,828.914l9.551-0.801c0.713,4.647,2.354,8.145,4.932,10.487
	c2.578,2.344,5.684,3.496,9.326,3.496c4.375,0,8.086-1.641,11.113-4.94c3.037-3.302,4.551-7.695,4.551-13.146
	c0-5.194-1.455-9.276-4.365-12.285c-2.92-2.987-6.738-4.491-11.455-4.491c-2.93,0-5.576,0.664-7.93,1.991
	c-2.363,1.328-4.219,3.066-5.566,5.177l-8.535-1.113l7.178-38.047h36.846v8.69H190.7l-3.994,19.902
	c4.443-3.086,9.111-4.648,14.004-4.648c6.465,0,11.924,2.246,16.377,6.738c4.443,4.474,6.67,10.234,6.67,17.285
	c0,6.699-1.953,12.5-5.869,17.383c-4.746,5.996-11.23,8.984-19.453,8.984c-6.738,0-12.246-1.875-16.504-5.646
	C177.661,840.145,175.229,835.145,174.624,828.914L174.624,828.914z M237.31,848.328v-10.371h10.361v10.371H237.31z
	 M260.962,811.785c0-8.771,0.898-15.82,2.705-21.152c1.797-5.352,4.482-9.473,8.037-12.362c3.555-2.891,8.027-4.355,13.418-4.355
	c3.975,0,7.461,0.801,10.459,2.402c2.998,1.601,5.479,3.905,7.432,6.934c1.953,3.008,3.486,6.68,4.6,11.017
	c1.114,4.336,1.67,10.176,1.67,17.52c0,8.691-0.889,15.703-2.676,21.055c-1.787,5.332-4.463,9.453-8.018,12.383
	c-3.555,2.91-8.047,4.355-13.467,4.355c-7.148,0-12.754-2.559-16.836-7.676C263.403,835.73,260.962,825.691,260.962,811.785z
	 M270.308,811.785c0,12.168,1.426,20.254,4.277,24.277c2.842,4.022,6.357,6.034,10.537,6.034c4.18,0,7.695-2.012,10.537-6.055
	c2.852-4.043,4.268-12.129,4.268-24.258c0-12.207-1.416-20.313-4.268-24.316c-2.842-4.004-6.396-6.016-10.635-6.016
	c-4.18,0-7.52,1.776-10.01,5.313C271.88,791.277,270.308,799.617,270.308,811.785L270.308,811.785z M332.534,808.133
	c-3.779-1.367-6.572-3.34-8.398-5.897c-1.816-2.578-2.725-5.646-2.725-9.199c0-5.391,1.934-9.922,5.811-13.613
	c3.877-3.672,9.033-5.508,15.469-5.508c6.465,0,11.68,1.896,15.615,5.646c3.945,3.75,5.918,8.34,5.918,13.729
	c0,3.438-0.898,6.426-2.705,8.965s-4.541,4.513-8.213,5.879c4.551,1.484,8.008,3.888,10.391,7.188
	c2.373,3.301,3.555,7.246,3.555,11.815c0,6.349-2.236,11.66-6.719,15.978c-4.483,4.316-10.381,6.465-17.686,6.465
	c-7.314,0-13.213-2.148-17.695-6.484s-6.719-9.727-6.719-16.211c0-4.805,1.221-8.848,3.662-12.09
	C324.536,811.531,328.013,809.324,332.534,808.133L332.534,808.133z M327.778,826.941c0,2.598,0.615,5.098,1.846,7.539
	c1.23,2.422,3.057,4.297,5.488,5.625c2.422,1.327,5.029,1.991,7.832,1.991c4.346,0,7.93-1.387,10.762-4.18
	c2.832-2.813,4.248-6.367,4.248-10.664c0-4.395-1.455-8.008-4.375-10.879c-2.91-2.852-6.563-4.297-10.938-4.297
	c-4.277,0-7.832,1.426-10.645,4.258S327.778,822.703,327.778,826.941L327.778,826.941z M330.708,792.723
	c0,3.517,1.133,6.367,3.389,8.595c2.256,2.227,5.186,3.34,8.799,3.34c3.506,0,6.377-1.113,8.613-3.32
	c2.246-2.207,3.359-4.901,3.359-8.104c0-3.341-1.152-6.134-3.457-8.418c-2.314-2.267-5.186-3.418-8.623-3.418
	c-3.467,0-6.348,1.112-8.643,3.34C331.86,786.961,330.708,789.617,330.708,792.723L330.708,792.723z M332.29,449.993V265.1h59.912
	c22.695,0,37.49,0.928,44.385,2.783c10.596,2.773,19.473,8.809,26.611,18.096c7.147,9.287,10.723,21.289,10.723,36.006
	c0,11.348-2.061,20.889-6.182,28.623c-4.121,7.743-9.355,13.817-15.703,18.231c-6.349,4.414-12.793,7.334-19.355,8.76
	c-8.916,1.769-21.815,2.646-38.721,2.646h-24.336v69.746L332.29,449.993L332.29,449.993z M369.624,296.379v52.471h20.43
	c14.717,0,24.551-0.967,29.512-2.899c4.961-1.934,8.848-4.961,11.67-9.082c2.813-4.121,4.219-8.916,4.219-14.375
	c0-6.729-1.973-12.275-5.928-16.65c-3.955-4.375-8.955-7.109-15.011-8.203c-4.452-0.84-13.407-1.26-26.854-1.26L369.624,296.379
	L369.624,296.379z M565.737,316.057v28.252h-24.22v53.976c0,10.928,0.234,17.305,0.693,19.111c0.459,1.806,1.514,3.301,3.154,4.473
	c1.641,1.182,3.633,1.768,5.986,1.768c3.28,0,8.036-1.133,14.258-3.407l3.026,27.5c-8.241,3.524-17.578,5.292-27.998,5.292
	c-6.396,0-12.147-1.074-17.284-3.213c-5.127-2.147-8.888-4.922-11.279-8.329c-2.402-3.398-4.063-8.009-4.98-13.81
	c-0.762-4.121-1.143-12.44-1.143-24.971v-58.39h-16.271v-28.252h16.271v-26.61l35.566-20.684v47.294H565.737L565.737,316.057z
	 M859.02,109.202v7.588h-42.5c-0.068-1.904,0.243-3.73,0.918-5.479c1.084-2.9,2.813-5.752,5.194-8.555
	c2.383-2.813,5.83-6.055,10.332-9.746c6.992-5.732,11.709-10.264,14.17-13.613c2.451-3.35,3.683-6.514,3.683-9.502
	c0-3.125-1.113-5.771-3.351-7.92c-2.246-2.148-5.155-3.223-8.76-3.223c-3.799,0-6.836,1.143-9.121,3.428
	c-2.274,2.275-3.438,5.439-3.467,9.473l-8.115-0.84c0.558-6.045,2.646-10.664,6.279-13.838c3.623-3.174,8.486-4.756,14.6-4.756
	c6.172,0,11.056,1.709,14.658,5.127c3.594,3.428,5.391,7.666,5.391,12.725c0,2.578-0.526,5.107-1.571,7.588
	c-1.056,2.49-2.804,5.107-5.244,7.852c-2.441,2.754-6.504,6.523-12.178,11.318c-4.736,3.975-7.773,6.68-9.121,8.096
	c-1.349,1.416-2.461,2.842-3.34,4.277H859.02z M829.673,171.76c-3.271-1.201-5.703-2.91-7.285-5.137
	c-1.571-2.217-2.362-4.883-2.362-7.979c0-4.678,1.68-8.613,5.039-11.807c3.369-3.184,7.842-4.775,13.428-4.775
	c5.615,0,10.137,1.631,13.555,4.893c3.418,3.262,5.137,7.227,5.137,11.904c0,2.988-0.791,5.586-2.354,7.793
	c-1.563,2.207-3.936,3.906-7.129,5.107c3.955,1.289,6.953,3.359,9.014,6.23c2.07,2.861,3.096,6.289,3.096,10.264
	c0,5.498-1.942,10.117-5.829,13.857c-3.896,3.75-9.015,5.615-15.361,5.615c-6.338,0-11.455-1.875-15.353-5.635
	c-3.887-3.76-5.83-8.447-5.83-14.063c0-4.18,1.056-7.676,3.185-10.498C822.739,174.709,825.757,172.786,829.673,171.76
	L829.673,171.76z M825.552,188.079c0,2.256,0.527,4.434,1.603,6.533c1.063,2.109,2.656,3.74,4.756,4.893
	c2.081,1.146,4.421,1.741,6.797,1.729c3.779,0,6.895-1.211,9.346-3.633c2.461-2.432,3.691-5.518,3.691-9.258
	c0-3.799-1.271-6.943-3.799-9.434c-2.529-2.48-5.693-3.73-9.502-3.73c-3.711,0-6.787,1.23-9.229,3.691
	C826.771,181.321,825.552,184.397,825.552,188.079L825.552,188.079z M828.091,158.381c0,3.037,0.986,5.527,2.939,7.451
	c1.963,1.934,4.502,2.9,7.637,2.9c3.037,0,5.537-0.957,7.48-2.871c1.942-1.914,2.92-4.268,2.92-7.041c0-2.9-1.006-5.332-3.009-7.305
	c-2.002-1.973-4.502-2.959-7.479-2.959c-3.018,0-5.518,0.957-7.5,2.891C829.087,153.381,828.091,155.686,828.091,158.381
	L828.091,158.381z M797.29,296.467h-7.891v-50.313c-1.904,1.807-4.396,3.623-7.48,5.439c-3.086,1.807-5.859,3.174-8.311,4.072
	v-7.627c4.414-2.08,8.271-4.59,11.582-7.549c3.301-2.949,5.645-5.82,7.012-8.594h5.088V296.467L797.29,296.467z M829.663,261.594
	c-3.271-1.201-5.703-2.91-7.285-5.137c-1.572-2.217-2.363-4.883-2.363-7.979c0-4.678,1.681-8.613,5.039-11.807
	c3.369-3.184,7.843-4.775,13.429-4.775c5.614,0,10.137,1.631,13.555,4.893c3.418,3.262,5.137,7.227,5.137,11.904
	c0,2.988-0.791,5.586-2.354,7.793c-1.563,2.207-3.937,3.906-7.129,5.107c3.955,1.289,6.952,3.359,9.014,6.23
	c2.07,2.861,3.096,6.289,3.096,10.264c0,5.498-1.942,10.117-5.83,13.857c-3.896,3.75-9.014,5.615-15.36,5.615
	c-6.339,0-11.455-1.875-15.353-5.635c-3.887-3.76-5.83-8.447-5.83-14.063c0-4.18,1.055-7.676,3.185-10.498
	C822.729,264.543,825.747,262.62,829.663,261.594L829.663,261.594z M825.542,277.913c0,2.256,0.527,4.434,1.602,6.533
	c1.064,2.109,2.656,3.74,4.757,4.893c2.081,1.146,4.421,1.741,6.797,1.729c3.778,0,6.895-1.211,9.346-3.633
	c2.461-2.432,3.691-5.518,3.691-9.258c0-3.799-1.271-6.943-3.8-9.434c-2.528-2.48-5.692-3.73-9.502-3.73
	c-3.711,0-6.787,1.23-9.229,3.691C826.763,271.155,825.542,274.231,825.542,277.913L825.542,277.913z M828.081,248.215
	c0,3.037,0.986,5.527,2.938,7.451c1.964,1.934,4.503,2.9,7.638,2.9c3.037,0,5.537-0.957,7.479-2.871
	c1.943-1.914,2.92-4.268,2.92-7.041c0-2.9-1.006-5.332-3.008-7.305s-4.502-2.959-7.479-2.959c-3.019,0-5.519,0.957-7.5,2.891
	C829.077,243.215,828.081,245.52,828.081,248.215L828.081,248.215z M767.593,369.338l7.9-1.055c0.908,4.473,2.451,7.695,4.629,9.668
	s4.834,2.959,7.959,2.959c3.711,0,6.854-1.279,9.414-3.857c2.559-2.567,3.838-5.762,3.838-9.561c0-3.623-1.19-6.621-3.555-8.976
	c-2.373-2.354-5.381-3.524-9.043-3.524c-1.484,0-3.341,0.293-5.566,0.879l0.879-6.934c0.527,0.059,0.947,0.088,1.271,0.088
	c3.358,0,6.387-0.879,9.082-2.638c2.686-1.748,4.033-4.452,4.033-8.114c0-2.892-0.978-5.293-2.939-7.188
	c-1.953-1.904-4.492-2.852-7.588-2.852c-3.066,0-5.625,0.957-7.676,2.891c-2.052,1.934-3.359,4.824-3.945,8.691l-7.9-1.406
	c0.967-5.293,3.164-9.396,6.582-12.305c3.418-2.91,7.676-4.365,12.764-4.365c3.507,0,6.738,0.752,9.697,2.256
	c2.949,1.504,5.215,3.564,6.777,6.162c1.563,2.606,2.344,5.371,2.344,8.291c0,2.783-0.742,5.313-2.236,7.588
	c-1.493,2.285-3.7,4.102-6.62,5.439c3.799,0.879,6.758,2.704,8.856,5.469c2.109,2.764,3.164,6.221,3.164,10.371
	c0,5.614-2.051,10.371-6.143,14.276c-4.103,3.906-9.277,5.859-15.527,5.859c-5.645,0-10.332-1.68-14.063-5.049
	C770.249,379.045,768.12,374.69,767.593,369.338L767.593,369.338z M859.009,378.723v7.588h-42.5
	c-0.067-1.903,0.244-3.729,0.918-5.479c1.084-2.9,2.813-5.752,5.195-8.555c2.383-2.813,5.83-6.056,10.332-9.746
	c6.992-5.732,11.709-10.265,14.17-13.613c2.451-3.35,3.682-6.514,3.682-9.502c0-3.125-1.112-5.771-3.35-7.92
	c-2.246-2.148-5.156-3.223-8.76-3.223c-3.799,0-6.836,1.143-9.121,3.428c-2.275,2.274-3.438,5.438-3.467,9.473l-8.115-0.84
	c0.557-6.045,2.646-10.664,6.279-13.838c3.623-3.174,8.485-4.756,14.6-4.756c6.172,0,11.055,1.709,14.658,5.127
	c3.594,3.428,5.391,7.666,5.391,12.725c0,2.578-0.526,5.107-1.572,7.588c-1.055,2.49-2.803,5.107-5.243,7.853
	c-2.441,2.754-6.505,6.522-12.179,11.317c-4.735,3.976-7.772,6.681-9.121,8.097c-1.348,1.416-2.461,2.842-3.34,4.276H859.009z
	 M797.29,476.141h-7.891v-50.308c-1.904,1.807-4.396,3.623-7.48,5.439c-3.086,1.807-5.858,3.174-8.311,4.071v-7.627
	c4.414-2.08,8.271-4.59,11.582-7.549c3.301-2.949,5.645-5.82,7.012-8.594h5.088V476.141L797.29,476.141z M818.042,420.256v-7.588
	h41.631v6.143c-4.102,4.355-8.153,10.146-12.178,17.373c-4.024,7.228-7.129,14.648-9.316,22.285
	c-1.582,5.388-2.588,11.267-3.026,17.672h-8.115c0.088-5.059,1.074-11.172,2.979-18.336c1.904-7.157,4.63-14.071,8.185-20.722
	s7.334-12.266,11.338-16.826L818.042,420.256L818.042,420.256z M847.261,565.984h-7.891v-50.313
	c-1.904,1.816-4.396,3.633-7.48,5.449c-3.086,1.797-5.858,3.164-8.311,4.063v-7.616c4.414-2.091,8.271-4.591,11.582-7.56
	c3.301-2.949,5.645-5.82,7.012-8.594h5.088V565.984L847.261,565.984z"/>
</svg>
