<?xml version="1.0" encoding="utf-8"?>
<!-- Generator: Adobe Illustrator 16.0.3, SVG Export Plug-In . SVG Version: 6.00 Build 0)  -->
<!DOCTYPE svg PUBLIC "-//W3C//DTD SVG 1.1//EN" "http://www.w3.org/Graphics/SVG/1.1/DTD/svg11.dtd">
<svg version="1.1" id="Layer_1" xmlns="http://www.w3.org/2000/svg" xmlns:xlink="http://www.w3.org/1999/xlink" x="0px" y="0px"
	 width="900px" height="900px" viewBox="0 0 900 900" enable-background="new 0 0 900 900" xml:space="preserve">
<path d="M40.195,65.637V52.336h72.959v10.771c-7.178,7.637-14.287,17.783-21.338,30.439c-7.051,12.656-12.49,25.684-16.338,39.053
	c-2.764,9.434-4.531,19.766-5.303,30.986H55.957c0.146-8.867,1.895-19.58,5.225-32.139s8.105-24.658,14.336-36.328
	c6.23-11.65,12.852-21.484,19.873-29.482H40.195V65.637z M128.916,137.522l13.301-1.23c1.123,6.26,3.271,10.791,6.455,13.613
	c3.174,2.813,7.256,4.229,12.227,4.229c4.248,0,7.979-0.977,11.182-2.92c3.203-1.953,5.83-4.551,7.881-7.813
	c2.051-3.252,3.77-7.646,5.156-13.184c1.378-5.532,2.073-11.212,2.07-16.914c0-0.615-0.029-1.533-0.078-2.764
	c-2.764,4.404-6.543,7.979-11.338,10.723c-4.795,2.744-9.98,4.111-15.566,4.111c-9.326,0-17.227-3.379-23.682-10.146
	s-9.688-15.684-9.688-26.748c0-11.436,3.369-20.635,10.107-27.607c6.738-6.963,15.186-10.449,25.332-10.449
	c7.334,0,14.033,1.973,20.107,5.918c6.074,3.945,10.684,9.57,13.838,16.875c3.154,7.305,4.727,17.871,4.727,31.709
	c0,14.404-1.563,25.869-4.688,34.404s-7.773,15.029-13.955,19.492c-6.172,4.463-13.418,6.689-21.719,6.689
	c-8.818,0-16.016-2.451-21.602-7.344S130.039,146.389,128.916,137.522L128.916,137.522z M185.576,87.786
	c0-7.949-2.119-14.248-6.348-18.916s-9.316-6.992-15.254-6.992c-6.152,0-11.514,2.51-16.074,7.529
	c-4.561,5.029-6.836,11.533-6.836,19.531c0,7.178,2.158,13.008,6.494,17.49c4.326,4.482,9.668,6.729,16.025,6.729
	c6.406,0,11.68-2.246,15.801-6.729C183.505,101.945,185.576,95.725,185.576,87.786z M380.928,633.426v-8.69l31.396-0.06v27.5
	c-4.824,3.828-9.795,6.719-14.912,8.672c-5.127,1.935-10.381,2.892-15.771,2.892c-7.275,0-13.896-1.543-19.844-4.668
	c-5.947-3.105-10.43-7.617-13.467-13.517c-3.037-5.898-4.551-12.479-4.551-19.766c0-7.207,1.514-13.945,4.521-20.195
	c3.018-6.25,7.354-10.897,13.018-13.926s12.188-4.551,19.561-4.551c5.361,0,10.205,0.879,14.531,2.598
	c4.336,1.738,7.725,4.16,10.186,7.266c2.461,3.106,4.336,7.148,5.615,12.13l-8.848,2.422c-1.113-3.771-2.49-6.738-4.15-8.888
	c-1.649-2.168-4.004-3.887-7.07-5.194c-3.066-1.289-6.475-1.935-10.215-1.935c-4.482,0-8.35,0.685-11.621,2.052
	c-3.271,1.348-5.908,3.145-7.91,5.37c-2.002,2.227-3.564,4.668-4.678,7.324c-1.885,4.59-2.832,9.57-2.832,14.922
	c0,6.603,1.143,12.129,3.418,16.582c2.275,4.435,5.586,7.754,9.932,9.902c4.346,2.147,8.965,3.242,13.848,3.242
	c4.248,0,8.389-0.82,12.432-2.461c4.042-1.642,7.109-3.379,9.199-5.234v-13.789H380.928L380.928,633.426z M422.227,635.652
	c0-9.941,2.765-17.306,8.291-22.09c4.609-3.984,10.244-5.978,16.886-5.978c7.373,0,13.407,2.422,18.086,7.266
	c4.688,4.824,7.03,11.505,7.03,20.039c0,6.896-1.034,12.345-3.104,16.289c-2.08,3.966-5.088,7.052-9.053,9.238
	c-3.955,2.188-8.281,3.281-12.959,3.281c-7.521,0-13.595-2.402-18.224-7.228C424.541,651.648,422.227,644.715,422.227,635.652
	L422.227,635.652z M431.572,635.652c0,6.875,1.504,12.012,4.502,15.43s6.777,5.137,11.328,5.137c4.512,0,8.271-1.719,11.27-5.155
	c2.999-3.438,4.492-8.673,4.492-15.724c0-6.641-1.504-11.66-4.521-15.078c-3.018-3.438-6.768-5.137-11.239-5.137
	c-4.552,0-8.33,1.699-11.328,5.098C433.076,623.641,431.572,628.777,431.572,635.652z M482.979,662.488v-74.103h9.103v74.103
	H482.979z M541.006,662.488v-6.777c-3.408,5.332-8.408,7.988-15.01,7.988c-4.287,0-8.213-1.191-11.807-3.535
	c-3.584-2.363-6.367-5.664-8.341-9.883c-1.973-4.238-2.959-9.103-2.959-14.59c0-5.353,0.898-10.216,2.687-14.57
	c1.777-4.375,4.463-7.715,8.037-10.039c3.563-2.324,7.559-3.496,11.973-3.496c3.232,0,6.123,0.685,8.644,2.051
	c2.528,1.367,4.59,3.146,6.172,5.332v-26.582h9.043v74.103L541.006,662.488L541.006,662.488z M512.246,635.691
	c0,6.875,1.445,12.012,4.346,15.409c2.9,3.419,6.318,5.117,10.265,5.117c3.975,0,7.354-1.621,10.127-4.883
	c2.782-3.242,4.17-8.203,4.17-14.883c0-7.344-1.416-12.734-4.238-16.172c-2.832-3.438-6.318-5.156-10.469-5.156
	c-4.043,0-7.422,1.641-10.138,4.961C513.604,623.387,512.246,628.582,512.246,635.691z M93.76,848.328h-9.102V790.34
	c-2.188,2.09-5.059,4.18-8.613,6.271c-3.554,2.09-6.748,3.672-9.58,4.707v-8.789c5.088-2.402,9.541-5.293,13.35-8.691
	c3.799-3.418,6.504-6.719,8.086-9.922h5.859V848.328L93.76,848.328z M118.428,831.18l8.74-0.801c0.742,4.121,2.158,7.09,4.248,8.945
	c2.09,1.854,4.766,2.772,8.037,2.772c2.793,0,5.244-0.625,7.354-1.914c2.109-1.27,3.828-2.987,5.176-5.137
	c1.348-2.129,2.48-5.02,3.389-8.652c0.909-3.641,1.369-7.38,1.367-11.133c0-0.391-0.02-0.996-0.049-1.815
	c-1.826,2.891-4.307,5.254-7.461,7.051c-3.111,1.794-6.643,2.73-10.234,2.715c-6.133,0-11.318-2.227-15.566-6.68
	s-6.367-10.313-6.367-17.599c0-7.5,2.217-13.555,6.65-18.145c4.424-4.57,9.98-6.875,16.65-6.875c4.814,0,9.229,1.309,13.213,3.906
	c3.994,2.598,7.031,6.289,9.102,11.094c2.071,4.805,3.105,11.738,3.105,20.84c0,9.474-1.025,17.012-3.076,22.617
	c-2.061,5.625-5.117,9.883-9.18,12.813c-4.063,2.931-8.818,4.396-14.277,4.396c-5.791,0-10.527-1.602-14.199-4.824
	C121.377,841.551,119.17,837.021,118.428,831.18L118.428,831.18z M155.674,798.484c0-5.216-1.387-9.375-4.17-12.441
	c-2.773-3.066-6.123-4.59-10.029-4.59c-4.043,0-7.568,1.66-10.566,4.961s-4.502,7.578-4.502,12.832
	c0,4.707,1.426,8.555,4.277,11.504c2.842,2.949,6.357,4.414,10.537,4.414c4.209,0,7.676-1.465,10.391-4.414
	C154.316,807.801,155.674,803.719,155.674,798.484z M221.836,792.371l-9.043,0.703c-0.811-3.574-1.953-6.172-3.438-7.773
	c-2.461-2.598-5.498-3.906-9.102-3.906c-2.9,0-5.439,0.82-7.627,2.441c-2.871,2.09-5.127,5.137-6.777,9.141s-2.51,9.728-2.578,17.13
	c2.188-3.341,4.873-5.802,8.037-7.423c3.164-1.62,6.484-2.422,9.961-2.422c6.064,0,11.221,2.228,15.488,6.699
	c4.258,4.453,6.396,10.234,6.396,17.305c0,4.648-1.006,8.966-3.008,12.97c-2.012,3.983-4.766,7.051-8.262,9.159
	c-3.506,2.13-7.49,3.185-11.934,3.185c-7.578,0-13.77-2.773-18.545-8.359c-4.795-5.565-7.178-14.766-7.178-27.578
	c0-14.315,2.637-24.727,7.93-31.229c4.619-5.664,10.83-8.496,18.652-8.496c5.83,0,10.605,1.641,14.326,4.902
	C218.867,782.098,221.094,786.609,221.836,792.371L221.836,792.371z M184.688,824.305c-0.008,3.112,0.672,6.187,1.992,9.004
	c1.338,2.871,3.193,5.06,5.586,6.544c2.393,1.504,4.902,2.245,7.529,2.245c3.848,0,7.148-1.543,9.912-4.647
	c2.764-3.086,4.141-7.305,4.141-12.637c0-5.117-1.357-9.142-4.092-12.091c-2.725-2.948-6.162-4.434-10.313-4.434
	c-4.111,0-7.598,1.484-10.459,4.434C186.123,815.673,184.688,819.539,184.688,824.305L184.688,824.305z M237.314,848.328v-10.371
	h10.361v10.371H237.314z M262.334,831.18l8.74-0.801c0.742,4.121,2.158,7.09,4.248,8.945c2.09,1.854,4.766,2.772,8.037,2.772
	c2.793,0,5.244-0.625,7.354-1.914c2.109-1.27,3.828-2.987,5.176-5.137c1.348-2.129,2.48-5.02,3.389-8.651
	c0.91-3.642,1.369-7.381,1.367-11.134c0-0.391-0.02-0.996-0.049-1.815c-1.826,2.891-4.307,5.254-7.461,7.051
	c-3.111,1.794-6.643,2.73-10.234,2.715c-6.133,0-11.318-2.227-15.566-6.68s-6.367-10.313-6.367-17.598
	c0-7.5,2.217-13.556,6.65-18.146c4.424-4.57,9.98-6.875,16.65-6.875c4.814,0,9.229,1.309,13.213,3.906
	c3.994,2.598,7.031,6.289,9.102,11.094c2.071,4.805,3.105,11.738,3.105,20.84c0,9.474-1.025,17.013-3.076,22.617
	c-2.061,5.625-5.117,9.883-9.18,12.813c-4.063,2.93-8.818,4.395-14.277,4.395c-5.791,0-10.527-1.602-14.199-4.824
	C265.283,841.551,263.076,837.021,262.334,831.18L262.334,831.18z M299.58,798.484c0-5.215-1.387-9.375-4.17-12.441
	c-2.773-3.065-6.123-4.59-10.029-4.59c-4.043,0-7.568,1.66-10.566,4.961s-4.502,7.578-4.502,12.832
	c0,4.707,1.426,8.555,4.277,11.504c2.842,2.949,6.357,4.414,10.537,4.414c4.209,0,7.676-1.465,10.391-4.414
	C298.223,807.801,299.58,803.719,299.58,798.484L299.58,798.484z M319.141,783.934v-8.75h47.969v7.07
	c-4.717,5.021-9.395,11.699-14.023,20.021c-4.639,8.319-8.213,16.895-10.742,25.684c-1.826,6.191-2.988,12.988-3.486,20.371h-9.355
	c0.098-5.84,1.25-12.871,3.438-21.133c2.188-8.263,5.332-16.211,9.424-23.888c4.102-7.655,8.447-14.12,13.066-19.375H319.141z
	 M456.016,449.993H415.41L399.268,408h-73.906l-15.264,41.992h-39.6L342.51,265.1h39.473L456.016,449.993L456.016,449.993z
	 M387.285,376.848l-25.479-68.612l-24.971,68.612H387.285z M563.721,449.993v-20.049c-4.883,7.139-11.289,12.772-19.237,16.895
	c-7.939,4.121-16.328,6.182-25.156,6.182c-9.004,0-17.07-1.974-24.219-5.928c-7.148-3.955-12.314-9.502-15.509-16.649
	c-3.203-7.14-4.795-17.021-4.795-29.64v-84.746h35.439V377.6c0,18.839,0.645,30.371,1.953,34.619
	c1.299,4.248,3.682,7.607,7.129,10.088c3.447,2.481,7.813,3.722,13.115,3.722c6.055,0,11.475-1.66,16.27-4.98
	s8.066-7.44,9.834-12.354c1.768-4.922,2.646-16.963,2.646-36.134v-56.504h35.438v133.937H563.721L563.721,449.993z M859.014,109.202
	v7.588h-42.5c-0.067-1.904,0.244-3.73,0.918-5.479c1.084-2.9,2.813-5.752,5.195-8.555c2.383-2.813,5.83-6.055,10.332-9.746
	c6.992-5.732,11.709-10.264,14.17-13.613c2.451-3.35,3.682-6.514,3.682-9.502c0-3.125-1.112-5.771-3.35-7.92
	c-2.246-2.148-5.156-3.223-8.76-3.223c-3.799,0-6.836,1.143-9.121,3.428c-2.275,2.275-3.438,5.439-3.467,9.473l-8.115-0.84
	c0.557-6.045,2.646-10.664,6.279-13.838c3.623-3.174,8.485-4.756,14.6-4.756c6.172,0,11.055,1.709,14.658,5.127
	c3.594,3.428,5.391,7.666,5.391,12.725c0,2.578-0.526,5.107-1.572,7.588c-1.055,2.49-2.803,5.107-5.243,7.852
	c-2.441,2.754-6.505,6.523-12.179,11.318c-4.735,3.975-7.772,6.68-9.121,8.096c-1.348,1.416-2.461,2.842-3.34,4.277H859.014z
	 M829.668,171.76c-3.271-1.201-5.703-2.91-7.285-5.137c-1.572-2.217-2.363-4.883-2.363-7.979c0-4.678,1.681-8.613,5.039-11.807
	c3.369-3.184,7.843-4.775,13.429-4.775c5.614,0,10.137,1.631,13.555,4.893s5.137,7.227,5.137,11.904
	c0,2.988-0.791,5.586-2.354,7.793c-1.563,2.207-3.937,3.906-7.129,5.107c3.955,1.289,6.952,3.359,9.014,6.23
	c2.07,2.861,3.096,6.289,3.096,10.264c0,5.498-1.942,10.117-5.83,13.857c-3.896,3.75-9.014,5.615-15.36,5.615
	c-6.338,0-11.455-1.875-15.353-5.635c-3.887-3.76-5.83-8.447-5.83-14.063c0-4.18,1.056-7.676,3.185-10.498
	C822.734,174.709,825.752,172.786,829.668,171.76z M825.547,188.079c0,2.256,0.527,4.434,1.602,6.533
	c1.064,2.109,2.656,3.74,4.757,4.893c2.081,1.146,4.421,1.741,6.797,1.729c3.778,0,6.895-1.211,9.346-3.633
	c2.461-2.432,3.691-5.518,3.691-9.258c0-3.799-1.271-6.943-3.8-9.434c-2.528-2.48-5.692-3.73-9.502-3.73
	c-3.711,0-6.787,1.23-9.229,3.691C826.768,181.321,825.547,184.397,825.547,188.079L825.547,188.079z M828.086,158.381
	c0,3.037,0.986,5.527,2.939,7.451c1.963,1.934,4.502,2.9,7.637,2.9c3.037,0,5.537-0.957,7.479-2.871
	c1.943-1.914,2.92-4.268,2.92-7.041c0-2.9-1.006-5.332-3.008-7.305s-4.502-2.959-7.479-2.959c-3.019,0-5.519,0.957-7.5,2.891
	C829.082,153.381,828.086,155.686,828.086,158.381L828.086,158.381z M797.285,296.467h-7.892v-50.313
	c-1.903,1.807-4.395,3.623-7.479,5.439c-3.086,1.807-5.859,3.174-8.312,4.072v-7.627c4.414-2.08,8.271-4.59,11.582-7.549
	c3.302-2.949,5.646-5.82,7.013-8.594h5.088V296.467L797.285,296.467z M829.658,261.594c-3.271-1.201-5.703-2.91-7.285-5.137
	c-1.572-2.217-2.363-4.883-2.363-7.979c0-4.678,1.68-8.613,5.039-11.807c3.369-3.184,7.842-4.775,13.428-4.775
	c5.615,0,10.138,1.631,13.556,4.893c3.418,3.262,5.137,7.227,5.137,11.904c0,2.988-0.791,5.586-2.354,7.793
	c-1.563,2.207-3.936,3.906-7.129,5.107c3.955,1.289,6.953,3.359,9.015,6.23c2.069,2.861,3.096,6.289,3.096,10.264
	c0,5.498-1.943,10.117-5.83,13.857c-3.896,3.75-9.014,5.615-15.361,5.615c-6.338,0-11.455-1.875-15.352-5.635
	c-3.887-3.76-5.83-8.447-5.83-14.063c0-4.18,1.055-7.676,3.184-10.498C822.725,264.543,825.742,262.62,829.658,261.594
	L829.658,261.594z M825.537,277.913c0,2.256,0.526,4.434,1.602,6.533c1.064,2.109,2.656,3.74,4.756,4.893
	c2.082,1.146,4.422,1.741,6.797,1.729c3.779,0,6.896-1.211,9.347-3.633c2.461-2.432,3.69-5.518,3.69-9.258
	c0-3.799-1.27-6.943-3.799-9.434c-2.529-2.48-5.692-3.73-9.502-3.73c-3.711,0-6.787,1.23-9.229,3.691
	C826.758,271.155,825.537,274.231,825.537,277.913L825.537,277.913z M828.076,248.215c0,3.037,0.985,5.527,2.938,7.451
	c1.963,1.934,4.502,2.9,7.638,2.9c3.037,0,5.537-0.957,7.479-2.871c1.943-1.914,2.92-4.268,2.92-7.041
	c0-2.9-1.006-5.332-3.008-7.305s-4.502-2.959-7.479-2.959c-3.019,0-5.519,0.957-7.5,2.891
	C829.072,243.215,828.076,245.52,828.076,248.215L828.076,248.215z M767.588,369.338l7.9-1.055c0.908,4.473,2.451,7.695,4.629,9.668
	s4.834,2.959,7.959,2.959c3.711,0,6.854-1.279,9.414-3.857c2.559-2.567,3.838-5.762,3.838-9.561c0-3.623-1.191-6.621-3.555-8.975
	c-2.373-2.354-5.382-3.525-9.043-3.525c-1.484,0-3.341,0.293-5.566,0.879l0.879-6.934c0.527,0.059,0.947,0.088,1.271,0.088
	c3.358,0,6.387-0.879,9.081-2.637c2.687-1.748,4.033-4.453,4.033-8.115c0-2.892-0.977-5.293-2.938-7.188
	c-1.953-1.903-4.492-2.852-7.588-2.852c-3.066,0-5.625,0.957-7.677,2.891c-2.051,1.935-3.358,4.824-3.944,8.691l-7.9-1.406
	c0.967-5.293,3.164-9.395,6.582-12.305s7.676-4.365,12.764-4.365c3.506,0,6.738,0.752,9.697,2.256
	c2.949,1.504,5.215,3.564,6.777,6.162c1.563,2.607,2.344,5.371,2.344,8.291c0,2.783-0.742,5.313-2.236,7.588
	c-1.494,2.285-3.701,4.103-6.621,5.439c3.8,0.879,6.759,2.705,8.857,5.469c2.109,2.764,3.164,6.221,3.164,10.371
	c0,5.615-2.051,10.371-6.144,14.276c-4.102,3.906-9.276,5.859-15.526,5.859c-5.646,0-10.332-1.68-14.063-5.049
	C770.244,379.045,768.115,374.69,767.588,369.338L767.588,369.338z M859.004,378.723v7.589h-42.5
	c-0.068-1.904,0.244-3.73,0.918-5.479c1.084-2.899,2.813-5.752,5.195-8.555c2.383-2.813,5.83-6.055,10.332-9.746
	c6.992-5.732,11.709-10.264,14.17-13.613c2.451-3.35,3.682-6.514,3.682-9.502c0-3.125-1.113-5.771-3.35-7.92
	c-2.246-2.148-5.156-3.223-8.76-3.223c-3.8,0-6.836,1.143-9.121,3.428c-2.275,2.275-3.438,5.439-3.467,9.473l-8.115-0.84
	c0.557-6.045,2.646-10.664,6.278-13.838c3.623-3.174,8.486-4.756,14.601-4.756c6.172,0,11.055,1.709,14.658,5.127
	c3.594,3.428,5.391,7.666,5.391,12.725c0,2.578-0.527,5.107-1.572,7.588c-1.055,2.49-2.803,5.107-5.244,7.853
	c-2.44,2.754-6.504,6.522-12.178,11.318c-4.736,3.975-7.772,6.68-9.121,8.096c-1.348,1.416-2.461,2.842-3.34,4.276H859.004
	L859.004,378.723z M829.668,441.272c-3.271-1.201-5.703-2.91-7.285-5.138c-1.572-2.217-2.363-4.883-2.363-7.979
	c0-4.678,1.681-8.613,5.039-11.807c3.369-3.185,7.843-4.775,13.429-4.775c5.614,0,10.137,1.631,13.555,4.893
	c3.418,3.263,5.137,7.228,5.137,11.904c0,2.988-0.791,5.586-2.354,7.793c-1.563,2.207-3.937,3.906-7.129,5.107
	c3.955,1.289,6.953,3.358,9.014,6.229c2.07,2.861,3.096,6.289,3.096,10.263c0,5.505-1.942,10.113-5.83,13.863
	c-3.896,3.75-9.014,5.605-15.36,5.605c-6.338,0-11.455-1.875-15.353-5.625c-3.887-3.771-5.83-8.457-5.83-14.068
	c0-4.18,1.056-7.675,3.185-10.498C822.734,444.221,825.752,442.297,829.668,441.272L829.668,441.272z M825.547,457.59
	c0,2.263,0.527,4.431,1.603,6.539c1.063,2.109,2.655,3.73,4.756,4.883c2.081,1.148,4.42,1.747,6.797,1.738
	c3.778,0,6.895-1.211,9.346-3.633c2.461-2.441,3.691-5.527,3.691-9.264c0-3.8-1.271-6.943-3.8-9.434
	c-2.528-2.479-5.692-3.729-9.502-3.729c-3.711,0-6.786,1.229-9.229,3.69C826.768,450.832,825.547,453.908,825.547,457.59
	L825.547,457.59z M828.086,427.894c0,3.036,0.986,5.526,2.939,7.45c1.963,1.935,4.502,2.9,7.637,2.9
	c3.037,0,5.537-0.957,7.479-2.871c1.943-1.914,2.921-4.268,2.921-7.041c0-2.899-1.007-5.332-3.009-7.305
	c-2.002-1.974-4.502-2.959-7.479-2.959c-3.019,0-5.519,0.957-7.5,2.891C829.082,422.894,828.086,425.198,828.086,427.894
	L828.086,427.894z M847.256,565.984h-7.891v-50.313c-1.904,1.816-4.396,3.633-7.48,5.449c-3.086,1.797-5.858,3.164-8.311,4.063
	v-7.617c4.414-2.09,8.271-4.59,11.582-7.56c3.301-2.948,5.645-5.819,7.012-8.594h5.088V565.984L847.256,565.984z"/>
</svg>
