<?xml version="1.0" encoding="utf-8"?>
<!-- Generator: Adobe Illustrator 16.0.3, SVG Export Plug-In . SVG Version: 6.00 Build 0)  -->
<!DOCTYPE svg PUBLIC "-//W3C//DTD SVG 1.1//EN" "http://www.w3.org/Graphics/SVG/1.1/DTD/svg11.dtd">
<svg version="1.1" id="Layer_1" xmlns="http://www.w3.org/2000/svg" xmlns:xlink="http://www.w3.org/1999/xlink" x="0px" y="0px"
	 width="900px" height="900px" viewBox="0 0 900 900" enable-background="new 0 0 900 900" xml:space="preserve">
<path d="M61.191,102.463c-5.742-2.104-10-5.103-12.764-8.999c-2.764-3.892-4.15-8.555-4.15-13.989
	c0-8.198,2.949-15.093,8.838-20.684c5.898-5.586,13.74-8.379,23.525-8.379c9.844,0,17.764,2.856,23.76,8.574
	c5.996,5.713,8.994,12.671,8.994,20.874c0,5.225-1.377,9.775-4.111,13.643c-2.744,3.872-6.914,6.855-12.5,8.96
	c6.924,2.256,12.188,5.894,15.801,10.913c3.613,5.024,5.42,11.021,5.42,17.993c0,9.634-3.408,17.734-10.225,24.292
	c-6.816,6.563-15.781,9.844-26.904,9.844s-20.098-3.296-26.914-9.883c-6.816-6.582-10.225-14.8-10.225-24.639
	c0-7.329,1.865-13.467,5.576-18.413C49.033,107.625,54.326,104.255,61.191,102.463z M53.965,131.062
	c0,3.945,0.938,7.764,2.803,11.455c1.875,3.691,4.648,6.548,8.34,8.569c3.691,2.026,7.666,3.037,11.924,3.037
	c6.611,0,12.07-2.124,16.367-6.377c4.307-4.258,6.465-9.663,6.465-16.226c0-6.66-2.217-12.173-6.65-16.528
	c-4.433-4.355-9.98-6.533-16.65-6.533c-6.504,0-11.904,2.153-16.182,6.455C56.104,119.221,53.965,124.602,53.965,131.062z
	 M58.418,79.011c0,5.332,1.719,9.688,5.156,13.071c3.428,3.384,7.891,5.073,13.379,5.073c5.332,0,9.697-1.675,13.105-5.034
	c3.408-3.354,5.117-7.471,5.117-12.339c0-5.073-1.758-9.341-5.273-12.803c-3.506-3.457-7.881-5.19-13.105-5.19
	c-5.283,0-9.658,1.694-13.145,5.078C60.166,70.247,58.418,74.299,58.418,79.011z M275.508,626.395
	c0-12.295,3.311-21.924,9.912-28.887s15.127-10.438,25.576-10.438c6.836,0,13.008,1.641,18.496,4.901
	c5.498,3.271,9.678,7.832,12.559,13.672c2.881,5.851,4.326,12.48,4.326,19.894c0,7.51-1.514,14.237-4.551,20.166
	c-3.027,5.938-7.324,10.42-12.891,13.477c-5.557,3.047-11.553,4.57-17.988,4.57c-6.982,0-13.213-1.68-18.701-5.06
	c-5.498-3.358-9.658-7.969-12.49-13.789C276.924,639.061,275.508,632.897,275.508,626.395L275.508,626.395z M285.625,626.541
	c0,8.936,2.393,15.977,7.197,21.113c4.804,5.136,10.83,7.694,18.066,7.694c7.383,0,13.457-2.588,18.223-7.772
	c4.775-5.195,7.158-12.56,7.158-22.09c0-6.035-1.025-11.3-3.057-15.802c-2.041-4.491-5.029-7.987-8.955-10.459
	c-3.926-2.471-8.33-3.721-13.213-3.721c-6.943,0-12.91,2.383-17.92,7.158C288.125,607.43,285.625,615.389,285.625,626.541
	L285.625,626.541z M351.787,662.479l19.609-27.891l-18.145-25.781h11.367l8.242,12.578c1.289,1.979,2.536,3.985,3.74,6.017
	c1.326-1.995,2.69-3.966,4.092-5.908l9.053-12.687h10.859l-18.545,25.273l19.96,28.397h-11.162l-11.025-16.68l-2.93-4.492
	l-14.102,21.172L351.787,662.479L351.787,662.479z M409.199,683.162l-1.006-8.555c1.981,0.547,3.721,0.819,5.205,0.819
	c2.021,0,3.643-0.342,4.854-1.016s2.207-1.621,2.979-2.832c0.576-0.908,1.505-3.164,2.783-6.777
	c0.166-0.498,0.439-1.239,0.812-2.217l-20.371-53.779h9.805l11.172,31.084c1.491,4.081,2.788,8.229,3.888,12.433
	c1.034-4.138,2.282-8.219,3.739-12.228l11.476-31.289h9.102l-20.42,54.591c-2.197,5.897-3.896,9.961-5.107,12.178
	c-1.62,2.998-3.467,5.205-5.557,6.592c-2.09,1.406-4.59,2.109-7.479,2.109C413.311,684.275,411.356,683.904,409.199,683.162
	L409.199,683.162z M459.697,666.932l8.848,1.31c0.371,2.733,1.396,4.727,3.076,5.977c2.266,1.681,5.342,2.521,9.258,2.521
	c4.209,0,7.461-0.84,9.756-2.521c2.285-1.699,3.838-4.053,4.648-7.09c0.469-1.846,0.684-5.742,0.653-11.67
	c-3.975,4.678-8.926,7.021-14.862,7.021c-7.373,0-13.086-2.655-17.129-7.987c-4.043-5.313-6.064-11.699-6.064-19.15
	c0-5.127,0.918-9.854,2.773-14.17c1.854-4.336,4.541-7.676,8.065-10.039c3.517-2.363,7.656-3.535,12.402-3.535
	c6.338,0,11.563,2.56,15.674,7.677v-6.466h8.389v46.396c0,8.358-0.85,14.287-2.549,17.764c-1.709,3.496-4.403,6.25-8.086,8.263
	c-3.69,2.03-8.231,3.047-13.623,3.047c-6.405,0-11.571-1.445-15.518-4.336C461.465,677.068,459.561,672.732,459.697,666.932
	L459.697,666.932z M467.227,634.686c0,7.041,1.396,12.179,4.199,15.41c2.793,3.242,6.299,4.863,10.508,4.863
	c4.181,0,7.687-1.621,10.519-4.834s4.248-8.262,4.248-15.137c0-6.572-1.465-11.523-4.375-14.863c-2.92-3.33-6.427-5-10.537-5
	c-4.043,0-7.48,1.641-10.313,4.932C468.643,623.338,467.227,628.221,467.227,634.686L467.227,634.686z M555.684,645.193l9.396,1.172
	c-1.484,5.487-4.229,9.746-8.232,12.783c-4.014,3.036-9.141,4.541-15.371,4.541c-7.852,0-14.071-2.412-18.672-7.246
	c-4.6-4.834-6.903-11.621-6.903-20.353c0-9.022,2.323-16.035,6.973-21.016c4.658-4.99,10.684-7.48,18.096-7.48
	c7.179,0,13.047,2.441,17.599,7.324c4.541,4.883,6.815,11.758,6.815,20.625c0,0.537-0.01,1.349-0.049,2.422h-40.029
	c0.332,5.898,2.002,10.41,5,13.556c2.998,3.125,6.738,4.688,11.222,4.688c3.34,0,6.182-0.869,8.545-2.617
	C552.432,651.834,554.297,649.041,555.684,645.193L555.684,645.193z M525.811,630.486h29.972c-0.41-4.513-1.554-7.9-3.438-10.156
	c-2.899-3.506-6.66-5.254-11.27-5.254c-4.181,0-7.695,1.396-10.537,4.188C527.686,622.068,526.113,625.799,525.811,630.486z
	 M576.514,662.479v-53.672h8.185v7.638c3.944-5.898,9.639-8.849,17.09-8.849c3.231,0,6.201,0.576,8.916,1.738
	s4.746,2.695,6.094,4.57c1.349,1.895,2.285,4.141,2.832,6.729c0.332,1.689,0.498,4.639,0.498,8.838v33.008h-9.092v-32.646
	c0-3.701-0.353-6.475-1.064-8.311c-0.703-1.837-1.963-3.302-3.76-4.404c-1.807-1.094-3.926-1.642-6.348-1.642
	c-3.877,0-7.218,1.23-10.029,3.691c-2.822,2.461-4.229,7.119-4.229,13.994v29.316H576.514L576.514,662.479z M94.385,848.328h-9.102
	V790.35c-2.188,2.091-5.059,4.181-8.613,6.271c-3.554,2.09-6.748,3.651-9.58,4.707v-8.799c5.088-2.394,9.541-5.293,13.35-8.701
	c3.799-3.398,6.504-6.699,8.086-9.902h5.859V848.328z M117.686,828.924l9.551-0.82c0.713,4.658,2.354,8.154,4.932,10.488
	c2.578,2.344,5.684,3.517,9.326,3.517c4.375,0,8.086-1.642,11.113-4.951c3.037-3.302,4.551-7.687,4.551-13.136
	c0-5.194-1.455-9.286-4.365-12.284c-2.92-3.009-6.738-4.502-11.455-4.502c-2.93,0-5.576,0.664-7.93,2.002
	c-2.363,1.328-4.219,3.047-5.566,5.176l-8.535-1.113l7.178-38.057h36.846v8.69h-29.57l-3.994,19.912
	c4.443-3.096,9.111-4.647,14.004-4.647c6.465,0,11.924,2.246,16.377,6.719c4.443,4.492,6.67,10.254,6.67,17.285
	c0,6.719-1.953,12.51-5.869,17.393c-4.746,6.006-11.23,8.994-19.453,8.994c-6.738,0-12.246-1.885-16.504-5.664
	C120.723,840.154,118.291,835.154,117.686,828.924z M180.361,848.328v-10.361h10.361v10.361H180.361z M205.381,831.189l8.74-0.802
	c0.742,4.103,2.158,7.091,4.248,8.945c2.09,1.854,4.766,2.773,8.037,2.773c2.793,0,5.244-0.636,7.354-1.914
	c2.109-1.289,3.828-2.988,5.176-5.138c1.348-2.129,2.48-5.02,3.389-8.672c0.909-3.634,1.368-7.366,1.367-11.113
	c0-0.409-0.02-1.016-0.049-1.815c-1.826,2.891-4.307,5.244-7.461,7.051c-3.145,1.797-6.563,2.695-10.234,2.695
	c-6.133,0-11.318-2.217-15.566-6.66c-4.248-4.453-6.367-10.313-6.367-17.598c0-7.511,2.217-13.556,6.65-18.146
	c4.424-4.58,9.98-6.875,16.65-6.875c4.814,0,9.229,1.299,13.213,3.896c3.994,2.588,7.031,6.289,9.102,11.094
	c2.07,4.795,3.105,11.748,3.105,20.85c0,9.474-1.025,17.013-3.076,22.617c-2.061,5.605-5.117,9.883-9.18,12.813
	c-4.063,2.93-8.818,4.395-14.277,4.395c-5.791,0-10.527-1.602-14.199-4.824C208.331,841.541,206.123,837.029,205.381,831.189
	L205.381,831.189z M242.627,798.494c0-5.225-1.387-9.375-4.17-12.441c-2.773-3.065-6.123-4.59-10.029-4.59
	c-4.043,0-7.568,1.641-10.566,4.941c-2.998,3.311-4.502,7.588-4.502,12.852c0,4.707,1.426,8.545,4.277,11.494
	c2.842,2.949,6.357,4.424,10.537,4.424c4.209,0,7.676-1.475,10.391-4.424C241.27,807.801,242.627,803.709,242.627,798.494z
	 M262.959,831.189l8.74-0.802c0.742,4.103,2.158,7.091,4.248,8.945c2.09,1.854,4.766,2.773,8.037,2.773
	c2.793,0,5.244-0.636,7.354-1.914c2.109-1.289,3.828-2.988,5.176-5.138c1.348-2.129,2.48-5.02,3.389-8.672
	c0.91-3.634,1.369-7.366,1.367-11.113c0-0.409-0.02-1.016-0.049-1.815c-1.826,2.891-4.307,5.244-7.461,7.051
	c-3.145,1.797-6.563,2.695-10.234,2.695c-6.133,0-11.318-2.217-15.566-6.66c-4.248-4.453-6.367-10.313-6.367-17.598
	c0-7.511,2.217-13.556,6.65-18.146c4.424-4.58,9.98-6.875,16.65-6.875c4.814,0,9.229,1.299,13.213,3.896
	c3.994,2.588,7.031,6.289,9.102,11.094c2.07,4.795,3.105,11.748,3.105,20.85c0,9.474-1.025,17.013-3.076,22.617
	c-2.061,5.605-5.117,9.883-9.18,12.813c-4.063,2.93-8.818,4.395-14.277,4.395c-5.791,0-10.527-1.602-14.199-4.824
	C265.909,841.541,263.701,837.029,262.959,831.189L262.959,831.189z M300.205,798.494c0-5.225-1.387-9.375-4.17-12.441
	c-2.773-3.065-6.123-4.59-10.029-4.59c-4.043,0-7.568,1.641-10.566,4.941c-2.998,3.311-4.502,7.588-4.502,12.852
	c0,4.707,1.426,8.545,4.277,11.494c2.842,2.949,6.357,4.424,10.537,4.424c4.209,0,7.676-1.475,10.391-4.424
	C298.848,807.801,300.205,803.709,300.205,798.494L300.205,798.494z M320.527,831.189l8.74-0.802
	c0.742,4.103,2.158,7.091,4.248,8.945c2.09,1.854,4.766,2.773,8.037,2.773c2.793,0,5.244-0.636,7.354-1.914
	c2.109-1.289,3.828-2.988,5.176-5.138c1.348-2.129,2.48-5.02,3.389-8.672c0.909-3.634,1.368-7.366,1.367-11.113
	c0-0.409-0.02-1.016-0.049-1.815c-1.826,2.891-4.307,5.244-7.461,7.051c-3.145,1.797-6.563,2.695-10.234,2.695
	c-6.133,0-11.318-2.217-15.566-6.66c-4.248-4.453-6.367-10.313-6.367-17.598c0-7.511,2.217-13.556,6.65-18.146
	c4.424-4.58,9.98-6.875,16.65-6.875c4.814,0,9.229,1.299,13.213,3.896c3.994,2.588,7.031,6.289,9.102,11.094
	c2.07,4.795,3.105,11.748,3.105,20.85c0,9.474-1.025,17.013-3.076,22.617c-2.061,5.605-5.117,9.883-9.18,12.813
	c-4.063,2.93-8.818,4.395-14.277,4.395c-5.791,0-10.527-1.602-14.199-4.824C323.477,841.541,321.27,837.029,320.527,831.189
	L320.527,831.189z M357.773,798.494c0-5.225-1.387-9.375-4.17-12.441c-2.773-3.065-6.123-4.59-10.029-4.59
	c-4.043,0-7.568,1.641-10.566,4.941c-2.998,3.311-4.502,7.588-4.502,12.852c0,4.707,1.426,8.545,4.277,11.494
	c2.842,2.949,6.357,4.424,10.537,4.424c4.209,0,7.676-1.475,10.391-4.424C356.416,807.801,357.773,803.709,357.773,798.494
	L357.773,798.494z M354.043,358.684c0-18.833,2.822-34.639,8.457-47.422c4.199-9.414,9.941-17.866,17.207-25.347
	c7.275-7.485,15.244-13.032,23.906-16.65c11.514-4.873,24.795-7.314,39.854-7.314c27.236,0,49.033,8.452,65.392,25.352
	c16.348,16.899,24.53,40.4,24.53,70.498c0,29.85-8.114,53.203-24.346,70.06c-16.23,16.859-37.92,25.288-65.078,25.288
	c-27.49,0-49.355-8.389-65.576-25.161C362.158,411.213,354.043,388.113,354.043,358.684L354.043,358.684z M392.51,357.424
	c0,20.934,4.834,36.808,14.502,47.607c9.668,10.806,21.953,16.206,36.826,16.206c14.883,0,27.1-5.361,36.641-16.079
	c9.541-10.724,14.316-26.802,14.316-48.242c0-21.188-4.648-36.992-13.936-47.417c-9.297-10.425-21.631-15.64-37.021-15.64
	c-15.381,0-27.783,5.278-37.197,15.825C397.217,320.242,392.51,336.15,392.51,357.424L392.51,357.424z M859.648,109.187v7.588h-42.5
	c-0.07-1.871,0.242-3.737,0.918-5.483c1.084-2.896,2.813-5.747,5.194-8.555c2.382-2.808,5.83-6.055,10.332-9.736
	c6.992-5.732,11.709-10.273,14.17-13.623c2.451-3.35,3.683-6.514,3.683-9.497c0-3.13-1.113-5.767-3.351-7.915
	c-2.246-2.153-5.155-3.228-8.76-3.228c-3.799,0-6.836,1.143-9.121,3.423c-2.274,2.28-3.438,5.439-3.467,9.478l-8.115-0.835
	c0.558-6.055,2.646-10.669,6.279-13.843c3.623-3.169,8.486-4.756,14.6-4.756c6.172,0,11.056,1.709,14.658,5.132
	c3.594,3.423,5.392,7.661,5.392,12.72c0,2.573-0.527,5.103-1.572,7.588c-1.056,2.485-2.803,5.107-5.244,7.852
	c-2.441,2.749-6.504,6.523-12.178,11.318c-4.736,3.979-7.773,6.675-9.121,8.096c-1.349,1.416-2.461,2.842-3.34,4.277
	L859.648,109.187L859.648,109.187z M859.121,158.054l-7.852,0.615c-0.703-3.101-1.689-5.352-2.979-6.758
	c-2.139-2.251-4.766-3.379-7.9-3.379c-2.51,0-4.717,0.703-6.62,2.109c-2.49,1.812-4.443,4.458-5.88,7.939
	c-1.436,3.477-2.178,8.438-2.235,14.868c1.903-2.896,4.229-5.044,6.973-6.445c2.754-1.406,5.635-2.109,8.643-2.109
	c5.265,0,9.746,1.938,13.447,5.815c3.701,3.872,5.547,8.882,5.547,15.024c0,4.033-0.869,7.783-2.606,11.25
	c-1.738,3.467-4.131,6.118-7.178,7.964c-3.037,1.841-6.484,2.764-10.353,2.764c-6.582,0-11.943-2.422-16.094-7.261
	c-4.16-4.839-6.23-12.817-6.23-23.931c0-12.427,2.295-21.465,6.886-27.109c4.004-4.912,9.403-7.368,16.19-7.368
	c5.06,0,9.199,1.416,12.433,4.253C856.544,149.132,858.478,153.054,859.121,158.054L859.121,158.054z M826.885,185.779
	c0,2.72,0.576,5.322,1.729,7.808c1.152,2.486,2.772,4.38,4.854,5.679c2.07,1.304,4.248,1.953,6.533,1.953
	c3.33,0,6.201-1.343,8.594-4.038c2.402-2.69,3.604-6.343,3.604-10.967c0-4.443-1.191-7.944-3.555-10.503
	c-2.373-2.559-5.353-3.838-8.955-3.838c-3.564,0-6.593,1.279-9.072,3.838C828.125,178.269,826.885,181.624,826.885,185.779z"/>
</svg>
