<?xml version="1.0" encoding="utf-8"?>
<!-- Generator: Adobe Illustrator 16.0.3, SVG Export Plug-In . SVG Version: 6.00 Build 0)  -->
<!DOCTYPE svg PUBLIC "-//W3C//DTD SVG 1.1//EN" "http://www.w3.org/Graphics/SVG/1.1/DTD/svg11.dtd">
<svg version="1.1" id="Layer_1" xmlns="http://www.w3.org/2000/svg" xmlns:xlink="http://www.w3.org/1999/xlink" x="0px" y="0px"
	 width="900px" height="900px" viewBox="0 0 900 900" enable-background="new 0 0 900 900" xml:space="preserve">
<path d="M61.108,102.463c-5.742-2.1-10-5.098-12.764-8.994c-2.764-3.896-4.15-8.555-4.15-13.994c0-8.193,2.949-15.088,8.838-20.674
	c5.898-5.586,13.74-8.379,23.525-8.379c9.844,0,17.764,2.852,23.76,8.564c5.996,5.723,8.994,12.676,8.994,20.879
	c0,5.225-1.377,9.775-4.111,13.643c-2.744,3.867-6.914,6.855-12.5,8.955c6.924,2.256,12.188,5.898,15.801,10.918
	c3.613,5.029,5.42,11.025,5.42,17.988c0,9.639-3.408,17.734-10.225,24.297c-6.817,6.563-15.781,9.844-26.904,9.844
	s-20.098-3.291-26.914-9.883c-6.816-6.582-10.225-14.795-10.225-24.639c0-7.324,1.865-13.467,5.576-18.408
	C48.95,107.629,54.243,104.26,61.108,102.463L61.108,102.463z M53.882,131.067c0,3.945,0.938,7.764,2.803,11.455
	c1.875,3.691,4.648,6.543,8.34,8.574c3.691,2.021,7.666,3.037,11.924,3.037c6.611,0,12.07-2.129,16.367-6.387
	c4.307-4.248,6.465-9.658,6.465-16.221c0-6.66-2.217-12.168-6.65-16.523c-4.433-4.355-9.98-6.543-16.65-6.543
	c-6.504,0-11.904,2.158-16.182,6.465C56.021,119.231,53.882,124.612,53.882,131.067z M58.335,79.016
	c0,5.332,1.719,9.688,5.156,13.076c3.428,3.379,7.891,5.068,13.379,5.068c5.332,0,9.697-1.68,13.105-5.039
	c3.408-3.35,5.117-7.461,5.117-12.334c0-5.078-1.758-9.346-5.273-12.803c-3.506-3.457-7.881-5.186-13.105-5.186
	c-5.283,0-9.658,1.689-13.145,5.068C60.083,70.256,58.335,74.299,58.335,79.016z M127.378,108c0-13.32,1.377-24.053,4.111-32.178
	c2.744-8.115,6.816-14.385,12.227-18.789c5.41-4.414,12.207-6.611,20.41-6.611c6.045,0,11.357,1.211,15.918,3.652
	c4.561,2.432,8.33,5.938,11.299,10.527c2.969,4.589,5.303,10.176,7.002,16.758c1.689,6.592,2.529,15.469,2.529,26.641
	c0,13.223-1.357,23.896-4.072,32.021c-2.715,8.125-6.777,14.404-12.188,18.838c-5.4,4.434-12.236,6.65-20.488,6.65
	c-10.859,0-19.395-3.896-25.596-11.689C131.099,144.446,127.378,129.172,127.378,108z M141.606,108
	c0,18.506,2.158,30.82,6.494,36.943c4.326,6.123,9.668,9.189,16.025,9.189s11.699-3.076,16.035-9.229
	c4.326-6.152,6.494-18.447,6.494-36.904c0-18.555-2.168-30.879-6.494-36.982c-4.336-6.094-9.727-9.141-16.182-9.141
	c-6.357,0-11.436,2.686-15.225,8.066C143.989,76.819,141.606,89.504,141.606,108L141.606,108z M268.833,662.488v-74.103h14.756
	l17.539,52.461c1.621,4.884,2.793,8.535,3.535,10.978c0.85-2.695,2.158-6.66,3.945-11.875l17.744-51.563h13.193v74.103h-9.453
	v-62.031l-21.533,62.031h-8.848l-21.426-63.086v63.086H268.833L268.833,662.488z M390.952,645.203l9.395,1.152
	c-1.483,5.487-4.229,9.766-8.231,12.793c-4.014,3.026-9.141,4.551-15.371,4.551c-7.852,0-14.072-2.422-18.672-7.267
	c-4.6-4.823-6.904-11.602-6.904-20.331c0-9.023,2.324-16.035,6.973-21.035c4.658-4.98,10.684-7.48,18.096-7.48
	c7.178,0,13.047,2.441,17.598,7.344c4.541,4.884,6.816,11.759,6.816,20.605c0,0.547-0.011,1.348-0.05,2.441h-40.028
	c0.332,5.897,2.002,10.409,5,13.534c2.998,3.146,6.738,4.707,11.221,4.707c3.34,0,6.182-0.879,8.545-2.637
	C387.7,651.844,389.565,649.031,390.952,645.203L390.952,645.203z M361.079,630.496h29.971c-0.41-4.531-1.553-7.91-3.438-10.176
	c-2.9-3.496-6.66-5.254-11.27-5.254c-4.18,0-7.695,1.405-10.537,4.198C362.954,622.059,361.382,625.809,361.079,630.496
	L361.079,630.496z M411.665,662.488v-53.691h8.193v8.146c2.09-3.81,4.014-6.31,5.78-7.539c1.777-1.211,3.722-1.816,5.84-1.816
	c3.066,0,6.183,0.978,9.355,2.931l-3.135,8.456c-2.228-1.327-4.453-1.973-6.67-1.973c-1.992,0-3.779,0.586-5.361,1.797
	c-1.582,1.191-2.715,2.853-3.389,4.961c-1.006,3.242-1.515,6.777-1.515,10.625v28.105L411.665,662.488L411.665,662.488z
	 M481.274,642.82l8.944,1.172c-0.977,6.152-3.485,10.977-7.51,14.473c-4.023,3.496-8.975,5.234-14.834,5.234
	c-7.344,0-13.252-2.402-17.715-7.207s-6.699-11.68-6.699-20.646c0-5.801,0.957-10.858,2.881-15.215
	c1.924-4.355,4.844-7.617,8.771-9.785c3.926-2.168,8.192-3.262,12.813-3.262c5.83,0,10.597,1.484,14.308,4.435
	c3.7,2.948,6.084,7.129,7.129,12.559l-8.849,1.367c-0.84-3.613-2.334-6.328-4.473-8.146c-2.139-1.816-4.727-2.733-7.764-2.733
	c-4.58,0-8.302,1.641-11.162,4.94c-2.871,3.281-4.297,8.478-4.297,15.586c0,7.207,1.377,12.461,4.141,15.724
	c2.764,3.262,6.367,4.901,10.82,4.901c3.563,0,6.553-1.094,8.944-3.28C479.115,650.75,480.63,647.371,481.274,642.82z
	 M533.179,662.488v-7.892c-4.18,6.074-9.854,9.103-17.03,9.103c-3.175,0-6.123-0.605-8.877-1.816
	c-2.744-1.211-4.785-2.733-6.113-4.59c-1.328-1.836-2.266-4.082-2.803-6.738c-0.371-1.776-0.558-4.608-0.558-8.496v-33.262h9.103
	v29.785c0,4.746,0.186,7.949,0.557,9.59c0.566,2.402,1.777,4.277,3.633,5.646c1.856,1.368,4.15,2.051,6.875,2.051
	c2.734,0,5.293-0.703,7.687-2.109c2.393-1.387,4.082-3.301,5.077-5.703c0.996-2.401,1.494-5.897,1.494-10.487v-28.771h9.093v53.691
	L533.179,662.488L533.179,662.488z M555.464,662.488v-53.691h8.193v8.146c2.09-3.81,4.014-6.31,5.781-7.539
	c1.776-1.211,3.721-1.816,5.84-1.816c3.065,0,6.182,0.978,9.354,2.931l-3.135,8.456c-2.227-1.327-4.453-1.973-6.67-1.973
	c-1.992,0-3.779,0.586-5.361,1.797c-1.582,1.191-2.715,2.853-3.389,4.961c-1.006,3.242-1.514,6.777-1.514,10.625v28.105
	L555.464,662.488L555.464,662.488z M589.634,683.152l-1.006-8.535c1.982,0.527,3.721,0.801,5.205,0.801
	c2.021,0,3.644-0.332,4.854-1.016c1.217-0.668,2.242-1.637,2.979-2.813c0.576-0.918,1.504-3.184,2.783-6.776
	c0.166-0.509,0.438-1.25,0.811-2.228l-20.371-53.789h9.806l11.172,31.095c1.491,4.083,2.788,8.234,3.887,12.44
	c1.036-4.144,2.284-8.23,3.74-12.246l11.475-31.289h9.103l-20.42,54.59c-2.197,5.898-3.896,9.962-5.107,12.188
	c-1.621,3.008-3.467,5.195-5.557,6.602c-2.09,1.388-4.59,2.091-7.48,2.091C593.745,684.267,591.792,683.896,589.634,683.152
	L589.634,683.152z M107.837,839.578v8.75H58.862c-0.074-2.159,0.288-4.312,1.064-6.328c1.24-3.34,3.242-6.621,5.986-9.844
	c2.744-3.242,6.709-6.992,11.904-11.23c8.047-6.602,13.496-11.836,16.328-15.684c2.822-3.867,4.238-7.521,4.238-10.957
	c0-3.594-1.289-6.641-3.867-9.121c-2.578-2.48-5.938-3.711-10.078-3.711c-4.385,0-7.891,1.309-10.518,3.945
	c-2.627,2.616-3.955,6.27-3.994,10.918l-9.346-0.957c0.635-6.974,3.047-12.306,7.227-15.957c4.18-3.652,9.785-5.488,16.836-5.488
	c7.109,0,12.734,1.973,16.875,5.918c4.15,3.945,6.221,8.828,6.221,14.668c0,2.949-0.605,5.879-1.816,8.73
	c-1.221,2.871-3.232,5.879-6.045,9.063c-2.813,3.164-7.49,7.5-14.023,13.027c-5.459,4.59-8.965,7.695-10.518,9.336
	c-1.553,1.621-2.832,3.281-3.838,4.922H107.837L107.837,839.578z M117.593,811.785c0-8.771,0.898-15.82,2.705-21.152
	c1.797-5.352,4.482-9.473,8.037-12.362c3.555-2.891,8.027-4.355,13.418-4.355c3.975,0,7.461,0.801,10.459,2.402
	c2.998,1.601,5.479,3.905,7.432,6.934c1.953,3.008,3.486,6.68,4.6,11.017c1.114,4.336,1.67,10.176,1.67,17.52
	c0,8.691-0.889,15.703-2.676,21.055c-1.787,5.332-4.463,9.453-8.018,12.383c-3.555,2.91-8.047,4.355-13.467,4.355
	c-7.148,0-12.754-2.559-16.836-7.676C120.034,835.73,117.593,825.691,117.593,811.785L117.593,811.785z M126.938,811.785
	c0,12.168,1.426,20.254,4.277,24.277c2.842,4.022,6.357,6.034,10.537,6.034s7.695-2.012,10.537-6.055
	c2.852-4.043,4.268-12.129,4.268-24.258c0-12.207-1.416-20.313-4.268-24.316c-2.842-4.004-6.396-6.016-10.635-6.016
	c-4.18,0-7.52,1.776-10.01,5.313C128.511,791.277,126.938,799.617,126.938,811.785L126.938,811.785z M175.161,811.785
	c0-8.771,0.898-15.82,2.705-21.152c1.797-5.352,4.482-9.473,8.037-12.362c3.555-2.891,8.027-4.355,13.418-4.355
	c3.975,0,7.461,0.801,10.459,2.402c2.998,1.601,5.479,3.905,7.432,6.934c1.953,3.008,3.486,6.68,4.6,11.017
	c1.114,4.336,1.67,10.176,1.67,17.52c0,8.691-0.889,15.703-2.676,21.055c-1.787,5.332-4.463,9.453-8.018,12.383
	c-3.555,2.91-8.047,4.355-13.467,4.355c-7.148,0-12.754-2.559-16.836-7.676C177.603,835.73,175.161,825.691,175.161,811.785z
	 M184.507,811.785c0,12.168,1.426,20.254,4.277,24.277c2.842,4.022,6.357,6.034,10.537,6.034c4.18,0,7.695-2.012,10.537-6.055
	c2.852-4.043,4.268-12.129,4.268-24.258c0-12.207-1.416-20.313-4.268-24.316c-2.842-4.004-6.396-6.016-10.635-6.016
	c-4.18,0-7.52,1.776-10.01,5.313C186.079,791.277,184.507,799.617,184.507,811.785L184.507,811.785z M237.847,848.328v-10.371
	h10.361v10.371H237.847z M261.499,828.914l9.551-0.801c0.713,4.647,2.354,8.145,4.932,10.487c2.578,2.344,5.684,3.496,9.326,3.496
	c4.375,0,8.086-1.641,11.113-4.94c3.037-3.302,4.551-7.695,4.551-13.146c0-5.194-1.455-9.276-4.365-12.285
	c-2.92-2.987-6.738-4.491-11.455-4.491c-2.93,0-5.576,0.664-7.93,1.991c-2.363,1.328-4.219,3.066-5.566,5.177l-8.535-1.113
	l7.178-38.047h36.846v8.69h-29.57l-3.994,19.902c4.443-3.086,9.111-4.648,14.004-4.648c6.465,0,11.924,2.246,16.377,6.738
	c4.443,4.474,6.67,10.234,6.67,17.285c0,6.699-1.953,12.5-5.869,17.383c-4.746,5.996-11.23,8.984-19.453,8.984
	c-6.738,0-12.246-1.875-16.504-5.646C264.536,840.145,262.104,835.145,261.499,828.914L261.499,828.914z M320.435,831.18l8.74-0.801
	c0.742,4.121,2.158,7.09,4.248,8.945c2.09,1.854,4.766,2.772,8.037,2.772c2.793,0,5.244-0.625,7.354-1.914
	c2.109-1.27,3.828-2.987,5.176-5.137c1.348-2.129,2.48-5.02,3.389-8.652c0.91-3.641,1.369-7.38,1.367-11.133
	c0-0.391-0.02-0.996-0.049-1.815c-1.826,2.891-4.307,5.254-7.461,7.051c-3.111,1.794-6.643,2.73-10.234,2.715
	c-6.133,0-11.318-2.227-15.566-6.68s-6.367-10.313-6.367-17.599c0-7.5,2.217-13.555,6.65-18.145c4.424-4.57,9.98-6.875,16.65-6.875
	c4.814,0,9.229,1.309,13.213,3.906c3.994,2.598,7.031,6.289,9.102,11.094c2.071,4.805,3.105,11.738,3.105,20.84
	c0,9.474-1.025,17.012-3.076,22.617c-2.061,5.625-5.117,9.883-9.18,12.813c-4.063,2.931-8.818,4.396-14.277,4.396
	c-5.791,0-10.527-1.602-14.199-4.824C323.384,841.551,321.177,837.021,320.435,831.18L320.435,831.18z M357.681,798.484
	c0-5.216-1.387-9.375-4.17-12.441c-2.773-3.066-6.123-4.59-10.029-4.59c-4.043,0-7.568,1.66-10.566,4.961s-4.502,7.578-4.502,12.832
	c0,4.707,1.426,8.555,4.277,11.504c2.842,2.949,6.357,4.414,10.537,4.414c4.209,0,7.676-1.465,10.391-4.414
	C356.323,807.801,357.681,803.719,357.681,798.484L357.681,798.484z M289.956,449.993V265.1h37.334v72.773h73.145V265.1h37.334
	v184.893h-37.334v-80.84H327.29v80.84H289.956z M472.827,458.82l40.479,4.918c0.675,4.707,2.228,7.949,4.668,9.707
	c3.359,2.52,8.662,3.789,15.89,3.789c9.248,0,16.182-1.388,20.811-4.16c3.115-1.855,5.469-4.844,7.062-8.965
	c1.094-2.931,1.641-8.355,1.641-16.266v-19.541c-10.596,14.463-23.965,21.689-40.107,21.689c-17.987,0-32.235-7.607-42.754-22.832
	c-8.231-12.021-12.354-26.982-12.354-44.894c0-22.45,5.399-39.6,16.201-51.455c10.811-11.854,24.237-17.782,40.293-17.782
	c16.563,0,30.225,7.274,40.995,21.815v-18.789h33.164v120.187c0,15.81-1.299,27.632-3.905,35.444
	c-2.607,7.813-6.271,13.945-10.978,18.419c-4.707,4.452-10.996,7.93-18.848,10.469c-7.871,2.52-17.813,3.77-29.834,3.77
	c-22.695,0-38.799-3.887-48.301-11.66c-9.502-7.772-14.248-17.637-14.248-29.569C472.705,461.682,472.747,460.25,472.827,458.82
	L472.827,458.82z M504.479,380.247c0,14.209,2.754,24.619,8.262,31.221c5.508,6.603,12.295,9.894,20.371,9.894
	c8.651,0,15.967-3.379,21.942-10.146c5.967-6.768,8.955-16.797,8.955-30.078c0-13.877-2.86-24.17-8.574-30.897
	c-5.723-6.729-12.948-10.088-21.698-10.088c-8.486,0-15.488,3.301-20.996,9.893C507.231,356.643,504.479,366.711,504.479,380.247z
	 M859.556,109.202v7.588h-42.5c-0.067-1.904,0.244-3.73,0.918-5.479c1.084-2.9,2.813-5.752,5.195-8.555
	c2.383-2.813,5.83-6.055,10.332-9.746c6.992-5.732,11.709-10.264,14.17-13.613c2.451-3.35,3.683-6.514,3.683-9.502
	c0-3.125-1.113-5.771-3.351-7.92c-2.246-2.148-5.156-3.223-8.76-3.223c-3.799,0-6.836,1.143-9.121,3.428
	c-2.275,2.275-3.438,5.439-3.467,9.473l-8.115-0.84c0.557-6.045,2.646-10.664,6.279-13.838c3.623-3.174,8.485-4.756,14.6-4.756
	c6.172,0,11.055,1.709,14.658,5.127c3.594,3.428,5.391,7.666,5.391,12.725c0,2.578-0.526,5.107-1.571,7.588
	c-1.056,2.49-2.804,5.107-5.244,7.852c-2.441,2.754-6.504,6.523-12.179,11.318c-4.735,3.975-7.772,6.68-9.12,8.096
	c-1.349,1.416-2.461,2.842-3.341,4.277H859.556z M830.21,171.76c-3.271-1.201-5.703-2.91-7.285-5.137
	c-1.571-2.217-2.362-4.883-2.362-7.979c0-4.678,1.68-8.613,5.039-11.807c3.368-3.184,7.842-4.775,13.428-4.775
	c5.615,0,10.137,1.631,13.555,4.893c3.418,3.262,5.137,7.227,5.137,11.904c0,2.988-0.791,5.586-2.354,7.793
	c-1.563,2.207-3.937,3.906-7.129,5.107c3.955,1.289,6.953,3.359,9.014,6.23c2.07,2.861,3.096,6.289,3.096,10.264
	c0,5.498-1.942,10.117-5.83,13.857c-3.896,3.75-9.014,5.615-15.36,5.615c-6.338,0-11.455-1.875-15.353-5.635
	c-3.887-3.76-5.83-8.447-5.83-14.063c0-4.18,1.056-7.676,3.185-10.498C823.276,174.709,826.294,172.786,830.21,171.76z
	 M826.089,188.079c0,2.256,0.527,4.434,1.603,6.533c1.063,2.109,2.655,3.74,4.756,4.893c2.081,1.146,4.421,1.741,6.797,1.729
	c3.779,0,6.895-1.211,9.346-3.633c2.461-2.432,3.691-5.518,3.691-9.258c0-3.799-1.271-6.943-3.799-9.434
	c-2.529-2.48-5.693-3.73-9.502-3.73c-3.712,0-6.787,1.23-9.229,3.691C827.31,181.321,826.089,184.397,826.089,188.079
	L826.089,188.079z M828.628,158.381c0,3.037,0.986,5.527,2.939,7.451c1.963,1.934,4.502,2.9,7.637,2.9
	c3.037,0,5.537-0.957,7.479-2.871c1.943-1.914,2.921-4.268,2.921-7.041c0-2.9-1.007-5.332-3.009-7.305
	c-2.002-1.973-4.502-2.959-7.479-2.959c-3.019,0-5.519,0.957-7.5,2.891C829.624,153.381,828.628,155.686,828.628,158.381
	L828.628,158.381z M797.827,296.467h-7.892v-50.313c-1.903,1.807-4.395,3.623-7.479,5.439c-3.086,1.807-5.859,3.174-8.311,4.072
	v-7.627c4.413-2.08,8.271-4.59,11.581-7.549c3.302-2.949,5.646-5.82,7.013-8.594h5.088V296.467L797.827,296.467z M830.2,261.594
	c-3.271-1.201-5.703-2.91-7.285-5.137c-1.572-2.217-2.363-4.883-2.363-7.979c0-4.678,1.681-8.613,5.039-11.807
	c3.369-3.184,7.842-4.775,13.429-4.775c5.614,0,10.137,1.631,13.555,4.893c3.418,3.262,5.137,7.227,5.137,11.904
	c0,2.988-0.791,5.586-2.354,7.793c-1.563,2.207-3.937,3.906-7.129,5.107c3.954,1.289,6.952,3.359,9.014,6.23
	c2.07,2.861,3.096,6.289,3.096,10.264c0,5.498-1.943,10.117-5.83,13.857c-3.896,3.75-9.014,5.615-15.361,5.615
	c-6.338,0-11.454-1.875-15.352-5.635c-3.887-3.76-5.83-8.447-5.83-14.063c0-4.18,1.055-7.676,3.185-10.498
	C823.267,264.543,826.284,262.62,830.2,261.594L830.2,261.594z M826.079,277.913c0,2.256,0.527,4.434,1.602,6.533
	c1.064,2.109,2.656,3.74,4.757,4.893c2.081,1.146,4.421,1.741,6.797,1.729c3.778,0,6.895-1.211,9.346-3.633
	c2.461-2.432,3.691-5.518,3.691-9.258c0-3.799-1.271-6.943-3.8-9.434c-2.528-2.48-5.692-3.73-9.502-3.73
	c-3.711,0-6.787,1.23-9.229,3.691C827.3,271.155,826.079,274.231,826.079,277.913L826.079,277.913z M828.618,248.215
	c0,3.037,0.986,5.527,2.938,7.451c1.964,1.934,4.502,2.9,7.638,2.9c3.037,0,5.537-0.957,7.479-2.871
	c1.943-1.914,2.92-4.268,2.92-7.041c0-2.9-1.006-5.332-3.008-7.305s-4.502-2.959-7.479-2.959c-3.019,0-5.519,0.957-7.5,2.891
	C829.614,243.215,828.618,245.52,828.618,248.215L828.618,248.215z M768.13,369.338l7.9-1.055c0.908,4.473,2.451,7.695,4.629,9.668
	s4.834,2.959,7.959,2.959c3.711,0,6.854-1.279,9.414-3.857c2.559-2.567,3.838-5.762,3.838-9.561c0-3.623-1.191-6.621-3.555-8.976
	c-2.373-2.354-5.382-3.524-9.043-3.524c-1.484,0-3.341,0.293-5.566,0.879l0.879-6.934c0.527,0.059,0.947,0.088,1.271,0.088
	c3.358,0,6.387-0.879,9.082-2.638c2.686-1.748,4.032-4.452,4.032-8.114c0-2.892-0.977-5.293-2.938-7.188
	c-1.953-1.904-4.492-2.852-7.588-2.852c-3.066,0-5.625,0.957-7.677,2.891c-2.051,1.934-3.358,4.824-3.944,8.691l-7.9-1.406
	c0.967-5.293,3.164-9.396,6.582-12.305c3.418-2.91,7.676-4.365,12.764-4.365c3.506,0,6.738,0.752,9.697,2.256
	c2.949,1.504,5.215,3.564,6.777,6.162c1.563,2.606,2.344,5.371,2.344,8.291c0,2.783-0.742,5.313-2.236,7.588
	c-1.494,2.285-3.701,4.102-6.621,5.439c3.8,0.879,6.759,2.704,8.857,5.469c2.109,2.764,3.164,6.221,3.164,10.371
	c0,5.614-2.051,10.371-6.143,14.276c-4.103,3.906-9.277,5.859-15.527,5.859c-5.646,0-10.332-1.68-14.063-5.049
	C770.786,379.045,768.657,374.69,768.13,369.338L768.13,369.338z M859.546,378.723v7.588h-42.5
	c-0.067-1.903,0.244-3.729,0.918-5.479c1.084-2.9,2.813-5.752,5.195-8.555c2.383-2.813,5.83-6.056,10.332-9.746
	c6.992-5.732,11.709-10.265,14.17-13.613c2.451-3.35,3.682-6.514,3.682-9.502c0-3.125-1.112-5.771-3.35-7.92
	c-2.246-2.148-5.156-3.223-8.76-3.223c-3.8,0-6.836,1.143-9.121,3.428c-2.275,2.274-3.438,5.438-3.467,9.473l-8.115-0.84
	c0.557-6.045,2.646-10.664,6.278-13.838c3.623-3.174,8.486-4.756,14.601-4.756c6.172,0,11.055,1.709,14.658,5.127
	c3.594,3.428,5.391,7.666,5.391,12.725c0,2.578-0.527,5.107-1.572,7.588c-1.055,2.49-2.803,5.107-5.244,7.853
	c-2.44,2.754-6.504,6.522-12.178,11.317c-4.735,3.976-7.772,6.681-9.121,8.097c-1.348,1.416-2.461,2.842-3.34,4.276H859.546z
	 M830.21,441.272c-3.271-1.201-5.703-2.91-7.285-5.138c-1.571-2.217-2.362-4.883-2.362-7.979c0-4.678,1.68-8.613,5.039-11.808
	c3.368-3.184,7.842-4.774,13.428-4.774c5.615,0,10.137,1.631,13.555,4.893c3.418,3.263,5.137,7.228,5.137,11.904
	c0,2.988-0.791,5.586-2.354,7.793c-1.563,2.207-3.937,3.906-7.129,5.107c3.955,1.288,6.953,3.358,9.014,6.229
	c2.07,2.861,3.096,6.289,3.096,10.263c0,5.504-1.942,10.113-5.83,13.863c-3.896,3.75-9.014,5.605-15.36,5.605
	c-6.338,0-11.455-1.875-15.353-5.625c-3.887-3.771-5.83-8.457-5.83-14.068c0-4.18,1.056-7.675,3.185-10.498
	C823.276,444.221,826.294,442.297,830.21,441.272L830.21,441.272z M826.089,457.59c0,2.262,0.527,4.43,1.603,6.539
	c1.063,2.109,2.655,3.73,4.756,4.883c2.081,1.148,4.42,1.747,6.797,1.738c3.779,0,6.895-1.211,9.346-3.633
	c2.461-2.441,3.691-5.527,3.691-9.264c0-3.8-1.271-6.943-3.799-9.434c-2.529-2.479-5.693-3.729-9.502-3.729
	c-3.712,0-6.787,1.229-9.229,3.69C827.31,450.832,826.089,453.908,826.089,457.59L826.089,457.59z M828.628,427.893
	c0,3.037,0.986,5.527,2.939,7.451c1.963,1.935,4.502,2.9,7.637,2.9c3.037,0,5.537-0.957,7.479-2.871
	c1.943-1.914,2.921-4.268,2.921-7.041c0-2.9-1.007-5.332-3.009-7.305c-2.002-1.974-4.502-2.959-7.479-2.959
	c-3.019,0-5.519,0.957-7.5,2.891C829.624,422.893,828.628,425.198,828.628,427.893L828.628,427.893z M859.556,558.406v7.578h-42.5
	c-0.067-1.896,0.244-3.73,0.918-5.47c1.084-2.909,2.813-5.762,5.195-8.555c2.383-2.813,5.83-6.055,10.332-9.746
	c6.992-5.742,11.709-10.272,14.17-13.612c2.451-3.359,3.683-6.523,3.683-9.513c0-3.125-1.113-5.762-3.351-7.91
	c-2.246-2.147-5.156-3.223-8.76-3.223c-3.799,0-6.836,1.133-9.121,3.418c-2.275,2.285-3.438,5.449-3.467,9.473l-8.115-0.84
	c0.557-6.035,2.646-10.664,6.279-13.828c3.623-3.184,8.485-4.766,14.6-4.766c6.172,0,11.055,1.719,14.658,5.137
	c3.594,3.418,5.391,7.656,5.391,12.715c0,2.578-0.526,5.117-1.571,7.599c-1.056,2.479-2.804,5.098-5.244,7.852
	c-2.441,2.754-6.504,6.523-12.179,11.31c-4.735,3.983-7.772,6.68-9.12,8.104c-1.349,1.406-2.461,2.832-3.341,4.277H859.556z"/>
</svg>
