<?xml version="1.0" encoding="utf-8"?>
<!-- Generator: Adobe Illustrator 16.0.3, SVG Export Plug-In . SVG Version: 6.00 Build 0)  -->
<!DOCTYPE svg PUBLIC "-//W3C//DTD SVG 1.1//EN" "http://www.w3.org/Graphics/SVG/1.1/DTD/svg11.dtd">
<svg version="1.1" id="Layer_1" xmlns="http://www.w3.org/2000/svg" xmlns:xlink="http://www.w3.org/1999/xlink" x="0px" y="0px"
	 width="900px" height="900px" viewBox="0 0 900 900" enable-background="new 0 0 900 900" xml:space="preserve">
<path d="M61.108,102.463c-5.742-2.1-10-5.098-12.764-8.994c-2.764-3.896-4.15-8.555-4.15-13.994c0-8.193,2.949-15.088,8.838-20.674
	c5.898-5.586,13.74-8.379,23.525-8.379c9.844,0,17.764,2.852,23.76,8.564c5.996,5.723,8.994,12.676,8.994,20.879
	c0,5.225-1.377,9.775-4.111,13.643c-2.744,3.867-6.914,6.855-12.5,8.955c6.924,2.256,12.188,5.898,15.801,10.918
	c3.613,5.029,5.42,11.025,5.42,17.988c0,9.639-3.408,17.734-10.225,24.297c-6.817,6.563-15.781,9.844-26.904,9.844
	s-20.098-3.291-26.914-9.883c-6.816-6.582-10.225-14.795-10.225-24.639c0-7.324,1.865-13.467,5.576-18.408
	C48.95,107.629,54.243,104.26,61.108,102.463L61.108,102.463z M53.882,131.067c0,3.945,0.938,7.764,2.803,11.455
	c1.875,3.691,4.648,6.543,8.34,8.574c3.691,2.021,7.666,3.037,11.924,3.037c6.611,0,12.07-2.129,16.367-6.387
	c4.307-4.248,6.465-9.658,6.465-16.221c0-6.66-2.217-12.168-6.65-16.523c-4.433-4.355-9.98-6.543-16.65-6.543
	c-6.504,0-11.904,2.158-16.182,6.465C56.021,119.231,53.882,124.612,53.882,131.067z M58.335,79.016
	c0,5.332,1.719,9.688,5.156,13.076c3.428,3.379,7.891,5.068,13.379,5.068c5.332,0,9.697-1.68,13.105-5.039
	c3.408-3.35,5.117-7.461,5.117-12.334c0-5.078-1.758-9.346-5.273-12.803c-3.506-3.457-7.881-5.186-13.105-5.186
	c-5.283,0-9.658,1.689-13.145,5.068C60.083,70.256,58.335,74.299,58.335,79.016z M200.112,150.286v13.301H125.61
	c-0.106-3.278,0.441-6.545,1.611-9.609c1.904-5.078,4.932-10.068,9.111-14.99c4.179-4.922,10.215-10.615,18.105-17.07
	c12.256-10.049,20.527-17.998,24.834-23.867c4.307-5.869,6.455-11.416,6.455-16.65c0-5.479-1.953-10.107-5.879-13.877
	c-3.916-3.77-9.033-5.645-15.332-5.645c-6.67,0-12.002,1.992-15.996,5.996c-3.994,3.994-6.025,9.531-6.074,16.602l-14.219-1.455
	c0.967-10.615,4.639-18.701,10.996-24.258c6.348-5.566,14.883-8.34,25.596-8.34c10.811,0,19.375,2.998,25.684,8.994
	c6.299,5.996,9.453,13.428,9.453,22.295c0,4.512-0.928,8.945-2.773,13.301c-1.836,4.355-4.902,8.945-9.18,13.76
	c-4.287,4.814-11.396,11.426-21.338,19.834c-8.301,6.973-13.633,11.699-15.986,14.18c-2.363,2.49-4.307,4.99-5.85,7.5h55.284
	V150.286z M341.226,662.488v-74.103h9.805v65.353h36.494v8.75H341.226L341.226,662.488z M434.79,645.203l9.395,1.152
	c-1.483,5.487-4.229,9.766-8.231,12.793c-4.014,3.026-9.141,4.551-15.371,4.551c-7.852,0-14.072-2.422-18.672-7.266
	c-4.601-4.824-6.904-11.603-6.904-20.332c0-9.023,2.324-16.035,6.973-21.035c4.658-4.98,10.685-7.48,18.097-7.48
	c7.178,0,13.047,2.441,17.598,7.344c4.541,4.884,6.816,11.759,6.816,20.605c0,0.547-0.011,1.348-0.049,2.441h-40.029
	c0.332,5.897,2.002,10.409,5,13.534c2.998,3.146,6.738,4.707,11.221,4.707c3.34,0,6.183-0.879,8.545-2.637
	C431.538,651.844,433.403,649.031,434.79,645.203L434.79,645.203z M404.917,630.496h29.971c-0.409-4.531-1.553-7.91-3.438-10.176
	c-2.9-3.496-6.66-5.254-11.271-5.254c-4.18,0-7.694,1.405-10.537,4.198C406.792,622.059,405.22,625.809,404.917,630.496
	L404.917,630.496z M490.64,655.867c-3.379,2.852-6.62,4.883-9.735,6.055c-3.115,1.191-6.455,1.777-10.029,1.777
	c-5.898,0-10.43-1.445-13.594-4.316c-3.174-2.891-4.756-6.563-4.756-11.055c0-2.617,0.596-5.021,1.797-7.207
	c1.19-2.168,2.764-3.906,4.697-5.215c1.934-1.328,4.12-2.324,6.543-2.988c1.786-0.469,4.481-0.938,8.086-1.367
	c7.354-0.879,12.754-1.914,16.229-3.125c0.029-1.25,0.049-2.051,0.049-2.383c0-3.711-0.858-6.328-2.578-7.832
	c-2.323-2.051-5.78-3.086-10.36-3.086c-4.277,0-7.441,0.742-9.474,2.246c-2.041,1.504-3.555,4.16-4.53,7.969l-8.896-1.211
	c0.812-3.809,2.148-6.895,3.994-9.238c1.855-2.344,4.531-4.141,8.037-5.409c3.506-1.25,7.568-1.896,12.188-1.896
	c4.58,0,8.302,0.547,11.172,1.621c2.861,1.074,4.962,2.441,6.31,4.063c1.348,1.641,2.295,3.711,2.832,6.19
	c0.303,1.563,0.459,4.355,0.459,8.398v12.129c0,8.457,0.195,13.809,0.576,16.055c0.398,2.264,1.178,4.442,2.305,6.445h-9.502
	C491.509,660.594,490.903,658.387,490.64,655.867L490.64,655.867z M489.878,635.535c-3.301,1.348-8.262,2.5-14.863,3.438
	c-3.739,0.547-6.387,1.152-7.93,1.836c-1.553,0.664-2.754,1.66-3.594,2.949s-1.26,2.734-1.26,4.316c0,2.422,0.918,4.453,2.754,6.074
	c1.836,1.62,4.521,2.422,8.057,2.422c3.506,0,6.621-0.763,9.355-2.306c2.725-1.522,4.735-3.633,6.016-6.289
	c0.977-2.051,1.465-5.077,1.465-9.102V635.535L489.878,635.535z M548.013,662.488v-6.777c-3.407,5.332-8.407,7.988-15.01,7.988
	c-4.287,0-8.213-1.191-11.807-3.535c-3.584-2.363-6.367-5.664-8.341-9.883c-1.973-4.238-2.959-9.103-2.959-14.59
	c0-5.353,0.898-10.216,2.687-14.57c1.777-4.375,4.463-7.715,8.037-10.039c3.563-2.324,7.559-3.496,11.973-3.496
	c3.232,0,6.123,0.685,8.644,2.051c2.528,1.367,4.59,3.146,6.172,5.332v-26.582h9.043v74.103L548.013,662.488L548.013,662.488z
	 M519.253,635.691c0,6.875,1.445,12.012,4.346,15.409c2.9,3.419,6.318,5.117,10.265,5.117c3.975,0,7.354-1.621,10.127-4.883
	c2.783-3.242,4.17-8.203,4.17-14.883c0-7.344-1.416-12.734-4.238-16.172c-2.832-3.438-6.318-5.156-10.469-5.156
	c-4.043,0-7.422,1.641-10.137,4.961C520.61,623.387,519.253,628.582,519.253,635.691z M107.847,839.578v8.75H58.872
	c-0.075-2.159,0.287-4.312,1.064-6.328c1.24-3.34,3.242-6.621,5.986-9.844c2.744-3.242,6.709-6.992,11.904-11.23
	c8.047-6.602,13.496-11.836,16.328-15.684c2.822-3.867,4.238-7.521,4.238-10.957c0-3.594-1.289-6.641-3.867-9.121
	s-5.938-3.711-10.078-3.711c-4.385,0-7.891,1.309-10.518,3.945c-2.627,2.616-3.955,6.27-3.994,10.918l-9.346-0.957
	c0.635-6.974,3.047-12.306,7.227-15.957c4.18-3.652,9.785-5.488,16.836-5.488c7.109,0,12.734,1.973,16.875,5.918
	c4.15,3.945,6.221,8.828,6.221,14.668c0,2.949-0.605,5.879-1.816,8.73c-1.221,2.871-3.232,5.879-6.045,9.063
	c-2.813,3.164-7.49,7.5-14.023,13.027c-5.459,4.59-8.965,7.695-10.518,9.336c-1.553,1.621-2.832,3.281-3.838,4.922H107.847
	L107.847,839.578z M117.603,811.785c0-8.771,0.898-15.82,2.705-21.152c1.797-5.352,4.482-9.473,8.037-12.362
	c3.555-2.891,8.027-4.355,13.418-4.355c3.975,0,7.461,0.801,10.459,2.402c2.998,1.601,5.479,3.905,7.432,6.934
	c1.953,3.008,3.486,6.68,4.6,11.017c1.114,4.336,1.67,10.176,1.67,17.52c0,8.691-0.889,15.703-2.676,21.055
	c-1.787,5.332-4.463,9.453-8.018,12.383c-3.555,2.91-8.047,4.355-13.467,4.355c-7.148,0-12.754-2.559-16.836-7.676
	C120.044,835.73,117.603,825.691,117.603,811.785L117.603,811.785z M126.948,811.785c0,12.168,1.426,20.254,4.277,24.277
	c2.842,4.022,6.357,6.034,10.537,6.034c4.18,0,7.695-2.012,10.537-6.055c2.852-4.043,4.268-12.129,4.268-24.258
	c0-12.207-1.416-20.313-4.268-24.316c-2.842-4.004-6.396-6.016-10.635-6.016c-4.18,0-7.52,1.776-10.01,5.313
	C128.521,791.277,126.948,799.617,126.948,811.785z M175.776,783.934v-8.75h47.969v7.07c-4.717,5.021-9.395,11.699-14.023,20.021
	c-4.639,8.319-8.213,16.895-10.742,25.684c-1.826,6.191-2.988,12.988-3.486,20.371h-9.355c0.098-5.84,1.25-12.871,3.438-21.133
	c2.188-8.263,5.332-16.211,9.424-23.888c4.102-7.655,8.447-14.12,13.066-19.375H175.776z M237.856,848.328v-10.371h10.361v10.371
	H237.856z M309.321,839.578v8.75h-48.975c-0.075-2.159,0.287-4.312,1.064-6.328c1.24-3.34,3.242-6.621,5.986-9.844
	c2.744-3.242,6.709-6.992,11.904-11.23c8.047-6.602,13.496-11.836,16.328-15.684c2.822-3.867,4.238-7.521,4.238-10.957
	c0-3.594-1.289-6.641-3.867-9.121s-5.938-3.711-10.078-3.711c-4.385,0-7.891,1.309-10.518,3.945
	c-2.627,2.616-3.955,6.27-3.994,10.918l-9.346-0.957c0.635-6.974,3.047-12.306,7.227-15.957c4.18-3.652,9.785-5.488,16.836-5.488
	c7.109,0,12.734,1.973,16.875,5.918c4.15,3.945,6.221,8.828,6.221,14.668c0,2.949-0.605,5.879-1.816,8.73
	c-1.221,2.871-3.232,5.879-6.045,9.063c-2.813,3.164-7.49,7.5-14.023,13.027c-5.459,4.59-8.965,7.695-10.518,9.336
	c-1.553,1.621-2.832,3.281-3.838,4.922H309.321L309.321,839.578z M296.948,449.993V265.1h59.912c22.695,0,37.49,0.928,44.385,2.783
	c10.596,2.773,19.473,8.809,26.611,18.096c7.147,9.287,10.723,21.289,10.723,36.006c0,11.348-2.062,20.889-6.183,28.623
	c-4.12,7.743-9.354,13.817-15.702,18.231c-6.349,4.414-12.793,7.334-19.355,8.76c-8.916,1.769-21.816,2.646-38.721,2.646h-24.336
	v69.746L296.948,449.993L296.948,449.993z M334.282,296.379v52.471h20.43c14.717,0,24.551-0.967,29.512-2.899
	c4.961-1.934,8.848-4.961,11.67-9.082c2.813-4.121,4.219-8.916,4.219-14.375c0-6.729-1.974-12.275-5.928-16.65
	c-3.955-4.375-8.955-7.109-15.01-8.203c-4.453-0.84-13.408-1.26-26.855-1.26L334.282,296.379L334.282,296.379z M467.456,449.993
	V265.1h35.438v66.592c10.938-12.441,23.877-18.662,38.849-18.662c16.309,0,29.805,5.908,40.487,17.715
	c10.675,11.815,16.017,28.779,16.017,50.889c0,22.871-5.449,40.488-16.338,52.853c-10.89,12.354-24.111,18.535-39.658,18.535
	c-7.656,0-15.195-1.914-22.637-5.742c-7.441-3.818-13.857-9.474-19.238-16.963v19.678L467.456,449.993L467.456,449.993z
	 M502.651,380.12c0,13.877,2.178,24.141,6.553,30.781c6.133,9.414,14.297,14.121,24.473,14.121c7.813,0,14.474-3.341,19.98-10.029
	c5.508-6.68,8.262-17.217,8.262-31.592c0-15.304-2.772-26.338-8.32-33.105c-5.547-6.767-12.655-10.146-21.317-10.146
	c-8.486,0-15.547,3.301-21.183,9.893C505.464,356.643,502.651,366.672,502.651,380.12z M859.556,109.202v7.588h-42.5
	c-0.067-1.904,0.244-3.73,0.918-5.479c1.084-2.9,2.813-5.752,5.195-8.555c2.383-2.813,5.83-6.055,10.332-9.746
	c6.992-5.732,11.709-10.264,14.17-13.613c2.451-3.35,3.683-6.514,3.683-9.502c0-3.125-1.113-5.771-3.351-7.92
	c-2.246-2.148-5.156-3.223-8.76-3.223c-3.799,0-6.836,1.143-9.121,3.428c-2.275,2.275-3.438,5.439-3.467,9.473l-8.115-0.84
	c0.557-6.045,2.646-10.664,6.279-13.838c3.623-3.174,8.485-4.756,14.6-4.756c6.172,0,11.055,1.709,14.658,5.127
	c3.594,3.428,5.391,7.666,5.391,12.725c0,2.578-0.526,5.107-1.571,7.588c-1.056,2.49-2.804,5.107-5.244,7.852
	c-2.441,2.754-6.504,6.523-12.179,11.318c-4.735,3.975-7.772,6.68-9.12,8.096c-1.349,1.416-2.461,2.842-3.341,4.277H859.556z
	 M830.21,171.76c-3.271-1.201-5.703-2.91-7.285-5.137c-1.571-2.217-2.362-4.883-2.362-7.979c0-4.678,1.68-8.613,5.039-11.807
	c3.368-3.184,7.842-4.775,13.428-4.775c5.615,0,10.137,1.631,13.555,4.893c3.418,3.262,5.137,7.227,5.137,11.904
	c0,2.988-0.791,5.586-2.354,7.793c-1.563,2.207-3.937,3.906-7.129,5.107c3.955,1.289,6.953,3.359,9.014,6.23
	c2.07,2.861,3.096,6.289,3.096,10.264c0,5.498-1.942,10.117-5.83,13.857c-3.896,3.75-9.014,5.615-15.36,5.615
	c-6.338,0-11.455-1.875-15.353-5.635c-3.887-3.76-5.83-8.447-5.83-14.063c0-4.18,1.056-7.676,3.185-10.498
	C823.276,174.709,826.294,172.786,830.21,171.76z M826.089,188.079c0,2.256,0.527,4.434,1.603,6.533
	c1.063,2.109,2.655,3.74,4.756,4.893c2.081,1.146,4.421,1.741,6.797,1.729c3.779,0,6.895-1.211,9.346-3.633
	c2.461-2.432,3.691-5.518,3.691-9.258c0-3.799-1.271-6.943-3.799-9.434c-2.529-2.48-5.693-3.73-9.502-3.73
	c-3.712,0-6.787,1.23-9.229,3.691C827.31,181.321,826.089,184.397,826.089,188.079L826.089,188.079z M828.628,158.381
	c0,3.037,0.986,5.527,2.939,7.451c1.963,1.934,4.502,2.9,7.637,2.9c3.037,0,5.537-0.957,7.479-2.871
	c1.943-1.914,2.921-4.268,2.921-7.041c0-2.9-1.007-5.332-3.009-7.305c-2.002-1.973-4.502-2.959-7.479-2.959
	c-3.019,0-5.519,0.957-7.5,2.891C829.624,153.381,828.628,155.686,828.628,158.381L828.628,158.381z M797.827,296.467h-7.892
	v-50.313c-1.903,1.807-4.395,3.623-7.479,5.439c-3.086,1.807-5.859,3.174-8.311,4.072v-7.627c4.413-2.08,8.271-4.59,11.581-7.549
	c3.302-2.949,5.646-5.82,7.013-8.594h5.088V296.467L797.827,296.467z M830.2,261.594c-3.271-1.201-5.703-2.91-7.285-5.137
	c-1.572-2.217-2.363-4.883-2.363-7.979c0-4.678,1.681-8.613,5.039-11.807c3.369-3.184,7.842-4.775,13.429-4.775
	c5.614,0,10.137,1.631,13.555,4.893c3.418,3.262,5.137,7.227,5.137,11.904c0,2.988-0.791,5.586-2.354,7.793
	c-1.563,2.207-3.937,3.906-7.129,5.107c3.954,1.289,6.952,3.359,9.014,6.23c2.07,2.861,3.096,6.289,3.096,10.264
	c0,5.498-1.943,10.117-5.83,13.857c-3.896,3.75-9.014,5.615-15.361,5.615c-6.338,0-11.454-1.875-15.352-5.635
	c-3.887-3.76-5.83-8.447-5.83-14.063c0-4.18,1.055-7.676,3.185-10.498C823.267,264.543,826.284,262.62,830.2,261.594L830.2,261.594z
	 M826.079,277.913c0,2.256,0.527,4.434,1.602,6.533c1.064,2.109,2.656,3.74,4.757,4.893c2.081,1.146,4.421,1.741,6.797,1.729
	c3.778,0,6.895-1.211,9.346-3.633c2.461-2.432,3.691-5.518,3.691-9.258c0-3.799-1.271-6.943-3.8-9.434
	c-2.528-2.48-5.692-3.73-9.502-3.73c-3.711,0-6.787,1.23-9.229,3.691C827.3,271.155,826.079,274.231,826.079,277.913
	L826.079,277.913z M828.618,248.215c0,3.037,0.986,5.527,2.938,7.451c1.964,1.934,4.502,2.9,7.638,2.9
	c3.037,0,5.537-0.957,7.479-2.871c1.943-1.914,2.92-4.268,2.92-7.041c0-2.9-1.006-5.332-3.008-7.305s-4.502-2.959-7.479-2.959
	c-3.019,0-5.519,0.957-7.5,2.891C829.614,243.215,828.618,245.52,828.618,248.215L828.618,248.215z M768.13,369.338l7.9-1.055
	c0.908,4.473,2.451,7.695,4.629,9.668s4.834,2.959,7.959,2.959c3.711,0,6.854-1.279,9.414-3.857
	c2.559-2.567,3.838-5.762,3.838-9.561c0-3.623-1.191-6.621-3.555-8.976c-2.373-2.354-5.382-3.524-9.043-3.524
	c-1.484,0-3.341,0.293-5.566,0.879l0.879-6.934c0.527,0.059,0.947,0.088,1.271,0.088c3.358,0,6.387-0.879,9.082-2.638
	c2.686-1.748,4.032-4.452,4.032-8.114c0-2.892-0.977-5.293-2.938-7.188c-1.953-1.904-4.492-2.852-7.588-2.852
	c-3.066,0-5.625,0.957-7.677,2.891c-2.051,1.934-3.358,4.824-3.944,8.691l-7.9-1.406c0.967-5.293,3.164-9.396,6.582-12.305
	c3.418-2.91,7.676-4.365,12.764-4.365c3.506,0,6.738,0.752,9.697,2.256c2.949,1.504,5.215,3.564,6.777,6.162
	c1.563,2.606,2.344,5.371,2.344,8.291c0,2.783-0.742,5.313-2.236,7.588c-1.494,2.285-3.701,4.102-6.621,5.439
	c3.8,0.879,6.759,2.704,8.857,5.469c2.109,2.764,3.164,6.221,3.164,10.371c0,5.614-2.051,10.371-6.143,14.276
	c-4.103,3.906-9.277,5.859-15.527,5.859c-5.646,0-10.332-1.68-14.063-5.049C770.786,379.045,768.657,374.69,768.13,369.338
	L768.13,369.338z M859.546,378.723v7.588h-42.5c-0.067-1.903,0.244-3.729,0.918-5.479c1.084-2.9,2.813-5.752,5.195-8.555
	c2.383-2.813,5.83-6.056,10.332-9.746c6.992-5.732,11.709-10.265,14.17-13.613c2.451-3.35,3.682-6.514,3.682-9.502
	c0-3.125-1.112-5.771-3.35-7.92c-2.246-2.148-5.156-3.223-8.76-3.223c-3.8,0-6.836,1.143-9.121,3.428
	c-2.275,2.274-3.438,5.438-3.467,9.473l-8.115-0.84c0.557-6.045,2.646-10.664,6.278-13.838c3.623-3.174,8.486-4.756,14.601-4.756
	c6.172,0,11.055,1.709,14.658,5.127c3.594,3.428,5.391,7.666,5.391,12.725c0,2.578-0.527,5.107-1.572,7.588
	c-1.055,2.49-2.803,5.107-5.244,7.853c-2.44,2.754-6.504,6.522-12.178,11.317c-4.735,3.976-7.772,6.681-9.121,8.097
	c-1.348,1.416-2.461,2.842-3.34,4.276H859.546z M797.827,476.141h-7.892v-50.308c-1.903,1.807-4.395,3.623-7.479,5.439
	c-3.086,1.807-5.859,3.174-8.311,4.071v-7.627c4.413-2.08,8.271-4.59,11.581-7.549c3.302-2.949,5.646-5.82,7.013-8.594h5.088
	V476.141L797.827,476.141z M830.2,441.272c-3.271-1.201-5.703-2.91-7.285-5.138c-1.572-2.217-2.363-4.883-2.363-7.979
	c0-4.678,1.681-8.613,5.039-11.808c3.369-3.184,7.842-4.774,13.429-4.774c5.614,0,10.137,1.631,13.555,4.893
	c3.418,3.263,5.137,7.228,5.137,11.904c0,2.988-0.791,5.586-2.354,7.793c-1.563,2.207-3.937,3.906-7.129,5.107
	c3.954,1.288,6.952,3.358,9.014,6.229c2.07,2.861,3.096,6.289,3.096,10.263c0,5.504-1.943,10.113-5.83,13.863
	c-3.896,3.75-9.014,5.605-15.361,5.605c-6.338,0-11.454-1.875-15.352-5.625c-3.887-3.771-5.83-8.457-5.83-14.068
	c0-4.18,1.055-7.675,3.185-10.498C823.267,444.221,826.284,442.297,830.2,441.272L830.2,441.272z M826.079,457.59
	c0,2.262,0.527,4.43,1.602,6.539c1.064,2.109,2.656,3.73,4.757,4.883c2.08,1.148,4.42,1.747,6.797,1.738
	c3.778,0,6.895-1.211,9.346-3.633c2.461-2.441,3.691-5.527,3.691-9.264c0-3.8-1.271-6.943-3.8-9.434
	c-2.528-2.479-5.692-3.729-9.502-3.729c-3.711,0-6.787,1.229-9.229,3.69C827.3,450.832,826.079,453.908,826.079,457.59
	L826.079,457.59z M828.618,427.893c0,3.037,0.986,5.527,2.938,7.451c1.964,1.935,4.502,2.9,7.638,2.9
	c3.037,0,5.537-0.957,7.479-2.871c1.943-1.914,2.92-4.268,2.92-7.041c0-2.9-1.006-5.332-3.008-7.305
	c-2.002-1.974-4.502-2.959-7.479-2.959c-3.019,0-5.519,0.957-7.5,2.891C829.614,422.893,828.618,425.198,828.618,427.893
	L828.618,427.893z M843.374,565.984v-15.392h-27.9v-7.246l29.347-41.659h6.444v41.659h8.691v7.246h-8.691v15.392H843.374z
	 M843.374,543.348v-28.983l-20.137,28.983H843.374z"/>
</svg>
