<?xml version="1.0" encoding="utf-8"?>
<!-- Generator: Adobe Illustrator 16.0.3, SVG Export Plug-In . SVG Version: 6.00 Build 0)  -->
<!DOCTYPE svg PUBLIC "-//W3C//DTD SVG 1.1//EN" "http://www.w3.org/Graphics/SVG/1.1/DTD/svg11.dtd">
<svg version="1.1" id="Layer_1" xmlns="http://www.w3.org/2000/svg" xmlns:xlink="http://www.w3.org/1999/xlink" x="0px" y="0px"
	 width="900px" height="900px" viewBox="0 0 900 900" enable-background="new 0 0 900 900" xml:space="preserve">
<path d="M60.933,102.463c-5.742-2.1-10-5.098-12.764-8.994c-2.764-3.896-4.15-8.555-4.15-13.994c0-8.193,2.949-15.088,8.838-20.674
	c5.898-5.586,13.74-8.379,23.525-8.379c9.844,0,17.764,2.852,23.76,8.564c5.996,5.723,8.994,12.676,8.994,20.879
	c0,5.225-1.377,9.775-4.111,13.643c-2.744,3.867-6.914,6.855-12.5,8.955c6.924,2.256,12.188,5.898,15.801,10.918
	c3.613,5.029,5.42,11.025,5.42,17.988c0,9.639-3.408,17.734-10.225,24.297s-15.781,9.844-26.904,9.844s-20.098-3.291-26.914-9.883
	c-6.816-6.582-10.225-14.795-10.225-24.639c0-7.324,1.865-13.467,5.576-18.408C48.774,107.629,54.067,104.26,60.933,102.463
	L60.933,102.463z M53.706,131.067c0,3.945,0.938,7.764,2.803,11.455c1.875,3.691,4.648,6.543,8.34,8.574
	c3.691,2.021,7.666,3.037,11.924,3.037c6.611,0,12.07-2.129,16.367-6.387c4.307-4.248,6.465-9.658,6.465-16.221
	c0-6.66-2.217-12.168-6.65-16.523s-9.98-6.543-16.65-6.543c-6.504,0-11.904,2.158-16.182,6.465
	C55.845,119.231,53.706,124.612,53.706,131.067z M58.159,79.016c0,5.332,1.719,9.688,5.156,13.076
	c3.428,3.379,7.891,5.068,13.379,5.068c5.332,0,9.697-1.68,13.105-5.039c3.408-3.35,5.117-7.461,5.117-12.334
	c0-5.078-1.758-9.346-5.273-12.803c-3.506-3.457-7.881-5.186-13.105-5.186c-5.283,0-9.658,1.689-13.145,5.068
	C59.907,70.256,58.159,74.299,58.159,79.016z M127.28,133.831l13.838-1.846c1.592,7.842,4.297,13.496,8.115,16.953
	c3.818,3.467,8.467,5.195,13.955,5.195c6.504,0,12.002-2.256,16.484-6.768c4.482-4.512,6.729-10.098,6.729-16.758
	c0-6.357-2.08-11.602-6.23-15.723c-4.15-4.131-9.424-6.191-15.83-6.191c-2.617,0-5.869,0.518-9.766,1.533l1.533-12.139
	c0.928,0.098,1.67,0.146,2.236,0.146c5.889,0,11.191-1.533,15.908-4.609s7.07-7.813,7.07-14.219c0-5.078-1.709-9.277-5.146-12.617
	c-3.438-3.33-7.871-4.99-13.301-4.99c-5.381,0-9.863,1.689-13.457,5.068c-3.584,3.389-5.889,8.457-6.914,15.225l-13.838-2.461
	c1.689-9.277,5.537-16.465,11.533-21.563c5.996-5.098,13.447-7.646,22.373-7.646c6.143,0,11.807,1.318,16.982,3.955
	c5.175,2.637,9.141,6.24,11.885,10.801c2.734,4.562,4.111,9.404,4.111,14.531c0,4.873-1.309,9.307-3.926,13.301
	c-2.607,3.994-6.484,7.178-11.602,9.531c6.66,1.543,11.836,4.727,15.527,9.57c3.691,4.843,5.537,10.908,5.537,18.184
	c0,9.844-3.594,18.184-10.762,25.029c-7.178,6.836-16.25,10.264-27.217,10.264c-9.893,0-18.105-2.949-24.648-8.848
	C131.929,150.852,128.208,143.215,127.28,133.831L127.28,133.831z M269.224,662.488v-74.103h27.803
	c5.664,0,10.205,0.742,13.623,2.246s6.094,3.81,8.037,6.935c1.934,3.104,2.9,6.366,2.9,9.766c0,3.184-0.85,6.152-2.568,8.945
	c-1.719,2.813-4.316,5.059-7.793,6.776c4.482,1.31,7.93,3.556,10.342,6.72c2.412,3.184,3.613,6.913,3.613,11.229
	c0,3.477-0.732,6.699-2.197,9.668c-1.465,2.988-3.281,5.293-5.439,6.914c-2.148,1.621-4.854,2.832-8.105,3.652
	c-3.252,0.84-7.236,1.25-11.953,1.25L269.224,662.488L269.224,662.488z M279.028,619.52h16.025c4.346,0,7.461-0.293,9.355-0.858
	c2.49-0.742,4.365-1.974,5.635-3.691c1.26-1.719,1.895-3.867,1.895-6.465c0-2.461-0.586-4.629-1.768-6.504
	c-1.182-1.855-2.871-3.146-5.059-3.828c-2.188-0.703-5.947-1.035-11.27-1.035h-14.814L279.028,619.52L279.028,619.52z
	 M279.028,653.738h18.457c3.164,0,5.391-0.117,6.67-0.353c2.256-0.41,4.141-1.073,5.664-2.03c1.514-0.938,2.754-2.306,3.74-4.121
	c0.977-1.797,1.465-3.867,1.465-6.23c0-2.772-0.713-5.156-2.129-7.207c-1.416-2.031-3.379-3.477-5.889-4.297
	c-2.51-0.82-6.123-1.229-10.84-1.229h-17.139L279.028,653.738L279.028,653.738z M337.563,598.855v-10.47h9.102v10.47H337.563z
	 M337.563,662.488v-53.691h9.102v53.691H337.563z M356.87,646.453l8.994-1.406c0.508,3.613,1.914,6.367,4.229,8.281
	c2.305,1.934,5.527,2.891,9.678,2.891c4.18,0,7.275-0.858,9.297-2.559s3.037-3.691,3.037-5.996c0-2.051-0.898-3.672-2.686-4.844
	c-1.24-0.802-4.346-1.836-9.297-3.086c-6.67-1.681-11.299-3.146-13.877-4.375c-2.578-1.23-4.531-2.931-5.859-5.099
	c-1.338-2.168-2.002-4.569-2.002-7.207c0-2.383,0.547-4.608,1.65-6.641c1.076-2.018,2.607-3.756,4.473-5.078
	c1.416-1.055,3.34-1.934,5.781-2.656c2.441-0.722,5.068-1.094,7.861-1.094c4.209,0,7.91,0.605,11.094,1.816
	c3.184,1.229,5.537,2.87,7.051,4.94c1.514,2.07,2.559,4.844,3.135,8.301l-8.896,1.23c-0.4-2.773-1.572-4.922-3.516-6.484
	c-1.934-1.543-4.668-2.323-8.213-2.323c-4.18,0-7.158,0.702-8.945,2.069c-1.787,1.388-2.676,3.008-2.676,4.863
	c0,1.172,0.371,2.246,1.113,3.184c0.742,0.978,1.904,1.777,3.486,2.422c0.908,0.332,3.584,1.113,8.037,2.324
	c6.436,1.719,10.928,3.125,13.467,4.219c2.549,1.095,4.541,2.695,5.996,4.785c1.444,2.09,2.168,4.688,2.168,7.773
	c0,3.047-0.879,5.897-2.656,8.574c-1.768,2.676-4.316,4.746-7.656,6.211c-3.33,1.465-7.109,2.207-11.318,2.207
	c-6.973,0-12.295-1.445-15.947-4.355C360.21,656.453,357.886,652.156,356.87,646.453L356.87,646.453z M412.271,662.488v-53.691
	h8.135v7.539c1.688-2.637,3.926-4.746,6.719-6.348c2.803-1.603,5.986-2.402,9.561-2.402c3.976,0,7.236,0.84,9.775,2.48
	c2.549,1.659,4.336,3.965,5.381,6.934c4.248-6.27,9.775-9.414,16.582-9.414c5.322,0,9.414,1.484,12.285,4.434
	c2.861,2.949,4.297,7.48,4.297,13.613v36.855h-9.053V628.66c0-3.633-0.293-6.25-0.879-7.853c-0.596-1.602-1.66-2.891-3.213-3.866
	c-1.554-0.977-3.369-1.466-5.459-1.466c-3.771,0-6.904,1.25-9.404,3.771c-2.49,2.5-3.74,6.522-3.74,12.051v31.191h-9.092v-34.883
	c0-4.044-0.742-7.07-2.227-9.103c-1.484-2.012-3.906-3.027-7.275-3.027c-2.568,0-4.932,0.685-7.109,2.031
	c-2.168,1.349-3.739,3.301-4.727,5.898c-0.978,2.598-1.465,6.348-1.465,11.229v27.853L412.271,662.488L412.271,662.488z
	 M533.677,662.488v-7.892c-4.18,6.074-9.854,9.103-17.03,9.103c-3.175,0-6.123-0.605-8.878-1.816
	c-2.743-1.211-4.784-2.733-6.112-4.59c-1.328-1.836-2.267-4.082-2.804-6.738c-0.37-1.776-0.557-4.608-0.557-8.496v-33.262h9.103
	v29.785c0,4.746,0.186,7.949,0.557,9.59c0.566,2.402,1.777,4.277,3.633,5.646c1.856,1.368,4.15,2.051,6.875,2.051
	c2.734,0,5.293-0.703,7.686-2.109c2.394-1.387,4.082-3.301,5.078-5.703c0.996-2.401,1.494-5.897,1.494-10.487v-28.771h9.092v53.691
	L533.677,662.488L533.677,662.488z M575.933,654.344l1.31,8.047c-2.56,0.527-4.844,0.802-6.875,0.802
	c-3.301,0-5.859-0.527-7.676-1.563c-1.826-1.055-3.105-2.422-3.849-4.121s-1.104-5.293-1.104-10.742v-30.879h-6.681v-7.09h6.681
	v-13.281l9.043-5.469v18.75h9.149v7.09h-9.149v31.388c0,2.598,0.155,4.258,0.479,5c0.323,0.741,0.84,1.327,1.572,1.776
	c0.723,0.431,1.758,0.646,3.104,0.646C572.944,654.695,574.282,654.578,575.933,654.344L575.933,654.344z M584.829,662.488v-74.103
	h9.092v26.582c4.248-4.922,9.609-7.383,16.074-7.383c3.975,0,7.432,0.781,10.36,2.363c2.939,1.563,5.029,3.729,6.3,6.483
	c1.26,2.773,1.895,6.777,1.895,12.031v34.023h-9.102v-34.023c0-4.551-0.986-7.852-2.959-9.922c-1.963-2.09-4.756-3.125-8.359-3.125
	c-2.695,0-5.233,0.703-7.606,2.109c-2.373,1.387-4.072,3.28-5.078,5.684c-1.017,2.383-1.523,5.703-1.523,9.902v29.375h-9.093
	V662.488z M107.661,839.578v8.75H58.687c-0.075-2.159,0.287-4.312,1.064-6.328c1.24-3.34,3.242-6.621,5.986-9.844
	c2.744-3.242,6.709-6.992,11.904-11.23c8.047-6.602,13.496-11.836,16.328-15.684c2.822-3.867,4.238-7.521,4.238-10.957
	c0-3.594-1.289-6.641-3.867-9.121c-2.578-2.48-5.938-3.711-10.078-3.711c-4.385,0-7.891,1.309-10.518,3.945
	c-2.627,2.616-3.955,6.27-3.994,10.918l-9.346-0.957c0.635-6.974,3.047-12.306,7.227-15.957c4.18-3.652,9.785-5.488,16.836-5.488
	c7.109,0,12.734,1.973,16.875,5.918c4.15,3.945,6.221,8.828,6.221,14.668c0,2.949-0.605,5.879-1.816,8.73
	c-1.221,2.871-3.232,5.879-6.045,9.063c-2.813,3.164-7.49,7.5-14.023,13.027c-5.459,4.59-8.965,7.695-10.518,9.336
	c-1.553,1.621-2.832,3.281-3.838,4.922H107.661L107.661,839.578z M117.417,811.785c0-8.771,0.898-15.82,2.705-21.152
	c1.797-5.352,4.482-9.473,8.037-12.362c3.555-2.891,8.027-4.355,13.418-4.355c3.975,0,7.461,0.801,10.459,2.402
	c2.998,1.601,5.479,3.905,7.432,6.934c1.953,3.008,3.486,6.68,4.6,11.017c1.114,4.336,1.67,10.176,1.67,17.52
	c0,8.691-0.889,15.703-2.676,21.055c-1.787,5.332-4.463,9.453-8.018,12.383c-3.555,2.91-8.047,4.355-13.467,4.355
	c-7.148,0-12.754-2.559-16.836-7.676C119.858,835.73,117.417,825.691,117.417,811.785L117.417,811.785z M126.763,811.785
	c0,12.168,1.426,20.254,4.277,24.277c2.842,4.022,6.357,6.034,10.537,6.034c4.18,0,7.695-2.012,10.537-6.055
	c2.852-4.043,4.268-12.129,4.268-24.258c0-12.207-1.416-20.313-4.268-24.316c-2.842-4.004-6.396-6.016-10.635-6.016
	c-4.18,0-7.52,1.776-10.01,5.313C128.335,791.277,126.763,799.617,126.763,811.785L126.763,811.785z M188.989,808.133
	c-3.779-1.367-6.572-3.34-8.398-5.897c-1.816-2.578-2.725-5.646-2.725-9.199c0-5.391,1.934-9.922,5.811-13.613
	c3.877-3.672,9.033-5.508,15.469-5.508c6.465,0,11.68,1.896,15.615,5.646c3.945,3.75,5.918,8.34,5.918,13.729
	c0,3.438-0.898,6.426-2.705,8.965s-4.541,4.513-8.213,5.879c4.551,1.484,8.008,3.888,10.391,7.188
	c2.373,3.301,3.555,7.246,3.555,11.815c0,6.349-2.236,11.66-6.719,15.978c-4.483,4.316-10.381,6.465-17.686,6.465
	c-7.314,0-13.213-2.148-17.695-6.484s-6.719-9.727-6.719-16.211c0-4.805,1.221-8.848,3.662-12.09
	C180.991,811.531,184.468,809.324,188.989,808.133L188.989,808.133z M184.233,826.941c0,2.598,0.615,5.098,1.846,7.539
	c1.23,2.422,3.057,4.297,5.488,5.625c2.422,1.327,5.029,1.991,7.832,1.991c4.346,0,7.93-1.387,10.762-4.18
	c2.832-2.813,4.248-6.367,4.248-10.664c0-4.395-1.455-8.008-4.375-10.879c-2.91-2.852-6.563-4.297-10.938-4.297
	c-4.277,0-7.832,1.426-10.645,4.258S184.233,822.703,184.233,826.941z M187.163,792.723c0,3.517,1.133,6.367,3.389,8.595
	c2.256,2.227,5.186,3.34,8.799,3.34c3.506,0,6.377-1.113,8.613-3.32c2.246-2.207,3.359-4.901,3.359-8.104
	c0-3.341-1.152-6.134-3.457-8.418c-2.314-2.267-5.186-3.418-8.623-3.418c-3.467,0-6.348,1.112-8.643,3.34
	C188.315,786.961,187.163,789.617,187.163,792.723z M237.671,848.328v-10.371h10.361v10.371H237.671L237.671,848.328z
	 M262.69,831.18l8.74-0.801c0.742,4.121,2.158,7.09,4.248,8.945c2.09,1.854,4.766,2.772,8.037,2.772
	c2.793,0,5.244-0.625,7.354-1.914c2.109-1.27,3.828-2.987,5.176-5.137c1.348-2.129,2.48-5.02,3.389-8.652
	c0.91-3.641,1.369-7.38,1.367-11.133c0-0.391-0.02-0.996-0.049-1.815c-1.826,2.891-4.307,5.254-7.461,7.051
	c-3.111,1.794-6.643,2.73-10.234,2.715c-6.133,0-11.318-2.227-15.566-6.68s-6.367-10.313-6.367-17.599
	c0-7.5,2.217-13.555,6.65-18.145c4.424-4.57,9.98-6.875,16.65-6.875c4.814,0,9.229,1.309,13.213,3.906
	c3.994,2.598,7.031,6.289,9.102,11.094s3.105,11.738,3.105,20.84c0,9.474-1.025,17.012-3.076,22.617
	c-2.061,5.625-5.117,9.883-9.18,12.813c-4.063,2.931-8.818,4.396-14.277,4.396c-5.791,0-10.527-1.602-14.199-4.824
	C265.64,841.551,263.433,837.021,262.69,831.18L262.69,831.18z M299.937,798.484c0-5.216-1.387-9.375-4.17-12.441
	c-2.773-3.066-6.123-4.59-10.029-4.59c-4.043,0-7.568,1.66-10.566,4.961s-4.502,7.578-4.502,12.832
	c0,4.707,1.426,8.555,4.277,11.504c2.842,2.949,6.357,4.414,10.537,4.414c4.209,0,7.676-1.465,10.391-4.414
	C298.579,807.801,299.937,803.719,299.937,798.484L299.937,798.484z M332.896,808.133c-3.779-1.367-6.572-3.34-8.398-5.897
	c-1.816-2.578-2.725-5.646-2.725-9.199c0-5.392,1.934-9.922,5.811-13.613c3.877-3.672,9.033-5.508,15.469-5.508
	c6.465,0,11.68,1.896,15.615,5.646c3.945,3.75,5.918,8.34,5.918,13.729c0,3.438-0.898,6.426-2.705,8.965
	c-1.807,2.539-4.541,4.513-8.213,5.879c4.551,1.484,8.008,3.888,10.391,7.188c2.373,3.301,3.555,7.246,3.555,11.815
	c0,6.349-2.236,11.66-6.719,15.978c-4.483,4.316-10.381,6.465-17.686,6.465c-7.314,0-13.213-2.148-17.695-6.484
	c-4.482-4.336-6.719-9.727-6.719-16.211c0-4.805,1.221-8.848,3.662-12.09C324.897,811.531,328.374,809.324,332.896,808.133
	L332.896,808.133z M328.14,826.941c0,2.598,0.615,5.098,1.846,7.539c1.23,2.422,3.057,4.297,5.488,5.625
	c2.422,1.327,5.029,1.991,7.832,1.991c4.346,0,7.93-1.387,10.762-4.18c2.832-2.813,4.248-6.367,4.248-10.664
	c0-4.395-1.455-8.008-4.375-10.879c-2.91-2.853-6.563-4.297-10.938-4.297c-4.277,0-7.832,1.426-10.645,4.258
	S328.14,822.703,328.14,826.941L328.14,826.941z M331.069,792.723c0,3.517,1.133,6.367,3.389,8.595
	c2.256,2.227,5.186,3.34,8.799,3.34c3.506,0,6.377-1.113,8.613-3.32c2.246-2.207,3.359-4.902,3.359-8.104
	c0-3.341-1.152-6.134-3.457-8.418c-2.314-2.267-5.186-3.419-8.623-3.419c-3.467,0-6.348,1.113-8.643,3.341
	C332.222,786.961,331.069,789.617,331.069,792.723L331.069,792.723z M332.788,265.1h73.906c14.629,0,25.536,0.615,32.725,1.836
	s13.623,3.76,19.297,7.627s10.41,9.014,14.189,15.449c3.778,6.435,5.674,13.643,5.674,21.63c0,8.662-2.334,16.603-7.002,23.839
	c-4.658,7.227-10.986,12.655-18.976,16.27c11.261,3.271,19.922,8.867,25.978,16.768c6.055,7.91,9.082,17.197,9.082,27.871
	c0,8.408-1.953,16.593-5.859,24.531c-3.916,7.949-9.258,14.297-16.024,19.043c-6.769,4.756-15.107,7.676-25.029,8.771
	c-6.221,0.674-21.23,1.094-45.029,1.26h-62.93L332.788,265.1L332.788,265.1z M370.122,295.881v42.754h24.463
	c14.551,0,23.584-0.215,27.119-0.635c6.387-0.752,11.416-2.959,15.067-6.621c3.662-3.662,5.488-8.467,5.488-14.443
	c0-5.713-1.582-10.36-4.727-13.936c-3.154-3.574-7.842-5.732-14.063-6.494c-3.701-0.42-14.336-0.625-31.914-0.625H370.122
	L370.122,295.881z M370.122,369.407v49.434h34.551c13.457,0,21.992-0.381,25.605-1.133c5.547-1.006,10.067-3.467,13.555-7.383
	c3.486-3.906,5.234-9.142,5.234-15.693c0-5.557-1.349-10.264-4.033-14.131c-2.695-3.867-6.582-6.68-11.67-8.447
	c-5.088-1.767-16.123-2.646-33.105-2.646L370.122,369.407L370.122,369.407z M518.931,297.893V265.1h35.439v32.793H518.931
	L518.931,297.893z M518.931,449.993V316.057h35.439v133.937H518.931L518.931,449.993z M859.38,109.202v7.588h-42.5
	c-0.067-1.904,0.244-3.73,0.918-5.479c1.084-2.9,2.813-5.752,5.195-8.555c2.383-2.813,5.83-6.055,10.332-9.746
	c6.992-5.732,11.709-10.264,14.17-13.613c2.451-3.35,3.682-6.514,3.682-9.502c0-3.125-1.112-5.771-3.35-7.92
	c-2.246-2.148-5.156-3.223-8.76-3.223c-3.8,0-6.836,1.143-9.121,3.428c-2.275,2.275-3.438,5.439-3.467,9.473l-8.115-0.84
	c0.557-6.045,2.646-10.664,6.278-13.838c3.623-3.174,8.486-4.756,14.601-4.756c6.172,0,11.055,1.709,14.658,5.127
	c3.594,3.428,5.391,7.666,5.391,12.725c0,2.578-0.527,5.107-1.572,7.588c-1.055,2.49-2.803,5.107-5.244,7.852
	c-2.44,2.754-6.504,6.523-12.178,11.318c-4.735,3.975-7.772,6.68-9.121,8.096c-1.348,1.416-2.461,2.842-3.34,4.277H859.38z
	 M830.034,171.76c-3.271-1.201-5.703-2.91-7.285-5.137c-1.572-2.217-2.363-4.883-2.363-7.979c0-4.678,1.681-8.613,5.039-11.807
	c3.369-3.184,7.842-4.775,13.429-4.775c5.614,0,10.137,1.631,13.555,4.893c3.418,3.262,5.137,7.227,5.137,11.904
	c0,2.988-0.791,5.586-2.354,7.793c-1.563,2.207-3.937,3.906-7.129,5.107c3.954,1.289,6.952,3.359,9.014,6.23
	c2.07,2.861,3.096,6.289,3.096,10.264c0,5.498-1.943,10.117-5.83,13.857c-3.896,3.75-9.014,5.615-15.361,5.615
	c-6.338,0-11.454-1.875-15.352-5.635c-3.887-3.76-5.83-8.447-5.83-14.063c0-4.18,1.055-7.676,3.185-10.498
	C823.101,174.709,826.118,172.786,830.034,171.76z M825.913,188.079c0,2.256,0.527,4.434,1.602,6.533
	c1.064,2.109,2.656,3.74,4.757,4.893c2.081,1.146,4.421,1.741,6.797,1.729c3.778,0,6.895-1.211,9.346-3.633
	c2.461-2.432,3.691-5.518,3.691-9.258c0-3.799-1.271-6.943-3.8-9.434c-2.528-2.48-5.692-3.73-9.502-3.73
	c-3.711,0-6.787,1.23-9.229,3.691C827.134,181.321,825.913,184.397,825.913,188.079L825.913,188.079z M828.452,158.381
	c0,3.037,0.986,5.527,2.938,7.451c1.964,1.934,4.502,2.9,7.638,2.9c3.037,0,5.537-0.957,7.479-2.871
	c1.943-1.914,2.92-4.268,2.92-7.041c0-2.9-1.006-5.332-3.008-7.305c-2.002-1.973-4.502-2.959-7.479-2.959
	c-3.019,0-5.519,0.957-7.5,2.891C829.448,153.381,828.452,155.686,828.452,158.381L828.452,158.381z M797.651,296.467h-7.892
	v-50.313c-1.903,1.807-4.395,3.623-7.479,5.439c-3.086,1.807-5.859,3.174-8.312,4.072v-7.627c4.414-2.08,8.271-4.59,11.582-7.549
	c3.301-2.949,5.646-5.82,7.013-8.594h5.088V296.467L797.651,296.467z M830.024,261.594c-3.271-1.201-5.703-2.91-7.285-5.137
	c-1.572-2.217-2.363-4.883-2.363-7.979c0-4.678,1.68-8.613,5.039-11.807c3.369-3.184,7.842-4.775,13.428-4.775
	c5.615,0,10.138,1.631,13.556,4.893c3.418,3.262,5.137,7.227,5.137,11.904c0,2.988-0.791,5.586-2.354,7.793
	c-1.563,2.207-3.936,3.906-7.129,5.107c3.955,1.289,6.953,3.359,9.015,6.23c2.069,2.861,3.096,6.289,3.096,10.264
	c0,5.498-1.943,10.117-5.83,13.857c-3.896,3.75-9.014,5.615-15.361,5.615c-6.338,0-11.455-1.875-15.352-5.635
	c-3.887-3.76-5.83-8.447-5.83-14.063c0-4.18,1.055-7.676,3.184-10.498C823.091,264.543,826.108,262.62,830.024,261.594
	L830.024,261.594z M825.903,277.913c0,2.256,0.526,4.434,1.602,6.533c1.064,2.109,2.656,3.74,4.756,4.893
	c2.082,1.146,4.421,1.741,6.797,1.729c3.779,0,6.896-1.211,9.347-3.633c2.461-2.432,3.69-5.518,3.69-9.258
	c0-3.799-1.27-6.943-3.799-9.434c-2.529-2.48-5.693-3.73-9.502-3.73c-3.711,0-6.787,1.23-9.229,3.691
	C827.124,271.155,825.903,274.231,825.903,277.913L825.903,277.913z M828.442,248.215c0,3.037,0.985,5.527,2.938,7.451
	c1.963,1.934,4.502,2.9,7.637,2.9c3.037,0,5.537-0.957,7.48-2.871c1.943-1.914,2.92-4.268,2.92-7.041c0-2.9-1.006-5.332-3.008-7.305
	s-4.502-2.959-7.48-2.959c-3.018,0-5.518,0.957-7.5,2.891C829.438,243.215,828.442,245.52,828.442,248.215L828.442,248.215z
	 M767.954,369.338l7.9-1.055c0.907,4.473,2.45,7.695,4.629,9.668c2.178,1.973,4.834,2.959,7.959,2.959
	c3.711,0,6.854-1.279,9.414-3.857c2.559-2.567,3.838-5.762,3.838-9.561c0-3.623-1.191-6.621-3.556-8.976
	c-2.373-2.354-5.381-3.524-9.043-3.524c-1.483,0-3.34,0.293-5.565,0.879l0.879-6.934c0.527,0.059,0.947,0.088,1.27,0.088
	c3.359,0,6.388-0.879,9.082-2.638c2.687-1.748,4.033-4.452,4.033-8.114c0-2.892-0.977-5.293-2.938-7.188
	c-1.953-1.904-4.492-2.852-7.588-2.852c-3.066,0-5.625,0.957-7.677,2.891c-2.051,1.934-3.358,4.824-3.944,8.691l-7.9-1.406
	c0.967-5.293,3.164-9.396,6.582-12.305c3.418-2.91,7.676-4.365,12.764-4.365c3.506,0,6.738,0.752,9.697,2.256
	c2.949,1.504,5.215,3.564,6.777,6.162c1.563,2.606,2.344,5.371,2.344,8.291c0,2.783-0.742,5.313-2.236,7.588
	c-1.494,2.285-3.701,4.102-6.621,5.439c3.799,0.879,6.758,2.704,8.857,5.469c2.108,2.764,3.164,6.221,3.164,10.371
	c0,5.614-2.051,10.371-6.144,14.276c-4.102,3.906-9.276,5.859-15.526,5.859c-5.646,0-10.332-1.68-14.063-5.049
	C770.61,379.045,768.481,374.69,767.954,369.338L767.954,369.338z M859.37,378.723v7.588h-42.5
	c-0.068-1.903,0.244-3.729,0.918-5.479c1.084-2.9,2.813-5.752,5.195-8.555c2.383-2.813,5.83-6.056,10.332-9.746
	c6.991-5.732,11.709-10.265,14.17-13.613c2.45-3.35,3.682-6.514,3.682-9.502c0-3.125-1.113-5.771-3.35-7.92
	c-2.246-2.148-5.156-3.223-8.761-3.223c-3.799,0-6.836,1.143-9.12,3.428c-2.275,2.274-3.438,5.438-3.468,9.473l-8.114-0.84
	c0.557-6.045,2.646-10.664,6.278-13.838c3.623-3.174,8.486-4.756,14.601-4.756c6.172,0,11.055,1.709,14.657,5.127
	c3.595,3.428,5.392,7.666,5.392,12.725c0,2.578-0.527,5.107-1.572,7.588c-1.055,2.49-2.803,5.107-5.244,7.853
	c-2.44,2.754-6.504,6.522-12.178,11.317c-4.736,3.976-7.773,6.681-9.121,8.097s-2.461,2.842-3.34,4.276H859.37L859.37,378.723z
	 M797.651,476.141h-7.892v-50.308c-1.903,1.807-4.395,3.623-7.479,5.439c-3.086,1.807-5.859,3.174-8.312,4.071v-7.627
	c4.414-2.08,8.271-4.59,11.582-7.549c3.302-2.949,5.646-5.82,7.013-8.594h5.088V476.141L797.651,476.141z M830.024,441.272
	c-3.271-1.201-5.703-2.91-7.285-5.138c-1.572-2.217-2.363-4.883-2.363-7.979c0-4.678,1.68-8.613,5.039-11.808
	c3.369-3.184,7.842-4.774,13.428-4.774c5.615,0,10.138,1.631,13.556,4.893c3.418,3.263,5.137,7.228,5.137,11.904
	c0,2.988-0.791,5.586-2.354,7.793c-1.563,2.207-3.936,3.906-7.129,5.107c3.955,1.288,6.953,3.358,9.015,6.229
	c2.069,2.861,3.096,6.289,3.096,10.263c0,5.504-1.943,10.113-5.83,13.863c-3.896,3.75-9.014,5.605-15.361,5.605
	c-6.338,0-11.455-1.875-15.352-5.625c-3.887-3.771-5.83-8.457-5.83-14.068c0-4.18,1.055-7.675,3.184-10.498
	C823.091,444.221,826.108,442.297,830.024,441.272L830.024,441.272z M825.903,457.59c0,2.262,0.526,4.43,1.602,6.539
	c1.064,2.109,2.656,3.73,4.756,4.883c2.081,1.148,4.421,1.747,6.797,1.738c3.779,0,6.896-1.211,9.347-3.633
	c2.461-2.441,3.69-5.527,3.69-9.264c0-3.8-1.27-6.943-3.799-9.434c-2.529-2.479-5.692-3.729-9.502-3.729
	c-3.711,0-6.787,1.229-9.229,3.69C827.124,450.832,825.903,453.908,825.903,457.59L825.903,457.59z M828.442,427.893
	c0,3.037,0.985,5.527,2.938,7.451c1.963,1.935,4.502,2.9,7.638,2.9c3.036,0,5.536-0.957,7.479-2.871s2.92-4.268,2.92-7.041
	c0-2.9-1.006-5.332-3.008-7.305c-2.002-1.974-4.502-2.959-7.48-2.959c-3.018,0-5.518,0.957-7.5,2.891
	C829.438,422.893,828.442,425.198,828.442,427.893L828.442,427.893z M817.886,549.148l8.291-0.703
	c0.615,4.022,2.041,7.069,4.277,9.102s4.932,3.047,8.096,3.047c3.8,0,7.013-1.426,9.648-4.297c2.627-2.871,3.945-6.68,3.945-11.406
	c0-4.512-1.271-8.065-3.8-10.664c-2.528-2.598-5.84-3.905-9.932-3.905c-2.539,0-4.844,0.586-6.885,1.737
	c-2.051,1.152-3.662,2.656-4.824,4.492l-7.412-0.957l6.221-33.026h31.982v7.539H831.83l-3.467,17.284
	c3.867-2.694,7.91-4.043,12.158-4.043c5.614,0,10.352,1.953,14.209,5.84c3.856,3.888,5.791,8.888,5.791,15
	c0,5.82-1.699,10.859-5.089,15.099c-4.12,5.195-9.756,7.793-16.885,7.793c-5.85,0-10.625-1.621-14.326-4.902
	C820.521,558.896,818.413,554.559,817.886,549.148L817.886,549.148z"/>
</svg>
