<?xml version="1.0" encoding="utf-8"?>
<!-- Generator: Adobe Illustrator 16.0.3, SVG Export Plug-In . SVG Version: 6.00 Build 0)  -->
<!DOCTYPE svg PUBLIC "-//W3C//DTD SVG 1.1//EN" "http://www.w3.org/Graphics/SVG/1.1/DTD/svg11.dtd">
<svg version="1.1" id="Layer_1" xmlns="http://www.w3.org/2000/svg" xmlns:xlink="http://www.w3.org/1999/xlink" x="0px" y="0px"
	 width="900px" height="900px" viewBox="0 0 900 900" enable-background="new 0 0 900 900" xml:space="preserve">
<path d="M61.108,92.805c-5.742-2.1-10-5.098-12.764-8.994c-2.764-3.896-4.15-8.555-4.15-13.994c0-8.193,2.949-15.088,8.838-20.674
	c5.898-5.586,13.74-8.379,23.525-8.379c9.844,0,17.764,2.852,23.76,8.564c5.996,5.723,8.994,12.676,8.994,20.879
	c0,5.225-1.377,9.775-4.111,13.643c-2.744,3.867-6.914,6.855-12.5,8.955c6.924,2.256,12.188,5.898,15.801,10.918
	c3.613,5.029,5.42,11.025,5.42,17.988c0,9.639-3.408,17.734-10.225,24.297c-6.817,6.563-15.781,9.844-26.904,9.844
	s-20.098-3.291-26.914-9.883c-6.816-6.582-10.225-14.795-10.225-24.639c0-7.324,1.865-13.467,5.576-18.408
	C48.95,97.971,54.243,94.602,61.108,92.805z M53.882,121.409c0,3.945,0.938,7.764,2.803,11.455c1.875,3.691,4.648,6.543,8.34,8.574
	c3.691,2.021,7.666,3.037,11.924,3.037c6.611,0,12.07-2.129,16.367-6.387c4.307-4.248,6.465-9.658,6.465-16.221
	c0-6.66-2.217-12.168-6.65-16.523c-4.433-4.354-9.98-6.543-16.65-6.543c-6.504,0-11.904,2.158-16.182,6.465
	C56.021,109.573,53.882,114.954,53.882,121.409z M58.335,69.358c0,5.332,1.719,9.688,5.156,13.076
	c3.428,3.379,7.891,5.068,13.379,5.068c5.332,0,9.697-1.68,13.105-5.039c3.408-3.35,5.117-7.461,5.117-12.334
	c0-5.078-1.758-9.346-5.273-12.803c-3.506-3.457-7.881-5.186-13.105-5.186c-5.283,0-9.658,1.689-13.145,5.068
	C60.083,60.598,58.335,64.641,58.335,69.358z M171.743,153.928v-26.982h-48.896V114.26l51.426-73.037h11.309v73.037h15.215v12.686
	h-15.215v26.982L171.743,153.928L171.743,153.928z M171.743,114.26V63.44l-35.293,50.82H171.743z M241.011,652.83v-74.102h27.949
	c4.922,0,8.672,0.233,11.27,0.702c3.643,0.605,6.689,1.759,9.15,3.457c2.461,1.72,4.443,4.103,5.938,7.168
	c1.504,3.066,2.246,6.427,2.246,10.099c0,6.309-2.002,11.641-6.006,15.996c-4.014,4.375-11.26,6.543-21.738,6.543h-19.004v30.137
	H241.011L241.011,652.83z M250.815,613.963h19.16c6.328,0,10.83-1.19,13.486-3.535c2.666-2.362,3.994-5.684,3.994-9.961
	c0-3.104-0.781-5.762-2.344-7.969c-1.572-2.207-3.633-3.672-6.191-4.375c-1.65-0.43-4.707-0.645-9.15-0.645h-18.955V613.963
	L250.815,613.963z M305.503,625.994c0-9.941,2.764-17.305,8.291-22.09c4.609-3.984,10.244-5.978,16.885-5.978
	c7.373,0,13.408,2.422,18.086,7.267c4.688,4.823,7.031,11.504,7.031,20.039c0,6.895-1.035,12.344-3.105,16.289
	c-2.08,3.965-5.088,7.051-9.053,9.237c-3.955,2.188-8.281,3.281-12.959,3.281c-7.52,0-13.594-2.402-18.223-7.228
	C307.817,641.99,305.503,635.057,305.503,625.994L305.503,625.994z M314.849,625.994c0,6.875,1.504,12.012,4.502,15.43
	s6.777,5.137,11.328,5.137c4.512,0,8.271-1.719,11.27-5.155c2.999-3.438,4.492-8.672,4.492-15.724
	c0-6.641-1.504-11.659-4.521-15.078c-3.018-3.438-6.768-5.137-11.24-5.137c-4.551,0-8.33,1.699-11.328,5.099
	C316.353,613.982,314.849,619.119,314.849,625.994L314.849,625.994z M366.255,652.83v-74.102h9.102v74.102H366.255z
	 M386.069,625.994c0-9.941,2.764-17.305,8.291-22.09c4.609-3.984,10.244-5.978,16.885-5.978c7.373,0,13.408,2.422,18.086,7.267
	c4.688,4.823,7.031,11.504,7.031,20.039c0,6.895-1.035,12.344-3.105,16.289c-2.08,3.965-5.088,7.051-9.053,9.237
	c-3.955,2.188-8.281,3.281-12.959,3.281c-7.521,0-13.594-2.402-18.223-7.228C388.384,641.99,386.069,635.057,386.069,625.994z
	 M395.415,625.994c0,6.875,1.504,12.012,4.502,15.43s6.777,5.137,11.328,5.137c4.512,0,8.271-1.719,11.27-5.155
	c2.999-3.438,4.492-8.672,4.492-15.724c0-6.641-1.504-11.659-4.521-15.078c-3.019-3.438-6.769-5.137-11.24-5.137
	c-4.551,0-8.33,1.699-11.328,5.099C396.919,613.982,395.415,619.119,395.415,625.994L395.415,625.994z M447.036,652.83v-53.691
	h8.184v7.638c3.945-5.898,9.64-8.849,17.09-8.849c3.232,0,6.201,0.586,8.916,1.758c2.716,1.152,4.746,2.677,6.095,4.57
	c1.348,1.875,2.285,4.121,2.832,6.719c0.332,1.681,0.498,4.63,0.498,8.849v33.008h-9.093v-32.656c0-3.711-0.352-6.483-1.063-8.319
	c-0.703-1.836-1.963-3.302-3.76-4.396c-1.808-1.094-3.927-1.641-6.349-1.641c-3.877,0-7.217,1.229-10.028,3.69
	c-2.822,2.461-4.229,7.129-4.229,14.004v29.316H447.036z M504.653,589.197v-10.469h9.102v10.469H504.653z M504.653,652.83v-53.691
	h9.102v53.691H504.653z M562.778,652.83v-7.891c-4.181,6.073-9.854,9.102-17.031,9.102c-3.174,0-6.123-0.605-8.877-1.816
	c-2.744-1.211-4.785-2.733-6.113-4.59c-1.328-1.836-2.266-4.082-2.803-6.737c-0.371-1.777-0.557-4.609-0.557-8.496v-33.263h9.102
	v29.785c0,4.746,0.186,7.949,0.557,9.59c0.566,2.402,1.777,4.277,3.634,5.646c1.855,1.368,4.149,2.051,6.875,2.051
	c2.733,0,5.293-0.703,7.686-2.108c2.393-1.388,4.082-3.302,5.078-5.703c0.996-2.402,1.494-5.898,1.494-10.488V599.14h9.092v53.691
	L562.778,652.83L562.778,652.83z M585.171,652.83v-53.691h8.135v7.539c1.689-2.637,3.927-4.746,6.72-6.348
	c2.803-1.602,5.985-2.402,9.561-2.402c3.975,0,7.236,0.84,9.775,2.48c2.549,1.66,4.336,3.965,5.381,6.934
	c4.248-6.27,9.774-9.414,16.582-9.414c5.322,0,9.414,1.484,12.285,4.435c2.86,2.948,4.297,7.479,4.297,13.612v36.855h-9.054v-33.828
	c0-3.633-0.293-6.25-0.879-7.852c-0.596-1.603-1.659-2.892-3.213-3.867c-1.553-0.977-3.369-1.465-5.459-1.465
	c-3.77,0-6.903,1.25-9.403,3.77c-2.49,2.5-3.74,6.523-3.74,12.051v31.191h-9.092v-34.883c0-4.043-0.742-7.07-2.228-9.103
	c-1.483-2.012-3.906-3.026-7.274-3.026c-2.568,0-4.933,0.684-7.109,2.03c-2.168,1.349-3.74,3.302-4.728,5.898
	c-0.977,2.598-1.465,6.348-1.465,11.229v27.853L585.171,652.83L585.171,652.83z M62.769,859.236v-94.668h20.068v7.52H71.87v79.609
	h10.967v7.539H62.769z M136.616,829.92v8.75H87.642c-0.075-2.159,0.287-4.312,1.064-6.328c1.24-3.34,3.242-6.621,5.986-9.844
	c2.744-3.242,6.709-6.992,11.904-11.23c8.047-6.602,13.496-11.836,16.328-15.684c2.822-3.867,4.238-7.52,4.238-10.957
	c0-3.594-1.289-6.641-3.867-9.121c-2.578-2.479-5.938-3.711-10.078-3.711c-4.385,0-7.891,1.31-10.518,3.945
	c-2.627,2.617-3.955,6.27-3.994,10.918l-9.346-0.957c0.635-6.973,3.047-12.305,7.227-15.957s9.785-5.488,16.836-5.488
	c7.109,0,12.734,1.974,16.875,5.918c4.15,3.945,6.221,8.828,6.221,14.668c0,2.949-0.605,5.88-1.816,8.73
	c-1.221,2.871-3.232,5.879-6.045,9.063c-2.813,3.164-7.49,7.5-14.023,13.027c-5.459,4.59-8.965,7.695-10.518,9.336
	c-1.553,1.621-2.832,3.281-3.838,4.922H136.616L136.616,829.92z M146.372,802.127c0-8.77,0.898-15.82,2.705-21.152
	c1.797-5.352,4.482-9.473,8.037-12.362c3.555-2.89,8.027-4.355,13.418-4.355c3.975,0,7.461,0.802,10.459,2.402
	s5.479,3.906,7.432,6.934c1.953,3.009,3.486,6.681,4.6,11.017c1.114,4.336,1.67,10.176,1.67,17.52
	c0,8.691-0.889,15.703-2.676,21.056c-1.787,5.331-4.463,9.452-8.018,12.383c-3.555,2.91-8.047,4.354-13.467,4.354
	c-7.148,0-12.754-2.559-16.836-7.676C148.813,826.072,146.372,816.033,146.372,802.127L146.372,802.127z M155.718,802.127
	c0,12.168,1.426,20.254,4.277,24.277c2.842,4.022,6.357,6.035,10.537,6.035c4.18,0,7.695-2.013,10.537-6.056
	c2.852-4.043,4.268-12.129,4.268-24.258c0-12.207-1.416-20.313-4.268-24.315c-2.842-4.005-6.396-6.017-10.635-6.017
	c-4.18,0-7.52,1.777-10.01,5.313C157.29,781.619,155.718,789.959,155.718,802.127L155.718,802.127z M205.308,821.521l8.74-0.802
	c0.742,4.121,2.158,7.091,4.248,8.945s4.766,2.773,8.037,2.773c2.793,0,5.244-0.625,7.354-1.914
	c2.109-1.271,3.828-2.988,5.176-5.138c1.348-2.129,2.48-5.02,3.389-8.651c0.91-3.642,1.369-7.38,1.367-11.134
	c0-0.391-0.02-0.995-0.049-1.815c-1.826,2.891-4.307,5.254-7.461,7.051c-3.111,1.794-6.643,2.73-10.234,2.715
	c-6.133,0-11.318-2.227-15.566-6.68s-6.367-10.313-6.367-17.598c0-7.5,2.217-13.556,6.65-18.146c4.424-4.57,9.98-6.875,16.65-6.875
	c4.814,0,9.229,1.31,13.213,3.906c3.994,2.598,7.031,6.289,9.102,11.094c2.071,4.805,3.105,11.738,3.105,20.84
	c0,9.474-1.025,17.013-3.076,22.617c-2.061,5.625-5.117,9.883-9.18,12.813c-4.063,2.93-8.818,4.395-14.277,4.395
	c-5.791,0-10.527-1.602-14.199-4.824C208.257,831.894,206.05,827.361,205.308,821.521L205.308,821.521z M242.554,788.826
	c0-5.215-1.387-9.375-4.17-12.441c-2.773-3.065-6.123-4.59-10.029-4.59c-4.043,0-7.568,1.66-10.566,4.961s-4.502,7.578-4.502,12.832
	c0,4.707,1.426,8.555,4.277,11.504c2.842,2.949,6.357,4.414,10.537,4.414c4.209,0,7.676-1.465,10.391-4.414
	C241.196,798.143,242.554,794.061,242.554,788.826z M279.263,859.236h-20.068v-7.539h10.967v-79.609h-10.967v-7.52h20.068V859.236z
	 M296.958,440.334V255.442h59.912c22.695,0,37.49,0.928,44.385,2.783c10.596,2.773,19.473,8.809,26.611,18.096
	c7.147,9.287,10.723,21.289,10.723,36.006c0,11.348-2.061,20.889-6.182,28.623c-4.121,7.744-9.355,13.817-15.703,18.231
	s-12.793,7.334-19.355,8.761c-8.916,1.768-21.815,2.646-38.721,2.646h-24.336v69.746H296.958L296.958,440.334z M334.292,286.721
	v52.471h20.43c14.717,0,24.551-0.968,29.512-2.9s8.848-4.961,11.67-9.082c2.813-4.121,4.219-8.916,4.219-14.375
	c0-6.729-1.973-12.275-5.928-16.65c-3.955-4.375-8.955-7.109-15.01-8.203c-4.453-0.84-13.408-1.26-26.855-1.26L334.292,286.721
	L334.292,286.721z M460.786,371.477c0-11.776,2.899-23.163,8.701-34.18c5.801-11.016,14.022-19.424,24.657-25.225
	c10.636-5.801,22.511-8.701,35.625-8.701c20.265,0,36.865,6.582,49.814,19.736c12.949,13.164,19.424,29.784,19.424,49.883
	c0,20.264-6.533,37.061-19.608,50.381c-13.076,13.33-29.531,19.99-49.375,19.99c-12.275,0-23.984-2.773-35.127-8.32
	c-11.144-5.557-19.609-13.691-25.41-24.404C463.688,399.915,460.786,386.858,460.786,371.477z M497.104,373.362
	c0,13.291,3.154,23.467,9.464,30.526c6.309,7.061,14.082,10.597,23.33,10.597s17.002-3.535,23.271-10.597
	c6.26-7.061,9.396-17.323,9.396-30.771c0-13.115-3.136-23.213-9.396-30.273c-6.27-7.061-14.023-10.596-23.271-10.596
	c-9.248,0-17.021,3.535-23.33,10.596C500.258,349.906,497.104,360.081,497.104,373.362z M859.556,99.543v7.588h-42.5
	c-0.067-1.904,0.244-3.73,0.918-5.479c1.084-2.9,2.813-5.752,5.195-8.555c2.383-2.813,5.83-6.055,10.332-9.746
	c6.992-5.732,11.709-10.264,14.17-13.613c2.451-3.35,3.683-6.514,3.683-9.502c0-3.125-1.113-5.771-3.351-7.92
	c-2.246-2.148-5.156-3.223-8.76-3.223c-3.799,0-6.836,1.143-9.121,3.428c-2.275,2.275-3.438,5.439-3.467,9.473l-8.115-0.84
	c0.557-6.045,2.646-10.664,6.279-13.838c3.623-3.174,8.485-4.756,14.6-4.756c6.172,0,11.055,1.709,14.658,5.127
	c3.594,3.428,5.391,7.666,5.391,12.725c0,2.578-0.526,5.107-1.571,7.588c-1.056,2.49-2.804,5.107-5.244,7.852
	c-2.441,2.754-6.504,6.523-12.179,11.318c-4.735,3.975-7.772,6.68-9.12,8.096c-1.349,1.416-2.461,2.842-3.341,4.277H859.556z
	 M830.21,162.102c-3.271-1.201-5.703-2.91-7.285-5.137c-1.571-2.217-2.362-4.883-2.362-7.979c0-4.678,1.68-8.613,5.039-11.807
	c3.368-3.184,7.842-4.775,13.428-4.775c5.615,0,10.137,1.631,13.555,4.893c3.418,3.262,5.137,7.227,5.137,11.904
	c0,2.988-0.791,5.586-2.354,7.793c-1.563,2.207-3.937,3.906-7.129,5.107c3.955,1.289,6.953,3.359,9.014,6.23
	c2.07,2.861,3.096,6.289,3.096,10.264c0,5.498-1.942,10.117-5.83,13.857c-3.896,3.75-9.014,5.615-15.36,5.615
	c-6.338,0-11.455-1.875-15.353-5.635c-3.887-3.76-5.83-8.447-5.83-14.063c0-4.18,1.056-7.676,3.185-10.498
	C823.276,165.051,826.294,163.127,830.21,162.102z M826.089,178.42c0,2.256,0.527,4.434,1.603,6.533
	c1.063,2.109,2.655,3.74,4.756,4.893c2.081,1.145,4.421,1.74,6.797,1.729c3.779,0,6.895-1.211,9.346-3.633
	c2.461-2.432,3.691-5.518,3.691-9.258c0-3.799-1.271-6.943-3.799-9.434c-2.529-2.48-5.693-3.73-9.502-3.73
	c-3.712,0-6.787,1.23-9.229,3.691C827.31,171.663,826.089,174.739,826.089,178.42L826.089,178.42z M828.628,148.723
	c0,3.037,0.986,5.527,2.939,7.451c1.963,1.934,4.502,2.9,7.637,2.9c3.037,0,5.537-0.957,7.479-2.871
	c1.943-1.914,2.921-4.268,2.921-7.041c0-2.9-1.007-5.332-3.009-7.305s-4.502-2.959-7.479-2.959c-3.019,0-5.519,0.957-7.5,2.891
	C829.624,143.723,828.628,146.028,828.628,148.723L828.628,148.723z M797.827,286.809h-7.892v-50.313
	c-1.903,1.807-4.395,3.623-7.479,5.439c-3.086,1.807-5.859,3.174-8.311,4.072v-7.627c4.413-2.08,8.271-4.59,11.581-7.549
	c3.302-2.949,5.646-5.82,7.013-8.594h5.088V286.809L797.827,286.809z M830.2,251.936c-3.271-1.201-5.703-2.91-7.285-5.137
	c-1.572-2.217-2.363-4.883-2.363-7.979c0-4.678,1.681-8.613,5.039-11.807c3.369-3.184,7.842-4.775,13.429-4.775
	c5.614,0,10.137,1.631,13.555,4.893c3.418,3.262,5.137,7.227,5.137,11.904c0,2.988-0.791,5.586-2.354,7.793
	c-1.563,2.207-3.937,3.906-7.129,5.107c3.954,1.289,6.952,3.359,9.014,6.23c2.07,2.861,3.096,6.289,3.096,10.264
	c0,5.498-1.943,10.117-5.83,13.857c-3.896,3.75-9.014,5.615-15.361,5.615c-6.338,0-11.454-1.875-15.352-5.635
	c-3.887-3.76-5.83-8.447-5.83-14.063c0-4.18,1.055-7.676,3.185-10.498C823.267,254.885,826.284,252.961,830.2,251.936z
	 M826.079,268.254c0,2.256,0.527,4.434,1.602,6.533c1.064,2.109,2.656,3.74,4.757,4.893c2.081,1.145,4.421,1.74,6.797,1.729
	c3.778,0,6.895-1.211,9.346-3.633c2.461-2.432,3.691-5.518,3.691-9.258c0-3.799-1.271-6.943-3.8-9.434
	c-2.528-2.48-5.692-3.73-9.502-3.73c-3.711,0-6.787,1.23-9.229,3.691C827.3,261.497,826.079,264.573,826.079,268.254
	L826.079,268.254z M828.618,238.557c0,3.037,0.986,5.527,2.938,7.451c1.964,1.934,4.502,2.9,7.638,2.9
	c3.037,0,5.537-0.957,7.479-2.871c1.943-1.914,2.92-4.268,2.92-7.041c0-2.9-1.006-5.332-3.008-7.305s-4.502-2.959-7.479-2.959
	c-3.019,0-5.519,0.957-7.5,2.891C829.614,233.557,828.618,235.862,828.618,238.557L828.618,238.557z M768.13,359.68l7.9-1.055
	c0.908,4.473,2.451,7.695,4.629,9.668s4.834,2.959,7.959,2.959c3.711,0,6.854-1.279,9.414-3.857
	c2.559-2.567,3.838-5.762,3.838-9.561c0-3.623-1.191-6.621-3.555-8.975c-2.373-2.354-5.382-3.525-9.043-3.525
	c-1.484,0-3.341,0.293-5.566,0.879l0.879-6.934c0.527,0.059,0.947,0.088,1.271,0.088c3.358,0,6.387-0.879,9.082-2.637
	c2.686-1.748,4.032-4.453,4.032-8.115c0-2.892-0.977-5.293-2.938-7.188c-1.953-1.903-4.492-2.852-7.588-2.852
	c-3.066,0-5.625,0.957-7.677,2.891c-2.051,1.935-3.358,4.824-3.944,8.691l-7.9-1.406c0.967-5.293,3.164-9.395,6.582-12.305
	s7.676-4.365,12.764-4.365c3.506,0,6.738,0.752,9.697,2.256c2.949,1.504,5.215,3.564,6.777,6.162
	c1.563,2.607,2.344,5.371,2.344,8.291c0,2.783-0.742,5.313-2.236,7.588c-1.494,2.285-3.701,4.103-6.621,5.439
	c3.8,0.879,6.759,2.705,8.857,5.469c2.109,2.764,3.164,6.221,3.164,10.371c0,5.615-2.051,10.371-6.143,14.277
	c-4.103,3.905-9.277,5.858-15.527,5.858c-5.646,0-10.332-1.68-14.063-5.049C770.786,369.387,768.657,365.032,768.13,359.68
	L768.13,359.68z M859.546,369.065v7.588h-42.5c-0.067-1.904,0.244-3.73,0.918-5.479c1.084-2.899,2.813-5.752,5.195-8.555
	c2.383-2.813,5.83-6.055,10.332-9.746c6.992-5.732,11.709-10.264,14.17-13.613c2.451-3.35,3.682-6.514,3.682-9.502
	c0-3.125-1.112-5.771-3.35-7.92c-2.246-2.147-5.156-3.223-8.76-3.223c-3.8,0-6.836,1.143-9.121,3.428
	c-2.275,2.275-3.438,5.439-3.467,9.473l-8.115-0.84c0.557-6.045,2.646-10.664,6.278-13.838c3.623-3.174,8.486-4.756,14.601-4.756
	c6.172,0,11.055,1.709,14.658,5.127c3.594,3.428,5.391,7.666,5.391,12.725c0,2.578-0.527,5.107-1.572,7.589
	c-1.055,2.489-2.803,5.106-5.244,7.852c-2.44,2.754-6.504,6.523-12.178,11.318c-4.735,3.975-7.772,6.68-9.121,8.096
	c-1.348,1.416-2.461,2.842-3.34,4.277H859.546z M797.827,466.482h-7.892v-50.309c-1.903,1.808-4.395,3.623-7.479,5.439
	c-3.086,1.807-5.859,3.174-8.311,4.071v-7.627c4.413-2.08,8.271-4.59,11.581-7.549c3.302-2.949,5.646-5.819,7.013-8.594h5.088
	V466.482L797.827,466.482z M830.2,431.614c-3.271-1.201-5.703-2.91-7.285-5.138c-1.572-2.217-2.363-4.883-2.363-7.979
	c0-4.678,1.681-8.613,5.039-11.807c3.369-3.185,7.842-4.775,13.429-4.775c5.614,0,10.137,1.631,13.555,4.893
	c3.418,3.263,5.137,7.228,5.137,11.904c0,2.988-0.791,5.586-2.354,7.793c-1.563,2.207-3.937,3.906-7.129,5.107
	c3.954,1.289,6.952,3.358,9.014,6.229c2.07,2.861,3.096,6.289,3.096,10.265c0,5.503-1.943,10.112-5.83,13.862
	c-3.896,3.75-9.014,5.605-15.361,5.605c-6.338,0-11.454-1.875-15.352-5.625c-3.887-3.771-5.83-8.457-5.83-14.068
	c0-4.18,1.055-7.676,3.185-10.498C823.267,434.563,826.284,432.639,830.2,431.614L830.2,431.614z M826.079,447.932
	c0,2.262,0.527,4.43,1.602,6.539c1.064,2.109,2.656,3.73,4.757,4.883c2.08,1.148,4.42,1.747,6.797,1.738
	c3.778,0,6.895-1.211,9.346-3.633c2.461-2.441,3.691-5.527,3.691-9.263c0-3.8-1.271-6.943-3.8-9.435
	c-2.528-2.479-5.692-3.729-9.502-3.729c-3.711,0-6.787,1.229-9.229,3.69C827.3,441.174,826.079,444.25,826.079,447.932
	L826.079,447.932z M828.618,418.235c0,3.036,0.986,5.526,2.938,7.45c1.964,1.935,4.502,2.9,7.638,2.9
	c3.037,0,5.537-0.957,7.479-2.871c1.943-1.914,2.92-4.268,2.92-7.041c0-2.899-1.006-5.332-3.008-7.305s-4.502-2.959-7.479-2.959
	c-3.019,0-5.519,0.957-7.5,2.891C829.614,413.235,828.618,415.54,828.618,418.235L828.618,418.235z M859.028,507.771l-7.853,0.604
	c-0.703-3.086-1.688-5.352-2.979-6.738c-2.14-2.266-4.767-3.379-7.9-3.379c-2.51,0-4.717,0.703-6.621,2.09
	c-2.49,1.816-4.442,4.474-5.879,7.949c-1.436,3.477-2.178,8.438-2.236,14.863c1.904-2.892,4.229-5.039,6.974-6.445
	c2.754-1.406,5.635-2.108,8.643-2.108c5.265,0,9.746,1.952,13.447,5.819s5.547,8.888,5.547,15.021c0,4.043-0.869,7.793-2.606,11.25
	c-1.738,3.477-4.132,6.133-7.179,7.969c-3.037,1.836-6.483,2.754-10.352,2.754c-6.582,0-11.943-2.402-16.094-7.246
	c-4.16-4.844-6.23-12.813-6.23-23.926c0-12.441,2.295-21.484,6.885-27.129c4.005-4.902,9.404-7.363,16.191-7.363
	c5.059,0,9.199,1.426,12.432,4.258C856.451,498.846,858.384,502.771,859.028,507.771L859.028,507.771z M826.792,535.486
	c0,2.733,0.576,5.332,1.729,7.813c1.152,2.481,2.772,4.375,4.854,5.685c2.07,1.309,4.248,1.952,6.533,1.952
	c3.33,0,6.201-1.348,8.594-4.043c2.402-2.676,3.604-6.348,3.604-10.957c0-4.452-1.191-7.948-3.556-10.508
	c-2.373-2.559-5.352-3.848-8.955-3.848c-3.563,0-6.592,1.289-9.071,3.848C828.032,527.986,826.792,531.346,826.792,535.486z"/>
</svg>
