<?xml version="1.0" encoding="utf-8"?>
<!-- Generator: Adobe Illustrator 16.0.3, SVG Export Plug-In . SVG Version: 6.00 Build 0)  -->
<!DOCTYPE svg PUBLIC "-//W3C//DTD SVG 1.1//EN" "http://www.w3.org/Graphics/SVG/1.1/DTD/svg11.dtd">
<svg version="1.1" id="Layer_1" xmlns="http://www.w3.org/2000/svg" xmlns:xlink="http://www.w3.org/1999/xlink" x="0px" y="0px"
	 width="900px" height="900px" viewBox="0 0 900 900" enable-background="new 0 0 900 900" xml:space="preserve">
<path fill="#010101" d="M61.094,92.803c-5.736-2.104-10-5.103-12.759-8.994c-2.759-3.887-4.149-8.56-4.149-13.999
	c0-8.188,2.948-15.088,8.843-20.669c5.897-5.591,13.74-8.379,23.529-8.379c9.84,0,17.76,2.847,23.761,8.56
	c5.996,5.718,8.988,12.681,8.988,20.879c0,5.22-1.382,9.78-4.11,13.638c-2.749,3.872-6.919,6.86-12.5,8.965
	c6.919,2.256,12.191,5.898,15.801,10.918c3.608,5.029,5.42,11.03,5.42,17.988c0,9.639-3.413,17.729-10.22,24.302
	c-6.813,6.567-15.781,9.839-26.899,9.839c-11.123,0-20.103-3.291-26.909-9.878c-6.82-6.582-10.225-14.79-10.225-24.644
	c0-7.319,1.87-13.467,5.581-18.408C48.946,97.969,54.234,94.6,61.094,92.803L61.094,92.803z M53.878,121.411
	c0,3.95,0.938,7.759,2.798,11.46c1.88,3.691,4.648,6.538,8.34,8.569c3.691,2.021,7.672,3.042,11.92,3.042
	c6.61,0,12.069-2.134,16.371-6.392c4.313-4.253,6.461-9.663,6.461-16.221c0-6.66-2.223-12.173-6.65-16.519
	c-4.429-4.351-9.98-6.553-16.65-6.553c-6.499,0-11.898,2.158-16.182,6.46C56.007,109.561,53.878,114.951,53.878,121.411
	L53.878,121.411z M58.326,69.361c0,5.327,1.719,9.692,5.161,13.081c3.418,3.369,7.891,5.059,13.379,5.059
	c5.332,0,9.702-1.68,13.11-5.039c3.397-3.35,5.106-7.461,5.106-12.334c0-5.078-1.758-9.346-5.269-12.798
	c-3.512-3.462-7.892-5.19-13.11-5.19c-5.278,0-9.658,1.689-13.14,5.068C60.074,60.601,58.326,64.639,58.326,69.361L58.326,69.361z
	 M199.175,68.819l-13.76,1.074c-1.229-5.43-2.969-9.385-5.22-11.841c-3.75-3.95-8.359-5.923-13.838-5.923
	c-4.414,0-8.281,1.23-11.611,3.691c-4.36,3.169-7.793,7.813-10.303,13.921c-2.511,6.089-3.818,14.79-3.926,26.05
	c3.324-5.068,7.406-8.843,12.227-11.299c4.819-2.461,9.863-3.691,15.151-3.691c9.229,0,17.08,3.398,23.56,10.19
	c6.479,6.802,9.731,15.571,9.731,26.338c0,7.07-1.523,13.643-4.58,19.722c-3.053,6.069-7.241,10.718-12.573,13.96
	c-5.327,3.218-11.377,4.839-18.14,4.839c-11.528,0-20.938-4.238-28.208-12.72c-7.271-8.482-10.918-22.461-10.918-41.938
	c0-21.782,4.019-37.622,12.064-47.51c7.021-8.613,16.475-12.91,28.374-12.91c8.867,0,16.128,2.48,21.797,7.451
	C194.673,53.189,198.057,60.059,199.175,68.819z M142.676,117.412c-0.01,4.728,1.029,9.399,3.042,13.677
	c2.018,4.36,4.85,7.681,8.496,9.951c3.633,2.29,7.451,3.433,11.46,3.433c5.84,0,10.859-2.363,15.073-7.08
	c4.199-4.712,6.299-11.113,6.299-19.224c0-7.778-2.069-13.931-6.221-18.408c-4.16-4.482-9.38-6.733-15.679-6.733
	c-6.261,0-11.563,2.251-15.924,6.733C144.864,104.238,142.676,110.127,142.676,117.412z M304.366,652.822V578.72h32.861
	c6.597,0,11.615,0.654,15.059,2.002c3.442,1.328,6.182,3.672,8.242,7.052c2.046,3.368,3.076,7.09,3.076,11.172
	c0,5.244-1.699,9.688-5.099,13.28c-3.413,3.604-8.662,5.898-15.771,6.886c2.593,1.239,4.561,2.471,5.913,3.69
	c2.865,2.627,5.575,5.908,8.14,9.854l12.876,20.166h-12.319l-9.81-15.42c-2.861-4.443-5.21-7.853-7.07-10.215
	c-1.859-2.363-3.521-4.005-4.979-4.941c-1.46-0.957-2.959-1.603-4.469-1.973c-1.107-0.234-2.93-0.353-5.459-0.353h-11.382v32.899
	L304.366,652.822L304.366,652.822z M314.175,611.426h21.079c4.482,0,7.983-0.449,10.514-1.387c2.528-0.928,4.447-2.402,5.757-4.453
	c1.3-1.971,1.986-4.281,1.973-6.641c0-3.506-1.27-6.388-3.823-8.633c-2.539-2.267-6.558-3.398-12.046-3.398h-23.462v24.512H314.175z
	 M412.847,646.201c-3.379,2.861-6.62,4.873-9.74,6.063c-3.12,1.173-6.46,1.759-10.029,1.759c-5.903,0-10.43-1.437-13.589-4.316
	c-3.174-2.871-4.761-6.563-4.761-11.035c0-2.637,0.601-5.029,1.797-7.207c1.19-2.168,2.764-3.926,4.702-5.225
	c1.929-1.318,4.12-2.314,6.537-2.988c1.792-0.479,4.482-0.928,8.092-1.377c7.349-0.859,12.749-1.904,16.229-3.125
	c0.029-1.25,0.049-2.041,0.049-2.383c0-3.691-0.858-6.318-2.578-7.832c-2.318-2.051-5.78-3.086-10.36-3.086
	c-4.277,0-7.441,0.752-9.468,2.266c-2.041,1.484-3.551,4.141-4.531,7.949l-8.901-1.201c0.812-3.818,2.153-6.885,3.989-9.229
	c1.86-2.345,4.531-4.142,8.042-5.41c3.511-1.27,7.568-1.896,12.192-1.896c4.579,0,8.296,0.547,11.167,1.621
	c2.86,1.074,4.961,2.433,6.309,4.063c1.353,1.641,2.29,3.69,2.832,6.19c0.303,1.543,0.459,4.354,0.459,8.397v12.129
	c0,8.457,0.2,13.81,0.581,16.035c0.391,2.246,1.162,4.396,2.3,6.455h-9.502C413.716,650.938,413.116,648.73,412.847,646.201z
	 M412.086,625.879c-3.301,1.348-8.262,2.5-14.857,3.438c-3.74,0.547-6.393,1.152-7.931,1.836c-1.553,0.664-2.749,1.66-3.594,2.949
	c-0.84,1.299-1.26,2.734-1.26,4.326c0,2.422,0.923,4.443,2.754,6.064c1.826,1.621,4.517,2.422,8.057,2.422
	c3.511,0,6.621-0.762,9.36-2.295c2.72-1.533,4.741-3.623,6.021-6.289c0.981-2.063,1.46-5.088,1.46-9.102v-3.351L412.086,625.879
	L412.086,625.879z M470.201,652.822v-6.787c-3.398,5.332-8.398,7.988-15,7.988c-4.297,0-8.213-1.173-11.816-3.535
	c-3.579-2.363-6.366-5.646-8.34-9.883c-1.968-4.22-2.959-9.082-2.959-14.57c0-5.371,0.898-10.215,2.69-14.59
	c1.781-4.365,4.458-7.705,8.042-10.039c3.56-2.314,7.559-3.486,11.968-3.486c3.228,0,6.118,0.674,8.638,2.051
	c2.539,1.357,4.59,3.135,6.172,5.332v-26.592h9.043v74.102h-8.438V652.822L470.201,652.822z M441.446,626.035
	c0,6.885,1.45,12.012,4.351,15.41c2.9,3.418,6.318,5.117,10.265,5.117c3.965,0,7.344-1.621,10.127-4.873
	c2.782-3.252,4.17-8.214,4.17-14.894c0-7.345-1.427-12.726-4.238-16.172c-2.832-3.438-6.328-5.156-10.469-5.156
	c-4.043,0-7.422,1.649-10.146,4.961C442.808,613.721,441.446,618.926,441.446,626.035z M489.566,625.996
	c0-9.941,2.764-17.305,8.291-22.09c4.608-3.976,10.233-5.978,16.875-5.978c7.373,0,13.418,2.422,18.096,7.267
	c4.688,4.824,7.021,11.504,7.021,20.039c0,6.895-1.034,12.334-3.104,16.289c-2.08,3.965-5.088,7.051-9.043,9.237
	c-3.965,2.188-8.281,3.281-12.969,3.281c-7.521,0-13.584-2.402-18.224-7.228C491.881,641.992,489.566,635.049,489.566,625.996
	L489.566,625.996z M498.912,625.996c0,6.875,1.504,12.012,4.502,15.43s6.787,5.137,11.338,5.137c4.502,0,8.262-1.719,11.271-5.156
	c2.987-3.446,4.481-8.672,4.481-15.723c0-6.631-1.494-11.66-4.521-15.078c-3.019-3.438-6.769-5.146-11.23-5.146
	c-4.551,0-8.34,1.709-11.338,5.106C500.417,613.965,498.912,619.111,498.912,625.996z M550.533,652.822V599.14h8.184v7.638
	c3.945-5.898,9.64-8.849,17.09-8.849c3.224,0,6.201,0.586,8.927,1.748c2.715,1.162,4.746,2.687,6.084,4.57s2.295,4.131,2.832,6.729
	c0.321,1.681,0.498,4.63,0.498,8.849v33.008h-9.093v-32.656c0-3.711-0.342-6.475-1.063-8.32c-0.693-1.836-1.953-3.301-3.75-4.385
	c-1.816-1.084-3.937-1.641-6.348-1.641c-3.888,0-7.228,1.229-10.039,3.682c-2.813,2.461-4.229,7.129-4.229,14.004v29.316h-9.092
	V652.822z M62.735,859.238v-94.68h20.072v7.529H71.846v79.609h10.973v7.537H62.735V859.238L62.735,859.238z M136.588,829.922v8.74
	h-48.97c-0.081-2.156,0.279-4.308,1.06-6.318c1.24-3.34,3.237-6.621,5.986-9.854c2.744-3.242,6.714-6.982,11.904-11.223
	c8.047-6.609,13.496-11.836,16.328-15.684c2.821-3.867,4.237-7.521,4.237-10.957c0-3.594-1.289-6.65-3.867-9.121
	c-2.583-2.48-5.941-3.721-10.083-3.721c-4.38,0-7.886,1.316-10.518,3.955c-2.632,2.627-3.95,6.26-3.989,10.906l-9.351-0.967
	c0.63-6.963,3.052-12.285,7.23-15.938c4.181-3.672,9.785-5.498,16.836-5.498c7.109,0,12.734,1.973,16.881,5.928
	c4.149,3.945,6.221,8.828,6.221,14.648c0,2.969-0.61,5.879-1.821,8.75c-1.216,2.869-3.228,5.879-6.035,9.043
	c-2.813,3.164-7.489,7.52-14.022,13.047c-5.459,4.568-8.96,7.693-10.519,9.326c-1.563,1.631-2.832,3.279-3.843,4.932h36.334V829.922
	L136.588,829.922z M194.156,829.922v8.74h-48.97c-0.068-2.197,0.277-4.309,1.06-6.318c1.24-3.34,3.242-6.621,5.991-9.854
	c2.739-3.242,6.709-6.982,11.898-11.223c8.053-6.609,13.501-11.836,16.328-15.684c2.822-3.867,4.243-7.521,4.243-10.957
	c0-3.594-1.294-6.65-3.872-9.121c-2.578-2.48-5.938-3.721-10.078-3.721c-4.38,0-7.891,1.316-10.521,3.955
	c-2.627,2.627-3.96,6.27-3.989,10.918l-9.351-0.957c0.63-6.975,3.052-12.295,7.23-15.957c4.18-3.652,9.79-5.488,16.841-5.488
	c7.109,0,12.729,1.973,16.88,5.918c4.15,3.955,6.222,8.828,6.222,14.668c0,2.949-0.61,5.879-1.821,8.73
	c-1.221,2.869-3.232,5.879-6.04,9.063c-2.813,3.154-7.49,7.5-14.019,13.027c-5.465,4.59-8.96,7.705-10.522,9.336
	c-1.558,1.631-2.832,3.279-3.838,4.932h36.328V829.922L194.156,829.922z M251.724,829.922v8.74h-48.97
	c-0.077-2.156,0.284-4.307,1.061-6.318c1.239-3.34,3.241-6.621,5.99-9.854c2.739-3.242,6.709-6.982,11.899-11.223
	c8.052-6.609,13.501-11.836,16.333-15.684c2.817-3.867,4.238-7.521,4.238-10.957c0-3.594-1.289-6.65-3.872-9.121
	c-2.578-2.48-5.938-3.721-10.078-3.721c-4.38,0-7.891,1.316-10.519,3.955c-2.632,2.627-3.96,6.27-3.993,10.918l-9.347-0.957
	c0.63-6.975,3.047-12.295,7.228-15.957c4.18-3.652,9.79-5.488,16.841-5.488c7.109,0,12.729,1.973,16.88,5.918
	c4.15,3.955,6.221,8.828,6.221,14.668c0,2.949-0.609,5.879-1.82,8.73c-1.222,2.869-3.229,5.879-6.04,9.063
	c-2.809,3.154-7.49,7.5-14.02,13.027c-5.459,4.59-8.96,7.705-10.521,9.336c-1.559,1.631-2.827,3.279-3.838,4.932h36.327V829.922
	L251.724,829.922z M279.234,859.238h-20.068v-7.539h10.972V772.09h-10.972v-7.529h20.068V859.238z M289.918,440.332V255.439h78.569
	c19.761,0,34.105,1.67,43.07,4.99c8.961,3.32,16.118,9.229,21.499,17.71c5.382,8.501,8.081,18.198,8.081,29.131
	c0,13.882-4.082,25.327-12.24,34.37c-8.149,9.038-20.353,14.741-36.572,17.09c8.071,4.717,14.73,9.879,19.99,15.518
	c5.249,5.63,12.329,15.63,21.25,30.01l22.572,36.074h-44.643l-26.988-40.234c-9.59-14.375-16.143-23.438-19.683-27.178
	c-3.53-3.74-7.271-6.299-11.221-7.7c-3.96-1.392-10.21-2.08-18.789-2.08h-7.568v77.192H289.918L289.918,440.332z M327.257,333.628
	h27.622c17.905,0,29.087-0.747,33.535-2.271c4.463-1.509,7.954-4.116,10.474-7.817c2.521-3.691,3.789-8.32,3.789-13.872
	c0-6.221-1.659-11.25-4.979-15.078c-3.33-3.818-8.022-6.24-14.059-7.251c-3.031-0.42-12.113-0.63-27.251-0.63h-29.131V333.628z
	 M597.896,440.332h-35.439v-68.359c0-14.453-0.762-23.813-2.275-28.062c-1.522-4.253-3.965-7.554-7.372-9.902
	c-3.408-2.348-7.511-3.53-12.296-3.53c-6.133,0-11.641,1.68-16.522,5.039c-4.873,3.374-8.213,7.822-10.021,13.374
	c-1.815,5.547-2.715,15.811-2.715,30.767v60.664h-35.439V306.402h32.91v19.678c11.688-15.142,26.416-22.71,44.141-22.71
	c7.822,0,14.971,1.411,21.455,4.229c6.465,2.813,11.367,6.411,14.688,10.781c3.321,4.37,5.625,9.331,6.935,14.883
	c1.309,5.547,1.953,13.496,1.953,23.828L597.896,440.332L597.896,440.332z M859.537,99.541v7.588h-42.5
	c-0.066-1.899,0.234-3.73,0.918-5.479c1.074-2.9,2.813-5.752,5.195-8.55c2.383-2.808,5.84-6.05,10.332-9.751
	c6.992-5.732,11.719-10.259,14.18-13.608c2.441-3.35,3.672-6.509,3.672-9.502c0-3.13-1.111-5.767-3.35-7.92
	c-2.246-2.148-5.156-3.218-8.76-3.218c-3.799,0-6.836,1.138-9.121,3.428c-2.275,2.28-3.438,5.439-3.467,9.473l-8.115-0.84
	c0.557-6.045,2.646-10.664,6.27-13.843c3.623-3.169,8.496-4.761,14.609-4.761c6.172,0,11.045,1.709,14.658,5.132
	c3.584,3.433,5.381,7.671,5.381,12.72c0,2.578-0.527,5.107-1.563,7.588c-1.055,2.49-2.803,5.112-5.232,7.852
	c-2.441,2.749-6.504,6.523-12.188,11.318c-4.734,3.975-7.771,6.68-9.121,8.101c-1.348,1.421-2.461,2.842-3.34,4.282h31.543V99.541
	L859.537,99.541z M830.201,162.1c-3.281-1.201-5.703-2.91-7.295-5.142c-1.572-2.217-2.354-4.878-2.354-7.979
	c0-4.678,1.68-8.608,5.039-11.812c3.357-3.179,7.832-4.775,13.418-4.775c5.625,0,10.146,1.626,13.555,4.888
	c3.418,3.262,5.137,7.231,5.137,11.899c0,2.988-0.781,5.591-2.344,7.793c-1.563,2.197-3.945,3.906-7.129,5.107
	c3.965,1.289,6.953,3.359,9.004,6.23c2.07,2.861,3.104,6.289,3.104,10.259c0,5.503-1.941,10.122-5.828,13.862
	c-3.896,3.75-9.016,5.62-15.361,5.62c-6.338,0-11.465-1.88-15.354-5.63c-3.887-3.76-5.829-8.452-5.829-14.063
	c0-4.18,1.046-7.681,3.185-10.498C823.258,165.049,826.275,163.13,830.201,162.1L830.201,162.1z M826.061,178.418
	c0,2.261,0.537,4.434,1.602,6.533c1.064,2.109,2.666,3.74,4.768,4.888c2.081,1.146,4.421,1.743,6.797,1.733
	c3.777,0,6.895-1.211,9.354-3.633c2.461-2.432,3.691-5.518,3.691-9.258c0-3.804-1.271-6.943-3.811-9.434
	c-2.52-2.48-5.684-3.73-9.49-3.73c-3.711,0-6.797,1.23-9.238,3.691C827.291,171.66,826.061,174.741,826.061,178.418z M828.6,148.721
	c0,3.037,0.996,5.527,2.949,7.451c1.951,1.929,4.49,2.9,7.637,2.9c3.047,0,5.547-0.962,7.479-2.871
	c1.935-1.909,2.92-4.272,2.92-7.041c0-2.9-1.006-5.332-3.008-7.3c-2.002-1.968-4.502-2.959-7.479-2.959
	c-3.02,0-5.52,0.957-7.5,2.891C829.605,143.721,828.6,146.03,828.6,148.721L828.6,148.721z M797.808,286.812h-7.891v-50.313
	c-1.904,1.812-4.385,3.623-7.479,5.439c-3.097,1.812-5.859,3.169-8.312,4.072v-7.632c4.414-2.08,8.271-4.59,11.582-7.549
	c3.301-2.949,5.635-5.82,7.012-8.589h5.088V286.812z M830.182,251.929c-3.264-1.196-5.693-2.91-7.285-5.137
	c-1.572-2.222-2.363-4.883-2.363-7.983c0-4.678,1.68-8.608,5.039-11.807c3.379-3.184,7.842-4.78,13.438-4.78
	c5.613,0,10.137,1.626,13.545,4.888c3.406,3.262,5.146,7.231,5.146,11.899c0,2.993-0.801,5.591-2.354,7.793
	c-1.563,2.197-3.938,3.906-7.129,5.107c3.955,1.289,6.941,3.359,9.014,6.23c2.07,2.861,3.096,6.289,3.096,10.259
	c0,5.503-1.941,10.122-5.83,13.862c-3.904,3.75-9.014,5.62-15.359,5.62c-6.338,0-11.455-1.88-15.354-5.63
	c-3.887-3.76-5.83-8.452-5.83-14.063c0-4.18,1.057-7.681,3.186-10.498C823.248,254.878,826.266,252.959,830.182,251.929
	L830.182,251.929z M826.061,268.252c0,2.256,0.525,4.429,1.602,6.528c1.057,2.109,2.656,3.74,4.756,4.888
	c2.082,1.146,4.422,1.742,6.797,1.733c3.779,0,6.887-1.211,9.348-3.633c2.461-2.427,3.689-5.518,3.689-9.258
	c0-3.799-1.27-6.938-3.789-9.429c-2.539-2.48-5.701-3.73-9.512-3.73c-3.711,0-6.787,1.23-9.219,3.688
	C827.271,261.489,826.061,264.57,826.061,268.252L826.061,268.252z M828.6,238.55c0,3.042,0.984,5.532,2.93,7.451
	c1.973,1.929,4.512,2.9,7.646,2.9c3.035,0,5.535-0.962,7.479-2.871c1.943-1.909,2.92-4.272,2.92-7.041c0-2.9-1.016-5.327-3.008-7.3
	c-2.002-1.968-4.502-2.959-7.48-2.959c-3.025,0-5.525,0.957-7.5,2.891C829.596,233.55,828.6,235.86,828.6,238.55z M768.111,359.678
	l7.91-1.05c0.897,4.473,2.44,7.7,4.629,9.673c2.178,1.968,4.823,2.959,7.948,2.959c3.712,0,6.865-1.279,9.414-3.857
	c2.56-2.573,3.849-5.762,3.849-9.561c0-3.623-1.191-6.621-3.556-8.97c-2.362-2.354-5.381-3.53-9.043-3.53
	c-1.483,0-3.34,0.288-5.565,0.879l0.879-6.929c0.527,0.059,0.957,0.088,1.27,0.088c3.359,0,6.388-0.879,9.082-2.642
	c2.695-1.748,4.023-4.448,4.023-8.12c0-2.886-0.978-5.288-2.93-7.188c-1.953-1.9-4.492-2.852-7.599-2.852
	c-3.065,0-5.625,0.962-7.676,2.891c-2.051,1.929-3.359,4.819-3.945,8.691l-7.909-1.411c0.977-5.288,3.163-9.39,6.581-12.3
	c3.419-2.91,7.677-4.37,12.765-4.37c3.506,0,6.738,0.752,9.697,2.261c2.948,1.499,5.215,3.56,6.775,6.157
	c1.563,2.612,2.346,5.371,2.346,8.291c0,2.783-0.742,5.313-2.246,7.593c-1.484,2.29-3.691,4.097-6.621,5.439
	c3.809,0.879,6.768,2.71,8.867,5.469c2.107,2.759,3.164,6.221,3.164,10.371c0,5.62-2.053,10.366-6.145,14.277
	c-4.103,3.911-9.287,5.859-15.537,5.859c-5.635,0-10.322-1.68-14.053-5.049C770.768,369.38,768.638,365.029,768.111,359.678z
	 M859.527,369.063v7.588h-42.5c-0.068-1.899,0.244-3.73,0.918-5.479c1.084-2.9,2.813-5.752,5.205-8.55
	c2.383-2.813,5.82-6.05,10.332-9.751c6.981-5.732,11.699-10.264,14.16-13.613c2.451-3.35,3.682-6.509,3.682-9.497
	c0-3.13-1.104-5.771-3.35-7.92c-2.246-2.153-5.156-3.223-8.761-3.223c-3.8,0-6.837,1.143-9.12,3.433
	c-2.275,2.28-3.438,5.439-3.469,9.468l-8.125-0.84c0.566-6.04,2.656-10.659,6.289-13.838c3.613-3.169,8.486-4.761,14.59-4.761
	c6.174,0,11.057,1.709,14.67,5.132c3.594,3.428,5.391,7.666,5.391,12.72c0,2.578-0.527,5.107-1.572,7.588
	c-1.045,2.49-2.803,5.112-5.244,7.852c-2.439,2.749-6.494,6.519-12.178,11.318c-4.736,3.97-7.764,6.68-9.121,8.101
	c-1.348,1.421-2.451,2.842-3.34,4.282h31.543V369.063z M797.808,466.484h-7.891v-50.313c-1.904,1.807-4.385,3.618-7.479,5.439
	c-3.097,1.807-5.859,3.169-8.312,4.067v-7.627c4.414-2.08,8.271-4.59,11.582-7.554c3.301-2.949,5.635-5.82,7.012-8.589h5.088
	V466.484z M830.182,431.612c-3.264-1.201-5.693-2.91-7.285-5.142c-1.572-2.222-2.363-4.878-2.363-7.979
	c0-4.683,1.68-8.613,5.039-11.812c3.379-3.179,7.842-4.78,13.438-4.78c5.613,0,10.137,1.631,13.545,4.893
	c3.406,3.257,5.146,7.227,5.146,11.899c0,2.988-0.801,5.586-2.354,7.788c-1.563,2.202-3.938,3.911-7.129,5.112
	c3.955,1.289,6.941,3.359,9.014,6.23c2.07,2.856,3.096,6.289,3.096,10.259c0,5.498-1.941,10.121-5.83,13.853
	c-3.904,3.75-9.014,5.625-15.359,5.625c-6.338,0-11.455-1.875-15.354-5.625c-3.887-3.77-5.83-8.452-5.83-14.063
	c0-4.18,1.057-7.681,3.186-10.503C823.248,434.561,826.266,432.642,830.182,431.612L830.182,431.612z M826.061,447.93
	c0,2.261,0.525,4.43,1.602,6.528c1.057,2.114,2.656,3.745,4.756,4.897c2.085,1.137,4.424,1.728,6.797,1.719
	c3.779,0,6.887-1.211,9.348-3.623c2.461-2.433,3.689-5.522,3.689-9.263c0-3.799-1.27-6.938-3.789-9.429
	c-2.539-2.48-5.701-3.73-9.512-3.73c-3.711,0-6.787,1.23-9.219,3.691C827.271,441.172,826.061,444.248,826.061,447.93
	L826.061,447.93z M828.6,418.233c0,3.037,0.984,5.527,2.93,7.446c1.973,1.929,4.512,2.9,7.646,2.9c3.035,0,5.535-0.957,7.479-2.871
	c1.943-1.909,2.92-4.268,2.92-7.036c0-2.9-1.016-5.332-3.008-7.3c-2.002-1.973-4.502-2.964-7.48-2.964
	c-3.025,0-5.525,0.962-7.5,2.891C829.596,413.233,828.6,415.542,828.6,418.233z M830.201,521.465
	c-3.281-1.211-5.703-2.91-7.295-5.146c-1.572-2.217-2.354-4.873-2.354-7.979c0-4.678,1.68-8.613,5.039-11.816
	c3.357-3.174,7.832-4.774,13.418-4.774c5.625,0,10.146,1.631,13.555,4.893c3.418,3.263,5.137,7.228,5.137,11.896
	c0,2.988-0.781,5.596-2.344,7.793c-1.563,2.207-3.945,3.906-7.129,5.117c3.965,1.289,6.953,3.358,9.004,6.229
	c2.07,2.853,3.104,6.289,3.104,10.254c0,5.498-1.941,10.117-5.828,13.867c-3.896,3.75-9.016,5.614-15.361,5.614
	c-6.338,0-11.465-1.885-15.354-5.635c-3.887-3.76-5.829-8.446-5.829-14.063c0-4.18,1.046-7.676,3.185-10.488
	C823.258,524.395,826.275,522.48,830.201,521.465L830.201,521.465z M826.061,537.773c0,2.256,0.537,4.424,1.602,6.523
	c1.064,2.109,2.666,3.75,4.768,4.893c2.081,1.146,4.421,1.74,6.797,1.729c3.777,0,6.895-1.211,9.354-3.634
	c2.46-2.422,3.691-5.518,3.691-9.258c0-3.799-1.271-6.934-3.811-9.434c-2.52-2.48-5.684-3.73-9.49-3.73
	c-3.711,0-6.797,1.23-9.238,3.691S826.061,534.092,826.061,537.773L826.061,537.773z M828.6,508.086
	c0,3.027,0.996,5.527,2.949,7.441c1.951,1.934,4.49,2.899,7.637,2.899c3.047,0,5.547-0.957,7.479-2.86
	c1.936-1.914,2.92-4.277,2.92-7.052c0-2.891-1.006-5.332-3.008-7.295c-2.002-1.973-4.502-2.959-7.479-2.959
	c-3.02,0-5.52,0.957-7.5,2.892C829.605,503.086,828.6,505.381,828.6,508.086L828.6,508.086z"/>
</svg>
