<?xml version="1.0" encoding="utf-8"?>
<!-- Generator: Adobe Illustrator 16.0.3, SVG Export Plug-In . SVG Version: 6.00 Build 0)  -->
<!DOCTYPE svg PUBLIC "-//W3C//DTD SVG 1.1//EN" "http://www.w3.org/Graphics/SVG/1.1/DTD/svg11.dtd">
<svg version="1.1" id="Layer_1" xmlns="http://www.w3.org/2000/svg" xmlns:xlink="http://www.w3.org/1999/xlink" x="0px" y="0px"
	 width="900px" height="900px" viewBox="0 0 900 900" enable-background="new 0 0 900 900" xml:space="preserve">
<path d="M61.108,92.8c-5.742-2.1-10-5.098-12.764-8.994c-2.764-3.896-4.15-8.555-4.15-13.994c0-8.193,2.949-15.088,8.838-20.674
	c5.898-5.586,13.74-8.379,23.525-8.379c9.844,0,17.764,2.852,23.76,8.564c5.996,5.723,8.994,12.676,8.994,20.879
	c0,5.225-1.377,9.775-4.111,13.643c-2.744,3.867-6.914,6.855-12.5,8.955c6.924,2.256,12.188,5.898,15.801,10.918
	c3.613,5.029,5.42,11.025,5.42,17.988c0,9.639-3.408,17.734-10.225,24.297c-6.817,6.563-15.781,9.844-26.904,9.844
	s-20.098-3.291-26.914-9.883c-6.816-6.582-10.225-14.795-10.225-24.639c0-7.324,1.865-13.467,5.576-18.408
	C48.95,97.966,54.243,94.597,61.108,92.8z M53.882,121.404c0,3.945,0.938,7.764,2.803,11.455c1.875,3.691,4.648,6.543,8.34,8.574
	c3.691,2.021,7.666,3.037,11.924,3.037c6.611,0,12.07-2.129,16.367-6.387c4.307-4.248,6.465-9.658,6.465-16.221
	c0-6.66-2.217-12.168-6.65-16.523c-4.433-4.355-9.98-6.543-16.65-6.543c-6.504,0-11.904,2.158-16.182,6.465
	C56.021,109.568,53.882,114.949,53.882,121.404L53.882,121.404z M58.335,69.353c0,5.332,1.719,9.688,5.156,13.076
	c3.428,3.379,7.891,5.068,13.379,5.068c5.332,0,9.697-1.68,13.105-5.039c3.408-3.35,5.117-7.461,5.117-12.334
	c0-5.078-1.758-9.346-5.273-12.803c-3.506-3.457-7.881-5.187-13.105-5.187c-5.283,0-9.658,1.689-13.145,5.068
	C60.083,60.593,58.335,64.636,58.335,69.353z M128.306,55.974V42.673h72.959v10.771c-7.178,7.637-14.287,17.783-21.338,30.439
	c-7.051,12.656-12.49,25.684-16.338,39.053c-2.764,9.434-4.531,19.766-5.303,30.986h-14.219c0.146-8.867,1.895-19.58,5.225-32.139
	c3.33-12.559,8.105-24.658,14.336-36.328c6.23-11.65,12.852-21.484,19.873-29.482L128.306,55.974L128.306,55.974z M241.577,652.834
	v-74.102h49.98v8.75h-40.176v22.948h34.775v8.73h-34.775v33.672L241.577,652.834L241.577,652.834z M303.032,652.834v-53.691h8.193
	v8.146c2.09-3.81,4.014-6.31,5.781-7.539c1.777-1.211,3.721-1.816,5.84-1.816c3.066,0,6.182,0.978,9.355,2.931l-3.135,8.457
	c-2.227-1.328-4.453-1.974-6.67-1.974c-1.992,0-3.779,0.586-5.361,1.797c-1.582,1.191-2.715,2.853-3.389,4.962
	c-1.006,3.241-1.514,6.776-1.514,10.625v28.104L303.032,652.834L303.032,652.834z M372.642,646.213
	c-3.379,2.853-6.621,4.883-9.736,6.055c-3.115,1.191-6.455,1.777-10.029,1.777c-5.898,0-10.43-1.445-13.594-4.316
	c-3.174-2.891-4.756-6.563-4.756-11.055c0-2.617,0.596-5.02,1.797-7.207c1.191-2.168,2.764-3.906,4.697-5.215
	c1.934-1.328,4.121-2.324,6.543-2.988c1.787-0.469,4.482-0.938,8.086-1.366c7.354-0.88,12.754-1.914,16.23-3.125
	c0.029-1.25,0.049-2.052,0.049-2.384c0-3.711-0.859-6.328-2.578-7.832c-2.324-2.051-5.781-3.086-10.361-3.086
	c-4.277,0-7.441,0.742-9.473,2.246c-2.041,1.504-3.555,4.16-4.531,7.969l-8.896-1.211c0.811-3.809,2.148-6.895,3.994-9.237
	c1.855-2.345,4.531-4.142,8.037-5.41c3.506-1.25,7.568-1.896,12.188-1.896c4.58,0,8.301,0.548,11.172,1.621
	c2.861,1.074,4.961,2.441,6.309,4.063c1.348,1.641,2.295,3.711,2.832,6.19c0.303,1.563,0.459,4.355,0.459,8.398v12.129
	c0,8.457,0.195,13.809,0.576,16.055c0.398,2.264,1.178,4.442,2.305,6.445h-9.502C373.511,650.939,372.905,648.732,372.642,646.213
	L372.642,646.213z M371.88,625.881c-3.301,1.348-8.262,2.5-14.863,3.438c-3.74,0.547-6.387,1.151-7.93,1.836
	c-1.553,0.664-2.754,1.659-3.594,2.948c-0.84,1.289-1.26,2.734-1.26,4.316c0,2.422,0.918,4.453,2.754,6.074s4.521,2.422,8.057,2.422
	c3.506,0,6.621-0.762,9.355-2.305c2.725-1.523,4.736-3.634,6.016-6.289c0.977-2.052,1.465-5.078,1.465-9.103V625.881L371.88,625.881
	z M395.181,652.834v-53.691h8.184v7.638c3.944-5.898,9.639-8.849,17.09-8.849c3.231,0,6.201,0.586,8.916,1.759
	c2.715,1.151,4.746,2.676,6.094,4.569c1.348,1.875,2.285,4.121,2.832,6.719c0.332,1.681,0.498,4.63,0.498,8.849v33.008h-9.092
	v-32.656c0-3.711-0.353-6.483-1.064-8.319c-0.703-1.836-1.963-3.302-3.76-4.396c-1.807-1.094-3.926-1.641-6.348-1.641
	c-3.877,0-7.218,1.229-10.029,3.69c-2.822,2.461-4.229,7.129-4.229,14.004v29.316H395.181L395.181,652.834z M487.778,633.166
	l8.944,1.172c-0.977,6.152-3.485,10.978-7.51,14.473c-4.023,3.496-8.975,5.234-14.834,5.234c-7.344,0-13.252-2.402-17.715-7.207
	s-6.699-11.68-6.699-20.645c0-5.802,0.957-10.859,2.881-15.215c1.924-4.356,4.844-7.617,8.771-9.785
	c3.926-2.168,8.192-3.263,12.813-3.263c5.83,0,10.597,1.484,14.308,4.435c3.7,2.949,6.084,7.129,7.129,12.559l-8.849,1.367
	c-0.84-3.613-2.334-6.328-4.473-8.145c-2.139-1.817-4.727-2.734-7.764-2.734c-4.58,0-8.302,1.641-11.162,4.941
	c-2.871,3.28-4.297,8.477-4.297,15.586c0,7.207,1.377,12.461,4.141,15.723s6.367,4.902,10.82,4.902c3.563,0,6.553-1.095,8.944-3.281
	C485.619,641.096,487.134,637.717,487.778,633.166z M504.556,589.201v-10.469h9.103v10.469H504.556z M504.556,652.834v-53.691h9.103
	v53.691H504.556z M562.681,652.834v-7.891c-4.18,6.073-9.854,9.102-17.03,9.102c-3.175,0-6.123-0.604-8.877-1.816
	c-2.744-1.211-4.785-2.733-6.113-4.59c-1.328-1.836-2.267-4.082-2.803-6.737c-0.371-1.777-0.558-4.609-0.558-8.496v-33.263h9.103
	v29.785c0,4.746,0.186,7.949,0.557,9.59c0.566,2.402,1.777,4.277,3.633,5.646c1.856,1.368,4.15,2.051,6.875,2.051
	c2.734,0,5.293-0.703,7.687-2.108c2.393-1.388,4.082-3.302,5.077-5.703c0.996-2.402,1.494-5.898,1.494-10.488v-28.77h9.093v53.69
	L562.681,652.834L562.681,652.834z M585.073,652.834v-53.691h8.135v7.539c1.689-2.637,3.926-4.746,6.719-6.348
	c2.804-1.602,5.986-2.402,9.562-2.402c3.975,0,7.235,0.841,9.774,2.48c2.55,1.66,4.336,3.965,5.381,6.934
	c4.248-6.27,9.775-9.414,16.582-9.414c5.322,0,9.414,1.484,12.285,4.435c2.861,2.949,4.297,7.479,4.297,13.612v36.855h-9.053
	v-33.828c0-3.633-0.293-6.25-0.879-7.852c-0.596-1.603-1.66-2.892-3.213-3.867c-1.554-0.977-3.369-1.465-5.459-1.465
	c-3.771,0-6.904,1.25-9.404,3.77c-2.49,2.5-3.74,6.523-3.74,12.051v31.191h-9.092v-34.883c0-4.043-0.742-7.07-2.227-9.103
	c-1.484-2.012-3.906-3.026-7.275-3.026c-2.567,0-4.932,0.684-7.108,2.031c-2.169,1.348-3.74,3.301-4.728,5.897
	c-0.977,2.598-1.465,6.348-1.465,11.23v27.852L585.073,652.834L585.073,652.834z M62.759,859.24v-94.668h20.068v7.52H71.86v79.609
	h10.967v7.539H62.759L62.759,859.24z M136.606,829.924v8.75H87.632c-0.074-2.159,0.288-4.312,1.064-6.328
	c1.24-3.34,3.242-6.621,5.986-9.844c2.744-3.242,6.709-6.992,11.904-11.229c8.047-6.603,13.496-11.837,16.328-15.685
	c2.822-3.867,4.238-7.52,4.238-10.957c0-3.594-1.289-6.641-3.867-9.121c-2.578-2.479-5.938-3.711-10.078-3.711
	c-4.385,0-7.891,1.31-10.518,3.945c-2.627,2.617-3.955,6.27-3.994,10.918l-9.346-0.957c0.635-6.973,3.047-12.305,7.227-15.957
	c4.18-3.652,9.785-5.488,16.836-5.488c7.109,0,12.734,1.974,16.875,5.918c4.15,3.945,6.221,8.828,6.221,14.669
	c0,2.948-0.605,5.879-1.816,8.729c-1.221,2.871-3.232,5.879-6.045,9.063c-2.813,3.163-7.49,7.5-14.023,13.026
	c-5.459,4.59-8.965,7.695-10.518,9.336c-1.553,1.621-2.832,3.281-3.838,4.922H136.606L136.606,829.924z M194.175,829.924v8.75H145.2
	c-0.075-2.159,0.287-4.312,1.064-6.328c1.24-3.34,3.242-6.621,5.986-9.844c2.744-3.242,6.709-6.992,11.904-11.229
	c8.047-6.603,13.496-11.837,16.328-15.685c2.822-3.867,4.238-7.52,4.238-10.957c0-3.594-1.289-6.641-3.867-9.121
	c-2.578-2.479-5.938-3.711-10.078-3.711c-4.385,0-7.891,1.31-10.518,3.945c-2.627,2.617-3.955,6.27-3.994,10.918l-9.346-0.957
	c0.635-6.973,3.047-12.305,7.227-15.957s9.785-5.488,16.836-5.488c7.109,0,12.734,1.974,16.875,5.918
	c4.15,3.945,6.221,8.828,6.221,14.669c0,2.948-0.605,5.879-1.816,8.729c-1.221,2.871-3.232,5.879-6.045,9.063
	c-2.813,3.163-7.49,7.5-14.023,13.026c-5.459,4.59-8.965,7.695-10.518,9.336c-1.553,1.621-2.832,3.281-3.838,4.922H194.175
	L194.175,829.924z M203.979,819.104l9.102-1.211c1.045,5.156,2.822,8.867,5.332,11.152c2.51,2.266,5.566,3.398,9.17,3.398
	c4.277,0,7.891-1.466,10.84-4.435c2.949-2.969,4.424-6.641,4.424-11.016c0-4.181-1.357-7.638-4.092-10.353
	c-2.725-2.715-6.201-4.063-10.41-4.063c-1.719,0-3.857,0.332-6.416,1.016l1.006-7.987c0.487,0.054,0.976,0.087,1.465,0.098
	c3.877,0,7.363-1.016,10.469-3.027c3.096-2.03,4.648-5.137,4.648-9.354c0-3.34-1.133-6.094-3.389-8.281
	c-2.256-2.207-5.176-3.301-8.74-3.301c-3.545,0-6.494,1.113-8.848,3.34c-2.363,2.227-3.877,5.566-4.551,10.02l-9.102-1.62
	c1.113-6.095,3.643-10.82,7.588-14.181c3.936-3.358,8.838-5.039,14.707-5.039c4.043,0,7.764,0.879,11.172,2.617
	c3.398,1.738,6.006,4.103,7.803,7.09c1.807,3.009,2.705,6.191,2.705,9.552c0,3.202-0.859,6.112-2.578,8.75
	c-1.719,2.637-4.258,4.727-7.627,6.27c4.375,1.017,7.783,3.105,10.205,6.289c2.432,3.185,3.643,7.168,3.643,11.953
	c0,6.465-2.363,11.953-7.08,16.465c-4.717,4.492-10.684,6.738-17.891,6.738c-6.504,0-11.904-1.935-16.201-5.82
	C207.036,830.295,204.585,825.275,203.979,819.104L203.979,819.104z M279.253,859.24h-20.068v-7.539h10.967v-79.609h-10.967v-7.52
	h20.068V859.24z M331.431,440.349V255.457h126.748v31.279h-89.414v43.77h77.178v31.271h-77.178v78.573L331.431,440.349
	L331.431,440.349z M522.622,440.349h-35.439V306.414h32.921v19.043c5.635-8.994,10.702-14.922,15.194-17.783
	c4.502-2.861,9.609-4.287,15.322-4.287c8.076,0,15.85,2.227,23.34,6.68l-10.977,30.897c-5.968-3.856-11.523-5.801-16.65-5.801
	c-4.961,0-9.16,1.367-12.606,4.102c-3.447,2.735-6.162,7.677-8.136,14.824c-1.981,7.14-2.969,22.109-2.969,44.894V440.349
	L522.622,440.349z M859.556,99.539v7.588h-42.5c-0.067-1.904,0.244-3.73,0.918-5.479c1.084-2.9,2.813-5.752,5.195-8.555
	c2.383-2.813,5.83-6.055,10.332-9.746c6.992-5.732,11.709-10.264,14.17-13.613c2.451-3.35,3.683-6.514,3.683-9.502
	c0-3.125-1.113-5.771-3.351-7.92c-2.246-2.148-5.156-3.223-8.76-3.223c-3.799,0-6.836,1.143-9.121,3.428
	c-2.275,2.275-3.438,5.439-3.467,9.473l-8.115-0.84c0.557-6.045,2.646-10.664,6.279-13.838c3.623-3.174,8.485-4.756,14.6-4.756
	c6.172,0,11.055,1.709,14.658,5.127c3.594,3.428,5.391,7.666,5.391,12.725c0,2.578-0.526,5.107-1.571,7.588
	c-1.056,2.49-2.804,5.107-5.244,7.852c-2.441,2.754-6.504,6.523-12.179,11.318c-4.735,3.975-7.772,6.68-9.12,8.096
	c-1.349,1.416-2.461,2.842-3.341,4.277H859.556z M830.21,162.097c-3.271-1.201-5.703-2.91-7.285-5.137
	c-1.571-2.217-2.362-4.883-2.362-7.979c0-4.678,1.68-8.613,5.039-11.807c3.368-3.184,7.842-4.775,13.428-4.775
	c5.615,0,10.137,1.631,13.555,4.893s5.137,7.227,5.137,11.904c0,2.988-0.791,5.586-2.354,7.793
	c-1.563,2.207-3.937,3.906-7.129,5.107c3.955,1.289,6.953,3.359,9.014,6.23c2.07,2.861,3.096,6.289,3.096,10.264
	c0,5.498-1.942,10.117-5.83,13.857c-3.896,3.75-9.014,5.615-15.36,5.615c-6.338,0-11.455-1.875-15.353-5.635
	c-3.887-3.76-5.83-8.447-5.83-14.063c0-4.18,1.056-7.676,3.185-10.498C823.276,165.046,826.294,163.123,830.21,162.097z
	 M826.089,178.416c0,2.256,0.527,4.434,1.603,6.533c1.063,2.109,2.655,3.74,4.756,4.893c2.081,1.146,4.421,1.741,6.797,1.729
	c3.779,0,6.895-1.211,9.346-3.633c2.461-2.432,3.691-5.518,3.691-9.258c0-3.799-1.271-6.943-3.799-9.434
	c-2.529-2.48-5.693-3.73-9.502-3.73c-3.712,0-6.787,1.23-9.229,3.691C827.31,171.658,826.089,174.734,826.089,178.416
	L826.089,178.416z M828.628,148.718c0,3.037,0.986,5.527,2.939,7.451c1.963,1.934,4.502,2.9,7.637,2.9
	c3.037,0,5.537-0.957,7.479-2.871c1.943-1.914,2.921-4.268,2.921-7.041c0-2.9-1.007-5.332-3.009-7.305s-4.502-2.959-7.479-2.959
	c-3.019,0-5.519,0.957-7.5,2.891C829.624,143.718,828.628,146.023,828.628,148.718L828.628,148.718z M797.827,286.804h-7.892
	v-50.313c-1.903,1.807-4.395,3.623-7.479,5.439c-3.086,1.807-5.859,3.174-8.311,4.072v-7.627c4.413-2.08,8.271-4.59,11.581-7.549
	c3.302-2.949,5.646-5.82,7.013-8.594h5.088V286.804L797.827,286.804z M830.2,251.931c-3.271-1.201-5.703-2.91-7.285-5.137
	c-1.572-2.217-2.363-4.883-2.363-7.979c0-4.678,1.681-8.613,5.039-11.807c3.369-3.184,7.842-4.775,13.429-4.775
	c5.614,0,10.137,1.631,13.555,4.893c3.418,3.262,5.137,7.227,5.137,11.904c0,2.988-0.791,5.586-2.354,7.793
	c-1.563,2.207-3.937,3.906-7.129,5.107c3.954,1.289,6.952,3.359,9.014,6.23c2.07,2.861,3.096,6.289,3.096,10.264
	c0,5.498-1.943,10.117-5.83,13.857c-3.896,3.75-9.014,5.615-15.361,5.615c-6.338,0-11.454-1.875-15.352-5.635
	c-3.887-3.76-5.83-8.447-5.83-14.063c0-4.18,1.055-7.676,3.185-10.498C823.267,254.88,826.284,252.957,830.2,251.931z
	 M826.079,268.25c0,2.256,0.527,4.434,1.602,6.533c1.064,2.109,2.656,3.74,4.757,4.893c2.081,1.146,4.421,1.741,6.797,1.729
	c3.778,0,6.895-1.211,9.346-3.633c2.461-2.432,3.691-5.518,3.691-9.258c0-3.799-1.271-6.943-3.8-9.434
	c-2.528-2.48-5.692-3.73-9.502-3.73c-3.711,0-6.787,1.23-9.229,3.691C827.3,261.492,826.079,264.568,826.079,268.25L826.079,268.25z
	 M828.618,238.552c0,3.037,0.986,5.527,2.938,7.451c1.964,1.934,4.502,2.9,7.638,2.9c3.037,0,5.537-0.957,7.479-2.871
	c1.943-1.914,2.92-4.268,2.92-7.041c0-2.9-1.006-5.332-3.008-7.305s-4.502-2.959-7.479-2.959c-3.019,0-5.519,0.957-7.5,2.891
	C829.614,233.552,828.618,235.857,828.618,238.552L828.618,238.552z M768.13,359.675l7.9-1.055c0.908,4.473,2.451,7.695,4.629,9.668
	s4.834,2.959,7.959,2.959c3.711,0,6.854-1.279,9.414-3.857c2.559-2.567,3.838-5.762,3.838-9.561c0-3.623-1.191-6.621-3.555-8.976
	c-2.373-2.354-5.382-3.524-9.043-3.524c-1.484,0-3.341,0.293-5.566,0.879l0.879-6.934c0.527,0.059,0.947,0.088,1.271,0.088
	c3.358,0,6.387-0.879,9.082-2.638c2.686-1.748,4.032-4.452,4.032-8.114c0-2.892-0.977-5.293-2.938-7.188
	c-1.953-1.904-4.492-2.852-7.588-2.852c-3.066,0-5.625,0.957-7.677,2.891c-2.051,1.935-3.358,4.824-3.944,8.691l-7.9-1.406
	c0.967-5.293,3.164-9.395,6.582-12.305s7.676-4.365,12.764-4.365c3.506,0,6.738,0.752,9.697,2.256
	c2.949,1.504,5.215,3.564,6.777,6.162c1.563,2.607,2.344,5.371,2.344,8.291c0,2.783-0.742,5.313-2.236,7.588
	c-1.494,2.285-3.701,4.102-6.621,5.439c3.8,0.879,6.759,2.705,8.857,5.469c2.109,2.764,3.164,6.221,3.164,10.371
	c0,5.615-2.051,10.371-6.143,14.276c-4.103,3.906-9.277,5.859-15.527,5.859c-5.646,0-10.332-1.68-14.063-5.049
	C770.786,369.382,768.657,365.027,768.13,359.675L768.13,359.675z M859.546,369.06v7.589h-42.5c-0.067-1.904,0.244-3.73,0.918-5.479
	c1.084-2.9,2.813-5.752,5.195-8.555c2.383-2.813,5.83-6.056,10.332-9.746c6.992-5.732,11.709-10.265,14.17-13.613
	c2.451-3.35,3.682-6.514,3.682-9.502c0-3.125-1.112-5.771-3.35-7.92c-2.246-2.148-5.156-3.223-8.76-3.223
	c-3.8,0-6.836,1.143-9.121,3.428c-2.275,2.274-3.438,5.438-3.467,9.473l-8.115-0.84c0.557-6.045,2.646-10.664,6.278-13.838
	c3.623-3.174,8.486-4.756,14.601-4.756c6.172,0,11.055,1.709,14.658,5.127c3.594,3.428,5.391,7.666,5.391,12.725
	c0,2.578-0.527,5.107-1.572,7.588c-1.055,2.49-2.803,5.107-5.244,7.853c-2.44,2.754-6.504,6.522-12.178,11.317
	c-4.735,3.976-7.772,6.681-9.121,8.097c-1.348,1.416-2.461,2.842-3.34,4.276H859.546z M797.827,466.486h-7.892v-50.317
	c-1.903,1.807-4.395,3.623-7.479,5.439c-3.086,1.807-5.859,3.174-8.311,4.071v-7.627c4.413-2.08,8.271-4.59,11.581-7.549
	c3.302-2.949,5.646-5.82,7.013-8.594h5.088V466.486L797.827,466.486z M830.2,431.609c-3.271-1.201-5.703-2.91-7.285-5.138
	c-1.572-2.217-2.363-4.883-2.363-7.979c0-4.678,1.681-8.613,5.039-11.808c3.369-3.184,7.842-4.774,13.429-4.774
	c5.614,0,10.137,1.631,13.555,4.893c3.418,3.263,5.137,7.228,5.137,11.904c0,2.988-0.791,5.586-2.354,7.793
	c-1.563,2.207-3.937,3.906-7.129,5.107c3.954,1.289,6.952,3.358,9.014,6.229c2.07,2.861,3.096,6.289,3.096,10.264
	c0,5.493-1.943,10.122-5.83,13.853c-3.896,3.75-9.014,5.625-15.361,5.625c-6.338,0-11.454-1.875-15.352-5.646
	c-3.887-3.75-5.83-8.438-5.83-14.057c0-4.18,1.055-7.676,3.185-10.498C823.267,434.558,826.284,432.634,830.2,431.609L830.2,431.609
	z M826.079,447.927c0,2.256,0.527,4.438,1.602,6.528c1.064,2.109,2.656,3.75,4.757,4.902c2.108,1.151,4.375,1.719,6.797,1.719
	c3.778,0,6.895-1.211,9.346-3.633c2.461-2.422,3.691-5.509,3.691-9.252c0-3.8-1.271-6.943-3.8-9.435
	c-2.528-2.479-5.692-3.729-9.502-3.729c-3.711,0-6.787,1.229-9.229,3.69C827.3,441.169,826.079,444.246,826.079,447.927
	L826.079,447.927z M828.618,418.23c0,3.036,0.986,5.526,2.938,7.45c1.964,1.935,4.502,2.9,7.638,2.9
	c3.037,0,5.537-0.957,7.479-2.871c1.943-1.914,2.92-4.268,2.92-7.041c0-2.9-1.006-5.332-3.008-7.305
	c-2.002-1.974-4.502-2.959-7.479-2.959c-3.019,0-5.519,0.957-7.5,2.891C829.614,413.23,828.618,415.535,828.618,418.23
	L828.618,418.23z M830.21,521.447c-3.271-1.191-5.703-2.91-7.285-5.138c-1.571-2.206-2.362-4.883-2.362-7.969
	c0-4.688,1.68-8.613,5.039-11.815c3.368-3.185,7.842-4.767,13.428-4.767c5.615,0,10.137,1.621,13.555,4.883
	c3.418,3.263,5.137,7.228,5.137,11.914c0,2.988-0.791,5.586-2.354,7.793c-1.563,2.207-3.937,3.906-7.129,5.099
	c3.955,1.289,6.953,3.358,9.014,6.229c2.07,2.871,3.096,6.289,3.096,10.273c0,5.487-1.942,10.117-5.83,13.848
	c-3.896,3.75-9.014,5.625-15.36,5.625c-6.338,0-11.455-1.875-15.353-5.645c-3.887-3.75-5.83-8.438-5.83-14.063
	c0-4.18,1.056-7.676,3.185-10.488C823.276,524.396,826.294,522.482,830.21,521.447z M826.089,537.775
	c0,2.246,0.527,4.434,1.603,6.522c1.063,2.109,2.655,3.75,4.756,4.902c2.108,1.151,4.375,1.719,6.797,1.719
	c3.779,0,6.895-1.211,9.346-3.633c2.461-2.422,3.691-5.508,3.691-9.258c0-3.789-1.271-6.935-3.799-9.435
	c-2.529-2.479-5.693-3.729-9.502-3.729c-3.712,0-6.787,1.229-9.229,3.69S826.089,534.084,826.089,537.775L826.089,537.775z
	 M828.628,508.068c0,3.047,0.986,5.526,2.939,7.461c1.963,1.934,4.502,2.891,7.637,2.891c3.037,0,5.537-0.957,7.479-2.871
	c1.943-1.914,2.921-4.258,2.921-7.031c0-2.909-1.007-5.331-3.009-7.305c-2.002-1.973-4.502-2.969-7.479-2.969
	c-3.019,0-5.519,0.957-7.5,2.891C829.624,503.068,828.628,505.373,828.628,508.068L828.628,508.068z M847.798,646.154h-7.891
	v-50.313c-1.904,1.816-4.396,3.633-7.48,5.449c-3.086,1.797-5.858,3.164-8.311,4.063v-7.617c4.414-2.09,8.271-4.59,11.582-7.56
	c3.301-2.948,5.645-5.819,7.012-8.594h5.088V646.154L847.798,646.154z"/>
</svg>
