<?xml version="1.0" encoding="utf-8"?>
<!-- Generator: Adobe Illustrator 16.0.3, SVG Export Plug-In . SVG Version: 6.00 Build 0)  -->
<!DOCTYPE svg PUBLIC "-//W3C//DTD SVG 1.1//EN" "http://www.w3.org/Graphics/SVG/1.1/DTD/svg11.dtd">
<svg version="1.1" id="Layer_1" xmlns="http://www.w3.org/2000/svg" xmlns:xlink="http://www.w3.org/1999/xlink" x="0px" y="0px"
	 width="900px" height="900px" viewBox="0 0 900 900" enable-background="new 0 0 900 900" xml:space="preserve">
<path d="M61.108,92.8c-5.742-2.1-10-5.098-12.764-8.994c-2.764-3.896-4.15-8.555-4.15-13.994c0-8.193,2.949-15.088,8.838-20.674
	c5.898-5.586,13.74-8.379,23.525-8.379c9.844,0,17.764,2.852,23.76,8.564c5.996,5.723,8.994,12.676,8.994,20.879
	c0,5.225-1.377,9.775-4.111,13.643c-2.744,3.867-6.914,6.855-12.5,8.955c6.924,2.256,12.188,5.898,15.801,10.918
	c3.613,5.029,5.42,11.025,5.42,17.988c0,9.639-3.408,17.734-10.225,24.297c-6.817,6.563-15.781,9.844-26.904,9.844
	s-20.098-3.291-26.914-9.883c-6.816-6.582-10.225-14.795-10.225-24.639c0-7.324,1.865-13.467,5.576-18.408
	C48.95,97.966,54.243,94.597,61.108,92.8z M53.882,121.404c0,3.945,0.938,7.764,2.803,11.455c1.875,3.691,4.648,6.543,8.34,8.574
	c3.691,2.021,7.666,3.037,11.924,3.037c6.611,0,12.07-2.129,16.367-6.387c4.307-4.248,6.465-9.658,6.465-16.221
	c0-6.66-2.217-12.168-6.65-16.523c-4.433-4.355-9.98-6.543-16.65-6.543c-6.504,0-11.904,2.158-16.182,6.465
	C56.021,109.568,53.882,114.949,53.882,121.404L53.882,121.404z M58.335,69.353c0,5.332,1.719,9.688,5.156,13.076
	c3.428,3.379,7.891,5.068,13.379,5.068c5.332,0,9.697-1.68,13.105-5.039c3.408-3.35,5.117-7.461,5.117-12.334
	c0-5.078-1.758-9.346-5.273-12.803c-3.506-3.457-7.881-5.187-13.105-5.187c-5.283,0-9.658,1.689-13.145,5.068
	C60.083,60.593,58.335,64.636,58.335,69.353z M148.677,92.8c-5.742-2.1-10-5.098-12.764-8.994c-2.764-3.896-4.15-8.555-4.15-13.994
	c0-8.193,2.949-15.088,8.838-20.674c5.898-5.586,13.74-8.379,23.525-8.379c9.844,0,17.764,2.852,23.76,8.564
	c5.996,5.723,8.994,12.676,8.994,20.879c0,5.225-1.377,9.775-4.111,13.643c-2.744,3.867-6.914,6.855-12.5,8.955
	c6.924,2.256,12.188,5.898,15.801,10.918c3.613,5.029,5.42,11.025,5.42,17.988c0,9.639-3.408,17.734-10.225,24.297
	c-6.817,6.563-15.781,9.844-26.904,9.844s-20.098-3.291-26.914-9.883c-6.816-6.582-10.225-14.795-10.225-24.639
	c0-7.324,1.865-13.467,5.576-18.408C136.519,97.966,141.812,94.597,148.677,92.8L148.677,92.8z M141.45,121.404
	c0,3.945,0.938,7.764,2.803,11.455c1.875,3.691,4.648,6.543,8.34,8.574c3.691,2.021,7.666,3.037,11.924,3.037
	c6.611,0,12.07-2.129,16.367-6.387c4.307-4.248,6.465-9.658,6.465-16.221c0-6.66-2.217-12.168-6.65-16.523
	c-4.433-4.355-9.98-6.543-16.65-6.543c-6.504,0-11.904,2.158-16.182,6.465C143.589,109.568,141.45,114.949,141.45,121.404
	L141.45,121.404z M145.903,69.353c0,5.332,1.719,9.688,5.156,13.076c3.428,3.379,7.891,5.068,13.379,5.068
	c5.332,0,9.697-1.68,13.105-5.039c3.408-3.35,5.117-7.461,5.117-12.334c0-5.078-1.758-9.346-5.273-12.803
	c-3.506-3.457-7.881-5.187-13.105-5.187c-5.283,0-9.658,1.689-13.145,5.068C147.651,60.593,145.903,64.636,145.903,69.353
	L145.903,69.353z M278.56,652.834v-74.102h32.861c6.602,0,11.621,0.664,15.059,1.991c3.438,1.328,6.182,3.691,8.242,7.052
	c2.051,3.379,3.076,7.09,3.076,11.172c0,5.254-1.699,9.688-5.098,13.301c-3.408,3.594-8.662,5.898-15.771,6.875
	c2.588,1.23,4.561,2.461,5.908,3.691c2.871,2.616,5.576,5.897,8.145,9.844l12.881,20.176h-12.324l-9.814-15.43
	c-2.861-4.435-5.215-7.853-7.07-10.195c-1.855-2.363-3.516-4.023-4.98-4.961c-1.464-0.938-2.959-1.602-4.473-1.973
	c-1.113-0.234-2.93-0.353-5.459-0.353h-11.377v32.91L278.56,652.834L278.56,652.834z M288.364,611.428h21.084
	c4.482,0,7.979-0.449,10.508-1.387c2.529-0.918,4.453-2.402,5.762-4.453c1.318-2.031,1.973-4.238,1.973-6.641
	c0-3.496-1.27-6.388-3.818-8.633c-2.539-2.267-6.563-3.398-12.051-3.398h-23.457v24.512H288.364z M387.036,646.213
	c-3.379,2.852-6.621,4.883-9.736,6.055c-3.115,1.191-6.455,1.777-10.029,1.777c-5.898,0-10.43-1.445-13.594-4.316
	c-3.174-2.891-4.756-6.563-4.756-11.055c0-2.617,0.596-5.02,1.797-7.207c1.191-2.168,2.764-3.906,4.697-5.215
	c1.934-1.328,4.121-2.324,6.543-2.988c1.787-0.469,4.482-0.938,8.086-1.367c7.354-0.879,12.754-1.913,16.23-3.125
	c0.029-1.25,0.049-2.051,0.049-2.383c0-3.711-0.859-6.328-2.578-7.832c-2.324-2.051-5.781-3.086-10.361-3.086
	c-4.277,0-7.441,0.742-9.473,2.246c-2.041,1.504-3.555,4.16-4.531,7.969l-8.896-1.211c0.811-3.809,2.148-6.895,3.994-9.237
	c1.855-2.345,4.531-4.142,8.037-5.41c3.506-1.25,7.568-1.896,12.188-1.896c4.58,0,8.301,0.547,11.172,1.621
	c2.861,1.074,4.961,2.441,6.309,4.063c1.348,1.641,2.295,3.711,2.832,6.19c0.303,1.563,0.459,4.355,0.459,8.398v12.129
	c0,8.457,0.195,13.809,0.576,16.055c0.398,2.264,1.178,4.442,2.305,6.445h-9.501C387.905,650.939,387.3,648.732,387.036,646.213
	L387.036,646.213z M386.274,625.881c-3.301,1.348-8.262,2.5-14.863,3.438c-3.74,0.547-6.387,1.151-7.93,1.836
	c-1.553,0.664-2.754,1.659-3.594,2.948c-0.84,1.289-1.26,2.734-1.26,4.316c0,2.422,0.918,4.453,2.754,6.074s4.521,2.422,8.057,2.422
	c3.506,0,6.621-0.762,9.355-2.305c2.725-1.523,4.736-3.634,6.016-6.289c0.977-2.052,1.465-5.078,1.465-9.103V625.881
	L386.274,625.881z M444.399,652.834v-6.777c-3.408,5.332-8.408,7.988-15.011,7.988c-4.287,0-8.213-1.191-11.807-3.535
	c-3.584-2.362-6.367-5.664-8.34-9.883c-1.974-4.238-2.959-9.102-2.959-14.59c0-5.353,0.897-10.215,2.686-14.57
	c1.777-4.375,4.463-7.715,8.037-10.039c3.564-2.324,7.559-3.496,11.973-3.496c3.232,0,6.123,0.685,8.644,2.052
	c2.529,1.366,4.59,3.145,6.172,5.332v-26.582h9.043v74.102L444.399,652.834L444.399,652.834z M415.64,626.037
	c0,6.875,1.445,12.012,4.347,15.41c2.899,3.418,6.317,5.117,10.264,5.117c3.975,0,7.354-1.621,10.127-4.884
	c2.783-3.241,4.17-8.203,4.17-14.883c0-7.344-1.416-12.733-4.238-16.172c-2.832-3.438-6.317-5.156-10.469-5.156
	c-4.043,0-7.422,1.642-10.137,4.961C416.997,613.732,415.64,618.928,415.64,626.037L415.64,626.037z M467.192,589.201v-10.469h9.102
	v10.469H467.192z M467.192,652.834v-53.691h9.102v53.691H467.192z M525.317,652.834v-7.891c-4.181,6.073-9.854,9.102-17.031,9.102
	c-3.174,0-6.123-0.604-8.877-1.816c-2.744-1.211-4.785-2.733-6.113-4.59c-1.328-1.836-2.266-4.082-2.803-6.737
	c-0.371-1.777-0.558-4.609-0.558-8.496v-33.263h9.103v29.785c0,4.746,0.186,7.949,0.557,9.59c0.566,2.402,1.777,4.277,3.633,5.646
	c1.856,1.368,4.15,2.051,6.875,2.051c2.734,0,5.294-0.703,7.687-2.108c2.393-1.388,4.082-3.302,5.078-5.703
	c0.996-2.402,1.494-5.898,1.494-10.488v-28.77h9.092v53.69L525.317,652.834L525.317,652.834z M547.72,652.834v-53.691h8.136v7.539
	c1.688-2.637,3.926-4.746,6.719-6.348c2.803-1.602,5.986-2.402,9.561-2.402c3.976,0,7.236,0.841,9.775,2.48
	c2.549,1.66,4.336,3.965,5.381,6.934c4.248-6.27,9.775-9.414,16.582-9.414c5.322,0,9.414,1.484,12.285,4.435
	c2.861,2.949,4.297,7.479,4.297,13.612v36.855h-9.053v-33.828c0-3.633-0.293-6.25-0.879-7.852c-0.597-1.603-1.66-2.892-3.214-3.867
	c-1.553-0.977-3.368-1.465-5.459-1.465c-3.77,0-6.903,1.25-9.403,3.77c-2.49,2.5-3.74,6.523-3.74,12.051v31.191h-9.092v-34.883
	c0-4.043-0.742-7.07-2.228-9.103c-1.483-2.012-3.905-3.026-7.274-3.026c-2.568,0-4.933,0.684-7.109,2.031
	c-2.168,1.348-3.74,3.301-4.727,5.897c-0.978,2.598-1.465,6.348-1.465,11.23v27.852L547.72,652.834L547.72,652.834z M62.749,859.24
	v-94.668h20.068v7.52H71.851v79.609h10.967v7.539H62.749L62.749,859.24z M136.597,829.924v8.75H87.622
	c-0.075-2.159,0.287-4.312,1.064-6.328c1.24-3.34,3.242-6.621,5.986-9.844c2.744-3.242,6.709-6.992,11.904-11.229
	c8.047-6.603,13.496-11.837,16.328-15.685c2.822-3.867,4.238-7.52,4.238-10.957c0-3.594-1.289-6.641-3.867-9.121
	c-2.578-2.479-5.938-3.711-10.078-3.711c-4.385,0-7.891,1.31-10.518,3.945c-2.627,2.617-3.955,6.27-3.994,10.918l-9.346-0.957
	c0.635-6.973,3.047-12.305,7.227-15.957c4.18-3.652,9.785-5.488,16.836-5.488c7.109,0,12.734,1.974,16.875,5.918
	c4.15,3.945,6.221,8.828,6.221,14.669c0,2.948-0.605,5.879-1.816,8.729c-1.221,2.871-3.232,5.879-6.045,9.063
	c-2.813,3.163-7.49,7.5-14.023,13.026c-5.459,4.59-8.965,7.695-10.518,9.336c-1.553,1.621-2.832,3.281-3.838,4.922H136.597
	L136.597,829.924z M194.165,829.924v8.75H145.19c-0.075-2.159,0.287-4.312,1.064-6.328c1.24-3.34,3.242-6.621,5.986-9.844
	c2.744-3.242,6.709-6.992,11.904-11.229c8.047-6.603,13.496-11.837,16.328-15.685c2.822-3.867,4.238-7.52,4.238-10.957
	c0-3.594-1.289-6.641-3.867-9.121c-2.578-2.479-5.938-3.711-10.078-3.711c-4.385,0-7.891,1.31-10.518,3.945
	c-2.627,2.617-3.955,6.27-3.994,10.918l-9.346-0.957c0.635-6.973,3.047-12.305,7.227-15.957c4.18-3.652,9.785-5.488,16.836-5.488
	c7.109,0,12.734,1.974,16.875,5.918c4.15,3.945,6.221,8.828,6.221,14.669c0,2.948-0.605,5.879-1.816,8.729
	c-1.221,2.871-3.232,5.879-6.045,9.063c-2.813,3.163-7.49,7.5-14.023,13.026c-5.459,4.59-8.965,7.695-10.518,9.336
	c-1.553,1.621-2.832,3.281-3.838,4.922H194.165L194.165,829.924z M251.128,782.717l-9.043,0.703
	c-0.811-3.574-1.953-6.172-3.438-7.772c-2.461-2.599-5.498-3.906-9.102-3.906c-2.9,0-5.439,0.819-7.627,2.44
	c-2.871,2.091-5.127,5.138-6.777,9.142s-2.51,9.727-2.578,17.129c2.188-3.34,4.873-5.801,8.037-7.422s6.484-2.422,9.961-2.422
	c6.064,0,11.221,2.227,15.488,6.698c4.258,4.453,6.396,10.234,6.396,17.306c0,4.647-1.006,8.965-3.008,12.969
	c-2.012,3.984-4.766,7.051-8.262,9.16c-3.506,2.129-7.49,3.184-11.934,3.184c-7.578,0-13.77-2.772-18.545-8.358
	c-4.795-5.566-7.178-14.767-7.178-27.578c0-14.316,2.637-24.728,7.93-31.23c4.619-5.664,10.83-8.496,18.652-8.496
	c5.83,0,10.605,1.642,14.326,4.902C248.159,772.443,250.386,776.955,251.128,782.717L251.128,782.717z M213.979,814.65
	c-0.008,3.111,0.672,6.186,1.992,9.004c1.338,2.871,3.193,5.059,5.586,6.543c2.393,1.504,4.902,2.246,7.529,2.246
	c3.848,0,7.148-1.543,9.912-4.648c2.764-3.086,4.141-7.305,4.141-12.637c0-5.117-1.357-9.142-4.092-12.09
	c-2.725-2.949-6.162-4.435-10.313-4.435c-4.111,0-7.598,1.484-10.459,4.435C215.414,806.018,213.979,809.885,213.979,814.65
	L213.979,814.65z M279.243,859.24h-20.068v-7.539h10.967v-79.609h-10.967v-7.52h20.068V859.24L279.243,859.24z M296.997,440.349
	V255.457h78.574c19.756,0,34.111,1.67,43.066,4.99c8.955,3.32,16.123,9.229,21.504,17.715c5.382,8.496,8.076,18.203,8.076,29.131
	c0,13.877-4.082,25.332-12.235,34.365c-8.154,9.043-20.353,14.735-36.572,17.09c8.065,4.717,14.727,9.883,19.99,15.518
	c5.254,5.636,12.334,15.636,21.25,30.011l22.567,36.073h-44.639l-26.992-40.233c-9.59-14.375-16.143-23.438-19.678-27.179
	c-3.525-3.739-7.266-6.299-11.221-7.694c-3.955-1.387-10.215-2.08-18.789-2.08h-7.568v77.188h-37.333V440.349z M334.331,333.65
	h27.617c17.91,0,29.092-0.752,33.545-2.267c4.463-1.514,7.949-4.121,10.469-7.821c2.521-3.691,3.789-8.32,3.789-13.867
	c0-6.221-1.66-11.25-4.98-15.078c-3.329-3.818-8.018-6.24-14.063-7.246c-3.027-0.42-12.109-0.635-27.246-0.635h-29.131V333.65
	L334.331,333.65z M509.624,347.273l-32.158-5.802c3.613-12.948,9.844-22.528,18.672-28.75c8.828-6.221,21.943-9.335,39.347-9.335
	c15.801,0,27.578,1.875,35.313,5.615c7.735,3.74,13.174,8.486,16.328,14.248s4.736,16.328,4.736,31.719l-0.381,41.367
	c0,11.769,0.565,20.449,1.698,26.045c1.134,5.586,3.263,11.582,6.367,17.969h-35.059c-0.929-2.354-2.062-5.84-3.398-10.469
	c-0.596-2.1-1.016-3.485-1.27-4.16c-6.056,5.89-12.529,10.304-19.414,13.242c-6.896,2.939-14.259,4.414-22.07,4.414
	c-13.799,0-24.658-3.74-32.607-11.221c-7.938-7.49-11.913-16.943-11.913-28.379c0-7.568,1.807-14.316,5.42-20.244
	c3.612-5.928,8.682-10.469,15.194-13.623c6.514-3.154,15.908-5.898,28.193-8.262c16.563-3.105,28.037-6.007,34.424-8.701v-3.525
	c0-6.815-1.68-11.67-5.039-14.569c-3.369-2.9-9.717-4.347-19.043-4.347c-6.309,0-11.229,1.24-14.756,3.722
	C514.673,336.707,511.813,341.052,509.624,347.273L509.624,347.273z M557.046,376.033c-4.541,1.514-11.729,3.32-21.563,5.42
	s-16.271,4.16-19.298,6.182c-4.629,3.281-6.934,7.441-6.934,12.48c0,4.961,1.846,9.248,5.547,12.871
	c3.701,3.612,8.408,5.42,14.121,5.42c6.396,0,12.49-2.101,18.291-6.31c4.287-3.192,7.1-7.1,8.447-11.729
	c0.928-3.027,1.387-8.779,1.387-17.275L557.046,376.033L557.046,376.033z M859.556,99.539v7.588h-42.5
	c-0.067-1.904,0.244-3.73,0.918-5.479c1.084-2.9,2.813-5.752,5.195-8.555c2.383-2.813,5.83-6.055,10.332-9.746
	c6.992-5.732,11.709-10.264,14.17-13.613c2.451-3.35,3.683-6.514,3.683-9.502c0-3.125-1.113-5.771-3.351-7.92
	c-2.246-2.148-5.156-3.223-8.76-3.223c-3.799,0-6.836,1.143-9.121,3.428c-2.275,2.275-3.438,5.439-3.467,9.473l-8.115-0.84
	c0.557-6.045,2.646-10.664,6.279-13.838c3.623-3.174,8.485-4.756,14.6-4.756c6.172,0,11.055,1.709,14.658,5.127
	c3.594,3.428,5.391,7.666,5.391,12.725c0,2.578-0.526,5.107-1.571,7.588c-1.056,2.49-2.804,5.107-5.244,7.852
	c-2.441,2.754-6.504,6.523-12.179,11.318c-4.735,3.975-7.772,6.68-9.12,8.096c-1.349,1.416-2.461,2.842-3.341,4.277H859.556z
	 M830.21,162.097c-3.271-1.201-5.703-2.91-7.285-5.137c-1.571-2.217-2.362-4.883-2.362-7.979c0-4.678,1.68-8.613,5.039-11.807
	c3.368-3.184,7.842-4.775,13.428-4.775c5.615,0,10.137,1.631,13.555,4.893c3.418,3.262,5.137,7.227,5.137,11.904
	c0,2.988-0.791,5.586-2.354,7.793c-1.563,2.207-3.937,3.906-7.129,5.107c3.955,1.289,6.953,3.359,9.014,6.23
	c2.07,2.861,3.096,6.289,3.096,10.264c0,5.498-1.942,10.117-5.83,13.857c-3.896,3.75-9.014,5.615-15.36,5.615
	c-6.338,0-11.455-1.875-15.353-5.635c-3.887-3.76-5.83-8.447-5.83-14.063c0-4.18,1.056-7.676,3.185-10.498
	C823.276,165.046,826.294,163.123,830.21,162.097z M826.089,178.416c0,2.256,0.527,4.434,1.603,6.533
	c1.063,2.109,2.655,3.74,4.756,4.893c2.081,1.145,4.421,1.74,6.797,1.729c3.779,0,6.895-1.211,9.346-3.633
	c2.461-2.432,3.691-5.518,3.691-9.258c0-3.799-1.271-6.943-3.799-9.434c-2.529-2.48-5.693-3.73-9.502-3.73
	c-3.712,0-6.787,1.23-9.229,3.691C827.31,171.658,826.089,174.734,826.089,178.416L826.089,178.416z M828.628,148.718
	c0,3.037,0.986,5.527,2.939,7.451c1.963,1.934,4.502,2.9,7.637,2.9c3.037,0,5.537-0.957,7.479-2.871
	c1.943-1.914,2.921-4.268,2.921-7.041c0-2.9-1.007-5.332-3.009-7.305s-4.502-2.959-7.479-2.959c-3.019,0-5.519,0.957-7.5,2.891
	C829.624,143.718,828.628,146.023,828.628,148.718L828.628,148.718z M797.827,286.804h-7.892v-50.313
	c-1.903,1.807-4.395,3.623-7.479,5.439c-3.086,1.807-5.859,3.174-8.311,4.072v-7.627c4.413-2.08,8.271-4.59,11.581-7.549
	c3.302-2.949,5.646-5.82,7.013-8.594h5.088V286.804L797.827,286.804z M830.2,251.931c-3.271-1.201-5.703-2.91-7.285-5.137
	c-1.572-2.217-2.363-4.883-2.363-7.979c0-4.678,1.681-8.613,5.039-11.807c3.369-3.184,7.842-4.775,13.429-4.775
	c5.614,0,10.137,1.631,13.555,4.893c3.418,3.262,5.137,7.227,5.137,11.904c0,2.988-0.791,5.586-2.354,7.793
	c-1.563,2.207-3.937,3.906-7.129,5.107c3.954,1.289,6.952,3.359,9.014,6.23c2.07,2.861,3.096,6.289,3.096,10.264
	c0,5.498-1.943,10.117-5.83,13.857c-3.896,3.75-9.014,5.615-15.361,5.615c-6.338,0-11.454-1.875-15.352-5.635
	c-3.887-3.76-5.83-8.447-5.83-14.063c0-4.18,1.055-7.676,3.185-10.498C823.267,254.88,826.284,252.957,830.2,251.931z
	 M826.079,268.25c0,2.256,0.527,4.434,1.602,6.533c1.064,2.109,2.656,3.74,4.757,4.893c2.081,1.145,4.421,1.74,6.797,1.729
	c3.778,0,6.895-1.211,9.346-3.633c2.461-2.432,3.691-5.518,3.691-9.258c0-3.799-1.271-6.943-3.8-9.434
	c-2.528-2.48-5.692-3.73-9.502-3.73c-3.711,0-6.787,1.23-9.229,3.691C827.3,261.492,826.079,264.568,826.079,268.25L826.079,268.25z
	 M828.618,238.552c0,3.037,0.986,5.527,2.938,7.451c1.964,1.934,4.502,2.9,7.638,2.9c3.037,0,5.537-0.957,7.479-2.871
	c1.943-1.914,2.92-4.268,2.92-7.041c0-2.9-1.006-5.332-3.008-7.305s-4.502-2.959-7.479-2.959c-3.019,0-5.519,0.957-7.5,2.891
	C829.614,233.552,828.618,235.857,828.618,238.552L828.618,238.552z M768.13,359.675l7.9-1.055c0.908,4.473,2.451,7.695,4.629,9.668
	s4.834,2.959,7.959,2.959c3.711,0,6.854-1.279,9.414-3.857c2.559-2.567,3.838-5.762,3.838-9.561c0-3.623-1.191-6.621-3.555-8.976
	c-2.373-2.354-5.382-3.524-9.043-3.524c-1.484,0-3.341,0.293-5.566,0.879l0.879-6.934c0.527,0.059,0.947,0.088,1.271,0.088
	c3.358,0,6.387-0.879,9.082-2.638c2.686-1.748,4.032-4.452,4.032-8.114c0-2.892-0.977-5.293-2.938-7.188
	c-1.953-1.904-4.492-2.852-7.588-2.852c-3.066,0-5.625,0.957-7.677,2.891c-2.051,1.935-3.358,4.824-3.944,8.691l-7.9-1.406
	c0.967-5.293,3.164-9.395,6.582-12.305s7.676-4.365,12.764-4.365c3.506,0,6.738,0.752,9.697,2.256
	c2.949,1.504,5.215,3.564,6.777,6.162c1.563,2.607,2.344,5.371,2.344,8.291c0,2.783-0.742,5.313-2.236,7.588
	c-1.494,2.285-3.701,4.102-6.621,5.439c3.8,0.879,6.759,2.705,8.857,5.469c2.109,2.764,3.164,6.221,3.164,10.371
	c0,5.615-2.051,10.371-6.143,14.276c-4.103,3.906-9.277,5.859-15.527,5.859c-5.646,0-10.332-1.68-14.063-5.049
	C770.786,369.382,768.657,365.027,768.13,359.675L768.13,359.675z M859.546,369.06v7.589h-42.5c-0.067-1.904,0.244-3.73,0.918-5.479
	c1.084-2.9,2.813-5.752,5.195-8.555c2.383-2.813,5.83-6.056,10.332-9.746c6.992-5.732,11.709-10.265,14.17-13.613
	c2.451-3.35,3.682-6.514,3.682-9.502c0-3.125-1.112-5.771-3.35-7.92c-2.246-2.148-5.156-3.223-8.76-3.223
	c-3.8,0-6.836,1.143-9.121,3.428c-2.275,2.274-3.438,5.438-3.467,9.473l-8.115-0.84c0.557-6.045,2.646-10.664,6.278-13.838
	c3.623-3.174,8.486-4.756,14.601-4.756c6.172,0,11.055,1.709,14.658,5.127c3.594,3.428,5.391,7.666,5.391,12.725
	c0,2.578-0.527,5.107-1.572,7.588c-1.055,2.49-2.803,5.107-5.244,7.853c-2.44,2.754-6.504,6.522-12.178,11.317
	c-4.735,3.976-7.772,6.681-9.121,8.097c-1.348,1.416-2.461,2.842-3.34,4.276H859.546z M797.827,466.486h-7.892v-50.317
	c-1.903,1.807-4.395,3.623-7.479,5.439c-3.086,1.807-5.859,3.174-8.311,4.071v-7.627c4.413-2.08,8.271-4.59,11.581-7.549
	c3.302-2.949,5.646-5.82,7.013-8.594h5.088V466.486L797.827,466.486z M830.2,431.609c-3.271-1.201-5.703-2.91-7.285-5.138
	c-1.572-2.217-2.363-4.883-2.363-7.979c0-4.678,1.681-8.613,5.039-11.808c3.369-3.184,7.842-4.774,13.429-4.774
	c5.614,0,10.137,1.631,13.555,4.893c3.418,3.263,5.137,7.228,5.137,11.904c0,2.988-0.791,5.586-2.354,7.793
	c-1.563,2.207-3.937,3.906-7.129,5.107c3.954,1.289,6.952,3.358,9.014,6.229c2.07,2.861,3.096,6.289,3.096,10.264
	c0,5.493-1.943,10.122-5.83,13.853c-3.896,3.75-9.014,5.625-15.361,5.625c-6.338,0-11.454-1.875-15.352-5.646
	c-3.887-3.75-5.83-8.438-5.83-14.057c0-4.18,1.055-7.676,3.185-10.498C823.267,434.558,826.284,432.634,830.2,431.609L830.2,431.609
	z M826.079,447.927c0,2.256,0.527,4.438,1.602,6.528c1.064,2.109,2.656,3.75,4.757,4.902c2.108,1.151,4.375,1.719,6.797,1.719
	c3.778,0,6.895-1.211,9.346-3.633c2.461-2.422,3.691-5.509,3.691-9.252c0-3.8-1.271-6.943-3.8-9.435
	c-2.528-2.479-5.692-3.729-9.502-3.729c-3.711,0-6.787,1.229-9.229,3.69C827.3,441.169,826.079,444.246,826.079,447.927
	L826.079,447.927z M828.618,418.23c0,3.036,0.986,5.526,2.938,7.45c1.964,1.935,4.502,2.9,7.638,2.9
	c3.037,0,5.537-0.957,7.479-2.871c1.943-1.914,2.92-4.268,2.92-7.041c0-2.9-1.006-5.332-3.008-7.305
	c-2.002-1.974-4.502-2.959-7.479-2.959c-3.019,0-5.519,0.957-7.5,2.891C829.614,413.23,828.618,415.535,828.618,418.23
	L828.618,418.23z M830.21,521.447c-3.271-1.191-5.703-2.91-7.285-5.138c-1.571-2.206-2.362-4.883-2.362-7.969
	c0-4.688,1.68-8.613,5.039-11.815c3.368-3.185,7.842-4.767,13.428-4.767c5.615,0,10.137,1.621,13.555,4.883
	c3.418,3.263,5.137,7.228,5.137,11.914c0,2.988-0.791,5.586-2.354,7.793c-1.563,2.207-3.937,3.906-7.129,5.099
	c3.955,1.289,6.953,3.358,9.014,6.229c2.07,2.871,3.096,6.289,3.096,10.273c0,5.487-1.942,10.117-5.83,13.848
	c-3.896,3.75-9.014,5.625-15.36,5.625c-6.338,0-11.455-1.875-15.353-5.645c-3.887-3.75-5.83-8.438-5.83-14.063
	c0-4.18,1.056-7.676,3.185-10.488C823.276,524.396,826.294,522.482,830.21,521.447z M826.089,537.775
	c0,2.246,0.527,4.434,1.603,6.522c1.063,2.109,2.655,3.75,4.756,4.902c2.108,1.151,4.375,1.719,6.797,1.719
	c3.779,0,6.895-1.211,9.346-3.633c2.461-2.422,3.691-5.508,3.691-9.258c0-3.789-1.271-6.935-3.799-9.435
	c-2.529-2.479-5.693-3.729-9.502-3.729c-3.712,0-6.787,1.229-9.229,3.69S826.089,534.084,826.089,537.775L826.089,537.775z
	 M828.628,508.068c0,3.047,0.986,5.526,2.939,7.461c1.963,1.934,4.502,2.891,7.637,2.891c3.037,0,5.537-0.957,7.479-2.871
	c1.943-1.914,2.921-4.258,2.921-7.031c0-2.909-1.007-5.331-3.009-7.305c-2.002-1.973-4.502-2.969-7.479-2.969
	c-3.019,0-5.519,0.957-7.5,2.891C829.624,503.068,828.628,505.373,828.628,508.068L828.628,508.068z M859.556,638.576v7.578h-42.5
	c-0.067-1.896,0.244-3.73,0.918-5.469c1.084-2.91,2.813-5.763,5.195-8.556c2.383-2.813,5.83-6.055,10.332-9.746
	c6.992-5.741,11.709-10.272,14.17-13.612c2.451-3.359,3.683-6.523,3.683-9.513c0-3.125-1.113-5.762-3.351-7.909
	c-2.246-2.148-5.156-3.224-8.76-3.224c-3.799,0-6.836,1.133-9.121,3.418c-2.275,2.285-3.438,5.449-3.467,9.474l-8.115-0.841
	c0.557-6.034,2.646-10.664,6.279-13.827c3.623-3.185,8.485-4.767,14.6-4.767c6.172,0,11.055,1.719,14.658,5.137
	c3.594,3.419,5.391,7.656,5.391,12.716c0,2.578-0.526,5.116-1.571,7.598c-1.056,2.48-2.804,5.098-5.244,7.852
	c-2.441,2.754-6.504,6.523-12.179,11.31c-4.735,3.983-7.772,6.68-9.12,8.104c-1.349,1.406-2.461,2.832-3.341,4.277H859.556
	L859.556,638.576z"/>
</svg>
