<?xml version="1.0" encoding="utf-8"?>
<!-- Generator: Adobe Illustrator 16.0.3, SVG Export Plug-In . SVG Version: 6.00 Build 0)  -->
<!DOCTYPE svg PUBLIC "-//W3C//DTD SVG 1.1//EN" "http://www.w3.org/Graphics/SVG/1.1/DTD/svg11.dtd">
<svg version="1.1" id="Layer_1" xmlns="http://www.w3.org/2000/svg" xmlns:xlink="http://www.w3.org/1999/xlink" x="0px" y="0px"
	 width="900px" height="900px" viewBox="0 0 900 900" enable-background="new 0 0 900 900" xml:space="preserve">
<path d="M61.108,92.805c-5.742-2.1-10-5.098-12.764-8.994c-2.764-3.896-4.15-8.555-4.15-13.994c0-8.193,2.949-15.088,8.838-20.674
	c5.898-5.586,13.74-8.379,23.525-8.379c9.844,0,17.764,2.852,23.76,8.564c5.996,5.723,8.994,12.676,8.994,20.879
	c0,5.225-1.377,9.775-4.111,13.643c-2.744,3.867-6.914,6.855-12.5,8.955c6.924,2.256,12.188,5.898,15.801,10.918
	c3.613,5.029,5.42,11.025,5.42,17.988c0,9.639-3.408,17.734-10.225,24.297c-6.817,6.563-15.781,9.844-26.904,9.844
	s-20.098-3.291-26.914-9.883c-6.816-6.582-10.225-14.795-10.225-24.639c0-7.324,1.865-13.467,5.576-18.408
	C48.95,97.971,54.243,94.602,61.108,92.805z M53.882,121.409c0,3.945,0.938,7.764,2.803,11.455c1.875,3.691,4.648,6.543,8.34,8.574
	c3.691,2.021,7.666,3.037,11.924,3.037c6.611,0,12.07-2.129,16.367-6.387c4.307-4.248,6.465-9.658,6.465-16.221
	c0-6.66-2.217-12.168-6.65-16.523c-4.433-4.354-9.98-6.543-16.65-6.543c-6.504,0-11.904,2.158-16.182,6.465
	C56.021,109.573,53.882,114.954,53.882,121.409z M58.335,69.358c0,5.332,1.719,9.688,5.156,13.076
	c3.428,3.379,7.891,5.068,13.379,5.068c5.332,0,9.697-1.68,13.105-5.039c3.408-3.35,5.117-7.461,5.117-12.334
	c0-5.078-1.758-9.346-5.273-12.803c-3.506-3.457-7.881-5.186-13.105-5.186c-5.283,0-9.658,1.689-13.145,5.068
	C60.083,60.598,58.335,64.641,58.335,69.358z M129.458,127.864l13.301-1.23c1.123,6.26,3.271,10.791,6.455,13.613
	c3.174,2.813,7.256,4.229,12.227,4.229c4.248,0,7.979-0.977,11.182-2.92c3.203-1.953,5.83-4.551,7.881-7.813
	c2.051-3.252,3.77-7.646,5.156-13.184c1.378-5.532,2.073-11.213,2.07-16.914c0-0.615-0.029-1.533-0.078-2.764
	c-2.764,4.404-6.543,7.979-11.338,10.723s-9.98,4.111-15.566,4.111c-9.326,0-17.227-3.379-23.682-10.146s-9.688-15.684-9.688-26.748
	c0-11.436,3.369-20.635,10.107-27.607c6.738-6.963,15.186-10.449,25.332-10.449c7.334,0,14.033,1.973,20.107,5.918
	c6.074,3.945,10.684,9.57,13.838,16.875c3.154,7.305,4.727,17.871,4.727,31.709c0,14.404-1.563,25.869-4.688,34.404
	s-7.773,15.029-13.955,19.492c-6.172,4.463-13.418,6.689-21.719,6.689c-8.818,0-16.016-2.451-21.602-7.344
	C133.939,143.615,130.581,136.731,129.458,127.864L129.458,127.864z M186.118,78.127c0-7.949-2.119-14.248-6.348-18.916
	s-9.316-6.992-15.254-6.992c-6.152,0-11.514,2.51-16.074,7.529c-4.561,5.029-6.836,11.533-6.836,19.531
	c0,7.178,2.158,13.008,6.494,17.49c4.326,4.482,9.668,6.729,16.025,6.729c6.406,0,11.68-2.246,15.801-6.729
	C184.047,92.286,186.118,86.067,186.118,78.127L186.118,78.127z M250.249,652.83l28.457-74.102h10.566l30.332,74.102h-11.172
	l-8.643-22.441h-30.986l-8.135,22.441H250.249L250.249,652.83z M271.636,622.4h25.117l-7.734-20.527
	c-2.354-6.23-4.111-11.348-5.254-15.371c-0.961,4.816-2.297,9.551-3.994,14.16L271.636,622.4z M361.304,633.162l8.945,1.172
	c-0.977,6.152-3.486,10.977-7.51,14.473c-4.024,3.496-8.975,5.234-14.834,5.234c-7.344,0-13.252-2.402-17.715-7.207
	s-6.699-11.68-6.699-20.645c0-5.802,0.957-10.859,2.881-15.216c1.924-4.355,4.844-7.616,8.77-9.784
	c3.926-2.168,8.193-3.263,12.813-3.263c5.83,0,10.596,1.484,14.307,4.435c3.701,2.949,6.084,7.129,7.129,12.559l-8.848,1.367
	c-0.84-3.613-2.334-6.328-4.473-8.145c-2.139-1.817-4.727-2.734-7.764-2.734c-4.58,0-8.301,1.641-11.162,4.94
	c-2.871,3.281-4.297,8.478-4.297,15.587c0,7.206,1.377,12.461,4.141,15.723c2.764,3.262,6.367,4.902,10.82,4.902
	c3.564,0,6.553-1.095,8.945-3.281C359.145,641.092,360.659,637.713,361.304,633.162L361.304,633.162z M397.896,644.686l1.309,8.048
	c-2.559,0.526-4.844,0.801-6.875,0.801c-3.301,0-5.859-0.527-7.676-1.563c-1.826-1.055-3.105-2.422-3.848-4.121
	c-0.743-1.698-1.104-5.293-1.104-10.741v-30.879h-6.68v-7.091h6.68v-13.28l9.043-5.47v18.75h9.149v7.091h-9.149v31.387
	c0,2.598,0.156,4.258,0.479,5c0.323,0.742,0.84,1.328,1.572,1.776c0.723,0.431,1.758,0.646,3.105,0.646
	C394.907,645.037,396.245,644.92,397.896,644.686L397.896,644.686z M406.841,589.197v-10.469h9.103v10.469H406.841z M406.841,652.83
	v-53.691h9.103v53.691H406.841z M429.79,652.83v-53.691h8.184v7.638c3.945-5.898,9.64-8.849,17.091-8.849
	c3.231,0,6.2,0.586,8.916,1.758c2.715,1.152,4.746,2.677,6.094,4.57c1.348,1.875,2.285,4.121,2.832,6.719
	c0.332,1.681,0.498,4.63,0.498,8.849v33.008h-9.092v-32.656c0-3.711-0.353-6.483-1.064-8.319c-0.703-1.836-1.963-3.302-3.76-4.396
	c-1.808-1.094-3.926-1.641-6.349-1.641c-3.877,0-7.217,1.229-10.028,3.69c-2.822,2.461-4.229,7.129-4.229,14.004v29.316H429.79z
	 M487.407,589.197v-10.469h9.102v10.469H487.407z M487.407,652.83v-53.691h9.102v53.691H487.407z M545.532,652.83v-7.891
	c-4.181,6.073-9.854,9.102-17.031,9.102c-3.174,0-6.123-0.605-8.877-1.816c-2.744-1.211-4.785-2.733-6.113-4.59
	c-1.328-1.836-2.266-4.082-2.803-6.737c-0.371-1.777-0.557-4.609-0.557-8.496v-33.263h9.102v29.785c0,4.746,0.187,7.949,0.558,9.59
	c0.565,2.402,1.776,4.277,3.633,5.646c1.855,1.368,4.149,2.051,6.875,2.051c2.733,0,5.293-0.703,7.686-2.108
	c2.394-1.388,4.082-3.302,5.078-5.703c0.996-2.402,1.494-5.898,1.494-10.488V599.14h9.092v53.691L545.532,652.83L545.532,652.83z
	 M567.936,652.83v-53.691h8.135v7.539c1.688-2.637,3.926-4.746,6.719-6.348c2.803-1.602,5.986-2.402,9.561-2.402
	c3.976,0,7.236,0.84,9.775,2.48c2.549,1.66,4.336,3.965,5.381,6.934c4.248-6.27,9.775-9.414,16.582-9.414
	c5.322,0,9.414,1.484,12.285,4.435c2.861,2.948,4.297,7.479,4.297,13.612v36.855h-9.053v-33.828c0-3.633-0.293-6.25-0.879-7.852
	c-0.597-1.603-1.66-2.892-3.213-3.867c-1.554-0.977-3.369-1.465-5.459-1.465c-3.771,0-6.904,1.25-9.404,3.77
	c-2.49,2.5-3.74,6.523-3.74,12.051v31.191h-9.092v-34.883c0-4.043-0.742-7.07-2.227-9.103c-1.484-2.012-3.906-3.026-7.275-3.026
	c-2.568,0-4.932,0.684-7.109,2.03c-2.168,1.349-3.74,3.302-4.727,5.898c-0.978,2.598-1.465,6.348-1.465,11.229v27.853
	L567.936,652.83L567.936,652.83z M62.759,859.236v-94.668h20.068v7.52H71.86v79.609h10.967v7.539H62.759z M136.606,829.92v8.75
	H87.632c-0.074-2.159,0.288-4.312,1.064-6.328c1.24-3.34,3.242-6.621,5.986-9.844c2.744-3.242,6.709-6.992,11.904-11.23
	c8.047-6.602,13.496-11.836,16.328-15.684c2.822-3.867,4.238-7.52,4.238-10.957c0-3.594-1.289-6.641-3.867-9.121
	c-2.578-2.479-5.938-3.711-10.078-3.711c-4.385,0-7.891,1.31-10.518,3.945c-2.627,2.617-3.955,6.27-3.994,10.918l-9.346-0.957
	c0.635-6.973,3.047-12.305,7.227-15.957c4.18-3.652,9.785-5.488,16.836-5.488c7.109,0,12.734,1.974,16.875,5.918
	c4.15,3.945,6.221,8.828,6.221,14.668c0,2.949-0.605,5.88-1.816,8.73c-1.221,2.871-3.232,5.879-6.045,9.063
	c-2.813,3.164-7.49,7.5-14.023,13.027c-5.459,4.59-8.965,7.695-10.518,9.336c-1.553,1.621-2.832,3.281-3.838,4.922H136.606
	L136.606,829.92z M194.175,829.92v8.75H145.2c-0.075-2.159,0.287-4.312,1.064-6.328c1.24-3.34,3.242-6.621,5.986-9.844
	c2.744-3.242,6.709-6.992,11.904-11.23c8.047-6.602,13.496-11.836,16.328-15.684c2.822-3.867,4.238-7.52,4.238-10.957
	c0-3.594-1.289-6.641-3.867-9.121c-2.578-2.479-5.938-3.711-10.078-3.711c-4.385,0-7.891,1.31-10.518,3.945
	c-2.627,2.617-3.955,6.27-3.994,10.918l-9.346-0.957c0.635-6.973,3.047-12.305,7.227-15.957s9.785-5.488,16.836-5.488
	c7.109,0,12.734,1.974,16.875,5.918c4.15,3.945,6.221,8.828,6.221,14.668c0,2.949-0.605,5.88-1.816,8.73
	c-1.221,2.871-3.232,5.879-6.045,9.063c-2.813,3.164-7.49,7.5-14.023,13.027c-5.459,4.59-8.965,7.695-10.518,9.336
	c-1.553,1.621-2.832,3.281-3.838,4.922H194.175L194.175,829.92z M204.536,774.275v-8.75h47.969v7.069
	c-4.717,5.021-9.395,11.699-14.023,20.021c-4.639,8.32-8.213,16.895-10.742,25.684c-1.826,6.191-2.988,12.988-3.486,20.371h-9.355
	c0.098-5.84,1.25-12.871,3.438-21.133s5.332-16.211,9.424-23.887c4.102-7.656,8.457-14.121,13.066-19.375H204.536z M279.253,859.236
	h-20.068v-7.539h10.967v-79.609h-10.967v-7.52h20.068V859.236L279.253,859.236z M463.618,440.344h-40.605l-16.143-41.992h-73.906
	L317.7,440.344h-39.6l72.012-184.893h39.473L463.618,440.344L463.618,440.344z M394.888,367.2l-25.479-68.613L344.438,367.2H394.888
	z M599.946,346.008l-34.933,6.31c-1.182-6.982-3.848-12.236-8.008-15.771c-4.16-3.524-9.57-5.293-16.211-5.293
	c-8.828,0-15.869,3.047-21.123,9.141c-5.254,6.104-7.881,16.3-7.881,30.587c0,15.889,2.666,27.118,8.008,33.672
	c5.342,6.563,12.51,9.844,21.504,9.844c6.729,0,12.236-1.914,16.523-5.742s7.314-10.4,9.082-19.736l34.805,5.929
	c-3.613,15.977-10.557,28.037-20.811,36.19c-10.254,8.154-24.004,12.236-41.24,12.236c-19.59,0-35.205-6.182-46.855-18.535
	c-11.641-12.363-17.461-29.473-17.461-51.338c0-22.109,5.841-39.326,17.529-51.641c11.68-12.314,27.49-18.478,47.422-18.478
	c16.31,0,29.277,3.517,38.906,10.527C588.823,320.93,595.747,331.633,599.946,346.008L599.946,346.008z M859.556,99.553v7.588h-42.5
	c-0.067-1.904,0.244-3.73,0.918-5.479c1.084-2.9,2.813-5.752,5.195-8.555c2.383-2.813,5.83-6.055,10.332-9.746
	c6.992-5.732,11.709-10.264,14.17-13.613c2.451-3.35,3.683-6.514,3.683-9.502c0-3.125-1.113-5.771-3.351-7.92
	c-2.246-2.148-5.156-3.223-8.76-3.223c-3.799,0-6.836,1.143-9.121,3.428c-2.275,2.275-3.438,5.439-3.467,9.473l-8.115-0.84
	c0.557-6.045,2.646-10.664,6.279-13.838c3.623-3.174,8.485-4.756,14.6-4.756c6.172,0,11.055,1.709,14.658,5.127
	c3.594,3.428,5.391,7.666,5.391,12.725c0,2.578-0.526,5.107-1.571,7.588c-1.056,2.49-2.804,5.107-5.244,7.852
	c-2.441,2.754-6.504,6.523-12.179,11.318c-4.735,3.975-7.772,6.68-9.12,8.096c-1.349,1.416-2.461,2.842-3.341,4.277H859.556
	L859.556,99.553z M830.21,162.112c-3.271-1.201-5.703-2.91-7.285-5.137c-1.571-2.217-2.362-4.883-2.362-7.979
	c0-4.678,1.68-8.613,5.039-11.807c3.368-3.184,7.842-4.775,13.428-4.775c5.615,0,10.137,1.631,13.555,4.893
	c3.418,3.262,5.137,7.227,5.137,11.904c0,2.988-0.791,5.586-2.354,7.793c-1.563,2.207-3.937,3.906-7.129,5.107
	c3.955,1.289,6.953,3.359,9.014,6.23c2.07,2.861,3.096,6.289,3.096,10.264c0,5.498-1.942,10.117-5.83,13.857
	c-3.896,3.75-9.014,5.615-15.36,5.615c-6.338,0-11.455-1.875-15.353-5.635c-3.887-3.76-5.83-8.447-5.83-14.063
	c0-4.18,1.056-7.676,3.185-10.498C823.276,165.061,826.294,163.137,830.21,162.112L830.21,162.112z M826.089,178.43
	c0,2.256,0.527,4.434,1.603,6.533c1.063,2.109,2.655,3.74,4.756,4.893c2.081,1.146,4.421,1.741,6.797,1.729
	c3.779,0,6.895-1.211,9.346-3.633c2.461-2.432,3.691-5.518,3.691-9.258c0-3.799-1.271-6.943-3.799-9.434
	c-2.529-2.48-5.693-3.73-9.502-3.73c-3.712,0-6.787,1.23-9.229,3.691C827.31,171.672,826.089,174.749,826.089,178.43L826.089,178.43
	z M828.628,148.733c0,3.037,0.986,5.527,2.939,7.451c1.963,1.934,4.502,2.9,7.637,2.9c3.037,0,5.537-0.957,7.479-2.871
	c1.943-1.914,2.921-4.268,2.921-7.041c0-2.9-1.007-5.332-3.009-7.305c-2.002-1.973-4.502-2.959-7.479-2.959
	c-3.019,0-5.519,0.957-7.5,2.891C829.624,143.733,828.628,146.038,828.628,148.733L828.628,148.733z M797.827,286.819h-7.892
	v-50.313c-1.903,1.807-4.395,3.623-7.479,5.439c-3.086,1.807-5.859,3.174-8.311,4.072v-7.627c4.413-2.08,8.271-4.59,11.581-7.549
	c3.302-2.949,5.646-5.82,7.013-8.594h5.088V286.819L797.827,286.819z M830.2,251.946c-3.271-1.201-5.703-2.91-7.285-5.137
	c-1.572-2.217-2.363-4.883-2.363-7.979c0-4.678,1.681-8.613,5.039-11.807c3.369-3.184,7.842-4.775,13.429-4.775
	c5.614,0,10.137,1.631,13.555,4.893c3.418,3.262,5.137,7.227,5.137,11.904c0,2.988-0.791,5.586-2.354,7.793
	c-1.563,2.207-3.937,3.906-7.129,5.107c3.954,1.289,6.952,3.359,9.014,6.23c2.07,2.861,3.096,6.289,3.096,10.264
	c0,5.498-1.943,10.117-5.83,13.857c-3.896,3.75-9.014,5.615-15.361,5.615c-6.338,0-11.454-1.875-15.352-5.635
	c-3.887-3.76-5.83-8.447-5.83-14.063c0-4.18,1.055-7.676,3.185-10.498C823.267,254.895,826.284,252.971,830.2,251.946z
	 M826.079,268.264c0,2.256,0.527,4.434,1.602,6.533c1.064,2.109,2.656,3.74,4.757,4.893c2.081,1.146,4.421,1.741,6.797,1.729
	c3.778,0,6.895-1.211,9.346-3.633c2.461-2.432,3.691-5.518,3.691-9.258c0-3.799-1.271-6.943-3.8-9.434
	c-2.528-2.48-5.692-3.73-9.502-3.73c-3.711,0-6.787,1.23-9.229,3.691C827.3,261.506,826.079,264.583,826.079,268.264
	L826.079,268.264z M828.618,238.567c0,3.037,0.986,5.527,2.938,7.451c1.964,1.934,4.502,2.9,7.638,2.9
	c3.037,0,5.537-0.957,7.479-2.871c1.943-1.914,2.92-4.268,2.92-7.041c0-2.9-1.006-5.332-3.008-7.305
	c-2.002-1.973-4.502-2.959-7.479-2.959c-3.019,0-5.519,0.957-7.5,2.891C829.614,233.567,828.618,235.872,828.618,238.567
	L828.618,238.567z M768.13,359.69l7.9-1.056c0.908,4.474,2.451,7.695,4.629,9.668c2.178,1.974,4.834,2.959,7.959,2.959
	c3.711,0,6.854-1.278,9.414-3.856c2.559-2.568,3.838-5.763,3.838-9.562c0-3.623-1.191-6.621-3.555-8.975
	c-2.373-2.354-5.382-3.525-9.043-3.525c-1.484,0-3.341,0.293-5.566,0.879l0.879-6.934c0.527,0.059,0.947,0.088,1.271,0.088
	c3.358,0,6.387-0.879,9.082-2.637c2.686-1.748,4.032-4.453,4.032-8.115c0-2.891-0.977-5.293-2.938-7.188
	c-1.953-1.904-4.492-2.853-7.588-2.853c-3.066,0-5.625,0.957-7.677,2.892c-2.051,1.934-3.358,4.823-3.944,8.69l-7.9-1.406
	c0.967-5.293,3.164-9.395,6.582-12.305s7.676-4.365,12.764-4.365c3.506,0,6.738,0.752,9.697,2.256
	c2.949,1.505,5.215,3.564,6.777,6.162c1.563,2.607,2.344,5.371,2.344,8.291c0,2.783-0.742,5.313-2.236,7.588
	c-1.494,2.285-3.701,4.103-6.621,5.439c3.8,0.879,6.759,2.705,8.857,5.469c2.109,2.765,3.164,6.222,3.164,10.371
	c0,5.615-2.051,10.371-6.143,14.277c-4.103,3.906-9.277,5.858-15.527,5.858c-5.646,0-10.332-1.68-14.063-5.049
	C770.786,369.397,768.657,365.042,768.13,359.69L768.13,359.69z M859.546,369.075v7.588h-42.5c-0.067-1.904,0.244-3.73,0.918-5.479
	c1.084-2.899,2.813-5.752,5.195-8.555c2.383-2.813,5.83-6.055,10.332-9.746c6.992-5.731,11.709-10.264,14.17-13.613
	c2.451-3.35,3.682-6.514,3.682-9.502c0-3.125-1.112-5.771-3.35-7.92c-2.246-2.147-5.156-3.223-8.76-3.223
	c-3.8,0-6.836,1.143-9.121,3.428c-2.275,2.275-3.438,5.439-3.467,9.474l-8.115-0.841c0.557-6.045,2.646-10.663,6.278-13.838
	c3.623-3.174,8.486-4.756,14.601-4.756c6.172,0,11.055,1.709,14.658,5.127c3.594,3.429,5.391,7.666,5.391,12.726
	c0,2.578-0.527,5.106-1.572,7.588c-1.055,2.49-2.803,5.106-5.244,7.852c-2.44,2.754-6.504,6.523-12.178,11.318
	c-4.735,3.975-7.772,6.68-9.121,8.096c-1.348,1.416-2.461,2.842-3.34,4.277H859.546z M797.827,466.502h-7.892v-50.318
	c-1.903,1.808-4.395,3.623-7.479,5.439c-3.086,1.807-5.859,3.174-8.311,4.072v-7.627c4.413-2.08,8.271-4.591,11.581-7.55
	c3.302-2.948,5.646-5.819,7.013-8.594h5.088V466.502L797.827,466.502z M830.2,431.624c-3.271-1.201-5.703-2.91-7.285-5.137
	c-1.572-2.218-2.363-4.883-2.363-7.979c0-4.678,1.681-8.613,5.039-11.807c3.369-3.185,7.842-4.775,13.429-4.775
	c5.614,0,10.137,1.631,13.555,4.894c3.418,3.262,5.137,7.227,5.137,11.903c0,2.988-0.791,5.586-2.354,7.793
	c-1.563,2.207-3.937,3.906-7.129,5.107c3.954,1.289,6.952,3.359,9.014,6.23c2.07,2.86,3.096,6.288,3.096,10.264
	c0,5.494-1.943,10.123-5.83,13.853c-3.896,3.75-9.014,5.625-15.361,5.625c-6.338,0-11.454-1.875-15.352-5.645
	c-3.887-3.75-5.83-8.438-5.83-14.059c0-4.18,1.055-7.676,3.185-10.497C823.267,434.573,826.284,432.649,830.2,431.624L830.2,431.624
	z M826.079,447.942c0,2.256,0.527,4.438,1.602,6.528c1.064,2.109,2.656,3.75,4.757,4.902c2.108,1.152,4.375,1.719,6.797,1.719
	c3.778,0,6.895-1.211,9.346-3.633c2.461-2.422,3.691-5.508,3.691-9.253c0-3.799-1.271-6.943-3.8-9.434
	c-2.528-2.48-5.692-3.73-9.502-3.73c-3.711,0-6.787,1.23-9.229,3.691C827.3,441.184,826.079,444.26,826.079,447.942L826.079,447.942
	z M828.618,418.245c0,3.037,0.986,5.527,2.938,7.451c1.964,1.934,4.502,2.899,7.638,2.899c3.037,0,5.537-0.957,7.479-2.871
	c1.943-1.914,2.92-4.268,2.92-7.041c0-2.899-1.006-5.332-3.008-7.305s-4.502-2.959-7.479-2.959c-3.019,0-5.519,0.957-7.5,2.891
	C829.614,413.245,828.618,415.549,828.618,418.245L828.618,418.245z M819.243,541.463l7.588-0.703
	c0.646,3.574,1.875,6.172,3.691,7.773c1.807,1.602,4.131,2.401,6.973,2.401c2.422,0,4.551-0.547,6.377-1.659
	c1.826-1.113,3.33-2.599,4.502-4.453c1.172-1.855,2.148-4.355,2.939-7.521s1.182-6.367,1.182-9.647c0-0.353-0.021-0.879-0.039-1.582
	c-1.582,2.52-3.74,4.551-6.475,6.112c-2.735,1.563-5.693,2.345-8.888,2.345c-5.321,0-9.823-1.914-13.506-5.781
	c-3.69-3.867-5.526-8.945-5.526-15.273c0-6.504,1.924-11.758,5.771-15.741c3.838-3.966,8.662-5.957,14.453-5.957
	c4.18,0,7.998,1.112,11.465,3.379c3.467,2.246,6.104,5.448,7.9,9.629c1.797,4.16,2.695,10.194,2.695,18.086
	c0,8.223-0.89,14.766-2.677,19.629s-4.434,8.574-7.959,11.113c-3.524,2.559-7.655,3.828-12.393,3.828
	c-5.029,0-9.142-1.406-12.324-4.199C821.803,550.447,819.889,546.521,819.243,541.463L819.243,541.463z M851.577,513.084
	c0-4.531-1.211-8.125-3.623-10.781c-2.412-2.676-5.313-4.004-8.711-4.004c-3.506,0-6.563,1.445-9.16,4.297
	c-2.606,2.871-3.906,6.582-3.906,11.152c0,4.102,1.23,7.422,3.701,9.979c2.471,2.559,5.527,3.828,9.15,3.828
	c3.651,0,6.66-1.27,9.014-3.828C850.396,521.17,851.577,517.615,851.577,513.084z M859.556,638.592v7.578h-42.5
	c-0.067-1.895,0.244-3.729,0.918-5.469c1.084-2.91,2.813-5.762,5.195-8.555c2.383-2.813,5.83-6.056,10.332-9.746
	c6.992-5.742,11.709-10.273,14.17-13.613c2.451-3.359,3.683-6.523,3.683-9.512c0-3.125-1.113-5.763-3.351-7.91
	c-2.246-2.148-5.156-3.224-8.76-3.224c-3.799,0-6.836,1.134-9.121,3.419c-2.275,2.284-3.438,5.448-3.467,9.473l-8.115-0.84
	c0.557-6.035,2.646-10.664,6.279-13.828c3.623-3.185,8.485-4.767,14.6-4.767c6.172,0,11.055,1.72,14.658,5.138
	c3.594,3.418,5.391,7.656,5.391,12.715c0,2.578-0.526,5.117-1.571,7.598c-1.056,2.48-2.804,5.099-5.244,7.853
	c-2.441,2.754-6.504,6.522-12.179,11.309c-4.735,3.984-7.772,6.681-9.12,8.105c-1.349,1.405-2.461,2.832-3.341,4.276H859.556
	L859.556,638.592z"/>
</svg>
