<?xml version="1.0" encoding="utf-8"?>
<!-- Generator: Adobe Illustrator 16.0.3, SVG Export Plug-In . SVG Version: 6.00 Build 0)  -->
<!DOCTYPE svg PUBLIC "-//W3C//DTD SVG 1.1//EN" "http://www.w3.org/Graphics/SVG/1.1/DTD/svg11.dtd">
<svg version="1.1" id="Layer_1" xmlns="http://www.w3.org/2000/svg" xmlns:xlink="http://www.w3.org/1999/xlink" x="0px" y="0px"
	 width="900px" height="900px" viewBox="0 0 900 900" enable-background="new 0 0 900 900" xml:space="preserve">
<path d="M41.88,137.515l13.301-1.23c1.123,6.255,3.271,10.791,6.455,13.608c3.174,2.822,7.256,4.229,12.227,4.229
	c4.248,0,7.979-0.972,11.182-2.92c3.203-1.948,5.83-4.546,7.881-7.803c2.051-3.257,3.77-7.651,5.156-13.184
	c1.378-5.532,2.073-11.212,2.07-16.914c0-0.615-0.029-1.538-0.078-2.769c-2.764,4.409-6.543,7.983-11.338,10.723
	c-4.795,2.744-9.98,4.116-15.566,4.116c-9.326,0-17.227-3.384-23.682-10.151c-6.455-6.763-9.688-15.684-9.688-26.753
	c0-11.431,3.369-20.63,10.107-27.598c6.738-6.973,15.186-10.459,25.332-10.459c7.334,0,14.033,1.973,20.107,5.923
	c6.074,3.945,10.684,9.57,13.838,16.875c3.154,7.3,4.727,17.871,4.727,31.709c0,14.404-1.563,25.874-4.688,34.404
	c-3.125,8.535-7.773,15.034-13.955,19.492c-6.172,4.458-13.418,6.689-21.719,6.689c-8.818,0-16.016-2.451-21.602-7.344
	C46.361,153.265,43.003,146.387,41.88,137.515L41.88,137.515z M98.54,87.773c0-7.944-2.119-14.248-6.348-18.911
	c-4.229-4.663-9.316-6.997-15.254-6.997c-6.152,0-11.514,2.515-16.074,7.534c-4.561,5.024-6.836,11.533-6.836,19.526
	c0,7.178,2.158,13.008,6.494,17.49c4.326,4.487,9.668,6.729,16.025,6.729c6.406,0,11.68-2.241,15.801-6.729
	C96.47,101.934,98.54,95.718,98.54,87.773z M269.556,662.48v-74.093h49.98v8.74H279.36v22.949h34.775v8.75H279.36v33.651h-9.804
	V662.48z M330.913,662.48v-74.093h9.102v74.093H330.913z M389.292,662.48V654.6c-4.18,6.064-9.854,9.093-17.031,9.093
	c-3.174,0-6.123-0.605-8.877-1.816c-2.744-1.211-4.785-2.734-6.113-4.57s-2.266-4.082-2.803-6.748
	c-0.371-1.786-0.557-4.618-0.557-8.485V608.81h9.102v29.767c0,4.756,0.186,7.949,0.557,9.608c0.566,2.394,1.777,4.269,3.633,5.636
	c1.855,1.356,4.15,2.041,6.875,2.041c2.734,0,5.293-0.693,7.686-2.09c2.393-1.406,4.082-3.302,5.078-5.714
	c0.996-2.411,1.494-5.907,1.494-10.487V608.81h9.092v53.673h-8.136V662.48z M408.296,635.645c0-9.94,2.764-17.305,8.291-22.09
	c4.609-3.975,10.244-5.957,16.885-5.957c7.373,0,13.408,2.412,18.086,7.246c4.688,4.844,7.031,11.523,7.031,20.039
	c0,6.914-1.035,12.344-3.104,16.31c-2.08,3.954-5.088,7.03-9.054,9.219c-3.955,2.188-8.28,3.281-12.959,3.281
	c-7.52,0-13.594-2.402-18.223-7.228C410.61,651.65,408.296,644.707,408.296,635.645z M417.642,635.645
	c0,6.875,1.505,12.021,4.502,15.449c2.998,3.418,6.777,5.117,11.328,5.117c4.513,0,8.271-1.719,11.271-5.146
	c2.998-3.438,4.492-8.682,4.492-15.723c0-6.631-1.504-11.67-4.521-15.088c-3.017-3.418-6.768-5.127-11.24-5.127
	c-4.551,0-8.33,1.699-11.328,5.107C419.146,623.633,417.642,628.77,417.642,635.645L417.642,635.645z M469.146,662.48v-53.673h8.192
	v8.136c2.09-3.81,4.015-6.318,5.781-7.529c1.776-1.211,3.721-1.816,5.84-1.816c3.066,0,6.182,0.978,9.355,2.931l-3.136,8.438
	c-2.227-1.309-4.453-1.973-6.67-1.973c-1.992,0-3.779,0.604-5.36,1.797c-1.582,1.192-2.716,2.852-3.39,4.979
	c-1.006,3.232-1.514,6.777-1.514,10.615v28.096H469.146L469.146,662.48z M503.774,598.848v-10.459h9.102v10.459H503.774z
	 M503.774,662.48v-53.673h9.102v53.673H503.774z M526.724,662.48v-53.673h8.185v7.638c3.945-5.898,9.639-8.849,17.09-8.849
	c3.232,0,6.201,0.576,8.916,1.738s4.746,2.695,6.094,4.57c1.349,1.895,2.285,4.141,2.832,6.729c0.332,1.689,0.498,4.64,0.498,8.838
	v33.009h-9.092v-32.646c0-3.701-0.352-6.475-1.064-8.311c-0.703-1.836-1.963-3.302-3.76-4.404c-1.807-1.094-3.926-1.641-6.348-1.641
	c-3.877,0-7.217,1.229-10.029,3.69c-2.822,2.461-4.229,7.119-4.229,13.994v29.315h-9.093V662.48z M621.04,645.195l9.395,1.172
	c-1.483,5.488-4.229,9.746-8.231,12.783c-4.014,3.037-9.141,4.541-15.371,4.541c-7.852,0-14.072-2.412-18.672-7.246
	s-6.904-11.621-6.904-20.353c0-9.022,2.324-16.034,6.974-21.016c4.657-4.99,10.684-7.48,18.096-7.48
	c7.178,0,13.047,2.441,17.598,7.324c4.541,4.883,6.816,11.758,6.816,20.625c0,0.537-0.01,1.349-0.049,2.422h-40.029
	c0.332,5.898,2.002,10.41,5,13.556c2.998,3.125,6.738,4.688,11.221,4.688c3.34,0,6.183-0.869,8.545-2.617
	C617.788,651.836,619.653,649.043,621.04,645.195L621.04,645.195z M591.167,630.488h29.971c-0.409-4.513-1.553-7.9-3.438-10.156
	c-2.9-3.506-6.66-5.254-11.271-5.254c-4.18,0-7.694,1.396-10.537,4.188C593.042,622.07,591.47,625.801,591.167,630.488z
	 M94.282,848.33H85.18v-57.979c-2.188,2.091-5.059,4.181-8.613,6.271c-3.554,2.09-6.748,3.652-9.58,4.707v-8.799
	c5.088-2.394,9.541-5.293,13.35-8.701c3.799-3.398,6.504-6.699,8.086-9.902h5.859V848.33z M131.587,808.145
	c-3.779-1.377-6.572-3.35-8.398-5.918c-1.816-2.559-2.725-5.625-2.725-9.198c0-5.392,1.934-9.922,5.811-13.595
	c3.877-3.672,9.033-5.508,15.469-5.508c6.465,0,11.68,1.875,15.615,5.646c3.945,3.75,5.918,8.319,5.918,13.711
	c0,3.438-0.898,6.436-2.705,8.983c-1.807,2.539-4.541,4.502-8.213,5.88c4.551,1.483,8.008,3.877,10.391,7.178
	c2.373,3.311,3.555,7.246,3.555,11.826c0,6.338-2.236,11.659-6.719,15.977s-10.381,6.465-17.686,6.465
	c-7.314,0-13.213-2.168-17.695-6.483c-4.482-4.336-6.719-9.736-6.719-16.211c0-4.814,1.221-8.849,3.662-12.101
	S127.065,809.326,131.587,808.145L131.587,808.145z M126.831,826.953c0,2.598,0.615,5.098,1.846,7.529
	c1.231,2.431,3.057,4.307,5.488,5.635c2.422,1.328,5.029,1.992,7.832,1.992c4.346,0,7.93-1.396,10.762-4.189
	c2.832-2.803,4.248-6.357,4.248-10.674c0-4.375-1.455-7.998-4.375-10.859c-2.91-2.871-6.563-4.297-10.938-4.297
	c-4.277,0-7.832,1.416-10.645,4.238C128.237,819.16,126.831,822.705,126.831,826.953L126.831,826.953z M129.761,792.734
	c0,3.496,1.133,6.366,3.389,8.594c2.256,2.217,5.186,3.33,8.799,3.33c3.506,0,6.377-1.104,8.613-3.312
	c2.246-2.207,3.359-4.911,3.359-8.104c0-3.34-1.152-6.152-3.457-8.418c-2.314-2.285-5.186-3.418-8.623-3.418
	c-3.467,0-6.348,1.112-8.643,3.34C130.913,786.973,129.761,789.629,129.761,792.734L129.761,792.734z M180.259,848.33v-10.361
	h10.361v10.361H180.259z M205.278,831.191l8.74-0.802c0.742,4.103,2.158,7.091,4.248,8.945c2.09,1.855,4.766,2.773,8.037,2.773
	c2.793,0,5.244-0.636,7.354-1.914c2.109-1.289,3.828-2.988,5.176-5.138c1.348-2.129,2.48-5.02,3.389-8.672
	c0.909-3.634,1.368-7.366,1.367-11.112c0-0.41-0.02-1.017-0.049-1.816c-1.826,2.891-4.307,5.244-7.461,7.051
	c-3.145,1.797-6.563,2.695-10.234,2.695c-6.133,0-11.318-2.217-15.566-6.66c-4.248-4.453-6.367-10.313-6.367-17.598
	c0-7.511,2.217-13.556,6.65-18.146c4.424-4.58,9.98-6.875,16.65-6.875c4.814,0,9.229,1.299,13.213,3.896
	c3.994,2.588,7.031,6.289,9.102,11.094c2.07,4.795,3.105,11.748,3.105,20.85c0,9.474-1.025,17.013-3.076,22.617
	c-2.061,5.605-5.117,9.883-9.18,12.813c-4.063,2.93-8.818,4.395-14.277,4.395c-5.791,0-10.527-1.602-14.199-4.824
	C208.228,841.543,206.021,837.031,205.278,831.191L205.278,831.191z M242.524,798.496c0-5.225-1.387-9.375-4.17-12.441
	c-2.773-3.065-6.123-4.59-10.029-4.59c-4.043,0-7.568,1.642-10.566,4.941c-2.998,3.311-4.502,7.588-4.502,12.852
	c0,4.707,1.426,8.545,4.277,11.494c2.842,2.949,6.357,4.424,10.537,4.424c4.209,0,7.676-1.475,10.391-4.424
	C241.167,807.803,242.524,803.711,242.524,798.496z M262.856,831.191l8.74-0.802c0.742,4.103,2.158,7.091,4.248,8.945
	c2.09,1.855,4.766,2.773,8.037,2.773c2.793,0,5.244-0.636,7.354-1.914c2.109-1.289,3.828-2.988,5.176-5.138
	c1.348-2.129,2.48-5.02,3.389-8.672c0.91-3.634,1.369-7.366,1.367-11.112c0-0.41-0.02-1.017-0.049-1.816
	c-1.826,2.891-4.307,5.244-7.461,7.051c-3.145,1.797-6.563,2.695-10.234,2.695c-6.133,0-11.318-2.217-15.566-6.66
	c-4.248-4.453-6.367-10.313-6.367-17.598c0-7.511,2.217-13.556,6.65-18.146c4.424-4.58,9.98-6.875,16.65-6.875
	c4.814,0,9.229,1.299,13.213,3.896c3.994,2.588,7.031,6.289,9.102,11.094c2.07,4.795,3.105,11.748,3.105,20.85
	c0,9.474-1.025,17.013-3.076,22.617c-2.061,5.605-5.117,9.883-9.18,12.813c-4.063,2.93-8.818,4.395-14.277,4.395
	c-5.791,0-10.527-1.602-14.199-4.824C265.806,841.543,263.599,837.031,262.856,831.191L262.856,831.191z M300.103,798.496
	c0-5.225-1.387-9.375-4.17-12.441c-2.773-3.065-6.123-4.59-10.029-4.59c-4.043,0-7.568,1.642-10.566,4.941
	c-2.998,3.311-4.502,7.588-4.502,12.852c0,4.707,1.426,8.545,4.277,11.494c2.842,2.949,6.357,4.424,10.537,4.424
	c4.209,0,7.676-1.475,10.391-4.424C298.745,807.803,300.103,803.711,300.103,798.496L300.103,798.496z M333.062,808.145
	c-3.779-1.377-6.572-3.35-8.398-5.918c-1.816-2.559-2.725-5.625-2.725-9.198c0-5.392,1.934-9.922,5.811-13.595
	c3.877-3.672,9.033-5.508,15.469-5.508c6.465,0,11.68,1.875,15.615,5.646c3.945,3.75,5.918,8.319,5.918,13.711
	c0,3.438-0.898,6.436-2.705,8.983c-1.807,2.539-4.541,4.502-8.213,5.88c4.551,1.483,8.008,3.877,10.391,7.178
	c2.373,3.311,3.555,7.246,3.555,11.826c0,6.338-2.236,11.659-6.719,15.977s-10.381,6.465-17.686,6.465
	c-7.314,0-13.213-2.168-17.695-6.483c-4.482-4.336-6.719-9.736-6.719-16.211c0-4.814,1.221-8.849,3.662-12.101
	S328.54,809.326,333.062,808.145L333.062,808.145z M328.306,826.953c0,2.598,0.615,5.098,1.846,7.529
	c1.231,2.431,3.057,4.307,5.488,5.635c2.422,1.328,5.029,1.992,7.832,1.992c4.346,0,7.93-1.396,10.762-4.189
	c2.832-2.803,4.248-6.357,4.248-10.674c0-4.375-1.455-7.998-4.375-10.859c-2.91-2.871-6.563-4.297-10.938-4.297
	c-4.277,0-7.832,1.416-10.645,4.238C329.712,819.16,328.306,822.705,328.306,826.953L328.306,826.953z M331.235,792.734
	c0,3.496,1.133,6.366,3.389,8.594c2.256,2.217,5.186,3.33,8.799,3.33c3.506,0,6.377-1.104,8.613-3.312
	c2.246-2.207,3.359-4.911,3.359-8.104c0-3.34-1.152-6.152-3.457-8.418c-2.314-2.285-5.186-3.418-8.623-3.418
	c-3.467,0-6.348,1.112-8.643,3.34C332.388,786.973,331.235,789.629,331.235,792.734L331.235,792.734z M383.325,449.995V265.107
	h126.748v31.279h-89.414v43.761h77.178v31.278h-77.178v78.569L383.325,449.995L383.325,449.995z M859.536,109.189v7.588h-42.5
	c-0.07-1.871,0.242-3.737,0.918-5.483c1.084-2.896,2.813-5.747,5.195-8.555c2.382-2.808,5.83-6.055,10.332-9.736
	c6.991-5.732,11.709-10.273,14.17-13.623c2.45-3.35,3.682-6.514,3.682-9.497c0-3.13-1.113-5.767-3.35-7.915
	c-2.246-2.153-5.156-3.228-8.761-3.228c-3.799,0-6.836,1.143-9.121,3.423c-2.274,2.28-3.438,5.439-3.467,9.478l-8.114-0.835
	c0.557-6.055,2.646-10.669,6.278-13.843c3.623-3.169,8.486-4.756,14.601-4.756c6.172,0,11.055,1.709,14.657,5.132
	c3.595,3.423,5.392,7.661,5.392,12.72c0,2.573-0.527,5.103-1.572,7.588c-1.055,2.485-2.803,5.107-5.244,7.852
	c-2.44,2.749-6.504,6.523-12.178,11.318c-4.736,3.979-7.773,6.675-9.121,8.096c-1.348,1.416-2.461,2.842-3.34,4.277L859.536,109.189
	L859.536,109.189z M818.569,150.728v-7.588H860.2v6.143c-4.103,4.36-8.154,10.146-12.178,17.373
	c-4.023,7.222-7.13,14.648-9.316,22.28c-1.582,5.386-2.588,11.274-3.027,17.681h-8.114c0.088-5.059,1.073-11.172,2.979-18.335
	c1.916-7.203,4.663-14.159,8.185-20.728c3.555-6.655,7.334-12.261,11.338-16.826H818.569L818.569,150.728z"/>
</svg>
