<?xml version="1.0" encoding="utf-8"?>
<!-- Generator: Adobe Illustrator 16.0.3, SVG Export Plug-In . SVG Version: 6.00 Build 0)  -->
<!DOCTYPE svg PUBLIC "-//W3C//DTD SVG 1.1//EN" "http://www.w3.org/Graphics/SVG/1.1/DTD/svg11.dtd">
<svg version="1.1" id="Layer_1" xmlns="http://www.w3.org/2000/svg" xmlns:xlink="http://www.w3.org/1999/xlink" x="0px" y="0px"
	 width="900px" height="900px" viewBox="0 0 900 900" enable-background="new 0 0 900 900" xml:space="preserve">
<path d="M41.816,137.492l13.301-1.23c1.123,6.26,3.271,10.791,6.455,13.613c3.174,2.813,7.256,4.229,12.227,4.229
	c4.248,0,7.979-0.977,11.182-2.92c3.203-1.953,5.83-4.551,7.881-7.813c2.051-3.252,3.77-7.646,5.156-13.184
	c1.378-5.532,2.073-11.212,2.07-16.914c0-0.615-0.029-1.533-0.078-2.764c-2.764,4.404-6.543,7.979-11.338,10.723
	s-9.98,4.111-15.566,4.111c-9.326,0-17.227-3.379-23.682-10.146c-6.455-6.767-9.688-15.684-9.688-26.748
	c0-11.436,3.369-20.635,10.107-27.607c6.738-6.963,15.186-10.449,25.332-10.449c7.334,0,14.033,1.973,20.107,5.918
	c6.074,3.945,10.684,9.57,13.838,16.875c3.154,7.305,4.727,17.871,4.727,31.709c0,14.404-1.563,25.869-4.688,34.404
	c-3.125,8.535-7.773,15.029-13.955,19.492c-6.172,4.463-13.418,6.689-21.719,6.689c-8.818,0-16.016-2.451-21.602-7.344
	C46.297,153.243,42.939,146.359,41.816,137.492L41.816,137.492z M98.477,87.756c0-7.949-2.119-14.248-6.348-18.916
	s-9.316-6.992-15.254-6.992c-6.152,0-11.514,2.51-16.074,7.529c-4.561,5.029-6.836,11.533-6.836,19.531
	c0,7.178,2.158,13.008,6.494,17.49c4.326,4.482,9.668,6.729,16.025,6.729c6.406,0,11.68-2.246,15.801-6.729
	S98.477,95.695,98.477,87.756L98.477,87.756z M127.305,107.971c0-13.32,1.377-24.053,4.111-32.178
	c2.744-8.115,6.816-14.385,12.227-18.789c5.41-4.414,12.207-6.611,20.41-6.611c6.045,0,11.357,1.211,15.918,3.652
	c4.561,2.432,8.33,5.938,11.299,10.527c2.969,4.589,5.303,10.176,7.002,16.758c1.689,6.592,2.529,15.469,2.529,26.641
	c0,13.223-1.357,23.896-4.072,32.021s-6.777,14.404-12.188,18.838c-5.4,4.434-12.236,6.65-20.488,6.65
	c-10.859,0-19.395-3.896-25.596-11.689C131.025,144.416,127.305,129.143,127.305,107.971L127.305,107.971z M141.533,107.971
	c0,18.506,2.158,30.82,6.494,36.943c4.326,6.123,9.668,9.189,16.025,9.189c6.357,0,11.699-3.076,16.035-9.229
	c4.326-6.152,6.494-18.447,6.494-36.904c0-18.555-2.168-30.879-6.494-36.982c-4.336-6.094-9.727-9.141-16.182-9.141
	c-6.357,0-11.436,2.686-15.225,8.066C143.916,76.789,141.533,89.475,141.533,107.971L141.533,107.971z M285.713,662.459v-65.352
	h-24.414v-8.75h58.74v8.75h-24.521v65.352H285.713z M328.936,662.459v-74.102h9.092v26.582c4.248-4.923,9.609-7.384,16.074-7.384
	c3.975,0,7.432,0.781,10.361,2.363c2.939,1.563,5.029,3.729,6.299,6.484c1.26,2.772,1.895,6.776,1.895,12.03v34.023h-9.102v-34.023
	c0-4.551-0.986-7.852-2.959-9.922c-1.963-2.09-4.756-3.125-8.359-3.125c-2.695,0-5.234,0.703-7.607,2.109
	c-2.373,1.387-4.072,3.281-5.078,5.684c-1.016,2.383-1.523,5.703-1.523,9.902v29.375h-9.093V662.459z M383.115,635.623
	c0-9.941,2.764-17.305,8.291-22.09c4.608-3.984,10.244-5.978,16.885-5.978c7.373,0,13.408,2.422,18.086,7.267
	c4.688,4.823,7.031,11.504,7.031,20.039c0,6.895-1.035,12.344-3.105,16.289c-2.08,3.965-5.088,7.051-9.053,9.237
	c-3.955,2.188-8.281,3.281-12.959,3.281c-7.52,0-13.594-2.402-18.223-7.227C385.43,651.619,383.115,644.686,383.115,635.623
	L383.115,635.623z M392.461,635.623c0,6.875,1.504,12.012,4.502,15.43s6.777,5.138,11.328,5.138c4.512,0,8.271-1.72,11.27-5.156
	c2.999-3.438,4.492-8.672,4.492-15.724c0-6.641-1.504-11.659-4.521-15.077c-3.019-3.438-6.769-5.138-11.24-5.138
	c-4.551,0-8.33,1.699-11.328,5.099C393.965,623.611,392.461,628.748,392.461,635.623L392.461,635.623z M443.965,662.459v-53.691
	h8.193v8.146c2.09-3.81,4.014-6.31,5.781-7.539c1.776-1.211,3.721-1.816,5.84-1.816c3.065,0,6.182,0.978,9.354,2.931L470,618.943
	c-2.227-1.328-4.453-1.974-6.67-1.974c-1.992,0-3.779,0.586-5.361,1.797c-1.582,1.191-2.715,2.853-3.389,4.961
	c-1.006,3.242-1.514,6.777-1.514,10.625v28.105L443.965,662.459L443.965,662.459z M478.594,598.826v-10.469h9.103v10.469H478.594z
	 M478.594,662.459v-53.691h9.103v53.691H478.594z M536.719,662.459v-7.891c-4.18,6.073-9.854,9.102-17.031,9.102
	c-3.174,0-6.122-0.604-8.877-1.816c-2.743-1.211-4.784-2.733-6.112-4.59c-1.328-1.836-2.267-4.082-2.804-6.737
	c-0.371-1.777-0.557-4.609-0.557-8.496v-33.263h9.102v29.785c0,4.746,0.187,7.949,0.558,9.59c0.565,2.402,1.776,4.277,3.633,5.646
	s4.15,2.051,6.875,2.051c2.734,0,5.293-0.703,7.687-2.108c2.393-1.388,4.081-3.302,5.077-5.703
	c0.996-2.402,1.494-5.898,1.494-10.488v-28.77h9.092v53.69L536.719,662.459L536.719,662.459z M559.111,662.459v-53.691h8.135v7.539
	c1.689-2.637,3.926-4.746,6.719-6.348c2.803-1.602,5.986-2.402,9.562-2.402c3.975,0,7.235,0.841,9.774,2.48
	c2.549,1.66,4.336,3.965,5.381,6.934c4.248-6.27,9.775-9.414,16.582-9.414c5.322,0,9.414,1.484,12.285,4.435
	c2.861,2.949,4.297,7.479,4.297,13.612v36.855h-9.053v-33.828c0-3.633-0.293-6.25-0.879-7.852c-0.596-1.603-1.66-2.892-3.213-3.867
	c-1.553-0.977-3.369-1.465-5.459-1.465c-3.771,0-6.904,1.25-9.404,3.77c-2.49,2.5-3.74,6.523-3.74,12.051v31.191h-9.092v-34.883
	c0-4.043-0.742-7.07-2.227-9.103c-1.484-2.012-3.906-3.026-7.275-3.026c-2.568,0-4.932,0.684-7.109,2.031
	c-2.168,1.348-3.739,3.301-4.727,5.897c-0.977,2.598-1.465,6.348-1.465,11.23v27.852L559.111,662.459L559.111,662.459z
	 M107.764,839.549v8.75H58.789c-0.075-2.159,0.287-4.312,1.064-6.328c1.24-3.34,3.242-6.621,5.986-9.844
	c2.744-3.242,6.709-6.992,11.904-11.23c8.047-6.602,13.496-11.836,16.328-15.684c2.822-3.867,4.238-7.52,4.238-10.957
	c0-3.594-1.289-6.641-3.867-9.121c-2.578-2.479-5.938-3.711-10.078-3.711c-4.385,0-7.891,1.31-10.518,3.945
	c-2.627,2.617-3.955,6.27-3.994,10.918l-9.346-0.957c0.635-6.973,3.047-12.305,7.227-15.957c4.18-3.652,9.785-5.488,16.836-5.488
	c7.109,0,12.734,1.974,16.875,5.918c4.15,3.945,6.221,8.828,6.221,14.668c0,2.949-0.605,5.88-1.816,8.73
	c-1.221,2.871-3.232,5.879-6.045,9.063c-2.813,3.164-7.49,7.5-14.023,13.027c-5.459,4.59-8.965,7.695-10.518,9.336
	c-1.553,1.621-2.832,3.281-3.838,4.922H107.764L107.764,839.549z M117.568,828.729l9.102-1.211
	c1.045,5.156,2.822,8.867,5.332,11.152c2.51,2.266,5.566,3.398,9.17,3.398c4.277,0,7.891-1.466,10.84-4.435
	c2.949-2.969,4.424-6.641,4.424-11.016c0-4.181-1.357-7.638-4.092-10.353c-2.725-2.715-6.201-4.063-10.41-4.063
	c-1.719,0-3.857,0.332-6.416,1.016l1.006-7.988c0.487,0.055,0.976,0.088,1.465,0.099c3.877,0,7.363-1.017,10.469-3.027
	c3.096-2.03,4.648-5.137,4.648-9.354c0-3.34-1.133-6.094-3.389-8.281c-2.256-2.207-5.176-3.301-8.74-3.301
	c-3.545,0-6.494,1.112-8.848,3.34c-2.363,2.227-3.877,5.566-4.551,10.02l-9.102-1.62c1.113-6.095,3.643-10.82,7.588-14.181
	c3.936-3.358,8.838-5.039,14.707-5.039c4.043,0,7.764,0.879,11.172,2.617c3.398,1.738,6.006,4.103,7.803,7.09
	c1.807,3.008,2.705,6.191,2.705,9.552c0,3.202-0.859,6.112-2.578,8.75c-1.719,2.637-4.258,4.727-7.627,6.27
	c4.375,1.016,7.783,3.105,10.205,6.289c2.432,3.184,3.643,7.168,3.643,11.953c0,6.465-2.363,11.953-7.08,16.465
	c-4.717,4.492-10.684,6.738-17.891,6.738c-6.504,0-11.904-1.935-16.201-5.82C120.625,839.92,118.174,834.9,117.568,828.729
	L117.568,828.729z M222.9,839.549v8.75h-48.975c-0.074-2.159,0.288-4.312,1.064-6.328c1.24-3.34,3.242-6.621,5.986-9.844
	c2.744-3.242,6.709-6.992,11.904-11.23c8.047-6.602,13.496-11.836,16.328-15.684c2.822-3.867,4.238-7.52,4.238-10.957
	c0-3.594-1.289-6.641-3.867-9.121c-2.578-2.479-5.938-3.711-10.078-3.711c-4.385,0-7.891,1.31-10.518,3.945
	c-2.627,2.617-3.955,6.27-3.994,10.918l-9.346-0.957c0.635-6.973,3.047-12.305,7.227-15.957c4.18-3.652,9.785-5.488,16.836-5.488
	c7.109,0,12.734,1.974,16.875,5.918c4.15,3.945,6.221,8.828,6.221,14.668c0,2.949-0.604,5.88-1.816,8.73
	c-1.221,2.871-3.232,5.879-6.045,9.063c-2.813,3.164-7.49,7.5-14.023,13.027c-5.459,4.59-8.965,7.695-10.518,9.336
	c-1.553,1.621-2.832,3.281-3.838,4.922H222.9L222.9,839.549z M237.773,848.299v-10.371h10.361v10.371H237.773z M261.426,811.756
	c0-8.77,0.898-15.82,2.705-21.152c1.797-5.352,4.482-9.473,8.037-12.362s8.027-4.355,13.418-4.355c3.975,0,7.461,0.802,10.459,2.402
	s5.479,3.906,7.432,6.934c1.953,3.009,3.486,6.681,4.6,11.017c1.114,4.336,1.67,10.176,1.67,17.52
	c0,8.691-0.889,15.703-2.676,21.056c-1.787,5.331-4.463,9.452-8.018,12.383c-3.555,2.91-8.047,4.354-13.467,4.354
	c-7.148,0-12.754-2.559-16.836-7.676C263.867,835.701,261.426,825.662,261.426,811.756L261.426,811.756z M270.771,811.756
	c0,12.168,1.426,20.254,4.277,24.277c2.842,4.022,6.357,6.035,10.537,6.035c4.18,0,7.695-2.013,10.537-6.056
	c2.852-4.043,4.268-12.129,4.268-24.258c0-12.207-1.416-20.313-4.268-24.315c-2.842-4.005-6.396-6.017-10.635-6.017
	c-4.18,0-7.52,1.777-10.01,5.313C272.344,791.248,270.771,799.588,270.771,811.756L270.771,811.756z M348.154,848.299v-17.754
	h-32.139v-8.34l33.809-48.008h7.432v48.008h10.01v8.34h-10.01v17.754H348.154z M348.154,822.205v-33.398l-23.193,33.398H348.154z
	 M345.742,449.973V296.359h-54.863V265.08h146.935v31.279h-54.736v153.613L345.742,449.973L345.742,449.973z M496.953,265.08v67.979
	c11.436-13.368,25.098-20.049,40.996-20.049c8.153,0,15.508,1.515,22.069,4.541c6.554,3.027,11.494,6.896,14.814,11.603
	s5.596,9.922,6.807,15.635c1.222,5.723,1.836,14.59,1.836,26.611v78.573h-35.438v-70.752c0-14.043-0.674-22.949-2.021-26.737
	c-1.348-3.779-3.721-6.787-7.129-9.015c-3.397-2.227-7.666-3.34-12.793-3.34c-5.889,0-11.143,1.426-15.771,4.287
	c-4.619,2.852-8.009,7.168-10.146,12.92c-2.147,5.762-3.223,14.277-3.223,25.547v67.09h-35.431V265.08H496.953L496.953,265.08z
	 M859.473,109.182v7.588h-42.5c-0.067-1.904,0.244-3.73,0.918-5.479c1.084-2.9,2.813-5.752,5.195-8.555
	c2.383-2.813,5.83-6.055,10.332-9.746c6.992-5.732,11.709-10.264,14.17-13.613c2.451-3.35,3.682-6.514,3.682-9.502
	c0-3.125-1.112-5.771-3.35-7.92c-2.246-2.148-5.156-3.223-8.76-3.223c-3.799,0-6.836,1.143-9.121,3.428
	c-2.275,2.275-3.438,5.439-3.467,9.473l-8.115-0.84c0.557-6.045,2.646-10.664,6.279-13.838c3.623-3.174,8.485-4.756,14.6-4.756
	c6.172,0,11.055,1.709,14.658,5.127c3.594,3.428,5.391,7.666,5.391,12.725c0,2.578-0.526,5.107-1.571,7.588
	c-1.056,2.49-2.804,5.107-5.244,7.852c-2.441,2.754-6.504,6.523-12.179,11.318c-4.735,3.975-7.772,6.68-9.12,8.096
	c-1.349,1.416-2.462,2.842-3.341,4.277H859.473L859.473,109.182z M830.127,171.74c-3.271-1.201-5.703-2.91-7.285-5.137
	c-1.572-2.217-2.362-4.883-2.362-7.979c0-4.678,1.68-8.613,5.038-11.807c3.369-3.184,7.843-4.775,13.429-4.775
	c5.614,0,10.137,1.631,13.555,4.893s5.137,7.227,5.137,11.904c0,2.988-0.791,5.586-2.354,7.793
	c-1.563,2.207-3.937,3.906-7.129,5.107c3.955,1.289,6.953,3.359,9.014,6.229c2.07,2.861,3.096,6.289,3.096,10.264
	c0,5.498-1.942,10.117-5.83,13.857c-3.896,3.75-9.014,5.615-15.36,5.615c-6.338,0-11.455-1.875-15.353-5.635
	c-3.887-3.76-5.83-8.447-5.83-14.063c0-4.18,1.056-7.676,3.185-10.498C823.193,174.689,826.211,172.766,830.127,171.74z
	 M826.006,188.059c0,2.256,0.527,4.434,1.603,6.533c1.063,2.109,2.655,3.74,4.756,4.893c2.081,1.146,4.421,1.741,6.797,1.729
	c3.779,0,6.895-1.211,9.346-3.633c2.461-2.432,3.691-5.518,3.691-9.258c0-3.799-1.271-6.943-3.799-9.434
	c-2.529-2.48-5.693-3.73-9.503-3.73c-3.711,0-6.786,1.23-9.229,3.691C827.227,181.301,826.006,184.377,826.006,188.059
	L826.006,188.059z M828.545,158.361c0,3.037,0.986,5.527,2.939,7.451c1.963,1.934,4.502,2.9,7.637,2.9
	c3.037,0,5.537-0.957,7.48-2.871c1.942-1.914,2.92-4.268,2.92-7.041c0-2.9-1.007-5.332-3.009-7.305
	c-2.002-1.973-4.502-2.959-7.479-2.959c-3.019,0-5.519,0.957-7.5,2.891C829.541,153.361,828.545,155.666,828.545,158.361
	L828.545,158.361z M797.744,296.447h-7.891v-50.313c-1.904,1.807-4.396,3.623-7.48,5.439c-3.086,1.807-5.859,3.174-8.311,4.072
	v-7.627c4.414-2.08,8.271-4.59,11.582-7.549c3.301-2.949,5.645-5.82,7.012-8.594h5.088V296.447L797.744,296.447z M830.117,261.574
	c-3.271-1.201-5.703-2.91-7.285-5.137c-1.572-2.217-2.363-4.883-2.363-7.979c0-4.678,1.681-8.613,5.039-11.807
	c3.369-3.184,7.842-4.775,13.428-4.775c5.615,0,10.138,1.631,13.556,4.893s5.137,7.227,5.137,11.904
	c0,2.988-0.791,5.586-2.354,7.793c-1.563,2.207-3.937,3.906-7.13,5.107c3.955,1.289,6.953,3.359,9.015,6.23
	c2.069,2.861,3.096,6.289,3.096,10.264c0,5.498-1.942,10.117-5.83,13.857c-3.896,3.75-9.014,5.615-15.36,5.615
	c-6.339,0-11.455-1.875-15.353-5.635c-3.887-3.76-5.83-8.447-5.83-14.063c0-4.18,1.055-7.676,3.185-10.498
	C823.184,264.523,826.201,262.6,830.117,261.574L830.117,261.574z M825.996,277.893c0,2.256,0.527,4.434,1.602,6.533
	c1.064,2.109,2.656,3.74,4.756,4.893c2.082,1.146,4.422,1.741,6.798,1.729c3.778,0,6.895-1.211,9.346-3.633
	c2.461-2.432,3.69-5.518,3.69-9.258c0-3.799-1.27-6.943-3.799-9.434c-2.528-2.48-5.692-3.73-9.502-3.73
	c-3.711,0-6.787,1.23-9.229,3.691C827.217,271.135,825.996,274.211,825.996,277.893L825.996,277.893z M828.535,248.195
	c0,3.037,0.986,5.527,2.938,7.451c1.964,1.934,4.503,2.9,7.638,2.9c3.037,0,5.537-0.957,7.479-2.871
	c1.943-1.914,2.92-4.268,2.92-7.041c0-2.9-1.006-5.332-3.008-7.305c-2.002-1.973-4.502-2.959-7.479-2.959
	c-3.019,0-5.519,0.957-7.5,2.891C829.531,243.195,828.535,245.5,828.535,248.195L828.535,248.195z M768.047,369.318l7.9-1.056
	c0.908,4.474,2.451,7.695,4.629,9.668c2.178,1.974,4.834,2.959,7.959,2.959c3.711,0,6.854-1.278,9.414-3.856
	c2.559-2.568,3.838-5.762,3.838-9.562c0-3.623-1.191-6.621-3.555-8.975c-2.373-2.354-5.381-3.525-9.043-3.525
	c-1.484,0-3.341,0.293-5.566,0.879l0.879-6.934c0.527,0.059,0.947,0.088,1.271,0.088c3.358,0,6.387-0.879,9.082-2.637
	c2.686-1.748,4.032-4.453,4.032-8.115c0-2.891-0.977-5.293-2.938-7.188c-1.953-1.904-4.492-2.853-7.588-2.853
	c-3.066,0-5.625,0.957-7.677,2.892c-2.051,1.934-3.358,4.823-3.944,8.69l-7.9-1.406c0.967-5.293,3.164-9.395,6.582-12.305
	s7.676-4.365,12.764-4.365c3.507,0,6.738,0.752,9.697,2.256c2.949,1.505,5.215,3.564,6.777,6.162
	c1.563,2.607,2.344,5.371,2.344,8.291c0,2.783-0.742,5.313-2.236,7.588c-1.493,2.285-3.7,4.103-6.62,5.439
	c3.799,0.879,6.758,2.705,8.856,5.469c2.109,2.765,3.164,6.222,3.164,10.371c0,5.615-2.051,10.371-6.143,14.277
	c-4.103,3.906-9.277,5.858-15.527,5.858c-5.646,0-10.332-1.68-14.063-5.049C770.703,379.025,768.574,374.67,768.047,369.318
	L768.047,369.318z M859.463,378.703v7.588h-42.5c-0.067-1.904,0.244-3.73,0.918-5.479c1.084-2.9,2.813-5.753,5.195-8.556
	c2.383-2.813,5.83-6.055,10.332-9.746c6.992-5.731,11.709-10.264,14.17-13.612c2.451-3.351,3.682-6.515,3.682-9.502
	c0-3.125-1.112-5.771-3.35-7.921c-2.246-2.147-5.156-3.223-8.76-3.223c-3.799,0-6.836,1.144-9.121,3.428
	c-2.275,2.275-3.438,5.439-3.467,9.474l-8.115-0.84c0.557-6.046,2.646-10.664,6.279-13.839c3.623-3.174,8.485-4.756,14.6-4.756
	c6.172,0,11.055,1.709,14.658,5.127c3.594,3.429,5.391,7.666,5.391,12.726c0,2.578-0.527,5.106-1.572,7.588
	c-1.055,2.49-2.803,5.106-5.244,7.852c-2.44,2.754-6.504,6.523-12.178,11.318c-4.735,3.975-7.772,6.68-9.121,8.096
	c-1.348,1.416-2.461,2.842-3.34,4.277H859.463L859.463,378.703z M797.744,476.131h-7.891v-50.317
	c-1.904,1.807-4.396,3.622-7.48,5.438c-3.086,1.807-5.859,3.174-8.311,4.072v-7.627c4.414-2.08,8.271-4.59,11.582-7.549
	c3.301-2.949,5.645-5.82,7.012-8.595h5.088V476.131L797.744,476.131z M830.117,441.252c-3.271-1.201-5.703-2.91-7.285-5.137
	c-1.572-2.217-2.363-4.883-2.363-7.979c0-4.678,1.681-8.612,5.039-11.807c3.369-3.185,7.842-4.775,13.429-4.775
	c5.614,0,10.137,1.631,13.555,4.894c3.418,3.262,5.137,7.227,5.137,11.903c0,2.988-0.791,5.587-2.354,7.793
	c-1.563,2.207-3.937,3.906-7.129,5.107c3.954,1.289,6.952,3.359,9.014,6.23c2.07,2.86,3.096,6.288,3.096,10.264
	c0,5.494-1.942,10.123-5.83,13.854c-3.896,3.75-9.014,5.625-15.36,5.625c-6.339,0-11.455-1.875-15.353-5.645
	c-3.887-3.75-5.83-8.438-5.83-14.059c0-4.181,1.056-7.677,3.185-10.498C823.184,444.201,826.201,442.277,830.117,441.252
	L830.117,441.252z M825.996,457.57c0,2.256,0.527,4.438,1.602,6.528c1.064,2.109,2.656,3.75,4.757,4.902
	c2.108,1.152,4.375,1.719,6.797,1.719c3.778,0,6.895-1.211,9.346-3.633c2.461-2.422,3.691-5.508,3.691-9.254
	c0-3.799-1.271-6.943-3.8-9.434c-2.528-2.48-5.692-3.73-9.502-3.73c-3.711,0-6.787,1.23-9.229,3.691
	C827.217,450.813,825.996,453.889,825.996,457.57L825.996,457.57z M828.535,427.873c0,3.037,0.986,5.527,2.939,7.451
	c1.963,1.934,4.502,2.899,7.637,2.899c3.037,0,5.537-0.957,7.479-2.871c1.943-1.913,2.92-4.268,2.92-7.04
	c0-2.9-1.006-5.332-3.008-7.306c-2.002-1.973-4.502-2.959-7.479-2.959c-3.019,0-5.519,0.957-7.5,2.892
	C829.531,422.873,828.535,425.178,828.535,427.873L828.535,427.873z M797.744,565.975h-7.891v-50.313
	c-1.904,1.797-4.396,3.613-7.48,5.43c-3.085,1.817-5.859,3.185-8.311,4.082v-7.637c4.414-2.07,8.271-4.59,11.582-7.539
	c3.301-2.949,5.645-5.82,7.012-8.594h5.088V565.975L797.744,565.975z M817.969,534.256c0-7.598,0.781-13.729,2.345-18.358
	c1.563-4.63,3.887-8.203,6.973-10.724c3.086-2.52,6.973-3.77,11.65-3.77c3.446,0,6.475,0.684,9.081,2.069
	c2.599,1.388,4.746,3.398,6.445,6.017s3.027,5.801,3.994,9.57c0.967,3.75,1.445,8.827,1.445,15.194
	c0,7.539-0.771,13.633-2.324,18.263c-1.553,4.647-3.867,8.223-6.953,10.762c-3.086,2.52-6.981,3.789-11.688,3.789
	c-6.201,0-11.074-2.228-14.609-6.66C820.088,555.057,817.969,546.326,817.969,534.256L817.969,534.256z M826.084,534.256
	c0,10.547,1.23,17.578,3.701,21.074s5.527,5.234,9.15,5.234s6.67-1.738,9.149-5.255c2.471-3.516,3.701-10.526,3.701-21.055
	c0-10.586-1.23-17.617-3.701-21.094c-2.479-3.496-5.557-5.234-9.238-5.234c-3.622,0-6.522,1.543-8.682,4.609
	C827.441,516.463,826.084,523.689,826.084,534.256L826.084,534.256z M859.473,648.221v7.578h-42.5
	c-0.067-1.895,0.244-3.729,0.918-5.469c1.084-2.91,2.813-5.762,5.195-8.555c2.383-2.813,5.83-6.056,10.332-9.746
	c6.992-5.742,11.709-10.273,14.17-13.613c2.451-3.359,3.682-6.522,3.682-9.512c0-3.125-1.112-5.762-3.35-7.91
	c-2.246-2.148-5.156-3.223-8.76-3.223c-3.799,0-6.836,1.133-9.121,3.418c-2.275,2.285-3.438,5.448-3.467,9.473l-8.115-0.84
	c0.557-6.035,2.646-10.664,6.279-13.828c3.623-3.184,8.485-4.766,14.6-4.766c6.172,0,11.055,1.719,14.658,5.137
	c3.594,3.418,5.391,7.656,5.391,12.715c0,2.578-0.526,5.117-1.571,7.598c-1.056,2.48-2.804,5.099-5.244,7.853
	c-2.441,2.754-6.504,6.522-12.179,11.309c-4.735,3.984-7.772,6.681-9.12,8.105c-1.349,1.406-2.462,2.832-3.341,4.276H859.473
	L859.473,648.221z"/>
</svg>
