<?xml version="1.0" encoding="utf-8"?>
<!-- Generator: Adobe Illustrator 16.0.3, SVG Export Plug-In . SVG Version: 6.00 Build 0)  -->
<!DOCTYPE svg PUBLIC "-//W3C//DTD SVG 1.1//EN" "http://www.w3.org/Graphics/SVG/1.1/DTD/svg11.dtd">
<svg version="1.1" id="Layer_1" xmlns="http://www.w3.org/2000/svg" xmlns:xlink="http://www.w3.org/1999/xlink" x="0px" y="0px"
	 width="900px" height="900px" viewBox="0 0 900 900" enable-background="new 0 0 900 900" xml:space="preserve">
<path d="M41.816,137.493l13.301-1.23c1.123,6.26,3.271,10.791,6.455,13.613c3.174,2.813,7.256,4.229,12.227,4.229
	c4.248,0,7.979-0.977,11.182-2.92c3.203-1.953,5.83-4.551,7.881-7.813c2.051-3.252,3.77-7.646,5.156-13.184
	c1.378-5.532,2.073-11.212,2.07-16.914c0-0.615-0.029-1.533-0.078-2.764c-2.764,4.404-6.543,7.979-11.338,10.723
	c-4.795,2.744-9.98,4.111-15.566,4.111c-9.326,0-17.227-3.379-23.682-10.146c-6.455-6.767-9.688-15.684-9.688-26.748
	c0-11.436,3.369-20.635,10.107-27.607c6.738-6.963,15.186-10.449,25.332-10.449c7.334,0,14.033,1.973,20.107,5.918
	c6.074,3.945,10.684,9.57,13.838,16.875c3.154,7.305,4.727,17.871,4.727,31.709c0,14.404-1.563,25.869-4.688,34.404
	c-3.125,8.535-7.773,15.029-13.955,19.492c-6.172,4.463-13.418,6.689-21.719,6.689c-8.818,0-16.016-2.451-21.602-7.344
	C46.297,153.244,42.939,146.36,41.816,137.493L41.816,137.493z M98.477,87.756c0-7.949-2.119-14.248-6.348-18.916
	s-9.316-6.992-15.254-6.992c-6.152,0-11.514,2.51-16.074,7.529c-4.561,5.029-6.836,11.533-6.836,19.531
	c0,7.178,2.158,13.008,6.494,17.49c4.326,4.482,9.668,6.729,16.025,6.729c6.406,0,11.68-2.246,15.801-6.729
	S98.477,95.696,98.477,87.756L98.477,87.756z M179.434,163.557h-13.838V75.374c-3.34,3.184-7.705,6.357-13.115,9.531
	c-5.4,3.184-10.264,5.566-14.561,7.158V78.684c7.734-3.643,14.502-8.047,20.293-13.223c5.791-5.176,9.893-10.205,12.305-15.068
	h8.916V163.557z M169.043,662.459v-74.102h27.949c4.922,0,8.672,0.233,11.27,0.723c3.643,0.604,6.689,1.758,9.15,3.457
	s4.443,4.082,5.938,7.147c1.504,3.066,2.246,6.445,2.246,10.117c0,6.289-2.002,11.621-6.006,15.996
	c-4.014,4.355-11.26,6.543-21.738,6.543h-19.004v30.117L169.043,662.459L169.043,662.459z M178.848,623.592h19.16
	c6.328,0,10.83-1.172,13.486-3.535c2.666-2.362,3.994-5.684,3.994-9.961c0-3.104-0.781-5.742-2.344-7.948
	c-1.572-2.207-3.633-3.673-6.191-4.375c-1.65-0.449-4.707-0.664-9.15-0.664h-18.955V623.592L178.848,623.592z M236.816,662.459
	v-53.672h8.193v8.145c2.09-3.809,4.014-6.328,5.781-7.539c1.777-1.211,3.721-1.815,5.84-1.815c3.066,0,6.182,0.977,9.355,2.93
	l-3.135,8.438c-2.227-1.31-4.453-1.974-6.67-1.974c-1.992,0-3.779,0.605-5.361,1.797c-1.582,1.192-2.715,2.853-3.389,4.98
	c-1.006,3.242-1.514,6.777-1.514,10.604v28.105H236.816L236.816,662.459z M268.008,635.623c0-9.941,2.764-17.305,8.291-22.09
	c4.609-3.965,10.244-5.957,16.885-5.957c7.373,0,13.408,2.422,18.086,7.246c4.688,4.844,7.031,11.522,7.031,20.039
	c0,6.914-1.035,12.344-3.105,16.309c-2.08,3.965-5.088,7.031-9.053,9.219c-3.955,2.188-8.281,3.281-12.959,3.281
	c-7.52,0-13.594-2.402-18.223-7.227C270.322,651.639,268.008,644.686,268.008,635.623L268.008,635.623z M277.354,635.623
	c0,6.875,1.504,12.031,4.502,15.449s6.777,5.117,11.328,5.117c4.512,0,8.271-1.72,11.27-5.156c2.999-3.438,4.492-8.672,4.492-15.703
	c0-6.641-1.504-11.68-4.521-15.098c-3.017-3.419-6.768-5.138-11.24-5.138c-4.551,0-8.33,1.719-11.328,5.117
	S277.354,628.748,277.354,635.623L277.354,635.623z M348.828,654.334l1.309,8.027c-2.559,0.547-4.844,0.801-6.875,0.801
	c-3.301,0-5.859-0.508-7.676-1.563c-1.826-1.034-3.105-2.422-3.848-4.12c-0.743-1.699-1.104-5.273-1.104-10.742v-30.879h-6.68v-7.07
	h6.68v-13.301l9.043-5.449v18.75h9.15v7.07h-9.15v31.387c0,2.598,0.156,4.277,0.479,5c0.322,0.742,0.84,1.348,1.572,1.777
	c0.723,0.448,1.758,0.663,3.105,0.663C345.84,654.686,347.178,654.568,348.828,654.334z M392.754,655.838
	c-3.379,2.871-6.621,4.883-9.736,6.074c-3.115,1.172-6.455,1.758-10.029,1.758c-5.898,0-10.43-1.426-13.594-4.316
	c-3.174-2.87-4.756-6.563-4.756-11.034c0-2.638,0.596-5.039,1.797-7.207c1.191-2.168,2.764-3.927,4.697-5.234
	c1.933-1.308,4.121-2.305,6.543-2.988c1.787-0.469,4.482-0.918,8.086-1.366c7.354-0.859,12.754-1.914,16.23-3.125
	c0.029-1.25,0.049-2.031,0.049-2.384c0-3.69-0.859-6.309-2.578-7.831c-2.324-2.052-5.781-3.087-10.361-3.087
	c-4.277,0-7.441,0.763-9.473,2.267c-2.041,1.483-3.555,4.141-4.531,7.949l-8.896-1.211c0.811-3.81,2.148-6.875,3.994-9.22
	c1.855-2.344,4.531-4.141,8.037-5.41c3.506-1.269,7.568-1.895,12.188-1.895c4.58,0,8.301,0.527,11.172,1.621
	c2.861,1.074,4.961,2.422,6.31,4.063c1.348,1.642,2.295,3.691,2.832,6.191c0.303,1.543,0.459,4.354,0.459,8.397v12.13
	c0,8.456,0.194,13.809,0.575,16.034c0.398,2.264,1.178,4.442,2.306,6.445h-9.502C393.623,660.584,393.018,658.377,392.754,655.838
	L392.754,655.838z M391.992,635.525c-3.301,1.348-8.262,2.5-14.863,3.438c-3.74,0.527-6.387,1.152-7.93,1.816
	c-1.553,0.684-2.754,1.66-3.594,2.948c-0.835,1.292-1.273,2.799-1.26,4.337c0,2.422,0.918,4.434,2.754,6.055
	s4.521,2.422,8.057,2.422c3.506,0,6.621-0.762,9.355-2.285c2.725-1.543,4.736-3.633,6.016-6.289c0.977-2.07,1.465-5.098,1.465-9.102
	V635.525L391.992,635.525z M450.322,642.811l8.944,1.152c-0.977,6.172-3.485,10.996-7.51,14.492
	c-4.022,3.477-8.975,5.215-14.834,5.215c-7.344,0-13.252-2.402-17.715-7.188c-4.463-4.806-6.699-11.699-6.699-20.664
	c0-5.781,0.957-10.859,2.881-15.215c1.925-4.337,4.845-7.599,8.771-9.767c3.926-2.188,8.193-3.262,12.813-3.262
	c5.83,0,10.597,1.465,14.308,4.414c3.701,2.948,6.084,7.147,7.129,12.559l-8.849,1.367c-0.84-3.594-2.334-6.309-4.473-8.125
	c-2.139-1.836-4.727-2.734-7.764-2.734c-4.58,0-8.301,1.642-11.162,4.923c-2.871,3.28-4.297,8.477-4.297,15.586
	c0,7.227,1.377,12.461,4.141,15.723c2.764,3.281,6.367,4.902,10.82,4.902c3.563,0,6.553-1.095,8.945-3.281
	C448.163,650.721,449.678,647.342,450.322,642.811z M486.914,654.334l1.309,8.027c-2.559,0.547-4.844,0.801-6.875,0.801
	c-3.301,0-5.858-0.508-7.676-1.563c-1.826-1.034-3.104-2.422-3.848-4.12c-0.743-1.699-1.104-5.273-1.104-10.742v-30.879h-6.68v-7.07
	h6.68v-13.301l9.043-5.449v18.75h9.15v7.07h-9.15v31.387c0,2.598,0.156,4.277,0.479,5c0.322,0.742,0.84,1.348,1.572,1.777
	c0.723,0.448,1.758,0.664,3.104,0.664C483.926,654.686,485.264,654.568,486.914,654.334z M495.869,598.826v-10.469h9.102v10.469
	H495.869z M495.869,662.459v-53.672h9.102v53.672H495.869z M518.809,662.459v-53.672h8.185v7.637
	c3.945-5.897,9.639-8.848,17.09-8.848c3.232,0,6.201,0.586,8.916,1.738c2.715,1.172,4.746,2.694,6.094,4.569
	c1.349,1.896,2.285,4.142,2.832,6.72c0.332,1.698,0.498,4.647,0.498,8.848v33.008h-9.092v-32.656c0-3.69-0.352-6.465-1.064-8.301
	c-0.702-1.836-1.963-3.301-3.76-4.395c-1.807-1.095-3.926-1.642-6.348-1.642c-3.877,0-7.217,1.23-10.029,3.672
	c-2.822,2.461-4.229,7.129-4.229,14.004v29.316L518.809,662.459L518.809,662.459z M576.436,598.826v-10.469h9.103v10.469H576.436z
	 M576.436,662.459v-53.672h9.103v53.672H576.436z M634.561,662.459v-7.871c-4.18,6.055-9.854,9.082-17.03,9.082
	c-3.174,0-6.123-0.604-8.877-1.815c-2.744-1.212-4.785-2.734-6.113-4.57s-2.266-4.082-2.803-6.738
	c-0.371-1.797-0.558-4.629-0.558-8.496v-33.262h9.103v29.766c0,4.746,0.186,7.949,0.557,9.609c0.566,2.383,1.777,4.277,3.633,5.625
	c1.855,1.367,4.15,2.051,6.875,2.051c2.734,0,5.293-0.703,7.687-2.09c2.393-1.406,4.082-3.301,5.078-5.723
	c0.996-2.402,1.494-5.898,1.494-10.488v-28.75h9.092v53.672L634.561,662.459L634.561,662.459z M656.953,662.459v-53.672h8.135v7.52
	c1.689-2.616,3.926-4.727,6.719-6.327c2.804-1.603,5.986-2.402,9.562-2.402c3.975,0,7.236,0.82,9.774,2.479
	c2.55,1.642,4.337,3.945,5.382,6.914c4.248-6.27,9.774-9.395,16.582-9.395c5.321,0,9.414,1.465,12.284,4.414
	c2.861,2.949,4.298,7.5,4.298,13.633v36.836h-9.054V628.65c0-3.634-0.293-6.271-0.879-7.853c-0.596-1.602-1.66-2.891-3.213-3.867
	c-1.553-0.976-3.369-1.465-5.459-1.465c-3.77,0-6.904,1.25-9.404,3.75c-2.489,2.521-3.739,6.543-3.739,12.07v31.172h-9.093v-34.863
	c0-4.043-0.741-7.09-2.227-9.102c-1.484-2.031-3.906-3.027-7.275-3.027c-2.567,0-4.932,0.664-7.108,2.013
	c-2.168,1.348-3.74,3.319-4.728,5.918c-0.977,2.598-1.465,6.328-1.465,11.211v27.852H656.953L656.953,662.459z M107.754,839.549
	v8.75H58.779c-0.074-2.159,0.288-4.312,1.064-6.328c1.24-3.34,3.242-6.621,5.986-9.844c2.744-3.242,6.709-6.992,11.904-11.229
	c8.047-6.603,13.496-11.836,16.328-15.685c2.822-3.867,4.238-7.52,4.238-10.957c0-3.594-1.289-6.641-3.867-9.121
	c-2.578-2.479-5.938-3.711-10.078-3.711c-4.385,0-7.891,1.31-10.518,3.945c-2.627,2.617-3.955,6.27-3.994,10.918l-9.346-0.957
	c0.635-6.973,3.047-12.305,7.227-15.957c4.18-3.651,9.785-5.488,16.836-5.488c7.109,0,12.734,1.974,16.875,5.919
	c4.15,3.944,6.221,8.827,6.221,14.668c0,2.948-0.605,5.879-1.816,8.729c-1.221,2.871-3.232,5.879-6.045,9.063
	c-2.813,3.164-7.49,7.5-14.023,13.026c-5.459,4.59-8.965,7.695-10.518,9.336c-1.553,1.621-2.832,3.281-3.838,4.922H107.754
	L107.754,839.549z M117.559,828.729l9.102-1.212c1.045,5.156,2.822,8.867,5.332,11.152c2.51,2.266,5.566,3.398,9.17,3.398
	c4.277,0,7.891-1.465,10.84-4.435c2.949-2.969,4.424-6.641,4.424-11.016c0-4.18-1.357-7.637-4.092-10.353
	c-2.725-2.715-6.201-4.063-10.41-4.063c-1.719,0-3.857,0.332-6.416,1.016l1.006-7.987c0.486,0.054,0.976,0.087,1.465,0.098
	c3.877,0,7.363-1.016,10.469-3.027c3.096-2.03,4.648-5.137,4.648-9.354c0-3.34-1.133-6.094-3.389-8.281
	c-2.256-2.207-5.176-3.301-8.74-3.301c-3.545,0-6.494,1.113-8.848,3.34c-2.363,2.227-3.877,5.566-4.551,10.021l-9.102-1.621
	c1.113-6.095,3.643-10.82,7.588-14.181c3.936-3.358,8.838-5.039,14.707-5.039c4.043,0,7.764,0.88,11.172,2.617
	c3.398,1.738,6.006,4.103,7.803,7.09c1.807,3.009,2.705,6.191,2.705,9.552c0,3.203-0.859,6.112-2.578,8.75
	c-1.719,2.637-4.258,4.727-7.627,6.27c4.375,1.017,7.783,3.105,10.205,6.289c2.432,3.185,3.643,7.168,3.643,11.953
	c0,6.465-2.363,11.953-7.08,16.465c-4.717,4.492-10.684,6.738-17.891,6.738c-6.504,0-11.904-1.935-16.201-5.82
	C120.615,839.92,118.164,834.9,117.559,828.729L117.559,828.729z M209.346,848.299h-9.102v-57.987
	c-2.188,2.09-5.059,4.18-8.613,6.27c-3.554,2.09-6.748,3.672-9.58,4.707v-8.789c5.088-2.402,9.541-5.293,13.35-8.69
	c3.799-3.419,6.504-6.72,8.086-9.923h5.859V848.299L209.346,848.299z M237.764,848.299v-10.371h10.361v10.371H237.764z
	 M261.416,811.756c0-8.77,0.898-15.819,2.705-21.151c1.797-5.353,4.482-9.474,8.037-12.363c3.555-2.89,8.027-4.355,13.418-4.355
	c3.975,0,7.461,0.802,10.459,2.402s5.479,3.906,7.432,6.935c1.953,3.008,3.486,6.68,4.6,11.016c1.114,4.336,1.67,10.176,1.67,17.52
	c0,8.691-0.889,15.703-2.676,21.056c-1.787,5.332-4.463,9.453-8.018,12.383c-3.555,2.91-8.047,4.354-13.467,4.354
	c-7.148,0-12.754-2.559-16.836-7.676C263.857,835.701,261.416,825.662,261.416,811.756z M270.762,811.756
	c0,12.168,1.426,20.254,4.277,24.277c2.842,4.022,6.357,6.035,10.537,6.035c4.18,0,7.695-2.013,10.537-6.056
	c2.852-4.043,4.268-12.129,4.268-24.258c0-12.207-1.416-20.313-4.268-24.315c-2.842-4.004-6.396-6.017-10.635-6.017
	c-4.18,0-7.52,1.777-10.01,5.313C272.334,791.248,270.762,799.588,270.762,811.756L270.762,811.756z M348.145,848.299v-17.754
	h-32.139v-8.34l33.809-48.008h7.432v48.008h10.01v8.34h-10.01v17.754H348.145z M348.145,822.205v-33.398l-23.193,33.398H348.145z
	 M303.926,449.973V265.081h59.912c22.695,0,37.49,0.928,44.385,2.783c10.597,2.773,19.474,8.809,26.611,18.096
	c7.148,9.287,10.723,21.289,10.723,36.006c0,11.349-2.061,20.89-6.182,28.623c-4.121,7.744-9.354,13.818-15.703,18.232
	c-6.348,4.414-12.793,7.334-19.354,8.76c-8.917,1.768-21.816,2.646-38.721,2.646H341.26v69.746H303.926L303.926,449.973z
	 M341.26,296.36v52.471h20.43c14.717,0,24.551-0.967,29.512-2.9c4.961-1.933,8.848-4.961,11.67-9.082
	c2.813-4.121,4.219-8.916,4.219-14.375c0-6.729-1.973-12.274-5.928-16.649s-8.955-7.109-15.01-8.203
	c-4.453-0.84-13.408-1.26-26.855-1.26L341.26,296.36L341.26,296.36z M502.432,356.896l-32.157-5.801
	c3.612-12.949,9.844-22.528,18.672-28.75c8.828-6.221,21.942-9.336,39.346-9.336c15.801,0,27.578,1.875,35.313,5.615
	c7.734,3.74,13.174,8.486,16.327,14.248c3.154,5.762,4.736,16.328,4.736,31.719l-0.381,41.367c0,11.768,0.565,20.449,1.699,26.045
	c1.133,5.586,3.262,11.582,6.366,17.969h-35.059c-0.928-2.354-2.061-5.84-3.398-10.469c-0.596-2.1-1.016-3.486-1.27-4.16
	c-6.055,5.89-12.529,10.303-19.414,13.242c-6.895,2.939-14.258,4.414-22.07,4.414c-13.799,0-24.657-3.74-32.606-11.22
	c-7.939-7.49-11.914-16.943-11.914-28.379c0-7.568,1.807-14.316,5.42-20.244c3.613-5.929,8.682-10.47,15.195-13.623
	c6.513-3.154,15.907-5.898,28.192-8.262c16.563-3.105,28.037-6.007,34.424-8.701v-3.525c0-6.815-1.68-11.67-5.038-14.57
	c-3.369-2.899-9.718-4.346-19.044-4.346c-6.309,0-11.229,1.24-14.756,3.721C507.48,346.331,504.619,350.676,502.432,356.896
	L502.432,356.896z M549.854,385.657c-4.541,1.514-11.729,3.319-21.563,5.42c-9.834,2.1-16.27,4.16-19.297,6.182
	c-4.629,3.281-6.934,7.441-6.934,12.48c0,4.961,1.846,9.248,5.547,12.871c3.7,3.612,8.407,5.42,14.121,5.42
	c6.396,0,12.489-2.101,18.291-6.31c4.286-3.192,7.1-7.1,8.446-11.729c0.929-3.027,1.388-8.779,1.388-17.275V385.657L549.854,385.657
	z M859.473,109.182v7.588h-42.5c-0.067-1.904,0.244-3.73,0.918-5.479c1.084-2.9,2.813-5.752,5.195-8.555
	c2.383-2.813,5.83-6.055,10.332-9.746c6.992-5.732,11.709-10.264,14.17-13.613c2.451-3.35,3.682-6.514,3.682-9.502
	c0-3.125-1.112-5.771-3.35-7.92c-2.246-2.148-5.156-3.223-8.76-3.223c-3.799,0-6.836,1.143-9.121,3.428
	c-2.275,2.275-3.438,5.439-3.467,9.473l-8.115-0.84c0.557-6.045,2.646-10.664,6.279-13.838c3.623-3.174,8.485-4.756,14.6-4.756
	c6.172,0,11.055,1.709,14.658,5.127c3.594,3.428,5.391,7.666,5.391,12.725c0,2.578-0.526,5.107-1.571,7.588
	c-1.056,2.49-2.804,5.107-5.244,7.852c-2.441,2.754-6.504,6.523-12.179,11.318c-4.735,3.975-7.772,6.68-9.12,8.096
	c-1.349,1.416-2.462,2.842-3.341,4.277H859.473z M830.127,171.741c-3.271-1.201-5.703-2.91-7.285-5.137
	c-1.572-2.217-2.362-4.883-2.362-7.979c0-4.678,1.68-8.613,5.038-11.807c3.369-3.184,7.843-4.775,13.429-4.775
	c5.614,0,10.137,1.631,13.555,4.893s5.137,7.227,5.137,11.904c0,2.988-0.791,5.586-2.354,7.793
	c-1.563,2.207-3.937,3.906-7.129,5.107c3.955,1.289,6.953,3.359,9.014,6.229c2.07,2.861,3.096,6.289,3.096,10.264
	c0,5.498-1.942,10.117-5.83,13.857c-3.896,3.75-9.014,5.615-15.36,5.615c-6.338,0-11.455-1.875-15.353-5.635
	c-3.887-3.76-5.83-8.447-5.83-14.063c0-4.18,1.056-7.676,3.185-10.498C823.193,174.69,826.211,172.766,830.127,171.741z
	 M826.006,188.059c0,2.256,0.527,4.434,1.603,6.533c1.063,2.109,2.655,3.74,4.756,4.893c2.081,1.146,4.421,1.741,6.797,1.729
	c3.779,0,6.895-1.211,9.346-3.633c2.461-2.432,3.691-5.518,3.691-9.258c0-3.799-1.271-6.943-3.799-9.434
	c-2.529-2.48-5.693-3.73-9.503-3.73c-3.711,0-6.786,1.23-9.229,3.691C827.227,181.301,826.006,184.377,826.006,188.059
	L826.006,188.059z M828.545,158.362c0,3.037,0.986,5.527,2.939,7.451c1.963,1.934,4.502,2.9,7.637,2.9
	c3.037,0,5.537-0.957,7.48-2.871c1.942-1.914,2.92-4.268,2.92-7.041c0-2.9-1.007-5.332-3.009-7.305
	c-2.002-1.973-4.502-2.959-7.479-2.959c-3.019,0-5.519,0.957-7.5,2.891C829.541,153.362,828.545,155.667,828.545,158.362
	L828.545,158.362z M797.744,296.448h-7.891v-50.313c-1.904,1.807-4.396,3.623-7.48,5.439c-3.086,1.807-5.859,3.174-8.311,4.072
	v-7.627c4.414-2.08,8.271-4.59,11.582-7.549c3.301-2.949,5.645-5.82,7.012-8.594h5.088V296.448L797.744,296.448z M830.117,261.575
	c-3.271-1.201-5.703-2.91-7.285-5.137c-1.572-2.217-2.363-4.883-2.363-7.979c0-4.678,1.681-8.613,5.039-11.807
	c3.369-3.184,7.842-4.775,13.428-4.775c5.615,0,10.138,1.631,13.556,4.893s5.137,7.227,5.137,11.904
	c0,2.988-0.791,5.586-2.354,7.793c-1.563,2.207-3.937,3.906-7.13,5.107c3.955,1.289,6.953,3.359,9.015,6.23
	c2.069,2.861,3.096,6.289,3.096,10.264c0,5.498-1.942,10.117-5.83,13.857c-3.896,3.75-9.014,5.615-15.36,5.615
	c-6.339,0-11.455-1.875-15.353-5.635c-3.887-3.76-5.83-8.447-5.83-14.063c0-4.18,1.055-7.676,3.185-10.498
	C823.184,264.524,826.201,262.6,830.117,261.575L830.117,261.575z M825.996,277.893c0,2.256,0.527,4.434,1.602,6.533
	c1.064,2.109,2.656,3.74,4.756,4.893c2.082,1.146,4.422,1.741,6.798,1.729c3.778,0,6.895-1.211,9.346-3.633
	c2.461-2.432,3.69-5.518,3.69-9.258c0-3.799-1.27-6.943-3.799-9.434c-2.528-2.48-5.692-3.73-9.502-3.73
	c-3.711,0-6.787,1.23-9.229,3.691C827.217,271.135,825.996,274.211,825.996,277.893L825.996,277.893z M828.535,248.196
	c0,3.037,0.986,5.527,2.938,7.451c1.964,1.934,4.503,2.9,7.638,2.9c3.037,0,5.537-0.957,7.479-2.871
	c1.943-1.914,2.92-4.268,2.92-7.041c0-2.9-1.006-5.332-3.008-7.305c-2.002-1.973-4.502-2.959-7.479-2.959
	c-3.019,0-5.519,0.957-7.5,2.891C829.531,243.196,828.535,245.5,828.535,248.196L828.535,248.196z M768.047,369.319l7.9-1.056
	c0.908,4.474,2.451,7.695,4.629,9.668c2.178,1.974,4.834,2.959,7.959,2.959c3.711,0,6.854-1.278,9.414-3.856
	c2.559-2.568,3.838-5.763,3.838-9.562c0-3.623-1.191-6.621-3.555-8.975c-2.373-2.354-5.381-3.525-9.043-3.525
	c-1.484,0-3.341,0.293-5.566,0.879l0.879-6.934c0.527,0.059,0.947,0.088,1.271,0.088c3.358,0,6.387-0.879,9.082-2.637
	c2.686-1.748,4.032-4.453,4.032-8.115c0-2.891-0.977-5.293-2.938-7.188c-1.953-1.904-4.492-2.853-7.588-2.853
	c-3.066,0-5.625,0.957-7.677,2.892c-2.051,1.934-3.358,4.823-3.944,8.69l-7.9-1.406c0.967-5.293,3.164-9.395,6.582-12.305
	s7.676-4.365,12.764-4.365c3.507,0,6.738,0.752,9.697,2.256c2.949,1.505,5.215,3.564,6.777,6.162
	c1.563,2.607,2.344,5.371,2.344,8.291c0,2.783-0.742,5.313-2.236,7.588c-1.493,2.285-3.7,4.103-6.62,5.439
	c3.799,0.879,6.758,2.705,8.856,5.469c2.109,2.765,3.164,6.222,3.164,10.371c0,5.615-2.051,10.371-6.143,14.277
	c-4.103,3.906-9.277,5.858-15.527,5.858c-5.646,0-10.332-1.68-14.063-5.049C770.703,379.026,768.574,374.67,768.047,369.319
	L768.047,369.319z M859.463,378.704v7.588h-42.5c-0.067-1.904,0.244-3.73,0.918-5.479c1.084-2.899,2.813-5.752,5.195-8.555
	c2.383-2.813,5.83-6.055,10.332-9.746c6.992-5.731,11.709-10.264,14.17-13.612c2.451-3.351,3.682-6.515,3.682-9.503
	c0-3.125-1.112-5.771-3.35-7.92c-2.246-2.147-5.156-3.223-8.76-3.223c-3.799,0-6.836,1.143-9.121,3.428
	c-2.275,2.275-3.438,5.439-3.467,9.474l-8.115-0.841c0.557-6.045,2.646-10.663,6.279-13.838c3.623-3.174,8.485-4.756,14.6-4.756
	c6.172,0,11.055,1.709,14.658,5.127c3.594,3.429,5.391,7.666,5.391,12.726c0,2.578-0.527,5.106-1.572,7.588
	c-1.055,2.49-2.803,5.106-5.244,7.852c-2.44,2.754-6.504,6.523-12.178,11.318c-4.735,3.975-7.772,6.68-9.121,8.096
	c-1.348,1.416-2.461,2.842-3.34,4.277H859.463L859.463,378.704z M809.502,468.533v7.598h-42.5c-0.068-1.914,0.244-3.729,0.918-5.488
	c1.084-2.891,2.813-5.741,5.195-8.555c2.383-2.809,5.83-6.051,10.332-9.742c6.992-5.731,11.709-10.263,14.17-13.612
	c2.451-3.351,3.682-6.515,3.682-9.503c0-3.125-1.112-5.771-3.35-7.92c-2.246-2.147-5.156-3.223-8.76-3.223
	c-3.8,0-6.836,1.143-9.121,3.428c-2.275,2.275-3.438,5.439-3.467,9.474l-8.115-0.841c0.557-6.045,2.646-10.663,6.279-13.838
	c3.622-3.174,8.485-4.756,14.6-4.756c6.172,0,11.055,1.709,14.658,5.127c3.594,3.429,5.391,7.666,5.391,12.726
	c0,2.578-0.527,5.106-1.572,7.588c-1.055,2.49-2.803,5.106-5.244,7.852c-2.44,2.754-6.504,6.523-12.178,11.318
	c-4.736,3.975-7.772,6.686-9.121,8.092c-1.348,1.426-2.461,2.853-3.34,4.277L809.502,468.533L809.502,468.533z M817.969,444.407
	c0-7.599,0.781-13.722,2.345-18.359c1.563-4.629,3.887-8.203,6.973-10.723c3.086-2.511,6.973-3.771,11.65-3.771
	c3.446,0,6.475,0.693,9.081,2.08c2.599,1.387,4.746,3.398,6.445,6.017c1.699,2.617,3.027,5.801,3.994,9.561
	s1.445,8.828,1.445,15.195c0,7.548-0.771,13.642-2.324,18.267c-1.553,4.648-3.867,8.223-6.953,10.762
	c-3.086,2.521-6.981,3.789-11.688,3.789c-6.201,0-11.074-2.227-14.609-6.66C820.088,465.213,817.969,456.486,817.969,444.407
	L817.969,444.407z M826.084,444.407c0,10.556,1.23,17.583,3.701,21.08s5.527,5.233,9.15,5.233s6.67-1.737,9.149-5.254
	c2.471-3.516,3.701-10.533,3.701-21.06c0-10.586-1.23-17.617-3.701-21.095c-2.479-3.485-5.557-5.225-9.238-5.225
	c-3.622,0-6.522,1.533-8.682,4.609C827.441,426.614,826.084,433.85,826.084,444.407L826.084,444.407z M819.16,551.092l7.588-0.703
	c0.645,3.574,1.875,6.172,3.691,7.773c1.807,1.602,4.131,2.401,6.973,2.401c2.422,0,4.551-0.547,6.377-1.659
	c1.826-1.113,3.33-2.599,4.502-4.453c1.172-1.855,2.148-4.355,2.939-7.521s1.182-6.367,1.182-9.647c0-0.353-0.02-0.879-0.039-1.582
	c-1.582,2.52-3.74,4.551-6.475,6.112c-2.735,1.563-5.693,2.345-8.888,2.345c-5.321,0-9.823-1.914-13.506-5.781
	c-3.69-3.867-5.526-8.945-5.526-15.273c0-6.504,1.924-11.758,5.771-15.741c3.838-3.966,8.662-5.957,14.453-5.957
	c4.18,0,7.998,1.112,11.465,3.379c3.467,2.246,6.104,5.448,7.9,9.629c1.797,4.16,2.694,10.194,2.694,18.086
	c0,8.223-0.889,14.766-2.676,19.629s-4.434,8.574-7.959,11.113c-3.524,2.559-7.656,3.828-12.393,3.828
	c-5.029,0-9.142-1.406-12.324-4.199C821.719,560.076,819.806,556.15,819.16,551.092L819.16,551.092z M851.494,522.713
	c0-4.531-1.211-8.125-3.623-10.781c-2.412-2.676-5.313-4.004-8.711-4.004c-3.506,0-6.563,1.445-9.16,4.297
	c-2.607,2.871-3.906,6.582-3.906,11.152c0,4.102,1.23,7.422,3.701,9.979c2.471,2.559,5.527,3.828,9.15,3.828
	c3.651,0,6.66-1.27,9.014-3.828C850.313,530.799,851.494,527.244,851.494,522.713z M859.473,648.221v7.578h-42.5
	c-0.067-1.895,0.244-3.729,0.918-5.469c1.084-2.91,2.813-5.762,5.195-8.555c2.383-2.813,5.83-6.056,10.332-9.746
	c6.992-5.742,11.709-10.273,14.17-13.613c2.451-3.359,3.682-6.523,3.682-9.512c0-3.125-1.112-5.763-3.35-7.91
	c-2.246-2.148-5.156-3.224-8.76-3.224c-3.799,0-6.836,1.134-9.121,3.419c-2.275,2.284-3.438,5.448-3.467,9.473l-8.115-0.84
	c0.557-6.035,2.646-10.664,6.279-13.828c3.623-3.185,8.485-4.767,14.6-4.767c6.172,0,11.055,1.72,14.658,5.138
	c3.594,3.418,5.391,7.656,5.391,12.715c0,2.578-0.526,5.117-1.571,7.598c-1.056,2.48-2.804,5.099-5.244,7.853
	c-2.441,2.754-6.504,6.522-12.179,11.309c-4.735,3.984-7.772,6.681-9.12,8.105c-1.349,1.405-2.462,2.832-3.341,4.276H859.473
	L859.473,648.221z"/>
</svg>
