<?xml version="1.0" encoding="utf-8"?>
<!-- Generator: Adobe Illustrator 16.0.3, SVG Export Plug-In . SVG Version: 6.00 Build 0)  -->
<!DOCTYPE svg PUBLIC "-//W3C//DTD SVG 1.1//EN" "http://www.w3.org/Graphics/SVG/1.1/DTD/svg11.dtd">
<svg version="1.1" id="Layer_1" xmlns="http://www.w3.org/2000/svg" xmlns:xlink="http://www.w3.org/1999/xlink" x="0px" y="0px"
	 width="900px" height="900px" viewBox="0 0 900 900" enable-background="new 0 0 900 900" xml:space="preserve">
<path d="M41.812,137.493l13.301-1.23c1.123,6.26,3.271,10.791,6.455,13.613c3.174,2.813,7.256,4.229,12.227,4.229
	c4.248,0,7.979-0.977,11.182-2.92c3.203-1.953,5.83-4.551,7.881-7.813c2.051-3.252,3.77-7.646,5.156-13.184
	c1.378-5.532,2.073-11.212,2.07-16.914c0-0.615-0.029-1.533-0.078-2.764c-2.764,4.404-6.543,7.979-11.338,10.723
	c-4.795,2.744-9.98,4.111-15.566,4.111c-9.326,0-17.227-3.379-23.682-10.146c-6.455-6.767-9.688-15.684-9.688-26.748
	c0-11.436,3.369-20.635,10.107-27.607c6.738-6.963,15.186-10.449,25.332-10.449c7.334,0,14.033,1.973,20.107,5.918
	c6.074,3.945,10.684,9.57,13.838,16.875c3.154,7.305,4.727,17.871,4.727,31.709c0,14.404-1.563,25.869-4.688,34.404
	c-3.125,8.535-7.773,15.029-13.955,19.492c-6.172,4.463-13.418,6.689-21.719,6.689c-8.818,0-16.016-2.451-21.602-7.344
	C46.293,153.244,42.935,146.36,41.812,137.493L41.812,137.493z M98.472,87.756c0-7.949-2.119-14.248-6.348-18.916
	s-9.316-6.992-15.254-6.992c-6.152,0-11.514,2.51-16.074,7.529c-4.561,5.029-6.836,11.533-6.836,19.531
	c0,7.178,2.158,13.008,6.494,17.49c4.326,4.482,9.668,6.729,16.025,6.729c6.406,0,11.68-2.246,15.801-6.729
	C96.401,101.915,98.472,95.696,98.472,87.756L98.472,87.756z M200.034,150.256v13.301h-74.502c-0.107-3.278,0.441-6.545,1.611-9.609
	c1.904-5.078,4.932-10.068,9.111-14.99c4.179-4.922,10.215-10.615,18.105-17.07c12.256-10.049,20.527-17.998,24.834-23.867
	s6.455-11.416,6.455-16.65c0-5.479-1.953-10.107-5.879-13.877c-3.916-3.77-9.033-5.645-15.332-5.645
	c-6.67,0-12.002,1.992-15.996,5.996c-3.994,3.994-6.025,9.531-6.074,16.602l-14.219-1.455c0.967-10.615,4.639-18.701,10.996-24.258
	c6.348-5.566,14.883-8.34,25.596-8.34c10.811,0,19.375,2.998,25.684,8.994c6.299,5.996,9.453,13.428,9.453,22.295
	c0,4.512-0.928,8.945-2.773,13.301c-1.836,4.355-4.902,8.945-9.18,13.76c-4.287,4.814-11.396,11.426-21.338,19.834
	c-8.301,6.973-13.633,11.699-15.986,14.18c-2.363,2.49-4.307,4.99-5.85,7.5h55.284V150.256z M309.741,588.352h9.805v42.813
	c0,7.451-0.84,13.359-2.529,17.744c-1.68,4.375-4.727,7.938-9.121,10.692c-4.395,2.744-10.166,4.111-17.314,4.111
	c-6.943,0-12.617-1.19-17.031-3.584c-4.414-2.393-7.568-5.859-9.453-10.391c-1.885-4.532-2.832-10.724-2.832-18.574v-42.813h9.805
	v42.764c0,6.436,0.605,11.182,1.797,14.229c1.201,3.047,3.252,5.4,6.172,7.052c2.91,1.649,6.475,2.479,10.684,2.479
	c7.217,0,12.354-1.641,15.42-4.902c3.066-3.271,4.6-9.561,4.6-18.856v-42.764L309.741,588.352z M334.604,662.453v-53.682h8.193
	v8.145c2.09-3.809,4.014-6.318,5.781-7.539c1.777-1.211,3.721-1.816,5.84-1.816c3.066,0,6.182,0.978,9.355,2.931l-3.135,8.447
	c-2.227-1.318-4.453-1.974-6.67-1.974c-1.992,0-3.779,0.596-5.361,1.797c-1.582,1.191-2.715,2.853-3.389,4.972
	c-1.006,3.241-1.514,6.776-1.514,10.614v28.105H334.604L334.604,662.453z M404.214,655.832c-3.379,2.861-6.621,4.883-9.736,6.064
	c-3.115,1.181-6.455,1.768-10.029,1.768c-5.898,0-10.43-1.436-13.594-4.316c-3.174-2.881-4.756-6.563-4.756-11.045
	c0-2.627,0.596-5.028,1.797-7.207c1.191-2.168,2.764-3.916,4.697-5.225c1.934-1.318,4.121-2.314,6.543-2.988
	c1.787-0.469,4.482-0.928,8.086-1.366c7.354-0.869,12.753-1.914,16.23-3.125c0.029-1.25,0.049-2.041,0.049-2.384
	c0-3.7-0.859-6.317-2.578-7.832c-2.324-2.051-5.781-3.086-10.361-3.086c-4.277,0-7.441,0.752-9.473,2.256
	c-2.041,1.494-3.555,4.15-4.531,7.959l-8.896-1.211c0.811-3.809,2.148-6.885,3.994-9.229c1.855-2.344,4.531-4.141,8.037-5.41
	c3.506-1.26,7.568-1.895,12.188-1.895c4.58,0,8.301,0.537,11.172,1.621c2.861,1.073,4.961,2.432,6.31,4.063
	c1.348,1.641,2.295,3.701,2.832,6.191c0.303,1.553,0.459,4.354,0.459,8.397v12.129c0,8.457,0.194,13.81,0.575,16.045
	c0.398,2.264,1.178,4.442,2.306,6.445h-9.502C405.083,660.568,404.478,658.361,404.214,655.832L404.214,655.832z M403.452,635.51
	c-3.301,1.349-8.262,2.5-14.863,3.438c-3.74,0.537-6.387,1.151-7.93,1.826c-1.553,0.674-2.754,1.659-3.594,2.948
	c-0.84,1.299-1.26,2.744-1.26,4.326c0,2.422,0.918,4.443,2.754,6.064s4.521,2.422,8.057,2.422c3.506,0,6.621-0.762,9.355-2.295
	c2.725-1.533,4.736-3.633,6.016-6.289c0.977-2.062,1.465-5.088,1.465-9.103V635.51z M426.753,662.453v-53.682h8.185v7.637
	c3.944-5.898,9.639-8.849,17.09-8.849c3.231,0,6.2,0.587,8.916,1.748c2.715,1.162,4.746,2.687,6.094,4.57s2.285,4.131,2.832,6.719
	c0.332,1.689,0.498,4.64,0.498,8.849v33.008h-9.092v-32.656c0-3.701-0.353-6.475-1.064-8.311c-0.703-1.836-1.963-3.302-3.76-4.396
	c-1.808-1.094-3.926-1.641-6.349-1.641c-3.877,0-7.217,1.229-10.028,3.682c-2.822,2.461-4.229,7.129-4.229,14.004v29.316
	L426.753,662.453L426.753,662.453z M484.37,598.82v-10.47h9.102v10.47H484.37z M484.37,662.453v-53.682h9.102v53.682H484.37z
	 M542.495,662.453v-7.881c-4.18,6.063-9.854,9.092-17.031,9.092c-3.174,0-6.123-0.605-8.877-1.816
	c-2.744-1.211-4.785-2.733-6.113-4.58c-1.327-1.836-2.266-4.082-2.803-6.737c-0.371-1.787-0.557-4.619-0.557-8.496v-33.262h9.102
	v29.774c0,4.746,0.187,7.949,0.558,9.601c0.565,2.393,1.776,4.276,3.633,5.635c1.854,1.367,4.149,2.051,6.875,2.051
	c2.733,0,5.293-0.703,7.686-2.1c2.393-1.397,4.082-3.302,5.078-5.713c0.996-2.402,1.494-5.898,1.494-10.488v-28.76h9.092v53.682
	L542.495,662.453L542.495,662.453z M564.896,662.453v-53.682h8.136v7.528c1.688-2.627,3.926-4.735,6.719-6.338
	c2.803-1.602,5.986-2.402,9.561-2.402c3.976,0,7.236,0.83,9.775,2.48c2.549,1.65,4.336,3.955,5.381,6.924
	c4.248-6.27,9.775-9.404,16.582-9.404c5.322,0,9.414,1.476,12.285,4.425c2.861,2.948,4.297,7.489,4.297,13.623v36.846h-9.053
	v-33.818c0-3.633-0.293-6.26-0.879-7.852c-0.597-1.603-1.66-2.892-3.213-3.867c-1.554-0.976-3.369-1.465-5.459-1.465
	c-3.771,0-6.904,1.25-9.404,3.76c-2.49,2.51-3.74,6.533-3.74,12.061v31.183h-9.092V627.58c0-4.043-0.742-7.08-2.228-9.102
	c-1.484-2.022-3.905-3.027-7.274-3.027c-2.568,0-4.933,0.674-7.109,2.021c-2.168,1.349-3.739,3.312-4.727,5.908
	c-0.978,2.599-1.465,6.338-1.465,11.222v27.852H564.896L564.896,662.453z M107.769,839.549v8.75H58.794
	c-0.075-2.159,0.287-4.312,1.064-6.328c1.24-3.34,3.242-6.621,5.986-9.844c2.744-3.242,6.709-6.992,11.904-11.229
	c8.047-6.603,13.496-11.837,16.328-15.685c2.822-3.867,4.238-7.52,4.238-10.957c0-3.594-1.289-6.641-3.867-9.121
	c-2.578-2.479-5.938-3.711-10.078-3.711c-4.385,0-7.891,1.31-10.518,3.945c-2.627,2.617-3.955,6.27-3.994,10.918l-9.346-0.957
	c0.635-6.973,3.047-12.305,7.227-15.957c4.18-3.652,9.785-5.488,16.836-5.488c7.109,0,12.734,1.974,16.875,5.918
	c4.15,3.945,6.221,8.828,6.221,14.669c0,2.948-0.605,5.879-1.816,8.729c-1.221,2.871-3.232,5.879-6.045,9.063
	c-2.813,3.163-7.49,7.5-14.023,13.026c-5.459,4.59-8.965,7.695-10.518,9.336c-1.553,1.621-2.832,3.281-3.838,4.922H107.769
	L107.769,839.549z M117.573,828.729l9.102-1.211c1.045,5.156,2.822,8.867,5.332,11.152c2.51,2.266,5.566,3.398,9.17,3.398
	c4.277,0,7.891-1.466,10.84-4.435c2.949-2.969,4.424-6.641,4.424-11.016c0-4.181-1.357-7.638-4.092-10.353
	c-2.725-2.715-6.201-4.063-10.41-4.063c-1.719,0-3.857,0.332-6.416,1.016l1.006-7.987c0.487,0.054,0.976,0.087,1.465,0.098
	c3.877,0,7.363-1.016,10.469-3.027c3.096-2.03,4.648-5.137,4.648-9.354c0-3.34-1.133-6.094-3.389-8.281
	c-2.256-2.207-5.176-3.301-8.74-3.301c-3.545,0-6.494,1.113-8.848,3.34c-2.363,2.227-3.877,5.566-4.551,10.02l-9.102-1.62
	c1.113-6.095,3.643-10.82,7.588-14.181c3.936-3.358,8.838-5.039,14.707-5.039c4.043,0,7.764,0.879,11.172,2.617
	c3.398,1.738,6.006,4.103,7.803,7.09c1.807,3.009,2.705,6.191,2.705,9.552c0,3.202-0.859,6.112-2.578,8.75
	c-1.719,2.637-4.258,4.727-7.627,6.27c4.375,1.017,7.783,3.105,10.205,6.289c2.432,3.185,3.643,7.168,3.643,11.953
	c0,6.465-2.363,11.953-7.08,16.465c-4.717,4.492-10.684,6.738-17.891,6.738c-6.504,0-11.904-1.935-16.201-5.82
	C120.63,839.92,118.179,834.9,117.573,828.729L117.573,828.729z M189.097,808.104c-3.779-1.366-6.572-3.34-8.398-5.897
	c-1.816-2.578-2.725-5.646-2.725-9.199c0-5.391,1.934-9.922,5.811-13.612c3.877-3.673,9.033-5.509,15.469-5.509
	c6.465,0,11.68,1.896,15.615,5.646c3.945,3.75,5.918,8.34,5.918,13.729c0,3.438-0.898,6.427-2.705,8.966
	c-1.807,2.538-4.541,4.512-8.213,5.879c4.551,1.483,8.008,3.887,10.391,7.188c2.373,3.301,3.555,7.246,3.555,11.816
	c0,6.348-2.236,11.66-6.719,15.977c-4.483,4.317-10.381,6.465-17.686,6.465c-7.314,0-13.213-2.147-17.695-6.483
	c-4.482-4.336-6.719-9.728-6.719-16.211c0-4.806,1.221-8.849,3.662-12.091C181.099,811.502,184.575,809.295,189.097,808.104
	L189.097,808.104z M184.341,826.912c0,2.598,0.615,5.098,1.846,7.539c1.23,2.422,3.057,4.297,5.488,5.625
	c2.422,1.328,5.029,1.992,7.832,1.992c4.346,0,7.93-1.388,10.762-4.181c2.832-2.813,4.248-6.366,4.248-10.664
	c0-4.395-1.455-8.008-4.375-10.879c-2.91-2.852-6.563-4.297-10.938-4.297c-4.277,0-7.832,1.426-10.645,4.258
	S184.341,822.674,184.341,826.912z M187.271,792.693c0,3.516,1.133,6.366,3.389,8.594c2.256,2.227,5.186,3.34,8.799,3.34
	c3.506,0,6.377-1.113,8.613-3.32c2.246-2.207,3.359-4.901,3.359-8.104c0-3.34-1.152-6.133-3.457-8.418
	c-2.314-2.267-5.186-3.418-8.623-3.418c-3.467,0-6.348,1.112-8.643,3.34C188.423,786.932,187.271,789.588,187.271,792.693z
	 M237.778,848.299v-10.371h10.361v10.371H237.778z M261.431,811.756c0-8.77,0.898-15.82,2.705-21.152
	c1.797-5.352,4.482-9.473,8.037-12.362c3.555-2.89,8.027-4.355,13.418-4.355c3.975,0,7.461,0.802,10.459,2.402
	s5.479,3.906,7.432,6.934c1.953,3.009,3.486,6.681,4.6,11.017c1.114,4.336,1.67,10.176,1.67,17.52
	c0,8.691-0.889,15.703-2.676,21.056c-1.787,5.331-4.463,9.452-8.018,12.383c-3.555,2.91-8.047,4.354-13.467,4.354
	c-7.148,0-12.754-2.559-16.836-7.676C263.872,835.701,261.431,825.662,261.431,811.756z M270.776,811.756
	c0,12.168,1.426,20.254,4.277,24.277c2.842,4.022,6.357,6.035,10.537,6.035c4.18,0,7.695-2.013,10.537-6.056
	c2.852-4.043,4.268-12.129,4.268-24.258c0-12.207-1.416-20.313-4.268-24.315c-2.842-4.005-6.396-6.017-10.635-6.017
	c-4.18,0-7.52,1.777-10.01,5.313C272.349,791.248,270.776,799.588,270.776,811.756L270.776,811.756z M319.048,828.729l9.102-1.211
	c1.045,5.156,2.822,8.867,5.332,11.152c2.51,2.266,5.566,3.398,9.17,3.398c4.277,0,7.891-1.466,10.84-4.435
	c2.949-2.969,4.424-6.641,4.424-11.016c0-4.181-1.357-7.638-4.092-10.353c-2.725-2.715-6.201-4.063-10.41-4.063
	c-1.719,0-3.857,0.332-6.416,1.016l1.006-7.987c0.487,0.054,0.976,0.087,1.465,0.098c3.877,0,7.363-1.016,10.469-3.027
	c3.096-2.03,4.648-5.137,4.648-9.354c0-3.34-1.133-6.094-3.389-8.281c-2.256-2.207-5.176-3.301-8.74-3.301
	c-3.545,0-6.494,1.113-8.848,3.34c-2.363,2.227-3.877,5.566-4.551,10.02l-9.102-1.62c1.113-6.095,3.643-10.82,7.588-14.181
	c3.936-3.358,8.838-5.039,14.707-5.039c4.043,0,7.764,0.879,11.172,2.617c3.398,1.738,6.006,4.103,7.803,7.09
	c1.807,3.009,2.705,6.191,2.705,9.552c0,3.202-0.859,6.112-2.578,8.75c-1.719,2.637-4.258,4.727-7.627,6.27
	c4.375,1.017,7.783,3.105,10.205,6.289c2.432,3.185,3.643,7.168,3.643,11.953c0,6.465-2.363,11.953-7.08,16.465
	c-4.717,4.492-10.684,6.738-17.891,6.738c-6.504,0-11.904-1.935-16.201-5.82C322.104,839.92,319.653,834.9,319.048,828.729
	L319.048,828.729z M368.384,265.081h37.334v100.146c0,15.89,0.459,26.183,1.388,30.898c1.602,7.559,5.399,13.643,11.416,18.223
	c6.006,4.58,14.229,6.875,24.657,6.875c10.586,0,18.574-2.168,23.955-6.504c5.381-4.326,8.623-9.647,9.717-15.946
	c1.095-6.31,1.642-16.777,1.642-31.406V265.081h37.324V362.2c0,22.197-1.007,37.871-3.027,47.041
	c-2.012,9.16-5.732,16.895-11.162,23.203c-5.42,6.309-12.666,11.328-21.748,15.067c-9.082,3.74-20.938,5.615-35.566,5.615
	c-17.655,0-31.045-2.041-40.165-6.113c-9.131-4.082-16.338-9.375-21.631-15.897c-5.303-6.515-8.789-13.34-10.469-20.488
	c-2.441-10.596-3.662-26.229-3.662-46.914v-98.633H368.384z M859.479,109.182v7.588h-42.5c-0.068-1.904,0.243-3.73,0.918-5.479
	c1.084-2.9,2.813-5.752,5.194-8.555c2.383-2.813,5.83-6.055,10.332-9.746c6.992-5.732,11.709-10.264,14.17-13.613
	c2.451-3.35,3.683-6.514,3.683-9.502c0-3.125-1.113-5.771-3.351-7.92c-2.246-2.148-5.155-3.223-8.76-3.223
	c-3.799,0-6.836,1.143-9.121,3.428c-2.274,2.275-3.438,5.439-3.467,9.473l-8.115-0.84c0.558-6.045,2.646-10.664,6.279-13.838
	c3.623-3.174,8.486-4.756,14.6-4.756c6.172,0,11.056,1.709,14.658,5.127c3.594,3.428,5.391,7.666,5.391,12.725
	c0,2.578-0.526,5.107-1.571,7.588c-1.056,2.49-2.804,5.107-5.244,7.852c-2.441,2.754-6.504,6.523-12.178,11.318
	c-4.736,3.975-7.773,6.68-9.121,8.096c-1.349,1.416-2.461,2.842-3.34,4.277H859.479L859.479,109.182z M830.132,171.741
	c-3.271-1.201-5.703-2.91-7.285-5.137c-1.571-2.217-2.362-4.883-2.362-7.979c0-4.678,1.68-8.613,5.039-11.807
	c3.369-3.184,7.842-4.775,13.428-4.775c5.615,0,10.137,1.631,13.555,4.893s5.137,7.227,5.137,11.904
	c0,2.988-0.791,5.586-2.354,7.793s-3.936,3.906-7.129,5.107c3.955,1.289,6.953,3.359,9.014,6.23
	c2.07,2.861,3.096,6.289,3.096,10.264c0,5.498-1.942,10.117-5.829,13.857c-3.896,3.75-9.015,5.615-15.361,5.615
	c-6.338,0-11.455-1.875-15.353-5.635c-3.887-3.76-5.83-8.447-5.83-14.063c0-4.18,1.056-7.676,3.185-10.498
	C823.198,174.69,826.216,172.766,830.132,171.741L830.132,171.741z M826.011,188.059c0,2.256,0.527,4.434,1.603,6.533
	c1.063,2.109,2.656,3.74,4.756,4.893c2.081,1.146,4.421,1.741,6.797,1.729c3.779,0,6.895-1.211,9.346-3.633
	c2.461-2.432,3.691-5.518,3.691-9.258c0-3.799-1.271-6.943-3.799-9.434c-2.529-2.48-5.693-3.73-9.502-3.73
	c-3.711,0-6.787,1.23-9.229,3.691C827.23,181.301,826.011,184.377,826.011,188.059L826.011,188.059z M828.55,158.362
	c0,3.037,0.986,5.527,2.939,7.451c1.963,1.934,4.502,2.9,7.637,2.9c3.037,0,5.537-0.957,7.48-2.871
	c1.942-1.914,2.92-4.268,2.92-7.041c0-2.9-1.006-5.332-3.009-7.305c-2.002-1.973-4.502-2.959-7.479-2.959
	c-3.018,0-5.518,0.957-7.5,2.891C829.546,153.362,828.55,155.667,828.55,158.362L828.55,158.362z M797.749,296.448h-7.891v-50.313
	c-1.904,1.807-4.396,3.623-7.48,5.439c-3.086,1.807-5.858,3.174-8.311,4.072v-7.627c4.414-2.08,8.271-4.59,11.582-7.549
	c3.301-2.949,5.645-5.82,7.012-8.594h5.088V296.448L797.749,296.448z M830.122,261.575c-3.271-1.201-5.703-2.91-7.285-5.137
	c-1.572-2.217-2.363-4.883-2.363-7.979c0-4.678,1.681-8.613,5.039-11.807c3.369-3.184,7.843-4.775,13.429-4.775
	c5.614,0,10.137,1.631,13.555,4.893s5.137,7.227,5.137,11.904c0,2.988-0.791,5.586-2.354,7.793
	c-1.563,2.207-3.937,3.906-7.129,5.107c3.955,1.289,6.953,3.359,9.014,6.23c2.07,2.861,3.096,6.289,3.096,10.264
	c0,5.498-1.942,10.117-5.83,13.857c-3.896,3.75-9.014,5.615-15.36,5.615c-6.339,0-11.455-1.875-15.353-5.635
	c-3.887-3.76-5.83-8.447-5.83-14.063c0-4.18,1.056-7.676,3.185-10.498C823.188,264.524,826.206,262.6,830.122,261.575
	L830.122,261.575z M826.001,277.893c0,2.256,0.527,4.434,1.603,6.533c1.063,2.109,2.655,3.74,4.756,4.893
	c2.081,1.146,4.421,1.741,6.797,1.729c3.778,0,6.895-1.211,9.346-3.633c2.461-2.432,3.691-5.518,3.691-9.258
	c0-3.799-1.271-6.943-3.8-9.434c-2.528-2.48-5.692-3.73-9.502-3.73c-3.711,0-6.786,1.23-9.229,3.691
	C827.222,271.135,826.001,274.211,826.001,277.893L826.001,277.893z M828.54,248.196c0,3.037,0.986,5.527,2.939,7.451
	c1.963,1.934,4.502,2.9,7.637,2.9c3.037,0,5.537-0.957,7.479-2.871c1.943-1.914,2.92-4.268,2.92-7.041
	c0-2.9-1.006-5.332-3.008-7.305c-2.002-1.973-4.502-2.959-7.479-2.959c-3.019,0-5.519,0.957-7.5,2.891
	C829.536,243.196,828.54,245.5,828.54,248.196L828.54,248.196z M768.052,369.319l7.9-1.056c0.908,4.474,2.451,7.695,4.629,9.668
	c2.178,1.974,4.834,2.959,7.959,2.959c3.711,0,6.855-1.278,9.414-3.856c2.559-2.568,3.838-5.762,3.838-9.562
	c0-3.623-1.19-6.621-3.555-8.975c-2.373-2.354-5.381-3.525-9.043-3.525c-1.484,0-3.34,0.293-5.566,0.879l0.879-6.934
	c0.527,0.059,0.947,0.088,1.271,0.088c3.358,0,6.387-0.879,9.082-2.637c2.686-1.748,4.033-4.453,4.033-8.115
	c0-2.891-0.978-5.293-2.939-7.188c-1.953-1.904-4.492-2.853-7.588-2.853c-3.066,0-5.625,0.957-7.676,2.892
	c-2.052,1.934-3.359,4.823-3.945,8.69l-7.9-1.406c0.967-5.293,3.164-9.395,6.582-12.305s7.676-4.365,12.765-4.365
	c3.506,0,6.737,0.752,9.696,2.257c2.949,1.504,5.215,3.563,6.777,6.161c1.563,2.607,2.344,5.371,2.344,8.291
	c0,2.783-0.742,5.313-2.236,7.589c-1.493,2.284-3.7,4.102-6.62,5.438c3.799,0.879,6.758,2.705,8.856,5.469
	c2.109,2.765,3.164,6.222,3.164,10.371c0,5.615-2.051,10.371-6.143,14.277c-4.103,3.906-9.277,5.858-15.527,5.858
	c-5.645,0-10.332-1.68-14.063-5.049C770.708,379.026,768.579,374.67,768.052,369.319L768.052,369.319z M859.468,378.704v7.588h-42.5
	c-0.067-1.904,0.244-3.729,0.918-5.479c1.084-2.9,2.813-5.753,5.195-8.556c2.383-2.813,5.83-6.055,10.332-9.746
	c6.992-5.731,11.709-10.264,14.17-13.612c2.451-3.351,3.682-6.515,3.682-9.502c0-3.125-1.112-5.771-3.35-7.921
	c-2.246-2.147-5.156-3.223-8.76-3.223c-3.799,0-6.836,1.144-9.121,3.428c-2.275,2.275-3.438,5.439-3.467,9.474l-8.115-0.84
	c0.557-6.046,2.646-10.664,6.279-13.839c3.623-3.174,8.485-4.756,14.6-4.756c6.172,0,11.055,1.709,14.658,5.127
	c3.594,3.429,5.391,7.666,5.391,12.726c0,2.578-0.526,5.106-1.571,7.588c-1.056,2.49-2.804,5.106-5.244,7.852
	c-2.441,2.754-6.504,6.523-12.179,11.318c-4.735,3.975-7.772,6.68-9.12,8.096c-1.349,1.416-2.462,2.842-3.341,4.277H859.468
	L859.468,378.704z M809.507,468.537v7.588h-42.5c-0.067-1.904,0.244-3.73,0.918-5.479c1.084-2.9,2.813-5.753,5.195-8.556
	c2.383-2.813,5.83-6.055,10.332-9.746c6.992-5.731,11.709-10.263,14.17-13.612c2.451-3.351,3.682-6.515,3.682-9.502
	c0-3.125-1.112-5.771-3.35-7.921c-2.246-2.147-5.156-3.223-8.76-3.223c-3.799,0-6.836,1.144-9.121,3.428
	c-2.275,2.275-3.438,5.439-3.467,9.474l-8.115-0.84c0.557-6.046,2.646-10.664,6.279-13.839c3.623-3.174,8.485-4.756,14.6-4.756
	c6.172,0,11.055,1.709,14.658,5.127c3.594,3.429,5.391,7.666,5.391,12.726c0,2.578-0.526,5.106-1.572,7.588
	c-1.055,2.49-2.803,5.106-5.243,7.852c-2.441,2.754-6.505,6.523-12.179,11.318c-4.735,3.975-7.772,6.68-9.121,8.096
	c-1.348,1.416-2.461,2.842-3.34,4.277H809.507z M847.71,476.125h-7.891v-50.312c-1.904,1.807-4.396,3.622-7.48,5.438
	c-3.086,1.807-5.858,3.174-8.311,4.072v-7.627c4.414-2.08,8.271-4.59,11.582-7.549c3.301-2.949,5.645-5.82,7.012-8.595h5.088
	V476.125L847.71,476.125z M830.132,531.096c-3.271-1.201-5.703-2.91-7.285-5.137c-1.571-2.217-2.362-4.883-2.362-7.979
	c0-4.679,1.68-8.613,5.039-11.808c3.369-3.184,7.842-4.774,13.428-4.774c5.615,0,10.137,1.631,13.555,4.893
	s5.138,7.227,5.138,11.904c0,2.987-0.791,5.586-2.354,7.793c-1.563,2.207-3.936,3.906-7.129,5.106
	c3.955,1.289,6.953,3.359,9.014,6.23c2.07,2.86,3.097,6.289,3.097,10.264c0,5.498-1.943,10.117-5.83,13.857
	c-3.896,3.75-9.015,5.614-15.361,5.614c-6.338,0-11.455-1.875-15.353-5.635c-3.887-3.76-5.829-8.447-5.829-14.063
	c0-4.181,1.055-7.677,3.184-10.498C823.198,534.045,826.216,532.121,830.132,531.096z M826.011,547.414
	c0,2.256,0.527,4.434,1.603,6.533c1.063,2.108,2.656,3.74,4.756,4.893c2.082,1.146,4.421,1.74,6.797,1.729
	c3.779,0,6.896-1.211,9.346-3.634c2.461-2.432,3.691-5.518,3.691-9.258c0-3.799-1.271-6.942-3.799-9.434
	c-2.529-2.48-5.693-3.73-9.502-3.73c-3.711,0-6.787,1.23-9.229,3.691C827.231,540.656,826.011,543.732,826.011,547.414
	L826.011,547.414z M828.55,517.717c0,3.037,0.986,5.527,2.939,7.451c1.963,1.934,4.502,2.9,7.637,2.9
	c3.037,0,5.537-0.957,7.48-2.871c1.942-1.914,2.92-4.269,2.92-7.041c0-2.9-1.006-5.332-3.008-7.306
	c-2.003-1.973-4.503-2.959-7.48-2.959c-3.018,0-5.518,0.957-7.5,2.892C829.546,512.717,828.55,515.021,828.55,517.717
	L828.55,517.717z M859.479,648.215v7.588h-42.5c-0.068-1.903,0.243-3.729,0.918-5.479c1.084-2.9,2.813-5.752,5.194-8.556
	c2.384-2.813,5.83-6.055,10.332-9.745c6.992-5.732,11.709-10.265,14.17-13.613c2.451-3.35,3.683-6.514,3.683-9.502
	c0-3.125-1.113-5.771-3.351-7.92c-2.246-2.148-5.155-3.224-8.76-3.224c-3.799,0-6.836,1.144-9.121,3.429
	c-2.274,2.274-3.438,5.438-3.467,9.473l-8.115-0.84c0.558-6.045,2.646-10.664,6.279-13.838c3.623-3.174,8.486-4.756,14.6-4.756
	c6.172,0,11.056,1.709,14.658,5.127c3.594,3.428,5.392,7.666,5.392,12.725c0,2.578-0.527,5.107-1.572,7.588
	c-1.056,2.49-2.803,5.107-5.244,7.853c-2.441,2.754-6.504,6.522-12.178,11.317c-4.736,3.976-7.773,6.68-9.121,8.096
	c-1.349,1.416-2.461,2.843-3.34,4.277H859.479L859.479,648.215z"/>
</svg>
