<?xml version="1.0" encoding="utf-8"?>
<!-- Generator: Adobe Illustrator 16.0.3, SVG Export Plug-In . SVG Version: 6.00 Build 0)  -->
<!DOCTYPE svg PUBLIC "-//W3C//DTD SVG 1.1//EN" "http://www.w3.org/Graphics/SVG/1.1/DTD/svg11.dtd">
<svg version="1.1" id="Layer_1" xmlns="http://www.w3.org/2000/svg" xmlns:xlink="http://www.w3.org/1999/xlink" x="0px" y="0px"
	 width="900px" height="900px" viewBox="0 0 900 900" enable-background="new 0 0 900 900" xml:space="preserve">
<path d="M41.812,127.864l13.301-1.23c1.123,6.26,3.271,10.791,6.455,13.613c3.174,2.813,7.256,4.229,12.227,4.229
	c4.248,0,7.979-0.977,11.182-2.92c3.203-1.953,5.83-4.551,7.881-7.813c2.051-3.252,3.77-7.646,5.156-13.184
	c1.378-5.532,2.073-11.213,2.07-16.914c0-0.615-0.029-1.533-0.078-2.764c-2.764,4.404-6.543,7.979-11.338,10.723
	s-9.98,4.111-15.566,4.111c-9.326,0-17.227-3.379-23.682-10.146s-9.688-15.684-9.688-26.748c0-11.436,3.369-20.635,10.107-27.607
	c6.738-6.963,15.186-10.449,25.332-10.449c7.334,0,14.033,1.973,20.107,5.918c6.074,3.945,10.684,9.57,13.838,16.875
	c3.154,7.305,4.727,17.871,4.727,31.709c0,14.404-1.563,25.869-4.688,34.404S101.382,144.7,95.2,149.163
	c-6.172,4.463-13.418,6.689-21.719,6.689c-8.818,0-16.016-2.451-21.602-7.344C46.293,143.615,42.935,136.731,41.812,127.864z
	 M98.472,78.127c0-7.949-2.119-14.248-6.348-18.916s-9.316-6.992-15.254-6.992c-6.152,0-11.514,2.51-16.074,7.529
	c-4.561,5.029-6.836,11.533-6.836,19.531c0,7.178,2.158,13.008,6.494,17.49c4.326,4.482,9.668,6.729,16.025,6.729
	c6.406,0,11.68-2.246,15.801-6.729C96.401,92.286,98.472,86.067,98.472,78.127L98.472,78.127z M127.378,124.172l13.838-1.846
	c1.592,7.842,4.297,13.496,8.115,16.953c3.818,3.467,8.467,5.195,13.955,5.195c6.504,0,12.002-2.256,16.484-6.768
	c4.482-4.512,6.729-10.098,6.729-16.758c0-6.357-2.08-11.602-6.23-15.723c-4.15-4.131-9.424-6.191-15.83-6.191
	c-2.617,0-5.869,0.518-9.766,1.533l1.533-12.139c0.928,0.098,1.67,0.146,2.236,0.146c5.889,0,11.191-1.533,15.908-4.609
	c4.717-3.076,7.07-7.813,7.07-14.219c0-5.078-1.709-9.277-5.146-12.617c-3.438-3.33-7.871-4.99-13.301-4.99
	c-5.381,0-9.863,1.689-13.457,5.068c-3.584,3.389-5.889,8.457-6.914,15.225l-13.838-2.461c1.689-9.277,5.537-16.465,11.533-21.563
	c5.996-5.098,13.447-7.646,22.373-7.646c6.143,0,11.807,1.318,16.982,3.955c5.175,2.637,9.141,6.24,11.885,10.801
	c2.734,4.561,4.111,9.404,4.111,14.531c0,4.873-1.309,9.307-3.926,13.301c-2.607,3.994-6.484,7.178-11.602,9.531
	c6.66,1.543,11.836,4.727,15.527,9.57c3.691,4.843,5.537,10.908,5.537,18.184c0,9.844-3.594,18.184-10.762,25.029
	c-7.178,6.836-16.25,10.264-27.217,10.264c-9.893,0-18.105-2.949-24.648-8.848C132.026,141.194,128.306,133.557,127.378,124.172
	L127.378,124.172z M206.284,652.83v-74.102h10.059l38.926,58.184v-58.184h9.395v74.102h-10.059l-38.916-58.242v58.242H206.284z
	 M316.733,635.545l9.395,1.152c-1.484,5.487-4.229,9.766-8.232,12.793c-4.014,3.026-9.141,4.551-15.371,4.551
	c-7.852,0-14.072-2.422-18.672-7.266c-4.6-4.824-6.904-11.603-6.904-20.332c0-9.023,2.324-16.035,6.973-21.035
	c4.658-4.98,10.684-7.48,18.096-7.48c7.178,0,13.047,2.441,17.598,7.345c4.541,4.883,6.816,11.758,6.816,20.604
	c0,0.547-0.01,1.349-0.049,2.441h-40.029c0.332,5.897,2.002,10.41,5,13.535c2.998,3.145,6.738,4.707,11.221,4.707
	c3.34,0,6.182-0.88,8.545-2.638C313.481,642.186,315.347,639.373,316.733,635.545L316.733,635.545z M286.86,620.838h29.971
	c-0.41-4.531-1.553-7.91-3.438-10.176c-2.9-3.496-6.66-5.254-11.27-5.254c-4.18,0-7.695,1.406-10.537,4.199
	C288.735,612.4,287.163,616.15,286.86,620.838L286.86,620.838z M337.554,673.396v-74.259h8.291v6.992
	c1.953-2.733,4.16-4.785,6.621-6.151c2.451-1.367,5.439-2.052,8.945-2.052c4.58,0,8.623,1.191,12.129,3.535
	c3.506,2.363,6.152,5.703,7.939,10c1.777,4.297,2.676,9.004,2.676,14.121c0,5.488-0.986,10.43-2.959,14.824
	c-1.973,4.414-4.834,7.772-8.594,10.117c-3.76,2.344-7.705,3.516-11.855,3.516c-3.027,0-5.752-0.646-8.154-1.914
	c-2.412-1.289-4.395-2.91-5.947-4.863v26.134H337.554L337.554,673.396z M345.786,626.287c0,6.914,1.406,12.012,4.199,15.313
	c2.793,3.302,6.182,4.961,10.156,4.961c4.043,0,7.51-1.719,10.391-5.137c2.881-3.418,4.316-8.711,4.316-15.897
	c0-6.836-1.406-11.953-4.219-15.353c-2.813-3.418-6.172-5.117-10.078-5.117c-3.877,0-7.305,1.816-10.293,5.431
	C347.28,614.119,345.786,619.373,345.786,626.287L345.786,626.287z M414.985,644.686l1.309,8.048
	c-2.559,0.526-4.844,0.801-6.875,0.801c-3.301,0-5.859-0.527-7.676-1.563c-1.826-1.055-3.105-2.422-3.849-4.121
	c-0.742-1.698-1.104-5.293-1.104-10.741v-30.879h-6.68v-7.091h6.68v-13.28l9.043-5.47v18.75h9.15v7.091h-9.15v31.387
	c0,2.598,0.156,4.258,0.479,5c0.322,0.742,0.84,1.328,1.571,1.776c0.724,0.431,1.758,0.646,3.105,0.646
	C411.997,645.037,413.335,644.92,414.985,644.686L414.985,644.686z M459.058,652.83v-7.891c-4.18,6.073-9.854,9.102-17.03,9.102
	c-3.174,0-6.123-0.605-8.877-1.816c-2.744-1.211-4.785-2.733-6.113-4.59c-1.328-1.836-2.266-4.082-2.803-6.737
	c-0.371-1.777-0.558-4.609-0.558-8.496v-33.263h9.103v29.785c0,4.746,0.186,7.949,0.557,9.59c0.566,2.402,1.777,4.277,3.633,5.646
	c1.856,1.368,4.15,2.051,6.875,2.051c2.734,0,5.293-0.703,7.687-2.108c2.393-1.388,4.082-3.302,5.078-5.703
	c0.995-2.402,1.493-5.898,1.493-10.488V599.14h9.093v53.691L459.058,652.83L459.058,652.83z M481.46,652.83v-53.691h8.185v7.638
	c3.944-5.898,9.639-8.849,17.09-8.849c3.231,0,6.2,0.586,8.916,1.758c2.715,1.152,4.746,2.677,6.094,4.57
	c1.348,1.875,2.285,4.121,2.832,6.719c0.332,1.681,0.498,4.63,0.498,8.849v33.008h-9.092v-32.656c0-3.711-0.353-6.483-1.064-8.319
	c-0.703-1.836-1.963-3.302-3.76-4.396c-1.808-1.094-3.926-1.641-6.349-1.641c-3.877,0-7.217,1.229-10.028,3.69
	c-2.822,2.461-4.229,7.129-4.229,14.004v29.316H481.46L481.46,652.83z M539.077,589.197v-10.469h9.102v10.469H539.077z
	 M539.077,652.83v-53.691h9.102v53.691H539.077z M597.202,652.83v-7.891c-4.18,6.073-9.854,9.102-17.031,9.102
	c-3.174,0-6.123-0.605-8.877-1.816c-2.744-1.211-4.785-2.733-6.113-4.59c-1.327-1.836-2.266-4.082-2.803-6.737
	c-0.371-1.777-0.557-4.609-0.557-8.496v-33.263h9.102v29.785c0,4.746,0.187,7.949,0.558,9.59c0.565,2.402,1.776,4.277,3.633,5.646
	c1.855,1.368,4.149,2.051,6.875,2.051c2.733,0,5.293-0.703,7.686-2.108c2.394-1.388,4.082-3.302,5.078-5.703
	c0.996-2.402,1.494-5.898,1.494-10.488V599.14h9.092v53.691L597.202,652.83L597.202,652.83z M619.595,652.83v-53.691h8.136v7.539
	c1.688-2.637,3.926-4.746,6.719-6.348c2.803-1.602,5.986-2.402,9.561-2.402c3.976,0,7.236,0.84,9.775,2.48
	c2.549,1.66,4.336,3.965,5.381,6.934c4.248-6.27,9.775-9.414,16.582-9.414c5.322,0,9.414,1.484,12.285,4.435
	c2.861,2.948,4.297,7.479,4.297,13.612v36.855h-9.053v-33.828c0-3.633-0.293-6.25-0.879-7.852c-0.597-1.603-1.66-2.892-3.214-3.867
	c-1.553-0.977-3.368-1.465-5.459-1.465c-3.77,0-6.903,1.25-9.403,3.77c-2.49,2.5-3.74,6.523-3.74,12.051v31.191h-9.092v-34.883
	c0-4.043-0.742-7.07-2.228-9.103c-1.483-2.012-3.905-3.026-7.274-3.026c-2.568,0-4.933,0.684-7.109,2.03
	c-2.168,1.349-3.74,3.302-4.727,5.898c-0.978,2.598-1.465,6.348-1.465,11.229v27.853L619.595,652.83L619.595,652.83z
	 M62.681,859.236v-94.668h20.068v7.52H71.782v79.609h10.967v7.539H62.681z M136.528,829.92v8.75H87.554
	c-0.075-2.159,0.287-4.312,1.064-6.328c1.24-3.34,3.242-6.621,5.986-9.844c2.744-3.242,6.709-6.992,11.904-11.23
	c8.047-6.602,13.496-11.836,16.328-15.684c2.822-3.867,4.238-7.52,4.238-10.957c0-3.594-1.289-6.641-3.867-9.121
	c-2.578-2.479-5.938-3.711-10.078-3.711c-4.385,0-7.891,1.31-10.518,3.945c-2.627,2.617-3.955,6.27-3.994,10.918l-9.346-0.957
	c0.635-6.973,3.047-12.305,7.227-15.957s9.785-5.488,16.836-5.488c7.109,0,12.734,1.974,16.875,5.918
	c4.15,3.945,6.221,8.828,6.221,14.668c0,2.949-0.605,5.88-1.816,8.73c-1.221,2.871-3.232,5.879-6.045,9.063
	c-2.813,3.164-7.49,7.5-14.023,13.027c-5.459,4.59-8.965,7.695-10.518,9.336c-1.553,1.621-2.832,3.281-3.838,4.922H136.528
	L136.528,829.92z M146.333,819.1l9.102-1.211c1.045,5.156,2.822,8.867,5.332,11.152c2.51,2.266,5.566,3.398,9.17,3.398
	c4.277,0,7.891-1.466,10.84-4.435c2.949-2.969,4.424-6.641,4.424-11.016c0-4.181-1.357-7.638-4.092-10.353
	c-2.725-2.715-6.201-4.063-10.41-4.063c-1.719,0-3.857,0.332-6.416,1.016l1.006-7.988c0.486,0.055,0.976,0.088,1.465,0.099
	c3.877,0,7.363-1.017,10.469-3.027c3.096-2.03,4.648-5.137,4.648-9.354c0-3.34-1.133-6.094-3.389-8.281
	c-2.256-2.207-5.176-3.301-8.74-3.301c-3.545,0-6.494,1.112-8.848,3.34c-2.363,2.227-3.877,5.566-4.551,10.02l-9.102-1.62
	c1.113-6.095,3.643-10.82,7.588-14.181c3.936-3.358,8.838-5.039,14.707-5.039c4.043,0,7.764,0.879,11.172,2.617
	c3.398,1.738,6.006,4.103,7.803,7.09c1.807,3.008,2.705,6.191,2.705,9.552c0,3.202-0.859,6.112-2.578,8.75
	c-1.719,2.637-4.258,4.727-7.627,6.27c4.375,1.016,7.783,3.105,10.205,6.289c2.432,3.184,3.643,7.168,3.643,11.953
	c0,6.465-2.363,11.953-7.08,16.465c-4.717,4.492-10.684,6.738-17.891,6.738c-6.504,0-11.904-1.935-16.201-5.82
	C149.39,830.291,146.938,825.271,146.333,819.1L146.333,819.1z M204.458,774.275v-8.75h47.969v7.069
	c-4.717,5.021-9.395,11.699-14.023,20.021c-4.639,8.32-8.213,16.895-10.742,25.684c-1.826,6.191-2.988,12.988-3.486,20.371h-9.355
	c0.098-5.84,1.25-12.871,3.438-21.133c2.188-8.262,5.332-16.211,9.424-23.887c4.102-7.656,8.457-14.121,13.066-19.375H204.458z
	 M279.175,859.236h-20.068v-7.539h10.967v-79.609h-10.967v-7.52h20.068V859.236L279.175,859.236z M290.132,440.344V255.452h36.318
	l75.674,123.477V255.452h34.678v184.893h-37.451L324.81,319.778v120.565H290.132L290.132,440.344z M475.015,306.409h33.048v19.678
	c4.286-6.729,10.088-12.197,17.401-16.396c7.314-4.209,15.43-6.31,24.336-6.31c15.558,0,28.76,6.094,39.601,18.291
	c10.85,12.188,16.27,29.17,16.27,50.947c0,22.363-5.459,39.746-16.387,52.147c-10.938,12.402-24.181,18.604-39.728,18.604
	c-7.401,0-14.11-1.475-20.116-4.414c-6.017-2.938-12.345-7.988-18.984-15.137v67.466h-35.439L475.015,306.409L475.015,306.409z
	 M510.073,371.106c0,15.049,2.987,26.172,8.955,33.358c5.967,7.188,13.241,10.781,21.815,10.781c8.242,0,15.099-3.301,20.558-9.902
	c5.469-6.602,8.202-17.422,8.202-32.471c0-14.043-2.821-24.473-8.446-31.279c-5.636-6.807-12.617-10.215-20.938-10.215
	c-8.662,0-15.85,3.34-21.572,10.029C512.935,348.088,510.073,357.991,510.073,371.106z M859.479,99.553v7.588h-42.5
	c-0.068-1.904,0.243-3.73,0.918-5.479c1.084-2.9,2.813-5.752,5.194-8.555c2.383-2.813,5.83-6.055,10.332-9.746
	c6.992-5.732,11.709-10.264,14.17-13.613c2.451-3.35,3.683-6.514,3.683-9.502c0-3.125-1.113-5.771-3.351-7.92
	c-2.246-2.148-5.155-3.223-8.76-3.223c-3.799,0-6.836,1.143-9.121,3.428c-2.274,2.275-3.438,5.439-3.467,9.473l-8.115-0.84
	c0.558-6.045,2.646-10.664,6.279-13.838c3.623-3.174,8.486-4.756,14.6-4.756c6.172,0,11.056,1.709,14.658,5.127
	c3.594,3.428,5.391,7.666,5.391,12.725c0,2.578-0.526,5.107-1.571,7.588c-1.056,2.49-2.804,5.107-5.244,7.852
	c-2.441,2.754-6.504,6.523-12.178,11.318c-4.736,3.975-7.773,6.68-9.121,8.096c-1.349,1.416-2.461,2.842-3.34,4.277H859.479z
	 M830.132,162.112c-3.271-1.201-5.703-2.91-7.285-5.137c-1.571-2.217-2.362-4.883-2.362-7.979c0-4.678,1.68-8.613,5.039-11.807
	c3.369-3.184,7.842-4.775,13.428-4.775c5.615,0,10.137,1.631,13.555,4.893c3.418,3.262,5.137,7.227,5.137,11.904
	c0,2.988-0.791,5.586-2.354,7.793s-3.936,3.906-7.129,5.107c3.955,1.289,6.953,3.359,9.014,6.23
	c2.07,2.861,3.096,6.289,3.096,10.264c0,5.498-1.942,10.117-5.829,13.857c-3.896,3.75-9.015,5.615-15.361,5.615
	c-6.338,0-11.455-1.875-15.353-5.635c-3.887-3.76-5.83-8.447-5.83-14.063c0-4.18,1.056-7.676,3.185-10.498
	C823.198,165.061,826.216,163.137,830.132,162.112z M826.011,178.43c0,2.256,0.527,4.434,1.603,6.533
	c1.063,2.109,2.656,3.74,4.756,4.893c2.081,1.146,4.421,1.741,6.797,1.729c3.779,0,6.895-1.211,9.346-3.633
	c2.461-2.432,3.691-5.518,3.691-9.258c0-3.799-1.271-6.943-3.799-9.434c-2.529-2.479-5.693-3.729-9.502-3.729
	c-3.711,0-6.787,1.229-9.229,3.691C827.23,171.672,826.011,174.749,826.011,178.43L826.011,178.43z M828.55,148.733
	c0,3.037,0.986,5.527,2.939,7.451c1.963,1.934,4.502,2.9,7.637,2.9c3.037,0,5.537-0.957,7.48-2.871
	c1.942-1.914,2.92-4.268,2.92-7.041c0-2.9-1.006-5.332-3.009-7.305c-2.002-1.973-4.502-2.959-7.479-2.959
	c-3.018,0-5.518,0.957-7.5,2.891C829.546,143.733,828.55,146.038,828.55,148.733L828.55,148.733z M797.749,286.819h-7.891v-50.313
	c-1.904,1.807-4.396,3.623-7.48,5.439c-3.086,1.807-5.858,3.174-8.311,4.072v-7.627c4.414-2.08,8.271-4.59,11.582-7.549
	c3.301-2.949,5.645-5.82,7.012-8.594h5.088V286.819L797.749,286.819z M830.122,251.946c-3.271-1.201-5.703-2.91-7.285-5.137
	c-1.572-2.217-2.363-4.883-2.363-7.979c0-4.678,1.681-8.613,5.039-11.807c3.369-3.184,7.843-4.775,13.429-4.775
	c5.614,0,10.137,1.631,13.555,4.893c3.418,3.262,5.137,7.227,5.137,11.904c0,2.988-0.791,5.586-2.354,7.793
	c-1.563,2.207-3.937,3.906-7.129,5.107c3.955,1.289,6.953,3.359,9.014,6.23c2.07,2.861,3.096,6.289,3.096,10.264
	c0,5.498-1.942,10.117-5.83,13.857c-3.896,3.75-9.014,5.615-15.36,5.615c-6.339,0-11.455-1.875-15.353-5.635
	c-3.887-3.76-5.83-8.447-5.83-14.063c0-4.18,1.056-7.676,3.185-10.498C823.188,254.895,826.206,252.971,830.122,251.946z
	 M826.001,268.264c0,2.256,0.527,4.434,1.603,6.533c1.063,2.109,2.655,3.74,4.756,4.893c2.081,1.146,4.421,1.741,6.797,1.729
	c3.778,0,6.895-1.211,9.346-3.633c2.461-2.432,3.691-5.518,3.691-9.258c0-3.799-1.271-6.943-3.8-9.434
	c-2.528-2.48-5.692-3.729-9.502-3.729c-3.711,0-6.786,1.229-9.229,3.691C827.222,261.506,826.001,264.583,826.001,268.264
	L826.001,268.264z M828.54,238.567c0,3.037,0.986,5.527,2.939,7.451c1.963,1.934,4.502,2.9,7.637,2.9
	c3.037,0,5.537-0.957,7.479-2.871c1.943-1.914,2.92-4.268,2.92-7.041c0-2.9-1.006-5.332-3.008-7.305
	c-2.002-1.973-4.502-2.959-7.479-2.959c-3.019,0-5.519,0.957-7.5,2.891C829.536,233.567,828.54,235.872,828.54,238.567
	L828.54,238.567z M768.052,359.69l7.9-1.056c0.908,4.474,2.451,7.695,4.629,9.668c2.178,1.974,4.834,2.959,7.959,2.959
	c3.711,0,6.854-1.278,9.414-3.856c2.559-2.568,3.838-5.763,3.838-9.562c0-3.623-1.19-6.621-3.555-8.975
	c-2.373-2.354-5.381-3.525-9.043-3.525c-1.484,0-3.341,0.293-5.566,0.879l0.879-6.934c0.527,0.059,0.947,0.088,1.271,0.088
	c3.358,0,6.387-0.879,9.082-2.637c2.686-1.748,4.033-4.453,4.033-8.115c0-2.891-0.978-5.293-2.939-7.188
	c-1.953-1.904-4.492-2.853-7.588-2.853c-3.066,0-5.625,0.957-7.676,2.892c-2.052,1.934-3.359,4.823-3.945,8.69l-7.9-1.406
	c0.967-5.293,3.164-9.395,6.582-12.305s7.676-4.365,12.764-4.365c3.507,0,6.738,0.752,9.697,2.256
	c2.949,1.505,5.215,3.564,6.777,6.162c1.563,2.607,2.344,5.371,2.344,8.291c0,2.783-0.742,5.313-2.236,7.588
	c-1.493,2.285-3.7,4.103-6.62,5.439c3.799,0.879,6.758,2.705,8.856,5.469c2.109,2.765,3.164,6.222,3.164,10.371
	c0,5.615-2.051,10.371-6.143,14.277c-4.103,3.906-9.277,5.858-15.527,5.858c-5.645,0-10.332-1.68-14.063-5.049
	C770.708,369.397,768.579,365.042,768.052,359.69L768.052,359.69z M859.468,369.075v7.588h-42.5
	c-0.067-1.904,0.244-3.73,0.918-5.479c1.084-2.899,2.813-5.752,5.195-8.555c2.383-2.813,5.83-6.055,10.332-9.746
	c6.992-5.731,11.709-10.264,14.17-13.613c2.451-3.35,3.682-6.514,3.682-9.502c0-3.125-1.112-5.771-3.35-7.92
	c-2.246-2.147-5.156-3.223-8.76-3.223c-3.799,0-6.836,1.143-9.121,3.428c-2.275,2.275-3.438,5.439-3.467,9.474l-8.115-0.841
	c0.557-6.045,2.646-10.663,6.279-13.838c3.623-3.174,8.485-4.756,14.6-4.756c6.172,0,11.055,1.709,14.658,5.127
	c3.594,3.429,5.391,7.666,5.391,12.726c0,2.578-0.526,5.106-1.572,7.588c-1.055,2.49-2.803,5.106-5.243,7.852
	c-2.441,2.754-6.505,6.523-12.179,11.318c-4.735,3.975-7.772,6.68-9.121,8.096c-1.348,1.416-2.461,2.842-3.34,4.277H859.468z
	 M809.507,458.904v7.598h-42.5c-0.067-1.914,0.244-3.729,0.918-5.488c1.084-2.891,2.813-5.741,5.195-8.555
	c2.383-2.808,5.83-6.05,10.332-9.742c6.992-5.731,11.709-10.264,14.17-13.613c2.451-3.35,3.682-6.514,3.682-9.502
	c0-3.125-1.112-5.771-3.35-7.92c-2.246-2.147-5.156-3.223-8.76-3.223c-3.8,0-6.836,1.143-9.121,3.428
	c-2.275,2.275-3.438,5.439-3.467,9.474l-8.115-0.841c0.557-6.045,2.646-10.663,6.279-13.838c3.622-3.174,8.485-4.756,14.6-4.756
	c6.172,0,11.055,1.709,14.658,5.127c3.594,3.429,5.391,7.666,5.391,12.726c0,2.578-0.526,5.106-1.572,7.588
	c-1.055,2.49-2.803,5.106-5.243,7.852c-2.441,2.754-6.505,6.523-12.179,11.318c-4.735,3.974-7.772,6.685-9.121,8.091
	c-1.348,1.426-2.461,2.852-3.34,4.277H809.507L809.507,458.904z M859.468,458.904v7.598h-42.5c-0.067-1.914,0.244-3.729,0.918-5.488
	c1.084-2.891,2.813-5.741,5.195-8.555c2.383-2.808,5.83-6.05,10.332-9.742c6.992-5.731,11.709-10.264,14.17-13.613
	c2.451-3.35,3.682-6.514,3.682-9.502c0-3.125-1.112-5.771-3.35-7.92c-2.246-2.147-5.156-3.223-8.76-3.223
	c-3.799,0-6.836,1.143-9.121,3.428c-2.275,2.275-3.438,5.439-3.467,9.474l-8.115-0.841c0.557-6.045,2.646-10.663,6.279-13.838
	c3.623-3.174,8.485-4.756,14.6-4.756c6.172,0,11.055,1.709,14.658,5.127c3.594,3.429,5.391,7.666,5.391,12.726
	c0,2.578-0.526,5.106-1.572,7.588c-1.055,2.49-2.803,5.106-5.243,7.852c-2.441,2.754-6.505,6.523-12.179,11.318
	c-4.735,3.974-7.772,6.685-9.121,8.091c-1.348,1.426-2.461,2.852-3.34,4.277H859.468L859.468,458.904z M819.165,541.463l7.588-0.703
	c0.646,3.574,1.875,6.172,3.691,7.773c1.807,1.602,4.131,2.401,6.973,2.401c2.422,0,4.551-0.547,6.377-1.659
	c1.826-1.113,3.33-2.599,4.502-4.453c1.172-1.855,2.148-4.355,2.939-7.521s1.182-6.367,1.182-9.647c0-0.353-0.02-0.879-0.039-1.582
	c-1.582,2.52-3.74,4.551-6.475,6.112c-2.735,1.563-5.693,2.345-8.888,2.345c-5.321,0-9.823-1.914-13.506-5.781
	c-3.69-3.867-5.526-8.945-5.526-15.273c0-6.504,1.924-11.758,5.771-15.741c3.838-3.966,8.662-5.957,14.453-5.957
	c4.18,0,7.998,1.112,11.465,3.379c3.467,2.246,6.104,5.448,7.9,9.629c1.797,4.16,2.695,10.194,2.695,18.086
	c0,8.223-0.89,14.766-2.677,19.629s-4.434,8.574-7.959,11.113c-3.524,2.559-7.655,3.828-12.393,3.828
	c-5.029,0-9.141-1.406-12.324-4.199C821.725,550.447,819.811,546.521,819.165,541.463L819.165,541.463z M851.499,513.084
	c0-4.531-1.211-8.125-3.623-10.781c-2.412-2.676-5.313-4.004-8.711-4.004c-3.506,0-6.563,1.445-9.16,4.297
	c-2.606,2.871-3.906,6.582-3.906,11.152c0,4.102,1.23,7.422,3.701,9.979c2.472,2.559,5.527,3.828,9.15,3.828
	c3.651,0,6.66-1.27,9.014-3.828C850.318,521.17,851.499,517.615,851.499,513.084z M859.479,638.592v7.578h-42.5
	c-0.068-1.895,0.243-3.729,0.918-5.469c1.084-2.91,2.813-5.762,5.194-8.555c2.383-2.813,5.83-6.056,10.332-9.746
	c6.992-5.742,11.709-10.273,14.17-13.613c2.451-3.359,3.683-6.523,3.683-9.512c0-3.125-1.113-5.763-3.351-7.91
	c-2.246-2.148-5.155-3.224-8.76-3.224c-3.799,0-6.836,1.134-9.121,3.419c-2.274,2.284-3.438,5.448-3.467,9.473l-8.115-0.84
	c0.558-6.035,2.646-10.664,6.279-13.828c3.623-3.185,8.486-4.767,14.6-4.767c6.172,0,11.056,1.72,14.658,5.138
	c3.594,3.418,5.391,7.656,5.391,12.715c0,2.578-0.526,5.117-1.571,7.598c-1.056,2.48-2.804,5.099-5.244,7.853
	c-2.441,2.754-6.504,6.522-12.178,11.309c-4.736,3.984-7.773,6.681-9.121,8.105c-1.349,1.405-2.461,2.832-3.34,4.276H859.479
	L859.479,638.592z"/>
</svg>
