<?xml version="1.0" encoding="utf-8"?>
<!-- Generator: Adobe Illustrator 16.0.3, SVG Export Plug-In . SVG Version: 6.00 Build 0)  -->
<!DOCTYPE svg PUBLIC "-//W3C//DTD SVG 1.1//EN" "http://www.w3.org/Graphics/SVG/1.1/DTD/svg11.dtd">
<svg version="1.1" id="Layer_1" xmlns="http://www.w3.org/2000/svg" xmlns:xlink="http://www.w3.org/1999/xlink" x="0px" y="0px"
	 width="900px" height="900px" viewBox="0 0 900 900" enable-background="new 0 0 900 900" xml:space="preserve">
<path d="M41.641,127.864l13.301-1.23c1.123,6.26,3.271,10.791,6.455,13.613c3.174,2.813,7.256,4.229,12.227,4.229
	c4.248,0,7.979-0.977,11.182-2.92c3.203-1.953,5.83-4.551,7.881-7.813c2.051-3.252,3.77-7.646,5.156-13.184
	c1.378-5.532,2.074-11.213,2.07-16.914c0-0.615-0.029-1.533-0.078-2.764c-2.764,4.404-6.543,7.979-11.338,10.723
	s-9.98,4.111-15.566,4.111c-9.326,0-17.227-3.379-23.682-10.146s-9.688-15.684-9.688-26.748c0-11.436,3.369-20.635,10.107-27.607
	C56.406,44.25,64.854,40.764,75,40.764c7.334,0,14.033,1.973,20.107,5.918c6.074,3.945,10.684,9.57,13.838,16.875
	c3.154,7.305,4.727,17.871,4.727,31.709c0,14.404-1.563,25.869-4.688,34.404s-7.773,15.029-13.955,19.492
	c-6.172,4.463-13.418,6.689-21.719,6.689c-8.818,0-16.016-2.451-21.602-7.344C46.122,143.614,42.764,136.731,41.641,127.864z
	 M98.301,78.127c0-7.949-2.119-14.248-6.348-18.916s-9.316-6.992-15.254-6.992c-6.152,0-11.514,2.51-16.074,7.529
	c-4.561,5.029-6.836,11.533-6.836,19.531c0,7.178,2.158,13.008,6.494,17.49c4.326,4.482,9.668,6.729,16.025,6.729
	c6.406,0,11.68-2.246,15.801-6.729S98.301,86.067,98.301,78.127z M127.129,124.407l14.531-1.23c1.074,7.07,3.574,12.393,7.5,15.957
	c3.916,3.555,8.643,5.342,14.18,5.342c6.66,0,12.305-2.51,16.914-7.539c4.609-5.02,6.924-11.68,6.924-19.99
	c0-7.891-2.217-14.121-6.65-18.682c-4.433-4.561-10.244-6.836-17.412-6.836c-4.463,0-8.486,1.006-12.07,3.037
	c-3.594,2.021-6.416,4.648-8.457,7.881l-12.998-1.699l10.918-57.891h56.045V55.98h-44.971l-6.074,30.293
	c6.758-4.717,13.857-7.07,21.289-7.07c9.844,0,18.145,3.408,24.912,10.225c6.767,6.817,10.146,15.576,10.146,26.289
	c0,10.205-2.969,19.023-8.916,26.445c-7.227,9.131-17.09,13.691-29.6,13.691c-10.254,0-18.613-2.871-25.098-8.613
	C131.757,141.498,128.057,133.889,127.129,124.407L127.129,124.407z M204.014,652.83l28.457-74.103h10.566l30.332,74.103h-11.172
	l-8.643-22.441h-30.986l-8.135,22.441H204.014L204.014,652.83z M225.4,622.4h25.117l-7.734-20.509
	c-2.354-6.25-4.111-11.366-5.254-15.37c-0.964,4.815-2.299,9.55-3.994,14.159L225.4,622.4z M280.039,652.83v-53.672h8.135v7.52
	c1.689-2.617,3.926-4.727,6.719-6.328c2.803-1.602,5.986-2.401,9.561-2.401c3.975,0,7.236,0.819,9.775,2.479
	c2.549,1.642,4.336,3.945,5.381,6.914c4.248-6.27,9.775-9.395,16.582-9.395c5.322,0,9.414,1.465,12.285,4.414
	c2.861,2.948,4.297,7.5,4.297,13.633v36.836h-9.053v-33.809c0-3.634-0.293-6.271-0.879-7.853c-0.596-1.602-1.66-2.891-3.213-3.867
	c-1.553-0.976-3.369-1.465-5.459-1.465c-3.77,0-6.904,1.25-9.404,3.75c-2.49,2.521-3.74,6.543-3.74,12.07v31.172h-9.092v-34.863
	c0-4.043-0.742-7.09-2.227-9.102c-1.484-2.031-3.906-3.027-7.275-3.027c-2.568,0-4.932,0.664-7.109,2.012
	c-2.168,1.349-3.74,3.32-4.727,5.919c-0.977,2.598-1.465,6.327-1.465,11.211v27.852H280.039L280.039,652.83z M403.018,635.545
	l9.396,1.172c-1.484,5.488-4.229,9.746-8.232,12.773c-4.014,3.047-9.141,4.551-15.371,4.551c-7.852,0-14.072-2.402-18.672-7.246
	c-4.6-4.844-6.904-11.621-6.904-20.352c0-9.023,2.324-16.035,6.973-21.017c4.658-5,10.684-7.479,18.096-7.479
	c7.178,0,13.046,2.44,17.598,7.324c4.541,4.883,6.815,11.758,6.815,20.625c0,0.547-0.01,1.348-0.049,2.422h-40.029
	c0.332,5.897,2.002,10.41,5,13.555c2.998,3.125,6.738,4.688,11.221,4.688c3.34,0,6.182-0.859,8.545-2.617
	C399.768,642.187,401.631,639.393,403.018,635.545L403.018,635.545z M373.145,620.838h29.971c-0.41-4.512-1.553-7.891-3.438-10.156
	c-2.899-3.495-6.66-5.254-11.27-5.254c-4.18,0-7.695,1.388-10.537,4.199C375.02,612.42,373.447,616.15,373.145,620.838
	L373.145,620.838z M423.73,652.83v-53.672h8.192v8.145c2.09-3.809,4.015-6.328,5.781-7.539c1.777-1.211,3.721-1.815,5.84-1.815
	c3.066,0,6.182,0.977,9.355,2.93l-3.136,8.438c-2.227-1.31-4.453-1.974-6.67-1.974c-1.992,0-3.778,0.605-5.36,1.797
	c-1.582,1.192-2.716,2.853-3.39,4.98c-1.006,3.242-1.514,6.777-1.514,10.604v28.105H423.73L423.73,652.83z M458.359,589.197v-10.469
	h9.102v10.469H458.359z M458.359,652.83v-53.672h9.102v53.672H458.359z M516.338,633.182l8.945,1.152
	c-0.978,6.172-3.486,10.996-7.51,14.492c-4.023,3.477-8.976,5.215-14.834,5.215c-7.345,0-13.252-2.402-17.716-7.188
	c-4.463-4.806-6.698-11.699-6.698-20.664c0-5.781,0.957-10.859,2.881-15.216c1.924-4.336,4.844-7.598,8.77-9.766
	c3.926-2.188,8.193-3.262,12.813-3.262c5.83,0,10.596,1.465,14.307,4.414c3.701,2.948,6.084,7.147,7.129,12.559l-8.848,1.367
	c-0.84-3.594-2.334-6.31-4.474-8.125c-2.139-1.836-4.727-2.734-7.764-2.734c-4.58,0-8.301,1.642-11.162,4.922
	c-2.871,3.281-4.297,8.478-4.297,15.587c0,7.227,1.377,12.461,4.142,15.723c2.764,3.281,6.366,4.902,10.819,4.902
	c3.564,0,6.553-1.095,8.945-3.281C514.179,641.092,515.693,637.713,516.338,633.182L516.338,633.182z M533.115,589.197v-10.469
	h9.102v10.469H533.115z M533.115,652.83v-53.672h9.102v53.672H533.115z M591.24,652.83v-7.871
	c-4.181,6.055-9.854,9.082-17.031,9.082c-3.174,0-6.123-0.604-8.877-1.816c-2.744-1.211-4.785-2.733-6.113-4.569
	s-2.266-4.082-2.803-6.738c-0.371-1.797-0.557-4.629-0.557-8.496v-33.262h9.102v29.766c0,4.746,0.186,7.949,0.557,9.609
	c0.566,2.383,1.777,4.277,3.634,5.625c1.854,1.367,4.149,2.051,6.875,2.051c2.733,0,5.293-0.703,7.686-2.09
	c2.394-1.406,4.082-3.301,5.078-5.723c0.996-2.402,1.494-5.898,1.494-10.488v-28.75h9.092v53.672L591.24,652.83L591.24,652.83z
	 M613.633,652.83v-53.672h8.135v7.52c1.689-2.616,3.927-4.727,6.72-6.328c2.803-1.602,5.985-2.401,9.561-2.401
	c3.976,0,7.236,0.82,9.775,2.479c2.549,1.642,4.336,3.945,5.381,6.914c4.248-6.27,9.774-9.395,16.582-9.395
	c5.322,0,9.414,1.465,12.285,4.414c2.86,2.949,4.297,7.5,4.297,13.633v36.836h-9.053v-33.809c0-3.634-0.294-6.271-0.88-7.853
	c-0.596-1.602-1.659-2.891-3.213-3.867c-1.553-0.976-3.369-1.465-5.459-1.465c-3.77,0-6.903,1.25-9.403,3.75
	c-2.49,2.521-3.74,6.543-3.74,12.07v31.172h-9.092v-34.863c0-4.043-0.742-7.09-2.228-9.102c-1.483-2.031-3.906-3.027-7.274-3.027
	c-2.568,0-4.933,0.664-7.109,2.013c-2.168,1.348-3.74,3.319-4.727,5.918c-0.978,2.598-1.466,6.327-1.466,11.211v27.852H613.633
	L613.633,652.83z M62.51,859.236v-94.668h20.068v7.52H71.611v79.609h10.967v7.539H62.51z M136.357,829.92v8.75H87.383
	c-0.074-2.159,0.288-4.312,1.064-6.328c1.24-3.34,3.242-6.621,5.986-9.844c2.744-3.242,6.709-6.992,11.904-11.23
	c8.047-6.602,13.496-11.836,16.328-15.684c2.822-3.867,4.238-7.52,4.238-10.957c0-3.594-1.289-6.641-3.867-9.121
	c-2.578-2.479-5.938-3.711-10.078-3.711c-4.385,0-7.891,1.31-10.518,3.945c-2.627,2.617-3.955,6.27-3.994,10.918l-9.346-0.957
	c0.635-6.973,3.047-12.305,7.227-15.957c4.18-3.652,9.785-5.488,16.836-5.488c7.109,0,12.734,1.974,16.875,5.918
	c4.15,3.945,6.221,8.828,6.221,14.668c0,2.949-0.605,5.88-1.816,8.73c-1.221,2.871-3.232,5.879-6.045,9.063
	c-2.813,3.164-7.49,7.5-14.023,13.027c-5.459,4.59-8.965,7.695-10.518,9.336c-1.553,1.621-2.832,3.281-3.838,4.922H136.357
	L136.357,829.92z M175.273,838.67v-17.754h-32.139v-8.34l33.809-48.008h7.432v48.008h10.01v8.34h-10.01v17.754H175.273z
	 M175.273,812.576v-33.398l-23.193,33.398H175.273L175.273,812.576z M203.73,819.1l9.102-1.211
	c1.045,5.156,2.822,8.867,5.332,11.152c2.51,2.266,5.566,3.398,9.17,3.398c4.277,0,7.891-1.466,10.84-4.435
	c2.949-2.969,4.424-6.641,4.424-11.016c0-4.181-1.357-7.638-4.092-10.353c-2.725-2.715-6.201-4.063-10.41-4.063
	c-1.719,0-3.857,0.332-6.416,1.016l1.006-7.988c0.487,0.055,0.976,0.088,1.465,0.099c3.877,0,7.363-1.017,10.469-3.027
	c3.096-2.03,4.648-5.137,4.648-9.354c0-3.34-1.133-6.094-3.389-8.281c-2.256-2.207-5.176-3.301-8.74-3.301
	c-3.545,0-6.494,1.112-8.848,3.34c-2.363,2.227-3.877,5.566-4.551,10.02l-9.102-1.62c1.113-6.095,3.643-10.82,7.588-14.181
	c3.936-3.358,8.838-5.039,14.707-5.039c4.043,0,7.764,0.879,11.172,2.617c3.398,1.738,6.006,4.103,7.803,7.09
	c1.807,3.008,2.705,6.191,2.705,9.552c0,3.202-0.859,6.112-2.578,8.75c-1.719,2.637-4.258,4.727-7.627,6.27
	c4.375,1.016,7.783,3.105,10.205,6.289c2.432,3.184,3.643,7.168,3.643,11.953c0,6.465-2.363,11.953-7.08,16.465
	c-4.717,4.492-10.684,6.738-17.891,6.738c-6.504,0-11.904-1.935-16.201-5.82C206.787,830.291,204.336,825.271,203.73,819.1
	L203.73,819.1z M279.004,859.236h-20.068v-7.539h10.967v-79.609h-10.967v-7.52h20.068V859.236L279.004,859.236z M420.352,440.344
	h-40.604l-16.143-41.992h-73.906l-15.264,41.992h-39.6l72.012-184.893h39.473L420.352,440.344L420.352,440.344z M351.621,367.2
	l-25.479-68.613l-24.97,68.613H351.621z M437.246,306.409h32.666v18.281c11.688-14.199,25.604-21.31,41.748-21.31
	c8.574,0,16.016,1.768,22.324,5.293c6.299,3.535,11.475,8.877,15.508,16.017c5.889-7.14,12.235-12.48,19.043-16.017
	c6.807-3.525,14.082-5.293,21.815-5.293c9.845,0,18.164,2.002,24.972,5.986c6.815,3.994,11.903,9.863,15.264,17.598
	c2.441,5.723,3.662,14.971,3.662,27.744v85.635h-35.439v-76.553c0-13.281-1.221-21.855-3.662-25.732
	c-3.28-5.039-8.319-7.559-15.137-7.559c-4.961,0-9.629,1.514-13.994,4.531c-4.375,3.026-7.529,7.471-9.463,13.311
	s-2.9,15.068-2.9,27.687v64.315h-35.438v-73.397c0-13.037-0.625-21.445-1.885-25.226c-1.271-3.778-3.224-6.602-5.869-8.446
	c-2.646-1.855-6.24-2.773-10.781-2.773c-5.469,0-10.391,1.465-14.756,4.414c-4.375,2.938-7.51,7.188-9.396,12.734
	c-1.895,5.547-2.842,14.756-2.842,27.616v65.078h-35.438L437.246,306.409L437.246,306.409z M859.307,99.553v7.588h-42.5
	c-0.067-1.904,0.244-3.73,0.918-5.479c1.084-2.9,2.813-5.752,5.195-8.555c2.383-2.813,5.83-6.055,10.332-9.746
	c6.992-5.732,11.709-10.264,14.17-13.613c2.451-3.35,3.682-6.514,3.682-9.502c0-3.125-1.112-5.771-3.35-7.92
	c-2.246-2.148-5.156-3.223-8.76-3.223c-3.799,0-6.836,1.143-9.121,3.428c-2.275,2.275-3.438,5.439-3.467,9.473l-8.115-0.84
	c0.557-6.045,2.646-10.664,6.279-13.838c3.623-3.174,8.485-4.756,14.6-4.756c6.172,0,11.055,1.709,14.658,5.127
	c3.594,3.428,5.391,7.666,5.391,12.725c0,2.578-0.526,5.107-1.571,7.588c-1.056,2.49-2.804,5.107-5.244,7.852
	c-2.441,2.754-6.504,6.523-12.179,11.318c-4.735,3.975-7.772,6.68-9.12,8.096c-1.349,1.416-2.462,2.842-3.341,4.277H859.307z
	 M829.961,162.112c-3.271-1.201-5.703-2.91-7.285-5.137c-1.572-2.217-2.362-4.883-2.362-7.979c0-4.678,1.68-8.613,5.038-11.807
	c3.369-3.184,7.843-4.775,13.429-4.775c5.614,0,10.137,1.631,13.555,4.893c3.418,3.262,5.137,7.227,5.137,11.904
	c0,2.988-0.791,5.586-2.354,7.793c-1.563,2.207-3.937,3.906-7.129,5.107c3.955,1.289,6.953,3.359,9.014,6.23
	c2.07,2.861,3.096,6.289,3.096,10.264c0,5.498-1.942,10.117-5.83,13.857c-3.896,3.75-9.014,5.615-15.36,5.615
	c-6.338,0-11.455-1.875-15.353-5.635c-3.887-3.76-5.83-8.447-5.83-14.063c0-4.18,1.056-7.676,3.185-10.498
	C823.027,165.061,826.045,163.137,829.961,162.112z M825.84,178.43c0,2.256,0.527,4.434,1.603,6.533
	c1.063,2.109,2.655,3.74,4.756,4.893c2.081,1.146,4.421,1.741,6.797,1.729c3.779,0,6.895-1.211,9.346-3.633
	c2.461-2.432,3.691-5.518,3.691-9.258c0-3.799-1.271-6.943-3.799-9.434c-2.529-2.479-5.693-3.729-9.503-3.729
	c-3.711,0-6.786,1.229-9.229,3.691C827.061,171.672,825.84,174.749,825.84,178.43L825.84,178.43z M828.379,148.733
	c0,3.037,0.986,5.527,2.939,7.451c1.963,1.934,4.502,2.9,7.637,2.9c3.037,0,5.537-0.957,7.48-2.871
	c1.942-1.914,2.92-4.268,2.92-7.041c0-2.9-1.007-5.332-3.009-7.305c-2.002-1.973-4.502-2.959-7.479-2.959
	c-3.019,0-5.519,0.957-7.5,2.891C829.375,143.733,828.379,146.038,828.379,148.733L828.379,148.733z M797.578,286.819h-7.891
	v-50.313c-1.904,1.807-4.396,3.623-7.48,5.439c-3.086,1.807-5.859,3.174-8.311,4.072v-7.627c4.414-2.08,8.271-4.59,11.582-7.549
	c3.301-2.949,5.645-5.82,7.012-8.594h5.088V286.819L797.578,286.819z M829.951,251.946c-3.271-1.201-5.703-2.91-7.285-5.137
	c-1.572-2.217-2.363-4.883-2.363-7.979c0-4.678,1.681-8.613,5.039-11.807c3.369-3.184,7.842-4.775,13.428-4.775
	c5.615,0,10.138,1.631,13.556,4.893c3.418,3.262,5.137,7.227,5.137,11.904c0,2.988-0.791,5.586-2.354,7.793
	c-1.563,2.207-3.937,3.906-7.13,5.107c3.955,1.289,6.953,3.359,9.015,6.23c2.069,2.861,3.096,6.289,3.096,10.264
	c0,5.498-1.942,10.117-5.83,13.857c-3.896,3.75-9.014,5.615-15.36,5.615c-6.339,0-11.455-1.875-15.353-5.635
	c-3.887-3.76-5.83-8.447-5.83-14.063c0-4.18,1.055-7.676,3.185-10.498C823.018,254.895,826.035,252.971,829.951,251.946z
	 M825.83,268.264c0,2.256,0.527,4.434,1.602,6.533c1.064,2.109,2.656,3.74,4.756,4.893c2.082,1.146,4.422,1.741,6.798,1.729
	c3.778,0,6.895-1.211,9.346-3.633c2.461-2.432,3.69-5.518,3.69-9.258c0-3.799-1.27-6.943-3.799-9.434
	c-2.528-2.48-5.692-3.729-9.502-3.729c-3.711,0-6.787,1.229-9.229,3.691C827.051,261.506,825.83,264.583,825.83,268.264
	L825.83,268.264z M828.369,238.567c0,3.037,0.986,5.527,2.938,7.451c1.964,1.934,4.503,2.9,7.638,2.9
	c3.037,0,5.537-0.957,7.479-2.871c1.943-1.914,2.92-4.268,2.92-7.041c0-2.9-1.006-5.332-3.008-7.305
	c-2.002-1.973-4.502-2.959-7.479-2.959c-3.019,0-5.519,0.957-7.5,2.891C829.365,233.567,828.369,235.872,828.369,238.567
	L828.369,238.567z M767.881,359.69l7.9-1.056c0.908,4.474,2.451,7.695,4.629,9.668c2.178,1.974,4.834,2.959,7.959,2.959
	c3.711,0,6.854-1.278,9.414-3.856c2.559-2.568,3.838-5.763,3.838-9.562c0-3.623-1.191-6.621-3.555-8.975
	c-2.373-2.354-5.381-3.525-9.043-3.525c-1.484,0-3.341,0.293-5.566,0.879l0.879-6.934c0.527,0.059,0.947,0.088,1.271,0.088
	c3.358,0,6.387-0.879,9.082-2.637c2.686-1.748,4.032-4.453,4.032-8.115c0-2.891-0.977-5.293-2.938-7.188
	c-1.953-1.904-4.492-2.853-7.588-2.853c-3.066,0-5.625,0.957-7.677,2.892c-2.051,1.934-3.358,4.823-3.944,8.69l-7.9-1.406
	c0.967-5.293,3.164-9.395,6.582-12.305s7.676-4.365,12.764-4.365c3.507,0,6.738,0.752,9.697,2.256
	c2.949,1.505,5.215,3.564,6.777,6.162c1.563,2.607,2.344,5.371,2.344,8.291c0,2.783-0.742,5.313-2.236,7.588
	c-1.494,2.285-3.7,4.103-6.621,5.439c3.8,0.879,6.759,2.705,8.857,5.469c2.109,2.765,3.164,6.222,3.164,10.371
	c0,5.615-2.051,10.371-6.144,14.277c-4.102,3.906-9.276,5.858-15.526,5.858c-5.646,0-10.332-1.68-14.063-5.049
	C770.537,369.397,768.408,365.042,767.881,359.69L767.881,359.69z M859.297,369.075v7.588h-42.5
	c-0.068-1.904,0.244-3.73,0.918-5.479c1.084-2.899,2.813-5.752,5.195-8.555c2.383-2.813,5.83-6.055,10.332-9.746
	c6.992-5.731,11.709-10.264,14.17-13.613c2.451-3.35,3.682-6.514,3.682-9.502c0-3.125-1.112-5.771-3.35-7.92
	c-2.246-2.147-5.156-3.223-8.76-3.223c-3.8,0-6.836,1.143-9.121,3.428c-2.275,2.275-3.438,5.439-3.467,9.474l-8.115-0.841
	c0.557-6.045,2.646-10.663,6.279-13.838c3.622-3.174,8.485-4.756,14.6-4.756c6.172,0,11.055,1.709,14.658,5.127
	c3.594,3.429,5.391,7.666,5.391,12.726c0,2.578-0.527,5.106-1.572,7.588c-1.055,2.49-2.803,5.106-5.244,7.852
	c-2.44,2.754-6.504,6.523-12.178,11.318c-4.736,3.975-7.772,6.68-9.121,8.096c-1.348,1.416-2.461,2.842-3.34,4.277H859.297z
	 M809.336,458.904v7.598h-42.5c-0.068-1.914,0.244-3.729,0.918-5.488c1.084-2.891,2.813-5.741,5.195-8.555
	c2.383-2.808,5.83-6.05,10.332-9.742c6.992-5.731,11.709-10.264,14.17-13.613c2.451-3.35,3.682-6.514,3.682-9.502
	c0-3.125-1.113-5.771-3.35-7.92c-2.246-2.147-5.156-3.223-8.76-3.223c-3.8,0-6.836,1.143-9.121,3.428
	c-2.275,2.275-3.438,5.439-3.467,9.474l-8.115-0.841c0.557-6.045,2.646-10.663,6.278-13.838c3.623-3.174,8.486-4.756,14.601-4.756
	c6.172,0,11.055,1.709,14.658,5.127c3.594,3.429,5.391,7.666,5.391,12.726c0,2.578-0.527,5.106-1.572,7.588
	c-1.055,2.49-2.803,5.106-5.244,7.852c-2.44,2.754-6.504,6.523-12.178,11.318c-4.736,3.974-7.772,6.685-9.121,8.091
	c-1.348,1.426-2.461,2.852-3.34,4.277H809.336L809.336,458.904z M817.803,449.651l8.291-0.703c0.615,4.039,2.041,7.065,4.277,9.097
	s4.932,3.047,8.096,3.047c3.799,0,7.012-1.426,9.648-4.297c2.627-2.852,3.944-6.666,3.944-11.402c0-4.502-1.27-8.057-3.799-10.653
	c-2.528-2.607-5.84-3.906-9.932-3.906c-2.539,0-4.844,0.576-6.885,1.729c-2.052,1.161-3.662,2.655-4.824,4.502l-7.412-0.968
	l6.221-33.026h31.982v7.539h-25.664l-3.467,17.285c3.867-2.687,7.91-4.033,12.158-4.033c5.614,0,10.352,1.942,14.209,5.83
	c3.856,3.896,5.791,8.896,5.791,15c0,5.819-1.699,10.854-5.089,15.093c-4.12,5.215-9.756,7.813-16.885,7.813
	c-5.85,0-10.625-1.641-14.326-4.922C820.439,459.412,818.33,455.057,817.803,449.651L817.803,449.651z M829.961,521.463
	c-3.271-1.19-5.703-2.91-7.285-5.137c-1.572-2.207-2.362-4.883-2.362-7.969c0-4.688,1.68-8.613,5.038-11.816
	c3.369-3.184,7.843-4.766,13.429-4.766c5.614,0,10.137,1.621,13.555,4.883s5.137,7.227,5.137,11.914
	c0,2.987-0.791,5.586-2.354,7.793c-1.563,2.207-3.937,3.906-7.129,5.098c3.955,1.289,6.953,3.359,9.014,6.23
	c2.07,2.871,3.096,6.289,3.096,10.272c0,5.488-1.942,10.117-5.83,13.849c-3.896,3.75-9.014,5.625-15.36,5.625
	c-6.338,0-11.455-1.875-15.353-5.646c-3.887-3.75-5.83-8.438-5.83-14.063c0-4.181,1.056-7.677,3.185-10.488
	C823.027,524.412,826.045,522.498,829.961,521.463z M825.84,537.791c0,2.246,0.527,4.434,1.603,6.523
	c1.063,2.108,2.655,3.75,4.756,4.901c2.108,1.152,4.375,1.719,6.797,1.719c3.779,0,6.895-1.211,9.346-3.633
	c2.461-2.422,3.691-5.508,3.691-9.258c0-3.789-1.271-6.934-3.799-9.434c-2.529-2.48-5.693-3.73-9.503-3.73
	c-3.711,0-6.786,1.23-9.229,3.691S825.84,534.1,825.84,537.791L825.84,537.791z M828.379,508.084c0,3.047,0.986,5.527,2.939,7.461
	c1.963,1.935,4.502,2.891,7.637,2.891c3.037,0,5.537-0.956,7.48-2.87c1.942-1.914,2.92-4.259,2.92-7.031
	c0-2.91-1.007-5.332-3.009-7.305c-2.002-1.974-4.502-2.97-7.479-2.97c-3.019,0-5.519,0.957-7.5,2.892
	C829.375,503.084,828.379,505.389,828.379,508.084L828.379,508.084z M859.307,638.592v7.578h-42.5
	c-0.067-1.895,0.244-3.729,0.918-5.469c1.084-2.91,2.813-5.762,5.195-8.555c2.383-2.813,5.83-6.056,10.332-9.746
	c6.992-5.742,11.709-10.273,14.17-13.613c2.451-3.359,3.682-6.523,3.682-9.512c0-3.125-1.112-5.763-3.35-7.91
	c-2.246-2.148-5.156-3.223-8.76-3.223c-3.799,0-6.836,1.133-9.121,3.418c-2.275,2.284-3.438,5.448-3.467,9.473l-8.115-0.84
	c0.557-6.035,2.646-10.664,6.279-13.828c3.623-3.185,8.485-4.766,14.6-4.766c6.172,0,11.055,1.719,14.658,5.137
	c3.594,3.418,5.391,7.656,5.391,12.715c0,2.578-0.526,5.117-1.571,7.598c-1.056,2.48-2.804,5.099-5.244,7.853
	c-2.441,2.754-6.504,6.522-12.179,11.309c-4.735,3.984-7.772,6.681-9.12,8.105c-1.349,1.405-2.462,2.832-3.341,4.276H859.307
	L859.307,638.592z"/>
</svg>
