<?xml version="1.0" encoding="utf-8"?>
<!-- Generator: Adobe Illustrator 16.0.3, SVG Export Plug-In . SVG Version: 6.00 Build 0)  -->
<!DOCTYPE svg PUBLIC "-//W3C//DTD SVG 1.1//EN" "http://www.w3.org/Graphics/SVG/1.1/DTD/svg11.dtd">
<svg version="1.1" id="Layer_1" xmlns="http://www.w3.org/2000/svg" xmlns:xlink="http://www.w3.org/1999/xlink" x="0px" y="0px"
	 width="900px" height="900px" viewBox="0 0 900 900" enable-background="new 0 0 900 900" xml:space="preserve">
<path d="M41.641,127.864l13.301-1.23c1.123,6.26,3.271,10.791,6.455,13.613c3.174,2.813,7.256,4.229,12.227,4.229
	c4.248,0,7.979-0.977,11.182-2.92c3.203-1.953,5.83-4.551,7.881-7.813c2.051-3.252,3.77-7.646,5.156-13.184
	c1.378-5.532,2.074-11.213,2.07-16.914c0-0.615-0.029-1.533-0.078-2.764c-2.764,4.404-6.543,7.979-11.338,10.723
	s-9.98,4.111-15.566,4.111c-9.326,0-17.227-3.379-23.682-10.146s-9.688-15.684-9.688-26.748c0-11.436,3.369-20.635,10.107-27.607
	C56.406,44.25,64.854,40.764,75,40.764c7.334,0,14.033,1.973,20.107,5.918c6.074,3.945,10.684,9.57,13.838,16.875
	c3.154,7.305,4.727,17.871,4.727,31.709c0,14.404-1.563,25.869-4.688,34.404s-7.773,15.029-13.955,19.492
	c-6.172,4.463-13.418,6.689-21.719,6.689c-8.818,0-16.016-2.451-21.602-7.344C46.122,143.614,42.764,136.731,41.641,127.864z
	 M98.301,78.127c0-7.949-2.119-14.248-6.348-18.916s-9.316-6.992-15.254-6.992c-6.152,0-11.514,2.51-16.074,7.529
	c-4.561,5.029-6.836,11.533-6.836,19.531c0,7.178,2.158,13.008,6.494,17.49c4.326,4.482,9.668,6.729,16.025,6.729
	c6.406,0,11.68-2.246,15.801-6.729S98.301,86.067,98.301,78.127z M198.936,68.821l-13.76,1.074c-1.23-5.43-2.969-9.375-5.225-11.836
	c-3.75-3.945-8.359-5.918-13.838-5.918c-4.414,0-8.281,1.23-11.611,3.691c-4.355,3.174-7.793,7.813-10.303,13.916
	c-2.51,6.094-3.818,14.785-3.926,26.055c3.33-5.068,7.412-8.838,12.227-11.299s9.863-3.691,15.146-3.691
	c9.229,0,17.08,3.398,23.564,10.186c6.484,6.797,9.727,15.566,9.727,26.338c0,7.07-1.523,13.643-4.58,19.717
	c-3.047,6.074-7.236,10.723-12.568,13.955c-5.332,3.223-11.377,4.844-18.145,4.844c-11.533,0-20.938-4.238-28.213-12.725
	c-7.275-8.487-10.918-22.461-10.918-41.943c0-21.777,4.023-37.617,12.07-47.51c7.021-8.613,16.475-12.91,28.369-12.91
	c8.867,0,16.133,2.48,21.797,7.451C194.413,53.187,197.813,60.061,198.936,68.821L198.936,68.821z M142.432,117.415
	c0,4.766,1.006,9.326,3.037,13.682c2.021,4.355,4.854,7.676,8.496,9.951c3.633,2.285,7.451,3.428,11.455,3.428
	c5.84,0,10.859-2.363,15.068-7.08c4.199-4.707,6.299-11.113,6.299-19.219c0-7.783-2.07-13.926-6.221-18.408
	c-4.16-4.482-9.385-6.729-15.684-6.729c-6.26,0-11.563,2.246-15.918,6.729S142.432,110.129,142.432,117.415L142.432,117.415z
	 M342.607,626.854l9.805,2.48c-2.061,8.047-5.752,14.199-11.094,18.418c-5.342,4.238-11.875,6.348-19.59,6.348
	c-7.988,0-14.482-1.621-19.482-4.883c-5.01-3.242-8.818-7.949-11.426-14.121c-2.608-6.172-3.916-12.793-3.916-19.862
	c0-7.716,1.475-14.453,4.424-20.195c2.949-5.742,7.139-10.117,12.588-13.086c5.439-2.988,11.426-4.474,17.969-4.474
	c7.412,0,13.643,1.875,18.701,5.664c5.049,3.771,8.574,9.082,10.557,15.918l-9.648,2.267c-1.719-5.392-4.219-9.316-7.48-11.777
	c-3.271-2.461-7.383-3.69-12.334-3.69c-5.693,0-10.459,1.367-14.277,4.102c-3.828,2.734-6.514,6.387-8.066,10.996
	c-1.549,4.58-2.334,9.384-2.324,14.219c0,6.31,0.918,11.816,2.754,16.504c1.836,4.707,4.697,8.224,8.564,10.547
	c3.877,2.324,8.076,3.478,12.588,3.478c5.498,0,10.146-1.582,13.955-4.746S341.26,633.084,342.607,626.854L342.607,626.854z
	 M398.506,652.83v-7.871c-4.18,6.055-9.854,9.082-17.031,9.082c-3.174,0-6.123-0.605-8.877-1.816
	c-2.744-1.211-4.785-2.733-6.113-4.569s-2.266-4.082-2.803-6.738c-0.371-1.797-0.557-4.629-0.557-8.496v-33.262h9.102v29.766
	c0,4.746,0.186,7.949,0.557,9.609c0.566,2.383,1.777,4.276,3.633,5.625c1.855,1.367,4.15,2.051,6.875,2.051
	c2.734,0,5.293-0.703,7.686-2.09c2.393-1.406,4.082-3.301,5.078-5.723c0.996-2.402,1.494-5.898,1.494-10.488v-28.75h9.092v53.672
	L398.506,652.83L398.506,652.83z M420.791,652.83v-53.672h8.193v8.145c2.09-3.809,4.014-6.328,5.78-7.539
	c1.777-1.211,3.722-1.815,5.841-1.815c3.065,0,6.182,0.977,9.354,2.93l-3.135,8.438c-2.228-1.31-4.453-1.974-6.67-1.974
	c-1.992,0-3.779,0.605-5.361,1.797c-1.582,1.192-2.715,2.853-3.389,4.98c-1.007,3.242-1.515,6.776-1.515,10.604v28.105H420.791
	L420.791,652.83z M455.42,589.197v-10.469h9.102v10.469H455.42z M455.42,652.83v-53.672h9.102v53.672H455.42z M513.545,652.83
	v-7.871c-4.18,6.055-9.854,9.082-17.031,9.082c-3.174,0-6.123-0.605-8.877-1.816c-2.744-1.211-4.785-2.733-6.113-4.569
	c-1.327-1.836-2.266-4.082-2.803-6.738c-0.371-1.797-0.557-4.629-0.557-8.496v-33.262h9.102v29.766c0,4.746,0.187,7.949,0.558,9.609
	c0.565,2.383,1.776,4.276,3.633,5.625c1.854,1.367,4.149,2.051,6.875,2.051c2.733,0,5.293-0.703,7.686-2.09
	c2.394-1.406,4.082-3.301,5.078-5.723c0.996-2.402,1.494-5.898,1.494-10.488v-28.75h9.092v53.672L513.545,652.83L513.545,652.83z
	 M535.938,652.83v-53.672h8.136v7.52c1.688-2.617,3.926-4.727,6.719-6.328c2.803-1.602,5.986-2.401,9.561-2.401
	c3.976,0,7.236,0.819,9.775,2.479c2.549,1.642,4.336,3.945,5.381,6.914c4.248-6.27,9.775-9.395,16.582-9.395
	c5.322,0,9.414,1.465,12.285,4.414c2.861,2.948,4.297,7.5,4.297,13.633v36.836h-9.053v-33.809c0-3.634-0.293-6.271-0.879-7.853
	c-0.597-1.602-1.66-2.891-3.213-3.867c-1.554-0.976-3.369-1.465-5.459-1.465c-3.771,0-6.904,1.25-9.404,3.75
	c-2.49,2.521-3.74,6.543-3.74,12.07v31.172h-9.092v-34.863c0-4.043-0.742-7.09-2.228-9.102c-1.483-2.031-3.905-3.027-7.274-3.027
	c-2.568,0-4.933,0.664-7.109,2.012c-2.168,1.349-3.739,3.32-4.727,5.919c-0.978,2.598-1.465,6.327-1.465,11.211v27.852H535.938
	L535.938,652.83z M62.52,859.236v-94.668h20.068v7.52H71.621v79.609h10.967v7.539H62.52z M136.367,829.92v8.75H87.393
	c-0.075-2.159,0.287-4.312,1.064-6.328c1.24-3.34,3.242-6.621,5.986-9.844c2.744-3.242,6.709-6.992,11.904-11.23
	c8.047-6.602,13.496-11.836,16.328-15.684c2.822-3.867,4.238-7.52,4.238-10.957c0-3.594-1.289-6.641-3.867-9.121
	c-2.578-2.479-5.938-3.711-10.078-3.711c-4.385,0-7.891,1.31-10.518,3.945c-2.627,2.617-3.955,6.27-3.994,10.918l-9.346-0.957
	c0.635-6.973,3.047-12.305,7.227-15.957c4.18-3.652,9.785-5.488,16.836-5.488c7.109,0,12.734,1.974,16.875,5.918
	c4.15,3.945,6.221,8.828,6.221,14.668c0,2.949-0.605,5.88-1.816,8.73c-1.221,2.871-3.232,5.879-6.045,9.063
	c-2.813,3.164-7.49,7.5-14.023,13.027c-5.459,4.59-8.965,7.695-10.518,9.336c-1.553,1.621-2.832,3.281-3.838,4.922H136.367
	L136.367,829.92z M175.283,838.67v-17.754h-32.139v-8.34l33.809-48.008h7.432v48.008h10.01v8.34h-10.01v17.754H175.283z
	 M175.283,812.576v-33.398l-23.193,33.398H175.283L175.283,812.576z M204.297,774.275v-8.75h47.969v7.069
	c-4.717,5.021-9.395,11.699-14.023,20.021c-4.639,8.32-8.213,16.895-10.742,25.684c-1.826,6.191-2.988,12.988-3.486,20.371h-9.355
	c0.098-5.84,1.25-12.871,3.438-21.133s5.332-16.211,9.424-23.887c4.102-7.656,8.447-14.121,13.066-19.375H204.297z M279.014,859.236
	h-20.068v-7.539h10.967v-79.609h-10.967v-7.52h20.068V859.236L279.014,859.236z M371.934,372.366l36.191,11.475
	c-5.547,20.187-14.775,35.166-27.676,44.961c-12.91,9.795-29.287,14.697-49.121,14.697c-24.561,0-44.736-8.389-60.537-25.166
	c-15.811-16.768-23.711-39.697-23.711-68.789c0-30.771,7.939-54.678,23.838-71.699c15.889-17.031,36.777-25.537,62.676-25.537
	c22.617,0,40.986,6.68,55.117,20.049c8.398,7.9,14.707,19.258,18.916,34.053l-36.953,8.828c-2.188-9.59-6.748-17.148-13.682-22.705
	c-6.943-5.547-15.371-8.32-25.293-8.32c-13.701,0-24.824,4.922-33.359,14.756c-8.535,9.833-12.793,25.771-12.793,47.803
	c0,23.368,4.199,40.02,12.607,49.94c8.408,9.921,19.336,14.883,32.793,14.883c9.922,0,18.457-3.153,25.596-9.463
	C363.691,395.823,368.818,385.901,371.934,372.366L371.934,372.366z M437.256,306.409h32.666v18.281
	c11.689-14.199,25.605-21.31,41.748-21.31c8.574,0,16.016,1.768,22.324,5.293c6.299,3.535,11.475,8.877,15.508,16.017
	c5.889-7.14,12.236-12.48,19.043-16.017c6.807-3.525,14.082-5.293,21.816-5.293c9.844,0,18.164,2.002,24.971,5.986
	c6.815,3.994,11.904,9.863,15.264,17.598c2.441,5.724,3.662,14.971,3.662,27.744v85.635h-35.439v-76.553
	c0-13.281-1.221-21.855-3.661-25.732c-3.281-5.039-8.32-7.559-15.138-7.559c-4.961,0-9.629,1.514-13.994,4.531
	c-4.375,3.026-7.528,7.471-9.463,13.311c-1.934,5.84-2.899,15.068-2.899,27.687v64.315h-35.439v-73.397
	c0-13.037-0.625-21.445-1.885-25.226c-1.271-3.778-3.224-6.602-5.869-8.446c-2.646-1.855-6.24-2.773-10.781-2.773
	c-5.469,0-10.391,1.465-14.756,4.414c-4.375,2.939-7.51,7.188-9.395,12.734c-1.896,5.547-2.843,14.756-2.843,27.616v65.078h-35.438
	L437.256,306.409L437.256,306.409z M859.307,99.553v7.588h-42.5c-0.067-1.904,0.244-3.73,0.918-5.479
	c1.084-2.9,2.813-5.752,5.195-8.555c2.383-2.813,5.83-6.055,10.332-9.746c6.992-5.732,11.709-10.264,14.17-13.613
	c2.451-3.35,3.682-6.514,3.682-9.502c0-3.125-1.112-5.771-3.35-7.92c-2.246-2.148-5.156-3.223-8.76-3.223
	c-3.799,0-6.836,1.143-9.121,3.428c-2.275,2.275-3.438,5.439-3.467,9.473l-8.115-0.84c0.557-6.045,2.646-10.664,6.279-13.838
	c3.623-3.174,8.485-4.756,14.6-4.756c6.172,0,11.055,1.709,14.658,5.127c3.594,3.428,5.391,7.666,5.391,12.725
	c0,2.578-0.526,5.107-1.571,7.588c-1.056,2.49-2.804,5.107-5.244,7.852c-2.441,2.754-6.504,6.523-12.179,11.318
	c-4.735,3.975-7.772,6.68-9.12,8.096c-1.349,1.416-2.462,2.842-3.341,4.277H859.307z M829.961,162.112
	c-3.271-1.201-5.703-2.91-7.285-5.137c-1.572-2.217-2.362-4.883-2.362-7.979c0-4.678,1.68-8.613,5.038-11.807
	c3.369-3.184,7.843-4.775,13.429-4.775c5.614,0,10.137,1.631,13.555,4.893c3.418,3.262,5.137,7.227,5.137,11.904
	c0,2.988-0.791,5.586-2.354,7.793c-1.563,2.207-3.937,3.906-7.129,5.107c3.955,1.289,6.953,3.359,9.014,6.23
	c2.07,2.861,3.096,6.289,3.096,10.264c0,5.498-1.942,10.117-5.83,13.857c-3.896,3.75-9.014,5.615-15.36,5.615
	c-6.338,0-11.455-1.875-15.353-5.635c-3.887-3.76-5.83-8.447-5.83-14.063c0-4.18,1.056-7.676,3.185-10.498
	C823.027,165.061,826.045,163.137,829.961,162.112z M825.84,178.43c0,2.256,0.527,4.434,1.603,6.533
	c1.063,2.109,2.655,3.74,4.756,4.893c2.081,1.146,4.421,1.741,6.797,1.729c3.779,0,6.895-1.211,9.346-3.633
	c2.461-2.432,3.691-5.518,3.691-9.258c0-3.799-1.271-6.943-3.799-9.434c-2.529-2.479-5.693-3.729-9.503-3.729
	c-3.711,0-6.786,1.229-9.229,3.691C827.061,171.672,825.84,174.749,825.84,178.43L825.84,178.43z M828.379,148.733
	c0,3.037,0.986,5.527,2.939,7.451c1.963,1.934,4.502,2.9,7.637,2.9c3.037,0,5.537-0.957,7.48-2.871
	c1.942-1.914,2.92-4.268,2.92-7.041c0-2.9-1.007-5.332-3.009-7.305c-2.002-1.973-4.502-2.959-7.479-2.959
	c-3.019,0-5.519,0.957-7.5,2.891C829.375,143.733,828.379,146.038,828.379,148.733L828.379,148.733z M797.578,286.819h-7.891
	v-50.313c-1.904,1.807-4.396,3.623-7.48,5.439c-3.086,1.807-5.859,3.174-8.311,4.072v-7.627c4.414-2.08,8.271-4.59,11.582-7.549
	c3.301-2.949,5.645-5.82,7.012-8.594h5.088V286.819L797.578,286.819z M829.951,251.946c-3.271-1.201-5.703-2.91-7.285-5.137
	c-1.572-2.217-2.363-4.883-2.363-7.979c0-4.678,1.681-8.613,5.039-11.807c3.369-3.184,7.842-4.775,13.428-4.775
	c5.615,0,10.138,1.631,13.556,4.893c3.418,3.262,5.137,7.227,5.137,11.904c0,2.988-0.791,5.586-2.354,7.793
	c-1.563,2.207-3.937,3.906-7.13,5.107c3.955,1.289,6.953,3.359,9.015,6.23c2.069,2.861,3.096,6.289,3.096,10.264
	c0,5.498-1.942,10.117-5.83,13.857c-3.896,3.75-9.014,5.615-15.36,5.615c-6.339,0-11.455-1.875-15.353-5.635
	c-3.887-3.76-5.83-8.447-5.83-14.063c0-4.18,1.055-7.676,3.185-10.498C823.018,254.895,826.035,252.971,829.951,251.946z
	 M825.83,268.264c0,2.256,0.527,4.434,1.602,6.533c1.064,2.109,2.656,3.74,4.756,4.893c2.082,1.146,4.422,1.741,6.798,1.729
	c3.778,0,6.895-1.211,9.346-3.633c2.461-2.432,3.69-5.518,3.69-9.258c0-3.799-1.27-6.943-3.799-9.434
	c-2.528-2.48-5.692-3.729-9.502-3.729c-3.711,0-6.787,1.229-9.229,3.691C827.051,261.506,825.83,264.583,825.83,268.264
	L825.83,268.264z M828.369,238.567c0,3.037,0.986,5.527,2.938,7.451c1.964,1.934,4.503,2.9,7.638,2.9
	c3.037,0,5.537-0.957,7.479-2.871c1.943-1.914,2.92-4.268,2.92-7.041c0-2.9-1.006-5.332-3.008-7.305
	c-2.002-1.973-4.502-2.959-7.479-2.959c-3.019,0-5.519,0.957-7.5,2.891C829.365,233.567,828.369,235.872,828.369,238.567
	L828.369,238.567z M767.881,359.69l7.9-1.056c0.908,4.474,2.451,7.695,4.629,9.668c2.178,1.974,4.834,2.959,7.959,2.959
	c3.711,0,6.854-1.278,9.414-3.856c2.559-2.568,3.838-5.763,3.838-9.562c0-3.623-1.191-6.621-3.555-8.975
	c-2.373-2.354-5.381-3.525-9.043-3.525c-1.484,0-3.341,0.293-5.566,0.879l0.879-6.934c0.527,0.059,0.947,0.088,1.271,0.088
	c3.358,0,6.387-0.879,9.082-2.637c2.686-1.748,4.032-4.453,4.032-8.115c0-2.891-0.977-5.293-2.938-7.188
	c-1.953-1.904-4.492-2.853-7.588-2.853c-3.066,0-5.625,0.957-7.677,2.892c-2.051,1.934-3.358,4.823-3.944,8.69l-7.9-1.406
	c0.967-5.293,3.164-9.395,6.582-12.305s7.676-4.365,12.764-4.365c3.507,0,6.738,0.752,9.697,2.256
	c2.949,1.505,5.215,3.564,6.777,6.162c1.563,2.607,2.344,5.371,2.344,8.291c0,2.783-0.742,5.313-2.236,7.588
	c-1.494,2.285-3.7,4.103-6.621,5.439c3.8,0.879,6.759,2.705,8.857,5.469c2.109,2.765,3.164,6.222,3.164,10.371
	c0,5.615-2.051,10.371-6.144,14.277c-4.102,3.906-9.276,5.858-15.526,5.858c-5.646,0-10.332-1.68-14.063-5.049
	C770.537,369.397,768.408,365.042,767.881,359.69L767.881,359.69z M859.297,369.075v7.588h-42.5
	c-0.068-1.904,0.244-3.73,0.918-5.479c1.084-2.899,2.813-5.752,5.195-8.555c2.383-2.813,5.83-6.055,10.332-9.746
	c6.992-5.731,11.709-10.264,14.17-13.613c2.451-3.35,3.682-6.514,3.682-9.502c0-3.125-1.112-5.771-3.35-7.92
	c-2.246-2.147-5.156-3.223-8.76-3.223c-3.8,0-6.836,1.143-9.121,3.428c-2.275,2.275-3.438,5.439-3.467,9.474l-8.115-0.841
	c0.557-6.045,2.646-10.663,6.279-13.838c3.622-3.174,8.485-4.756,14.6-4.756c6.172,0,11.055,1.709,14.658,5.127
	c3.594,3.429,5.391,7.666,5.391,12.726c0,2.578-0.527,5.106-1.572,7.588c-1.055,2.49-2.803,5.106-5.244,7.852
	c-2.44,2.754-6.504,6.523-12.178,11.318c-4.736,3.975-7.772,6.68-9.121,8.096c-1.348,1.416-2.461,2.842-3.34,4.277H859.297z
	 M809.336,458.904v7.598h-42.5c-0.068-1.914,0.244-3.729,0.918-5.488c1.084-2.891,2.813-5.741,5.195-8.555
	c2.383-2.808,5.83-6.05,10.332-9.742c6.992-5.731,11.709-10.264,14.17-13.613c2.451-3.35,3.682-6.514,3.682-9.502
	c0-3.125-1.113-5.771-3.35-7.92c-2.246-2.147-5.156-3.223-8.76-3.223c-3.8,0-6.836,1.143-9.121,3.428
	c-2.275,2.275-3.438,5.439-3.467,9.474l-8.115-0.841c0.557-6.045,2.646-10.663,6.278-13.838c3.623-3.174,8.486-4.756,14.601-4.756
	c6.172,0,11.055,1.709,14.658,5.127c3.594,3.429,5.391,7.666,5.391,12.726c0,2.578-0.527,5.106-1.572,7.588
	c-1.055,2.49-2.803,5.106-5.244,7.852c-2.44,2.754-6.504,6.523-12.178,11.318c-4.736,3.974-7.772,6.685-9.121,8.091
	c-1.348,1.426-2.461,2.852-3.34,4.277H809.336L809.336,458.904z M817.803,449.651l8.291-0.703c0.615,4.039,2.041,7.065,4.277,9.097
	s4.932,3.047,8.096,3.047c3.799,0,7.012-1.426,9.648-4.297c2.627-2.852,3.944-6.666,3.944-11.402c0-4.502-1.27-8.057-3.799-10.653
	c-2.528-2.607-5.84-3.906-9.932-3.906c-2.539,0-4.844,0.576-6.885,1.729c-2.052,1.161-3.662,2.655-4.824,4.502l-7.412-0.968
	l6.221-33.026h31.982v7.539h-25.664l-3.467,17.285c3.867-2.687,7.91-4.033,12.158-4.033c5.614,0,10.352,1.942,14.209,5.83
	c3.856,3.896,5.791,8.896,5.791,15c0,5.819-1.699,10.854-5.089,15.093c-4.12,5.215-9.756,7.813-16.885,7.813
	c-5.85,0-10.625-1.641-14.326-4.922C820.439,459.412,818.33,455.057,817.803,449.651L817.803,449.651z M818.994,541.463l7.588-0.703
	c0.645,3.574,1.875,6.172,3.691,7.773c1.807,1.602,4.131,2.401,6.973,2.401c2.422,0,4.551-0.547,6.377-1.659
	c1.826-1.113,3.33-2.599,4.502-4.453c1.172-1.855,2.148-4.355,2.939-7.521s1.182-6.367,1.182-9.647c0-0.353-0.021-0.879-0.039-1.582
	c-1.582,2.52-3.74,4.551-6.475,6.112c-2.735,1.563-5.693,2.345-8.888,2.345c-5.321,0-9.823-1.914-13.506-5.781
	c-3.69-3.867-5.526-8.945-5.526-15.273c0-6.504,1.924-11.758,5.771-15.741c3.838-3.966,8.662-5.957,14.453-5.957
	c4.18,0,7.998,1.112,11.465,3.379c3.467,2.246,6.104,5.448,7.9,9.629c1.797,4.16,2.694,10.194,2.694,18.086
	c0,8.223-0.889,14.766-2.676,19.629s-4.434,8.574-7.959,11.113c-3.524,2.559-7.656,3.828-12.393,3.828
	c-5.029,0-9.142-1.406-12.324-4.199C821.553,550.447,819.639,546.521,818.994,541.463L818.994,541.463z M851.328,513.084
	c0-4.531-1.211-8.125-3.623-10.781c-2.412-2.676-5.313-4.004-8.711-4.004c-3.506,0-6.563,1.445-9.16,4.297
	c-2.607,2.871-3.906,6.582-3.906,11.152c0,4.102,1.23,7.422,3.701,9.979c2.471,2.559,5.527,3.828,9.15,3.828
	c3.651,0,6.66-1.27,9.014-3.828C850.146,521.17,851.328,517.615,851.328,513.084z M859.307,638.592v7.578h-42.5
	c-0.067-1.895,0.244-3.729,0.918-5.469c1.084-2.91,2.813-5.762,5.195-8.555c2.383-2.813,5.83-6.056,10.332-9.746
	c6.992-5.742,11.709-10.273,14.17-13.613c2.451-3.359,3.682-6.523,3.682-9.512c0-3.125-1.112-5.763-3.35-7.91
	c-2.246-2.148-5.156-3.224-8.76-3.224c-3.799,0-6.836,1.134-9.121,3.419c-2.275,2.284-3.438,5.448-3.467,9.473l-8.115-0.84
	c0.557-6.035,2.646-10.664,6.279-13.828c3.623-3.185,8.485-4.767,14.6-4.767c6.172,0,11.055,1.72,14.658,5.138
	c3.594,3.418,5.391,7.656,5.391,12.715c0,2.578-0.526,5.117-1.572,7.598c-1.055,2.48-2.803,5.099-5.243,7.853
	c-2.441,2.754-6.505,6.522-12.179,11.309c-4.735,3.984-7.772,6.681-9.121,8.105c-1.348,1.405-2.461,2.832-3.34,4.276H859.307
	L859.307,638.592z"/>
</svg>
