<?xml version="1.0" encoding="utf-8"?>
<!-- Generator: Adobe Illustrator 16.0.3, SVG Export Plug-In . SVG Version: 6.00 Build 0)  -->
<!DOCTYPE svg PUBLIC "-//W3C//DTD SVG 1.1//EN" "http://www.w3.org/Graphics/SVG/1.1/DTD/svg11.dtd">
<svg version="1.1" id="Layer_1" xmlns="http://www.w3.org/2000/svg" xmlns:xlink="http://www.w3.org/1999/xlink" x="0px" y="0px"
	 width="900px" height="900px" viewBox="0 0 900 900" enable-background="new 0 0 900 900" xml:space="preserve">
<path d="M41.812,127.861l13.301-1.23c1.123,6.26,3.271,10.791,6.455,13.613c3.174,2.813,7.256,4.229,12.227,4.229
	c4.248,0,7.979-0.977,11.182-2.92c3.203-1.953,5.83-4.551,7.881-7.813c2.051-3.252,3.77-7.646,5.156-13.184
	c1.378-5.533,2.073-11.213,2.07-16.914c0-0.615-0.029-1.533-0.078-2.764c-2.764,4.404-6.543,7.979-11.338,10.723
	s-9.98,4.111-15.566,4.111c-9.326,0-17.227-3.379-23.682-10.146s-9.688-15.684-9.688-26.748c0-11.436,3.369-20.635,10.107-27.607
	c6.738-6.963,15.186-10.449,25.332-10.449c7.334,0,14.033,1.973,20.107,5.918c6.074,3.945,10.684,9.57,13.838,16.875
	c3.154,7.305,4.727,17.871,4.727,31.709c0,14.404-1.563,25.869-4.688,34.404s-7.773,15.029-13.955,19.492
	c-6.172,4.463-13.418,6.689-21.719,6.689c-8.818,0-16.016-2.451-21.602-7.344S42.935,136.729,41.812,127.861L41.812,127.861z
	 M98.472,78.125c0-7.949-2.119-14.248-6.348-18.916s-9.316-6.992-15.254-6.992c-6.152,0-11.514,2.51-16.074,7.529
	c-4.561,5.029-6.836,11.533-6.836,19.531c0,7.178,2.158,13.008,6.494,17.49c4.326,4.482,9.668,6.729,16.025,6.729
	c6.406,0,11.68-2.246,15.801-6.729C96.401,92.284,98.472,86.064,98.472,78.125L98.472,78.125z M128.228,55.977V42.676h72.959v10.771
	c-7.178,7.637-14.287,17.783-21.338,30.438c-7.051,12.656-12.49,25.684-16.338,39.053c-2.764,9.434-4.531,19.766-5.303,30.986
	h-14.219c0.146-8.867,1.895-19.58,5.225-32.139s8.105-24.658,14.336-36.328c6.23-11.65,12.852-21.484,19.873-29.482L128.228,55.977
	L128.228,55.977z M226.187,652.832V578.73h27.803c5.664,0,10.205,0.752,13.623,2.256c3.418,1.494,6.094,3.809,8.037,6.924
	c1.934,3.115,2.9,6.377,2.9,9.774c0,3.175-0.85,6.152-2.568,8.945c-1.719,2.803-4.316,5.06-7.793,6.777
	c4.482,1.309,7.93,3.555,10.342,6.719c2.412,3.174,3.613,6.914,3.613,11.221c0,3.478-0.732,6.699-2.197,9.679
	c-1.465,2.987-3.281,5.282-5.439,6.903c-2.148,1.621-4.854,2.842-8.105,3.662c-3.252,0.83-7.236,1.24-11.953,1.24L226.187,652.832
	L226.187,652.832z M235.991,609.873h16.025c4.346,0,7.461-0.293,9.355-0.859c2.49-0.742,4.365-1.973,5.635-3.69
	c1.26-1.72,1.895-3.877,1.895-6.476c0-2.461-0.586-4.619-1.768-6.494c-1.182-1.864-2.871-3.145-5.059-3.838
	c-2.188-0.692-5.947-1.034-11.27-1.034H235.99L235.991,609.873L235.991,609.873z M235.991,644.092h18.457
	c3.164,0,5.391-0.117,6.67-0.361c2.256-0.399,4.141-1.073,5.664-2.021c1.514-0.938,2.754-2.314,3.74-4.121
	c0.977-1.797,1.465-3.877,1.465-6.24c0-2.764-0.713-5.155-2.129-7.196s-3.379-3.478-5.889-4.297c-2.51-0.83-6.123-1.24-10.84-1.24
	H235.99L235.991,644.092L235.991,644.092z M331.226,635.547l9.395,1.162c-1.484,5.488-4.229,9.756-8.232,12.783
	c-4.014,3.037-9.141,4.551-15.371,4.551c-7.852,0-14.072-2.412-18.672-7.256c-4.6-4.834-6.904-11.611-6.904-20.342
	c0-9.023,2.324-16.035,6.973-21.025c4.658-4.99,10.684-7.479,18.096-7.479c7.178,0,13.047,2.44,17.598,7.334
	c4.541,4.883,6.816,11.758,6.816,20.614c0,0.547-0.01,1.349-0.049,2.433h-40.029c0.332,5.897,2.002,10.41,5,13.545
	s6.738,4.697,11.221,4.697c3.34,0,6.182-0.869,8.545-2.628C327.974,642.188,329.839,639.385,331.226,635.547L331.226,635.547z
	 M301.353,620.84h29.971c-0.41-4.521-1.553-7.899-3.438-10.166c-2.9-3.496-6.66-5.254-11.27-5.254c-4.18,0-7.695,1.396-10.537,4.199
	C303.228,612.412,301.655,616.152,301.353,620.84L301.353,620.84z M351.938,652.832V599.15h8.193v8.145
	c2.09-3.809,4.014-6.318,5.781-7.539c1.777-1.211,3.721-1.815,5.84-1.815c3.066,0,6.182,0.977,9.355,2.93l-3.135,8.447
	c-2.227-1.318-4.453-1.974-6.67-1.974c-1.992,0-3.779,0.597-5.361,1.797c-1.582,1.191-2.715,2.853-3.389,4.972
	c-1.006,3.242-1.514,6.776-1.514,10.614v28.105H351.938L351.938,652.832z M386.567,652.832V578.73h9.102v42.256l21.523-21.836
	h11.776l-20.518,19.922l22.598,33.76h-11.221l-17.744-27.441l-6.416,6.162v21.279H386.567L386.567,652.832z M475.024,635.547
	l9.395,1.162c-1.484,5.488-4.229,9.756-8.231,12.783c-4.015,3.037-9.142,4.551-15.371,4.551c-7.853,0-14.072-2.412-18.672-7.256
	c-4.601-4.834-6.904-11.611-6.904-20.342c0-9.023,2.324-16.035,6.973-21.025c4.658-4.99,10.684-7.479,18.096-7.479
	c7.179,0,13.048,2.44,17.599,7.334c4.541,4.883,6.815,11.758,6.815,20.614c0,0.548-0.01,1.349-0.049,2.433h-40.029
	c0.332,5.897,2.003,10.41,5,13.545c2.998,3.135,6.738,4.697,11.222,4.697c3.34,0,6.182-0.869,8.545-2.627
	C471.772,642.188,473.638,639.385,475.024,635.547L475.024,635.547z M445.151,620.84h29.971c-0.41-4.521-1.553-7.899-3.438-10.166
	c-2.899-3.496-6.659-5.254-11.27-5.254c-4.18,0-7.695,1.396-10.537,4.199C447.026,612.412,445.454,616.152,445.151,620.84
	L445.151,620.84z M495.64,652.832V578.73h9.103v74.102H495.64L495.64,652.832z M518.892,589.199V578.73h9.103v10.469H518.892
	L518.892,589.199z M518.892,652.832V599.15h9.103v53.682H518.892L518.892,652.832z M577.017,652.832v-7.881
	c-4.18,6.064-9.854,9.092-17.03,9.092c-3.174,0-6.123-0.604-8.877-1.815c-2.744-1.212-4.785-2.734-6.113-4.58
	c-1.328-1.836-2.266-4.082-2.803-6.738c-0.371-1.787-0.558-4.619-0.558-8.496V599.15h9.103v29.774c0,4.746,0.186,7.949,0.557,9.601
	c0.566,2.393,1.777,4.276,3.633,5.635c1.855,1.367,4.15,2.051,6.875,2.051c2.734,0,5.293-0.703,7.687-2.1
	c2.393-1.397,4.082-3.301,5.078-5.713c0.995-2.402,1.493-5.898,1.493-10.488v-28.76h9.093v53.682H577.017z M599.419,652.832V599.15
	h8.135v7.528c1.689-2.627,3.927-4.735,6.72-6.338c2.803-1.602,5.985-2.401,9.561-2.401c3.975,0,7.236,0.83,9.775,2.479
	c2.549,1.65,4.336,3.955,5.381,6.924c4.248-6.27,9.774-9.403,16.582-9.403c5.322,0,9.414,1.475,12.285,4.424
	c2.86,2.949,4.297,7.49,4.297,13.623v36.846h-9.054v-33.818c0-3.633-0.293-6.26-0.879-7.852c-0.596-1.602-1.659-2.891-3.213-3.867
	c-1.553-0.976-3.369-1.465-5.459-1.465c-3.77,0-6.903,1.25-9.403,3.76c-2.49,2.51-3.74,6.533-3.74,12.062v31.182h-9.092V617.96
	c0-4.043-0.742-7.08-2.228-9.102c-1.485-2.022-3.906-3.027-7.274-3.027c-2.568,0-4.933,0.674-7.109,2.021
	c-2.168,1.349-3.74,3.312-4.728,5.908c-0.977,2.599-1.465,6.338-1.465,11.222v27.852L599.419,652.832L599.419,652.832z
	 M62.681,859.238V764.56h20.068v7.529H71.782v79.609h10.967v7.539L62.681,859.238L62.681,859.238z M136.528,829.922v8.74H87.554
	c-0.076-2.156,0.286-4.306,1.064-6.318c1.24-3.34,3.242-6.621,5.986-9.854c2.744-3.242,6.709-6.982,11.904-11.222
	c8.047-6.61,13.496-11.836,16.328-15.692c2.822-3.857,4.238-7.51,4.238-10.947c0-3.604-1.289-6.65-3.867-9.121
	c-2.578-2.479-5.938-3.721-10.078-3.721c-4.385,0-7.891,1.318-10.518,3.945s-3.955,6.27-3.994,10.918l-9.346-0.957
	c0.635-6.974,3.047-12.295,7.227-15.947c4.18-3.662,9.785-5.488,16.836-5.488c7.109,0,12.734,1.974,16.875,5.918
	c4.15,3.945,6.221,8.828,6.221,14.658c0,2.959-0.605,5.879-1.816,8.74c-1.221,2.871-3.232,5.879-6.045,9.053
	c-2.813,3.164-7.49,7.51-14.023,13.037c-5.459,4.58-8.965,7.695-10.518,9.326c-1.553,1.631-2.832,3.281-3.838,4.932H136.528
	L136.528,829.922z M175.444,838.662v-17.744h-32.139v-8.34l33.809-48.019h7.432v48.019h10.01v8.34h-10.01v17.744H175.444
	L175.444,838.662z M175.444,812.578V779.17l-23.193,33.408H175.444z M204.458,774.268v-8.739h47.969v7.069
	c-4.717,5.021-9.395,11.699-14.023,20.021c-4.639,8.32-8.213,16.885-10.742,25.674c-1.826,6.201-2.988,12.988-3.486,20.371h-9.355
	c0.098-5.83,1.25-12.871,3.438-21.123c2.188-8.262,5.332-16.221,9.424-23.887c4.102-7.666,8.457-14.131,13.066-19.386H204.458z
	 M279.175,859.238h-20.068v-7.539h10.967V772.09h-10.967v-7.529h20.068V859.238z M296.938,255.449h73.906
	c14.629,0,25.537,0.615,32.725,1.836c7.188,1.221,13.623,3.76,19.297,7.627s10.41,9.014,14.188,15.449
	c3.779,6.435,5.674,13.643,5.674,21.631c0,8.662-2.334,16.602-7.002,23.838c-4.657,7.227-10.985,12.656-18.975,16.27
	c11.26,3.271,19.922,8.867,25.977,16.769c6.056,7.91,9.082,17.197,9.082,27.871c0,8.408-1.952,16.592-5.858,24.531
	c-3.916,7.948-9.258,14.297-16.025,19.043c-6.768,4.756-15.106,7.676-25.028,8.77c-6.222,0.674-21.23,1.094-45.029,1.26h-62.93
	L296.938,255.449L296.938,255.449z M334.272,286.23v42.754h24.463c14.551,0,23.584-0.215,27.119-0.636
	c6.387-0.752,11.416-2.959,15.068-6.62c3.662-3.662,5.488-8.468,5.488-14.443c0-5.713-1.582-10.361-4.728-13.936
	c-3.153-3.574-7.842-5.732-14.063-6.494c-3.701-0.42-14.336-0.625-31.914-0.625H334.272L334.272,286.23z M334.272,359.756v49.435
	h34.551c13.457,0,21.992-0.382,25.605-1.134c5.546-1.006,10.068-3.467,13.555-7.383c3.485-3.906,5.233-9.141,5.233-15.692
	c0-5.558-1.348-10.265-4.033-14.132c-2.694-3.866-6.582-6.68-11.67-8.446c-5.088-1.768-16.123-2.646-33.104-2.646L334.272,359.756
	L334.272,359.756z M481.821,440.342V255.449h35.438v98.125l41.494-47.168h43.633l-45.771,48.936l49.053,85h-38.213l-33.672-60.156
	l-16.523,17.275v42.881H481.821L481.821,440.342z M859.479,99.551v7.588h-42.5c-0.068-1.904,0.243-3.73,0.918-5.479
	c1.084-2.9,2.813-5.752,5.194-8.555c2.383-2.813,5.83-6.055,10.332-9.746c6.992-5.732,11.709-10.264,14.17-13.613
	c2.451-3.35,3.683-6.514,3.683-9.502c0-3.125-1.113-5.771-3.351-7.92c-2.246-2.148-5.155-3.223-8.76-3.223
	c-3.799,0-6.836,1.143-9.121,3.428c-2.274,2.275-3.438,5.439-3.467,9.473l-8.115-0.84c0.558-6.045,2.646-10.664,6.279-13.838
	c3.623-3.174,8.486-4.756,14.6-4.756c6.172,0,11.056,1.709,14.658,5.127c3.594,3.428,5.391,7.666,5.391,12.725
	c0,2.578-0.526,5.107-1.571,7.588c-1.056,2.49-2.804,5.107-5.244,7.852c-2.441,2.754-6.504,6.523-12.178,11.318
	c-4.736,3.975-7.773,6.68-9.121,8.096c-1.349,1.416-2.461,2.842-3.34,4.277H859.479z M830.132,162.109
	c-3.271-1.201-5.703-2.91-7.285-5.137c-1.571-2.217-2.362-4.883-2.362-7.979c0-4.678,1.68-8.613,5.039-11.807
	c3.369-3.184,7.842-4.775,13.428-4.775c5.615,0,10.137,1.631,13.555,4.893c3.418,3.262,5.137,7.227,5.137,11.904
	c0,2.988-0.791,5.586-2.354,7.793s-3.936,3.906-7.129,5.107c3.955,1.289,6.953,3.359,9.014,6.23
	c2.07,2.861,3.096,6.289,3.096,10.264c0,5.498-1.942,10.117-5.829,13.857c-3.896,3.75-9.015,5.615-15.361,5.615
	c-6.338,0-11.455-1.875-15.353-5.635c-3.887-3.76-5.83-8.447-5.83-14.063c0-4.18,1.056-7.676,3.185-10.498
	C823.198,165.059,826.216,163.135,830.132,162.109z M826.011,178.428c0,2.256,0.527,4.434,1.603,6.533
	c1.063,2.109,2.656,3.74,4.756,4.893c2.081,1.146,4.421,1.741,6.797,1.729c3.779,0,6.895-1.211,9.346-3.633
	c2.461-2.432,3.691-5.518,3.691-9.258c0-3.799-1.271-6.943-3.799-9.434c-2.529-2.48-5.693-3.73-9.502-3.73
	c-3.711,0-6.787,1.23-9.229,3.691C827.23,171.67,826.011,174.746,826.011,178.428L826.011,178.428z M828.55,148.73
	c0,3.037,0.986,5.527,2.939,7.451c1.963,1.934,4.502,2.9,7.637,2.9c3.037,0,5.537-0.957,7.48-2.871
	c1.942-1.914,2.92-4.268,2.92-7.041c0-2.9-1.006-5.332-3.009-7.305c-2.002-1.973-4.502-2.959-7.479-2.959
	c-3.018,0-5.518,0.957-7.5,2.891C829.546,143.73,828.55,146.035,828.55,148.73L828.55,148.73z M797.749,286.816h-7.891v-50.313
	c-1.904,1.807-4.396,3.623-7.48,5.439c-3.086,1.807-5.858,3.174-8.311,4.072v-7.627c4.414-2.08,8.271-4.59,11.582-7.549
	c3.301-2.949,5.645-5.82,7.012-8.594h5.088V286.816L797.749,286.816z M830.122,251.943c-3.271-1.201-5.703-2.91-7.285-5.137
	c-1.572-2.217-2.363-4.883-2.363-7.979c0-4.678,1.681-8.613,5.039-11.807c3.369-3.184,7.843-4.775,13.429-4.775
	c5.614,0,10.137,1.631,13.555,4.893c3.418,3.262,5.137,7.227,5.137,11.904c0,2.988-0.791,5.586-2.354,7.793
	c-1.563,2.207-3.937,3.906-7.129,5.107c3.955,1.289,6.953,3.359,9.014,6.23c2.07,2.861,3.096,6.289,3.096,10.264
	c0,5.498-1.942,10.117-5.83,13.857c-3.896,3.75-9.014,5.615-15.36,5.615c-6.339,0-11.455-1.875-15.353-5.635
	c-3.887-3.76-5.83-8.447-5.83-14.063c0-4.18,1.056-7.676,3.185-10.498C823.188,254.893,826.206,252.969,830.122,251.943
	L830.122,251.943z M826.001,268.262c0,2.256,0.527,4.434,1.603,6.533c1.063,2.109,2.655,3.74,4.756,4.893
	c2.081,1.146,4.421,1.741,6.797,1.729c3.778,0,6.895-1.211,9.346-3.633c2.461-2.432,3.691-5.518,3.691-9.258
	c0-3.799-1.271-6.943-3.8-9.434c-2.528-2.48-5.692-3.729-9.502-3.729c-3.711,0-6.786,1.229-9.229,3.691
	C827.222,261.504,826.001,264.58,826.001,268.262L826.001,268.262z M828.54,238.564c0,3.037,0.986,5.527,2.939,7.451
	c1.963,1.934,4.502,2.9,7.637,2.9c3.037,0,5.537-0.957,7.479-2.871c1.943-1.914,2.92-4.268,2.92-7.041
	c0-2.9-1.006-5.332-3.008-7.305c-2.002-1.973-4.502-2.959-7.479-2.959c-3.019,0-5.519,0.957-7.5,2.891
	C829.536,233.564,828.54,235.869,828.54,238.564L828.54,238.564z M768.052,359.688l7.9-1.056c0.908,4.474,2.451,7.695,4.629,9.668
	c2.178,1.974,4.834,2.959,7.959,2.959c3.711,0,6.855-1.278,9.414-3.856c2.559-2.568,3.838-5.763,3.838-9.562
	c0-3.623-1.19-6.621-3.555-8.975c-2.373-2.354-5.381-3.525-9.043-3.525c-1.484,0-3.34,0.293-5.566,0.879l0.879-6.934
	c0.527,0.059,0.947,0.088,1.271,0.088c3.358,0,6.387-0.879,9.082-2.637c2.686-1.748,4.033-4.453,4.033-8.115
	c0-2.891-0.978-5.293-2.939-7.188c-1.953-1.904-4.492-2.853-7.588-2.853c-3.066,0-5.625,0.957-7.676,2.891
	c-2.052,1.935-3.359,4.824-3.945,8.691l-7.9-1.406c0.967-5.293,3.164-9.395,6.582-12.305s7.676-4.365,12.765-4.365
	c3.506,0,6.737,0.752,9.696,2.256c2.949,1.505,5.215,3.564,6.777,6.162c1.563,2.607,2.344,5.371,2.344,8.291
	c0,2.783-0.742,5.313-2.236,7.588c-1.493,2.285-3.7,4.103-6.62,5.439c3.799,0.879,6.758,2.705,8.856,5.469
	c2.109,2.765,3.164,6.221,3.164,10.371c0,5.615-2.051,10.371-6.143,14.277c-4.103,3.905-9.277,5.858-15.527,5.858
	c-5.645,0-10.332-1.68-14.063-5.049C770.708,369.396,768.579,365.039,768.052,359.688L768.052,359.688z M859.468,369.072v7.588
	h-42.5c-0.067-1.904,0.244-3.73,0.918-5.479c1.084-2.899,2.813-5.752,5.195-8.555c2.383-2.813,5.83-6.055,10.332-9.746
	c6.992-5.731,11.709-10.264,14.17-13.613c2.451-3.35,3.682-6.514,3.682-9.502c0-3.125-1.112-5.771-3.35-7.92
	c-2.246-2.147-5.156-3.223-8.76-3.223c-3.799,0-6.836,1.143-9.121,3.428c-2.275,2.275-3.438,5.439-3.467,9.474l-8.115-0.841
	c0.557-6.045,2.646-10.664,6.279-13.838c3.623-3.174,8.485-4.756,14.6-4.756c6.172,0,11.055,1.709,14.658,5.127
	c3.594,3.428,5.391,7.666,5.391,12.726c0,2.577-0.526,5.106-1.571,7.588c-1.056,2.489-2.804,5.106-5.244,7.852
	c-2.441,2.754-6.504,6.523-12.179,11.318c-4.735,3.975-7.772,6.68-9.12,8.096c-1.349,1.416-2.462,2.842-3.341,4.277H859.468
	L859.468,369.072z M809.507,458.906v7.588h-42.5c-0.067-1.904,0.244-3.73,0.918-5.479c1.084-2.899,2.813-5.752,5.195-8.555
	c2.383-2.813,5.83-6.055,10.332-9.746c6.992-5.731,11.709-10.264,14.17-13.613c2.451-3.35,3.682-6.514,3.682-9.502
	c0-3.125-1.112-5.771-3.35-7.92c-2.246-2.147-5.156-3.223-8.76-3.223c-3.799,0-6.836,1.143-9.121,3.428
	c-2.275,2.275-3.438,5.439-3.467,9.474l-8.115-0.841c0.557-6.045,2.646-10.664,6.279-13.838c3.623-3.174,8.485-4.756,14.6-4.756
	c6.172,0,11.055,1.709,14.658,5.127c3.594,3.428,5.391,7.666,5.391,12.726c0,2.577-0.526,5.106-1.572,7.588
	c-1.055,2.489-2.803,5.106-5.243,7.852c-2.441,2.754-6.505,6.523-12.179,11.318c-4.735,3.975-7.772,6.68-9.121,8.096
	c-1.348,1.416-2.461,2.842-3.34,4.277H809.507z M818.501,410.605v-7.589h41.631v6.144c-4.102,4.354-8.153,10.146-12.178,17.373
	c-4.024,7.227-7.129,14.647-9.316,22.285c-1.581,5.381-2.588,11.27-3.026,17.676h-8.115c0.088-5.06,1.074-11.172,2.979-18.34
	c1.903-7.158,4.629-14.072,8.184-20.724c3.555-6.65,7.334-12.266,11.338-16.825H818.501L818.501,410.605z M830.132,521.465
	c-3.271-1.201-5.703-2.91-7.285-5.137c-1.571-2.217-2.362-4.883-2.362-7.979c0-4.678,1.68-8.612,5.039-11.807
	c3.369-3.184,7.842-4.775,13.428-4.775c5.615,0,10.137,1.632,13.555,4.894s5.138,7.227,5.138,11.904
	c0,2.987-0.791,5.586-2.354,7.793c-1.563,2.207-3.936,3.905-7.129,5.106c3.955,1.289,6.953,3.359,9.014,6.23
	c2.07,2.86,3.097,6.289,3.097,10.264c0,5.498-1.943,10.117-5.83,13.856c-3.896,3.75-9.015,5.615-15.361,5.615
	c-6.338,0-11.455-1.875-15.353-5.635c-3.887-3.76-5.829-8.447-5.829-14.063c0-4.181,1.055-7.677,3.184-10.498
	C823.198,524.414,826.216,522.49,830.132,521.465L830.132,521.465z M826.011,537.783c0,2.256,0.527,4.434,1.603,6.533
	c1.063,2.108,2.656,3.739,4.756,4.893c2.082,1.146,4.421,1.74,6.797,1.729c3.779,0,6.896-1.212,9.346-3.634
	c2.461-2.432,3.691-5.518,3.691-9.258c0-3.799-1.271-6.942-3.799-9.434c-2.529-2.48-5.693-3.73-9.502-3.73
	c-3.711,0-6.787,1.23-9.229,3.691C827.231,531.025,826.011,534.102,826.011,537.783L826.011,537.783z M828.55,508.086
	c0,3.037,0.986,5.527,2.939,7.451c1.963,1.934,4.502,2.9,7.637,2.9c3.037,0,5.537-0.957,7.48-2.871
	c1.942-1.914,2.92-4.269,2.92-7.041c0-2.9-1.006-5.332-3.008-7.306c-2.003-1.973-4.503-2.959-7.48-2.959
	c-3.018,0-5.518,0.957-7.5,2.892C829.546,503.086,828.55,505.391,828.55,508.086L828.55,508.086z M859.479,638.584v7.588h-42.5
	c-0.068-1.904,0.243-3.729,0.918-5.479c1.084-2.9,2.813-5.752,5.194-8.556c2.384-2.813,5.83-6.055,10.332-9.745
	c6.992-5.732,11.709-10.265,14.17-13.613c2.451-3.351,3.683-6.514,3.683-9.502c0-3.125-1.113-5.771-3.351-7.92
	c-2.246-2.148-5.155-3.224-8.76-3.224c-3.799,0-6.836,1.144-9.121,3.429c-2.274,2.274-3.438,5.438-3.467,9.473l-8.115-0.84
	c0.558-6.045,2.646-10.664,6.279-13.838c3.623-3.175,8.486-4.756,14.6-4.756c6.172,0,11.056,1.709,14.658,5.127
	c3.594,3.428,5.392,7.666,5.392,12.725c0,2.578-0.527,5.107-1.572,7.588c-1.056,2.49-2.803,5.107-5.244,7.852
	c-2.441,2.755-6.504,6.523-12.178,11.318c-4.736,3.975-7.773,6.68-9.121,8.096c-1.349,1.416-2.461,2.843-3.34,4.277H859.479
	L859.479,638.584z"/>
</svg>
