<?xml version="1.0" encoding="utf-8"?>
<!-- Generator: Adobe Illustrator 16.0.3, SVG Export Plug-In . SVG Version: 6.00 Build 0)  -->
<!DOCTYPE svg PUBLIC "-//W3C//DTD SVG 1.1//EN" "http://www.w3.org/Graphics/SVG/1.1/DTD/svg11.dtd">
<svg version="1.1" id="Layer_1" xmlns="http://www.w3.org/2000/svg" xmlns:xlink="http://www.w3.org/1999/xlink" x="0px" y="0px"
	 width="900px" height="900px" viewBox="0 0 900 900" enable-background="new 0 0 900 900" xml:space="preserve">
<path d="M41.812,127.864l13.301-1.23c1.123,6.26,3.271,10.791,6.455,13.613c3.174,2.813,7.256,4.229,12.227,4.229
	c4.248,0,7.979-0.977,11.182-2.92c3.203-1.953,5.83-4.551,7.881-7.813c2.051-3.252,3.77-7.646,5.156-13.184
	c1.378-5.532,2.073-11.213,2.07-16.914c0-0.615-0.029-1.533-0.078-2.764c-2.764,4.404-6.543,7.979-11.338,10.723
	s-9.98,4.111-15.566,4.111c-9.326,0-17.227-3.379-23.682-10.146s-9.688-15.684-9.688-26.748c0-11.436,3.369-20.635,10.107-27.607
	c6.738-6.963,15.186-10.449,25.332-10.449c7.334,0,14.033,1.973,20.107,5.918c6.074,3.945,10.684,9.57,13.838,16.875
	c3.154,7.305,4.727,17.871,4.727,31.709c0,14.404-1.563,25.869-4.688,34.404S101.382,144.7,95.2,149.163
	c-6.172,4.463-13.418,6.689-21.719,6.689c-8.818,0-16.016-2.451-21.602-7.344C46.293,143.615,42.935,136.731,41.812,127.864z
	 M98.472,78.127c0-7.949-2.119-14.248-6.348-18.916s-9.316-6.992-15.254-6.992c-6.152,0-11.514,2.51-16.074,7.529
	c-4.561,5.029-6.836,11.533-6.836,19.531c0,7.178,2.158,13.008,6.494,17.49c4.326,4.482,9.668,6.729,16.025,6.729
	c6.406,0,11.68-2.246,15.801-6.729C96.401,92.286,98.472,86.067,98.472,78.127L98.472,78.127z M148.599,92.805
	c-5.742-2.1-10-5.098-12.764-8.994s-4.15-8.555-4.15-13.994c0-8.193,2.949-15.088,8.838-20.674
	c5.898-5.586,13.74-8.379,23.525-8.379c9.844,0,17.764,2.852,23.76,8.564c5.996,5.723,8.994,12.676,8.994,20.879
	c0,5.225-1.377,9.775-4.111,13.643c-2.744,3.867-6.914,6.855-12.5,8.955c6.924,2.256,12.188,5.898,15.801,10.918
	c3.613,5.029,5.42,11.025,5.42,17.988c0,9.639-3.408,17.734-10.225,24.297s-15.781,9.844-26.904,9.844
	c-11.123,0-20.098-3.291-26.914-9.883c-6.816-6.582-10.225-14.795-10.225-24.639c0-7.324,1.865-13.467,5.576-18.408
	C136.44,97.971,141.733,94.602,148.599,92.805L148.599,92.805z M141.372,121.409c0,3.945,0.938,7.764,2.803,11.455
	c1.875,3.691,4.648,6.543,8.34,8.574c3.691,2.021,7.666,3.037,11.924,3.037c6.611,0,12.07-2.129,16.367-6.387
	c4.307-4.248,6.465-9.658,6.465-16.221c0-6.66-2.217-12.168-6.65-16.523c-4.433-4.354-9.98-6.543-16.65-6.543
	c-6.504,0-11.904,2.158-16.182,6.465S141.372,114.954,141.372,121.409L141.372,121.409z M145.825,69.358
	c0,5.332,1.719,9.688,5.156,13.076c3.428,3.379,7.891,5.068,13.379,5.068c5.332,0,9.697-1.68,13.105-5.039
	c3.408-3.35,5.117-7.461,5.117-12.334c0-5.078-1.758-9.346-5.273-12.803c-3.506-3.457-7.881-5.186-13.105-5.186
	c-5.283,0-9.658,1.689-13.145,5.068C147.573,60.598,145.825,64.641,145.825,69.358L145.825,69.358z M247.817,626.854l9.805,2.48
	c-2.061,8.047-5.752,14.199-11.094,18.418c-5.342,4.238-11.875,6.348-19.59,6.348c-7.988,0-14.482-1.621-19.482-4.883
	c-5.01-3.242-8.818-7.949-11.426-14.121c-2.608-6.172-3.916-12.793-3.916-19.862c0-7.716,1.475-14.453,4.424-20.195
	c2.949-5.742,7.139-10.117,12.588-13.086c5.439-2.988,11.426-4.474,17.969-4.474c7.412,0,13.643,1.875,18.701,5.664
	c5.049,3.771,8.574,9.082,10.557,15.918l-9.648,2.267c-1.719-5.392-4.219-9.316-7.48-11.777c-3.271-2.461-7.383-3.69-12.334-3.69
	c-5.693,0-10.459,1.367-14.277,4.102c-3.828,2.734-6.514,6.387-8.066,10.996c-1.549,4.58-2.334,9.384-2.324,14.219
	c0,6.31,0.918,11.816,2.754,16.504c1.836,4.707,4.697,8.224,8.564,10.547c3.877,2.324,8.076,3.478,12.588,3.478
	c5.498,0,10.146-1.582,13.955-4.746S246.47,633.084,247.817,626.854L247.817,626.854z M303.569,646.209
	c-3.379,2.871-6.621,4.883-9.736,6.074c-3.115,1.172-6.455,1.758-10.029,1.758c-5.898,0-10.43-1.426-13.594-4.316
	c-3.174-2.871-4.756-6.563-4.756-11.034c0-2.638,0.596-5.039,1.797-7.207c1.191-2.168,2.764-3.927,4.697-5.234
	c1.933-1.308,4.121-2.305,6.543-2.988c1.787-0.469,4.482-0.918,8.086-1.366c7.354-0.859,12.754-1.914,16.23-3.125
	c0.029-1.25,0.049-2.031,0.049-2.384c0-3.69-0.859-6.309-2.578-7.832c-2.324-2.051-5.781-3.086-10.361-3.086
	c-4.277,0-7.441,0.763-9.473,2.267c-2.041,1.483-3.555,4.141-4.531,7.948l-8.896-1.211c0.811-3.809,2.148-6.875,3.994-9.219
	c1.855-2.344,4.531-4.141,8.037-5.41c3.506-1.269,7.568-1.895,12.188-1.895c4.58,0,8.301,0.526,11.172,1.621
	c2.861,1.073,4.961,2.422,6.309,4.063c1.348,1.642,2.295,3.691,2.832,6.191c0.303,1.543,0.459,4.354,0.459,8.397v12.129
	c0,8.457,0.195,13.81,0.576,16.035c0.398,2.264,1.178,4.442,2.305,6.445h-9.502C304.438,650.955,303.833,648.748,303.569,646.209
	L303.569,646.209z M302.808,625.896c-3.301,1.348-8.262,2.5-14.863,3.438c-3.74,0.527-6.387,1.152-7.93,1.816
	c-1.553,0.684-2.754,1.659-3.594,2.948c-0.835,1.291-1.273,2.799-1.26,4.336c0,2.423,0.918,4.435,2.754,6.056
	s4.521,2.422,8.057,2.422c3.506,0,6.621-0.762,9.355-2.285c2.725-1.543,4.736-3.633,6.016-6.289c0.977-2.07,1.465-5.098,1.465-9.102
	V625.896L302.808,625.896z M325.903,652.83v-74.102h9.102v74.102H325.903z M349.155,589.197v-10.469h9.102v10.469H349.155z
	 M349.155,652.83v-53.672h9.102v53.672H349.155z M374.272,652.83v-46.602h-8.037v-7.07h8.037v-5.724c0-3.594,0.322-6.27,0.967-8.026
	c0.869-2.363,2.412-4.277,4.619-5.742s5.303-2.188,9.277-2.188c2.559,0,5.391,0.293,8.496,0.897l-1.367,7.949
	c-1.767-0.334-3.562-0.504-5.361-0.508c-2.764,0-4.717,0.586-5.859,1.758c-1.152,1.19-1.719,3.397-1.719,6.621v4.961h10.459v7.069
	h-10.459v46.603L374.272,652.83L374.272,652.83z M397.476,625.994c0-9.941,2.765-17.305,8.291-22.09
	c4.609-3.965,10.244-5.957,16.886-5.957c7.373,0,13.408,2.422,18.086,7.246c4.688,4.844,7.031,11.522,7.031,20.039
	c0,6.914-1.035,12.344-3.105,16.309c-2.08,3.965-5.088,7.031-9.053,9.219c-3.955,2.188-8.281,3.281-12.959,3.281
	c-7.521,0-13.595-2.402-18.224-7.227C399.79,642.01,397.476,635.057,397.476,625.994L397.476,625.994z M406.821,625.994
	c0,6.875,1.504,12.031,4.502,15.449s6.776,5.116,11.328,5.116c4.512,0,8.271-1.719,11.27-5.155
	c2.999-3.438,4.492-8.672,4.492-15.703c0-6.642-1.504-11.68-4.521-15.099c-3.017-3.418-6.768-5.137-11.239-5.137
	c-4.552,0-8.33,1.719-11.328,5.117C408.326,613.98,406.821,619.119,406.821,625.994L406.821,625.994z M458.325,652.83v-53.672h8.192
	v8.145c2.091-3.809,4.015-6.328,5.781-7.539c1.777-1.211,3.721-1.815,5.84-1.815c3.066,0,6.183,0.977,9.355,2.93l-3.135,8.438
	c-2.228-1.31-4.453-1.974-6.67-1.974c-1.992,0-3.779,0.605-5.361,1.797c-1.582,1.192-2.715,2.853-3.389,4.98
	c-1.007,3.242-1.515,6.776-1.515,10.604v28.105H458.325L458.325,652.83z M492.905,652.83v-53.672h8.184v7.637
	c3.945-5.897,9.64-8.848,17.09-8.848c3.232,0,6.201,0.586,8.916,1.737c2.716,1.173,4.746,2.695,6.095,4.57
	c1.348,1.896,2.284,4.142,2.832,6.719c0.331,1.699,0.497,4.648,0.497,8.849v33.008h-9.092v-32.656c0-3.69-0.352-6.465-1.063-8.301
	c-0.703-1.836-1.963-3.301-3.761-4.396c-1.807-1.094-3.926-1.641-6.348-1.641c-3.877,0-7.217,1.23-10.029,3.672
	c-2.821,2.461-4.229,7.129-4.229,14.004v29.316L492.905,652.83L492.905,652.83z M550.532,589.197v-10.469h9.102v10.469H550.532z
	 M550.532,652.83v-53.672h9.102v53.672H550.532z M608.657,652.83v-7.871c-4.181,6.055-9.854,9.082-17.031,9.082
	c-3.174,0-6.123-0.605-8.877-1.816c-2.744-1.211-4.785-2.733-6.113-4.569s-2.266-4.082-2.803-6.738
	c-0.371-1.797-0.557-4.629-0.557-8.496v-33.262h9.102v29.766c0,4.746,0.187,7.949,0.558,9.609c0.565,2.383,1.776,4.276,3.633,5.625
	c1.854,1.367,4.149,2.051,6.875,2.051c2.733,0,5.293-0.703,7.686-2.09c2.394-1.406,4.082-3.301,5.078-5.723
	c0.996-2.402,1.494-5.898,1.494-10.488v-28.75h9.092v53.672L608.657,652.83L608.657,652.83z M631.05,652.83v-53.672h8.136v7.52
	c1.688-2.617,3.926-4.727,6.719-6.328c2.803-1.602,5.985-2.401,9.561-2.401c3.976,0,7.236,0.819,9.775,2.479
	c2.549,1.642,4.336,3.945,5.381,6.914c4.248-6.27,9.775-9.395,16.582-9.395c5.322,0,9.414,1.465,12.285,4.414
	c2.86,2.948,4.297,7.5,4.297,13.633v36.836h-9.053v-33.809c0-3.634-0.293-6.271-0.88-7.853c-0.596-1.602-1.659-2.891-3.213-3.867
	c-1.553-0.976-3.369-1.465-5.459-1.465c-3.77,0-6.903,1.25-9.403,3.75c-2.49,2.521-3.74,6.543-3.74,12.07v31.172h-9.092v-34.863
	c0-4.043-0.742-7.09-2.228-9.102c-1.483-2.031-3.905-3.027-7.274-3.027c-2.568,0-4.933,0.664-7.109,2.012
	c-2.168,1.349-3.74,3.32-4.727,5.919c-0.978,2.598-1.466,6.327-1.466,11.211v27.852H631.05L631.05,652.83z M62.681,859.236v-94.668
	h20.068v7.52H71.782v79.609h10.967v7.539H62.681z M136.528,829.92v8.75H87.554c-0.075-2.159,0.287-4.312,1.064-6.328
	c1.24-3.34,3.242-6.621,5.986-9.844c2.744-3.242,6.709-6.992,11.904-11.23c8.047-6.602,13.496-11.836,16.328-15.684
	c2.822-3.867,4.238-7.52,4.238-10.957c0-3.594-1.289-6.641-3.867-9.121c-2.578-2.479-5.938-3.711-10.078-3.711
	c-4.385,0-7.891,1.31-10.518,3.945c-2.627,2.617-3.955,6.27-3.994,10.918l-9.346-0.957c0.635-6.973,3.047-12.305,7.227-15.957
	s9.785-5.488,16.836-5.488c7.109,0,12.734,1.974,16.875,5.918c4.15,3.945,6.221,8.828,6.221,14.668c0,2.949-0.605,5.88-1.816,8.73
	c-1.221,2.871-3.232,5.879-6.045,9.063c-2.813,3.164-7.49,7.5-14.023,13.027c-5.459,4.59-8.965,7.695-10.518,9.336
	c-1.553,1.621-2.832,3.281-3.838,4.922H136.528L136.528,829.92z M146.284,819.256l9.551-0.801c0.713,4.648,2.354,8.145,4.932,10.488
	c2.578,2.343,5.684,3.496,9.326,3.496c4.375,0,8.086-1.642,11.113-4.941c3.037-3.301,4.551-7.695,4.551-13.146
	c0-5.194-1.455-9.276-4.365-12.284c-2.92-2.988-6.738-4.492-11.455-4.492c-2.93,0-5.576,0.664-7.93,1.992
	c-2.363,1.328-4.219,3.065-5.566,5.176l-8.535-1.113l7.178-38.047h36.846v8.691h-29.57l-3.994,19.901
	c4.443-3.086,9.111-4.647,14.004-4.647c6.465,0,11.924,2.246,16.377,6.737c4.443,4.474,6.67,10.234,6.67,17.285
	c0,6.699-1.953,12.5-5.869,17.383c-4.746,5.996-11.23,8.984-19.453,8.984c-6.738,0-12.246-1.875-16.504-5.646
	C149.321,830.486,146.89,825.486,146.284,819.256L146.284,819.256z M238.12,838.67h-9.102v-57.988
	c-2.188,2.091-5.059,4.181-8.613,6.271c-3.554,2.09-6.748,3.672-9.58,4.707v-8.789c5.088-2.402,9.541-5.293,13.35-8.691
	c3.799-3.418,6.504-6.719,8.086-9.922h5.859V838.67L238.12,838.67z M279.175,859.236h-20.068v-7.539h10.967v-79.609h-10.967v-7.52
	h20.068V859.236L279.175,859.236z M439.927,372.366l36.191,11.475c-5.547,20.187-14.775,35.166-27.676,44.961
	c-12.91,9.795-29.287,14.697-49.121,14.697c-24.562,0-44.736-8.389-60.537-25.166c-15.811-16.768-23.711-39.697-23.711-68.789
	c0-30.771,7.939-54.678,23.838-71.699c15.889-17.031,36.777-25.537,62.676-25.537c22.617,0,40.986,6.68,55.117,20.049
	c8.397,7.9,14.707,19.258,18.916,34.053l-36.953,8.828c-2.188-9.59-6.748-17.148-13.682-22.705
	c-6.943-5.547-15.371-8.32-25.293-8.32c-13.701,0-24.824,4.922-33.359,14.756c-8.535,9.833-12.793,25.771-12.793,47.803
	c0,23.368,4.199,40.02,12.607,49.94c8.408,9.921,19.336,14.883,32.793,14.883c9.922,0,18.457-3.153,25.596-9.463
	C431.686,395.823,436.813,385.901,439.927,372.366z M492.388,306.409h19.679v-10.088c0-11.27,1.19-19.678,3.594-25.225
	c2.393-5.547,6.807-10.068,13.242-13.555c6.426-3.496,14.561-5.234,24.403-5.234c10.051-0.005,20.042,1.526,29.629,4.541
	l-4.784,24.717c-5.636-1.348-11.056-2.021-16.271-2.021c-5.127,0-8.809,1.201-11.035,3.594c-2.227,2.402-3.34,7.002-3.34,13.809
	v9.463h26.484v27.871h-26.484v106.063h-35.438V334.28h-19.679V306.409L492.388,306.409z M859.479,99.553v7.588h-42.5
	c-0.068-1.904,0.243-3.73,0.918-5.479c1.084-2.9,2.813-5.752,5.194-8.555c2.383-2.813,5.83-6.055,10.332-9.746
	c6.992-5.732,11.709-10.264,14.17-13.613c2.451-3.35,3.683-6.514,3.683-9.502c0-3.125-1.113-5.771-3.351-7.92
	c-2.246-2.148-5.155-3.223-8.76-3.223c-3.799,0-6.836,1.143-9.121,3.428c-2.274,2.275-3.438,5.439-3.467,9.473l-8.115-0.84
	c0.558-6.045,2.646-10.664,6.279-13.838c3.623-3.174,8.486-4.756,14.6-4.756c6.172,0,11.056,1.709,14.658,5.127
	c3.594,3.428,5.391,7.666,5.391,12.725c0,2.578-0.526,5.107-1.571,7.588c-1.056,2.49-2.804,5.107-5.244,7.852
	c-2.441,2.754-6.504,6.523-12.178,11.318c-4.736,3.975-7.773,6.68-9.121,8.096c-1.349,1.416-2.461,2.842-3.34,4.277H859.479
	L859.479,99.553z M830.132,162.112c-3.271-1.201-5.703-2.91-7.285-5.137c-1.571-2.217-2.362-4.883-2.362-7.979
	c0-4.678,1.68-8.613,5.039-11.807c3.369-3.184,7.842-4.775,13.428-4.775c5.615,0,10.137,1.631,13.555,4.893
	c3.418,3.262,5.137,7.227,5.137,11.904c0,2.988-0.791,5.586-2.354,7.793s-3.936,3.906-7.129,5.107
	c3.955,1.289,6.953,3.359,9.014,6.23c2.07,2.861,3.096,6.289,3.096,10.264c0,5.498-1.942,10.117-5.829,13.857
	c-3.896,3.75-9.015,5.615-15.361,5.615c-6.338,0-11.455-1.875-15.353-5.635c-3.887-3.76-5.83-8.447-5.83-14.063
	c0-4.18,1.056-7.676,3.185-10.498C823.198,165.061,826.216,163.137,830.132,162.112L830.132,162.112z M826.011,178.43
	c0,2.256,0.527,4.434,1.603,6.533c1.063,2.109,2.656,3.74,4.756,4.893c2.081,1.146,4.421,1.741,6.797,1.729
	c3.779,0,6.895-1.211,9.346-3.633c2.461-2.432,3.691-5.518,3.691-9.258c0-3.799-1.271-6.943-3.799-9.434
	c-2.529-2.48-5.693-3.73-9.502-3.73c-3.711,0-6.787,1.23-9.229,3.691C827.23,171.672,826.011,174.749,826.011,178.43L826.011,178.43
	z M828.55,148.733c0,3.037,0.986,5.527,2.939,7.451c1.963,1.934,4.502,2.9,7.637,2.9c3.037,0,5.537-0.957,7.48-2.871
	c1.942-1.914,2.92-4.268,2.92-7.041c0-2.9-1.006-5.332-3.009-7.305c-2.002-1.973-4.502-2.959-7.479-2.959
	c-3.018,0-5.518,0.957-7.5,2.891C829.546,143.733,828.55,146.038,828.55,148.733L828.55,148.733z M797.749,286.819h-7.891v-50.313
	c-1.904,1.807-4.396,3.623-7.48,5.439c-3.086,1.807-5.858,3.174-8.311,4.072v-7.627c4.414-2.08,8.271-4.59,11.582-7.549
	c3.301-2.949,5.645-5.82,7.012-8.594h5.088V286.819L797.749,286.819z M830.122,251.946c-3.271-1.201-5.703-2.91-7.285-5.137
	c-1.572-2.217-2.363-4.883-2.363-7.979c0-4.678,1.681-8.613,5.039-11.807c3.369-3.184,7.843-4.775,13.429-4.775
	c5.614,0,10.137,1.631,13.555,4.893c3.418,3.262,5.137,7.227,5.137,11.904c0,2.988-0.791,5.586-2.354,7.793
	c-1.563,2.207-3.937,3.906-7.129,5.107c3.955,1.289,6.953,3.359,9.014,6.23c2.07,2.861,3.096,6.289,3.096,10.264
	c0,5.498-1.942,10.117-5.83,13.857c-3.896,3.75-9.014,5.615-15.36,5.615c-6.339,0-11.455-1.875-15.353-5.635
	c-3.887-3.76-5.83-8.447-5.83-14.063c0-4.18,1.056-7.676,3.185-10.498C823.188,254.895,826.206,252.971,830.122,251.946z
	 M826.001,268.264c0,2.256,0.527,4.434,1.603,6.533c1.063,2.109,2.655,3.74,4.756,4.893c2.081,1.146,4.421,1.741,6.797,1.729
	c3.778,0,6.895-1.211,9.346-3.633c2.461-2.432,3.691-5.518,3.691-9.258c0-3.799-1.271-6.943-3.8-9.434
	c-2.528-2.48-5.692-3.73-9.502-3.73c-3.711,0-6.786,1.23-9.229,3.691C827.222,261.506,826.001,264.583,826.001,268.264
	L826.001,268.264z M828.54,238.567c0,3.037,0.986,5.527,2.939,7.451c1.963,1.934,4.502,2.9,7.637,2.9
	c3.037,0,5.537-0.957,7.479-2.871c1.943-1.914,2.92-4.268,2.92-7.041c0-2.9-1.006-5.332-3.008-7.305
	c-2.002-1.973-4.502-2.959-7.479-2.959c-3.019,0-5.519,0.957-7.5,2.891C829.536,233.567,828.54,235.872,828.54,238.567
	L828.54,238.567z M768.052,359.69l7.9-1.056c0.908,4.474,2.451,7.695,4.629,9.668c2.178,1.974,4.834,2.959,7.959,2.959
	c3.711,0,6.854-1.278,9.414-3.856c2.559-2.568,3.838-5.763,3.838-9.562c0-3.623-1.19-6.621-3.555-8.975
	c-2.373-2.354-5.381-3.525-9.043-3.525c-1.484,0-3.341,0.293-5.566,0.879l0.879-6.934c0.527,0.059,0.947,0.088,1.271,0.088
	c3.358,0,6.387-0.879,9.082-2.637c2.686-1.748,4.033-4.453,4.033-8.115c0-2.891-0.978-5.293-2.939-7.188
	c-1.953-1.904-4.492-2.853-7.588-2.853c-3.066,0-5.625,0.957-7.676,2.892c-2.052,1.934-3.359,4.823-3.945,8.69l-7.9-1.406
	c0.967-5.293,3.164-9.395,6.582-12.305s7.676-4.365,12.764-4.365c3.507,0,6.738,0.752,9.697,2.256
	c2.949,1.505,5.215,3.564,6.777,6.162c1.563,2.607,2.344,5.371,2.344,8.291c0,2.783-0.742,5.313-2.236,7.588
	c-1.493,2.285-3.7,4.103-6.62,5.439c3.799,0.879,6.758,2.705,8.856,5.469c2.109,2.765,3.164,6.222,3.164,10.371
	c0,5.615-2.051,10.371-6.143,14.277c-4.103,3.906-9.277,5.858-15.527,5.858c-5.645,0-10.332-1.68-14.063-5.049
	C770.708,369.397,768.579,365.042,768.052,359.69L768.052,359.69z M859.468,369.075v7.588h-42.5
	c-0.067-1.904,0.244-3.73,0.918-5.479c1.084-2.899,2.813-5.752,5.195-8.555c2.383-2.813,5.83-6.055,10.332-9.746
	c6.992-5.731,11.709-10.264,14.17-13.613c2.451-3.35,3.682-6.514,3.682-9.502c0-3.125-1.112-5.771-3.35-7.92
	c-2.246-2.147-5.156-3.223-8.76-3.223c-3.799,0-6.836,1.143-9.121,3.428c-2.275,2.275-3.438,5.439-3.467,9.474l-8.115-0.841
	c0.557-6.045,2.646-10.663,6.279-13.838c3.623-3.174,8.485-4.756,14.6-4.756c6.172,0,11.055,1.709,14.658,5.127
	c3.594,3.429,5.391,7.666,5.391,12.726c0,2.578-0.526,5.106-1.572,7.588c-1.055,2.49-2.803,5.106-5.243,7.852
	c-2.441,2.754-6.505,6.523-12.179,11.318c-4.735,3.975-7.772,6.68-9.121,8.096c-1.348,1.416-2.461,2.842-3.34,4.277H859.468z
	 M809.507,458.904v7.598h-42.5c-0.067-1.914,0.244-3.729,0.918-5.488c1.084-2.891,2.813-5.741,5.195-8.555
	c2.383-2.808,5.83-6.05,10.332-9.742c6.992-5.731,11.709-10.264,14.17-13.613c2.451-3.35,3.682-6.514,3.682-9.502
	c0-3.125-1.112-5.771-3.35-7.92c-2.246-2.147-5.156-3.223-8.76-3.223c-3.8,0-6.836,1.143-9.121,3.428
	c-2.275,2.275-3.438,5.439-3.467,9.474l-8.115-0.841c0.557-6.045,2.646-10.663,6.279-13.838c3.622-3.174,8.485-4.756,14.6-4.756
	c6.172,0,11.055,1.709,14.658,5.127c3.594,3.429,5.391,7.666,5.391,12.726c0,2.578-0.526,5.106-1.572,7.588
	c-1.055,2.49-2.803,5.106-5.243,7.852c-2.441,2.754-6.505,6.523-12.179,11.318c-4.735,3.974-7.772,6.685-9.121,8.091
	c-1.348,1.426-2.461,2.852-3.34,4.277H809.507L809.507,458.904z M830.122,431.624c-3.271-1.201-5.703-2.91-7.285-5.137
	c-1.572-2.218-2.363-4.883-2.363-7.979c0-4.678,1.681-8.613,5.039-11.807c3.369-3.185,7.843-4.775,13.429-4.775
	c5.614,0,10.137,1.631,13.555,4.894c3.418,3.262,5.137,7.227,5.137,11.903c0,2.988-0.791,5.586-2.354,7.793
	c-1.563,2.207-3.937,3.906-7.129,5.107c3.955,1.289,6.953,3.359,9.014,6.23c2.07,2.86,3.096,6.288,3.096,10.264
	c0,5.494-1.942,10.123-5.83,13.853c-3.896,3.75-9.014,5.625-15.36,5.625c-6.339,0-11.455-1.875-15.353-5.645
	c-3.887-3.75-5.83-8.438-5.83-14.059c0-4.18,1.056-7.676,3.185-10.497C823.188,434.573,826.206,432.649,830.122,431.624
	L830.122,431.624z M826.001,447.942c0,2.256,0.527,4.438,1.603,6.528c1.063,2.109,2.655,3.75,4.756,4.902
	c2.108,1.152,4.375,1.719,6.797,1.719c3.778,0,6.895-1.211,9.346-3.633c2.461-2.422,3.691-5.508,3.691-9.253
	c0-3.799-1.271-6.943-3.8-9.434c-2.528-2.48-5.692-3.73-9.502-3.73c-3.711,0-6.786,1.23-9.229,3.691
	C827.222,441.184,826.001,444.26,826.001,447.942L826.001,447.942z M828.54,418.245c0,3.037,0.986,5.527,2.939,7.451
	c1.963,1.934,4.502,2.899,7.637,2.899c3.037,0,5.537-0.957,7.479-2.871c1.943-1.914,2.92-4.268,2.92-7.041
	c0-2.899-1.006-5.332-3.008-7.305s-4.502-2.959-7.479-2.959c-3.019,0-5.519,0.957-7.5,2.891
	C829.536,413.245,828.54,415.549,828.54,418.245L828.54,418.245z M830.132,521.463c-3.271-1.19-5.703-2.91-7.285-5.137
	c-1.571-2.207-2.362-4.883-2.362-7.969c0-4.688,1.68-8.613,5.039-11.816c3.369-3.184,7.842-4.766,13.428-4.766
	c5.615,0,10.137,1.621,13.555,4.883s5.137,7.227,5.137,11.914c0,2.987-0.791,5.586-2.354,7.793s-3.936,3.906-7.129,5.098
	c3.955,1.289,6.953,3.359,9.014,6.23c2.07,2.871,3.096,6.289,3.096,10.272c0,5.488-1.942,10.117-5.829,13.849
	c-3.896,3.75-9.015,5.625-15.361,5.625c-6.338,0-11.455-1.875-15.353-5.646c-3.887-3.75-5.83-8.438-5.83-14.063
	c0-4.181,1.056-7.677,3.185-10.488C823.198,524.412,826.216,522.498,830.132,521.463z M826.011,537.791
	c0,2.246,0.527,4.434,1.603,6.523c1.063,2.108,2.656,3.75,4.756,4.901c2.109,1.152,4.375,1.719,6.797,1.719
	c3.779,0,6.895-1.211,9.346-3.633c2.461-2.422,3.691-5.508,3.691-9.258c0-3.789-1.271-6.934-3.799-9.434
	c-2.529-2.48-5.693-3.73-9.502-3.73c-3.711,0-6.787,1.23-9.229,3.691S826.011,534.1,826.011,537.791L826.011,537.791z
	 M828.55,508.084c0,3.047,0.986,5.527,2.939,7.461c1.963,1.935,4.502,2.891,7.637,2.891c3.037,0,5.537-0.956,7.48-2.87
	c1.942-1.914,2.92-4.259,2.92-7.031c0-2.91-1.006-5.332-3.009-7.305c-2.002-1.974-4.502-2.97-7.479-2.97
	c-3.018,0-5.518,0.957-7.5,2.892C829.546,503.084,828.55,505.389,828.55,508.084L828.55,508.084z M859.479,638.592v7.578h-42.5
	c-0.068-1.895,0.243-3.729,0.918-5.469c1.084-2.91,2.813-5.762,5.194-8.555c2.383-2.813,5.83-6.056,10.332-9.746
	c6.992-5.742,11.709-10.273,14.17-13.613c2.451-3.359,3.683-6.523,3.683-9.512c0-3.125-1.113-5.763-3.351-7.91
	c-2.246-2.148-5.155-3.223-8.76-3.223c-3.799,0-6.836,1.133-9.121,3.418c-2.274,2.284-3.438,5.448-3.467,9.473l-8.115-0.84
	c0.558-6.035,2.646-10.664,6.279-13.828c3.623-3.185,8.486-4.766,14.6-4.766c6.172,0,11.056,1.719,14.658,5.137
	c3.594,3.418,5.391,7.656,5.391,12.715c0,2.578-0.526,5.117-1.571,7.598c-1.056,2.48-2.804,5.099-5.244,7.853
	c-2.441,2.754-6.504,6.522-12.178,11.309c-4.736,3.984-7.773,6.681-9.121,8.105c-1.349,1.405-2.461,2.832-3.34,4.276H859.479
	L859.479,638.592z"/>
</svg>
