<?xml version="1.0" encoding="utf-8"?>
<!-- Generator: Adobe Illustrator 16.0.3, SVG Export Plug-In . SVG Version: 6.00 Build 0)  -->
<!DOCTYPE svg PUBLIC "-//W3C//DTD SVG 1.1//EN" "http://www.w3.org/Graphics/SVG/1.1/DTD/svg11.dtd">
<svg version="1.1" id="Layer_1" xmlns="http://www.w3.org/2000/svg" xmlns:xlink="http://www.w3.org/1999/xlink" x="0px" y="0px"
	 width="900px" height="900px" viewBox="0 0 900 900" enable-background="new 0 0 900 900" xml:space="preserve">
<path d="M41.816,127.864l13.301-1.23c1.123,6.26,3.271,10.791,6.455,13.613c3.174,2.813,7.256,4.229,12.227,4.229
	c4.248,0,7.979-0.977,11.182-2.92c3.203-1.953,5.83-4.551,7.881-7.813c2.051-3.252,3.77-7.646,5.156-13.184
	c1.378-5.532,2.073-11.213,2.07-16.914c0-0.615-0.029-1.533-0.078-2.764c-2.764,4.404-6.543,7.979-11.338,10.723
	s-9.98,4.111-15.566,4.111c-9.326,0-17.227-3.379-23.682-10.146s-9.688-15.684-9.688-26.748c0-11.436,3.369-20.635,10.107-27.607
	c6.738-6.963,15.186-10.449,25.332-10.449c7.334,0,14.033,1.973,20.107,5.918c6.074,3.945,10.684,9.57,13.838,16.875
	c3.154,7.305,4.727,17.871,4.727,31.709c0,14.404-1.563,25.869-4.688,34.404s-7.773,15.029-13.955,19.492
	c-6.172,4.463-13.418,6.689-21.719,6.689c-8.818,0-16.016-2.451-21.602-7.344C46.297,143.615,42.939,136.731,41.816,127.864
	L41.816,127.864z M98.477,78.127c0-7.949-2.119-14.248-6.348-18.916s-9.316-6.992-15.254-6.992c-6.152,0-11.514,2.51-16.074,7.529
	c-4.561,5.029-6.836,11.533-6.836,19.531c0,7.178,2.158,13.008,6.494,17.49c4.326,4.482,9.668,6.729,16.025,6.729
	c6.406,0,11.68-2.246,15.801-6.729S98.477,86.067,98.477,78.127L98.477,78.127z M129.385,127.864l13.301-1.23
	c1.123,6.26,3.271,10.791,6.455,13.613c3.174,2.813,7.256,4.229,12.227,4.229c4.248,0,7.979-0.977,11.182-2.92
	c3.203-1.953,5.83-4.551,7.881-7.813c2.051-3.252,3.77-7.646,5.156-13.184c1.378-5.532,2.073-11.213,2.07-16.914
	c0-0.615-0.029-1.533-0.078-2.764c-2.764,4.404-6.543,7.979-11.338,10.723c-4.795,2.744-9.98,4.111-15.566,4.111
	c-9.326,0-17.227-3.379-23.682-10.146s-9.688-15.684-9.688-26.748c0-11.436,3.369-20.635,10.107-27.607
	c6.738-6.963,15.186-10.449,25.332-10.449c7.334,0,14.033,1.973,20.107,5.918c6.074,3.945,10.684,9.57,13.838,16.875
	c3.154,7.305,4.727,17.871,4.727,31.709c0,14.404-1.563,25.869-4.688,34.404s-7.773,15.029-13.955,19.492
	c-6.172,4.463-13.418,6.689-21.719,6.689c-8.818,0-16.016-2.451-21.602-7.344C133.866,143.615,130.508,136.731,129.385,127.864
	L129.385,127.864z M186.045,78.127c0-7.949-2.119-14.248-6.348-18.916c-4.229-4.668-9.316-6.992-15.254-6.992
	c-6.152,0-11.514,2.51-16.074,7.529c-4.561,5.029-6.836,11.533-6.836,19.531c0,7.178,2.158,13.008,6.494,17.49
	c4.326,4.482,9.668,6.729,16.025,6.729c6.406,0,11.68-2.246,15.801-6.729S186.045,86.067,186.045,78.127L186.045,78.127z
	 M189.365,652.83v-74.102h53.584v8.75h-43.77v22.694h40.986v8.691H199.18V644.1h45.488v8.73H189.365L189.365,652.83z M257.1,589.197
	v-10.469h9.102v10.469H257.1L257.1,589.197z M257.1,652.83v-53.672h9.102v53.672H257.1L257.1,652.83z M280.049,652.83v-53.672h8.184
	v7.637c3.945-5.897,9.639-8.848,17.09-8.848c3.232,0,6.201,0.586,8.916,1.737c2.715,1.173,4.746,2.695,6.094,4.57
	c1.348,1.896,2.285,4.142,2.832,6.719c0.332,1.699,0.498,4.648,0.498,8.849v33.008h-9.092v-32.656c0-3.69-0.352-6.465-1.064-8.301
	c-0.703-1.836-1.963-3.301-3.76-4.396c-1.807-1.094-3.926-1.641-6.348-1.641c-3.877,0-7.217,1.23-10.029,3.672
	c-2.822,2.461-4.229,7.129-4.229,14.004v29.316L280.049,652.83L280.049,652.83z M333.975,636.814l8.994-1.427
	c0.508,3.613,1.914,6.367,4.229,8.302c2.305,1.914,5.527,2.87,9.678,2.87c4.18,0,7.275-0.84,9.297-2.538
	c2.022-1.699,3.037-3.712,3.037-5.996c0-2.052-0.898-3.672-2.686-4.845c-1.24-0.819-4.346-1.836-9.297-3.086
	c-6.67-1.698-11.299-3.145-13.877-4.375c-2.578-1.229-4.531-2.93-5.859-5.116c-1.338-2.169-2.002-4.57-2.002-7.188
	c0-2.402,0.547-4.609,1.65-6.66c1.076-2.018,2.607-3.756,4.473-5.078c1.416-1.034,3.34-1.914,5.781-2.655
	c2.441-0.724,5.068-1.074,7.861-1.074c4.209,0,7.91,0.604,11.094,1.815c3.184,1.211,5.537,2.853,7.051,4.923
	c1.514,2.069,2.559,4.844,3.135,8.319l-8.896,1.211c-0.4-2.754-1.572-4.922-3.516-6.465c-1.934-1.543-4.668-2.324-8.213-2.324
	c-4.18,0-7.158,0.685-8.945,2.07s-2.676,2.988-2.676,4.844c0,1.191,0.371,2.246,1.113,3.185c0.742,0.977,1.904,1.797,3.486,2.44
	c0.908,0.332,3.584,1.113,8.037,2.324c6.436,1.719,10.928,3.125,13.467,4.219c2.549,1.095,4.541,2.677,5.996,4.767
	c1.445,2.09,2.168,4.688,2.168,7.793c0,3.026-0.879,5.879-2.656,8.555c-1.768,2.695-4.316,4.766-7.656,6.23
	c-3.33,1.465-7.109,2.188-11.318,2.188c-6.973,0-12.295-1.445-15.947-4.336C337.314,646.795,334.99,642.498,333.975,636.814
	L333.975,636.814z M409.238,644.705l1.309,8.027c-2.559,0.547-4.844,0.801-6.875,0.801c-3.301,0-5.858-0.508-7.676-1.563
	c-1.826-1.034-3.105-2.422-3.848-4.121c-0.743-1.698-1.104-5.272-1.104-10.741v-30.879h-6.68v-7.07h6.68v-13.301l9.043-5.449v18.75
	h9.15v7.07h-9.15v31.387c0,2.598,0.156,4.276,0.479,5c0.321,0.742,0.84,1.348,1.571,1.776c0.724,0.449,1.759,0.664,3.105,0.664
	C406.25,645.057,407.588,644.939,409.238,644.705z M454.883,635.545l9.396,1.172c-1.484,5.488-4.229,9.746-8.232,12.773
	c-4.014,3.047-9.141,4.551-15.371,4.551c-7.852,0-14.071-2.402-18.672-7.246c-4.6-4.844-6.904-11.621-6.904-20.352
	c0-9.023,2.324-16.035,6.974-21.017c4.658-5,10.684-7.479,18.096-7.479c7.178,0,13.047,2.44,17.598,7.324
	c4.541,4.883,6.816,11.758,6.816,20.625c0,0.547-0.01,1.348-0.049,2.422h-40.029c0.332,5.897,2.002,10.41,5,13.555
	c2.998,3.125,6.738,4.688,11.221,4.688c3.341,0,6.183-0.859,8.545-2.617C451.633,642.187,453.496,639.393,454.883,635.545
	L454.883,635.545z M425.01,620.838h29.972c-0.41-4.512-1.554-7.891-3.438-10.156c-2.9-3.495-6.66-5.254-11.27-5.254
	c-4.181,0-7.695,1.388-10.537,4.199C426.885,612.42,425.313,616.15,425.01,620.838L425.01,620.838z M475.762,589.197v-10.469h9.103
	v10.469H475.762z M475.762,652.83v-53.672h9.103v53.672H475.762z M498.711,652.83v-53.672h8.184v7.637
	c3.945-5.897,9.64-8.848,17.091-8.848c3.231,0,6.2,0.586,8.916,1.738c2.715,1.172,4.746,2.694,6.094,4.569
	c1.348,1.896,2.285,4.142,2.832,6.719c0.332,1.699,0.498,4.648,0.498,8.849v33.008h-9.092v-32.656c0-3.69-0.353-6.465-1.064-8.301
	c-0.703-1.836-1.963-3.301-3.76-4.395c-1.808-1.095-3.926-1.642-6.349-1.642c-3.877,0-7.217,1.23-10.028,3.672
	c-2.822,2.461-4.229,7.129-4.229,14.004v29.316L498.711,652.83L498.711,652.83z M556.328,589.197v-10.469h9.102v10.469H556.328z
	 M556.328,652.83v-53.672h9.102v53.672H556.328z M614.453,652.83v-7.871c-4.18,6.055-9.854,9.082-17.031,9.082
	c-3.174,0-6.123-0.604-8.877-1.816c-2.744-1.211-4.785-2.733-6.113-4.569s-2.266-4.082-2.803-6.738
	c-0.371-1.797-0.557-4.629-0.557-8.496v-33.262h9.102v29.766c0,4.746,0.187,7.949,0.558,9.609c0.565,2.383,1.776,4.277,3.633,5.625
	c1.854,1.367,4.149,2.051,6.875,2.051c2.733,0,5.293-0.703,7.686-2.09c2.394-1.406,4.082-3.301,5.078-5.723
	c0.996-2.402,1.494-5.898,1.494-10.488v-28.75h9.092v53.672L614.453,652.83L614.453,652.83z M636.846,652.83v-53.672h8.136v7.52
	c1.688-2.616,3.926-4.727,6.719-6.328c2.803-1.602,5.985-2.401,9.561-2.401c3.976,0,7.236,0.82,9.775,2.479
	c2.549,1.642,4.336,3.945,5.381,6.914c4.248-6.27,9.775-9.395,16.582-9.395c5.322,0,9.414,1.465,12.285,4.414
	c2.86,2.949,4.297,7.5,4.297,13.633v36.836h-9.053v-33.809c0-3.634-0.293-6.271-0.879-7.853c-0.597-1.602-1.66-2.891-3.214-3.867
	c-1.553-0.976-3.368-1.465-5.459-1.465c-3.77,0-6.903,1.25-9.403,3.75c-2.49,2.521-3.74,6.543-3.74,12.07v31.172h-9.092v-34.863
	c0-4.043-0.742-7.09-2.228-9.102c-1.483-2.031-3.905-3.027-7.274-3.027c-2.568,0-4.933,0.664-7.109,2.013
	c-2.168,1.348-3.74,3.319-4.727,5.918c-0.978,2.598-1.466,6.327-1.466,11.211v27.852H636.846L636.846,652.83z M62.686,859.236
	v-94.668h20.068v7.52H71.787v79.609h10.967v7.539H62.686z M136.533,829.92v8.75H87.559c-0.075-2.159,0.287-4.312,1.064-6.328
	c1.24-3.34,3.242-6.621,5.986-9.844c2.744-3.242,6.709-6.992,11.904-11.23c8.047-6.602,13.496-11.836,16.328-15.684
	c2.822-3.867,4.238-7.52,4.238-10.957c0-3.594-1.289-6.641-3.867-9.121c-2.578-2.479-5.938-3.711-10.078-3.711
	c-4.385,0-7.891,1.31-10.518,3.945c-2.627,2.617-3.955,6.27-3.994,10.918l-9.346-0.957c0.635-6.973,3.047-12.305,7.227-15.957
	c4.18-3.652,9.785-5.488,16.836-5.488c7.109,0,12.734,1.974,16.875,5.918c4.15,3.945,6.221,8.828,6.221,14.668
	c0,2.949-0.605,5.88-1.816,8.73c-1.221,2.871-3.232,5.879-6.045,9.063c-2.813,3.164-7.49,7.5-14.023,13.027
	c-5.459,4.59-8.965,7.695-10.518,9.336c-1.553,1.621-2.832,3.281-3.838,4.922H136.533L136.533,829.92z M146.289,819.256l9.551-0.801
	c0.713,4.648,2.354,8.145,4.932,10.488c2.578,2.343,5.684,3.496,9.326,3.496c4.375,0,8.086-1.642,11.113-4.941
	c3.037-3.301,4.551-7.695,4.551-13.146c0-5.194-1.455-9.276-4.365-12.284c-2.92-2.988-6.738-4.492-11.455-4.492
	c-2.93,0-5.576,0.664-7.93,1.992c-2.363,1.328-4.219,3.065-5.566,5.176l-8.535-1.113l7.178-38.047h36.846v8.691h-29.57
	l-3.994,19.901c4.443-3.086,9.111-4.647,14.004-4.647c6.465,0,11.924,2.246,16.377,6.737c4.443,4.474,6.67,10.234,6.67,17.285
	c0,6.699-1.953,12.5-5.869,17.383c-4.746,5.996-11.229,8.984-19.453,8.984c-6.738,0-12.246-1.875-16.504-5.646
	C149.326,830.486,146.895,825.486,146.289,819.256L146.289,819.256z M251.67,829.92v8.75h-48.975
	c-0.075-2.159,0.288-4.312,1.064-6.328c1.24-3.34,3.242-6.621,5.986-9.844c2.744-3.242,6.709-6.992,11.904-11.23
	c8.047-6.602,13.496-11.836,16.328-15.684c2.822-3.867,4.238-7.52,4.238-10.957c0-3.594-1.289-6.641-3.867-9.121
	c-2.578-2.479-5.938-3.711-10.078-3.711c-4.385,0-7.891,1.31-10.518,3.945c-2.627,2.617-3.955,6.27-3.994,10.918l-9.346-0.957
	c0.635-6.973,3.047-12.305,7.227-15.957c4.18-3.652,9.785-5.488,16.836-5.488c7.109,0,12.734,1.974,16.875,5.918
	c4.15,3.945,6.221,8.828,6.221,14.668c0,2.949-0.605,5.88-1.816,8.73c-1.221,2.871-3.232,5.879-6.045,9.063
	c-2.813,3.164-7.49,7.5-14.023,13.027c-5.459,4.59-8.965,7.695-10.518,9.336c-1.553,1.621-2.832,3.281-3.838,4.922H251.67
	L251.67,829.92z M279.18,859.236h-20.068v-7.539h10.967v-79.609h-10.967v-7.52h20.068V859.236z M303.936,440.344V255.452h137.09
	v31.279H341.27v40.986h92.822v31.152H341.27v50.322h103.291v31.151L303.936,440.344L303.936,440.344z M463.477,402.131l35.566-5.42
	c1.514,6.895,4.58,12.129,9.209,15.693c4.619,3.584,11.094,5.36,19.414,5.36c9.17,0,16.064-1.68,20.684-5.039
	c3.115-2.354,4.668-5.508,4.668-9.463c0-2.686-0.84-4.912-2.52-6.68c-1.768-1.68-5.723-3.242-11.855-4.668
	c-28.584-6.31-46.709-12.062-54.354-17.275c-10.596-7.235-15.889-17.285-15.889-30.146c0-11.603,4.579-21.357,13.739-29.258
	c9.17-7.9,23.379-11.855,42.627-11.855c18.33,0,31.953,2.988,40.869,8.955c8.906,5.967,15.049,14.795,18.408,26.484l-33.418,6.182
	c-1.436-5.215-4.141-9.209-8.135-11.982c-3.994-2.772-9.697-4.159-17.09-4.159c-9.336,0-16.017,1.299-20.06,3.905
	c-2.686,1.847-4.032,4.248-4.032,7.188c0,2.52,1.182,4.668,3.534,6.436c3.193,2.354,14.229,5.674,33.105,9.961
	s32.051,9.541,39.541,15.763c7.393,6.309,11.094,15.098,11.094,26.356c0,12.285-5.127,22.832-15.391,31.66
	c-10.254,8.828-25.431,13.242-45.527,13.242c-18.242,0-32.686-3.701-43.32-11.104C473.711,424.875,466.758,414.827,463.477,402.131
	L463.477,402.131z M859.473,99.553v7.588h-42.5c-0.067-1.904,0.244-3.73,0.918-5.479c1.084-2.9,2.813-5.752,5.195-8.555
	c2.383-2.813,5.83-6.055,10.332-9.746c6.992-5.732,11.709-10.264,14.17-13.613c2.451-3.35,3.682-6.514,3.682-9.502
	c0-3.125-1.112-5.771-3.35-7.92c-2.246-2.148-5.156-3.223-8.76-3.223c-3.799,0-6.836,1.143-9.121,3.428
	c-2.275,2.275-3.438,5.439-3.467,9.473l-8.115-0.84c0.557-6.045,2.646-10.664,6.279-13.838c3.623-3.174,8.485-4.756,14.6-4.756
	c6.172,0,11.055,1.709,14.658,5.127c3.594,3.428,5.391,7.666,5.391,12.725c0,2.578-0.526,5.107-1.571,7.588
	c-1.056,2.49-2.804,5.107-5.244,7.852c-2.441,2.754-6.504,6.523-12.179,11.318c-4.735,3.975-7.772,6.68-9.12,8.096
	c-1.349,1.416-2.462,2.842-3.341,4.277H859.473z M830.127,162.112c-3.271-1.201-5.703-2.91-7.285-5.137
	c-1.572-2.217-2.362-4.883-2.362-7.979c0-4.678,1.68-8.613,5.038-11.807c3.369-3.184,7.843-4.775,13.429-4.775
	c5.614,0,10.137,1.631,13.555,4.893c3.418,3.262,5.137,7.227,5.137,11.904c0,2.988-0.791,5.586-2.354,7.793
	c-1.563,2.207-3.937,3.906-7.129,5.107c3.955,1.289,6.953,3.359,9.014,6.23c2.07,2.861,3.096,6.289,3.096,10.264
	c0,5.498-1.942,10.117-5.83,13.857c-3.896,3.75-9.014,5.615-15.36,5.615c-6.338,0-11.455-1.875-15.353-5.635
	c-3.887-3.76-5.83-8.447-5.83-14.063c0-4.18,1.056-7.676,3.185-10.498C823.193,165.061,826.211,163.137,830.127,162.112z
	 M826.006,178.43c0,2.256,0.527,4.434,1.603,6.533c1.063,2.109,2.655,3.74,4.756,4.893c2.081,1.146,4.421,1.741,6.797,1.729
	c3.779,0,6.895-1.211,9.346-3.633c2.461-2.432,3.691-5.518,3.691-9.258c0-3.799-1.271-6.943-3.799-9.434
	c-2.529-2.479-5.693-3.729-9.503-3.729c-3.711,0-6.786,1.229-9.229,3.691C827.227,171.672,826.006,174.749,826.006,178.43
	L826.006,178.43z M828.545,148.733c0,3.037,0.986,5.527,2.939,7.451c1.963,1.934,4.502,2.9,7.637,2.9
	c3.037,0,5.537-0.957,7.48-2.871c1.942-1.914,2.92-4.268,2.92-7.041c0-2.9-1.007-5.332-3.009-7.305
	c-2.002-1.973-4.502-2.959-7.479-2.959c-3.019,0-5.519,0.957-7.5,2.891C829.541,143.733,828.545,146.038,828.545,148.733
	L828.545,148.733z M797.744,286.819h-7.891v-50.313c-1.904,1.807-4.396,3.623-7.48,5.439c-3.086,1.807-5.859,3.174-8.311,4.072
	v-7.627c4.414-2.08,8.271-4.59,11.582-7.549c3.301-2.949,5.645-5.82,7.012-8.594h5.088V286.819L797.744,286.819z M830.117,251.946
	c-3.271-1.201-5.703-2.91-7.285-5.137c-1.572-2.217-2.363-4.883-2.363-7.979c0-4.678,1.681-8.613,5.039-11.807
	c3.369-3.184,7.842-4.775,13.428-4.775c5.615,0,10.138,1.631,13.556,4.893c3.418,3.262,5.137,7.227,5.137,11.904
	c0,2.988-0.791,5.586-2.354,7.793c-1.563,2.207-3.937,3.906-7.13,5.107c3.955,1.289,6.953,3.359,9.015,6.23
	c2.069,2.861,3.096,6.289,3.096,10.264c0,5.498-1.942,10.117-5.83,13.857c-3.896,3.75-9.014,5.615-15.36,5.615
	c-6.339,0-11.455-1.875-15.353-5.635c-3.887-3.76-5.83-8.447-5.83-14.063c0-4.18,1.055-7.676,3.185-10.498
	C823.184,254.895,826.201,252.971,830.117,251.946z M825.996,268.264c0,2.256,0.527,4.434,1.602,6.533
	c1.064,2.109,2.656,3.74,4.756,4.893c2.082,1.146,4.422,1.741,6.798,1.729c3.778,0,6.895-1.211,9.346-3.633
	c2.461-2.432,3.69-5.518,3.69-9.258c0-3.799-1.27-6.943-3.799-9.434c-2.528-2.48-5.692-3.729-9.502-3.729
	c-3.711,0-6.787,1.229-9.229,3.691C827.217,261.506,825.996,264.583,825.996,268.264L825.996,268.264z M828.535,238.567
	c0,3.037,0.986,5.527,2.938,7.451c1.964,1.934,4.503,2.9,7.638,2.9c3.037,0,5.537-0.957,7.479-2.871
	c1.943-1.914,2.92-4.268,2.92-7.041c0-2.9-1.006-5.332-3.008-7.305c-2.002-1.973-4.502-2.959-7.479-2.959
	c-3.019,0-5.519,0.957-7.5,2.891C829.531,233.567,828.535,235.872,828.535,238.567L828.535,238.567z M768.047,359.69l7.9-1.056
	c0.908,4.474,2.451,7.695,4.629,9.668c2.178,1.974,4.834,2.959,7.959,2.959c3.711,0,6.854-1.278,9.414-3.856
	c2.559-2.568,3.838-5.763,3.838-9.562c0-3.623-1.191-6.621-3.555-8.975c-2.373-2.354-5.381-3.525-9.043-3.525
	c-1.484,0-3.341,0.293-5.566,0.879l0.879-6.934c0.527,0.059,0.947,0.088,1.271,0.088c3.358,0,6.387-0.879,9.082-2.637
	c2.686-1.748,4.032-4.453,4.032-8.115c0-2.891-0.977-5.293-2.938-7.188c-1.953-1.904-4.492-2.853-7.588-2.853
	c-3.066,0-5.625,0.957-7.677,2.892c-2.051,1.934-3.358,4.823-3.944,8.69l-7.9-1.406c0.967-5.293,3.164-9.395,6.582-12.305
	s7.676-4.365,12.764-4.365c3.507,0,6.738,0.752,9.697,2.256c2.949,1.505,5.215,3.564,6.777,6.162
	c1.563,2.607,2.344,5.371,2.344,8.291c0,2.783-0.742,5.313-2.236,7.588c-1.494,2.285-3.7,4.103-6.621,5.439
	c3.8,0.879,6.759,2.705,8.857,5.469c2.109,2.765,3.164,6.222,3.164,10.371c0,5.615-2.051,10.371-6.144,14.277
	c-4.102,3.906-9.276,5.858-15.526,5.858c-5.646,0-10.332-1.68-14.063-5.049C770.703,369.397,768.574,365.042,768.047,359.69
	L768.047,359.69z M859.463,369.075v7.588h-42.5c-0.068-1.904,0.244-3.73,0.918-5.479c1.084-2.899,2.813-5.752,5.195-8.555
	c2.383-2.813,5.83-6.055,10.332-9.746c6.992-5.731,11.709-10.264,14.17-13.613c2.451-3.35,3.682-6.514,3.682-9.502
	c0-3.125-1.112-5.771-3.35-7.92c-2.246-2.147-5.156-3.223-8.76-3.223c-3.8,0-6.836,1.143-9.121,3.428
	c-2.275,2.275-3.438,5.439-3.467,9.474l-8.115-0.841c0.557-6.045,2.646-10.663,6.279-13.838c3.622-3.174,8.485-4.756,14.6-4.756
	c6.172,0,11.055,1.709,14.658,5.127c3.594,3.429,5.391,7.666,5.391,12.726c0,2.578-0.527,5.106-1.572,7.588
	c-1.055,2.49-2.803,5.106-5.244,7.852c-2.44,2.754-6.504,6.523-12.178,11.318c-4.736,3.975-7.772,6.68-9.121,8.096
	c-1.348,1.416-2.461,2.842-3.34,4.277H859.463z M809.502,458.904v7.598h-42.5c-0.068-1.914,0.244-3.729,0.918-5.488
	c1.084-2.891,2.813-5.741,5.195-8.555c2.383-2.808,5.83-6.05,10.332-9.742c6.992-5.731,11.709-10.264,14.17-13.613
	c2.451-3.35,3.682-6.514,3.682-9.502c0-3.125-1.113-5.771-3.35-7.92c-2.246-2.147-5.156-3.223-8.76-3.223
	c-3.8,0-6.836,1.143-9.121,3.428c-2.275,2.275-3.438,5.439-3.467,9.474l-8.115-0.841c0.557-6.045,2.646-10.663,6.278-13.838
	c3.623-3.174,8.486-4.756,14.601-4.756c6.172,0,11.055,1.709,14.658,5.127c3.594,3.429,5.391,7.666,5.391,12.726
	c0,2.578-0.527,5.106-1.572,7.588c-1.055,2.49-2.803,5.106-5.244,7.852c-2.44,2.754-6.504,6.523-12.178,11.318
	c-4.736,3.974-7.772,6.685-9.121,8.091c-1.348,1.426-2.461,2.852-3.34,4.277H809.502L809.502,458.904z M819.15,451.619l7.588-0.703
	c0.645,3.574,1.875,6.172,3.69,7.773c1.808,1.602,4.131,2.401,6.974,2.401c2.422,0,4.551-0.547,6.377-1.66
	c1.826-1.112,3.33-2.598,4.502-4.452c1.172-1.855,2.147-4.361,2.938-7.525c0.79-3.155,1.188-6.396,1.183-9.648
	c0-0.352-0.021-0.879-0.039-1.571c-1.582,2.51-3.74,4.551-6.476,6.112c-2.734,1.563-5.692,2.345-8.887,2.345
	c-5.322,0-9.824-1.925-13.506-5.781c-3.691-3.867-5.527-8.955-5.527-15.273c0-6.514,1.925-11.768,5.771-15.742
	c3.838-3.975,8.662-5.967,14.453-5.967c4.18,0,7.998,1.123,11.465,3.379c3.467,2.246,6.104,5.459,7.9,9.629
	c1.797,4.16,2.694,10.195,2.694,18.097c0,8.213-0.889,14.756-2.676,19.625c-1.787,4.862-4.434,8.574-7.959,11.112
	c-3.525,2.56-7.656,3.828-12.393,3.828c-5.029,0-9.142-1.405-12.324-4.198C821.709,460.604,819.795,456.678,819.15,451.619
	L819.15,451.619z M851.484,423.245c0-4.531-1.211-8.135-3.623-10.791c-2.412-2.666-5.313-3.994-8.711-3.994
	c-3.506,0-6.563,1.437-9.16,4.297c-2.607,2.871-3.906,6.582-3.906,11.144c0,4.102,1.23,7.422,3.701,9.979
	c2.471,2.559,5.527,3.838,9.15,3.838c3.651,0,6.659-1.278,9.014-3.838C850.303,431.321,851.484,427.776,851.484,423.245
	L851.484,423.245z M830.127,521.463c-3.271-1.19-5.703-2.91-7.285-5.137c-1.572-2.207-2.362-4.883-2.362-7.969
	c0-4.688,1.68-8.613,5.038-11.816c3.369-3.184,7.843-4.766,13.429-4.766c5.614,0,10.137,1.621,13.555,4.883
	s5.137,7.227,5.137,11.914c0,2.987-0.791,5.586-2.354,7.793c-1.563,2.207-3.937,3.906-7.129,5.098
	c3.955,1.289,6.953,3.359,9.014,6.23c2.07,2.871,3.096,6.289,3.096,10.272c0,5.488-1.942,10.117-5.83,13.849
	c-3.896,3.75-9.014,5.625-15.36,5.625c-6.338,0-11.455-1.875-15.353-5.646c-3.887-3.75-5.83-8.438-5.83-14.063
	c0-4.181,1.056-7.677,3.185-10.488C823.193,524.412,826.211,522.498,830.127,521.463z M826.006,537.791
	c0,2.246,0.527,4.434,1.603,6.523c1.063,2.108,2.655,3.75,4.756,4.901c2.108,1.152,4.375,1.719,6.797,1.719
	c3.779,0,6.895-1.211,9.346-3.633c2.461-2.422,3.691-5.508,3.691-9.258c0-3.789-1.271-6.934-3.799-9.434
	c-2.529-2.48-5.693-3.73-9.503-3.73c-3.711,0-6.786,1.23-9.229,3.691S826.006,534.1,826.006,537.791L826.006,537.791z
	 M828.545,508.084c0,3.047,0.986,5.527,2.939,7.461c1.963,1.935,4.502,2.891,7.637,2.891c3.037,0,5.537-0.956,7.48-2.87
	c1.942-1.914,2.92-4.259,2.92-7.031c0-2.91-1.007-5.332-3.009-7.305c-2.002-1.974-4.502-2.97-7.479-2.97
	c-3.019,0-5.519,0.957-7.5,2.892C829.541,503.084,828.545,505.389,828.545,508.084L828.545,508.084z M859.473,638.592v7.578h-42.5
	c-0.067-1.895,0.244-3.729,0.918-5.469c1.084-2.91,2.813-5.762,5.195-8.555c2.383-2.813,5.83-6.056,10.332-9.746
	c6.992-5.742,11.709-10.273,14.17-13.613c2.451-3.359,3.682-6.523,3.682-9.512c0-3.125-1.112-5.763-3.35-7.91
	c-2.246-2.148-5.156-3.223-8.76-3.223c-3.799,0-6.836,1.133-9.121,3.418c-2.275,2.284-3.438,5.448-3.467,9.473l-8.115-0.84
	c0.557-6.035,2.646-10.664,6.279-13.828c3.623-3.185,8.485-4.766,14.6-4.766c6.172,0,11.055,1.719,14.658,5.137
	c3.594,3.418,5.391,7.656,5.391,12.715c0,2.578-0.526,5.117-1.571,7.598c-1.056,2.48-2.804,5.099-5.244,7.853
	c-2.441,2.754-6.504,6.522-12.179,11.309c-4.735,3.984-7.772,6.681-9.12,8.105c-1.349,1.405-2.462,2.832-3.341,4.276H859.473
	L859.473,638.592z"/>
</svg>
