<?xml version="1.0" encoding="utf-8"?>
<!-- Generator: Adobe Illustrator 16.0.3, SVG Export Plug-In . SVG Version: 6.00 Build 0)  -->
<!DOCTYPE svg PUBLIC "-//W3C//DTD SVG 1.1//EN" "http://www.w3.org/Graphics/SVG/1.1/DTD/svg11.dtd">
<svg version="1.1" id="Layer_1" xmlns="http://www.w3.org/2000/svg" xmlns:xlink="http://www.w3.org/1999/xlink" x="0px" y="0px"
	 width="8030px" height="1170px" viewBox="0 0 8030 1170" enable-background="new 0 0 8030 1170" xml:space="preserve">
<g>
	<path fill="#00637E" d="M251.86,629.529h165.498v165.498H251.86V629.529z"/>
	<g>
		<path fill="#999999" d="M505.442,751.518l36.398-94.776h13.512l38.79,94.776h-14.288L568.8,722.814h-39.63l-10.409,28.703H505.442
			L505.442,751.518z M532.79,712.6h32.131l-9.893-26.248c-3.018-7.975-5.259-14.524-6.724-19.653
			c-1.229,6.157-2.938,12.209-5.107,18.102L532.79,712.6z M602.418,751.518v-94.776h11.637v94.776H602.418L602.418,751.518z
			 M632.157,751.518v-94.776h11.637v54.048l27.541-27.93h15.063l-26.248,25.473l28.898,43.188h-14.354l-22.69-35.104l-8.21,7.887
			v27.218h-11.637V751.518z M743.096,743.049c-4.311,3.663-8.459,6.249-12.445,7.758c-3.987,1.508-8.265,2.264-12.833,2.264
			c-7.543,0-13.34-1.844-17.391-5.527c-4.052-3.686-6.077-8.395-6.077-14.126c0-3.362,0.765-6.433,2.295-9.213
			c1.529-2.78,3.534-5.011,6.013-6.69c2.479-1.682,5.271-2.951,8.372-3.814c2.284-0.604,5.731-1.186,10.344-1.745
			c9.396-1.12,16.313-2.457,20.753-4.009c0.042-1.594,0.064-2.607,0.064-3.038c0-4.741-1.099-8.081-3.297-10.021
			c-2.976-2.63-7.394-3.945-13.253-3.945c-5.476,0-9.515,0.961-12.122,2.877c-2.608,1.92-4.537,5.313-5.786,10.184l-11.378-1.552
			c1.035-4.87,2.737-8.804,5.107-11.8c2.37-2.994,5.796-5.301,10.279-6.916c4.482-1.616,9.675-2.426,15.581-2.426
			c5.861,0,10.624,0.69,14.288,2.069c3.663,1.38,6.357,3.114,8.082,5.204c1.723,2.091,2.93,4.73,3.62,7.92
			c0.388,1.982,0.582,5.561,0.582,10.73v15.517c0,10.819,0.248,17.661,0.744,20.526c0.495,2.867,1.476,5.613,2.941,8.242h-12.154
			C744.216,749.105,743.439,746.282,743.096,743.049L743.096,743.049z M742.126,717.061c-4.227,1.724-10.563,3.188-19.007,4.396
			c-4.784,0.69-8.168,1.466-10.15,2.328c-1.983,0.862-3.513,2.123-4.59,3.78c-1.078,1.66-1.616,3.504-1.616,5.528
			c0,3.104,1.174,5.688,3.523,7.759c2.349,2.067,5.786,3.103,10.312,3.103c4.482,0,8.469-0.979,11.96-2.94s6.055-4.645,7.693-8.05
			c1.25-2.628,1.875-6.507,1.875-11.637V717.061L742.126,717.061z M771.671,751.518v-94.776h11.637v94.776H771.671L771.671,751.518z
			 M801.41,670.124v-13.383h11.637v13.383H801.41z M801.41,751.518v-68.658h11.637v68.658H801.41z M868.645,751.518v-94.776h18.878
			l22.434,67.106c2.069,6.25,3.577,10.926,4.525,14.028c1.077-3.446,2.758-8.511,5.042-15.192l22.692-65.942h16.874v94.776H947
			v-79.324l-27.541,79.324h-11.313l-27.411-80.683v80.683H868.645L868.645,751.518z M1024.839,729.408l12.023,1.486
			c-1.896,7.025-5.409,12.479-10.538,16.356c-5.13,3.879-11.681,5.817-19.654,5.817c-10.043,0-18.005-3.092-23.888-9.276
			c-5.883-6.185-8.825-14.858-8.825-26.021c0-11.551,2.974-20.517,8.922-26.896c5.948-6.378,13.662-9.567,23.145-9.567
			c9.18,0,16.68,3.125,22.498,9.373c5.819,6.25,8.729,15.043,8.729,26.379c0,0.688-0.022,1.724-0.065,3.103h-51.203
			c0.43,7.543,2.564,13.317,6.4,17.326c3.835,4.009,8.62,6.013,14.352,6.013c4.267,0,7.909-1.12,10.926-3.361
			C1020.68,737.898,1023.071,734.321,1024.839,729.408L1024.839,729.408z M986.631,710.594h38.337
			c-0.519-5.773-1.983-10.105-4.396-12.994c-3.708-4.481-8.513-6.724-14.417-6.724c-5.345,0-9.838,1.789-13.479,5.366
			C989.034,699.821,987.019,704.605,986.631,710.594z M1076.883,741.109l1.681,10.279c-3.276,0.688-6.206,1.034-8.792,1.034
			c-4.224,0-7.499-0.669-9.827-2.004c-2.327-1.336-3.966-3.093-4.913-5.271c-0.949-2.176-1.422-6.756-1.422-13.737V691.91h-8.534
			v-9.051h8.534v-17.004l11.572-6.98v23.984h11.702v9.051h-11.702v40.146c0,3.319,0.204,5.453,0.614,6.4
			c0.409,0.949,1.077,1.703,2.004,2.263c0.926,0.563,2.251,0.841,3.976,0.841C1073.067,741.563,1074.77,741.412,1076.883,741.109
			L1076.883,741.109z M1133.063,743.049c-4.311,3.663-8.459,6.249-12.445,7.758c-3.987,1.508-8.265,2.264-12.833,2.264
			c-7.543,0-13.34-1.844-17.391-5.527c-4.052-3.686-6.077-8.395-6.077-14.126c0-3.362,0.765-6.433,2.295-9.213
			c1.529-2.78,3.534-5.011,6.013-6.69c2.478-1.682,5.269-2.951,8.372-3.814c2.284-0.604,5.731-1.186,10.344-1.745
			c9.396-1.12,16.313-2.457,20.753-4.009c0.042-1.594,0.063-2.607,0.063-3.038c0-4.741-1.099-8.081-3.297-10.021
			c-2.974-2.63-7.392-3.945-13.253-3.945c-5.474,0-9.515,0.961-12.122,2.877c-2.608,1.92-4.537,5.313-5.786,10.184l-11.378-1.552
			c1.035-4.87,2.737-8.804,5.107-11.8c2.37-2.994,5.796-5.301,10.279-6.916c4.482-1.616,9.675-2.426,15.581-2.426
			c5.861,0,10.624,0.69,14.288,2.069c3.663,1.38,6.357,3.114,8.082,5.204c1.723,2.091,2.93,4.73,3.62,7.92
			c0.388,1.982,0.582,5.561,0.582,10.73v15.517c0,10.819,0.248,17.661,0.744,20.526c0.495,2.867,1.478,5.613,2.941,8.242h-12.154
			C1134.183,749.105,1133.408,746.282,1133.063,743.049L1133.063,743.049z M1132.094,717.061
			c-4.225,1.724-10.561,3.188-19.007,4.396c-4.784,0.69-8.168,1.466-10.15,2.328c-1.981,0.862-3.513,2.123-4.59,3.78
			c-1.078,1.66-1.616,3.504-1.616,5.528c0,3.104,1.174,5.688,3.523,7.759c2.349,2.067,5.786,3.103,10.312,3.103
			c4.482,0,8.469-0.979,11.96-2.94c3.491-1.961,6.055-4.645,7.693-8.05c1.25-2.628,1.875-6.507,1.875-11.637V717.061
			L1132.094,717.061z M1161.639,751.518v-94.776h11.637v94.776H1161.639L1161.639,751.518z M1186.658,731.023l11.508-1.811
			c0.646,4.613,2.446,8.146,5.396,10.604c2.952,2.457,7.079,3.686,12.38,3.686c5.344,0,9.312-1.088,11.896-3.266
			c2.586-2.176,3.879-4.729,3.879-7.66c0-2.629-1.145-4.697-3.426-6.206c-1.595-1.035-5.56-2.349-11.896-3.944
			c-8.534-2.154-14.449-4.018-17.747-5.592c-3.297-1.572-5.797-3.75-7.5-6.529s-2.554-5.852-2.554-9.213
			c0-3.06,0.7-5.894,2.102-8.502c1.377-2.58,3.336-4.804,5.721-6.497c1.81-1.335,4.277-2.467,7.402-3.394
			c3.125-0.928,6.477-1.391,10.053-1.391c5.387,0,10.118,0.775,14.19,2.326c4.073,1.553,7.08,3.653,9.019,6.305
			c1.939,2.65,3.275,6.195,4.008,10.635l-11.378,1.552c-0.52-3.533-2.018-6.292-4.493-8.274c-2.479-1.981-5.98-2.975-10.506-2.975
			c-5.345,0-9.159,0.885-11.443,2.65c-2.285,1.769-3.426,3.837-3.426,6.207c0,1.509,0.474,2.865,1.422,4.072
			c0.948,1.25,2.435,2.284,4.461,3.104c1.164,0.432,4.59,1.422,10.279,2.974c8.23,2.198,13.975,3.998,17.229,5.398
			c3.253,1.401,5.807,3.438,7.661,6.108c1.853,2.674,2.78,5.991,2.78,9.957c0,3.879-1.131,7.531-3.396,10.957
			c-2.263,3.428-5.528,6.077-9.794,7.952c-4.267,1.875-9.095,2.813-14.48,2.813c-8.921,0-15.721-1.854-20.397-5.561
			C1190.935,743.803,1187.951,738.309,1186.658,731.023z"/>
	</g>
	<path fill="#30A1BF" d="M2087.222,629.529h165.508v165.498h-165.508V629.529z"/>
	<g>
		<path fill="#999999" d="M2302.192,751.525l36.398-94.776h13.512l38.79,94.776h-14.288l-11.055-28.703h-39.63l-10.409,28.703
			H2302.192L2302.192,751.525z M2329.54,712.607h32.131l-9.891-26.248c-3.018-7.975-5.259-14.524-6.724-19.653
			c-1.229,6.157-2.937,12.21-5.107,18.103L2329.54,712.607L2329.54,712.607z M2399.167,751.525v-94.776h11.637v94.776H2399.167
			L2399.167,751.525z M2428.907,751.525v-94.776h11.637v54.048l27.541-27.929h15.063l-26.248,25.472l28.898,43.188h-14.352
			l-22.692-35.104l-8.21,7.888v27.217h-11.637L2428.907,751.525z M2539.846,743.057c-4.311,3.664-8.459,6.25-12.445,7.758
			c-3.987,1.509-8.265,2.264-12.833,2.264c-7.543,0-13.34-1.844-17.391-5.527c-4.052-3.686-6.077-8.394-6.077-14.126
			c0-3.362,0.765-6.433,2.295-9.213c1.529-2.78,3.534-5.011,6.013-6.69c2.478-1.682,5.269-2.951,8.372-3.814
			c2.284-0.604,5.731-1.186,10.344-1.745c9.396-1.12,16.313-2.457,20.753-4.009c0.042-1.594,0.064-2.607,0.064-3.038
			c0-4.741-1.099-8.081-3.297-10.021c-2.974-2.629-7.392-3.944-13.253-3.944c-5.474,0-9.515,0.96-12.122,2.877
			c-2.608,1.919-4.537,5.313-5.786,10.183l-11.378-1.552c1.035-4.87,2.737-8.803,5.107-11.799c2.37-2.995,5.796-5.302,10.279-6.917
			c4.482-1.616,9.675-2.426,15.581-2.426c5.861,0,10.624,0.69,14.288,2.07c3.663,1.379,6.357,3.113,8.082,5.203
			c1.723,2.092,2.93,4.73,3.62,7.92c0.388,1.982,0.582,5.561,0.582,10.731v15.516c0,10.819,0.248,17.661,0.744,20.526
			c0.495,2.867,1.476,5.613,2.941,8.242h-12.154C2540.966,749.113,2540.189,746.29,2539.846,743.057L2539.846,743.057z
			 M2538.875,717.068c-4.225,1.724-10.561,3.188-19.007,4.396c-4.784,0.69-8.168,1.466-10.15,2.328
			c-1.983,0.862-3.513,2.123-4.59,3.781c-1.078,1.659-1.616,3.503-1.616,5.528c0,3.103,1.174,5.688,3.523,7.758
			c2.349,2.067,5.786,3.103,10.312,3.103c4.482,0,8.469-0.979,11.96-2.94s6.055-4.645,7.693-8.049
			c1.25-2.629,1.875-6.508,1.875-11.638V717.068L2538.875,717.068z M2568.421,751.525v-94.776h11.637v94.776H2568.421
			L2568.421,751.525z M2598.16,670.131v-13.383h11.637v13.383H2598.16z M2598.16,751.525v-68.657h11.637v68.657H2598.16z
			 M2666.042,751.525v-94.776h68.529v11.187h-55.987v29.026h52.431v11.12h-52.431v32.26h58.185v11.186L2666.042,751.525
			L2666.042,751.525z M2797.411,743.057c-4.311,3.664-8.459,6.25-12.445,7.758c-3.987,1.509-8.265,2.264-12.833,2.264
			c-7.543,0-13.34-1.844-17.391-5.527c-4.052-3.686-6.077-8.394-6.077-14.126c0-3.362,0.765-6.433,2.295-9.213
			c1.529-2.78,3.534-5.011,6.013-6.69c2.478-1.682,5.269-2.951,8.372-3.814c2.284-0.604,5.731-1.186,10.344-1.745
			c9.396-1.12,16.313-2.457,20.753-4.009c0.042-1.594,0.064-2.607,0.064-3.038c0-4.741-1.099-8.081-3.297-10.021
			c-2.974-2.629-7.392-3.944-13.253-3.944c-5.474,0-9.515,0.96-12.122,2.877c-2.608,1.919-4.537,5.313-5.786,10.183l-11.378-1.552
			c1.035-4.87,2.737-8.803,5.107-11.799c2.37-2.995,5.796-5.302,10.279-6.917c4.482-1.616,9.675-2.426,15.581-2.426
			c5.861,0,10.624,0.69,14.288,2.07c3.663,1.379,6.357,3.113,8.082,5.203c1.723,2.092,2.93,4.73,3.62,7.92
			c0.388,1.982,0.582,5.561,0.582,10.731v15.516c0,10.819,0.248,17.661,0.744,20.526c0.495,2.867,1.476,5.613,2.941,8.242h-12.154
			C2798.531,749.113,2797.755,746.29,2797.411,743.057L2797.411,743.057z M2796.44,717.068c-4.225,1.724-10.561,3.188-19.007,4.396
			c-4.784,0.69-8.168,1.466-10.15,2.328c-1.983,0.862-3.513,2.123-4.59,3.781c-1.078,1.659-1.616,3.503-1.616,5.528
			c0,3.103,1.174,5.688,3.523,7.758c2.349,2.067,5.786,3.103,10.312,3.103c4.482,0,8.469-0.979,11.96-2.94s6.055-4.645,7.693-8.049
			c1.25-2.629,1.875-6.508,1.875-11.638V717.068L2796.44,717.068z M2826.115,751.525v-68.657h10.473v10.407
			c2.672-4.868,5.14-8.08,7.402-9.633c2.263-1.551,4.752-2.326,7.467-2.326c3.921,0,7.908,1.25,11.96,3.75l-4.008,10.797
			c-2.845-1.682-5.689-2.521-8.534-2.521c-2.543,0-4.828,0.766-6.853,2.295c-2.026,1.53-3.47,3.652-4.332,6.368
			c-1.293,4.138-1.939,8.663-1.939,13.576v35.944H2826.115L2826.115,751.525z M2895.743,741.118l1.681,10.278
			c-3.276,0.688-6.206,1.035-8.792,1.035c-4.224,0-7.499-0.67-9.827-2.004c-2.327-1.337-3.966-3.094-4.913-5.271
			c-0.949-2.177-1.422-6.757-1.422-13.738v-39.501h-8.534v-9.051h8.534v-17.003l11.572-6.981v23.984h11.702v9.051h-11.702v40.146
			c0,3.319,0.204,5.453,0.614,6.4c0.409,0.949,1.077,1.703,2.004,2.264c0.926,0.561,2.251,0.84,3.976,0.84
			C2891.929,741.57,2893.631,741.419,2895.743,741.118L2895.743,741.118z M2907.121,751.525v-94.776h11.637v34.007
			c5.431-6.293,12.283-9.439,20.559-9.439c5.085,0,9.503,1.002,13.253,3.008c3.75,2.004,6.433,4.773,8.049,8.307
			c1.616,3.535,2.424,8.663,2.424,15.387v43.51h-11.637v-43.51c0-5.817-1.26-10.053-3.782-12.703
			c-2.522-2.649-6.088-3.977-10.7-3.977c-3.449,0-6.691,0.896-9.73,2.684c-3.038,1.789-5.204,4.213-6.497,7.272
			c-1.293,3.062-1.939,7.285-1.939,12.672v37.562h-11.637V751.525z M3018.642,751.525v-94.776h18.878l22.434,67.106
			c2.069,6.25,3.577,10.927,4.525,14.028c1.077-3.446,2.758-8.511,5.042-15.192l22.692-65.942h16.874v94.776h-12.089v-79.324
			l-27.541,79.324h-11.314l-27.411-80.683v80.683H3018.642L3018.642,751.525z M3174.835,729.416l12.025,1.486
			c-1.897,7.025-5.409,12.479-10.538,16.356c-5.13,3.88-11.681,5.818-19.654,5.818c-10.043,0-18.005-3.093-23.888-9.277
			c-5.883-6.185-8.825-14.858-8.825-26.021c0-11.551,2.974-20.516,8.922-26.896c5.948-6.378,13.662-9.567,23.145-9.567
			c9.18,0,16.68,3.125,22.498,9.373c5.819,6.25,8.728,15.043,8.728,26.379c0,0.688-0.022,1.724-0.065,3.103h-51.203
			c0.43,7.543,2.564,13.318,6.4,17.326c3.835,4.009,8.62,6.013,14.352,6.013c4.267,0,7.909-1.119,10.926-3.361
			C3170.676,737.907,3173.067,734.329,3174.835,729.416L3174.835,729.416z M3136.627,710.602h38.337
			c-0.517-5.773-1.983-10.105-4.396-12.994c-3.708-4.481-8.513-6.724-14.417-6.724c-5.345,0-9.838,1.789-13.479,5.366
			C3139.03,699.829,3137.016,704.613,3136.627,710.602z M3226.878,741.118l1.681,10.278c-3.276,0.688-6.206,1.035-8.792,1.035
			c-4.224,0-7.499-0.67-9.827-2.004c-2.327-1.337-3.966-3.094-4.913-5.271c-0.949-2.177-1.422-6.757-1.422-13.738v-39.501h-8.534
			v-9.051h8.534v-17.003l11.572-6.981v23.984h11.702v9.051h-11.702v40.146c0,3.319,0.204,5.453,0.614,6.4
			c0.409,0.949,1.077,1.703,2.004,2.264c0.926,0.561,2.251,0.84,3.976,0.84C3223.064,741.57,3224.767,741.419,3226.878,741.118
			L3226.878,741.118z M3283.06,743.057c-4.311,3.664-8.459,6.25-12.445,7.758c-3.987,1.509-8.265,2.264-12.833,2.264
			c-7.543,0-13.34-1.844-17.391-5.527c-4.052-3.686-6.077-8.394-6.077-14.126c0-3.362,0.765-6.433,2.295-9.213
			c1.529-2.78,3.534-5.011,6.013-6.69c2.478-1.682,5.269-2.951,8.372-3.814c2.284-0.604,5.731-1.186,10.344-1.745
			c9.396-1.12,16.313-2.457,20.753-4.009c0.042-1.594,0.064-2.607,0.064-3.038c0-4.741-1.099-8.081-3.297-10.021
			c-2.974-2.629-7.392-3.944-13.253-3.944c-5.474,0-9.515,0.96-12.122,2.877c-2.608,1.919-4.537,5.313-5.786,10.183l-11.378-1.552
			c1.035-4.87,2.737-8.803,5.107-11.799c2.37-2.995,5.796-5.302,10.279-6.917c4.482-1.616,9.675-2.426,15.581-2.426
			c5.861,0,10.624,0.69,14.288,2.07c3.663,1.379,6.357,3.113,8.082,5.203c1.723,2.092,2.93,4.73,3.62,7.92
			c0.388,1.982,0.582,5.561,0.582,10.731v15.516c0,10.819,0.248,17.661,0.744,20.526c0.495,2.867,1.476,5.613,2.941,8.242h-12.154
			C3284.18,749.113,3283.404,746.29,3283.06,743.057L3283.06,743.057z M3282.09,717.068c-4.225,1.724-10.561,3.188-19.007,4.396
			c-4.784,0.69-8.168,1.466-10.15,2.328c-1.983,0.862-3.513,2.123-4.59,3.781c-1.078,1.659-1.616,3.503-1.616,5.528
			c0,3.103,1.174,5.688,3.523,7.758c2.349,2.067,5.786,3.103,10.312,3.103c4.482,0,8.469-0.979,11.96-2.94
			c3.491-1.961,6.055-4.645,7.693-8.049c1.25-2.629,1.875-6.508,1.875-11.638V717.068L3282.09,717.068z M3311.635,751.525v-94.776
			h11.637v94.776H3311.635L3311.635,751.525z M3336.654,731.032l11.508-1.812c0.646,4.613,2.446,8.146,5.398,10.604
			c2.952,2.456,7.079,3.685,12.38,3.685c5.344,0,9.31-1.088,11.896-3.265c2.586-2.177,3.879-4.729,3.879-7.661
			c0-2.629-1.143-4.697-3.426-6.206c-1.595-1.035-5.56-2.349-11.896-3.944c-8.534-2.153-14.449-4.018-17.747-5.592
			c-3.297-1.572-5.797-3.75-7.5-6.529s-2.554-5.852-2.554-9.213c0-3.06,0.7-5.894,2.102-8.502c1.377-2.58,3.335-4.805,5.721-6.496
			c1.811-1.336,4.277-2.468,7.402-3.395s6.475-1.391,10.053-1.391c5.387,0,10.118,0.775,14.19,2.326
			c4.073,1.553,7.08,3.653,9.019,6.305c1.939,2.65,3.275,6.195,4.008,10.635l-11.378,1.552c-0.518-3.532-2.016-6.292-4.493-8.274
			c-2.479-1.981-5.98-2.975-10.506-2.975c-5.345,0-9.159,0.885-11.443,2.65c-2.285,1.77-3.426,3.837-3.426,6.207
			c0,1.509,0.474,2.865,1.422,4.072c0.948,1.25,2.435,2.285,4.461,3.104c1.164,0.432,4.59,1.422,10.279,2.975
			c8.232,2.197,13.975,3.998,17.229,5.397c3.253,1.401,5.807,3.438,7.661,6.108c1.853,2.674,2.78,5.992,2.78,9.957
			c0,3.879-1.131,7.531-3.394,10.957c-2.263,3.428-5.528,6.078-9.794,7.953c-4.267,1.875-9.095,2.813-14.482,2.813
			c-8.921,0-15.721-1.854-20.397-5.561C3340.932,743.811,3337.947,738.316,3336.654,731.032L3336.654,731.032z"/>
	</g>
	<path fill="#E3E2D5" d="M4148.833,629.529h165.508v165.498h-165.508V629.529z"/>
	<g>
		<path fill="#999999" d="M4405.669,751.51v-83.592h-31.228v-11.186h75.123v11.186h-31.354v83.592H4405.669L4405.669,751.51z
			 M4455.902,751.51v-68.658h10.475v10.408c2.672-4.869,5.14-8.08,7.4-9.633c2.266-1.551,4.752-2.327,7.47-2.327
			c3.921,0,7.906,1.251,11.96,3.75l-4.01,10.798c-2.845-1.683-5.688-2.521-8.532-2.521c-2.544,0-4.827,0.766-6.854,2.295
			c-2.025,1.529-3.471,3.652-4.332,6.368c-1.293,4.138-1.938,8.663-1.938,13.575v35.945H4455.902L4455.902,751.51z
			 M4544.925,743.041c-4.313,3.663-8.459,6.249-12.445,7.758c-3.987,1.508-8.265,2.264-12.833,2.264
			c-7.543,0-13.34-1.844-17.391-5.527c-4.053-3.686-6.077-8.395-6.077-14.126c0-3.362,0.765-6.433,2.295-9.213
			c1.529-2.78,3.533-5.011,6.013-6.691s5.271-2.95,8.372-3.813c2.284-0.604,5.731-1.186,10.344-1.745
			c9.396-1.12,16.313-2.457,20.753-4.009c0.044-1.594,0.064-2.607,0.064-3.039c0-4.74-1.099-8.08-3.297-10.021
			c-2.975-2.629-7.393-3.944-13.254-3.944c-5.476,0-9.517,0.961-12.121,2.877c-2.608,1.92-4.537,5.313-5.786,10.184l-11.379-1.553
			c1.034-4.869,2.736-8.803,5.106-11.799c2.369-2.994,5.797-5.301,10.278-6.916c4.482-1.617,9.676-2.426,15.581-2.426
			c5.86,0,10.623,0.69,14.287,2.069c3.663,1.38,6.357,3.114,8.081,5.204c1.724,2.091,2.931,4.73,3.621,7.92
			c0.388,1.982,0.581,5.561,0.581,10.73v15.517c0,10.819,0.248,17.661,0.744,20.526c0.494,2.866,1.476,5.613,2.939,8.242h-12.154
			C4546.045,749.098,4545.27,746.273,4544.925,743.041L4544.925,743.041z M4543.955,717.052c-4.227,1.724-10.563,3.189-19.009,4.396
			c-4.782,0.69-8.169,1.466-10.148,2.327c-1.983,0.863-3.516,2.123-4.59,3.781c-1.078,1.66-1.616,3.504-1.616,5.528
			c0,3.103,1.174,5.688,3.521,7.758c2.351,2.068,5.786,3.104,10.313,3.104c4.479,0,8.469-0.979,11.96-2.941
			c3.491-1.961,6.055-4.645,7.693-8.049c1.247-2.628,1.875-6.507,1.875-11.637V717.052L4543.955,717.052z M4573.758,751.51v-68.658
			h10.474v9.763c5.043-7.541,12.326-11.313,21.854-11.313c4.138,0,7.938,0.744,11.409,2.23s6.065,3.438,7.791,5.851
			c1.724,2.415,2.932,5.28,3.619,8.599c0.433,2.156,0.646,5.928,0.646,11.313v42.217h-11.637v-41.764
			c0-4.741-0.453-8.285-1.357-10.636c-0.905-2.348-2.512-4.223-4.816-5.625c-2.307-1.398-5.011-2.1-8.112-2.1
			c-4.957,0-9.234,1.572-12.833,4.719c-3.601,3.146-5.398,9.115-5.398,17.908v37.496H4573.758z M4642.739,731.016l11.51-1.811
			c0.646,4.613,2.443,8.146,5.396,10.604s7.079,3.686,12.381,3.686c5.344,0,9.312-1.088,11.896-3.266
			c2.586-2.176,3.879-4.729,3.879-7.66c0-2.629-1.143-4.697-3.427-6.207c-1.597-1.034-5.562-2.348-11.896-3.943
			c-8.533-2.154-14.449-4.018-17.746-5.592c-3.297-1.573-5.797-3.75-7.499-6.529c-1.703-2.779-2.554-5.852-2.554-9.213
			c0-3.061,0.7-5.895,2.101-8.502c1.379-2.58,3.338-4.805,5.724-6.497c1.811-1.335,4.275-2.467,7.4-3.394
			c3.125-0.928,6.478-1.392,10.056-1.392c5.387,0,10.115,0.776,14.188,2.327c4.072,1.553,7.079,3.653,9.021,6.305
			c1.938,2.65,3.272,6.195,4.008,10.635l-11.378,1.552c-0.52-3.533-2.017-6.292-4.493-8.275c-2.479-1.981-5.98-2.974-10.506-2.974
			c-5.345,0-9.159,0.884-11.443,2.65c-2.284,1.769-3.426,3.836-3.426,6.207c0,1.508,0.474,2.865,1.422,4.071
			c0.947,1.251,2.436,2.285,4.461,3.104c1.164,0.432,4.59,1.422,10.279,2.974c8.23,2.198,13.975,3.998,17.229,5.397
			c3.256,1.401,5.81,3.438,7.661,6.109c1.854,2.674,2.779,5.991,2.779,9.956c0,3.879-1.131,7.532-3.395,10.958
			c-2.264,3.428-5.526,6.077-9.796,7.952c-4.267,1.875-9.094,2.813-14.479,2.813c-8.922,0-15.721-1.854-20.396-5.561
			C4647.016,743.795,4644.033,738.3,4642.739,731.016L4642.739,731.016z M4713.66,670.116v-13.384h11.639v13.384H4713.66z
			 M4713.66,751.51v-68.658h11.639v68.658H4713.66z M4768.418,741.102l1.682,10.279c-3.276,0.688-6.207,1.034-8.793,1.034
			c-4.225,0-7.499-0.669-9.826-2.004c-2.328-1.336-3.966-3.093-4.914-5.271c-0.947-2.176-1.422-6.756-1.422-13.738v-39.5h-8.534
			v-9.051h8.534v-17.004l11.572-6.98v23.984h11.701v9.051h-11.701v40.146c0,3.319,0.204,5.453,0.614,6.4
			c0.409,0.949,1.074,1.703,2.004,2.263c0.927,0.562,2.252,0.841,3.976,0.841C4764.604,741.555,4766.306,741.404,4768.418,741.102
			L4768.418,741.102z M4779.861,670.116v-13.384h11.64v13.384H4779.861z M4779.861,751.51v-68.658h11.64v68.658H4779.861z
			 M4804.882,717.182c0-12.715,3.532-22.133,10.603-28.252c5.904-5.086,13.104-7.63,21.594-7.63c9.438,0,17.152,3.095,23.146,9.277
			c5.99,6.187,8.986,14.729,8.986,25.634c0,8.836-1.325,15.786-3.978,20.85c-2.65,5.064-6.509,8.998-11.572,11.799
			c-5.063,2.802-10.593,4.203-16.582,4.203c-9.61,0-17.382-3.082-23.308-9.246C4807.845,737.654,4804.882,728.775,4804.882,717.182z
			 M4816.842,717.182c0,8.791,1.917,15.377,5.754,19.75c3.836,4.375,8.663,6.563,14.48,6.563c5.774,0,10.579-2.198,14.416-6.596
			c3.838-4.396,5.756-11.096,5.756-20.104c0-8.489-1.932-14.923-5.786-19.298c-3.858-4.374-8.653-6.563-14.386-6.563
			c-5.817,0-10.646,2.176-14.48,6.529C4818.759,701.816,4816.842,708.389,4816.842,717.182z M4882.849,751.51v-68.658h10.474v9.763
			c5.043-7.541,12.326-11.313,21.854-11.313c4.138,0,7.938,0.744,11.41,2.23c3.47,1.486,6.064,3.438,7.791,5.851
			c1.723,2.415,2.931,5.28,3.62,8.599c0.431,2.156,0.646,5.928,0.646,11.313v42.217h-11.637v-41.764
			c0-4.741-0.453-8.285-1.357-10.636c-0.904-2.348-2.512-4.223-4.814-5.625c-2.309-1.398-5.012-2.1-8.114-2.1
			c-4.957,0-9.234,1.572-12.833,4.719c-3.6,3.146-5.398,9.115-5.398,17.908v37.496H4882.849L4882.849,751.51z M4994.369,751.51
			v-94.777h18.877l22.436,67.107c2.069,6.25,3.577,10.926,4.524,14.028c1.077-3.447,2.759-8.511,5.043-15.192l22.691-65.943h16.873
			v94.777h-12.089v-79.324l-27.541,79.324h-11.313l-27.412-80.683v80.683H4994.369L4994.369,751.51z M5150.564,729.4l12.024,1.486
			c-1.896,7.025-5.409,12.479-10.538,16.356s-11.68,5.817-19.653,5.817c-10.043,0-18.005-3.092-23.888-9.276
			c-5.884-6.185-8.825-14.858-8.825-26.021c0-11.551,2.976-20.517,8.922-26.896c5.947-6.378,13.662-9.568,23.146-9.568
			c9.181,0,16.68,3.126,22.498,9.374c5.817,6.25,8.728,15.043,8.728,26.379c0,0.688-0.021,1.723-0.063,3.103h-51.202
			c0.43,7.543,2.563,13.317,6.4,17.325c3.835,4.01,8.618,6.014,14.352,6.014c4.27,0,7.909-1.12,10.926-3.361
			C5146.407,737.893,5148.796,734.313,5150.564,729.4L5150.564,729.4z M5112.356,710.586h38.337
			c-0.518-5.773-1.98-10.105-4.396-12.994c-3.707-4.482-8.513-6.724-14.417-6.724c-5.345,0-9.838,1.789-13.479,5.366
			C5114.758,699.813,5112.744,704.598,5112.356,710.586z M5202.606,741.102l1.684,10.279c-3.276,0.688-6.207,1.034-8.793,1.034
			c-4.227,0-7.499-0.669-9.826-2.004c-2.328-1.336-3.966-3.093-4.914-5.271c-0.948-2.176-1.422-6.756-1.422-13.738v-39.5h-8.534
			v-9.051h8.534v-17.004l11.571-6.98v23.984h11.7v9.051h-11.7v40.146c0,3.319,0.203,5.453,0.613,6.4
			c0.409,0.949,1.076,1.703,2.004,2.263c0.929,0.562,2.252,0.841,3.978,0.841C5198.792,741.555,5200.494,741.404,5202.606,741.102
			L5202.606,741.102z M5258.787,743.041c-4.312,3.663-8.459,6.249-12.444,7.758c-3.987,1.508-8.265,2.264-12.833,2.264
			c-7.543,0-13.34-1.844-17.391-5.527c-4.054-3.686-6.077-8.395-6.077-14.126c0-3.362,0.765-6.433,2.295-9.213
			c1.527-2.78,3.532-5.011,6.013-6.691c2.479-1.681,5.27-2.95,8.372-3.813c2.284-0.604,5.729-1.186,10.344-1.745
			c9.396-1.12,16.313-2.457,20.753-4.009c0.042-1.594,0.064-2.607,0.064-3.039c0-4.74-1.101-8.08-3.297-10.021
			c-2.977-2.629-7.395-3.944-13.254-3.944c-5.476,0-9.517,0.961-12.121,2.877c-2.608,1.92-4.537,5.313-5.786,10.184l-11.379-1.553
			c1.034-4.869,2.734-8.803,5.105-11.799c2.37-2.994,5.796-5.301,10.279-6.916c4.481-1.617,9.676-2.426,15.581-2.426
			c5.859,0,10.623,0.69,14.287,2.069c3.663,1.38,6.355,3.114,8.081,5.204c1.724,2.091,2.931,4.73,3.621,7.92
			c0.388,1.982,0.581,5.561,0.581,10.73v15.517c0,10.819,0.248,17.661,0.744,20.526c0.494,2.866,1.476,5.613,2.939,8.242h-12.154
			C5259.91,749.098,5259.133,746.273,5258.787,743.041L5258.787,743.041z M5257.818,717.052c-4.225,1.724-10.561,3.189-19.007,4.396
			c-4.784,0.69-8.169,1.466-10.149,2.327c-1.982,0.863-3.515,2.123-4.591,3.781c-1.077,1.66-1.614,3.504-1.614,5.528
			c0,3.103,1.174,5.688,3.521,7.758c2.35,2.068,5.786,3.104,10.313,3.104c4.479,0,8.469-0.979,11.96-2.941
			c3.489-1.961,6.055-4.645,7.691-8.049c1.249-2.628,1.875-6.507,1.875-11.637V717.052L5257.818,717.052z M5287.362,751.51v-94.777
			h11.64v94.777H5287.362L5287.362,751.51z M5312.383,731.016l11.508-1.811c0.646,4.613,2.445,8.146,5.397,10.604
			s7.079,3.686,12.381,3.686c5.344,0,9.31-1.088,11.896-3.266c2.586-2.176,3.879-4.729,3.879-7.66c0-2.629-1.143-4.697-3.427-6.207
			c-1.595-1.034-5.56-2.348-11.896-3.943c-8.533-2.154-14.449-4.018-17.746-5.592c-3.297-1.573-5.797-3.75-7.499-6.529
			c-1.703-2.779-2.554-5.852-2.554-9.213c0-3.061,0.698-5.895,2.101-8.502c1.378-2.58,3.337-4.805,5.722-6.497
			c1.813-1.335,4.277-2.467,7.402-3.394c3.125-0.928,6.476-1.392,10.053-1.392c5.388,0,10.118,0.776,14.191,2.327
			c4.072,1.553,7.079,3.653,9.019,6.305c1.94,2.65,3.274,6.195,4.009,10.635l-11.379,1.552c-0.518-3.533-2.016-6.292-4.491-8.275
			c-2.479-1.981-5.98-2.974-10.507-2.974c-5.346,0-9.159,0.884-11.442,2.65c-2.284,1.769-3.426,3.836-3.426,6.207
			c0,1.508,0.474,2.865,1.422,4.071c0.946,1.251,2.435,2.285,4.461,3.104c1.164,0.432,4.59,1.422,10.279,2.974
			c8.229,2.198,13.975,3.998,17.229,5.397c3.254,1.401,5.808,3.438,7.661,6.109c1.854,2.674,2.779,5.991,2.779,9.956
			c0,3.879-1.132,7.532-3.396,10.958c-2.263,3.428-5.525,6.077-9.795,7.952c-4.267,1.875-9.094,2.813-14.48,2.813
			c-8.923,0-15.722-1.854-20.396-5.561C5316.66,743.795,5313.676,738.3,5312.383,731.016L5312.383,731.016z"/>
	</g>
	<path fill="#BAC4BA" d="M5719.429,629.529h165.498v165.498h-165.498V629.529z"/>
	<g>
		<path fill="#999999" d="M5966.342,751.51v-94.777h12.542v83.594h46.678v11.186h-59.22V751.51z M6083.811,743.041
			c-4.311,3.663-8.459,6.249-12.445,7.758c-3.986,1.508-8.265,2.264-12.833,2.264c-7.543,0-13.34-1.844-17.391-5.527
			c-4.052-3.686-6.077-8.395-6.077-14.126c0-3.362,0.765-6.433,2.295-9.213c1.529-2.78,3.533-5.011,6.013-6.691
			s5.271-2.95,8.372-3.813c2.284-0.604,5.731-1.186,10.344-1.745c9.396-1.12,16.313-2.457,20.754-4.009
			c0.041-1.594,0.063-2.607,0.063-3.039c0-4.74-1.099-8.08-3.297-10.021c-2.977-2.629-7.395-3.944-13.254-3.944
			c-5.476,0-9.515,0.961-12.121,2.877c-2.608,1.92-4.537,5.313-5.786,10.184l-11.379-1.553c1.034-4.869,2.736-8.803,5.107-11.799
			c2.368-2.994,5.795-5.301,10.277-6.916c4.482-1.617,9.678-2.426,15.581-2.426c5.86,0,10.623,0.69,14.287,2.069
			c3.663,1.38,6.357,3.114,8.081,5.204c1.726,2.091,2.932,4.73,3.621,7.92c0.389,1.982,0.581,5.561,0.581,10.73v15.517
			c0,10.819,0.248,17.661,0.744,20.526c0.495,2.866,1.478,5.613,2.94,8.242h-12.153
			C6084.931,749.098,6084.156,746.273,6083.811,743.041L6083.811,743.041z M6082.841,717.052
			c-4.227,1.724-10.563,3.189-19.007,4.396c-4.784,0.69-8.17,1.466-10.15,2.327c-1.982,0.863-3.514,2.123-4.59,3.781
			c-1.078,1.66-1.616,3.504-1.616,5.528c0,3.103,1.174,5.688,3.522,7.758c2.35,2.068,5.785,3.104,10.313,3.104
			c4.48,0,8.469-0.979,11.96-2.941c3.491-1.961,6.055-4.645,7.693-8.049c1.249-2.628,1.875-6.507,1.875-11.637V717.052
			L6082.841,717.052z M6112.644,751.51v-68.658h10.474v9.763c5.043-7.541,12.326-11.313,21.854-11.313
			c4.138,0,7.939,0.744,11.41,2.23c3.47,1.486,6.064,3.438,7.791,5.851c1.723,2.415,2.931,5.28,3.62,8.599
			c0.431,2.156,0.646,5.928,0.646,11.313v42.217h-11.637v-41.764c0-4.741-0.453-8.285-1.355-10.636
			c-0.905-2.348-2.514-4.223-4.816-5.625c-2.307-1.398-5.011-2.1-8.114-2.1c-4.957,0-9.232,1.572-12.833,4.719
			c-3.599,3.146-5.396,9.115-5.396,17.908v37.496H6112.644L6112.644,751.51z M6211.687,741.102l1.682,10.279
			c-3.274,0.688-6.207,1.034-8.793,1.034c-4.225,0-7.499-0.669-9.825-2.004c-2.327-1.336-3.967-3.093-4.914-5.271
			c-0.947-2.176-1.423-6.756-1.423-13.738v-39.5h-8.534v-9.051h8.534v-17.004l11.572-6.98v23.984h11.701v9.051h-11.701v40.146
			c0,3.319,0.204,5.453,0.614,6.4c0.408,0.949,1.076,1.703,2.004,2.263c0.927,0.562,2.252,0.841,3.976,0.841
			C6207.871,741.555,6209.574,741.404,6211.687,741.102L6211.687,741.102z M6223.065,751.51v-94.777h11.638v34.008
			c5.432-6.293,12.283-9.439,20.561-9.439c5.085,0,9.503,1.002,13.253,3.008c3.749,2.004,6.435,4.772,8.049,8.307
			c1.616,3.535,2.425,8.662,2.425,15.387v43.51h-11.638v-43.51c0-5.818-1.261-10.053-3.78-12.703
			c-2.521-2.65-6.088-3.977-10.699-3.977c-3.448,0-6.691,0.896-9.729,2.684c-3.039,1.789-5.204,4.213-6.497,7.271
			c-1.294,3.063-1.938,7.285-1.938,12.673v37.562h-11.64L6223.065,751.51z M6341.504,743.041c-4.313,3.663-8.459,6.249-12.445,7.758
			c-3.987,1.508-8.265,2.264-12.833,2.264c-7.543,0-13.34-1.844-17.392-5.527c-4.053-3.686-6.076-8.395-6.076-14.126
			c0-3.362,0.765-6.433,2.295-9.213c1.529-2.78,3.533-5.011,6.013-6.691c2.478-1.681,5.269-2.95,8.372-3.813
			c2.284-0.604,5.73-1.186,10.344-1.745c9.396-1.12,16.313-2.457,20.753-4.009c0.042-1.594,0.064-2.607,0.064-3.039
			c0-4.74-1.101-8.08-3.298-10.021c-2.976-2.629-7.394-3.944-13.254-3.944c-5.475,0-9.516,0.961-12.121,2.877
			c-2.607,1.92-4.537,5.313-5.785,10.184l-11.379-1.553c1.033-4.869,2.736-8.803,5.105-11.799c2.37-2.994,5.796-5.301,10.279-6.916
			c4.48-1.617,9.676-2.426,15.581-2.426c5.86,0,10.623,0.69,14.287,2.069c3.663,1.38,6.356,3.114,8.081,5.204
			c1.725,2.091,2.931,4.73,3.621,7.92c0.388,1.982,0.581,5.561,0.581,10.73v15.517c0,10.819,0.248,17.661,0.744,20.526
			c0.495,2.866,1.476,5.613,2.939,8.242h-12.153C6342.623,749.098,6341.849,746.273,6341.504,743.041L6341.504,743.041z
			 M6340.535,717.052c-4.226,1.724-10.562,3.189-19.008,4.396c-4.783,0.69-8.169,1.466-10.148,2.327
			c-1.983,0.863-3.516,2.123-4.592,3.781c-1.076,1.66-1.614,3.504-1.614,5.528c0,3.103,1.174,5.688,3.521,7.758
			c2.351,2.068,5.786,3.104,10.313,3.104c4.479,0,8.469-0.979,11.96-2.941c3.489-1.961,6.055-4.645,7.692-8.049
			c1.248-2.628,1.875-6.507,1.875-11.637V717.052L6340.535,717.052z M6370.337,751.51v-68.658h10.474v9.763
			c5.043-7.541,12.326-11.313,21.854-11.313c4.138,0,7.938,0.744,11.408,2.23c3.472,1.486,6.066,3.438,7.791,5.851
			c1.725,2.415,2.933,5.28,3.621,8.599c0.432,2.156,0.646,5.928,0.646,11.313v42.217h-11.637v-41.764
			c0-4.741-0.453-8.285-1.357-10.636c-0.904-2.348-2.512-4.223-4.814-5.625c-2.307-1.398-5.012-2.1-8.114-2.1
			c-4.957,0-9.233,1.572-12.833,4.719s-5.398,9.115-5.398,17.908v37.496H6370.337L6370.337,751.51z M6444.037,670.116v-13.384
			h11.638v13.384H6444.037z M6444.037,751.51v-68.658h11.638v68.658H6444.037z M6517.933,751.51v-8.662
			c-4.354,6.811-10.754,10.215-19.201,10.215c-5.474,0-10.506-1.51-15.096-4.525c-4.59-3.018-8.146-7.229-10.667-12.641
			c-2.521-5.407-3.782-11.625-3.782-18.65c0-6.854,1.144-13.068,3.427-18.65c2.284-5.582,5.711-9.859,10.279-12.834
			c4.567-2.974,9.676-4.461,15.322-4.461c4.137,0,7.822,0.873,11.055,2.618c3.232,1.746,5.861,4.021,7.889,6.821v-34.008h11.571
			v94.777H6517.933z M6481.146,717.246c0,8.793,1.854,15.365,5.563,19.719c3.706,4.354,8.081,6.529,13.124,6.529
			c5.085,0,9.405-2.079,12.962-6.238c3.556-4.158,5.334-10.506,5.334-19.04c0-9.396-1.813-16.292-5.432-20.688
			c-3.621-4.396-8.082-6.594-13.384-6.594c-5.172,0-9.493,2.111-12.962,6.336C6482.881,701.494,6481.146,708.152,6481.146,717.246z
			 M6594.025,729.4l12.024,1.486c-1.896,7.025-5.409,12.479-10.538,16.356s-11.68,5.817-19.653,5.817
			c-10.043,0-18.005-3.092-23.888-9.276c-5.885-6.185-8.825-14.858-8.825-26.021c0-11.551,2.974-20.517,8.922-26.896
			c5.947-6.378,13.662-9.568,23.146-9.568c9.181,0,16.68,3.126,22.498,9.374c5.817,6.25,8.728,15.043,8.728,26.379
			c0,0.688-0.021,1.723-0.063,3.103h-51.202c0.43,7.543,2.563,13.317,6.399,17.325c3.836,4.01,8.618,6.014,14.353,6.014
			c4.269,0,7.909-1.12,10.926-3.361C6589.869,737.893,6592.257,734.313,6594.025,729.4L6594.025,729.4z M6555.817,710.586h38.337
			c-0.518-5.773-1.98-10.105-4.396-12.994c-3.707-4.482-8.513-6.724-14.417-6.724c-5.346,0-9.838,1.789-13.479,5.366
			C6558.219,699.813,6556.205,704.598,6555.817,710.586z M6616.006,731.016l11.508-1.811c0.646,4.613,2.445,8.146,5.396,10.604
			s7.08,3.686,12.382,3.686c5.344,0,9.31-1.088,11.896-3.266c2.586-2.176,3.879-4.729,3.879-7.66c0-2.629-1.143-4.697-3.427-6.207
			c-1.595-1.034-5.56-2.348-11.896-3.943c-8.533-2.154-14.449-4.018-17.746-5.592c-3.299-1.573-5.799-3.75-7.5-6.529
			c-1.702-2.779-2.555-5.852-2.555-9.213c0-3.061,0.7-5.895,2.103-8.502c1.377-2.58,3.336-4.805,5.722-6.497
			c1.811-1.335,4.277-2.467,7.402-3.394c3.125-0.928,6.476-1.392,10.053-1.392c5.388,0,10.118,0.776,14.191,2.327
			c4.07,1.553,7.077,3.653,9.019,6.305c1.941,2.65,3.274,6.195,4.008,10.635l-11.378,1.552c-0.518-3.533-2.016-6.292-4.492-8.275
			c-2.479-1.981-5.979-2.974-10.507-2.974c-5.345,0-9.159,0.884-11.441,2.65c-2.284,1.769-3.427,3.836-3.427,6.207
			c0,1.508,0.475,2.865,1.423,4.071c0.946,1.251,2.435,2.285,4.461,3.104c1.164,0.432,4.59,1.422,10.278,2.974
			c8.23,2.198,13.976,3.998,17.229,5.397c3.254,1.401,5.809,3.438,7.66,6.109c1.854,2.674,2.779,5.991,2.779,9.956
			c0,3.879-1.132,7.532-3.395,10.958c-2.263,3.428-5.527,6.077-9.795,7.952s-9.095,2.813-14.48,2.813
			c-8.923,0-15.722-1.854-20.396-5.561C6620.283,743.795,6617.299,738.3,6616.006,731.016z"/>
	</g>
	<path fill="#759487" d="M6795.347,629.529h165.508v165.498h-165.508V629.529z"/>
	<g>
		<path fill="#999999" d="M7017.74,751.51l36.397-94.777h13.512l38.79,94.777h-14.288l-11.055-28.703h-39.631l-10.408,28.703
			H7017.74L7017.74,751.51z M7045.087,712.591h32.131l-9.892-26.248c-3.02-7.974-5.261-14.524-6.726-19.653
			c-1.229,6.158-2.938,12.211-5.106,18.103L7045.087,712.591z M7159.775,726.361l11.442,1.486c-1.25,7.889-4.45,14.063-9.602,18.522
			c-5.149,4.461-11.476,6.69-18.976,6.69c-9.396,0-16.949-3.07-22.659-9.213c-5.712-6.142-8.565-14.943-8.565-26.408
			c0-7.414,1.229-13.899,3.687-19.461c2.456-5.56,6.195-9.729,11.217-12.51c5.021-2.779,10.483-4.17,16.39-4.17
			c7.455,0,13.555,1.887,18.295,5.657s7.779,9.127,9.115,16.065l-11.313,1.744c-1.078-4.61-2.985-8.08-5.723-10.408
			c-2.736-2.326-6.045-3.49-9.925-3.49c-5.86,0-10.625,2.102-14.287,6.304c-3.664,4.202-5.496,10.851-5.496,19.944
			c0,9.224,1.77,15.926,5.304,20.105c3.531,4.182,8.146,6.271,13.834,6.271c4.567,0,8.383-1.4,11.442-4.202
			C7157.017,736.491,7158.955,732.18,7159.775,726.361L7159.775,726.361z M7206.58,741.102l1.683,10.279
			c-3.276,0.688-6.207,1.034-8.793,1.034c-4.226,0-7.499-0.669-9.826-2.004c-2.327-1.336-3.966-3.093-4.914-5.271
			c-0.948-2.176-1.422-6.756-1.422-13.738v-39.5h-8.534v-9.051h8.534v-17.004l11.571-6.98v23.984h11.701v9.051h-11.701v40.146
			c0,3.319,0.205,5.453,0.613,6.4c0.409,0.949,1.076,1.703,2.004,2.263c0.928,0.562,2.252,0.841,3.978,0.841
			C7202.767,741.555,7204.469,741.404,7206.58,741.102L7206.58,741.102z M7218.024,670.116v-13.384h11.638v13.384H7218.024z
			 M7218.024,751.51v-68.658h11.638v68.658H7218.024z M7247.376,751.51v-68.658h10.474v9.763
			c5.043-7.541,12.326-11.313,21.854-11.313c4.138,0,7.938,0.744,11.408,2.23c3.472,1.486,6.066,3.438,7.791,5.851
			c1.725,2.415,2.933,5.28,3.621,8.599c0.432,2.156,0.646,5.928,0.646,11.313v42.217h-11.637v-41.764
			c0-4.741-0.453-8.285-1.357-10.636c-0.904-2.348-2.512-4.223-4.814-5.625c-2.307-1.398-5.012-2.1-8.114-2.1
			c-4.957,0-9.233,1.572-12.833,4.719s-5.398,9.115-5.398,17.908v37.496H7247.376L7247.376,751.51z M7321.076,670.116v-13.384h11.64
			v13.384H7321.076z M7321.076,751.51v-68.658h11.64v68.658H7321.076z M7394.972,751.51v-8.662
			c-4.354,6.811-10.754,10.215-19.201,10.215c-5.474,0-10.506-1.51-15.096-4.525c-4.59-3.018-8.146-7.229-10.667-12.641
			c-2.521-5.407-3.782-11.625-3.782-18.65c0-6.854,1.144-13.068,3.427-18.65c2.284-5.582,5.711-9.859,10.279-12.834
			c4.567-2.974,9.676-4.461,15.322-4.461c4.137,0,7.822,0.873,11.055,2.618c3.232,1.746,5.861,4.021,7.889,6.821v-34.008h11.571
			v94.777H7394.972z M7358.186,717.246c0,8.793,1.854,15.365,5.563,19.719c3.705,4.354,8.08,6.529,13.123,6.529
			c5.086,0,9.406-2.079,12.963-6.238c3.556-4.158,5.334-10.506,5.334-19.04c0-9.396-1.813-16.292-5.432-20.688
			c-3.621-4.396-8.082-6.594-13.384-6.594c-5.172,0-9.493,2.111-12.962,6.336C7359.92,701.494,7358.186,708.152,7358.186,717.246z
			 M7471.064,729.4l12.024,1.486c-1.896,7.025-5.409,12.479-10.538,16.356s-11.68,5.817-19.653,5.817
			c-10.043,0-18.005-3.092-23.888-9.276c-5.885-6.185-8.825-14.858-8.825-26.021c0-11.551,2.974-20.517,8.922-26.896
			c5.947-6.378,13.662-9.568,23.146-9.568c9.181,0,16.68,3.126,22.498,9.374c5.817,6.25,8.728,15.043,8.728,26.379
			c0,0.688-0.021,1.723-0.063,3.103h-51.202c0.43,7.543,2.563,13.317,6.399,17.325c3.836,4.01,8.618,6.014,14.353,6.014
			c4.269,0,7.909-1.12,10.926-3.361C7466.908,737.893,7469.296,734.313,7471.064,729.4L7471.064,729.4z M7432.856,710.586h38.337
			c-0.518-5.773-1.98-10.105-4.396-12.994c-3.707-4.482-8.513-6.724-14.417-6.724c-5.346,0-9.838,1.789-13.479,5.366
			C7435.258,699.813,7433.244,704.598,7432.856,710.586z M7493.045,731.016l11.508-1.811c0.646,4.613,2.445,8.146,5.396,10.604
			s7.08,3.686,12.382,3.686c5.344,0,9.31-1.088,11.896-3.266c2.586-2.176,3.879-4.729,3.879-7.66c0-2.629-1.143-4.697-3.427-6.207
			c-1.595-1.034-5.56-2.348-11.896-3.943c-8.533-2.154-14.449-4.018-17.746-5.592c-3.299-1.573-5.799-3.75-7.5-6.529
			c-1.702-2.779-2.555-5.852-2.555-9.213c0-3.061,0.7-5.895,2.103-8.502c1.377-2.58,3.336-4.805,5.722-6.497
			c1.811-1.335,4.277-2.467,7.402-3.394c3.125-0.928,6.476-1.392,10.053-1.392c5.388,0,10.118,0.776,14.191,2.327
			c4.07,1.553,7.077,3.653,9.019,6.305c1.941,2.65,3.274,6.195,4.008,10.635l-11.378,1.552c-0.518-3.533-2.016-6.292-4.492-8.275
			c-2.479-1.981-5.979-2.974-10.507-2.974c-5.345,0-9.159,0.884-11.441,2.65c-2.284,1.769-3.427,3.836-3.427,6.207
			c0,1.508,0.475,2.865,1.423,4.071c0.946,1.251,2.435,2.285,4.461,3.104c1.164,0.432,4.59,1.422,10.278,2.974
			c8.23,2.198,13.976,3.998,17.229,5.397c3.254,1.401,5.809,3.438,7.66,6.109c1.854,2.674,2.779,5.991,2.779,9.956
			c0,3.879-1.132,7.532-3.395,10.958c-2.263,3.428-5.527,6.077-9.795,7.952s-9.095,2.813-14.48,2.813
			c-8.923,0-15.722-1.854-20.396-5.561C7497.322,743.795,7494.338,738.3,7493.045,731.016z"/>
	</g>
	<path fill="#9CC7C9" d="M6795.347,864.695h165.508v165.508h-165.508V864.695z"/>
	<g>
		<path fill="#999999" d="M7027.949,983.002v-94.776h12.865l49.78,74.412v-74.412h12.024v94.776h-12.865l-49.78-74.477v74.477
			H7027.949z M7117.877,948.673c0-12.714,3.533-22.132,10.603-28.252c5.904-5.085,13.104-7.629,21.593-7.629
			c9.438,0,17.153,3.094,23.146,9.277c5.99,6.186,8.986,14.729,8.986,25.634c0,8.836-1.325,15.786-3.978,20.85
			c-2.649,5.064-6.509,8.997-11.571,11.8c-5.064,2.802-10.594,4.201-16.584,4.201c-9.609,0-17.381-3.081-23.307-9.245
			C7120.84,969.146,7117.877,960.269,7117.877,948.673L7117.877,948.673z M7129.837,948.673c0,8.792,1.917,15.377,5.754,19.751
			c3.836,4.375,8.663,6.563,14.479,6.563c5.775,0,10.58-2.198,14.417-6.597c3.836-4.396,5.754-11.097,5.754-20.104
			c0-8.49-1.93-14.923-5.784-19.298c-3.858-4.374-8.653-6.563-14.387-6.563c-5.816,0-10.646,2.179-14.479,6.53
			C7131.754,933.309,7129.837,939.881,7129.837,948.673z M7206.576,983.002h-10.797v-94.776h11.637v33.813
			c4.914-6.163,11.187-9.245,18.813-9.245c4.224,0,8.221,0.854,11.992,2.554c3.771,1.703,6.874,4.098,9.31,7.179
			c2.437,3.081,4.342,6.799,5.723,11.149c1.379,4.354,2.068,9.009,2.068,13.965c0,11.768-2.91,20.86-8.729,27.282
			c-5.818,6.423-12.801,9.633-20.946,9.633c-8.104,0-14.46-3.383-19.071-10.148V983.002L7206.576,983.002z M7206.447,948.156
			c0,8.231,1.119,14.181,3.361,17.844c3.662,5.991,8.619,8.986,14.869,8.986c5.085,0,9.48-2.208,13.188-6.627
			c3.707-4.417,5.562-11,5.562-19.75c0-8.966-1.777-15.581-5.333-19.85c-3.556-4.267-7.854-6.398-12.896-6.398
			c-5.086,0-9.481,2.209-13.188,6.627C7208.299,933.406,7206.447,939.795,7206.447,948.156z M7269.221,983.002v-94.776h11.638
			v94.776H7269.221z M7345.896,960.892l12.024,1.487c-1.896,7.025-5.409,12.479-10.538,16.356s-11.68,5.816-19.653,5.816
			c-10.043,0-18.005-3.092-23.888-9.275c-5.885-6.187-8.825-14.858-8.825-26.021c0-11.55,2.974-20.516,8.922-26.895
			c5.947-6.378,13.662-9.568,23.146-9.568c9.181,0,16.68,3.126,22.498,9.374c5.817,6.25,8.728,15.043,8.728,26.378
			c0,0.689-0.021,1.724-0.063,3.104h-51.202c0.43,7.543,2.563,13.316,6.399,17.324c3.836,4.011,8.618,6.015,14.353,6.015
			c4.269,0,7.909-1.12,10.926-3.361C7341.74,969.384,7344.128,965.805,7345.896,960.892L7345.896,960.892z M7307.688,942.079h38.337
			c-0.518-5.774-1.98-10.106-4.396-12.994c-3.707-4.48-8.513-6.724-14.417-6.724c-5.346,0-9.838,1.789-13.479,5.365
			C7310.09,931.305,7308.076,936.089,7307.688,942.079z M7455.154,945.829V934.71l40.147-0.063v35.17
			c-6.164,4.911-12.521,8.607-19.071,11.087c-6.552,2.479-13.275,3.718-20.171,3.718c-9.31,0-17.769-1.993-25.375-5.98
			c-7.606-3.983-13.351-9.751-17.229-17.293c-3.877-7.542-5.816-15.969-5.816-25.276c0-9.225,1.929-17.832,5.786-25.828
			c3.854-7.994,9.405-13.934,16.646-17.813s15.58-5.816,25.021-5.816c6.854,0,13.049,1.107,18.588,3.329
			c5.537,2.221,9.879,5.313,13.024,9.275c3.146,3.966,5.538,9.14,7.178,15.518l-11.313,3.104c-1.422-4.826-3.188-8.62-5.301-11.379
			c-2.112-2.757-5.132-4.967-9.052-6.626c-3.924-1.659-8.274-2.489-13.061-2.489c-5.732,0-10.689,0.873-14.869,2.618
			c-4.182,1.746-7.555,4.041-10.117,6.886c-2.563,2.847-4.559,5.972-5.979,9.374c-2.415,5.862-3.621,12.221-3.621,19.071
			c0,8.448,1.455,15.517,4.364,21.205c2.908,5.688,7.144,9.914,12.701,12.672c5.563,2.759,11.467,4.138,17.717,4.138
			c5.431,0,10.729-1.045,15.902-3.136c5.172-2.09,9.094-4.32,11.768-6.689v-17.649h-27.865V945.829z M7557.107,974.534
			c-4.311,3.663-8.459,6.249-12.445,7.758c-3.985,1.508-8.265,2.263-12.832,2.263c-7.543,0-13.341-1.843-17.392-5.525
			c-4.052-3.688-6.077-8.396-6.077-14.126c0-3.362,0.767-6.435,2.295-9.213c1.529-2.78,3.533-5.013,6.014-6.691
			c2.479-1.681,5.27-2.951,8.371-3.814c2.284-0.603,5.731-1.185,10.346-1.743c9.396-1.12,16.313-2.457,20.753-4.011
			c0.042-1.594,0.063-2.605,0.063-3.038c0-4.739-1.099-8.081-3.297-10.021c-2.976-2.629-7.394-3.944-13.254-3.944
			c-5.474,0-9.515,0.96-12.121,2.877c-2.608,1.919-4.537,5.313-5.786,10.185l-11.379-1.554c1.034-4.868,2.736-8.803,5.107-11.799
			c2.37-2.995,5.796-5.301,10.279-6.917c4.48-1.615,9.676-2.425,15.58-2.425c5.859,0,10.623,0.69,14.287,2.069
			c3.664,1.38,6.356,3.113,8.082,5.204c1.724,2.091,2.931,4.729,3.621,7.92c0.388,1.98,0.58,5.56,0.58,10.729v15.518
			c0,10.817,0.248,17.661,0.743,20.524c0.495,2.867,1.478,5.614,2.941,8.243h-12.154
			C7558.228,980.589,7557.453,977.766,7557.107,974.534L7557.107,974.534z M7556.138,948.544
			c-4.226,1.724-10.562,3.189-19.007,4.396c-4.784,0.688-8.169,1.466-10.15,2.326c-1.981,0.862-3.514,2.123-4.59,3.781
			c-1.078,1.66-1.616,3.503-1.616,5.528c0,3.103,1.175,5.688,3.523,7.758c2.349,2.068,5.786,3.104,10.312,3.104
			c4.481,0,8.469-0.979,11.96-2.941c3.491-1.961,6.056-4.645,7.693-8.049c1.249-2.628,1.875-6.507,1.875-11.639V948.544
			L7556.138,948.544z M7581.285,962.508l11.51-1.811c0.646,4.611,2.443,8.146,5.396,10.604c2.952,2.456,7.079,3.687,12.382,3.687
			c5.345,0,9.311-1.088,11.896-3.267c2.586-2.176,3.879-4.729,3.879-7.661c0-2.629-1.145-4.695-3.427-6.204
			c-1.597-1.035-5.562-2.351-11.896-3.944c-8.532-2.154-14.448-4.02-17.746-5.592c-3.297-1.573-5.797-3.75-7.499-6.529
			c-1.701-2.78-2.554-5.853-2.554-9.213c0-3.062,0.7-5.896,2.103-8.502c1.377-2.58,3.336-4.805,5.722-6.497
			c1.811-1.335,4.275-2.467,7.4-3.396c3.125-0.927,6.478-1.391,10.056-1.391c5.387,0,10.116,0.776,14.188,2.327
			c4.072,1.552,7.079,3.653,9.021,6.304c1.938,2.651,3.272,6.196,4.008,10.635l-11.378,1.554c-0.52-3.533-2.018-6.292-4.493-8.275
			c-2.479-1.98-5.979-2.974-10.506-2.974c-5.346,0-9.159,0.884-11.443,2.648c-2.283,1.771-3.426,3.837-3.426,6.207
			c0,1.509,0.475,2.866,1.422,4.072c0.947,1.251,2.436,2.285,4.461,3.104c1.164,0.434,4.59,1.424,10.279,2.976
			c8.229,2.198,13.975,3.998,17.229,5.396c3.254,1.401,5.81,3.438,7.661,6.109c1.854,2.673,2.779,5.991,2.779,9.956
			c0,3.879-1.132,7.532-3.395,10.958c-2.264,3.427-5.526,6.077-9.795,7.952c-4.268,1.875-9.095,2.813-14.48,2.813
			c-8.923,0-15.722-1.853-20.396-5.56C7585.563,975.288,7582.578,969.792,7581.285,962.508L7581.285,962.508z M7699.143,960.892
			l12.023,1.487c-1.896,7.025-5.408,12.479-10.537,16.356c-5.131,3.878-11.682,5.816-19.653,5.816
			c-10.043,0-18.005-3.092-23.888-9.275c-5.886-6.187-8.825-14.858-8.825-26.021c0-11.55,2.974-20.516,8.922-26.895
			c5.947-6.378,13.662-9.568,23.146-9.568c9.182,0,16.681,3.126,22.498,9.374c5.817,6.25,8.729,15.043,8.729,26.378
			c0,0.689-0.021,1.724-0.063,3.104h-51.202c0.43,7.543,2.563,13.316,6.398,17.324c3.835,4.011,8.619,6.015,14.354,6.015
			c4.268,0,7.909-1.12,10.926-3.361S7697.373,965.805,7699.143,960.892L7699.143,960.892z M7660.935,942.079h38.337
			c-0.518-5.774-1.982-10.106-4.396-12.994c-3.707-4.48-8.513-6.724-14.416-6.724c-5.346,0-9.838,1.789-13.479,5.365
			C7663.336,931.305,7661.322,936.089,7660.935,942.079z M7721.123,962.508l11.508-1.811c0.646,4.611,2.443,8.146,5.396,10.604
			c2.952,2.456,7.079,3.687,12.381,3.687c5.345,0,9.312-1.088,11.896-3.267c2.586-2.176,3.879-4.729,3.879-7.661
			c0-2.629-1.144-4.695-3.428-6.204c-1.596-1.035-5.561-2.351-11.896-3.944c-8.533-2.154-14.449-4.02-17.746-5.592
			c-3.297-1.573-5.797-3.75-7.498-6.529c-1.703-2.78-2.556-5.853-2.556-9.213c0-3.062,0.701-5.896,2.103-8.502
			c1.377-2.58,3.336-4.805,5.723-6.497c1.811-1.335,4.275-2.467,7.4-3.396c3.125-0.927,6.477-1.391,10.055-1.391
			c5.389,0,10.117,0.776,14.189,2.327c4.071,1.552,7.08,3.653,9.02,6.304c1.939,2.651,3.273,6.196,4.008,10.635l-11.377,1.554
			c-0.52-3.533-2.018-6.292-4.494-8.275c-2.479-1.98-5.979-2.974-10.506-2.974c-5.346,0-9.158,0.884-11.441,2.648
			c-2.285,1.771-3.426,3.837-3.426,6.207c0,1.509,0.474,2.866,1.422,4.072c0.945,1.251,2.435,2.285,4.461,3.104
			c1.164,0.434,4.59,1.424,10.277,2.976c8.23,2.198,13.977,3.998,17.229,5.396c3.254,1.401,5.809,3.438,7.662,6.109
			c1.854,2.673,2.778,5.991,2.778,9.956c0,3.879-1.131,7.532-3.396,10.958c-2.264,3.427-5.526,6.077-9.795,7.952
			c-4.268,1.875-9.094,2.813-14.479,2.813c-8.922,0-15.722-1.853-20.396-5.56C7725.399,975.288,7722.414,969.792,7721.123,962.508
			L7721.123,962.508z"/>
	</g>
	<path fill="#D6B8A6" d="M251.86,864.695h165.498v165.508H251.86V864.695z"/>
	<g>
		<path fill="#999999" d="M512.029,936.85c0-15.729,4.226-28.047,12.671-36.945c8.447-8.899,19.354-13.353,32.713-13.353
			c8.749,0,16.636,2.093,23.662,6.271c7.025,4.181,12.38,10.011,16.065,17.485c3.685,7.479,5.528,15.96,5.528,25.44
			c0,9.611-1.939,18.21-5.819,25.795c-3.879,7.586-9.374,13.329-16.485,17.229c-7.112,3.899-14.784,5.851-23.016,5.851
			c-8.921,0-16.896-2.154-23.92-6.465c-7.025-4.312-12.348-10.192-15.968-17.649C513.839,953.056,512.029,945.168,512.029,936.85
			L512.029,936.85z M524.959,937.044c0,11.422,3.071,20.419,9.213,26.991c6.142,6.573,13.845,9.857,23.112,9.857
			c9.439,0,17.207-3.316,23.306-9.954c6.098-6.639,9.147-16.057,9.147-28.252c0-7.717-1.304-14.449-3.911-20.203
			s-6.423-10.217-11.443-13.385c-5.021-3.168-10.657-4.752-16.906-4.752c-8.879,0-16.519,3.052-22.918,9.148
			C528.16,912.594,524.958,922.779,524.959,937.044L524.959,937.044z M642.752,972.602l1.681,10.279
			c-3.276,0.688-6.206,1.034-8.792,1.034c-4.224,0-7.499-0.669-9.827-2.004c-2.327-1.336-3.966-3.093-4.913-5.271
			c-0.949-2.176-1.422-6.756-1.422-13.736v-39.501h-8.534v-9.053h8.534v-17.003l11.572-6.98v23.983h11.702v9.053h-11.702v40.146
			c0,3.319,0.204,5.453,0.614,6.4c0.409,0.949,1.077,1.703,2.004,2.263c0.926,0.563,2.251,0.841,3.976,0.841
			C638.937,973.054,640.64,972.904,642.752,972.602L642.752,972.602z M654.13,983.01v-94.775h11.637v34.006
			c5.431-6.293,12.283-9.439,20.559-9.439c5.085,0,9.503,1.002,13.253,3.007c3.75,2.004,6.433,4.773,8.049,8.309
			c1.616,3.535,2.424,8.663,2.424,15.387v43.51h-11.637v-43.51c0-5.818-1.26-10.053-3.782-12.703
			c-2.522-2.648-6.088-3.977-10.7-3.977c-3.449,0-6.689,0.896-9.729,2.684c-3.038,1.789-5.204,4.213-6.497,7.272
			c-1.293,3.062-1.939,7.285-1.939,12.672v37.562h-11.637L654.13,983.01L654.13,983.01z M774.766,960.9l12.025,1.485
			c-1.897,7.025-5.409,12.479-10.538,16.356c-5.13,3.879-11.681,5.816-19.654,5.816c-10.043,0-18.005-3.092-23.888-9.275
			c-5.883-6.187-8.825-14.858-8.825-26.021c0-11.55,2.974-20.516,8.922-26.895c5.948-6.378,13.662-9.568,23.145-9.568
			c9.18,0,16.68,3.126,22.498,9.374c5.819,6.25,8.728,15.043,8.728,26.378c0,0.689-0.022,1.726-0.065,3.104h-51.203
			c0.43,7.543,2.563,13.316,6.398,17.326c3.835,4.009,8.62,6.013,14.354,6.013c4.267,0,7.909-1.12,10.926-3.361
			C770.606,969.391,772.999,965.813,774.766,960.9L774.766,960.9z M736.558,942.086h38.337c-0.517-5.772-1.983-10.104-4.396-12.994
			c-3.708-4.48-8.513-6.724-14.417-6.724c-5.345,0-9.838,1.789-13.479,5.366C738.961,931.313,736.946,936.097,736.558,942.086z
			 M801.272,983.01v-68.658h10.473v10.408c2.672-4.869,5.14-8.081,7.402-9.633c2.263-1.551,4.752-2.327,7.467-2.327
			c3.921,0,7.908,1.251,11.96,3.75l-4.008,10.797c-2.845-1.682-5.688-2.521-8.534-2.521c-2.543,0-4.828,0.766-6.853,2.295
			c-2.026,1.53-3.47,3.652-4.332,6.368c-1.293,4.138-1.939,8.663-1.939,13.576v35.943L801.272,983.01L801.272,983.01z
			 M883.378,983.01v-94.775h18.878l22.434,67.104c2.069,6.25,3.577,10.926,4.525,14.028c1.077-3.447,2.758-8.511,5.042-15.192
			l22.69-65.94h16.874v94.774h-12.089v-79.325l-27.541,79.325h-11.314l-27.411-80.683v80.683L883.378,983.01L883.378,983.01z
			 M1039.571,960.9l12.025,1.485c-1.897,7.025-5.409,12.479-10.538,16.356c-5.13,3.879-11.681,5.816-19.654,5.816
			c-10.043,0-18.005-3.092-23.888-9.275c-5.883-6.187-8.825-14.858-8.825-26.021c0-11.55,2.974-20.516,8.922-26.895
			c5.948-6.378,13.662-9.568,23.146-9.568c9.18,0,16.68,3.126,22.498,9.374c5.819,6.25,8.728,15.043,8.728,26.378
			c0,0.689-0.021,1.726-0.063,3.104h-51.203c0.43,7.543,2.564,13.316,6.4,17.326c3.835,4.009,8.62,6.013,14.352,6.013
			c4.267,0,7.909-1.12,10.926-3.361C1035.412,969.391,1037.805,965.813,1039.571,960.9L1039.571,960.9z M1001.363,942.086h38.337
			c-0.517-5.772-1.981-10.104-4.396-12.994c-3.708-4.48-8.513-6.724-14.417-6.724c-5.345,0-9.838,1.789-13.479,5.366
			C1003.766,931.313,1001.752,936.097,1001.363,942.086z M1091.616,972.602l1.681,10.279c-3.276,0.688-6.206,1.034-8.792,1.034
			c-4.226,0-7.499-0.669-9.827-2.004c-2.327-1.336-3.966-3.093-4.913-5.271c-0.949-2.176-1.422-6.756-1.422-13.736v-39.501h-8.534
			v-9.053h8.534v-17.003l11.572-6.98v23.983h11.702v9.053h-11.702v40.146c0,3.319,0.204,5.453,0.614,6.4
			c0.409,0.949,1.077,1.703,2.004,2.263c0.926,0.563,2.251,0.841,3.978,0.841C1087.801,973.054,1089.503,972.904,1091.616,972.602
			L1091.616,972.602z M1147.796,974.541c-4.313,3.663-8.459,6.249-12.445,7.758c-3.987,1.508-8.265,2.263-12.833,2.263
			c-7.543,0-13.34-1.843-17.391-5.525c-4.052-3.688-6.077-8.396-6.077-14.126c0-3.362,0.765-6.435,2.295-9.213
			c1.529-2.78,3.534-5.013,6.013-6.691c2.478-1.681,5.269-2.951,8.372-3.813c2.284-0.604,5.731-1.187,10.344-1.745
			c9.396-1.12,16.313-2.457,20.753-4.01c0.042-1.595,0.064-2.606,0.064-3.037c0-4.741-1.101-8.081-3.297-10.021
			c-2.974-2.629-7.392-3.944-13.253-3.944c-5.474,0-9.515,0.96-12.122,2.878c-2.608,1.92-4.537,5.313-5.786,10.184l-11.378-1.552
			c1.035-4.87,2.737-8.805,5.105-11.8c2.37-2.994,5.796-5.302,10.279-6.918c4.482-1.614,9.675-2.425,15.581-2.425
			c5.861,0,10.624,0.69,14.288,2.069c3.663,1.38,6.357,3.114,8.082,5.204c1.723,2.091,2.93,4.729,3.62,7.92
			c0.388,1.981,0.582,5.56,0.582,10.729v15.518c0,10.818,0.248,17.661,0.744,20.525c0.495,2.866,1.476,5.613,2.939,8.242h-12.154
			C1148.916,980.597,1148.14,977.774,1147.796,974.541L1147.796,974.541z M1146.827,948.552c-4.225,1.726-10.561,3.189-19.007,4.396
			c-4.784,0.688-8.168,1.466-10.148,2.328c-1.983,0.86-3.513,2.123-4.59,3.779c-1.078,1.66-1.616,3.503-1.616,5.528
			c0,3.104,1.174,5.688,3.521,7.758c2.351,2.068,5.786,3.104,10.313,3.104c4.48,0,8.469-0.979,11.96-2.941
			c3.491-1.961,6.055-4.644,7.693-8.049c1.25-2.628,1.875-6.507,1.875-11.637L1146.827,948.552L1146.827,948.552z M1176.371,983.01
			v-94.775h11.637v94.774L1176.371,983.01L1176.371,983.01z M1201.39,962.516l11.508-1.811c0.646,4.613,2.446,8.146,5.398,10.604
			c2.952,2.456,7.079,3.687,12.38,3.687c5.344,0,9.31-1.088,11.896-3.265c2.586-2.178,3.879-4.729,3.879-7.661
			c0-2.629-1.143-4.697-3.426-6.206c-1.595-1.035-5.56-2.351-11.896-3.944c-8.534-2.154-14.449-4.018-17.747-5.592
			c-3.297-1.573-5.797-3.75-7.5-6.529c-1.703-2.78-2.554-5.852-2.554-9.213c0-3.06,0.7-5.894,2.104-8.502
			c1.377-2.58,3.335-4.805,5.721-6.497c1.811-1.335,4.277-2.467,7.402-3.394c3.125-0.929,6.475-1.393,10.053-1.393
			c5.387,0,10.118,0.776,14.19,2.327c4.073,1.552,7.08,3.653,9.019,6.304c1.939,2.651,3.275,6.196,4.008,10.637l-11.378,1.552
			c-0.518-3.533-2.016-6.292-4.493-8.275c-2.479-1.979-5.98-2.974-10.506-2.974c-5.345,0-9.159,0.884-11.443,2.648
			c-2.285,1.771-3.426,3.838-3.426,6.207c0,1.511,0.476,2.866,1.422,4.072c0.948,1.251,2.435,2.285,4.461,3.104
			c1.164,0.432,4.59,1.422,10.279,2.974c8.232,2.198,13.977,3.998,17.229,5.398c3.253,1.399,5.807,3.438,7.661,6.107
			c1.853,2.673,2.78,5.991,2.78,9.956c0,3.879-1.131,7.532-3.394,10.958c-2.263,3.427-5.528,6.077-9.794,7.952
			c-4.269,1.875-9.095,2.813-14.482,2.813c-8.921,0-15.721-1.853-20.396-5.56C1205.668,975.295,1202.683,969.8,1201.39,962.516
			L1201.39,962.516z"/>
	</g>
	<path fill="#CD7F62" d="M2087.222,864.695h165.508v165.508h-165.508V864.695z"/>
	<g>
		<path fill="#999999" d="M2312.222,983.002v-94.776h18.878l22.434,67.106c2.069,6.25,3.577,10.926,4.525,14.028
			c1.077-3.447,2.758-8.513,5.042-15.192l22.692-65.942h16.874v94.776h-12.089v-79.325l-27.541,79.325h-11.314l-27.411-80.683
			v80.683H2312.222L2312.222,983.002z M2468.415,960.892l12.025,1.487c-1.896,7.025-5.409,12.479-10.538,16.356
			c-5.13,3.879-11.681,5.816-19.654,5.816c-10.043,0-18.005-3.092-23.888-9.275c-5.883-6.187-8.825-14.858-8.825-26.021
			c0-11.55,2.974-20.516,8.922-26.895c5.948-6.378,13.662-9.568,23.145-9.568c9.18,0,16.68,3.126,22.498,9.374
			c5.819,6.25,8.728,15.043,8.728,26.378c0,0.689-0.022,1.724-0.065,3.104h-51.203c0.43,7.543,2.564,13.316,6.4,17.324
			c3.835,4.011,8.62,6.015,14.352,6.015c4.267,0,7.909-1.12,10.926-3.361C2464.256,969.383,2466.647,965.805,2468.415,960.892
			L2468.415,960.892z M2430.207,942.079h38.337c-0.517-5.774-1.983-10.106-4.396-12.994c-3.708-4.48-8.513-6.724-14.417-6.724
			c-5.345,0-9.838,1.789-13.479,5.365C2432.609,931.305,2430.596,936.089,2430.207,942.079z M2520.458,972.594l1.681,10.279
			c-3.276,0.688-6.206,1.034-8.792,1.034c-4.224,0-7.499-0.669-9.827-2.004c-2.327-1.336-3.966-3.095-4.913-5.271
			c-0.949-2.176-1.422-6.756-1.422-13.736v-39.502h-8.534v-9.051h8.534V897.34l11.572-6.98v23.983h11.702v9.051h-11.702v40.147
			c0,3.319,0.204,5.453,0.614,6.4c0.409,0.947,1.077,1.701,2.004,2.263c0.926,0.561,2.251,0.841,3.976,0.841
			C2516.644,973.046,2518.347,972.896,2520.458,972.594L2520.458,972.594z M2576.64,974.534c-4.311,3.663-8.459,6.249-12.445,7.758
			c-3.987,1.508-8.265,2.263-12.833,2.263c-7.543,0-13.34-1.843-17.391-5.525c-4.052-3.688-6.077-8.396-6.077-14.126
			c0-3.362,0.765-6.435,2.295-9.213c1.529-2.78,3.534-5.013,6.013-6.691c2.478-1.681,5.269-2.951,8.372-3.814
			c2.284-0.603,5.731-1.185,10.344-1.743c9.396-1.12,16.313-2.457,20.753-4.011c0.042-1.594,0.063-2.605,0.063-3.038
			c0-4.739-1.099-8.081-3.297-10.021c-2.974-2.629-7.392-3.944-13.253-3.944c-5.474,0-9.515,0.96-12.122,2.877
			c-2.608,1.919-4.537,5.313-5.786,10.185l-11.378-1.554c1.035-4.868,2.737-8.803,5.107-11.799c2.37-2.995,5.796-5.301,10.279-6.917
			c4.482-1.615,9.675-2.425,15.581-2.425c5.861,0,10.624,0.69,14.288,2.069c3.663,1.38,6.357,3.113,8.082,5.204
			c1.723,2.091,2.93,4.729,3.62,7.92c0.388,1.98,0.582,5.56,0.582,10.729v15.518c0,10.817,0.248,17.661,0.744,20.524
			c0.495,2.867,1.476,5.614,2.941,8.243h-12.154C2577.76,980.589,2576.983,977.766,2576.64,974.534L2576.64,974.534z
			 M2575.67,948.544c-4.225,1.724-10.563,3.189-19.007,4.396c-4.784,0.688-8.168,1.466-10.15,2.326
			c-1.983,0.862-3.513,2.123-4.59,3.781c-1.078,1.66-1.616,3.503-1.616,5.528c0,3.103,1.174,5.688,3.523,7.758
			c2.349,2.068,5.786,3.104,10.312,3.104c4.482,0,8.469-0.979,11.96-2.941c3.491-1.961,6.055-4.645,7.693-8.049
			c1.25-2.628,1.875-6.507,1.875-11.639V948.544L2575.67,948.544z M2605.215,983.002v-94.776h11.637v94.776H2605.215z
			 M2634.63,983.002v-94.776h11.637v94.776H2634.63z M2659.973,948.673c0-12.714,3.534-22.132,10.603-28.252
			c5.905-5.085,13.102-7.629,21.593-7.629c9.439,0,17.153,3.094,23.145,9.277c5.99,6.186,8.986,14.729,8.986,25.634
			c0,8.836-1.325,15.786-3.976,20.85c-2.651,5.064-6.509,8.997-11.573,11.8c-5.065,2.802-10.592,4.201-16.583,4.201
			c-9.612,0-17.381-3.081-23.306-9.245C2662.935,969.146,2659.973,960.269,2659.973,948.673L2659.973,948.673z M2671.933,948.673
			c0,8.792,1.917,15.377,5.754,19.751c3.835,4.375,8.663,6.563,14.481,6.563c5.775,0,10.581-2.198,14.417-6.597
			c3.835-4.396,5.754-11.097,5.754-20.104c0-8.49-1.93-14.923-5.786-19.298c-3.858-4.374-8.653-6.563-14.385-6.563
			c-5.818,0-10.646,2.179-14.481,6.53C2673.85,933.309,2671.933,939.881,2671.933,948.673z M2738.005,901.608v-13.384h11.637v13.384
			H2738.005z M2738.005,983.002v-68.658h11.637v68.658H2738.005z M2811.899,983.002v-8.663
			c-4.354,6.813-10.754,10.215-19.201,10.215c-5.474,0-10.505-1.51-15.096-4.523c-4.59-3.019-8.146-7.229-10.667-12.642
			c-2.521-5.406-3.782-11.626-3.782-18.649c0-6.854,1.142-13.069,3.427-18.651c2.284-5.581,5.71-9.858,10.279-12.833
			c4.568-2.974,9.675-4.461,15.322-4.461c4.138,0,7.823,0.873,11.055,2.618c3.232,1.746,5.861,4.02,7.887,6.821v-34.008h11.572
			v94.776H2811.899L2811.899,983.002z M2775.114,948.738c0,8.793,1.853,15.364,5.56,19.719s8.082,6.529,13.124,6.529
			c5.085,0,9.407-2.079,12.962-6.238c3.555-4.159,5.333-10.506,5.333-19.04c0-9.396-1.81-16.292-5.431-20.688
			c-3.62-4.396-8.081-6.596-13.382-6.596c-5.172,0-9.494,2.112-12.962,6.336C2776.849,932.986,2775.114,939.646,2775.114,948.738
			L2775.114,948.738z M2836.337,962.508l11.508-1.811c0.646,4.611,2.446,8.146,5.398,10.604c2.952,2.456,7.079,3.687,12.38,3.687
			c5.344,0,9.31-1.088,11.896-3.267c2.586-2.176,3.879-4.729,3.879-7.661c0-2.629-1.143-4.695-3.426-6.204
			c-1.595-1.035-5.56-2.351-11.896-3.944c-8.534-2.154-14.449-4.02-17.747-5.592c-3.297-1.573-5.797-3.75-7.5-6.529
			c-1.703-2.78-2.554-5.853-2.554-9.213c0-3.062,0.7-5.896,2.102-8.502c1.377-2.58,3.336-4.805,5.721-6.497
			c1.81-1.335,4.277-2.467,7.402-3.396c3.125-0.927,6.475-1.391,10.053-1.391c5.387,0,10.118,0.776,14.19,2.327
			c4.073,1.552,7.08,3.653,9.019,6.304c1.939,2.651,3.275,6.196,4.008,10.635l-11.378,1.554c-0.518-3.533-2.016-6.292-4.493-8.275
			c-2.479-1.98-5.98-2.974-10.506-2.974c-5.345,0-9.159,0.884-11.443,2.648c-2.285,1.771-3.426,3.837-3.426,6.207
			c0,1.509,0.474,2.866,1.422,4.072c0.948,1.251,2.435,2.285,4.461,3.104c1.164,0.434,4.59,1.424,10.279,2.976
			c8.232,2.198,13.975,3.998,17.229,5.396c3.253,1.401,5.807,3.438,7.661,6.109c1.853,2.673,2.78,5.991,2.78,9.956
			c0,3.879-1.131,7.532-3.394,10.958c-2.263,3.427-5.528,6.077-9.794,7.952c-4.267,1.875-9.095,2.813-14.482,2.813
			c-8.921,0-15.721-1.853-20.397-5.56C2840.615,975.288,2837.63,969.792,2836.337,962.508L2836.337,962.508z"/>
	</g>
	<path fill="#A54122" d="M4148.833,864.695h165.508v165.508h-165.508V864.695z"/>
	<g>
		<path fill="#999999" d="M4381.44,983.002v-94.776h12.866l49.78,74.412v-74.412h12.022v94.776h-12.863l-49.78-74.477v74.477
			H4381.44L4381.44,983.002z M4471.369,948.673c0-12.714,3.533-22.132,10.604-28.252c5.904-5.085,13.102-7.629,21.593-7.629
			c9.438,0,17.153,3.094,23.146,9.277c5.99,6.186,8.984,14.729,8.984,25.634c0,8.836-1.323,15.786-3.976,20.85
			c-2.651,5.064-6.509,8.997-11.572,11.8c-5.063,2.802-10.593,4.201-16.583,4.201c-9.609,0-17.381-3.081-23.307-9.245
			C4474.332,969.146,4471.369,960.269,4471.369,948.673L4471.369,948.673z M4483.328,948.673c0,8.792,1.918,15.377,5.755,19.751
			c3.836,4.375,8.663,6.563,14.479,6.563c5.775,0,10.58-2.198,14.417-6.597c3.836-4.396,5.754-11.097,5.754-20.104
			c0-8.49-1.93-14.923-5.786-19.298c-3.856-4.374-8.651-6.563-14.385-6.563c-5.816,0-10.646,2.179-14.479,6.53
			C4485.246,933.309,4483.328,939.881,4483.328,948.673z M4549.336,983.002v-68.658h10.474v9.764
			c5.043-7.541,12.326-11.313,21.853-11.313c4.139,0,7.939,0.744,11.409,2.23c3.471,1.485,6.066,3.438,7.791,5.851
			c1.725,2.415,2.933,5.28,3.62,8.599c0.433,2.156,0.646,5.929,0.646,11.313v42.217h-11.639V941.24
			c0-4.741-0.451-8.285-1.355-10.635c-0.905-2.351-2.512-4.226-4.816-5.625c-2.307-1.399-5.011-2.103-8.112-2.103
			c-4.957,0-9.234,1.573-12.834,4.719c-3.6,3.147-5.397,9.116-5.397,17.908v37.497H4549.336L4549.336,983.002z M4618.446,954.556
			v-11.699h35.751v11.699H4618.446z M4668.162,983.002v-94.776h18.877l22.434,67.106c2.068,6.25,3.577,10.926,4.525,14.028
			c1.075-3.447,2.758-8.513,5.043-15.192l22.69-65.942h16.873v94.776h-12.089v-79.325l-27.541,79.325h-11.313l-27.411-80.683v80.683
			H4668.162L4668.162,983.002z M4824.356,960.892l12.024,1.487c-1.896,7.025-5.409,12.479-10.538,16.356s-11.68,5.816-19.653,5.816
			c-10.043,0-18.005-3.092-23.888-9.275c-5.884-6.187-8.825-14.858-8.825-26.021c0-11.55,2.976-20.516,8.922-26.895
			c5.947-6.378,13.662-9.568,23.146-9.568c9.181,0,16.68,3.126,22.498,9.374c5.816,6.25,8.728,15.043,8.728,26.378
			c0,0.689-0.021,1.724-0.063,3.104h-51.202c0.43,7.543,2.563,13.316,6.4,17.324c3.835,4.011,8.619,6.015,14.352,6.015
			c4.268,0,7.909-1.12,10.926-3.361C4820.199,969.384,4822.588,965.805,4824.356,960.892L4824.356,960.892z M4786.148,942.079
			h38.337c-0.518-5.774-1.98-10.106-4.396-12.994c-3.707-4.48-8.513-6.724-14.417-6.724c-5.345,0-9.838,1.789-13.479,5.365
			C4788.55,931.305,4786.535,936.089,4786.148,942.079z M4876.398,972.594l1.684,10.279c-3.276,0.688-6.207,1.034-8.793,1.034
			c-4.227,0-7.499-0.669-9.826-2.004c-2.328-1.336-3.966-3.095-4.914-5.271c-0.948-2.176-1.422-6.756-1.422-13.736v-39.502h-8.534
			v-9.051h8.534V897.34l11.57-6.98v23.983h11.701v9.051h-11.701v40.147c0,3.319,0.204,5.453,0.614,6.4
			c0.409,0.947,1.076,1.701,2.004,2.263c0.929,0.561,2.252,0.841,3.978,0.841C4872.584,973.046,4874.285,972.896,4876.398,972.594
			L4876.398,972.594z M4932.58,974.534c-4.313,3.663-8.459,6.249-12.445,7.758c-3.987,1.508-8.266,2.263-12.833,2.263
			c-7.543,0-13.34-1.843-17.392-5.525c-4.053-3.688-6.076-8.396-6.076-14.126c0-3.362,0.765-6.435,2.295-9.213
			c1.529-2.78,3.533-5.013,6.013-6.691c2.478-1.681,5.269-2.951,8.372-3.814c2.284-0.603,5.729-1.185,10.344-1.743
			c9.396-1.12,16.313-2.457,20.753-4.011c0.042-1.594,0.064-2.605,0.064-3.038c0-4.739-1.101-8.081-3.297-10.021
			c-2.977-2.629-7.395-3.944-13.255-3.944c-5.475,0-9.516,0.96-12.12,2.877c-2.608,1.919-4.537,5.313-5.786,10.185l-11.379-1.554
			c1.032-4.868,2.734-8.803,5.105-11.799c2.37-2.995,5.796-5.301,10.279-6.917c4.482-1.615,9.676-2.425,15.581-2.425
			c5.86,0,10.623,0.69,14.287,2.069c3.663,1.38,6.356,3.113,8.081,5.204c1.724,2.091,2.931,4.729,3.621,7.92
			c0.388,1.98,0.581,5.56,0.581,10.729v15.518c0,10.817,0.248,17.661,0.743,20.524c0.494,2.867,1.477,5.614,2.94,8.243h-12.153
			C4933.701,980.589,4932.925,977.766,4932.58,974.534L4932.58,974.534z M4931.61,948.544c-4.225,1.724-10.561,3.189-19.007,4.396
			c-4.784,0.688-8.169,1.466-10.15,2.326c-1.981,0.862-3.514,2.123-4.59,3.781c-1.078,1.66-1.614,3.503-1.614,5.528
			c0,3.103,1.174,5.688,3.521,7.758c2.349,2.068,5.786,3.104,10.313,3.104c4.479,0,8.469-0.979,11.96-2.941
			c3.489-1.961,6.055-4.645,7.691-8.049c1.249-2.628,1.875-6.507,1.875-11.639V948.544L4931.61,948.544z M4961.154,983.002v-94.776
			h11.64v94.776H4961.154z M4986.175,962.508l11.508-1.811c0.646,4.611,2.445,8.146,5.397,10.604
			c2.951,2.456,7.078,3.687,12.381,3.687c5.344,0,9.31-1.088,11.896-3.267c2.586-2.176,3.879-4.729,3.879-7.661
			c0-2.629-1.143-4.695-3.427-6.204c-1.595-1.035-5.56-2.351-11.896-3.944c-8.533-2.154-14.449-4.02-17.746-5.592
			c-3.297-1.573-5.797-3.75-7.499-6.529c-1.703-2.78-2.556-5.853-2.556-9.213c0-3.062,0.7-5.896,2.103-8.502
			c1.377-2.58,3.336-4.805,5.722-6.497c1.813-1.335,4.277-2.467,7.402-3.396c3.125-0.927,6.476-1.391,10.054-1.391
			c5.387,0,10.117,0.776,14.19,2.327c4.07,1.552,7.079,3.653,9.019,6.304c1.94,2.651,3.274,6.196,4.008,10.635l-11.378,1.554
			c-0.518-3.533-2.016-6.292-4.493-8.275c-2.479-1.98-5.979-2.974-10.506-2.974c-5.345,0-9.159,0.884-11.441,2.648
			c-2.284,1.771-3.428,3.837-3.428,6.207c0,1.509,0.476,2.866,1.422,4.072c0.947,1.251,2.437,2.285,4.463,3.104
			c1.162,0.434,4.59,1.424,10.277,2.976c8.231,2.198,13.977,3.998,17.229,5.396c3.254,1.401,5.808,3.438,7.661,6.109
			c1.853,2.673,2.778,5.991,2.778,9.956c0,3.879-1.132,7.532-3.395,10.958c-2.263,3.427-5.527,6.077-9.795,7.952
			c-4.269,1.875-9.095,2.813-14.481,2.813c-8.922,0-15.721-1.853-20.396-5.56C4990.453,975.288,4987.468,969.792,4986.175,962.508
			L4986.175,962.508z"/>
	</g>
	<path fill="#D4FFF8" d="M5719.429,864.695h165.498v165.508h-165.498V864.695z"/>
	<g>
		<path fill="#999999" d="M5967.246,983.01v-94.775h12.543v38.919h49.264v-38.919h12.542v94.774h-12.542v-44.673h-49.264v44.673
			L5967.246,983.01L5967.246,983.01z M6105.792,974.541c-4.313,3.663-8.459,6.249-12.445,7.758
			c-3.987,1.508-8.265,2.263-12.833,2.263c-7.543,0-13.34-1.843-17.391-5.525c-4.054-3.688-6.077-8.396-6.077-14.126
			c0-3.362,0.765-6.435,2.295-9.213c1.528-2.78,3.532-5.013,6.013-6.691c2.479-1.681,5.27-2.951,8.372-3.813
			c2.284-0.604,5.731-1.187,10.344-1.745c9.396-1.12,16.313-2.457,20.753-4.01c0.042-1.595,0.064-2.606,0.064-3.037
			c0-4.741-1.101-8.081-3.297-10.021c-2.977-2.629-7.395-3.944-13.254-3.944c-5.476,0-9.517,0.96-12.121,2.878
			c-2.608,1.92-4.537,5.313-5.786,10.184l-11.379-1.552c1.034-4.87,2.735-8.805,5.105-11.8c2.37-2.994,5.796-5.302,10.279-6.918
			c4.481-1.614,9.676-2.425,15.581-2.425c5.86,0,10.623,0.69,14.287,2.069c3.663,1.38,6.355,3.114,8.081,5.204
			c1.726,2.091,2.931,4.729,3.621,7.92c0.388,1.981,0.581,5.56,0.581,10.729v15.518c0,10.818,0.248,17.661,0.744,20.525
			c0.495,2.866,1.476,5.613,2.939,8.242h-12.154C6106.912,980.597,6106.137,977.774,6105.792,974.541L6105.792,974.541z
			 M6104.822,948.552c-4.225,1.726-10.561,3.189-19.007,4.396c-4.784,0.688-8.169,1.466-10.148,2.328
			c-1.983,0.86-3.515,2.123-4.591,3.779c-1.077,1.66-1.615,3.503-1.615,5.528c0,3.104,1.174,5.688,3.521,7.758
			c2.351,2.068,5.786,3.104,10.313,3.104c4.479,0,8.469-0.979,11.96-2.941c3.49-1.961,6.055-4.644,7.691-8.049
			c1.25-2.628,1.875-6.507,1.875-11.637V948.552L6104.822,948.552z M6134.367,983.01v-94.775h11.639v94.774L6134.367,983.01
			L6134.367,983.01z M6159.71,948.681c0-12.714,3.532-22.132,10.603-28.252c5.904-5.085,13.104-7.629,21.594-7.629
			c9.438,0,17.152,3.094,23.146,9.277c5.99,6.186,8.986,14.729,8.986,25.634c0,8.836-1.325,15.786-3.978,20.852
			c-2.649,5.063-6.509,8.995-11.572,11.799c-5.063,2.801-10.593,4.202-16.582,4.202c-9.61,0-17.382-3.081-23.308-9.245
			S6159.71,960.276,6159.71,948.681L6159.71,948.681z M6171.67,948.681c0,8.792,1.917,15.377,5.754,19.751
			c3.836,4.375,8.663,6.563,14.479,6.563c5.775,0,10.58-2.198,14.417-6.595c3.836-4.396,5.754-11.099,5.754-20.105
			c0-8.49-1.93-14.923-5.785-19.298c-3.857-4.374-8.652-6.563-14.386-6.563c-5.817,0-10.646,2.179-14.479,6.53
			C6173.587,933.317,6171.67,939.889,6171.67,948.681z M6235.544,988.7l11.313,1.681c0.476,3.491,1.788,6.033,3.943,7.629
			c2.887,2.154,6.831,3.232,11.831,3.232c5.387,0,9.546-1.078,12.479-3.232c2.932-2.154,4.912-5.172,5.946-9.051
			c0.604-2.371,0.884-7.349,0.841-14.935c-5.086,5.989-11.422,8.984-19.007,8.984c-9.438,0-16.743-3.402-21.917-10.215
			c-5.172-6.81-7.758-14.977-7.758-24.502c0-6.551,1.186-12.596,3.556-18.135c2.37-5.537,5.81-9.815,10.313-12.833
			c4.503-3.018,9.794-4.525,15.871-4.525c8.103,0,14.781,3.276,20.041,9.827v-8.275h10.73v59.351
			c0,10.688-1.089,18.264-3.265,22.725c-2.177,4.461-5.625,7.984-10.345,10.57c-4.721,2.586-10.527,3.879-17.424,3.879
			c-8.188,0-14.806-1.843-19.849-5.527C6237.807,1001.662,6235.371,996.112,6235.544,988.7L6235.544,988.7z M6245.177,947.453
			c0,9.009,1.787,15.581,5.365,19.719c3.577,4.138,8.06,6.206,13.446,6.206c5.345,0,9.826-2.058,13.446-6.174
			c3.62-4.115,5.433-10.57,5.433-19.363c0-8.404-1.864-14.74-5.594-19.007c-3.729-4.267-8.222-6.4-13.479-6.4
			c-5.174,0-9.568,2.104-13.189,6.306C6246.986,932.938,6245.177,939.177,6245.177,947.453L6245.177,947.453z M6358.313,960.9
			l12.024,1.485c-1.896,7.025-5.409,12.479-10.538,16.356c-5.13,3.878-11.681,5.816-19.653,5.816
			c-10.043,0-18.005-3.092-23.888-9.275c-5.884-6.187-8.825-14.858-8.825-26.021c0-11.55,2.975-20.516,8.922-26.895
			c5.947-6.378,13.662-9.568,23.146-9.568c9.181,0,16.68,3.126,22.498,9.374c5.816,6.25,8.728,15.043,8.728,26.378
			c0,0.689-0.021,1.726-0.063,3.104h-51.202c0.43,7.543,2.563,13.316,6.4,17.326c3.834,4.009,8.617,6.013,14.352,6.013
			c4.268,0,7.909-1.12,10.926-3.361C6354.156,969.392,6356.545,965.813,6358.313,960.9L6358.313,960.9z M6320.105,942.086h38.337
			c-0.518-5.772-1.98-10.104-4.396-12.994c-3.707-4.48-8.514-6.724-14.417-6.724c-5.345,0-9.838,1.789-13.479,5.366
			C6322.507,931.313,6320.494,936.097,6320.105,942.086z M6384.949,983.01v-68.658h10.475v9.764
			c5.043-7.541,12.326-11.313,21.854-11.313c4.138,0,7.938,0.744,11.408,2.23c3.471,1.486,6.066,3.438,7.791,5.851
			c1.725,2.415,2.932,5.28,3.62,8.601c0.433,2.154,0.646,5.927,0.646,11.313v42.217h-11.638v-41.764
			c0-4.741-0.452-8.285-1.356-10.635c-0.905-2.351-2.512-4.226-4.815-5.625c-2.308-1.399-5.012-2.103-8.113-2.103
			c-4.957,0-9.234,1.573-12.833,4.721c-3.601,3.146-5.398,9.114-5.398,17.906v37.497L6384.949,983.01L6384.949,983.01z
			 M6453.93,962.516l11.508-1.811c0.646,4.613,2.445,8.146,5.397,10.604c2.952,2.456,7.079,3.687,12.381,3.687
			c5.344,0,9.31-1.088,11.896-3.265c2.586-2.178,3.879-4.729,3.879-7.661c0-2.629-1.143-4.697-3.427-6.206
			c-1.595-1.035-5.56-2.351-11.896-3.944c-8.533-2.154-14.449-4.018-17.746-5.592c-3.297-1.573-5.797-3.75-7.499-6.529
			c-1.703-2.78-2.554-5.852-2.554-9.213c0-3.06,0.698-5.894,2.101-8.502c1.378-2.58,3.337-4.805,5.722-6.497
			c1.813-1.335,4.277-2.467,7.402-3.394c3.125-0.929,6.477-1.393,10.053-1.393c5.389,0,10.118,0.776,14.191,2.327
			c4.072,1.552,7.079,3.653,9.019,6.304c1.94,2.651,3.274,6.196,4.009,10.637l-11.379,1.552c-0.518-3.533-2.016-6.292-4.491-8.275
			c-2.479-1.979-5.98-2.974-10.507-2.974c-5.346,0-9.158,0.884-11.442,2.648c-2.284,1.771-3.427,3.838-3.427,6.207
			c0,1.511,0.475,2.866,1.423,4.072c0.946,1.251,2.435,2.285,4.461,3.104c1.164,0.432,4.59,1.422,10.278,2.974
			c8.23,2.198,13.976,3.998,17.229,5.398c3.254,1.399,5.81,3.438,7.661,6.107c1.853,2.673,2.777,5.991,2.777,9.956
			c0,3.879-1.131,7.532-3.394,10.958c-2.263,3.427-5.527,6.077-9.795,7.952c-4.267,1.875-9.094,2.813-14.481,2.813
			c-8.922,0-15.721-1.853-20.396-5.56C6458.205,975.295,6455.223,969.8,6453.93,962.516L6453.93,962.516z"/>
	</g>
	<g>
		<path fill="#999999" d="M3384.607,318.752V139.797h23.682v157.837h88.135v21.118H3384.607z M3610.56,277.004l22.705,2.808
			c-3.582,13.266-10.214,23.56-19.897,30.884c-9.686,7.324-22.055,10.986-37.109,10.986c-18.963,0-33.997-5.838-45.105-17.517
			c-11.108-11.677-16.663-28.055-16.663-49.133c0-21.809,5.615-38.736,16.846-50.781c11.23-12.043,25.797-18.066,43.701-18.066
			c17.334,0,31.494,5.901,42.48,17.7c10.986,11.801,16.479,28.402,16.479,49.805c0,1.303-0.042,3.256-0.122,5.859h-96.68
			c0.813,14.242,4.841,25.146,12.085,32.715c7.242,7.568,16.275,11.353,27.1,11.353c8.057,0,14.933-2.115,20.63-6.348
			C3602.705,293.038,3607.222,286.282,3610.56,277.004z M3538.416,241.482h72.388c-0.977-10.904-3.744-19.083-8.301-24.536
			c-7-8.463-16.073-12.695-27.222-12.695c-10.092,0-18.576,3.378-25.452,10.132C3542.952,221.138,3539.148,230.171,3538.416,241.482
			L3538.416,241.482z M3656.825,329.495l21.362,3.174c0.895,6.592,3.376,11.393,7.446,14.404c5.451,4.068,12.897,6.104,22.339,6.104
			c10.172,0,18.024-2.035,23.56-6.104c5.533-4.07,9.277-9.766,11.23-17.09c1.139-4.477,1.667-13.874,1.587-28.198
			c-9.604,11.313-21.566,16.968-35.889,16.968c-17.822,0-31.616-6.428-41.382-19.287c-9.766-12.857-14.648-28.278-14.648-46.265
			c0-12.369,2.237-23.783,6.714-34.241c4.475-10.456,10.965-18.534,19.47-24.231c8.503-5.695,18.494-8.545,29.968-8.545
			c15.299,0,27.912,6.186,37.842,18.555v-15.625h20.264v112.06c0,20.182-2.056,34.485-6.165,42.908
			c-4.11,8.423-10.62,15.076-19.531,19.958s-19.878,7.324-32.898,7.324c-15.463,0-27.954-3.479-37.476-10.438
			S3656.498,343.491,3656.825,329.495L3656.825,329.495z M3675.013,251.614c0,17.01,3.376,29.419,10.132,37.231
			c6.754,7.813,15.217,11.719,25.391,11.719c10.09,0,18.555-3.885,25.391-11.658c6.836-7.771,10.254-19.958,10.254-36.56
			c0-15.869-3.521-27.832-10.559-35.889c-7.04-8.057-15.524-12.085-25.452-12.085c-9.766,0-18.066,3.967-24.902,11.902
			S3675.013,235.989,3675.013,251.614z M3888.636,277.004l22.705,2.808c-3.582,13.266-10.214,23.56-19.897,30.884
			c-9.686,7.324-22.055,10.986-37.109,10.986c-18.963,0-33.997-5.838-45.105-17.517c-11.108-11.677-16.663-28.055-16.663-49.133
			c0-21.809,5.615-38.736,16.846-50.781c11.23-12.043,25.797-18.066,43.701-18.066c17.334,0,31.494,5.901,42.48,17.7
			c10.986,11.801,16.479,28.402,16.479,49.805c0,1.303-0.042,3.256-0.122,5.859h-96.68c0.813,14.242,4.841,25.146,12.085,32.715
			c7.242,7.568,16.275,11.353,27.1,11.353c8.057,0,14.933-2.115,20.63-6.348C3880.782,293.038,3885.298,286.282,3888.636,277.004
			L3888.636,277.004z M3816.493,241.482h72.388c-0.977-10.904-3.744-19.083-8.301-24.536c-7-8.463-16.073-12.695-27.222-12.695
			c-10.092,0-18.576,3.378-25.452,10.132C3821.028,221.138,3817.225,230.171,3816.493,241.482L3816.493,241.482z M3938.929,318.752
			V189.114h19.775v18.433c9.521-14.24,23.273-21.362,41.26-21.362c7.813,0,14.994,1.404,21.545,4.211s11.454,6.491,14.71,11.047
			c3.254,4.559,5.533,9.97,6.836,16.235c0.813,4.07,1.221,11.19,1.221,21.362v79.712h-21.973v-78.857
			c0-8.951-0.854-15.644-2.563-20.081c-1.709-4.435-4.739-7.975-9.094-10.62c-4.354-2.646-9.461-3.967-15.32-3.967
			c-9.359,0-17.437,2.972-24.231,8.911c-6.796,5.941-10.193,17.212-10.193,33.813v70.801H3938.929L3938.929,318.752z
			 M4162.073,318.752v-16.357c-8.221,12.859-20.306,19.287-36.255,19.287c-10.336,0-19.837-2.85-28.503-8.545
			c-8.668-5.695-15.381-13.651-20.143-23.865c-4.76-10.212-7.143-21.952-7.143-35.217c0-12.939,2.155-24.677,6.472-35.217
			c4.313-10.538,10.781-18.616,19.408-24.231c8.625-5.615,18.27-8.423,28.932-8.423c7.813,0,14.771,1.648,20.874,4.944
			c6.103,3.296,11.064,7.589,14.893,12.878v-64.209h21.853v178.955H4162.073L4162.073,318.752z M4092.615,254.055
			c0,16.602,3.498,29.013,10.498,37.231c6.998,8.221,15.261,12.329,24.78,12.329c9.604,0,17.762-3.925,24.476-11.78
			c6.716-7.853,10.07-19.836,10.07-35.95c0-17.74-3.418-30.762-10.254-39.063c-6.836-8.301-15.259-12.451-25.269-12.451
			c-9.768,0-17.927,3.988-24.477,11.963C4095.891,224.312,4092.615,236.885,4092.615,254.055L4092.615,254.055z"/>
	</g>
	<path opacity="0.6" fill="#999999" enable-background="new    " d="M255.577,477.815h7513.335v4.995H255.577V477.815z"/>
</g>
</svg>
