<svg xmlns="http://www.w3.org/2000/svg" width="900" height="900" viewBox="-405 -866 900 900"><path fill="#4D4D4D" d="M-59.59-334.958H150v149.585L45.83-97.042-60-185.373z"/><path fill="#FFF" d="M7.149-223.715l14.766-1.25c1.094 7.188 3.633 12.592 7.617 16.211 3.984 3.621 8.789 5.43 14.414 5.43 6.77 0 12.5-2.551 17.188-7.656 4.688-5.104 7.031-11.875 7.031-20.313 0-8.02-2.254-14.348-6.758-18.984-4.506-4.635-10.404-6.953-17.695-6.953-4.531 0-8.621 1.029-12.266 3.086-3.646 2.058-6.511 4.727-8.594 8.008l-13.203-1.719 11.094-58.828h56.953v13.438H31.993l-6.172 30.781c6.875-4.791 14.088-7.188 21.641-7.188 10 0 18.438 3.464 25.313 10.391 6.875 6.928 10.313 15.834 10.313 26.719 0 10.365-3.021 19.324-9.063 26.875-7.344 9.271-17.371 13.906-30.078 13.906-10.417 0-18.92-2.916-25.508-8.75-6.59-5.833-10.352-13.567-11.29-23.204z"/></svg>