<svg xmlns="http://www.w3.org/2000/svg" width="900" height="900" viewBox="-405 -866 900 900"><path fill="#4D4D4D" d="M-59.59-334.958H150v149.585L45.83-97.042-60-185.373z"/><path d="M9.627-193.715H-4.436v-89.609c-3.386 3.23-7.826 6.459-13.32 9.688-5.496 3.23-10.43 5.652-14.805 7.266v-13.594c7.864-3.697 14.739-8.176 20.625-13.438 5.885-5.26 10.051-10.364 12.5-15.313h9.063v115zm81.094 0v-27.422H41.033v-12.891l52.266-74.219h11.484v74.219h15.469v12.891h-15.469v27.422H90.721zm0-40.312v-51.641l-35.859 51.641h35.859z" fill="#FFF"/></svg>