<svg xmlns="http://www.w3.org/2000/svg" width="900" height="900" viewBox="-405 -866 900 900"><path fill="#4D4D4D" d="M-59.59-334.958H150v149.585L45.83-97.042-60-185.373z"/><path d="M20.564-193.715H6.502v-89.609c-3.386 3.23-7.826 6.459-13.32 9.688-5.496 3.23-10.43 5.652-14.805 7.266v-13.594c7.864-3.697 14.739-8.176 20.625-13.438 5.885-5.26 10.051-10.364 12.5-15.313h9.063v115zm77.11 0H83.611v-89.609c-3.387 3.23-7.826 6.459-13.32 9.688-5.496 3.23-10.43 5.652-14.805 7.266v-13.594c7.863-3.697 14.738-8.176 20.625-13.438 5.885-5.26 10.051-10.364 12.5-15.313h9.063v115z" fill="#FFF"/></svg>