<svg xmlns="http://www.w3.org/2000/svg" width="900" height="900" viewBox="-405 -866 900 900"><path fill="#4D4D4D" d="M-59.59-334.958H150v149.585L45.83-97.042-60-185.373z"/><path d="M9.627-193.715H-4.436v-89.609c-3.386 3.23-7.826 6.459-13.32 9.688-5.496 3.23-10.43 5.652-14.805 7.266v-13.594c7.864-3.697 14.739-8.176 20.625-13.438 5.885-5.26 10.051-10.364 12.5-15.313h9.063v115zm109.922-13.515v13.516H43.846a24.845 24.845 0 0 1 1.641-9.766c1.926-5.156 5.012-10.234 9.258-15.234 4.244-5 10.377-10.781 18.398-17.344 12.447-10.208 20.859-18.293 25.234-24.258 4.375-5.963 6.563-11.602 6.563-16.914 0-5.572-1.992-10.273-5.977-14.102s-9.18-5.742-15.586-5.742c-6.771 0-12.188 2.031-16.25 6.094s-6.121 9.688-6.172 16.875l-14.453-1.484c.988-10.781 4.713-18.997 11.172-24.648 6.457-5.65 15.129-8.477 26.016-8.477 10.988 0 19.688 3.047 26.094 9.141s9.609 13.646 9.609 22.656c0 4.584-.938 9.089-2.813 13.516-1.875 4.428-4.988 9.089-9.336 13.984-4.35 4.896-11.576 11.615-21.68 20.156-8.438 7.084-13.855 11.889-16.25 14.414-2.396 2.527-4.375 5.066-5.938 7.617h56.173z" fill="#FFF"/></svg>