<svg xmlns="http://www.w3.org/2000/svg" width="900" height="900" viewBox="-405 -866 900 900"><path fill="#4D4D4D" d="M-59.59-334.958H150v149.585L45.83-97.042-60-185.373z"/><path fill="#FFF" d="M9.259-220.199l13.516-1.25c1.145 6.355 3.333 10.965 6.563 13.828 3.229 2.865 7.369 4.297 12.422 4.297 4.322 0 8.111-.988 11.367-2.969 3.254-1.979 5.924-4.621 8.008-7.93 2.082-3.307 3.828-7.773 5.234-13.398s2.109-11.354 2.109-17.188c0-.625-.027-1.563-.078-2.813-2.813 4.48-6.654 8.113-11.523 10.898-4.871 2.787-10.145 4.18-15.82 4.18-9.48 0-17.5-3.438-24.063-10.313S7.15-258.795 7.15-270.045c0-11.614 3.424-20.963 10.273-28.047 6.848-7.083 15.43-10.625 25.742-10.625 7.447 0 14.258 2.006 20.43 6.016 6.172 4.011 10.859 9.727 14.063 17.148s4.805 18.164 4.805 32.227c0 14.636-1.59 26.289-4.766 34.961-3.178 8.672-7.904 15.273-14.18 19.805-6.277 4.531-13.633 6.797-22.07 6.797-8.959 0-16.277-2.486-21.953-7.461-5.679-4.971-9.09-11.964-10.235-20.975zm57.578-50.547c0-8.072-2.148-14.479-6.445-19.219-4.297-4.739-9.467-7.109-15.508-7.109-6.25 0-11.693 2.553-16.328 7.656-4.636 5.105-6.953 11.719-6.953 19.844 0 7.292 2.2 13.217 6.602 17.773 4.4 4.558 9.83 6.836 16.289 6.836 6.51 0 11.861-2.278 16.055-6.836 4.19-4.556 6.288-10.871 6.288-18.945z"/></svg>