<svg xmlns="http://www.w3.org/2000/svg" width="900" height="900" viewBox="-405 -866 900 900"><path fill="#4D4D4D" d="M-59.59-334.958H150v149.585L45.83-97.042-60-185.373z"/><path d="M9.627-193.717H-4.436v-89.609c-3.386 3.23-7.826 6.458-13.32 9.688-5.496 3.23-10.43 5.652-14.805 7.266v-13.594c7.864-3.698 14.739-8.176 20.625-13.438 5.885-5.26 10.051-10.364 12.5-15.313h9.063v115zm57.656-62.11c-5.834-2.135-10.156-5.182-12.969-9.141-2.813-3.958-4.219-8.698-4.219-14.219 0-8.333 2.994-15.338 8.984-21.016 5.988-5.676 13.957-8.516 23.906-8.516 10 0 18.047 2.904 24.141 8.711 6.094 5.808 9.141 12.878 9.141 21.211 0 5.313-1.395 9.935-4.18 13.867-2.787 3.933-7.02 6.966-12.695 9.102 7.031 2.292 12.383 5.99 16.055 11.094 3.672 5.105 5.508 11.199 5.508 18.281 0 9.792-3.465 18.021-10.391 24.688-6.928 6.667-16.043 10-27.344 10-11.303 0-20.418-3.346-27.344-10.039-6.928-6.692-10.391-15.039-10.391-25.039 0-7.448 1.887-13.684 5.664-18.711 3.777-5.025 9.154-8.449 16.134-10.273zm-7.344 29.063c0 4.011.949 7.891 2.852 11.641 1.9 3.75 4.727 6.654 8.477 8.711 3.75 2.058 7.785 3.086 12.109 3.086 6.719 0 12.266-2.161 16.641-6.484 4.375-4.323 6.563-9.817 6.563-16.484 0-6.77-2.254-12.37-6.758-16.797-4.506-4.426-10.145-6.641-16.914-6.641-6.615 0-12.098 2.188-16.445 6.563-4.351 4.374-6.525 9.842-6.525 16.405zm4.532-52.891c0 5.417 1.744 9.844 5.234 13.281 3.488 3.438 8.02 5.156 13.594 5.156 5.416 0 9.855-1.706 13.32-5.117 3.463-3.411 5.195-7.59 5.195-12.539 0-5.156-1.785-9.492-5.352-13.008-3.568-3.516-8.008-5.273-13.32-5.273-5.365 0-9.818 1.719-13.359 5.156-3.543 3.438-5.312 7.553-5.312 12.344z" fill="#FFF"/></svg>