<svg xmlns="http://www.w3.org/2000/svg" width="900" height="900" viewBox="-405 -866 900 900"><path fill="#4D4D4D" d="M-59.59-334.958H150v149.585L45.83-97.042-60-185.373z"/><path fill="#FFF" d="M81.055-207.238v13.516H5.352a24.743 24.743 0 0 1 1.641-9.766c1.924-5.156 5.01-10.234 9.258-15.234 4.243-5 10.376-10.781 18.398-17.344 12.446-10.205 20.859-18.291 25.234-24.258 4.375-5.962 6.563-11.602 6.563-16.914 0-5.571-1.992-10.273-5.977-14.102s-9.18-5.742-15.586-5.742c-6.772 0-12.188 2.031-16.25 6.094s-6.123 9.688-6.172 16.875l-14.453-1.484c.986-10.781 4.712-18.994 11.172-24.648 6.455-5.649 15.127-8.477 26.016-8.477 10.986 0 19.688 3.047 26.094 9.141s9.609 13.647 9.609 22.656c0 4.585-.938 9.092-2.813 13.516-1.875 4.429-4.99 9.092-9.336 13.984-4.346 4.897-11.572 11.616-21.68 20.156-8.438 7.085-13.857 11.89-16.25 14.414-2.397 2.529-4.375 5.068-5.938 7.617h56.173z"/></svg>