<svg xmlns="http://www.w3.org/2000/svg" width="900" height="900" viewBox="-405 -866 900 900"><path fill="#4D4D4D" d="M-59.59-334.958H150v149.585L45.83-97.042-60-185.373z"/><path d="M9.627-193.715H-4.436v-89.609c-3.386 3.23-7.826 6.459-13.32 9.688-5.496 3.23-10.43 5.652-14.805 7.266v-13.594c7.864-3.697 14.739-8.176 20.625-13.438 5.885-5.26 10.051-10.364 12.5-15.313h9.063v115zm108.984-86.484l-13.984 1.094c-1.25-5.52-3.021-9.531-5.313-12.031-3.803-4.01-8.49-6.016-14.063-6.016-4.48 0-8.412 1.25-11.797 3.75-4.428 3.23-7.918 7.943-10.469 14.141-2.553 6.199-3.881 15.027-3.984 26.484 3.385-5.156 7.525-8.984 12.422-11.484 4.895-2.5 10.025-3.75 15.391-3.75 9.375 0 17.355 3.451 23.945 10.352 6.588 6.902 9.883 15.82 9.883 26.758 0 7.188-1.551 13.867-4.648 20.039-3.1 6.172-7.357 10.898-12.773 14.18-5.418 3.281-11.563 4.922-18.438 4.922-11.719 0-21.277-4.309-28.672-12.93-7.396-8.619-11.094-22.825-11.094-42.617 0-22.135 4.088-38.229 12.266-48.281 7.135-8.75 16.744-13.125 28.828-13.125 9.01 0 16.393 2.527 22.148 7.578 5.755 5.051 9.206 12.03 10.352 20.936zm-57.422 49.375c0 4.844 1.027 9.48 3.086 13.906 2.057 4.428 4.934 7.801 8.633 10.117 3.697 2.318 7.578 3.477 11.641 3.477 5.938 0 11.041-2.395 15.313-7.188 4.27-4.791 6.406-11.301 6.406-19.531 0-7.916-2.109-14.153-6.328-18.711-4.219-4.557-9.531-6.836-15.938-6.836-6.355 0-11.746 2.279-16.172 6.836-4.428 4.558-6.641 10.535-6.641 17.93z" fill="#FFF"/></svg>