<svg xmlns="http://www.w3.org/2000/svg" width="900" height="900" viewBox="-405 -866 900 900"><path fill="#4D4D4D" d="M-59.59-334.955H150v149.58L45.83-97.045-60-185.375z"/><path d="M9.627-193.721H-4.436v-89.609c-3.386 3.23-7.826 6.458-13.32 9.688-5.496 3.23-10.43 5.652-14.805 7.266v-13.594c7.864-3.698 14.739-8.176 20.625-13.438 5.885-5.26 10.051-10.364 12.5-15.313h9.063v115zm36.094-30.235l14.063-1.875c1.613 7.969 4.361 13.711 8.242 17.227 3.879 3.516 8.605 5.273 14.18 5.273 6.613 0 12.199-2.292 16.758-6.875 4.557-4.583 6.836-10.26 6.836-17.031 0-6.458-2.109-11.784-6.328-15.977-4.219-4.192-9.584-6.289-16.094-6.289-2.656 0-5.965.521-9.922 1.563l1.563-12.344c.938.105 1.691.156 2.266.156 5.988 0 11.379-1.563 16.172-4.688 4.791-3.125 7.188-7.942 7.188-14.453 0-5.156-1.746-9.426-5.234-12.813-3.49-3.385-7.996-5.078-13.516-5.078-5.469 0-10.027 1.719-13.672 5.156-3.646 3.438-5.99 8.594-7.031 15.469l-14.063-2.5c1.719-9.426 5.625-16.731 11.719-21.914 6.094-5.182 13.672-7.773 22.734-7.773 6.25 0 12.004 1.341 17.266 4.023 5.26 2.683 9.283 6.341 12.07 10.977 2.785 4.636 4.18 9.558 4.18 14.766 0 4.949-1.328 9.453-3.984 13.516s-6.59 7.292-11.797 9.688c6.77 1.563 12.031 4.805 15.781 9.727s5.625 11.082 5.625 18.477c0 10-3.646 18.477-10.938 25.43-7.293 6.953-16.512 10.43-27.656 10.43-10.053 0-18.398-2.995-25.039-8.984-6.643-5.991-10.432-13.752-11.369-23.284z" fill="#FFF"/></svg>