<svg xmlns="http://www.w3.org/2000/svg" width="900" height="900" viewBox="-405 -866 900 900"><path fill="#4D4D4D" d="M-59.59-334.958H150v149.585L45.83-97.042-60-185.373z"/><path d="M9.627-193.715H-4.436v-89.609c-3.386 3.23-7.826 6.459-13.32 9.688-5.496 3.23-10.43 5.652-14.805 7.266v-13.594c7.864-3.697 14.739-8.176 20.625-13.438 5.885-5.26 10.051-10.364 12.5-15.313h9.063v115zm36.016-56.484c0-13.541 1.393-24.439 4.18-32.695 2.785-8.254 6.926-14.622 12.422-19.102 5.494-4.479 12.408-6.719 20.742-6.719 6.145 0 11.535 1.238 16.172 3.711 4.635 2.475 8.463 6.042 11.484 10.703 3.02 4.662 5.391 10.339 7.109 17.031 1.719 6.693 2.578 15.717 2.578 27.07 0 13.438-1.381 24.285-4.141 32.539-2.762 8.256-6.889 14.637-12.383 19.141-5.496 4.506-12.436 6.758-20.82 6.758-11.043 0-19.715-3.957-26.016-11.875-7.552-9.531-11.327-25.051-11.327-46.562zm14.453 0c0 18.803 2.199 31.316 6.602 37.539 4.4 6.225 9.83 9.336 16.289 9.336 6.457 0 11.887-3.125 16.289-9.375 4.4-6.25 6.602-18.75 6.602-37.5 0-18.854-2.201-31.379-6.602-37.578-4.402-6.197-9.883-9.297-16.445-9.297-6.459 0-11.615 2.734-15.469 8.203-4.844 6.98-7.266 19.871-7.266 38.672z" fill="#FFF"/></svg>