<svg xmlns="http://www.w3.org/2000/svg" width="900" height="900" viewBox="-405 -866 900 900"><path fill="#4D4D4D" d="M-59.59-334.958H150v149.585L45.83-97.042-60-185.373z"/><path fill="#FFF" d="M28.79-255.824c-5.834-2.135-10.156-5.182-12.969-9.141-2.813-3.958-4.219-8.697-4.219-14.219 0-8.333 2.994-15.338 8.984-21.016 5.989-5.676 13.958-8.516 23.906-8.516 10 0 18.047 2.904 24.141 8.711 6.094 5.808 9.141 12.878 9.141 21.211 0 5.313-1.395 9.936-4.18 13.867-2.787 3.933-7.02 6.967-12.695 9.102 7.031 2.292 12.383 5.99 16.055 11.094 3.672 5.105 5.508 11.199 5.508 18.281 0 9.792-3.465 18.021-10.391 24.688-6.928 6.668-16.043 10-27.344 10-11.303 0-20.417-3.346-27.344-10.039-6.928-6.691-10.391-15.039-10.391-25.039 0-7.447 1.887-13.684 5.664-18.711 3.777-5.025 9.154-8.449 16.134-10.273zm-7.344 29.062c0 4.011.95 7.891 2.852 11.641 1.9 3.75 4.727 6.654 8.477 8.711 3.75 2.059 7.786 3.086 12.109 3.086 6.719 0 12.266-2.16 16.641-6.484 4.375-4.322 6.563-9.817 6.563-16.484 0-6.77-2.254-12.369-6.758-16.797-4.506-4.426-10.145-6.641-16.914-6.641-6.615 0-12.097 2.188-16.445 6.563-4.351 4.374-6.525 9.843-6.525 16.405zm4.532-52.89c0 5.417 1.744 9.844 5.234 13.281 3.489 3.438 8.02 5.156 13.594 5.156 5.416 0 9.855-1.705 13.32-5.117 3.463-3.411 5.195-7.59 5.195-12.539 0-5.156-1.785-9.492-5.352-13.008-3.568-3.516-8.008-5.273-13.32-5.273-5.365 0-9.818 1.719-13.359 5.156-3.542 3.437-5.312 7.553-5.312 12.344z"/></svg>