<?xml version="1.0" encoding="utf-8"?>
<!-- Generator: Adobe Illustrator 16.0.3, SVG Export Plug-In . SVG Version: 6.00 Build 0)  -->
<!DOCTYPE svg PUBLIC "-//W3C//DTD SVG 1.1//EN" "http://www.w3.org/Graphics/SVG/1.1/DTD/svg11.dtd">
<svg version="1.1" id="Layer_1" xmlns="http://www.w3.org/2000/svg" xmlns:xlink="http://www.w3.org/1999/xlink" x="0px" y="0px"
	 width="5800px" height="500px" viewBox="0 0 5800 500" enable-background="new 0 0 5800 500" xml:space="preserve">
<path d="M576.605,399.722V113.394h108.008c19.009,0,33.525,0.913,43.555,2.734c14.063,2.344,25.845,6.806,35.352,13.379
	c9.504,6.577,17.154,15.79,22.949,27.637c5.792,11.85,8.691,24.872,8.691,39.063c0,24.35-7.749,44.956-23.242,61.816
	c-15.497,16.863-43.491,25.293-83.984,25.293h-73.438v116.405H576.605L576.605,399.722z M614.496,249.526h74.022
	c24.479,0,41.861-4.556,52.148-13.672c10.284-9.112,15.43-21.939,15.43-38.477c0-11.978-3.026-22.232-9.082-30.762
	c-6.055-8.526-14.031-14.16-23.926-16.896c-6.381-1.69-18.164-2.539-35.352-2.539h-73.242L614.496,249.526L614.496,249.526z
	 M980.902,332.925l36.328,4.492c-5.731,21.225-16.343,37.695-31.836,49.414c-15.498,11.719-35.289,17.578-59.376,17.578
	c-30.341,0-54.395-9.341-72.168-28.027c-17.772-18.683-26.659-44.888-26.659-78.612c0-34.895,8.983-61.979,26.952-81.25
	c17.97-19.269,41.275-28.906,69.923-28.906c27.733,0,50.391,9.442,67.969,28.32c17.578,18.881,26.367,45.444,26.367,79.688
	c0,2.084-0.067,5.209-0.195,9.375H863.52c1.301,22.788,7.745,40.234,19.337,52.344c11.587,12.109,26.041,18.164,43.358,18.164
	c12.892,0,23.893-3.384,33.008-10.156C968.335,358.578,975.563,347.769,980.902,332.925L980.902,332.925z M865.473,276.089h115.82
	c-1.563-17.446-5.991-30.533-13.281-39.258c-11.199-13.541-25.717-20.313-43.555-20.313c-16.147,0-29.721,5.405-40.723,16.211
	C872.729,243.539,866.645,257.992,865.473,276.089z M1060.98,399.722V192.3h31.641v31.445c8.072-14.712,15.527-24.414,22.363-29.102
	s14.354-7.031,22.559-7.031c11.847,0,23.893,3.778,36.133,11.328l-12.108,32.617c-8.595-5.078-17.188-7.617-25.781-7.617
	c-7.686,0-14.584,2.313-20.703,6.934c-6.122,4.624-10.482,11.035-13.086,19.238c-3.906,12.5-5.859,26.172-5.859,41.016v108.594
	H1060.98z M1194.77,153.823v-40.43h35.156v40.43H1194.77z M1194.77,399.722V192.3h35.156v207.422H1194.77z M1270.355,296.011
	c0-38.409,10.675-66.861,32.03-85.352c17.838-15.362,39.581-23.047,65.234-23.047c28.516,0,51.822,9.345,69.922,28.027
	c18.097,18.686,27.147,44.501,27.147,77.441c0,26.694-4.004,47.689-12.012,62.988c-8.008,15.302-19.662,27.182-34.961,35.645
	c-15.302,8.462-32.001,12.695-50.098,12.695c-29.037,0-52.509-9.309-70.41-27.93
	C1279.307,357.861,1270.355,331.039,1270.355,296.011L1270.355,296.011z M1306.488,296.011c0,26.563,5.792,46.454,17.383,59.668
	c11.588,13.218,26.172,19.824,43.75,19.824c17.447,0,31.964-6.641,43.555-19.922c11.588-13.281,17.384-33.526,17.384-60.742
	c0-25.649-5.829-45.083-17.48-58.301c-11.654-13.214-26.142-19.824-43.457-19.824c-17.578,0-32.162,6.577-43.75,19.727
	C1312.28,249.594,1306.488,269.448,1306.488,296.011L1306.488,296.011z M1640.473,399.722V373.55
	c-13.152,20.575-32.488,30.859-58.008,30.859c-16.537,0-31.738-4.561-45.604-13.672c-13.867-9.112-24.609-21.841-32.228-38.185
	c-7.617-16.339-11.426-35.123-11.426-56.348c0-20.703,3.448-39.482,10.352-56.348c6.9-16.861,17.252-29.785,31.056-38.77
	c13.8-8.984,29.229-13.477,46.289-13.477c12.5,0,23.633,2.637,33.397,7.91c9.766,5.273,17.706,12.143,23.828,20.605V113.394h34.961
	v286.328H1640.473L1640.473,399.722z M1529.34,296.206c0,26.563,5.598,46.42,16.797,59.57
	c11.197,13.152,24.414,19.727,39.648,19.727c15.361,0,28.418-6.28,39.16-18.848c10.741-12.564,16.112-31.738,16.112-57.521
	c0-28.384-5.469-49.219-16.405-62.5c-10.938-13.281-24.414-19.922-40.431-19.922c-15.625,0-28.681,6.381-39.16,19.141
	C1534.58,248.617,1529.34,268.734,1529.34,296.206L1529.34,296.206z M1728.559,153.823v-40.43h35.156v40.43H1728.559z
	 M1728.559,399.722V192.3h35.156v207.422H1728.559z M1952.582,323.745l34.57,4.492c-3.778,23.828-13.446,42.479-29.004,55.957
	c-15.562,13.477-34.668,20.215-57.324,20.215c-28.389,0-51.205-9.277-68.457-27.832c-17.255-18.555-25.879-45.147-25.879-79.785
	c0-22.394,3.711-41.992,11.133-58.789s18.717-29.395,33.887-37.793c15.167-8.398,31.671-12.598,49.512-12.598
	c22.525,0,40.948,5.698,55.273,17.09c14.322,11.396,23.502,27.573,27.539,48.534l-34.181,5.273
	c-3.256-13.931-9.018-24.414-17.284-31.445c-8.271-7.031-18.263-10.547-29.98-10.547c-17.709,0-32.099,6.348-43.164,19.043
	c-11.068,12.695-16.602,32.782-16.602,60.253c0,27.866,5.338,48.114,16.016,60.742c10.675,12.632,24.609,18.945,41.797,18.945
	c13.8,0,25.323-4.229,34.57-12.695C1944.248,354.345,1950.106,341.323,1952.582,323.745L1952.582,323.745z M2198.48,399.722V147.183
	h-94.336v-33.789h226.953v33.789h-94.728v252.539H2198.48L2198.48,399.722z M2456.488,374.136
	c-13.021,11.069-25.557,18.881-37.598,23.438c-12.045,4.556-24.971,6.836-38.771,6.836c-22.787,0-40.302-5.566-52.539-16.699
	c-12.24-11.133-18.358-25.357-18.358-42.676c0-10.156,2.311-19.435,6.934-27.832c4.62-8.398,10.675-15.137,18.164-20.215
	c7.486-5.078,15.918-8.918,25.293-11.523c6.9-1.822,17.314-3.58,31.25-5.273c28.385-3.383,49.283-7.422,62.695-12.108
	c0.128-4.815,0.195-7.876,0.195-9.181c0-14.321-3.32-24.414-9.961-30.272c-8.984-7.94-22.334-11.914-40.039-11.914
	c-16.537,0-28.744,2.899-36.621,8.691c-7.881,5.795-13.705,16.049-17.48,30.762l-34.375-4.688
	c3.125-14.711,8.268-26.593,15.43-35.645c7.159-9.048,17.512-16.016,31.055-20.898c13.541-4.883,29.229-7.324,47.07-7.324
	c17.706,0,32.096,2.084,43.164,6.25c11.065,4.169,19.205,9.409,24.414,15.723c5.206,6.317,8.854,14.292,10.938,23.926
	c1.172,5.991,1.758,16.797,1.758,32.423v46.874c0,32.686,0.748,53.354,2.246,62.013c1.495,8.661,4.459,16.962,8.887,24.901h-36.719
	C2459.873,392.431,2457.529,383.901,2456.488,374.136L2456.488,374.136z M2453.559,295.62c-12.763,5.209-31.902,9.638-57.422,13.281
	c-14.453,2.084-24.677,4.428-30.664,7.03c-5.99,2.606-10.613,6.415-13.867,11.427c-3.256,5.014-4.883,10.581-4.883,16.698
	c0,9.375,3.546,17.188,10.646,23.438c7.096,6.25,17.479,9.375,31.151,9.375c13.541,0,25.586-2.96,36.134-8.887
	c10.547-5.924,18.292-14.029,23.241-24.316c3.775-7.94,5.664-19.659,5.664-35.156V295.62z M2576.02,399.722h-32.616V113.394h35.155
	v102.148c14.845-18.619,33.789-27.93,56.836-27.93c12.761,0,24.836,2.573,36.23,7.715c11.393,5.146,20.768,12.372,28.125,21.68
	c7.354,9.311,13.116,20.542,17.285,33.691c4.166,13.153,6.25,27.216,6.25,42.188c0,35.547-8.789,63.022-26.367,82.422
	c-17.578,19.403-38.672,29.103-63.281,29.103c-24.48,0-43.686-10.22-57.617-30.664V399.722z M2575.629,294.448
	c0,24.872,3.385,42.841,10.156,53.905c11.064,18.101,26.041,27.148,44.922,27.148c15.362,0,28.645-6.671,39.844-20.02
	c11.197-13.346,16.797-33.233,16.797-59.668c0-27.082-5.371-47.07-16.112-59.961c-10.742-12.891-23.73-19.336-38.966-19.336
	c-15.364,0-28.646,6.674-39.844,20.02C2581.227,249.887,2575.629,269.189,2575.629,294.448L2575.629,294.448z M2765.277,399.722
	V113.394h35.156v286.328H2765.277z M2996.918,332.925l36.328,4.492c-5.731,21.225-16.342,37.695-31.836,49.414
	c-15.497,11.719-35.287,17.578-59.375,17.578c-30.342,0-54.396-9.341-72.168-28.027c-17.773-18.683-26.66-44.888-26.66-78.612
	c0-34.895,8.984-61.979,26.953-81.25c17.969-19.269,41.274-28.906,69.922-28.906c27.734,0,50.391,9.442,67.969,28.32
	c17.578,18.881,26.367,45.444,26.367,79.688c0,2.084-0.066,5.209-0.195,9.375h-154.688c1.3,22.788,7.745,40.234,19.336,52.344
	c11.588,12.109,26.041,18.164,43.358,18.164c12.892,0,23.894-3.384,33.009-10.156
	C2984.351,358.578,2991.577,347.769,2996.918,332.925L2996.918,332.925z M2881.488,276.089h115.82
	c-1.563-17.446-5.99-30.533-13.281-39.258c-11.2-13.541-25.717-20.313-43.555-20.313c-16.146,0-29.722,5.405-40.724,16.211
	C2888.745,243.539,2882.66,257.992,2881.488,276.089L2881.488,276.089z M3175.434,296.011c0-38.409,10.676-66.861,32.031-85.352
	c17.838-15.362,39.581-23.047,65.234-23.047c28.516,0,51.822,9.345,69.922,28.027c18.097,18.686,27.148,44.501,27.148,77.441
	c0,26.694-4.004,47.689-12.013,62.988c-8.008,15.302-19.662,27.182-34.961,35.645c-15.302,8.462-32.001,12.695-50.098,12.695
	c-29.037,0-52.509-9.309-70.41-27.93C3184.385,357.861,3175.435,331.039,3175.434,296.011L3175.434,296.011z M3211.566,296.011
	c0,26.563,5.792,46.454,17.383,59.668c11.588,13.218,26.172,19.824,43.75,19.824c17.447,0,31.964-6.641,43.555-19.922
	c11.588-13.281,17.383-33.526,17.383-60.742c0-25.649-5.828-45.083-17.479-58.301c-11.654-13.214-26.142-19.824-43.457-19.824
	c-17.578,0-32.162,6.577-43.75,19.727C3217.358,249.594,3211.566,269.448,3211.566,296.011z M3419.379,399.722V219.644h-31.055
	V192.3h31.055v-22.07c0-13.931,1.236-24.283,3.711-31.055c3.385-9.112,9.342-16.504,17.871-22.168
	c8.525-5.664,20.475-8.496,35.84-8.496c9.895,0,20.831,1.172,32.813,3.516l-5.273,30.664c-7.294-1.3-14.192-1.953-20.702-1.953
	c-10.679,0-18.231,2.28-22.656,6.836c-4.428,4.56-6.642,13.086-6.642,25.586v19.14h40.431v27.344h-40.431v180.078H3419.379
	L3419.379,399.722z M3638.52,399.722V113.394h207.031v33.789H3676.41v87.695h158.397v33.595H3676.41v97.46h175.781v33.789H3638.52z
	 M3899.262,399.722V113.394h35.156v286.328H3899.262z M4130.902,332.925l36.328,4.492c-5.731,21.225-16.342,37.695-31.836,49.414
	c-15.498,11.719-35.287,17.578-59.375,17.578c-30.342,0-54.396-9.341-72.168-28.027c-17.773-18.683-26.66-44.888-26.66-78.612
	c0-34.895,8.983-61.979,26.953-81.25c17.969-19.269,41.274-28.906,69.922-28.906c27.733,0,50.391,9.442,67.969,28.32
	c17.578,18.881,26.367,45.444,26.367,79.688c0,2.084-0.066,5.209-0.195,9.375H4013.52c1.301,22.788,7.746,40.234,19.336,52.344
	c11.588,12.109,26.041,18.164,43.359,18.164c12.891,0,23.893-3.384,33.008-10.156
	C4118.334,358.578,4125.562,347.769,4130.902,332.925L4130.902,332.925z M4015.473,276.089h115.82
	c-1.563-17.446-5.99-30.533-13.281-39.258c-11.199-13.541-25.717-20.313-43.555-20.313c-16.146,0-29.721,5.405-40.723,16.211
	C4022.729,243.539,4016.646,257.992,4015.473,276.089L4015.473,276.089z M4211.371,399.722V192.3h31.445v29.102
	c6.51-10.156,15.166-18.326,25.977-24.512c10.807-6.183,23.111-9.277,36.914-9.277c15.361,0,27.96,3.192,37.793,9.57
	c9.83,6.381,16.764,15.302,20.801,26.758c16.406-24.219,37.76-36.328,64.063-36.328c20.572,0,36.394,5.698,47.461,17.09
	c11.065,11.396,16.603,28.94,16.603,52.637v142.383h-34.961V269.059c0-14.063-1.142-24.186-3.418-30.372
	c-2.278-6.183-6.415-11.163-12.401-14.941c-5.99-3.775-13.021-5.664-21.095-5.664c-14.584,0-26.692,4.853-36.328,14.551
	c-9.638,9.702-14.453,25.229-14.453,46.582v120.508h-35.155V264.956c0-15.625-2.865-27.344-8.595-35.156
	c-5.731-7.813-15.106-11.719-28.125-11.719c-9.896,0-19.043,2.606-27.44,7.813c-8.398,5.209-14.486,12.827-18.263,22.852
	c-3.778,10.027-5.664,24.48-5.664,43.359v107.616H4211.371L4211.371,399.722z M4686.566,332.925l36.328,4.492
	c-5.731,21.225-16.342,37.695-31.836,49.414c-15.498,11.719-35.287,17.578-59.375,17.578c-30.342,0-54.396-9.341-72.168-28.027
	c-17.773-18.683-26.66-44.888-26.66-78.612c0-34.895,8.983-61.979,26.953-81.25c17.969-19.269,41.274-28.906,69.922-28.906
	c27.733,0,50.391,9.442,67.969,28.32c17.578,18.881,26.367,45.444,26.367,79.688c0,2.084-0.066,5.209-0.195,9.375h-154.688
	c1.3,22.788,7.745,40.234,19.336,52.344c11.588,12.109,26.041,18.164,43.359,18.164c12.891,0,23.893-3.384,33.008-10.156
	C4673.999,358.578,4681.227,347.769,4686.566,332.925L4686.566,332.925z M4571.137,276.089h115.82
	c-1.563-17.446-5.99-30.533-13.281-39.258c-11.2-13.541-25.717-20.313-43.555-20.313c-16.146,0-29.722,5.405-40.724,16.211
	C4578.394,243.539,4572.309,257.992,4571.137,276.089L4571.137,276.089z M4767.035,399.722V192.3h31.641v29.492
	c15.234-22.784,37.237-34.18,66.017-34.18c12.5,0,23.99,2.246,34.474,6.738c10.479,4.492,18.326,10.385,23.535,17.676
	c5.205,7.294,8.854,15.952,10.938,25.977c1.3,6.513,1.953,17.905,1.953,34.181v127.538h-35.156V273.55
	c0-14.321-1.367-25.03-4.102-32.129c-2.734-7.095-7.587-12.759-14.551-16.992c-6.967-4.229-15.137-6.348-24.512-6.348
	c-14.976,0-27.899,4.755-38.771,14.258c-10.873,9.506-16.31,27.539-16.31,54.103v113.28H4767.035L4767.035,399.722z
	 M5066.254,368.276l5.078,31.055c-9.896,2.081-18.75,3.125-26.563,3.125c-12.764,0-22.656-2.021-29.688-6.055
	c-7.032-4.034-11.981-9.342-14.845-15.918c-2.865-6.573-4.297-20.41-4.297-41.505V219.644h-25.78V192.3h25.78v-51.367l34.961-21.094
	V192.3h35.353v27.344H5030.9v121.289c0,10.028,0.617,16.475,1.855,19.336c1.236,2.866,3.253,5.146,6.055,6.837
	c2.799,1.693,6.804,2.538,12.013,2.538C5054.73,369.644,5059.873,369.189,5066.254,368.276L5066.254,368.276z M5086.566,337.808
	l34.766-5.469c1.953,13.936,7.389,24.609,16.309,32.031c8.918,7.422,21.388,11.133,37.402,11.133
	c16.145,0,28.125-3.287,35.938-9.863c7.813-6.572,11.72-14.288,11.72-23.145c0-7.94-3.451-14.19-10.353-18.75
	c-4.817-3.125-16.797-7.095-35.938-11.914c-25.781-6.509-43.652-12.14-53.613-16.896c-9.961-4.75-17.514-11.328-22.655-19.727
	c-5.146-8.398-7.715-17.676-7.715-27.832c0-9.244,2.115-17.804,6.349-25.684c4.229-7.876,9.99-14.419,17.285-19.629
	c5.469-4.034,12.92-7.452,22.362-10.254c9.438-2.798,19.562-4.199,30.371-4.199c16.274,0,30.565,2.344,42.871,7.031
	s21.388,11.035,27.246,19.043s9.894,18.72,12.108,32.129l-34.375,4.688c-1.563-10.675-6.088-19.009-13.574-25
	c-7.488-5.987-18.065-8.984-31.737-8.984c-16.146,0-27.67,2.67-34.569,8.008c-6.903,5.341-10.353,11.591-10.353,18.75
	c0,4.56,1.433,8.662,4.297,12.305c2.862,3.778,7.354,6.903,13.478,9.375c3.516,1.304,13.867,4.297,31.055,8.983
	c24.869,6.642,42.218,12.08,52.051,16.31c9.83,4.233,17.545,10.386,23.145,18.457c5.598,8.075,8.398,18.1,8.398,30.078
	c0,11.719-3.418,22.754-10.254,33.104c-6.836,10.352-16.699,18.359-29.59,24.023s-27.475,8.496-43.75,8.496
	c-26.953,0-47.494-5.597-61.621-16.797C5099.488,376.416,5090.475,359.814,5086.566,337.808L5086.566,337.808z"/>
<g>
	<path fill="#595959" d="M556.6,379.71V93.382h108.009c19.009,0,33.525,0.913,43.555,2.734c14.063,2.344,25.845,6.806,35.352,13.379
		c9.503,6.577,17.154,15.79,22.949,27.637c5.792,11.85,8.691,24.872,8.691,39.063c0,24.35-7.749,44.956-23.242,61.816
		c-15.497,16.864-43.491,25.293-83.984,25.293H594.49V379.71H556.6z M594.49,229.515h74.022c24.479,0,41.861-4.556,52.148-13.672
		c10.284-9.112,15.43-21.939,15.43-38.477c0-11.978-3.026-22.232-9.082-30.762c-6.055-8.526-14.032-14.16-23.926-16.895
		c-6.381-1.69-18.164-2.539-35.352-2.539H594.49V229.515z M960.896,312.913l36.327,4.492c-5.73,21.225-16.342,37.694-31.836,49.414
		c-15.497,11.719-35.288,17.578-59.375,17.578c-30.341,0-54.395-9.342-72.168-28.027c-17.772-18.684-26.66-44.888-26.66-78.613
		c0-34.894,8.984-61.978,26.953-81.25c17.97-19.269,41.275-28.906,69.922-28.906c27.734,0,50.392,9.442,67.97,28.32
		c17.578,18.881,26.367,45.444,26.367,79.688c0,2.084-0.067,5.209-0.195,9.375H843.514c1.301,22.788,7.745,40.233,19.336,52.344
		c11.587,12.109,26.041,18.164,43.359,18.164c12.891,0,23.892-3.384,33.008-10.156C948.329,338.566,955.556,327.757,960.896,312.913
		z M845.467,256.077h115.82c-1.563-17.447-5.991-30.533-13.281-39.258c-11.2-13.541-25.717-20.313-43.555-20.313
		c-16.147,0-29.721,5.405-40.724,16.211C852.724,223.527,846.639,237.98,845.467,256.077z M1040.975,379.71V172.288h31.642v31.445
		c8.071-14.712,15.526-24.414,22.362-29.102c6.837-4.688,14.355-7.031,22.56-7.031c11.847,0,23.893,3.778,36.133,11.328
		l-12.108,32.617c-8.595-5.078-17.188-7.617-25.781-7.617c-7.686,0-14.584,2.313-20.703,6.934
		c-6.122,4.624-10.482,11.035-13.086,19.238c-3.906,12.5-5.859,26.171-5.859,41.016V379.71H1040.975z M1174.764,133.812v-40.43
		h35.156v40.43H1174.764z M1174.764,379.71V172.288h35.156V379.71H1174.764z M1250.35,275.999c0-38.409,10.676-66.861,32.031-85.352
		c17.838-15.362,39.581-23.047,65.234-23.047c28.516,0,51.822,9.345,69.922,28.027c18.097,18.686,27.147,44.501,27.147,77.441
		c0,26.693-4.004,47.689-12.012,62.987c-8.008,15.303-19.662,27.183-34.961,35.646c-15.302,8.462-32.001,12.695-50.098,12.695
		c-29.037,0-52.51-9.309-70.41-27.931C1259.301,337.849,1250.35,311.027,1250.35,275.999L1250.35,275.999z M1286.482,275.999
		c0,26.563,5.791,46.454,17.383,59.668c11.588,13.217,26.172,19.824,43.75,19.824c17.447,0,31.964-6.642,43.555-19.922
		c11.588-13.281,17.383-33.526,17.383-60.742c0-25.65-5.828-45.083-17.479-58.301c-11.654-13.214-26.142-19.824-43.457-19.824
		c-17.578,0-32.162,6.577-43.75,19.727C1292.274,229.582,1286.482,249.437,1286.482,275.999L1286.482,275.999z M1620.467,379.71
		v-26.172c-13.152,20.575-32.488,30.859-58.008,30.859c-16.537,0-31.738-4.561-45.605-13.673
		c-13.866-9.111-24.608-21.841-32.227-38.184c-7.617-16.339-11.426-35.123-11.426-56.348c0-20.703,3.447-39.483,10.352-56.348
		c6.9-16.861,17.252-29.785,31.056-38.77c13.8-8.984,29.229-13.477,46.288-13.477c12.5,0,23.634,2.637,33.398,7.91
		c9.765,5.273,17.706,12.143,23.828,20.605V93.382h34.961V379.71H1620.467z M1509.334,276.193c0,26.563,5.597,46.421,16.797,59.57
		c11.197,13.153,24.414,19.728,39.648,19.728c15.361,0,28.418-6.28,39.16-18.849c10.741-12.563,16.112-31.738,16.112-57.52
		c0-28.384-5.469-49.219-16.405-62.5c-10.938-13.281-24.414-19.922-40.431-19.922c-15.625,0-28.681,6.381-39.16,19.141
		C1514.574,228.605,1509.334,248.723,1509.334,276.193L1509.334,276.193z M1708.553,133.812v-40.43h35.156v40.43H1708.553z
		 M1708.553,379.71V172.288h35.156V379.71H1708.553z M1932.576,303.732l34.57,4.492c-3.778,23.828-13.446,42.48-29.005,55.957
		c-15.561,13.478-34.668,20.216-57.323,20.216c-28.389,0-51.205-9.277-68.457-27.832c-17.256-18.556-25.879-45.147-25.879-79.786
		c0-22.394,3.711-41.991,11.133-58.788c7.422-16.797,18.717-29.395,33.887-37.793c15.167-8.398,31.671-12.598,49.512-12.598
		c22.525,0,40.948,5.698,55.273,17.09c14.322,11.396,23.502,27.573,27.539,48.535l-34.181,5.273
		c-3.256-13.931-9.018-24.414-17.285-31.445c-8.271-7.031-18.262-10.547-29.979-10.547c-17.709,0-32.1,6.348-43.164,19.043
		c-11.068,12.695-16.602,32.782-16.602,60.254c0,27.866,5.338,48.114,16.016,60.742c10.675,12.631,24.609,18.945,41.797,18.945
		c13.8,0,25.323-4.229,34.57-12.695C1924.242,334.333,1930.102,321.313,1932.576,303.732L1932.576,303.732z M2178.475,379.71
		V127.171h-94.336V93.382h226.953v33.789h-94.727V379.71H2178.475L2178.475,379.71z M2436.482,354.124
		c-13.021,11.069-25.557,18.881-37.599,23.438c-12.045,4.557-24.97,6.837-38.77,6.837c-22.787,0-40.302-5.566-52.539-16.699
		c-12.24-11.133-18.359-25.357-18.359-42.676c0-10.156,2.312-19.435,6.935-27.832c4.62-8.398,10.675-15.137,18.164-20.215
		c7.486-5.078,15.918-8.918,25.293-11.523c6.899-1.822,17.314-3.58,31.25-5.273c28.385-3.384,49.283-7.422,62.695-12.109
		c0.127-4.815,0.194-7.876,0.194-9.18c0-14.322-3.319-24.414-9.961-30.273c-8.983-7.94-22.333-11.914-40.039-11.914
		c-16.537,0-28.743,2.899-36.621,8.691c-7.88,5.795-13.705,16.049-17.479,30.762l-34.375-4.688
		c3.125-14.712,8.268-26.593,15.43-35.645c7.159-9.048,17.511-16.016,31.055-20.898c13.541-4.883,29.229-7.324,47.07-7.324
		c17.706,0,32.096,2.084,43.164,6.25c11.064,4.169,19.205,9.409,24.414,15.723c5.206,6.317,8.854,14.292,10.938,23.926
		c1.173,5.991,1.759,16.797,1.759,32.422v46.875c0,32.686,0.748,53.354,2.246,62.012c1.495,8.661,4.459,16.962,8.887,24.902h-36.719
		C2439.867,372.419,2437.523,363.89,2436.482,354.124L2436.482,354.124z M2433.553,275.607
		c-12.763,5.209-31.902,9.639-57.422,13.281c-14.453,2.084-24.677,4.428-30.664,7.031c-5.99,2.605-10.614,6.415-13.867,11.426
		c-3.256,5.015-4.883,10.581-4.883,16.699c0,9.375,3.546,17.188,10.645,23.438c7.097,6.25,17.48,9.375,31.152,9.375
		c13.541,0,25.586-2.96,36.133-8.888c10.548-5.923,18.293-14.028,23.242-24.315c3.775-7.94,5.664-19.659,5.664-35.156V275.607z
		 M2556.014,379.71h-32.617V93.382h35.156V195.53c14.844-18.619,33.789-27.93,56.836-27.93c12.76,0,24.835,2.573,36.23,7.715
		c11.393,5.146,20.768,12.372,28.125,21.68c7.354,9.311,13.115,20.542,17.285,33.691c4.166,13.153,6.25,27.216,6.25,42.188
		c0,35.547-8.789,63.022-26.367,82.422c-17.578,19.403-38.672,29.103-63.281,29.103c-24.48,0-43.686-10.221-57.617-30.664V379.71z
		 M2555.623,274.438c0,24.871,3.385,42.841,10.156,53.905c11.064,18.101,26.041,27.148,44.922,27.148
		c15.361,0,28.644-6.671,39.844-20.021c11.197-13.345,16.797-33.232,16.797-59.668c0-27.081-5.371-47.07-16.113-59.961
		c-10.741-12.891-23.729-19.336-38.965-19.336c-15.365,0-28.646,6.674-39.844,20.02
		C2561.22,229.875,2555.623,249.177,2555.623,274.438L2555.623,274.438z M2745.271,379.71V93.382h35.155V379.71H2745.271z
		 M2976.912,312.913l36.328,4.492c-5.731,21.225-16.342,37.694-31.836,49.414c-15.497,11.719-35.287,17.578-59.375,17.578
		c-30.342,0-54.396-9.342-72.168-28.027c-17.773-18.684-26.66-44.888-26.66-78.613c0-34.894,8.984-61.978,26.953-81.25
		c17.969-19.269,41.274-28.906,69.922-28.906c27.734,0,50.391,9.442,67.969,28.32c17.578,18.881,26.367,45.444,26.367,79.688
		c0,2.084-0.066,5.209-0.195,9.375h-154.688c1.3,22.788,7.745,40.233,19.336,52.344c11.588,12.109,26.041,18.164,43.358,18.164
		c12.892,0,23.894-3.384,33.009-10.156C2964.345,338.566,2971.571,327.757,2976.912,312.913L2976.912,312.913z M2861.482,256.077
		h115.82c-1.563-17.447-5.99-30.533-13.281-39.258c-11.2-13.541-25.717-20.313-43.555-20.313c-16.146,0-29.722,5.405-40.724,16.211
		C2868.739,223.527,2862.654,237.98,2861.482,256.077L2861.482,256.077z M3155.428,275.999c0-38.409,10.676-66.861,32.031-85.352
		c17.838-15.362,39.581-23.047,65.234-23.047c28.516,0,51.821,9.345,69.922,28.027c18.097,18.686,27.147,44.501,27.147,77.441
		c0,26.693-4.004,47.689-12.012,62.987c-8.009,15.303-19.662,27.183-34.961,35.646c-15.302,8.462-32.001,12.695-50.099,12.695
		c-29.037,0-52.509-9.309-70.409-27.931C3164.379,337.849,3155.428,311.027,3155.428,275.999L3155.428,275.999z M3191.561,275.999
		c0,26.563,5.793,46.454,17.384,59.668c11.588,13.217,26.172,19.824,43.75,19.824c17.446,0,31.964-6.642,43.555-19.922
		c11.588-13.281,17.383-33.526,17.383-60.742c0-25.65-5.829-45.083-17.479-58.301c-11.654-13.214-26.143-19.824-43.457-19.824
		c-17.578,0-32.162,6.577-43.75,19.727C3197.354,229.582,3191.561,249.437,3191.561,275.999z M3399.373,379.71V199.632h-31.055
		v-27.344h31.055v-22.07c0-13.931,1.236-24.283,3.711-31.055c3.385-9.112,9.342-16.504,17.871-22.168
		c8.525-5.664,20.475-8.496,35.84-8.496c9.895,0,20.831,1.172,32.813,3.516l-5.273,30.664c-7.294-1.3-14.192-1.953-20.702-1.953
		c-10.679,0-18.231,2.28-22.656,6.836c-4.428,4.56-6.642,13.086-6.642,25.586v19.141h40.431v27.344h-40.431V379.71H3399.373
		L3399.373,379.71z M3618.514,379.71V93.382h207.031v33.789h-169.141v87.695h158.397v33.594h-158.397v97.461h175.78v33.789H3618.514
		z M3879.256,379.71V93.382h35.156V379.71H3879.256z M4110.896,312.913l36.328,4.492c-5.731,21.225-16.342,37.694-31.836,49.414
		c-15.498,11.719-35.287,17.578-59.375,17.578c-30.342,0-54.396-9.342-72.168-28.027c-17.773-18.684-26.66-44.888-26.66-78.613
		c0-34.894,8.983-61.978,26.953-81.25c17.969-19.269,41.274-28.906,69.922-28.906c27.733,0,50.391,9.442,67.969,28.32
		c17.578,18.881,26.367,45.444,26.367,79.688c0,2.084-0.066,5.209-0.195,9.375h-154.688c1.3,22.788,7.745,40.233,19.336,52.344
		c11.588,12.109,26.041,18.164,43.359,18.164c12.891,0,23.893-3.384,33.008-10.156
		C4098.33,338.566,4105.557,327.757,4110.896,312.913L4110.896,312.913z M3995.467,256.077h115.82
		c-1.563-17.447-5.99-30.533-13.281-39.258c-11.199-13.541-25.717-20.313-43.555-20.313c-16.146,0-29.721,5.405-40.723,16.211
		C4002.725,223.527,3996.64,237.98,3995.467,256.077L3995.467,256.077z M4191.365,379.71V172.288h31.445v29.102
		c6.51-10.156,15.166-18.326,25.977-24.512c10.807-6.183,23.111-9.277,36.914-9.277c15.361,0,27.96,3.192,37.793,9.57
		c9.83,6.381,16.764,15.302,20.801,26.758c16.406-24.219,37.76-36.328,64.063-36.328c20.572,0,36.394,5.698,47.461,17.09
		c11.065,11.396,16.603,28.94,16.603,52.637V379.71h-34.961V249.046c0-14.063-1.142-24.185-3.418-30.371
		c-2.278-6.183-6.415-11.163-12.401-14.941c-5.99-3.775-13.021-5.664-21.095-5.664c-14.584,0-26.692,4.853-36.328,14.551
		c-9.638,9.702-14.453,25.229-14.453,46.582V379.71h-35.155V244.944c0-15.625-2.865-27.344-8.595-35.156
		c-5.731-7.813-15.106-11.719-28.125-11.719c-9.896,0-19.043,2.606-27.44,7.813c-8.398,5.209-14.486,12.827-18.263,22.852
		c-3.778,10.028-5.664,24.481-5.664,43.359V379.71H4191.365L4191.365,379.71z M4666.561,312.913l36.328,4.492
		c-5.73,21.225-16.342,37.694-31.836,49.414c-15.496,11.719-35.287,17.578-59.375,17.578c-30.34,0-54.395-9.342-72.168-28.027
		c-17.772-18.684-26.66-44.888-26.66-78.613c0-34.894,8.984-61.978,26.953-81.25c17.97-19.269,41.275-28.906,69.922-28.906
		c27.734,0,50.392,9.442,67.97,28.32c17.578,18.881,26.367,45.444,26.367,79.688c0,2.084-0.067,5.209-0.194,9.375h-154.688
		c1.3,22.788,7.745,40.233,19.336,52.344c11.588,12.109,26.041,18.164,43.358,18.164c12.892,0,23.894-3.384,33.008-10.156
		C4653.993,338.566,4661.221,327.757,4666.561,312.913L4666.561,312.913z M4551.131,256.077h115.82
		c-1.563-17.447-5.99-30.533-13.281-39.258c-11.2-13.541-25.717-20.313-43.555-20.313c-16.146,0-29.722,5.405-40.724,16.211
		C4558.388,223.527,4552.303,237.98,4551.131,256.077L4551.131,256.077z M4747.029,379.71V172.288h31.641v29.492
		c15.234-22.784,37.236-34.18,66.016-34.18c12.5,0,23.99,2.246,34.474,6.738c10.479,4.492,18.326,10.385,23.535,17.676
		c5.206,7.294,8.854,15.952,10.938,25.977c1.299,6.513,1.953,17.905,1.953,34.18V379.71h-35.156V253.538
		c0-14.322-1.367-25.03-4.102-32.129c-2.734-7.095-7.588-12.759-14.551-16.992c-6.967-4.229-15.138-6.348-24.513-6.348
		c-14.976,0-27.899,4.755-38.771,14.258c-10.873,9.506-16.309,27.539-16.309,54.103v113.28H4747.029L4747.029,379.71z
		 M5046.248,348.265l5.078,31.056c-9.896,2.081-18.75,3.125-26.563,3.125c-12.764,0-22.656-2.021-29.688-6.056
		c-7.032-4.033-11.981-9.341-14.845-15.918c-2.865-6.572-4.297-20.409-4.297-41.504V199.632h-25.78v-27.344h25.78v-51.367
		l34.961-21.094v72.461h35.353v27.344h-35.353v121.289c0,10.028,0.617,16.474,1.855,19.336c1.236,2.866,3.253,5.146,6.055,6.836
		c2.799,1.694,6.804,2.539,12.013,2.539C5034.726,349.632,5039.867,349.177,5046.248,348.265L5046.248,348.265z M5066.561,317.796
		l34.767-5.469c1.953,13.935,7.39,24.608,16.31,32.031c8.916,7.422,21.387,11.133,37.401,11.133c16.144,0,28.125-3.287,35.938-9.863
		c7.813-6.573,11.719-14.288,11.719-23.145c0-7.94-3.451-14.19-10.352-18.751c-4.818-3.125-16.797-7.094-35.938-11.914
		c-25.78-6.508-43.651-12.139-53.612-16.895c-9.961-4.751-17.515-11.328-22.656-19.727c-5.146-8.398-7.715-17.676-7.715-27.832
		c0-9.244,2.115-17.804,6.348-25.684c4.229-7.876,9.992-14.419,17.285-19.629c5.47-4.034,12.922-7.452,22.363-10.254
		c9.439-2.798,19.563-4.199,30.371-4.199c16.275,0,30.566,2.344,42.871,7.031s21.387,11.035,27.246,19.043
		c5.859,8.008,9.895,18.72,12.109,32.129l-34.375,4.688c-1.563-10.675-6.088-19.009-13.574-25
		c-7.489-5.987-18.066-8.984-31.738-8.984c-16.146,0-27.67,2.67-34.57,8.008c-6.902,5.341-10.352,11.591-10.352,18.75
		c0,4.56,1.432,8.661,4.297,12.305c2.861,3.778,7.354,6.903,13.477,9.375c3.517,1.303,13.867,4.297,31.056,8.984
		c24.869,6.641,42.218,12.079,52.051,16.309c9.83,4.234,17.545,10.386,23.146,18.457c5.597,8.076,8.397,18.101,8.397,30.079
		c0,11.719-3.418,22.754-10.254,33.104c-6.836,10.352-16.699,18.359-29.59,24.023s-27.476,8.496-43.75,8.496
		c-26.953,0-47.494-5.598-61.621-16.798c-14.132-11.194-23.146-27.797-27.052-49.803H5066.561z"/>
</g>
</svg>
