<?xml version="1.0" encoding="utf-8"?>
<!-- Generator: Adobe Illustrator 16.0.3, SVG Export Plug-In . SVG Version: 6.00 Build 0)  -->
<!DOCTYPE svg PUBLIC "-//W3C//DTD SVG 1.1//EN" "http://www.w3.org/Graphics/SVG/1.1/DTD/svg11.dtd">
<svg version="1.1" id="Layer_1" xmlns="http://www.w3.org/2000/svg" xmlns:xlink="http://www.w3.org/1999/xlink" x="0px" y="0px"
	 width="1400px" height="280px" viewBox="0 0 1400 280" enable-background="new 0 0 1400 280" xml:space="preserve">
<g>
	<path fill="#989898" d="M385.229,231.701l68.726-178.955h25.513l73.242,178.955h-26.978l-20.874-54.199h-74.829l-19.653,54.199
		H385.229L385.229,231.701z M436.865,158.214h60.669l-18.677-49.561c-5.697-15.055-9.931-27.424-12.695-37.109
		c-2.279,11.475-5.493,22.869-9.645,34.18L436.865,158.214z M653.418,184.215l21.606,2.809c-2.361,14.893-8.404,26.55-18.127,34.973
		c-9.727,8.423-21.667,12.634-35.828,12.634c-17.742,0-32.003-5.798-42.786-17.396c-10.784-11.596-16.174-28.217-16.174-49.865
		c0-13.996,2.318-26.245,6.958-36.743c4.639-10.498,11.697-18.372,21.179-23.621c9.479-5.249,19.794-7.874,30.945-7.874
		c14.078,0,25.593,3.561,34.546,10.681c8.951,7.122,14.688,17.233,17.212,30.334l-21.362,3.295
		c-2.035-8.707-5.636-15.258-10.803-19.652c-5.169-4.395-11.414-6.592-18.738-6.592c-11.067,0-20.062,3.967-26.978,11.902
		c-6.918,7.935-10.376,20.489-10.376,37.659c0,17.416,3.336,30.071,10.01,37.965c6.672,7.895,15.381,11.84,26.123,11.84
		c8.625,0,15.827-2.644,21.605-7.935C648.209,203.34,651.871,195.202,653.418,184.215L653.418,184.215z M741.797,212.047
		l3.174,19.409c-6.186,1.301-11.719,1.953-16.602,1.953c-7.978,0-14.16-1.263-18.555-3.784c-4.396-2.521-7.488-5.838-9.277-9.949
		c-1.791-4.107-2.686-12.756-2.686-25.939v-74.585h-16.113v-17.09h16.113V69.958l21.851-13.184v45.288h22.095v17.09h-22.095v75.806
		c0,6.269,0.385,10.296,1.16,12.085c0.771,1.791,2.033,3.216,3.784,4.271c1.749,1.06,4.251,1.588,7.507,1.588
		C734.595,212.902,737.809,212.618,741.797,212.047L741.797,212.047z M763.403,78.014V52.746h21.973v25.269L763.403,78.014
		L763.403,78.014z M763.403,231.701V102.062h21.973v129.639H763.403z M818.823,231.701V102.062h19.774v18.433
		c9.521-14.24,23.273-21.362,41.261-21.362c7.813,0,14.993,1.404,21.545,4.211c6.55,2.808,11.454,6.491,14.709,11.047
		c3.254,4.559,5.532,9.97,6.836,16.235c0.813,4.07,1.221,11.19,1.221,21.362V231.7h-21.973v-78.857
		c0-8.95-0.854-15.644-2.563-20.081c-1.709-4.435-4.742-7.975-9.094-10.62c-4.354-2.644-9.46-3.967-15.32-3.967
		c-9.358,0-17.437,2.972-24.23,8.911c-6.796,5.941-10.193,17.212-10.193,33.813V231.7L818.823,231.701L818.823,231.701z
		 M957.982,78.014V52.746h21.974v25.269L957.982,78.014L957.982,78.014z M957.982,231.701V102.062h21.974v129.639H957.982z
		 M1097.51,231.701v-16.357c-8.221,12.859-20.306,19.287-36.255,19.287c-10.336,0-19.836-2.85-28.503-8.545
		s-15.381-13.65-20.143-23.865c-4.761-10.212-7.141-21.951-7.141-35.217c0-12.939,2.155-24.677,6.471-35.217
		c4.313-10.538,10.781-18.616,19.408-24.231c8.625-5.615,18.27-8.423,28.932-8.423c7.813,0,14.771,1.648,20.874,4.944
		c6.103,3.296,11.065,7.589,14.893,12.878V52.746h21.851v178.955H1097.51L1097.51,231.701z M1028.052,167.003
		c0,16.603,3.498,29.013,10.498,37.231c6.998,8.221,15.259,12.328,24.78,12.328c9.602,0,17.761-3.924,24.475-11.779
		c6.715-7.854,10.071-19.836,10.071-35.95c0-17.74-3.418-30.762-10.254-39.063c-6.836-8.301-15.259-12.451-25.269-12.451
		c-9.767,0-17.926,3.988-24.476,11.963C1031.327,137.26,1028.052,149.833,1028.052,167.003z M1241.188,189.953l22.704,2.808
		c-3.582,13.267-10.214,23.56-19.896,30.884c-9.687,7.324-22.056,10.986-37.109,10.986c-18.963,0-33.997-5.838-45.104-17.517
		c-11.108-11.677-16.663-28.056-16.663-49.134c0-21.809,5.615-38.735,16.846-50.78c11.23-12.043,25.797-18.066,43.701-18.066
		c17.334,0,31.494,5.901,42.479,17.7c10.986,11.801,16.479,28.402,16.479,49.805c0,1.303-0.042,3.256-0.122,5.859h-96.68
		c0.813,14.242,4.841,25.146,12.085,32.715c7.241,7.568,16.274,11.354,27.1,11.354c8.058,0,14.933-2.115,20.63-6.349
		C1233.332,205.986,1237.849,199.23,1241.188,189.953z M1169.043,154.43h72.388c-0.977-10.904-3.744-19.083-8.301-24.536
		c-7-8.463-16.073-12.695-27.222-12.695c-10.093,0-18.576,3.378-25.452,10.132C1173.579,134.086,1169.774,143.12,1169.043,154.43
		L1169.043,154.43z M1282.689,193.004l21.729-3.418c1.221,8.709,4.618,15.381,10.193,20.02c5.572,4.64,13.366,6.959,23.376,6.959
		c10.09,0,17.578-2.055,22.461-6.166c4.883-4.107,7.324-8.93,7.324-14.465c0-4.963-2.157-8.869-6.471-11.719
		c-3.012-1.953-10.498-4.435-22.461-7.445c-16.113-4.068-27.283-7.588-33.508-10.56c-6.227-2.97-10.946-7.08-14.16-12.329
		c-3.216-5.249-4.822-11.047-4.822-17.395c0-5.777,1.322-11.127,3.967-16.052c2.645-4.923,6.245-9.012,10.804-12.268
		c3.418-2.521,8.076-4.658,13.977-6.409c5.899-1.749,12.227-2.625,18.982-2.625c10.172,0,19.104,1.465,26.794,4.395
		c7.689,2.93,13.367,6.897,17.029,11.902c3.662,5.005,6.184,11.7,7.567,20.081l-21.483,2.93c-0.978-6.672-3.806-11.881-8.484-15.625
		c-4.681-3.742-11.292-5.615-19.836-5.615c-10.092,0-17.294,1.669-21.606,5.005c-4.313,3.338-6.47,7.244-6.47,11.719
		c0,2.85,0.896,5.413,2.687,7.69c1.788,2.36,4.597,4.313,8.423,5.858c2.197,0.814,8.667,2.687,19.409,5.615
		c15.543,4.15,26.386,7.549,32.531,10.193c6.145,2.646,10.966,6.49,14.466,11.535c3.498,5.047,5.248,11.313,5.248,18.8
		c0,7.323-2.136,14.221-6.408,20.69c-4.273,6.471-10.438,11.476-18.494,15.016c-8.058,3.539-17.172,5.31-27.344,5.31
		c-16.847,0-29.685-3.498-38.514-10.498C1290.766,217.134,1285.132,206.758,1282.689,193.004L1282.689,193.004z"/>
</g>
</svg>
