<?xml version="1.0" encoding="utf-8"?>
<!-- Generator: Adobe Illustrator 16.0.3, SVG Export Plug-In . SVG Version: 6.00 Build 0)  -->
<!DOCTYPE svg PUBLIC "-//W3C//DTD SVG 1.1//EN" "http://www.w3.org/Graphics/SVG/1.1/DTD/svg11.dtd">
<svg version="1.1" id="Layer_1" xmlns="http://www.w3.org/2000/svg" xmlns:xlink="http://www.w3.org/1999/xlink" x="0px" y="0px"
	 width="1400px" height="280px" viewBox="0 0 1400 280" enable-background="new 0 0 1400 280" xml:space="preserve">
<g>
	<path fill="#989898" d="M56.006,230.7V51.745h23.682v157.837h88.135V230.7H56.006z M277.808,214.708
		c-8.139,6.918-15.972,11.801-23.499,14.647c-7.528,2.849-15.606,4.272-24.231,4.272c-14.242,0-25.188-3.479-32.837-10.437
		c-7.65-6.959-11.475-15.849-11.475-26.672c0-6.349,1.444-12.146,4.333-17.396c2.888-5.249,6.672-9.46,11.353-12.634
		c4.679-3.174,9.949-5.573,15.808-7.202c4.313-1.14,10.822-2.237,19.531-3.296c17.74-2.115,30.802-4.639,39.185-7.568
		c0.08-3.01,0.122-4.923,0.122-5.736c0-8.952-2.075-15.26-6.226-18.921c-5.615-4.963-13.958-7.446-25.024-7.446
		c-10.336,0-17.965,1.812-22.888,5.432c-4.925,3.622-8.566,10.031-10.925,19.227l-21.484-2.931
		c1.953-9.195,5.167-16.621,9.644-22.278c4.475-5.655,10.944-10.01,19.409-13.062c8.463-3.052,18.269-4.578,29.419-4.578
		c11.066,0,20.06,1.303,26.978,3.906c6.916,2.605,12.003,5.88,15.259,9.827c3.254,3.948,5.533,8.932,6.836,14.954
		c0.732,3.744,1.099,10.498,1.099,20.264v29.297c0,20.429,0.467,33.347,1.404,38.757c0.935,5.413,2.787,10.602,5.554,15.564h-22.949
		C279.923,226.143,278.458,220.813,277.808,214.708L277.808,214.708z M275.977,165.636c-7.977,3.257-19.939,6.023-35.889,8.302
		c-9.033,1.303-15.423,2.768-19.165,4.395c-3.744,1.629-6.634,4.009-8.667,7.141c-2.035,3.135-3.052,6.613-3.052,10.438
		c0,5.859,2.216,10.742,6.653,14.648c4.435,3.905,10.925,5.858,19.47,5.858c8.463,0,15.991-1.851,22.583-5.554
		c6.592-3.702,11.433-8.769,14.526-15.198c2.359-4.963,3.54-12.287,3.54-21.974L275.977,165.636L275.977,165.636z M332.251,230.7
		V101.061h19.775v18.433c9.521-14.24,23.273-21.362,41.26-21.362c7.813,0,14.994,1.404,21.545,4.211
		c6.55,2.808,11.454,6.491,14.709,11.047c3.254,4.559,5.533,9.97,6.836,16.235c0.813,4.07,1.221,11.189,1.221,21.361V230.7h-21.973
		v-78.857c0-8.95-0.854-15.644-2.563-20.081c-1.71-4.435-4.742-7.975-9.095-10.62c-4.354-2.644-9.46-3.967-15.32-3.967
		c-9.359,0-17.437,2.972-24.231,8.911c-6.796,5.941-10.193,17.212-10.193,33.813V230.7H332.251L332.251,230.7z M519.263,211.046
		l3.175,19.409c-6.187,1.301-11.72,1.953-16.603,1.953c-7.977,0-14.16-1.264-18.555-3.784c-4.396-2.521-7.488-5.838-9.277-9.949
		c-1.791-4.108-2.686-12.756-2.686-25.94V118.15h-16.113v-17.09h16.113V68.957l21.851-13.184v45.288h22.095v17.09h-22.095v75.806
		c0,6.268,0.385,10.296,1.16,12.085c0.771,1.791,2.033,3.216,3.784,4.272c1.749,1.059,4.251,1.586,7.507,1.586
		C512.061,211.9,515.274,211.617,519.263,211.046z M540.747,230.7V51.745h21.973v64.209c10.254-11.881,23.193-17.822,38.818-17.822
		c9.602,0,17.944,1.892,25.024,5.676c7.079,3.784,12.146,9.014,15.197,15.686c3.053,6.674,4.578,16.357,4.578,29.053V230.7h-21.973
		v-82.153c0-10.986-2.38-18.982-7.142-23.987c-4.761-5.005-11.495-7.507-20.202-7.507c-6.513,0-12.635,1.69-18.372,5.066
		c-5.737,3.378-9.827,7.956-12.269,13.733c-2.44,5.779-3.662,13.753-3.662,23.925V230.7H540.747z M764.38,214.708
		c-8.139,6.918-15.972,11.801-23.499,14.647c-7.528,2.849-15.605,4.272-24.23,4.272c-14.242,0-25.188-3.479-32.838-10.437
		c-7.649-6.959-11.475-15.849-11.475-26.672c0-6.349,1.444-12.146,4.333-17.396c2.888-5.249,6.672-9.46,11.354-12.634
		c4.679-3.174,9.948-5.573,15.808-7.202c4.313-1.14,10.822-2.237,19.531-3.296c17.74-2.115,30.802-4.639,39.185-7.568
		c0.08-3.01,0.122-4.923,0.122-5.736c0-8.952-2.075-15.26-6.226-18.921c-5.615-4.963-13.958-7.446-25.024-7.446
		c-10.336,0-17.965,1.812-22.888,5.432c-4.925,3.622-8.566,10.031-10.925,19.227l-21.484-2.931
		c1.953-9.195,5.167-16.621,9.644-22.278c4.476-5.655,10.944-10.01,19.409-13.062c8.463-3.052,18.27-4.578,29.419-4.578
		c11.066,0,20.061,1.303,26.979,3.906c6.916,2.605,12.003,5.88,15.259,9.827c3.254,3.948,5.533,8.932,6.836,14.954
		c0.732,3.744,1.099,10.498,1.099,20.264v29.297c0,20.429,0.468,33.347,1.404,38.757c0.936,5.413,2.787,10.602,5.554,15.564h-22.948
		C766.495,226.143,765.03,220.813,764.38,214.708L764.38,214.708z M762.549,165.636c-7.977,3.257-19.938,6.023-35.889,8.302
		c-9.033,1.303-15.423,2.768-19.165,4.395c-3.744,1.629-6.634,4.009-8.667,7.141c-2.035,3.135-3.052,6.613-3.052,10.438
		c0,5.859,2.216,10.742,6.652,14.648c4.436,3.905,10.926,5.858,19.471,5.858c8.463,0,15.99-1.851,22.583-5.554
		c6.592-3.702,11.433-8.769,14.525-15.198c2.359-4.963,3.54-12.287,3.54-21.974L762.549,165.636L762.549,165.636z M818.823,230.7
		V101.061h19.774v18.433c9.521-14.24,23.273-21.362,41.261-21.362c7.813,0,14.993,1.404,21.545,4.211
		c6.55,2.808,11.454,6.491,14.709,11.047c3.254,4.559,5.532,9.97,6.836,16.235c0.813,4.07,1.221,11.189,1.221,21.361V230.7h-21.973
		v-78.857c0-8.95-0.854-15.644-2.563-20.081c-1.709-4.435-4.742-7.975-9.094-10.62c-4.354-2.644-9.46-3.967-15.32-3.967
		c-9.358,0-17.437,2.972-24.23,8.911c-6.796,5.941-10.193,17.212-10.193,33.813V230.7H818.823z M957.982,77.013V51.745h21.974
		v25.269L957.982,77.013L957.982,77.013z M957.982,230.7V101.061h21.974V230.7H957.982z M1097.51,230.7v-16.357
		c-8.221,12.859-20.306,19.287-36.255,19.287c-10.336,0-19.836-2.851-28.503-8.545s-15.381-13.651-20.143-23.864
		c-4.761-10.213-7.141-21.953-7.141-35.218c0-12.938,2.155-24.677,6.471-35.217c4.313-10.538,10.781-18.616,19.408-24.231
		c8.625-5.615,18.27-8.423,28.932-8.423c7.813,0,14.771,1.648,20.874,4.944c6.103,3.296,11.065,7.589,14.893,12.878V51.745h21.851
		V230.7H1097.51L1097.51,230.7z M1028.052,166.002c0,16.602,3.498,29.014,10.498,37.23c6.998,8.222,15.259,12.33,24.78,12.33
		c9.602,0,17.761-3.926,24.475-11.78c6.715-7.853,10.071-19.837,10.071-35.95c0-17.74-3.418-30.762-10.254-39.063
		c-6.836-8.301-15.259-12.451-25.269-12.451c-9.767,0-17.926,3.988-24.476,11.963
		C1031.327,136.259,1028.052,148.833,1028.052,166.002L1028.052,166.002z M1241.188,188.952l22.704,2.808
		c-3.582,13.266-10.214,23.561-19.896,30.885c-9.687,7.323-22.056,10.985-37.109,10.985c-18.963,0-33.997-5.838-45.104-17.517
		c-11.108-11.678-16.663-28.055-16.663-49.133c0-21.81,5.615-38.736,16.846-50.781c11.23-12.043,25.797-18.066,43.701-18.066
		c17.334,0,31.494,5.901,42.479,17.7c10.986,11.801,16.479,28.401,16.479,49.806c0,1.303-0.042,3.256-0.122,5.858h-96.68
		c0.813,14.242,4.841,25.146,12.085,32.715c7.241,7.567,16.274,11.353,27.1,11.353c8.058,0,14.933-2.114,20.63-6.348
		C1233.332,204.984,1237.849,198.229,1241.188,188.952L1241.188,188.952z M1169.043,153.43h72.388
		c-0.977-10.904-3.744-19.083-8.301-24.537c-7-8.463-16.073-12.695-27.222-12.695c-10.093,0-18.576,3.378-25.452,10.132
		C1173.579,133.085,1169.774,142.119,1169.043,153.43L1169.043,153.43z M1282.689,192.003l21.729-3.418
		c1.221,8.709,4.618,15.381,10.193,20.021c5.572,4.639,13.366,6.957,23.376,6.957c10.09,0,17.578-2.054,22.461-6.164
		c4.883-4.108,7.324-8.931,7.324-14.465c0-4.963-2.157-8.869-6.471-11.72c-3.012-1.952-10.498-4.435-22.461-7.446
		c-16.113-4.067-27.283-7.586-33.508-10.559c-6.227-2.97-10.946-7.08-14.16-12.329c-3.216-5.249-4.822-11.047-4.822-17.395
		c0-5.777,1.322-11.127,3.967-16.052c2.645-4.923,6.245-9.012,10.804-12.268c3.418-2.521,8.076-4.658,13.977-6.409
		c5.899-1.749,12.227-2.625,18.982-2.625c10.172,0,19.104,1.465,26.794,4.395c7.689,2.93,13.367,6.897,17.029,11.902
		c3.662,5.005,6.184,11.7,7.567,20.081l-21.483,2.93c-0.978-6.672-3.806-11.881-8.484-15.625
		c-4.681-3.742-11.292-5.615-19.836-5.615c-10.092,0-17.294,1.669-21.606,5.005c-4.313,3.338-6.47,7.244-6.47,11.719
		c0,2.85,0.896,5.413,2.687,7.69c1.788,2.361,4.597,4.313,8.423,5.859c2.197,0.813,8.667,2.686,19.409,5.614
		c15.543,4.149,26.386,7.55,32.531,10.193c6.145,2.646,10.966,6.491,14.466,11.536c3.498,5.047,5.248,11.313,5.248,18.799
		c0,7.324-2.136,14.221-6.408,20.691c-4.273,6.469-10.438,11.475-18.494,15.014c-8.058,3.541-17.172,5.311-27.344,5.311
		c-16.847,0-29.685-3.498-38.514-10.498C1290.766,216.133,1285.132,205.757,1282.689,192.003z"/>
</g>
</svg>
