<?xml version="1.0" encoding="utf-8"?>
<!-- Generator: Adobe Illustrator 16.0.3, SVG Export Plug-In . SVG Version: 6.00 Build 0)  -->
<!DOCTYPE svg PUBLIC "-//W3C//DTD SVG 1.1//EN" "http://www.w3.org/Graphics/SVG/1.1/DTD/svg11.dtd">
<svg version="1.1" id="Layer_1" xmlns="http://www.w3.org/2000/svg" xmlns:xlink="http://www.w3.org/1999/xlink" x="0px" y="0px"
	 width="1800px" height="1800px" viewBox="0 0 1800 1800" enable-background="new 0 0 1800 1800" xml:space="preserve">
<path fill="#FFFFFF" d="M360.725,720.242c-99.227,0-179.759,80.575-179.759,179.758c0,99.184,80.532,179.758,179.759,179.758
	S540.483,999.184,540.483,900C540.483,800.817,459.951,720.242,360.725,720.242z M900,720.242
	c-99.227,0-179.758,80.575-179.758,179.758c0,99.184,80.531,179.758,179.758,179.758c99.184,0,179.76-80.574,179.76-179.758
	C1079.76,800.817,999.184,720.242,900,720.242z M1439.275,720.242c-99.183,0-179.758,80.575-179.758,179.758
	c0,99.184,80.575,179.758,179.758,179.758c99.184,0,179.759-80.574,179.759-179.758
	C1619.034,800.817,1538.459,720.242,1439.275,720.242z"/>
</svg>
