<?xml version="1.0" encoding="utf-8"?>
<!-- Generator: Adobe Illustrator 16.0.3, SVG Export Plug-In . SVG Version: 6.00 Build 0)  -->
<!DOCTYPE svg PUBLIC "-//W3C//DTD SVG 1.1//EN" "http://www.w3.org/Graphics/SVG/1.1/DTD/svg11.dtd">
<svg version="1.1" id="Layer_1" xmlns="http://www.w3.org/2000/svg" xmlns:xlink="http://www.w3.org/1999/xlink" x="0px" y="0px"
	 width="1800px" height="1800px" viewBox="0 0 1800 1800" enable-background="new 0 0 1800 1800" xml:space="preserve">
<path fill="#30A1BF" d="M361.725,721.242c-99.227,0-179.759,80.576-179.759,179.758c0,99.184,80.532,179.758,179.759,179.758
	c99.227,0,179.758-80.574,179.758-179.758C541.483,801.817,460.951,721.242,361.725,721.242z M901,721.242
	c-99.227,0-179.758,80.576-179.758,179.758c0,99.184,80.531,179.758,179.758,179.758c99.184,0,179.76-80.574,179.76-179.758
	C1080.76,801.817,1000.184,721.242,901,721.242z M1440.275,721.242c-99.183,0-179.758,80.576-179.758,179.758
	c0,99.184,80.575,179.758,179.758,179.758c99.184,0,179.759-80.574,179.759-179.758
	C1620.034,801.817,1539.459,721.242,1440.275,721.242z"/>
</svg>
